<?xml version="1.0" encoding="utf-8"?>
<!-- Generator: Adobe Illustrator 16.0.0, SVG Export Plug-In . SVG Version: 6.00 Build 0)  -->
<!DOCTYPE svg PUBLIC "-//W3C//DTD SVG 1.1//EN" "http://www.w3.org/Graphics/SVG/1.1/DTD/svg11.dtd">
<svg version="1.1" id="Layer_1" xmlns="http://www.w3.org/2000/svg" xmlns:xlink="http://www.w3.org/1999/xlink" x="0px" y="0px"
	 width="4682.1px" height="90px" viewBox="1019 253.3 4682.1 90" enable-background="new 1019 253.3 4682.1 90"
	 xml:space="preserve">
<g id="Music">
	<rect x="1017" y="247.7" fill="#FFFFFF" width="4685" height="152.3"/>
	<line fill="none" stroke="#000000" stroke-width="0.459" x1="1177.4" y1="284.4" x2="1177.4" y2="300.1"/>
	<line fill="none" stroke="#000000" stroke-width="0.459" x1="1292.3" y1="284.4" x2="1292.3" y2="300.1"/>
	<line fill="none" stroke="#000000" stroke-width="0.459" x1="1407.1" y1="284.4" x2="1407.1" y2="300.1"/>
	<line fill="none" stroke="#000000" stroke-width="0.459" x1="1522" y1="284.4" x2="1522" y2="300.1"/>
	<line fill="none" stroke="#000000" stroke-width="0.459" x1="1636.8" y1="284.4" x2="1636.8" y2="300.1"/>
	<line fill="none" stroke="#000000" stroke-width="0.459" x1="1751.7" y1="284.4" x2="1751.7" y2="300.1"/>
	<line fill="none" stroke="#000000" stroke-width="0.459" x1="1866.5" y1="284.4" x2="1866.5" y2="300.1"/>
	<line fill="none" stroke="#000000" stroke-width="0.459" x1="1981.4" y1="284.4" x2="1981.4" y2="300.1"/>
	<line fill="none" stroke="#000000" stroke-width="0.459" x1="2096.2" y1="284.4" x2="2096.2" y2="300.1"/>
	<line fill="none" stroke="#000000" stroke-width="0.459" x1="2211.1" y1="284.4" x2="2211.1" y2="300.1"/>
	<line fill="none" stroke="#000000" stroke-width="0.459" x1="2325.9" y1="284.4" x2="2325.9" y2="300.1"/>
	<line fill="none" stroke="#000000" stroke-width="0.459" x1="2440.8" y1="284.4" x2="2440.8" y2="300.1"/>
	<line fill="none" stroke="#000000" stroke-width="0.459" x1="2555.6" y1="284.4" x2="2555.6" y2="300.1"/>
	<line fill="none" stroke="#000000" stroke-width="0.459" x1="2670.5" y1="284.4" x2="2670.5" y2="300.1"/>
	<line fill="none" stroke="#000000" stroke-width="0.459" x1="2785.3" y1="284.4" x2="2785.3" y2="300.1"/>
	<line fill="none" stroke="#000000" stroke-width="0.459" x1="2900.2" y1="284.4" x2="2900.2" y2="300.1"/>
	<line fill="none" stroke="#000000" stroke-width="0.459" x1="3015" y1="284.4" x2="3015" y2="300.1"/>
	<line fill="none" stroke="#000000" stroke-width="0.459" x1="3129.9" y1="284.4" x2="3129.9" y2="300.1"/>
	<line fill="none" stroke="#000000" stroke-width="0.459" x1="3244.7" y1="284.4" x2="3244.7" y2="300.1"/>
	<line fill="none" stroke="#000000" stroke-width="0.459" x1="3359.5" y1="284.4" x2="3359.5" y2="300.1"/>
	<line fill="none" stroke="#000000" stroke-width="0.459" x1="3474.4" y1="284.4" x2="3474.4" y2="300.1"/>
	<line fill="none" stroke="#000000" stroke-width="0.459" x1="3589.2" y1="284.4" x2="3589.2" y2="300.1"/>
	<line fill="none" stroke="#000000" stroke-width="0.459" x1="3704.1" y1="284.4" x2="3704.1" y2="300.1"/>
	<line fill="none" stroke="#000000" stroke-width="0.459" x1="3818.9" y1="284.4" x2="3818.9" y2="300.1"/>
	<line fill="none" stroke="#000000" stroke-width="0.459" x1="3933.8" y1="284.4" x2="3933.8" y2="300.1"/>
	<line fill="none" stroke="#000000" stroke-width="0.459" x1="4048.6" y1="284.4" x2="4048.6" y2="300.1"/>
	<line fill="none" stroke="#000000" stroke-width="0.459" x1="4163.5" y1="284.4" x2="4163.5" y2="300.1"/>
	<line fill="none" stroke="#000000" stroke-width="0.459" x1="4278.3" y1="284.4" x2="4278.3" y2="300.1"/>
	<line fill="none" stroke="#000000" stroke-width="0.459" x1="4393.2" y1="284.4" x2="4393.2" y2="300.1"/>
	<line fill="none" stroke="#000000" stroke-width="0.459" x1="4508" y1="284.4" x2="4508" y2="300.1"/>
	<line fill="none" stroke="#000000" stroke-width="0.459" x1="4622.9" y1="284.4" x2="4622.9" y2="300.1"/>
	<line fill="none" stroke="#000000" stroke-width="0.459" x1="4737.7" y1="284.4" x2="4737.7" y2="300.1"/>
	<line fill="none" stroke="#000000" stroke-width="0.459" x1="4852.6" y1="284.4" x2="4852.6" y2="300.1"/>
	<line fill="none" stroke="#000000" stroke-width="0.459" x1="4967.4" y1="284.4" x2="4967.4" y2="300.1"/>
	<line fill="none" stroke="#000000" stroke-width="0.459" x1="5082.3" y1="284.4" x2="5082.3" y2="300.1"/>
	<line fill="none" stroke="#000000" stroke-width="0.459" x1="5197.1" y1="284.4" x2="5197.1" y2="300.1"/>
	<line fill="none" stroke="#000000" stroke-width="0.459" x1="5312" y1="284.4" x2="5312" y2="300.1"/>
	<line fill="none" stroke="#000000" stroke-width="0.459" x1="5426.8" y1="284.4" x2="5426.8" y2="300.1"/>
	<line fill="none" stroke="#000000" stroke-width="0.459" x1="5541.7" y1="284.4" x2="5541.7" y2="300.1"/>
	<line fill="none" stroke="#000000" stroke-width="0.459" x1="5655.8" y1="284.4" x2="5655.8" y2="300.1"/>
	<line fill="none" stroke="#000000" stroke-width="0.459" x1="1062.9" y1="284.4" x2="5656.1" y2="284.4"/>
	<line fill="none" stroke="#000000" stroke-width="0.459" x1="1062.9" y1="292.3" x2="5656.1" y2="292.3"/>
	<line fill="none" stroke="#000000" stroke-width="0.459" x1="1062.9" y1="300.1" x2="5656.1" y2="300.1"/>
	<g enable-background="new    ">
		<path d="M1076.1,306.2c-1.3,0-2.4,0.8-2.4,2.3c0,0.9,1.6,2.5,1.6,2.5l-0.4,0.3c0,0-3.7-2.2-4-4.5c-0.2-1.4,0.7-2.9,2.5-3
			c0.7-0.1,1.9,0.2,2.4,0.3c-3-2.9-4.6-4.9-4.3-5.5c0.6-0.7,2.7-3.3,2.7-5.6c0-1.4-2.2-4.7-2.2-4.7l0.4-0.3l5.7,7.2
			c0,0-2.7,3.2-2.7,5.5c0,1.6,1,3,1.7,3.8c0.4,0.5,1.6,1.7,1.6,1.9l-0.1,0.5C1077.6,306.4,1076.8,306.2,1076.1,306.2z"/>
	</g>
	<line fill="none" stroke="#000000" stroke-width="0.459" x1="1097.7" y1="293.6" x2="1097.7" y2="319.6"/>
	<g enable-background="new    ">
		<path d="M1103.8,288.3c2.7,0,4.1,1.8,3.3,4.1c-0.8,2.2-3.6,4-6.2,4c-2.6,0-4.1-1.9-3.2-4.1
			C1098.4,290.1,1101.2,288.3,1103.8,288.3z"/>
	</g>
	<g enable-background="new    ">
		<path d="M1129.5,306.2c-1.3,0-2.4,0.8-2.4,2.3c0,0.9,1.6,2.5,1.6,2.5l-0.4,0.3c0,0-3.7-2.2-4-4.5c-0.2-1.4,0.7-2.9,2.5-3
			c0.7-0.1,1.9,0.2,2.4,0.3c-3-2.9-4.6-4.9-4.3-5.5c0.6-0.7,2.7-3.3,2.7-5.6c0-1.4-2.2-4.7-2.2-4.7l0.4-0.3l5.7,7.2
			c0,0-2.7,3.2-2.7,5.5c0,1.6,1,3,1.7,3.8c0.4,0.5,1.6,1.7,1.6,1.9l-0.1,0.5C1131,306.4,1130.2,306.2,1129.5,306.2z"/>
	</g>
	<line fill="none" stroke="#000000" stroke-width="0.459" x1="1150.8" y1="293.6" x2="1150.8" y2="319.6"/>
	<g enable-background="new    ">
		<path d="M1156.9,288.3c2.7,0,4.1,1.8,3.3,4.1c-0.8,2.2-3.6,4-6.2,4c-2.6,0-4.1-1.9-3.2-4.1
			C1151.5,290.1,1154.2,288.3,1156.9,288.3z"/>
	</g>
	<g enable-background="new    ">
		<path d="M1191,306.2c-1.3,0-2.4,0.8-2.4,2.3c0,0.9,1.6,2.5,1.6,2.5l-0.4,0.3c0,0-3.7-2.2-4-4.5c-0.2-1.4,0.7-2.9,2.5-3
			c0.7-0.1,1.9,0.2,2.4,0.3c-3-2.9-4.6-4.9-4.3-5.5c0.6-0.7,2.7-3.3,2.7-5.6c0-1.4-2.2-4.7-2.2-4.7l0.4-0.3l5.7,7.2
			c0,0-2.7,3.2-2.7,5.5c0,1.6,1,3,1.7,3.8c0.4,0.5,1.6,1.7,1.6,1.9l-0.1,0.5C1192.5,306.4,1191.6,306.2,1191,306.2z"/>
	</g>
	<g enable-background="new    ">
		<path d="M1217,288.3c2.7,0,4.1,1.8,3.3,4.1c-0.8,2.2-3.6,4-6.2,4c-2.6,0-4.1-1.9-3.2-4.1C1211.6,290.1,1214.4,288.3,1217,288.3z"
			/>
	</g>
	<line fill="none" stroke="#000000" stroke-width="0.459" x1="1211" y1="293.6" x2="1211" y2="317.6"/>
	<g enable-background="new    ">
		<path d="M1232.7,288.3c2.7,0,4.1,1.8,3.3,4.1c-0.8,2.2-3.6,4-6.2,4c-2.6,0-4.1-1.9-3.2-4.1C1227.3,290.1,1230,288.3,1232.7,288.3z
			"/>
	</g>
	<line fill="none" stroke="#000000" stroke-width="0.459" x1="1226.6" y1="293.6" x2="1226.6" y2="317.6"/>
	<path d="M1210.6,315.7h16.4v3.9h-16.4V315.7z"/>
	<g enable-background="new    ">
		<path d="M1247.3,306.2c-1.3,0-2.4,0.8-2.4,2.3c0,0.9,1.6,2.5,1.6,2.5l-0.4,0.3c0,0-3.7-2.2-4-4.5c-0.2-1.4,0.7-2.9,2.5-3
			c0.7-0.1,1.9,0.2,2.4,0.3c-3-2.9-4.6-4.9-4.3-5.5c0.6-0.7,2.7-3.3,2.7-5.6c0-1.4-2.2-4.7-2.2-4.7l0.4-0.3l5.7,7.2
			c0,0-2.7,3.2-2.7,5.5c0,1.6,1,3,1.7,3.8c0.4,0.5,1.6,1.7,1.6,1.9l-0.1,0.5C1248.8,306.4,1247.9,306.2,1247.3,306.2z"/>
	</g>
	<line fill="none" stroke="#000000" stroke-width="0.459" x1="1267.2" y1="293.6" x2="1267.2" y2="319.6"/>
	<g enable-background="new    ">
		<path d="M1273.3,288.3c2.7,0,4.1,1.8,3.3,4.1c-0.8,2.2-3.6,4-6.2,4c-2.6,0-4.1-1.9-3.2-4.1
			C1267.9,290.1,1270.7,288.3,1273.3,288.3z"/>
	</g>
	<g enable-background="new    ">
		<path d="M1305.8,306.2c-1.3,0-2.4,0.8-2.4,2.3c0,0.9,1.6,2.5,1.6,2.5l-0.4,0.3c0,0-3.7-2.2-4-4.5c-0.2-1.4,0.7-2.9,2.5-3
			c0.7-0.1,1.9,0.2,2.4,0.3c-3-2.9-4.6-4.9-4.3-5.5c0.6-0.7,2.7-3.3,2.7-5.6c0-1.4-2.2-4.7-2.2-4.7l0.4-0.3l5.7,7.2
			c0,0-2.7,3.2-2.7,5.5c0,1.6,1,3,1.7,3.8c0.4,0.5,1.6,1.7,1.6,1.9l-0.1,0.5C1307.3,306.4,1306.5,306.2,1305.8,306.2z"/>
	</g>
	<line fill="none" stroke="#000000" stroke-width="0.459" x1="1327.4" y1="293.6" x2="1327.4" y2="319.6"/>
	<g enable-background="new    ">
		<path d="M1333.5,288.3c2.7,0,4.1,1.8,3.3,4.1c-0.8,2.2-3.6,4-6.2,4c-2.6,0-4.1-1.9-3.2-4.1
			C1328.1,290.1,1330.9,288.3,1333.5,288.3z"/>
	</g>
	<g enable-background="new    ">
		<path d="M1359.2,306.2c-1.3,0-2.4,0.8-2.4,2.3c0,0.9,1.6,2.5,1.6,2.5l-0.4,0.3c0,0-3.7-2.2-4-4.5c-0.2-1.4,0.7-2.9,2.5-3
			c0.7-0.1,1.9,0.2,2.4,0.3c-3-2.9-4.6-4.9-4.3-5.5c0.6-0.7,2.7-3.3,2.7-5.6c0-1.4-2.2-4.7-2.2-4.7l0.4-0.3l5.7,7.2
			c0,0-2.7,3.2-2.7,5.5c0,1.6,1,3,1.7,3.8c0.4,0.5,1.6,1.7,1.6,1.9l-0.1,0.5C1360.7,306.4,1359.9,306.2,1359.2,306.2z"/>
	</g>
	<line fill="none" stroke="#000000" stroke-width="0.459" x1="1380.5" y1="293.6" x2="1380.5" y2="319.6"/>
	<g enable-background="new    ">
		<path d="M1386.6,288.3c2.7,0,4.1,1.8,3.3,4.1c-0.8,2.2-3.6,4-6.2,4c-2.6,0-4.1-1.9-3.2-4.1
			C1381.1,290.1,1383.9,288.3,1386.6,288.3z"/>
	</g>
	<g enable-background="new    ">
		<path d="M1420.7,306.2c-1.3,0-2.4,0.8-2.4,2.3c0,0.9,1.6,2.5,1.6,2.5l-0.4,0.3c0,0-3.7-2.2-4-4.5c-0.2-1.4,0.7-2.9,2.5-3
			c0.7-0.1,1.9,0.2,2.4,0.3c-3-2.9-4.6-4.9-4.3-5.5c0.6-0.7,2.7-3.3,2.7-5.6c0-1.4-2.2-4.7-2.2-4.7l0.4-0.3l5.7,7.2
			c0,0-2.7,3.2-2.7,5.5c0,1.6,1,3,1.7,3.8c0.4,0.5,1.6,1.7,1.6,1.9l-0.1,0.5C1422.2,306.4,1421.3,306.2,1420.7,306.2z"/>
	</g>
	<g enable-background="new    ">
		<path d="M1446.7,288.3c2.7,0,4.1,1.8,3.3,4.1c-0.8,2.2-3.6,4-6.2,4c-2.6,0-4.1-1.9-3.2-4.1
			C1441.3,290.1,1444.1,288.3,1446.7,288.3z"/>
	</g>
	<line fill="none" stroke="#000000" stroke-width="0.459" x1="1440.7" y1="293.6" x2="1440.7" y2="317.6"/>
	<g enable-background="new    ">
		<path d="M1462.4,288.3c2.7,0,4.1,1.8,3.3,4.1c-0.8,2.2-3.6,4-6.2,4c-2.6,0-4.1-1.9-3.2-4.1C1457,290.1,1459.7,288.3,1462.4,288.3z
			"/>
	</g>
	<line fill="none" stroke="#000000" stroke-width="0.459" x1="1456.3" y1="293.6" x2="1456.3" y2="317.6"/>
	<path d="M1440.3,315.7h16.4v3.9h-16.4V315.7z"/>
	<g enable-background="new    ">
		<path d="M1477,306.2c-1.3,0-2.4,0.8-2.4,2.3c0,0.9,1.6,2.5,1.6,2.5l-0.4,0.3c0,0-3.7-2.2-4-4.5c-0.2-1.4,0.7-2.9,2.5-3
			c0.7-0.1,1.9,0.2,2.4,0.3c-3-2.9-4.6-4.9-4.3-5.5c0.6-0.7,2.7-3.3,2.7-5.6c0-1.4-2.2-4.7-2.2-4.7l0.4-0.3l5.7,7.2
			c0,0-2.7,3.2-2.7,5.5c0,1.6,1,3,1.7,3.8c0.4,0.5,1.6,1.7,1.6,1.9l-0.1,0.5C1478.5,306.4,1477.6,306.2,1477,306.2z"/>
	</g>
	<line fill="none" stroke="#000000" stroke-width="0.459" x1="1496.9" y1="293.6" x2="1496.9" y2="319.6"/>
	<g enable-background="new    ">
		<path d="M1503,288.3c2.7,0,4.1,1.8,3.3,4.1c-0.8,2.2-3.6,4-6.2,4c-2.6,0-4.1-1.9-3.2-4.1C1497.6,290.1,1500.4,288.3,1503,288.3z"
			/>
	</g>
	<g enable-background="new    ">
		<path d="M1535.5,306.2c-1.3,0-2.4,0.8-2.4,2.3c0,0.9,1.6,2.5,1.6,2.5l-0.4,0.3c0,0-3.7-2.2-4-4.5c-0.2-1.4,0.7-2.9,2.5-3
			c0.7-0.1,1.9,0.2,2.4,0.3c-3-2.9-4.6-4.9-4.3-5.5c0.6-0.7,2.7-3.3,2.7-5.6c0-1.4-2.2-4.7-2.2-4.7l0.4-0.3l5.7,7.2
			c0,0-2.7,3.2-2.7,5.5c0,1.6,1,3,1.7,3.8c0.4,0.5,1.6,1.7,1.6,1.9l-0.1,0.5C1537,306.4,1536.2,306.2,1535.5,306.2z"/>
	</g>
	<line fill="none" stroke="#000000" stroke-width="0.459" x1="1557.1" y1="293.6" x2="1557.1" y2="319.6"/>
	<g enable-background="new    ">
		<path d="M1563.2,288.3c2.7,0,4.1,1.8,3.3,4.1c-0.8,2.2-3.6,4-6.2,4c-2.6,0-4.1-1.9-3.2-4.1
			C1557.8,290.1,1560.6,288.3,1563.2,288.3z"/>
	</g>
	<g enable-background="new    ">
		<path d="M1588.9,306.2c-1.3,0-2.4,0.8-2.4,2.3c0,0.9,1.6,2.5,1.6,2.5l-0.4,0.3c0,0-3.7-2.2-4-4.5c-0.2-1.4,0.7-2.9,2.5-3
			c0.7-0.1,1.9,0.2,2.4,0.3c-3-2.9-4.6-4.9-4.3-5.5c0.6-0.7,2.7-3.3,2.7-5.6c0-1.4-2.2-4.7-2.2-4.7l0.4-0.3l5.7,7.2
			c0,0-2.7,3.2-2.7,5.5c0,1.6,1,3,1.7,3.8c0.4,0.5,1.6,1.7,1.6,1.9l-0.1,0.5C1590.4,306.4,1589.5,306.2,1588.9,306.2z"/>
	</g>
	<line fill="none" stroke="#000000" stroke-width="0.459" x1="1610.2" y1="293.6" x2="1610.2" y2="319.6"/>
	<g enable-background="new    ">
		<path d="M1616.2,288.3c2.7,0,4.1,1.8,3.3,4.1c-0.8,2.2-3.6,4-6.2,4c-2.6,0-4.1-1.9-3.2-4.1
			C1610.8,290.1,1613.6,288.3,1616.2,288.3z"/>
	</g>
	<g enable-background="new    ">
		<path d="M1650.4,306.2c-1.3,0-2.4,0.8-2.4,2.3c0,0.9,1.6,2.5,1.6,2.5l-0.4,0.3c0,0-3.7-2.2-4-4.5c-0.2-1.4,0.7-2.9,2.5-3
			c0.7-0.1,1.9,0.2,2.4,0.3c-3-2.9-4.6-4.9-4.3-5.5c0.6-0.7,2.7-3.3,2.7-5.6c0-1.4-2.2-4.7-2.2-4.7l0.4-0.3l5.7,7.2
			c0,0-2.7,3.2-2.7,5.5c0,1.6,1,3,1.7,3.8c0.4,0.5,1.6,1.7,1.6,1.9l-0.1,0.5C1651.9,306.4,1651,306.2,1650.4,306.2z"/>
	</g>
	<g enable-background="new    ">
		<path d="M1676.4,288.3c2.7,0,4.1,1.8,3.3,4.1c-0.8,2.2-3.6,4-6.2,4c-2.6,0-4.1-1.9-3.2-4.1C1671,290.1,1673.8,288.3,1676.4,288.3z
			"/>
	</g>
	<line fill="none" stroke="#000000" stroke-width="0.459" x1="1670.3" y1="293.6" x2="1670.3" y2="317.6"/>
	<g enable-background="new    ">
		<path d="M1692.1,288.3c2.7,0,4.1,1.8,3.3,4.1c-0.8,2.2-3.6,4-6.2,4c-2.6,0-4.1-1.9-3.2-4.1
			C1686.7,290.1,1689.4,288.3,1692.1,288.3z"/>
	</g>
	<line fill="none" stroke="#000000" stroke-width="0.459" x1="1686" y1="293.6" x2="1686" y2="317.6"/>
	<path d="M1670,315.7h16.4v3.9H1670V315.7z"/>
	<g enable-background="new    ">
		<path d="M1706.7,306.2c-1.3,0-2.4,0.8-2.4,2.3c0,0.9,1.6,2.5,1.6,2.5l-0.4,0.3c0,0-3.7-2.2-4-4.5c-0.2-1.4,0.7-2.9,2.5-3
			c0.7-0.1,1.9,0.2,2.4,0.3c-3-2.9-4.6-4.9-4.3-5.5c0.6-0.7,2.7-3.3,2.7-5.6c0-1.4-2.2-4.7-2.2-4.7l0.4-0.3l5.7,7.2
			c0,0-2.7,3.2-2.7,5.5c0,1.6,1,3,1.7,3.8c0.4,0.5,1.6,1.7,1.6,1.9l-0.1,0.5C1708.2,306.4,1707.3,306.2,1706.7,306.2z"/>
	</g>
	<line fill="none" stroke="#000000" stroke-width="0.459" x1="1726.6" y1="293.6" x2="1726.6" y2="319.6"/>
	<g enable-background="new    ">
		<path d="M1732.7,288.3c2.7,0,4.1,1.8,3.3,4.1c-0.8,2.2-3.6,4-6.2,4c-2.6,0-4.1-1.9-3.2-4.1
			C1727.3,290.1,1730.1,288.3,1732.7,288.3z"/>
	</g>
	<g enable-background="new    ">
		<path d="M1765.2,306.2c-1.3,0-2.4,0.8-2.4,2.3c0,0.9,1.6,2.5,1.6,2.5l-0.4,0.3c0,0-3.7-2.2-4-4.5c-0.2-1.4,0.7-2.9,2.5-3
			c0.7-0.1,1.9,0.2,2.4,0.3c-3-2.9-4.6-4.9-4.3-5.5c0.6-0.7,2.7-3.3,2.7-5.6c0-1.4-2.2-4.7-2.2-4.7l0.4-0.3l5.7,7.2
			c0,0-2.7,3.2-2.7,5.5c0,1.6,1,3,1.7,3.8c0.4,0.5,1.6,1.7,1.6,1.9l-0.1,0.5C1766.7,306.4,1765.9,306.2,1765.2,306.2z"/>
	</g>
	<line fill="none" stroke="#000000" stroke-width="0.459" x1="1786.8" y1="293.6" x2="1786.8" y2="319.6"/>
	<g enable-background="new    ">
		<path d="M1792.9,288.3c2.7,0,4.1,1.8,3.3,4.1c-0.8,2.2-3.6,4-6.2,4c-2.6,0-4.1-1.9-3.2-4.1
			C1787.5,290.1,1790.3,288.3,1792.9,288.3z"/>
	</g>
	<g enable-background="new    ">
		<path d="M1818.6,306.2c-1.3,0-2.4,0.8-2.4,2.3c0,0.9,1.6,2.5,1.6,2.5l-0.4,0.3c0,0-3.7-2.2-4-4.5c-0.2-1.4,0.7-2.9,2.5-3
			c0.7-0.1,1.9,0.2,2.4,0.3c-3-2.9-4.6-4.9-4.3-5.5c0.6-0.7,2.7-3.3,2.7-5.6c0-1.4-2.2-4.7-2.2-4.7l0.4-0.3l5.7,7.2
			c0,0-2.7,3.2-2.7,5.5c0,1.6,1,3,1.7,3.8c0.4,0.5,1.6,1.7,1.6,1.9l-0.1,0.5C1820.1,306.4,1819.2,306.2,1818.6,306.2z"/>
	</g>
	<line fill="none" stroke="#000000" stroke-width="0.459" x1="1839.9" y1="293.6" x2="1839.9" y2="319.6"/>
	<g enable-background="new    ">
		<path d="M1845.9,288.3c2.7,0,4.1,1.8,3.3,4.1c-0.8,2.2-3.6,4-6.2,4c-2.6,0-4.1-1.9-3.2-4.1
			C1840.5,290.1,1843.3,288.3,1845.9,288.3z"/>
	</g>
	<g enable-background="new    ">
		<path d="M1880.1,306.2c-1.3,0-2.4,0.8-2.4,2.3c0,0.9,1.6,2.5,1.6,2.5l-0.4,0.3c0,0-3.7-2.2-4-4.5c-0.2-1.4,0.7-2.9,2.5-3
			c0.7-0.1,1.9,0.2,2.4,0.3c-3-2.9-4.6-4.9-4.3-5.5c0.6-0.7,2.7-3.3,2.7-5.6c0-1.4-2.2-4.7-2.2-4.7l0.4-0.3l5.7,7.2
			c0,0-2.7,3.2-2.7,5.5c0,1.6,1,3,1.7,3.8c0.4,0.5,1.6,1.7,1.6,1.9l-0.1,0.5C1881.6,306.4,1880.7,306.2,1880.1,306.2z"/>
	</g>
	<g enable-background="new    ">
		<path d="M1906.1,288.3c2.7,0,4.1,1.8,3.3,4.1c-0.8,2.2-3.6,4-6.2,4c-2.6,0-4.1-1.9-3.2-4.1
			C1900.7,290.1,1903.5,288.3,1906.1,288.3z"/>
	</g>
	<line fill="none" stroke="#000000" stroke-width="0.459" x1="1900" y1="293.6" x2="1900" y2="317.6"/>
	<g enable-background="new    ">
		<path d="M1921.7,288.3c2.7,0,4.1,1.8,3.3,4.1c-0.8,2.2-3.6,4-6.2,4c-2.6,0-4.1-1.9-3.2-4.1
			C1916.3,290.1,1919.1,288.3,1921.7,288.3z"/>
	</g>
	<line fill="none" stroke="#000000" stroke-width="0.459" x1="1915.7" y1="293.6" x2="1915.7" y2="317.6"/>
	<path d="M1899.7,315.7h16.4v3.9h-16.4V315.7z"/>
	<g enable-background="new    ">
		<path d="M1936.4,306.2c-1.3,0-2.4,0.8-2.4,2.3c0,0.9,1.6,2.5,1.6,2.5l-0.4,0.3c0,0-3.7-2.2-4-4.5c-0.2-1.4,0.7-2.9,2.5-3
			c0.7-0.1,1.9,0.2,2.4,0.3c-3-2.9-4.6-4.9-4.3-5.5c0.6-0.7,2.7-3.3,2.7-5.6c0-1.4-2.2-4.7-2.2-4.7l0.4-0.3l5.7,7.2
			c0,0-2.7,3.2-2.7,5.5c0,1.6,1,3,1.7,3.8c0.4,0.5,1.6,1.7,1.6,1.9l-0.1,0.5C1937.9,306.4,1937,306.2,1936.4,306.2z"/>
	</g>
	<line fill="none" stroke="#000000" stroke-width="0.459" x1="1956.3" y1="293.6" x2="1956.3" y2="319.6"/>
	<g enable-background="new    ">
		<path d="M1962.4,288.3c2.7,0,4.1,1.8,3.3,4.1c-0.8,2.2-3.6,4-6.2,4c-2.6,0-4.1-1.9-3.2-4.1C1957,290.1,1959.8,288.3,1962.4,288.3z
			"/>
	</g>
	<line fill="none" stroke="#000000" stroke-width="0.459" x1="1990.2" y1="301.4" x2="1990.2" y2="327.4"/>
	<g enable-background="new    ">
		<path d="M1996.3,296.1c2.7,0,4.1,1.8,3.3,4.1c-0.8,2.2-3.6,4-6.2,4c-2.6,0-4.1-1.9-3.2-4.1
			C1990.9,297.9,1993.6,296.1,1996.3,296.1z"/>
	</g>
	<g enable-background="new    ">
		<path d="M2021.9,306.2c-1.3,0-2.4,0.8-2.4,2.3c0,0.9,1.6,2.5,1.6,2.5l-0.4,0.3c0,0-3.7-2.2-4-4.5c-0.2-1.4,0.7-2.9,2.5-3
			c0.7-0.1,1.9,0.2,2.4,0.3c-3-2.9-4.6-4.9-4.3-5.5c0.6-0.7,2.7-3.3,2.7-5.6c0-1.4-2.2-4.7-2.2-4.7l0.4-0.3l5.7,7.2
			c0,0-2.7,3.2-2.7,5.5c0,1.6,1,3,1.7,3.8c0.4,0.5,1.6,1.7,1.6,1.9l-0.1,0.5C2023.4,306.4,2022.6,306.2,2021.9,306.2z"/>
	</g>
	<line fill="none" stroke="#000000" stroke-width="0.459" x1="2043.2" y1="301.4" x2="2043.2" y2="327.4"/>
	<g enable-background="new    ">
		<path d="M2049.3,296.1c2.7,0,4.1,1.8,3.3,4.1c-0.8,2.2-3.6,4-6.2,4c-2.6,0-4.1-1.9-3.2-4.1
			C2043.9,297.9,2046.7,296.1,2049.3,296.1z"/>
	</g>
	<g enable-background="new    ">
		<path d="M2075,306.2c-1.3,0-2.4,0.8-2.4,2.3c0,0.9,1.6,2.5,1.6,2.5l-0.4,0.3c0,0-3.7-2.2-4-4.5c-0.2-1.4,0.7-2.9,2.5-3
			c0.7-0.1,1.9,0.2,2.4,0.3c-3-2.9-4.6-4.9-4.3-5.5c0.6-0.7,2.7-3.3,2.7-5.6c0-1.4-2.2-4.7-2.2-4.7l0.4-0.3l5.7,7.2
			c0,0-2.7,3.2-2.7,5.5c0,1.6,1,3,1.7,3.8c0.4,0.5,1.6,1.7,1.6,1.9l-0.1,0.5C2076.5,306.4,2075.6,306.2,2075,306.2z"/>
	</g>
	<g enable-background="new    ">
		<path d="M1986.8,272.7l3.6-9.3h1.3l3.8,9.3h-1.4l-1.1-2.8h-3.9l-1,2.8H1986.8z M1989.5,268.9h3.2l-1-2.6c-0.3-0.8-0.5-1.4-0.7-1.9
			c-0.1,0.6-0.3,1.2-0.5,1.8L1989.5,268.9z"/>
	</g>
	<line fill="none" stroke="#000000" stroke-width="0.459" x1="2105" y1="301.4" x2="2105" y2="327.4"/>
	<g enable-background="new    ">
		<path d="M2111.1,296.1c2.7,0,4.1,1.8,3.3,4.1c-0.8,2.2-3.6,4-6.2,4c-2.6,0-4.1-1.9-3.2-4.1
			C2105.7,297.9,2108.5,296.1,2111.1,296.1z"/>
	</g>
	<g enable-background="new    ">
		<path d="M2136.8,306.2c-1.3,0-2.4,0.8-2.4,2.3c0,0.9,1.6,2.5,1.6,2.5l-0.4,0.3c0,0-3.7-2.2-4-4.5c-0.2-1.4,0.7-2.9,2.5-3
			c0.7-0.1,1.9,0.2,2.4,0.3c-3-2.9-4.6-4.9-4.3-5.5c0.6-0.7,2.7-3.3,2.7-5.6c0-1.4-2.2-4.7-2.2-4.7l0.4-0.3l5.7,7.2
			c0,0-2.7,3.2-2.7,5.5c0,1.6,1,3,1.7,3.8c0.4,0.5,1.6,1.7,1.6,1.9l-0.1,0.5C2138.3,306.4,2137.4,306.2,2136.8,306.2z"/>
	</g>
	<line fill="none" stroke="#000000" stroke-width="0.459" x1="2158" y1="301.4" x2="2158" y2="327.4"/>
	<g enable-background="new    ">
		<path d="M2164.1,296.1c2.7,0,4.1,1.8,3.3,4.1c-0.8,2.2-3.6,4-6.2,4c-2.6,0-4.1-1.9-3.2-4.1
			C2158.7,297.9,2161.5,296.1,2164.1,296.1z"/>
	</g>
	<g enable-background="new    ">
		<path d="M2189.8,306.2c-1.3,0-2.4,0.8-2.4,2.3c0,0.9,1.6,2.5,1.6,2.5l-0.4,0.3c0,0-3.7-2.2-4-4.5c-0.2-1.4,0.7-2.9,2.5-3
			c0.7-0.1,1.9,0.2,2.4,0.3c-3-2.9-4.6-4.9-4.3-5.5c0.6-0.7,2.7-3.3,2.7-5.6c0-1.4-2.2-4.7-2.2-4.7l0.4-0.3l5.7,7.2
			c0,0-2.7,3.2-2.7,5.5c0,1.6,1,3,1.7,3.8c0.4,0.5,1.6,1.7,1.6,1.9l-0.1,0.5C2191.3,306.4,2190.5,306.2,2189.8,306.2z"/>
	</g>
	<line fill="none" stroke="#000000" stroke-width="0.459" x1="2219.9" y1="293.6" x2="2219.9" y2="319.6"/>
	<g enable-background="new    ">
		<path d="M2225.9,288.3c2.7,0,4.1,1.8,3.3,4.1c-0.8,2.2-3.6,4-6.2,4c-2.6,0-4.1-1.9-3.2-4.1
			C2220.5,290.1,2223.3,288.3,2225.9,288.3z"/>
	</g>
	<line fill="none" stroke="#000000" stroke-width="0.459" x1="2246.5" y1="293.6" x2="2246.5" y2="319.6"/>
	<g enable-background="new    ">
		<path d="M2252.6,288.3c2.7,0,4.1,1.8,3.3,4.1c-0.8,2.2-3.6,4-6.2,4c-2.6,0-4.1-1.9-3.2-4.1C2247.2,290.1,2250,288.3,2252.6,288.3z
			"/>
	</g>
	<line fill="none" stroke="#000000" stroke-width="0.459" x1="2272.9" y1="293.6" x2="2272.9" y2="319.6"/>
	<g enable-background="new    ">
		<path d="M2279,288.3c2.7,0,4.1,1.8,3.3,4.1c-0.8,2.2-3.6,4-6.2,4c-2.6,0-4.1-1.9-3.2-4.1C2273.6,290.1,2276.4,288.3,2279,288.3z"
			/>
	</g>
	<g enable-background="new    ">
		<path d="M2304.7,306.2c-1.3,0-2.4,0.8-2.4,2.3c0,0.9,1.6,2.5,1.6,2.5l-0.4,0.3c0,0-3.7-2.2-4-4.5c-0.2-1.4,0.7-2.9,2.5-3
			c0.7-0.1,1.9,0.2,2.4,0.3c-3-2.9-4.6-4.9-4.3-5.5c0.6-0.7,2.7-3.3,2.7-5.6c0-1.4-2.2-4.7-2.2-4.7l0.4-0.3l5.7,7.2
			c0,0-2.7,3.2-2.7,5.5c0,1.6,1,3,1.7,3.8c0.4,0.5,1.6,1.7,1.6,1.9l-0.1,0.5C2306.2,306.4,2305.3,306.2,2304.7,306.2z"/>
	</g>
	<line fill="none" stroke="#000000" stroke-width="0.459" x1="2334.7" y1="293.6" x2="2334.7" y2="319.6"/>
	<g enable-background="new    ">
		<path d="M2340.8,288.3c2.7,0,4.1,1.8,3.3,4.1c-0.8,2.2-3.6,4-6.2,4c-2.6,0-4.1-1.9-3.2-4.1
			C2335.4,290.1,2338.2,288.3,2340.8,288.3z"/>
	</g>
	<line fill="none" stroke="#000000" stroke-width="0.459" x1="2361.4" y1="293.6" x2="2361.4" y2="319.6"/>
	<g enable-background="new    ">
		<path d="M2367.5,288.3c2.7,0,4.1,1.8,3.3,4.1c-0.8,2.2-3.6,4-6.2,4c-2.6,0-4.1-1.9-3.2-4.1
			C2362.1,290.1,2364.8,288.3,2367.5,288.3z"/>
	</g>
	<line fill="none" stroke="#000000" stroke-width="0.459" x1="2387.7" y1="293.6" x2="2387.7" y2="319.6"/>
	<g enable-background="new    ">
		<path d="M2393.8,288.3c2.7,0,4.1,1.8,3.3,4.1c-0.8,2.2-3.6,4-6.2,4c-2.6,0-4.1-1.9-3.2-4.1
			C2388.4,290.1,2391.2,288.3,2393.8,288.3z"/>
	</g>
	<g enable-background="new    ">
		<path d="M2419.5,306.2c-1.3,0-2.4,0.8-2.4,2.3c0,0.9,1.6,2.5,1.6,2.5l-0.4,0.3c0,0-3.7-2.2-4-4.5c-0.2-1.4,0.7-2.9,2.5-3
			c0.7-0.1,1.9,0.2,2.4,0.3c-3-2.9-4.6-4.9-4.3-5.5c0.6-0.7,2.7-3.3,2.7-5.6c0-1.4-2.2-4.7-2.2-4.7l0.4-0.3l5.7,7.2
			c0,0-2.7,3.2-2.7,5.5c0,1.6,1,3,1.7,3.8c0.4,0.5,1.6,1.7,1.6,1.9l-0.1,0.5C2421,306.4,2420.2,306.2,2419.5,306.2z"/>
	</g>
	<g enable-background="new    ">
		<path d="M2455.3,296.1c2.7,0,4.1,1.8,3.3,4.1c-0.8,2.2-3.6,4-6.2,4c-2.6,0-4.1-1.9-3.2-4.1
			C2449.9,297.9,2452.7,296.1,2455.3,296.1z"/>
	</g>
	<line fill="none" stroke="#000000" stroke-width="0.459" x1="2449.2" y1="301.4" x2="2449.2" y2="325.4"/>
	<g enable-background="new    ">
		<path d="M2470,296.1c2.7,0,4.1,1.8,3.3,4.1c-0.8,2.2-3.6,4-6.2,4c-2.6,0-4.1-1.9-3.2-4.1C2464.6,297.9,2467.3,296.1,2470,296.1z"
			/>
	</g>
	<line fill="none" stroke="#000000" stroke-width="0.459" x1="2463.9" y1="301.4" x2="2463.9" y2="325.4"/>
	<path d="M2448.9,323.5h15.4v3.9h-15.4V323.5z"/>
	<g enable-background="new    ">
		<path d="M2484.6,296.1c2.7,0,4.1,1.8,3.3,4.1c-0.8,2.2-3.6,4-6.2,4c-2.6,0-4.1-1.9-3.2-4.1C2479.2,297.9,2482,296.1,2484.6,296.1z
			"/>
	</g>
	<line fill="none" stroke="#000000" stroke-width="0.459" x1="2478.5" y1="301.4" x2="2478.5" y2="325.4"/>
	<g enable-background="new    ">
		<path d="M2499.6,296.1c2.7,0,4.1,1.8,3.3,4.1c-0.8,2.2-3.6,4-6.2,4c-2.6,0-4.1-1.9-3.2-4.1
			C2494.2,297.9,2496.9,296.1,2499.6,296.1z"/>
	</g>
	<line fill="none" stroke="#000000" stroke-width="0.459" x1="2493.5" y1="301.4" x2="2493.5" y2="325.4"/>
	<path d="M2478.1,323.5h15.7v3.9h-15.7V323.5z"/>
	<line fill="none" stroke="#000000" stroke-width="0.459" x1="2508.1" y1="301.4" x2="2508.1" y2="327.4"/>
	<g enable-background="new    ">
		<path d="M2514.2,296.1c2.7,0,4.1,1.8,3.3,4.1c-0.8,2.2-3.6,4-6.2,4c-2.6,0-4.1-1.9-3.2-4.1
			C2508.8,297.9,2511.6,296.1,2514.2,296.1z"/>
	</g>
	<g enable-background="new    ">
		<path d="M2537,306.2c-1.3,0-2.4,0.8-2.4,2.3c0,0.9,1.6,2.5,1.6,2.5l-0.4,0.3c0,0-3.7-2.2-4-4.5c-0.2-1.4,0.7-2.9,2.5-3
			c0.7-0.1,1.9,0.2,2.4,0.3c-3-2.9-4.6-4.9-4.3-5.5c0.6-0.7,2.7-3.3,2.7-5.6c0-1.4-2.2-4.7-2.2-4.7l0.4-0.3l5.7,7.2
			c0,0-2.7,3.2-2.7,5.5c0,1.6,1,3,1.7,3.8c0.4,0.5,1.6,1.7,1.6,1.9l-0.1,0.5C2538.5,306.4,2537.6,306.2,2537,306.2z"/>
	</g>
	<g enable-background="new    ">
		<path d="M2570.2,296.1c2.7,0,4.1,1.8,3.3,4.1c-0.8,2.2-3.6,4-6.2,4c-2.6,0-4.1-1.9-3.2-4.1
			C2564.8,297.9,2567.5,296.1,2570.2,296.1z"/>
	</g>
	<line fill="none" stroke="#000000" stroke-width="0.459" x1="2564.1" y1="301.4" x2="2564.1" y2="325.4"/>
	<g enable-background="new    ">
		<path d="M2584.8,296.1c2.7,0,4.1,1.8,3.3,4.1c-0.8,2.2-3.6,4-6.2,4c-2.6,0-4.1-1.9-3.2-4.1
			C2579.4,297.9,2582.2,296.1,2584.8,296.1z"/>
	</g>
	<line fill="none" stroke="#000000" stroke-width="0.459" x1="2578.7" y1="301.4" x2="2578.7" y2="325.4"/>
	<path d="M2563.7,323.5h15.4v3.9h-15.4V323.5z"/>
	<g enable-background="new    ">
		<path d="M2599.4,296.1c2.7,0,4.1,1.8,3.3,4.1c-0.8,2.2-3.6,4-6.2,4c-2.6,0-4.1-1.9-3.2-4.1C2594,297.9,2596.8,296.1,2599.4,296.1z
			"/>
	</g>
	<line fill="none" stroke="#000000" stroke-width="0.459" x1="2593.4" y1="301.4" x2="2593.4" y2="325.4"/>
	<g enable-background="new    ">
		<path d="M2614.4,296.1c2.7,0,4.1,1.8,3.3,4.1c-0.8,2.2-3.6,4-6.2,4c-2.6,0-4.1-1.9-3.2-4.1C2609,297.9,2611.8,296.1,2614.4,296.1z
			"/>
	</g>
	<line fill="none" stroke="#000000" stroke-width="0.459" x1="2608.3" y1="301.4" x2="2608.3" y2="325.4"/>
	<path d="M2593,323.5h15.7v3.9H2593V323.5z"/>
	<line fill="none" stroke="#000000" stroke-width="0.459" x1="2623" y1="301.4" x2="2623" y2="327.4"/>
	<g enable-background="new    ">
		<path d="M2629.1,296.1c2.7,0,4.1,1.8,3.3,4.1c-0.8,2.2-3.6,4-6.2,4c-2.6,0-4.1-1.9-3.2-4.1
			C2623.7,297.9,2626.4,296.1,2629.1,296.1z"/>
	</g>
	<g enable-background="new    ">
		<path d="M2651.8,306.2c-1.3,0-2.4,0.8-2.4,2.3c0,0.9,1.6,2.5,1.6,2.5l-0.4,0.3c0,0-3.7-2.2-4-4.5c-0.2-1.4,0.7-2.9,2.5-3
			c0.7-0.1,1.9,0.2,2.4,0.3c-3-2.9-4.6-4.9-4.3-5.5c0.6-0.7,2.7-3.3,2.7-5.6c0-1.4-2.2-4.7-2.2-4.7l0.4-0.3l5.7,7.2
			c0,0-2.7,3.2-2.7,5.5c0,1.6,1,3,1.7,3.8c0.4,0.5,1.6,1.7,1.6,1.9l-0.1,0.5C2653.3,306.4,2652.5,306.2,2651.8,306.2z"/>
	</g>
	<g enable-background="new    ">
		<path d="M2685,288.3c2.7,0,4.1,1.8,3.3,4.1c-0.8,2.2-3.6,4-6.2,4c-2.6,0-4.1-1.9-3.2-4.1C2679.6,290.1,2682.4,288.3,2685,288.3z"
			/>
	</g>
	<line fill="none" stroke="#000000" stroke-width="0.459" x1="2678.9" y1="293.6" x2="2678.9" y2="317.6"/>
	<g enable-background="new    ">
		<path d="M2698.4,288.3c2.7,0,4.1,1.8,3.3,4.1c-0.8,2.2-3.6,4-6.2,4c-2.6,0-4.1-1.9-3.2-4.1
			C2692.9,290.1,2695.7,288.3,2698.4,288.3z"/>
	</g>
	<line fill="none" stroke="#000000" stroke-width="0.459" x1="2692.3" y1="293.6" x2="2692.3" y2="317.6"/>
	<path d="M2678.5,315.7h14.1v3.9h-14.1V315.7z"/>
	<g enable-background="new    ">
		<path d="M2711.7,288.3c2.7,0,4.1,1.8,3.3,4.1c-0.8,2.2-3.6,4-6.2,4c-2.6,0-4.1-1.9-3.2-4.1
			C2706.3,290.1,2709.1,288.3,2711.7,288.3z"/>
	</g>
	<line fill="none" stroke="#000000" stroke-width="0.459" x1="2705.6" y1="293.6" x2="2705.6" y2="317.6"/>
	<g enable-background="new    ">
		<path d="M2725,288.3c2.7,0,4.1,1.8,3.3,4.1c-0.8,2.2-3.6,4-6.2,4c-2.6,0-4.1-1.9-3.2-4.1C2719.6,290.1,2722.4,288.3,2725,288.3z"
			/>
	</g>
	<line fill="none" stroke="#000000" stroke-width="0.459" x1="2718.9" y1="293.6" x2="2718.9" y2="317.6"/>
	<path d="M2705.2,315.7h14.1v3.9h-14.1V315.7z"/>
	<g enable-background="new    ">
		<path d="M2738.4,288.3c2.7,0,4.1,1.8,3.3,4.1c-0.8,2.2-3.6,4-6.2,4c-2.6,0-4.1-1.9-3.2-4.1C2733,290.1,2735.7,288.3,2738.4,288.3z
			"/>
	</g>
	<line fill="none" stroke="#000000" stroke-width="0.459" x1="2732.3" y1="293.6" x2="2732.3" y2="317.6"/>
	<g enable-background="new    ">
		<path d="M2751.4,288.3c2.7,0,4.1,1.8,3.3,4.1c-0.8,2.2-3.6,4-6.2,4c-2.6,0-4.1-1.9-3.2-4.1C2746,290.1,2748.8,288.3,2751.4,288.3z
			"/>
	</g>
	<line fill="none" stroke="#000000" stroke-width="0.459" x1="2745.3" y1="293.6" x2="2745.3" y2="317.6"/>
	<path d="M2731.9,315.7h13.8v3.9h-13.8V315.7z"/>
	<g enable-background="new    ">
		<path d="M2764.7,288.3c2.7,0,4.1,1.8,3.3,4.1c-0.8,2.2-3.6,4-6.2,4c-2.6,0-4.1-1.9-3.2-4.1
			C2759.3,290.1,2762.1,288.3,2764.7,288.3z"/>
	</g>
	<line fill="none" stroke="#000000" stroke-width="0.459" x1="2758.6" y1="293.6" x2="2758.6" y2="317.6"/>
	<g enable-background="new    ">
		<path d="M2778.1,288.3c2.7,0,4.1,1.8,3.3,4.1c-0.8,2.2-3.6,4-6.2,4c-2.6,0-4.1-1.9-3.2-4.1
			C2772.7,290.1,2775.4,288.3,2778.1,288.3z"/>
	</g>
	<line fill="none" stroke="#000000" stroke-width="0.459" x1="2772" y1="293.6" x2="2772" y2="317.6"/>
	<path d="M2758.3,315.7h14.1v3.9h-14.1V315.7z"/>
	<g enable-background="new    ">
		<path d="M2799.9,288.3c2.7,0,4.1,1.8,3.3,4.1c-0.8,2.2-3.6,4-6.2,4c-2.6,0-4.1-1.9-3.2-4.1
			C2794.5,290.1,2797.2,288.3,2799.9,288.3z"/>
	</g>
	<line fill="none" stroke="#000000" stroke-width="0.459" x1="2793.8" y1="293.6" x2="2793.8" y2="317.6"/>
	<g enable-background="new    ">
		<path d="M2814.5,288.3c2.7,0,4.1,1.8,3.3,4.1c-0.8,2.2-3.6,4-6.2,4c-2.6,0-4.1-1.9-3.2-4.1
			C2809.1,290.1,2811.9,288.3,2814.5,288.3z"/>
	</g>
	<line fill="none" stroke="#000000" stroke-width="0.459" x1="2808.4" y1="293.6" x2="2808.4" y2="317.6"/>
	<path d="M2793.4,315.7h15.4v3.9h-15.4V315.7z"/>
	<g enable-background="new    ">
		<path d="M2829.1,288.3c2.7,0,4.1,1.8,3.3,4.1c-0.8,2.2-3.6,4-6.2,4c-2.6,0-4.1-1.9-3.2-4.1
			C2823.7,290.1,2826.5,288.3,2829.1,288.3z"/>
	</g>
	<line fill="none" stroke="#000000" stroke-width="0.459" x1="2823.1" y1="293.6" x2="2823.1" y2="317.6"/>
	<g enable-background="new    ">
		<path d="M2844.1,288.3c2.7,0,4.1,1.8,3.3,4.1c-0.8,2.2-3.6,4-6.2,4c-2.6,0-4.1-1.9-3.2-4.1
			C2838.7,290.1,2841.5,288.3,2844.1,288.3z"/>
	</g>
	<line fill="none" stroke="#000000" stroke-width="0.459" x1="2838" y1="293.6" x2="2838" y2="317.6"/>
	<path d="M2822.7,315.7h15.7v3.9h-15.7V315.7z"/>
	<line fill="none" stroke="#000000" stroke-width="0.459" x1="2852.7" y1="293.6" x2="2852.7" y2="319.6"/>
	<g enable-background="new    ">
		<path d="M2858.7,288.3c2.7,0,4.1,1.8,3.3,4.1c-0.8,2.2-3.6,4-6.2,4c-2.6,0-4.1-1.9-3.2-4.1
			C2853.3,290.1,2856.1,288.3,2858.7,288.3z"/>
	</g>
	<g enable-background="new    ">
		<path d="M2881.5,306.2c-1.3,0-2.4,0.8-2.4,2.3c0,0.9,1.6,2.5,1.6,2.5l-0.4,0.3c0,0-3.7-2.2-4-4.5c-0.2-1.4,0.7-2.9,2.5-3
			c0.7-0.1,1.9,0.2,2.4,0.3c-3-2.9-4.6-4.9-4.3-5.5c0.6-0.7,2.7-3.3,2.7-5.6c0-1.4-2.2-4.7-2.2-4.7l0.4-0.3l5.7,7.2
			c0,0-2.7,3.2-2.7,5.5c0,1.6,1,3,1.7,3.8c0.4,0.5,1.6,1.7,1.6,1.9l-0.1,0.5C2883,306.4,2882.2,306.2,2881.5,306.2z"/>
	</g>
	<line fill="none" stroke="#000000" stroke-width="0.459" x1="2908.9" y1="301.4" x2="2908.9" y2="327.4"/>
	<g enable-background="new    ">
		<path d="M2915,296.1c2.7,0,4.1,1.8,3.3,4.1c-0.8,2.2-3.6,4-6.2,4c-2.6,0-4.1-1.9-3.2-4.1C2909.6,297.9,2912.4,296.1,2915,296.1z"
			/>
	</g>
	<g enable-background="new    ">
		<path d="M2940.7,306.2c-1.3,0-2.4,0.8-2.4,2.3c0,0.9,1.6,2.5,1.6,2.5l-0.4,0.3c0,0-3.7-2.2-4-4.5c-0.2-1.4,0.7-2.9,2.5-3
			c0.7-0.1,1.9,0.2,2.4,0.3c-3-2.9-4.6-4.9-4.3-5.5c0.6-0.7,2.7-3.3,2.7-5.6c0-1.4-2.2-4.7-2.2-4.7l0.4-0.3l5.7,7.2
			c0,0-2.7,3.2-2.7,5.5c0,1.6,1,3,1.7,3.8c0.4,0.5,1.6,1.7,1.6,1.9l-0.1,0.5C2942.2,306.4,2941.4,306.2,2940.7,306.2z"/>
	</g>
	<line fill="none" stroke="#000000" stroke-width="0.459" x1="2962" y1="301.4" x2="2962" y2="327.4"/>
	<g enable-background="new    ">
		<path d="M2968.1,296.1c2.7,0,4.1,1.8,3.3,4.1c-0.8,2.2-3.6,4-6.2,4c-2.6,0-4.1-1.9-3.2-4.1
			C2962.7,297.9,2965.4,296.1,2968.1,296.1z"/>
	</g>
	<g enable-background="new    ">
		<path d="M2993.7,306.2c-1.3,0-2.4,0.8-2.4,2.3c0,0.9,1.6,2.5,1.6,2.5l-0.4,0.3c0,0-3.7-2.2-4-4.5c-0.2-1.4,0.7-2.9,2.5-3
			c0.7-0.1,1.9,0.2,2.4,0.3c-3-2.9-4.6-4.9-4.3-5.5c0.6-0.7,2.7-3.3,2.7-5.6c0-1.4-2.2-4.7-2.2-4.7l0.4-0.3l5.7,7.2
			c0,0-2.7,3.2-2.7,5.5c0,1.6,1,3,1.7,3.8c0.4,0.5,1.6,1.7,1.6,1.9l-0.1,0.5C2995.2,306.4,2994.4,306.2,2993.7,306.2z"/>
	</g>
	<g enable-background="new    ">
		<path d="M2905.6,271.4l3.6-9.3h1.3l3.8,9.3h-1.4l-1.1-2.8h-3.9l-1,2.8H2905.6z M2908.3,267.6h3.2l-1-2.6c-0.3-0.8-0.5-1.4-0.7-1.9
			c-0.1,0.6-0.3,1.2-0.5,1.8L2908.3,267.6z"/>
	</g>
	<line fill="none" stroke="#000000" stroke-width="0.459" x1="3023.8" y1="301.4" x2="3023.8" y2="327.4"/>
	<g enable-background="new    ">
		<path d="M3029.9,296.1c2.7,0,4.1,1.8,3.3,4.1c-0.8,2.2-3.6,4-6.2,4c-2.6,0-4.1-1.9-3.2-4.1
			C3024.5,297.9,3027.3,296.1,3029.9,296.1z"/>
	</g>
	<g enable-background="new    ">
		<path d="M3055.6,306.2c-1.3,0-2.4,0.8-2.4,2.3c0,0.9,1.6,2.5,1.6,2.5l-0.4,0.3c0,0-3.7-2.2-4-4.5c-0.2-1.4,0.7-2.9,2.5-3
			c0.7-0.1,1.9,0.2,2.4,0.3c-3-2.9-4.6-4.9-4.3-5.5c0.6-0.7,2.7-3.3,2.7-5.6c0-1.4-2.2-4.7-2.2-4.7l0.4-0.3l5.7,7.2
			c0,0-2.7,3.2-2.7,5.5c0,1.6,1,3,1.7,3.8c0.4,0.5,1.6,1.7,1.6,1.9l-0.1,0.5C3057.1,306.4,3056.2,306.2,3055.6,306.2z"/>
	</g>
	<line fill="none" stroke="#000000" stroke-width="0.459" x1="3076.8" y1="301.4" x2="3076.8" y2="327.4"/>
	<g enable-background="new    ">
		<path d="M3082.9,296.1c2.7,0,4.1,1.8,3.3,4.1c-0.8,2.2-3.6,4-6.2,4c-2.6,0-4.1-1.9-3.2-4.1
			C3077.5,297.9,3080.3,296.1,3082.9,296.1z"/>
	</g>
	<g enable-background="new    ">
		<path d="M3108.6,306.2c-1.3,0-2.4,0.8-2.4,2.3c0,0.9,1.6,2.5,1.6,2.5l-0.4,0.3c0,0-3.7-2.2-4-4.5c-0.2-1.4,0.7-2.9,2.5-3
			c0.7-0.1,1.9,0.2,2.4,0.3c-3-2.9-4.6-4.9-4.3-5.5c0.6-0.7,2.7-3.3,2.7-5.6c0-1.4-2.2-4.7-2.2-4.7l0.4-0.3l5.7,7.2
			c0,0-2.7,3.2-2.7,5.5c0,1.6,1,3,1.7,3.8c0.4,0.5,1.6,1.7,1.6,1.9l-0.1,0.5C3110.1,306.4,3109.2,306.2,3108.6,306.2z"/>
	</g>
	<line fill="none" stroke="#000000" stroke-width="0.459" x1="3138.6" y1="293.6" x2="3138.6" y2="319.6"/>
	<g enable-background="new    ">
		<path d="M3144.7,288.3c2.7,0,4.1,1.8,3.3,4.1c-0.8,2.2-3.6,4-6.2,4c-2.6,0-4.1-1.9-3.2-4.1
			C3139.3,290.1,3142.1,288.3,3144.7,288.3z"/>
	</g>
	<line fill="none" stroke="#000000" stroke-width="0.459" x1="3165.3" y1="293.6" x2="3165.3" y2="319.6"/>
	<g enable-background="new    ">
		<path d="M3171.4,288.3c2.7,0,4.1,1.8,3.3,4.1c-0.8,2.2-3.6,4-6.2,4c-2.6,0-4.1-1.9-3.2-4.1C3166,290.1,3168.8,288.3,3171.4,288.3z
			"/>
	</g>
	<line fill="none" stroke="#000000" stroke-width="0.459" x1="3191.7" y1="293.6" x2="3191.7" y2="319.6"/>
	<g enable-background="new    ">
		<path d="M3197.8,288.3c2.7,0,4.1,1.8,3.3,4.1c-0.8,2.2-3.6,4-6.2,4c-2.6,0-4.1-1.9-3.2-4.1
			C3192.4,290.1,3195.1,288.3,3197.8,288.3z"/>
	</g>
	<g enable-background="new    ">
		<path d="M3223.4,306.2c-1.3,0-2.4,0.8-2.4,2.3c0,0.9,1.6,2.5,1.6,2.5l-0.4,0.3c0,0-3.7-2.2-4-4.5c-0.2-1.4,0.7-2.9,2.5-3
			c0.7-0.1,1.9,0.2,2.4,0.3c-3-2.9-4.6-4.9-4.3-5.5c0.6-0.7,2.7-3.3,2.7-5.6c0-1.4-2.2-4.7-2.2-4.7l0.4-0.3l5.7,7.2
			c0,0-2.7,3.2-2.7,5.5c0,1.6,1,3,1.7,3.8c0.4,0.5,1.6,1.7,1.6,1.9l-0.1,0.5C3224.9,306.4,3224.1,306.2,3223.4,306.2z"/>
	</g>
	<line fill="none" stroke="#000000" stroke-width="0.459" x1="3253.5" y1="293.6" x2="3253.5" y2="319.6"/>
	<g enable-background="new    ">
		<path d="M3259.6,288.3c2.7,0,4.1,1.8,3.3,4.1c-0.8,2.2-3.6,4-6.2,4c-2.6,0-4.1-1.9-3.2-4.1C3254.2,290.1,3257,288.3,3259.6,288.3z
			"/>
	</g>
	<line fill="none" stroke="#000000" stroke-width="0.459" x1="3280.2" y1="293.6" x2="3280.2" y2="319.6"/>
	<g enable-background="new    ">
		<path d="M3286.3,288.3c2.7,0,4.1,1.8,3.3,4.1c-0.8,2.2-3.6,4-6.2,4c-2.6,0-4.1-1.9-3.2-4.1
			C3280.9,290.1,3283.6,288.3,3286.3,288.3z"/>
	</g>
	<line fill="none" stroke="#000000" stroke-width="0.459" x1="3306.5" y1="293.6" x2="3306.5" y2="319.6"/>
	<g enable-background="new    ">
		<path d="M3312.6,288.3c2.7,0,4.1,1.8,3.3,4.1c-0.8,2.2-3.6,4-6.2,4c-2.6,0-4.1-1.9-3.2-4.1C3307.2,290.1,3310,288.3,3312.6,288.3z
			"/>
	</g>
	<g enable-background="new    ">
		<path d="M3338.3,306.2c-1.3,0-2.4,0.8-2.4,2.3c0,0.9,1.6,2.5,1.6,2.5l-0.4,0.3c0,0-3.7-2.2-4-4.5c-0.2-1.4,0.7-2.9,2.5-3
			c0.7-0.1,1.9,0.2,2.4,0.3c-3-2.9-4.6-4.9-4.3-5.5c0.6-0.7,2.7-3.3,2.7-5.6c0-1.4-2.2-4.7-2.2-4.7l0.4-0.3l5.7,7.2
			c0,0-2.7,3.2-2.7,5.5c0,1.6,1,3,1.7,3.8c0.4,0.5,1.6,1.7,1.6,1.9l-0.1,0.5C3339.8,306.4,3338.9,306.2,3338.3,306.2z"/>
	</g>
	<g enable-background="new    ">
		<path d="M3374.1,296.1c2.7,0,4.1,1.8,3.3,4.1c-0.8,2.2-3.6,4-6.2,4c-2.6,0-4.1-1.9-3.2-4.1
			C3368.7,297.9,3371.5,296.1,3374.1,296.1z"/>
	</g>
	<line fill="none" stroke="#000000" stroke-width="0.459" x1="3368" y1="301.4" x2="3368" y2="325.4"/>
	<g enable-background="new    ">
		<path d="M3388.7,296.1c2.7,0,4.1,1.8,3.3,4.1c-0.8,2.2-3.6,4-6.2,4c-2.6,0-4.1-1.9-3.2-4.1
			C3383.3,297.9,3386.1,296.1,3388.7,296.1z"/>
	</g>
	<line fill="none" stroke="#000000" stroke-width="0.459" x1="3382.6" y1="301.4" x2="3382.6" y2="325.4"/>
	<path d="M3367.6,323.5h15.4v3.9h-15.4V323.5z"/>
	<g enable-background="new    ">
		<path d="M3403.4,296.1c2.7,0,4.1,1.8,3.3,4.1c-0.8,2.2-3.6,4-6.2,4c-2.6,0-4.1-1.9-3.2-4.1C3398,297.9,3400.8,296.1,3403.4,296.1z
			"/>
	</g>
	<line fill="none" stroke="#000000" stroke-width="0.459" x1="3397.3" y1="301.4" x2="3397.3" y2="325.4"/>
	<g enable-background="new    ">
		<path d="M3418.3,296.1c2.7,0,4.1,1.8,3.3,4.1c-0.8,2.2-3.6,4-6.2,4c-2.6,0-4.1-1.9-3.2-4.1
			C3412.9,297.9,3415.7,296.1,3418.3,296.1z"/>
	</g>
	<line fill="none" stroke="#000000" stroke-width="0.459" x1="3412.3" y1="301.4" x2="3412.3" y2="325.4"/>
	<path d="M3396.9,323.5h15.7v3.9h-15.7V323.5z"/>
	<line fill="none" stroke="#000000" stroke-width="0.459" x1="3426.9" y1="301.4" x2="3426.9" y2="327.4"/>
	<g enable-background="new    ">
		<path d="M3433,296.1c2.7,0,4.1,1.8,3.3,4.1c-0.8,2.2-3.6,4-6.2,4c-2.6,0-4.1-1.9-3.2-4.1C3427.6,297.9,3430.4,296.1,3433,296.1z"
			/>
	</g>
	<g enable-background="new    ">
		<path d="M3455.7,306.2c-1.3,0-2.4,0.8-2.4,2.3c0,0.9,1.6,2.5,1.6,2.5l-0.4,0.3c0,0-3.7-2.2-4-4.5c-0.2-1.4,0.8-2.9,2.5-3
			c0.7-0.1,1.9,0.2,2.4,0.3c-3-2.9-4.6-4.9-4.3-5.5c0.6-0.7,2.7-3.3,2.7-5.6c0-1.4-2.2-4.7-2.2-4.7l0.4-0.3l5.7,7.2
			c0,0-2.7,3.2-2.7,5.5c0,1.6,1,3,1.7,3.8c0.4,0.5,1.6,1.7,1.6,1.9l-0.1,0.5C3457.2,306.4,3456.4,306.2,3455.7,306.2z"/>
	</g>
	<g enable-background="new    ">
		<path d="M3488.9,296.1c2.7,0,4.1,1.8,3.3,4.1c-0.8,2.2-3.6,4-6.2,4c-2.6,0-4.1-1.9-3.2-4.1
			C3483.5,297.9,3486.3,296.1,3488.9,296.1z"/>
	</g>
	<line fill="none" stroke="#000000" stroke-width="0.459" x1="3482.9" y1="301.4" x2="3482.9" y2="325.4"/>
	<g enable-background="new    ">
		<path d="M3503.6,296.1c2.7,0,4.1,1.8,3.3,4.1c-0.8,2.2-3.6,4-6.2,4c-2.6,0-4.1-1.9-3.2-4.1C3498.2,297.9,3501,296.1,3503.6,296.1z
			"/>
	</g>
	<line fill="none" stroke="#000000" stroke-width="0.459" x1="3497.5" y1="301.4" x2="3497.5" y2="325.4"/>
	<path d="M3482.5,323.5h15.4v3.9h-15.4V323.5z"/>
	<g enable-background="new    ">
		<path d="M3518.2,296.1c2.7,0,4.1,1.8,3.3,4.1c-0.8,2.2-3.6,4-6.2,4c-2.6,0-4.1-1.9-3.2-4.1
			C3512.8,297.9,3515.6,296.1,3518.2,296.1z"/>
	</g>
	<line fill="none" stroke="#000000" stroke-width="0.459" x1="3512.1" y1="301.4" x2="3512.1" y2="325.4"/>
	<g enable-background="new    ">
		<path d="M3533.2,296.1c2.7,0,4.1,1.8,3.3,4.1c-0.8,2.2-3.6,4-6.2,4c-2.6,0-4.1-1.9-3.2-4.1
			C3527.8,297.9,3530.6,296.1,3533.2,296.1z"/>
	</g>
	<line fill="none" stroke="#000000" stroke-width="0.459" x1="3527.1" y1="301.4" x2="3527.1" y2="325.4"/>
	<path d="M3511.8,323.5h15.7v3.9h-15.7V323.5z"/>
	<line fill="none" stroke="#000000" stroke-width="0.459" x1="3541.7" y1="301.4" x2="3541.7" y2="327.4"/>
	<g enable-background="new    ">
		<path d="M3547.8,296.1c2.7,0,4.1,1.8,3.3,4.1c-0.8,2.2-3.6,4-6.2,4c-2.6,0-4.1-1.9-3.2-4.1
			C3542.4,297.9,3545.2,296.1,3547.8,296.1z"/>
	</g>
	<g enable-background="new    ">
		<path d="M3570.6,306.2c-1.3,0-2.4,0.8-2.4,2.3c0,0.9,1.6,2.5,1.6,2.5l-0.4,0.3c0,0-3.7-2.2-4-4.5c-0.2-1.4,0.8-2.9,2.5-3
			c0.7-0.1,1.9,0.2,2.4,0.3c-3-2.9-4.6-4.9-4.3-5.5c0.6-0.7,2.7-3.3,2.7-5.6c0-1.4-2.2-4.7-2.2-4.7l0.4-0.3l5.7,7.2
			c0,0-2.7,3.2-2.7,5.5c0,1.6,1,3,1.7,3.8c0.4,0.5,1.6,1.7,1.6,1.9l-0.1,0.5C3572.1,306.4,3571.2,306.2,3570.6,306.2z"/>
	</g>
	<g enable-background="new    ">
		<path d="M3603.8,288.3c2.7,0,4.1,1.8,3.3,4.1c-0.8,2.2-3.6,4-6.2,4c-2.6,0-4.1-1.9-3.2-4.1
			C3598.4,290.1,3601.2,288.3,3603.8,288.3z"/>
	</g>
	<line fill="none" stroke="#000000" stroke-width="0.459" x1="3597.7" y1="293.6" x2="3597.7" y2="317.6"/>
	<g enable-background="new    ">
		<path d="M3617.1,288.3c2.7,0,4.1,1.8,3.3,4.1c-0.8,2.2-3.6,4-6.2,4c-2.6,0-4.1-1.9-3.2-4.1
			C3611.7,290.1,3614.5,288.3,3617.1,288.3z"/>
	</g>
	<line fill="none" stroke="#000000" stroke-width="0.459" x1="3611" y1="293.6" x2="3611" y2="317.6"/>
	<path d="M3597.3,315.7h14.1v3.9h-14.1V315.7z"/>
	<g enable-background="new    ">
		<path d="M3630.5,288.3c2.7,0,4.1,1.8,3.3,4.1c-0.8,2.2-3.6,4-6.2,4c-2.6,0-4.1-1.9-3.2-4.1
			C3625.1,290.1,3627.8,288.3,3630.5,288.3z"/>
	</g>
	<line fill="none" stroke="#000000" stroke-width="0.459" x1="3624.4" y1="293.6" x2="3624.4" y2="317.6"/>
	<g enable-background="new    ">
		<path d="M3643.8,288.3c2.7,0,4.1,1.8,3.3,4.1c-0.8,2.2-3.6,4-6.2,4c-2.6,0-4.1-1.9-3.2-4.1
			C3638.4,290.1,3641.2,288.3,3643.8,288.3z"/>
	</g>
	<line fill="none" stroke="#000000" stroke-width="0.459" x1="3637.7" y1="293.6" x2="3637.7" y2="317.6"/>
	<path d="M3624,315.7h14.1v3.9H3624V315.7z"/>
	<g enable-background="new    ">
		<path d="M3657.1,288.3c2.7,0,4.1,1.8,3.3,4.1c-0.8,2.2-3.6,4-6.2,4c-2.6,0-4.1-1.9-3.2-4.1
			C3651.7,290.1,3654.5,288.3,3657.1,288.3z"/>
	</g>
	<line fill="none" stroke="#000000" stroke-width="0.459" x1="3651.1" y1="293.6" x2="3651.1" y2="317.6"/>
	<g enable-background="new    ">
		<path d="M3670.2,288.3c2.7,0,4.1,1.8,3.3,4.1c-0.8,2.2-3.6,4-6.2,4c-2.6,0-4.1-1.9-3.2-4.1
			C3664.8,290.1,3667.5,288.3,3670.2,288.3z"/>
	</g>
	<line fill="none" stroke="#000000" stroke-width="0.459" x1="3664.1" y1="293.6" x2="3664.1" y2="317.6"/>
	<path d="M3650.7,315.7h13.8v3.9h-13.8V315.7z"/>
	<g enable-background="new    ">
		<path d="M3683.5,288.3c2.7,0,4.1,1.8,3.3,4.1c-0.8,2.2-3.6,4-6.2,4c-2.6,0-4.1-1.9-3.2-4.1
			C3678.1,290.1,3680.9,288.3,3683.5,288.3z"/>
	</g>
	<line fill="none" stroke="#000000" stroke-width="0.459" x1="3677.4" y1="293.6" x2="3677.4" y2="317.6"/>
	<g enable-background="new    ">
		<path d="M3696.8,288.3c2.7,0,4.1,1.8,3.3,4.1c-0.8,2.2-3.6,4-6.2,4c-2.6,0-4.1-1.9-3.2-4.1
			C3691.4,290.1,3694.2,288.3,3696.8,288.3z"/>
	</g>
	<line fill="none" stroke="#000000" stroke-width="0.459" x1="3690.8" y1="293.6" x2="3690.8" y2="317.6"/>
	<path d="M3677,315.7h14.1v3.9H3677V315.7z"/>
	<g enable-background="new    ">
		<path d="M3718.6,288.3c2.7,0,4.1,1.8,3.3,4.1c-0.8,2.2-3.6,4-6.2,4c-2.6,0-4.1-1.9-3.2-4.1C3713.2,290.1,3716,288.3,3718.6,288.3z
			"/>
	</g>
	<line fill="none" stroke="#000000" stroke-width="0.459" x1="3712.6" y1="293.6" x2="3712.6" y2="317.6"/>
	<g enable-background="new    ">
		<path d="M3733.3,288.3c2.7,0,4.1,1.8,3.3,4.1c-0.8,2.2-3.6,4-6.2,4c-2.6,0-4.1-1.9-3.2-4.1
			C3727.9,290.1,3730.7,288.3,3733.3,288.3z"/>
	</g>
	<line fill="none" stroke="#000000" stroke-width="0.459" x1="3727.2" y1="293.6" x2="3727.2" y2="317.6"/>
	<path d="M3712.2,315.7h15.4v3.9h-15.4V315.7z"/>
	<g enable-background="new    ">
		<path d="M3747.9,288.3c2.7,0,4.1,1.8,3.3,4.1c-0.8,2.2-3.6,4-6.2,4c-2.6,0-4.1-1.9-3.2-4.1
			C3742.5,290.1,3745.3,288.3,3747.9,288.3z"/>
	</g>
	<line fill="none" stroke="#000000" stroke-width="0.459" x1="3741.8" y1="293.6" x2="3741.8" y2="317.6"/>
	<g enable-background="new    ">
		<path d="M3762.9,288.3c2.7,0,4.1,1.8,3.3,4.1c-0.8,2.2-3.6,4-6.2,4c-2.6,0-4.1-1.9-3.2-4.1
			C3757.5,290.1,3760.3,288.3,3762.9,288.3z"/>
	</g>
	<line fill="none" stroke="#000000" stroke-width="0.459" x1="3756.8" y1="293.6" x2="3756.8" y2="317.6"/>
	<path d="M3741.5,315.7h15.7v3.9h-15.7V315.7z"/>
	<line fill="none" stroke="#000000" stroke-width="0.459" x1="3771.4" y1="293.6" x2="3771.4" y2="319.6"/>
	<g enable-background="new    ">
		<path d="M3777.5,288.3c2.7,0,4.1,1.8,3.3,4.1c-0.8,2.2-3.6,4-6.2,4c-2.6,0-4.1-1.9-3.2-4.1
			C3772.1,290.1,3774.9,288.3,3777.5,288.3z"/>
	</g>
	<g enable-background="new    ">
		<path d="M3800.3,306.2c-1.3,0-2.4,0.8-2.4,2.3c0,0.9,1.6,2.5,1.6,2.5l-0.4,0.3c0,0-3.7-2.2-4-4.5c-0.2-1.4,0.7-2.9,2.5-3
			c0.7-0.1,1.9,0.2,2.4,0.3c-3-2.9-4.6-4.9-4.3-5.5c0.6-0.7,2.7-3.3,2.7-5.6c0-1.4-2.2-4.7-2.2-4.7l0.4-0.3l5.7,7.2
			c0,0-2.7,3.2-2.7,5.5c0,1.6,1,3,1.7,3.8c0.4,0.5,1.6,1.7,1.6,1.9l-0.1,0.5C3801.8,306.4,3800.9,306.2,3800.3,306.2z"/>
	</g>
	<line fill="none" stroke="#000000" stroke-width="0.459" x1="3827.7" y1="301.4" x2="3827.7" y2="327.4"/>
	<g enable-background="new    ">
		<path d="M3833.8,296.1c2.7,0,4.1,1.8,3.3,4.1c-0.8,2.2-3.6,4-6.2,4c-2.6,0-4.1-1.9-3.2-4.1
			C3828.4,297.9,3831.2,296.1,3833.8,296.1z"/>
	</g>
	<line fill="none" stroke="#000000" stroke-width="0.459" x1="3854.4" y1="293.6" x2="3854.4" y2="319.6"/>
	<g enable-background="new    ">
		<path d="M3860.5,288.3c2.7,0,4.1,1.8,3.3,4.1c-0.8,2.2-3.6,4-6.2,4c-2.6,0-4.1-1.9-3.2-4.1
			C3855.1,290.1,3857.9,288.3,3860.5,288.3z"/>
	</g>
	<line fill="none" stroke="#000000" stroke-width="0.459" x1="3880.8" y1="285.7" x2="3880.8" y2="311.8"/>
	<g enable-background="new    ">
		<path d="M3886.8,280.5c2.7,0,4.1,1.8,3.3,4.1c-0.8,2.2-3.6,4-6.2,4c-2.6,0-4.1-1.9-3.2-4.1
			C3881.4,282.3,3884.2,280.5,3886.8,280.5z"/>
	</g>
	<g enable-background="new    ">
		<path d="M3912.5,306.2c-1.3,0-2.4,0.8-2.4,2.3c0,0.9,1.6,2.5,1.6,2.5l-0.4,0.3c0,0-3.7-2.2-4-4.5c-0.2-1.4,0.7-2.9,2.5-3
			c0.7-0.1,1.9,0.2,2.4,0.3c-3-2.9-4.6-4.9-4.3-5.5c0.6-0.7,2.7-3.3,2.7-5.6c0-1.4-2.2-4.7-2.2-4.7l0.4-0.3l5.7,7.2
			c0,0-2.7,3.2-2.7,5.5c0,1.6,1,3,1.7,3.8c0.4,0.5,1.6,1.7,1.6,1.9l-0.1,0.5C3914,306.4,3913.2,306.2,3912.5,306.2z"/>
	</g>
	<g enable-background="new    ">
		<path d="M3825.4,270.1v-9.3h3.5c0.7,0,1.3,0.1,1.7,0.3c0.4,0.2,0.8,0.5,1,0.9c0.2,0.4,0.4,0.8,0.4,1.2c0,0.4-0.1,0.8-0.3,1.1
			c-0.2,0.4-0.5,0.6-1,0.9c0.6,0.2,1,0.4,1.3,0.8s0.5,0.9,0.5,1.4c0,0.4-0.1,0.8-0.3,1.2c-0.2,0.4-0.4,0.7-0.7,0.9
			c-0.3,0.2-0.6,0.4-1,0.5c-0.4,0.1-0.9,0.2-1.5,0.2H3825.4z M3826.6,264.7h2c0.5,0,0.9,0,1.2-0.1c0.3-0.1,0.5-0.2,0.7-0.5
			c0.2-0.2,0.2-0.5,0.2-0.8c0-0.3-0.1-0.6-0.2-0.8c-0.1-0.2-0.4-0.4-0.6-0.5c-0.3-0.1-0.7-0.1-1.4-0.1h-1.9V264.7z M3826.6,269h2.3
			c0.4,0,0.7,0,0.8,0c0.3-0.1,0.5-0.1,0.7-0.3c0.2-0.1,0.3-0.3,0.5-0.5c0.1-0.2,0.2-0.5,0.2-0.8c0-0.3-0.1-0.6-0.3-0.9
			c-0.2-0.3-0.4-0.4-0.7-0.5s-0.8-0.2-1.4-0.2h-2.2V269z"/>
	</g>
	<line fill="none" stroke="#000000" stroke-width="0.459" x1="3942.6" y1="301.4" x2="3942.6" y2="327.4"/>
	<g enable-background="new    ">
		<path d="M3948.7,296.1c2.7,0,4.1,1.8,3.3,4.1c-0.8,2.2-3.6,4-6.2,4c-2.6,0-4.1-1.9-3.2-4.1C3943.3,297.9,3946,296.1,3948.7,296.1z
			"/>
	</g>
	<line fill="none" stroke="#000000" stroke-width="0.459" x1="3969.2" y1="293.6" x2="3969.2" y2="319.6"/>
	<g enable-background="new    ">
		<path d="M3975.3,288.3c2.7,0,4.1,1.8,3.3,4.1c-0.8,2.2-3.6,4-6.2,4c-2.6,0-4.1-1.9-3.2-4.1
			C3969.9,290.1,3972.7,288.3,3975.3,288.3z"/>
	</g>
	<line fill="none" stroke="#000000" stroke-width="0.459" x1="3995.6" y1="285.7" x2="3995.6" y2="311.8"/>
	<g enable-background="new    ">
		<path d="M4001.7,280.5c2.7,0,4.1,1.8,3.3,4.1c-0.8,2.2-3.6,4-6.2,4c-2.6,0-4.1-1.9-3.2-4.1
			C3996.3,282.3,3999.1,280.5,4001.7,280.5z"/>
	</g>
	<g enable-background="new    ">
		<path d="M4027.4,306.2c-1.3,0-2.4,0.8-2.4,2.3c0,0.9,1.6,2.5,1.6,2.5l-0.4,0.3c0,0-3.7-2.2-4-4.5c-0.2-1.4,0.7-2.9,2.5-3
			c0.7-0.1,1.9,0.2,2.4,0.3c-3-2.9-4.6-4.9-4.3-5.5c0.6-0.7,2.7-3.3,2.7-5.6c0-1.4-2.2-4.7-2.2-4.7l0.4-0.3l5.7,7.2
			c0,0-2.7,3.2-2.7,5.5c0,1.6,1,3,1.7,3.8c0.4,0.5,1.6,1.7,1.6,1.9l-0.1,0.5C4028.9,306.4,4028,306.2,4027.4,306.2z"/>
	</g>
	<g enable-background="new    ">
		<path d="M4062.2,306.2c-1.3,0-2.4,0.8-2.4,2.3c0,0.9,1.6,2.5,1.6,2.5l-0.4,0.3c0,0-3.7-2.2-4-4.5c-0.2-1.4,0.7-2.9,2.5-3
			c0.7-0.1,1.9,0.2,2.4,0.3c-3-2.9-4.6-4.9-4.3-5.5c0.6-0.7,2.7-3.3,2.7-5.6c0-1.4-2.2-4.7-2.2-4.7l0.4-0.3l5.7,7.2
			c0,0-2.7,3.2-2.7,5.5c0,1.6,1,3,1.7,3.8c0.4,0.5,1.6,1.7,1.6,1.9l-0.1,0.5C4063.7,306.4,4062.8,306.2,4062.2,306.2z"/>
	</g>
	<g enable-background="new    ">
		<path d="M4088.2,288.3c2.7,0,4.1,1.8,3.3,4.1c-0.8,2.2-3.6,4-6.2,4c-2.6,0-4.1-1.9-3.2-4.1
			C4082.8,290.1,4085.6,288.3,4088.2,288.3z"/>
	</g>
	<line fill="none" stroke="#000000" stroke-width="0.459" x1="4082.1" y1="293.6" x2="4082.1" y2="317.6"/>
	<g enable-background="new    ">
		<path d="M4103.9,288.3c2.7,0,4.1,1.8,3.3,4.1c-0.8,2.2-3.6,4-6.2,4c-2.6,0-4.1-1.9-3.2-4.1
			C4098.5,290.1,4101.2,288.3,4103.9,288.3z"/>
	</g>
	<line fill="none" stroke="#000000" stroke-width="0.459" x1="4097.8" y1="293.6" x2="4097.8" y2="317.6"/>
	<path d="M4081.8,315.7h16.4v3.9h-16.4V315.7z"/>
	<g enable-background="new    ">
		<path d="M4118.5,306.2c-1.3,0-2.4,0.8-2.4,2.3c0,0.9,1.6,2.5,1.6,2.5l-0.4,0.3c0,0-3.7-2.2-4-4.5c-0.2-1.4,0.8-2.9,2.5-3
			c0.7-0.1,1.9,0.2,2.4,0.3c-3-2.9-4.6-4.9-4.3-5.5c0.6-0.7,2.7-3.3,2.7-5.6c0-1.4-2.2-4.7-2.2-4.7l0.4-0.3l5.7,7.2
			c0,0-2.7,3.2-2.7,5.5c0,1.6,1,3,1.7,3.8c0.4,0.5,1.6,1.7,1.6,1.9l-0.1,0.5C4120,306.4,4119.1,306.2,4118.5,306.2z"/>
	</g>
	<line fill="none" stroke="#000000" stroke-width="0.459" x1="4138.4" y1="293.6" x2="4138.4" y2="319.6"/>
	<g enable-background="new    ">
		<path d="M4144.5,288.3c2.7,0,4.1,1.8,3.3,4.1c-0.8,2.2-3.6,4-6.2,4c-2.6,0-4.1-1.9-3.2-4.1
			C4139.1,290.1,4141.9,288.3,4144.5,288.3z"/>
	</g>
	<g enable-background="new    ">
		<path d="M4177,306.2c-1.3,0-2.4,0.8-2.4,2.3c0,0.9,1.6,2.5,1.6,2.5l-0.4,0.3c0,0-3.7-2.2-4-4.5c-0.2-1.4,0.7-2.9,2.5-3
			c0.7-0.1,1.9,0.2,2.4,0.3c-3-2.9-4.6-4.9-4.3-5.5c0.6-0.7,2.7-3.3,2.7-5.6c0-1.4-2.2-4.7-2.2-4.7l0.4-0.3l5.7,7.2
			c0,0-2.7,3.2-2.7,5.5c0,1.6,1,3,1.7,3.8c0.4,0.5,1.6,1.7,1.6,1.9l-0.1,0.5C4178.5,306.4,4177.7,306.2,4177,306.2z"/>
	</g>
	<g enable-background="new    ">
		<path d="M4203.1,288.3c2.7,0,4.1,1.8,3.3,4.1c-0.8,2.2-3.6,4-6.2,4c-2.6,0-4.1-1.9-3.2-4.1
			C4197.7,290.1,4200.5,288.3,4203.1,288.3z"/>
	</g>
	<line fill="none" stroke="#000000" stroke-width="0.459" x1="4197" y1="293.6" x2="4197" y2="317.6"/>
	<g enable-background="new    ">
		<path d="M4218.7,288.3c2.7,0,4.1,1.8,3.3,4.1c-0.8,2.2-3.6,4-6.2,4c-2.6,0-4.1-1.9-3.2-4.1
			C4213.3,290.1,4216.1,288.3,4218.7,288.3z"/>
	</g>
	<line fill="none" stroke="#000000" stroke-width="0.459" x1="4212.6" y1="293.6" x2="4212.6" y2="317.6"/>
	<path d="M4196.6,315.7h16.4v3.9h-16.4V315.7z"/>
	<g enable-background="new    ">
		<path d="M4233.3,306.2c-1.3,0-2.4,0.8-2.4,2.3c0,0.9,1.6,2.5,1.6,2.5l-0.4,0.3c0,0-3.7-2.2-4-4.5c-0.2-1.4,0.7-2.9,2.5-3
			c0.7-0.1,1.9,0.2,2.4,0.3c-3-2.9-4.6-4.9-4.3-5.5c0.6-0.7,2.7-3.3,2.7-5.6c0-1.4-2.2-4.7-2.2-4.7l0.4-0.3l5.7,7.2
			c0,0-2.7,3.2-2.7,5.5c0,1.6,1,3,1.7,3.8c0.4,0.5,1.6,1.7,1.6,1.9l-0.1,0.5C4234.8,306.4,4234,306.2,4233.3,306.2z"/>
	</g>
	<line fill="none" stroke="#000000" stroke-width="0.459" x1="4253.3" y1="293.6" x2="4253.3" y2="319.6"/>
	<g enable-background="new    ">
		<path d="M4259.4,288.3c2.7,0,4.1,1.8,3.3,4.1c-0.8,2.2-3.6,4-6.2,4c-2.6,0-4.1-1.9-3.2-4.1C4254,290.1,4256.7,288.3,4259.4,288.3z
			"/>
	</g>
	<line fill="none" stroke="#000000" stroke-width="0.459" x1="4287.1" y1="301.4" x2="4287.1" y2="327.4"/>
	<g enable-background="new    ">
		<path d="M4293.2,296.1c2.7,0,4.1,1.8,3.3,4.1c-0.8,2.2-3.6,4-6.2,4c-2.6,0-4.1-1.9-3.2-4.1
			C4287.8,297.9,4290.6,296.1,4293.2,296.1z"/>
	</g>
	<line fill="none" stroke="#000000" stroke-width="0.459" x1="4313.8" y1="293.6" x2="4313.8" y2="319.6"/>
	<g enable-background="new    ">
		<path d="M4319.9,288.3c2.7,0,4.1,1.8,3.3,4.1c-0.8,2.2-3.6,4-6.2,4c-2.6,0-4.1-1.9-3.2-4.1
			C4314.5,290.1,4317.3,288.3,4319.9,288.3z"/>
	</g>
	<line fill="none" stroke="#000000" stroke-width="0.459" x1="4340.1" y1="285.7" x2="4340.1" y2="311.8"/>
	<g enable-background="new    ">
		<path d="M4346.2,280.5c2.7,0,4.1,1.8,3.3,4.1c-0.8,2.2-3.6,4-6.2,4c-2.6,0-4.1-1.9-3.2-4.1
			C4340.8,282.3,4343.6,280.5,4346.2,280.5z"/>
	</g>
	<g enable-background="new    ">
		<path d="M4371.9,306.2c-1.3,0-2.4,0.8-2.4,2.3c0,0.9,1.6,2.5,1.6,2.5l-0.4,0.3c0,0-3.7-2.2-4-4.5c-0.2-1.4,0.7-2.9,2.5-3
			c0.7-0.1,1.9,0.2,2.4,0.3c-3-2.9-4.6-4.9-4.3-5.5c0.6-0.7,2.7-3.3,2.7-5.6c0-1.4-2.2-4.7-2.2-4.7l0.4-0.3l5.7,7.2
			c0,0-2.7,3.2-2.7,5.5c0,1.6,1,3,1.7,3.8c0.4,0.5,1.6,1.7,1.6,1.9l-0.1,0.5C4373.4,306.4,4372.6,306.2,4371.9,306.2z"/>
	</g>
	<line fill="none" stroke="#000000" stroke-width="0.459" x1="4402" y1="301.4" x2="4402" y2="327.4"/>
	<g enable-background="new    ">
		<path d="M4408.1,296.1c2.7,0,4.1,1.8,3.3,4.1c-0.8,2.2-3.6,4-6.2,4c-2.6,0-4.1-1.9-3.2-4.1
			C4402.6,297.9,4405.4,296.1,4408.1,296.1z"/>
	</g>
	<line fill="none" stroke="#000000" stroke-width="0.459" x1="4428.6" y1="293.6" x2="4428.6" y2="319.6"/>
	<g enable-background="new    ">
		<path d="M4434.7,288.3c2.7,0,4.1,1.8,3.3,4.1c-0.8,2.2-3.6,4-6.2,4c-2.6,0-4.1-1.9-3.2-4.1
			C4429.3,290.1,4432.1,288.3,4434.7,288.3z"/>
	</g>
	<line fill="none" stroke="#000000" stroke-width="0.459" x1="4455" y1="285.7" x2="4455" y2="311.8"/>
	<g enable-background="new    ">
		<path d="M4461.1,280.5c2.7,0,4.1,1.8,3.3,4.1c-0.8,2.2-3.6,4-6.2,4c-2.6,0-4.1-1.9-3.2-4.1
			C4455.7,282.3,4458.5,280.5,4461.1,280.5z"/>
	</g>
	<g enable-background="new    ">
		<path d="M4486.8,306.2c-1.3,0-2.4,0.8-2.4,2.3c0,0.9,1.6,2.5,1.6,2.5l-0.4,0.3c0,0-3.7-2.2-4-4.5c-0.2-1.4,0.7-2.9,2.5-3
			c0.7-0.1,1.9,0.2,2.4,0.3c-3-2.9-4.6-4.9-4.3-5.5c0.6-0.7,2.7-3.3,2.7-5.6c0-1.4-2.2-4.7-2.2-4.7l0.4-0.3l5.7,7.2
			c0,0-2.7,3.2-2.7,5.5c0,1.6,1,3,1.7,3.8c0.4,0.5,1.6,1.7,1.6,1.9l-0.1,0.5C4488.3,306.4,4487.4,306.2,4486.8,306.2z"/>
	</g>
	<g enable-background="new    ">
		<path d="M4521.6,306.2c-1.3,0-2.4,0.8-2.4,2.3c0,0.9,1.6,2.5,1.6,2.5l-0.4,0.3c0,0-3.7-2.2-4-4.5c-0.2-1.4,0.7-2.9,2.5-3
			c0.7-0.1,1.9,0.2,2.4,0.3c-3-2.9-4.6-4.9-4.3-5.5c0.6-0.7,2.7-3.3,2.7-5.6c0-1.4-2.2-4.7-2.2-4.7l0.4-0.3l5.7,7.2
			c0,0-2.7,3.2-2.7,5.5c0,1.6,1,3,1.7,3.8c0.4,0.5,1.6,1.7,1.6,1.9l-0.1,0.5C4523.1,306.4,4522.2,306.2,4521.6,306.2z"/>
	</g>
	<g enable-background="new    ">
		<path d="M4547.6,288.3c2.7,0,4.1,1.8,3.3,4.1c-0.8,2.2-3.6,4-6.2,4c-2.6,0-4.1-1.9-3.2-4.1C4542.2,290.1,4545,288.3,4547.6,288.3z
			"/>
	</g>
	<line fill="none" stroke="#000000" stroke-width="0.459" x1="4541.5" y1="293.6" x2="4541.5" y2="317.6"/>
	<g enable-background="new    ">
		<path d="M4563.2,288.3c2.7,0,4.1,1.8,3.3,4.1c-0.8,2.2-3.6,4-6.2,4c-2.6,0-4.1-1.9-3.2-4.1
			C4557.8,290.1,4560.6,288.3,4563.2,288.3z"/>
	</g>
	<line fill="none" stroke="#000000" stroke-width="0.459" x1="4557.2" y1="293.6" x2="4557.2" y2="317.6"/>
	<path d="M4541.2,315.7h16.4v3.9h-16.4V315.7z"/>
	<g enable-background="new    ">
		<path d="M4577.9,306.2c-1.3,0-2.4,0.8-2.4,2.3c0,0.9,1.6,2.5,1.6,2.5l-0.4,0.3c0,0-3.7-2.2-4-4.5c-0.2-1.4,0.7-2.9,2.5-3
			c0.7-0.1,1.9,0.2,2.4,0.3c-3-2.9-4.6-4.9-4.3-5.5c0.6-0.7,2.7-3.3,2.7-5.6c0-1.4-2.2-4.7-2.2-4.7l0.4-0.3l5.7,7.2
			c0,0-2.7,3.2-2.7,5.5c0,1.6,1,3,1.7,3.8c0.4,0.5,1.6,1.7,1.6,1.9l-0.1,0.5C4579.4,306.4,4578.5,306.2,4577.9,306.2z"/>
	</g>
	<line fill="none" stroke="#000000" stroke-width="0.459" x1="4597.8" y1="293.6" x2="4597.8" y2="319.6"/>
	<g enable-background="new    ">
		<path d="M4603.9,288.3c2.7,0,4.1,1.8,3.3,4.1c-0.8,2.2-3.6,4-6.2,4c-2.6,0-4.1-1.9-3.2-4.1
			C4598.5,290.1,4601.3,288.3,4603.9,288.3z"/>
	</g>
	<g enable-background="new    ">
		<path d="M4636.4,306.2c-1.3,0-2.4,0.8-2.4,2.3c0,0.9,1.6,2.5,1.6,2.5l-0.4,0.3c0,0-3.7-2.2-4-4.5c-0.2-1.4,0.7-2.9,2.5-3
			c0.7-0.1,1.9,0.2,2.4,0.3c-3-2.9-4.6-4.9-4.3-5.5c0.6-0.7,2.7-3.3,2.7-5.6c0-1.4-2.2-4.7-2.2-4.7l0.4-0.3l5.7,7.2
			c0,0-2.7,3.2-2.7,5.5c0,1.6,1,3,1.7,3.8c0.4,0.5,1.6,1.7,1.6,1.9l-0.1,0.5C4637.9,306.4,4637.1,306.2,4636.4,306.2z"/>
	</g>
	<g enable-background="new    ">
		<path d="M4662.5,288.3c2.7,0,4.1,1.8,3.3,4.1c-0.8,2.2-3.6,4-6.2,4c-2.6,0-4.1-1.9-3.2-4.1
			C4657.1,290.1,4659.8,288.3,4662.5,288.3z"/>
	</g>
	<line fill="none" stroke="#000000" stroke-width="0.459" x1="4656.4" y1="293.6" x2="4656.4" y2="317.6"/>
	<g enable-background="new    ">
		<path d="M4678.1,288.3c2.7,0,4.1,1.8,3.3,4.1c-0.8,2.2-3.6,4-6.2,4c-2.6,0-4.1-1.9-3.2-4.1
			C4672.7,290.1,4675.5,288.3,4678.1,288.3z"/>
	</g>
	<line fill="none" stroke="#000000" stroke-width="0.459" x1="4672" y1="293.6" x2="4672" y2="317.6"/>
	<path d="M4656,315.7h16.4v3.9H4656V315.7z"/>
	<g enable-background="new    ">
		<path d="M4692.7,306.2c-1.3,0-2.4,0.8-2.4,2.3c0,0.9,1.6,2.5,1.6,2.5l-0.4,0.3c0,0-3.7-2.2-4-4.5c-0.2-1.4,0.8-2.9,2.5-3
			c0.7-0.1,1.9,0.2,2.4,0.3c-3-2.9-4.6-4.9-4.3-5.5c0.6-0.7,2.7-3.3,2.7-5.6c0-1.4-2.2-4.7-2.2-4.7l0.4-0.3l5.7,7.2
			c0,0-2.7,3.2-2.7,5.5c0,1.6,1,3,1.7,3.8c0.4,0.5,1.6,1.7,1.6,1.9l-0.1,0.5C4694.2,306.4,4693.4,306.2,4692.7,306.2z"/>
	</g>
	<line fill="none" stroke="#000000" stroke-width="0.459" x1="4712.7" y1="293.6" x2="4712.7" y2="319.6"/>
	<g enable-background="new    ">
		<path d="M4718.8,288.3c2.7,0,4.1,1.8,3.3,4.1c-0.8,2.2-3.6,4-6.2,4c-2.6,0-4.1-1.9-3.2-4.1
			C4713.4,290.1,4716.1,288.3,4718.8,288.3z"/>
	</g>
	<line fill="none" stroke="#000000" stroke-width="0.459" x1="4746.5" y1="301.4" x2="4746.5" y2="327.4"/>
	<g enable-background="new    ">
		<path d="M4752.6,296.1c2.7,0,4.1,1.8,3.3,4.1c-0.8,2.2-3.6,4-6.2,4c-2.6,0-4.1-1.9-3.2-4.1C4747.2,297.9,4750,296.1,4752.6,296.1z
			"/>
	</g>
	<line fill="none" stroke="#000000" stroke-width="0.459" x1="4773.2" y1="293.6" x2="4773.2" y2="319.6"/>
	<g enable-background="new    ">
		<path d="M4779.3,288.3c2.7,0,4.1,1.8,3.3,4.1c-0.8,2.2-3.6,4-6.2,4c-2.6,0-4.1-1.9-3.2-4.1
			C4773.9,290.1,4776.6,288.3,4779.3,288.3z"/>
	</g>
	<line fill="none" stroke="#000000" stroke-width="0.459" x1="4799.5" y1="285.7" x2="4799.5" y2="311.8"/>
	<g enable-background="new    ">
		<path d="M4805.6,280.5c2.7,0,4.1,1.8,3.3,4.1c-0.8,2.2-3.6,4-6.2,4c-2.6,0-4.1-1.9-3.2-4.1C4800.2,282.3,4803,280.5,4805.6,280.5z
			"/>
	</g>
	<g enable-background="new    ">
		<path d="M4831.3,306.2c-1.3,0-2.4,0.8-2.4,2.3c0,0.9,1.6,2.5,1.6,2.5l-0.4,0.3c0,0-3.7-2.2-4-4.5c-0.2-1.4,0.7-2.9,2.5-3
			c0.7-0.1,1.9,0.2,2.4,0.3c-3-2.9-4.6-4.9-4.3-5.5c0.6-0.7,2.7-3.3,2.7-5.6c0-1.4-2.2-4.7-2.2-4.7l0.4-0.3l5.7,7.2
			c0,0-2.7,3.2-2.7,5.5c0,1.6,1,3,1.7,3.8c0.4,0.5,1.6,1.7,1.6,1.9l-0.1,0.5C4832.8,306.4,4832,306.2,4831.3,306.2z"/>
	</g>
	<line fill="none" stroke="#000000" stroke-width="0.459" x1="4861.4" y1="301.4" x2="4861.4" y2="327.4"/>
	<g enable-background="new    ">
		<path d="M4867.4,296.1c2.7,0,4.1,1.8,3.3,4.1c-0.8,2.2-3.6,4-6.2,4c-2.6,0-4.1-1.9-3.2-4.1C4862,297.9,4864.8,296.1,4867.4,296.1z
			"/>
	</g>
	<line fill="none" stroke="#000000" stroke-width="0.459" x1="4888" y1="293.6" x2="4888" y2="319.6"/>
	<g enable-background="new    ">
		<path d="M4894.1,288.3c2.7,0,4.1,1.8,3.3,4.1c-0.8,2.2-3.6,4-6.2,4c-2.6,0-4.1-1.9-3.2-4.1
			C4888.7,290.1,4891.5,288.3,4894.1,288.3z"/>
	</g>
	<line fill="none" stroke="#000000" stroke-width="0.459" x1="4914.4" y1="285.7" x2="4914.4" y2="311.8"/>
	<g enable-background="new    ">
		<path d="M4920.5,280.5c2.7,0,4.1,1.8,3.3,4.1c-0.8,2.2-3.6,4-6.2,4c-2.6,0-4.1-1.9-3.2-4.1
			C4915.1,282.3,4917.8,280.5,4920.5,280.5z"/>
	</g>
	<g enable-background="new    ">
		<path d="M4946.2,306.2c-1.3,0-2.4,0.8-2.4,2.3c0,0.9,1.6,2.5,1.6,2.5l-0.4,0.3c0,0-3.7-2.2-4-4.5c-0.2-1.4,0.7-2.9,2.5-3
			c0.7-0.1,1.9,0.2,2.4,0.3c-3-2.9-4.6-4.9-4.3-5.5c0.6-0.7,2.7-3.3,2.7-5.6c0-1.4-2.2-4.7-2.2-4.7l0.4-0.3l5.7,7.2
			c0,0-2.7,3.2-2.7,5.5c0,1.6,1,3,1.7,3.8c0.4,0.5,1.6,1.7,1.6,1.9l-0.1,0.5C4947.7,306.4,4946.8,306.2,4946.2,306.2z"/>
	</g>
	<g enable-background="new    ">
		<path d="M4981,306.2c-1.3,0-2.4,0.8-2.4,2.3c0,0.9,1.6,2.5,1.6,2.5l-0.4,0.3c0,0-3.7-2.2-4-4.5c-0.2-1.4,0.8-2.9,2.5-3
			c0.7-0.1,1.9,0.2,2.4,0.3c-3-2.9-4.6-4.9-4.3-5.5c0.6-0.7,2.7-3.3,2.7-5.6c0-1.4-2.2-4.7-2.2-4.7l0.4-0.3l5.7,7.2
			c0,0-2.7,3.2-2.7,5.5c0,1.6,1,3,1.7,3.8c0.4,0.5,1.6,1.7,1.6,1.9l-0.1,0.5C4982.5,306.4,4981.6,306.2,4981,306.2z"/>
	</g>
	<g enable-background="new    ">
		<path d="M5007,288.3c2.7,0,4.1,1.8,3.3,4.1c-0.8,2.2-3.6,4-6.2,4c-2.6,0-4.1-1.9-3.2-4.1C5001.6,290.1,5004.4,288.3,5007,288.3z"
			/>
	</g>
	<line fill="none" stroke="#000000" stroke-width="0.459" x1="5000.9" y1="293.6" x2="5000.9" y2="317.6"/>
	<g enable-background="new    ">
		<path d="M5022.6,288.3c2.7,0,4.1,1.8,3.3,4.1c-0.8,2.2-3.6,4-6.2,4c-2.6,0-4.1-1.9-3.2-4.1C5017.2,290.1,5020,288.3,5022.6,288.3z
			"/>
	</g>
	<line fill="none" stroke="#000000" stroke-width="0.459" x1="5016.5" y1="293.6" x2="5016.5" y2="317.6"/>
	<path d="M5000.5,315.7h16.4v3.9h-16.4V315.7z"/>
	<g enable-background="new    ">
		<path d="M5037.2,306.2c-1.3,0-2.4,0.8-2.4,2.3c0,0.9,1.6,2.5,1.6,2.5l-0.4,0.3c0,0-3.7-2.2-4-4.5c-0.2-1.4,0.7-2.9,2.5-3
			c0.7-0.1,1.9,0.2,2.4,0.3c-3-2.9-4.6-4.9-4.3-5.5c0.6-0.7,2.7-3.3,2.7-5.6c0-1.4-2.2-4.7-2.2-4.7l0.4-0.3l5.7,7.2
			c0,0-2.7,3.2-2.7,5.5c0,1.6,1,3,1.7,3.8c0.4,0.5,1.6,1.7,1.6,1.9l-0.1,0.5C5038.7,306.4,5037.9,306.2,5037.2,306.2z"/>
	</g>
	<line fill="none" stroke="#000000" stroke-width="0.459" x1="5057.2" y1="293.6" x2="5057.2" y2="319.6"/>
	<g enable-background="new    ">
		<path d="M5063.3,288.3c2.7,0,4.1,1.8,3.3,4.1c-0.8,2.2-3.6,4-6.2,4c-2.6,0-4.1-1.9-3.2-4.1
			C5057.9,290.1,5060.7,288.3,5063.3,288.3z"/>
	</g>
	<g enable-background="new    ">
		<path d="M5095.8,306.2c-1.3,0-2.4,0.8-2.4,2.3c0,0.9,1.6,2.5,1.6,2.5l-0.4,0.3c0,0-3.7-2.2-4-4.5c-0.2-1.4,0.7-2.9,2.5-3
			c0.7-0.1,1.9,0.2,2.4,0.3c-3-2.9-4.6-4.9-4.3-5.5c0.6-0.7,2.7-3.3,2.7-5.6c0-1.4-2.2-4.7-2.2-4.7l0.4-0.3l5.7,7.2
			c0,0-2.7,3.2-2.7,5.5c0,1.6,1,3,1.7,3.8c0.4,0.5,1.6,1.7,1.6,1.9l-0.1,0.5C5097.3,306.4,5096.5,306.2,5095.8,306.2z"/>
	</g>
	<g enable-background="new    ">
		<path d="M5121.9,288.3c2.7,0,4.1,1.8,3.3,4.1c-0.8,2.2-3.6,4-6.2,4c-2.6,0-4.1-1.9-3.2-4.1
			C5116.5,290.1,5119.2,288.3,5121.9,288.3z"/>
	</g>
	<line fill="none" stroke="#000000" stroke-width="0.459" x1="5115.8" y1="293.6" x2="5115.8" y2="317.6"/>
	<g enable-background="new    ">
		<path d="M5137.5,288.3c2.7,0,4.1,1.8,3.3,4.1c-0.8,2.2-3.6,4-6.2,4c-2.6,0-4.1-1.9-3.2-4.1
			C5132.1,290.1,5134.9,288.3,5137.5,288.3z"/>
	</g>
	<line fill="none" stroke="#000000" stroke-width="0.459" x1="5131.4" y1="293.6" x2="5131.4" y2="317.6"/>
	<path d="M5115.4,315.7h16.4v3.9h-16.4V315.7z"/>
	<g enable-background="new    ">
		<path d="M5152.1,306.2c-1.3,0-2.4,0.8-2.4,2.3c0,0.9,1.6,2.5,1.6,2.5l-0.4,0.3c0,0-3.7-2.2-4-4.5c-0.2-1.4,0.7-2.9,2.5-3
			c0.7-0.1,1.9,0.2,2.4,0.3c-3-2.9-4.6-4.9-4.3-5.5c0.6-0.7,2.7-3.3,2.7-5.6c0-1.4-2.2-4.7-2.2-4.7l0.4-0.3l5.7,7.2
			c0,0-2.7,3.2-2.7,5.5c0,1.6,1,3,1.7,3.8c0.4,0.5,1.6,1.7,1.6,1.9l-0.1,0.5C5153.6,306.4,5152.8,306.2,5152.1,306.2z"/>
	</g>
	<line fill="none" stroke="#000000" stroke-width="0.459" x1="5172.1" y1="293.6" x2="5172.1" y2="319.6"/>
	<g enable-background="new    ">
		<path d="M5178.1,288.3c2.7,0,4.1,1.8,3.3,4.1c-0.8,2.2-3.6,4-6.2,4c-2.6,0-4.1-1.9-3.2-4.1
			C5172.7,290.1,5175.5,288.3,5178.1,288.3z"/>
	</g>
	<line fill="none" stroke="#000000" stroke-width="0.459" x1="5205.9" y1="301.4" x2="5205.9" y2="327.4"/>
	<g enable-background="new    ">
		<path d="M5212,296.1c2.7,0,4.1,1.8,3.3,4.1c-0.8,2.2-3.6,4-6.2,4c-2.6,0-4.1-1.9-3.2-4.1C5206.6,297.9,5209.4,296.1,5212,296.1z"
			/>
	</g>
	<line fill="none" stroke="#000000" stroke-width="0.459" x1="5232.6" y1="293.6" x2="5232.6" y2="319.6"/>
	<g enable-background="new    ">
		<path d="M5238.7,288.3c2.7,0,4.1,1.8,3.3,4.1c-0.8,2.2-3.6,4-6.2,4c-2.6,0-4.1-1.9-3.2-4.1C5233.3,290.1,5236,288.3,5238.7,288.3z
			"/>
	</g>
	<line fill="none" stroke="#000000" stroke-width="0.459" x1="5258.9" y1="285.7" x2="5258.9" y2="311.8"/>
	<g enable-background="new    ">
		<path d="M5265,280.5c2.7,0,4.1,1.8,3.3,4.1c-0.8,2.2-3.6,4-6.2,4c-2.6,0-4.1-1.9-3.2-4.1C5259.6,282.3,5262.4,280.5,5265,280.5z"
			/>
	</g>
	<g enable-background="new    ">
		<path d="M5290.7,306.2c-1.3,0-2.4,0.8-2.4,2.3c0,0.9,1.6,2.5,1.6,2.5l-0.4,0.3c0,0-3.7-2.2-4-4.5c-0.2-1.4,0.8-2.9,2.5-3
			c0.7-0.1,1.9,0.2,2.4,0.3c-3-2.9-4.6-4.9-4.3-5.5c0.6-0.7,2.7-3.3,2.7-5.6c0-1.4-2.2-4.7-2.2-4.7l0.4-0.3l5.7,7.2
			c0,0-2.7,3.2-2.7,5.5c0,1.6,1,3,1.7,3.8c0.4,0.5,1.6,1.7,1.6,1.9l-0.1,0.5C5292.2,306.4,5291.4,306.2,5290.7,306.2z"/>
	</g>
	<line fill="none" stroke="#000000" stroke-width="0.459" x1="5320.7" y1="301.4" x2="5320.7" y2="327.4"/>
	<g enable-background="new    ">
		<path d="M5326.8,296.1c2.7,0,4.1,1.8,3.3,4.1c-0.8,2.2-3.6,4-6.2,4c-2.6,0-4.1-1.9-3.2-4.1
			C5321.4,297.9,5324.2,296.1,5326.8,296.1z"/>
	</g>
	<line fill="none" stroke="#000000" stroke-width="0.459" x1="5347.4" y1="293.6" x2="5347.4" y2="319.6"/>
	<g enable-background="new    ">
		<path d="M5353.5,288.3c2.7,0,4.1,1.8,3.3,4.1c-0.8,2.2-3.6,4-6.2,4c-2.6,0-4.1-1.9-3.2-4.1
			C5348.1,290.1,5350.9,288.3,5353.5,288.3z"/>
	</g>
	<line fill="none" stroke="#000000" stroke-width="0.459" x1="5373.8" y1="285.7" x2="5373.8" y2="311.8"/>
	<g enable-background="new    ">
		<path d="M5379.9,280.5c2.7,0,4.1,1.8,3.3,4.1c-0.8,2.2-3.6,4-6.2,4c-2.6,0-4.1-1.9-3.2-4.1
			C5374.5,282.3,5377.2,280.5,5379.9,280.5z"/>
	</g>
	<g enable-background="new    ">
		<path d="M5405.5,306.2c-1.3,0-2.4,0.8-2.4,2.3c0,0.9,1.6,2.5,1.6,2.5l-0.4,0.3c0,0-3.7-2.2-4-4.5c-0.2-1.4,0.8-2.9,2.5-3
			c0.7-0.1,1.9,0.2,2.4,0.3c-3-2.9-4.6-4.9-4.3-5.5c0.6-0.7,2.7-3.3,2.7-5.6c0-1.4-2.2-4.7-2.2-4.7l0.4-0.3l5.7,7.2
			c0,0-2.7,3.2-2.7,5.5c0,1.6,1,3,1.7,3.8c0.4,0.5,1.6,1.7,1.6,1.9l-0.1,0.5C5407,306.4,5406.2,306.2,5405.5,306.2z"/>
	</g>
	<g enable-background="new    ">
		<path d="M5440.4,306.2c-1.3,0-2.4,0.8-2.4,2.3c0,0.9,1.6,2.5,1.6,2.5l-0.4,0.3c0,0-3.7-2.2-4-4.5c-0.2-1.4,0.7-2.9,2.5-3
			c0.7-0.1,1.9,0.2,2.4,0.3c-3-2.9-4.6-4.9-4.3-5.5c0.6-0.7,2.7-3.3,2.7-5.6c0-1.4-2.2-4.7-2.2-4.7l0.4-0.3l5.7,7.2
			c0,0-2.7,3.2-2.7,5.5c0,1.6,1,3,1.7,3.8c0.4,0.5,1.6,1.7,1.6,1.9l-0.1,0.5C5441.9,306.4,5441,306.2,5440.4,306.2z"/>
	</g>
	<g enable-background="new    ">
		<path d="M5466.4,288.3c2.7,0,4.1,1.8,3.3,4.1c-0.8,2.2-3.6,4-6.2,4c-2.6,0-4.1-1.9-3.2-4.1C5461,290.1,5463.8,288.3,5466.4,288.3z
			"/>
	</g>
	<line fill="none" stroke="#000000" stroke-width="0.459" x1="5460.3" y1="293.6" x2="5460.3" y2="317.6"/>
	<g enable-background="new    ">
		<path d="M5482,288.3c2.7,0,4.1,1.8,3.3,4.1c-0.8,2.2-3.6,4-6.2,4c-2.6,0-4.1-1.9-3.2-4.1C5476.6,290.1,5479.4,288.3,5482,288.3z"
			/>
	</g>
	<line fill="none" stroke="#000000" stroke-width="0.459" x1="5475.9" y1="293.6" x2="5475.9" y2="317.6"/>
	<path d="M5459.9,315.7h16.4v3.9h-16.4V315.7z"/>
	<g enable-background="new    ">
		<path d="M5496.6,306.2c-1.3,0-2.4,0.8-2.4,2.3c0,0.9,1.6,2.5,1.6,2.5l-0.4,0.3c0,0-3.7-2.2-4-4.5c-0.2-1.4,0.8-2.9,2.5-3
			c0.7-0.1,1.9,0.2,2.4,0.3c-3-2.9-4.6-4.9-4.3-5.5c0.6-0.7,2.7-3.3,2.7-5.6c0-1.4-2.2-4.7-2.2-4.7l0.4-0.3l5.7,7.2
			c0,0-2.7,3.2-2.7,5.5c0,1.6,1,3,1.7,3.8c0.4,0.5,1.6,1.7,1.6,1.9l-0.1,0.5C5498.1,306.4,5497.3,306.2,5496.6,306.2z"/>
	</g>
	<line fill="none" stroke="#000000" stroke-width="0.459" x1="5516.6" y1="293.6" x2="5516.6" y2="319.6"/>
	<g enable-background="new    ">
		<path d="M5522.7,288.3c2.7,0,4.1,1.8,3.3,4.1c-0.8,2.2-3.6,4-6.2,4c-2.6,0-4.1-1.9-3.2-4.1
			C5517.3,290.1,5520.1,288.3,5522.7,288.3z"/>
	</g>
	<line fill="none" stroke="#000000" stroke-width="0.459" x1="5559.1" y1="306.6" x2="5559.1" y2="280.5"/>
	<g enable-background="new    ">
		<path d="M5556.2,303.9c2.7,0,4.1,1.8,3.3,4.1c-0.8,2.2-3.6,4-6.2,4c-2.6,0-4.1-1.9-3.2-4.1
			C5550.8,305.7,5553.6,303.9,5556.2,303.9z"/>
	</g>
	<g enable-background="new    ">
		<path d="M5581.6,306.2c-1.3,0-2.4,0.8-2.4,2.3c0,0.9,1.6,2.5,1.6,2.5l-0.4,0.3c0,0-3.7-2.2-4-4.5c-0.2-1.4,0.7-2.9,2.5-3
			c0.7-0.1,1.9,0.2,2.4,0.3c-3-2.9-4.6-4.9-4.3-5.5c0.6-0.7,2.7-3.3,2.7-5.6c0-1.4-2.2-4.7-2.2-4.7l0.4-0.3l5.7,7.2
			c0,0-2.7,3.2-2.7,5.5c0,1.6,1,3,1.7,3.8c0.4,0.5,1.6,1.7,1.6,1.9l-0.1,0.5C5583.1,306.4,5582.2,306.2,5581.6,306.2z"/>
	</g>
	<g enable-background="new    ">
		<path d="M5608.2,306.2c-1.3,0-2.4,0.8-2.4,2.3c0,0.9,1.6,2.5,1.6,2.5l-0.4,0.3c0,0-3.7-2.2-4-4.5c-0.2-1.4,0.7-2.9,2.5-3
			c0.7-0.1,1.9,0.2,2.4,0.3c-3-2.9-4.6-4.9-4.3-5.5c0.6-0.7,2.7-3.3,2.7-5.6c0-1.4-2.2-4.7-2.2-4.7l0.4-0.3l5.7,7.2
			c0,0-2.7,3.2-2.7,5.5c0,1.6,1,3,1.7,3.8c0.4,0.5,1.6,1.7,1.6,1.9l-0.1,0.5C5609.7,306.4,5608.9,306.2,5608.2,306.2z"/>
	</g>
	<g enable-background="new    ">
		<path d="M5634.6,306.2c-1.3,0-2.4,0.8-2.4,2.3c0,0.9,1.6,2.5,1.6,2.5l-0.4,0.3c0,0-3.7-2.2-4-4.5c-0.2-1.4,0.8-2.9,2.5-3
			c0.7-0.1,1.9,0.2,2.4,0.3c-3-2.9-4.6-4.9-4.3-5.5c0.6-0.7,2.7-3.3,2.7-5.6c0-1.4-2.2-4.7-2.2-4.7l0.4-0.3l5.7,7.2
			c0,0-2.7,3.2-2.7,5.5c0,1.6,1,3,1.7,3.8c0.4,0.5,1.6,1.7,1.6,1.9l-0.1,0.5C5636.1,306.4,5635.2,306.2,5634.6,306.2z"/>
	</g>
</g>
</svg>
