<?xml version="1.0" encoding="utf-8"?>
<!-- Generator: Adobe Illustrator 16.0.0, SVG Export Plug-In . SVG Version: 6.00 Build 0)  -->
<!DOCTYPE svg PUBLIC "-//W3C//DTD SVG 1.1//EN" "http://www.w3.org/Graphics/SVG/1.1/DTD/svg11.dtd">
<svg version="1.1" id="Layer_1" xmlns="http://www.w3.org/2000/svg" xmlns:xlink="http://www.w3.org/1999/xlink" x="0px" y="0px"
	 width="5169.4px" height="90px" viewBox="41.1 -10.86 5169.4 90" enable-background="new 41.1 -10.86 5169.4 90"
	 xml:space="preserve">
<g id="Music">
	<line fill="none" stroke="#000000" stroke-width="0.459" x1="41.5" y1="0" x2="41.5" y2="57.779"/>
	<path fill="none" stroke="#000000" stroke-width="0.459" d="M41.5,0"/>
	<g enable-background="new    ">
		<path d="M55.841,31.33v24.877h-7.116V31.33H55.841z M54.636,53.826V33.711h-4.734v20.115H54.636z"/>
	</g>
	<g enable-background="new    ">
		<path d="M87.86,40.995c0,1.12-1.4,2.102-2.156,2.102c-0.757,0-2.382-0.421-2.382-2.102c0-1.093,0.784-1.905,1.766-1.905
			c0.672,0,0.616-0.42,0.392-0.672c-0.616-0.645-1.736-1.121-3.109-0.729c-2.214,0.588-2.689,3.277-2.689,6.051
			c0,3.082,0.532,6.136,3.222,6.136c1.905,0,4.034-1.737,3.979-4.118h0.784c-0.028,0.729-0.504,2.241-0.98,2.829
			c-0.953,1.177-2.717,2.157-4.09,2.157c-3.698,0-6.331-3.334-6.331-7.004c0-3.586,2.465-6.892,6.051-6.892
			C85.338,36.849,87.86,38.277,87.86,40.995z"/>
	</g>
	<line fill="none" stroke="#000000" stroke-width="0.459" x1="218.901" y1="29.779" x2="218.901" y2="57.779"/>
	<line fill="none" stroke="#000000" stroke-width="0.459" x1="346.6" y1="29.779" x2="346.6" y2="57.779"/>
	<line fill="none" stroke="#000000" stroke-width="0.459" x1="474.401" y1="29.779" x2="474.401" y2="57.779"/>
	<line fill="none" stroke="#000000" stroke-width="0.459" x1="602.2" y1="29.779" x2="602.2" y2="57.779"/>
	<line fill="none" stroke="#000000" stroke-width="0.459" x1="730" y1="29.779" x2="730" y2="57.779"/>
	<line fill="none" stroke="#000000" stroke-width="0.459" x1="857.8" y1="29.779" x2="857.8" y2="57.779"/>
	<line fill="none" stroke="#000000" stroke-width="0.459" x1="985.6" y1="29.779" x2="985.6" y2="57.779"/>
	<line fill="none" stroke="#000000" stroke-width="0.459" x1="1113.401" y1="29.779" x2="1113.401" y2="57.779"/>
	<line fill="none" stroke="#000000" stroke-width="0.459" x1="1241.2" y1="29.779" x2="1241.2" y2="57.779"/>
	<line fill="none" stroke="#000000" stroke-width="0.459" x1="1369" y1="29.779" x2="1369" y2="57.779"/>
	<line fill="none" stroke="#000000" stroke-width="0.459" x1="1496.8" y1="29.779" x2="1496.8" y2="57.779"/>
	<line fill="none" stroke="#000000" stroke-width="0.459" x1="1624.5" y1="29.779" x2="1624.5" y2="57.779"/>
	<line fill="none" stroke="#000000" stroke-width="0.459" x1="1752.3" y1="29.779" x2="1752.3" y2="57.779"/>
	<line fill="none" stroke="#000000" stroke-width="0.459" x1="1880.101" y1="29.779" x2="1880.101" y2="57.779"/>
	<line fill="none" stroke="#000000" stroke-width="0.459" x1="2007.901" y1="29.779" x2="2007.901" y2="57.779"/>
	<line fill="none" stroke="#000000" stroke-width="0.459" x1="2135.699" y1="29.779" x2="2135.699" y2="57.779"/>
	<line fill="none" stroke="#000000" stroke-width="0.459" x1="2263.5" y1="29.779" x2="2263.5" y2="57.779"/>
	<line fill="none" stroke="#000000" stroke-width="0.459" x1="2391.3" y1="29.779" x2="2391.3" y2="57.779"/>
	<line fill="none" stroke="#000000" stroke-width="0.459" x1="2519.101" y1="29.779" x2="2519.101" y2="57.779"/>
	<line fill="none" stroke="#000000" stroke-width="0.459" x1="2646.799" y1="29.779" x2="2646.799" y2="57.779"/>
	<line fill="none" stroke="#000000" stroke-width="0.459" x1="2774.6" y1="29.779" x2="2774.6" y2="57.779"/>
	<line fill="none" stroke="#000000" stroke-width="0.459" x1="2902.401" y1="29.779" x2="2902.401" y2="57.779"/>
	<line fill="none" stroke="#000000" stroke-width="0.459" x1="3030.199" y1="29.779" x2="3030.199" y2="57.779"/>
	<line fill="none" stroke="#000000" stroke-width="0.459" x1="3158" y1="29.779" x2="3158" y2="57.779"/>
	<line fill="none" stroke="#000000" stroke-width="0.459" x1="3285.799" y1="29.779" x2="3285.799" y2="57.779"/>
	<line fill="none" stroke="#000000" stroke-width="0.459" x1="3413.6" y1="29.779" x2="3413.6" y2="57.779"/>
	<line fill="none" stroke="#000000" stroke-width="0.459" x1="3541.401" y1="29.779" x2="3541.401" y2="57.779"/>
	<line fill="none" stroke="#000000" stroke-width="0.459" x1="3669.199" y1="29.779" x2="3669.199" y2="57.779"/>
	<line fill="none" stroke="#000000" stroke-width="0.459" x1="3796.901" y1="29.779" x2="3796.901" y2="57.779"/>
	<line fill="none" stroke="#000000" stroke-width="0.459" x1="3924.699" y1="29.779" x2="3924.699" y2="57.779"/>
	<line fill="none" stroke="#000000" stroke-width="0.459" x1="4052.5" y1="29.779" x2="4052.5" y2="57.779"/>
	<line fill="none" stroke="#000000" stroke-width="0.459" x1="4180.299" y1="29.779" x2="4180.299" y2="57.779"/>
	<line fill="none" stroke="#000000" stroke-width="0.459" x1="4308.1" y1="29.779" x2="4308.1" y2="57.779"/>
	<line fill="none" stroke="#000000" stroke-width="0.459" x1="4435.9" y1="29.779" x2="4435.9" y2="57.779"/>
	<line fill="none" stroke="#000000" stroke-width="0.459" x1="4563.699" y1="29.779" x2="4563.699" y2="57.779"/>
	<line fill="none" stroke="#000000" stroke-width="0.459" x1="4691.5" y1="29.779" x2="4691.5" y2="57.779"/>
	<line fill="none" stroke="#000000" stroke-width="0.459" x1="4819.299" y1="29.779" x2="4819.299" y2="57.779"/>
	<line fill="none" stroke="#000000" stroke-width="0.459" x1="4947" y1="29.779" x2="4947" y2="57.779"/>
	<line fill="none" stroke="#000000" stroke-width="0.459" x1="5074.799" y1="29.779" x2="5074.799" y2="57.779"/>
	<line fill="none" stroke="#000000" stroke-width="2.419" x1="5208.699" y1="29.779" x2="5208.699" y2="57.779"/>
	<line fill="none" stroke="#000000" stroke-width="0.459" x1="5203.1" y1="29.779" x2="5203.1" y2="57.779"/>
	<line fill="none" stroke="#000000" stroke-width="0.459" x1="41.1" y1="43.779" x2="5210.5" y2="43.779"/>
	<line fill="none" stroke="#000000" stroke-width="0.459" x1="100.701" y1="44.979" x2="100.701" y2="68.279"/>
	<g enable-background="new    ">
		<path d="M106.165,40.238c2.381,0.028,3.697,1.653,2.94,3.643c-0.729,2.018-3.25,3.613-5.603,3.586
			c-2.354-0.027-3.67-1.681-2.914-3.67C101.318,41.808,103.811,40.211,106.165,40.238z"/>
	</g>
	<line fill="none" stroke="#000000" stroke-width="0.459" x1="139.8" y1="44.979" x2="139.8" y2="68.279"/>
	<g enable-background="new    ">
		<path d="M145.259,40.238c2.381,0.028,3.698,1.653,2.941,3.643c-0.729,2.018-3.25,3.613-5.604,3.586s-3.67-1.681-2.914-3.67
			C140.413,41.808,142.906,40.211,145.259,40.238z"/>
	</g>
	<g enable-background="new    ">
		<path d="M181.338,40.183v3.586h-8.909v-3.586H181.338z"/>
	</g>
	<line fill="none" stroke="#000000" stroke-width="0.459" x1="171.6" y1="43.779" x2="182.1" y2="43.779"/>
	<line fill="none" stroke="#000000" stroke-width="0.459" x1="224.1" y1="44.979" x2="224.1" y2="68.279"/>
	<g enable-background="new    ">
		<path d="M229.577,40.238c2.381,0.028,3.697,1.653,2.94,3.643c-0.729,2.018-3.25,3.613-5.603,3.586
			c-2.354-0.027-3.67-1.681-2.914-3.67C224.73,41.808,227.223,40.211,229.577,40.238z"/>
	</g>
	<line fill="none" stroke="#000000" stroke-width="0.459" x1="259.701" y1="44.979" x2="259.701" y2="68.279"/>
	<g enable-background="new    ">
		<path d="M265.17,40.238c2.381,0.028,3.698,1.653,2.94,3.643c-0.729,2.018-3.25,3.613-5.603,3.586
			c-2.354-0.027-3.67-1.681-2.914-3.67C260.324,41.808,262.817,40.211,265.17,40.238z"/>
	</g>
	<g enable-background="new    ">
		<path d="M306.5,40.183v3.586h-8.909v-3.586H306.5z"/>
	</g>
	<line fill="none" stroke="#000000" stroke-width="0.459" x1="296.701" y1="43.779" x2="307.2" y2="43.779"/>
	<line fill="none" stroke="#000000" stroke-width="0.459" x1="355.401" y1="44.979" x2="355.401" y2="68.279"/>
	<g enable-background="new    ">
		<path d="M360.865,40.238c2.381,0.028,3.698,1.653,2.941,3.643c-0.729,2.018-3.25,3.613-5.604,3.586s-3.67-1.681-2.914-3.67
			C356.02,41.808,358.513,40.211,360.865,40.238z"/>
	</g>
	<line fill="none" stroke="#000000" stroke-width="0.459" x1="387.8" y1="44.979" x2="387.8" y2="68.279"/>
	<g enable-background="new    ">
		<path d="M393.251,40.238c2.381,0.028,3.697,1.653,2.94,3.643c-0.729,2.018-3.25,3.613-5.603,3.586
			c-2.354-0.027-3.67-1.681-2.914-3.67C388.405,41.808,390.898,40.211,393.251,40.238z"/>
	</g>
	<g enable-background="new    ">
		<path d="M429.329,40.183v3.586h-8.908v-3.586H429.329z"/>
	</g>
	<line fill="none" stroke="#000000" stroke-width="0.459" x1="419.5" y1="43.779" x2="430" y2="43.779"/>
	<line fill="none" stroke="#000000" stroke-width="0.459" x1="491.901" y1="44.979" x2="491.901" y2="68.279"/>
	<g enable-background="new    ">
		<path d="M497.408,40.238c2.381,0.028,3.698,1.653,2.941,3.643c-0.729,2.018-3.25,3.613-5.604,3.586s-3.67-1.681-2.914-3.67
			C492.562,41.808,495.056,40.211,497.408,40.238z"/>
	</g>
	<line fill="none" stroke="#000000" stroke-width="0.459" x1="524.6" y1="44.979" x2="524.6" y2="68.279"/>
	<g enable-background="new    ">
		<path d="M530.085,40.238c2.381,0.028,3.697,1.653,2.94,3.643c-0.729,2.018-3.25,3.613-5.603,3.586
			c-2.354-0.027-3.67-1.681-2.914-3.67C525.238,41.808,527.731,40.211,530.085,40.238z"/>
	</g>
	<g enable-background="new    ">
		<path d="M564.119,40.183v3.586h-8.908v-3.586H564.119z"/>
	</g>
	<line fill="none" stroke="#000000" stroke-width="0.459" x1="554.3" y1="43.779" x2="564.8" y2="43.779"/>
	<line fill="none" stroke="#000000" stroke-width="0.459" x1="611.901" y1="44.979" x2="611.901" y2="68.279"/>
	<g enable-background="new    ">
		<path d="M617.321,40.238c2.381,0.028,3.698,1.653,2.941,3.643c-0.729,2.018-3.25,3.613-5.604,3.586s-3.67-1.681-2.914-3.67
			C612.474,41.808,614.967,40.211,617.321,40.238z"/>
	</g>
	<line fill="none" stroke="#000000" stroke-width="0.459" x1="643.7" y1="44.979" x2="643.7" y2="68.279"/>
	<g enable-background="new    ">
		<path d="M649.12,40.238c2.382,0.028,3.698,1.653,2.941,3.643c-0.729,2.018-3.25,3.613-5.604,3.586s-3.67-1.681-2.913-3.67
			C644.274,41.808,646.768,40.211,649.12,40.238z"/>
	</g>
	<g enable-background="new    ">
		<path d="M684.031,40.183v3.586h-8.909v-3.586H684.031z"/>
	</g>
	<line fill="none" stroke="#000000" stroke-width="0.459" x1="674.2" y1="43.779" x2="684.8" y2="43.779"/>
	<line fill="none" stroke="#000000" stroke-width="0.459" x1="738.8" y1="44.979" x2="738.8" y2="68.279"/>
	<g enable-background="new    ">
		<path d="M744.233,40.238c2.381,0.028,3.698,1.653,2.941,3.643c-0.729,2.018-3.25,3.613-5.604,3.586s-3.67-1.681-2.914-3.67
			C739.387,41.808,741.88,40.211,744.233,40.238z"/>
	</g>
	<line fill="none" stroke="#000000" stroke-width="0.459" x1="774.901" y1="44.979" x2="774.901" y2="68.279"/>
	<g enable-background="new    ">
		<path d="M780.41,40.238c2.381,0.028,3.698,1.653,2.941,3.643c-0.729,2.018-3.25,3.613-5.604,3.586s-3.67-1.681-2.914-3.67
			C775.564,41.808,778.058,40.211,780.41,40.238z"/>
	</g>
	<g enable-background="new    ">
		<path d="M820.865,40.183v3.586h-8.909v-3.586H820.865z"/>
	</g>
	<line fill="none" stroke="#000000" stroke-width="0.459" x1="811.1" y1="43.779" x2="821.6" y2="43.779"/>
	<line fill="none" stroke="#000000" stroke-width="0.459" x1="866.6" y1="44.979" x2="866.6" y2="68.279"/>
	<g enable-background="new    ">
		<path d="M872.021,40.238c2.381,0.028,3.698,1.653,2.941,3.643c-0.729,2.018-3.25,3.613-5.604,3.586s-3.67-1.681-2.914-3.67
			C867.175,41.808,869.668,40.211,872.021,40.238z"/>
	</g>
	<line fill="none" stroke="#000000" stroke-width="0.459" x1="909.2" y1="44.979" x2="909.2" y2="68.279"/>
	<g enable-background="new    ">
		<path d="M914.618,40.238c2.382,0.028,3.698,1.653,2.941,3.643c-0.729,2.018-3.25,3.613-5.604,3.586s-3.67-1.681-2.913-3.67
			C909.772,41.808,912.266,40.211,914.618,40.238z"/>
	</g>
	<g enable-background="new    ">
		<path d="M949.237,40.183v3.586h-8.909v-3.586H949.237z"/>
	</g>
	<line fill="none" stroke="#000000" stroke-width="0.459" x1="939.5" y1="43.779" x2="950" y2="43.779"/>
	<line fill="none" stroke="#000000" stroke-width="0.459" x1="995.2" y1="44.979" x2="995.2" y2="68.279"/>
	<g enable-background="new    ">
		<path d="M1000.686,40.238c2.381,0.028,3.698,1.653,2.941,3.643c-0.729,2.018-3.25,3.613-5.604,3.586s-3.67-1.681-2.914-3.67
			C995.839,41.808,998.331,40.211,1000.686,40.238z"/>
	</g>
	<line fill="none" stroke="#000000" stroke-width="0.459" x1="1023.2" y1="44.979" x2="1023.2" y2="68.279"/>
	<g enable-background="new    ">
		<path d="M1028.695,40.238c2.381,0.028,3.698,1.653,2.941,3.643c-0.729,2.018-3.25,3.613-5.604,3.586s-3.67-1.681-2.914-3.67
			C1023.848,41.808,1026.341,40.211,1028.695,40.238z"/>
	</g>
	<g enable-background="new    ">
		<path d="M1059.521,40.183v3.586h-8.909v-3.586H1059.521z"/>
	</g>
	<line fill="none" stroke="#000000" stroke-width="0.459" x1="1049.7" y1="43.779" x2="1060.2" y2="43.779"/>
	<line fill="none" stroke="#000000" stroke-width="0.459" x1="1123" y1="44.979" x2="1123" y2="68.279"/>
	<g enable-background="new    ">
		<path d="M1128.475,40.238c2.381,0.028,3.698,1.653,2.941,3.643c-0.729,2.018-3.25,3.613-5.604,3.586s-3.67-1.681-2.914-3.67
			C1123.628,41.808,1126.121,40.211,1128.475,40.238z"/>
	</g>
	<line fill="none" stroke="#000000" stroke-width="0.459" x1="1147.2" y1="44.979" x2="1147.2" y2="68.279"/>
	<g enable-background="new    ">
		<path d="M1152.691,40.238c2.381,0.028,3.698,1.653,2.941,3.643c-0.729,2.018-3.25,3.613-5.604,3.586s-3.67-1.681-2.914-3.67
			C1147.845,41.808,1150.338,40.211,1152.691,40.238z"/>
	</g>
	<g enable-background="new    ">
		<path d="M1197.813,40.183v3.586h-8.909v-3.586H1197.813z"/>
	</g>
	<line fill="none" stroke="#000000" stroke-width="0.459" x1="1188" y1="43.779" x2="1198.5" y2="43.779"/>
	<line fill="none" stroke="#000000" stroke-width="0.459" x1="1249.901" y1="44.979" x2="1249.901" y2="68.279"/>
	<g enable-background="new    ">
		<path d="M1255.389,40.238c2.381,0.028,3.698,1.653,2.941,3.643c-0.729,2.018-3.25,3.613-5.604,3.586s-3.67-1.681-2.914-3.67
			C1250.541,41.808,1253.035,40.211,1255.389,40.238z"/>
	</g>
	<line fill="none" stroke="#000000" stroke-width="0.459" x1="1274.7" y1="44.979" x2="1274.7" y2="68.279"/>
	<g enable-background="new    ">
		<path d="M1280.188,40.238c2.381,0.028,3.698,1.653,2.941,3.643c-0.729,2.018-3.25,3.613-5.604,3.586s-3.67-1.681-2.914-3.67
			C1275.341,41.808,1277.834,40.211,1280.188,40.238z"/>
	</g>
	<g enable-background="new    ">
		<path d="M1325.311,40.183v3.586h-8.909v-3.586H1325.311z"/>
	</g>
	<line fill="none" stroke="#000000" stroke-width="0.459" x1="1315.5" y1="43.779" x2="1326" y2="43.779"/>
	<line fill="none" stroke="#000000" stroke-width="0.459" x1="1377.699" y1="44.979" x2="1377.699" y2="68.279"/>
	<g enable-background="new    ">
		<path d="M1383.178,40.238c2.381,0.028,3.697,1.653,2.94,3.643c-0.729,2.018-3.25,3.613-5.603,3.586
			c-2.354-0.027-3.67-1.681-2.914-3.67C1378.332,41.808,1380.824,40.211,1383.178,40.238z"/>
	</g>
	<line fill="none" stroke="#000000" stroke-width="0.459" x1="1405.699" y1="44.979" x2="1405.699" y2="68.279"/>
	<g enable-background="new    ">
		<path d="M1411.187,40.238c2.381,0.028,3.698,1.653,2.941,3.643c-0.729,2.018-3.25,3.613-5.604,3.586s-3.67-1.681-2.914-3.67
			C1406.34,41.808,1408.832,40.211,1411.187,40.238z"/>
	</g>
	<g enable-background="new    ">
		<path d="M1442.595,40.183v3.586h-8.909v-3.586H1442.595z"/>
	</g>
	<line fill="none" stroke="#000000" stroke-width="0.459" x1="1432.8" y1="43.779" x2="1443.3" y2="43.779"/>
	<line fill="none" stroke="#000000" stroke-width="0.459" x1="1505.5" y1="44.979" x2="1505.5" y2="68.279"/>
	<g enable-background="new    ">
		<path d="M1510.967,40.238c2.381,0.028,3.697,1.653,2.94,3.643c-0.729,2.018-3.25,3.613-5.603,3.586
			c-2.354-0.027-3.67-1.681-2.914-3.67C1506.119,41.808,1508.613,40.211,1510.967,40.238z"/>
	</g>
	<line fill="none" stroke="#000000" stroke-width="0.459" x1="1533.5" y1="44.979" x2="1533.5" y2="68.279"/>
	<g enable-background="new    ">
		<path d="M1538.975,40.238c2.381,0.028,3.698,1.653,2.941,3.643c-0.729,2.018-3.25,3.613-5.604,3.586s-3.67-1.681-2.914-3.67
			C1534.128,41.808,1536.621,40.211,1538.975,40.238z"/>
	</g>
	<g enable-background="new    ">
		<path d="M1570.385,40.183v3.586h-8.909v-3.586H1570.385z"/>
	</g>
	<line fill="none" stroke="#000000" stroke-width="0.459" x1="1560.601" y1="43.779" x2="1571.101" y2="43.779"/>
	<line fill="none" stroke="#000000" stroke-width="0.459" x1="1634.199" y1="44.979" x2="1634.199" y2="68.279"/>
	<g enable-background="new    ">
		<path d="M1639.63,40.238c2.381,0.028,3.697,1.653,2.94,3.643c-0.729,2.018-3.25,3.613-5.603,3.586
			c-2.354-0.027-3.67-1.681-2.914-3.67C1634.783,41.808,1637.277,40.211,1639.63,40.238z"/>
	</g>
	<line fill="none" stroke="#000000" stroke-width="0.459" x1="1658.401" y1="44.979" x2="1658.401" y2="68.279"/>
	<g enable-background="new    ">
		<path d="M1663.846,40.238c2.381,0.028,3.697,1.653,2.94,3.643c-0.729,2.018-3.25,3.613-5.603,3.586
			c-2.354-0.027-3.67-1.681-2.914-3.67C1659,41.808,1661.492,40.211,1663.846,40.238z"/>
	</g>
	<g enable-background="new    ">
		<path d="M1708.968,40.183v3.586h-8.909v-3.586H1708.968z"/>
	</g>
	<line fill="none" stroke="#000000" stroke-width="0.459" x1="1699.199" y1="43.779" x2="1709.699" y2="43.779"/>
	<line fill="none" stroke="#000000" stroke-width="0.459" x1="1761.101" y1="44.979" x2="1761.101" y2="68.279"/>
	<g enable-background="new    ">
		<path d="M1766.543,40.238c2.381,0.028,3.697,1.653,2.94,3.643c-0.729,2.018-3.25,3.613-5.603,3.586
			c-2.354-0.027-3.67-1.681-2.914-3.67C1761.697,41.808,1764.19,40.211,1766.543,40.238z"/>
	</g>
	<line fill="none" stroke="#000000" stroke-width="0.459" x1="1785.901" y1="44.979" x2="1785.901" y2="68.279"/>
	<g enable-background="new    ">
		<path d="M1791.344,40.238c2.381,0.028,3.697,1.653,2.94,3.643c-0.729,2.018-3.25,3.613-5.603,3.586
			c-2.354-0.027-3.67-1.681-2.914-3.67C1786.498,41.808,1788.99,40.211,1791.344,40.238z"/>
	</g>
	<g enable-background="new    ">
		<path d="M1836.465,40.183v3.586h-8.909v-3.586H1836.465z"/>
	</g>
	<line fill="none" stroke="#000000" stroke-width="0.459" x1="1826.699" y1="43.779" x2="1837.199" y2="43.779"/>
	<line fill="none" stroke="#000000" stroke-width="0.459" x1="1888.901" y1="44.979" x2="1888.901" y2="68.279"/>
	<g enable-background="new    ">
		<path d="M1894.332,40.238c2.382,0.028,3.698,1.653,2.941,3.643c-0.729,2.018-3.25,3.613-5.603,3.586
			c-2.354-0.027-3.671-1.681-2.914-3.67C1889.486,41.808,1891.979,40.211,1894.332,40.238z"/>
	</g>
	<line fill="none" stroke="#000000" stroke-width="0.459" x1="1916.901" y1="44.979" x2="1916.901" y2="68.279"/>
	<g enable-background="new    ">
		<path d="M1922.342,40.238c2.381,0.028,3.697,1.653,2.94,3.643c-0.729,2.018-3.25,3.613-5.603,3.586
			c-2.354-0.027-3.67-1.681-2.914-3.67C1917.495,41.808,1919.989,40.211,1922.342,40.238z"/>
	</g>
	<g enable-background="new    ">
		<path d="M1953.75,40.183v3.586h-8.908v-3.586H1953.75z"/>
	</g>
	<line fill="none" stroke="#000000" stroke-width="0.459" x1="1944" y1="43.779" x2="1954.5" y2="43.779"/>
	<line fill="none" stroke="#000000" stroke-width="0.459" x1="2015.8" y1="44.979" x2="2015.8" y2="68.279"/>
	<g enable-background="new    ">
		<path d="M2021.248,40.238c2.381,0.028,3.697,1.653,2.94,3.643c-0.729,2.018-3.25,3.613-5.603,3.586
			c-2.354-0.027-3.67-1.681-2.914-3.67C2016.401,41.808,2018.894,40.211,2021.248,40.238z"/>
	</g>
	<line fill="none" stroke="#000000" stroke-width="0.459" x1="2049" y1="44.979" x2="2049" y2="68.279"/>
	<g enable-background="new    ">
		<path d="M2054.506,40.238c2.381,0.028,3.697,1.653,2.94,3.643c-0.729,2.018-3.25,3.613-5.603,3.586
			c-2.354-0.027-3.67-1.681-2.914-3.67C2049.659,41.808,2052.153,40.211,2054.506,40.238z"/>
	</g>
	<line fill="none" stroke="#000000" stroke-width="0.459" x1="2082" y1="44.979" x2="2082" y2="68.279"/>
	<g enable-background="new    ">
		<path d="M2090.557,43.965c-0.532,1.429-1.737,2.577-2.605,2.997c-0.869,0.448-2.017,0.646-3.277,0.532
			c-0.757-0.057-2.129-0.309-2.689-1.204c-0.561-0.953-0.168-2.073,0.028-2.634c0.532-1.4,1.653-2.354,2.493-2.857
			c0.841-0.477,2.129-0.841,3.698-0.672c0.588,0.084,1.905,0.195,2.438,1.148C2091.089,42.06,2090.752,43.433,2090.557,43.965z
			 M2087.25,41.695c-0.645,0.309-1.093,0.589-1.652,0.896c-0.561,0.309-1.064,0.616-1.653,1.009
			c-0.812,0.504-1.877,1.429-1.345,2.354c0.561,0.924,1.877,0.476,2.746,0.026c0.645-0.308,1.147-0.587,1.709-0.896
			c0.561-0.308,1.037-0.588,1.625-0.98c0.783-0.504,1.849-1.429,1.315-2.354C2089.436,40.827,2088.118,41.275,2087.25,41.695z"/>
	</g>
	<line fill="none" stroke="#000000" stroke-width="0.459" x1="2145.3" y1="44.979" x2="2145.3" y2="68.279"/>
	<g enable-background="new    ">
		<path d="M2150.787,40.238c2.381,0.028,3.697,1.653,2.94,3.643c-0.729,2.018-3.25,3.613-5.603,3.586
			c-2.354-0.027-3.67-1.681-2.914-3.67C2145.94,41.808,2148.433,40.211,2150.787,40.238z"/>
	</g>
	<line fill="none" stroke="#000000" stroke-width="0.459" x1="2184.401" y1="44.979" x2="2184.401" y2="68.279"/>
	<g enable-background="new    ">
		<path d="M2189.882,40.238c2.381,0.028,3.698,1.653,2.94,3.643c-0.729,2.018-3.25,3.613-5.603,3.586
			c-2.354-0.027-3.67-1.681-2.914-3.67C2185.035,41.808,2187.529,40.211,2189.882,40.238z"/>
	</g>
	<g enable-background="new    ">
		<path d="M2225.666,40.183v3.586h-8.908v-3.586H2225.666z"/>
	</g>
	<line fill="none" stroke="#000000" stroke-width="0.459" x1="2215.901" y1="43.779" x2="2226.401" y2="43.779"/>
	<line fill="none" stroke="#000000" stroke-width="0.459" x1="2267" y1="44.979" x2="2267" y2="68.279"/>
	<g enable-background="new    ">
		<path d="M2272.448,40.238c2.382,0.028,3.698,1.653,2.941,3.643c-0.729,2.018-3.25,3.613-5.604,3.586s-3.67-1.681-2.914-3.67
			C2267.602,41.808,2270.095,40.211,2272.448,40.238z"/>
	</g>
	<line fill="none" stroke="#000000" stroke-width="0.459" x1="2302.901" y1="44.979" x2="2302.901" y2="68.279"/>
	<g enable-background="new    ">
		<path d="M2308.332,40.238c2.382,0.028,3.698,1.653,2.941,3.643c-0.729,2.018-3.25,3.613-5.604,3.586s-3.67-1.681-2.914-3.67
			C2303.486,41.808,2305.979,40.211,2308.332,40.238z"/>
	</g>
	<g enable-background="new    ">
		<path d="M2350.248,40.183v3.586h-8.909v-3.586H2350.248z"/>
	</g>
	<line fill="none" stroke="#000000" stroke-width="0.459" x1="2340.5" y1="43.779" x2="2351" y2="43.779"/>
	<line fill="none" stroke="#000000" stroke-width="0.459" x1="2400" y1="44.979" x2="2400" y2="68.279"/>
	<g enable-background="new    ">
		<path d="M2405.489,40.238c2.381,0.028,3.698,1.653,2.941,3.643c-0.729,2.018-3.25,3.613-5.604,3.586s-3.67-1.681-2.914-3.67
			C2400.642,41.808,2403.135,40.211,2405.489,40.238z"/>
	</g>
	<line fill="none" stroke="#000000" stroke-width="0.459" x1="2432.699" y1="44.979" x2="2432.699" y2="68.279"/>
	<g enable-background="new    ">
		<path d="M2438.164,40.238c2.381,0.028,3.697,1.653,2.94,3.643c-0.729,2.018-3.25,3.613-5.603,3.586
			c-2.354-0.027-3.67-1.681-2.914-3.67C2433.317,41.808,2435.81,40.211,2438.164,40.238z"/>
	</g>
	<g enable-background="new    ">
		<path d="M2474.242,40.183v3.586h-8.908v-3.586H2474.242z"/>
	</g>
	<line fill="none" stroke="#000000" stroke-width="0.459" x1="2464.5" y1="43.779" x2="2475" y2="43.779"/>
	<line fill="none" stroke="#000000" stroke-width="0.459" x1="2533.101" y1="44.979" x2="2533.101" y2="68.279"/>
	<g enable-background="new    ">
		<path d="M2538.528,40.238c2.381,0.028,3.698,1.653,2.941,3.643c-0.729,2.018-3.25,3.613-5.604,3.586s-3.67-1.681-2.914-3.67
			C2533.681,41.808,2536.174,40.211,2538.528,40.238z"/>
	</g>
	<line fill="none" stroke="#000000" stroke-width="0.459" x1="2566.3" y1="44.979" x2="2566.3" y2="68.279"/>
	<g enable-background="new    ">
		<path d="M2571.789,40.238c2.381,0.028,3.697,1.653,2.94,3.643c-0.729,2.018-3.25,3.613-5.603,3.586
			c-2.354-0.027-3.67-1.681-2.914-3.67C2566.942,41.808,2569.435,40.211,2571.789,40.238z"/>
	</g>
	<g enable-background="new    ">
		<path d="M2606.407,40.183v3.586h-8.909v-3.586H2606.407z"/>
	</g>
	<line fill="none" stroke="#000000" stroke-width="0.459" x1="2596.601" y1="43.779" x2="2607.101" y2="43.779"/>
	<line fill="none" stroke="#000000" stroke-width="0.459" x1="2656.5" y1="44.979" x2="2656.5" y2="68.279"/>
	<g enable-background="new    ">
		<path d="M2661.94,40.238c2.381,0.028,3.697,1.653,2.941,3.643c-0.729,2.018-3.25,3.613-5.604,3.586s-3.67-1.681-2.913-3.67
			C2657.093,41.808,2659.586,40.211,2661.94,40.238z"/>
	</g>
	<line fill="none" stroke="#000000" stroke-width="0.459" x1="2688.299" y1="44.979" x2="2688.299" y2="68.279"/>
	<g enable-background="new    ">
		<path d="M2693.742,40.238c2.381,0.028,3.697,1.653,2.941,3.643c-0.729,2.018-3.25,3.613-5.604,3.586
			c-2.354-0.027-3.67-1.681-2.913-3.67C2688.896,41.808,2691.389,40.211,2693.742,40.238z"/>
	</g>
	<g enable-background="new    ">
		<path d="M2728.654,40.183v3.586h-8.909v-3.586H2728.654z"/>
	</g>
	<line fill="none" stroke="#000000" stroke-width="0.459" x1="2718.901" y1="43.779" x2="2729.401" y2="43.779"/>
	<line fill="none" stroke="#000000" stroke-width="0.459" x1="2783.401" y1="44.979" x2="2783.401" y2="68.279"/>
	<g enable-background="new    ">
		<path d="M2788.853,40.238c2.382,0.028,3.698,1.653,2.94,3.643c-0.729,2.018-3.248,3.613-5.603,3.586s-3.67-1.681-2.914-3.67
			C2784.006,41.808,2786.5,40.211,2788.853,40.238z"/>
	</g>
	<line fill="none" stroke="#000000" stroke-width="0.459" x1="2819.6" y1="44.979" x2="2819.6" y2="68.279"/>
	<g enable-background="new    ">
		<path d="M2825.031,40.238c2.381,0.028,3.697,1.653,2.941,3.643c-0.729,2.018-3.25,3.613-5.604,3.586
			c-2.354-0.027-3.67-1.681-2.913-3.67C2820.185,41.808,2822.678,40.211,2825.031,40.238z"/>
	</g>
	<g enable-background="new    ">
		<path d="M2865.486,40.183v3.586h-8.909v-3.586H2865.486z"/>
	</g>
	<line fill="none" stroke="#000000" stroke-width="0.459" x1="2855.699" y1="43.779" x2="2866.199" y2="43.779"/>
	<line fill="none" stroke="#000000" stroke-width="0.459" x1="2911.199" y1="44.979" x2="2911.199" y2="68.279"/>
	<g enable-background="new    ">
		<path d="M2916.644,40.238c2.382,0.028,3.698,1.653,2.94,3.643c-0.729,2.018-3.248,3.613-5.603,3.586s-3.67-1.681-2.914-3.67
			C2911.797,41.808,2914.291,40.211,2916.644,40.238z"/>
	</g>
	<line fill="none" stroke="#000000" stroke-width="0.459" x1="2953.799" y1="44.979" x2="2953.799" y2="68.279"/>
	<g enable-background="new    ">
		<path d="M2959.24,40.238c2.382,0.028,3.698,1.653,2.941,3.643c-0.729,2.018-3.249,3.613-5.604,3.586
			c-2.354-0.027-3.67-1.681-2.914-3.67C2954.393,41.808,2956.886,40.211,2959.24,40.238z"/>
	</g>
	<g enable-background="new    ">
		<path d="M2993.858,40.183v3.586h-8.908v-3.586H2993.858z"/>
	</g>
	<line fill="none" stroke="#000000" stroke-width="0.459" x1="2984.1" y1="43.779" x2="2994.6" y2="43.779"/>
	<line fill="none" stroke="#000000" stroke-width="0.459" x1="3039.799" y1="44.979" x2="3039.799" y2="68.279"/>
	<g enable-background="new    ">
		<path d="M3045.309,40.238c2.381,0.028,3.697,1.653,2.941,3.643c-0.729,2.018-3.25,3.613-5.604,3.586s-3.67-1.681-2.913-3.67
			C3040.461,41.808,3042.955,40.211,3045.309,40.238z"/>
	</g>
	<line fill="none" stroke="#000000" stroke-width="0.459" x1="3067.901" y1="44.979" x2="3067.901" y2="68.279"/>
	<g enable-background="new    ">
		<path d="M3073.314,40.238c2.382,0.028,3.698,1.653,2.94,3.643c-0.729,2.018-3.248,3.613-5.603,3.586s-3.67-1.681-2.914-3.67
			C3068.467,41.808,3070.959,40.211,3073.314,40.238z"/>
	</g>
	<g enable-background="new    ">
		<path d="M3104.142,40.183v3.586h-8.909v-3.586H3104.142z"/>
	</g>
	<line fill="none" stroke="#000000" stroke-width="0.459" x1="3094.401" y1="43.779" x2="3104.901" y2="43.779"/>
	<line fill="none" stroke="#000000" stroke-width="0.459" x1="3167.6" y1="44.979" x2="3167.6" y2="68.279"/>
	<g enable-background="new    ">
		<path d="M3173.096,40.238c2.381,0.028,3.697,1.653,2.94,3.643c-0.729,2.018-3.25,3.613-5.604,3.586
			c-2.354-0.027-3.67-1.681-2.913-3.67C3168.25,41.808,3170.742,40.211,3173.096,40.238z"/>
	</g>
	<line fill="none" stroke="#000000" stroke-width="0.459" x1="3191.799" y1="44.979" x2="3191.799" y2="68.279"/>
	<g enable-background="new    ">
		<path d="M3197.31,40.238c2.382,0.028,3.698,1.653,2.94,3.643c-0.729,2.018-3.248,3.613-5.603,3.586s-3.67-1.681-2.914-3.67
			C3192.463,41.808,3194.957,40.211,3197.31,40.238z"/>
	</g>
	<g enable-background="new    ">
		<path d="M3242.435,40.183v3.586h-8.909v-3.586H3242.435z"/>
	</g>
	<line fill="none" stroke="#000000" stroke-width="0.459" x1="3232.699" y1="43.779" x2="3243.199" y2="43.779"/>
	<line fill="none" stroke="#000000" stroke-width="0.459" x1="3294.5" y1="44.979" x2="3294.5" y2="68.279"/>
	<g enable-background="new    ">
		<path d="M3300.01,40.238c2.381,0.028,3.697,1.653,2.94,3.643c-0.729,2.018-3.25,3.613-5.604,3.586
			c-2.354-0.027-3.67-1.681-2.913-3.67C3295.164,41.808,3297.656,40.211,3300.01,40.238z"/>
	</g>
	<line fill="none" stroke="#000000" stroke-width="0.459" x1="3319.299" y1="44.979" x2="3319.299" y2="68.279"/>
	<g enable-background="new    ">
		<path d="M3324.808,40.238c2.382,0.028,3.698,1.653,2.94,3.643c-0.729,2.018-3.248,3.613-5.603,3.586s-3.67-1.681-2.914-3.67
			C3319.961,41.808,3322.455,40.211,3324.808,40.238z"/>
	</g>
	<g enable-background="new    ">
		<path d="M3369.932,40.183v3.586h-8.908v-3.586H3369.932z"/>
	</g>
	<line fill="none" stroke="#000000" stroke-width="0.459" x1="3360.1" y1="43.779" x2="3370.6" y2="43.779"/>
	<line fill="none" stroke="#000000" stroke-width="0.459" x1="3422.299" y1="44.979" x2="3422.299" y2="68.279"/>
	<g enable-background="new    ">
		<path d="M3427.798,40.238c2.382,0.028,3.698,1.653,2.94,3.643c-0.729,2.018-3.249,3.613-5.603,3.586
			c-2.354-0.027-3.67-1.681-2.914-3.67C3422.951,41.808,3425.445,40.211,3427.798,40.238z"/>
	</g>
	<line fill="none" stroke="#000000" stroke-width="0.459" x1="3450.299" y1="44.979" x2="3450.299" y2="68.279"/>
	<g enable-background="new    ">
		<path d="M3455.806,40.238c2.382,0.028,3.698,1.653,2.94,3.643c-0.729,2.018-3.249,3.613-5.603,3.586
			c-2.354-0.027-3.67-1.681-2.914-3.67C3450.959,41.808,3453.452,40.211,3455.806,40.238z"/>
	</g>
	<g enable-background="new    ">
		<path d="M3487.217,40.183v3.586h-8.908v-3.586H3487.217z"/>
	</g>
	<line fill="none" stroke="#000000" stroke-width="0.459" x1="3477.401" y1="43.779" x2="3487.901" y2="43.779"/>
	<line fill="none" stroke="#000000" stroke-width="0.459" x1="3550.1" y1="44.979" x2="3550.1" y2="68.279"/>
	<g enable-background="new    ">
		<path d="M3555.589,40.238c2.382,0.028,3.698,1.653,2.94,3.643c-0.729,2.018-3.249,3.613-5.603,3.586
			c-2.354-0.027-3.67-1.681-2.914-3.67C3550.742,41.808,3553.236,40.211,3555.589,40.238z"/>
	</g>
	<line fill="none" stroke="#000000" stroke-width="0.459" x1="3578.1" y1="44.979" x2="3578.1" y2="68.279"/>
	<g enable-background="new    ">
		<path d="M3583.597,40.238c2.382,0.028,3.698,1.653,2.94,3.643c-0.729,2.018-3.249,3.613-5.603,3.586
			c-2.354-0.027-3.67-1.681-2.914-3.67C3578.75,41.808,3581.243,40.211,3583.597,40.238z"/>
	</g>
	<g enable-background="new    ">
		<path d="M3615.004,40.183v3.586h-8.908v-3.586H3615.004z"/>
	</g>
	<line fill="none" stroke="#000000" stroke-width="0.459" x1="3605.199" y1="43.779" x2="3615.699" y2="43.779"/>
	<line fill="none" stroke="#000000" stroke-width="0.459" x1="3678.799" y1="44.979" x2="3678.799" y2="68.279"/>
	<g enable-background="new    ">
		<path d="M3684.252,40.238c2.381,0.028,3.696,1.653,2.94,3.643c-0.729,2.018-3.25,3.613-5.604,3.586
			c-2.354-0.027-3.67-1.681-2.912-3.67C3679.406,41.808,3681.899,40.211,3684.252,40.238z"/>
	</g>
	<line fill="none" stroke="#000000" stroke-width="0.459" x1="3703" y1="44.979" x2="3703" y2="68.279"/>
	<g enable-background="new    ">
		<path d="M3708.466,40.238c2.382,0.028,3.698,1.653,2.94,3.643c-0.729,2.018-3.249,3.613-5.603,3.586
			c-2.354-0.027-3.67-1.681-2.914-3.67C3703.619,41.808,3706.113,40.211,3708.466,40.238z"/>
	</g>
	<g enable-background="new    ">
		<path d="M3753.59,40.183v3.586h-8.908v-3.586H3753.59z"/>
	</g>
	<line fill="none" stroke="#000000" stroke-width="0.459" x1="3743.799" y1="43.779" x2="3754.299" y2="43.779"/>
	<line fill="none" stroke="#000000" stroke-width="0.459" x1="3805.699" y1="44.979" x2="3805.699" y2="68.279"/>
	<g enable-background="new    ">
		<path d="M3811.166,40.238c2.382,0.028,3.697,1.653,2.94,3.643c-0.729,2.018-3.249,3.613-5.603,3.586
			c-2.354-0.027-3.67-1.681-2.914-3.67C3806.319,41.808,3808.812,40.211,3811.166,40.238z"/>
	</g>
	<line fill="none" stroke="#000000" stroke-width="0.459" x1="3830.5" y1="44.979" x2="3830.5" y2="68.279"/>
	<g enable-background="new    ">
		<path d="M3835.965,40.238c2.381,0.028,3.697,1.653,2.94,3.643c-0.729,2.018-3.25,3.613-5.604,3.586
			c-2.354-0.027-3.67-1.681-2.913-3.67C3831.118,41.808,3833.612,40.211,3835.965,40.238z"/>
	</g>
	<g enable-background="new    ">
		<path d="M3881.084,40.183v3.586h-8.908v-3.586H3881.084z"/>
	</g>
	<line fill="none" stroke="#000000" stroke-width="0.459" x1="3871.299" y1="43.779" x2="3881.799" y2="43.779"/>
	<line fill="none" stroke="#000000" stroke-width="0.459" x1="3933.5" y1="44.979" x2="3933.5" y2="68.279"/>
	<g enable-background="new    ">
		<path d="M3938.955,40.238c2.382,0.028,3.697,1.653,2.94,3.643c-0.729,2.018-3.249,3.613-5.603,3.586
			c-2.354-0.027-3.67-1.681-2.914-3.67C3934.108,41.808,3936.601,40.211,3938.955,40.238z"/>
	</g>
	<line fill="none" stroke="#000000" stroke-width="0.459" x1="3961.5" y1="44.979" x2="3961.5" y2="68.279"/>
	<g enable-background="new    ">
		<path d="M3966.963,40.238c2.381,0.028,3.696,1.653,2.94,3.643c-0.729,2.018-3.25,3.613-5.604,3.586
			c-2.354-0.027-3.67-1.681-2.912-3.67C3962.116,41.808,3964.61,40.211,3966.963,40.238z"/>
	</g>
	<g enable-background="new    ">
		<path d="M3998.371,40.183v3.586h-8.909v-3.586H3998.371z"/>
	</g>
	<line fill="none" stroke="#000000" stroke-width="0.459" x1="3988.6" y1="43.779" x2="3999.1" y2="43.779"/>
	<line fill="none" stroke="#000000" stroke-width="0.459" x1="4060.401" y1="44.979" x2="4060.401" y2="68.279"/>
	<g enable-background="new    ">
		<path d="M4065.868,40.238c2.382,0.028,3.698,1.653,2.941,3.643c-0.729,2.018-3.249,3.613-5.604,3.586
			c-2.354-0.027-3.67-1.681-2.914-3.67C4061.022,41.808,4063.515,40.211,4065.868,40.238z"/>
	</g>
	<line fill="none" stroke="#000000" stroke-width="0.459" x1="4093.699" y1="44.979" x2="4093.699" y2="68.279"/>
	<g enable-background="new    ">
		<path d="M4099.127,40.238c2.381,0.028,3.696,1.653,2.94,3.643c-0.729,2.018-3.25,3.613-5.604,3.586
			c-2.353-0.027-3.67-1.681-2.912-3.67C4094.281,41.808,4096.773,40.211,4099.127,40.238z"/>
	</g>
	<line fill="none" stroke="#000000" stroke-width="0.459" x1="4126.6" y1="44.979" x2="4126.6" y2="68.279"/>
	<g enable-background="new    ">
		<path d="M4135.178,43.965c-0.531,1.429-1.736,2.577-2.605,2.997c-0.867,0.448-2.017,0.646-3.276,0.532
			c-0.756-0.057-2.129-0.309-2.688-1.204c-0.562-0.953-0.168-2.073,0.026-2.634c0.533-1.4,1.653-2.354,2.494-2.857
			c0.84-0.477,2.129-0.841,3.696-0.672c0.59,0.084,1.906,0.195,2.438,1.148C4135.711,42.06,4135.375,43.433,4135.178,43.965z
			 M4131.873,41.695c-0.645,0.309-1.094,0.589-1.653,0.896c-0.56,0.309-1.063,0.616-1.651,1.009
			c-0.813,0.504-1.877,1.429-1.346,2.354c0.561,0.924,1.878,0.476,2.745,0.026c0.646-0.308,1.147-0.587,1.709-0.896
			s1.037-0.588,1.625-0.98c0.785-0.504,1.851-1.429,1.315-2.354C4134.058,40.827,4132.74,41.275,4131.873,41.695z"/>
	</g>
	<line fill="none" stroke="#000000" stroke-width="0.459" x1="4189.9" y1="44.979" x2="4189.9" y2="68.279"/>
	<g enable-background="new    ">
		<path d="M4195.406,40.238c2.381,0.028,3.697,1.653,2.941,3.643c-0.729,2.018-3.25,3.613-5.604,3.586
			c-2.354-0.027-3.67-1.681-2.914-3.67C4190.56,41.808,4193.053,40.211,4195.406,40.238z"/>
	</g>
	<line fill="none" stroke="#000000" stroke-width="0.459" x1="4214.199" y1="44.979" x2="4214.199" y2="68.279"/>
	<g enable-background="new    ">
		<path d="M4219.623,40.238c2.381,0.028,3.697,1.653,2.941,3.643c-0.729,2.018-3.25,3.613-5.604,3.586
			c-2.354-0.027-3.67-1.681-2.914-3.67C4214.776,41.808,4217.27,40.211,4219.623,40.238z"/>
	</g>
	<g enable-background="new    ">
		<path d="M4264.744,40.183v3.586h-8.908v-3.586H4264.744z"/>
	</g>
	<line fill="none" stroke="#000000" stroke-width="0.459" x1="4255" y1="43.779" x2="4265.5" y2="43.779"/>
	<line fill="none" stroke="#000000" stroke-width="0.459" x1="4316.9" y1="44.979" x2="4316.9" y2="68.279"/>
	<g enable-background="new    ">
		<path d="M4322.318,40.238c2.381,0.028,3.697,1.653,2.941,3.643c-0.729,2.018-3.25,3.613-5.604,3.586s-3.67-1.681-2.913-3.67
			C4317.472,41.808,4319.965,40.211,4322.318,40.238z"/>
	</g>
	<line fill="none" stroke="#000000" stroke-width="0.459" x1="4341.699" y1="44.979" x2="4341.699" y2="68.279"/>
	<g enable-background="new    ">
		<path d="M4347.119,40.238c2.381,0.028,3.697,1.653,2.941,3.643c-0.729,2.018-3.25,3.613-5.604,3.586
			c-2.354-0.027-3.67-1.681-2.914-3.67C4342.272,41.808,4344.766,40.211,4347.119,40.238z"/>
	</g>
	<g enable-background="new    ">
		<path d="M4392.24,40.183v3.586h-8.908v-3.586H4392.24z"/>
	</g>
	<line fill="none" stroke="#000000" stroke-width="0.459" x1="4382.5" y1="43.779" x2="4393" y2="43.779"/>
	<line fill="none" stroke="#000000" stroke-width="0.459" x1="4444.6" y1="44.979" x2="4444.6" y2="68.279"/>
	<g enable-background="new    ">
		<path d="M4450.11,40.238c2.382,0.028,3.698,1.653,2.94,3.643c-0.729,2.018-3.248,3.613-5.603,3.586s-3.67-1.681-2.914-3.67
			C4445.264,41.808,4447.756,40.211,4450.11,40.238z"/>
	</g>
	<line fill="none" stroke="#000000" stroke-width="0.459" x1="4472.699" y1="44.979" x2="4472.699" y2="68.279"/>
	<g enable-background="new    ">
		<path d="M4478.117,40.238c2.381,0.028,3.697,1.653,2.941,3.643c-0.729,2.018-3.25,3.613-5.604,3.586
			c-2.354-0.027-3.67-1.681-2.914-3.67C4473.271,41.808,4475.764,40.211,4478.117,40.238z"/>
	</g>
	<g enable-background="new    ">
		<path d="M4509.527,40.183v3.586h-8.908v-3.586H4509.527z"/>
	</g>
	<line fill="none" stroke="#000000" stroke-width="0.459" x1="4499.699" y1="43.779" x2="4510.199" y2="43.779"/>
	<line fill="none" stroke="#000000" stroke-width="0.459" x1="4572.4" y1="44.979" x2="4572.4" y2="68.279"/>
	<g enable-background="new    ">
		<path d="M4577.899,40.238c2.382,0.028,3.698,1.653,2.94,3.643c-0.729,2.018-3.248,3.613-5.603,3.586s-3.67-1.681-2.914-3.67
			C4573.053,41.808,4575.545,40.211,4577.899,40.238z"/>
	</g>
	<line fill="none" stroke="#000000" stroke-width="0.459" x1="4600.4" y1="44.979" x2="4600.4" y2="68.279"/>
	<g enable-background="new    ">
		<path d="M4605.906,40.238c2.381,0.028,3.697,1.653,2.941,3.643c-0.729,2.018-3.25,3.613-5.604,3.586
			c-2.354-0.027-3.67-1.681-2.914-3.67C4601.06,41.808,4603.553,40.211,4605.906,40.238z"/>
	</g>
	<g enable-background="new    ">
		<path d="M4637.317,40.183v3.586h-8.909v-3.586H4637.317z"/>
	</g>
	<line fill="none" stroke="#000000" stroke-width="0.459" x1="4627.5" y1="43.779" x2="4638" y2="43.779"/>
	<line fill="none" stroke="#000000" stroke-width="0.459" x1="4701.1" y1="44.979" x2="4701.1" y2="68.279"/>
	<g enable-background="new    ">
		<path d="M4706.563,40.238c2.381,0.028,3.697,1.653,2.941,3.643c-0.729,2.018-3.25,3.613-5.604,3.586s-3.67-1.681-2.913-3.67
			C4701.715,41.808,4704.209,40.211,4706.563,40.238z"/>
	</g>
	<line fill="none" stroke="#000000" stroke-width="0.459" x1="4725.299" y1="44.979" x2="4725.299" y2="68.279"/>
	<g enable-background="new    ">
		<path d="M4730.778,40.238c2.382,0.028,3.698,1.653,2.94,3.643c-0.729,2.018-3.248,3.613-5.603,3.586s-3.67-1.681-2.914-3.67
			C4725.932,41.808,4728.424,40.211,4730.778,40.238z"/>
	</g>
	<g enable-background="new    ">
		<path d="M4775.901,40.183v3.586h-8.909v-3.586H4775.901z"/>
	</g>
	<line fill="none" stroke="#000000" stroke-width="0.459" x1="4766.1" y1="43.779" x2="4776.6" y2="43.779"/>
	<line fill="none" stroke="#000000" stroke-width="0.459" x1="4828" y1="44.979" x2="4828" y2="68.279"/>
	<g enable-background="new    ">
		<path d="M4833.477,40.238c2.381,0.028,3.697,1.653,2.941,3.643c-0.729,2.018-3.25,3.613-5.604,3.586s-3.67-1.681-2.913-3.67
			C4828.629,41.808,4831.123,40.211,4833.477,40.238z"/>
	</g>
	<line fill="none" stroke="#000000" stroke-width="0.459" x1="4852.799" y1="44.979" x2="4852.799" y2="68.279"/>
	<g enable-background="new    ">
		<path d="M4858.275,40.238c2.381,0.028,3.697,1.653,2.941,3.643c-0.729,2.018-3.25,3.613-5.604,3.586s-3.67-1.681-2.913-3.67
			C4853.429,41.808,4855.922,40.211,4858.275,40.238z"/>
	</g>
	<g enable-background="new    ">
		<path d="M4903.396,40.183v3.586h-8.908v-3.586H4903.396z"/>
	</g>
	<line fill="none" stroke="#000000" stroke-width="0.459" x1="4893.6" y1="43.779" x2="4904.1" y2="43.779"/>
	<line fill="none" stroke="#000000" stroke-width="0.459" x1="4955.799" y1="44.979" x2="4955.799" y2="68.279"/>
	<g enable-background="new    ">
		<path d="M4961.264,40.238c2.381,0.028,3.697,1.653,2.941,3.643c-0.729,2.018-3.25,3.613-5.604,3.586s-3.67-1.681-2.913-3.67
			C4956.416,41.808,4958.91,40.211,4961.264,40.238z"/>
	</g>
	<line fill="none" stroke="#000000" stroke-width="0.459" x1="4983.799" y1="44.979" x2="4983.799" y2="68.279"/>
	<g enable-background="new    ">
		<path d="M4989.272,40.238c2.382,0.028,3.698,1.653,2.94,3.643c-0.729,2.018-3.248,3.613-5.603,3.586s-3.67-1.681-2.914-3.67
			C4984.426,41.808,4986.918,40.211,4989.272,40.238z"/>
	</g>
	<g enable-background="new    ">
		<path d="M5020.683,40.183v3.586h-8.909v-3.586H5020.683z"/>
	</g>
	<line fill="none" stroke="#000000" stroke-width="0.459" x1="5010.9" y1="43.779" x2="5021.4" y2="43.779"/>
	<line fill="none" stroke="#000000" stroke-width="0.459" x1="5082.699" y1="44.979" x2="5082.699" y2="68.279"/>
	<g enable-background="new    ">
		<path d="M5088.179,40.238c2.382,0.028,3.698,1.653,2.94,3.643c-0.729,2.018-3.248,3.613-5.603,3.586s-3.67-1.681-2.914-3.67
			C5083.332,41.808,5085.826,40.211,5088.179,40.238z"/>
	</g>
	<line fill="none" stroke="#000000" stroke-width="0.459" x1="5116.299" y1="44.979" x2="5116.299" y2="68.279"/>
	<g enable-background="new    ">
		<path d="M5121.729,40.238c2.382,0.028,3.698,1.653,2.94,3.643c-0.729,2.018-3.248,3.613-5.603,3.586s-3.67-1.681-2.914-3.67
			C5116.883,41.808,5119.375,40.211,5121.729,40.238z"/>
	</g>
	<line fill="none" stroke="#000000" stroke-width="0.459" x1="5149.5" y1="44.979" x2="5149.5" y2="68.279"/>
	<g enable-background="new    ">
		<path d="M5158.07,43.965c-0.531,1.429-1.736,2.577-2.605,2.997c-0.867,0.448-2.017,0.646-3.276,0.532
			c-0.756-0.057-2.129-0.309-2.688-1.204c-0.562-0.953-0.168-2.073,0.026-2.634c0.533-1.4,1.653-2.354,2.494-2.857
			c0.84-0.477,2.129-0.841,3.696-0.672c0.59,0.084,1.906,0.195,2.438,1.148C5158.604,42.06,5158.268,43.433,5158.07,43.965z
			 M5154.766,41.695c-0.645,0.309-1.094,0.589-1.654,0.896c-0.56,0.309-1.063,0.616-1.651,1.009
			c-0.812,0.504-1.877,1.429-1.345,2.354c0.561,0.924,1.877,0.476,2.744,0.026c0.646-0.308,1.148-0.587,1.709-0.896
			c0.562-0.308,1.037-0.588,1.625-0.98c0.785-0.504,1.851-1.429,1.316-2.354C5156.951,40.827,5155.633,41.275,5154.766,41.695z"/>
	</g>
</g>
</svg>
