<?xml version="1.0" encoding="utf-8"?>
<!-- Generator: Adobe Illustrator 16.0.0, SVG Export Plug-In . SVG Version: 6.00 Build 0)  -->
<!DOCTYPE svg PUBLIC "-//W3C//DTD SVG 1.1//EN" "http://www.w3.org/Graphics/SVG/1.1/DTD/svg11.dtd">
<svg version="1.1" id="Layer_1" xmlns="http://www.w3.org/2000/svg" xmlns:xlink="http://www.w3.org/1999/xlink" x="0px" y="0px"
	 width="5169.4px" height="90px" viewBox="41.1 0 5169.4 90" enable-background="new 41.1 0 5169.4 90" xml:space="preserve">
<g id="Music">
	<line fill="none" stroke="#000000" stroke-width="0.459" x1="41.5" y1="0" x2="41.5" y2="90"/>
	<g enable-background="new    ">
		<path d="M55.84,32.89v24.877h-7.116V32.89H55.84z M54.636,55.386V35.271h-4.734v20.115H54.636z"/>
	</g>
	<g enable-background="new    ">
		<path d="M87.859,42.555c0,1.12-1.4,2.102-2.156,2.102c-0.757,0-2.382-0.421-2.382-2.102c0-1.093,0.784-1.905,1.766-1.905
			c0.672,0,0.616-0.42,0.392-0.672c-0.616-0.645-1.736-1.121-3.109-0.729c-2.214,0.588-2.689,3.277-2.689,6.051
			c0,3.082,0.532,6.136,3.222,6.136c1.905,0,4.034-1.736,3.979-4.117h0.784c-0.028,0.729-0.504,2.24-0.98,2.828
			c-0.953,1.178-2.717,2.158-4.09,2.158c-3.698,0-6.331-3.335-6.331-7.005c0-3.586,2.465-6.892,6.051-6.892
			C85.338,38.408,87.859,39.837,87.859,42.555z"/>
	</g>
	<line fill="none" stroke="#000000" stroke-width="0.459" x1="218.9" y1="31.3" x2="218.9" y2="59.3"/>
	<line fill="none" stroke="#000000" stroke-width="0.459" x1="346.6" y1="31.3" x2="346.6" y2="59.3"/>
	<line fill="none" stroke="#000000" stroke-width="0.459" x1="474.4" y1="31.3" x2="474.4" y2="59.3"/>
	<line fill="none" stroke="#000000" stroke-width="0.459" x1="602.199" y1="31.3" x2="602.199" y2="59.3"/>
	<line fill="none" stroke="#000000" stroke-width="0.459" x1="730" y1="31.3" x2="730" y2="59.3"/>
	<line fill="none" stroke="#000000" stroke-width="0.459" x1="857.8" y1="31.3" x2="857.8" y2="59.3"/>
	<line fill="none" stroke="#000000" stroke-width="0.459" x1="985.6" y1="31.3" x2="985.6" y2="59.3"/>
	<line fill="none" stroke="#000000" stroke-width="0.459" x1="1113.4" y1="31.3" x2="1113.4" y2="59.3"/>
	<line fill="none" stroke="#000000" stroke-width="0.459" x1="1241.199" y1="31.3" x2="1241.199" y2="59.3"/>
	<line fill="none" stroke="#000000" stroke-width="0.459" x1="1369" y1="31.3" x2="1369" y2="59.3"/>
	<line fill="none" stroke="#000000" stroke-width="0.459" x1="1496.799" y1="31.3" x2="1496.799" y2="59.3"/>
	<line fill="none" stroke="#000000" stroke-width="0.459" x1="1624.5" y1="31.3" x2="1624.5" y2="59.3"/>
	<line fill="none" stroke="#000000" stroke-width="0.459" x1="1752.299" y1="31.3" x2="1752.299" y2="59.3"/>
	<line fill="none" stroke="#000000" stroke-width="0.459" x1="1880.1" y1="31.3" x2="1880.1" y2="59.3"/>
	<line fill="none" stroke="#000000" stroke-width="0.459" x1="2007.901" y1="31.3" x2="2007.901" y2="59.3"/>
	<line fill="none" stroke="#000000" stroke-width="0.459" x1="2135.699" y1="31.3" x2="2135.699" y2="59.3"/>
	<line fill="none" stroke="#000000" stroke-width="0.459" x1="2263.5" y1="31.3" x2="2263.5" y2="59.3"/>
	<line fill="none" stroke="#000000" stroke-width="0.459" x1="2391.299" y1="31.3" x2="2391.299" y2="59.3"/>
	<line fill="none" stroke="#000000" stroke-width="0.459" x1="2519.1" y1="31.3" x2="2519.1" y2="59.3"/>
	<line fill="none" stroke="#000000" stroke-width="0.459" x1="2646.799" y1="31.3" x2="2646.799" y2="59.3"/>
	<line fill="none" stroke="#000000" stroke-width="0.459" x1="2774.6" y1="31.3" x2="2774.6" y2="59.3"/>
	<line fill="none" stroke="#000000" stroke-width="0.459" x1="2902.401" y1="31.3" x2="2902.401" y2="59.3"/>
	<line fill="none" stroke="#000000" stroke-width="0.459" x1="3030.199" y1="31.3" x2="3030.199" y2="59.3"/>
	<line fill="none" stroke="#000000" stroke-width="0.459" x1="3158" y1="31.3" x2="3158" y2="59.3"/>
	<line fill="none" stroke="#000000" stroke-width="0.459" x1="3285.799" y1="31.3" x2="3285.799" y2="59.3"/>
	<line fill="none" stroke="#000000" stroke-width="0.459" x1="3413.6" y1="31.3" x2="3413.6" y2="59.3"/>
	<line fill="none" stroke="#000000" stroke-width="0.459" x1="3541.401" y1="31.3" x2="3541.401" y2="59.3"/>
	<line fill="none" stroke="#000000" stroke-width="0.459" x1="3669.199" y1="31.3" x2="3669.199" y2="59.3"/>
	<line fill="none" stroke="#000000" stroke-width="0.459" x1="3796.901" y1="31.3" x2="3796.901" y2="59.3"/>
	<line fill="none" stroke="#000000" stroke-width="0.459" x1="3924.699" y1="31.3" x2="3924.699" y2="59.3"/>
	<line fill="none" stroke="#000000" stroke-width="0.459" x1="4052.5" y1="31.3" x2="4052.5" y2="59.3"/>
	<line fill="none" stroke="#000000" stroke-width="0.459" x1="4180.299" y1="31.3" x2="4180.299" y2="59.3"/>
	<line fill="none" stroke="#000000" stroke-width="0.459" x1="4308.1" y1="31.3" x2="4308.1" y2="59.3"/>
	<line fill="none" stroke="#000000" stroke-width="0.459" x1="4435.9" y1="31.3" x2="4435.9" y2="59.3"/>
	<line fill="none" stroke="#000000" stroke-width="0.459" x1="4563.699" y1="31.3" x2="4563.699" y2="59.3"/>
	<line fill="none" stroke="#000000" stroke-width="0.459" x1="4691.5" y1="31.3" x2="4691.5" y2="59.3"/>
	<line fill="none" stroke="#000000" stroke-width="0.459" x1="4819.299" y1="31.3" x2="4819.299" y2="59.3"/>
	<line fill="none" stroke="#000000" stroke-width="0.459" x1="4947" y1="31.3" x2="4947" y2="59.3"/>
	<line fill="none" stroke="#000000" stroke-width="0.459" x1="5074.799" y1="31.3" x2="5074.799" y2="59.3"/>
	<line fill="none" stroke="#000000" stroke-width="2.419" x1="5208.699" y1="31.3" x2="5208.699" y2="59.3"/>
	<line fill="none" stroke="#000000" stroke-width="0.459" x1="5203.1" y1="31.3" x2="5203.1" y2="59.3"/>
	<line fill="none" stroke="#000000" stroke-width="0.459" x1="41.1" y1="45.3" x2="5210.5" y2="45.3"/>
	<g enable-background="new    ">
		<path d="M109.273,41.742v3.586h-8.909v-3.586H109.273z"/>
	</g>
	<line fill="none" stroke="#000000" stroke-width="0.459" x1="99.5" y1="45.3" x2="110" y2="45.3"/>
	<g enable-background="new    ">
		<path d="M178.228,45.299c2.381,0.028,3.698,1.653,2.941,3.643c-0.729,2.018-3.25,3.613-5.604,3.586s-3.67-1.68-2.914-3.67
			C173.381,46.868,175.875,45.271,178.228,45.299z"/>
	</g>
	<line fill="none" stroke="#000000" stroke-width="0.459" x1="180.8" y1="47.7" x2="180.8" y2="26.1"/>
	<g enable-background="new    ">
		<path d="M191.647,45.299c2.381,0.028,3.698,1.653,2.941,3.643c-0.729,2.018-3.25,3.613-5.604,3.586s-3.67-1.68-2.914-3.67
			C186.801,46.868,189.294,45.271,191.647,45.299z"/>
	</g>
	<line fill="none" stroke="#000000" stroke-width="0.459" x1="194.3" y1="47.7" x2="194.3" y2="26.1"/>
	<path d="M180.5,24.3h14.1v3.5h-14.1V24.3z"/>
	<line fill="none" stroke="#000000" stroke-width="0.459" x1="207.4" y1="47.7" x2="207.4" y2="24.3"/>
	<g enable-background="new    ">
		<path d="M204.777,45.299c2.382,0.028,3.698,1.653,2.941,3.643c-0.729,2.018-3.25,3.613-5.604,3.586s-3.67-1.68-2.913-3.67
			C199.931,46.868,202.424,45.271,204.777,45.299z"/>
	</g>
	<g enable-background="new    ">
		<path d="M232.686,41.742v3.586h-8.909v-3.586H232.686z"/>
	</g>
	<line fill="none" stroke="#000000" stroke-width="0.459" x1="222.9" y1="45.3" x2="233.4" y2="45.3"/>
	<g enable-background="new    ">
		<path d="M303.391,45.299c2.381,0.028,3.698,1.653,2.94,3.643c-0.729,2.018-3.25,3.613-5.603,3.586
			c-2.354-0.027-3.67-1.68-2.914-3.67C298.544,46.868,301.036,45.271,303.391,45.299z"/>
	</g>
	<line fill="none" stroke="#000000" stroke-width="0.459" x1="306" y1="47.7" x2="306" y2="26.1"/>
	<g enable-background="new    ">
		<path d="M318.562,45.299c2.381,0.028,3.698,1.653,2.941,3.643c-0.729,2.018-3.25,3.613-5.604,3.586s-3.67-1.68-2.914-3.67
			C313.715,46.868,316.207,45.271,318.562,45.299z"/>
	</g>
	<line fill="none" stroke="#000000" stroke-width="0.459" x1="321.199" y1="47.7" x2="321.199" y2="26.1"/>
	<path d="M305.699,24.3H321.5v3.5h-15.801V24.3z"/>
	<line fill="none" stroke="#000000" stroke-width="0.459" x1="336.1" y1="47.7" x2="336.1" y2="24.3"/>
	<g enable-background="new    ">
		<path d="M333.441,45.299c2.381,0.028,3.698,1.653,2.941,3.643c-0.729,2.018-3.25,3.613-5.604,3.586s-3.67-1.68-2.914-3.67
			C328.595,46.868,331.088,45.271,333.441,45.299z"/>
	</g>
	<g enable-background="new    ">
		<path d="M363.975,41.742v3.586h-8.909v-3.586H363.975z"/>
	</g>
	<line fill="none" stroke="#000000" stroke-width="0.459" x1="354.199" y1="45.3" x2="364.699" y2="45.3"/>
	<g enable-background="new    ">
		<path d="M426.22,45.299c2.381,0.028,3.698,1.653,2.94,3.643c-0.729,2.018-3.25,3.613-5.603,3.586
			c-2.354-0.027-3.67-1.68-2.914-3.67C421.372,46.868,423.865,45.271,426.22,45.299z"/>
	</g>
	<line fill="none" stroke="#000000" stroke-width="0.459" x1="428.8" y1="47.7" x2="428.8" y2="26.1"/>
	<g enable-background="new    ">
		<path d="M441.391,45.299c2.381,0.028,3.698,1.653,2.94,3.643c-0.729,2.018-3.25,3.613-5.603,3.586
			c-2.354-0.027-3.67-1.68-2.914-3.67C436.544,46.868,439.036,45.271,441.391,45.299z"/>
	</g>
	<line fill="none" stroke="#000000" stroke-width="0.459" x1="444" y1="47.7" x2="444" y2="26.1"/>
	<path d="M428.5,24.3h15.8v3.5h-15.8V24.3z"/>
	<line fill="none" stroke="#000000" stroke-width="0.459" x1="459.199" y1="47.7" x2="459.199" y2="24.3"/>
	<g enable-background="new    ">
		<path d="M456.562,45.299c2.381,0.028,3.698,1.653,2.941,3.643c-0.729,2.018-3.25,3.613-5.604,3.586s-3.67-1.68-2.914-3.67
			C451.716,46.868,454.209,45.271,456.562,45.299z"/>
	</g>
	<g enable-background="new    ">
		<path d="M500.518,41.742v3.586h-8.909v-3.586H500.518z"/>
	</g>
	<line fill="none" stroke="#000000" stroke-width="0.459" x1="490.699" y1="45.3" x2="501.199" y2="45.3"/>
	<g enable-background="new    ">
		<path d="M561.01,45.299c2.381,0.028,3.697,1.653,2.94,3.643c-0.729,2.018-3.25,3.613-5.603,3.586
			c-2.354-0.027-3.67-1.68-2.914-3.67C556.163,46.868,558.656,45.271,561.01,45.299z"/>
	</g>
	<line fill="none" stroke="#000000" stroke-width="0.459" x1="563.6" y1="47.7" x2="563.6" y2="26.1"/>
	<g enable-background="new    ">
		<path d="M575.599,45.299c2.381,0.028,3.698,1.653,2.94,3.643c-0.729,2.018-3.25,3.613-5.603,3.586
			c-2.354-0.027-3.67-1.68-2.914-3.67C570.752,46.868,573.244,45.271,575.599,45.299z"/>
	</g>
	<line fill="none" stroke="#000000" stroke-width="0.459" x1="578.199" y1="47.7" x2="578.199" y2="26.1"/>
	<path d="M563.3,24.3h15.3v3.5h-15.3V24.3z"/>
	<line fill="none" stroke="#000000" stroke-width="0.459" x1="592.5" y1="47.7" x2="592.5" y2="24.3"/>
	<g enable-background="new    ">
		<path d="M589.894,45.299c2.381,0.028,3.698,1.653,2.94,3.643c-0.729,2.018-3.25,3.613-5.603,3.586
			c-2.354-0.027-3.67-1.68-2.914-3.67C585.047,46.868,587.541,45.271,589.894,45.299z"/>
	</g>
	<g enable-background="new    ">
		<path d="M620.43,41.742v3.586h-8.909v-3.586H620.43z"/>
	</g>
	<line fill="none" stroke="#000000" stroke-width="0.459" x1="610.6" y1="45.3" x2="621.1" y2="45.3"/>
	<g enable-background="new    ">
		<path d="M680.922,45.299c2.381,0.028,3.697,1.653,2.94,3.643c-0.729,2.018-3.25,3.613-5.603,3.586
			c-2.354-0.027-3.67-1.68-2.914-3.67C676.075,46.868,678.569,45.271,680.922,45.299z"/>
	</g>
	<line fill="none" stroke="#000000" stroke-width="0.459" x1="683.5" y1="47.7" x2="683.5" y2="26.1"/>
	<g enable-background="new    ">
		<path d="M696.968,45.299c2.381,0.028,3.698,1.653,2.94,3.643c-0.729,2.018-3.25,3.613-5.603,3.586
			c-2.354-0.027-3.67-1.68-2.914-3.67C692.12,46.868,694.614,45.271,696.968,45.299z"/>
	</g>
	<line fill="none" stroke="#000000" stroke-width="0.459" x1="699.6" y1="47.7" x2="699.6" y2="26.1"/>
	<path d="M683.199,24.3h16.7v3.5h-16.7V24.3z"/>
	<line fill="none" stroke="#000000" stroke-width="0.459" x1="715.3" y1="47.7" x2="715.3" y2="24.3"/>
	<g enable-background="new    ">
		<path d="M712.723,45.299c2.381,0.028,3.698,1.653,2.94,3.643c-0.729,2.018-3.25,3.613-5.603,3.586
			c-2.354-0.027-3.67-1.68-2.914-3.67C707.875,46.868,710.369,45.271,712.723,45.299z"/>
	</g>
	<g enable-background="new    ">
		<path d="M747.342,41.742v3.586h-8.909v-3.586H747.342z"/>
	</g>
	<line fill="none" stroke="#000000" stroke-width="0.459" x1="737.6" y1="45.3" x2="748.1" y2="45.3"/>
	<g enable-background="new    ">
		<path d="M817.755,45.299c2.381,0.028,3.697,1.653,2.94,3.643c-0.729,2.018-3.25,3.613-5.603,3.586
			c-2.354-0.027-3.67-1.68-2.914-3.67C812.907,46.868,815.401,45.271,817.755,45.299z"/>
	</g>
	<line fill="none" stroke="#000000" stroke-width="0.459" x1="820.4" y1="47.7" x2="820.4" y2="26.1"/>
	<g enable-background="new    ">
		<path d="M832.051,45.299c2.381,0.028,3.697,1.653,2.94,3.643c-0.729,2.018-3.25,3.613-5.603,3.586
			c-2.354-0.027-3.67-1.68-2.914-3.67C827.203,46.868,829.697,45.271,832.051,45.299z"/>
	</g>
	<line fill="none" stroke="#000000" stroke-width="0.459" x1="834.699" y1="47.7" x2="834.699" y2="26.1"/>
	<path d="M820,24.3h15v3.5h-15V24.3z"/>
	<line fill="none" stroke="#000000" stroke-width="0.459" x1="848.699" y1="47.7" x2="848.699" y2="24.3"/>
	<g enable-background="new    ">
		<path d="M846.056,45.299c2.381,0.028,3.698,1.653,2.94,3.643c-0.729,2.018-3.25,3.613-5.603,3.586
			c-2.354-0.027-3.67-1.68-2.914-3.67C841.209,46.868,843.701,45.271,846.056,45.299z"/>
	</g>
	<g enable-background="new    ">
		<path d="M875.13,41.742v3.586h-8.909v-3.586H875.13z"/>
	</g>
	<line fill="none" stroke="#000000" stroke-width="0.459" x1="865.3" y1="45.3" x2="875.8" y2="45.3"/>
	<g enable-background="new    ">
		<path d="M946.127,45.299c2.381,0.028,3.697,1.653,2.94,3.643c-0.729,2.018-3.25,3.613-5.603,3.586
			c-2.354-0.027-3.67-1.68-2.914-3.67C941.281,46.868,943.774,45.271,946.127,45.299z"/>
	</g>
	<line fill="none" stroke="#000000" stroke-width="0.459" x1="948.699" y1="47.7" x2="948.699" y2="26.1"/>
	<g enable-background="new    ">
		<path d="M958.381,45.299c2.381,0.028,3.697,1.653,2.94,3.643c-0.729,2.018-3.25,3.613-5.603,3.586
			c-2.354-0.027-3.67-1.68-2.914-3.67C953.533,46.868,956.027,45.271,958.381,45.299z"/>
	</g>
	<line fill="none" stroke="#000000" stroke-width="0.459" x1="961" y1="47.7" x2="961" y2="26.1"/>
	<path d="M948.4,24.3h12.9v3.5h-12.9V24.3z"/>
	<line fill="none" stroke="#000000" stroke-width="0.459" x1="973" y1="47.7" x2="973" y2="24.3"/>
	<g enable-background="new    ">
		<path d="M970.344,45.299c2.381,0.028,3.697,1.653,2.94,3.643c-0.729,2.018-3.25,3.613-5.603,3.586
			c-2.354-0.027-3.67-1.68-2.914-3.67C965.497,46.868,967.99,45.271,970.344,45.299z"/>
	</g>
	<g enable-background="new    ">
		<path d="M1003.794,41.742v3.586h-8.909v-3.586H1003.794z"/>
	</g>
	<line fill="none" stroke="#000000" stroke-width="0.459" x1="994" y1="45.3" x2="1004.5" y2="45.3"/>
	<g enable-background="new    ">
		<path d="M1056.411,45.299c2.382,0.028,3.698,1.653,2.941,3.643c-0.729,2.018-3.25,3.613-5.603,3.586
			c-2.354-0.027-3.671-1.68-2.914-3.67C1051.565,46.868,1054.058,45.271,1056.411,45.299z"/>
	</g>
	<line fill="none" stroke="#000000" stroke-width="0.459" x1="1059" y1="47.7" x2="1059" y2="26.1"/>
	<g enable-background="new    ">
		<path d="M1073.625,45.299c2.381,0.028,3.697,1.653,2.94,3.643c-0.729,2.018-3.25,3.613-5.603,3.586
			c-2.354-0.027-3.67-1.68-2.914-3.67C1068.778,46.868,1071.271,45.271,1073.625,45.299z"/>
	</g>
	<line fill="none" stroke="#000000" stroke-width="0.459" x1="1076.199" y1="47.7" x2="1076.199" y2="26.1"/>
	<path d="M1058.699,24.3h17.899v3.5h-17.899V24.3z"/>
	<line fill="none" stroke="#000000" stroke-width="0.459" x1="1093.5" y1="47.7" x2="1093.5" y2="24.3"/>
	<g enable-background="new    ">
		<path d="M1090.838,45.299c2.381,0.028,3.697,1.653,2.94,3.643c-0.729,2.018-3.25,3.613-5.603,3.586
			c-2.354-0.027-3.67-1.68-2.914-3.67C1085.99,46.868,1088.484,45.271,1090.838,45.299z"/>
	</g>
	<g enable-background="new    ">
		<path d="M1131.584,41.742v3.586h-8.909v-3.586H1131.584z"/>
	</g>
	<line fill="none" stroke="#000000" stroke-width="0.459" x1="1121.8" y1="45.3" x2="1132.3" y2="45.3"/>
	<g enable-background="new    ">
		<path d="M1194.702,45.299c2.382,0.028,3.698,1.653,2.941,3.643c-0.729,2.018-3.25,3.613-5.603,3.586
			c-2.354-0.027-3.671-1.68-2.914-3.67C1189.856,46.868,1192.35,45.271,1194.702,45.299z"/>
	</g>
	<line fill="none" stroke="#000000" stroke-width="0.459" x1="1197.3" y1="47.7" x2="1197.3" y2="26.1"/>
	<g enable-background="new    ">
		<path d="M1210.166,45.299c2.382,0.028,3.698,1.653,2.941,3.643c-0.729,2.018-3.25,3.613-5.603,3.586
			c-2.354-0.027-3.671-1.68-2.914-3.67C1205.32,46.868,1207.813,45.271,1210.166,45.299z"/>
	</g>
	<line fill="none" stroke="#000000" stroke-width="0.459" x1="1212.8" y1="47.7" x2="1212.8" y2="26.1"/>
	<path d="M1197,24.3h16.1v3.5H1197V24.3z"/>
	<line fill="none" stroke="#000000" stroke-width="0.459" x1="1228" y1="47.7" x2="1228" y2="24.3"/>
	<g enable-background="new    ">
		<path d="M1225.336,45.299c2.381,0.028,3.697,1.653,2.94,3.643c-0.729,2.018-3.25,3.613-5.603,3.586
			c-2.354-0.027-3.67-1.68-2.914-3.67C1220.49,46.868,1222.983,45.271,1225.336,45.299z"/>
	</g>
	<g enable-background="new    ">
		<path d="M1258.498,41.742v3.586h-8.909v-3.586H1258.498z"/>
	</g>
	<line fill="none" stroke="#000000" stroke-width="0.459" x1="1248.699" y1="45.3" x2="1259.199" y2="45.3"/>
	<g enable-background="new    ">
		<path d="M1322.2,45.299c2.382,0.028,3.698,1.653,2.941,3.643c-0.729,2.018-3.25,3.613-5.603,3.586
			c-2.354-0.027-3.671-1.68-2.914-3.67C1317.354,46.868,1319.847,45.271,1322.2,45.299z"/>
	</g>
	<line fill="none" stroke="#000000" stroke-width="0.459" x1="1324.8" y1="47.7" x2="1324.8" y2="26.1"/>
	<g enable-background="new    ">
		<path d="M1337.955,45.299c2.382,0.028,3.698,1.653,2.941,3.643c-0.729,2.018-3.25,3.613-5.603,3.586
			c-2.354-0.027-3.671-1.68-2.914-3.67C1333.109,46.868,1335.602,45.271,1337.955,45.299z"/>
	</g>
	<line fill="none" stroke="#000000" stroke-width="0.459" x1="1340.6" y1="47.7" x2="1340.6" y2="26.1"/>
	<path d="M1324.5,24.3h16.4v3.5h-16.4V24.3z"/>
	<line fill="none" stroke="#000000" stroke-width="0.459" x1="1356.299" y1="47.7" x2="1356.299" y2="24.3"/>
	<g enable-background="new    ">
		<path d="M1353.709,45.299c2.382,0.028,3.698,1.653,2.941,3.643c-0.729,2.018-3.25,3.613-5.603,3.586
			c-2.354-0.027-3.671-1.68-2.914-3.67C1348.863,46.868,1351.356,45.271,1353.709,45.299z"/>
	</g>
	<g enable-background="new    ">
		<path d="M1386.286,41.742v3.586h-8.909v-3.586H1386.286z"/>
	</g>
	<line fill="none" stroke="#000000" stroke-width="0.459" x1="1376.5" y1="45.3" x2="1387" y2="45.3"/>
	<g enable-background="new    ">
		<path d="M1439.485,45.299c2.381,0.028,3.698,1.653,2.941,3.643c-0.729,2.018-3.25,3.613-5.604,3.586s-3.67-1.68-2.914-3.67
			C1434.638,46.868,1437.131,45.271,1439.485,45.299z"/>
	</g>
	<line fill="none" stroke="#000000" stroke-width="0.459" x1="1442.1" y1="47.7" x2="1442.1" y2="26.1"/>
	<g enable-background="new    ">
		<path d="M1456.699,45.299c2.381,0.028,3.698,1.653,2.941,3.643c-0.729,2.018-3.25,3.613-5.604,3.586s-3.67-1.68-2.914-3.67
			C1451.853,46.868,1454.346,45.271,1456.699,45.299z"/>
	</g>
	<line fill="none" stroke="#000000" stroke-width="0.459" x1="1459.299" y1="47.7" x2="1459.299" y2="26.1"/>
	<path d="M1441.799,24.3h17.899v3.5h-17.899V24.3z"/>
	<line fill="none" stroke="#000000" stroke-width="0.459" x1="1476.799" y1="47.7" x2="1476.799" y2="24.3"/>
	<g enable-background="new    ">
		<path d="M1474.204,45.299c2.382,0.028,3.698,1.653,2.941,3.643c-0.729,2.018-3.25,3.613-5.603,3.586
			c-2.354-0.027-3.671-1.68-2.914-3.67C1469.358,46.868,1471.852,45.271,1474.204,45.299z"/>
	</g>
	<g enable-background="new    ">
		<path d="M1514.075,41.742v3.586h-8.909v-3.586H1514.075z"/>
	</g>
	<line fill="none" stroke="#000000" stroke-width="0.459" x1="1504.299" y1="45.3" x2="1514.799" y2="45.3"/>
	<g enable-background="new    ">
		<path d="M1567.275,45.299c2.381,0.028,3.698,1.653,2.941,3.643c-0.729,2.018-3.25,3.613-5.604,3.586s-3.67-1.68-2.914-3.67
			C1562.428,46.868,1564.921,45.271,1567.275,45.299z"/>
	</g>
	<line fill="none" stroke="#000000" stroke-width="0.459" x1="1569.901" y1="47.7" x2="1569.901" y2="26.1"/>
	<g enable-background="new    ">
		<path d="M1584.49,45.299c2.381,0.028,3.698,1.653,2.941,3.643c-0.729,2.018-3.25,3.613-5.604,3.586s-3.67-1.68-2.913-3.67
			C1579.644,46.868,1582.137,45.271,1584.49,45.299z"/>
	</g>
	<line fill="none" stroke="#000000" stroke-width="0.459" x1="1587.1" y1="47.7" x2="1587.1" y2="26.1"/>
	<path d="M1569.6,24.3h17.9v3.5h-17.9V24.3z"/>
	<line fill="none" stroke="#000000" stroke-width="0.459" x1="1604.6" y1="47.7" x2="1604.6" y2="24.3"/>
	<g enable-background="new    ">
		<path d="M1601.993,45.299c2.382,0.028,3.698,1.653,2.941,3.643c-0.729,2.018-3.25,3.613-5.603,3.586
			c-2.354-0.027-3.671-1.68-2.914-3.67C1597.147,46.868,1599.641,45.271,1601.993,45.299z"/>
	</g>
	<g enable-background="new    ">
		<path d="M1642.739,41.742v3.586h-8.909v-3.586H1642.739z"/>
	</g>
	<line fill="none" stroke="#000000" stroke-width="0.459" x1="1633" y1="45.3" x2="1643.5" y2="45.3"/>
	<g enable-background="new    ">
		<path d="M1705.858,45.299c2.381,0.028,3.698,1.653,2.941,3.643c-0.729,2.018-3.25,3.613-5.604,3.586s-3.67-1.68-2.914-3.67
			C1701.011,46.868,1703.504,45.271,1705.858,45.299z"/>
	</g>
	<line fill="none" stroke="#000000" stroke-width="0.459" x1="1708.5" y1="47.7" x2="1708.5" y2="26.1"/>
	<g enable-background="new    ">
		<path d="M1721.323,45.299c2.381,0.028,3.698,1.653,2.941,3.643c-0.729,2.018-3.25,3.613-5.604,3.586s-3.67-1.68-2.914-3.67
			C1716.476,46.868,1718.969,45.271,1721.323,45.299z"/>
	</g>
	<line fill="none" stroke="#000000" stroke-width="0.459" x1="1723.901" y1="47.7" x2="1723.901" y2="26.1"/>
	<path d="M1708.1,24.3h16.1v3.5h-16.1V24.3z"/>
	<line fill="none" stroke="#000000" stroke-width="0.459" x1="1739.1" y1="47.7" x2="1739.1" y2="24.3"/>
	<g enable-background="new    ">
		<path d="M1736.491,45.299c2.381,0.028,3.698,1.653,2.941,3.643c-0.729,2.018-3.25,3.613-5.604,3.586s-3.67-1.68-2.913-3.67
			C1731.646,46.868,1734.139,45.271,1736.491,45.299z"/>
	</g>
	<g enable-background="new    ">
		<path d="M1769.652,41.742v3.586h-8.909v-3.586H1769.652z"/>
	</g>
	<line fill="none" stroke="#000000" stroke-width="0.459" x1="1759.901" y1="45.3" x2="1770.401" y2="45.3"/>
	<g enable-background="new    ">
		<path d="M1833.355,45.299c2.381,0.028,3.698,1.653,2.941,3.643c-0.729,2.018-3.25,3.613-5.604,3.586s-3.67-1.68-2.914-3.67
			C1828.509,46.868,1831.002,45.271,1833.355,45.299z"/>
	</g>
	<line fill="none" stroke="#000000" stroke-width="0.459" x1="1836" y1="47.7" x2="1836" y2="26.1"/>
	<g enable-background="new    ">
		<path d="M1849.11,45.299c2.381,0.028,3.698,1.653,2.941,3.643c-0.729,2.018-3.25,3.613-5.604,3.586s-3.67-1.68-2.914-3.67
			C1844.264,46.868,1846.757,45.271,1849.11,45.299z"/>
	</g>
	<line fill="none" stroke="#000000" stroke-width="0.459" x1="1851.699" y1="47.7" x2="1851.699" y2="26.1"/>
	<path d="M1835.6,24.3h16.4v3.5h-16.4V24.3z"/>
	<line fill="none" stroke="#000000" stroke-width="0.459" x1="1867.5" y1="47.7" x2="1867.5" y2="24.3"/>
	<g enable-background="new    ">
		<path d="M1864.864,45.299c2.381,0.028,3.698,1.653,2.941,3.643c-0.729,2.018-3.25,3.613-5.604,3.586s-3.67-1.68-2.914-3.67
			C1860.018,46.868,1862.511,45.271,1864.864,45.299z"/>
	</g>
	<g enable-background="new    ">
		<path d="M1897.441,41.742v3.586h-8.909v-3.586H1897.441z"/>
	</g>
	<line fill="none" stroke="#000000" stroke-width="0.459" x1="1887.699" y1="45.3" x2="1898.199" y2="45.3"/>
	<g enable-background="new    ">
		<path d="M1950.642,45.299c2.381,0.028,3.698,1.653,2.94,3.643c-0.729,2.018-3.25,3.613-5.603,3.586
			c-2.354-0.027-3.67-1.68-2.914-3.67C1945.795,46.868,1948.287,45.271,1950.642,45.299z"/>
	</g>
	<line fill="none" stroke="#000000" stroke-width="0.459" x1="1953.299" y1="47.7" x2="1953.299" y2="26.1"/>
	<g enable-background="new    ">
		<path d="M1967.854,45.299c2.381,0.028,3.698,1.653,2.941,3.643c-0.729,2.018-3.25,3.613-5.604,3.586s-3.67-1.68-2.914-3.67
			C1963.008,46.868,1965.5,45.271,1967.854,45.299z"/>
	</g>
	<line fill="none" stroke="#000000" stroke-width="0.459" x1="1970.5" y1="47.7" x2="1970.5" y2="26.1"/>
	<path d="M1952.901,24.3h17.898v3.5h-17.898V24.3z"/>
	<line fill="none" stroke="#000000" stroke-width="0.459" x1="1988" y1="47.7" x2="1988" y2="24.3"/>
	<g enable-background="new    ">
		<path d="M1985.36,45.299c2.381,0.028,3.698,1.653,2.941,3.643c-0.729,2.018-3.25,3.613-5.604,3.586s-3.67-1.68-2.914-3.67
			C1980.514,46.868,1983.007,45.271,1985.36,45.299z"/>
	</g>
	<line fill="none" stroke="#000000" stroke-width="0.459" x1="2023.901" y1="47.7" x2="2023.901" y2="24.3"/>
	<g enable-background="new    ">
		<path d="M2021.246,45.299c2.381,0.028,3.698,1.653,2.941,3.643c-0.729,2.018-3.25,3.613-5.604,3.586s-3.67-1.68-2.913-3.67
			C2016.4,46.868,2018.894,45.271,2021.246,45.299z"/>
	</g>
	<line fill="none" stroke="#000000" stroke-width="0.459" x1="2057.1" y1="47.7" x2="2057.1" y2="24.3"/>
	<g enable-background="new    ">
		<path d="M2054.506,45.299c2.381,0.028,3.697,1.653,2.94,3.643c-0.729,2.018-3.25,3.613-5.603,3.586
			c-2.354-0.027-3.67-1.68-2.914-3.67C2049.658,46.868,2052.152,45.271,2054.506,45.299z"/>
	</g>
	<line fill="none" stroke="#000000" stroke-width="0.459" x1="2090.1" y1="47.7" x2="2090.1" y2="24.3"/>
	<g enable-background="new    ">
		<path d="M2090.556,49.025c-0.532,1.429-1.737,2.576-2.605,2.996c-0.868,0.449-2.017,0.646-3.278,0.533
			c-0.756-0.057-2.129-0.309-2.688-1.205c-0.56-0.953-0.168-2.072,0.028-2.634c0.533-1.399,1.652-2.353,2.494-2.856
			c0.84-0.478,2.129-0.841,3.697-0.672c0.588,0.084,1.905,0.195,2.438,1.148C2091.088,47.12,2090.752,48.493,2090.556,49.025z
			 M2087.25,46.756c-0.646,0.309-1.094,0.589-1.653,0.896c-0.561,0.309-1.064,0.615-1.653,1.009
			c-0.813,0.504-1.877,1.429-1.345,2.354c0.561,0.924,1.877,0.476,2.746,0.026c0.645-0.308,1.147-0.588,1.709-0.896
			c0.561-0.309,1.037-0.588,1.625-0.98c0.784-0.504,1.849-1.43,1.315-2.354C2089.436,45.889,2088.118,46.336,2087.25,46.756z"/>
	</g>
	<g enable-background="new    ">
		<path d="M2153.896,41.742v3.586h-8.909v-3.586H2153.896z"/>
	</g>
	<line fill="none" stroke="#000000" stroke-width="0.459" x1="2144.1" y1="45.3" x2="2154.6" y2="45.3"/>
	<g enable-background="new    ">
		<path d="M2222.558,45.299c2.381,0.028,3.698,1.653,2.94,3.643c-0.729,2.018-3.25,3.613-5.603,3.586
			c-2.354-0.027-3.67-1.68-2.914-3.67C2217.711,46.868,2220.203,45.271,2222.558,45.299z"/>
	</g>
	<line fill="none" stroke="#000000" stroke-width="0.459" x1="2225.199" y1="47.7" x2="2225.199" y2="26.1"/>
	<g enable-background="new    ">
		<path d="M2235.978,45.299c2.381,0.028,3.698,1.653,2.94,3.643c-0.729,2.018-3.25,3.613-5.603,3.586
			c-2.354-0.027-3.67-1.68-2.914-3.67C2231.131,46.868,2233.623,45.271,2235.978,45.299z"/>
	</g>
	<line fill="none" stroke="#000000" stroke-width="0.459" x1="2238.6" y1="47.7" x2="2238.6" y2="26.1"/>
	<path d="M2224.799,24.3h14.102v3.5h-14.102V24.3z"/>
	<line fill="none" stroke="#000000" stroke-width="0.459" x1="2251.401" y1="47.7" x2="2251.401" y2="24.3"/>
	<g enable-background="new    ">
		<path d="M2248.815,45.299c2.381,0.028,3.698,1.653,2.941,3.643c-0.729,2.018-3.25,3.613-5.604,3.586s-3.67-1.68-2.914-3.67
			C2243.969,46.868,2246.461,45.271,2248.815,45.299z"/>
	</g>
	<g enable-background="new    ">
		<path d="M2275.558,41.742v3.586h-8.909v-3.586H2275.558z"/>
	</g>
	<line fill="none" stroke="#000000" stroke-width="0.459" x1="2265.799" y1="45.3" x2="2276.299" y2="45.3"/>
	<g enable-background="new    ">
		<path d="M2347.138,45.299c2.381,0.028,3.698,1.653,2.94,3.643c-0.729,2.018-3.25,3.613-5.603,3.586
			c-2.354-0.027-3.67-1.68-2.914-3.67C2342.291,46.868,2344.783,45.271,2347.138,45.299z"/>
	</g>
	<line fill="none" stroke="#000000" stroke-width="0.459" x1="2349.799" y1="47.7" x2="2349.799" y2="26.1"/>
	<g enable-background="new    ">
		<path d="M2362.309,45.299c2.381,0.028,3.698,1.653,2.941,3.643c-0.729,2.018-3.25,3.613-5.604,3.586s-3.67-1.68-2.914-3.67
			C2357.461,46.868,2359.955,45.271,2362.309,45.299z"/>
	</g>
	<line fill="none" stroke="#000000" stroke-width="0.459" x1="2364.901" y1="47.7" x2="2364.901" y2="26.1"/>
	<path d="M2349.401,24.3h15.799v3.5h-15.799V24.3z"/>
	<line fill="none" stroke="#000000" stroke-width="0.459" x1="2380.1" y1="47.7" x2="2380.1" y2="24.3"/>
	<g enable-background="new    ">
		<path d="M2377.479,45.299c2.381,0.028,3.698,1.653,2.941,3.643c-0.729,2.018-3.25,3.613-5.604,3.586s-3.67-1.68-2.914-3.67
			C2372.632,46.868,2375.125,45.271,2377.479,45.299z"/>
	</g>
	<g enable-background="new    ">
		<path d="M2408.598,41.742v3.586h-8.909v-3.586H2408.598z"/>
	</g>
	<line fill="none" stroke="#000000" stroke-width="0.459" x1="2398.799" y1="45.3" x2="2409.299" y2="45.3"/>
	<g enable-background="new    ">
		<path d="M2471.133,45.299c2.381,0.028,3.697,1.653,2.94,3.643c-0.729,2.018-3.25,3.613-5.603,3.586
			c-2.354-0.027-3.67-1.68-2.914-3.67C2466.285,46.868,2468.779,45.271,2471.133,45.299z"/>
	</g>
	<line fill="none" stroke="#000000" stroke-width="0.459" x1="2473.799" y1="47.7" x2="2473.799" y2="26.1"/>
	<g enable-background="new    ">
		<path d="M2486.304,45.299c2.381,0.028,3.698,1.653,2.94,3.643c-0.729,2.018-3.25,3.613-5.603,3.586
			c-2.354-0.027-3.67-1.68-2.914-3.67C2481.457,46.868,2483.949,45.271,2486.304,45.299z"/>
	</g>
	<line fill="none" stroke="#000000" stroke-width="0.459" x1="2488.901" y1="47.7" x2="2488.901" y2="26.1"/>
	<path d="M2473.401,24.3h15.799v3.5h-15.799V24.3z"/>
	<line fill="none" stroke="#000000" stroke-width="0.459" x1="2504.1" y1="47.7" x2="2504.1" y2="24.3"/>
	<g enable-background="new    ">
		<path d="M2501.476,45.299c2.381,0.028,3.698,1.653,2.94,3.643c-0.729,2.018-3.25,3.613-5.603,3.586
			c-2.354-0.027-3.67-1.68-2.914-3.67C2496.629,46.868,2499.121,45.271,2501.476,45.299z"/>
	</g>
	<g enable-background="new    ">
		<path d="M2541.637,41.742v3.586h-8.909v-3.586H2541.637z"/>
	</g>
	<line fill="none" stroke="#000000" stroke-width="0.459" x1="2531.901" y1="45.3" x2="2542.401" y2="45.3"/>
	<g enable-background="new    ">
		<path d="M2603.298,45.299c2.381,0.028,3.698,1.653,2.94,3.643c-0.729,2.018-3.25,3.613-5.603,3.586
			c-2.354-0.027-3.67-1.68-2.914-3.67C2598.45,46.868,2600.944,45.271,2603.298,45.299z"/>
	</g>
	<line fill="none" stroke="#000000" stroke-width="0.459" x1="2605.901" y1="47.7" x2="2605.901" y2="26.1"/>
	<g enable-background="new    ">
		<path d="M2618.469,45.299c2.381,0.028,3.697,1.653,2.94,3.643c-0.729,2.018-3.25,3.613-5.603,3.586
			c-2.354-0.027-3.67-1.68-2.914-3.67C2613.621,46.868,2616.115,45.271,2618.469,45.299z"/>
	</g>
	<line fill="none" stroke="#000000" stroke-width="0.459" x1="2621.1" y1="47.7" x2="2621.1" y2="26.1"/>
	<path d="M2605.6,24.3h15.801v3.5H2605.6V24.3z"/>
	<line fill="none" stroke="#000000" stroke-width="0.459" x1="2636" y1="47.7" x2="2636" y2="24.3"/>
	<g enable-background="new    ">
		<path d="M2633.348,45.299c2.381,0.028,3.697,1.653,2.94,3.643c-0.729,2.018-3.25,3.613-5.604,3.586
			c-2.354-0.027-3.67-1.68-2.914-3.67C2628.5,46.868,2630.994,45.271,2633.348,45.299z"/>
	</g>
	<g enable-background="new    ">
		<path d="M2665.049,41.742v3.586h-8.909v-3.586H2665.049z"/>
	</g>
	<line fill="none" stroke="#000000" stroke-width="0.459" x1="2655.299" y1="45.3" x2="2665.799" y2="45.3"/>
	<g enable-background="new    ">
		<path d="M2725.543,45.299c2.382,0.028,3.697,1.653,2.94,3.643c-0.729,2.018-3.249,3.613-5.603,3.586
			c-2.354-0.027-3.67-1.68-2.914-3.67C2720.698,46.868,2723.19,45.271,2725.543,45.299z"/>
	</g>
	<line fill="none" stroke="#000000" stroke-width="0.459" x1="2728.199" y1="47.7" x2="2728.199" y2="26.1"/>
	<g enable-background="new    ">
		<path d="M2741.59,45.299c2.382,0.028,3.697,1.653,2.94,3.643c-0.729,2.018-3.249,3.613-5.603,3.586
			c-2.354-0.027-3.67-1.68-2.913-3.67C2736.744,46.868,2739.237,45.271,2741.59,45.299z"/>
	</g>
	<line fill="none" stroke="#000000" stroke-width="0.459" x1="2744.199" y1="47.7" x2="2744.199" y2="26.1"/>
	<path d="M2727.799,24.3h16.701v3.5h-16.701V24.3z"/>
	<line fill="none" stroke="#000000" stroke-width="0.459" x1="2760" y1="47.7" x2="2760" y2="24.3"/>
	<g enable-background="new    ">
		<path d="M2757.344,45.299c2.382,0.028,3.697,1.653,2.94,3.643c-0.729,2.018-3.249,3.613-5.603,3.586
			c-2.354-0.027-3.67-1.68-2.913-3.67C2752.498,46.868,2754.99,45.271,2757.344,45.299z"/>
	</g>
	<g enable-background="new    ">
		<path d="M2791.961,41.742v3.586h-8.908v-3.586H2791.961z"/>
	</g>
	<line fill="none" stroke="#000000" stroke-width="0.459" x1="2782.199" y1="45.3" x2="2792.699" y2="45.3"/>
	<g enable-background="new    ">
		<path d="M2862.375,45.299c2.382,0.028,3.697,1.653,2.94,3.643c-0.729,2.018-3.249,3.613-5.603,3.586
			c-2.354-0.027-3.67-1.68-2.914-3.67C2857.53,46.868,2860.022,45.271,2862.375,45.299z"/>
	</g>
	<line fill="none" stroke="#000000" stroke-width="0.459" x1="2865" y1="47.7" x2="2865" y2="26.1"/>
	<g enable-background="new    ">
		<path d="M2876.67,45.299c2.382,0.028,3.697,1.653,2.94,3.643c-0.729,2.018-3.249,3.613-5.603,3.586
			c-2.354-0.027-3.67-1.68-2.914-3.67C2871.824,46.868,2874.317,45.271,2876.67,45.299z"/>
	</g>
	<line fill="none" stroke="#000000" stroke-width="0.459" x1="2879.299" y1="47.7" x2="2879.299" y2="26.1"/>
	<path d="M2864.699,24.3h15v3.5h-15V24.3z"/>
	<line fill="none" stroke="#000000" stroke-width="0.459" x1="2893.299" y1="47.7" x2="2893.299" y2="24.3"/>
	<g enable-background="new    ">
		<path d="M2890.678,45.299c2.381,0.028,3.697,1.653,2.94,3.643c-0.729,2.018-3.25,3.613-5.604,3.586
			c-2.354-0.027-3.67-1.68-2.914-3.67C2885.83,46.868,2888.324,45.271,2890.678,45.299z"/>
	</g>
	<g enable-background="new    ">
		<path d="M2919.752,41.742v3.586h-8.908v-3.586H2919.752z"/>
	</g>
	<line fill="none" stroke="#000000" stroke-width="0.459" x1="2910" y1="45.3" x2="2920.5" y2="45.3"/>
	<g enable-background="new    ">
		<path d="M2990.748,45.299c2.382,0.028,3.697,1.653,2.941,3.643c-0.729,2.018-3.25,3.613-5.604,3.586
			c-2.354-0.027-3.67-1.68-2.914-3.67C2985.901,46.868,2988.395,45.271,2990.748,45.299z"/>
	</g>
	<line fill="none" stroke="#000000" stroke-width="0.459" x1="2993.401" y1="47.7" x2="2993.401" y2="26.1"/>
	<g enable-background="new    ">
		<path d="M3003,45.299c2.382,0.028,3.697,1.653,2.94,3.643c-0.729,2.018-3.249,3.613-5.603,3.586
			c-2.354-0.027-3.67-1.68-2.914-3.67C2998.155,46.868,3000.647,45.271,3003,45.299z"/>
	</g>
	<line fill="none" stroke="#000000" stroke-width="0.459" x1="3005.6" y1="47.7" x2="3005.6" y2="26.1"/>
	<path d="M2993,24.3h12.899v3.5H2993V24.3z"/>
	<line fill="none" stroke="#000000" stroke-width="0.459" x1="3017.6" y1="47.7" x2="3017.6" y2="24.3"/>
	<g enable-background="new    ">
		<path d="M3014.963,45.299c2.382,0.028,3.697,1.653,2.94,3.643c-0.729,2.018-3.249,3.613-5.603,3.586
			c-2.354-0.027-3.67-1.68-2.914-3.67C3010.117,46.868,3012.61,45.271,3014.963,45.299z"/>
	</g>
	<g enable-background="new    ">
		<path d="M3048.418,41.742v3.586h-8.909v-3.586H3048.418z"/>
	</g>
	<line fill="none" stroke="#000000" stroke-width="0.459" x1="3038.6" y1="45.3" x2="3049.1" y2="45.3"/>
	<g enable-background="new    ">
		<path d="M3101.031,45.299c2.383,0.028,3.698,1.653,2.941,3.643c-0.729,2.018-3.249,3.613-5.604,3.586
			c-2.354-0.027-3.67-1.68-2.913-3.67C3096.186,46.868,3098.678,45.271,3101.031,45.299z"/>
	</g>
	<line fill="none" stroke="#000000" stroke-width="0.459" x1="3103.6" y1="47.7" x2="3103.6" y2="26.1"/>
	<g enable-background="new    ">
		<path d="M3118.244,45.299c2.383,0.028,3.698,1.653,2.941,3.643c-0.729,2.018-3.249,3.613-5.604,3.586
			c-2.354-0.027-3.67-1.68-2.912-3.67C3113.399,46.868,3115.891,45.271,3118.244,45.299z"/>
	</g>
	<line fill="none" stroke="#000000" stroke-width="0.459" x1="3120.901" y1="47.7" x2="3120.901" y2="26.1"/>
	<path d="M3103.299,24.3h17.899v3.5h-17.899V24.3z"/>
	<line fill="none" stroke="#000000" stroke-width="0.459" x1="3138.1" y1="47.7" x2="3138.1" y2="24.3"/>
	<g enable-background="new    ">
		<path d="M3135.457,45.299c2.383,0.028,3.698,1.653,2.941,3.643c-0.729,2.018-3.249,3.613-5.604,3.586
			c-2.354-0.027-3.67-1.68-2.912-3.67C3130.612,46.868,3133.104,45.271,3135.457,45.299z"/>
	</g>
	<g enable-background="new    ">
		<path d="M3176.205,41.742v3.586h-8.908v-3.586H3176.205z"/>
	</g>
	<line fill="none" stroke="#000000" stroke-width="0.459" x1="3166.401" y1="45.3" x2="3176.901" y2="45.3"/>
	<g enable-background="new    ">
		<path d="M3239.324,45.299c2.383,0.028,3.698,1.653,2.941,3.643c-0.729,2.018-3.249,3.613-5.604,3.586
			c-2.354-0.027-3.67-1.68-2.913-3.67C3234.479,46.868,3236.971,45.271,3239.324,45.299z"/>
	</g>
	<line fill="none" stroke="#000000" stroke-width="0.459" x1="3241.901" y1="47.7" x2="3241.901" y2="26.1"/>
	<g enable-background="new    ">
		<path d="M3254.785,45.299c2.383,0.028,3.698,1.653,2.941,3.643c-0.729,2.018-3.249,3.613-5.604,3.586
			c-2.354-0.027-3.67-1.68-2.913-3.67C3249.94,46.868,3252.432,45.271,3254.785,45.299z"/>
	</g>
	<line fill="none" stroke="#000000" stroke-width="0.459" x1="3257.401" y1="47.7" x2="3257.401" y2="26.1"/>
	<path d="M3241.6,24.3h16.1v3.5h-16.1V24.3z"/>
	<line fill="none" stroke="#000000" stroke-width="0.459" x1="3272.6" y1="47.7" x2="3272.6" y2="24.3"/>
	<g enable-background="new    ">
		<path d="M3269.959,45.299c2.382,0.028,3.697,1.653,2.94,3.643c-0.729,2.018-3.249,3.613-5.603,3.586
			c-2.354-0.027-3.67-1.68-2.914-3.67C3265.114,46.868,3267.606,45.271,3269.959,45.299z"/>
	</g>
	<g enable-background="new    ">
		<path d="M3303.119,41.742v3.586h-8.908v-3.586H3303.119z"/>
	</g>
	<line fill="none" stroke="#000000" stroke-width="0.459" x1="3293.299" y1="45.3" x2="3303.799" y2="45.3"/>
	<g enable-background="new    ">
		<path d="M3366.823,45.299c2.381,0.028,3.697,1.653,2.941,3.643c-0.729,2.018-3.25,3.613-5.604,3.586
			c-2.354-0.027-3.67-1.68-2.914-3.67C3361.975,46.868,3364.469,45.271,3366.823,45.299z"/>
	</g>
	<line fill="none" stroke="#000000" stroke-width="0.459" x1="3369.401" y1="47.7" x2="3369.401" y2="26.1"/>
	<g enable-background="new    ">
		<path d="M3382.576,45.299c2.381,0.028,3.697,1.653,2.941,3.643c-0.729,2.018-3.25,3.613-5.604,3.586
			c-2.354-0.027-3.67-1.68-2.914-3.67C3377.729,46.868,3380.223,45.271,3382.576,45.299z"/>
	</g>
	<line fill="none" stroke="#000000" stroke-width="0.459" x1="3385.199" y1="47.7" x2="3385.199" y2="26.1"/>
	<path d="M3369.1,24.3h16.4v3.5h-16.4V24.3z"/>
	<line fill="none" stroke="#000000" stroke-width="0.459" x1="3401" y1="47.7" x2="3401" y2="24.3"/>
	<g enable-background="new    ">
		<path d="M3398.33,45.299c2.383,0.028,3.698,1.653,2.941,3.643c-0.729,2.018-3.249,3.613-5.604,3.586
			c-2.354-0.027-3.67-1.68-2.912-3.67C3393.485,46.868,3395.977,45.271,3398.33,45.299z"/>
	</g>
	<g enable-background="new    ">
		<path d="M3430.906,41.742v3.586h-8.908v-3.586H3430.906z"/>
	</g>
	<line fill="none" stroke="#000000" stroke-width="0.459" x1="3421.1" y1="45.3" x2="3431.6" y2="45.3"/>
	<g enable-background="new    ">
		<path d="M3484.108,45.299c2.381,0.028,3.697,1.653,2.941,3.643c-0.729,2.018-3.25,3.613-5.604,3.586s-3.67-1.68-2.914-3.67
			C3479.26,46.868,3481.754,45.271,3484.108,45.299z"/>
	</g>
	<line fill="none" stroke="#000000" stroke-width="0.459" x1="3486.699" y1="47.7" x2="3486.699" y2="26.1"/>
	<g enable-background="new    ">
		<path d="M3501.321,45.299c2.381,0.028,3.697,1.653,2.941,3.643c-0.729,2.018-3.25,3.613-5.604,3.586
			c-2.354-0.027-3.67-1.68-2.914-3.67C3496.473,46.868,3498.967,45.271,3501.321,45.299z"/>
	</g>
	<line fill="none" stroke="#000000" stroke-width="0.459" x1="3503.901" y1="47.7" x2="3503.901" y2="26.1"/>
	<path d="M3486.401,24.3h17.898v3.5h-17.898V24.3z"/>
	<line fill="none" stroke="#000000" stroke-width="0.459" x1="3521.401" y1="47.7" x2="3521.401" y2="24.3"/>
	<g enable-background="new    ">
		<path d="M3518.824,45.299c2.383,0.028,3.698,1.653,2.941,3.643c-0.729,2.018-3.249,3.613-5.604,3.586
			c-2.354-0.027-3.67-1.68-2.913-3.67C3513.979,46.868,3516.471,45.271,3518.824,45.299z"/>
	</g>
	<g enable-background="new    ">
		<path d="M3558.698,41.742v3.586h-8.908v-3.586H3558.698z"/>
	</g>
	<line fill="none" stroke="#000000" stroke-width="0.459" x1="3548.901" y1="45.3" x2="3559.401" y2="45.3"/>
	<g enable-background="new    ">
		<path d="M3611.895,45.299c2.382,0.028,3.698,1.653,2.941,3.643c-0.729,2.018-3.25,3.613-5.604,3.586s-3.67-1.68-2.913-3.67
			C3607.049,46.868,3609.541,45.271,3611.895,45.299z"/>
	</g>
	<line fill="none" stroke="#000000" stroke-width="0.459" x1="3614.5" y1="47.7" x2="3614.5" y2="26.1"/>
	<g enable-background="new    ">
		<path d="M3629.108,45.299c2.382,0.028,3.698,1.653,2.941,3.643c-0.729,2.018-3.25,3.613-5.604,3.586s-3.67-1.68-2.913-3.67
			C3624.262,46.868,3626.754,45.271,3629.108,45.299z"/>
	</g>
	<line fill="none" stroke="#000000" stroke-width="0.459" x1="3631.699" y1="47.7" x2="3631.699" y2="26.1"/>
	<path d="M3614.199,24.3h17.9v3.5h-17.9V24.3z"/>
	<line fill="none" stroke="#000000" stroke-width="0.459" x1="3649.199" y1="47.7" x2="3649.199" y2="24.3"/>
	<g enable-background="new    ">
		<path d="M3646.614,45.299c2.383,0.028,3.698,1.653,2.941,3.643c-0.729,2.018-3.249,3.613-5.604,3.586
			c-2.354-0.027-3.67-1.68-2.913-3.67C3641.768,46.868,3644.26,45.271,3646.614,45.299z"/>
	</g>
	<g enable-background="new    ">
		<path d="M3687.362,41.742v3.586h-8.908v-3.586H3687.362z"/>
	</g>
	<line fill="none" stroke="#000000" stroke-width="0.459" x1="3677.6" y1="45.3" x2="3688.1" y2="45.3"/>
	<g enable-background="new    ">
		<path d="M3750.481,45.299c2.381,0.028,3.697,1.653,2.941,3.643c-0.729,2.018-3.25,3.613-5.604,3.586s-3.67-1.68-2.914-3.67
			C3745.633,46.868,3748.127,45.271,3750.481,45.299z"/>
	</g>
	<line fill="none" stroke="#000000" stroke-width="0.459" x1="3753.1" y1="47.7" x2="3753.1" y2="26.1"/>
	<g enable-background="new    ">
		<path d="M3765.942,45.299c2.382,0.028,3.698,1.653,2.941,3.643c-0.729,2.018-3.25,3.613-5.604,3.586s-3.67-1.68-2.913-3.67
			C3761.096,46.868,3763.588,45.271,3765.942,45.299z"/>
	</g>
	<line fill="none" stroke="#000000" stroke-width="0.459" x1="3768.6" y1="47.7" x2="3768.6" y2="26.1"/>
	<path d="M3752.799,24.3h16.102v3.5h-16.102V24.3z"/>
	<line fill="none" stroke="#000000" stroke-width="0.459" x1="3783.699" y1="47.7" x2="3783.699" y2="24.3"/>
	<g enable-background="new    ">
		<path d="M3781.114,45.299c2.381,0.028,3.697,1.653,2.941,3.643c-0.729,2.018-3.25,3.613-5.604,3.586
			c-2.354-0.027-3.67-1.68-2.914-3.67C3776.266,46.868,3778.76,45.271,3781.114,45.299z"/>
	</g>
	<g enable-background="new    ">
		<path d="M3814.274,41.742v3.586h-8.908v-3.586H3814.274z"/>
	</g>
	<line fill="none" stroke="#000000" stroke-width="0.459" x1="3804.5" y1="45.3" x2="3815" y2="45.3"/>
	<g enable-background="new    ">
		<path d="M3877.975,45.299c2.382,0.028,3.698,1.653,2.941,3.643c-0.729,2.018-3.25,3.613-5.604,3.586s-3.67-1.68-2.913-3.67
			C3873.129,46.868,3875.621,45.271,3877.975,45.299z"/>
	</g>
	<line fill="none" stroke="#000000" stroke-width="0.459" x1="3880.6" y1="47.7" x2="3880.6" y2="26.1"/>
	<g enable-background="new    ">
		<path d="M3893.731,45.299c2.382,0.028,3.698,1.653,2.941,3.643c-0.729,2.018-3.25,3.613-5.604,3.586s-3.67-1.68-2.913-3.67
			C3888.885,46.868,3891.377,45.271,3893.731,45.299z"/>
	</g>
	<line fill="none" stroke="#000000" stroke-width="0.459" x1="3896.299" y1="47.7" x2="3896.299" y2="26.1"/>
	<path d="M3880.299,24.3h16.399v3.5h-16.399V24.3z"/>
	<line fill="none" stroke="#000000" stroke-width="0.459" x1="3912.1" y1="47.7" x2="3912.1" y2="24.3"/>
	<g enable-background="new    ">
		<path d="M3909.487,45.299c2.381,0.028,3.697,1.653,2.941,3.643c-0.729,2.018-3.25,3.613-5.604,3.586
			c-2.354-0.027-3.67-1.68-2.914-3.67C3904.639,46.868,3907.133,45.271,3909.487,45.299z"/>
	</g>
	<g enable-background="new    ">
		<path d="M3942.063,41.742v3.586h-8.908v-3.586H3942.063z"/>
	</g>
	<line fill="none" stroke="#000000" stroke-width="0.459" x1="3932.299" y1="45.3" x2="3942.799" y2="45.3"/>
	<g enable-background="new    ">
		<path d="M3995.26,45.299c2.382,0.028,3.697,1.653,2.94,3.643c-0.729,2.018-3.249,3.613-5.603,3.586
			c-2.354-0.027-3.67-1.68-2.913-3.67C3990.414,46.868,3992.906,45.271,3995.26,45.299z"/>
	</g>
	<line fill="none" stroke="#000000" stroke-width="0.459" x1="3997.901" y1="47.7" x2="3997.901" y2="26.1"/>
	<g enable-background="new    ">
		<path d="M4012.475,45.299c2.381,0.028,3.697,1.653,2.941,3.643c-0.729,2.018-3.25,3.613-5.604,3.586s-3.67-1.68-2.914-3.67
			C4007.627,46.868,4010.121,45.271,4012.475,45.299z"/>
	</g>
	<line fill="none" stroke="#000000" stroke-width="0.459" x1="4015.1" y1="47.7" x2="4015.1" y2="26.1"/>
	<path d="M3997.5,24.3h17.899v3.5H3997.5V24.3z"/>
	<line fill="none" stroke="#000000" stroke-width="0.459" x1="4032.6" y1="47.7" x2="4032.6" y2="24.3"/>
	<g enable-background="new    ">
		<path d="M4029.983,45.299c2.381,0.028,3.697,1.653,2.941,3.643c-0.729,2.018-3.25,3.613-5.604,3.586s-3.67-1.68-2.914-3.67
			C4025.135,46.868,4027.629,45.271,4029.983,45.299z"/>
	</g>
	<line fill="none" stroke="#000000" stroke-width="0.459" x1="4068.5" y1="47.7" x2="4068.5" y2="24.3"/>
	<g enable-background="new    ">
		<path d="M4065.867,45.299c2.383,0.028,3.698,1.653,2.941,3.643c-0.729,2.018-3.249,3.613-5.604,3.586
			c-2.354-0.027-3.67-1.68-2.913-3.67C4061.022,46.868,4063.514,45.271,4065.867,45.299z"/>
	</g>
	<line fill="none" stroke="#000000" stroke-width="0.459" x1="4101.699" y1="47.7" x2="4101.699" y2="24.3"/>
	<g enable-background="new    ">
		<path d="M4099.127,45.299c2.381,0.028,3.696,1.653,2.94,3.643c-0.729,2.018-3.25,3.613-5.604,3.586
			c-2.353-0.027-3.67-1.68-2.914-3.67C4094.28,46.868,4096.773,45.271,4099.127,45.299z"/>
	</g>
	<line fill="none" stroke="#000000" stroke-width="0.459" x1="4134.699" y1="47.7" x2="4134.699" y2="24.3"/>
	<g enable-background="new    ">
		<path d="M4135.178,49.025c-0.532,1.429-1.736,2.576-2.605,2.996c-0.869,0.449-2.018,0.646-3.276,0.533
			c-0.757-0.057-2.129-0.309-2.688-1.205c-0.562-0.953-0.168-2.072,0.026-2.634c0.533-1.399,1.653-2.353,2.494-2.856
			c0.84-0.478,2.129-0.841,3.696-0.672c0.588,0.084,1.905,0.195,2.438,1.148C4135.709,47.12,4135.375,48.493,4135.178,49.025z
			 M4131.873,46.756c-0.646,0.309-1.094,0.589-1.653,0.896c-0.562,0.309-1.063,0.615-1.651,1.009
			c-0.813,0.504-1.877,1.429-1.347,2.354c0.562,0.924,1.878,0.476,2.746,0.026c0.646-0.308,1.147-0.588,1.709-0.896
			c0.562-0.309,1.037-0.588,1.625-0.98c0.784-0.504,1.849-1.43,1.315-2.354C4134.057,45.889,4132.74,46.336,4131.873,46.756z"/>
	</g>
	<g enable-background="new    ">
		<path d="M4198.516,41.742v3.586h-8.909v-3.586H4198.516z"/>
	</g>
	<line fill="none" stroke="#000000" stroke-width="0.459" x1="4188.699" y1="45.3" x2="4199.199" y2="45.3"/>
	<g enable-background="new    ">
		<path d="M4261.635,45.299c2.381,0.028,3.696,1.653,2.94,3.643c-0.729,2.018-3.25,3.613-5.604,3.586
			c-2.354-0.027-3.67-1.68-2.914-3.67C4256.787,46.868,4259.281,45.271,4261.635,45.299z"/>
	</g>
	<line fill="none" stroke="#000000" stroke-width="0.459" x1="4264.299" y1="47.7" x2="4264.299" y2="26.1"/>
	<g enable-background="new    ">
		<path d="M4277.098,45.299c2.381,0.028,3.697,1.653,2.941,3.643c-0.729,2.018-3.25,3.613-5.604,3.586s-3.67-1.68-2.914-3.67
			C4272.25,46.868,4274.744,45.271,4277.098,45.299z"/>
	</g>
	<line fill="none" stroke="#000000" stroke-width="0.459" x1="4279.699" y1="47.7" x2="4279.699" y2="26.1"/>
	<path d="M4263.9,24.3h16.1v3.5h-16.1V24.3z"/>
	<line fill="none" stroke="#000000" stroke-width="0.459" x1="4294.9" y1="47.7" x2="4294.9" y2="24.3"/>
	<g enable-background="new    ">
		<path d="M4292.268,45.299c2.382,0.028,3.698,1.653,2.941,3.643c-0.729,2.018-3.25,3.613-5.604,3.586s-3.67-1.68-2.913-3.67
			C4287.422,46.868,4289.914,45.271,4292.268,45.299z"/>
	</g>
	<g enable-background="new    ">
		<path d="M4325.428,41.742v3.586h-8.909v-3.586H4325.428z"/>
	</g>
	<line fill="none" stroke="#000000" stroke-width="0.459" x1="4315.6" y1="45.3" x2="4326.1" y2="45.3"/>
	<g enable-background="new    ">
		<path d="M4389.131,45.299c2.381,0.028,3.696,1.653,2.94,3.643c-0.729,2.018-3.25,3.613-5.604,3.586
			c-2.354-0.027-3.67-1.68-2.914-3.67C4384.283,46.868,4386.777,45.271,4389.131,45.299z"/>
	</g>
	<line fill="none" stroke="#000000" stroke-width="0.459" x1="4391.799" y1="47.7" x2="4391.799" y2="26.1"/>
	<g enable-background="new    ">
		<path d="M4404.887,45.299c2.382,0.028,3.698,1.653,2.941,3.643c-0.729,2.018-3.25,3.613-5.604,3.586s-3.67-1.68-2.913-3.67
			C4400.041,46.868,4402.533,45.271,4404.887,45.299z"/>
	</g>
	<line fill="none" stroke="#000000" stroke-width="0.459" x1="4407.5" y1="47.7" x2="4407.5" y2="26.1"/>
	<path d="M4391.4,24.3h16.398v3.5H4391.4V24.3z"/>
	<line fill="none" stroke="#000000" stroke-width="0.459" x1="4423.299" y1="47.7" x2="4423.299" y2="24.3"/>
	<g enable-background="new    ">
		<path d="M4420.641,45.299c2.382,0.028,3.698,1.653,2.941,3.643c-0.729,2.018-3.25,3.613-5.604,3.586s-3.67-1.68-2.913-3.67
			C4415.795,46.868,4418.287,45.271,4420.641,45.299z"/>
	</g>
	<g enable-background="new    ">
		<path d="M4453.219,41.742v3.586h-8.908v-3.586H4453.219z"/>
	</g>
	<line fill="none" stroke="#000000" stroke-width="0.459" x1="4443.4" y1="45.3" x2="4453.9" y2="45.3"/>
	<g enable-background="new    ">
		<path d="M4506.418,45.299c2.381,0.028,3.696,1.653,2.94,3.643c-0.729,2.018-3.25,3.613-5.604,3.586
			c-2.354-0.027-3.67-1.68-2.914-3.67C4501.57,46.868,4504.064,45.271,4506.418,45.299z"/>
	</g>
	<line fill="none" stroke="#000000" stroke-width="0.459" x1="4509" y1="47.7" x2="4509" y2="26.1"/>
	<g enable-background="new    ">
		<path d="M4523.633,45.299c2.381,0.028,3.696,1.653,2.94,3.643c-0.729,2.018-3.25,3.613-5.604,3.586
			c-2.354-0.027-3.67-1.68-2.914-3.67C4518.785,46.868,4521.279,45.271,4523.633,45.299z"/>
	</g>
	<line fill="none" stroke="#000000" stroke-width="0.459" x1="4526.299" y1="47.7" x2="4526.299" y2="26.1"/>
	<path d="M4508.699,24.3h17.9v3.5h-17.9V24.3z"/>
	<line fill="none" stroke="#000000" stroke-width="0.459" x1="4543.799" y1="47.7" x2="4543.799" y2="24.3"/>
	<g enable-background="new    ">
		<path d="M4541.137,45.299c2.381,0.028,3.697,1.653,2.941,3.643c-0.729,2.018-3.25,3.613-5.604,3.586s-3.67-1.68-2.914-3.67
			C4536.289,46.868,4538.783,45.271,4541.137,45.299z"/>
	</g>
	<g enable-background="new    ">
		<path d="M4581.008,41.742v3.586h-8.908v-3.586H4581.008z"/>
	</g>
	<line fill="none" stroke="#000000" stroke-width="0.459" x1="4571.199" y1="45.3" x2="4581.699" y2="45.3"/>
	<g enable-background="new    ">
		<path d="M4634.207,45.299c2.383,0.028,3.699,1.653,2.941,3.643c-0.729,2.018-3.249,3.613-5.604,3.586
			c-2.354-0.027-3.67-1.68-2.912-3.67C4629.361,46.868,4631.854,45.271,4634.207,45.299z"/>
	</g>
	<line fill="none" stroke="#000000" stroke-width="0.459" x1="4636.799" y1="47.7" x2="4636.799" y2="26.1"/>
	<g enable-background="new    ">
		<path d="M4651.418,45.299c2.381,0.028,3.696,1.653,2.94,3.643c-0.729,2.018-3.25,3.613-5.604,3.586
			c-2.354-0.027-3.67-1.68-2.914-3.67C4646.57,46.868,4649.064,45.271,4651.418,45.299z"/>
	</g>
	<line fill="none" stroke="#000000" stroke-width="0.459" x1="4654" y1="47.7" x2="4654" y2="26.1"/>
	<path d="M4636.5,24.3h17.899v3.5H4636.5V24.3z"/>
	<line fill="none" stroke="#000000" stroke-width="0.459" x1="4671.5" y1="47.7" x2="4671.5" y2="24.3"/>
	<g enable-background="new    ">
		<path d="M4668.926,45.299c2.381,0.028,3.696,1.653,2.94,3.643c-0.729,2.018-3.25,3.613-5.604,3.586
			c-2.354-0.027-3.67-1.68-2.914-3.67C4664.078,46.868,4666.572,45.271,4668.926,45.299z"/>
	</g>
	<g enable-background="new    ">
		<path d="M4709.672,41.742v3.586h-8.91v-3.586H4709.672z"/>
	</g>
	<line fill="none" stroke="#000000" stroke-width="0.459" x1="4699.9" y1="45.3" x2="4710.4" y2="45.3"/>
	<g enable-background="new    ">
		<path d="M4772.791,45.299c2.383,0.028,3.699,1.653,2.941,3.643c-0.729,2.018-3.249,3.613-5.604,3.586
			c-2.354-0.027-3.67-1.68-2.912-3.67C4767.945,46.868,4770.438,45.271,4772.791,45.299z"/>
	</g>
	<line fill="none" stroke="#000000" stroke-width="0.459" x1="4775.4" y1="47.7" x2="4775.4" y2="26.1"/>
	<g enable-background="new    ">
		<path d="M4788.252,45.299c2.381,0.028,3.697,1.653,2.94,3.643c-0.729,2.018-3.249,3.613-5.603,3.586
			c-2.354-0.027-3.67-1.68-2.914-3.67C4783.406,46.868,4785.898,45.271,4788.252,45.299z"/>
	</g>
	<line fill="none" stroke="#000000" stroke-width="0.459" x1="4790.9" y1="47.7" x2="4790.9" y2="26.1"/>
	<path d="M4775.1,24.3h16.1v3.5h-16.1V24.3z"/>
	<line fill="none" stroke="#000000" stroke-width="0.459" x1="4806" y1="47.7" x2="4806" y2="24.3"/>
	<g enable-background="new    ">
		<path d="M4803.424,45.299c2.381,0.028,3.696,1.653,2.94,3.643c-0.729,2.018-3.25,3.613-5.604,3.586
			c-2.354-0.027-3.67-1.68-2.914-3.67C4798.576,46.868,4801.07,45.271,4803.424,45.299z"/>
	</g>
	<g enable-background="new    ">
		<path d="M4836.586,41.742v3.586h-8.91v-3.586H4836.586z"/>
	</g>
	<line fill="none" stroke="#000000" stroke-width="0.459" x1="4826.799" y1="45.3" x2="4837.299" y2="45.3"/>
	<g enable-background="new    ">
		<path d="M4900.287,45.299c2.381,0.028,3.697,1.653,2.941,3.643c-0.729,2.018-3.25,3.613-5.604,3.586
			c-2.354-0.027-3.67-1.68-2.914-3.67C4895.439,46.868,4897.934,45.271,4900.287,45.299z"/>
	</g>
	<line fill="none" stroke="#000000" stroke-width="0.459" x1="4902.9" y1="47.7" x2="4902.9" y2="26.1"/>
	<g enable-background="new    ">
		<path d="M4916.043,45.299c2.381,0.028,3.696,1.653,2.94,3.643c-0.729,2.018-3.25,3.613-5.604,3.586
			c-2.354-0.027-3.67-1.68-2.914-3.67C4911.195,46.868,4913.689,45.271,4916.043,45.299z"/>
	</g>
	<line fill="none" stroke="#000000" stroke-width="0.459" x1="4918.699" y1="47.7" x2="4918.699" y2="26.1"/>
	<path d="M4902.6,24.3h16.4v3.5h-16.4V24.3z"/>
	<line fill="none" stroke="#000000" stroke-width="0.459" x1="4934.4" y1="47.7" x2="4934.4" y2="24.3"/>
	<g enable-background="new    ">
		<path d="M4931.795,45.299c2.381,0.028,3.697,1.653,2.94,3.643c-0.729,2.018-3.249,3.613-5.603,3.586
			c-2.354-0.027-3.67-1.68-2.914-3.67C4926.949,46.868,4929.441,45.271,4931.795,45.299z"/>
	</g>
	<g enable-background="new    ">
		<path d="M4964.373,41.742v3.586h-8.908v-3.586H4964.373z"/>
	</g>
	<line fill="none" stroke="#000000" stroke-width="0.459" x1="4954.6" y1="45.3" x2="4965.1" y2="45.3"/>
	<g enable-background="new    ">
		<path d="M5017.572,45.299c2.383,0.028,3.699,1.653,2.941,3.643c-0.729,2.018-3.249,3.613-5.604,3.586
			c-2.354-0.027-3.67-1.68-2.912-3.67C5012.727,46.868,5015.219,45.271,5017.572,45.299z"/>
	</g>
	<line fill="none" stroke="#000000" stroke-width="0.459" x1="5020.199" y1="47.7" x2="5020.199" y2="26.1"/>
	<g enable-background="new    ">
		<path d="M5034.785,45.299c2.383,0.028,3.699,1.653,2.941,3.643c-0.729,2.018-3.249,3.613-5.604,3.586
			c-2.354-0.027-3.67-1.68-2.912-3.67C5029.939,46.868,5032.432,45.271,5034.785,45.299z"/>
	</g>
	<line fill="none" stroke="#000000" stroke-width="0.459" x1="5037.4" y1="47.7" x2="5037.4" y2="26.1"/>
	<path d="M5019.9,24.3h17.898v3.5H5019.9V24.3z"/>
	<line fill="none" stroke="#000000" stroke-width="0.459" x1="5054.9" y1="47.7" x2="5054.9" y2="24.3"/>
	<g enable-background="new    ">
		<path d="M5052.291,45.299c2.381,0.028,3.697,1.653,2.941,3.643c-0.729,2.018-3.25,3.613-5.604,3.586
			c-2.354-0.027-3.67-1.68-2.914-3.67C5047.443,46.868,5049.938,45.271,5052.291,45.299z"/>
	</g>
	<line fill="none" stroke="#000000" stroke-width="0.459" x1="5090.799" y1="47.7" x2="5090.799" y2="24.3"/>
	<g enable-background="new    ">
		<path d="M5088.178,45.299c2.382,0.028,3.698,1.653,2.941,3.643c-0.729,2.018-3.25,3.613-5.604,3.586s-3.67-1.68-2.913-3.67
			C5083.332,46.868,5085.824,45.271,5088.178,45.299z"/>
	</g>
	<line fill="none" stroke="#000000" stroke-width="0.459" x1="5124.299" y1="47.7" x2="5124.299" y2="24.3"/>
	<g enable-background="new    ">
		<path d="M5121.729,45.299c2.382,0.028,3.698,1.653,2.941,3.643c-0.729,2.018-3.25,3.613-5.604,3.586s-3.67-1.68-2.913-3.67
			C5116.883,46.868,5119.375,45.271,5121.729,45.299z"/>
	</g>
	<line fill="none" stroke="#000000" stroke-width="0.459" x1="5157.6" y1="47.7" x2="5157.6" y2="24.3"/>
	<g enable-background="new    ">
		<path d="M5158.07,49.025c-0.532,1.429-1.736,2.576-2.605,2.996c-0.869,0.449-2.018,0.646-3.276,0.533
			c-0.757-0.057-2.129-0.309-2.688-1.205c-0.562-0.953-0.168-2.072,0.026-2.634c0.533-1.399,1.653-2.353,2.494-2.856
			c0.84-0.478,2.129-0.841,3.696-0.672c0.588,0.084,1.905,0.195,2.438,1.148C5158.603,47.12,5158.267,48.493,5158.07,49.025z
			 M5154.765,46.756c-0.646,0.309-1.093,0.589-1.653,0.896c-0.561,0.309-1.063,0.615-1.651,1.009
			c-0.812,0.504-1.877,1.429-1.347,2.354c0.562,0.924,1.879,0.476,2.746,0.026c0.646-0.308,1.148-0.588,1.709-0.896
			c0.562-0.309,1.037-0.588,1.625-0.98c0.785-0.504,1.85-1.43,1.316-2.354C5156.949,45.889,5155.633,46.336,5154.765,46.756z"/>
	</g>
</g>
</svg>
