<?xml version="1.0" encoding="utf-8"?>
<!-- Generator: Adobe Illustrator 16.0.0, SVG Export Plug-In . SVG Version: 6.00 Build 0)  -->
<!DOCTYPE svg PUBLIC "-//W3C//DTD SVG 1.1//EN" "http://www.w3.org/Graphics/SVG/1.1/DTD/svg11.dtd">
<svg version="1.1" id="Layer_1" xmlns="http://www.w3.org/2000/svg" xmlns:xlink="http://www.w3.org/1999/xlink" x="0px" y="0px"
	 width="4320px" height="63.3px" viewBox="1648 259 4320 63.3" enable-background="new 1648 259 4320 63.3" xml:space="preserve">
<g id="Music">
	<rect x="1648" y="46.1" fill="#FFFFFF" width="4320" height="288"/>
	<line fill="none" stroke="#000000" stroke-width="0.459" x1="1676.4" y1="89.3" x2="1676.4" y2="300.5"/>
	<g enable-background="new    ">
		<path d="M1686.3,282.4v17h-4.9v-17H1686.3z M1685.5,297.8V284h-3.2v13.8H1685.5z"/>
	</g>
	<g enable-background="new    ">
		<path d="M1706.6,297.8v1.3c0,0.8,0.9,0.7,0.9,0.7v0.5h-4.2v-0.5c0,0,0.9,0,0.9-0.7v-1.3h-3.6l-0.3-0.4c2.3-3.1,2.3-3.7,2.9-6.5
			h3.3c-0.8,1.5-3.4,4.2-5.3,6.4h3v-2.4l2.3-2.6v4.9h1.4v0.5H1706.6z"/>
	</g>
	<g enable-background="new    ">
		<path d="M1706.6,288.2v1.3c0,0.8,0.9,0.7,0.9,0.7v0.5h-4.2v-0.5c0,0,0.9,0,0.9-0.7v-1.3h-3.6l-0.3-0.4c2.3-3.1,2.3-3.7,2.9-6.5
			h3.3c-0.8,1.5-3.4,4.2-5.3,6.4h3v-2.4l2.3-2.6v4.9h1.4v0.5H1706.6z"/>
	</g>
	<line fill="none" stroke="#000000" stroke-width="0.459" x1="1776.4" y1="217.3" x2="1776.4" y2="300.5"/>
	<line fill="none" stroke="#000000" stroke-width="0.459" x1="1842.4" y1="217.3" x2="1842.4" y2="300.5"/>
	<line fill="none" stroke="#000000" stroke-width="0.459" x1="1908.4" y1="217.3" x2="1908.4" y2="300.5"/>
	<line fill="none" stroke="#000000" stroke-width="0.459" x1="1974.4" y1="217.3" x2="1974.4" y2="300.5"/>
	<line fill="none" stroke="#000000" stroke-width="0.459" x1="2040.4" y1="217.3" x2="2040.4" y2="300.5"/>
	<line fill="none" stroke="#000000" stroke-width="0.459" x1="2106.4" y1="217.3" x2="2106.4" y2="300.5"/>
	<line fill="none" stroke="#000000" stroke-width="0.459" x1="2172.4" y1="217.3" x2="2172.4" y2="300.5"/>
	<line fill="none" stroke="#000000" stroke-width="0.459" x1="2238.4" y1="217.3" x2="2238.4" y2="300.5"/>
	<line fill="none" stroke="#000000" stroke-width="0.459" x1="2304.4" y1="217.3" x2="2304.4" y2="300.5"/>
	<line fill="none" stroke="#000000" stroke-width="0.459" x1="2370.4" y1="217.3" x2="2370.4" y2="300.5"/>
	<line fill="none" stroke="#000000" stroke-width="0.459" x1="2436.4" y1="217.3" x2="2436.4" y2="300.5"/>
	<line fill="none" stroke="#000000" stroke-width="0.459" x1="2502.4" y1="217.3" x2="2502.4" y2="300.5"/>
	<line fill="none" stroke="#000000" stroke-width="0.459" x1="2568.4" y1="217.3" x2="2568.4" y2="300.5"/>
	<line fill="none" stroke="#000000" stroke-width="0.459" x1="2634.4" y1="217.3" x2="2634.4" y2="300.5"/>
	<line fill="none" stroke="#000000" stroke-width="0.459" x1="2700.4" y1="217.3" x2="2700.4" y2="300.5"/>
	<line fill="none" stroke="#000000" stroke-width="0.459" x1="2766.4" y1="217.3" x2="2766.4" y2="300.5"/>
	<line fill="none" stroke="#000000" stroke-width="0.459" x1="2832.4" y1="217.3" x2="2832.4" y2="300.5"/>
	<line fill="none" stroke="#000000" stroke-width="0.459" x1="2898.4" y1="217.3" x2="2898.4" y2="300.5"/>
	<line fill="none" stroke="#000000" stroke-width="0.459" x1="2964.4" y1="217.3" x2="2964.4" y2="300.5"/>
	<line fill="none" stroke="#000000" stroke-width="0.459" x1="3030.4" y1="217.3" x2="3030.4" y2="300.5"/>
	<line fill="none" stroke="#000000" stroke-width="0.459" x1="3096.4" y1="217.3" x2="3096.4" y2="300.5"/>
	<line fill="none" stroke="#000000" stroke-width="0.459" x1="3162.4" y1="217.3" x2="3162.4" y2="300.5"/>
	<line fill="none" stroke="#000000" stroke-width="0.459" x1="3228.4" y1="217.3" x2="3228.4" y2="300.5"/>
	<line fill="none" stroke="#000000" stroke-width="0.459" x1="3294.4" y1="217.3" x2="3294.4" y2="300.5"/>
	<line fill="none" stroke="#000000" stroke-width="0.459" x1="3360.4" y1="217.3" x2="3360.4" y2="300.5"/>
	<line fill="none" stroke="#000000" stroke-width="0.459" x1="3426.4" y1="217.3" x2="3426.4" y2="300.5"/>
	<line fill="none" stroke="#000000" stroke-width="0.459" x1="3492.4" y1="217.3" x2="3492.4" y2="300.5"/>
	<line fill="none" stroke="#000000" stroke-width="0.459" x1="3558.4" y1="217.3" x2="3558.4" y2="300.5"/>
	<line fill="none" stroke="#000000" stroke-width="0.459" x1="3624.4" y1="217.3" x2="3624.4" y2="300.5"/>
	<line fill="none" stroke="#000000" stroke-width="0.459" x1="3690.4" y1="217.3" x2="3690.4" y2="300.5"/>
	<line fill="none" stroke="#000000" stroke-width="0.459" x1="3756.4" y1="217.3" x2="3756.4" y2="300.5"/>
	<line fill="none" stroke="#000000" stroke-width="0.459" x1="3822.4" y1="217.3" x2="3822.4" y2="300.5"/>
	<line fill="none" stroke="#000000" stroke-width="0.459" x1="3888.4" y1="217.3" x2="3888.4" y2="300.5"/>
	<line fill="none" stroke="#000000" stroke-width="0.459" x1="3954.4" y1="217.3" x2="3954.4" y2="300.5"/>
	<line fill="none" stroke="#000000" stroke-width="0.459" x1="4020.4" y1="217.3" x2="4020.4" y2="300.5"/>
	<line fill="none" stroke="#000000" stroke-width="0.459" x1="4086.4" y1="217.3" x2="4086.4" y2="300.5"/>
	<line fill="none" stroke="#000000" stroke-width="0.459" x1="4152.4" y1="217.3" x2="4152.4" y2="300.5"/>
	<line fill="none" stroke="#000000" stroke-width="0.459" x1="4218.4" y1="217.3" x2="4218.4" y2="300.5"/>
	<line fill="none" stroke="#000000" stroke-width="0.459" x1="4284.4" y1="217.3" x2="4284.4" y2="300.5"/>
	<line fill="none" stroke="#000000" stroke-width="0.459" x1="4350.4" y1="217.3" x2="4350.4" y2="300.5"/>
	<line fill="none" stroke="#000000" stroke-width="0.459" x1="4416.4" y1="217.3" x2="4416.4" y2="300.5"/>
	<line fill="none" stroke="#000000" stroke-width="0.459" x1="4482.4" y1="217.3" x2="4482.4" y2="300.5"/>
	<line fill="none" stroke="#000000" stroke-width="0.459" x1="4548.4" y1="217.3" x2="4548.4" y2="300.5"/>
	<line fill="none" stroke="#000000" stroke-width="0.459" x1="4614.4" y1="217.3" x2="4614.4" y2="300.5"/>
	<line fill="none" stroke="#000000" stroke-width="0.459" x1="4680.4" y1="217.3" x2="4680.4" y2="300.5"/>
	<line fill="none" stroke="#000000" stroke-width="0.459" x1="4746.4" y1="217.3" x2="4746.4" y2="300.5"/>
	<line fill="none" stroke="#000000" stroke-width="0.459" x1="4812.4" y1="217.3" x2="4812.4" y2="300.5"/>
	<line fill="none" stroke="#000000" stroke-width="0.459" x1="4878.4" y1="217.3" x2="4878.4" y2="300.5"/>
	<line fill="none" stroke="#000000" stroke-width="0.459" x1="4944.4" y1="217.3" x2="4944.4" y2="300.5"/>
	<line fill="none" stroke="#000000" stroke-width="0.459" x1="5010.4" y1="217.3" x2="5010.4" y2="300.5"/>
	<line fill="none" stroke="#000000" stroke-width="0.459" x1="5076.4" y1="217.3" x2="5076.4" y2="300.5"/>
	<line fill="none" stroke="#000000" stroke-width="0.459" x1="5142.4" y1="217.3" x2="5142.4" y2="300.5"/>
	<line fill="none" stroke="#000000" stroke-width="0.459" x1="5208.4" y1="217.3" x2="5208.4" y2="300.5"/>
	<line fill="none" stroke="#000000" stroke-width="0.459" x1="5274.4" y1="217.3" x2="5274.4" y2="300.5"/>
	<line fill="none" stroke="#000000" stroke-width="0.459" x1="5340.4" y1="217.3" x2="5340.4" y2="300.5"/>
	<line fill="none" stroke="#000000" stroke-width="0.459" x1="5406.4" y1="217.3" x2="5406.4" y2="300.5"/>
	<line fill="none" stroke="#000000" stroke-width="0.459" x1="5472.4" y1="217.3" x2="5472.4" y2="300.5"/>
	<line fill="none" stroke="#000000" stroke-width="0.459" x1="5538.4" y1="217.3" x2="5538.4" y2="300.5"/>
	<line fill="none" stroke="#000000" stroke-width="0.459" x1="5604.4" y1="217.3" x2="5604.4" y2="300.5"/>
	<line fill="none" stroke="#000000" stroke-width="0.459" x1="5670.4" y1="217.3" x2="5670.4" y2="300.5"/>
	<line fill="none" stroke="#000000" stroke-width="0.459" x1="5736.4" y1="217.3" x2="5736.4" y2="300.5"/>
	<line fill="none" stroke="#000000" stroke-width="0.459" x1="5802.4" y1="217.3" x2="5802.4" y2="300.5"/>
	<line fill="none" stroke="#000000" stroke-width="0.459" x1="5868.4" y1="217.3" x2="5868.4" y2="300.5"/>
	<line fill="none" stroke="#000000" stroke-width="2.419" x1="5938.6" y1="217.3" x2="5938.6" y2="300.5"/>
	<line fill="none" stroke="#000000" stroke-width="0.459" x1="5934.7" y1="217.3" x2="5934.7" y2="300.5"/>
	<line fill="none" stroke="#000000" stroke-width="0.459" x1="1676.2" y1="290.9" x2="5939.8" y2="290.9"/>
	<line fill="none" stroke="#000000" stroke-width="0.459" x1="1721.2" y1="290.1" x2="1721.2" y2="274.1"/>
	<g enable-background="new    ">
		<path d="M1719.4,288.5c1.6,0,2.5,1.1,2,2.5c-0.5,1.4-2.2,2.5-3.8,2.5s-2.5-1.2-2-2.5C1716.1,289.5,1717.8,288.5,1719.4,288.5z"/>
	</g>
	<line fill="none" stroke="#000000" stroke-width="0.459" x1="1748.4" y1="290.1" x2="1748.4" y2="274.1"/>
	<g enable-background="new    ">
		<path d="M1746.6,288.5c1.6,0,2.5,1.1,2,2.5c-0.5,1.4-2.2,2.5-3.8,2.5s-2.5-1.2-2-2.5C1743.3,289.5,1745,288.5,1746.6,288.5z"/>
	</g>
	<line fill="none" stroke="#000000" stroke-width="0.459" x1="1787.2" y1="290.1" x2="1787.2" y2="274.1"/>
	<g enable-background="new    ">
		<path d="M1785.4,288.5c1.6,0,2.5,1.1,2,2.5c-0.5,1.4-2.2,2.5-3.8,2.5s-2.5-1.2-2-2.5C1782.1,289.5,1783.8,288.5,1785.4,288.5z"/>
	</g>
	<g enable-background="new    ">
		<path d="M1812.6,288.5c1.6,0,2.5,1.1,2,2.5c-0.5,1.4-2.2,2.5-3.8,2.5s-2.5-1.2-2-2.5C1809.3,289.5,1811,288.5,1812.6,288.5z"/>
	</g>
	<line fill="none" stroke="#000000" stroke-width="0.459" x1="1814.4" y1="290.1" x2="1814.4" y2="275.3"/>
	<g enable-background="new    ">
		<path d="M1829.4,288.5c1.6,0,2.5,1.1,2,2.5c-0.5,1.4-2.2,2.5-3.8,2.5s-2.5-1.2-2-2.5C1826.1,289.5,1827.8,288.5,1829.4,288.5z"/>
	</g>
	<line fill="none" stroke="#000000" stroke-width="0.459" x1="1831.2" y1="290.1" x2="1831.2" y2="275.3"/>
	<path d="M1814.1,274.1h17.3v2.4h-17.3V274.1z"/>
	<line fill="none" stroke="#000000" stroke-width="0.459" x1="1853.2" y1="290.1" x2="1853.2" y2="274.1"/>
	<g enable-background="new    ">
		<path d="M1851.4,288.5c1.6,0,2.5,1.1,2,2.5c-0.5,1.4-2.2,2.5-3.8,2.5s-2.5-1.2-2-2.5C1848.1,289.5,1849.8,288.5,1851.4,288.5z"/>
	</g>
	<line fill="none" stroke="#000000" stroke-width="0.459" x1="1883.6" y1="290.1" x2="1883.6" y2="274.1"/>
	<g enable-background="new    ">
		<path d="M1881.8,288.5c1.6,0,2.5,1.1,2,2.5c-0.5,1.4-2.2,2.5-3.8,2.5s-2.5-1.2-2-2.5C1878.5,289.5,1880.2,288.5,1881.8,288.5z"/>
	</g>
	<line fill="none" stroke="#000000" stroke-width="0.459" x1="1919.2" y1="290.1" x2="1919.2" y2="274.1"/>
	<g enable-background="new    ">
		<path d="M1917.4,288.5c1.6,0,2.5,1.1,2,2.5c-0.5,1.4-2.2,2.5-3.8,2.5s-2.5-1.2-2-2.5C1914.1,289.5,1915.8,288.5,1917.4,288.5z"/>
	</g>
	<g enable-background="new    ">
		<path d="M1944.6,288.5c1.6,0,2.5,1.1,2,2.5c-0.5,1.4-2.2,2.5-3.8,2.5s-2.5-1.2-2-2.5C1941.3,289.5,1943,288.5,1944.6,288.5z"/>
	</g>
	<line fill="none" stroke="#000000" stroke-width="0.459" x1="1946.4" y1="290.1" x2="1946.4" y2="275.3"/>
	<g enable-background="new    ">
		<path d="M1961.4,288.5c1.6,0,2.5,1.1,2,2.5c-0.5,1.4-2.2,2.5-3.8,2.5s-2.5-1.2-2-2.5C1958.1,289.5,1959.8,288.5,1961.4,288.5z"/>
	</g>
	<line fill="none" stroke="#000000" stroke-width="0.459" x1="1963.2" y1="290.1" x2="1963.2" y2="275.3"/>
	<path d="M1946.1,274.1h17.3v2.4h-17.3V274.1z"/>
	<line fill="none" stroke="#000000" stroke-width="0.459" x1="1985.4" y1="290.1" x2="1985.4" y2="274.1"/>
	<g enable-background="new    ">
		<path d="M1983.6,288.5c1.6,0,2.5,1.1,2,2.5c-0.5,1.4-2.2,2.5-3.8,2.5s-2.5-1.2-2-2.5C1980.3,289.5,1982,288.5,1983.6,288.5z"/>
	</g>
	<line fill="none" stroke="#000000" stroke-width="0.459" x1="2015.8" y1="290.1" x2="2015.8" y2="274.1"/>
	<g enable-background="new    ">
		<path d="M2014,288.5c1.6,0,2.5,1.1,2,2.5c-0.5,1.4-2.2,2.5-3.8,2.5s-2.5-1.2-2-2.5C2010.7,289.5,2012.4,288.5,2014,288.5z"/>
	</g>
	<line fill="none" stroke="#000000" stroke-width="0.459" x1="2051.2" y1="290.1" x2="2051.2" y2="274.1"/>
	<g enable-background="new    ">
		<path d="M2049.4,288.5c1.6,0,2.5,1.1,2,2.5c-0.5,1.4-2.2,2.5-3.8,2.5s-2.5-1.2-2-2.5C2046.1,289.5,2047.8,288.5,2049.4,288.5z"/>
	</g>
	<g enable-background="new    ">
		<path d="M2076.6,288.5c1.6,0,2.5,1.1,2,2.5c-0.5,1.4-2.2,2.5-3.8,2.5s-2.5-1.2-2-2.5C2073.3,289.5,2075,288.5,2076.6,288.5z"/>
	</g>
	<line fill="none" stroke="#000000" stroke-width="0.459" x1="2078.4" y1="290.1" x2="2078.4" y2="275.3"/>
	<g enable-background="new    ">
		<path d="M2093.4,288.5c1.6,0,2.5,1.1,2,2.5c-0.5,1.4-2.2,2.5-3.8,2.5s-2.5-1.2-2-2.5C2090.1,289.5,2091.8,288.5,2093.4,288.5z"/>
	</g>
	<line fill="none" stroke="#000000" stroke-width="0.459" x1="2095.2" y1="290.1" x2="2095.2" y2="275.3"/>
	<path d="M2078.1,274.1h17.3v2.4h-17.3V274.1z"/>
	<line fill="none" stroke="#000000" stroke-width="0.459" x1="2117.2" y1="290.1" x2="2117.2" y2="274.1"/>
	<g enable-background="new    ">
		<path d="M2115.4,288.5c1.6,0,2.5,1.1,2,2.5c-0.5,1.4-2.2,2.5-3.8,2.5s-2.5-1.2-2-2.5C2112.1,289.5,2113.8,288.5,2115.4,288.5z"/>
	</g>
	<line fill="none" stroke="#000000" stroke-width="0.459" x1="2147.6" y1="290.1" x2="2147.6" y2="274.1"/>
	<g enable-background="new    ">
		<path d="M2145.8,288.5c1.6,0,2.5,1.1,2,2.5c-0.5,1.4-2.2,2.5-3.8,2.5s-2.5-1.2-2-2.5C2142.5,289.5,2144.2,288.5,2145.8,288.5z"/>
	</g>
	<line fill="none" stroke="#000000" stroke-width="0.459" x1="2183.2" y1="290.1" x2="2183.2" y2="274.1"/>
	<g enable-background="new    ">
		<path d="M2181.4,288.5c1.6,0,2.5,1.1,2,2.5c-0.5,1.4-2.2,2.5-3.8,2.5s-2.5-1.2-2-2.5C2178.1,289.5,2179.8,288.5,2181.4,288.5z"/>
	</g>
	<g enable-background="new    ">
		<path d="M2208.6,288.5c1.6,0,2.5,1.1,2,2.5c-0.5,1.4-2.2,2.5-3.8,2.5s-2.5-1.2-2-2.5C2205.3,289.5,2207,288.5,2208.6,288.5z"/>
	</g>
	<line fill="none" stroke="#000000" stroke-width="0.459" x1="2210.4" y1="290.1" x2="2210.4" y2="275.3"/>
	<g enable-background="new    ">
		<path d="M2225.4,288.5c1.6,0,2.5,1.1,2,2.5c-0.5,1.4-2.2,2.5-3.8,2.5s-2.5-1.2-2-2.5C2222.1,289.5,2223.8,288.5,2225.4,288.5z"/>
	</g>
	<line fill="none" stroke="#000000" stroke-width="0.459" x1="2227.2" y1="290.1" x2="2227.2" y2="275.3"/>
	<path d="M2210.1,274.1h17.3v2.4h-17.3V274.1z"/>
	<line fill="none" stroke="#000000" stroke-width="0.459" x1="2249.2" y1="290.1" x2="2249.2" y2="274.1"/>
	<g enable-background="new    ">
		<path d="M2247.4,288.5c1.6,0,2.5,1.1,2,2.5c-0.5,1.4-2.2,2.5-3.8,2.5s-2.5-1.2-2-2.5C2244.1,289.5,2245.8,288.5,2247.4,288.5z"/>
	</g>
	<line fill="none" stroke="#000000" stroke-width="0.459" x1="2282.8" y1="290.1" x2="2282.8" y2="274.1"/>
	<g enable-background="new    ">
		<path d="M2281,288.5c1.6,0,2.5,1.1,2,2.5c-0.5,1.4-2.2,2.5-3.8,2.5s-2.5-1.2-2-2.5C2277.7,289.5,2279.4,288.5,2281,288.5z"/>
	</g>
	<line fill="none" stroke="#000000" stroke-width="0.459" x1="2315.2" y1="290.1" x2="2315.2" y2="274.1"/>
	<g enable-background="new    ">
		<path d="M2313.4,288.5c1.6,0,2.5,1.1,2,2.5c-0.5,1.4-2.2,2.5-3.8,2.5s-2.5-1.2-2-2.5C2310.1,289.5,2311.8,288.5,2313.4,288.5z"/>
	</g>
	<g enable-background="new    ">
		<path d="M2340.6,288.5c1.6,0,2.5,1.1,2,2.5c-0.5,1.4-2.2,2.5-3.8,2.5s-2.5-1.2-2-2.5C2337.3,289.5,2339,288.5,2340.6,288.5z"/>
	</g>
	<line fill="none" stroke="#000000" stroke-width="0.459" x1="2342.4" y1="290.1" x2="2342.4" y2="275.3"/>
	<g enable-background="new    ">
		<path d="M2357.4,288.5c1.6,0,2.5,1.1,2,2.5c-0.5,1.4-2.2,2.5-3.8,2.5s-2.5-1.2-2-2.5C2354.1,289.5,2355.8,288.5,2357.4,288.5z"/>
	</g>
	<line fill="none" stroke="#000000" stroke-width="0.459" x1="2359.2" y1="290.1" x2="2359.2" y2="275.3"/>
	<path d="M2342.1,274.1h17.3v2.4h-17.3V274.1z"/>
	<line fill="none" stroke="#000000" stroke-width="0.459" x1="2381.2" y1="290.1" x2="2381.2" y2="274.1"/>
	<g enable-background="new    ">
		<path d="M2379.4,288.5c1.6,0,2.5,1.1,2,2.5c-0.5,1.4-2.2,2.5-3.8,2.5s-2.5-1.2-2-2.5C2376.1,289.5,2377.8,288.5,2379.4,288.5z"/>
	</g>
	<line fill="none" stroke="#000000" stroke-width="0.459" x1="2411.6" y1="290.1" x2="2411.6" y2="274.1"/>
	<g enable-background="new    ">
		<path d="M2409.8,288.5c1.6,0,2.5,1.1,2,2.5c-0.5,1.4-2.2,2.5-3.8,2.5s-2.5-1.2-2-2.5C2406.5,289.5,2408.2,288.5,2409.8,288.5z"/>
	</g>
	<line fill="none" stroke="#000000" stroke-width="0.459" x1="2447.2" y1="290.1" x2="2447.2" y2="274.1"/>
	<g enable-background="new    ">
		<path d="M2445.4,288.5c1.6,0,2.5,1.1,2,2.5c-0.5,1.4-2.2,2.5-3.8,2.5s-2.5-1.2-2-2.5C2442.1,289.5,2443.8,288.5,2445.4,288.5z"/>
	</g>
	<g enable-background="new    ">
		<path d="M2472.6,288.5c1.6,0,2.5,1.1,2,2.5c-0.5,1.4-2.2,2.5-3.8,2.5s-2.5-1.2-2-2.5C2469.3,289.5,2471,288.5,2472.6,288.5z"/>
	</g>
	<line fill="none" stroke="#000000" stroke-width="0.459" x1="2474.4" y1="290.1" x2="2474.4" y2="275.3"/>
	<g enable-background="new    ">
		<path d="M2489.4,288.5c1.6,0,2.5,1.1,2,2.5c-0.5,1.4-2.2,2.5-3.8,2.5s-2.5-1.2-2-2.5C2486.1,289.5,2487.8,288.5,2489.4,288.5z"/>
	</g>
	<line fill="none" stroke="#000000" stroke-width="0.459" x1="2491.2" y1="290.1" x2="2491.2" y2="275.3"/>
	<path d="M2474.1,274.1h17.3v2.4h-17.3V274.1z"/>
	<line fill="none" stroke="#000000" stroke-width="0.459" x1="2513.2" y1="290.1" x2="2513.2" y2="274.1"/>
	<g enable-background="new    ">
		<path d="M2511.4,288.5c1.6,0,2.5,1.1,2,2.5c-0.5,1.4-2.2,2.5-3.8,2.5s-2.5-1.2-2-2.5C2508.1,289.5,2509.8,288.5,2511.4,288.5z"/>
	</g>
	<line fill="none" stroke="#000000" stroke-width="0.459" x1="2543.8" y1="290.1" x2="2543.8" y2="274.1"/>
	<g enable-background="new    ">
		<path d="M2542,288.5c1.6,0,2.5,1.1,2,2.5c-0.5,1.4-2.2,2.5-3.8,2.5s-2.5-1.2-2-2.5C2538.7,289.5,2540.4,288.5,2542,288.5z"/>
	</g>
	<line fill="none" stroke="#000000" stroke-width="0.459" x1="2579.2" y1="290.1" x2="2579.2" y2="274.1"/>
	<g enable-background="new    ">
		<path d="M2577.4,288.5c1.6,0,2.5,1.1,2,2.5c-0.5,1.4-2.2,2.5-3.8,2.5s-2.5-1.2-2-2.5C2574.1,289.5,2575.8,288.5,2577.4,288.5z"/>
	</g>
	<g enable-background="new    ">
		<path d="M2607.8,288.5c1.6,0,2.5,1.1,2,2.5c-0.5,1.4-2.2,2.5-3.8,2.5s-2.5-1.2-2-2.5C2604.5,289.5,2606.2,288.5,2607.8,288.5z"/>
	</g>
	<line fill="none" stroke="#000000" stroke-width="0.459" x1="2609.6" y1="290.1" x2="2609.6" y2="275.3"/>
	<g enable-background="new    ">
		<path d="M2623,288.5c1.6,0,2.5,1.1,2,2.5c-0.5,1.4-2.2,2.5-3.8,2.5s-2.5-1.2-2-2.5C2619.7,289.5,2621.4,288.5,2623,288.5z"/>
	</g>
	<line fill="none" stroke="#000000" stroke-width="0.459" x1="2624.8" y1="290.1" x2="2624.8" y2="275.3"/>
	<path d="M2609.3,274.1h15.7v2.4h-15.7V274.1z"/>
	<line fill="none" stroke="#000000" stroke-width="0.459" x1="2645.2" y1="290.1" x2="2645.2" y2="274.1"/>
	<g enable-background="new    ">
		<path d="M2643.4,288.5c1.6,0,2.5,1.1,2,2.5c-0.5,1.4-2.2,2.5-3.8,2.5s-2.5-1.2-2-2.5C2640.1,289.5,2641.8,288.5,2643.4,288.5z"/>
	</g>
	<line fill="none" stroke="#000000" stroke-width="0.459" x1="2675.6" y1="290.1" x2="2675.6" y2="274.1"/>
	<g enable-background="new    ">
		<path d="M2673.8,288.5c1.6,0,2.5,1.1,2,2.5c-0.5,1.4-2.2,2.5-3.8,2.5s-2.5-1.2-2-2.5C2670.5,289.5,2672.2,288.5,2673.8,288.5z"/>
	</g>
	<line fill="none" stroke="#000000" stroke-width="0.459" x1="2711.2" y1="290.1" x2="2711.2" y2="274.1"/>
	<g enable-background="new    ">
		<path d="M2711.5,291c-0.4,1-1.2,1.8-1.8,2.1c-0.6,0.3-1.4,0.4-2.2,0.4c-0.5,0-1.5-0.2-1.8-0.8c-0.4-0.7-0.1-1.4,0-1.8
			c0.4-1,1.1-1.6,1.7-2c0.6-0.3,1.5-0.6,2.5-0.5c0.4,0.1,1.3,0.1,1.7,0.8C2711.8,289.7,2711.6,290.7,2711.5,291z M2709.2,289.5
			c-0.4,0.2-0.7,0.4-1.1,0.6s-0.7,0.4-1.1,0.7c-0.6,0.3-1.3,1-0.9,1.6c0.4,0.6,1.3,0.3,1.9,0c0.4-0.2,0.8-0.4,1.2-0.6
			s0.7-0.4,1.1-0.7c0.5-0.3,1.3-1,0.9-1.6C2710.7,288.9,2709.8,289.2,2709.2,289.5z"/>
	</g>
	<line fill="none" stroke="#000000" stroke-width="0.459" x1="2777.2" y1="290.1" x2="2777.2" y2="274.1"/>
	<g enable-background="new    ">
		<path d="M2775.4,288.5c1.6,0,2.5,1.1,2,2.5c-0.5,1.4-2.2,2.5-3.8,2.5s-2.5-1.2-2-2.5C2772.1,289.5,2773.8,288.5,2775.4,288.5z"/>
	</g>
	<line fill="none" stroke="#000000" stroke-width="0.459" x1="2804.4" y1="290.1" x2="2804.4" y2="274.1"/>
	<g enable-background="new    ">
		<path d="M2802.6,288.5c1.6,0,2.5,1.1,2,2.5c-0.5,1.4-2.2,2.5-3.8,2.5s-2.5-1.2-2-2.5C2799.3,289.5,2801,288.5,2802.6,288.5z"/>
	</g>
	<line fill="none" stroke="#000000" stroke-width="0.459" x1="2843.2" y1="290.1" x2="2843.2" y2="274.1"/>
	<g enable-background="new    ">
		<path d="M2841.4,288.5c1.6,0,2.5,1.1,2,2.5c-0.5,1.4-2.2,2.5-3.8,2.5s-2.5-1.2-2-2.5C2838.1,289.5,2839.8,288.5,2841.4,288.5z"/>
	</g>
	<g enable-background="new    ">
		<path d="M2868.6,288.5c1.6,0,2.5,1.1,2,2.5c-0.5,1.4-2.2,2.5-3.8,2.5s-2.5-1.2-2-2.5C2865.3,289.5,2867,288.5,2868.6,288.5z"/>
	</g>
	<line fill="none" stroke="#000000" stroke-width="0.459" x1="2870.4" y1="290.1" x2="2870.4" y2="275.3"/>
	<g enable-background="new    ">
		<path d="M2885.4,288.5c1.6,0,2.5,1.1,2,2.5c-0.5,1.4-2.2,2.5-3.8,2.5s-2.5-1.2-2-2.5C2882.1,289.5,2883.8,288.5,2885.4,288.5z"/>
	</g>
	<line fill="none" stroke="#000000" stroke-width="0.459" x1="2887.2" y1="290.1" x2="2887.2" y2="275.3"/>
	<path d="M2870.1,274.1h17.3v2.4h-17.3V274.1z"/>
	<line fill="none" stroke="#000000" stroke-width="0.459" x1="2909.2" y1="290.1" x2="2909.2" y2="274.1"/>
	<g enable-background="new    ">
		<path d="M2907.4,288.5c1.6,0,2.5,1.1,2,2.5c-0.5,1.4-2.2,2.5-3.8,2.5s-2.5-1.2-2-2.5C2904.1,289.5,2905.8,288.5,2907.4,288.5z"/>
	</g>
	<line fill="none" stroke="#000000" stroke-width="0.459" x1="2939.6" y1="290.1" x2="2939.6" y2="274.1"/>
	<g enable-background="new    ">
		<path d="M2937.8,288.5c1.6,0,2.5,1.1,2,2.5c-0.5,1.4-2.2,2.5-3.8,2.5s-2.5-1.2-2-2.5C2934.5,289.5,2936.2,288.5,2937.8,288.5z"/>
	</g>
	<line fill="none" stroke="#000000" stroke-width="0.459" x1="2975.2" y1="290.1" x2="2975.2" y2="274.1"/>
	<g enable-background="new    ">
		<path d="M2973.4,288.5c1.6,0,2.5,1.1,2,2.5c-0.5,1.4-2.2,2.5-3.8,2.5s-2.5-1.2-2-2.5C2970.1,289.5,2971.8,288.5,2973.4,288.5z"/>
	</g>
	<g enable-background="new    ">
		<path d="M3000.6,288.5c1.6,0,2.5,1.1,2,2.5c-0.5,1.4-2.2,2.5-3.8,2.5s-2.5-1.2-2-2.5C2997.3,289.5,2999,288.5,3000.6,288.5z"/>
	</g>
	<line fill="none" stroke="#000000" stroke-width="0.459" x1="3002.4" y1="290.1" x2="3002.4" y2="275.3"/>
	<g enable-background="new    ">
		<path d="M3017.4,288.5c1.6,0,2.5,1.1,2,2.5c-0.5,1.4-2.2,2.5-3.8,2.5s-2.5-1.2-2-2.5C3014.1,289.5,3015.8,288.5,3017.4,288.5z"/>
	</g>
	<line fill="none" stroke="#000000" stroke-width="0.459" x1="3019.2" y1="290.1" x2="3019.2" y2="275.3"/>
	<path d="M3002.1,274.1h17.3v2.4h-17.3V274.1z"/>
	<line fill="none" stroke="#000000" stroke-width="0.459" x1="3041.4" y1="290.1" x2="3041.4" y2="274.1"/>
	<g enable-background="new    ">
		<path d="M3039.6,288.5c1.6,0,2.5,1.1,2,2.5c-0.5,1.4-2.2,2.5-3.8,2.5s-2.5-1.2-2-2.5C3036.3,289.5,3038,288.5,3039.6,288.5z"/>
	</g>
	<line fill="none" stroke="#000000" stroke-width="0.459" x1="3071.8" y1="290.1" x2="3071.8" y2="274.1"/>
	<g enable-background="new    ">
		<path d="M3070,288.5c1.6,0,2.5,1.1,2,2.5c-0.5,1.4-2.2,2.5-3.8,2.5s-2.5-1.2-2-2.5C3066.7,289.5,3068.4,288.5,3070,288.5z"/>
	</g>
	<line fill="none" stroke="#000000" stroke-width="0.459" x1="3107.2" y1="290.1" x2="3107.2" y2="274.1"/>
	<g enable-background="new    ">
		<path d="M3105.4,288.5c1.6,0,2.5,1.1,2,2.5c-0.5,1.4-2.2,2.5-3.8,2.5s-2.5-1.2-2-2.5C3102.1,289.5,3103.8,288.5,3105.4,288.5z"/>
	</g>
	<g enable-background="new    ">
		<path d="M3132.6,288.5c1.6,0,2.5,1.1,2,2.5c-0.5,1.4-2.2,2.5-3.8,2.5s-2.5-1.2-2-2.5C3129.3,289.5,3131,288.5,3132.6,288.5z"/>
	</g>
	<line fill="none" stroke="#000000" stroke-width="0.459" x1="3134.4" y1="290.1" x2="3134.4" y2="275.3"/>
	<g enable-background="new    ">
		<path d="M3149.4,288.5c1.6,0,2.5,1.1,2,2.5c-0.5,1.4-2.2,2.5-3.8,2.5s-2.5-1.2-2-2.5C3146.1,289.5,3147.8,288.5,3149.4,288.5z"/>
	</g>
	<line fill="none" stroke="#000000" stroke-width="0.459" x1="3151.2" y1="290.1" x2="3151.2" y2="275.3"/>
	<path d="M3134.1,274.1h17.3v2.4h-17.3V274.1z"/>
	<line fill="none" stroke="#000000" stroke-width="0.459" x1="3173.2" y1="290.1" x2="3173.2" y2="274.1"/>
	<g enable-background="new    ">
		<path d="M3171.4,288.5c1.6,0,2.5,1.1,2,2.5c-0.5,1.4-2.2,2.5-3.8,2.5s-2.5-1.2-2-2.5C3168.1,289.5,3169.8,288.5,3171.4,288.5z"/>
	</g>
	<line fill="none" stroke="#000000" stroke-width="0.459" x1="3203.6" y1="290.1" x2="3203.6" y2="274.1"/>
	<g enable-background="new    ">
		<path d="M3201.8,288.5c1.6,0,2.5,1.1,2,2.5c-0.5,1.4-2.2,2.5-3.8,2.5s-2.5-1.2-2-2.5C3198.5,289.5,3200.2,288.5,3201.8,288.5z"/>
	</g>
	<line fill="none" stroke="#000000" stroke-width="0.459" x1="3239.2" y1="290.1" x2="3239.2" y2="274.1"/>
	<g enable-background="new    ">
		<path d="M3237.4,288.5c1.6,0,2.5,1.1,2,2.5c-0.5,1.4-2.2,2.5-3.8,2.5s-2.5-1.2-2-2.5C3234.1,289.5,3235.8,288.5,3237.4,288.5z"/>
	</g>
	<g enable-background="new    ">
		<path d="M3264.6,288.5c1.6,0,2.5,1.1,2,2.5c-0.5,1.4-2.2,2.5-3.8,2.5s-2.5-1.2-2-2.5C3261.3,289.5,3263,288.5,3264.6,288.5z"/>
	</g>
	<line fill="none" stroke="#000000" stroke-width="0.459" x1="3266.4" y1="290.1" x2="3266.4" y2="275.3"/>
	<g enable-background="new    ">
		<path d="M3281.4,288.5c1.6,0,2.5,1.1,2,2.5c-0.5,1.4-2.2,2.5-3.8,2.5s-2.5-1.2-2-2.5C3278.1,289.5,3279.8,288.5,3281.4,288.5z"/>
	</g>
	<line fill="none" stroke="#000000" stroke-width="0.459" x1="3283.2" y1="290.1" x2="3283.2" y2="275.3"/>
	<path d="M3266.1,274.1h17.3v2.4h-17.3V274.1z"/>
	<line fill="none" stroke="#000000" stroke-width="0.459" x1="3305.2" y1="290.1" x2="3305.2" y2="274.1"/>
	<g enable-background="new    ">
		<path d="M3303.4,288.5c1.6,0,2.5,1.1,2,2.5c-0.5,1.4-2.2,2.5-3.8,2.5s-2.5-1.2-2-2.5C3300.1,289.5,3301.8,288.5,3303.4,288.5z"/>
	</g>
	<line fill="none" stroke="#000000" stroke-width="0.459" x1="3338.8" y1="290.1" x2="3338.8" y2="274.1"/>
	<g enable-background="new    ">
		<path d="M3337,288.5c1.6,0,2.5,1.1,2,2.5c-0.5,1.4-2.2,2.5-3.8,2.5s-2.5-1.2-2-2.5C3333.7,289.5,3335.4,288.5,3337,288.5z"/>
	</g>
	<line fill="none" stroke="#000000" stroke-width="0.459" x1="3371.2" y1="290.1" x2="3371.2" y2="274.1"/>
	<g enable-background="new    ">
		<path d="M3369.4,288.5c1.6,0,2.5,1.1,2,2.5c-0.5,1.4-2.2,2.5-3.8,2.5s-2.5-1.2-2-2.5C3366.1,289.5,3367.8,288.5,3369.4,288.5z"/>
	</g>
	<g enable-background="new    ">
		<path d="M3396.6,288.5c1.6,0,2.5,1.1,2,2.5c-0.5,1.4-2.2,2.5-3.8,2.5s-2.5-1.2-2-2.5C3393.3,289.5,3395,288.5,3396.6,288.5z"/>
	</g>
	<line fill="none" stroke="#000000" stroke-width="0.459" x1="3398.4" y1="290.1" x2="3398.4" y2="275.3"/>
	<g enable-background="new    ">
		<path d="M3413.4,288.5c1.6,0,2.5,1.1,2,2.5c-0.5,1.4-2.2,2.5-3.8,2.5s-2.5-1.2-2-2.5C3410.1,289.5,3411.8,288.5,3413.4,288.5z"/>
	</g>
	<line fill="none" stroke="#000000" stroke-width="0.459" x1="3415.2" y1="290.1" x2="3415.2" y2="275.3"/>
	<path d="M3398.1,274.1h17.3v2.4h-17.3V274.1z"/>
	<line fill="none" stroke="#000000" stroke-width="0.459" x1="3437.2" y1="290.1" x2="3437.2" y2="274.1"/>
	<g enable-background="new    ">
		<path d="M3435.4,288.5c1.6,0,2.5,1.1,2,2.5c-0.5,1.4-2.2,2.5-3.8,2.5s-2.5-1.2-2-2.5C3432.1,289.5,3433.8,288.5,3435.4,288.5z"/>
	</g>
	<line fill="none" stroke="#000000" stroke-width="0.459" x1="3467.6" y1="290.1" x2="3467.6" y2="274.1"/>
	<g enable-background="new    ">
		<path d="M3465.8,288.5c1.6,0,2.5,1.1,2,2.5c-0.5,1.4-2.2,2.5-3.8,2.5s-2.5-1.2-2-2.5C3462.5,289.5,3464.2,288.5,3465.8,288.5z"/>
	</g>
	<line fill="none" stroke="#000000" stroke-width="0.459" x1="3503.2" y1="290.1" x2="3503.2" y2="274.1"/>
	<g enable-background="new    ">
		<path d="M3501.4,288.5c1.6,0,2.5,1.1,2,2.5c-0.5,1.4-2.2,2.5-3.8,2.5s-2.5-1.2-2-2.5C3498.1,289.5,3499.8,288.5,3501.4,288.5z"/>
	</g>
	<g enable-background="new    ">
		<path d="M3528.6,288.5c1.6,0,2.5,1.1,2,2.5c-0.5,1.4-2.2,2.5-3.8,2.5s-2.5-1.2-2-2.5C3525.3,289.5,3527,288.5,3528.6,288.5z"/>
	</g>
	<line fill="none" stroke="#000000" stroke-width="0.459" x1="3530.4" y1="290.1" x2="3530.4" y2="275.3"/>
	<g enable-background="new    ">
		<path d="M3545.4,288.5c1.6,0,2.5,1.1,2,2.5c-0.5,1.4-2.2,2.5-3.8,2.5s-2.5-1.2-2-2.5C3542.1,289.5,3543.8,288.5,3545.4,288.5z"/>
	</g>
	<line fill="none" stroke="#000000" stroke-width="0.459" x1="3547.2" y1="290.1" x2="3547.2" y2="275.3"/>
	<path d="M3530.1,274.1h17.3v2.4h-17.3V274.1z"/>
	<line fill="none" stroke="#000000" stroke-width="0.459" x1="3569.2" y1="290.1" x2="3569.2" y2="274.1"/>
	<g enable-background="new    ">
		<path d="M3567.4,288.5c1.6,0,2.5,1.1,2,2.5c-0.5,1.4-2.2,2.5-3.8,2.5s-2.5-1.2-2-2.5C3564.1,289.5,3565.8,288.5,3567.4,288.5z"/>
	</g>
	<line fill="none" stroke="#000000" stroke-width="0.459" x1="3599.8" y1="290.1" x2="3599.8" y2="274.1"/>
	<g enable-background="new    ">
		<path d="M3598,288.5c1.6,0,2.5,1.1,2,2.5c-0.5,1.4-2.2,2.5-3.8,2.5s-2.5-1.2-2-2.5C3594.7,289.5,3596.4,288.5,3598,288.5z"/>
	</g>
	<line fill="none" stroke="#000000" stroke-width="0.459" x1="3635.2" y1="290.1" x2="3635.2" y2="274.1"/>
	<g enable-background="new    ">
		<path d="M3633.4,288.5c1.6,0,2.5,1.1,2,2.5c-0.5,1.4-2.2,2.5-3.8,2.5s-2.5-1.2-2-2.5C3630.1,289.5,3631.8,288.5,3633.4,288.5z"/>
	</g>
	<g enable-background="new    ">
		<path d="M3663.8,288.5c1.6,0,2.5,1.1,2,2.5c-0.5,1.4-2.2,2.5-3.8,2.5s-2.5-1.2-2-2.5C3660.5,289.5,3662.2,288.5,3663.8,288.5z"/>
	</g>
	<line fill="none" stroke="#000000" stroke-width="0.459" x1="3665.6" y1="290.1" x2="3665.6" y2="275.3"/>
	<g enable-background="new    ">
		<path d="M3679,288.5c1.6,0,2.5,1.1,2,2.5c-0.5,1.4-2.2,2.5-3.8,2.5s-2.5-1.2-2-2.5C3675.7,289.5,3677.4,288.5,3679,288.5z"/>
	</g>
	<line fill="none" stroke="#000000" stroke-width="0.459" x1="3680.8" y1="290.1" x2="3680.8" y2="275.3"/>
	<path d="M3665.3,274.1h15.7v2.4h-15.7V274.1z"/>
	<line fill="none" stroke="#000000" stroke-width="0.459" x1="3701.2" y1="290.1" x2="3701.2" y2="274.1"/>
	<g enable-background="new    ">
		<path d="M3699.4,288.5c1.6,0,2.5,1.1,2,2.5c-0.5,1.4-2.2,2.5-3.8,2.5s-2.5-1.2-2-2.5C3696.1,289.5,3697.8,288.5,3699.4,288.5z"/>
	</g>
	<line fill="none" stroke="#000000" stroke-width="0.459" x1="3731.6" y1="290.1" x2="3731.6" y2="274.1"/>
	<g enable-background="new    ">
		<path d="M3729.8,288.5c1.6,0,2.5,1.1,2,2.5c-0.5,1.4-2.2,2.5-3.8,2.5s-2.5-1.2-2-2.5C3726.5,289.5,3728.2,288.5,3729.8,288.5z"/>
	</g>
	<line fill="none" stroke="#000000" stroke-width="0.459" x1="3767.2" y1="290.1" x2="3767.2" y2="274.1"/>
	<g enable-background="new    ">
		<path d="M3767.5,291c-0.4,1-1.2,1.8-1.8,2.1c-0.6,0.3-1.4,0.4-2.2,0.4c-0.5,0-1.5-0.2-1.8-0.8c-0.4-0.7-0.1-1.4,0-1.8
			c0.4-1,1.1-1.6,1.7-2c0.6-0.3,1.5-0.6,2.5-0.5c0.4,0.1,1.3,0.1,1.7,0.8C3767.8,289.7,3767.6,290.7,3767.5,291z M3765.2,289.5
			c-0.4,0.2-0.7,0.4-1.1,0.6s-0.7,0.4-1.1,0.7c-0.6,0.3-1.3,1-0.9,1.6c0.4,0.6,1.3,0.3,1.9,0c0.4-0.2,0.8-0.4,1.2-0.6
			s0.7-0.4,1.1-0.7c0.5-0.3,1.3-1,0.9-1.6C3766.7,288.9,3765.8,289.2,3765.2,289.5z"/>
	</g>
	<line fill="none" stroke="#000000" stroke-width="0.459" x1="3833.2" y1="290.1" x2="3833.2" y2="274.1"/>
	<g enable-background="new    ">
		<path d="M3831.4,288.5c1.6,0,2.5,1.1,2,2.5c-0.5,1.4-2.2,2.5-3.8,2.5s-2.5-1.2-2-2.5C3828.1,289.5,3829.8,288.5,3831.4,288.5z"/>
	</g>
	<line fill="none" stroke="#000000" stroke-width="0.459" x1="3860.4" y1="290.1" x2="3860.4" y2="274.1"/>
	<g enable-background="new    ">
		<path d="M3858.6,288.5c1.6,0,2.5,1.1,2,2.5c-0.5,1.4-2.2,2.5-3.8,2.5s-2.5-1.2-2-2.5C3855.3,289.5,3857,288.5,3858.6,288.5z"/>
	</g>
	<line fill="none" stroke="#000000" stroke-width="0.459" x1="3899.2" y1="290.1" x2="3899.2" y2="274.1"/>
	<g enable-background="new    ">
		<path d="M3897.4,288.5c1.6,0,2.5,1.1,2,2.5c-0.5,1.4-2.2,2.5-3.8,2.5s-2.5-1.2-2-2.5C3894.1,289.5,3895.8,288.5,3897.4,288.5z"/>
	</g>
	<g enable-background="new    ">
		<path d="M3924.6,288.5c1.6,0,2.5,1.1,2,2.5c-0.5,1.4-2.2,2.5-3.8,2.5s-2.5-1.2-2-2.5C3921.3,289.5,3923,288.5,3924.6,288.5z"/>
	</g>
	<line fill="none" stroke="#000000" stroke-width="0.459" x1="3926.4" y1="290.1" x2="3926.4" y2="275.3"/>
	<g enable-background="new    ">
		<path d="M3941.4,288.5c1.6,0,2.5,1.1,2,2.5c-0.5,1.4-2.2,2.5-3.8,2.5s-2.5-1.2-2-2.5C3938.1,289.5,3939.8,288.5,3941.4,288.5z"/>
	</g>
	<line fill="none" stroke="#000000" stroke-width="0.459" x1="3943.2" y1="290.1" x2="3943.2" y2="275.3"/>
	<path d="M3926.1,274.1h17.3v2.4h-17.3V274.1z"/>
	<line fill="none" stroke="#000000" stroke-width="0.459" x1="3965.2" y1="290.1" x2="3965.2" y2="274.1"/>
	<g enable-background="new    ">
		<path d="M3963.4,288.5c1.6,0,2.5,1.1,2,2.5c-0.5,1.4-2.2,2.5-3.8,2.5s-2.5-1.2-2-2.5C3960.1,289.5,3961.8,288.5,3963.4,288.5z"/>
	</g>
	<line fill="none" stroke="#000000" stroke-width="0.459" x1="3995.6" y1="290.1" x2="3995.6" y2="274.1"/>
	<g enable-background="new    ">
		<path d="M3993.8,288.5c1.6,0,2.5,1.1,2,2.5c-0.5,1.4-2.2,2.5-3.8,2.5c-1.6,0-2.5-1.2-2-2.5
			C3990.5,289.5,3992.2,288.5,3993.8,288.5z"/>
	</g>
	<line fill="none" stroke="#000000" stroke-width="0.459" x1="4031.2" y1="290.1" x2="4031.2" y2="274.1"/>
	<g enable-background="new    ">
		<path d="M4029.4,288.5c1.6,0,2.5,1.1,2,2.5c-0.5,1.4-2.2,2.5-3.8,2.5s-2.5-1.2-2-2.5C4026.1,289.5,4027.8,288.5,4029.4,288.5z"/>
	</g>
	<g enable-background="new    ">
		<path d="M4056.6,288.5c1.6,0,2.5,1.1,2,2.5c-0.5,1.4-2.2,2.5-3.8,2.5s-2.5-1.2-2-2.5C4053.3,289.5,4055,288.5,4056.6,288.5z"/>
	</g>
	<line fill="none" stroke="#000000" stroke-width="0.459" x1="4058.4" y1="290.1" x2="4058.4" y2="275.3"/>
	<g enable-background="new    ">
		<path d="M4073.4,288.5c1.6,0,2.5,1.1,2,2.5c-0.5,1.4-2.2,2.5-3.8,2.5s-2.5-1.2-2-2.5C4070.1,289.5,4071.8,288.5,4073.4,288.5z"/>
	</g>
	<line fill="none" stroke="#000000" stroke-width="0.459" x1="4075.2" y1="290.1" x2="4075.2" y2="275.3"/>
	<path d="M4058.1,274.1h17.3v2.4h-17.3V274.1z"/>
	<line fill="none" stroke="#000000" stroke-width="0.459" x1="4097.4" y1="290.1" x2="4097.4" y2="274.1"/>
	<g enable-background="new    ">
		<path d="M4095.6,288.5c1.6,0,2.5,1.1,2,2.5c-0.5,1.4-2.2,2.5-3.8,2.5s-2.5-1.2-2-2.5C4092.3,289.5,4094,288.5,4095.6,288.5z"/>
	</g>
	<line fill="none" stroke="#000000" stroke-width="0.459" x1="4127.8" y1="290.1" x2="4127.8" y2="274.1"/>
	<g enable-background="new    ">
		<path d="M4126,288.5c1.6,0,2.5,1.1,2,2.5c-0.5,1.4-2.2,2.5-3.8,2.5c-1.6,0-2.5-1.2-2-2.5C4122.7,289.5,4124.4,288.5,4126,288.5z"
			/>
	</g>
	<line fill="none" stroke="#000000" stroke-width="0.459" x1="4163.2" y1="290.1" x2="4163.2" y2="274.1"/>
	<g enable-background="new    ">
		<path d="M4161.4,288.5c1.6,0,2.5,1.1,2,2.5c-0.5,1.4-2.2,2.5-3.8,2.5s-2.5-1.2-2-2.5C4158.1,289.5,4159.8,288.5,4161.4,288.5z"/>
	</g>
	<g enable-background="new    ">
		<path d="M4188.6,288.5c1.6,0,2.5,1.1,2,2.5c-0.5,1.4-2.2,2.5-3.8,2.5s-2.5-1.2-2-2.5C4185.3,289.5,4187,288.5,4188.6,288.5z"/>
	</g>
	<line fill="none" stroke="#000000" stroke-width="0.459" x1="4190.4" y1="290.1" x2="4190.4" y2="275.3"/>
	<g enable-background="new    ">
		<path d="M4205.4,288.5c1.6,0,2.5,1.1,2,2.5c-0.5,1.4-2.2,2.5-3.8,2.5s-2.5-1.2-2-2.5C4202.1,289.5,4203.8,288.5,4205.4,288.5z"/>
	</g>
	<line fill="none" stroke="#000000" stroke-width="0.459" x1="4207.2" y1="290.1" x2="4207.2" y2="275.3"/>
	<path d="M4190.1,274.1h17.3v2.4h-17.3V274.1z"/>
	<line fill="none" stroke="#000000" stroke-width="0.459" x1="4229.2" y1="290.1" x2="4229.2" y2="274.1"/>
	<g enable-background="new    ">
		<path d="M4227.4,288.5c1.6,0,2.5,1.1,2,2.5c-0.5,1.4-2.2,2.5-3.8,2.5s-2.5-1.2-2-2.5C4224.1,289.5,4225.8,288.5,4227.4,288.5z"/>
	</g>
	<line fill="none" stroke="#000000" stroke-width="0.459" x1="4259.6" y1="290.1" x2="4259.6" y2="274.1"/>
	<g enable-background="new    ">
		<path d="M4257.8,288.5c1.6,0,2.5,1.1,2,2.5c-0.5,1.4-2.2,2.5-3.8,2.5c-1.6,0-2.5-1.2-2-2.5
			C4254.5,289.5,4256.2,288.5,4257.8,288.5z"/>
	</g>
	<line fill="none" stroke="#000000" stroke-width="0.459" x1="4295.2" y1="290.1" x2="4295.2" y2="274.1"/>
	<g enable-background="new    ">
		<path d="M4293.4,288.5c1.6,0,2.5,1.1,2,2.5c-0.5,1.4-2.2,2.5-3.8,2.5s-2.5-1.2-2-2.5C4290.1,289.5,4291.8,288.5,4293.4,288.5z"/>
	</g>
	<g enable-background="new    ">
		<path d="M4320.6,288.5c1.6,0,2.5,1.1,2,2.5c-0.5,1.4-2.2,2.5-3.8,2.5s-2.5-1.2-2-2.5C4317.3,289.5,4319,288.5,4320.6,288.5z"/>
	</g>
	<line fill="none" stroke="#000000" stroke-width="0.459" x1="4322.4" y1="290.1" x2="4322.4" y2="275.3"/>
	<g enable-background="new    ">
		<path d="M4337.4,288.5c1.6,0,2.5,1.1,2,2.5c-0.5,1.4-2.2,2.5-3.8,2.5s-2.5-1.2-2-2.5C4334.1,289.5,4335.8,288.5,4337.4,288.5z"/>
	</g>
	<line fill="none" stroke="#000000" stroke-width="0.459" x1="4339.2" y1="290.1" x2="4339.2" y2="275.3"/>
	<path d="M4322.1,274.1h17.3v2.4h-17.3V274.1z"/>
	<line fill="none" stroke="#000000" stroke-width="0.459" x1="4361.2" y1="290.1" x2="4361.2" y2="274.1"/>
	<g enable-background="new    ">
		<path d="M4359.4,288.5c1.6,0,2.5,1.1,2,2.5c-0.5,1.4-2.2,2.5-3.8,2.5s-2.5-1.2-2-2.5C4356.1,289.5,4357.8,288.5,4359.4,288.5z"/>
	</g>
	<line fill="none" stroke="#000000" stroke-width="0.459" x1="4394.8" y1="290.1" x2="4394.8" y2="274.1"/>
	<g enable-background="new    ">
		<path d="M4393,288.5c1.6,0,2.5,1.1,2,2.5c-0.5,1.4-2.2,2.5-3.8,2.5c-1.6,0-2.5-1.2-2-2.5C4389.7,289.5,4391.4,288.5,4393,288.5z"
			/>
	</g>
	<line fill="none" stroke="#000000" stroke-width="0.459" x1="4427.2" y1="290.1" x2="4427.2" y2="274.1"/>
	<g enable-background="new    ">
		<path d="M4425.4,288.5c1.6,0,2.5,1.1,2,2.5c-0.5,1.4-2.2,2.5-3.8,2.5s-2.5-1.2-2-2.5C4422.1,289.5,4423.8,288.5,4425.4,288.5z"/>
	</g>
	<g enable-background="new    ">
		<path d="M4452.6,288.5c1.6,0,2.5,1.1,2,2.5c-0.5,1.4-2.2,2.5-3.8,2.5s-2.5-1.2-2-2.5C4449.3,289.5,4451,288.5,4452.6,288.5z"/>
	</g>
	<line fill="none" stroke="#000000" stroke-width="0.459" x1="4454.4" y1="290.1" x2="4454.4" y2="275.3"/>
	<g enable-background="new    ">
		<path d="M4469.4,288.5c1.6,0,2.5,1.1,2,2.5c-0.5,1.4-2.2,2.5-3.8,2.5s-2.5-1.2-2-2.5C4466.1,289.5,4467.8,288.5,4469.4,288.5z"/>
	</g>
	<line fill="none" stroke="#000000" stroke-width="0.459" x1="4471.2" y1="290.1" x2="4471.2" y2="275.3"/>
	<path d="M4454.1,274.1h17.3v2.4h-17.3V274.1z"/>
	<line fill="none" stroke="#000000" stroke-width="0.459" x1="4493.2" y1="290.1" x2="4493.2" y2="274.1"/>
	<g enable-background="new    ">
		<path d="M4491.4,288.5c1.6,0,2.5,1.1,2,2.5c-0.5,1.4-2.2,2.5-3.8,2.5s-2.5-1.2-2-2.5C4488.1,289.5,4489.8,288.5,4491.4,288.5z"/>
	</g>
	<line fill="none" stroke="#000000" stroke-width="0.459" x1="4523.6" y1="290.1" x2="4523.6" y2="274.1"/>
	<g enable-background="new    ">
		<path d="M4521.8,288.5c1.6,0,2.5,1.1,2,2.5c-0.5,1.4-2.2,2.5-3.8,2.5c-1.6,0-2.5-1.2-2-2.5
			C4518.5,289.5,4520.2,288.5,4521.8,288.5z"/>
	</g>
	<line fill="none" stroke="#000000" stroke-width="0.459" x1="4559.2" y1="290.1" x2="4559.2" y2="274.1"/>
	<g enable-background="new    ">
		<path d="M4557.4,288.5c1.6,0,2.5,1.1,2,2.5c-0.5,1.4-2.2,2.5-3.8,2.5s-2.5-1.2-2-2.5C4554.1,289.5,4555.8,288.5,4557.4,288.5z"/>
	</g>
	<g enable-background="new    ">
		<path d="M4584.6,288.5c1.6,0,2.5,1.1,2,2.5c-0.5,1.4-2.2,2.5-3.8,2.5s-2.5-1.2-2-2.5C4581.3,289.5,4583,288.5,4584.6,288.5z"/>
	</g>
	<line fill="none" stroke="#000000" stroke-width="0.459" x1="4586.4" y1="290.1" x2="4586.4" y2="275.3"/>
	<g enable-background="new    ">
		<path d="M4601.4,288.5c1.6,0,2.5,1.1,2,2.5c-0.5,1.4-2.2,2.5-3.8,2.5s-2.5-1.2-2-2.5C4598.1,289.5,4599.8,288.5,4601.4,288.5z"/>
	</g>
	<line fill="none" stroke="#000000" stroke-width="0.459" x1="4603.2" y1="290.1" x2="4603.2" y2="275.3"/>
	<path d="M4586.1,274.1h17.3v2.4h-17.3V274.1z"/>
	<line fill="none" stroke="#000000" stroke-width="0.459" x1="4625.2" y1="290.1" x2="4625.2" y2="274.1"/>
	<g enable-background="new    ">
		<path d="M4623.4,288.5c1.6,0,2.5,1.1,2,2.5c-0.5,1.4-2.2,2.5-3.8,2.5s-2.5-1.2-2-2.5C4620.1,289.5,4621.8,288.5,4623.4,288.5z"/>
	</g>
	<line fill="none" stroke="#000000" stroke-width="0.459" x1="4655.8" y1="290.1" x2="4655.8" y2="274.1"/>
	<g enable-background="new    ">
		<path d="M4654,288.5c1.6,0,2.5,1.1,2,2.5c-0.5,1.4-2.2,2.5-3.8,2.5c-1.6,0-2.5-1.2-2-2.5C4650.7,289.5,4652.4,288.5,4654,288.5z"
			/>
	</g>
	<line fill="none" stroke="#000000" stroke-width="0.459" x1="4691.2" y1="290.1" x2="4691.2" y2="274.1"/>
	<g enable-background="new    ">
		<path d="M4689.4,288.5c1.6,0,2.5,1.1,2,2.5c-0.5,1.4-2.2,2.5-3.8,2.5s-2.5-1.2-2-2.5C4686.1,289.5,4687.8,288.5,4689.4,288.5z"/>
	</g>
	<g enable-background="new    ">
		<path d="M4719.8,288.5c1.6,0,2.5,1.1,2,2.5c-0.5,1.4-2.2,2.5-3.8,2.5c-1.6,0-2.5-1.2-2-2.5
			C4716.5,289.5,4718.2,288.5,4719.8,288.5z"/>
	</g>
	<line fill="none" stroke="#000000" stroke-width="0.459" x1="4721.6" y1="290.1" x2="4721.6" y2="275.3"/>
	<g enable-background="new    ">
		<path d="M4735,288.5c1.6,0,2.5,1.1,2,2.5c-0.5,1.4-2.2,2.5-3.8,2.5c-1.6,0-2.5-1.2-2-2.5C4731.7,289.5,4733.4,288.5,4735,288.5z"
			/>
	</g>
	<line fill="none" stroke="#000000" stroke-width="0.459" x1="4736.8" y1="290.1" x2="4736.8" y2="275.3"/>
	<path d="M4721.3,274.1h15.7v2.4h-15.7V274.1z"/>
	<line fill="none" stroke="#000000" stroke-width="0.459" x1="4757.2" y1="290.1" x2="4757.2" y2="274.1"/>
	<g enable-background="new    ">
		<path d="M4755.4,288.5c1.6,0,2.5,1.1,2,2.5c-0.5,1.4-2.2,2.5-3.8,2.5s-2.5-1.2-2-2.5C4752.1,289.5,4753.8,288.5,4755.4,288.5z"/>
	</g>
	<line fill="none" stroke="#000000" stroke-width="0.459" x1="4787.6" y1="290.1" x2="4787.6" y2="274.1"/>
	<g enable-background="new    ">
		<path d="M4785.8,288.5c1.6,0,2.5,1.1,2,2.5c-0.5,1.4-2.2,2.5-3.8,2.5c-1.6,0-2.5-1.2-2-2.5
			C4782.5,289.5,4784.2,288.5,4785.8,288.5z"/>
	</g>
	<line fill="none" stroke="#000000" stroke-width="0.459" x1="4823.2" y1="290.1" x2="4823.2" y2="274.1"/>
	<g enable-background="new    ">
		<path d="M4823.5,291c-0.4,1-1.2,1.8-1.8,2.1c-0.6,0.3-1.4,0.4-2.2,0.4c-0.5,0-1.5-0.2-1.8-0.8c-0.4-0.7-0.1-1.4,0-1.8
			c0.4-1,1.1-1.6,1.7-2c0.6-0.3,1.5-0.6,2.5-0.5c0.4,0.1,1.3,0.1,1.7,0.8C4823.8,289.7,4823.6,290.7,4823.5,291z M4821.2,289.5
			c-0.4,0.2-0.7,0.4-1.1,0.6c-0.4,0.2-0.7,0.4-1.1,0.7c-0.6,0.3-1.3,1-0.9,1.6c0.4,0.6,1.3,0.3,1.9,0c0.4-0.2,0.8-0.4,1.2-0.6
			c0.4-0.2,0.7-0.4,1.1-0.7c0.5-0.3,1.3-1,0.9-1.6C4822.7,288.9,4821.8,289.2,4821.2,289.5z"/>
	</g>
	<line fill="none" stroke="#000000" stroke-width="0.459" x1="4889.2" y1="290.1" x2="4889.2" y2="274.1"/>
	<g enable-background="new    ">
		<path d="M4887.4,288.5c1.6,0,2.5,1.1,2,2.5c-0.5,1.4-2.2,2.5-3.8,2.5s-2.5-1.2-2-2.5C4884.1,289.5,4885.8,288.5,4887.4,288.5z"/>
	</g>
	<line fill="none" stroke="#000000" stroke-width="0.459" x1="4916.4" y1="290.1" x2="4916.4" y2="274.1"/>
	<g enable-background="new    ">
		<path d="M4914.6,288.5c1.6,0,2.5,1.1,2,2.5c-0.5,1.4-2.2,2.5-3.8,2.5s-2.5-1.2-2-2.5C4911.3,289.5,4913,288.5,4914.6,288.5z"/>
	</g>
	<line fill="none" stroke="#000000" stroke-width="0.459" x1="4955.2" y1="290.1" x2="4955.2" y2="274.1"/>
	<g enable-background="new    ">
		<path d="M4953.4,288.5c1.6,0,2.5,1.1,2,2.5c-0.5,1.4-2.2,2.5-3.8,2.5s-2.5-1.2-2-2.5C4950.1,289.5,4951.8,288.5,4953.4,288.5z"/>
	</g>
	<g enable-background="new    ">
		<path d="M4980.6,288.5c1.6,0,2.5,1.1,2,2.5c-0.5,1.4-2.2,2.5-3.8,2.5s-2.5-1.2-2-2.5C4977.3,289.5,4979,288.5,4980.6,288.5z"/>
	</g>
	<line fill="none" stroke="#000000" stroke-width="0.459" x1="4982.4" y1="290.1" x2="4982.4" y2="275.3"/>
	<g enable-background="new    ">
		<path d="M4997.4,288.5c1.6,0,2.5,1.1,2,2.5c-0.5,1.4-2.2,2.5-3.8,2.5s-2.5-1.2-2-2.5C4994.1,289.5,4995.8,288.5,4997.4,288.5z"/>
	</g>
	<line fill="none" stroke="#000000" stroke-width="0.459" x1="4999.2" y1="290.1" x2="4999.2" y2="275.3"/>
	<path d="M4982.1,274.1h17.3v2.4h-17.3V274.1z"/>
	<line fill="none" stroke="#000000" stroke-width="0.459" x1="5021.2" y1="290.1" x2="5021.2" y2="274.1"/>
	<g enable-background="new    ">
		<path d="M5019.4,288.5c1.6,0,2.5,1.1,2,2.5c-0.5,1.4-2.2,2.5-3.8,2.5s-2.5-1.2-2-2.5C5016.1,289.5,5017.8,288.5,5019.4,288.5z"/>
	</g>
	<line fill="none" stroke="#000000" stroke-width="0.459" x1="5051.6" y1="290.1" x2="5051.6" y2="274.1"/>
	<g enable-background="new    ">
		<path d="M5049.8,288.5c1.6,0,2.5,1.1,2,2.5c-0.5,1.4-2.2,2.5-3.8,2.5c-1.6,0-2.5-1.2-2-2.5
			C5046.5,289.5,5048.2,288.5,5049.8,288.5z"/>
	</g>
	<line fill="none" stroke="#000000" stroke-width="0.459" x1="5087.2" y1="290.1" x2="5087.2" y2="274.1"/>
	<g enable-background="new    ">
		<path d="M5085.4,288.5c1.6,0,2.5,1.1,2,2.5c-0.5,1.4-2.2,2.5-3.8,2.5s-2.5-1.2-2-2.5C5082.1,289.5,5083.8,288.5,5085.4,288.5z"/>
	</g>
	<g enable-background="new    ">
		<path d="M5112.6,288.5c1.6,0,2.5,1.1,2,2.5c-0.5,1.4-2.2,2.5-3.8,2.5s-2.5-1.2-2-2.5C5109.3,289.5,5111,288.5,5112.6,288.5z"/>
	</g>
	<line fill="none" stroke="#000000" stroke-width="0.459" x1="5114.4" y1="290.1" x2="5114.4" y2="275.3"/>
	<g enable-background="new    ">
		<path d="M5129.4,288.5c1.6,0,2.5,1.1,2,2.5c-0.5,1.4-2.2,2.5-3.8,2.5s-2.5-1.2-2-2.5C5126.1,289.5,5127.8,288.5,5129.4,288.5z"/>
	</g>
	<line fill="none" stroke="#000000" stroke-width="0.459" x1="5131.2" y1="290.1" x2="5131.2" y2="275.3"/>
	<path d="M5114.1,274.1h17.3v2.4h-17.3V274.1z"/>
	<line fill="none" stroke="#000000" stroke-width="0.459" x1="5153.4" y1="290.1" x2="5153.4" y2="274.1"/>
	<g enable-background="new    ">
		<path d="M5151.6,288.5c1.6,0,2.5,1.1,2,2.5c-0.5,1.4-2.2,2.5-3.8,2.5s-2.5-1.2-2-2.5C5148.3,289.5,5150,288.5,5151.6,288.5z"/>
	</g>
	<line fill="none" stroke="#000000" stroke-width="0.459" x1="5183.8" y1="290.1" x2="5183.8" y2="274.1"/>
	<g enable-background="new    ">
		<path d="M5182,288.5c1.6,0,2.5,1.1,2,2.5c-0.5,1.4-2.2,2.5-3.8,2.5c-1.6,0-2.5-1.2-2-2.5C5178.7,289.5,5180.4,288.5,5182,288.5z"
			/>
	</g>
	<line fill="none" stroke="#000000" stroke-width="0.459" x1="5219.2" y1="290.1" x2="5219.2" y2="274.1"/>
	<g enable-background="new    ">
		<path d="M5217.4,288.5c1.6,0,2.5,1.1,2,2.5c-0.5,1.4-2.2,2.5-3.8,2.5s-2.5-1.2-2-2.5C5214.1,289.5,5215.8,288.5,5217.4,288.5z"/>
	</g>
	<g enable-background="new    ">
		<path d="M5244.6,288.5c1.6,0,2.5,1.1,2,2.5c-0.5,1.4-2.2,2.5-3.8,2.5s-2.5-1.2-2-2.5C5241.3,289.5,5243,288.5,5244.6,288.5z"/>
	</g>
	<line fill="none" stroke="#000000" stroke-width="0.459" x1="5246.4" y1="290.1" x2="5246.4" y2="275.3"/>
	<g enable-background="new    ">
		<path d="M5261.4,288.5c1.6,0,2.5,1.1,2,2.5c-0.5,1.4-2.2,2.5-3.8,2.5s-2.5-1.2-2-2.5C5258.1,289.5,5259.8,288.5,5261.4,288.5z"/>
	</g>
	<line fill="none" stroke="#000000" stroke-width="0.459" x1="5263.2" y1="290.1" x2="5263.2" y2="275.3"/>
	<path d="M5246.1,274.1h17.3v2.4h-17.3V274.1z"/>
	<line fill="none" stroke="#000000" stroke-width="0.459" x1="5285.2" y1="290.1" x2="5285.2" y2="274.1"/>
	<g enable-background="new    ">
		<path d="M5283.4,288.5c1.6,0,2.5,1.1,2,2.5c-0.5,1.4-2.2,2.5-3.8,2.5s-2.5-1.2-2-2.5C5280.1,289.5,5281.8,288.5,5283.4,288.5z"/>
	</g>
	<line fill="none" stroke="#000000" stroke-width="0.459" x1="5315.6" y1="290.1" x2="5315.6" y2="274.1"/>
	<g enable-background="new    ">
		<path d="M5313.8,288.5c1.6,0,2.5,1.1,2,2.5c-0.5,1.4-2.2,2.5-3.8,2.5s-2.5-1.2-2-2.5C5310.5,289.5,5312.2,288.5,5313.8,288.5z"/>
	</g>
	<line fill="none" stroke="#000000" stroke-width="0.459" x1="5351.2" y1="290.1" x2="5351.2" y2="274.1"/>
	<g enable-background="new    ">
		<path d="M5349.4,288.5c1.6,0,2.5,1.1,2,2.5c-0.5,1.4-2.2,2.5-3.8,2.5s-2.5-1.2-2-2.5C5346.1,289.5,5347.8,288.5,5349.4,288.5z"/>
	</g>
	<g enable-background="new    ">
		<path d="M5376.6,288.5c1.6,0,2.5,1.1,2,2.5c-0.5,1.4-2.2,2.5-3.8,2.5s-2.5-1.2-2-2.5C5373.3,289.5,5375,288.5,5376.6,288.5z"/>
	</g>
	<line fill="none" stroke="#000000" stroke-width="0.459" x1="5378.4" y1="290.1" x2="5378.4" y2="275.3"/>
	<g enable-background="new    ">
		<path d="M5393.4,288.5c1.6,0,2.5,1.1,2,2.5c-0.5,1.4-2.2,2.5-3.8,2.5s-2.5-1.2-2-2.5C5390.1,289.5,5391.8,288.5,5393.4,288.5z"/>
	</g>
	<line fill="none" stroke="#000000" stroke-width="0.459" x1="5395.2" y1="290.1" x2="5395.2" y2="275.3"/>
	<path d="M5378.1,274.1h17.3v2.4h-17.3V274.1z"/>
	<line fill="none" stroke="#000000" stroke-width="0.459" x1="5417.2" y1="290.1" x2="5417.2" y2="274.1"/>
	<g enable-background="new    ">
		<path d="M5415.4,288.5c1.6,0,2.5,1.1,2,2.5c-0.5,1.4-2.2,2.5-3.8,2.5s-2.5-1.2-2-2.5C5412.1,289.5,5413.8,288.5,5415.4,288.5z"/>
	</g>
	<line fill="none" stroke="#000000" stroke-width="0.459" x1="5450.8" y1="290.1" x2="5450.8" y2="274.1"/>
	<g enable-background="new    ">
		<path d="M5449,288.5c1.6,0,2.5,1.1,2,2.5c-0.5,1.4-2.2,2.5-3.8,2.5c-1.6,0-2.5-1.2-2-2.5C5445.7,289.5,5447.4,288.5,5449,288.5z"
			/>
	</g>
	<line fill="none" stroke="#000000" stroke-width="0.459" x1="5483.2" y1="290.1" x2="5483.2" y2="274.1"/>
	<g enable-background="new    ">
		<path d="M5481.4,288.5c1.6,0,2.5,1.1,2,2.5c-0.5,1.4-2.2,2.5-3.8,2.5s-2.5-1.2-2-2.5C5478.1,289.5,5479.8,288.5,5481.4,288.5z"/>
	</g>
	<g enable-background="new    ">
		<path d="M5508.6,288.5c1.6,0,2.5,1.1,2,2.5c-0.5,1.4-2.2,2.5-3.8,2.5s-2.5-1.2-2-2.5C5505.3,289.5,5507,288.5,5508.6,288.5z"/>
	</g>
	<line fill="none" stroke="#000000" stroke-width="0.459" x1="5510.4" y1="290.1" x2="5510.4" y2="275.3"/>
	<g enable-background="new    ">
		<path d="M5525.4,288.5c1.6,0,2.5,1.1,2,2.5c-0.5,1.4-2.2,2.5-3.8,2.5s-2.5-1.2-2-2.5C5522.1,289.5,5523.8,288.5,5525.4,288.5z"/>
	</g>
	<line fill="none" stroke="#000000" stroke-width="0.459" x1="5527.2" y1="290.1" x2="5527.2" y2="275.3"/>
	<path d="M5510.1,274.1h17.3v2.4h-17.3V274.1z"/>
	<line fill="none" stroke="#000000" stroke-width="0.459" x1="5549.2" y1="290.1" x2="5549.2" y2="274.1"/>
	<g enable-background="new    ">
		<path d="M5547.4,288.5c1.6,0,2.5,1.1,2,2.5c-0.5,1.4-2.2,2.5-3.8,2.5s-2.5-1.2-2-2.5C5544.1,289.5,5545.8,288.5,5547.4,288.5z"/>
	</g>
	<line fill="none" stroke="#000000" stroke-width="0.459" x1="5579.6" y1="290.1" x2="5579.6" y2="274.1"/>
	<g enable-background="new    ">
		<path d="M5577.8,288.5c1.6,0,2.5,1.1,2,2.5c-0.5,1.4-2.2,2.5-3.8,2.5s-2.5-1.2-2-2.5C5574.5,289.5,5576.2,288.5,5577.8,288.5z"/>
	</g>
	<line fill="none" stroke="#000000" stroke-width="0.459" x1="5615.2" y1="290.1" x2="5615.2" y2="274.1"/>
	<g enable-background="new    ">
		<path d="M5613.4,288.5c1.6,0,2.5,1.1,2,2.5c-0.5,1.4-2.2,2.5-3.8,2.5s-2.5-1.2-2-2.5C5610.1,289.5,5611.8,288.5,5613.4,288.5z"/>
	</g>
	<g enable-background="new    ">
		<path d="M5640.6,288.5c1.6,0,2.5,1.1,2,2.5c-0.5,1.4-2.2,2.5-3.8,2.5s-2.5-1.2-2-2.5C5637.3,289.5,5639,288.5,5640.6,288.5z"/>
	</g>
	<line fill="none" stroke="#000000" stroke-width="0.459" x1="5642.4" y1="290.1" x2="5642.4" y2="275.3"/>
	<g enable-background="new    ">
		<path d="M5657.4,288.5c1.6,0,2.5,1.1,2,2.5c-0.5,1.4-2.2,2.5-3.8,2.5s-2.5-1.2-2-2.5C5654.1,289.5,5655.8,288.5,5657.4,288.5z"/>
	</g>
	<line fill="none" stroke="#000000" stroke-width="0.459" x1="5659.2" y1="290.1" x2="5659.2" y2="275.3"/>
	<path d="M5642.1,274.1h17.3v2.4h-17.3V274.1z"/>
	<line fill="none" stroke="#000000" stroke-width="0.459" x1="5681.2" y1="290.1" x2="5681.2" y2="274.1"/>
	<g enable-background="new    ">
		<path d="M5679.4,288.5c1.6,0,2.5,1.1,2,2.5c-0.5,1.4-2.2,2.5-3.8,2.5s-2.5-1.2-2-2.5C5676.1,289.5,5677.8,288.5,5679.4,288.5z"/>
	</g>
	<line fill="none" stroke="#000000" stroke-width="0.459" x1="5711.8" y1="290.1" x2="5711.8" y2="274.1"/>
	<g enable-background="new    ">
		<path d="M5710,288.5c1.6,0,2.5,1.1,2,2.5c-0.5,1.4-2.2,2.5-3.8,2.5c-1.6,0-2.5-1.2-2-2.5C5706.7,289.5,5708.4,288.5,5710,288.5z"
			/>
	</g>
	<line fill="none" stroke="#000000" stroke-width="0.459" x1="5747.2" y1="290.1" x2="5747.2" y2="274.1"/>
	<g enable-background="new    ">
		<path d="M5745.4,288.5c1.6,0,2.5,1.1,2,2.5c-0.5,1.4-2.2,2.5-3.8,2.5s-2.5-1.2-2-2.5C5742.1,289.5,5743.8,288.5,5745.4,288.5z"/>
	</g>
	<g enable-background="new    ">
		<path d="M5775.8,288.5c1.6,0,2.5,1.1,2,2.5c-0.5,1.4-2.2,2.5-3.8,2.5c-1.6,0-2.5-1.2-2-2.5
			C5772.5,289.5,5774.2,288.5,5775.8,288.5z"/>
	</g>
	<line fill="none" stroke="#000000" stroke-width="0.459" x1="5777.6" y1="290.1" x2="5777.6" y2="275.3"/>
	<g enable-background="new    ">
		<path d="M5791,288.5c1.6,0,2.5,1.1,2,2.5c-0.5,1.4-2.2,2.5-3.8,2.5c-1.6,0-2.5-1.2-2-2.5C5787.7,289.5,5789.4,288.5,5791,288.5z"
			/>
	</g>
	<line fill="none" stroke="#000000" stroke-width="0.459" x1="5792.8" y1="290.1" x2="5792.8" y2="275.3"/>
	<path d="M5777.3,274.1h15.7v2.4h-15.7V274.1z"/>
	<line fill="none" stroke="#000000" stroke-width="0.459" x1="5813.2" y1="290.1" x2="5813.2" y2="274.1"/>
	<g enable-background="new    ">
		<path d="M5811.4,288.5c1.6,0,2.5,1.1,2,2.5c-0.5,1.4-2.2,2.5-3.8,2.5s-2.5-1.2-2-2.5C5808.1,289.5,5809.8,288.5,5811.4,288.5z"/>
	</g>
	<line fill="none" stroke="#000000" stroke-width="0.459" x1="5843.6" y1="290.1" x2="5843.6" y2="274.1"/>
	<g enable-background="new    ">
		<path d="M5841.8,288.5c1.6,0,2.5,1.1,2,2.5c-0.5,1.4-2.2,2.5-3.8,2.5c-1.6,0-2.5-1.2-2-2.5
			C5838.5,289.5,5840.2,288.5,5841.8,288.5z"/>
	</g>
	<line fill="none" stroke="#000000" stroke-width="0.459" x1="5879.2" y1="290.1" x2="5879.2" y2="274.1"/>
	<g enable-background="new    ">
		<path d="M5879.5,291c-0.4,1-1.2,1.8-1.8,2.1c-0.6,0.3-1.4,0.4-2.2,0.4c-0.5,0-1.5-0.2-1.8-0.8c-0.4-0.7-0.1-1.4,0-1.8
			c0.4-1,1.1-1.6,1.7-2c0.6-0.3,1.5-0.6,2.5-0.5c0.4,0.1,1.3,0.1,1.7,0.8C5879.8,289.7,5879.6,290.7,5879.5,291z M5877.2,289.5
			c-0.4,0.2-0.7,0.4-1.1,0.6c-0.4,0.2-0.7,0.4-1.1,0.7c-0.6,0.3-1.3,1-0.9,1.6c0.4,0.6,1.3,0.3,1.9,0c0.4-0.2,0.8-0.4,1.2-0.6
			c0.4-0.2,0.7-0.4,1.1-0.7c0.5-0.3,1.3-1,0.9-1.6C5878.7,288.9,5877.8,289.2,5877.2,289.5z"/>
	</g>
</g>
</svg>
