<?xml version="1.0" encoding="utf-8"?>
<!-- Generator: Adobe Illustrator 16.0.0, SVG Export Plug-In . SVG Version: 6.00 Build 0)  -->
<!DOCTYPE svg PUBLIC "-//W3C//DTD SVG 1.1//EN" "http://www.w3.org/Graphics/SVG/1.1/DTD/svg11.dtd">
<svg version="1.1" id="Layer_1" xmlns="http://www.w3.org/2000/svg" xmlns:xlink="http://www.w3.org/1999/xlink" x="0px" y="0px"
	 width="4320px" height="63.3px" viewBox="1648 259 4320 63.3" enable-background="new 1648 259 4320 63.3" xml:space="preserve">
<g id="Music">
	<rect x="1648" y="110.4" fill="#FFFFFF" width="4320" height="288"/>
	<line fill="none" stroke="#000000" stroke-width="0.459" x1="1676.4" y1="153.6" x2="1676.4" y2="364.8"/>
	<g enable-background="new    ">
		<path d="M1686.2,300.6c-4-1.9-4.6-4.3-4.8-6.8c-0.2-2.7,1.5-5.4,3.1-6.9c0.9-0.9,1.9-1.7,3.1-2.6c0-0.7-0.2-0.9-0.3-1.9
			c0-0.4-0.3-2.3,0.1-4.5c0.2-1.3,1.9-4.3,3-4.3c0.9,0,2.2,3.4,2.2,5.2c0.1,2.7-0.6,3.9-1.4,5.3c-0.4,0.7-0.8,1.2-1.3,1.7
			c-0.5,0.6-1,0.9-1.5,1.3c0,0,0.6,3.5,0.6,3.7c1.2-0.2,2.7,0.3,3.3,0.7c1.4,1,1.9,2.4,2,3.8c0.2,2.2-1,4.5-3.6,5.5
			c0,0,0.4,2.8,0.5,3.3c0.2,1.5,0.2,2.5-0.2,3.1c-0.6,1-1.5,2-3.2,2.1c-1.3,0.1-4-0.6-4.1-2.7c-0.1-1.2,0.5-2.6,2-2.7
			c0.9-0.1,2,0.7,2.1,1.8c0.1,0.9-0.5,1.9-2.1,2.4c0.2,0.3,1,0.7,2.1,0.7c1.1,0,2.3-0.7,2.8-1.7c0.3-0.7,0.3-1.8,0.2-2.9
			c-0.1-0.4-0.5-3.3-0.5-3.3C1688.9,301.1,1687,301,1686.2,300.6z M1686.5,296c0,0.9,0.8,2,1.5,2.4c-0.1,0.1-0.2,0.2-0.2,0.2
			c-0.8-0.4-1.5-1-1.6-1.2c-0.6-0.7-0.8-1.2-0.9-2.3c-0.1-1.1,0.5-2.5,1.8-3.5c0.7-0.5,1-0.6,1.6-0.7l-0.6-3.5
			c-0.6,0.3-3.1,2.3-4.1,3.9c-0.9,1.4-1.5,2.6-1.4,4c0.2,3.2,3.7,5.8,7.5,4.9c0,0-1.1-6.8-1.1-6.8
			C1687,293.5,1686.5,295.1,1686.5,296z M1688.1,283.9c1.7-1.3,3.9-3.8,3.8-5.7c0-0.6-0.3-1.7-1.2-1.7
			C1688.8,276.6,1687.7,280.7,1688.1,283.9z M1690.7,300.1c2.2-0.7,2.3-2.6,2.2-3.8c-0.1-0.9-0.5-3.1-3.3-2.9L1690.7,300.1z"/>
	</g>
	<g enable-background="new    ">
		<path d="M1706.6,298.1v1.3c0,0.8,0.9,0.7,0.9,0.7v0.5h-4.2v-0.5c0,0,0.9,0,0.9-0.7v-1.3h-3.6l-0.3-0.4c2.3-3.1,2.3-3.7,2.9-6.5
			h3.3c-0.8,1.5-3.4,4.2-5.3,6.4h3v-2.4l2.3-2.6v4.9h1.4v0.5H1706.6z"/>
	</g>
	<g enable-background="new    ">
		<path d="M1706.6,288.5v1.3c0,0.8,0.9,0.7,0.9,0.7v0.5h-4.2v-0.5c0,0,0.9,0,0.9-0.7v-1.3h-3.6l-0.3-0.4c2.3-3.1,2.3-3.7,2.9-6.5
			h3.3c-0.8,1.5-3.4,4.2-5.3,6.4h3v-2.4l2.3-2.6v4.9h1.4v0.5H1706.6z"/>
	</g>
	<line fill="none" stroke="#000000" stroke-width="0.459" x1="1776.4" y1="281.6" x2="1776.4" y2="364.8"/>
	<line fill="none" stroke="#000000" stroke-width="0.459" x1="1842.4" y1="281.6" x2="1842.4" y2="364.8"/>
	<line fill="none" stroke="#000000" stroke-width="0.459" x1="1908.4" y1="281.6" x2="1908.4" y2="364.8"/>
	<line fill="none" stroke="#000000" stroke-width="0.459" x1="1974.4" y1="281.6" x2="1974.4" y2="364.8"/>
	<line fill="none" stroke="#000000" stroke-width="0.459" x1="2040.4" y1="281.6" x2="2040.4" y2="364.8"/>
	<line fill="none" stroke="#000000" stroke-width="0.459" x1="2106.4" y1="281.6" x2="2106.4" y2="364.8"/>
	<line fill="none" stroke="#000000" stroke-width="0.459" x1="2172.4" y1="281.6" x2="2172.4" y2="364.8"/>
	<line fill="none" stroke="#000000" stroke-width="0.459" x1="2238.4" y1="281.6" x2="2238.4" y2="364.8"/>
	<line fill="none" stroke="#000000" stroke-width="0.459" x1="2304.4" y1="281.6" x2="2304.4" y2="364.8"/>
	<line fill="none" stroke="#000000" stroke-width="0.459" x1="2370.4" y1="281.6" x2="2370.4" y2="364.8"/>
	<line fill="none" stroke="#000000" stroke-width="0.459" x1="2436.4" y1="281.6" x2="2436.4" y2="364.8"/>
	<line fill="none" stroke="#000000" stroke-width="0.459" x1="2502.4" y1="281.6" x2="2502.4" y2="364.8"/>
	<line fill="none" stroke="#000000" stroke-width="0.459" x1="2568.4" y1="281.6" x2="2568.4" y2="364.8"/>
	<line fill="none" stroke="#000000" stroke-width="0.459" x1="2634.4" y1="281.6" x2="2634.4" y2="364.8"/>
	<line fill="none" stroke="#000000" stroke-width="0.459" x1="2700.4" y1="281.6" x2="2700.4" y2="364.8"/>
	<line fill="none" stroke="#000000" stroke-width="0.459" x1="2766.4" y1="281.6" x2="2766.4" y2="364.8"/>
	<line fill="none" stroke="#000000" stroke-width="0.459" x1="2832.4" y1="281.6" x2="2832.4" y2="364.8"/>
	<line fill="none" stroke="#000000" stroke-width="0.459" x1="2898.4" y1="281.6" x2="2898.4" y2="364.8"/>
	<line fill="none" stroke="#000000" stroke-width="0.459" x1="2964.4" y1="281.6" x2="2964.4" y2="364.8"/>
	<line fill="none" stroke="#000000" stroke-width="0.459" x1="3030.4" y1="281.6" x2="3030.4" y2="364.8"/>
	<line fill="none" stroke="#000000" stroke-width="0.459" x1="3096.4" y1="281.6" x2="3096.4" y2="364.8"/>
	<line fill="none" stroke="#000000" stroke-width="0.459" x1="3162.4" y1="281.6" x2="3162.4" y2="364.8"/>
	<line fill="none" stroke="#000000" stroke-width="0.459" x1="3228.4" y1="281.6" x2="3228.4" y2="364.8"/>
	<line fill="none" stroke="#000000" stroke-width="0.459" x1="3294.4" y1="281.6" x2="3294.4" y2="364.8"/>
	<line fill="none" stroke="#000000" stroke-width="0.459" x1="3360.4" y1="281.6" x2="3360.4" y2="364.8"/>
	<line fill="none" stroke="#000000" stroke-width="0.459" x1="3426.4" y1="281.6" x2="3426.4" y2="364.8"/>
	<line fill="none" stroke="#000000" stroke-width="0.459" x1="3492.4" y1="281.6" x2="3492.4" y2="364.8"/>
	<line fill="none" stroke="#000000" stroke-width="0.459" x1="3558.4" y1="281.6" x2="3558.4" y2="364.8"/>
	<line fill="none" stroke="#000000" stroke-width="0.459" x1="3624.4" y1="281.6" x2="3624.4" y2="364.8"/>
	<line fill="none" stroke="#000000" stroke-width="0.459" x1="3690.4" y1="281.6" x2="3690.4" y2="364.8"/>
	<line fill="none" stroke="#000000" stroke-width="0.459" x1="3756.4" y1="281.6" x2="3756.4" y2="364.8"/>
	<line fill="none" stroke="#000000" stroke-width="0.459" x1="3822.4" y1="281.6" x2="3822.4" y2="364.8"/>
	<line fill="none" stroke="#000000" stroke-width="0.459" x1="3888.4" y1="281.6" x2="3888.4" y2="364.8"/>
	<line fill="none" stroke="#000000" stroke-width="0.459" x1="3954.4" y1="281.6" x2="3954.4" y2="364.8"/>
	<line fill="none" stroke="#000000" stroke-width="0.459" x1="4020.4" y1="281.6" x2="4020.4" y2="364.8"/>
	<line fill="none" stroke="#000000" stroke-width="0.459" x1="4086.4" y1="281.6" x2="4086.4" y2="364.8"/>
	<line fill="none" stroke="#000000" stroke-width="0.459" x1="4152.4" y1="281.6" x2="4152.4" y2="364.8"/>
	<line fill="none" stroke="#000000" stroke-width="0.459" x1="4218.4" y1="281.6" x2="4218.4" y2="364.8"/>
	<line fill="none" stroke="#000000" stroke-width="0.459" x1="4284.4" y1="281.6" x2="4284.4" y2="364.8"/>
	<line fill="none" stroke="#000000" stroke-width="0.459" x1="4350.4" y1="281.6" x2="4350.4" y2="364.8"/>
	<line fill="none" stroke="#000000" stroke-width="0.459" x1="4416.4" y1="281.6" x2="4416.4" y2="364.8"/>
	<line fill="none" stroke="#000000" stroke-width="0.459" x1="4482.4" y1="281.6" x2="4482.4" y2="364.8"/>
	<line fill="none" stroke="#000000" stroke-width="0.459" x1="4548.4" y1="281.6" x2="4548.4" y2="364.8"/>
	<line fill="none" stroke="#000000" stroke-width="0.459" x1="4614.4" y1="281.6" x2="4614.4" y2="364.8"/>
	<line fill="none" stroke="#000000" stroke-width="0.459" x1="4680.4" y1="281.6" x2="4680.4" y2="364.8"/>
	<line fill="none" stroke="#000000" stroke-width="0.459" x1="4746.4" y1="281.6" x2="4746.4" y2="364.8"/>
	<line fill="none" stroke="#000000" stroke-width="0.459" x1="4812.4" y1="281.6" x2="4812.4" y2="364.8"/>
	<line fill="none" stroke="#000000" stroke-width="0.459" x1="4878.4" y1="281.6" x2="4878.4" y2="364.8"/>
	<line fill="none" stroke="#000000" stroke-width="0.459" x1="4944.4" y1="281.6" x2="4944.4" y2="364.8"/>
	<line fill="none" stroke="#000000" stroke-width="0.459" x1="5010.4" y1="281.6" x2="5010.4" y2="364.8"/>
	<line fill="none" stroke="#000000" stroke-width="0.459" x1="5076.4" y1="281.6" x2="5076.4" y2="364.8"/>
	<line fill="none" stroke="#000000" stroke-width="0.459" x1="5142.4" y1="281.6" x2="5142.4" y2="364.8"/>
	<line fill="none" stroke="#000000" stroke-width="0.459" x1="5208.4" y1="281.6" x2="5208.4" y2="364.8"/>
	<line fill="none" stroke="#000000" stroke-width="0.459" x1="5274.4" y1="281.6" x2="5274.4" y2="364.8"/>
	<line fill="none" stroke="#000000" stroke-width="0.459" x1="5340.4" y1="281.6" x2="5340.4" y2="364.8"/>
	<line fill="none" stroke="#000000" stroke-width="0.459" x1="5406.4" y1="281.6" x2="5406.4" y2="364.8"/>
	<line fill="none" stroke="#000000" stroke-width="0.459" x1="5472.4" y1="281.6" x2="5472.4" y2="364.8"/>
	<line fill="none" stroke="#000000" stroke-width="0.459" x1="5538.4" y1="281.6" x2="5538.4" y2="364.8"/>
	<line fill="none" stroke="#000000" stroke-width="0.459" x1="5604.4" y1="281.6" x2="5604.4" y2="364.8"/>
	<line fill="none" stroke="#000000" stroke-width="0.459" x1="5670.4" y1="281.6" x2="5670.4" y2="364.8"/>
	<line fill="none" stroke="#000000" stroke-width="0.459" x1="5736.4" y1="281.6" x2="5736.4" y2="364.8"/>
	<line fill="none" stroke="#000000" stroke-width="0.459" x1="5802.4" y1="281.6" x2="5802.4" y2="364.8"/>
	<line fill="none" stroke="#000000" stroke-width="0.459" x1="5868.4" y1="281.6" x2="5868.4" y2="364.8"/>
	<line fill="none" stroke="#000000" stroke-width="2.419" x1="5938.6" y1="281.6" x2="5938.6" y2="364.8"/>
	<line fill="none" stroke="#000000" stroke-width="0.459" x1="5934.7" y1="281.6" x2="5934.7" y2="364.8"/>
	<line fill="none" stroke="#000000" stroke-width="0.459" x1="1676.2" y1="281.6" x2="5939.8" y2="281.6"/>
	<line fill="none" stroke="#000000" stroke-width="0.459" x1="1676.2" y1="286.4" x2="5939.8" y2="286.4"/>
	<line fill="none" stroke="#000000" stroke-width="0.459" x1="1676.2" y1="291.2" x2="5939.8" y2="291.2"/>
	<line fill="none" stroke="#000000" stroke-width="0.459" x1="1676.2" y1="296" x2="5939.8" y2="296"/>
	<line fill="none" stroke="#000000" stroke-width="0.459" x1="1676.2" y1="300.8" x2="5939.8" y2="300.8"/>
	<line fill="none" stroke="#000000" stroke-width="0.459" x1="1721.2" y1="302.4" x2="1721.2" y2="286.4"/>
	<g enable-background="new    ">
		<path d="M1719.4,300.8c1.6,0,2.5,1.1,2,2.5c-0.5,1.4-2.2,2.5-3.8,2.5c-1.6,0-2.5-1.2-2-2.5
			C1716.1,301.9,1717.8,300.8,1719.4,300.8z"/>
	</g>
	<line fill="none" stroke="#000000" stroke-width="0.459" x1="1748.4" y1="302.4" x2="1748.4" y2="286.4"/>
	<g enable-background="new    ">
		<path d="M1746.6,300.8c1.6,0,2.5,1.1,2,2.5c-0.5,1.4-2.2,2.5-3.8,2.5c-1.6,0-2.5-1.2-2-2.5C1743.3,301.9,1745,300.8,1746.6,300.8z
			"/>
	</g>
	<line fill="none" stroke="#000000" stroke-width="0.459" x1="1787.2" y1="302.4" x2="1787.2" y2="286.4"/>
	<g enable-background="new    ">
		<path d="M1787.5,303.4c-0.4,1-1.2,1.8-1.8,2.1c-0.6,0.3-1.4,0.4-2.2,0.4c-0.5,0-1.5-0.2-1.8-0.8c-0.4-0.7-0.1-1.4,0-1.8
			c0.4-1,1.1-1.6,1.7-2c0.6-0.3,1.5-0.6,2.5-0.5c0.4,0.1,1.3,0.1,1.7,0.8C1787.8,302.1,1787.6,303,1787.5,303.4z M1785.2,301.8
			c-0.4,0.2-0.7,0.4-1.1,0.6c-0.4,0.2-0.7,0.4-1.1,0.7c-0.6,0.3-1.3,1-0.9,1.6c0.4,0.6,1.3,0.3,1.9,0c0.4-0.2,0.8-0.4,1.2-0.6
			s0.7-0.4,1.1-0.7c0.5-0.3,1.3-1,0.9-1.6C1786.7,301.2,1785.8,301.5,1785.2,301.8z"/>
	</g>
	<line fill="none" stroke="#000000" stroke-width="0.459" x1="1853.2" y1="302.4" x2="1853.2" y2="286.4"/>
	<g enable-background="new    ">
		<path d="M1851.4,300.8c1.6,0,2.5,1.1,2,2.5c-0.5,1.4-2.2,2.5-3.8,2.5c-1.6,0-2.5-1.2-2-2.5
			C1848.1,301.9,1849.8,300.8,1851.4,300.8z"/>
	</g>
	<line fill="none" stroke="#000000" stroke-width="0.459" x1="1883.6" y1="302.4" x2="1883.6" y2="286.4"/>
	<g enable-background="new    ">
		<path d="M1881.8,300.8c1.6,0,2.5,1.1,2,2.5c-0.5,1.4-2.2,2.5-3.8,2.5c-1.6,0-2.5-1.2-2-2.5
			C1878.5,301.9,1880.2,300.8,1881.8,300.8z"/>
	</g>
	<line fill="none" stroke="#000000" stroke-width="0.459" x1="1919.2" y1="302.4" x2="1919.2" y2="286.4"/>
	<g enable-background="new    ">
		<path d="M1919.5,303.4c-0.4,1-1.2,1.8-1.8,2.1c-0.6,0.3-1.4,0.4-2.2,0.4c-0.5,0-1.5-0.2-1.8-0.8c-0.4-0.7-0.1-1.4,0-1.8
			c0.4-1,1.1-1.6,1.7-2c0.6-0.3,1.5-0.6,2.5-0.5c0.4,0.1,1.3,0.1,1.7,0.8C1919.8,302.1,1919.6,303,1919.5,303.4z M1917.2,301.8
			c-0.4,0.2-0.7,0.4-1.1,0.6c-0.4,0.2-0.7,0.4-1.1,0.7c-0.6,0.3-1.3,1-0.9,1.6c0.4,0.6,1.3,0.3,1.9,0c0.4-0.2,0.8-0.4,1.2-0.6
			s0.7-0.4,1.1-0.7c0.5-0.3,1.3-1,0.9-1.6C1918.7,301.2,1917.8,301.5,1917.2,301.8z"/>
	</g>
	<g enable-background="new    ">
		<path d="M1983.6,300.8c1.6,0,2.5,1.1,2,2.5c-0.5,1.4-2.2,2.5-3.8,2.5c-1.6,0-2.5-1.2-2-2.5C1980.3,301.9,1982,300.8,1983.6,300.8z
			"/>
	</g>
	<line fill="none" stroke="#000000" stroke-width="0.459" x1="1985.4" y1="302.4" x2="1985.4" y2="287.6"/>
	<g enable-background="new    ">
		<path d="M1998.8,298.4c1.6,0,2.5,1.1,2,2.5c-0.5,1.4-2.2,2.5-3.8,2.5c-1.6,0-2.5-1.2-2-2.5
			C1995.5,299.5,1997.2,298.4,1998.8,298.4z"/>
	</g>
	<line fill="none" stroke="#000000" stroke-width="0.459" x1="2000.6" y1="300" x2="2000.6" y2="286.4"/>
	<path d="M1985.1,286.4l15.7-1.2v2.4l-15.7,1.2V286.4z"/>
	<g enable-background="new    ">
		<path d="M2014,296c1.6,0,2.5,1.1,2,2.5c-0.5,1.4-2.2,2.5-3.8,2.5c-1.6,0-2.5-1.2-2-2.5C2010.7,297.1,2012.4,296,2014,296z"/>
	</g>
	<line fill="none" stroke="#000000" stroke-width="0.459" x1="2015.8" y1="297.6" x2="2015.8" y2="282.8"/>
	<g enable-background="new    ">
		<path d="M2029,293.6c1.6,0,2.5,1.1,2,2.5c-0.5,1.4-2.2,2.5-3.8,2.5c-1.6,0-2.5-1.2-2-2.5C2025.7,294.7,2027.4,293.6,2029,293.6z"
			/>
	</g>
	<line fill="none" stroke="#000000" stroke-width="0.459" x1="2030.8" y1="295.2" x2="2030.8" y2="280.4"/>
	<path d="M2015.5,281.6l15.5-2.4v2.4l-15.5,2.4V281.6z"/>
	<line fill="none" stroke="#000000" stroke-width="0.459" x1="2051.2" y1="292.8" x2="2051.2" y2="276.8"/>
	<g enable-background="new    ">
		<path d="M2051.5,293.8c-0.4,1-1.2,1.8-1.8,2.1c-0.6,0.3-1.4,0.4-2.2,0.4c-0.5,0-1.5-0.2-1.8-0.8c-0.4-0.7-0.1-1.4,0-1.8
			c0.4-1,1.1-1.6,1.7-2c0.6-0.3,1.5-0.6,2.5-0.5c0.4,0.1,1.3,0.1,1.7,0.8C2051.8,292.5,2051.6,293.4,2051.5,293.8z M2049.2,292.2
			c-0.4,0.2-0.7,0.4-1.1,0.6c-0.4,0.2-0.7,0.4-1.1,0.7c-0.6,0.3-1.3,1-0.9,1.6c0.4,0.6,1.3,0.3,1.9,0c0.4-0.2,0.8-0.4,1.2-0.6
			s0.7-0.4,1.1-0.7c0.5-0.3,1.3-1,0.9-1.6C2050.7,291.6,2049.8,291.9,2049.2,292.2z"/>
	</g>
	<line fill="none" stroke="#000000" stroke-width="0.459" x1="2117.2" y1="292.8" x2="2117.2" y2="276.8"/>
	<g enable-background="new    ">
		<path d="M2115.4,291.2c1.6,0,2.5,1.1,2,2.5c-0.5,1.4-2.2,2.5-3.8,2.5c-1.6,0-2.5-1.2-2-2.5
			C2112.1,292.3,2113.8,291.2,2115.4,291.2z"/>
	</g>
	<line fill="none" stroke="#000000" stroke-width="0.459" x1="2147.6" y1="292.8" x2="2147.6" y2="276.8"/>
	<g enable-background="new    ">
		<path d="M2145.8,291.2c1.6,0,2.5,1.1,2,2.5c-0.5,1.4-2.2,2.5-3.8,2.5c-1.6,0-2.5-1.2-2-2.5
			C2142.5,292.3,2144.2,291.2,2145.8,291.2z"/>
	</g>
	<line fill="none" stroke="#000000" stroke-width="0.459" x1="2183.2" y1="302.4" x2="2183.2" y2="286.4"/>
	<g enable-background="new    ">
		<path d="M2183.5,303.4c-0.4,1-1.2,1.8-1.8,2.1c-0.6,0.3-1.4,0.4-2.2,0.4c-0.5,0-1.5-0.2-1.8-0.8c-0.4-0.7-0.1-1.4,0-1.8
			c0.4-1,1.1-1.6,1.7-2c0.6-0.3,1.5-0.6,2.5-0.5c0.4,0.1,1.3,0.1,1.7,0.8C2183.8,302.1,2183.6,303,2183.5,303.4z M2181.2,301.8
			c-0.4,0.2-0.7,0.4-1.1,0.6c-0.4,0.2-0.7,0.4-1.1,0.7c-0.6,0.3-1.3,1-0.9,1.6c0.4,0.6,1.3,0.3,1.9,0c0.4-0.2,0.8-0.4,1.2-0.6
			s0.7-0.4,1.1-0.7c0.5-0.3,1.3-1,0.9-1.6C2182.7,301.2,2181.8,301.5,2181.2,301.8z"/>
	</g>
	<line fill="none" stroke="#000000" stroke-width="0.459" x1="2249.2" y1="302.4" x2="2249.2" y2="286.4"/>
	<g enable-background="new    ">
		<path d="M2247.4,300.8c1.6,0,2.5,1.1,2,2.5c-0.5,1.4-2.2,2.5-3.8,2.5c-1.6,0-2.5-1.2-2-2.5
			C2244.1,301.9,2245.8,300.8,2247.4,300.8z"/>
	</g>
	<line fill="none" stroke="#000000" stroke-width="0.459" x1="2282.8" y1="302.4" x2="2282.8" y2="286.4"/>
	<g enable-background="new    ">
		<path d="M2281,300.8c1.6,0,2.5,1.1,2,2.5c-0.5,1.4-2.2,2.5-3.8,2.5c-1.6,0-2.5-1.2-2-2.5C2277.7,301.9,2279.4,300.8,2281,300.8z"
			/>
	</g>
	<line fill="none" stroke="#000000" stroke-width="0.459" x1="2315.2" y1="302.4" x2="2315.2" y2="286.4"/>
	<g enable-background="new    ">
		<path d="M2315.5,303.4c-0.4,1-1.2,1.8-1.8,2.1c-0.6,0.3-1.4,0.4-2.2,0.4c-0.5,0-1.5-0.2-1.8-0.8c-0.4-0.7-0.1-1.4,0-1.8
			c0.4-1,1.1-1.6,1.7-2c0.6-0.3,1.5-0.6,2.5-0.5c0.4,0.1,1.3,0.1,1.7,0.8C2315.8,302.1,2315.6,303,2315.5,303.4z M2313.2,301.8
			c-0.4,0.2-0.7,0.4-1.1,0.6c-0.4,0.2-0.7,0.4-1.1,0.7c-0.6,0.3-1.3,1-0.9,1.6c0.4,0.6,1.3,0.3,1.9,0c0.4-0.2,0.8-0.4,1.2-0.6
			s0.7-0.4,1.1-0.7c0.5-0.3,1.3-1,0.9-1.6C2314.7,301.2,2313.8,301.5,2313.2,301.8z"/>
	</g>
	<line fill="none" stroke="#000000" stroke-width="0.459" x1="2381.2" y1="302.4" x2="2381.2" y2="286.4"/>
	<g enable-background="new    ">
		<path d="M2379.4,300.8c1.6,0,2.5,1.1,2,2.5c-0.5,1.4-2.2,2.5-3.8,2.5c-1.6,0-2.5-1.2-2-2.5
			C2376.1,301.9,2377.8,300.8,2379.4,300.8z"/>
	</g>
	<line fill="none" stroke="#000000" stroke-width="0.459" x1="2411.6" y1="302.4" x2="2411.6" y2="286.4"/>
	<g enable-background="new    ">
		<path d="M2409.8,300.8c1.6,0,2.5,1.1,2,2.5c-0.5,1.4-2.2,2.5-3.8,2.5c-1.6,0-2.5-1.2-2-2.5
			C2406.5,301.9,2408.2,300.8,2409.8,300.8z"/>
	</g>
	<line fill="none" stroke="#000000" stroke-width="0.459" x1="2447.2" y1="302.4" x2="2447.2" y2="286.4"/>
	<g enable-background="new    ">
		<path d="M2447.5,303.4c-0.4,1-1.2,1.8-1.8,2.1c-0.6,0.3-1.4,0.4-2.2,0.4c-0.5,0-1.5-0.2-1.8-0.8c-0.4-0.7-0.1-1.4,0-1.8
			c0.4-1,1.1-1.6,1.7-2c0.6-0.3,1.5-0.6,2.5-0.5c0.4,0.1,1.3,0.1,1.7,0.8C2447.8,302.1,2447.6,303,2447.5,303.4z M2445.2,301.8
			c-0.4,0.2-0.7,0.4-1.1,0.6c-0.4,0.2-0.7,0.4-1.1,0.7c-0.6,0.3-1.3,1-0.9,1.6c0.4,0.6,1.3,0.3,1.9,0c0.4-0.2,0.8-0.4,1.2-0.6
			s0.7-0.4,1.1-0.7c0.5-0.3,1.3-1,0.9-1.6C2446.7,301.2,2445.8,301.5,2445.2,301.8z"/>
	</g>
	<g enable-background="new    ">
		<path d="M2511.4,300.8c1.6,0,2.5,1.1,2,2.5c-0.5,1.4-2.2,2.5-3.8,2.5c-1.6,0-2.5-1.2-2-2.5
			C2508.1,301.9,2509.8,300.8,2511.4,300.8z"/>
	</g>
	<line fill="none" stroke="#000000" stroke-width="0.459" x1="2513.2" y1="302.4" x2="2513.2" y2="287.6"/>
	<g enable-background="new    ">
		<path d="M2526.8,298.4c1.6,0,2.5,1.1,2,2.5c-0.5,1.4-2.2,2.5-3.8,2.5c-1.6,0-2.5-1.2-2-2.5
			C2523.5,299.5,2525.2,298.4,2526.8,298.4z"/>
	</g>
	<line fill="none" stroke="#000000" stroke-width="0.459" x1="2528.6" y1="300" x2="2528.6" y2="286.4"/>
	<path d="M2512.9,286.4l15.9-1.2v2.4l-15.9,1.2V286.4z"/>
	<g enable-background="new    ">
		<path d="M2542,296c1.6,0,2.5,1.1,2,2.5c-0.5,1.4-2.2,2.5-3.8,2.5c-1.6,0-2.5-1.2-2-2.5C2538.7,297.1,2540.4,296,2542,296z"/>
	</g>
	<line fill="none" stroke="#000000" stroke-width="0.459" x1="2543.8" y1="297.6" x2="2543.8" y2="282.8"/>
	<g enable-background="new    ">
		<path d="M2557,293.6c1.6,0,2.5,1.1,2,2.5c-0.5,1.4-2.2,2.5-3.8,2.5c-1.6,0-2.5-1.2-2-2.5C2553.7,294.7,2555.4,293.6,2557,293.6z"
			/>
	</g>
	<line fill="none" stroke="#000000" stroke-width="0.459" x1="2558.8" y1="295.2" x2="2558.8" y2="280.4"/>
	<path d="M2543.5,281.6l15.5-2.4v2.4l-15.5,2.4V281.6z"/>
	<line fill="none" stroke="#000000" stroke-width="0.459" x1="2579.2" y1="292.8" x2="2579.2" y2="276.8"/>
	<g enable-background="new    ">
		<path d="M2579.5,293.8c-0.4,1-1.2,1.8-1.8,2.1c-0.6,0.3-1.4,0.4-2.2,0.4c-0.5,0-1.5-0.2-1.8-0.8c-0.4-0.7-0.1-1.4,0-1.8
			c0.4-1,1.1-1.6,1.7-2c0.6-0.3,1.5-0.6,2.5-0.5c0.4,0.1,1.3,0.1,1.7,0.8C2579.8,292.5,2579.6,293.4,2579.5,293.8z M2577.2,292.2
			c-0.4,0.2-0.7,0.4-1.1,0.6c-0.4,0.2-0.7,0.4-1.1,0.7c-0.6,0.3-1.3,1-0.9,1.6c0.4,0.6,1.3,0.3,1.9,0c0.4-0.2,0.8-0.4,1.2-0.6
			s0.7-0.4,1.1-0.7c0.5-0.3,1.3-1,0.9-1.6C2578.7,291.6,2577.8,291.9,2577.2,292.2z"/>
	</g>
	<line fill="none" stroke="#000000" stroke-width="0.459" x1="2645.2" y1="292.8" x2="2645.2" y2="276.8"/>
	<g enable-background="new    ">
		<path d="M2643.4,291.2c1.6,0,2.5,1.1,2,2.5c-0.5,1.4-2.2,2.5-3.8,2.5c-1.6,0-2.5-1.2-2-2.5
			C2640.1,292.3,2641.8,291.2,2643.4,291.2z"/>
	</g>
	<line fill="none" stroke="#000000" stroke-width="0.459" x1="2675.6" y1="292.8" x2="2675.6" y2="276.8"/>
	<g enable-background="new    ">
		<path d="M2673.8,291.2c1.6,0,2.5,1.1,2,2.5c-0.5,1.4-2.2,2.5-3.8,2.5c-1.6,0-2.5-1.2-2-2.5
			C2670.5,292.3,2672.2,291.2,2673.8,291.2z"/>
	</g>
	<line fill="none" stroke="#000000" stroke-width="0.459" x1="2711.2" y1="302.4" x2="2711.2" y2="286.4"/>
	<g enable-background="new    ">
		<path d="M2711.5,303.4c-0.4,1-1.2,1.8-1.8,2.1c-0.6,0.3-1.4,0.4-2.2,0.4c-0.5,0-1.5-0.2-1.8-0.8c-0.4-0.7-0.1-1.4,0-1.8
			c0.4-1,1.1-1.6,1.7-2c0.6-0.3,1.5-0.6,2.5-0.5c0.4,0.1,1.3,0.1,1.7,0.8C2711.8,302.1,2711.6,303,2711.5,303.4z M2709.2,301.8
			c-0.4,0.2-0.7,0.4-1.1,0.6c-0.4,0.2-0.7,0.4-1.1,0.7c-0.6,0.3-1.3,1-0.9,1.6c0.4,0.6,1.3,0.3,1.9,0c0.4-0.2,0.8-0.4,1.2-0.6
			s0.7-0.4,1.1-0.7c0.5-0.3,1.3-1,0.9-1.6C2710.7,301.2,2709.8,301.5,2709.2,301.8z"/>
	</g>
	<line fill="none" stroke="#000000" stroke-width="0.459" x1="2777.2" y1="302.4" x2="2777.2" y2="286.4"/>
	<g enable-background="new    ">
		<path d="M2775.4,300.8c1.6,0,2.5,1.1,2,2.5c-0.5,1.4-2.2,2.5-3.8,2.5c-1.6,0-2.5-1.2-2-2.5
			C2772.1,301.9,2773.8,300.8,2775.4,300.8z"/>
	</g>
	<line fill="none" stroke="#000000" stroke-width="0.459" x1="2804.4" y1="302.4" x2="2804.4" y2="286.4"/>
	<g enable-background="new    ">
		<path d="M2802.6,300.8c1.6,0,2.5,1.1,2,2.5c-0.5,1.4-2.2,2.5-3.8,2.5c-1.6,0-2.5-1.2-2-2.5C2799.3,301.9,2801,300.8,2802.6,300.8z
			"/>
	</g>
	<line fill="none" stroke="#000000" stroke-width="0.459" x1="2843.2" y1="302.4" x2="2843.2" y2="286.4"/>
	<g enable-background="new    ">
		<path d="M2843.5,303.4c-0.4,1-1.2,1.8-1.8,2.1c-0.6,0.3-1.4,0.4-2.2,0.4c-0.5,0-1.5-0.2-1.8-0.8c-0.4-0.7-0.1-1.4,0-1.8
			c0.4-1,1.1-1.6,1.7-2c0.6-0.3,1.5-0.6,2.5-0.5c0.4,0.1,1.3,0.1,1.7,0.8C2843.8,302.1,2843.6,303,2843.5,303.4z M2841.2,301.8
			c-0.4,0.2-0.7,0.4-1.1,0.6c-0.4,0.2-0.7,0.4-1.1,0.7c-0.6,0.3-1.3,1-0.9,1.6c0.4,0.6,1.3,0.3,1.9,0c0.4-0.2,0.8-0.4,1.2-0.6
			s0.7-0.4,1.1-0.7c0.5-0.3,1.3-1,0.9-1.6C2842.7,301.2,2841.8,301.5,2841.2,301.8z"/>
	</g>
	<line fill="none" stroke="#000000" stroke-width="0.459" x1="2909.2" y1="302.4" x2="2909.2" y2="286.4"/>
	<g enable-background="new    ">
		<path d="M2907.4,300.8c1.6,0,2.5,1.1,2,2.5c-0.5,1.4-2.2,2.5-3.8,2.5c-1.6,0-2.5-1.2-2-2.5
			C2904.1,301.9,2905.8,300.8,2907.4,300.8z"/>
	</g>
	<line fill="none" stroke="#000000" stroke-width="0.459" x1="2939.6" y1="302.4" x2="2939.6" y2="286.4"/>
	<g enable-background="new    ">
		<path d="M2937.8,300.8c1.6,0,2.5,1.1,2,2.5c-0.5,1.4-2.2,2.5-3.8,2.5c-1.6,0-2.5-1.2-2-2.5
			C2934.5,301.9,2936.2,300.8,2937.8,300.8z"/>
	</g>
	<line fill="none" stroke="#000000" stroke-width="0.459" x1="2975.2" y1="302.4" x2="2975.2" y2="286.4"/>
	<g enable-background="new    ">
		<path d="M2975.5,303.4c-0.4,1-1.2,1.8-1.8,2.1c-0.6,0.3-1.4,0.4-2.2,0.4c-0.5,0-1.5-0.2-1.8-0.8c-0.4-0.7-0.1-1.4,0-1.8
			c0.4-1,1.1-1.6,1.7-2c0.6-0.3,1.5-0.6,2.5-0.5c0.4,0.1,1.3,0.1,1.7,0.8C2975.8,302.1,2975.6,303,2975.5,303.4z M2973.2,301.8
			c-0.4,0.2-0.7,0.4-1.1,0.6c-0.4,0.2-0.7,0.4-1.1,0.7c-0.6,0.3-1.3,1-0.9,1.6c0.4,0.6,1.3,0.3,1.9,0c0.4-0.2,0.8-0.4,1.2-0.6
			s0.7-0.4,1.1-0.7c0.5-0.3,1.3-1,0.9-1.6C2974.7,301.2,2973.8,301.5,2973.2,301.8z"/>
	</g>
	<g enable-background="new    ">
		<path d="M3039.6,300.8c1.6,0,2.5,1.1,2,2.5c-0.5,1.4-2.2,2.5-3.8,2.5c-1.6,0-2.5-1.2-2-2.5C3036.3,301.9,3038,300.8,3039.6,300.8z
			"/>
	</g>
	<line fill="none" stroke="#000000" stroke-width="0.459" x1="3041.4" y1="302.4" x2="3041.4" y2="287.6"/>
	<g enable-background="new    ">
		<path d="M3054.8,298.4c1.6,0,2.5,1.1,2,2.5c-0.5,1.4-2.2,2.5-3.8,2.5c-1.6,0-2.5-1.2-2-2.5
			C3051.5,299.5,3053.2,298.4,3054.8,298.4z"/>
	</g>
	<line fill="none" stroke="#000000" stroke-width="0.459" x1="3056.6" y1="300" x2="3056.6" y2="286.4"/>
	<path d="M3041.1,286.4l15.7-1.2v2.4l-15.7,1.2V286.4z"/>
	<g enable-background="new    ">
		<path d="M3070,296c1.6,0,2.5,1.1,2,2.5c-0.5,1.4-2.2,2.5-3.8,2.5c-1.6,0-2.5-1.2-2-2.5C3066.7,297.1,3068.4,296,3070,296z"/>
	</g>
	<line fill="none" stroke="#000000" stroke-width="0.459" x1="3071.8" y1="297.6" x2="3071.8" y2="282.8"/>
	<g enable-background="new    ">
		<path d="M3085,293.6c1.6,0,2.5,1.1,2,2.5c-0.5,1.4-2.2,2.5-3.8,2.5c-1.6,0-2.5-1.2-2-2.5C3081.7,294.7,3083.4,293.6,3085,293.6z"
			/>
	</g>
	<line fill="none" stroke="#000000" stroke-width="0.459" x1="3086.8" y1="295.2" x2="3086.8" y2="280.4"/>
	<path d="M3071.5,281.6l15.5-2.4v2.4l-15.5,2.4V281.6z"/>
	<line fill="none" stroke="#000000" stroke-width="0.459" x1="3107.2" y1="292.8" x2="3107.2" y2="276.8"/>
	<g enable-background="new    ">
		<path d="M3107.5,293.8c-0.4,1-1.2,1.8-1.8,2.1c-0.6,0.3-1.4,0.4-2.2,0.4c-0.5,0-1.5-0.2-1.8-0.8c-0.4-0.7-0.1-1.4,0-1.8
			c0.4-1,1.1-1.6,1.7-2c0.6-0.3,1.5-0.6,2.5-0.5c0.4,0.1,1.3,0.1,1.7,0.8C3107.8,292.5,3107.6,293.4,3107.5,293.8z M3105.2,292.2
			c-0.4,0.2-0.7,0.4-1.1,0.6c-0.4,0.2-0.7,0.4-1.1,0.7c-0.6,0.3-1.3,1-0.9,1.6c0.4,0.6,1.3,0.3,1.9,0c0.4-0.2,0.8-0.4,1.2-0.6
			s0.7-0.4,1.1-0.7c0.5-0.3,1.3-1,0.9-1.6C3106.7,291.6,3105.8,291.9,3105.2,292.2z"/>
	</g>
	<line fill="none" stroke="#000000" stroke-width="0.459" x1="3173.2" y1="292.8" x2="3173.2" y2="276.8"/>
	<g enable-background="new    ">
		<path d="M3171.4,291.2c1.6,0,2.5,1.1,2,2.5c-0.5,1.4-2.2,2.5-3.8,2.5c-1.6,0-2.5-1.2-2-2.5
			C3168.1,292.3,3169.8,291.2,3171.4,291.2z"/>
	</g>
	<line fill="none" stroke="#000000" stroke-width="0.459" x1="3203.6" y1="292.8" x2="3203.6" y2="276.8"/>
	<g enable-background="new    ">
		<path d="M3201.8,291.2c1.6,0,2.5,1.1,2,2.5c-0.5,1.4-2.2,2.5-3.8,2.5c-1.6,0-2.5-1.2-2-2.5
			C3198.5,292.3,3200.2,291.2,3201.8,291.2z"/>
	</g>
	<line fill="none" stroke="#000000" stroke-width="0.459" x1="3239.2" y1="302.4" x2="3239.2" y2="286.4"/>
	<g enable-background="new    ">
		<path d="M3239.5,303.4c-0.4,1-1.2,1.8-1.8,2.1c-0.6,0.3-1.4,0.4-2.2,0.4c-0.5,0-1.5-0.2-1.8-0.8c-0.4-0.7-0.1-1.4,0-1.8
			c0.4-1,1.1-1.6,1.7-2c0.6-0.3,1.5-0.6,2.5-0.5c0.4,0.1,1.3,0.1,1.7,0.8C3239.8,302.1,3239.6,303,3239.5,303.4z M3237.2,301.8
			c-0.4,0.2-0.7,0.4-1.1,0.6c-0.4,0.2-0.7,0.4-1.1,0.7c-0.6,0.3-1.3,1-0.9,1.6c0.4,0.6,1.3,0.3,1.9,0c0.4-0.2,0.8-0.4,1.2-0.6
			s0.7-0.4,1.1-0.7c0.5-0.3,1.3-1,0.9-1.6C3238.7,301.2,3237.8,301.5,3237.2,301.8z"/>
	</g>
	<line fill="none" stroke="#000000" stroke-width="0.459" x1="3305.2" y1="302.4" x2="3305.2" y2="286.4"/>
	<g enable-background="new    ">
		<path d="M3303.4,300.8c1.6,0,2.5,1.1,2,2.5c-0.5,1.4-2.2,2.5-3.8,2.5c-1.6,0-2.5-1.2-2-2.5
			C3300.1,301.9,3301.8,300.8,3303.4,300.8z"/>
	</g>
	<line fill="none" stroke="#000000" stroke-width="0.459" x1="3338.8" y1="302.4" x2="3338.8" y2="286.4"/>
	<g enable-background="new    ">
		<path d="M3337,300.8c1.6,0,2.5,1.1,2,2.5c-0.5,1.4-2.2,2.5-3.8,2.5c-1.6,0-2.5-1.2-2-2.5C3333.7,301.9,3335.4,300.8,3337,300.8z"
			/>
	</g>
	<line fill="none" stroke="#000000" stroke-width="0.459" x1="3371.2" y1="302.4" x2="3371.2" y2="286.4"/>
	<g enable-background="new    ">
		<path d="M3371.5,303.4c-0.4,1-1.2,1.8-1.8,2.1c-0.6,0.3-1.4,0.4-2.2,0.4c-0.5,0-1.5-0.2-1.8-0.8c-0.4-0.7-0.1-1.4,0-1.8
			c0.4-1,1.1-1.6,1.7-2c0.6-0.3,1.5-0.6,2.5-0.5c0.4,0.1,1.3,0.1,1.7,0.8C3371.8,302.1,3371.6,303,3371.5,303.4z M3369.2,301.8
			c-0.4,0.2-0.7,0.4-1.1,0.6c-0.4,0.2-0.7,0.4-1.1,0.7c-0.6,0.3-1.3,1-0.9,1.6c0.4,0.6,1.3,0.3,1.9,0c0.4-0.2,0.8-0.4,1.2-0.6
			s0.7-0.4,1.1-0.7c0.5-0.3,1.3-1,0.9-1.6C3370.7,301.2,3369.8,301.5,3369.2,301.8z"/>
	</g>
	<line fill="none" stroke="#000000" stroke-width="0.459" x1="3437.2" y1="302.4" x2="3437.2" y2="286.4"/>
	<g enable-background="new    ">
		<path d="M3435.4,300.8c1.6,0,2.5,1.1,2,2.5c-0.5,1.4-2.2,2.5-3.8,2.5c-1.6,0-2.5-1.2-2-2.5
			C3432.1,301.9,3433.8,300.8,3435.4,300.8z"/>
	</g>
	<line fill="none" stroke="#000000" stroke-width="0.459" x1="3467.6" y1="302.4" x2="3467.6" y2="286.4"/>
	<g enable-background="new    ">
		<path d="M3465.8,300.8c1.6,0,2.5,1.1,2,2.5c-0.5,1.4-2.2,2.5-3.8,2.5c-1.6,0-2.5-1.2-2-2.5
			C3462.5,301.9,3464.2,300.8,3465.8,300.8z"/>
	</g>
	<line fill="none" stroke="#000000" stroke-width="0.459" x1="3503.2" y1="302.4" x2="3503.2" y2="286.4"/>
	<g enable-background="new    ">
		<path d="M3503.5,303.4c-0.4,1-1.2,1.8-1.8,2.1c-0.6,0.3-1.4,0.4-2.2,0.4c-0.5,0-1.5-0.2-1.8-0.8c-0.4-0.7-0.1-1.4,0-1.8
			c0.4-1,1.1-1.6,1.7-2c0.6-0.3,1.5-0.6,2.5-0.5c0.4,0.1,1.3,0.1,1.7,0.8C3503.8,302.1,3503.6,303,3503.5,303.4z M3501.2,301.8
			c-0.4,0.2-0.7,0.4-1.1,0.6c-0.4,0.2-0.7,0.4-1.1,0.7c-0.6,0.3-1.3,1-0.9,1.6c0.4,0.6,1.3,0.3,1.9,0c0.4-0.2,0.8-0.4,1.2-0.6
			s0.7-0.4,1.1-0.7c0.5-0.3,1.3-1,0.9-1.6C3502.7,301.2,3501.8,301.5,3501.2,301.8z"/>
	</g>
	<g enable-background="new    ">
		<path d="M3567.4,300.8c1.6,0,2.5,1.1,2,2.5c-0.5,1.4-2.2,2.5-3.8,2.5c-1.6,0-2.5-1.2-2-2.5
			C3564.1,301.9,3565.8,300.8,3567.4,300.8z"/>
	</g>
	<line fill="none" stroke="#000000" stroke-width="0.459" x1="3569.2" y1="302.4" x2="3569.2" y2="287.6"/>
	<g enable-background="new    ">
		<path d="M3582.8,298.4c1.6,0,2.5,1.1,2,2.5c-0.5,1.4-2.2,2.5-3.8,2.5c-1.6,0-2.5-1.2-2-2.5
			C3579.5,299.5,3581.2,298.4,3582.8,298.4z"/>
	</g>
	<line fill="none" stroke="#000000" stroke-width="0.459" x1="3584.6" y1="300" x2="3584.6" y2="286.4"/>
	<path d="M3568.9,286.4l15.9-1.2v2.4l-15.9,1.2V286.4z"/>
	<g enable-background="new    ">
		<path d="M3598,296c1.6,0,2.5,1.1,2,2.5c-0.5,1.4-2.2,2.5-3.8,2.5c-1.6,0-2.5-1.2-2-2.5C3594.7,297.1,3596.4,296,3598,296z"/>
	</g>
	<line fill="none" stroke="#000000" stroke-width="0.459" x1="3599.8" y1="297.6" x2="3599.8" y2="282.8"/>
	<g enable-background="new    ">
		<path d="M3613,293.6c1.6,0,2.5,1.1,2,2.5c-0.5,1.4-2.2,2.5-3.8,2.5c-1.6,0-2.5-1.2-2-2.5C3609.7,294.7,3611.4,293.6,3613,293.6z"
			/>
	</g>
	<line fill="none" stroke="#000000" stroke-width="0.459" x1="3614.8" y1="295.2" x2="3614.8" y2="280.4"/>
	<path d="M3599.5,281.6l15.5-2.4v2.4l-15.5,2.4V281.6z"/>
	<line fill="none" stroke="#000000" stroke-width="0.459" x1="3635.2" y1="292.8" x2="3635.2" y2="276.8"/>
	<g enable-background="new    ">
		<path d="M3635.5,293.8c-0.4,1-1.2,1.8-1.8,2.1c-0.6,0.3-1.4,0.4-2.2,0.4c-0.5,0-1.5-0.2-1.8-0.8c-0.4-0.7-0.1-1.4,0-1.8
			c0.4-1,1.1-1.6,1.7-2c0.6-0.3,1.5-0.6,2.5-0.5c0.4,0.1,1.3,0.1,1.7,0.8C3635.8,292.5,3635.6,293.4,3635.5,293.8z M3633.2,292.2
			c-0.4,0.2-0.7,0.4-1.1,0.6c-0.4,0.2-0.7,0.4-1.1,0.7c-0.6,0.3-1.3,1-0.9,1.6c0.4,0.6,1.3,0.3,1.9,0c0.4-0.2,0.8-0.4,1.2-0.6
			s0.7-0.4,1.1-0.7c0.5-0.3,1.3-1,0.9-1.6C3634.7,291.6,3633.8,291.9,3633.2,292.2z"/>
	</g>
	<line fill="none" stroke="#000000" stroke-width="0.459" x1="3701.2" y1="292.8" x2="3701.2" y2="276.8"/>
	<g enable-background="new    ">
		<path d="M3699.4,291.2c1.6,0,2.5,1.1,2,2.5c-0.5,1.4-2.2,2.5-3.8,2.5c-1.6,0-2.5-1.2-2-2.5
			C3696.1,292.3,3697.8,291.2,3699.4,291.2z"/>
	</g>
	<line fill="none" stroke="#000000" stroke-width="0.459" x1="3731.6" y1="292.8" x2="3731.6" y2="276.8"/>
	<g enable-background="new    ">
		<path d="M3729.8,291.2c1.6,0,2.5,1.1,2,2.5c-0.5,1.4-2.2,2.5-3.8,2.5c-1.6,0-2.5-1.2-2-2.5
			C3726.5,292.3,3728.2,291.2,3729.8,291.2z"/>
	</g>
	<line fill="none" stroke="#000000" stroke-width="0.459" x1="3767.2" y1="302.4" x2="3767.2" y2="286.4"/>
	<g enable-background="new    ">
		<path d="M3767.5,303.4c-0.4,1-1.2,1.8-1.8,2.1c-0.6,0.3-1.4,0.4-2.2,0.4c-0.5,0-1.5-0.2-1.8-0.8c-0.4-0.7-0.1-1.4,0-1.8
			c0.4-1,1.1-1.6,1.7-2c0.6-0.3,1.5-0.6,2.5-0.5c0.4,0.1,1.3,0.1,1.7,0.8C3767.8,302.1,3767.6,303,3767.5,303.4z M3765.2,301.8
			c-0.4,0.2-0.7,0.4-1.1,0.6c-0.4,0.2-0.7,0.4-1.1,0.7c-0.6,0.3-1.3,1-0.9,1.6c0.4,0.6,1.3,0.3,1.9,0c0.4-0.2,0.8-0.4,1.2-0.6
			s0.7-0.4,1.1-0.7c0.5-0.3,1.3-1,0.9-1.6C3766.7,301.2,3765.8,301.5,3765.2,301.8z"/>
	</g>
	<line fill="none" stroke="#000000" stroke-width="0.459" x1="3833.2" y1="302.4" x2="3833.2" y2="286.4"/>
	<g enable-background="new    ">
		<path d="M3831.4,300.8c1.6,0,2.5,1.1,2,2.5c-0.5,1.4-2.2,2.5-3.8,2.5c-1.6,0-2.5-1.2-2-2.5
			C3828.1,301.9,3829.8,300.8,3831.4,300.8z"/>
	</g>
	<line fill="none" stroke="#000000" stroke-width="0.459" x1="3860.4" y1="302.4" x2="3860.4" y2="286.4"/>
	<g enable-background="new    ">
		<path d="M3858.6,300.8c1.6,0,2.5,1.1,2,2.5c-0.5,1.4-2.2,2.5-3.8,2.5c-1.6,0-2.5-1.2-2-2.5C3855.3,301.9,3857,300.8,3858.6,300.8z
			"/>
	</g>
	<line fill="none" stroke="#000000" stroke-width="0.459" x1="3899.2" y1="302.4" x2="3899.2" y2="286.4"/>
	<g enable-background="new    ">
		<path d="M3899.5,303.4c-0.4,1-1.2,1.8-1.8,2.1c-0.6,0.3-1.4,0.4-2.2,0.4c-0.5,0-1.5-0.2-1.8-0.8c-0.4-0.7-0.1-1.4,0-1.8
			c0.4-1,1.1-1.6,1.7-2c0.6-0.3,1.5-0.6,2.5-0.5c0.4,0.1,1.3,0.1,1.7,0.8C3899.8,302.1,3899.6,303,3899.5,303.4z M3897.2,301.8
			c-0.4,0.2-0.7,0.4-1.1,0.6c-0.4,0.2-0.7,0.4-1.1,0.7c-0.6,0.3-1.3,1-0.9,1.6c0.4,0.6,1.3,0.3,1.9,0c0.4-0.2,0.8-0.4,1.2-0.6
			c0.4-0.2,0.7-0.4,1.1-0.7c0.5-0.3,1.3-1,0.9-1.6C3898.7,301.2,3897.8,301.5,3897.2,301.8z"/>
	</g>
	<line fill="none" stroke="#000000" stroke-width="0.459" x1="3965.2" y1="302.4" x2="3965.2" y2="286.4"/>
	<g enable-background="new    ">
		<path d="M3963.4,300.8c1.6,0,2.5,1.1,2,2.5c-0.5,1.4-2.2,2.5-3.8,2.5c-1.6,0-2.5-1.2-2-2.5
			C3960.1,301.9,3961.8,300.8,3963.4,300.8z"/>
	</g>
	<line fill="none" stroke="#000000" stroke-width="0.459" x1="3995.6" y1="302.4" x2="3995.6" y2="286.4"/>
	<g enable-background="new    ">
		<path d="M3993.8,300.8c1.6,0,2.5,1.1,2,2.5c-0.5,1.4-2.2,2.5-3.8,2.5c-1.6,0-2.5-1.2-2-2.5
			C3990.5,301.9,3992.2,300.8,3993.8,300.8z"/>
	</g>
	<line fill="none" stroke="#000000" stroke-width="0.459" x1="4031.2" y1="302.4" x2="4031.2" y2="286.4"/>
	<g enable-background="new    ">
		<path d="M4031.5,303.4c-0.4,1-1.2,1.8-1.8,2.1c-0.6,0.3-1.4,0.4-2.2,0.4c-0.5,0-1.5-0.2-1.8-0.8c-0.4-0.7-0.1-1.4,0-1.8
			c0.4-1,1.1-1.6,1.7-2c0.6-0.3,1.5-0.6,2.5-0.5c0.4,0.1,1.3,0.1,1.7,0.8C4031.8,302.1,4031.6,303,4031.5,303.4z M4029.2,301.8
			c-0.4,0.2-0.7,0.4-1.1,0.6c-0.4,0.2-0.7,0.4-1.1,0.7c-0.6,0.3-1.3,1-0.9,1.6c0.4,0.6,1.3,0.3,1.9,0c0.4-0.2,0.8-0.4,1.2-0.6
			c0.4-0.2,0.7-0.4,1.1-0.7c0.5-0.3,1.3-1,0.9-1.6C4030.7,301.2,4029.8,301.5,4029.2,301.8z"/>
	</g>
	<g enable-background="new    ">
		<path d="M4095.6,300.8c1.6,0,2.5,1.1,2,2.5c-0.5,1.4-2.2,2.5-3.8,2.5c-1.6,0-2.5-1.2-2-2.5C4092.3,301.9,4094,300.8,4095.6,300.8z
			"/>
	</g>
	<line fill="none" stroke="#000000" stroke-width="0.459" x1="4097.4" y1="302.4" x2="4097.4" y2="287.6"/>
	<g enable-background="new    ">
		<path d="M4110.8,298.4c1.6,0,2.5,1.1,2,2.5c-0.5,1.4-2.2,2.5-3.8,2.5c-1.6,0-2.5-1.2-2-2.5
			C4107.5,299.5,4109.2,298.4,4110.8,298.4z"/>
	</g>
	<line fill="none" stroke="#000000" stroke-width="0.459" x1="4112.6" y1="300" x2="4112.6" y2="286.4"/>
	<path d="M4097.1,286.4l15.7-1.2v2.4l-15.7,1.2V286.4z"/>
	<g enable-background="new    ">
		<path d="M4126,296c1.6,0,2.5,1.1,2,2.5c-0.5,1.4-2.2,2.5-3.8,2.5c-1.6,0-2.5-1.2-2-2.5C4122.7,297.1,4124.4,296,4126,296z"/>
	</g>
	<line fill="none" stroke="#000000" stroke-width="0.459" x1="4127.8" y1="297.6" x2="4127.8" y2="282.8"/>
	<g enable-background="new    ">
		<path d="M4141,293.6c1.6,0,2.5,1.1,2,2.5c-0.5,1.4-2.2,2.5-3.8,2.5c-1.6,0-2.5-1.2-2-2.5C4137.7,294.7,4139.4,293.6,4141,293.6z"
			/>
	</g>
	<line fill="none" stroke="#000000" stroke-width="0.459" x1="4142.8" y1="295.2" x2="4142.8" y2="280.4"/>
	<path d="M4127.5,281.6l15.5-2.4v2.4l-15.5,2.4V281.6z"/>
	<line fill="none" stroke="#000000" stroke-width="0.459" x1="4163.2" y1="292.8" x2="4163.2" y2="276.8"/>
	<g enable-background="new    ">
		<path d="M4163.5,293.8c-0.4,1-1.2,1.8-1.8,2.1c-0.6,0.3-1.4,0.4-2.2,0.4c-0.5,0-1.5-0.2-1.8-0.8c-0.4-0.7-0.1-1.4,0-1.8
			c0.4-1,1.1-1.6,1.7-2c0.6-0.3,1.5-0.6,2.5-0.5c0.4,0.1,1.3,0.1,1.7,0.8C4163.8,292.5,4163.6,293.4,4163.5,293.8z M4161.2,292.2
			c-0.4,0.2-0.7,0.4-1.1,0.6c-0.4,0.2-0.7,0.4-1.1,0.7c-0.6,0.3-1.3,1-0.9,1.6c0.4,0.6,1.3,0.3,1.9,0c0.4-0.2,0.8-0.4,1.2-0.6
			c0.4-0.2,0.7-0.4,1.1-0.7c0.5-0.3,1.3-1,0.9-1.6C4162.7,291.6,4161.8,291.9,4161.2,292.2z"/>
	</g>
	<line fill="none" stroke="#000000" stroke-width="0.459" x1="4229.2" y1="292.8" x2="4229.2" y2="276.8"/>
	<g enable-background="new    ">
		<path d="M4227.4,291.2c1.6,0,2.5,1.1,2,2.5c-0.5,1.4-2.2,2.5-3.8,2.5c-1.6,0-2.5-1.2-2-2.5
			C4224.1,292.3,4225.8,291.2,4227.4,291.2z"/>
	</g>
	<line fill="none" stroke="#000000" stroke-width="0.459" x1="4259.6" y1="292.8" x2="4259.6" y2="276.8"/>
	<g enable-background="new    ">
		<path d="M4257.8,291.2c1.6,0,2.5,1.1,2,2.5c-0.5,1.4-2.2,2.5-3.8,2.5c-1.6,0-2.5-1.2-2-2.5
			C4254.5,292.3,4256.2,291.2,4257.8,291.2z"/>
	</g>
	<line fill="none" stroke="#000000" stroke-width="0.459" x1="4295.2" y1="302.4" x2="4295.2" y2="286.4"/>
	<g enable-background="new    ">
		<path d="M4295.5,303.4c-0.4,1-1.2,1.8-1.8,2.1c-0.6,0.3-1.4,0.4-2.2,0.4c-0.5,0-1.5-0.2-1.8-0.8c-0.4-0.7-0.1-1.4,0-1.8
			c0.4-1,1.1-1.6,1.7-2c0.6-0.3,1.5-0.6,2.5-0.5c0.4,0.1,1.3,0.1,1.7,0.8C4295.8,302.1,4295.6,303,4295.5,303.4z M4293.2,301.8
			c-0.4,0.2-0.7,0.4-1.1,0.6c-0.4,0.2-0.7,0.4-1.1,0.7c-0.6,0.3-1.3,1-0.9,1.6c0.4,0.6,1.3,0.3,1.9,0c0.4-0.2,0.8-0.4,1.2-0.6
			c0.4-0.2,0.7-0.4,1.1-0.7c0.5-0.3,1.3-1,0.9-1.6C4294.7,301.2,4293.8,301.5,4293.2,301.8z"/>
	</g>
	<line fill="none" stroke="#000000" stroke-width="0.459" x1="4361.2" y1="302.4" x2="4361.2" y2="286.4"/>
	<g enable-background="new    ">
		<path d="M4359.4,300.8c1.6,0,2.5,1.1,2,2.5c-0.5,1.4-2.2,2.5-3.8,2.5c-1.6,0-2.5-1.2-2-2.5
			C4356.1,301.9,4357.8,300.8,4359.4,300.8z"/>
	</g>
	<line fill="none" stroke="#000000" stroke-width="0.459" x1="4394.8" y1="302.4" x2="4394.8" y2="286.4"/>
	<g enable-background="new    ">
		<path d="M4393,300.8c1.6,0,2.5,1.1,2,2.5c-0.5,1.4-2.2,2.5-3.8,2.5c-1.6,0-2.5-1.2-2-2.5C4389.7,301.9,4391.4,300.8,4393,300.8z"
			/>
	</g>
	<line fill="none" stroke="#000000" stroke-width="0.459" x1="4427.2" y1="302.4" x2="4427.2" y2="286.4"/>
	<g enable-background="new    ">
		<path d="M4427.5,303.4c-0.4,1-1.2,1.8-1.8,2.1c-0.6,0.3-1.4,0.4-2.2,0.4c-0.5,0-1.5-0.2-1.8-0.8c-0.4-0.7-0.1-1.4,0-1.8
			c0.4-1,1.1-1.6,1.7-2c0.6-0.3,1.5-0.6,2.5-0.5c0.4,0.1,1.3,0.1,1.7,0.8C4427.8,302.1,4427.6,303,4427.5,303.4z M4425.2,301.8
			c-0.4,0.2-0.7,0.4-1.1,0.6c-0.4,0.2-0.7,0.4-1.1,0.7c-0.6,0.3-1.3,1-0.9,1.6c0.4,0.6,1.3,0.3,1.9,0c0.4-0.2,0.8-0.4,1.2-0.6
			c0.4-0.2,0.7-0.4,1.1-0.7c0.5-0.3,1.3-1,0.9-1.6C4426.7,301.2,4425.8,301.5,4425.2,301.8z"/>
	</g>
	<line fill="none" stroke="#000000" stroke-width="0.459" x1="4493.2" y1="302.4" x2="4493.2" y2="286.4"/>
	<g enable-background="new    ">
		<path d="M4491.4,300.8c1.6,0,2.5,1.1,2,2.5c-0.5,1.4-2.2,2.5-3.8,2.5c-1.6,0-2.5-1.2-2-2.5
			C4488.1,301.9,4489.8,300.8,4491.4,300.8z"/>
	</g>
	<line fill="none" stroke="#000000" stroke-width="0.459" x1="4523.6" y1="302.4" x2="4523.6" y2="286.4"/>
	<g enable-background="new    ">
		<path d="M4521.8,300.8c1.6,0,2.5,1.1,2,2.5c-0.5,1.4-2.2,2.5-3.8,2.5c-1.6,0-2.5-1.2-2-2.5
			C4518.5,301.9,4520.2,300.8,4521.8,300.8z"/>
	</g>
	<line fill="none" stroke="#000000" stroke-width="0.459" x1="4559.2" y1="302.4" x2="4559.2" y2="286.4"/>
	<g enable-background="new    ">
		<path d="M4559.5,303.4c-0.4,1-1.2,1.8-1.8,2.1c-0.6,0.3-1.4,0.4-2.2,0.4c-0.5,0-1.5-0.2-1.8-0.8c-0.4-0.7-0.1-1.4,0-1.8
			c0.4-1,1.1-1.6,1.7-2c0.6-0.3,1.5-0.6,2.5-0.5c0.4,0.1,1.3,0.1,1.7,0.8C4559.8,302.1,4559.6,303,4559.5,303.4z M4557.2,301.8
			c-0.4,0.2-0.7,0.4-1.1,0.6c-0.4,0.2-0.7,0.4-1.1,0.7c-0.6,0.3-1.3,1-0.9,1.6c0.4,0.6,1.3,0.3,1.9,0c0.4-0.2,0.8-0.4,1.2-0.6
			c0.4-0.2,0.7-0.4,1.1-0.7c0.5-0.3,1.3-1,0.9-1.6C4558.7,301.2,4557.8,301.5,4557.2,301.8z"/>
	</g>
	<g enable-background="new    ">
		<path d="M4623.4,300.8c1.6,0,2.5,1.1,2,2.5c-0.5,1.4-2.2,2.5-3.8,2.5c-1.6,0-2.5-1.2-2-2.5
			C4620.1,301.9,4621.8,300.8,4623.4,300.8z"/>
	</g>
	<line fill="none" stroke="#000000" stroke-width="0.459" x1="4625.2" y1="302.4" x2="4625.2" y2="287.6"/>
	<g enable-background="new    ">
		<path d="M4638.8,298.4c1.6,0,2.5,1.1,2,2.5c-0.5,1.4-2.2,2.5-3.8,2.5c-1.6,0-2.5-1.2-2-2.5
			C4635.5,299.5,4637.2,298.4,4638.8,298.4z"/>
	</g>
	<line fill="none" stroke="#000000" stroke-width="0.459" x1="4640.6" y1="300" x2="4640.6" y2="286.4"/>
	<path d="M4624.9,286.4l15.9-1.2v2.4l-15.9,1.2V286.4z"/>
	<g enable-background="new    ">
		<path d="M4654,296c1.6,0,2.5,1.1,2,2.5c-0.5,1.4-2.2,2.5-3.8,2.5c-1.6,0-2.5-1.2-2-2.5C4650.7,297.1,4652.4,296,4654,296z"/>
	</g>
	<line fill="none" stroke="#000000" stroke-width="0.459" x1="4655.8" y1="297.6" x2="4655.8" y2="282.8"/>
	<g enable-background="new    ">
		<path d="M4669,293.6c1.6,0,2.5,1.1,2,2.5c-0.5,1.4-2.2,2.5-3.8,2.5c-1.6,0-2.5-1.2-2-2.5C4665.7,294.7,4667.4,293.6,4669,293.6z"
			/>
	</g>
	<line fill="none" stroke="#000000" stroke-width="0.459" x1="4670.8" y1="295.2" x2="4670.8" y2="280.4"/>
	<path d="M4655.5,281.6l15.5-2.4v2.4l-15.5,2.4V281.6z"/>
	<line fill="none" stroke="#000000" stroke-width="0.459" x1="4691.2" y1="292.8" x2="4691.2" y2="276.8"/>
	<g enable-background="new    ">
		<path d="M4691.5,293.8c-0.4,1-1.2,1.8-1.8,2.1c-0.6,0.3-1.4,0.4-2.2,0.4c-0.5,0-1.5-0.2-1.8-0.8c-0.4-0.7-0.1-1.4,0-1.8
			c0.4-1,1.1-1.6,1.7-2c0.6-0.3,1.5-0.6,2.5-0.5c0.4,0.1,1.3,0.1,1.7,0.8C4691.8,292.5,4691.6,293.4,4691.5,293.8z M4689.2,292.2
			c-0.4,0.2-0.7,0.4-1.1,0.6c-0.4,0.2-0.7,0.4-1.1,0.7c-0.6,0.3-1.3,1-0.9,1.6c0.4,0.6,1.3,0.3,1.9,0c0.4-0.2,0.8-0.4,1.2-0.6
			c0.4-0.2,0.7-0.4,1.1-0.7c0.5-0.3,1.3-1,0.9-1.6C4690.7,291.6,4689.8,291.9,4689.2,292.2z"/>
	</g>
	<line fill="none" stroke="#000000" stroke-width="0.459" x1="4757.2" y1="292.8" x2="4757.2" y2="276.8"/>
	<g enable-background="new    ">
		<path d="M4755.4,291.2c1.6,0,2.5,1.1,2,2.5c-0.5,1.4-2.2,2.5-3.8,2.5c-1.6,0-2.5-1.2-2-2.5
			C4752.1,292.3,4753.8,291.2,4755.4,291.2z"/>
	</g>
	<line fill="none" stroke="#000000" stroke-width="0.459" x1="4787.6" y1="292.8" x2="4787.6" y2="276.8"/>
	<g enable-background="new    ">
		<path d="M4785.8,291.2c1.6,0,2.5,1.1,2,2.5c-0.5,1.4-2.2,2.5-3.8,2.5c-1.6,0-2.5-1.2-2-2.5
			C4782.5,292.3,4784.2,291.2,4785.8,291.2z"/>
	</g>
	<line fill="none" stroke="#000000" stroke-width="0.459" x1="4823.2" y1="302.4" x2="4823.2" y2="286.4"/>
	<g enable-background="new    ">
		<path d="M4823.5,303.4c-0.4,1-1.2,1.8-1.8,2.1c-0.6,0.3-1.4,0.4-2.2,0.4c-0.5,0-1.5-0.2-1.8-0.8c-0.4-0.7-0.1-1.4,0-1.8
			c0.4-1,1.1-1.6,1.7-2c0.6-0.3,1.5-0.6,2.5-0.5c0.4,0.1,1.3,0.1,1.7,0.8C4823.8,302.1,4823.6,303,4823.5,303.4z M4821.2,301.8
			c-0.4,0.2-0.7,0.4-1.1,0.6c-0.4,0.2-0.7,0.4-1.1,0.7c-0.6,0.3-1.3,1-0.9,1.6c0.4,0.6,1.3,0.3,1.9,0c0.4-0.2,0.8-0.4,1.2-0.6
			c0.4-0.2,0.7-0.4,1.1-0.7c0.5-0.3,1.3-1,0.9-1.6C4822.7,301.2,4821.8,301.5,4821.2,301.8z"/>
	</g>
	<line fill="none" stroke="#000000" stroke-width="0.459" x1="4889.2" y1="302.4" x2="4889.2" y2="286.4"/>
	<g enable-background="new    ">
		<path d="M4887.4,300.8c1.6,0,2.5,1.1,2,2.5c-0.5,1.4-2.2,2.5-3.8,2.5c-1.6,0-2.5-1.2-2-2.5
			C4884.1,301.9,4885.8,300.8,4887.4,300.8z"/>
	</g>
	<line fill="none" stroke="#000000" stroke-width="0.459" x1="4916.4" y1="302.4" x2="4916.4" y2="286.4"/>
	<g enable-background="new    ">
		<path d="M4914.6,300.8c1.6,0,2.5,1.1,2,2.5c-0.5,1.4-2.2,2.5-3.8,2.5c-1.6,0-2.5-1.2-2-2.5C4911.3,301.9,4913,300.8,4914.6,300.8z
			"/>
	</g>
	<line fill="none" stroke="#000000" stroke-width="0.459" x1="4955.2" y1="302.4" x2="4955.2" y2="286.4"/>
	<g enable-background="new    ">
		<path d="M4955.5,303.4c-0.4,1-1.2,1.8-1.8,2.1c-0.6,0.3-1.4,0.4-2.2,0.4c-0.5,0-1.5-0.2-1.8-0.8c-0.4-0.7-0.1-1.4,0-1.8
			c0.4-1,1.1-1.6,1.7-2c0.6-0.3,1.5-0.6,2.5-0.5c0.4,0.1,1.3,0.1,1.7,0.8C4955.8,302.1,4955.6,303,4955.5,303.4z M4953.2,301.8
			c-0.4,0.2-0.7,0.4-1.1,0.6c-0.4,0.2-0.7,0.4-1.1,0.7c-0.6,0.3-1.3,1-0.9,1.6c0.4,0.6,1.3,0.3,1.9,0c0.4-0.2,0.8-0.4,1.2-0.6
			c0.4-0.2,0.7-0.4,1.1-0.7c0.5-0.3,1.3-1,0.9-1.6C4954.7,301.2,4953.8,301.5,4953.2,301.8z"/>
	</g>
	<line fill="none" stroke="#000000" stroke-width="0.459" x1="5021.2" y1="302.4" x2="5021.2" y2="286.4"/>
	<g enable-background="new    ">
		<path d="M5019.4,300.8c1.6,0,2.5,1.1,2,2.5c-0.5,1.4-2.2,2.5-3.8,2.5c-1.6,0-2.5-1.2-2-2.5
			C5016.1,301.9,5017.8,300.8,5019.4,300.8z"/>
	</g>
	<line fill="none" stroke="#000000" stroke-width="0.459" x1="5051.6" y1="302.4" x2="5051.6" y2="286.4"/>
	<g enable-background="new    ">
		<path d="M5049.8,300.8c1.6,0,2.5,1.1,2,2.5c-0.5,1.4-2.2,2.5-3.8,2.5c-1.6,0-2.5-1.2-2-2.5
			C5046.5,301.9,5048.2,300.8,5049.8,300.8z"/>
	</g>
	<line fill="none" stroke="#000000" stroke-width="0.459" x1="5087.2" y1="302.4" x2="5087.2" y2="286.4"/>
	<g enable-background="new    ">
		<path d="M5087.5,303.4c-0.4,1-1.2,1.8-1.8,2.1c-0.6,0.3-1.4,0.4-2.2,0.4c-0.5,0-1.5-0.2-1.8-0.8c-0.4-0.7-0.1-1.4,0-1.8
			c0.4-1,1.1-1.6,1.7-2c0.6-0.3,1.5-0.6,2.5-0.5c0.4,0.1,1.3,0.1,1.7,0.8C5087.8,302.1,5087.6,303,5087.5,303.4z M5085.2,301.8
			c-0.4,0.2-0.7,0.4-1.1,0.6c-0.4,0.2-0.7,0.4-1.1,0.7c-0.6,0.3-1.3,1-0.9,1.6c0.4,0.6,1.3,0.3,1.9,0c0.4-0.2,0.8-0.4,1.2-0.6
			c0.4-0.2,0.7-0.4,1.1-0.7c0.5-0.3,1.3-1,0.9-1.6C5086.7,301.2,5085.8,301.5,5085.2,301.8z"/>
	</g>
	<g enable-background="new    ">
		<path d="M5151.6,300.8c1.6,0,2.5,1.1,2,2.5c-0.5,1.4-2.2,2.5-3.8,2.5c-1.6,0-2.5-1.2-2-2.5C5148.3,301.9,5150,300.8,5151.6,300.8z
			"/>
	</g>
	<line fill="none" stroke="#000000" stroke-width="0.459" x1="5153.4" y1="302.4" x2="5153.4" y2="287.6"/>
	<g enable-background="new    ">
		<path d="M5166.8,298.4c1.6,0,2.5,1.1,2,2.5c-0.5,1.4-2.2,2.5-3.8,2.5c-1.6,0-2.5-1.2-2-2.5
			C5163.5,299.5,5165.2,298.4,5166.8,298.4z"/>
	</g>
	<line fill="none" stroke="#000000" stroke-width="0.459" x1="5168.6" y1="300" x2="5168.6" y2="286.4"/>
	<path d="M5153.1,286.4l15.7-1.2v2.4l-15.7,1.2V286.4z"/>
	<g enable-background="new    ">
		<path d="M5182,296c1.6,0,2.5,1.1,2,2.5c-0.5,1.4-2.2,2.5-3.8,2.5c-1.6,0-2.5-1.2-2-2.5C5178.7,297.1,5180.4,296,5182,296z"/>
	</g>
	<line fill="none" stroke="#000000" stroke-width="0.459" x1="5183.8" y1="297.6" x2="5183.8" y2="282.8"/>
	<g enable-background="new    ">
		<path d="M5197,293.6c1.6,0,2.5,1.1,2,2.5c-0.5,1.4-2.2,2.5-3.8,2.5c-1.6,0-2.5-1.2-2-2.5C5193.7,294.7,5195.4,293.6,5197,293.6z"
			/>
	</g>
	<line fill="none" stroke="#000000" stroke-width="0.459" x1="5198.8" y1="295.2" x2="5198.8" y2="280.4"/>
	<path d="M5183.5,281.6l15.5-2.4v2.4l-15.5,2.4V281.6z"/>
	<line fill="none" stroke="#000000" stroke-width="0.459" x1="5219.2" y1="292.8" x2="5219.2" y2="276.8"/>
	<g enable-background="new    ">
		<path d="M5219.5,293.8c-0.4,1-1.2,1.8-1.8,2.1c-0.6,0.3-1.4,0.4-2.2,0.4c-0.5,0-1.5-0.2-1.8-0.8c-0.4-0.7-0.1-1.4,0-1.8
			c0.4-1,1.1-1.6,1.7-2c0.6-0.3,1.5-0.6,2.5-0.5c0.4,0.1,1.3,0.1,1.7,0.8C5219.8,292.5,5219.6,293.4,5219.5,293.8z M5217.2,292.2
			c-0.4,0.2-0.7,0.4-1.1,0.6c-0.4,0.2-0.7,0.4-1.1,0.7c-0.6,0.3-1.3,1-0.9,1.6c0.4,0.6,1.3,0.3,1.9,0c0.4-0.2,0.8-0.4,1.2-0.6
			c0.4-0.2,0.7-0.4,1.1-0.7c0.5-0.3,1.3-1,0.9-1.6C5218.7,291.6,5217.8,291.9,5217.2,292.2z"/>
	</g>
	<line fill="none" stroke="#000000" stroke-width="0.459" x1="5285.2" y1="292.8" x2="5285.2" y2="276.8"/>
	<g enable-background="new    ">
		<path d="M5283.4,291.2c1.6,0,2.5,1.1,2,2.5c-0.5,1.4-2.2,2.5-3.8,2.5c-1.6,0-2.5-1.2-2-2.5
			C5280.1,292.3,5281.8,291.2,5283.4,291.2z"/>
	</g>
	<line fill="none" stroke="#000000" stroke-width="0.459" x1="5315.6" y1="292.8" x2="5315.6" y2="276.8"/>
	<g enable-background="new    ">
		<path d="M5313.8,291.2c1.6,0,2.5,1.1,2,2.5c-0.5,1.4-2.2,2.5-3.8,2.5c-1.6,0-2.5-1.2-2-2.5
			C5310.5,292.3,5312.2,291.2,5313.8,291.2z"/>
	</g>
	<line fill="none" stroke="#000000" stroke-width="0.459" x1="5351.2" y1="302.4" x2="5351.2" y2="286.4"/>
	<g enable-background="new    ">
		<path d="M5351.5,303.4c-0.4,1-1.2,1.8-1.8,2.1c-0.6,0.3-1.4,0.4-2.2,0.4c-0.5,0-1.5-0.2-1.8-0.8c-0.4-0.7-0.1-1.4,0-1.8
			c0.4-1,1.1-1.6,1.7-2c0.6-0.3,1.5-0.6,2.5-0.5c0.4,0.1,1.3,0.1,1.7,0.8C5351.8,302.1,5351.6,303,5351.5,303.4z M5349.2,301.8
			c-0.4,0.2-0.7,0.4-1.1,0.6c-0.4,0.2-0.7,0.4-1.1,0.7c-0.6,0.3-1.3,1-0.9,1.6c0.4,0.6,1.3,0.3,1.9,0c0.4-0.2,0.8-0.4,1.2-0.6
			c0.4-0.2,0.7-0.4,1.1-0.7c0.5-0.3,1.3-1,0.9-1.6C5350.7,301.2,5349.8,301.5,5349.2,301.8z"/>
	</g>
	<line fill="none" stroke="#000000" stroke-width="0.459" x1="5417.2" y1="302.4" x2="5417.2" y2="286.4"/>
	<g enable-background="new    ">
		<path d="M5415.4,300.8c1.6,0,2.5,1.1,2,2.5c-0.5,1.4-2.2,2.5-3.8,2.5c-1.6,0-2.5-1.2-2-2.5
			C5412.1,301.9,5413.8,300.8,5415.4,300.8z"/>
	</g>
	<line fill="none" stroke="#000000" stroke-width="0.459" x1="5450.8" y1="302.4" x2="5450.8" y2="286.4"/>
	<g enable-background="new    ">
		<path d="M5449,300.8c1.6,0,2.5,1.1,2,2.5c-0.5,1.4-2.2,2.5-3.8,2.5c-1.6,0-2.5-1.2-2-2.5C5445.7,301.9,5447.4,300.8,5449,300.8z"
			/>
	</g>
	<line fill="none" stroke="#000000" stroke-width="0.459" x1="5483.2" y1="302.4" x2="5483.2" y2="286.4"/>
	<g enable-background="new    ">
		<path d="M5483.5,303.4c-0.4,1-1.2,1.8-1.8,2.1c-0.6,0.3-1.4,0.4-2.2,0.4c-0.5,0-1.5-0.2-1.8-0.8c-0.4-0.7-0.1-1.4,0-1.8
			c0.4-1,1.1-1.6,1.7-2c0.6-0.3,1.5-0.6,2.5-0.5c0.4,0.1,1.3,0.1,1.7,0.8C5483.8,302.1,5483.6,303,5483.5,303.4z M5481.2,301.8
			c-0.4,0.2-0.7,0.4-1.1,0.6c-0.4,0.2-0.7,0.4-1.1,0.7c-0.6,0.3-1.3,1-0.9,1.6c0.4,0.6,1.3,0.3,1.9,0c0.4-0.2,0.8-0.4,1.2-0.6
			c0.4-0.2,0.7-0.4,1.1-0.7c0.5-0.3,1.3-1,0.9-1.6C5482.7,301.2,5481.8,301.5,5481.2,301.8z"/>
	</g>
	<line fill="none" stroke="#000000" stroke-width="0.459" x1="5549.2" y1="302.4" x2="5549.2" y2="286.4"/>
	<g enable-background="new    ">
		<path d="M5547.4,300.8c1.6,0,2.5,1.1,2,2.5c-0.5,1.4-2.2,2.5-3.8,2.5c-1.6,0-2.5-1.2-2-2.5
			C5544.1,301.9,5545.8,300.8,5547.4,300.8z"/>
	</g>
	<line fill="none" stroke="#000000" stroke-width="0.459" x1="5579.6" y1="302.4" x2="5579.6" y2="286.4"/>
	<g enable-background="new    ">
		<path d="M5577.8,300.8c1.6,0,2.5,1.1,2,2.5c-0.5,1.4-2.2,2.5-3.8,2.5c-1.6,0-2.5-1.2-2-2.5
			C5574.5,301.9,5576.2,300.8,5577.8,300.8z"/>
	</g>
	<line fill="none" stroke="#000000" stroke-width="0.459" x1="5615.2" y1="302.4" x2="5615.2" y2="286.4"/>
	<g enable-background="new    ">
		<path d="M5615.5,303.4c-0.4,1-1.2,1.8-1.8,2.1c-0.6,0.3-1.4,0.4-2.2,0.4c-0.5,0-1.5-0.2-1.8-0.8c-0.4-0.7-0.1-1.4,0-1.8
			c0.4-1,1.1-1.6,1.7-2c0.6-0.3,1.5-0.6,2.5-0.5c0.4,0.1,1.3,0.1,1.7,0.8C5615.8,302.1,5615.6,303,5615.5,303.4z M5613.2,301.8
			c-0.4,0.2-0.7,0.4-1.1,0.6c-0.4,0.2-0.7,0.4-1.1,0.7c-0.6,0.3-1.3,1-0.9,1.6c0.4,0.6,1.3,0.3,1.9,0c0.4-0.2,0.8-0.4,1.2-0.6
			c0.4-0.2,0.7-0.4,1.1-0.7c0.5-0.3,1.3-1,0.9-1.6C5614.7,301.2,5613.8,301.5,5613.2,301.8z"/>
	</g>
	<g enable-background="new    ">
		<path d="M5679.4,300.8c1.6,0,2.5,1.1,2,2.5c-0.5,1.4-2.2,2.5-3.8,2.5c-1.6,0-2.5-1.2-2-2.5
			C5676.1,301.9,5677.8,300.8,5679.4,300.8z"/>
	</g>
	<line fill="none" stroke="#000000" stroke-width="0.459" x1="5681.2" y1="302.4" x2="5681.2" y2="287.6"/>
	<g enable-background="new    ">
		<path d="M5694.8,298.4c1.6,0,2.5,1.1,2,2.5c-0.5,1.4-2.2,2.5-3.8,2.5c-1.6,0-2.5-1.2-2-2.5
			C5691.5,299.5,5693.2,298.4,5694.8,298.4z"/>
	</g>
	<line fill="none" stroke="#000000" stroke-width="0.459" x1="5696.6" y1="300" x2="5696.6" y2="286.4"/>
	<path d="M5680.9,286.4l15.9-1.2v2.4l-15.9,1.2V286.4z"/>
	<g enable-background="new    ">
		<path d="M5710,296c1.6,0,2.5,1.1,2,2.5c-0.5,1.4-2.2,2.5-3.8,2.5c-1.6,0-2.5-1.2-2-2.5C5706.7,297.1,5708.4,296,5710,296z"/>
	</g>
	<line fill="none" stroke="#000000" stroke-width="0.459" x1="5711.8" y1="297.6" x2="5711.8" y2="282.8"/>
	<g enable-background="new    ">
		<path d="M5725,293.6c1.6,0,2.5,1.1,2,2.5c-0.5,1.4-2.2,2.5-3.8,2.5c-1.6,0-2.5-1.2-2-2.5C5721.7,294.7,5723.4,293.6,5725,293.6z"
			/>
	</g>
	<line fill="none" stroke="#000000" stroke-width="0.459" x1="5726.8" y1="295.2" x2="5726.8" y2="280.4"/>
	<path d="M5711.5,281.6l15.5-2.4v2.4l-15.5,2.4V281.6z"/>
	<line fill="none" stroke="#000000" stroke-width="0.459" x1="5747.2" y1="292.8" x2="5747.2" y2="276.8"/>
	<g enable-background="new    ">
		<path d="M5747.5,293.8c-0.4,1-1.2,1.8-1.8,2.1c-0.6,0.3-1.4,0.4-2.2,0.4c-0.5,0-1.5-0.2-1.8-0.8c-0.4-0.7-0.1-1.4,0-1.8
			c0.4-1,1.1-1.6,1.7-2c0.6-0.3,1.5-0.6,2.5-0.5c0.4,0.1,1.3,0.1,1.7,0.8C5747.8,292.5,5747.6,293.4,5747.5,293.8z M5745.2,292.2
			c-0.4,0.2-0.7,0.4-1.1,0.6c-0.4,0.2-0.7,0.4-1.1,0.7c-0.6,0.3-1.3,1-0.9,1.6c0.4,0.6,1.3,0.3,1.9,0c0.4-0.2,0.8-0.4,1.2-0.6
			c0.4-0.2,0.7-0.4,1.1-0.7c0.5-0.3,1.3-1,0.9-1.6C5746.7,291.6,5745.8,291.9,5745.2,292.2z"/>
	</g>
	<line fill="none" stroke="#000000" stroke-width="0.459" x1="5813.2" y1="292.8" x2="5813.2" y2="276.8"/>
	<g enable-background="new    ">
		<path d="M5811.4,291.2c1.6,0,2.5,1.1,2,2.5c-0.5,1.4-2.2,2.5-3.8,2.5c-1.6,0-2.5-1.2-2-2.5
			C5808.1,292.3,5809.8,291.2,5811.4,291.2z"/>
	</g>
	<line fill="none" stroke="#000000" stroke-width="0.459" x1="5843.6" y1="292.8" x2="5843.6" y2="276.8"/>
	<g enable-background="new    ">
		<path d="M5841.8,291.2c1.6,0,2.5,1.1,2,2.5c-0.5,1.4-2.2,2.5-3.8,2.5c-1.6,0-2.5-1.2-2-2.5
			C5838.5,292.3,5840.2,291.2,5841.8,291.2z"/>
	</g>
	<line fill="none" stroke="#000000" stroke-width="0.459" x1="5879.2" y1="302.4" x2="5879.2" y2="286.4"/>
	<g enable-background="new    ">
		<path d="M5879.5,303.4c-0.4,1-1.2,1.8-1.8,2.1c-0.6,0.3-1.4,0.4-2.2,0.4c-0.5,0-1.5-0.2-1.8-0.8c-0.4-0.7-0.1-1.4,0-1.8
			c0.4-1,1.1-1.6,1.7-2c0.6-0.3,1.5-0.6,2.5-0.5c0.4,0.1,1.3,0.1,1.7,0.8C5879.8,302.1,5879.6,303,5879.5,303.4z M5877.2,301.8
			c-0.4,0.2-0.7,0.4-1.1,0.6c-0.4,0.2-0.7,0.4-1.1,0.7c-0.6,0.3-1.3,1-0.9,1.6c0.4,0.6,1.3,0.3,1.9,0c0.4-0.2,0.8-0.4,1.2-0.6
			c0.4-0.2,0.7-0.4,1.1-0.7c0.5-0.3,1.3-1,0.9-1.6C5878.7,301.2,5877.8,301.5,5877.2,301.8z"/>
	</g>
</g>
</svg>
