<?xml version="1.0" encoding="utf-8"?>
<!-- Generator: Adobe Illustrator 16.0.0, SVG Export Plug-In . SVG Version: 6.00 Build 0)  -->
<!DOCTYPE svg PUBLIC "-//W3C//DTD SVG 1.1//EN" "http://www.w3.org/Graphics/SVG/1.1/DTD/svg11.dtd">
<svg version="1.1" id="Layer_1" xmlns="http://www.w3.org/2000/svg" xmlns:xlink="http://www.w3.org/1999/xlink" x="0px" y="0px"
	 width="2880px" height="58.7px" viewBox="928 349 2880 58.7" enable-background="new 928 349 2880 58.7" xml:space="preserve">
<g id="Music">
	<rect x="928" y="349" fill="#FFFFFF" width="2880" height="72"/>
	<text transform="matrix(1 0 0 1 961 386)" font-family="'Maestro'" font-size="19.2">&amp;</text>
	<text transform="matrix(1 0 0 1 979.7998 381.2002)" font-family="'Maestro'" font-size="19.2">b</text>
	<text transform="matrix(1 0 0 1 991.7998 386)" font-family="'Maestro'" font-size="19.2">4</text>
	<text transform="matrix(1 0 0 1 991.7998 376.4004)" font-family="'Maestro'" font-size="19.2">4</text>
	<line fill="none" stroke="#000000" stroke-width="0.459" x1="1022" y1="371.6" x2="1022" y2="390.8"/>
	<line fill="none" stroke="#000000" stroke-width="0.459" x1="1100.6" y1="371.6" x2="1100.6" y2="390.8"/>
	<line fill="none" stroke="#000000" stroke-width="0.459" x1="1179.2" y1="371.6" x2="1179.2" y2="390.8"/>
	<line fill="none" stroke="#000000" stroke-width="0.459" x1="1257.8" y1="371.6" x2="1257.8" y2="390.8"/>
	<line fill="none" stroke="#000000" stroke-width="0.459" x1="1336.4" y1="371.6" x2="1336.4" y2="390.8"/>
	<line fill="none" stroke="#000000" stroke-width="0.459" x1="1415" y1="371.6" x2="1415" y2="390.8"/>
	<line fill="none" stroke="#000000" stroke-width="0.459" x1="1493.6" y1="371.6" x2="1493.6" y2="390.8"/>
	<line fill="none" stroke="#000000" stroke-width="0.459" x1="1572.2" y1="371.6" x2="1572.2" y2="390.8"/>
	<line fill="none" stroke="#000000" stroke-width="0.459" x1="1650.8" y1="371.6" x2="1650.8" y2="390.8"/>
	<line fill="none" stroke="#000000" stroke-width="0.459" x1="1729.4" y1="371.6" x2="1729.4" y2="390.8"/>
	<line fill="none" stroke="#000000" stroke-width="0.459" x1="1808" y1="371.6" x2="1808" y2="390.8"/>
	<line fill="none" stroke="#000000" stroke-width="0.459" x1="1886.6" y1="371.6" x2="1886.6" y2="390.8"/>
	<line fill="none" stroke="#000000" stroke-width="0.459" x1="1965.2" y1="371.6" x2="1965.2" y2="390.8"/>
	<line fill="none" stroke="#000000" stroke-width="0.459" x1="2043.8" y1="371.6" x2="2043.8" y2="390.8"/>
	<line fill="none" stroke="#000000" stroke-width="0.459" x1="2122.4" y1="371.6" x2="2122.4" y2="390.8"/>
	<line fill="none" stroke="#000000" stroke-width="0.459" x1="2201" y1="371.6" x2="2201" y2="390.8"/>
	<line fill="none" stroke="#000000" stroke-width="0.459" x1="2279.6" y1="371.6" x2="2279.6" y2="390.8"/>
	<line fill="none" stroke="#000000" stroke-width="0.459" x1="2358.2" y1="371.6" x2="2358.2" y2="390.8"/>
	<line fill="none" stroke="#000000" stroke-width="0.459" x1="2436.8" y1="371.6" x2="2436.8" y2="390.8"/>
	<line fill="none" stroke="#000000" stroke-width="0.459" x1="2515.4" y1="371.6" x2="2515.4" y2="390.8"/>
	<line fill="none" stroke="#000000" stroke-width="0.459" x1="2594" y1="371.6" x2="2594" y2="390.8"/>
	<line fill="none" stroke="#000000" stroke-width="0.459" x1="2672.6" y1="371.6" x2="2672.6" y2="390.8"/>
	<line fill="none" stroke="#000000" stroke-width="0.459" x1="2751.2" y1="371.6" x2="2751.2" y2="390.8"/>
	<line fill="none" stroke="#000000" stroke-width="0.459" x1="2829.8" y1="371.6" x2="2829.8" y2="390.8"/>
	<line fill="none" stroke="#000000" stroke-width="0.459" x1="2908.4" y1="371.6" x2="2908.4" y2="390.8"/>
	<line fill="none" stroke="#000000" stroke-width="0.459" x1="2987" y1="371.6" x2="2987" y2="390.8"/>
	<line fill="none" stroke="#000000" stroke-width="0.459" x1="3065.6" y1="371.6" x2="3065.6" y2="390.8"/>
	<line fill="none" stroke="#000000" stroke-width="0.459" x1="3144.2" y1="371.6" x2="3144.2" y2="390.8"/>
	<line fill="none" stroke="#000000" stroke-width="0.459" x1="3222.8" y1="371.6" x2="3222.8" y2="390.8"/>
	<line fill="none" stroke="#000000" stroke-width="0.459" x1="3301.4" y1="371.6" x2="3301.4" y2="390.8"/>
	<line fill="none" stroke="#000000" stroke-width="0.459" x1="3380" y1="371.6" x2="3380" y2="390.8"/>
	<line fill="none" stroke="#000000" stroke-width="0.459" x1="3458.6" y1="371.6" x2="3458.6" y2="390.8"/>
	<line fill="none" stroke="#000000" stroke-width="0.459" x1="3537.2" y1="371.6" x2="3537.2" y2="390.8"/>
	<line fill="none" stroke="#000000" stroke-width="0.459" x1="3615.8" y1="371.6" x2="3615.8" y2="390.8"/>
	<line fill="none" stroke="#000000" stroke-width="0.459" x1="3694.4" y1="371.6" x2="3694.4" y2="390.8"/>
	<line fill="none" stroke="#000000" stroke-width="2.419" x1="3778.6" y1="371.6" x2="3778.6" y2="390.8"/>
	<line fill="none" stroke="#000000" stroke-width="0.459" x1="3774.7" y1="371.6" x2="3774.7" y2="390.8"/>
	<line fill="none" stroke="#000000" stroke-width="0.459" x1="956.2" y1="371.6" x2="3779.8" y2="371.6"/>
	<line fill="none" stroke="#000000" stroke-width="0.459" x1="956.2" y1="376.4" x2="3779.8" y2="376.4"/>
	<line fill="none" stroke="#000000" stroke-width="0.459" x1="956.2" y1="381.2" x2="3779.8" y2="381.2"/>
	<line fill="none" stroke="#000000" stroke-width="0.459" x1="956.2" y1="386" x2="3779.8" y2="386"/>
	<line fill="none" stroke="#000000" stroke-width="0.459" x1="956.2" y1="390.8" x2="3779.8" y2="390.8"/>
	<line fill="none" stroke="#000000" stroke-width="0.459" x1="1007" y1="395.6" x2="1014.4" y2="395.6"/>
	<text transform="matrix(1 0 0 1 1008.2002 395.5996)" font-family="'Maestro'" font-size="16.8">œ</text>
	<line fill="none" stroke="#000000" stroke-width="0.459" x1="1013" y1="394.8" x2="1013" y2="377.6"/>
	<text transform="matrix(1 0 0 1 1015.6001 390.7998)" font-family="'Maestro'" font-size="16.8">œ</text>
	<line fill="none" stroke="#000000" stroke-width="0.459" x1="1020.4" y1="390" x2="1020.4" y2="376.4"/>
	<path d="M1012.7,376.4l7.9-1.2v2.4l-7.9,1.2V376.4z"/>
	<text transform="matrix(1 0 0 1 1033.6001 384)" font-family="'Maestro'" font-size="19.2">.</text>
	<text transform="matrix(1 0 0 1 1027 386)" font-family="'Maestro'" font-size="16.8">œ</text>
	<line fill="none" stroke="#000000" stroke-width="0.459" x1="1031.8" y1="385.2" x2="1031.8" y2="370.4"/>
	<text transform="matrix(1 0 0 1 1044.6001 386)" font-family="'Maestro'" font-size="16.8">œ</text>
	<line fill="none" stroke="#000000" stroke-width="0.459" x1="1049.4" y1="385.2" x2="1049.4" y2="370.4"/>
	<path d="M1031.5,369.2h18.1v2.4h-18.1V369.2z"/>
	<path d="M1045.5,372.8h4.1v2.4h-4.1V372.8z"/>
	<line fill="none" stroke="#000000" stroke-width="0.459" x1="1057.4" y1="385.2" x2="1057.4" y2="369.2"/>
	<text transform="matrix(1 0 0 1 1052.6001 386)" font-family="'Maestro'" font-size="16.8">œ</text>
	<text transform="matrix(1 0 0 1 1074 383.5996)" font-family="'Maestro'" font-size="16.8">œ</text>
	<line fill="none" stroke="#000000" stroke-width="0.459" x1="1078.8" y1="382.8" x2="1078.8" y2="368"/>
	<text transform="matrix(1 0 0 1 1087.2002 383.5996)" font-family="'Maestro'" font-size="16.8">œ</text>
	<line fill="none" stroke="#000000" stroke-width="0.459" x1="1092" y1="382.8" x2="1092" y2="368"/>
	<path d="M1078.5,366.8h13.7v2.4h-13.7V366.8z"/>
	<text transform="matrix(1 0 0 1 1005.3999 358.4004)" font-family="'ArialMT'" font-size="8">A</text>
	<text transform="matrix(1 0 0 1 1027 368)" font-family="'ArialMT'" font-size="8">C</text>
	<text transform="matrix(1 0 0 1 1074 368)" font-family="'ArialMT'" font-size="8">F</text>
	<line fill="none" stroke="#000000" stroke-width="0.459" x1="1111.4" y1="385.2" x2="1111.4" y2="369.2"/>
	<text transform="matrix(1 0 0 1 1105.6001 386)" font-family="'Maestro'" font-size="16.8">˙</text>
	<line fill="none" stroke="#000000" stroke-width="0.459" x1="1146" y1="395.6" x2="1153.4" y2="395.6"/>
	<text transform="matrix(1 0 0 1 1147.2002 395.5996)" font-family="'Maestro'" font-size="16.8">œ</text>
	<line fill="none" stroke="#000000" stroke-width="0.459" x1="1152" y1="394.8" x2="1152" y2="377.6"/>
	<text transform="matrix(1 0 0 1 1163.2002 390.7998)" font-family="'Maestro'" font-size="16.8">œ</text>
	<line fill="none" stroke="#000000" stroke-width="0.459" x1="1168" y1="390" x2="1168" y2="376.4"/>
	<path d="M1151.7,376.4l16.5-1.2v2.4l-16.5,1.2V376.4z"/>
	<text transform="matrix(1 0 0 1 1105.6001 368)" font-family="'ArialMT'" font-size="8">C</text>
	<text transform="matrix(1 0 0 1 1190.7998 384)" font-family="'Maestro'" font-size="19.2">.</text>
	<text transform="matrix(1 0 0 1 1184.2002 386)" font-family="'Maestro'" font-size="16.8">œ</text>
	<line fill="none" stroke="#000000" stroke-width="0.459" x1="1189" y1="385.2" x2="1189" y2="370.4"/>
	<text transform="matrix(1 0 0 1 1201.7998 386)" font-family="'Maestro'" font-size="16.8">œ</text>
	<line fill="none" stroke="#000000" stroke-width="0.459" x1="1206.6" y1="385.2" x2="1206.6" y2="370.4"/>
	<path d="M1188.7,369.2h18.1v2.4h-18.1V369.2z"/>
	<path d="M1202.7,372.8h4.1v2.4h-4.1V372.8z"/>
	<line fill="none" stroke="#000000" stroke-width="0.459" x1="1214.6" y1="385.2" x2="1214.6" y2="369.2"/>
	<text transform="matrix(1 0 0 1 1209.7998 386)" font-family="'Maestro'" font-size="16.8">œ</text>
	<text transform="matrix(1 0 0 1 1231.2002 388.4004)" font-family="'Maestro'" font-size="16.8">œ</text>
	<line fill="none" stroke="#000000" stroke-width="0.459" x1="1236" y1="387.6" x2="1236" y2="375.2"/>
	<text transform="matrix(1 0 0 1 1244.3999 390.7998)" font-family="'Maestro'" font-size="16.8">œ</text>
	<line fill="none" stroke="#000000" stroke-width="0.459" x1="1249.2" y1="390" x2="1249.2" y2="376.4"/>
	<path d="M1235.7,374l13.7,1.2v2.4l-13.7-1.2V374z"/>
	<text transform="matrix(1 0 0 1 1184.2002 368)" font-family="'ArialMT'" font-size="8">E</text>
	<text transform="matrix(1 0 0 1 1190 368)" font-family="'ArialMT'" font-size="7.2">m</text>
	<text transform="matrix(1 0 0 1 1231.2002 368)" font-family="'ArialMT'" font-size="8">F</text>
	<line fill="none" stroke="#000000" stroke-width="0.459" x1="1268.6" y1="392.4" x2="1268.6" y2="376.4"/>
	<text transform="matrix(1 0 0 1 1262.7998 393.2002)" font-family="'Maestro'" font-size="16.8">˙</text>
	<line fill="none" stroke="#000000" stroke-width="0.459" x1="1303.2" y1="395.6" x2="1310.6" y2="395.6"/>
	<text transform="matrix(1 0 0 1 1304.3999 395.5996)" font-family="'Maestro'" font-size="16.8">œ</text>
	<line fill="none" stroke="#000000" stroke-width="0.459" x1="1309.2" y1="394.8" x2="1309.2" y2="377.6"/>
	<text transform="matrix(1 0 0 1 1320.3999 390.7998)" font-family="'Maestro'" font-size="16.8">œ</text>
	<line fill="none" stroke="#000000" stroke-width="0.459" x1="1325.2" y1="390" x2="1325.2" y2="376.4"/>
	<path d="M1308.9,376.4l16.5-1.2v2.4l-16.5,1.2V376.4z"/>
	<text transform="matrix(1 0 0 1 1262.7998 368)" font-family="'ArialMT'" font-size="8">G</text>
	<text transform="matrix(1 0 0 1 1348 384)" font-family="'Maestro'" font-size="19.2">.</text>
	<text transform="matrix(1 0 0 1 1341.3999 386)" font-family="'Maestro'" font-size="16.8">œ</text>
	<line fill="none" stroke="#000000" stroke-width="0.459" x1="1346.2" y1="385.2" x2="1346.2" y2="370.4"/>
	<text transform="matrix(1 0 0 1 1359 386)" font-family="'Maestro'" font-size="16.8">œ</text>
	<line fill="none" stroke="#000000" stroke-width="0.459" x1="1363.8" y1="385.2" x2="1363.8" y2="370.4"/>
	<path d="M1345.9,369.2h18.1v2.4h-18.1V369.2z"/>
	<path d="M1359.9,372.8h4.1v2.4h-4.1V372.8z"/>
	<line fill="none" stroke="#000000" stroke-width="0.459" x1="1371.8" y1="385.2" x2="1371.8" y2="369.2"/>
	<text transform="matrix(1 0 0 1 1367 386)" font-family="'Maestro'" font-size="16.8">œ</text>
	<text transform="matrix(1 0 0 1 1388.3999 383.5996)" font-family="'Maestro'" font-size="16.8">œ</text>
	<line fill="none" stroke="#000000" stroke-width="0.459" x1="1393.2" y1="382.8" x2="1393.2" y2="368"/>
	<text transform="matrix(1 0 0 1 1401.6001 383.5996)" font-family="'Maestro'" font-size="16.8">œ</text>
	<line fill="none" stroke="#000000" stroke-width="0.459" x1="1406.4" y1="382.8" x2="1406.4" y2="368"/>
	<path d="M1392.9,366.8h13.7v2.4h-13.7V366.8z"/>
	<text transform="matrix(1 0 0 1 1341.3999 368)" font-family="'ArialMT'" font-size="8">C</text>
	<text transform="matrix(1 0 0 1 1388.3999 368)" font-family="'ArialMT'" font-size="8">F</text>
	<line fill="none" stroke="#000000" stroke-width="0.459" x1="1425.8" y1="385.2" x2="1425.8" y2="369.2"/>
	<text transform="matrix(1 0 0 1 1420 386)" font-family="'Maestro'" font-size="16.8">˙</text>
	<line fill="none" stroke="#000000" stroke-width="0.459" x1="1470.2" y1="387.6" x2="1470.2" y2="371.6"/>
	<text transform="matrix(1 0 0 1 1465.3999 388.4004)" font-family="'Maestro'" font-size="16.8">œ</text>
	<text transform="matrix(1 0 0 1 1420 368)" font-family="'ArialMT'" font-size="8">C</text>
	<text transform="matrix(1 0 0 1 1465.3999 368)" font-family="'ArialMT'" font-size="8">F</text>
	<text transform="matrix(1 0 0 1 1503.6001 378.7998)" font-family="'Maestro'" font-size="19.2">j</text>
	<line fill="none" stroke="#000000" stroke-width="0.459" x1="1503.4" y1="390" x2="1503.4" y2="374"/>
	<text transform="matrix(1 0 0 1 1498.6001 390.7998)" font-family="'Maestro'" font-size="16.8">œ</text>
	<text transform="matrix(1 0 0 1 1519.3999 393.5996)" font-family="'Maestro'" font-size="19.2">.</text>
	<line fill="none" stroke="#000000" stroke-width="0.459" x1="1517.6" y1="394.8" x2="1517.6" y2="378.8"/>
	<line fill="none" stroke="#000000" stroke-width="0.459" x1="1511.6" y1="395.6" x2="1519" y2="395.6"/>
	<text transform="matrix(1 0 0 1 1512.7998 395.5996)" font-family="'Maestro'" font-size="16.8">œ</text>
	<text transform="matrix(1 0 0 1 1543.3999 393.2002)" font-family="'Maestro'" font-size="16.8">œ</text>
	<line fill="none" stroke="#000000" stroke-width="0.459" x1="1548.2" y1="392.4" x2="1548.2" y2="377.6"/>
	<text transform="matrix(1 0 0 1 1557.7998 393.2002)" font-family="'Maestro'" font-size="16.8">œ</text>
	<line fill="none" stroke="#000000" stroke-width="0.459" x1="1562.6" y1="392.4" x2="1562.6" y2="377.6"/>
	<path d="M1547.9,376.4h14.9v2.4h-14.9V376.4z"/>
	<text transform="matrix(1 0 0 1 1498.6001 368)" font-family="'ArialMT'" font-size="8">C</text>
	<text transform="matrix(1 0 0 1 1543.3999 368)" font-family="'ArialMT'" font-size="8">G</text>
	<line fill="none" stroke="#000000" stroke-width="0.459" x1="1584.4" y1="394.8" x2="1584.4" y2="378.8"/>
	<line fill="none" stroke="#000000" stroke-width="0.459" x1="1577.4" y1="395.6" x2="1585.8" y2="395.6"/>
	<text transform="matrix(1 0 0 1 1578.6001 395.5996)" font-family="'Maestro'" font-size="16.8">˙</text>
	<text transform="matrix(1 0 0 1 1578.6001 368)" font-family="'ArialMT'" font-size="8">C</text>
	<line fill="none" stroke="#000000" stroke-width="0.459" x1="1656" y1="395.6" x2="1663.4" y2="395.6"/>
	<text transform="matrix(1 0 0 1 1657.2002 395.5996)" font-family="'Maestro'" font-size="16.8">œ</text>
	<line fill="none" stroke="#000000" stroke-width="0.459" x1="1662" y1="394.8" x2="1662" y2="377.6"/>
	<text transform="matrix(1 0 0 1 1693.2002 390.7998)" font-family="'Maestro'" font-size="16.8">œ</text>
	<line fill="none" stroke="#000000" stroke-width="0.459" x1="1698" y1="390" x2="1698" y2="376.4"/>
	<path d="M1661.7,376.4l36.5-1.2v2.4l-36.5,1.2V376.4z"/>
	<text transform="matrix(1 0 0 1 1741 384)" font-family="'Maestro'" font-size="19.2">.</text>
	<text transform="matrix(1 0 0 1 1734.3999 386)" font-family="'Maestro'" font-size="16.8">œ</text>
	<line fill="none" stroke="#000000" stroke-width="0.459" x1="1739.2" y1="385.2" x2="1739.2" y2="370.4"/>
	<text transform="matrix(1 0 0 1 1752 386)" font-family="'Maestro'" font-size="16.8">œ</text>
	<line fill="none" stroke="#000000" stroke-width="0.459" x1="1756.8" y1="385.2" x2="1756.8" y2="370.4"/>
	<path d="M1738.9,369.2h18.1v2.4h-18.1V369.2z"/>
	<path d="M1752.9,372.8h4.1v2.4h-4.1V372.8z"/>
	<line fill="none" stroke="#000000" stroke-width="0.459" x1="1764.8" y1="385.2" x2="1764.8" y2="369.2"/>
	<text transform="matrix(1 0 0 1 1760 386)" font-family="'Maestro'" font-size="16.8">œ</text>
	<text transform="matrix(1 0 0 1 1781.3999 383.5996)" font-family="'Maestro'" font-size="16.8">œ</text>
	<line fill="none" stroke="#000000" stroke-width="0.459" x1="1786.2" y1="382.8" x2="1786.2" y2="368"/>
	<text transform="matrix(1 0 0 1 1794.6001 383.5996)" font-family="'Maestro'" font-size="16.8">œ</text>
	<line fill="none" stroke="#000000" stroke-width="0.459" x1="1799.4" y1="382.8" x2="1799.4" y2="368"/>
	<path d="M1785.9,366.8h13.7v2.4h-13.7V366.8z"/>
	<text transform="matrix(1 0 0 1 1734.3999 368)" font-family="'ArialMT'" font-size="8">C</text>
	<text transform="matrix(1 0 0 1 1781.3999 368)" font-family="'ArialMT'" font-size="8">F</text>
	<line fill="none" stroke="#000000" stroke-width="0.459" x1="1818.8" y1="385.2" x2="1818.8" y2="369.2"/>
	<text transform="matrix(1 0 0 1 1813 386)" font-family="'Maestro'" font-size="16.8">˙</text>
	<line fill="none" stroke="#000000" stroke-width="0.459" x1="1853.4" y1="395.6" x2="1860.8" y2="395.6"/>
	<text transform="matrix(1 0 0 1 1854.6001 395.5996)" font-family="'Maestro'" font-size="16.8">œ</text>
	<line fill="none" stroke="#000000" stroke-width="0.459" x1="1859.4" y1="394.8" x2="1859.4" y2="377.6"/>
	<text transform="matrix(1 0 0 1 1870.6001 390.7998)" font-family="'Maestro'" font-size="16.8">œ</text>
	<line fill="none" stroke="#000000" stroke-width="0.459" x1="1875.4" y1="390" x2="1875.4" y2="376.4"/>
	<path d="M1859.1,376.4l16.5-1.2v2.4l-16.5,1.2V376.4z"/>
	<text transform="matrix(1 0 0 1 1813 368)" font-family="'ArialMT'" font-size="8">C</text>
	<text transform="matrix(1 0 0 1 1898.2002 384)" font-family="'Maestro'" font-size="19.2">.</text>
	<text transform="matrix(1 0 0 1 1891.6001 386)" font-family="'Maestro'" font-size="16.8">œ</text>
	<line fill="none" stroke="#000000" stroke-width="0.459" x1="1896.4" y1="385.2" x2="1896.4" y2="370.4"/>
	<text transform="matrix(1 0 0 1 1909.2002 386)" font-family="'Maestro'" font-size="16.8">œ</text>
	<line fill="none" stroke="#000000" stroke-width="0.459" x1="1914" y1="385.2" x2="1914" y2="370.4"/>
	<path d="M1896.1,369.2h18.1v2.4h-18.1V369.2z"/>
	<path d="M1910.1,372.8h4.1v2.4h-4.1V372.8z"/>
	<line fill="none" stroke="#000000" stroke-width="0.459" x1="1922" y1="385.2" x2="1922" y2="369.2"/>
	<text transform="matrix(1 0 0 1 1917.2002 386)" font-family="'Maestro'" font-size="16.8">œ</text>
	<text transform="matrix(1 0 0 1 1938.6001 383.5996)" font-family="'Maestro'" font-size="16.8">œ</text>
	<text transform="matrix(1 0 0 1 1938.6001 388.4004)" font-family="'Maestro'" font-size="16.8">œ</text>
	<line fill="none" stroke="#000000" stroke-width="0.459" x1="1943.4" y1="387.6" x2="1943.4" y2="368"/>
	<text transform="matrix(1 0 0 1 1951.7998 383.5996)" font-family="'Maestro'" font-size="16.8">œ</text>
	<text transform="matrix(1 0 0 1 1951.7998 390.7998)" font-family="'Maestro'" font-size="16.8">œ</text>
	<line fill="none" stroke="#000000" stroke-width="0.459" x1="1956.6" y1="390" x2="1956.6" y2="368"/>
	<path d="M1943.1,366.8h13.7v2.4h-13.7V366.8z"/>
	<text transform="matrix(1 0 0 1 1891.6001 368)" font-family="'ArialMT'" font-size="8">E</text>
	<text transform="matrix(1 0 0 1 1897.3999 368)" font-family="'ArialMT'" font-size="7.2">m</text>
	<text transform="matrix(1 0 0 1 1938.6001 368)" font-family="'ArialMT'" font-size="8">F</text>
	<line fill="none" stroke="#000000" stroke-width="0.459" x1="1976" y1="392.4" x2="1976" y2="369.2"/>
	<text transform="matrix(1 0 0 1 1970.2002 386)" font-family="'Maestro'" font-size="16.8">˙</text>
	<text transform="matrix(1 0 0 1 1970.2002 393.2002)" font-family="'Maestro'" font-size="16.8">˙</text>
	<line fill="none" stroke="#000000" stroke-width="0.459" x1="2010.6" y1="395.6" x2="2018" y2="395.6"/>
	<text transform="matrix(1 0 0 1 2011.7998 395.5996)" font-family="'Maestro'" font-size="16.8">œ</text>
	<line fill="none" stroke="#000000" stroke-width="0.459" x1="2016.6" y1="394.8" x2="2016.6" y2="377.6"/>
	<text transform="matrix(1 0 0 1 2027.7998 390.7998)" font-family="'Maestro'" font-size="16.8">œ</text>
	<line fill="none" stroke="#000000" stroke-width="0.459" x1="2032.6" y1="390" x2="2032.6" y2="376.4"/>
	<path d="M2016.3,376.4l16.5-1.2v2.4l-16.5,1.2V376.4z"/>
	<text transform="matrix(1 0 0 1 1970.2002 368)" font-family="'ArialMT'" font-size="8">G</text>
	<text transform="matrix(1 0 0 1 2055.3999 384)" font-family="'Maestro'" font-size="19.2">.</text>
	<text transform="matrix(1 0 0 1 2048.7998 386)" font-family="'Maestro'" font-size="16.8">œ</text>
	<line fill="none" stroke="#000000" stroke-width="0.459" x1="2053.6" y1="385.2" x2="2053.6" y2="370.4"/>
	<text transform="matrix(1 0 0 1 2066.3999 386)" font-family="'Maestro'" font-size="16.8">œ</text>
	<line fill="none" stroke="#000000" stroke-width="0.459" x1="2071.2" y1="385.2" x2="2071.2" y2="370.4"/>
	<path d="M2053.3,369.2h18.1v2.4h-18.1V369.2z"/>
	<path d="M2067.3,372.8h4.1v2.4h-4.1V372.8z"/>
	<line fill="none" stroke="#000000" stroke-width="0.459" x1="2079.2" y1="385.2" x2="2079.2" y2="369.2"/>
	<text transform="matrix(1 0 0 1 2074.3999 386)" font-family="'Maestro'" font-size="16.8">œ</text>
	<text transform="matrix(1 0 0 1 2095.7998 383.5996)" font-family="'Maestro'" font-size="16.8">œ</text>
	<line fill="none" stroke="#000000" stroke-width="0.459" x1="2100.6" y1="382.8" x2="2100.6" y2="368"/>
	<text transform="matrix(1 0 0 1 2109 383.5996)" font-family="'Maestro'" font-size="16.8">œ</text>
	<line fill="none" stroke="#000000" stroke-width="0.459" x1="2113.8" y1="382.8" x2="2113.8" y2="368"/>
	<path d="M2100.3,366.8h13.7v2.4h-13.7V366.8z"/>
	<text transform="matrix(1 0 0 1 2048.7998 368)" font-family="'ArialMT'" font-size="8">C</text>
	<text transform="matrix(1 0 0 1 2095.7998 368)" font-family="'ArialMT'" font-size="8">F</text>
	<line fill="none" stroke="#000000" stroke-width="0.459" x1="2133.2" y1="385.2" x2="2133.2" y2="369.2"/>
	<text transform="matrix(1 0 0 1 2127.3999 386)" font-family="'Maestro'" font-size="16.8">˙</text>
	<line fill="none" stroke="#000000" stroke-width="0.459" x1="2177.6" y1="387.6" x2="2177.6" y2="366.8"/>
	<text transform="matrix(1 0 0 1 2172.7998 383.5996)" font-family="'Maestro'" font-size="16.8">œ</text>
	<text transform="matrix(1 0 0 1 2172.7998 388.4004)" font-family="'Maestro'" font-size="16.8">œ</text>
	<text transform="matrix(1 0 0 1 2127.3999 368)" font-family="'ArialMT'" font-size="8">C</text>
	<text transform="matrix(1 0 0 1 2172.7998 368)" font-family="'ArialMT'" font-size="8">F</text>
	<text transform="matrix(1 0 0 1 2211 374)" font-family="'Maestro'" font-size="19.2">j</text>
	<line fill="none" stroke="#000000" stroke-width="0.459" x1="2210.8" y1="390" x2="2210.8" y2="369.2"/>
	<text transform="matrix(1 0 0 1 2206 386)" font-family="'Maestro'" font-size="16.8">œ</text>
	<text transform="matrix(1 0 0 1 2206 390.7998)" font-family="'Maestro'" font-size="16.8">œ</text>
	<text transform="matrix(1 0 0 1 2226.7998 388.7998)" font-family="'Maestro'" font-size="19.2">.</text>
	<text transform="matrix(1 0 0 1 2226.7998 393.5996)" font-family="'Maestro'" font-size="19.2">.</text>
	<line fill="none" stroke="#000000" stroke-width="0.459" x1="2225" y1="394.8" x2="2225" y2="374"/>
	<text transform="matrix(1 0 0 1 2220.2002 390.7998)" font-family="'Maestro'" font-size="16.8">œ</text>
	<line fill="none" stroke="#000000" stroke-width="0.459" x1="2219" y1="395.6" x2="2226.4" y2="395.6"/>
	<text transform="matrix(1 0 0 1 2220.2002 395.5996)" font-family="'Maestro'" font-size="16.8">œ</text>
	<text transform="matrix(1 0 0 1 2250.7998 388.4004)" font-family="'Maestro'" font-size="16.8">œ</text>
	<text transform="matrix(1 0 0 1 2250.7998 393.2002)" font-family="'Maestro'" font-size="16.8">œ</text>
	<line fill="none" stroke="#000000" stroke-width="0.459" x1="2255.6" y1="392.4" x2="2255.6" y2="372.8"/>
	<text transform="matrix(1 0 0 1 2265.2002 388.4004)" font-family="'Maestro'" font-size="16.8">œ</text>
	<text transform="matrix(1 0 0 1 2265.2002 393.2002)" font-family="'Maestro'" font-size="16.8">œ</text>
	<line fill="none" stroke="#000000" stroke-width="0.459" x1="2270" y1="392.4" x2="2270" y2="372.8"/>
	<path d="M2255.3,371.6h14.9v2.4h-14.9V371.6z"/>
	<text transform="matrix(1 0 0 1 2206 368)" font-family="'ArialMT'" font-size="8">C</text>
	<text transform="matrix(1 0 0 1 2250.7998 368)" font-family="'ArialMT'" font-size="8">G</text>
	<line fill="none" stroke="#000000" stroke-width="0.459" x1="2291.8" y1="394.8" x2="2291.8" y2="374"/>
	<text transform="matrix(1 0 0 1 2286 390.7998)" font-family="'Maestro'" font-size="16.8">˙</text>
	<line fill="none" stroke="#000000" stroke-width="0.459" x1="2284.8" y1="395.6" x2="2293.2" y2="395.6"/>
	<text transform="matrix(1 0 0 1 2286 395.5996)" font-family="'Maestro'" font-size="16.8">˙</text>
	<text transform="matrix(1 0 0 1 2286 368)" font-family="'ArialMT'" font-size="8">C</text>
	<line fill="none" stroke="#000000" stroke-width="0.459" x1="2363.4" y1="395.6" x2="2370.8" y2="395.6"/>
	<text transform="matrix(1 0 0 1 2364.6001 395.5996)" font-family="'Maestro'" font-size="16.8">œ</text>
	<line fill="none" stroke="#000000" stroke-width="0.459" x1="2369.4" y1="394.8" x2="2369.4" y2="377.6"/>
	<text transform="matrix(1 0 0 1 2400.5996 390.7998)" font-family="'Maestro'" font-size="16.8">œ</text>
	<line fill="none" stroke="#000000" stroke-width="0.459" x1="2405.4" y1="390" x2="2405.4" y2="376.4"/>
	<path d="M2369.1,376.4l36.5-1.2v2.4l-36.5,1.2V376.4z"/>
	<text transform="matrix(1 0 0 1 2362 361.4004)" font-family="'ArialMT'" font-size="8">A</text>
	<text transform="matrix(1 0 0 1 2448.4004 384)" font-family="'Maestro'" font-size="19.2">.</text>
	<text transform="matrix(1 0 0 1 2441.7998 386)" font-family="'Maestro'" font-size="16.8">œ</text>
	<line fill="none" stroke="#000000" stroke-width="0.459" x1="2446.6" y1="385.2" x2="2446.6" y2="370.4"/>
	<text transform="matrix(1 0 0 1 2459.4004 386)" font-family="'Maestro'" font-size="16.8">œ</text>
	<line fill="none" stroke="#000000" stroke-width="0.459" x1="2464.2" y1="385.2" x2="2464.2" y2="370.4"/>
	<path d="M2446.3,369.2h18.1v2.4h-18.1V369.2z"/>
	<path d="M2460.3,372.8h4.1v2.4h-4.1V372.8z"/>
	<line fill="none" stroke="#000000" stroke-width="0.459" x1="2472.2" y1="385.2" x2="2472.2" y2="369.2"/>
	<text transform="matrix(1 0 0 1 2467.4004 386)" font-family="'Maestro'" font-size="16.8">œ</text>
	<text transform="matrix(1 0 0 1 2488.7998 383.5996)" font-family="'Maestro'" font-size="16.8">œ</text>
	<line fill="none" stroke="#000000" stroke-width="0.459" x1="2493.6" y1="382.8" x2="2493.6" y2="368"/>
	<text transform="matrix(1 0 0 1 2502 383.5996)" font-family="'Maestro'" font-size="16.8">œ</text>
	<line fill="none" stroke="#000000" stroke-width="0.459" x1="2506.8" y1="382.8" x2="2506.8" y2="368"/>
	<path d="M2493.3,366.8h13.7v2.4h-13.7V366.8z"/>
	<text transform="matrix(1 0 0 1 2441.7998 368)" font-family="'ArialMT'" font-size="8">C</text>
	<text transform="matrix(1 0 0 1 2488.7998 368)" font-family="'ArialMT'" font-size="8">F</text>
	<line fill="none" stroke="#000000" stroke-width="0.459" x1="2526.2" y1="385.2" x2="2526.2" y2="369.2"/>
	<text transform="matrix(1 0 0 1 2520.4004 386)" font-family="'Maestro'" font-size="16.8">˙</text>
	<line fill="none" stroke="#000000" stroke-width="0.459" x1="2560.8" y1="395.6" x2="2568.2" y2="395.6"/>
	<text transform="matrix(1 0 0 1 2562 395.5996)" font-family="'Maestro'" font-size="16.8">œ</text>
	<line fill="none" stroke="#000000" stroke-width="0.459" x1="2566.8" y1="394.8" x2="2566.8" y2="377.6"/>
	<text transform="matrix(1 0 0 1 2578 390.7998)" font-family="'Maestro'" font-size="16.8">œ</text>
	<line fill="none" stroke="#000000" stroke-width="0.459" x1="2582.8" y1="390" x2="2582.8" y2="376.4"/>
	<path d="M2566.5,376.4l16.5-1.2v2.4l-16.5,1.2V376.4z"/>
	<text transform="matrix(1 0 0 1 2520.4004 368)" font-family="'ArialMT'" font-size="8">C</text>
	<text transform="matrix(1 0 0 1 2605.5996 384)" font-family="'Maestro'" font-size="19.2">.</text>
	<text transform="matrix(1 0 0 1 2599 386)" font-family="'Maestro'" font-size="16.8">œ</text>
	<line fill="none" stroke="#000000" stroke-width="0.459" x1="2603.8" y1="385.2" x2="2603.8" y2="370.4"/>
	<text transform="matrix(1 0 0 1 2616.5996 386)" font-family="'Maestro'" font-size="16.8">œ</text>
	<line fill="none" stroke="#000000" stroke-width="0.459" x1="2621.4" y1="385.2" x2="2621.4" y2="370.4"/>
	<path d="M2603.5,369.2h18.1v2.4h-18.1V369.2z"/>
	<path d="M2617.5,372.8h4.1v2.4h-4.1V372.8z"/>
	<line fill="none" stroke="#000000" stroke-width="0.459" x1="2629.4" y1="385.2" x2="2629.4" y2="369.2"/>
	<text transform="matrix(1 0 0 1 2624.5996 386)" font-family="'Maestro'" font-size="16.8">œ</text>
	<text transform="matrix(1 0 0 1 2646 388.4004)" font-family="'Maestro'" font-size="16.8">œ</text>
	<line fill="none" stroke="#000000" stroke-width="0.459" x1="2650.8" y1="387.6" x2="2650.8" y2="375.2"/>
	<text transform="matrix(1 0 0 1 2659.2002 390.7998)" font-family="'Maestro'" font-size="16.8">œ</text>
	<line fill="none" stroke="#000000" stroke-width="0.459" x1="2664" y1="390" x2="2664" y2="376.4"/>
	<path d="M2650.5,374l13.7,1.2v2.4l-13.7-1.2V374z"/>
	<text transform="matrix(1 0 0 1 2599 368)" font-family="'ArialMT'" font-size="8">E</text>
	<text transform="matrix(1 0 0 1 2604.7998 368)" font-family="'ArialMT'" font-size="7.2">m</text>
	<text transform="matrix(1 0 0 1 2646 368)" font-family="'ArialMT'" font-size="8">F</text>
	<line fill="none" stroke="#000000" stroke-width="0.459" x1="2683.4" y1="392.4" x2="2683.4" y2="376.4"/>
	<text transform="matrix(1 0 0 1 2677.5996 393.2002)" font-family="'Maestro'" font-size="16.8">˙</text>
	<line fill="none" stroke="#000000" stroke-width="0.459" x1="2718" y1="395.6" x2="2725.4" y2="395.6"/>
	<text transform="matrix(1 0 0 1 2719.2002 395.5996)" font-family="'Maestro'" font-size="16.8">œ</text>
	<line fill="none" stroke="#000000" stroke-width="0.459" x1="2724" y1="394.8" x2="2724" y2="377.6"/>
	<text transform="matrix(1 0 0 1 2735.2002 390.7998)" font-family="'Maestro'" font-size="16.8">œ</text>
	<line fill="none" stroke="#000000" stroke-width="0.459" x1="2740" y1="390" x2="2740" y2="376.4"/>
	<path d="M2723.7,376.4l16.5-1.2v2.4l-16.5,1.2V376.4z"/>
	<text transform="matrix(1 0 0 1 2677.5996 368)" font-family="'ArialMT'" font-size="8">G</text>
	<text transform="matrix(1 0 0 1 2762.7998 384)" font-family="'Maestro'" font-size="19.2">.</text>
	<text transform="matrix(1 0 0 1 2756.2002 386)" font-family="'Maestro'" font-size="16.8">œ</text>
	<line fill="none" stroke="#000000" stroke-width="0.459" x1="2761" y1="385.2" x2="2761" y2="370.4"/>
	<text transform="matrix(1 0 0 1 2773.7998 386)" font-family="'Maestro'" font-size="16.8">œ</text>
	<line fill="none" stroke="#000000" stroke-width="0.459" x1="2778.6" y1="385.2" x2="2778.6" y2="370.4"/>
	<path d="M2760.7,369.2h18.1v2.4h-18.1V369.2z"/>
	<path d="M2774.7,372.8h4.1v2.4h-4.1V372.8z"/>
	<line fill="none" stroke="#000000" stroke-width="0.459" x1="2786.6" y1="385.2" x2="2786.6" y2="369.2"/>
	<text transform="matrix(1 0 0 1 2781.7998 386)" font-family="'Maestro'" font-size="16.8">œ</text>
	<text transform="matrix(1 0 0 1 2803.2002 383.5996)" font-family="'Maestro'" font-size="16.8">œ</text>
	<line fill="none" stroke="#000000" stroke-width="0.459" x1="2808" y1="382.8" x2="2808" y2="368"/>
	<text transform="matrix(1 0 0 1 2816.4004 383.5996)" font-family="'Maestro'" font-size="16.8">œ</text>
	<line fill="none" stroke="#000000" stroke-width="0.459" x1="2821.2" y1="382.8" x2="2821.2" y2="368"/>
	<path d="M2807.7,366.8h13.7v2.4h-13.7V366.8z"/>
	<text transform="matrix(1 0 0 1 2756.2002 368)" font-family="'ArialMT'" font-size="8">C</text>
	<text transform="matrix(1 0 0 1 2803.2002 368)" font-family="'ArialMT'" font-size="8">F</text>
	<line fill="none" stroke="#000000" stroke-width="0.459" x1="2840.6" y1="385.2" x2="2840.6" y2="369.2"/>
	<text transform="matrix(1 0 0 1 2834.7998 386)" font-family="'Maestro'" font-size="16.8">˙</text>
	<line fill="none" stroke="#000000" stroke-width="0.459" x1="2885" y1="387.6" x2="2885" y2="371.6"/>
	<text transform="matrix(1 0 0 1 2880.2002 388.4004)" font-family="'Maestro'" font-size="16.8">œ</text>
	<text transform="matrix(1 0 0 1 2834.7998 368)" font-family="'ArialMT'" font-size="8">C</text>
	<text transform="matrix(1 0 0 1 2880.2002 368)" font-family="'ArialMT'" font-size="8">F</text>
	<text transform="matrix(1 0 0 1 2918.4004 378.7998)" font-family="'Maestro'" font-size="19.2">j</text>
	<line fill="none" stroke="#000000" stroke-width="0.459" x1="2918.2" y1="390" x2="2918.2" y2="374"/>
	<text transform="matrix(1 0 0 1 2913.4004 390.7998)" font-family="'Maestro'" font-size="16.8">œ</text>
	<text transform="matrix(1 0 0 1 2934.2002 393.5996)" font-family="'Maestro'" font-size="19.2">.</text>
	<line fill="none" stroke="#000000" stroke-width="0.459" x1="2932.4" y1="394.8" x2="2932.4" y2="378.8"/>
	<line fill="none" stroke="#000000" stroke-width="0.459" x1="2926.4" y1="395.6" x2="2933.8" y2="395.6"/>
	<text transform="matrix(1 0 0 1 2927.5996 395.5996)" font-family="'Maestro'" font-size="16.8">œ</text>
	<text transform="matrix(1 0 0 1 2958.2002 393.2002)" font-family="'Maestro'" font-size="16.8">œ</text>
	<line fill="none" stroke="#000000" stroke-width="0.459" x1="2963" y1="392.4" x2="2963" y2="377.6"/>
	<text transform="matrix(1 0 0 1 2972.5996 393.2002)" font-family="'Maestro'" font-size="16.8">œ</text>
	<line fill="none" stroke="#000000" stroke-width="0.459" x1="2977.4" y1="392.4" x2="2977.4" y2="377.6"/>
	<path d="M2962.7,376.4h14.9v2.4h-14.9V376.4z"/>
	<text transform="matrix(1 0 0 1 2913.4004 368)" font-family="'ArialMT'" font-size="8">C</text>
	<text transform="matrix(1 0 0 1 2958.2002 368)" font-family="'ArialMT'" font-size="8">G</text>
	<line fill="none" stroke="#000000" stroke-width="0.459" x1="2999.2" y1="394.8" x2="2999.2" y2="378.8"/>
	<line fill="none" stroke="#000000" stroke-width="0.459" x1="2992.2" y1="395.6" x2="3000.6" y2="395.6"/>
	<text transform="matrix(1 0 0 1 2993.4004 395.5996)" font-family="'Maestro'" font-size="16.8">˙</text>
	<text transform="matrix(1 0 0 1 2993.4004 368)" font-family="'ArialMT'" font-size="8">C</text>
	<line fill="none" stroke="#000000" stroke-width="0.459" x1="3070.8" y1="395.6" x2="3078.2" y2="395.6"/>
	<text transform="matrix(1 0 0 1 3072 395.5996)" font-family="'Maestro'" font-size="16.8">œ</text>
	<line fill="none" stroke="#000000" stroke-width="0.459" x1="3076.8" y1="394.8" x2="3076.8" y2="377.6"/>
	<text transform="matrix(1 0 0 1 3108 390.7998)" font-family="'Maestro'" font-size="16.8">œ</text>
	<line fill="none" stroke="#000000" stroke-width="0.459" x1="3112.8" y1="390" x2="3112.8" y2="376.4"/>
	<path d="M3076.5,376.4l36.5-1.2v2.4l-36.5,1.2V376.4z"/>
	<text transform="matrix(1 0 0 1 3155.7998 384)" font-family="'Maestro'" font-size="19.2">.</text>
	<text transform="matrix(1 0 0 1 3149.2002 386)" font-family="'Maestro'" font-size="16.8">œ</text>
	<line fill="none" stroke="#000000" stroke-width="0.459" x1="3154" y1="385.2" x2="3154" y2="370.4"/>
	<text transform="matrix(1 0 0 1 3166.7998 386)" font-family="'Maestro'" font-size="16.8">œ</text>
	<line fill="none" stroke="#000000" stroke-width="0.459" x1="3171.6" y1="385.2" x2="3171.6" y2="370.4"/>
	<path d="M3153.7,369.2h18.1v2.4h-18.1V369.2z"/>
	<path d="M3167.7,372.8h4.1v2.4h-4.1V372.8z"/>
	<line fill="none" stroke="#000000" stroke-width="0.459" x1="3179.6" y1="385.2" x2="3179.6" y2="369.2"/>
	<text transform="matrix(1 0 0 1 3174.7998 386)" font-family="'Maestro'" font-size="16.8">œ</text>
	<text transform="matrix(1 0 0 1 3196.2002 383.5996)" font-family="'Maestro'" font-size="16.8">œ</text>
	<line fill="none" stroke="#000000" stroke-width="0.459" x1="3201" y1="382.8" x2="3201" y2="368"/>
	<text transform="matrix(1 0 0 1 3209.4004 383.5996)" font-family="'Maestro'" font-size="16.8">œ</text>
	<line fill="none" stroke="#000000" stroke-width="0.459" x1="3214.2" y1="382.8" x2="3214.2" y2="368"/>
	<path d="M3200.7,366.8h13.7v2.4h-13.7V366.8z"/>
	<text transform="matrix(1 0 0 1 3149.2002 368)" font-family="'ArialMT'" font-size="8">C</text>
	<text transform="matrix(1 0 0 1 3196.2002 368)" font-family="'ArialMT'" font-size="8">F</text>
	<line fill="none" stroke="#000000" stroke-width="0.459" x1="3233.6" y1="385.2" x2="3233.6" y2="369.2"/>
	<text transform="matrix(1 0 0 1 3227.7998 386)" font-family="'Maestro'" font-size="16.8">˙</text>
	<line fill="none" stroke="#000000" stroke-width="0.459" x1="3268.2" y1="395.6" x2="3275.6" y2="395.6"/>
	<text transform="matrix(1 0 0 1 3269.4004 395.5996)" font-family="'Maestro'" font-size="16.8">œ</text>
	<line fill="none" stroke="#000000" stroke-width="0.459" x1="3274.2" y1="394.8" x2="3274.2" y2="377.6"/>
	<text transform="matrix(1 0 0 1 3285.4004 390.7998)" font-family="'Maestro'" font-size="16.8">œ</text>
	<line fill="none" stroke="#000000" stroke-width="0.459" x1="3290.2" y1="390" x2="3290.2" y2="376.4"/>
	<path d="M3273.9,376.4l16.5-1.2v2.4l-16.5,1.2V376.4z"/>
	<text transform="matrix(1 0 0 1 3227.7998 368)" font-family="'ArialMT'" font-size="8">C</text>
	<text transform="matrix(1 0 0 1 3313 384)" font-family="'Maestro'" font-size="19.2">.</text>
	<text transform="matrix(1 0 0 1 3306.4004 386)" font-family="'Maestro'" font-size="16.8">œ</text>
	<line fill="none" stroke="#000000" stroke-width="0.459" x1="3311.2" y1="385.2" x2="3311.2" y2="370.4"/>
	<text transform="matrix(1 0 0 1 3324 386)" font-family="'Maestro'" font-size="16.8">œ</text>
	<line fill="none" stroke="#000000" stroke-width="0.459" x1="3328.8" y1="385.2" x2="3328.8" y2="370.4"/>
	<path d="M3310.9,369.2h18.1v2.4h-18.1V369.2z"/>
	<path d="M3324.9,372.8h4.1v2.4h-4.1V372.8z"/>
	<line fill="none" stroke="#000000" stroke-width="0.459" x1="3336.8" y1="385.2" x2="3336.8" y2="369.2"/>
	<text transform="matrix(1 0 0 1 3332 386)" font-family="'Maestro'" font-size="16.8">œ</text>
	<text transform="matrix(1 0 0 1 3353.4004 383.5996)" font-family="'Maestro'" font-size="16.8">œ</text>
	<text transform="matrix(1 0 0 1 3353.4004 388.4004)" font-family="'Maestro'" font-size="16.8">œ</text>
	<line fill="none" stroke="#000000" stroke-width="0.459" x1="3358.2" y1="387.6" x2="3358.2" y2="368"/>
	<text transform="matrix(1 0 0 1 3366.5996 383.5996)" font-family="'Maestro'" font-size="16.8">œ</text>
	<text transform="matrix(1 0 0 1 3366.5996 390.7998)" font-family="'Maestro'" font-size="16.8">œ</text>
	<line fill="none" stroke="#000000" stroke-width="0.459" x1="3371.4" y1="390" x2="3371.4" y2="368"/>
	<path d="M3357.9,366.8h13.7v2.4h-13.7V366.8z"/>
	<text transform="matrix(1 0 0 1 3306.4004 368)" font-family="'ArialMT'" font-size="8">E</text>
	<text transform="matrix(1 0 0 1 3312.2002 368)" font-family="'ArialMT'" font-size="7.2">m</text>
	<text transform="matrix(1 0 0 1 3353.4004 368)" font-family="'ArialMT'" font-size="8">F</text>
	<line fill="none" stroke="#000000" stroke-width="0.459" x1="3390.8" y1="392.4" x2="3390.8" y2="369.2"/>
	<text transform="matrix(1 0 0 1 3385 386)" font-family="'Maestro'" font-size="16.8">˙</text>
	<text transform="matrix(1 0 0 1 3385 393.2002)" font-family="'Maestro'" font-size="16.8">˙</text>
	<line fill="none" stroke="#000000" stroke-width="0.459" x1="3425.4" y1="395.6" x2="3432.8" y2="395.6"/>
	<text transform="matrix(1 0 0 1 3426.5996 395.5996)" font-family="'Maestro'" font-size="16.8">œ</text>
	<line fill="none" stroke="#000000" stroke-width="0.459" x1="3431.4" y1="394.8" x2="3431.4" y2="377.6"/>
	<text transform="matrix(1 0 0 1 3442.5996 390.7998)" font-family="'Maestro'" font-size="16.8">œ</text>
	<line fill="none" stroke="#000000" stroke-width="0.459" x1="3447.4" y1="390" x2="3447.4" y2="376.4"/>
	<path d="M3431.1,376.4l16.5-1.2v2.4l-16.5,1.2V376.4z"/>
	<text transform="matrix(1 0 0 1 3385 368)" font-family="'ArialMT'" font-size="8">G</text>
	<text transform="matrix(1 0 0 1 3470.2002 384)" font-family="'Maestro'" font-size="19.2">.</text>
	<text transform="matrix(1 0 0 1 3463.5996 386)" font-family="'Maestro'" font-size="16.8">œ</text>
	<line fill="none" stroke="#000000" stroke-width="0.459" x1="3468.4" y1="385.2" x2="3468.4" y2="370.4"/>
	<text transform="matrix(1 0 0 1 3481.2002 386)" font-family="'Maestro'" font-size="16.8">œ</text>
	<line fill="none" stroke="#000000" stroke-width="0.459" x1="3486" y1="385.2" x2="3486" y2="370.4"/>
	<path d="M3468.1,369.2h18.1v2.4h-18.1V369.2z"/>
	<path d="M3482.1,372.8h4.1v2.4h-4.1V372.8z"/>
	<line fill="none" stroke="#000000" stroke-width="0.459" x1="3494" y1="385.2" x2="3494" y2="369.2"/>
	<text transform="matrix(1 0 0 1 3489.2002 386)" font-family="'Maestro'" font-size="16.8">œ</text>
	<text transform="matrix(1 0 0 1 3510.5996 383.5996)" font-family="'Maestro'" font-size="16.8">œ</text>
	<line fill="none" stroke="#000000" stroke-width="0.459" x1="3515.4" y1="382.8" x2="3515.4" y2="368"/>
	<text transform="matrix(1 0 0 1 3523.7998 383.5996)" font-family="'Maestro'" font-size="16.8">œ</text>
	<line fill="none" stroke="#000000" stroke-width="0.459" x1="3528.6" y1="382.8" x2="3528.6" y2="368"/>
	<path d="M3515.1,366.8h13.7v2.4h-13.7V366.8z"/>
	<text transform="matrix(1 0 0 1 3463.5996 368)" font-family="'ArialMT'" font-size="8">C</text>
	<text transform="matrix(1 0 0 1 3510.5996 368)" font-family="'ArialMT'" font-size="8">F</text>
	<line fill="none" stroke="#000000" stroke-width="0.459" x1="3548" y1="385.2" x2="3548" y2="369.2"/>
	<text transform="matrix(1 0 0 1 3542.2002 386)" font-family="'Maestro'" font-size="16.8">˙</text>
	<line fill="none" stroke="#000000" stroke-width="0.459" x1="3592.4" y1="387.6" x2="3592.4" y2="366.8"/>
	<text transform="matrix(1 0 0 1 3587.5996 383.5996)" font-family="'Maestro'" font-size="16.8">œ</text>
	<text transform="matrix(1 0 0 1 3587.5996 388.4004)" font-family="'Maestro'" font-size="16.8">œ</text>
	<text transform="matrix(1 0 0 1 3542.2002 368)" font-family="'ArialMT'" font-size="8">C</text>
	<text transform="matrix(1 0 0 1 3587.5996 368)" font-family="'ArialMT'" font-size="8">F</text>
	<text transform="matrix(1 0 0 1 3625.7998 374)" font-family="'Maestro'" font-size="19.2">j</text>
	<line fill="none" stroke="#000000" stroke-width="0.459" x1="3625.6" y1="390" x2="3625.6" y2="369.2"/>
	<text transform="matrix(1 0 0 1 3620.7998 386)" font-family="'Maestro'" font-size="16.8">œ</text>
	<text transform="matrix(1 0 0 1 3620.7998 390.7998)" font-family="'Maestro'" font-size="16.8">œ</text>
	<text transform="matrix(1 0 0 1 3641.5996 388.7998)" font-family="'Maestro'" font-size="19.2">.</text>
	<text transform="matrix(1 0 0 1 3641.5996 393.5996)" font-family="'Maestro'" font-size="19.2">.</text>
	<line fill="none" stroke="#000000" stroke-width="0.459" x1="3639.8" y1="394.8" x2="3639.8" y2="374"/>
	<text transform="matrix(1 0 0 1 3635 390.7998)" font-family="'Maestro'" font-size="16.8">œ</text>
	<line fill="none" stroke="#000000" stroke-width="0.459" x1="3633.8" y1="395.6" x2="3641.2" y2="395.6"/>
	<text transform="matrix(1 0 0 1 3635 395.5996)" font-family="'Maestro'" font-size="16.8">œ</text>
	<text transform="matrix(1 0 0 1 3665.5996 388.4004)" font-family="'Maestro'" font-size="16.8">œ</text>
	<text transform="matrix(1 0 0 1 3665.5996 393.2002)" font-family="'Maestro'" font-size="16.8">œ</text>
	<line fill="none" stroke="#000000" stroke-width="0.459" x1="3670.4" y1="392.4" x2="3670.4" y2="372.8"/>
	<text transform="matrix(1 0 0 1 3680 388.4004)" font-family="'Maestro'" font-size="16.8">œ</text>
	<text transform="matrix(1 0 0 1 3680 393.2002)" font-family="'Maestro'" font-size="16.8">œ</text>
	<line fill="none" stroke="#000000" stroke-width="0.459" x1="3684.8" y1="392.4" x2="3684.8" y2="372.8"/>
	<path d="M3670.1,371.6h14.9v2.4h-14.9V371.6z"/>
	<text transform="matrix(1 0 0 1 3620.7998 368)" font-family="'ArialMT'" font-size="8">C</text>
	<text transform="matrix(1 0 0 1 3665.5996 368)" font-family="'ArialMT'" font-size="8">G</text>
	<line fill="none" stroke="#000000" stroke-width="0.459" x1="3706.6" y1="394.8" x2="3706.6" y2="374"/>
	<text transform="matrix(1 0 0 1 3700.7998 390.7998)" font-family="'Maestro'" font-size="16.8">˙</text>
	<line fill="none" stroke="#000000" stroke-width="0.459" x1="3699.6" y1="395.6" x2="3708" y2="395.6"/>
	<text transform="matrix(1 0 0 1 3700.7998 395.5996)" font-family="'Maestro'" font-size="16.8">˙</text>
	<text transform="matrix(1 0 0 1 3700.7998 368)" font-family="'ArialMT'" font-size="8">C</text>
	<text transform="matrix(1 0 0 1 1427.7998 357)" font-family="'ArialMT'" font-size="6.4">Espiritual</text>
</g>
</svg>
