<?xml version="1.0" encoding="utf-8"?>
<!-- Generator: Adobe Illustrator 16.0.0, SVG Export Plug-In . SVG Version: 6.00 Build 0)  -->
<!DOCTYPE svg PUBLIC "-//W3C//DTD SVG 1.1//EN" "http://www.w3.org/Graphics/SVG/1.1/DTD/svg11.dtd">
<svg version="1.1" id="Layer_1" xmlns="http://www.w3.org/2000/svg" xmlns:xlink="http://www.w3.org/1999/xlink" x="0px" y="0px"
	 width="2880px" height="76px" viewBox="800 314 2880 76" enable-background="new 800 314 2880 76" xml:space="preserve">
<g id="Music">
	<rect x="800" y="314.4" fill="#FFFFFF" width="2880" height="93.6"/>
	<g enable-background="new    ">
		<path d="M837.8,363.8c-4-1.9-4.6-4.3-4.8-6.8c-0.2-2.7,1.5-5.4,3.1-6.9c0.9-0.9,1.9-1.7,3.1-2.6c0-0.7-0.2-0.9-0.3-1.9
			c0-0.4-0.3-2.3,0.1-4.5c0.2-1.3,1.9-4.3,3-4.3c0.9,0,2.2,3.4,2.2,5.2c0.1,2.7-0.6,3.9-1.4,5.3c-0.4,0.7-0.8,1.2-1.3,1.7
			c-0.5,0.6-1,0.9-1.5,1.3c0,0,0.6,3.5,0.6,3.7c1.2-0.2,2.7,0.3,3.3,0.7c1.4,1,1.9,2.4,2,3.8c0.2,2.2-1,4.5-3.6,5.5
			c0,0,0.4,2.8,0.5,3.3c0.2,1.5,0.2,2.5-0.2,3.1c-0.6,1-1.5,2-3.2,2.1c-1.3,0.1-4-0.6-4.1-2.7c-0.1-1.2,0.5-2.6,2-2.7
			c0.9-0.1,2,0.7,2.1,1.8c0.1,0.9-0.5,1.9-2.1,2.4c0.2,0.3,1,0.7,2.1,0.7c1.1,0,2.3-0.7,2.8-1.7c0.3-0.7,0.3-1.8,0.2-2.9
			c-0.1-0.4-0.5-3.3-0.5-3.3C840.5,364.3,838.6,364.1,837.8,363.8z M838.1,359.2c0,0.9,0.8,2,1.5,2.4c-0.1,0.1-0.2,0.2-0.2,0.2
			c-0.8-0.4-1.5-1-1.6-1.2c-0.6-0.7-0.8-1.2-0.9-2.3c-0.1-1.1,0.5-2.5,1.8-3.5c0.7-0.5,1-0.6,1.6-0.7l-0.6-3.5
			c-0.6,0.3-3.1,2.3-4.1,3.9c-0.9,1.4-1.5,2.6-1.4,4c0.2,3.2,3.7,5.8,7.5,4.9c0,0-1.1-6.8-1.1-6.8
			C838.6,356.7,838.1,358.3,838.1,359.2z M839.7,347c1.7-1.3,3.9-3.8,3.8-5.7c0-0.6-0.3-1.7-1.2-1.7
			C840.4,339.7,839.3,343.9,839.7,347z M842.3,363.2c2.2-0.7,2.3-2.6,2.2-3.8c-0.1-0.9-0.5-3.1-3.3-2.9L842.3,363.2z"/>
	</g>
	<g enable-background="new    ">
		<path d="M852.3,351c0,0.2,0,1.2,0,1.2c0.7-0.7,1.1-0.8,1.9-0.8c1,0,1.6,0.9,1.6,1.7c0,0.4-0.1,0.8-0.2,1.2
			c-0.2,0.4-0.6,0.7-0.9,1.1c-0.3,0.3-2.8,2.1-2.8,2.1v-11.3h0.5C852.3,346.1,852.3,348.5,852.3,351z M852.5,352.9
			c-0.2,0.5-0.2,1.3-0.2,1.9v1.7c0,0,0.7-0.6,1.1-0.9c0.3-0.3,0.6-0.7,0.7-1.3c0.2-0.6,0.1-1.2-0.3-1.6
			C853.6,352.4,852.9,352.1,852.5,352.9z"/>
	</g>
	<g enable-background="new    ">
		<path d="M870.2,361.3v1.3c0,0.8,0.9,0.7,0.9,0.7v0.5h-4.2v-0.5c0,0,0.9,0,0.9-0.7v-1.3h-3.6l-0.3-0.4c2.3-3.1,2.3-3.7,2.9-6.5h3.3
			c-0.8,1.5-3.4,4.2-5.3,6.4h3v-2.4l2.3-2.6v4.9h1.4v0.5H870.2z"/>
	</g>
	<g enable-background="new    ">
		<path d="M870.2,351.7v1.3c0,0.8,0.9,0.7,0.9,0.7v0.5h-4.2v-0.5c0,0,0.9,0,0.9-0.7v-1.3h-3.6l-0.3-0.4c2.3-3.1,2.3-3.7,2.9-6.5h3.3
			c-0.8,1.5-3.4,4.2-5.3,6.4h3v-2.4l2.3-2.6v4.9h1.4v0.5H870.2z"/>
	</g>
	<line fill="none" stroke="#000000" stroke-width="0.459" x1="895.8" y1="344.8" x2="895.8" y2="364"/>
	<line fill="none" stroke="#000000" stroke-width="0.459" x1="981.8" y1="344.8" x2="981.8" y2="364"/>
	<line fill="none" stroke="#000000" stroke-width="0.459" x1="1067.8" y1="344.8" x2="1067.8" y2="364"/>
	<line fill="none" stroke="#000000" stroke-width="0.459" x1="1153.8" y1="344.8" x2="1153.8" y2="364"/>
	<line fill="none" stroke="#000000" stroke-width="0.459" x1="1239.8" y1="344.8" x2="1239.8" y2="364"/>
	<line fill="none" stroke="#000000" stroke-width="0.459" x1="1325.8" y1="344.8" x2="1325.8" y2="364"/>
	<line fill="none" stroke="#000000" stroke-width="0.459" x1="1411.8" y1="344.8" x2="1411.8" y2="364"/>
	<line fill="none" stroke="#000000" stroke-width="0.459" x1="1497.8" y1="344.8" x2="1497.8" y2="364"/>
	<line fill="none" stroke="#000000" stroke-width="0.459" x1="1583.8" y1="344.8" x2="1583.8" y2="364"/>
	<line fill="none" stroke="#000000" stroke-width="0.459" x1="1669.8" y1="344.8" x2="1669.8" y2="364"/>
	<line fill="none" stroke="#000000" stroke-width="0.459" x1="1755.8" y1="344.8" x2="1755.8" y2="364"/>
	<line fill="none" stroke="#000000" stroke-width="0.459" x1="1841.8" y1="344.8" x2="1841.8" y2="364"/>
	<line fill="none" stroke="#000000" stroke-width="0.459" x1="1927.8" y1="344.8" x2="1927.8" y2="364"/>
	<line fill="none" stroke="#000000" stroke-width="0.459" x1="2013.8" y1="344.8" x2="2013.8" y2="364"/>
	<line fill="none" stroke="#000000" stroke-width="0.459" x1="2099.8" y1="344.8" x2="2099.8" y2="364"/>
	<line fill="none" stroke="#000000" stroke-width="0.459" x1="2185.8" y1="344.8" x2="2185.8" y2="364"/>
	<line fill="none" stroke="#000000" stroke-width="0.459" x1="2271.8" y1="344.8" x2="2271.8" y2="364"/>
	<line fill="none" stroke="#000000" stroke-width="0.459" x1="2357.8" y1="344.8" x2="2357.8" y2="364"/>
	<line fill="none" stroke="#000000" stroke-width="0.459" x1="2443.8" y1="344.8" x2="2443.8" y2="364"/>
	<line fill="none" stroke="#000000" stroke-width="0.459" x1="2529.8" y1="344.8" x2="2529.8" y2="364"/>
	<line fill="none" stroke="#000000" stroke-width="0.459" x1="2615.8" y1="344.8" x2="2615.8" y2="364"/>
	<line fill="none" stroke="#000000" stroke-width="0.459" x1="2701.8" y1="344.8" x2="2701.8" y2="364"/>
	<line fill="none" stroke="#000000" stroke-width="0.459" x1="2787.8" y1="344.8" x2="2787.8" y2="364"/>
	<line fill="none" stroke="#000000" stroke-width="0.459" x1="2873.8" y1="344.8" x2="2873.8" y2="364"/>
	<line fill="none" stroke="#000000" stroke-width="0.459" x1="2959.8" y1="344.8" x2="2959.8" y2="364"/>
	<line fill="none" stroke="#000000" stroke-width="0.459" x1="3045.8" y1="344.8" x2="3045.8" y2="364"/>
	<line fill="none" stroke="#000000" stroke-width="0.459" x1="3131.8" y1="344.8" x2="3131.8" y2="364"/>
	<line fill="none" stroke="#000000" stroke-width="0.459" x1="3217.8" y1="344.8" x2="3217.8" y2="364"/>
	<line fill="none" stroke="#000000" stroke-width="0.459" x1="3303.8" y1="344.8" x2="3303.8" y2="364"/>
	<line fill="none" stroke="#000000" stroke-width="0.459" x1="3389.8" y1="344.8" x2="3389.8" y2="364"/>
	<line fill="none" stroke="#000000" stroke-width="0.459" x1="3475.8" y1="344.8" x2="3475.8" y2="364"/>
	<line fill="none" stroke="#000000" stroke-width="0.459" x1="3561.8" y1="344.8" x2="3561.8" y2="364"/>
	<line fill="none" stroke="#000000" stroke-width="2.419" x1="3650.6" y1="344.8" x2="3650.6" y2="364"/>
	<line fill="none" stroke="#000000" stroke-width="0.459" x1="3646.7" y1="344.8" x2="3646.7" y2="364"/>
	<line fill="none" stroke="#000000" stroke-width="0.459" x1="828.2" y1="344.8" x2="3651.8" y2="344.8"/>
	<line fill="none" stroke="#000000" stroke-width="0.459" x1="828.2" y1="349.6" x2="3651.8" y2="349.6"/>
	<line fill="none" stroke="#000000" stroke-width="0.459" x1="828.2" y1="354.4" x2="3651.8" y2="354.4"/>
	<line fill="none" stroke="#000000" stroke-width="0.459" x1="828.2" y1="359.2" x2="3651.8" y2="359.2"/>
	<line fill="none" stroke="#000000" stroke-width="0.459" x1="828.2" y1="364" x2="3651.8" y2="364"/>
	<line fill="none" stroke="#000000" stroke-width="0.459" x1="885.2" y1="368" x2="885.2" y2="352"/>
	<line fill="none" stroke="#000000" stroke-width="0.459" x1="879.2" y1="368.8" x2="886.6" y2="368.8"/>
	<g enable-background="new    ">
		<path d="M883.9,366.7c1.4,0,2.2,1,1.8,2.2c-0.4,1.2-1.9,2.2-3.4,2.2c-1.4,0-2.2-1-1.7-2.2C881,367.6,882.5,366.7,883.9,366.7z"/>
	</g>
	<g enable-background="new    ">
		<path d="M907.2,346.9c0.6,0.9,1.4,1.9,2.1,3.1c0.6,1.1,1.2,2.7,1.2,3.5c0.1,0.8,0.2,1.6,0.2,2.3c0,1.2-0.2,2.2-0.6,3.3l-0.2,0
			c0.3-0.9,0.5-2.2,0.5-3.3c0-0.9-0.2-2.1-0.5-3.1c-0.6-1.7-1.5-2.7-2.1-3.1c-0.8-0.6-1.8-0.6-1.8-0.6h-0.3v-5h0.3
			C906.1,345,906.6,346.1,907.2,346.9z"/>
	</g>
	<line fill="none" stroke="#000000" stroke-width="0.459" x1="905.6" y1="360.8" x2="905.6" y2="344.8"/>
	<g enable-background="new    ">
		<path d="M904.3,359.5c1.4,0,2.2,1,1.8,2.2c-0.4,1.2-1.9,2.2-3.4,2.2c-1.4,0-2.2-1-1.7-2.2C901.4,360.4,902.9,359.5,904.3,359.5z"
			/>
	</g>
	<line fill="none" stroke="#000000" stroke-width="0.459" x1="917.2" y1="360.8" x2="917.2" y2="344.8"/>
	<g enable-background="new    ">
		<path d="M915.9,359.5c1.4,0,2.2,1,1.8,2.2c-0.4,1.2-1.9,2.2-3.4,2.2c-1.4,0-2.2-1-1.7-2.2C913,360.4,914.5,359.5,915.9,359.5z"/>
	</g>
	<g enable-background="new    ">
		<path d="M938.8,346.9c0.6,0.9,1.4,1.9,2.1,3.1c0.6,1.1,1.2,2.7,1.2,3.5c0.1,0.8,0.2,1.6,0.2,2.3c0,1.2-0.2,2.2-0.6,3.3l-0.2,0
			c0.3-0.9,0.5-2.2,0.5-3.3c0-0.9-0.2-2.1-0.5-3.1c-0.6-1.7-1.5-2.7-2.1-3.1c-0.8-0.6-1.8-0.6-1.8-0.6h-0.3v-5h0.3
			C937.7,345,938.2,346.1,938.8,346.9z"/>
	</g>
	<line fill="none" stroke="#000000" stroke-width="0.459" x1="937.2" y1="360.8" x2="937.2" y2="344.8"/>
	<g enable-background="new    ">
		<path d="M935.9,359.5c1.4,0,2.2,1,1.8,2.2c-0.4,1.2-1.9,2.2-3.4,2.2c-1.4,0-2.2-1-1.7-2.2C933,360.4,934.5,359.5,935.9,359.5z"/>
	</g>
	<line fill="none" stroke="#000000" stroke-width="0.459" x1="951.2" y1="360.8" x2="951.2" y2="344.8"/>
	<g enable-background="new    ">
		<path d="M949.9,359.5c1.4,0,2.2,1,1.8,2.2c-0.4,1.2-1.9,2.2-3.4,2.2c-1.4,0-2.2-1-1.7-2.2C947,360.4,948.5,359.5,949.9,359.5z"/>
	</g>
	<line fill="none" stroke="#000000" stroke-width="0.459" x1="968.8" y1="358.4" x2="968.8" y2="342.4"/>
	<g enable-background="new    ">
		<path d="M967.5,357.1c1.4,0,2.2,1,1.8,2.2c-0.4,1.2-1.9,2.2-3.4,2.2c-1.4,0-2.2-1-1.7-2.2C964.6,358,966.1,357.1,967.5,357.1z"/>
	</g>
	<g enable-background="new    ">
		<path d="M880.8,328l2.6-6.9h1l2.8,6.9h-1l-0.8-2.1h-2.9l-0.8,2.1H880.8z M882.8,325.2h2.3l-0.7-1.9c-0.2-0.6-0.4-1.1-0.5-1.4
			c-0.1,0.4-0.2,0.9-0.4,1.3L882.8,325.2z"/>
	</g>
	<g enable-background="new    ">
		<path d="M901.5,341.8v-5.7h3.9v0.7h-3.1v1.8h2.7v0.7h-2.7v2.6H901.5z"/>
	</g>
	<line fill="none" stroke="#000000" stroke-width="0.459" x1="991.6" y1="356" x2="991.6" y2="340"/>
	<g enable-background="new    ">
		<path d="M990.3,354.7c1.4,0,2.2,1,1.8,2.2c-0.4,1.2-1.9,2.2-3.4,2.2c-1.4,0-2.2-1-1.7-2.2C987.4,355.6,988.9,354.7,990.3,354.7z"
			/>
	</g>
	<line fill="none" stroke="#000000" stroke-width="0.459" x1="1009.4" y1="352.8" x2="1009.4" y2="368.8"/>
	<g enable-background="new    ">
		<path d="M1014.5,352.1c-0.3,0.9-1,1.5-1.6,1.8c-0.5,0.3-1.2,0.4-2,0.3c-0.5,0-1.3-0.2-1.6-0.7c-0.3-0.6-0.1-1.2,0-1.6
			c0.3-0.8,1-1.4,1.5-1.7c0.5-0.3,1.3-0.5,2.2-0.4c0.4,0,1.1,0.1,1.5,0.7C1014.8,351,1014.6,351.8,1014.5,352.1z M1012.5,350.8
			c-0.4,0.2-0.7,0.4-1,0.5c-0.3,0.2-0.6,0.4-1,0.6c-0.5,0.3-1.1,0.9-0.8,1.4c0.3,0.6,1.1,0.3,1.6,0c0.4-0.2,0.7-0.4,1-0.5
			c0.3-0.2,0.6-0.4,1-0.6c0.5-0.3,1.1-0.9,0.8-1.4C1013.9,350.2,1013.1,350.5,1012.5,350.8z"/>
	</g>
	<line fill="none" stroke="#000000" stroke-width="0.459" x1="1050" y1="356" x2="1050" y2="340"/>
	<g enable-background="new    ">
		<path d="M1048.7,354.7c1.4,0,2.2,1,1.8,2.2c-0.4,1.2-1.9,2.2-3.4,2.2c-1.4,0-2.2-1-1.7-2.2
			C1045.8,355.6,1047.3,354.7,1048.7,354.7z"/>
	</g>
	<g enable-background="new    ">
		<path d="M1077.1,362.6c-0.8,1.4-1.7,2.7-2.4,3.7c-0.6,0.9-1.3,2.1-1.3,3.2h-0.4v-5.1h0.4c0,0,1-0.1,2-0.7c0.7-0.4,1.7-1.7,2.4-3.6
			c0.4-1.1,0.4-1.8,0.4-2.8c0-1.1-0.5-2.6-0.9-3.4l0.2-0.1c0.7,1.1,1.3,3.1,1,5.4C1078.2,360.2,1077.9,361.3,1077.1,362.6z"/>
	</g>
	<line fill="none" stroke="#000000" stroke-width="0.459" x1="1073.2" y1="352.8" x2="1073.2" y2="368.8"/>
	<g enable-background="new    ">
		<path d="M1076.5,349.9c1.4,0,2.2,1,1.8,2.2c-0.4,1.2-1.9,2.2-3.4,2.2c-1.4,0-2.2-1-1.7-2.2
			C1073.6,350.8,1075.1,349.9,1076.5,349.9z"/>
	</g>
	<line fill="none" stroke="#000000" stroke-width="0.459" x1="1085" y1="352.8" x2="1085" y2="368.8"/>
	<g enable-background="new    ">
		<path d="M1088.3,349.9c1.4,0,2.2,1,1.8,2.2c-0.4,1.2-1.9,2.2-3.4,2.2c-1.4,0-2.2-1-1.7-2.2
			C1085.4,350.8,1086.9,349.9,1088.3,349.9z"/>
	</g>
	<g enable-background="new    ">
		<path d="M1107.9,365c-0.8,1.4-1.7,2.7-2.4,3.7c-0.6,0.9-1.3,2.1-1.3,3.2h-0.4v-5.1h0.4c0,0,1-0.1,2-0.7c0.7-0.4,1.7-1.7,2.4-3.6
			c0.4-1.1,0.4-1.8,0.4-2.8c0-1.1-0.5-2.6-0.9-3.4l0.2-0.1c0.7,1.1,1.3,3.1,1,5.4C1109,362.6,1108.7,363.7,1107.9,365z"/>
	</g>
	<line fill="none" stroke="#000000" stroke-width="0.459" x1="1104" y1="355.2" x2="1104" y2="371.2"/>
	<g enable-background="new    ">
		<path d="M1107.3,352.3c1.4,0,2.2,1,1.8,2.2c-0.4,1.2-1.9,2.2-3.4,2.2c-1.4,0-2.2-1-1.7-2.2
			C1104.4,353.2,1105.9,352.3,1107.3,352.3z"/>
	</g>
	<line fill="none" stroke="#000000" stroke-width="0.459" x1="1120.4" y1="356" x2="1120.4" y2="340"/>
	<g enable-background="new    ">
		<path d="M1119.1,354.7c1.4,0,2.2,1,1.8,2.2c-0.4,1.2-1.9,2.2-3.4,2.2c-1.4,0-2.2-1-1.7-2.2
			C1116.2,355.6,1117.7,354.7,1119.1,354.7z"/>
	</g>
	<line fill="none" stroke="#000000" stroke-width="0.459" x1="1139.4" y1="358.4" x2="1139.4" y2="342.4"/>
	<g enable-background="new    ">
		<path d="M1138.1,357.1c1.4,0,2.2,1,1.8,2.2c-0.4,1.2-1.9,2.2-3.4,2.2c-1.4,0-2.2-1-1.7-2.2C1135.2,358,1136.7,357.1,1138.1,357.1z
			"/>
	</g>
	<g enable-background="new    ">
		<path d="M1077.7,339.8l0.8,0.2c-0.2,0.6-0.4,1.1-0.9,1.4s-0.9,0.5-1.5,0.5c-0.6,0-1.1-0.1-1.5-0.4s-0.7-0.6-0.9-1.1
			s-0.3-1-0.3-1.5c0-0.6,0.1-1.1,0.3-1.6s0.6-0.8,1-1s0.9-0.3,1.4-0.3c0.6,0,1.1,0.1,1.4,0.4s0.7,0.7,0.8,1.2l-0.7,0.2
			c-0.1-0.4-0.3-0.7-0.6-0.9s-0.6-0.3-1-0.3c-0.4,0-0.8,0.1-1.1,0.3s-0.5,0.5-0.6,0.8s-0.2,0.7-0.2,1.1c0,0.5,0.1,0.9,0.2,1.3
			s0.4,0.6,0.7,0.8s0.6,0.3,1,0.3c0.4,0,0.8-0.1,1.1-0.4S1077.6,340.3,1077.7,339.8z"/>
	</g>
	<line fill="none" stroke="#000000" stroke-width="0.459" x1="1164.6" y1="360.8" x2="1164.6" y2="344.8"/>
	<g enable-background="new    ">
		<path d="M1164.1,361.7c-0.3,0.9-1,1.5-1.6,1.8c-0.5,0.3-1.2,0.4-2,0.3c-0.5,0-1.3-0.2-1.6-0.7c-0.3-0.6-0.1-1.2,0-1.6
			c0.3-0.8,1-1.4,1.5-1.7c0.5-0.3,1.3-0.5,2.2-0.4c0.4,0,1.1,0.1,1.5,0.7C1164.4,360.6,1164.2,361.4,1164.1,361.7z M1162.1,360.4
			c-0.4,0.2-0.7,0.4-1,0.5c-0.3,0.2-0.6,0.4-1,0.6c-0.5,0.3-1.1,0.9-0.8,1.4c0.3,0.6,1.1,0.3,1.6,0c0.4-0.2,0.7-0.4,1-0.5
			c0.3-0.2,0.6-0.4,1-0.6c0.5-0.3,1.1-0.9,0.8-1.4C1163.5,359.8,1162.7,360.1,1162.1,360.4z"/>
	</g>
	<g enable-background="new    ">
		<path d="M1198.4,358.2c-0.8,0-1.5,0.5-1.5,1.4c0,0.6,1,1.5,1,1.5l-0.2,0.2c0,0-2.2-1.3-2.5-2.7c-0.1-0.9,0.5-1.8,1.6-1.9
			c0.4,0,1.2,0.1,1.5,0.2c-1.8-1.8-2.8-3-2.7-3.4c0.4-0.4,1.7-2.1,1.7-3.4c0-0.9-1.3-2.9-1.3-2.9l0.3-0.2l3.5,4.4c0,0-1.7,2-1.7,3.4
			c0,1,0.6,1.8,1.1,2.3c0.2,0.3,1,1.1,1,1.2l0,0.3C1199.3,358.3,1198.8,358.2,1198.4,358.2z"/>
	</g>
	<line fill="none" stroke="#000000" stroke-width="0.459" x1="1222" y1="368" x2="1222" y2="352"/>
	<line fill="none" stroke="#000000" stroke-width="0.459" x1="1216" y1="368.8" x2="1223.4" y2="368.8"/>
	<g enable-background="new    ">
		<path d="M1220.7,366.7c1.4,0,2.2,1,1.8,2.2c-0.4,1.2-1.9,2.2-3.4,2.2c-1.4,0-2.2-1-1.7-2.2
			C1217.8,367.6,1219.3,366.7,1220.7,366.7z"/>
	</g>
	<g enable-background="new    ">
		<path d="M1216.6,328.8l2.6-6.9h1l2.8,6.9h-1l-0.8-2.1h-2.9l-0.8,2.1H1216.6z M1218.6,326h2.3l-0.7-1.9c-0.2-0.6-0.4-1.1-0.5-1.4
			c-0.1,0.4-0.2,0.9-0.4,1.3L1218.6,326z"/>
	</g>
	<g enable-background="new    ">
		<path d="M1159.5,341.8v-5.7h3.9v0.7h-3.1v1.8h2.7v0.7h-2.7v2.6H1159.5z"/>
	</g>
	<g enable-background="new    ">
		<path d="M1251.2,346.9c0.6,0.9,1.4,1.9,2.1,3.1c0.6,1.1,1.2,2.7,1.2,3.5c0.1,0.8,0.2,1.6,0.2,2.3c0,1.2-0.2,2.2-0.6,3.3l-0.2,0
			c0.3-0.9,0.5-2.2,0.5-3.3c0-0.9-0.2-2.1-0.5-3.1c-0.6-1.7-1.5-2.7-2.1-3.1c-0.8-0.6-1.8-0.6-1.8-0.6h-0.3v-5h0.3
			C1250.1,345,1250.6,346.1,1251.2,346.9z"/>
	</g>
	<line fill="none" stroke="#000000" stroke-width="0.459" x1="1249.6" y1="360.8" x2="1249.6" y2="344.8"/>
	<g enable-background="new    ">
		<path d="M1248.3,359.5c1.4,0,2.2,1,1.8,2.2c-0.4,1.2-1.9,2.2-3.4,2.2c-1.4,0-2.2-1-1.7-2.2
			C1245.4,360.4,1246.9,359.5,1248.3,359.5z"/>
	</g>
	<line fill="none" stroke="#000000" stroke-width="0.459" x1="1261.2" y1="360.8" x2="1261.2" y2="344.8"/>
	<g enable-background="new    ">
		<path d="M1259.9,359.5c1.4,0,2.2,1,1.8,2.2c-0.4,1.2-1.9,2.2-3.4,2.2c-1.4,0-2.2-1-1.7-2.2C1257,360.4,1258.5,359.5,1259.9,359.5z
			"/>
	</g>
	<g enable-background="new    ">
		<path d="M1282.8,346.9c0.6,0.9,1.4,1.9,2.1,3.1c0.6,1.1,1.2,2.7,1.2,3.5c0.1,0.8,0.2,1.6,0.2,2.3c0,1.2-0.2,2.2-0.6,3.3l-0.2,0
			c0.3-0.9,0.5-2.2,0.5-3.3c0-0.9-0.2-2.1-0.5-3.1c-0.6-1.7-1.5-2.7-2.1-3.1c-0.8-0.6-1.8-0.6-1.8-0.6h-0.3v-5h0.3
			C1281.7,345,1282.2,346.1,1282.8,346.9z"/>
	</g>
	<line fill="none" stroke="#000000" stroke-width="0.459" x1="1281.2" y1="360.8" x2="1281.2" y2="344.8"/>
	<g enable-background="new    ">
		<path d="M1279.9,359.5c1.4,0,2.2,1,1.8,2.2c-0.4,1.2-1.9,2.2-3.4,2.2c-1.4,0-2.2-1-1.7-2.2C1277,360.4,1278.5,359.5,1279.9,359.5z
			"/>
	</g>
	<line fill="none" stroke="#000000" stroke-width="0.459" x1="1295.2" y1="360.8" x2="1295.2" y2="344.8"/>
	<g enable-background="new    ">
		<path d="M1293.9,359.5c1.4,0,2.2,1,1.8,2.2c-0.4,1.2-1.9,2.2-3.4,2.2c-1.4,0-2.2-1-1.7-2.2C1291,360.4,1292.5,359.5,1293.9,359.5z
			"/>
	</g>
	<line fill="none" stroke="#000000" stroke-width="0.459" x1="1312.8" y1="358.4" x2="1312.8" y2="342.4"/>
	<g enable-background="new    ">
		<path d="M1311.5,357.1c1.4,0,2.2,1,1.8,2.2c-0.4,1.2-1.9,2.2-3.4,2.2c-1.4,0-2.2-1-1.7-2.2C1308.6,358,1310.1,357.1,1311.5,357.1z
			"/>
	</g>
	<g enable-background="new    ">
		<path d="M1245.5,341.8v-5.7h3.9v0.7h-3.1v1.8h2.7v0.7h-2.7v2.6H1245.5z"/>
	</g>
	<line fill="none" stroke="#000000" stroke-width="0.459" x1="1335.6" y1="356" x2="1335.6" y2="340"/>
	<g enable-background="new    ">
		<path d="M1334.3,354.7c1.4,0,2.2,1,1.8,2.2c-0.4,1.2-1.9,2.2-3.4,2.2c-1.4,0-2.2-1-1.7-2.2
			C1331.4,355.6,1332.9,354.7,1334.3,354.7z"/>
	</g>
	<line fill="none" stroke="#000000" stroke-width="0.459" x1="1353.4" y1="352.8" x2="1353.4" y2="368.8"/>
	<g enable-background="new    ">
		<path d="M1358.5,352.1c-0.3,0.9-1,1.5-1.6,1.8c-0.5,0.3-1.2,0.4-2,0.3c-0.5,0-1.3-0.2-1.6-0.7c-0.3-0.6-0.1-1.2,0-1.6
			c0.3-0.8,1-1.4,1.5-1.7c0.5-0.3,1.3-0.5,2.2-0.4c0.4,0,1.1,0.1,1.5,0.7C1358.8,351,1358.6,351.8,1358.5,352.1z M1356.5,350.8
			c-0.4,0.2-0.7,0.4-1,0.5c-0.3,0.2-0.6,0.4-1,0.6c-0.5,0.3-1.1,0.9-0.8,1.4c0.3,0.6,1.1,0.3,1.6,0c0.4-0.2,0.7-0.4,1-0.5
			c0.3-0.2,0.6-0.4,1-0.6c0.5-0.3,1.1-0.9,0.8-1.4C1357.9,350.2,1357.1,350.5,1356.5,350.8z"/>
	</g>
	<line fill="none" stroke="#000000" stroke-width="0.459" x1="1394" y1="356" x2="1394" y2="340"/>
	<g enable-background="new    ">
		<path d="M1392.7,354.7c1.4,0,2.2,1,1.8,2.2c-0.4,1.2-1.9,2.2-3.4,2.2c-1.4,0-2.2-1-1.7-2.2
			C1389.8,355.6,1391.3,354.7,1392.7,354.7z"/>
	</g>
	<g enable-background="new    ">
		<path d="M1421.1,362.6c-0.8,1.4-1.7,2.7-2.4,3.7c-0.6,0.9-1.3,2.1-1.3,3.2h-0.4v-5.1h0.4c0,0,1-0.1,2-0.7c0.7-0.4,1.7-1.7,2.4-3.6
			c0.4-1.1,0.4-1.8,0.4-2.8c0-1.1-0.5-2.6-0.9-3.4l0.2-0.1c0.7,1.1,1.3,3.1,1,5.4C1422.2,360.2,1421.9,361.3,1421.1,362.6z"/>
	</g>
	<line fill="none" stroke="#000000" stroke-width="0.459" x1="1417.2" y1="352.8" x2="1417.2" y2="368.8"/>
	<g enable-background="new    ">
		<path d="M1420.5,349.9c1.4,0,2.2,1,1.8,2.2c-0.4,1.2-1.9,2.2-3.4,2.2c-1.4,0-2.2-1-1.7-2.2
			C1417.6,350.8,1419.1,349.9,1420.5,349.9z"/>
	</g>
	<line fill="none" stroke="#000000" stroke-width="0.459" x1="1429" y1="352.8" x2="1429" y2="368.8"/>
	<g enable-background="new    ">
		<path d="M1432.3,349.9c1.4,0,2.2,1,1.8,2.2c-0.4,1.2-1.9,2.2-3.4,2.2c-1.4,0-2.2-1-1.7-2.2
			C1429.4,350.8,1430.9,349.9,1432.3,349.9z"/>
	</g>
	<g enable-background="new    ">
		<path d="M1451.9,365c-0.8,1.4-1.7,2.7-2.4,3.7c-0.6,0.9-1.3,2.1-1.3,3.2h-0.4v-5.1h0.4c0,0,1-0.1,2-0.7c0.7-0.4,1.7-1.7,2.4-3.6
			c0.4-1.1,0.4-1.8,0.4-2.8c0-1.1-0.5-2.6-0.9-3.4l0.2-0.1c0.7,1.1,1.3,3.1,1,5.4C1453,362.6,1452.7,363.7,1451.9,365z"/>
	</g>
	<line fill="none" stroke="#000000" stroke-width="0.459" x1="1448" y1="355.2" x2="1448" y2="371.2"/>
	<g enable-background="new    ">
		<path d="M1451.3,352.3c1.4,0,2.2,1,1.8,2.2c-0.4,1.2-1.9,2.2-3.4,2.2c-1.4,0-2.2-1-1.7-2.2
			C1448.4,353.2,1449.9,352.3,1451.3,352.3z"/>
	</g>
	<line fill="none" stroke="#000000" stroke-width="0.459" x1="1464.4" y1="356" x2="1464.4" y2="340"/>
	<g enable-background="new    ">
		<path d="M1463.1,354.7c1.4,0,2.2,1,1.8,2.2c-0.4,1.2-1.9,2.2-3.4,2.2c-1.4,0-2.2-1-1.7-2.2
			C1460.2,355.6,1461.7,354.7,1463.1,354.7z"/>
	</g>
	<line fill="none" stroke="#000000" stroke-width="0.459" x1="1483.4" y1="358.4" x2="1483.4" y2="342.4"/>
	<g enable-background="new    ">
		<path d="M1482.1,357.1c1.4,0,2.2,1,1.8,2.2c-0.4,1.2-1.9,2.2-3.4,2.2c-1.4,0-2.2-1-1.7-2.2C1479.2,358,1480.7,357.1,1482.1,357.1z
			"/>
	</g>
	<g enable-background="new    ">
		<path d="M1421.7,339.8l0.8,0.2c-0.2,0.6-0.4,1.1-0.9,1.4s-0.9,0.5-1.5,0.5c-0.6,0-1.1-0.1-1.5-0.4s-0.7-0.6-0.9-1.1
			s-0.3-1-0.3-1.5c0-0.6,0.1-1.1,0.3-1.6s0.6-0.8,1-1s0.9-0.3,1.4-0.3c0.6,0,1.1,0.1,1.4,0.4s0.7,0.7,0.8,1.2l-0.7,0.2
			c-0.1-0.4-0.3-0.7-0.6-0.9s-0.6-0.3-1-0.3c-0.4,0-0.8,0.1-1.1,0.3s-0.5,0.5-0.6,0.8s-0.2,0.7-0.2,1.1c0,0.5,0.1,0.9,0.2,1.3
			s0.4,0.6,0.7,0.8s0.6,0.3,1,0.3c0.4,0,0.8-0.1,1.1-0.4S1421.6,340.3,1421.7,339.8z"/>
	</g>
	<line fill="none" stroke="#000000" stroke-width="0.459" x1="1508.6" y1="360.8" x2="1508.6" y2="344.8"/>
	<g enable-background="new    ">
		<path d="M1508.1,361.7c-0.3,0.9-1,1.5-1.6,1.8c-0.5,0.3-1.2,0.4-2,0.3c-0.5,0-1.3-0.2-1.6-0.7c-0.3-0.6-0.1-1.2,0-1.6
			c0.3-0.8,1-1.4,1.5-1.7c0.5-0.3,1.3-0.5,2.2-0.4c0.4,0,1.1,0.1,1.5,0.7C1508.4,360.6,1508.2,361.4,1508.1,361.7z M1506.1,360.4
			c-0.4,0.2-0.7,0.4-1,0.5c-0.3,0.2-0.6,0.4-1,0.6c-0.5,0.3-1.1,0.9-0.8,1.4c0.3,0.6,1.1,0.3,1.6,0c0.4-0.2,0.7-0.4,1-0.5
			c0.3-0.2,0.6-0.4,1-0.6c0.5-0.3,1.1-0.9,0.8-1.4C1507.5,359.8,1506.7,360.1,1506.1,360.4z"/>
	</g>
	<g enable-background="new    ">
		<path d="M1542.4,358.2c-0.8,0-1.5,0.5-1.5,1.4c0,0.6,1,1.5,1,1.5l-0.2,0.2c0,0-2.2-1.3-2.5-2.7c-0.1-0.9,0.5-1.8,1.6-1.9
			c0.4,0,1.2,0.1,1.5,0.2c-1.8-1.8-2.8-3-2.7-3.4c0.4-0.4,1.7-2.1,1.7-3.4c0-0.9-1.3-2.9-1.3-2.9l0.3-0.2l3.5,4.4c0,0-1.7,2-1.7,3.4
			c0,1,0.6,1.8,1.1,2.3c0.2,0.3,1,1.1,1,1.2l0,0.3C1543.3,358.3,1542.8,358.2,1542.4,358.2z"/>
	</g>
	<line fill="none" stroke="#000000" stroke-width="0.459" x1="1566" y1="356" x2="1566" y2="340"/>
	<g enable-background="new    ">
		<path d="M1564.7,354.7c1.4,0,2.2,1,1.8,2.2c-0.4,1.2-1.9,2.2-3.4,2.2c-1.4,0-2.2-1-1.7-2.2
			C1561.8,355.6,1563.3,354.7,1564.7,354.7z"/>
	</g>
	<g enable-background="new    ">
		<path d="M1563.5,328.4v-6.9h2.6c0.5,0,0.9,0.1,1.3,0.2c0.3,0.1,0.6,0.4,0.7,0.6s0.3,0.6,0.3,0.9c0,0.3-0.1,0.6-0.2,0.8
			c-0.2,0.3-0.4,0.5-0.7,0.6c0.4,0.1,0.7,0.3,1,0.6c0.2,0.3,0.3,0.6,0.3,1c0,0.3-0.1,0.6-0.2,0.9c-0.1,0.3-0.3,0.5-0.5,0.6
			c-0.2,0.2-0.5,0.3-0.8,0.3c-0.3,0.1-0.7,0.1-1.1,0.1H1563.5z M1564.4,324.4h1.5c0.4,0,0.7,0,0.9-0.1c0.2-0.1,0.4-0.2,0.5-0.3
			s0.2-0.4,0.2-0.6c0-0.2-0.1-0.4-0.2-0.6c-0.1-0.2-0.3-0.3-0.5-0.4s-0.6-0.1-1-0.1h-1.4V324.4z M1564.4,327.6h1.7
			c0.3,0,0.5,0,0.6,0c0.2,0,0.4-0.1,0.5-0.2s0.3-0.2,0.3-0.4c0.1-0.2,0.1-0.4,0.1-0.6c0-0.3-0.1-0.5-0.2-0.7
			c-0.1-0.2-0.3-0.3-0.5-0.4s-0.6-0.1-1-0.1h-1.6V327.6z"/>
	</g>
	<g enable-background="new    ">
		<path d="M1503.5,341.8v-5.7h3.9v0.7h-3.1v1.8h2.7v0.7h-2.7v2.6H1503.5z"/>
	</g>
	<g enable-background="new    ">
		<path d="M1593.1,365c-0.8,1.4-1.7,2.7-2.4,3.7c-0.6,0.9-1.3,2.1-1.3,3.2h-0.4v-5.1h0.4c0,0,1-0.1,2-0.7c0.7-0.4,1.7-1.7,2.4-3.6
			c0.4-1.1,0.4-1.8,0.4-2.8c0-1.1-0.5-2.6-0.9-3.4l0.2-0.1c0.7,1.1,1.3,3.1,1,5.4C1594.2,362.6,1593.9,363.7,1593.1,365z"/>
	</g>
	<line fill="none" stroke="#000000" stroke-width="0.459" x1="1589.2" y1="355.2" x2="1589.2" y2="371.2"/>
	<g enable-background="new    ">
		<path d="M1592.5,352.3c1.4,0,2.2,1,1.8,2.2c-0.4,1.2-1.9,2.2-3.4,2.2c-1.4,0-2.2-1-1.7-2.2
			C1589.6,353.2,1591.1,352.3,1592.5,352.3z"/>
	</g>
	<line fill="none" stroke="#000000" stroke-width="0.459" x1="1601.6" y1="355.2" x2="1601.6" y2="371.2"/>
	<g enable-background="new    ">
		<path d="M1604.9,352.3c1.4,0,2.2,1,1.8,2.2c-0.4,1.2-1.9,2.2-3.4,2.2c-1.4,0-2.2-1-1.7-2.2C1602,353.2,1603.5,352.3,1604.9,352.3z
			"/>
	</g>
	<g enable-background="new    ">
		<path d="M1625.8,342.1c0.6,0.9,1.4,1.9,2.1,3.1c0.6,1.1,1.2,2.7,1.2,3.5c0.1,0.8,0.2,1.6,0.2,2.3c0,1.2-0.2,2.2-0.6,3.3l-0.2,0
			c0.3-0.9,0.5-2.2,0.5-3.3c0-0.9-0.2-2.1-0.5-3.1c-0.6-1.7-1.5-2.7-2.1-3.1c-0.8-0.6-1.8-0.6-1.8-0.6h-0.3v-5h0.3
			C1624.7,340.2,1625.2,341.3,1625.8,342.1z"/>
	</g>
	<line fill="none" stroke="#000000" stroke-width="0.459" x1="1624.2" y1="356" x2="1624.2" y2="340"/>
	<g enable-background="new    ">
		<path d="M1622.9,354.7c1.4,0,2.2,1,1.8,2.2c-0.4,1.2-1.9,2.2-3.4,2.2c-1.4,0-2.2-1-1.7-2.2C1620,355.6,1621.5,354.7,1622.9,354.7z
			"/>
	</g>
	<line fill="none" stroke="#000000" stroke-width="0.459" x1="1638.2" y1="358.4" x2="1638.2" y2="342.4"/>
	<g enable-background="new    ">
		<path d="M1636.9,357.1c1.4,0,2.2,1,1.8,2.2c-0.4,1.2-1.9,2.2-3.4,2.2c-1.4,0-2.2-1-1.7-2.2C1634,358,1635.5,357.1,1636.9,357.1z"
			/>
	</g>
	<line fill="none" stroke="#000000" stroke-width="0.459" x1="1656.4" y1="360.8" x2="1656.4" y2="344.8"/>
	<g enable-background="new    ">
		<path d="M1655.1,359.5c1.4,0,2.2,1,1.8,2.2c-0.4,1.2-1.9,2.2-3.4,2.2c-1.4,0-2.2-1-1.7-2.2
			C1652.2,360.4,1653.7,359.5,1655.1,359.5z"/>
	</g>
	<g enable-background="new    ">
		<path d="M1589.6,341.8v-5.7h2.1c0.4,0,0.8,0.1,1.1,0.2s0.5,0.3,0.6,0.5s0.2,0.5,0.2,0.8c0,0.2-0.1,0.5-0.2,0.7s-0.3,0.4-0.6,0.5
			c0.3,0.1,0.6,0.3,0.8,0.5s0.3,0.5,0.3,0.9c0,0.3-0.1,0.5-0.2,0.7s-0.3,0.4-0.4,0.5s-0.4,0.2-0.6,0.3s-0.6,0.1-0.9,0.1H1589.6z
			 M1590.3,338.5h1.2c0.3,0,0.6,0,0.7-0.1c0.2-0.1,0.3-0.2,0.4-0.3s0.1-0.3,0.1-0.5c0-0.2,0-0.4-0.1-0.5s-0.2-0.2-0.4-0.3
			s-0.5-0.1-0.9-0.1h-1.1V338.5z M1590.3,341.1h1.4c0.2,0,0.4,0,0.5,0c0.2,0,0.3-0.1,0.4-0.2s0.2-0.2,0.3-0.3s0.1-0.3,0.1-0.5
			c0-0.2-0.1-0.4-0.2-0.6s-0.3-0.3-0.5-0.3s-0.5-0.1-0.8-0.1h-1.3V341.1z"/>
	</g>
	<g enable-background="new    ">
		<path d="M1595.2,335.6c0,0.1,0,1,0,1c0.6-0.5,0.9-0.7,1.6-0.7c0.8,0,1.3,0.8,1.3,1.4c0,0.3-0.1,0.7-0.2,1
			c-0.1,0.4-0.5,0.6-0.8,0.9c-0.3,0.3-2.4,1.7-2.4,1.7v-9.5h0.4C1595.2,331.5,1595.2,333.5,1595.2,335.6z M1595.4,337.2
			c-0.2,0.4-0.2,1.1-0.2,1.6v1.4c0,0,0.6-0.5,0.9-0.8c0.3-0.3,0.5-0.6,0.6-1.1c0.1-0.5,0.1-1-0.2-1.3
			C1596.3,336.7,1595.7,336.5,1595.4,337.2z"/>
	</g>
	<line fill="none" stroke="#000000" stroke-width="0.459" x1="1680.6" y1="363.2" x2="1680.6" y2="347.2"/>
	<g enable-background="new    ">
		<path d="M1680.1,364.1c-0.3,0.9-1,1.5-1.6,1.8c-0.5,0.3-1.2,0.4-2,0.3c-0.5,0-1.3-0.2-1.6-0.7c-0.3-0.6-0.1-1.2,0-1.6
			c0.3-0.8,1-1.4,1.5-1.7c0.5-0.3,1.3-0.5,2.2-0.4c0.4,0,1.1,0.1,1.5,0.7C1680.4,363,1680.2,363.8,1680.1,364.1z M1678.1,362.8
			c-0.4,0.2-0.7,0.4-1,0.5c-0.3,0.2-0.6,0.4-1,0.6c-0.5,0.3-1.1,0.9-0.8,1.4c0.3,0.6,1.1,0.3,1.6,0c0.4-0.2,0.7-0.4,1-0.5
			c0.3-0.2,0.6-0.4,1-0.6c0.5-0.3,1.1-0.9,0.8-1.4C1679.5,362.2,1678.7,362.5,1678.1,362.8z"/>
	</g>
	<g enable-background="new    ">
		<path d="M1714.4,358.2c-0.8,0-1.5,0.5-1.5,1.4c0,0.6,1,1.5,1,1.5l-0.2,0.2c0,0-2.2-1.3-2.5-2.7c-0.1-0.9,0.5-1.8,1.6-1.9
			c0.4,0,1.2,0.1,1.5,0.2c-1.8-1.8-2.8-3-2.7-3.4c0.4-0.4,1.7-2.1,1.7-3.4c0-0.9-1.3-2.9-1.3-2.9l0.3-0.2l3.5,4.4c0,0-1.7,2-1.7,3.4
			c0,1,0.6,1.8,1.1,2.3c0.2,0.3,1,1.1,1,1.2l0,0.3C1715.3,358.3,1714.8,358.2,1714.4,358.2z"/>
	</g>
	<line fill="none" stroke="#000000" stroke-width="0.459" x1="1738" y1="358.4" x2="1738" y2="342.4"/>
	<g enable-background="new    ">
		<path d="M1736.7,357.1c1.4,0,2.2,1,1.8,2.2c-0.4,1.2-1.9,2.2-3.4,2.2c-1.4,0-2.2-1-1.7-2.2C1733.8,358,1735.3,357.1,1736.7,357.1z
			"/>
	</g>
	<g enable-background="new    ">
		<path d="M1679.5,339.8l0.8,0.2c-0.2,0.6-0.4,1.1-0.9,1.4s-0.9,0.5-1.5,0.5c-0.6,0-1.1-0.1-1.5-0.4s-0.7-0.6-0.9-1.1
			s-0.3-1-0.3-1.5c0-0.6,0.1-1.1,0.3-1.6s0.6-0.8,1-1s0.9-0.3,1.4-0.3c0.6,0,1.1,0.1,1.4,0.4s0.7,0.7,0.8,1.2l-0.7,0.2
			c-0.1-0.4-0.3-0.7-0.6-0.9s-0.6-0.3-1-0.3c-0.4,0-0.8,0.1-1.1,0.3s-0.5,0.5-0.6,0.8s-0.2,0.7-0.2,1.1c0,0.5,0.1,0.9,0.2,1.3
			s0.4,0.6,0.7,0.8s0.6,0.3,1,0.3c0.4,0,0.8-0.1,1.1-0.4S1679.4,340.3,1679.5,339.8z"/>
	</g>
	<g enable-background="new    ">
		<path d="M1765.1,362.6c-0.8,1.4-1.7,2.7-2.4,3.7c-0.6,0.9-1.3,2.1-1.3,3.2h-0.4v-5.1h0.4c0,0,1-0.1,2-0.7c0.7-0.4,1.7-1.7,2.4-3.6
			c0.4-1.1,0.4-1.8,0.4-2.8c0-1.1-0.5-2.6-0.9-3.4l0.2-0.1c0.7,1.1,1.3,3.1,1,5.4C1766.2,360.2,1765.9,361.3,1765.1,362.6z"/>
	</g>
	<line fill="none" stroke="#000000" stroke-width="0.459" x1="1761.2" y1="352.8" x2="1761.2" y2="368.8"/>
	<g enable-background="new    ">
		<path d="M1764.5,349.9c1.4,0,2.2,1,1.8,2.2c-0.4,1.2-1.9,2.2-3.4,2.2c-1.4,0-2.2-1-1.7-2.2
			C1761.6,350.8,1763.1,349.9,1764.5,349.9z"/>
	</g>
	<line fill="none" stroke="#000000" stroke-width="0.459" x1="1773" y1="352.8" x2="1773" y2="368.8"/>
	<g enable-background="new    ">
		<path d="M1776.3,349.9c1.4,0,2.2,1,1.8,2.2c-0.4,1.2-1.9,2.2-3.4,2.2c-1.4,0-2.2-1-1.7-2.2
			C1773.4,350.8,1774.9,349.9,1776.3,349.9z"/>
	</g>
	<g enable-background="new    ">
		<path d="M1795.9,365c-0.8,1.4-1.7,2.7-2.4,3.7c-0.6,0.9-1.3,2.1-1.3,3.2h-0.4v-5.1h0.4c0,0,1-0.1,2-0.7c0.7-0.4,1.7-1.7,2.4-3.6
			c0.4-1.1,0.4-1.8,0.4-2.8c0-1.1-0.5-2.6-0.9-3.4l0.2-0.1c0.7,1.1,1.3,3.1,1,5.4C1797,362.6,1796.7,363.7,1795.9,365z"/>
	</g>
	<line fill="none" stroke="#000000" stroke-width="0.459" x1="1792" y1="355.2" x2="1792" y2="371.2"/>
	<g enable-background="new    ">
		<path d="M1795.3,352.3c1.4,0,2.2,1,1.8,2.2c-0.4,1.2-1.9,2.2-3.4,2.2c-1.4,0-2.2-1-1.7-2.2
			C1792.4,353.2,1793.9,352.3,1795.3,352.3z"/>
	</g>
	<line fill="none" stroke="#000000" stroke-width="0.459" x1="1808.4" y1="356" x2="1808.4" y2="340"/>
	<g enable-background="new    ">
		<path d="M1807.1,354.7c1.4,0,2.2,1,1.8,2.2c-0.4,1.2-1.9,2.2-3.4,2.2c-1.4,0-2.2-1-1.7-2.2
			C1804.2,355.6,1805.7,354.7,1807.1,354.7z"/>
	</g>
	<line fill="none" stroke="#000000" stroke-width="0.459" x1="1827.4" y1="358.4" x2="1827.4" y2="342.4"/>
	<g enable-background="new    ">
		<path d="M1826.1,357.1c1.4,0,2.2,1,1.8,2.2c-0.4,1.2-1.9,2.2-3.4,2.2c-1.4,0-2.2-1-1.7-2.2C1823.2,358,1824.7,357.1,1826.1,357.1z
			"/>
	</g>
	<line fill="none" stroke="#000000" stroke-width="0.459" x1="1852.6" y1="360.8" x2="1852.6" y2="344.8"/>
	<g enable-background="new    ">
		<path d="M1852.1,361.7c-0.3,0.9-1,1.5-1.6,1.8c-0.5,0.3-1.2,0.4-2,0.3c-0.5,0-1.3-0.2-1.6-0.7c-0.3-0.6-0.1-1.2,0-1.6
			c0.3-0.8,1-1.4,1.5-1.7c0.5-0.3,1.3-0.5,2.2-0.4c0.4,0,1.1,0.1,1.5,0.7C1852.4,360.6,1852.2,361.4,1852.1,361.7z M1850.1,360.4
			c-0.4,0.2-0.7,0.4-1,0.5c-0.3,0.2-0.6,0.4-1,0.6c-0.5,0.3-1.1,0.9-0.8,1.4c0.3,0.6,1.1,0.3,1.6,0c0.4-0.2,0.7-0.4,1-0.5
			c0.3-0.2,0.6-0.4,1-0.6c0.5-0.3,1.1-0.9,0.8-1.4C1851.5,359.8,1850.7,360.1,1850.1,360.4z"/>
	</g>
	<g enable-background="new    ">
		<path d="M1886.4,358.2c-0.8,0-1.5,0.5-1.5,1.4c0,0.6,1,1.5,1,1.5l-0.2,0.2c0,0-2.2-1.3-2.5-2.7c-0.1-0.9,0.5-1.8,1.6-1.9
			c0.4,0,1.2,0.1,1.5,0.2c-1.8-1.8-2.8-3-2.7-3.4c0.4-0.4,1.7-2.1,1.7-3.4c0-0.9-1.3-2.9-1.3-2.9l0.3-0.2l3.5,4.4c0,0-1.7,2-1.7,3.4
			c0,1,0.6,1.8,1.1,2.3c0.2,0.3,1,1.1,1,1.2l0,0.3C1887.3,358.3,1886.8,358.2,1886.4,358.2z"/>
	</g>
	<line fill="none" stroke="#000000" stroke-width="0.459" x1="1905.4" y1="352.8" x2="1905.4" y2="368.8"/>
	<g enable-background="new    ">
		<path d="M1908.7,349.9c1.4,0,2.2,1,1.8,2.2c-0.4,1.2-1.9,2.2-3.4,2.2c-1.4,0-2.2-1-1.7-2.2
			C1905.8,350.8,1907.3,349.9,1908.7,349.9z"/>
	</g>
	<g enable-background="new    ">
		<path d="M1908.7,354.7c1.4,0,2.2,1,1.8,2.2c-0.4,1.2-1.9,2.2-3.4,2.2c-1.4,0-2.2-1-1.7-2.2
			C1905.8,355.6,1907.3,354.7,1908.7,354.7z"/>
	</g>
	<g enable-background="new    ">
		<path d="M1847.5,341.8v-5.7h3.9v0.7h-3.1v1.8h2.7v0.7h-2.7v2.6H1847.5z"/>
	</g>
	<g enable-background="new    ">
		<path d="M1937.1,365c-0.8,1.4-1.7,2.7-2.4,3.7c-0.6,0.9-1.3,2.1-1.3,3.2h-0.4v-5.1h0.4c0,0,1-0.1,2-0.7c0.7-0.4,1.7-1.7,2.4-3.6
			c0.4-1.1,0.4-1.8,0.4-2.8c0-1.1-0.5-2.6-0.9-3.4l0.2-0.1c0.7,1.1,1.3,3.1,1,5.4C1938.2,362.6,1937.9,363.7,1937.1,365z"/>
	</g>
	<line fill="none" stroke="#000000" stroke-width="0.459" x1="1933.2" y1="350.4" x2="1933.2" y2="371.2"/>
	<g enable-background="new    ">
		<path d="M1936.5,347.5c1.4,0,2.2,1,1.8,2.2c-0.4,1.2-1.9,2.2-3.4,2.2c-1.4,0-2.2-1-1.7-2.2
			C1933.6,348.4,1935.1,347.5,1936.5,347.5z"/>
	</g>
	<g enable-background="new    ">
		<path d="M1936.5,352.3c1.4,0,2.2,1,1.8,2.2c-0.4,1.2-1.9,2.2-3.4,2.2c-1.4,0-2.2-1-1.7-2.2
			C1933.6,353.2,1935.1,352.3,1936.5,352.3z"/>
	</g>
	<line fill="none" stroke="#000000" stroke-width="0.459" x1="1945" y1="350.4" x2="1945" y2="371.2"/>
	<g enable-background="new    ">
		<path d="M1948.3,347.5c1.4,0,2.2,1,1.8,2.2c-0.4,1.2-1.9,2.2-3.4,2.2c-1.4,0-2.2-1-1.7-2.2
			C1945.4,348.4,1946.9,347.5,1948.3,347.5z"/>
	</g>
	<g enable-background="new    ">
		<path d="M1948.3,352.3c1.4,0,2.2,1,1.8,2.2c-0.4,1.2-1.9,2.2-3.4,2.2c-1.4,0-2.2-1-1.7-2.2
			C1945.4,353.2,1946.9,352.3,1948.3,352.3z"/>
	</g>
	<g enable-background="new    ">
		<path d="M1967.9,367.4c-0.8,1.4-1.7,2.7-2.4,3.7c-0.6,0.9-1.3,2.1-1.3,3.2h-0.4v-5.1h0.4c0,0,1-0.1,2-0.7c0.7-0.4,1.7-1.7,2.4-3.6
			c0.4-1.1,0.4-1.8,0.4-2.8c0-1.1-0.5-2.6-0.9-3.4l0.2-0.1c0.7,1.1,1.3,3.1,1,5.4C1969,365,1968.7,366.1,1967.9,367.4z"/>
	</g>
	<line fill="none" stroke="#000000" stroke-width="0.459" x1="1964" y1="352.8" x2="1964" y2="373.6"/>
	<g enable-background="new    ">
		<path d="M1967.3,349.9c1.4,0,2.2,1,1.8,2.2c-0.4,1.2-1.9,2.2-3.4,2.2c-1.4,0-2.2-1-1.7-2.2
			C1964.4,350.8,1965.9,349.9,1967.3,349.9z"/>
	</g>
	<g enable-background="new    ">
		<path d="M1967.3,354.7c1.4,0,2.2,1,1.8,2.2c-0.4,1.2-1.9,2.2-3.4,2.2c-1.4,0-2.2-1-1.7-2.2
			C1964.4,355.6,1965.9,354.7,1967.3,354.7z"/>
	</g>
	<line fill="none" stroke="#000000" stroke-width="0.459" x1="1980.4" y1="358.4" x2="1980.4" y2="337.6"/>
	<g enable-background="new    ">
		<path d="M1979.1,352.3c1.4,0,2.2,1,1.8,2.2c-0.4,1.2-1.9,2.2-3.4,2.2c-1.4,0-2.2-1-1.7-2.2
			C1976.2,353.2,1977.7,352.3,1979.1,352.3z"/>
	</g>
	<g enable-background="new    ">
		<path d="M1979.1,357.1c1.4,0,2.2,1,1.8,2.2c-0.4,1.2-1.9,2.2-3.4,2.2c-1.4,0-2.2-1-1.7-2.2C1976.2,358,1977.7,357.1,1979.1,357.1z
			"/>
	</g>
	<line fill="none" stroke="#000000" stroke-width="0.459" x1="1999.4" y1="360.8" x2="1999.4" y2="340"/>
	<g enable-background="new    ">
		<path d="M1998.1,354.7c1.4,0,2.2,1,1.8,2.2c-0.4,1.2-1.9,2.2-3.4,2.2c-1.4,0-2.2-1-1.7-2.2
			C1995.2,355.6,1996.7,354.7,1998.1,354.7z"/>
	</g>
	<g enable-background="new    ">
		<path d="M1998.1,359.5c1.4,0,2.2,1,1.8,2.2c-0.4,1.2-1.9,2.2-3.4,2.2c-1.4,0-2.2-1-1.7-2.2
			C1995.2,360.4,1996.7,359.5,1998.1,359.5z"/>
	</g>
	<g enable-background="new    ">
		<path d="M1933.6,341.8v-5.7h2.1c0.4,0,0.8,0.1,1.1,0.2s0.5,0.3,0.6,0.5s0.2,0.5,0.2,0.8c0,0.2-0.1,0.5-0.2,0.7s-0.3,0.4-0.6,0.5
			c0.3,0.1,0.6,0.3,0.8,0.5s0.3,0.5,0.3,0.9c0,0.3-0.1,0.5-0.2,0.7s-0.3,0.4-0.4,0.5s-0.4,0.2-0.6,0.3s-0.6,0.1-0.9,0.1H1933.6z
			 M1934.3,338.5h1.2c0.3,0,0.6,0,0.7-0.1c0.2-0.1,0.3-0.2,0.4-0.3s0.1-0.3,0.1-0.5c0-0.2,0-0.4-0.1-0.5s-0.2-0.2-0.4-0.3
			s-0.5-0.1-0.9-0.1h-1.1V338.5z M1934.3,341.1h1.4c0.2,0,0.4,0,0.5,0c0.2,0,0.3-0.1,0.4-0.2s0.2-0.2,0.3-0.3s0.1-0.3,0.1-0.5
			c0-0.2-0.1-0.4-0.2-0.6s-0.3-0.3-0.5-0.3s-0.5-0.1-0.8-0.1h-1.3V341.1z"/>
	</g>
	<g enable-background="new    ">
		<path d="M1939.2,335.6c0,0.1,0,1,0,1c0.6-0.5,0.9-0.7,1.6-0.7c0.8,0,1.3,0.8,1.3,1.4c0,0.3-0.1,0.7-0.2,1
			c-0.1,0.4-0.5,0.6-0.8,0.9c-0.3,0.3-2.4,1.7-2.4,1.7v-9.5h0.4C1939.2,331.5,1939.2,333.5,1939.2,335.6z M1939.4,337.2
			c-0.2,0.4-0.2,1.1-0.2,1.6v1.4c0,0,0.6-0.5,0.9-0.8c0.3-0.3,0.5-0.6,0.6-1.1c0.1-0.5,0.1-1-0.2-1.3
			C1940.3,336.7,1939.7,336.5,1939.4,337.2z"/>
	</g>
	<line fill="none" stroke="#000000" stroke-width="0.459" x1="2024.6" y1="363.2" x2="2024.6" y2="342.4"/>
	<g enable-background="new    ">
		<path d="M2024.1,359.3c-0.3,0.9-1,1.5-1.6,1.8c-0.5,0.3-1.2,0.4-2,0.3c-0.5,0-1.3-0.2-1.6-0.7c-0.3-0.6-0.1-1.2,0-1.6
			c0.3-0.8,1-1.4,1.5-1.7c0.5-0.3,1.3-0.5,2.2-0.4c0.4,0,1.1,0.1,1.5,0.7C2024.4,358.2,2024.2,359,2024.1,359.3z M2022.1,358
			c-0.4,0.2-0.7,0.4-1,0.5c-0.3,0.2-0.6,0.4-1,0.6c-0.5,0.3-1.1,0.9-0.8,1.4c0.3,0.6,1.1,0.3,1.6,0c0.4-0.2,0.7-0.4,1-0.5
			c0.3-0.2,0.6-0.4,1-0.6c0.5-0.3,1.1-0.9,0.8-1.4C2023.5,357.4,2022.7,357.7,2022.1,358z"/>
	</g>
	<g enable-background="new    ">
		<path d="M2024.1,364.1c-0.3,0.9-1,1.5-1.6,1.8c-0.5,0.3-1.2,0.4-2,0.3c-0.5,0-1.3-0.2-1.6-0.7c-0.3-0.6-0.1-1.2,0-1.6
			c0.3-0.8,1-1.4,1.5-1.7c0.5-0.3,1.3-0.5,2.2-0.4c0.4,0,1.1,0.1,1.5,0.7C2024.4,363,2024.2,363.8,2024.1,364.1z M2022.1,362.8
			c-0.4,0.2-0.7,0.4-1,0.5c-0.3,0.2-0.6,0.4-1,0.6c-0.5,0.3-1.1,0.9-0.8,1.4c0.3,0.6,1.1,0.3,1.6,0c0.4-0.2,0.7-0.4,1-0.5
			c0.3-0.2,0.6-0.4,1-0.6c0.5-0.3,1.1-0.9,0.8-1.4C2023.5,362.2,2022.7,362.5,2022.1,362.8z"/>
	</g>
	<g enable-background="new    ">
		<path d="M2058.4,358.2c-0.8,0-1.5,0.5-1.5,1.4c0,0.6,1,1.5,1,1.5l-0.2,0.2c0,0-2.2-1.3-2.5-2.7c-0.1-0.9,0.5-1.8,1.6-1.9
			c0.4,0,1.2,0.1,1.5,0.2c-1.8-1.8-2.8-3-2.7-3.4c0.4-0.4,1.7-2.1,1.7-3.4c0-0.9-1.3-2.9-1.3-2.9l0.3-0.2l3.5,4.4c0,0-1.7,2-1.7,3.4
			c0,1,0.6,1.8,1.1,2.3c0.2,0.3,1,1.1,1,1.2l0,0.3C2059.3,358.3,2058.8,358.2,2058.4,358.2z"/>
	</g>
	<line fill="none" stroke="#000000" stroke-width="0.459" x1="2082" y1="358.4" x2="2082" y2="337.6"/>
	<g enable-background="new    ">
		<path d="M2080.7,352.3c1.4,0,2.2,1,1.8,2.2c-0.4,1.2-1.9,2.2-3.4,2.2c-1.4,0-2.2-1-1.7-2.2
			C2077.8,353.2,2079.3,352.3,2080.7,352.3z"/>
	</g>
	<g enable-background="new    ">
		<path d="M2080.7,357.1c1.4,0,2.2,1,1.8,2.2c-0.4,1.2-1.9,2.2-3.4,2.2c-1.4,0-2.2-1-1.7-2.2C2077.8,358,2079.3,357.1,2080.7,357.1z
			"/>
	</g>
	<g enable-background="new    ">
		<path d="M2023.5,339.8l0.8,0.2c-0.2,0.6-0.4,1.1-0.9,1.4s-0.9,0.5-1.5,0.5c-0.6,0-1.1-0.1-1.5-0.4s-0.7-0.6-0.9-1.1
			s-0.3-1-0.3-1.5c0-0.6,0.1-1.1,0.3-1.6s0.6-0.8,1-1s0.9-0.3,1.4-0.3c0.6,0,1.1,0.1,1.4,0.4s0.7,0.7,0.8,1.2l-0.7,0.2
			c-0.1-0.4-0.3-0.7-0.6-0.9s-0.6-0.3-1-0.3c-0.4,0-0.8,0.1-1.1,0.3s-0.5,0.5-0.6,0.8s-0.2,0.7-0.2,1.1c0,0.5,0.1,0.9,0.2,1.3
			s0.4,0.6,0.7,0.8s0.6,0.3,1,0.3c0.4,0,0.8-0.1,1.1-0.4S2023.4,340.3,2023.5,339.8z"/>
	</g>
	<g enable-background="new    ">
		<path d="M2109.1,362.6c-0.8,1.4-1.7,2.7-2.4,3.7c-0.6,0.9-1.3,2.1-1.3,3.2h-0.4v-5.1h0.4c0,0,1-0.1,2-0.7c0.7-0.4,1.7-1.7,2.4-3.6
			c0.4-1.1,0.4-1.8,0.4-2.8c0-1.1-0.5-2.6-0.9-3.4l0.2-0.1c0.7,1.1,1.3,3.1,1,5.4C2110.2,360.2,2109.9,361.3,2109.1,362.6z"/>
	</g>
	<line fill="none" stroke="#000000" stroke-width="0.459" x1="2105.2" y1="348" x2="2105.2" y2="368.8"/>
	<g enable-background="new    ">
		<path d="M2108.5,345.1c1.4,0,2.2,1,1.8,2.2c-0.4,1.2-1.9,2.2-3.4,2.2c-1.4,0-2.2-1-1.7-2.2C2105.6,346,2107.1,345.1,2108.5,345.1z
			"/>
	</g>
	<g enable-background="new    ">
		<path d="M2108.5,349.9c1.4,0,2.2,1,1.8,2.2c-0.4,1.2-1.9,2.2-3.4,2.2c-1.4,0-2.2-1-1.7-2.2
			C2105.6,350.8,2107.1,349.9,2108.5,349.9z"/>
	</g>
	<line fill="none" stroke="#000000" stroke-width="0.459" x1="2117" y1="348" x2="2117" y2="368.8"/>
	<g enable-background="new    ">
		<path d="M2120.3,345.1c1.4,0,2.2,1,1.8,2.2c-0.4,1.2-1.9,2.2-3.4,2.2c-1.4,0-2.2-1-1.7-2.2C2117.4,346,2118.9,345.1,2120.3,345.1z
			"/>
	</g>
	<g enable-background="new    ">
		<path d="M2120.3,349.9c1.4,0,2.2,1,1.8,2.2c-0.4,1.2-1.9,2.2-3.4,2.2c-1.4,0-2.2-1-1.7-2.2
			C2117.4,350.8,2118.9,349.9,2120.3,349.9z"/>
	</g>
	<g enable-background="new    ">
		<path d="M2139.9,365c-0.8,1.4-1.7,2.7-2.4,3.7c-0.6,0.9-1.3,2.1-1.3,3.2h-0.4v-5.1h0.4c0,0,1-0.1,2-0.7c0.7-0.4,1.7-1.7,2.4-3.6
			c0.4-1.1,0.4-1.8,0.4-2.8c0-1.1-0.5-2.6-0.9-3.4l0.2-0.1c0.7,1.1,1.3,3.1,1,5.4C2141,362.6,2140.7,363.7,2139.9,365z"/>
	</g>
	<line fill="none" stroke="#000000" stroke-width="0.459" x1="2136" y1="350.4" x2="2136" y2="371.2"/>
	<g enable-background="new    ">
		<path d="M2139.3,347.5c1.4,0,2.2,1,1.8,2.2c-0.4,1.2-1.9,2.2-3.4,2.2c-1.4,0-2.2-1-1.7-2.2
			C2136.4,348.4,2137.9,347.5,2139.3,347.5z"/>
	</g>
	<g enable-background="new    ">
		<path d="M2139.3,352.3c1.4,0,2.2,1,1.8,2.2c-0.4,1.2-1.9,2.2-3.4,2.2c-1.4,0-2.2-1-1.7-2.2
			C2136.4,353.2,2137.9,352.3,2139.3,352.3z"/>
	</g>
	<line fill="none" stroke="#000000" stroke-width="0.459" x1="2147.8" y1="352.8" x2="2147.8" y2="368.8"/>
	<g enable-background="new    ">
		<path d="M2151.1,349.9c1.4,0,2.2,1,1.8,2.2c-0.4,1.2-1.9,2.2-3.4,2.2c-1.4,0-2.2-1-1.7-2.2
			C2148.2,350.8,2149.7,349.9,2151.1,349.9z"/>
	</g>
	<g enable-background="new    ">
		<path d="M2151.1,354.7c1.4,0,2.2,1,1.8,2.2c-0.4,1.2-1.9,2.2-3.4,2.2c-1.4,0-2.2-1-1.7-2.2
			C2148.2,355.6,2149.7,354.7,2151.1,354.7z"/>
	</g>
	<line fill="none" stroke="#000000" stroke-width="0.459" x1="2171.4" y1="358.4" x2="2171.4" y2="337.6"/>
	<g enable-background="new    ">
		<path d="M2170.1,352.3c1.4,0,2.2,1,1.8,2.2c-0.4,1.2-1.9,2.2-3.4,2.2c-1.4,0-2.2-1-1.7-2.2
			C2167.2,353.2,2168.7,352.3,2170.1,352.3z"/>
	</g>
	<g enable-background="new    ">
		<path d="M2170.1,357.1c1.4,0,2.2,1,1.8,2.2c-0.4,1.2-1.9,2.2-3.4,2.2c-1.4,0-2.2-1-1.7-2.2C2167.2,358,2168.7,357.1,2170.1,357.1z
			"/>
	</g>
	<line fill="none" stroke="#000000" stroke-width="0.459" x1="2196.6" y1="360.8" x2="2196.6" y2="340"/>
	<g enable-background="new    ">
		<path d="M2196.1,356.9c-0.3,0.9-1,1.5-1.6,1.8c-0.5,0.3-1.2,0.4-2,0.3c-0.5,0-1.3-0.2-1.6-0.7c-0.3-0.6-0.1-1.2,0-1.6
			c0.3-0.8,1-1.4,1.5-1.7c0.5-0.3,1.3-0.5,2.2-0.4c0.4,0,1.1,0.1,1.5,0.7C2196.4,355.8,2196.2,356.6,2196.1,356.9z M2194.1,355.6
			c-0.4,0.2-0.7,0.4-1,0.5c-0.3,0.2-0.6,0.4-1,0.6c-0.5,0.3-1.1,0.9-0.8,1.4c0.3,0.6,1.1,0.3,1.6,0c0.4-0.2,0.7-0.4,1-0.5
			c0.3-0.2,0.6-0.4,1-0.6c0.5-0.3,1.1-0.9,0.8-1.4C2195.5,355,2194.7,355.3,2194.1,355.6z"/>
	</g>
	<g enable-background="new    ">
		<path d="M2196.1,361.7c-0.3,0.9-1,1.5-1.6,1.8c-0.5,0.3-1.2,0.4-2,0.3c-0.5,0-1.3-0.2-1.6-0.7c-0.3-0.6-0.1-1.2,0-1.6
			c0.3-0.8,1-1.4,1.5-1.7c0.5-0.3,1.3-0.5,2.2-0.4c0.4,0,1.1,0.1,1.5,0.7C2196.4,360.6,2196.2,361.4,2196.1,361.7z M2194.1,360.4
			c-0.4,0.2-0.7,0.4-1,0.5c-0.3,0.2-0.6,0.4-1,0.6c-0.5,0.3-1.1,0.9-0.8,1.4c0.3,0.6,1.1,0.3,1.6,0c0.4-0.2,0.7-0.4,1-0.5
			c0.3-0.2,0.6-0.4,1-0.6c0.5-0.3,1.1-0.9,0.8-1.4C2195.5,359.8,2194.7,360.1,2194.1,360.4z"/>
	</g>
	<g enable-background="new    ">
		<path d="M2230.4,358.2c-0.8,0-1.5,0.5-1.5,1.4c0,0.6,1,1.5,1,1.5l-0.2,0.2c0,0-2.2-1.3-2.5-2.7c-0.1-0.9,0.5-1.8,1.6-1.9
			c0.4,0,1.2,0.1,1.5,0.2c-1.8-1.8-2.8-3-2.7-3.4c0.4-0.4,1.7-2.1,1.7-3.4c0-0.9-1.3-2.9-1.3-2.9l0.3-0.2l3.5,4.4c0,0-1.7,2-1.7,3.4
			c0,1,0.6,1.8,1.1,2.3c0.2,0.3,1,1.1,1,1.2l0,0.3C2231.3,358.3,2230.8,358.2,2230.4,358.2z"/>
	</g>
	<line fill="none" stroke="#000000" stroke-width="0.459" x1="2254" y1="368" x2="2254" y2="352"/>
	<line fill="none" stroke="#000000" stroke-width="0.459" x1="2248" y1="368.8" x2="2255.4" y2="368.8"/>
	<g enable-background="new    ">
		<path d="M2252.7,366.7c1.4,0,2.2,1,1.8,2.2c-0.4,1.2-1.9,2.2-3.4,2.2c-1.4,0-2.2-1-1.7-2.2
			C2249.8,367.6,2251.3,366.7,2252.7,366.7z"/>
	</g>
	<g enable-background="new    ">
		<path d="M2248.2,328.4l2.6-6.9h1l2.8,6.9h-1l-0.8-2.1h-2.9l-0.8,2.1H2248.2z M2250.2,325.6h2.3l-0.7-1.9c-0.2-0.6-0.4-1.1-0.5-1.4
			c-0.1,0.4-0.2,0.9-0.4,1.3L2250.2,325.6z"/>
	</g>
	<g enable-background="new    ">
		<path d="M2191.5,341.8v-5.7h3.9v0.7h-3.1v1.8h2.7v0.7h-2.7v2.6H2191.5z"/>
	</g>
	<g enable-background="new    ">
		<path d="M2283.2,346.9c0.6,0.9,1.4,1.9,2.2,3.1c0.6,1.1,1.2,2.7,1.2,3.5c0.1,0.8,0.2,1.6,0.2,2.3c0,1.2-0.2,2.2-0.6,3.3l-0.2,0
			c0.3-0.9,0.5-2.2,0.5-3.3c0-0.9-0.2-2.1-0.5-3.1c-0.6-1.7-1.5-2.7-2.1-3.1c-0.8-0.6-1.8-0.6-1.8-0.6h-0.3v-5h0.3
			C2282.1,345,2282.6,346.1,2283.2,346.9z"/>
	</g>
	<line fill="none" stroke="#000000" stroke-width="0.459" x1="2281.6" y1="360.8" x2="2281.6" y2="344.8"/>
	<g enable-background="new    ">
		<path d="M2280.3,359.5c1.4,0,2.2,1,1.8,2.2c-0.4,1.2-1.9,2.2-3.4,2.2c-1.4,0-2.2-1-1.7-2.2
			C2277.4,360.4,2278.9,359.5,2280.3,359.5z"/>
	</g>
	<line fill="none" stroke="#000000" stroke-width="0.459" x1="2293.2" y1="360.8" x2="2293.2" y2="344.8"/>
	<g enable-background="new    ">
		<path d="M2291.9,359.5c1.4,0,2.2,1,1.8,2.2c-0.4,1.2-1.9,2.2-3.4,2.2c-1.4,0-2.2-1-1.7-2.2C2289,360.4,2290.5,359.5,2291.9,359.5z
			"/>
	</g>
	<g enable-background="new    ">
		<path d="M2314.8,346.9c0.6,0.9,1.4,1.9,2.2,3.1c0.6,1.1,1.2,2.7,1.2,3.5c0.1,0.8,0.2,1.6,0.2,2.3c0,1.2-0.2,2.2-0.6,3.3l-0.2,0
			c0.3-0.9,0.5-2.2,0.5-3.3c0-0.9-0.2-2.1-0.5-3.1c-0.6-1.7-1.5-2.7-2.1-3.1c-0.8-0.6-1.8-0.6-1.8-0.6h-0.3v-5h0.3
			C2313.7,345,2314.2,346.1,2314.8,346.9z"/>
	</g>
	<line fill="none" stroke="#000000" stroke-width="0.459" x1="2313.2" y1="360.8" x2="2313.2" y2="344.8"/>
	<g enable-background="new    ">
		<path d="M2311.9,359.5c1.4,0,2.2,1,1.8,2.2c-0.4,1.2-1.9,2.2-3.4,2.2c-1.4,0-2.2-1-1.7-2.2C2309,360.4,2310.5,359.5,2311.9,359.5z
			"/>
	</g>
	<line fill="none" stroke="#000000" stroke-width="0.459" x1="2327.2" y1="360.8" x2="2327.2" y2="344.8"/>
	<g enable-background="new    ">
		<path d="M2325.9,359.5c1.4,0,2.2,1,1.8,2.2c-0.4,1.2-1.9,2.2-3.4,2.2c-1.4,0-2.2-1-1.7-2.2C2323,360.4,2324.5,359.5,2325.9,359.5z
			"/>
	</g>
	<line fill="none" stroke="#000000" stroke-width="0.459" x1="2344.8" y1="358.4" x2="2344.8" y2="342.4"/>
	<g enable-background="new    ">
		<path d="M2343.5,357.1c1.4,0,2.2,1,1.8,2.2c-0.4,1.2-1.9,2.2-3.4,2.2s-2.2-1-1.7-2.2C2340.6,358,2342.1,357.1,2343.5,357.1z"/>
	</g>
	<g enable-background="new    ">
		<path d="M2277.5,341.8v-5.7h3.9v0.7h-3.1v1.8h2.7v0.7h-2.7v2.6H2277.5z"/>
	</g>
	<line fill="none" stroke="#000000" stroke-width="0.459" x1="2367.6" y1="356" x2="2367.6" y2="340"/>
	<g enable-background="new    ">
		<path d="M2366.3,354.7c1.4,0,2.2,1,1.8,2.2c-0.4,1.2-1.9,2.2-3.4,2.2c-1.4,0-2.2-1-1.7-2.2
			C2363.4,355.6,2364.9,354.7,2366.3,354.7z"/>
	</g>
	<line fill="none" stroke="#000000" stroke-width="0.459" x1="2385.4" y1="352.8" x2="2385.4" y2="368.8"/>
	<g enable-background="new    ">
		<path d="M2390.5,352.1c-0.3,0.9-1,1.5-1.6,1.8c-0.5,0.3-1.2,0.4-2,0.3c-0.5,0-1.3-0.2-1.6-0.7c-0.3-0.6-0.1-1.2,0-1.6
			c0.3-0.8,1-1.4,1.5-1.7c0.5-0.3,1.3-0.5,2.2-0.4c0.4,0,1.1,0.1,1.5,0.7C2390.8,351,2390.6,351.8,2390.5,352.1z M2388.5,350.8
			c-0.4,0.2-0.7,0.4-1,0.5c-0.3,0.2-0.6,0.4-1,0.6c-0.5,0.3-1.1,0.9-0.8,1.4c0.3,0.6,1.1,0.3,1.6,0c0.4-0.2,0.7-0.4,1-0.5
			c0.3-0.2,0.6-0.4,1-0.6c0.5-0.3,1.1-0.9,0.8-1.4C2389.9,350.2,2389.1,350.5,2388.5,350.8z"/>
	</g>
	<line fill="none" stroke="#000000" stroke-width="0.459" x1="2426" y1="356" x2="2426" y2="340"/>
	<g enable-background="new    ">
		<path d="M2424.7,354.7c1.4,0,2.2,1,1.8,2.2c-0.4,1.2-1.9,2.2-3.4,2.2c-1.4,0-2.2-1-1.7-2.2
			C2421.8,355.6,2423.3,354.7,2424.7,354.7z"/>
	</g>
	<g enable-background="new    ">
		<path d="M2453.1,362.6c-0.8,1.4-1.7,2.7-2.4,3.7c-0.6,0.9-1.3,2.1-1.3,3.2h-0.4v-5.1h0.4c0,0,1-0.1,2-0.7c0.7-0.4,1.7-1.7,2.4-3.6
			c0.4-1.1,0.4-1.8,0.4-2.8c0-1.1-0.5-2.6-0.9-3.4l0.2-0.1c0.7,1.1,1.3,3.1,1,5.4C2454.2,360.2,2453.9,361.3,2453.1,362.6z"/>
	</g>
	<line fill="none" stroke="#000000" stroke-width="0.459" x1="2449.2" y1="352.8" x2="2449.2" y2="368.8"/>
	<g enable-background="new    ">
		<path d="M2452.5,349.9c1.4,0,2.2,1,1.8,2.2c-0.4,1.2-1.9,2.2-3.4,2.2s-2.2-1-1.7-2.2C2449.6,350.8,2451.1,349.9,2452.5,349.9z"/>
	</g>
	<line fill="none" stroke="#000000" stroke-width="0.459" x1="2461" y1="352.8" x2="2461" y2="368.8"/>
	<g enable-background="new    ">
		<path d="M2464.3,349.9c1.4,0,2.2,1,1.8,2.2c-0.4,1.2-1.9,2.2-3.4,2.2c-1.4,0-2.2-1-1.7-2.2
			C2461.4,350.8,2462.9,349.9,2464.3,349.9z"/>
	</g>
	<g enable-background="new    ">
		<path d="M2483.9,365c-0.8,1.4-1.7,2.7-2.4,3.7c-0.6,0.9-1.3,2.1-1.3,3.2h-0.4v-5.1h0.4c0,0,1-0.1,2-0.7c0.7-0.4,1.7-1.7,2.4-3.6
			c0.4-1.1,0.4-1.8,0.4-2.8c0-1.1-0.5-2.6-0.9-3.4l0.2-0.1c0.7,1.1,1.3,3.1,1,5.4C2485,362.6,2484.7,363.7,2483.9,365z"/>
	</g>
	<line fill="none" stroke="#000000" stroke-width="0.459" x1="2480" y1="355.2" x2="2480" y2="371.2"/>
	<g enable-background="new    ">
		<path d="M2483.3,352.3c1.4,0,2.2,1,1.8,2.2c-0.4,1.2-1.9,2.2-3.4,2.2c-1.4,0-2.2-1-1.7-2.2
			C2480.4,353.2,2481.9,352.3,2483.3,352.3z"/>
	</g>
	<line fill="none" stroke="#000000" stroke-width="0.459" x1="2496.4" y1="356" x2="2496.4" y2="340"/>
	<g enable-background="new    ">
		<path d="M2495.1,354.7c1.4,0,2.2,1,1.8,2.2c-0.4,1.2-1.9,2.2-3.4,2.2c-1.4,0-2.2-1-1.7-2.2
			C2492.2,355.6,2493.7,354.7,2495.1,354.7z"/>
	</g>
	<line fill="none" stroke="#000000" stroke-width="0.459" x1="2515.4" y1="358.4" x2="2515.4" y2="342.4"/>
	<g enable-background="new    ">
		<path d="M2514.1,357.1c1.4,0,2.2,1,1.8,2.2c-0.4,1.2-1.9,2.2-3.4,2.2c-1.4,0-2.2-1-1.7-2.2C2511.2,358,2512.7,357.1,2514.1,357.1z
			"/>
	</g>
	<g enable-background="new    ">
		<path d="M2453.7,339.8l0.8,0.2c-0.2,0.6-0.4,1.1-0.9,1.4s-0.9,0.5-1.5,0.5c-0.6,0-1.1-0.1-1.5-0.4s-0.7-0.6-0.9-1.1
			s-0.3-1-0.3-1.5c0-0.6,0.1-1.1,0.3-1.6s0.6-0.8,1-1s0.9-0.3,1.4-0.3c0.6,0,1.1,0.1,1.4,0.4s0.7,0.7,0.8,1.2l-0.7,0.2
			c-0.1-0.4-0.3-0.7-0.6-0.9s-0.6-0.3-1-0.3c-0.4,0-0.8,0.1-1.1,0.3s-0.5,0.5-0.6,0.8s-0.2,0.7-0.2,1.1c0,0.5,0.1,0.9,0.2,1.3
			s0.4,0.6,0.7,0.8s0.6,0.3,1,0.3c0.4,0,0.8-0.1,1.1-0.4S2453.6,340.3,2453.7,339.8z"/>
	</g>
	<line fill="none" stroke="#000000" stroke-width="0.459" x1="2540.6" y1="360.8" x2="2540.6" y2="344.8"/>
	<g enable-background="new    ">
		<path d="M2540.1,361.7c-0.3,0.9-1,1.5-1.6,1.8c-0.5,0.3-1.2,0.4-2,0.3c-0.5,0-1.3-0.2-1.6-0.7c-0.3-0.6-0.1-1.2,0-1.6
			c0.3-0.8,1-1.4,1.5-1.7c0.5-0.3,1.3-0.5,2.2-0.4c0.4,0,1.1,0.1,1.5,0.7C2540.4,360.6,2540.2,361.4,2540.1,361.7z M2538.1,360.4
			c-0.4,0.2-0.7,0.4-1,0.5c-0.3,0.2-0.6,0.4-1,0.6c-0.5,0.3-1.1,0.9-0.8,1.4c0.3,0.6,1.1,0.3,1.6,0c0.4-0.2,0.7-0.4,1-0.5
			c0.3-0.2,0.6-0.4,1-0.6c0.5-0.3,1.1-0.9,0.8-1.4C2539.5,359.8,2538.7,360.1,2538.1,360.4z"/>
	</g>
	<g enable-background="new    ">
		<path d="M2574.4,358.2c-0.8,0-1.5,0.5-1.5,1.4c0,0.6,1,1.5,1,1.5l-0.2,0.2c0,0-2.2-1.3-2.5-2.7c-0.1-0.9,0.5-1.8,1.6-1.9
			c0.4,0,1.2,0.1,1.5,0.2c-1.8-1.8-2.8-3-2.7-3.4c0.4-0.4,1.7-2.1,1.7-3.4c0-0.9-1.3-2.9-1.3-2.9l0.3-0.2l3.5,4.4c0,0-1.7,2-1.7,3.4
			c0,1,0.6,1.8,1.1,2.3c0.2,0.3,1,1.1,1,1.2l0,0.3C2575.3,358.3,2574.8,358.2,2574.4,358.2z"/>
	</g>
	<line fill="none" stroke="#000000" stroke-width="0.459" x1="2598" y1="368" x2="2598" y2="352"/>
	<line fill="none" stroke="#000000" stroke-width="0.459" x1="2592" y1="368.8" x2="2599.4" y2="368.8"/>
	<g enable-background="new    ">
		<path d="M2596.7,366.7c1.4,0,2.2,1,1.8,2.2c-0.4,1.2-1.9,2.2-3.4,2.2c-1.4,0-2.2-1-1.7-2.2
			C2593.8,367.6,2595.3,366.7,2596.7,366.7z"/>
	</g>
	<g enable-background="new    ">
		<path d="M2591.8,328.8l2.6-6.9h1l2.8,6.9h-1l-0.8-2.1h-2.9l-0.8,2.1H2591.8z M2593.8,326h2.3l-0.7-1.9c-0.2-0.6-0.4-1.1-0.5-1.4
			c-0.1,0.4-0.2,0.9-0.4,1.3L2593.8,326z"/>
	</g>
	<g enable-background="new    ">
		<path d="M2535.5,341.8v-5.7h3.9v0.7h-3.1v1.8h2.7v0.7h-2.7v2.6H2535.5z"/>
	</g>
	<g enable-background="new    ">
		<path d="M2627.2,346.9c0.6,0.9,1.4,1.9,2.2,3.1c0.6,1.1,1.2,2.7,1.2,3.5c0.1,0.8,0.2,1.6,0.2,2.3c0,1.2-0.2,2.2-0.6,3.3l-0.2,0
			c0.3-0.9,0.5-2.2,0.5-3.3c0-0.9-0.2-2.1-0.5-3.1c-0.6-1.7-1.5-2.7-2.1-3.1c-0.8-0.6-1.8-0.6-1.8-0.6h-0.3v-5h0.3
			C2626.1,345,2626.6,346.1,2627.2,346.9z"/>
	</g>
	<line fill="none" stroke="#000000" stroke-width="0.459" x1="2625.6" y1="360.8" x2="2625.6" y2="344.8"/>
	<g enable-background="new    ">
		<path d="M2624.3,359.5c1.4,0,2.2,1,1.8,2.2c-0.4,1.2-1.9,2.2-3.4,2.2c-1.4,0-2.2-1-1.7-2.2
			C2621.4,360.4,2622.9,359.5,2624.3,359.5z"/>
	</g>
	<line fill="none" stroke="#000000" stroke-width="0.459" x1="2637.2" y1="360.8" x2="2637.2" y2="344.8"/>
	<g enable-background="new    ">
		<path d="M2635.9,359.5c1.4,0,2.2,1,1.8,2.2c-0.4,1.2-1.9,2.2-3.4,2.2c-1.4,0-2.2-1-1.7-2.2C2633,360.4,2634.5,359.5,2635.9,359.5z
			"/>
	</g>
	<g enable-background="new    ">
		<path d="M2658.8,346.9c0.6,0.9,1.4,1.9,2.2,3.1c0.6,1.1,1.2,2.7,1.2,3.5c0.1,0.8,0.2,1.6,0.2,2.3c0,1.2-0.2,2.2-0.6,3.3l-0.2,0
			c0.3-0.9,0.5-2.2,0.5-3.3c0-0.9-0.2-2.1-0.5-3.1c-0.6-1.7-1.5-2.7-2.1-3.1c-0.8-0.6-1.8-0.6-1.8-0.6h-0.3v-5h0.3
			C2657.7,345,2658.2,346.1,2658.8,346.9z"/>
	</g>
	<line fill="none" stroke="#000000" stroke-width="0.459" x1="2657.2" y1="360.8" x2="2657.2" y2="344.8"/>
	<g enable-background="new    ">
		<path d="M2655.9,359.5c1.4,0,2.2,1,1.8,2.2c-0.4,1.2-1.9,2.2-3.4,2.2c-1.4,0-2.2-1-1.7-2.2C2653,360.4,2654.5,359.5,2655.9,359.5z
			"/>
	</g>
	<line fill="none" stroke="#000000" stroke-width="0.459" x1="2671.2" y1="360.8" x2="2671.2" y2="344.8"/>
	<g enable-background="new    ">
		<path d="M2669.9,359.5c1.4,0,2.2,1,1.8,2.2c-0.4,1.2-1.9,2.2-3.4,2.2c-1.4,0-2.2-1-1.7-2.2C2667,360.4,2668.5,359.5,2669.9,359.5z
			"/>
	</g>
	<line fill="none" stroke="#000000" stroke-width="0.459" x1="2688.8" y1="358.4" x2="2688.8" y2="342.4"/>
	<g enable-background="new    ">
		<path d="M2687.5,357.1c1.4,0,2.2,1,1.8,2.2c-0.4,1.2-1.9,2.2-3.4,2.2s-2.2-1-1.7-2.2C2684.6,358,2686.1,357.1,2687.5,357.1z"/>
	</g>
	<g enable-background="new    ">
		<path d="M2621.5,341.8v-5.7h3.9v0.7h-3.1v1.8h2.7v0.7h-2.7v2.6H2621.5z"/>
	</g>
	<line fill="none" stroke="#000000" stroke-width="0.459" x1="2711.6" y1="356" x2="2711.6" y2="340"/>
	<g enable-background="new    ">
		<path d="M2710.3,354.7c1.4,0,2.2,1,1.8,2.2c-0.4,1.2-1.9,2.2-3.4,2.2c-1.4,0-2.2-1-1.7-2.2
			C2707.4,355.6,2708.9,354.7,2710.3,354.7z"/>
	</g>
	<line fill="none" stroke="#000000" stroke-width="0.459" x1="2729.4" y1="352.8" x2="2729.4" y2="368.8"/>
	<g enable-background="new    ">
		<path d="M2734.5,352.1c-0.3,0.9-1,1.5-1.6,1.8c-0.5,0.3-1.2,0.4-2,0.3c-0.5,0-1.3-0.2-1.6-0.7c-0.3-0.6-0.1-1.2,0-1.6
			c0.3-0.8,1-1.4,1.5-1.7c0.5-0.3,1.3-0.5,2.2-0.4c0.4,0,1.1,0.1,1.5,0.7C2734.8,351,2734.6,351.8,2734.5,352.1z M2732.5,350.8
			c-0.4,0.2-0.7,0.4-1,0.5c-0.3,0.2-0.6,0.4-1,0.6c-0.5,0.3-1.1,0.9-0.8,1.4c0.3,0.6,1.1,0.3,1.6,0c0.4-0.2,0.7-0.4,1-0.5
			c0.3-0.2,0.6-0.4,1-0.6c0.5-0.3,1.1-0.9,0.8-1.4C2733.9,350.2,2733.1,350.5,2732.5,350.8z"/>
	</g>
	<line fill="none" stroke="#000000" stroke-width="0.459" x1="2770" y1="356" x2="2770" y2="340"/>
	<g enable-background="new    ">
		<path d="M2768.7,354.7c1.4,0,2.2,1,1.8,2.2c-0.4,1.2-1.9,2.2-3.4,2.2c-1.4,0-2.2-1-1.7-2.2
			C2765.8,355.6,2767.3,354.7,2768.7,354.7z"/>
	</g>
	<g enable-background="new    ">
		<path d="M2797.1,362.6c-0.8,1.4-1.7,2.7-2.4,3.7c-0.6,0.9-1.3,2.1-1.3,3.2h-0.4v-5.1h0.4c0,0,1-0.1,2-0.7c0.7-0.4,1.7-1.7,2.4-3.6
			c0.4-1.1,0.4-1.8,0.4-2.8c0-1.1-0.5-2.6-0.9-3.4l0.2-0.1c0.7,1.1,1.3,3.1,1,5.4C2798.2,360.2,2797.9,361.3,2797.1,362.6z"/>
	</g>
	<line fill="none" stroke="#000000" stroke-width="0.459" x1="2793.2" y1="352.8" x2="2793.2" y2="368.8"/>
	<g enable-background="new    ">
		<path d="M2796.5,349.9c1.4,0,2.2,1,1.8,2.2c-0.4,1.2-1.9,2.2-3.4,2.2s-2.2-1-1.7-2.2C2793.6,350.8,2795.1,349.9,2796.5,349.9z"/>
	</g>
	<line fill="none" stroke="#000000" stroke-width="0.459" x1="2805" y1="352.8" x2="2805" y2="368.8"/>
	<g enable-background="new    ">
		<path d="M2808.3,349.9c1.4,0,2.2,1,1.8,2.2c-0.4,1.2-1.9,2.2-3.4,2.2c-1.4,0-2.2-1-1.7-2.2
			C2805.4,350.8,2806.9,349.9,2808.3,349.9z"/>
	</g>
	<g enable-background="new    ">
		<path d="M2827.9,365c-0.8,1.4-1.7,2.7-2.4,3.7c-0.6,0.9-1.3,2.1-1.3,3.2h-0.4v-5.1h0.4c0,0,1-0.1,2-0.7c0.7-0.4,1.7-1.7,2.4-3.6
			c0.4-1.1,0.4-1.8,0.4-2.8c0-1.1-0.5-2.6-0.9-3.4l0.2-0.1c0.7,1.1,1.3,3.1,1,5.4C2829,362.6,2828.7,363.7,2827.9,365z"/>
	</g>
	<line fill="none" stroke="#000000" stroke-width="0.459" x1="2824" y1="355.2" x2="2824" y2="371.2"/>
	<g enable-background="new    ">
		<path d="M2827.3,352.3c1.4,0,2.2,1,1.8,2.2c-0.4,1.2-1.9,2.2-3.4,2.2c-1.4,0-2.2-1-1.7-2.2
			C2824.4,353.2,2825.9,352.3,2827.3,352.3z"/>
	</g>
	<line fill="none" stroke="#000000" stroke-width="0.459" x1="2840.4" y1="356" x2="2840.4" y2="340"/>
	<g enable-background="new    ">
		<path d="M2839.1,354.7c1.4,0,2.2,1,1.8,2.2c-0.4,1.2-1.9,2.2-3.4,2.2c-1.4,0-2.2-1-1.7-2.2
			C2836.2,355.6,2837.7,354.7,2839.1,354.7z"/>
	</g>
	<line fill="none" stroke="#000000" stroke-width="0.459" x1="2859.4" y1="358.4" x2="2859.4" y2="342.4"/>
	<g enable-background="new    ">
		<path d="M2858.1,357.1c1.4,0,2.2,1,1.8,2.2c-0.4,1.2-1.9,2.2-3.4,2.2c-1.4,0-2.2-1-1.7-2.2C2855.2,358,2856.7,357.1,2858.1,357.1z
			"/>
	</g>
	<g enable-background="new    ">
		<path d="M2797.7,339.8l0.8,0.2c-0.2,0.6-0.4,1.1-0.9,1.4s-0.9,0.5-1.5,0.5c-0.6,0-1.1-0.1-1.5-0.4s-0.7-0.6-0.9-1.1
			s-0.3-1-0.3-1.5c0-0.6,0.1-1.1,0.3-1.6s0.6-0.8,1-1s0.9-0.3,1.4-0.3c0.6,0,1.1,0.1,1.4,0.4s0.7,0.7,0.8,1.2l-0.7,0.2
			c-0.1-0.4-0.3-0.7-0.6-0.9s-0.6-0.3-1-0.3c-0.4,0-0.8,0.1-1.1,0.3s-0.5,0.5-0.6,0.8s-0.2,0.7-0.2,1.1c0,0.5,0.1,0.9,0.2,1.3
			s0.4,0.6,0.7,0.8s0.6,0.3,1,0.3c0.4,0,0.8-0.1,1.1-0.4S2797.6,340.3,2797.7,339.8z"/>
	</g>
	<line fill="none" stroke="#000000" stroke-width="0.459" x1="2884.6" y1="360.8" x2="2884.6" y2="344.8"/>
	<g enable-background="new    ">
		<path d="M2884.1,361.7c-0.3,0.9-1,1.5-1.6,1.8c-0.5,0.3-1.2,0.4-2,0.3c-0.5,0-1.3-0.2-1.6-0.7c-0.3-0.6-0.1-1.2,0-1.6
			c0.3-0.8,1-1.4,1.5-1.7c0.5-0.3,1.3-0.5,2.2-0.4c0.4,0,1.1,0.1,1.5,0.7C2884.4,360.6,2884.2,361.4,2884.1,361.7z M2882.1,360.4
			c-0.4,0.2-0.7,0.4-1,0.5c-0.3,0.2-0.6,0.4-1,0.6c-0.5,0.3-1.1,0.9-0.8,1.4c0.3,0.6,1.1,0.3,1.6,0c0.4-0.2,0.7-0.4,1-0.5
			c0.3-0.2,0.6-0.4,1-0.6c0.5-0.3,1.1-0.9,0.8-1.4C2883.5,359.8,2882.7,360.1,2882.1,360.4z"/>
	</g>
	<g enable-background="new    ">
		<path d="M2918.4,358.2c-0.8,0-1.5,0.5-1.5,1.4c0,0.6,1,1.5,1,1.5l-0.2,0.2c0,0-2.2-1.3-2.5-2.7c-0.1-0.9,0.5-1.8,1.6-1.9
			c0.4,0,1.2,0.1,1.5,0.2c-1.8-1.8-2.8-3-2.7-3.4c0.4-0.4,1.7-2.1,1.7-3.4c0-0.9-1.3-2.9-1.3-2.9l0.3-0.2l3.5,4.4c0,0-1.7,2-1.7,3.4
			c0,1,0.6,1.8,1.1,2.3c0.2,0.3,1,1.1,1,1.2l0,0.3C2919.3,358.3,2918.8,358.2,2918.4,358.2z"/>
	</g>
	<line fill="none" stroke="#000000" stroke-width="0.459" x1="2942" y1="356" x2="2942" y2="340"/>
	<g enable-background="new    ">
		<path d="M2940.7,354.7c1.4,0,2.2,1,1.8,2.2c-0.4,1.2-1.9,2.2-3.4,2.2c-1.4,0-2.2-1-1.7-2.2
			C2937.8,355.6,2939.3,354.7,2940.7,354.7z"/>
	</g>
	<g enable-background="new    ">
		<path d="M2937.9,329.4v-6.9h2.6c0.5,0,0.9,0.1,1.3,0.2c0.3,0.1,0.6,0.4,0.7,0.6s0.3,0.6,0.3,0.9c0,0.3-0.1,0.6-0.2,0.8
			c-0.2,0.3-0.4,0.5-0.7,0.6c0.4,0.1,0.7,0.3,1,0.6c0.2,0.3,0.3,0.6,0.3,1c0,0.3-0.1,0.6-0.2,0.9c-0.1,0.3-0.3,0.5-0.5,0.6
			c-0.2,0.2-0.5,0.3-0.8,0.3c-0.3,0.1-0.7,0.1-1.1,0.1H2937.9z M2938.8,325.4h1.5c0.4,0,0.7,0,0.9-0.1c0.2-0.1,0.4-0.2,0.5-0.3
			s0.2-0.4,0.2-0.6c0-0.2-0.1-0.4-0.2-0.6c-0.1-0.2-0.3-0.3-0.5-0.4s-0.6-0.1-1-0.1h-1.4V325.4z M2938.8,328.6h1.7
			c0.3,0,0.5,0,0.6,0c0.2,0,0.4-0.1,0.5-0.2s0.3-0.2,0.3-0.4c0.1-0.2,0.1-0.4,0.1-0.6c0-0.3-0.1-0.5-0.2-0.7s-0.3-0.3-0.5-0.4
			s-0.6-0.1-1-0.1h-1.6V328.6z"/>
	</g>
	<g enable-background="new    ">
		<path d="M2879.5,341.8v-5.7h3.9v0.7h-3.1v1.8h2.7v0.7h-2.7v2.6H2879.5z"/>
	</g>
	<g enable-background="new    ">
		<path d="M2969.1,365c-0.8,1.4-1.7,2.7-2.4,3.7c-0.6,0.9-1.3,2.1-1.3,3.2h-0.4v-5.1h0.4c0,0,1-0.1,2-0.7c0.7-0.4,1.7-1.7,2.4-3.6
			c0.4-1.1,0.4-1.8,0.4-2.8c0-1.1-0.5-2.6-0.9-3.4l0.2-0.1c0.7,1.1,1.3,3.1,1,5.4C2970.2,362.6,2969.9,363.7,2969.1,365z"/>
	</g>
	<line fill="none" stroke="#000000" stroke-width="0.459" x1="2965.2" y1="355.2" x2="2965.2" y2="371.2"/>
	<g enable-background="new    ">
		<path d="M2968.5,352.3c1.4,0,2.2,1,1.8,2.2c-0.4,1.2-1.9,2.2-3.4,2.2s-2.2-1-1.7-2.2C2965.6,353.2,2967.1,352.3,2968.5,352.3z"/>
	</g>
	<line fill="none" stroke="#000000" stroke-width="0.459" x1="2977.6" y1="355.2" x2="2977.6" y2="371.2"/>
	<g enable-background="new    ">
		<path d="M2980.9,352.3c1.4,0,2.2,1,1.8,2.2c-0.4,1.2-1.9,2.2-3.4,2.2c-1.4,0-2.2-1-1.7-2.2C2978,353.2,2979.5,352.3,2980.9,352.3z
			"/>
	</g>
	<g enable-background="new    ">
		<path d="M3001.8,342.1c0.6,0.9,1.4,1.9,2.2,3.1c0.6,1.1,1.2,2.7,1.2,3.5c0.1,0.8,0.2,1.6,0.2,2.3c0,1.2-0.2,2.2-0.6,3.3l-0.2,0
			c0.3-0.9,0.5-2.2,0.5-3.3c0-0.9-0.2-2.1-0.5-3.1c-0.6-1.7-1.5-2.7-2.1-3.1c-0.8-0.6-1.8-0.6-1.8-0.6h-0.3v-5h0.3
			C3000.7,340.2,3001.2,341.3,3001.8,342.1z"/>
	</g>
	<line fill="none" stroke="#000000" stroke-width="0.459" x1="3000.2" y1="356" x2="3000.2" y2="340"/>
	<g enable-background="new    ">
		<path d="M2998.9,354.7c1.4,0,2.2,1,1.8,2.2c-0.4,1.2-1.9,2.2-3.4,2.2c-1.4,0-2.2-1-1.7-2.2C2996,355.6,2997.5,354.7,2998.9,354.7z
			"/>
	</g>
	<line fill="none" stroke="#000000" stroke-width="0.459" x1="3014.2" y1="358.4" x2="3014.2" y2="342.4"/>
	<g enable-background="new    ">
		<path d="M3012.9,357.1c1.4,0,2.2,1,1.8,2.2c-0.4,1.2-1.9,2.2-3.4,2.2c-1.4,0-2.2-1-1.7-2.2C3010,358,3011.5,357.1,3012.9,357.1z"
			/>
	</g>
	<line fill="none" stroke="#000000" stroke-width="0.459" x1="3032.4" y1="360.8" x2="3032.4" y2="344.8"/>
	<g enable-background="new    ">
		<path d="M3031.1,359.5c1.4,0,2.2,1,1.8,2.2c-0.4,1.2-1.9,2.2-3.4,2.2c-1.4,0-2.2-1-1.7-2.2
			C3028.2,360.4,3029.7,359.5,3031.1,359.5z"/>
	</g>
	<g enable-background="new    ">
		<path d="M2965.6,341.8v-5.7h2.1c0.4,0,0.8,0.1,1.1,0.2s0.5,0.3,0.6,0.5s0.2,0.5,0.2,0.8c0,0.2-0.1,0.5-0.2,0.7s-0.3,0.4-0.6,0.5
			c0.3,0.1,0.6,0.3,0.8,0.5s0.3,0.5,0.3,0.9c0,0.3-0.1,0.5-0.2,0.7s-0.3,0.4-0.4,0.5s-0.4,0.2-0.6,0.3s-0.6,0.1-0.9,0.1H2965.6z
			 M2966.3,338.5h1.2c0.3,0,0.6,0,0.7-0.1c0.2-0.1,0.3-0.2,0.4-0.3s0.1-0.3,0.1-0.5c0-0.2,0-0.4-0.1-0.5s-0.2-0.2-0.4-0.3
			s-0.5-0.1-0.9-0.1h-1.1V338.5z M2966.3,341.1h1.4c0.2,0,0.4,0,0.5,0c0.2,0,0.3-0.1,0.4-0.2s0.2-0.2,0.3-0.3s0.1-0.3,0.1-0.5
			c0-0.2-0.1-0.4-0.2-0.6s-0.3-0.3-0.5-0.3s-0.5-0.1-0.8-0.1h-1.3V341.1z"/>
	</g>
	<g enable-background="new    ">
		<path d="M2971.2,335.6c0,0.1,0,1,0,1c0.6-0.5,0.9-0.7,1.6-0.7c0.8,0,1.3,0.8,1.3,1.4c0,0.3-0.1,0.7-0.2,1
			c-0.1,0.4-0.5,0.6-0.8,0.9c-0.3,0.3-2.4,1.7-2.4,1.7v-9.5h0.4C2971.2,331.5,2971.2,333.5,2971.2,335.6z M2971.4,337.2
			c-0.2,0.4-0.2,1.1-0.2,1.6v1.4c0,0,0.6-0.5,0.9-0.8c0.3-0.3,0.5-0.6,0.6-1.1c0.1-0.5,0.1-1-0.2-1.3
			C2972.3,336.7,2971.7,336.5,2971.4,337.2z"/>
	</g>
	<line fill="none" stroke="#000000" stroke-width="0.459" x1="3056.6" y1="363.2" x2="3056.6" y2="347.2"/>
	<g enable-background="new    ">
		<path d="M3056.1,364.1c-0.3,0.9-1,1.5-1.6,1.8c-0.5,0.3-1.2,0.4-2,0.3c-0.5,0-1.3-0.2-1.6-0.7c-0.3-0.6-0.1-1.2,0-1.6
			c0.3-0.8,1-1.4,1.5-1.7c0.5-0.3,1.3-0.5,2.2-0.4c0.4,0,1.1,0.1,1.5,0.7C3056.4,363,3056.2,363.8,3056.1,364.1z M3054.1,362.8
			c-0.4,0.2-0.7,0.4-1,0.5c-0.3,0.2-0.6,0.4-1,0.6c-0.5,0.3-1.1,0.9-0.8,1.4c0.3,0.6,1.1,0.3,1.6,0c0.4-0.2,0.7-0.4,1-0.5
			c0.3-0.2,0.6-0.4,1-0.6c0.5-0.3,1.1-0.9,0.8-1.4C3055.5,362.2,3054.7,362.5,3054.1,362.8z"/>
	</g>
	<g enable-background="new    ">
		<path d="M3090.4,358.2c-0.8,0-1.5,0.5-1.5,1.4c0,0.6,1,1.5,1,1.5l-0.2,0.2c0,0-2.2-1.3-2.5-2.7c-0.1-0.9,0.5-1.8,1.6-1.9
			c0.4,0,1.2,0.1,1.5,0.2c-1.8-1.8-2.8-3-2.7-3.4c0.4-0.4,1.7-2.1,1.7-3.4c0-0.9-1.3-2.9-1.3-2.9l0.3-0.2l3.5,4.4c0,0-1.7,2-1.7,3.4
			c0,1,0.6,1.8,1.1,2.3c0.2,0.3,1,1.1,1,1.2l0,0.3C3091.3,358.3,3090.8,358.2,3090.4,358.2z"/>
	</g>
	<line fill="none" stroke="#000000" stroke-width="0.459" x1="3114" y1="358.4" x2="3114" y2="342.4"/>
	<g enable-background="new    ">
		<path d="M3112.7,357.1c1.4,0,2.2,1,1.8,2.2c-0.4,1.2-1.9,2.2-3.4,2.2c-1.4,0-2.2-1-1.7-2.2C3109.8,358,3111.3,357.1,3112.7,357.1z
			"/>
	</g>
	<g enable-background="new    ">
		<path d="M3055.5,339.8l0.8,0.2c-0.2,0.6-0.4,1.1-0.9,1.4s-0.9,0.5-1.5,0.5c-0.6,0-1.1-0.1-1.5-0.4s-0.7-0.6-0.9-1.1
			s-0.3-1-0.3-1.5c0-0.6,0.1-1.1,0.3-1.6s0.6-0.8,1-1s0.9-0.3,1.4-0.3c0.6,0,1.1,0.1,1.4,0.4s0.7,0.7,0.8,1.2l-0.7,0.2
			c-0.1-0.4-0.3-0.7-0.6-0.9s-0.6-0.3-1-0.3c-0.4,0-0.8,0.1-1.1,0.3s-0.5,0.5-0.6,0.8s-0.2,0.7-0.2,1.1c0,0.5,0.1,0.9,0.2,1.3
			s0.4,0.6,0.7,0.8s0.6,0.3,1,0.3c0.4,0,0.8-0.1,1.1-0.4S3055.4,340.3,3055.5,339.8z"/>
	</g>
	<g enable-background="new    ">
		<path d="M3141.1,362.6c-0.8,1.4-1.7,2.7-2.4,3.7c-0.6,0.9-1.3,2.1-1.3,3.2h-0.4v-5.1h0.4c0,0,1-0.1,2-0.7c0.7-0.4,1.7-1.7,2.4-3.6
			c0.4-1.1,0.4-1.8,0.4-2.8c0-1.1-0.5-2.6-0.9-3.4l0.2-0.1c0.7,1.1,1.3,3.1,1,5.4C3142.2,360.2,3141.9,361.3,3141.1,362.6z"/>
	</g>
	<line fill="none" stroke="#000000" stroke-width="0.459" x1="3137.2" y1="352.8" x2="3137.2" y2="368.8"/>
	<g enable-background="new    ">
		<path d="M3140.5,349.9c1.4,0,2.2,1,1.8,2.2c-0.4,1.2-1.9,2.2-3.4,2.2s-2.2-1-1.7-2.2C3137.6,350.8,3139.1,349.9,3140.5,349.9z"/>
	</g>
	<line fill="none" stroke="#000000" stroke-width="0.459" x1="3149" y1="352.8" x2="3149" y2="368.8"/>
	<g enable-background="new    ">
		<path d="M3152.3,349.9c1.4,0,2.2,1,1.8,2.2c-0.4,1.2-1.9,2.2-3.4,2.2c-1.4,0-2.2-1-1.7-2.2
			C3149.4,350.8,3150.9,349.9,3152.3,349.9z"/>
	</g>
	<g enable-background="new    ">
		<path d="M3171.9,365c-0.8,1.4-1.7,2.7-2.4,3.7c-0.6,0.9-1.3,2.1-1.3,3.2h-0.4v-5.1h0.4c0,0,1-0.1,2-0.7c0.7-0.4,1.7-1.7,2.4-3.6
			c0.4-1.1,0.4-1.8,0.4-2.8c0-1.1-0.5-2.6-0.9-3.4l0.2-0.1c0.7,1.1,1.3,3.1,1,5.4C3173,362.6,3172.7,363.7,3171.9,365z"/>
	</g>
	<line fill="none" stroke="#000000" stroke-width="0.459" x1="3168" y1="355.2" x2="3168" y2="371.2"/>
	<g enable-background="new    ">
		<path d="M3171.3,352.3c1.4,0,2.2,1,1.8,2.2c-0.4,1.2-1.9,2.2-3.4,2.2c-1.4,0-2.2-1-1.7-2.2
			C3168.4,353.2,3169.9,352.3,3171.3,352.3z"/>
	</g>
	<line fill="none" stroke="#000000" stroke-width="0.459" x1="3184.4" y1="356" x2="3184.4" y2="340"/>
	<g enable-background="new    ">
		<path d="M3183.1,354.7c1.4,0,2.2,1,1.8,2.2c-0.4,1.2-1.9,2.2-3.4,2.2c-1.4,0-2.2-1-1.7-2.2
			C3180.2,355.6,3181.7,354.7,3183.1,354.7z"/>
	</g>
	<line fill="none" stroke="#000000" stroke-width="0.459" x1="3203.4" y1="358.4" x2="3203.4" y2="342.4"/>
	<g enable-background="new    ">
		<path d="M3202.1,357.1c1.4,0,2.2,1,1.8,2.2c-0.4,1.2-1.9,2.2-3.4,2.2c-1.4,0-2.2-1-1.7-2.2C3199.2,358,3200.7,357.1,3202.1,357.1z
			"/>
	</g>
	<line fill="none" stroke="#000000" stroke-width="0.459" x1="3228.6" y1="360.8" x2="3228.6" y2="344.8"/>
	<g enable-background="new    ">
		<path d="M3228.1,361.7c-0.3,0.9-1,1.5-1.6,1.8c-0.5,0.3-1.2,0.4-2,0.3c-0.5,0-1.3-0.2-1.6-0.7c-0.3-0.6-0.1-1.2,0-1.6
			c0.3-0.8,1-1.4,1.5-1.7c0.5-0.3,1.3-0.5,2.2-0.4c0.4,0,1.1,0.1,1.5,0.7C3228.4,360.6,3228.2,361.4,3228.1,361.7z M3226.1,360.4
			c-0.4,0.2-0.7,0.4-1,0.5c-0.3,0.2-0.6,0.4-1,0.6c-0.5,0.3-1.1,0.9-0.8,1.4c0.3,0.6,1.1,0.3,1.6,0c0.4-0.2,0.7-0.4,1-0.5
			c0.3-0.2,0.6-0.4,1-0.6c0.5-0.3,1.1-0.9,0.8-1.4C3227.5,359.8,3226.7,360.1,3226.1,360.4z"/>
	</g>
	<g enable-background="new    ">
		<path d="M3262.4,358.2c-0.8,0-1.5,0.5-1.5,1.4c0,0.6,1,1.5,1,1.5l-0.2,0.2c0,0-2.2-1.3-2.5-2.7c-0.1-0.9,0.5-1.8,1.6-1.9
			c0.4,0,1.2,0.1,1.5,0.2c-1.8-1.8-2.8-3-2.7-3.4c0.4-0.4,1.7-2.1,1.7-3.4c0-0.9-1.3-2.9-1.3-2.9l0.3-0.2l3.5,4.4c0,0-1.7,2-1.7,3.4
			c0,1,0.6,1.8,1.1,2.3c0.2,0.3,1,1.1,1,1.2l0,0.3C3263.3,358.3,3262.8,358.2,3262.4,358.2z"/>
	</g>
	<line fill="none" stroke="#000000" stroke-width="0.459" x1="3281.4" y1="352.8" x2="3281.4" y2="368.8"/>
	<g enable-background="new    ">
		<path d="M3284.7,349.9c1.4,0,2.2,1,1.8,2.2c-0.4,1.2-1.9,2.2-3.4,2.2c-1.4,0-2.2-1-1.7-2.2
			C3281.8,350.8,3283.3,349.9,3284.7,349.9z"/>
	</g>
	<g enable-background="new    ">
		<path d="M3284.7,354.7c1.4,0,2.2,1,1.8,2.2c-0.4,1.2-1.9,2.2-3.4,2.2c-1.4,0-2.2-1-1.7-2.2
			C3281.8,355.6,3283.3,354.7,3284.7,354.7z"/>
	</g>
	<g enable-background="new    ">
		<path d="M3223.5,341.8v-5.7h3.9v0.7h-3.1v1.8h2.7v0.7h-2.7v2.6H3223.5z"/>
	</g>
	<g enable-background="new    ">
		<path d="M3313.1,365c-0.8,1.4-1.7,2.7-2.4,3.7c-0.6,0.9-1.3,2.1-1.3,3.2h-0.4v-5.1h0.4c0,0,1-0.1,2-0.7c0.7-0.4,1.7-1.7,2.4-3.6
			c0.4-1.1,0.4-1.8,0.4-2.8c0-1.1-0.5-2.6-0.9-3.4l0.2-0.1c0.7,1.1,1.3,3.1,1,5.4C3314.2,362.6,3313.9,363.7,3313.1,365z"/>
	</g>
	<line fill="none" stroke="#000000" stroke-width="0.459" x1="3309.2" y1="350.4" x2="3309.2" y2="371.2"/>
	<g enable-background="new    ">
		<path d="M3312.5,347.5c1.4,0,2.2,1,1.8,2.2c-0.4,1.2-1.9,2.2-3.4,2.2s-2.2-1-1.7-2.2C3309.6,348.4,3311.1,347.5,3312.5,347.5z"/>
	</g>
	<g enable-background="new    ">
		<path d="M3312.5,352.3c1.4,0,2.2,1,1.8,2.2c-0.4,1.2-1.9,2.2-3.4,2.2s-2.2-1-1.7-2.2C3309.6,353.2,3311.1,352.3,3312.5,352.3z"/>
	</g>
	<line fill="none" stroke="#000000" stroke-width="0.459" x1="3321" y1="350.4" x2="3321" y2="371.2"/>
	<g enable-background="new    ">
		<path d="M3324.3,347.5c1.4,0,2.2,1,1.8,2.2c-0.4,1.2-1.9,2.2-3.4,2.2c-1.4,0-2.2-1-1.7-2.2
			C3321.4,348.4,3322.9,347.5,3324.3,347.5z"/>
	</g>
	<g enable-background="new    ">
		<path d="M3324.3,352.3c1.4,0,2.2,1,1.8,2.2c-0.4,1.2-1.9,2.2-3.4,2.2c-1.4,0-2.2-1-1.7-2.2
			C3321.4,353.2,3322.9,352.3,3324.3,352.3z"/>
	</g>
	<g enable-background="new    ">
		<path d="M3343.9,367.4c-0.8,1.4-1.7,2.7-2.4,3.7c-0.6,0.9-1.3,2.1-1.3,3.2h-0.4v-5.1h0.4c0,0,1-0.1,2-0.7c0.7-0.4,1.7-1.7,2.4-3.6
			c0.4-1.1,0.4-1.8,0.4-2.8c0-1.1-0.5-2.6-0.9-3.4l0.2-0.1c0.7,1.1,1.3,3.1,1,5.4C3345,365,3344.7,366.1,3343.9,367.4z"/>
	</g>
	<line fill="none" stroke="#000000" stroke-width="0.459" x1="3340" y1="352.8" x2="3340" y2="373.6"/>
	<g enable-background="new    ">
		<path d="M3343.3,349.9c1.4,0,2.2,1,1.8,2.2c-0.4,1.2-1.9,2.2-3.4,2.2c-1.4,0-2.2-1-1.7-2.2
			C3340.4,350.8,3341.9,349.9,3343.3,349.9z"/>
	</g>
	<g enable-background="new    ">
		<path d="M3343.3,354.7c1.4,0,2.2,1,1.8,2.2c-0.4,1.2-1.9,2.2-3.4,2.2c-1.4,0-2.2-1-1.7-2.2
			C3340.4,355.6,3341.9,354.7,3343.3,354.7z"/>
	</g>
	<line fill="none" stroke="#000000" stroke-width="0.459" x1="3356.4" y1="358.4" x2="3356.4" y2="337.6"/>
	<g enable-background="new    ">
		<path d="M3355.1,352.3c1.4,0,2.2,1,1.8,2.2c-0.4,1.2-1.9,2.2-3.4,2.2c-1.4,0-2.2-1-1.7-2.2
			C3352.2,353.2,3353.7,352.3,3355.1,352.3z"/>
	</g>
	<g enable-background="new    ">
		<path d="M3355.1,357.1c1.4,0,2.2,1,1.8,2.2c-0.4,1.2-1.9,2.2-3.4,2.2c-1.4,0-2.2-1-1.7-2.2C3352.2,358,3353.7,357.1,3355.1,357.1z
			"/>
	</g>
	<line fill="none" stroke="#000000" stroke-width="0.459" x1="3375.4" y1="360.8" x2="3375.4" y2="340"/>
	<g enable-background="new    ">
		<path d="M3374.1,354.7c1.4,0,2.2,1,1.8,2.2c-0.4,1.2-1.9,2.2-3.4,2.2c-1.4,0-2.2-1-1.7-2.2
			C3371.2,355.6,3372.7,354.7,3374.1,354.7z"/>
	</g>
	<g enable-background="new    ">
		<path d="M3374.1,359.5c1.4,0,2.2,1,1.8,2.2c-0.4,1.2-1.9,2.2-3.4,2.2c-1.4,0-2.2-1-1.7-2.2
			C3371.2,360.4,3372.7,359.5,3374.1,359.5z"/>
	</g>
	<g enable-background="new    ">
		<path d="M3309.6,341.8v-5.7h2.1c0.4,0,0.8,0.1,1.1,0.2s0.5,0.3,0.6,0.5s0.2,0.5,0.2,0.8c0,0.2-0.1,0.5-0.2,0.7s-0.3,0.4-0.6,0.5
			c0.3,0.1,0.6,0.3,0.8,0.5s0.3,0.5,0.3,0.9c0,0.3-0.1,0.5-0.2,0.7s-0.3,0.4-0.4,0.5s-0.4,0.2-0.6,0.3s-0.6,0.1-0.9,0.1H3309.6z
			 M3310.3,338.5h1.2c0.3,0,0.6,0,0.7-0.1c0.2-0.1,0.3-0.2,0.4-0.3s0.1-0.3,0.1-0.5c0-0.2,0-0.4-0.1-0.5s-0.2-0.2-0.4-0.3
			s-0.5-0.1-0.9-0.1h-1.1V338.5z M3310.3,341.1h1.4c0.2,0,0.4,0,0.5,0c0.2,0,0.3-0.1,0.4-0.2s0.2-0.2,0.3-0.3s0.1-0.3,0.1-0.5
			c0-0.2-0.1-0.4-0.2-0.6s-0.3-0.3-0.5-0.3s-0.5-0.1-0.8-0.1h-1.3V341.1z"/>
	</g>
	<g enable-background="new    ">
		<path d="M3315.2,335.6c0,0.1,0,1,0,1c0.6-0.5,0.9-0.7,1.6-0.7c0.8,0,1.3,0.8,1.3,1.4c0,0.3-0.1,0.7-0.2,1
			c-0.1,0.4-0.5,0.6-0.8,0.9c-0.3,0.3-2.4,1.7-2.4,1.7v-9.5h0.4C3315.2,331.5,3315.2,333.5,3315.2,335.6z M3315.4,337.2
			c-0.2,0.4-0.2,1.1-0.2,1.6v1.4c0,0,0.6-0.5,0.9-0.8c0.3-0.3,0.5-0.6,0.6-1.1c0.1-0.5,0.1-1-0.2-1.3
			C3316.3,336.7,3315.7,336.5,3315.4,337.2z"/>
	</g>
	<line fill="none" stroke="#000000" stroke-width="0.459" x1="3400.6" y1="363.2" x2="3400.6" y2="342.4"/>
	<g enable-background="new    ">
		<path d="M3400.1,359.3c-0.3,0.9-1,1.5-1.6,1.8c-0.5,0.3-1.2,0.4-2,0.3c-0.5,0-1.3-0.2-1.6-0.7c-0.3-0.6-0.1-1.2,0-1.6
			c0.3-0.8,1-1.4,1.5-1.7c0.5-0.3,1.3-0.5,2.2-0.4c0.4,0,1.1,0.1,1.5,0.7C3400.4,358.2,3400.2,359,3400.1,359.3z M3398.1,358
			c-0.4,0.2-0.7,0.4-1,0.5c-0.3,0.2-0.6,0.4-1,0.6c-0.5,0.3-1.1,0.9-0.8,1.4c0.3,0.6,1.1,0.3,1.6,0c0.4-0.2,0.7-0.4,1-0.5
			c0.3-0.2,0.6-0.4,1-0.6c0.5-0.3,1.1-0.9,0.8-1.4C3399.5,357.4,3398.7,357.7,3398.1,358z"/>
	</g>
	<g enable-background="new    ">
		<path d="M3400.1,364.1c-0.3,0.9-1,1.5-1.6,1.8c-0.5,0.3-1.2,0.4-2,0.3c-0.5,0-1.3-0.2-1.6-0.7c-0.3-0.6-0.1-1.2,0-1.6
			c0.3-0.8,1-1.4,1.5-1.7c0.5-0.3,1.3-0.5,2.2-0.4c0.4,0,1.1,0.1,1.5,0.7C3400.4,363,3400.2,363.8,3400.1,364.1z M3398.1,362.8
			c-0.4,0.2-0.7,0.4-1,0.5c-0.3,0.2-0.6,0.4-1,0.6c-0.5,0.3-1.1,0.9-0.8,1.4c0.3,0.6,1.1,0.3,1.6,0c0.4-0.2,0.7-0.4,1-0.5
			c0.3-0.2,0.6-0.4,1-0.6c0.5-0.3,1.1-0.9,0.8-1.4C3399.5,362.2,3398.7,362.5,3398.1,362.8z"/>
	</g>
	<g enable-background="new    ">
		<path d="M3434.4,358.2c-0.8,0-1.5,0.5-1.5,1.4c0,0.6,1,1.5,1,1.5l-0.2,0.2c0,0-2.2-1.3-2.5-2.7c-0.1-0.9,0.5-1.8,1.6-1.9
			c0.4,0,1.2,0.1,1.5,0.2c-1.8-1.8-2.8-3-2.7-3.4c0.4-0.4,1.7-2.1,1.7-3.4c0-0.9-1.3-2.9-1.3-2.9l0.3-0.2l3.5,4.4c0,0-1.7,2-1.7,3.4
			c0,1,0.6,1.8,1.1,2.3c0.2,0.3,1,1.1,1,1.2l0,0.3C3435.3,358.3,3434.8,358.2,3434.4,358.2z"/>
	</g>
	<line fill="none" stroke="#000000" stroke-width="0.459" x1="3458" y1="358.4" x2="3458" y2="337.6"/>
	<g enable-background="new    ">
		<path d="M3456.7,352.3c1.4,0,2.2,1,1.8,2.2c-0.4,1.2-1.9,2.2-3.4,2.2c-1.4,0-2.2-1-1.7-2.2
			C3453.8,353.2,3455.3,352.3,3456.7,352.3z"/>
	</g>
	<g enable-background="new    ">
		<path d="M3456.7,357.1c1.4,0,2.2,1,1.8,2.2c-0.4,1.2-1.9,2.2-3.4,2.2c-1.4,0-2.2-1-1.7-2.2C3453.8,358,3455.3,357.1,3456.7,357.1z
			"/>
	</g>
	<g enable-background="new    ">
		<path d="M3399.5,339.8l0.8,0.2c-0.2,0.6-0.4,1.1-0.9,1.4s-0.9,0.5-1.5,0.5c-0.6,0-1.1-0.1-1.5-0.4s-0.7-0.6-0.9-1.1
			s-0.3-1-0.3-1.5c0-0.6,0.1-1.1,0.3-1.6s0.6-0.8,1-1s0.9-0.3,1.4-0.3c0.6,0,1.1,0.1,1.4,0.4s0.7,0.7,0.8,1.2l-0.7,0.2
			c-0.1-0.4-0.3-0.7-0.6-0.9s-0.6-0.3-1-0.3c-0.4,0-0.8,0.1-1.1,0.3s-0.5,0.5-0.6,0.8s-0.2,0.7-0.2,1.1c0,0.5,0.1,0.9,0.2,1.3
			s0.4,0.6,0.7,0.8s0.6,0.3,1,0.3c0.4,0,0.8-0.1,1.1-0.4S3399.4,340.3,3399.5,339.8z"/>
	</g>
	<g enable-background="new    ">
		<path d="M3485.1,362.6c-0.8,1.4-1.7,2.7-2.4,3.7c-0.6,0.9-1.3,2.1-1.3,3.2h-0.4v-5.1h0.4c0,0,1-0.1,2-0.7c0.7-0.4,1.7-1.7,2.4-3.6
			c0.4-1.1,0.4-1.8,0.4-2.8c0-1.1-0.5-2.6-0.9-3.4l0.2-0.1c0.7,1.1,1.3,3.1,1,5.4C3486.2,360.2,3485.9,361.3,3485.1,362.6z"/>
	</g>
	<line fill="none" stroke="#000000" stroke-width="0.459" x1="3481.2" y1="348" x2="3481.2" y2="368.8"/>
	<g enable-background="new    ">
		<path d="M3484.5,345.1c1.4,0,2.2,1,1.8,2.2c-0.4,1.2-1.9,2.2-3.4,2.2s-2.2-1-1.7-2.2C3481.6,346,3483.1,345.1,3484.5,345.1z"/>
	</g>
	<g enable-background="new    ">
		<path d="M3484.5,349.9c1.4,0,2.2,1,1.8,2.2c-0.4,1.2-1.9,2.2-3.4,2.2s-2.2-1-1.7-2.2C3481.6,350.8,3483.1,349.9,3484.5,349.9z"/>
	</g>
	<line fill="none" stroke="#000000" stroke-width="0.459" x1="3493" y1="348" x2="3493" y2="368.8"/>
	<g enable-background="new    ">
		<path d="M3496.3,345.1c1.4,0,2.2,1,1.8,2.2c-0.4,1.2-1.9,2.2-3.4,2.2c-1.4,0-2.2-1-1.7-2.2C3493.4,346,3494.9,345.1,3496.3,345.1z
			"/>
	</g>
	<g enable-background="new    ">
		<path d="M3496.3,349.9c1.4,0,2.2,1,1.8,2.2c-0.4,1.2-1.9,2.2-3.4,2.2c-1.4,0-2.2-1-1.7-2.2
			C3493.4,350.8,3494.9,349.9,3496.3,349.9z"/>
	</g>
	<g enable-background="new    ">
		<path d="M3515.9,365c-0.8,1.4-1.7,2.7-2.4,3.7c-0.6,0.9-1.3,2.1-1.3,3.2h-0.4v-5.1h0.4c0,0,1-0.1,2-0.7c0.7-0.4,1.7-1.7,2.4-3.6
			c0.4-1.1,0.4-1.8,0.4-2.8c0-1.1-0.5-2.6-0.9-3.4l0.2-0.1c0.7,1.1,1.3,3.1,1,5.4C3517,362.6,3516.7,363.7,3515.9,365z"/>
	</g>
	<line fill="none" stroke="#000000" stroke-width="0.459" x1="3512" y1="350.4" x2="3512" y2="371.2"/>
	<g enable-background="new    ">
		<path d="M3515.3,347.5c1.4,0,2.2,1,1.8,2.2c-0.4,1.2-1.9,2.2-3.4,2.2c-1.4,0-2.2-1-1.7-2.2
			C3512.4,348.4,3513.9,347.5,3515.3,347.5z"/>
	</g>
	<g enable-background="new    ">
		<path d="M3515.3,352.3c1.4,0,2.2,1,1.8,2.2c-0.4,1.2-1.9,2.2-3.4,2.2c-1.4,0-2.2-1-1.7-2.2
			C3512.4,353.2,3513.9,352.3,3515.3,352.3z"/>
	</g>
	<line fill="none" stroke="#000000" stroke-width="0.459" x1="3523.8" y1="352.8" x2="3523.8" y2="368.8"/>
	<g enable-background="new    ">
		<path d="M3527.1,349.9c1.4,0,2.2,1,1.8,2.2c-0.4,1.2-1.9,2.2-3.4,2.2c-1.4,0-2.2-1-1.7-2.2
			C3524.2,350.8,3525.7,349.9,3527.1,349.9z"/>
	</g>
	<g enable-background="new    ">
		<path d="M3527.1,354.7c1.4,0,2.2,1,1.8,2.2c-0.4,1.2-1.9,2.2-3.4,2.2c-1.4,0-2.2-1-1.7-2.2
			C3524.2,355.6,3525.7,354.7,3527.1,354.7z"/>
	</g>
	<line fill="none" stroke="#000000" stroke-width="0.459" x1="3547.4" y1="358.4" x2="3547.4" y2="337.6"/>
	<g enable-background="new    ">
		<path d="M3546.1,352.3c1.4,0,2.2,1,1.8,2.2c-0.4,1.2-1.9,2.2-3.4,2.2c-1.4,0-2.2-1-1.7-2.2
			C3543.2,353.2,3544.7,352.3,3546.1,352.3z"/>
	</g>
	<g enable-background="new    ">
		<path d="M3546.1,357.1c1.4,0,2.2,1,1.8,2.2c-0.4,1.2-1.9,2.2-3.4,2.2c-1.4,0-2.2-1-1.7-2.2C3543.2,358,3544.7,357.1,3546.1,357.1z
			"/>
	</g>
	<line fill="none" stroke="#000000" stroke-width="0.459" x1="3572.6" y1="360.8" x2="3572.6" y2="340"/>
	<g enable-background="new    ">
		<path d="M3572.1,356.9c-0.3,0.9-1,1.5-1.6,1.8c-0.5,0.3-1.2,0.4-2,0.3c-0.5,0-1.3-0.2-1.6-0.7c-0.3-0.6-0.1-1.2,0-1.6
			c0.3-0.8,1-1.4,1.5-1.7c0.5-0.3,1.3-0.5,2.2-0.4c0.4,0,1.1,0.1,1.5,0.7C3572.4,355.8,3572.2,356.6,3572.1,356.9z M3570.1,355.6
			c-0.4,0.2-0.7,0.4-1,0.5c-0.3,0.2-0.6,0.4-1,0.6c-0.5,0.3-1.1,0.9-0.8,1.4c0.3,0.6,1.1,0.3,1.6,0c0.4-0.2,0.7-0.4,1-0.5
			c0.3-0.2,0.6-0.4,1-0.6c0.5-0.3,1.1-0.9,0.8-1.4C3571.5,355,3570.7,355.3,3570.1,355.6z"/>
	</g>
	<g enable-background="new    ">
		<path d="M3572.1,361.7c-0.3,0.9-1,1.5-1.6,1.8c-0.5,0.3-1.2,0.4-2,0.3c-0.5,0-1.3-0.2-1.6-0.7c-0.3-0.6-0.1-1.2,0-1.6
			c0.3-0.8,1-1.4,1.5-1.7c0.5-0.3,1.3-0.5,2.2-0.4c0.4,0,1.1,0.1,1.5,0.7C3572.4,360.6,3572.2,361.4,3572.1,361.7z M3570.1,360.4
			c-0.4,0.2-0.7,0.4-1,0.5c-0.3,0.2-0.6,0.4-1,0.6c-0.5,0.3-1.1,0.9-0.8,1.4c0.3,0.6,1.1,0.3,1.6,0c0.4-0.2,0.7-0.4,1-0.5
			c0.3-0.2,0.6-0.4,1-0.6c0.5-0.3,1.1-0.9,0.8-1.4C3571.5,359.8,3570.7,360.1,3570.1,360.4z"/>
	</g>
	<g enable-background="new    ">
		<path d="M3613.1,351.9v2.5h-6.1v-2.5H3613.1z"/>
	</g>
	<line fill="none" stroke="#000000" stroke-width="0.459" x1="3606.4" y1="354.4" x2="3613.6" y2="354.4"/>
	<g enable-background="new    ">
		<path d="M3567.5,341.8v-5.7h3.9v0.7h-3.1v1.8h2.7v0.7h-2.7v2.6H3567.5z"/>
	</g>
</g>
</svg>
