<?xml version="1.0" encoding="utf-8"?>
<!-- Generator: Adobe Illustrator 16.0.0, SVG Export Plug-In . SVG Version: 6.00 Build 0)  -->
<!DOCTYPE svg PUBLIC "-//W3C//DTD SVG 1.1//EN" "http://www.w3.org/Graphics/SVG/1.1/DTD/svg11.dtd">
<svg version="1.1" id="Layer_1" xmlns="http://www.w3.org/2000/svg" xmlns:xlink="http://www.w3.org/1999/xlink" x="0px" y="0px"
	 width="1440px" height="59.5px" viewBox="80 317.5 1440 59.5" enable-background="new 80 317.5 1440 59.5" xml:space="preserve">
<g id="Music">
	<rect x="80" y="314.4" fill="#FFFFFF" width="1440" height="93.6"/>
	<g enable-background="new    ">
		<path d="M117.8,360.1c-4-1.9-4.6-4.3-4.8-6.8c-0.2-2.7,1.5-5.4,3.1-6.9c0.9-0.9,1.9-1.7,3.1-2.6c0-0.7-0.2-0.9-0.3-1.9
			c0-0.4-0.3-2.3,0.1-4.5c0.2-1.3,1.9-4.3,3-4.3c0.9,0,2.2,3.4,2.2,5.2c0.1,2.7-0.6,3.9-1.4,5.3c-0.4,0.7-0.8,1.2-1.3,1.7
			c-0.5,0.6-1,0.9-1.5,1.3c0,0,0.6,3.5,0.6,3.7c1.2-0.2,2.7,0.3,3.3,0.7c1.4,1,1.9,2.4,2,3.8c0.2,2.2-1,4.5-3.6,5.5
			c0,0,0.4,2.8,0.5,3.3c0.2,1.5,0.2,2.5-0.2,3.1c-0.6,1-1.5,2-3.2,2.1c-1.3,0.1-4-0.6-4.1-2.7c-0.1-1.2,0.5-2.6,2-2.7
			c0.9-0.1,2,0.7,2.1,1.8c0.1,0.9-0.5,1.9-2.1,2.4c0.2,0.3,1,0.7,2.1,0.7c1.1,0,2.3-0.7,2.8-1.7c0.3-0.7,0.3-1.8,0.2-2.9
			c-0.1-0.4-0.5-3.3-0.5-3.3C120.5,360.7,118.6,360.5,117.8,360.1z M118.1,355.6c0,0.9,0.8,2,1.5,2.4c-0.1,0.1-0.2,0.2-0.2,0.2
			c-0.8-0.4-1.5-1-1.6-1.2c-0.6-0.7-0.8-1.2-0.9-2.3c-0.1-1.1,0.5-2.5,1.8-3.5c0.7-0.5,1-0.6,1.6-0.7l-0.6-3.5
			c-0.6,0.3-3.1,2.3-4.1,3.9c-0.9,1.4-1.5,2.6-1.4,4c0.2,3.2,3.7,5.8,7.5,4.9c0,0-1.1-6.8-1.1-6.8
			C118.6,353.1,118.1,354.7,118.1,355.6z M119.7,343.4c1.7-1.3,3.9-3.8,3.8-5.7c0-0.6-0.3-1.7-1.2-1.7
			C120.4,336.1,119.3,340.3,119.7,343.4z M122.3,359.6c2.2-0.7,2.3-2.6,2.2-3.8c-0.1-0.9-0.5-3.1-3.3-2.9L122.3,359.6z"/>
	</g>
	<g enable-background="new    ">
		<path d="M138.2,357.7v1.3c0,0.8,0.9,0.7,0.9,0.7v0.5h-4.2v-0.5c0,0,0.9,0,0.9-0.7v-1.3h-3.6l-0.3-0.4c2.3-3.1,2.3-3.7,2.9-6.5h3.3
			c-0.8,1.5-3.4,4.2-5.3,6.4h3v-2.4l2.3-2.6v4.9h1.4v0.5H138.2z"/>
	</g>
	<g enable-background="new    ">
		<path d="M138.2,348.1v1.3c0,0.8,0.9,0.7,0.9,0.7v0.5h-4.2v-0.5c0,0,0.9,0,0.9-0.7v-1.3h-3.6l-0.3-0.4c2.3-3.1,2.3-3.7,2.9-6.5h3.3
			c-0.8,1.5-3.4,4.2-5.3,6.4h3v-2.4l2.3-2.6v4.9h1.4v0.5H138.2z"/>
	</g>
	<line fill="none" stroke="#000000" stroke-width="0.459" x1="184" y1="341.2" x2="184" y2="360.4"/>
	<line fill="none" stroke="#000000" stroke-width="0.459" x1="226" y1="341.2" x2="226" y2="360.4"/>
	<line fill="none" stroke="#000000" stroke-width="0.459" x1="268" y1="341.2" x2="268" y2="360.4"/>
	<line fill="none" stroke="#000000" stroke-width="0.459" x1="310" y1="341.2" x2="310" y2="360.4"/>
	<line fill="none" stroke="#000000" stroke-width="0.459" x1="352" y1="341.2" x2="352" y2="360.4"/>
	<line fill="none" stroke="#000000" stroke-width="0.459" x1="394" y1="341.2" x2="394" y2="360.4"/>
	<line fill="none" stroke="#000000" stroke-width="0.459" x1="436" y1="341.2" x2="436" y2="360.4"/>
	<line fill="none" stroke="#000000" stroke-width="0.459" x1="478" y1="341.2" x2="478" y2="360.4"/>
	<line fill="none" stroke="#000000" stroke-width="0.459" x1="520" y1="341.2" x2="520" y2="360.4"/>
	<line fill="none" stroke="#000000" stroke-width="0.459" x1="562" y1="341.2" x2="562" y2="360.4"/>
	<line fill="none" stroke="#000000" stroke-width="0.459" x1="604" y1="341.2" x2="604" y2="360.4"/>
	<line fill="none" stroke="#000000" stroke-width="0.459" x1="646" y1="341.2" x2="646" y2="360.4"/>
	<line fill="none" stroke="#000000" stroke-width="0.459" x1="688" y1="341.2" x2="688" y2="360.4"/>
	<line fill="none" stroke="#000000" stroke-width="0.459" x1="730" y1="341.2" x2="730" y2="360.4"/>
	<line fill="none" stroke="#000000" stroke-width="0.459" x1="772" y1="341.2" x2="772" y2="360.4"/>
	<line fill="none" stroke="#000000" stroke-width="0.459" x1="814" y1="341.2" x2="814" y2="360.4"/>
	<line fill="none" stroke="#000000" stroke-width="0.459" x1="856" y1="341.2" x2="856" y2="360.4"/>
	<line fill="none" stroke="#000000" stroke-width="0.459" x1="898" y1="341.2" x2="898" y2="360.4"/>
	<line fill="none" stroke="#000000" stroke-width="0.459" x1="940" y1="341.2" x2="940" y2="360.4"/>
	<line fill="none" stroke="#000000" stroke-width="0.459" x1="982" y1="341.2" x2="982" y2="360.4"/>
	<line fill="none" stroke="#000000" stroke-width="0.459" x1="1024" y1="341.2" x2="1024" y2="360.4"/>
	<line fill="none" stroke="#000000" stroke-width="0.459" x1="1066" y1="341.2" x2="1066" y2="360.4"/>
	<line fill="none" stroke="#000000" stroke-width="0.459" x1="1108" y1="341.2" x2="1108" y2="360.4"/>
	<line fill="none" stroke="#000000" stroke-width="0.459" x1="1150" y1="341.2" x2="1150" y2="360.4"/>
	<line fill="none" stroke="#000000" stroke-width="0.459" x1="1192" y1="341.2" x2="1192" y2="360.4"/>
	<line fill="none" stroke="#000000" stroke-width="0.459" x1="1234" y1="341.2" x2="1234" y2="360.4"/>
	<line fill="none" stroke="#000000" stroke-width="0.459" x1="1276" y1="341.2" x2="1276" y2="360.4"/>
	<line fill="none" stroke="#000000" stroke-width="0.459" x1="1318" y1="341.2" x2="1318" y2="360.4"/>
	<line fill="none" stroke="#000000" stroke-width="0.459" x1="1360" y1="341.2" x2="1360" y2="360.4"/>
	<line fill="none" stroke="#000000" stroke-width="0.459" x1="1402" y1="341.2" x2="1402" y2="360.4"/>
	<line fill="none" stroke="#000000" stroke-width="0.459" x1="1444" y1="341.2" x2="1444" y2="360.4"/>
	<line fill="none" stroke="#000000" stroke-width="2.419" x1="1490.6" y1="341.2" x2="1490.6" y2="360.4"/>
	<line fill="none" stroke="#000000" stroke-width="0.459" x1="1486.7" y1="341.2" x2="1486.7" y2="360.4"/>
	<line fill="none" stroke="#000000" stroke-width="0.459" x1="108.2" y1="341.2" x2="1491.8" y2="341.2"/>
	<line fill="none" stroke="#000000" stroke-width="0.459" x1="108.2" y1="346" x2="1491.8" y2="346"/>
	<line fill="none" stroke="#000000" stroke-width="0.459" x1="108.2" y1="350.8" x2="1491.8" y2="350.8"/>
	<line fill="none" stroke="#000000" stroke-width="0.459" x1="108.2" y1="355.6" x2="1491.8" y2="355.6"/>
	<line fill="none" stroke="#000000" stroke-width="0.459" x1="108.2" y1="360.4" x2="1491.8" y2="360.4"/>
	<g enable-background="new    ">
		<path d="M150.4,354.6c-0.8,0-1.5,0.5-1.5,1.4c0,0.6,1,1.5,1,1.5l-0.2,0.2c0,0-2.2-1.3-2.5-2.7c-0.1-0.9,0.5-1.8,1.6-1.9
			c0.4,0,1.2,0.1,1.5,0.2c-1.8-1.8-2.8-3-2.7-3.4c0.4-0.4,1.7-2.1,1.7-3.4c0-0.9-1.3-2.9-1.3-2.9l0.3-0.2l3.5,4.4c0,0-1.7,2-1.7,3.4
			c0,1,0.6,1.8,1.1,2.3c0.2,0.3,1,1.1,1,1.2l0,0.3C151.3,354.7,150.8,354.6,150.4,354.6z"/>
	</g>
	<line fill="none" stroke="#000000" stroke-width="0.459" x1="161" y1="354.8" x2="161" y2="338.8"/>
	<g enable-background="new    ">
		<path d="M159.7,353.5c1.4,0,2.2,1,1.8,2.2c-0.4,1.2-1.9,2.2-3.4,2.2c-1.4,0-2.2-1-1.7-2.2C156.8,354.4,158.3,353.5,159.7,353.5z"
			/>
	</g>
	<line fill="none" stroke="#000000" stroke-width="0.459" x1="170.2" y1="352.4" x2="170.2" y2="336.4"/>
	<g enable-background="new    ">
		<path d="M168.9,351.1c1.4,0,2.2,1,1.8,2.2c-0.4,1.2-1.9,2.2-3.4,2.2c-1.4,0-2.2-1-1.7-2.2C166,352,167.5,351.1,168.9,351.1z"/>
	</g>
	<line fill="none" stroke="#000000" stroke-width="0.459" x1="174.8" y1="351.6" x2="174.8" y2="367.6"/>
	<g enable-background="new    ">
		<path d="M178.1,348.7c1.4,0,2.2,1,1.8,2.2c-0.4,1.2-1.9,2.2-3.4,2.2c-1.4,0-2.2-1-1.7-2.2C175.2,349.6,176.7,348.7,178.1,348.7z"
			/>
	</g>
	<g enable-background="new    ">
		<path d="M147.4,325.2l2.2-5.7h0.8l2.3,5.7h-0.9l-0.7-1.7h-2.4l-0.6,1.7H147.4z M149,322.8h1.9l-0.6-1.6c-0.2-0.5-0.3-0.9-0.4-1.2
			c-0.1,0.4-0.2,0.7-0.3,1.1L149,322.8z"/>
	</g>
	<g enable-background="new    ">
		<path d="M151.7,335l0.8,0.2c-0.2,0.6-0.4,1.1-0.9,1.4s-0.9,0.5-1.5,0.5c-0.6,0-1.1-0.1-1.5-0.4s-0.7-0.6-0.9-1.1s-0.3-1-0.3-1.5
			c0-0.6,0.1-1.1,0.3-1.6s0.6-0.8,1-1s0.9-0.3,1.4-0.3c0.6,0,1.1,0.1,1.4,0.4s0.7,0.7,0.8,1.2l-0.7,0.2c-0.1-0.4-0.3-0.7-0.6-0.9
			s-0.6-0.3-1-0.3c-0.4,0-0.8,0.1-1.1,0.3s-0.5,0.5-0.6,0.8s-0.2,0.7-0.2,1.1c0,0.5,0.1,0.9,0.2,1.3s0.4,0.6,0.7,0.8s0.6,0.3,1,0.3
			c0.4,0,0.8-0.1,1.1-0.4S151.6,335.5,151.7,335z"/>
	</g>
	<line fill="none" stroke="#000000" stroke-width="0.459" x1="194.8" y1="352.4" x2="194.8" y2="336.4"/>
	<g enable-background="new    ">
		<path d="M194.3,353.3c-0.3,0.9-1,1.5-1.6,1.8c-0.5,0.3-1.2,0.4-2,0.3c-0.5,0-1.3-0.2-1.6-0.7c-0.3-0.6-0.1-1.2,0-1.6
			c0.3-0.8,1-1.4,1.5-1.7c0.5-0.3,1.3-0.5,2.2-0.4c0.4,0,1.1,0.1,1.5,0.7C194.6,352.2,194.4,353,194.3,353.3z M192.3,352
			c-0.4,0.2-0.7,0.4-1,0.5c-0.3,0.2-0.6,0.4-1,0.6c-0.5,0.3-1.1,0.9-0.8,1.4c0.3,0.6,1.1,0.3,1.6,0c0.4-0.2,0.7-0.4,1-0.5
			c0.3-0.2,0.6-0.4,1-0.6c0.5-0.3,1.1-0.9,0.8-1.4C193.7,351.4,192.9,351.7,192.3,352z"/>
	</g>
	<line fill="none" stroke="#000000" stroke-width="0.459" x1="213.2" y1="352.4" x2="213.2" y2="336.4"/>
	<g enable-background="new    ">
		<path d="M212.7,353.3c-0.3,0.9-1,1.5-1.6,1.8c-0.5,0.3-1.2,0.4-2,0.3c-0.5,0-1.3-0.2-1.6-0.7c-0.3-0.6-0.1-1.2,0-1.6
			c0.3-0.8,1-1.4,1.5-1.7c0.5-0.3,1.3-0.5,2.2-0.4c0.4,0,1.1,0.1,1.5,0.7C213,352.2,212.8,353,212.7,353.3z M210.7,352
			c-0.4,0.2-0.7,0.4-1,0.5c-0.3,0.2-0.6,0.4-1,0.6c-0.5,0.3-1.1,0.9-0.8,1.4c0.3,0.6,1.1,0.3,1.6,0c0.4-0.2,0.7-0.4,1-0.5
			c0.3-0.2,0.6-0.4,1-0.6c0.5-0.3,1.1-0.9,0.8-1.4C212.1,351.4,211.3,351.7,210.7,352z"/>
	</g>
	<g enable-background="new    ">
		<path d="M189.6,337v-5.7h2c0.4,0,0.8,0,1,0.1c0.3,0.1,0.6,0.2,0.8,0.4c0.3,0.3,0.5,0.6,0.7,1s0.2,0.9,0.2,1.4
			c0,0.4-0.1,0.8-0.2,1.2s-0.2,0.6-0.4,0.8s-0.3,0.4-0.5,0.5s-0.4,0.2-0.7,0.3s-0.6,0.1-0.9,0.1H189.6z M190.4,336.3h1.2
			c0.4,0,0.7,0,0.9-0.1s0.4-0.2,0.5-0.3c0.2-0.2,0.3-0.4,0.4-0.7s0.2-0.7,0.2-1.1c0-0.6-0.1-1.1-0.3-1.4s-0.4-0.5-0.7-0.6
			c-0.2-0.1-0.5-0.1-1-0.1h-1.2V336.3z"/>
	</g>
	<g enable-background="new    ">
		<path d="M196.3,337v-3.7h0.6v0.5c0.1-0.2,0.3-0.3,0.5-0.4c0.2-0.1,0.4-0.2,0.7-0.2c0.3,0,0.5,0.1,0.7,0.2c0.2,0.1,0.3,0.3,0.4,0.5
			c0.3-0.4,0.7-0.7,1.2-0.7c0.4,0,0.7,0.1,0.9,0.3s0.3,0.5,0.3,0.9v2.6h-0.6v-2.4c0-0.3,0-0.4-0.1-0.5s-0.1-0.2-0.2-0.3
			c-0.1-0.1-0.2-0.1-0.4-0.1c-0.3,0-0.5,0.1-0.7,0.3s-0.3,0.5-0.3,0.8v2.2h-0.6v-2.4c0-0.3-0.1-0.5-0.2-0.6
			c-0.1-0.1-0.3-0.2-0.5-0.2c-0.2,0-0.3,0-0.5,0.1s-0.3,0.2-0.3,0.4s-0.1,0.4-0.1,0.8v1.9H196.3z"/>
	</g>
	<g enable-background="new    ">
		<path d="M234.4,354.6c-0.8,0-1.5,0.5-1.5,1.4c0,0.6,1,1.5,1,1.5l-0.2,0.2c0,0-2.2-1.3-2.5-2.7c-0.1-0.9,0.5-1.8,1.6-1.9
			c0.4,0,1.2,0.1,1.5,0.2c-1.8-1.8-2.8-3-2.7-3.4c0.4-0.4,1.7-2.1,1.7-3.4c0-0.9-1.3-2.9-1.3-2.9l0.3-0.2l3.5,4.4c0,0-1.7,2-1.7,3.4
			c0,1,0.6,1.8,1.1,2.3c0.2,0.3,1,1.1,1,1.2l0,0.3C235.3,354.7,234.8,354.6,234.4,354.6z"/>
	</g>
	<line fill="none" stroke="#000000" stroke-width="0.459" x1="245" y1="357.2" x2="245" y2="341.2"/>
	<g enable-background="new    ">
		<path d="M243.7,355.9c1.4,0,2.2,1,1.8,2.2c-0.4,1.2-1.9,2.2-3.4,2.2c-1.4,0-2.2-1-1.7-2.2C240.8,356.8,242.3,355.9,243.7,355.9z"
			/>
	</g>
	<line fill="none" stroke="#000000" stroke-width="0.459" x1="254.2" y1="359.6" x2="254.2" y2="343.6"/>
	<g enable-background="new    ">
		<path d="M252.9,358.3c1.4,0,2.2,1,1.8,2.2c-0.4,1.2-1.9,2.2-3.4,2.2c-1.4,0-2.2-1-1.7-2.2C250,359.2,251.5,358.3,252.9,358.3z"/>
	</g>
	<line fill="none" stroke="#000000" stroke-width="0.459" x1="263.4" y1="362" x2="263.4" y2="346"/>
	<g enable-background="new    ">
		<path d="M262.1,360.7c1.4,0,2.2,1,1.8,2.2c-0.4,1.2-1.9,2.2-3.4,2.2c-1.4,0-2.2-1-1.7-2.2C259.2,361.6,260.7,360.7,262.1,360.7z"
			/>
	</g>
	<line fill="none" stroke="#000000" stroke-width="0.459" x1="278.8" y1="357.2" x2="278.8" y2="341.2"/>
	<g enable-background="new    ">
		<path d="M278.3,358.1c-0.3,0.9-1,1.5-1.6,1.8c-0.5,0.3-1.2,0.4-2,0.3c-0.5,0-1.3-0.2-1.6-0.7c-0.3-0.6-0.1-1.2,0-1.6
			c0.3-0.8,1-1.4,1.5-1.7c0.5-0.3,1.3-0.5,2.2-0.4c0.4,0,1.1,0.1,1.5,0.7C278.6,357,278.4,357.8,278.3,358.1z M276.3,356.8
			c-0.4,0.2-0.7,0.4-1,0.5c-0.3,0.2-0.6,0.4-1,0.6c-0.5,0.3-1.1,0.9-0.8,1.4c0.3,0.6,1.1,0.3,1.6,0c0.4-0.2,0.7-0.4,1-0.5
			c0.3-0.2,0.6-0.4,1-0.6c0.5-0.3,1.1-0.9,0.8-1.4C277.7,356.2,276.9,356.5,276.3,356.8z"/>
	</g>
	<line fill="none" stroke="#000000" stroke-width="0.459" x1="297.2" y1="357.2" x2="297.2" y2="341.2"/>
	<g enable-background="new    ">
		<path d="M296.7,358.1c-0.3,0.9-1,1.5-1.6,1.8c-0.5,0.3-1.2,0.4-2,0.3c-0.5,0-1.3-0.2-1.6-0.7c-0.3-0.6-0.1-1.2,0-1.6
			c0.3-0.8,1-1.4,1.5-1.7c0.5-0.3,1.3-0.5,2.2-0.4c0.4,0,1.1,0.1,1.5,0.7C297,357,296.8,357.8,296.7,358.1z M294.7,356.8
			c-0.4,0.2-0.7,0.4-1,0.5c-0.3,0.2-0.6,0.4-1,0.6c-0.5,0.3-1.1,0.9-0.8,1.4c0.3,0.6,1.1,0.3,1.6,0c0.4-0.2,0.7-0.4,1-0.5
			c0.3-0.2,0.6-0.4,1-0.6c0.5-0.3,1.1-0.9,0.8-1.4C296.1,356.2,295.3,356.5,294.7,356.8z"/>
	</g>
	<g enable-background="new    ">
		<path d="M276.3,334.8v-0.7l2.4,0v2.1c-0.4,0.3-0.8,0.5-1.2,0.7s-0.8,0.2-1.2,0.2c-0.6,0-1.1-0.1-1.5-0.4s-0.8-0.6-1-1
			s-0.4-1-0.4-1.5c0-0.6,0.1-1.1,0.3-1.6s0.6-0.8,1-1.1s0.9-0.4,1.5-0.4c0.4,0,0.8,0.1,1.1,0.2s0.6,0.3,0.8,0.6s0.3,0.6,0.4,0.9
			l-0.7,0.2c-0.1-0.3-0.2-0.5-0.3-0.7s-0.3-0.3-0.5-0.4s-0.5-0.2-0.8-0.2c-0.3,0-0.6,0.1-0.9,0.2s-0.5,0.2-0.6,0.4s-0.3,0.4-0.4,0.6
			c-0.1,0.4-0.2,0.7-0.2,1.2c0,0.5,0.1,0.9,0.3,1.3s0.4,0.6,0.8,0.8s0.7,0.2,1.1,0.2c0.3,0,0.6-0.1,1-0.2s0.5-0.3,0.7-0.4v-1.1
			H276.3z"/>
	</g>
	<g enable-background="new    ">
		<path d="M280,335.9l0.6-0.1c0,0.3,0.1,0.4,0.3,0.6c0.2,0.1,0.4,0.2,0.7,0.2c0.3,0,0.5-0.1,0.6-0.2s0.2-0.3,0.2-0.4
			c0-0.1-0.1-0.3-0.2-0.3c-0.1-0.1-0.3-0.1-0.6-0.2c-0.5-0.1-0.8-0.2-1-0.3c-0.2-0.1-0.3-0.2-0.4-0.4s-0.1-0.3-0.1-0.5
			c0-0.2,0-0.3,0.1-0.5c0.1-0.1,0.2-0.3,0.3-0.4c0.1-0.1,0.2-0.1,0.4-0.2c0.2-0.1,0.4-0.1,0.5-0.1c0.3,0,0.6,0,0.8,0.1
			c0.2,0.1,0.4,0.2,0.5,0.3s0.2,0.3,0.2,0.6l-0.6,0.1c0-0.2-0.1-0.3-0.2-0.5c-0.1-0.1-0.3-0.2-0.6-0.2c-0.3,0-0.5,0-0.6,0.1
			c-0.1,0.1-0.2,0.2-0.2,0.3c0,0.1,0,0.2,0.1,0.2c0.1,0.1,0.1,0.1,0.2,0.2c0.1,0,0.2,0.1,0.6,0.2c0.4,0.1,0.8,0.2,0.9,0.3
			c0.2,0.1,0.3,0.2,0.4,0.3c0.1,0.1,0.2,0.3,0.2,0.5c0,0.2-0.1,0.4-0.2,0.6s-0.3,0.3-0.5,0.4c-0.2,0.1-0.5,0.2-0.8,0.2
			c-0.5,0-0.9-0.1-1.1-0.3C280.3,336.6,280.1,336.3,280,335.9z"/>
	</g>
	<g enable-background="new    ">
		<path d="M286.3,337v-0.5c-0.3,0.4-0.7,0.6-1.2,0.6c-0.2,0-0.4,0-0.6-0.1c-0.2-0.1-0.3-0.2-0.4-0.3s-0.2-0.3-0.2-0.5
			c0-0.1,0-0.3,0-0.6v-2.3h0.6v2.1c0,0.3,0,0.6,0,0.7c0,0.2,0.1,0.3,0.3,0.4c0.1,0.1,0.3,0.1,0.5,0.1s0.4,0,0.5-0.1
			c0.2-0.1,0.3-0.2,0.4-0.4c0.1-0.2,0.1-0.4,0.1-0.7v-2h0.6v3.7H286.3z"/>
	</g>
	<g enable-background="new    ">
		<path d="M287.6,335.9l0.6-0.1c0,0.3,0.1,0.4,0.3,0.6c0.2,0.1,0.4,0.2,0.7,0.2c0.3,0,0.5-0.1,0.6-0.2s0.2-0.3,0.2-0.4
			c0-0.1-0.1-0.3-0.2-0.3c-0.1-0.1-0.3-0.1-0.6-0.2c-0.5-0.1-0.8-0.2-1-0.3c-0.2-0.1-0.3-0.2-0.4-0.4s-0.1-0.3-0.1-0.5
			c0-0.2,0-0.3,0.1-0.5c0.1-0.1,0.2-0.3,0.3-0.4c0.1-0.1,0.2-0.1,0.4-0.2c0.2-0.1,0.4-0.1,0.5-0.1c0.3,0,0.6,0,0.8,0.1
			c0.2,0.1,0.4,0.2,0.5,0.3s0.2,0.3,0.2,0.6l-0.6,0.1c0-0.2-0.1-0.3-0.2-0.5c-0.1-0.1-0.3-0.2-0.6-0.2c-0.3,0-0.5,0-0.6,0.1
			c-0.1,0.1-0.2,0.2-0.2,0.3c0,0.1,0,0.2,0.1,0.2c0.1,0.1,0.1,0.1,0.2,0.2c0.1,0,0.2,0.1,0.6,0.2c0.4,0.1,0.8,0.2,0.9,0.3
			c0.2,0.1,0.3,0.2,0.4,0.3c0.1,0.1,0.2,0.3,0.2,0.5c0,0.2-0.1,0.4-0.2,0.6s-0.3,0.3-0.5,0.4c-0.2,0.1-0.5,0.2-0.8,0.2
			c-0.5,0-0.9-0.1-1.1-0.3C287.9,336.6,287.7,336.3,287.6,335.9z"/>
	</g>
	<g enable-background="new    ">
		<path d="M293.3,337v-1.2h-2.2v-0.6l2.4-3.3h0.5v3.3h0.7v0.6H294v1.2H293.3z M293.3,335.2v-2.3l-1.6,2.3H293.3z"/>
	</g>
	<g enable-background="new    ">
		<path d="M318.4,354.6c-0.8,0-1.5,0.5-1.5,1.4c0,0.6,1,1.5,1,1.5l-0.2,0.2c0,0-2.2-1.3-2.5-2.7c-0.1-0.9,0.5-1.8,1.6-1.9
			c0.4,0,1.2,0.1,1.5,0.2c-1.8-1.8-2.8-3-2.7-3.4c0.4-0.4,1.7-2.1,1.7-3.4c0-0.9-1.3-2.9-1.3-2.9l0.3-0.2l3.5,4.4c0,0-1.7,2-1.7,3.4
			c0,1,0.6,1.8,1.1,2.3c0.2,0.3,1,1.1,1,1.2l0,0.3C319.3,354.7,318.8,354.6,318.4,354.6z"/>
	</g>
	<line fill="none" stroke="#000000" stroke-width="0.459" x1="329" y1="354.8" x2="329" y2="338.8"/>
	<g enable-background="new    ">
		<path d="M327.7,353.5c1.4,0,2.2,1,1.8,2.2c-0.4,1.2-1.9,2.2-3.4,2.2c-1.4,0-2.2-1-1.7-2.2C324.8,354.4,326.3,353.5,327.7,353.5z"
			/>
	</g>
	<line fill="none" stroke="#000000" stroke-width="0.459" x1="338.2" y1="352.4" x2="338.2" y2="336.4"/>
	<g enable-background="new    ">
		<path d="M336.9,351.1c1.4,0,2.2,1,1.8,2.2c-0.4,1.2-1.9,2.2-3.4,2.2c-1.4,0-2.2-1-1.7-2.2C334,352,335.5,351.1,336.9,351.1z"/>
	</g>
	<line fill="none" stroke="#000000" stroke-width="0.459" x1="342.8" y1="351.6" x2="342.8" y2="367.6"/>
	<g enable-background="new    ">
		<path d="M346.1,348.7c1.4,0,2.2,1,1.8,2.2c-0.4,1.2-1.9,2.2-3.4,2.2c-1.4,0-2.2-1-1.7-2.2C343.2,349.6,344.7,348.7,346.1,348.7z"
			/>
	</g>
	<g enable-background="new    ">
		<path d="M318.3,334.8v-0.7l2.4,0v2.1c-0.4,0.3-0.8,0.5-1.2,0.7s-0.8,0.2-1.2,0.2c-0.6,0-1.1-0.1-1.5-0.4s-0.8-0.6-1-1
			s-0.4-1-0.4-1.5c0-0.6,0.1-1.1,0.3-1.6s0.6-0.8,1-1.1s0.9-0.4,1.5-0.4c0.4,0,0.8,0.1,1.1,0.2s0.6,0.3,0.8,0.6s0.3,0.6,0.4,0.9
			l-0.7,0.2c-0.1-0.3-0.2-0.5-0.3-0.7s-0.3-0.3-0.5-0.4s-0.5-0.2-0.8-0.2c-0.3,0-0.6,0.1-0.9,0.2s-0.5,0.2-0.6,0.4s-0.3,0.4-0.4,0.6
			c-0.1,0.4-0.2,0.7-0.2,1.2c0,0.5,0.1,0.9,0.3,1.3s0.4,0.6,0.8,0.8s0.7,0.2,1.1,0.2c0.3,0,0.6-0.1,1-0.2s0.5-0.3,0.7-0.4v-1.1
			H318.3z"/>
	</g>
	<line fill="none" stroke="#000000" stroke-width="0.459" x1="362.8" y1="354.8" x2="362.8" y2="338.8"/>
	<g enable-background="new    ">
		<path d="M362.3,355.7c-0.3,0.9-1,1.5-1.6,1.8c-0.5,0.3-1.2,0.4-2,0.3c-0.5,0-1.3-0.2-1.6-0.7c-0.3-0.6-0.1-1.2,0-1.6
			c0.3-0.8,1-1.4,1.5-1.7c0.5-0.3,1.3-0.5,2.2-0.4c0.4,0,1.1,0.1,1.5,0.7C362.6,354.6,362.4,355.4,362.3,355.7z M360.3,354.4
			c-0.4,0.2-0.7,0.4-1,0.5c-0.3,0.2-0.6,0.4-1,0.6c-0.5,0.3-1.1,0.9-0.8,1.4c0.3,0.6,1.1,0.3,1.6,0c0.4-0.2,0.7-0.4,1-0.5
			c0.3-0.2,0.6-0.4,1-0.6c0.5-0.3,1.1-0.9,0.8-1.4C361.7,353.8,360.9,354.1,360.3,354.4z"/>
	</g>
	<line fill="none" stroke="#000000" stroke-width="0.459" x1="381.2" y1="354.8" x2="381.2" y2="338.8"/>
	<g enable-background="new    ">
		<path d="M380.7,355.7c-0.3,0.9-1,1.5-1.6,1.8c-0.5,0.3-1.2,0.4-2,0.3c-0.5,0-1.3-0.2-1.6-0.7c-0.3-0.6-0.1-1.2,0-1.6
			c0.3-0.8,1-1.4,1.5-1.7c0.5-0.3,1.3-0.5,2.2-0.4c0.4,0,1.1,0.1,1.5,0.7C381,354.6,380.8,355.4,380.7,355.7z M378.7,354.4
			c-0.4,0.2-0.7,0.4-1,0.5c-0.3,0.2-0.6,0.4-1,0.6c-0.5,0.3-1.1,0.9-0.8,1.4c0.3,0.6,1.1,0.3,1.6,0c0.4-0.2,0.7-0.4,1-0.5
			c0.3-0.2,0.6-0.4,1-0.6c0.5-0.3,1.1-0.9,0.8-1.4C380.1,353.8,379.3,354.1,378.7,354.4z"/>
	</g>
	<g enable-background="new    ">
		<path d="M361.7,335l0.8,0.2c-0.2,0.6-0.4,1.1-0.9,1.4s-0.9,0.5-1.5,0.5c-0.6,0-1.1-0.1-1.5-0.4s-0.7-0.6-0.9-1.1s-0.3-1-0.3-1.5
			c0-0.6,0.1-1.1,0.3-1.6s0.6-0.8,1-1s0.9-0.3,1.4-0.3c0.6,0,1.1,0.1,1.4,0.4s0.7,0.7,0.8,1.2l-0.7,0.2c-0.1-0.4-0.3-0.7-0.6-0.9
			s-0.6-0.3-1-0.3c-0.4,0-0.8,0.1-1.1,0.3s-0.5,0.5-0.6,0.8s-0.2,0.7-0.2,1.1c0,0.5,0.1,0.9,0.2,1.3s0.4,0.6,0.7,0.8s0.6,0.3,1,0.3
			c0.4,0,0.8-0.1,1.1-0.4S361.6,335.5,361.7,335z"/>
	</g>
	<g enable-background="new    ">
		<path d="M364.3,337v-5.2h1l1.2,3.6c0.1,0.3,0.2,0.6,0.2,0.8c0.1-0.2,0.1-0.5,0.3-0.8l1.2-3.6h0.9v5.2h-0.7v-4.3l-1.5,4.3h-0.6
			l-1.5-4.4v4.4H364.3z"/>
	</g>
	<g enable-background="new    ">
		<path d="M372.7,336.5c-0.2,0.2-0.5,0.3-0.7,0.4s-0.4,0.1-0.7,0.1c-0.4,0-0.7-0.1-0.9-0.3c-0.2-0.2-0.3-0.5-0.3-0.8
			c0-0.2,0-0.3,0.1-0.5c0.1-0.2,0.2-0.3,0.3-0.4c0.1-0.1,0.3-0.2,0.5-0.2c0.1,0,0.3-0.1,0.6-0.1c0.5-0.1,0.9-0.1,1.1-0.2
			c0-0.1,0-0.1,0-0.2c0-0.3-0.1-0.4-0.2-0.5c-0.2-0.1-0.4-0.2-0.7-0.2c-0.3,0-0.5,0.1-0.7,0.2c-0.1,0.1-0.2,0.3-0.3,0.6l-0.6-0.1
			c0.1-0.3,0.1-0.5,0.3-0.6c0.1-0.2,0.3-0.3,0.6-0.4c0.2-0.1,0.5-0.1,0.8-0.1c0.3,0,0.6,0,0.8,0.1c0.2,0.1,0.3,0.2,0.4,0.3
			c0.1,0.1,0.2,0.3,0.2,0.4c0,0.1,0,0.3,0,0.6v0.8c0,0.6,0,1,0,1.1s0.1,0.3,0.2,0.4h-0.7C372.8,336.9,372.7,336.7,372.7,336.5z
			 M372.7,335.1c-0.2,0.1-0.6,0.2-1,0.2c-0.3,0-0.4,0.1-0.6,0.1c-0.1,0-0.2,0.1-0.2,0.2c-0.1,0.1-0.1,0.2-0.1,0.3
			c0,0.2,0.1,0.3,0.2,0.4c0.1,0.1,0.3,0.2,0.6,0.2c0.2,0,0.5-0.1,0.7-0.2s0.3-0.3,0.4-0.4c0.1-0.1,0.1-0.4,0.1-0.6V335.1z"/>
	</g>
	<g enable-background="new    ">
		<path d="M373.5,338.4l0.1-0.5c0.1,0,0.2,0,0.3,0c0.1,0,0.2,0,0.3-0.1c0.1-0.1,0.1-0.3,0.1-0.6v-3.9h0.6v3.9c0,0.5-0.1,0.8-0.2,1
			c-0.2,0.2-0.4,0.4-0.8,0.4C373.8,338.5,373.6,338.5,373.5,338.4z M374.3,332.6v-0.7h0.6v0.7H374.3z"/>
	</g>
	<g enable-background="new    ">
		<path d="M375.7,332.5v-0.6h3.3v0.5c-0.3,0.3-0.7,0.8-1,1.4c-0.3,0.6-0.6,1.2-0.7,1.8c-0.1,0.4-0.2,0.9-0.2,1.4h-0.7
			c0-0.4,0.1-0.9,0.2-1.5s0.4-1.1,0.7-1.7s0.6-1,0.9-1.3H375.7z"/>
	</g>
	<g enable-background="new    ">
		<path d="M402.4,354.6c-0.8,0-1.5,0.5-1.5,1.4c0,0.6,1,1.5,1,1.5l-0.2,0.2c0,0-2.2-1.3-2.5-2.7c-0.1-0.9,0.5-1.8,1.6-1.9
			c0.4,0,1.2,0.1,1.5,0.2c-1.8-1.8-2.8-3-2.7-3.4c0.4-0.4,1.7-2.1,1.7-3.4c0-0.9-1.3-2.9-1.3-2.9l0.3-0.2l3.5,4.4c0,0-1.7,2-1.7,3.4
			c0,1,0.6,1.8,1.1,2.3c0.2,0.3,1,1.1,1,1.2l0,0.3C403.3,354.7,402.8,354.6,402.4,354.6z"/>
	</g>
	<line fill="none" stroke="#000000" stroke-width="0.459" x1="412" y1="359.6" x2="412" y2="343.6"/>
	<g enable-background="new    ">
		<path d="M410.7,358.3c1.4,0,2.2,1,1.8,2.2c-0.4,1.2-1.9,2.2-3.4,2.2c-1.4,0-2.2-1-1.7-2.2C407.8,359.2,409.3,358.3,410.7,358.3z"
			/>
	</g>
	<line fill="none" stroke="#000000" stroke-width="0.459" x1="420.6" y1="362" x2="420.6" y2="346"/>
	<g enable-background="new    ">
		<path d="M419.3,360.7c1.4,0,2.2,1,1.8,2.2c-0.4,1.2-1.9,2.2-3.4,2.2c-1.4,0-2.2-1-1.7-2.2C416.4,361.6,417.9,360.7,419.3,360.7z"
			/>
	</g>
	<line fill="none" stroke="#000000" stroke-width="0.459" x1="430.8" y1="364.4" x2="430.8" y2="348.4"/>
	<line fill="none" stroke="#000000" stroke-width="0.459" x1="424.8" y1="365.2" x2="432.2" y2="365.2"/>
	<g enable-background="new    ">
		<path d="M429.5,363.1c1.4,0,2.2,1,1.8,2.2c-0.4,1.2-1.9,2.2-3.4,2.2c-1.4,0-2.2-1-1.7-2.2C426.6,364,428.1,363.1,429.5,363.1z"/>
	</g>
	<g enable-background="new    ">
		<path d="M403.7,335l0.8,0.2c-0.2,0.6-0.4,1.1-0.9,1.4s-0.9,0.5-1.5,0.5c-0.6,0-1.1-0.1-1.5-0.4s-0.7-0.6-0.9-1.1s-0.3-1-0.3-1.5
			c0-0.6,0.1-1.1,0.3-1.6s0.6-0.8,1-1s0.9-0.3,1.4-0.3c0.6,0,1.1,0.1,1.4,0.4s0.7,0.7,0.8,1.2l-0.7,0.2c-0.1-0.4-0.3-0.7-0.6-0.9
			s-0.6-0.3-1-0.3c-0.4,0-0.8,0.1-1.1,0.3s-0.5,0.5-0.6,0.8s-0.2,0.7-0.2,1.1c0,0.5,0.1,0.9,0.2,1.3s0.4,0.6,0.7,0.8s0.6,0.3,1,0.3
			c0.4,0,0.8-0.1,1.1-0.4S403.6,335.5,403.7,335z"/>
	</g>
	<g enable-background="new    ">
		<path d="M409.4,333.1l-0.6,0c-0.1-0.2-0.1-0.4-0.2-0.5c-0.2-0.2-0.4-0.3-0.6-0.3c-0.2,0-0.4,0.1-0.5,0.2c-0.2,0.1-0.4,0.4-0.5,0.6
			c-0.1,0.3-0.2,0.7-0.2,1.2c0.2-0.2,0.3-0.4,0.6-0.5s0.5-0.2,0.7-0.2c0.4,0,0.8,0.2,1.1,0.5s0.4,0.7,0.4,1.2c0,0.3-0.1,0.6-0.2,0.9
			c-0.1,0.3-0.3,0.5-0.6,0.6c-0.2,0.1-0.5,0.2-0.8,0.2c-0.5,0-1-0.2-1.3-0.6c-0.3-0.4-0.5-1-0.5-1.9c0-1,0.2-1.7,0.6-2.2
			c0.3-0.4,0.8-0.6,1.3-0.6c0.4,0,0.7,0.1,1,0.3C409.2,332.4,409.3,332.7,409.4,333.1z M406.8,335.3c0,0.2,0,0.4,0.1,0.6
			c0.1,0.2,0.2,0.4,0.4,0.5s0.3,0.2,0.5,0.2c0.3,0,0.5-0.1,0.7-0.3c0.2-0.2,0.3-0.5,0.3-0.9c0-0.4-0.1-0.6-0.3-0.8s-0.4-0.3-0.7-0.3
			c-0.3,0-0.5,0.1-0.7,0.3S406.8,335,406.8,335.3z"/>
	</g>
	<g enable-background="new    ">
		<path d="M444.3,358.1c1.9,0,3.6,0.7,3.8,2.3c0.1,1.1-1.4,2.2-3.3,2.2c-1.9,0-3.6-0.7-3.8-2.3C440.9,359.2,442.4,358.1,444.3,358.1
			z M444.7,362.2c0.8,0,1.3-0.8,1.2-1.4c-0.2-1.2-0.6-2.2-1.7-2.2c-0.8,0-1.3,0.8-1.2,1.4C443.3,361.3,443.6,362.2,444.7,362.2z"/>
	</g>
	<g enable-background="new    ">
		<path d="M445.7,335l0.8,0.2c-0.2,0.6-0.4,1.1-0.9,1.4s-0.9,0.5-1.5,0.5c-0.6,0-1.1-0.1-1.5-0.4s-0.7-0.6-0.9-1.1s-0.3-1-0.3-1.5
			c0-0.6,0.1-1.1,0.3-1.6s0.6-0.8,1-1s0.9-0.3,1.4-0.3c0.6,0,1.1,0.1,1.4,0.4s0.7,0.7,0.8,1.2l-0.7,0.2c-0.1-0.4-0.3-0.7-0.6-0.9
			s-0.6-0.3-1-0.3c-0.4,0-0.8,0.1-1.1,0.3s-0.5,0.5-0.6,0.8s-0.2,0.7-0.2,1.1c0,0.5,0.1,0.9,0.2,1.3s0.4,0.6,0.7,0.8s0.6,0.3,1,0.3
			c0.4,0,0.8-0.1,1.1-0.4S445.6,335.5,445.7,335z"/>
	</g>
	<g enable-background="new    ">
		<path d="M448.3,337v-5.2h1l1.2,3.6c0.1,0.3,0.2,0.6,0.2,0.8c0.1-0.2,0.1-0.5,0.3-0.8l1.2-3.6h0.9v5.2h-0.7v-4.3l-1.5,4.3h-0.6
			l-1.5-4.4v4.4H448.3z"/>
	</g>
	<g enable-background="new    ">
		<path d="M456.7,336.5c-0.2,0.2-0.5,0.3-0.7,0.4s-0.4,0.1-0.7,0.1c-0.4,0-0.7-0.1-0.9-0.3c-0.2-0.2-0.3-0.5-0.3-0.8
			c0-0.2,0-0.3,0.1-0.5c0.1-0.2,0.2-0.3,0.3-0.4c0.1-0.1,0.3-0.2,0.5-0.2c0.1,0,0.3-0.1,0.6-0.1c0.5-0.1,0.9-0.1,1.1-0.2
			c0-0.1,0-0.1,0-0.2c0-0.3-0.1-0.4-0.2-0.5c-0.2-0.1-0.4-0.2-0.7-0.2c-0.3,0-0.5,0.1-0.7,0.2c-0.1,0.1-0.2,0.3-0.3,0.6l-0.6-0.1
			c0.1-0.3,0.1-0.5,0.3-0.6c0.1-0.2,0.3-0.3,0.6-0.4c0.2-0.1,0.5-0.1,0.8-0.1c0.3,0,0.6,0,0.8,0.1c0.2,0.1,0.3,0.2,0.4,0.3
			c0.1,0.1,0.2,0.3,0.2,0.4c0,0.1,0,0.3,0,0.6v0.8c0,0.6,0,1,0,1.1s0.1,0.3,0.2,0.4h-0.7C456.8,336.9,456.7,336.7,456.7,336.5z
			 M456.7,335.1c-0.2,0.1-0.6,0.2-1,0.2c-0.3,0-0.4,0.1-0.6,0.1c-0.1,0-0.2,0.1-0.2,0.2c-0.1,0.1-0.1,0.2-0.1,0.3
			c0,0.2,0.1,0.3,0.2,0.4c0.1,0.1,0.3,0.2,0.6,0.2c0.2,0,0.5-0.1,0.7-0.2s0.3-0.3,0.4-0.4c0.1-0.1,0.1-0.4,0.1-0.6V335.1z"/>
	</g>
	<g enable-background="new    ">
		<path d="M457.5,338.4l0.1-0.5c0.1,0,0.2,0,0.3,0c0.1,0,0.2,0,0.3-0.1c0.1-0.1,0.1-0.3,0.1-0.6v-3.9h0.6v3.9c0,0.5-0.1,0.8-0.2,1
			c-0.2,0.2-0.4,0.4-0.8,0.4C457.8,338.5,457.6,338.5,457.5,338.4z M458.3,332.6v-0.7h0.6v0.7H458.3z"/>
	</g>
	<g enable-background="new    ">
		<path d="M459.7,332.5v-0.6h3.3v0.5c-0.3,0.3-0.7,0.8-1,1.4c-0.3,0.6-0.6,1.2-0.7,1.8c-0.1,0.4-0.2,0.9-0.2,1.4h-0.7
			c0-0.4,0.1-0.9,0.2-1.5s0.4-1.1,0.7-1.7s0.6-1,0.9-1.3H459.7z"/>
	</g>
	<g enable-background="new    ">
		<path d="M486.4,354.6c-0.8,0-1.5,0.5-1.5,1.4c0,0.6,1,1.5,1,1.5l-0.2,0.2c0,0-2.2-1.3-2.5-2.7c-0.1-0.9,0.5-1.8,1.6-1.9
			c0.4,0,1.2,0.1,1.5,0.2c-1.8-1.8-2.8-3-2.7-3.4c0.4-0.4,1.7-2.1,1.7-3.4c0-0.9-1.3-2.9-1.3-2.9l0.3-0.2l3.5,4.4c0,0-1.7,2-1.7,3.4
			c0,1,0.6,1.8,1.1,2.3c0.2,0.3,1,1.1,1,1.2l0,0.3C487.3,354.7,486.8,354.6,486.4,354.6z"/>
	</g>
	<line fill="none" stroke="#000000" stroke-width="0.459" x1="496" y1="359.6" x2="496" y2="343.6"/>
	<g enable-background="new    ">
		<path d="M494.7,358.3c1.4,0,2.2,1,1.8,2.2c-0.4,1.2-1.9,2.2-3.4,2.2c-1.4,0-2.2-1-1.7-2.2C491.8,359.2,493.3,358.3,494.7,358.3z"
			/>
	</g>
	<line fill="none" stroke="#000000" stroke-width="0.459" x1="504.6" y1="362" x2="504.6" y2="346"/>
	<g enable-background="new    ">
		<path d="M503.3,360.7c1.4,0,2.2,1,1.8,2.2c-0.4,1.2-1.9,2.2-3.4,2.2c-1.4,0-2.2-1-1.7-2.2C500.4,361.6,501.9,360.7,503.3,360.7z"
			/>
	</g>
	<line fill="none" stroke="#000000" stroke-width="0.459" x1="514.8" y1="364.4" x2="514.8" y2="348.4"/>
	<line fill="none" stroke="#000000" stroke-width="0.459" x1="508.8" y1="365.2" x2="516.2" y2="365.2"/>
	<g enable-background="new    ">
		<path d="M513.5,363.1c1.4,0,2.2,1,1.8,2.2c-0.4,1.2-1.9,2.2-3.4,2.2c-1.4,0-2.2-1-1.7-2.2C510.6,364,512.1,363.1,513.5,363.1z"/>
	</g>
	<g enable-background="new    ">
		<path d="M487.7,335l0.8,0.2c-0.2,0.6-0.4,1.1-0.9,1.4s-0.9,0.5-1.5,0.5c-0.6,0-1.1-0.1-1.5-0.4s-0.7-0.6-0.9-1.1s-0.3-1-0.3-1.5
			c0-0.6,0.1-1.1,0.3-1.6s0.6-0.8,1-1s0.9-0.3,1.4-0.3c0.6,0,1.1,0.1,1.4,0.4s0.7,0.7,0.8,1.2l-0.7,0.2c-0.1-0.4-0.3-0.7-0.6-0.9
			s-0.6-0.3-1-0.3c-0.4,0-0.8,0.1-1.1,0.3s-0.5,0.5-0.6,0.8s-0.2,0.7-0.2,1.1c0,0.5,0.1,0.9,0.2,1.3s0.4,0.6,0.7,0.8s0.6,0.3,1,0.3
			c0.4,0,0.8-0.1,1.1-0.4S487.6,335.5,487.7,335z"/>
	</g>
	<g enable-background="new    ">
		<path d="M493.4,333.1l-0.6,0c-0.1-0.2-0.1-0.4-0.2-0.5c-0.2-0.2-0.4-0.3-0.6-0.3c-0.2,0-0.4,0.1-0.5,0.2c-0.2,0.1-0.4,0.4-0.5,0.6
			c-0.1,0.3-0.2,0.7-0.2,1.2c0.2-0.2,0.3-0.4,0.6-0.5s0.5-0.2,0.7-0.2c0.4,0,0.8,0.2,1.1,0.5s0.4,0.7,0.4,1.2c0,0.3-0.1,0.6-0.2,0.9
			c-0.1,0.3-0.3,0.5-0.6,0.6c-0.2,0.1-0.5,0.2-0.8,0.2c-0.5,0-1-0.2-1.3-0.6c-0.3-0.4-0.5-1-0.5-1.9c0-1,0.2-1.7,0.6-2.2
			c0.3-0.4,0.8-0.6,1.3-0.6c0.4,0,0.7,0.1,1,0.3C493.2,332.4,493.3,332.7,493.4,333.1z M490.8,335.3c0,0.2,0,0.4,0.1,0.6
			c0.1,0.2,0.2,0.4,0.4,0.5s0.3,0.2,0.5,0.2c0.3,0,0.5-0.1,0.7-0.3c0.2-0.2,0.3-0.5,0.3-0.9c0-0.4-0.1-0.6-0.3-0.8s-0.4-0.3-0.7-0.3
			c-0.3,0-0.5,0.1-0.7,0.3S490.8,335,490.8,335.3z"/>
	</g>
	<line fill="none" stroke="#000000" stroke-width="0.459" x1="530.8" y1="359.6" x2="530.8" y2="343.6"/>
	<g enable-background="new    ">
		<path d="M530.3,360.5c-0.3,0.9-1,1.5-1.6,1.8c-0.5,0.3-1.2,0.4-2,0.3c-0.5,0-1.3-0.2-1.6-0.7c-0.3-0.6-0.1-1.2,0-1.6
			c0.3-0.8,1-1.4,1.5-1.7c0.5-0.3,1.3-0.5,2.2-0.4c0.4,0,1.1,0.1,1.5,0.7C530.6,359.4,530.4,360.2,530.3,360.5z M528.3,359.2
			c-0.4,0.2-0.7,0.4-1,0.5c-0.3,0.2-0.6,0.4-1,0.6c-0.5,0.3-1.1,0.9-0.8,1.4c0.3,0.6,1.1,0.3,1.6,0c0.4-0.2,0.7-0.4,1-0.5
			c0.3-0.2,0.6-0.4,1-0.6c0.5-0.3,1.1-0.9,0.8-1.4C529.7,358.6,528.9,358.9,528.3,359.2z"/>
	</g>
	<line fill="none" stroke="#000000" stroke-width="0.459" x1="549.2" y1="359.6" x2="549.2" y2="343.6"/>
	<g enable-background="new    ">
		<path d="M548.7,360.5c-0.3,0.9-1,1.5-1.6,1.8c-0.5,0.3-1.2,0.4-2,0.3c-0.5,0-1.3-0.2-1.6-0.7c-0.3-0.6-0.1-1.2,0-1.6
			c0.3-0.8,1-1.4,1.5-1.7c0.5-0.3,1.3-0.5,2.2-0.4c0.4,0,1.1,0.1,1.5,0.7C549,359.4,548.8,360.2,548.7,360.5z M546.7,359.2
			c-0.4,0.2-0.7,0.4-1,0.5c-0.3,0.2-0.6,0.4-1,0.6c-0.5,0.3-1.1,0.9-0.8,1.4c0.3,0.6,1.1,0.3,1.6,0c0.4-0.2,0.7-0.4,1-0.5
			c0.3-0.2,0.6-0.4,1-0.6c0.5-0.3,1.1-0.9,0.8-1.4C548.1,358.6,547.3,358.9,546.7,359.2z"/>
	</g>
	<g enable-background="new    ">
		<path d="M529.7,335l0.8,0.2c-0.2,0.6-0.4,1.1-0.9,1.4s-0.9,0.5-1.5,0.5c-0.6,0-1.1-0.1-1.5-0.4s-0.7-0.6-0.9-1.1s-0.3-1-0.3-1.5
			c0-0.6,0.1-1.1,0.3-1.6s0.6-0.8,1-1s0.9-0.3,1.4-0.3c0.6,0,1.1,0.1,1.4,0.4s0.7,0.7,0.8,1.2l-0.7,0.2c-0.1-0.4-0.3-0.7-0.6-0.9
			s-0.6-0.3-1-0.3c-0.4,0-0.8,0.1-1.1,0.3s-0.5,0.5-0.6,0.8s-0.2,0.7-0.2,1.1c0,0.5,0.1,0.9,0.2,1.3s0.4,0.6,0.7,0.8s0.6,0.3,1,0.3
			c0.4,0,0.8-0.1,1.1-0.4S529.6,335.5,529.7,335z"/>
	</g>
	<g enable-background="new    ">
		<path d="M532.3,337v-5.2h1l1.2,3.6c0.1,0.3,0.2,0.6,0.2,0.8c0.1-0.2,0.1-0.5,0.3-0.8l1.2-3.6h0.9v5.2h-0.7v-4.3l-1.5,4.3h-0.6
			l-1.5-4.4v4.4H532.3z"/>
	</g>
	<g enable-background="new    ">
		<path d="M540.7,336.5c-0.2,0.2-0.5,0.3-0.7,0.4s-0.4,0.1-0.7,0.1c-0.4,0-0.7-0.1-0.9-0.3c-0.2-0.2-0.3-0.5-0.3-0.8
			c0-0.2,0-0.3,0.1-0.5c0.1-0.2,0.2-0.3,0.3-0.4c0.1-0.1,0.3-0.2,0.5-0.2c0.1,0,0.3-0.1,0.6-0.1c0.5-0.1,0.9-0.1,1.1-0.2
			c0-0.1,0-0.1,0-0.2c0-0.3-0.1-0.4-0.2-0.5c-0.2-0.1-0.4-0.2-0.7-0.2c-0.3,0-0.5,0.1-0.7,0.2c-0.1,0.1-0.2,0.3-0.3,0.6l-0.6-0.1
			c0.1-0.3,0.1-0.5,0.3-0.6c0.1-0.2,0.3-0.3,0.6-0.4c0.2-0.1,0.5-0.1,0.8-0.1c0.3,0,0.6,0,0.8,0.1c0.2,0.1,0.3,0.2,0.4,0.3
			c0.1,0.1,0.2,0.3,0.2,0.4c0,0.1,0,0.3,0,0.6v0.8c0,0.6,0,1,0,1.1s0.1,0.3,0.2,0.4h-0.7C540.8,336.9,540.7,336.7,540.7,336.5z
			 M540.7,335.1c-0.2,0.1-0.6,0.2-1,0.2c-0.3,0-0.4,0.1-0.6,0.1c-0.1,0-0.2,0.1-0.2,0.2c-0.1,0.1-0.1,0.2-0.1,0.3
			c0,0.2,0.1,0.3,0.2,0.4c0.1,0.1,0.3,0.2,0.6,0.2c0.2,0,0.5-0.1,0.7-0.2s0.3-0.3,0.4-0.4c0.1-0.1,0.1-0.4,0.1-0.6V335.1z"/>
	</g>
	<g enable-background="new    ">
		<path d="M541.5,338.4l0.1-0.5c0.1,0,0.2,0,0.3,0c0.1,0,0.2,0,0.3-0.1c0.1-0.1,0.1-0.3,0.1-0.6v-3.9h0.6v3.9c0,0.5-0.1,0.8-0.2,1
			c-0.2,0.2-0.4,0.4-0.8,0.4C541.8,338.5,541.6,338.5,541.5,338.4z M542.3,332.6v-0.7h0.6v0.7H542.3z"/>
	</g>
	<g enable-background="new    ">
		<path d="M543.7,332.5v-0.6h3.3v0.5c-0.3,0.3-0.7,0.8-1,1.4c-0.3,0.6-0.6,1.2-0.7,1.8c-0.1,0.4-0.2,0.9-0.2,1.4h-0.7
			c0-0.4,0.1-0.9,0.2-1.5s0.4-1.1,0.7-1.7s0.6-1,0.9-1.3H543.7z"/>
	</g>
	<g enable-background="new    ">
		<path d="M582.4,354.6c-0.8,0-1.5,0.5-1.5,1.4c0,0.6,1,1.5,1,1.5l-0.2,0.2c0,0-2.2-1.3-2.5-2.7c-0.1-0.9,0.5-1.8,1.6-1.9
			c0.4,0,1.2,0.1,1.5,0.2c-1.8-1.8-2.8-3-2.7-3.4c0.4-0.4,1.7-2.1,1.7-3.4c0-0.9-1.3-2.9-1.3-2.9l0.3-0.2l3.5,4.4c0,0-1.7,2-1.7,3.4
			c0,1,0.6,1.8,1.1,2.3c0.2,0.3,1,1.1,1,1.2l0,0.3C583.3,354.7,582.8,354.6,582.4,354.6z"/>
	</g>
	<line fill="none" stroke="#000000" stroke-width="0.459" x1="589.6" y1="354.8" x2="589.6" y2="338.8"/>
	<g enable-background="new    ">
		<path d="M588.3,353.5c1.4,0,2.2,1,1.8,2.2c-0.4,1.2-1.9,2.2-3.4,2.2c-1.4,0-2.2-1-1.7-2.2C585.4,354.4,586.9,353.5,588.3,353.5z"
			/>
	</g>
	<line fill="none" stroke="#000000" stroke-width="0.459" x1="596" y1="357.2" x2="596" y2="341.2"/>
	<g enable-background="new    ">
		<path d="M594.7,355.9c1.4,0,2.2,1,1.8,2.2c-0.4,1.2-1.9,2.2-3.4,2.2c-1.4,0-2.2-1-1.7-2.2C591.8,356.8,593.3,355.9,594.7,355.9z"
			/>
	</g>
	<line fill="none" stroke="#000000" stroke-width="0.459" x1="602.2" y1="359.6" x2="602.2" y2="343.6"/>
	<g enable-background="new    ">
		<path d="M600.9,358.3c1.4,0,2.2,1,1.8,2.2c-0.4,1.2-1.9,2.2-3.4,2.2c-1.4,0-2.2-1-1.7-2.2C598,359.2,599.5,358.3,600.9,358.3z"/>
	</g>
	<g enable-background="new    ">
		<path d="M583.7,335l0.8,0.2c-0.2,0.6-0.4,1.1-0.9,1.4s-0.9,0.5-1.5,0.5c-0.6,0-1.1-0.1-1.5-0.4s-0.7-0.6-0.9-1.1s-0.3-1-0.3-1.5
			c0-0.6,0.1-1.1,0.3-1.6s0.6-0.8,1-1s0.9-0.3,1.4-0.3c0.6,0,1.1,0.1,1.4,0.4s0.7,0.7,0.8,1.2l-0.7,0.2c-0.1-0.4-0.3-0.7-0.6-0.9
			s-0.6-0.3-1-0.3c-0.4,0-0.8,0.1-1.1,0.3s-0.5,0.5-0.6,0.8s-0.2,0.7-0.2,1.1c0,0.5,0.1,0.9,0.2,1.3s0.4,0.6,0.7,0.8s0.6,0.3,1,0.3
			c0.4,0,0.8-0.1,1.1-0.4S583.6,335.5,583.7,335z"/>
	</g>
	<g enable-background="new    ">
		<path d="M589.4,333.1l-0.6,0c-0.1-0.2-0.1-0.4-0.2-0.5c-0.2-0.2-0.4-0.3-0.6-0.3c-0.2,0-0.4,0.1-0.5,0.2c-0.2,0.1-0.4,0.4-0.5,0.6
			c-0.1,0.3-0.2,0.7-0.2,1.2c0.2-0.2,0.3-0.4,0.6-0.5s0.5-0.2,0.7-0.2c0.4,0,0.8,0.2,1.1,0.5s0.4,0.7,0.4,1.2c0,0.3-0.1,0.6-0.2,0.9
			c-0.1,0.3-0.3,0.5-0.6,0.6c-0.2,0.1-0.5,0.2-0.8,0.2c-0.5,0-1-0.2-1.3-0.6c-0.3-0.4-0.5-1-0.5-1.9c0-1,0.2-1.7,0.6-2.2
			c0.3-0.4,0.8-0.6,1.3-0.6c0.4,0,0.7,0.1,1,0.3C589.2,332.4,589.3,332.7,589.4,333.1z M586.8,335.3c0,0.2,0,0.4,0.1,0.6
			c0.1,0.2,0.2,0.4,0.4,0.5s0.3,0.2,0.5,0.2c0.3,0,0.5-0.1,0.7-0.3c0.2-0.2,0.3-0.5,0.3-0.9c0-0.4-0.1-0.6-0.3-0.8s-0.4-0.3-0.7-0.3
			c-0.3,0-0.5,0.1-0.7,0.3S586.8,335,586.8,335.3z"/>
	</g>
	<line fill="none" stroke="#000000" stroke-width="0.459" x1="614.8" y1="354.8" x2="614.8" y2="338.8"/>
	<g enable-background="new    ">
		<path d="M614.3,355.7c-0.3,0.9-1,1.5-1.6,1.8c-0.5,0.3-1.2,0.4-2,0.3c-0.5,0-1.3-0.2-1.6-0.7c-0.3-0.6-0.1-1.2,0-1.6
			c0.3-0.8,1-1.4,1.5-1.7c0.5-0.3,1.3-0.5,2.2-0.4c0.4,0,1.1,0.1,1.5,0.7C614.6,354.6,614.4,355.4,614.3,355.7z M612.3,354.4
			c-0.4,0.2-0.7,0.4-1,0.5c-0.3,0.2-0.6,0.4-1,0.6c-0.5,0.3-1.1,0.9-0.8,1.4c0.3,0.6,1.1,0.3,1.6,0c0.4-0.2,0.7-0.4,1-0.5
			c0.3-0.2,0.6-0.4,1-0.6c0.5-0.3,1.1-0.9,0.8-1.4C613.7,353.8,612.9,354.1,612.3,354.4z"/>
	</g>
	<line fill="none" stroke="#000000" stroke-width="0.459" x1="633.2" y1="354.8" x2="633.2" y2="338.8"/>
	<g enable-background="new    ">
		<path d="M632.7,355.7c-0.3,0.9-1,1.5-1.6,1.8c-0.5,0.3-1.2,0.4-2,0.3c-0.5,0-1.3-0.2-1.6-0.7c-0.3-0.6-0.1-1.2,0-1.6
			c0.3-0.8,1-1.4,1.5-1.7c0.5-0.3,1.3-0.5,2.2-0.4c0.4,0,1.1,0.1,1.5,0.7C633,354.6,632.8,355.4,632.7,355.7z M630.7,354.4
			c-0.4,0.2-0.7,0.4-1,0.5c-0.3,0.2-0.6,0.4-1,0.6c-0.5,0.3-1.1,0.9-0.8,1.4c0.3,0.6,1.1,0.3,1.6,0c0.4-0.2,0.7-0.4,1-0.5
			c0.3-0.2,0.6-0.4,1-0.6c0.5-0.3,1.1-0.9,0.8-1.4C632.1,353.8,631.3,354.1,630.7,354.4z"/>
	</g>
	<g enable-background="new    ">
		<path d="M609.6,337v-5.7h4.1v0.7h-3.4v1.8h3.2v0.7h-3.2v1.9h3.5v0.7H609.6z"/>
	</g>
	<g enable-background="new    ">
		<path d="M615.3,337v-3.7h0.6v0.5c0.1-0.2,0.3-0.3,0.5-0.4c0.2-0.1,0.4-0.2,0.7-0.2c0.3,0,0.5,0.1,0.7,0.2c0.2,0.1,0.3,0.3,0.4,0.5
			c0.3-0.4,0.7-0.7,1.2-0.7c0.4,0,0.7,0.1,0.9,0.3s0.3,0.5,0.3,0.9v2.6h-0.6v-2.4c0-0.3,0-0.4-0.1-0.5s-0.1-0.2-0.2-0.3
			c-0.1-0.1-0.2-0.1-0.4-0.1c-0.3,0-0.5,0.1-0.7,0.3s-0.3,0.5-0.3,0.8v2.2h-0.6v-2.4c0-0.3-0.1-0.5-0.2-0.6
			c-0.1-0.1-0.3-0.2-0.5-0.2c-0.2,0-0.3,0-0.5,0.1s-0.3,0.2-0.3,0.4s-0.1,0.4-0.1,0.8v1.9H615.3z"/>
	</g>
	<g enable-background="new    ">
		<path d="M654.4,354.6c-0.8,0-1.5,0.5-1.5,1.4c0,0.6,1,1.5,1,1.5l-0.2,0.2c0,0-2.2-1.3-2.5-2.7c-0.1-0.9,0.5-1.8,1.6-1.9
			c0.4,0,1.2,0.1,1.5,0.2c-1.8-1.8-2.8-3-2.7-3.4c0.4-0.4,1.7-2.1,1.7-3.4c0-0.9-1.3-2.9-1.3-2.9l0.3-0.2l3.5,4.4c0,0-1.7,2-1.7,3.4
			c0,1,0.6,1.8,1.1,2.3c0.2,0.3,1,1.1,1,1.2l0,0.3C655.3,354.7,654.8,354.6,654.4,354.6z"/>
	</g>
	<line fill="none" stroke="#000000" stroke-width="0.459" x1="665" y1="354.8" x2="665" y2="338.8"/>
	<g enable-background="new    ">
		<path d="M663.7,353.5c1.4,0,2.2,1,1.8,2.2c-0.4,1.2-1.9,2.2-3.4,2.2c-1.4,0-2.2-1-1.7-2.2C660.8,354.4,662.3,353.5,663.7,353.5z"
			/>
	</g>
	<line fill="none" stroke="#000000" stroke-width="0.459" x1="674.2" y1="352.4" x2="674.2" y2="336.4"/>
	<g enable-background="new    ">
		<path d="M672.9,351.1c1.4,0,2.2,1,1.8,2.2c-0.4,1.2-1.9,2.2-3.4,2.2c-1.4,0-2.2-1-1.7-2.2C670,352,671.5,351.1,672.9,351.1z"/>
	</g>
	<line fill="none" stroke="#000000" stroke-width="0.459" x1="678.8" y1="349.2" x2="678.8" y2="365.2"/>
	<g enable-background="new    ">
		<path d="M682.1,346.3c1.4,0,2.2,1,1.8,2.2c-0.4,1.2-1.9,2.2-3.4,2.2c-1.4,0-2.2-1-1.7-2.2C679.2,347.2,680.7,346.3,682.1,346.3z"
			/>
	</g>
	<g enable-background="new    ">
		<path d="M648.4,324.8v-5.7h2.1c0.4,0,0.8,0.1,1.1,0.2s0.5,0.3,0.6,0.5s0.2,0.5,0.2,0.8c0,0.2-0.1,0.5-0.2,0.7s-0.3,0.4-0.6,0.5
			c0.3,0.1,0.6,0.3,0.8,0.5s0.3,0.5,0.3,0.9c0,0.3-0.1,0.5-0.2,0.7s-0.3,0.4-0.4,0.5s-0.4,0.2-0.6,0.3s-0.6,0.1-0.9,0.1H648.4z
			 M649.1,321.5h1.2c0.3,0,0.6,0,0.7-0.1c0.2-0.1,0.3-0.2,0.4-0.3s0.1-0.3,0.1-0.5c0-0.2,0-0.4-0.1-0.5s-0.2-0.2-0.4-0.3
			s-0.5-0.1-0.9-0.1h-1.1V321.5z M649.1,324.1h1.4c0.2,0,0.4,0,0.5,0c0.2,0,0.3-0.1,0.4-0.2s0.2-0.2,0.3-0.3s0.1-0.3,0.1-0.5
			c0-0.2-0.1-0.4-0.2-0.6s-0.3-0.3-0.5-0.3s-0.5-0.1-0.8-0.1h-1.3V324.1z"/>
	</g>
	<line fill="none" stroke="#000000" stroke-width="0.459" x1="693.4" y1="351.6" x2="693.4" y2="367.6"/>
	<g enable-background="new    ">
		<path d="M698.5,350.9c-0.3,0.9-1,1.5-1.6,1.8c-0.5,0.3-1.2,0.4-2,0.3c-0.5,0-1.3-0.2-1.6-0.7c-0.3-0.6-0.1-1.2,0-1.6
			c0.3-0.8,1-1.4,1.5-1.7c0.5-0.3,1.3-0.5,2.2-0.4c0.4,0,1.1,0.1,1.5,0.7C698.8,349.8,698.6,350.6,698.5,350.9z M696.5,349.6
			c-0.4,0.2-0.7,0.4-1,0.5c-0.3,0.2-0.6,0.4-1,0.6c-0.5,0.3-1.1,0.9-0.8,1.4c0.3,0.6,1.1,0.3,1.6,0c0.4-0.2,0.7-0.4,1-0.5
			c0.3-0.2,0.6-0.4,1-0.6c0.5-0.3,1.1-0.9,0.8-1.4C697.9,349,697.1,349.3,696.5,349.6z"/>
	</g>
	<line fill="none" stroke="#000000" stroke-width="0.459" x1="717.4" y1="352.4" x2="717.4" y2="336.4"/>
	<g enable-background="new    ">
		<path d="M716.9,353.3c-0.3,0.9-1,1.5-1.6,1.8c-0.5,0.3-1.2,0.4-2,0.3c-0.5,0-1.3-0.2-1.6-0.7c-0.3-0.6-0.1-1.2,0-1.6
			c0.3-0.8,1-1.4,1.5-1.7c0.5-0.3,1.3-0.5,2.2-0.4c0.4,0,1.1,0.1,1.5,0.7C717.2,352.2,717,353,716.9,353.3z M714.9,352
			c-0.4,0.2-0.7,0.4-1,0.5c-0.3,0.2-0.6,0.4-1,0.6c-0.5,0.3-1.1,0.9-0.8,1.4c0.3,0.6,1.1,0.3,1.6,0c0.4-0.2,0.7-0.4,1-0.5
			c0.3-0.2,0.6-0.4,1-0.6c0.5-0.3,1.1-0.9,0.8-1.4C716.3,351.4,715.5,351.7,714.9,352z"/>
	</g>
	<g enable-background="new    ">
		<path d="M693.8,337v-5.7h2c0.4,0,0.8,0,1,0.1c0.3,0.1,0.6,0.2,0.8,0.4c0.3,0.3,0.5,0.6,0.7,1s0.2,0.9,0.2,1.4
			c0,0.4-0.1,0.8-0.2,1.2s-0.2,0.6-0.4,0.8s-0.3,0.4-0.5,0.5s-0.4,0.2-0.7,0.3s-0.6,0.1-0.9,0.1H693.8z M694.6,336.3h1.2
			c0.4,0,0.7,0,0.9-0.1s0.4-0.2,0.5-0.3c0.2-0.2,0.3-0.4,0.4-0.7s0.2-0.7,0.2-1.1c0-0.6-0.1-1.1-0.3-1.4s-0.4-0.5-0.7-0.6
			c-0.2-0.1-0.5-0.1-1-0.1h-1.2V336.3z"/>
	</g>
	<g enable-background="new    ">
		<path d="M738.4,354.6c-0.8,0-1.5,0.5-1.5,1.4c0,0.6,1,1.5,1,1.5l-0.2,0.2c0,0-2.2-1.3-2.5-2.7c-0.1-0.9,0.5-1.8,1.6-1.9
			c0.4,0,1.2,0.1,1.5,0.2c-1.8-1.8-2.8-3-2.7-3.4c0.4-0.4,1.7-2.1,1.7-3.4c0-0.9-1.3-2.9-1.3-2.9l0.3-0.2l3.5,4.4c0,0-1.7,2-1.7,3.4
			c0,1,0.6,1.8,1.1,2.3c0.2,0.3,1,1.1,1,1.2l0,0.3C739.3,354.7,738.8,354.6,738.4,354.6z"/>
	</g>
	<line fill="none" stroke="#000000" stroke-width="0.459" x1="753.2" y1="357.2" x2="753.2" y2="341.2"/>
	<g enable-background="new    ">
		<path d="M751.9,355.9c1.4,0,2.2,1,1.8,2.2c-0.4,1.2-1.9,2.2-3.4,2.2c-1.4,0-2.2-1-1.7-2.2C749,356.8,750.5,355.9,751.9,355.9z"/>
	</g>
	<g enable-background="new    ">
		<path d="M742.6,355v-3.1h0.6v2.9l1.9-0.6v-2.8h0.6v2.6l0.7-0.2v2l-0.7,0.2v2.8l0.7-0.2v2l-0.7,0.2v3.1h-0.6v-3l-1.9,0.6v2.8h-0.6
			v-2.6l-0.8,0.3v-2l0.8-0.3V357l-0.8,0.3v-2L742.6,355z M743.2,356.8v2.9l1.9-0.6v-2.9L743.2,356.8z"/>
	</g>
	<line fill="none" stroke="#000000" stroke-width="0.459" x1="761" y1="354.8" x2="761" y2="338.8"/>
	<g enable-background="new    ">
		<path d="M759.7,353.5c1.4,0,2.2,1,1.8,2.2c-0.4,1.2-1.9,2.2-3.4,2.2c-1.4,0-2.2-1-1.7-2.2C756.8,354.4,758.3,353.5,759.7,353.5z"
			/>
	</g>
	<line fill="none" stroke="#000000" stroke-width="0.459" x1="768.8" y1="352.4" x2="768.8" y2="336.4"/>
	<g enable-background="new    ">
		<path d="M767.5,351.1c1.4,0,2.2,1,1.8,2.2c-0.4,1.2-1.9,2.2-3.4,2.2c-1.4,0-2.2-1-1.7-2.2C764.6,352,766.1,351.1,767.5,351.1z"/>
	</g>
	<g enable-background="new    ">
		<path d="M780.3,348.5c1.9,0,3.6,0.7,3.8,2.3c0.1,1.1-1.4,2.2-3.3,2.2c-1.9,0-3.6-0.7-3.8-2.3C776.9,349.6,778.4,348.5,780.3,348.5
			z M780.7,352.6c0.8,0,1.3-0.8,1.2-1.4c-0.2-1.2-0.6-2.2-1.7-2.2c-0.8,0-1.3,0.8-1.2,1.4C779.3,351.7,779.6,352.6,780.7,352.6z"/>
	</g>
	<g enable-background="new    ">
		<path d="M780.3,334.8v-0.7l2.4,0v2.1c-0.4,0.3-0.8,0.5-1.2,0.7s-0.8,0.2-1.2,0.2c-0.6,0-1.1-0.1-1.5-0.4s-0.8-0.6-1-1
			s-0.4-1-0.4-1.5c0-0.6,0.1-1.1,0.3-1.6s0.6-0.8,1-1.1s0.9-0.4,1.5-0.4c0.4,0,0.8,0.1,1.1,0.2s0.6,0.3,0.8,0.6s0.3,0.6,0.4,0.9
			l-0.7,0.2c-0.1-0.3-0.2-0.5-0.3-0.7s-0.3-0.3-0.5-0.4s-0.5-0.2-0.8-0.2c-0.3,0-0.6,0.1-0.9,0.2s-0.5,0.2-0.6,0.4s-0.3,0.4-0.4,0.6
			c-0.1,0.4-0.2,0.7-0.2,1.2c0,0.5,0.1,0.9,0.3,1.3s0.4,0.6,0.8,0.8s0.7,0.2,1.1,0.2c0.3,0,0.6-0.1,1-0.2s0.5-0.3,0.7-0.4v-1.1
			H780.3z"/>
	</g>
	<g enable-background="new    ">
		<path d="M822.4,354.6c-0.8,0-1.5,0.5-1.5,1.4c0,0.6,1,1.5,1,1.5l-0.2,0.2c0,0-2.2-1.3-2.5-2.7c-0.1-0.9,0.5-1.8,1.6-1.9
			c0.4,0,1.2,0.1,1.5,0.2c-1.8-1.8-2.8-3-2.7-3.4c0.4-0.4,1.7-2.1,1.7-3.4c0-0.9-1.3-2.9-1.3-2.9l0.3-0.2l3.5,4.4c0,0-1.7,2-1.7,3.4
			c0,1,0.6,1.8,1.1,2.3c0.2,0.3,1,1.1,1,1.2l0,0.3C823.3,354.7,822.8,354.6,822.4,354.6z"/>
	</g>
	<line fill="none" stroke="#000000" stroke-width="0.459" x1="833" y1="354.8" x2="833" y2="338.8"/>
	<g enable-background="new    ">
		<path d="M831.7,353.5c1.4,0,2.2,1,1.8,2.2c-0.4,1.2-1.9,2.2-3.4,2.2c-1.4,0-2.2-1-1.7-2.2C828.8,354.4,830.3,353.5,831.7,353.5z"
			/>
	</g>
	<line fill="none" stroke="#000000" stroke-width="0.459" x1="842.2" y1="352.4" x2="842.2" y2="336.4"/>
	<g enable-background="new    ">
		<path d="M840.9,351.1c1.4,0,2.2,1,1.8,2.2c-0.4,1.2-1.9,2.2-3.4,2.2c-1.4,0-2.2-1-1.7-2.2C838,352,839.5,351.1,840.9,351.1z"/>
	</g>
	<line fill="none" stroke="#000000" stroke-width="0.459" x1="846.8" y1="351.6" x2="846.8" y2="367.6"/>
	<g enable-background="new    ">
		<path d="M850.1,348.7c1.4,0,2.2,1,1.8,2.2c-0.4,1.2-1.9,2.2-3.4,2.2c-1.4,0-2.2-1-1.7-2.2C847.2,349.6,848.7,348.7,850.1,348.7z"
			/>
	</g>
	<g enable-background="new    ">
		<path d="M819.2,325.2l2.2-5.7h0.8l2.3,5.7h-0.9l-0.7-1.7h-2.4l-0.6,1.7H819.2z M820.8,322.8h1.9l-0.6-1.6
			c-0.2-0.5-0.3-0.9-0.4-1.2c-0.1,0.4-0.2,0.7-0.3,1.1L820.8,322.8z"/>
	</g>
	<g enable-background="new    ">
		<path d="M823.7,335l0.8,0.2c-0.2,0.6-0.4,1.1-0.9,1.4s-0.9,0.5-1.5,0.5c-0.6,0-1.1-0.1-1.5-0.4s-0.7-0.6-0.9-1.1s-0.3-1-0.3-1.5
			c0-0.6,0.1-1.1,0.3-1.6s0.6-0.8,1-1s0.9-0.3,1.4-0.3c0.6,0,1.1,0.1,1.4,0.4s0.7,0.7,0.8,1.2l-0.7,0.2c-0.1-0.4-0.3-0.7-0.6-0.9
			s-0.6-0.3-1-0.3c-0.4,0-0.8,0.1-1.1,0.3s-0.5,0.5-0.6,0.8s-0.2,0.7-0.2,1.1c0,0.5,0.1,0.9,0.2,1.3s0.4,0.6,0.7,0.8s0.6,0.3,1,0.3
			c0.4,0,0.8-0.1,1.1-0.4S823.6,335.5,823.7,335z"/>
	</g>
	<line fill="none" stroke="#000000" stroke-width="0.459" x1="866.8" y1="352.4" x2="866.8" y2="336.4"/>
	<g enable-background="new    ">
		<path d="M866.3,353.3c-0.3,0.9-1,1.5-1.6,1.8c-0.5,0.3-1.2,0.4-2,0.3c-0.5,0-1.3-0.2-1.6-0.7c-0.3-0.6-0.1-1.2,0-1.6
			c0.3-0.8,1-1.4,1.5-1.7c0.5-0.3,1.3-0.5,2.2-0.4c0.4,0,1.1,0.1,1.5,0.7C866.6,352.2,866.4,353,866.3,353.3z M864.3,352
			c-0.4,0.2-0.7,0.4-1,0.5c-0.3,0.2-0.6,0.4-1,0.6c-0.5,0.3-1.1,0.9-0.8,1.4c0.3,0.6,1.1,0.3,1.6,0c0.4-0.2,0.7-0.4,1-0.5
			c0.3-0.2,0.6-0.4,1-0.6c0.5-0.3,1.1-0.9,0.8-1.4C865.7,351.4,864.9,351.7,864.3,352z"/>
	</g>
	<line fill="none" stroke="#000000" stroke-width="0.459" x1="885.2" y1="352.4" x2="885.2" y2="336.4"/>
	<g enable-background="new    ">
		<path d="M884.7,353.3c-0.3,0.9-1,1.5-1.6,1.8c-0.5,0.3-1.2,0.4-2,0.3c-0.5,0-1.3-0.2-1.6-0.7c-0.3-0.6-0.1-1.2,0-1.6
			c0.3-0.8,1-1.4,1.5-1.7c0.5-0.3,1.3-0.5,2.2-0.4c0.4,0,1.1,0.1,1.5,0.7C885,352.2,884.8,353,884.7,353.3z M882.7,352
			c-0.4,0.2-0.7,0.4-1,0.5c-0.3,0.2-0.6,0.4-1,0.6c-0.5,0.3-1.1,0.9-0.8,1.4c0.3,0.6,1.1,0.3,1.6,0c0.4-0.2,0.7-0.4,1-0.5
			c0.3-0.2,0.6-0.4,1-0.6c0.5-0.3,1.1-0.9,0.8-1.4C884.1,351.4,883.3,351.7,882.7,352z"/>
	</g>
	<g enable-background="new    ">
		<path d="M861.6,337v-5.7h2c0.4,0,0.8,0,1,0.1c0.3,0.1,0.6,0.2,0.8,0.4c0.3,0.3,0.5,0.6,0.7,1s0.2,0.9,0.2,1.4
			c0,0.4-0.1,0.8-0.2,1.2s-0.2,0.6-0.4,0.8s-0.3,0.4-0.5,0.5s-0.4,0.2-0.7,0.3s-0.6,0.1-0.9,0.1H861.6z M862.4,336.3h1.2
			c0.4,0,0.7,0,0.9-0.1s0.4-0.2,0.5-0.3c0.2-0.2,0.3-0.4,0.4-0.7s0.2-0.7,0.2-1.1c0-0.6-0.1-1.1-0.3-1.4s-0.4-0.5-0.7-0.6
			c-0.2-0.1-0.5-0.1-1-0.1h-1.2V336.3z"/>
	</g>
	<g enable-background="new    ">
		<path d="M868.3,337v-3.7h0.6v0.5c0.1-0.2,0.3-0.3,0.5-0.4c0.2-0.1,0.4-0.2,0.7-0.2c0.3,0,0.5,0.1,0.7,0.2c0.2,0.1,0.3,0.3,0.4,0.5
			c0.3-0.4,0.7-0.7,1.2-0.7c0.4,0,0.7,0.1,0.9,0.3s0.3,0.5,0.3,0.9v2.6h-0.6v-2.4c0-0.3,0-0.4-0.1-0.5s-0.1-0.2-0.2-0.3
			c-0.1-0.1-0.2-0.1-0.4-0.1c-0.3,0-0.5,0.1-0.7,0.3s-0.3,0.5-0.3,0.8v2.2h-0.6v-2.4c0-0.3-0.1-0.5-0.2-0.6s-0.3-0.2-0.5-0.2
			c-0.2,0-0.3,0-0.5,0.1s-0.3,0.2-0.3,0.4c-0.1,0.2-0.1,0.4-0.1,0.8v1.9H868.3z"/>
	</g>
	<g enable-background="new    ">
		<path d="M906.4,354.6c-0.8,0-1.5,0.5-1.5,1.4c0,0.6,1,1.5,1,1.5l-0.2,0.2c0,0-2.2-1.3-2.5-2.7c-0.1-0.9,0.5-1.8,1.6-1.9
			c0.4,0,1.2,0.1,1.5,0.2c-1.8-1.8-2.8-3-2.7-3.4c0.4-0.4,1.7-2.1,1.7-3.4c0-0.9-1.3-2.9-1.3-2.9l0.3-0.2l3.5,4.4c0,0-1.7,2-1.7,3.4
			c0,1,0.6,1.8,1.1,2.3c0.2,0.3,1,1.1,1,1.2l0,0.3C907.3,354.7,906.8,354.6,906.4,354.6z"/>
	</g>
	<line fill="none" stroke="#000000" stroke-width="0.459" x1="917" y1="357.2" x2="917" y2="341.2"/>
	<g enable-background="new    ">
		<path d="M915.7,355.9c1.4,0,2.2,1,1.8,2.2c-0.4,1.2-1.9,2.2-3.4,2.2c-1.4,0-2.2-1-1.7-2.2C912.8,356.8,914.3,355.9,915.7,355.9z"
			/>
	</g>
	<line fill="none" stroke="#000000" stroke-width="0.459" x1="926.2" y1="359.6" x2="926.2" y2="343.6"/>
	<g enable-background="new    ">
		<path d="M924.9,358.3c1.4,0,2.2,1,1.8,2.2c-0.4,1.2-1.9,2.2-3.4,2.2c-1.4,0-2.2-1-1.7-2.2C922,359.2,923.5,358.3,924.9,358.3z"/>
	</g>
	<line fill="none" stroke="#000000" stroke-width="0.459" x1="935.4" y1="362" x2="935.4" y2="346"/>
	<g enable-background="new    ">
		<path d="M934.1,360.7c1.4,0,2.2,1,1.8,2.2c-0.4,1.2-1.9,2.2-3.4,2.2c-1.4,0-2.2-1-1.7-2.2C931.2,361.6,932.7,360.7,934.1,360.7z"
			/>
	</g>
	<line fill="none" stroke="#000000" stroke-width="0.459" x1="950.8" y1="357.2" x2="950.8" y2="341.2"/>
	<g enable-background="new    ">
		<path d="M950.3,358.1c-0.3,0.9-1,1.5-1.6,1.8c-0.5,0.3-1.2,0.4-2,0.3c-0.5,0-1.3-0.2-1.6-0.7c-0.3-0.6-0.1-1.2,0-1.6
			c0.3-0.8,1-1.4,1.5-1.7c0.5-0.3,1.3-0.5,2.2-0.4c0.4,0,1.1,0.1,1.5,0.7C950.6,357,950.4,357.8,950.3,358.1z M948.3,356.8
			c-0.4,0.2-0.7,0.4-1,0.5c-0.3,0.2-0.6,0.4-1,0.6c-0.5,0.3-1.1,0.9-0.8,1.4c0.3,0.6,1.1,0.3,1.6,0c0.4-0.2,0.7-0.4,1-0.5
			c0.3-0.2,0.6-0.4,1-0.6c0.5-0.3,1.1-0.9,0.8-1.4C949.7,356.2,948.9,356.5,948.3,356.8z"/>
	</g>
	<line fill="none" stroke="#000000" stroke-width="0.459" x1="969.2" y1="357.2" x2="969.2" y2="341.2"/>
	<g enable-background="new    ">
		<path d="M968.7,358.1c-0.3,0.9-1,1.5-1.6,1.8c-0.5,0.3-1.2,0.4-2,0.3c-0.5,0-1.3-0.2-1.6-0.7c-0.3-0.6-0.1-1.2,0-1.6
			c0.3-0.8,1-1.4,1.5-1.7c0.5-0.3,1.3-0.5,2.2-0.4c0.4,0,1.1,0.1,1.5,0.7C969,357,968.8,357.8,968.7,358.1z M966.7,356.8
			c-0.4,0.2-0.7,0.4-1,0.5c-0.3,0.2-0.6,0.4-1,0.6c-0.5,0.3-1.1,0.9-0.8,1.4c0.3,0.6,1.1,0.3,1.6,0c0.4-0.2,0.7-0.4,1-0.5
			c0.3-0.2,0.6-0.4,1-0.6c0.5-0.3,1.1-0.9,0.8-1.4C968.1,356.2,967.3,356.5,966.7,356.8z"/>
	</g>
	<g enable-background="new    ">
		<path d="M948.3,334.8v-0.7l2.4,0v2.1c-0.4,0.3-0.8,0.5-1.2,0.7s-0.8,0.2-1.2,0.2c-0.6,0-1.1-0.1-1.5-0.4s-0.8-0.6-1-1
			s-0.4-1-0.4-1.5c0-0.6,0.1-1.1,0.3-1.6s0.6-0.8,1-1.1s0.9-0.4,1.5-0.4c0.4,0,0.8,0.1,1.1,0.2s0.6,0.3,0.8,0.6s0.3,0.6,0.4,0.9
			l-0.7,0.2c-0.1-0.3-0.2-0.5-0.3-0.7s-0.3-0.3-0.5-0.4s-0.5-0.2-0.8-0.2c-0.3,0-0.6,0.1-0.9,0.2s-0.5,0.2-0.6,0.4s-0.3,0.4-0.4,0.6
			c-0.1,0.4-0.2,0.7-0.2,1.2c0,0.5,0.1,0.9,0.3,1.3s0.4,0.6,0.8,0.8s0.7,0.2,1.1,0.2c0.3,0,0.6-0.1,1-0.2s0.5-0.3,0.7-0.4v-1.1
			H948.3z"/>
	</g>
	<g enable-background="new    ">
		<path d="M952,335.9l0.6-0.1c0,0.3,0.1,0.4,0.3,0.6c0.2,0.1,0.4,0.2,0.7,0.2c0.3,0,0.5-0.1,0.6-0.2s0.2-0.3,0.2-0.4
			c0-0.1-0.1-0.3-0.2-0.3c-0.1-0.1-0.3-0.1-0.6-0.2c-0.5-0.1-0.8-0.2-1-0.3c-0.2-0.1-0.3-0.2-0.4-0.4s-0.1-0.3-0.1-0.5
			c0-0.2,0-0.3,0.1-0.5c0.1-0.1,0.2-0.3,0.3-0.4c0.1-0.1,0.2-0.1,0.4-0.2c0.2-0.1,0.4-0.1,0.5-0.1c0.3,0,0.5,0,0.8,0.1
			c0.2,0.1,0.4,0.2,0.5,0.3s0.2,0.3,0.2,0.6l-0.6,0.1c0-0.2-0.1-0.3-0.2-0.5c-0.1-0.1-0.3-0.2-0.6-0.2c-0.3,0-0.5,0-0.6,0.1
			c-0.1,0.1-0.2,0.2-0.2,0.3c0,0.1,0,0.2,0.1,0.2c0.1,0.1,0.1,0.1,0.2,0.2c0.1,0,0.2,0.1,0.6,0.2c0.4,0.1,0.8,0.2,0.9,0.3
			c0.2,0.1,0.3,0.2,0.4,0.3c0.1,0.1,0.2,0.3,0.2,0.5c0,0.2-0.1,0.4-0.2,0.6s-0.3,0.3-0.5,0.4c-0.2,0.1-0.5,0.2-0.8,0.2
			c-0.5,0-0.9-0.1-1.1-0.3C952.3,336.6,952.1,336.3,952,335.9z"/>
	</g>
	<g enable-background="new    ">
		<path d="M958.3,337v-0.5c-0.3,0.4-0.7,0.6-1.2,0.6c-0.2,0-0.4,0-0.6-0.1c-0.2-0.1-0.3-0.2-0.4-0.3c-0.1-0.1-0.2-0.3-0.2-0.5
			c0-0.1,0-0.3,0-0.6v-2.3h0.6v2.1c0,0.3,0,0.6,0,0.7c0,0.2,0.1,0.3,0.3,0.4c0.1,0.1,0.3,0.1,0.5,0.1c0.2,0,0.4,0,0.5-0.1
			c0.2-0.1,0.3-0.2,0.4-0.4c0.1-0.2,0.1-0.4,0.1-0.7v-2h0.6v3.7H958.3z"/>
	</g>
	<g enable-background="new    ">
		<path d="M959.6,335.9l0.6-0.1c0,0.3,0.1,0.4,0.3,0.6c0.2,0.1,0.4,0.2,0.7,0.2c0.3,0,0.5-0.1,0.6-0.2s0.2-0.3,0.2-0.4
			c0-0.1-0.1-0.3-0.2-0.3c-0.1-0.1-0.3-0.1-0.6-0.2c-0.5-0.1-0.8-0.2-1-0.3c-0.2-0.1-0.3-0.2-0.4-0.4c-0.1-0.2-0.1-0.3-0.1-0.5
			c0-0.2,0-0.3,0.1-0.5c0.1-0.1,0.2-0.3,0.3-0.4c0.1-0.1,0.2-0.1,0.4-0.2c0.2-0.1,0.4-0.1,0.5-0.1c0.3,0,0.6,0,0.8,0.1
			c0.2,0.1,0.4,0.2,0.5,0.3s0.2,0.3,0.2,0.6l-0.6,0.1c0-0.2-0.1-0.3-0.2-0.5c-0.1-0.1-0.3-0.2-0.6-0.2c-0.3,0-0.5,0-0.6,0.1
			c-0.1,0.1-0.2,0.2-0.2,0.3c0,0.1,0,0.2,0.1,0.2c0.1,0.1,0.1,0.1,0.2,0.2c0.1,0,0.2,0.1,0.6,0.2c0.4,0.1,0.8,0.2,0.9,0.3
			c0.2,0.1,0.3,0.2,0.4,0.3c0.1,0.1,0.2,0.3,0.2,0.5c0,0.2-0.1,0.4-0.2,0.6s-0.3,0.3-0.5,0.4c-0.2,0.1-0.5,0.2-0.8,0.2
			c-0.5,0-0.9-0.1-1.1-0.3C959.9,336.6,959.7,336.3,959.6,335.9z"/>
	</g>
	<g enable-background="new    ">
		<path d="M965.3,337v-1.2h-2.2v-0.6l2.4-3.3h0.5v3.3h0.7v0.6H966v1.2H965.3z M965.3,335.2v-2.3l-1.6,2.3H965.3z"/>
	</g>
	<g enable-background="new    ">
		<path d="M990.4,354.6c-0.8,0-1.5,0.5-1.5,1.4c0,0.6,1,1.5,1,1.5l-0.2,0.2c0,0-2.2-1.3-2.5-2.7c-0.1-0.9,0.5-1.8,1.6-1.9
			c0.4,0,1.2,0.1,1.5,0.2c-1.8-1.8-2.8-3-2.7-3.4c0.4-0.4,1.7-2.1,1.7-3.4c0-0.9-1.3-2.9-1.3-2.9l0.3-0.2l3.5,4.4c0,0-1.7,2-1.7,3.4
			c0,1,0.6,1.8,1.1,2.3c0.2,0.3,1,1.1,1,1.2l0,0.3C991.3,354.7,990.8,354.6,990.4,354.6z"/>
	</g>
	<line fill="none" stroke="#000000" stroke-width="0.459" x1="1001" y1="354.8" x2="1001" y2="338.8"/>
	<g enable-background="new    ">
		<path d="M999.7,353.5c1.4,0,2.2,1,1.8,2.2c-0.4,1.2-1.9,2.2-3.4,2.2c-1.4,0-2.2-1-1.7-2.2C996.8,354.4,998.3,353.5,999.7,353.5z"
			/>
	</g>
	<line fill="none" stroke="#000000" stroke-width="0.459" x1="1010.2" y1="352.4" x2="1010.2" y2="336.4"/>
	<g enable-background="new    ">
		<path d="M1008.9,351.1c1.4,0,2.2,1,1.8,2.2c-0.4,1.2-1.9,2.2-3.4,2.2c-1.4,0-2.2-1-1.7-2.2C1006,352,1007.5,351.1,1008.9,351.1z"
			/>
	</g>
	<line fill="none" stroke="#000000" stroke-width="0.459" x1="1014.8" y1="351.6" x2="1014.8" y2="367.6"/>
	<g enable-background="new    ">
		<path d="M1018.1,348.7c1.4,0,2.2,1,1.8,2.2c-0.4,1.2-1.9,2.2-3.4,2.2c-1.4,0-2.2-1-1.7-2.2
			C1015.2,349.6,1016.7,348.7,1018.1,348.7z"/>
	</g>
	<g enable-background="new    ">
		<path d="M990.3,334.8v-0.7l2.4,0v2.1c-0.4,0.3-0.8,0.5-1.2,0.7s-0.8,0.2-1.2,0.2c-0.6,0-1.1-0.1-1.5-0.4s-0.8-0.6-1-1
			s-0.4-1-0.4-1.5c0-0.6,0.1-1.1,0.3-1.6s0.6-0.8,1-1.1s0.9-0.4,1.5-0.4c0.4,0,0.8,0.1,1.1,0.2s0.6,0.3,0.8,0.6s0.3,0.6,0.4,0.9
			l-0.7,0.2c-0.1-0.3-0.2-0.5-0.3-0.7s-0.3-0.3-0.5-0.4s-0.5-0.2-0.8-0.2c-0.3,0-0.6,0.1-0.9,0.2s-0.5,0.2-0.6,0.4s-0.3,0.4-0.4,0.6
			c-0.1,0.4-0.2,0.7-0.2,1.2c0,0.5,0.1,0.9,0.3,1.3s0.4,0.6,0.8,0.8s0.7,0.2,1.1,0.2c0.3,0,0.6-0.1,1-0.2s0.5-0.3,0.7-0.4v-1.1
			H990.3z"/>
	</g>
	<line fill="none" stroke="#000000" stroke-width="0.459" x1="1034.8" y1="354.8" x2="1034.8" y2="338.8"/>
	<g enable-background="new    ">
		<path d="M1034.3,355.7c-0.3,0.9-1,1.5-1.6,1.8c-0.5,0.3-1.2,0.4-2,0.3c-0.5,0-1.3-0.2-1.6-0.7c-0.3-0.6-0.1-1.2,0-1.6
			c0.3-0.8,1-1.4,1.5-1.7c0.5-0.3,1.3-0.5,2.2-0.4c0.4,0,1.1,0.1,1.5,0.7C1034.6,354.6,1034.4,355.4,1034.3,355.7z M1032.3,354.4
			c-0.4,0.2-0.7,0.4-1,0.5c-0.3,0.2-0.6,0.4-1,0.6c-0.5,0.3-1.1,0.9-0.8,1.4c0.3,0.6,1.1,0.3,1.6,0c0.4-0.2,0.7-0.4,1-0.5
			c0.3-0.2,0.6-0.4,1-0.6c0.5-0.3,1.1-0.9,0.8-1.4C1033.7,353.8,1032.9,354.1,1032.3,354.4z"/>
	</g>
	<line fill="none" stroke="#000000" stroke-width="0.459" x1="1053.2" y1="354.8" x2="1053.2" y2="338.8"/>
	<g enable-background="new    ">
		<path d="M1052.7,355.7c-0.3,0.9-1,1.5-1.6,1.8c-0.5,0.3-1.2,0.4-2,0.3c-0.5,0-1.3-0.2-1.6-0.7c-0.3-0.6-0.1-1.2,0-1.6
			c0.3-0.8,1-1.4,1.5-1.7c0.5-0.3,1.3-0.5,2.2-0.4c0.4,0,1.1,0.1,1.5,0.7C1053,354.6,1052.8,355.4,1052.7,355.7z M1050.7,354.4
			c-0.4,0.2-0.7,0.4-1,0.5c-0.3,0.2-0.6,0.4-1,0.6c-0.5,0.3-1.1,0.9-0.8,1.4c0.3,0.6,1.1,0.3,1.6,0c0.4-0.2,0.7-0.4,1-0.5
			c0.3-0.2,0.6-0.4,1-0.6c0.5-0.3,1.1-0.9,0.8-1.4C1052.1,353.8,1051.3,354.1,1050.7,354.4z"/>
	</g>
	<g enable-background="new    ">
		<path d="M1033.7,335l0.8,0.2c-0.2,0.6-0.4,1.1-0.9,1.4s-0.9,0.5-1.5,0.5c-0.6,0-1.1-0.1-1.5-0.4s-0.7-0.6-0.9-1.1s-0.3-1-0.3-1.5
			c0-0.6,0.1-1.1,0.3-1.6s0.6-0.8,1-1s0.9-0.3,1.4-0.3c0.6,0,1.1,0.1,1.4,0.4s0.7,0.7,0.8,1.2l-0.7,0.2c-0.1-0.4-0.3-0.7-0.6-0.9
			s-0.6-0.3-1-0.3c-0.4,0-0.8,0.1-1.1,0.3s-0.5,0.5-0.6,0.8s-0.2,0.7-0.2,1.1c0,0.5,0.1,0.9,0.2,1.3s0.4,0.6,0.7,0.8s0.6,0.3,1,0.3
			c0.4,0,0.8-0.1,1.1-0.4S1033.6,335.5,1033.7,335z"/>
	</g>
	<g enable-background="new    ">
		<path d="M1036.3,337v-5.2h1l1.2,3.6c0.1,0.3,0.2,0.6,0.2,0.8c0.1-0.2,0.2-0.5,0.3-0.8l1.2-3.6h0.9v5.2h-0.7v-4.3l-1.5,4.3h-0.6
			l-1.5-4.4v4.4H1036.3z"/>
	</g>
	<g enable-background="new    ">
		<path d="M1044.7,336.5c-0.2,0.2-0.5,0.3-0.7,0.4s-0.5,0.1-0.7,0.1c-0.4,0-0.7-0.1-0.9-0.3c-0.2-0.2-0.3-0.5-0.3-0.8
			c0-0.2,0-0.3,0.1-0.5s0.2-0.3,0.3-0.4c0.1-0.1,0.3-0.2,0.5-0.2c0.1,0,0.3-0.1,0.6-0.1c0.5-0.1,0.9-0.1,1.1-0.2c0-0.1,0-0.1,0-0.2
			c0-0.3-0.1-0.4-0.2-0.5c-0.2-0.1-0.4-0.2-0.7-0.2c-0.3,0-0.5,0.1-0.7,0.2s-0.2,0.3-0.3,0.6l-0.6-0.1c0.1-0.3,0.1-0.5,0.3-0.6
			c0.1-0.2,0.3-0.3,0.6-0.4s0.5-0.1,0.8-0.1c0.3,0,0.6,0,0.8,0.1c0.2,0.1,0.3,0.2,0.4,0.3c0.1,0.1,0.2,0.3,0.2,0.4
			c0,0.1,0,0.3,0,0.6v0.8c0,0.6,0,1,0,1.1c0,0.2,0.1,0.3,0.2,0.4h-0.7C1044.8,336.9,1044.7,336.7,1044.7,336.5z M1044.7,335.1
			c-0.2,0.1-0.6,0.2-1,0.2c-0.3,0-0.4,0.1-0.6,0.1s-0.2,0.1-0.2,0.2c-0.1,0.1-0.1,0.2-0.1,0.3c0,0.2,0.1,0.3,0.2,0.4
			s0.3,0.2,0.6,0.2c0.2,0,0.5-0.1,0.7-0.2s0.3-0.3,0.4-0.4c0.1-0.1,0.1-0.4,0.1-0.6V335.1z"/>
	</g>
	<g enable-background="new    ">
		<path d="M1045.5,338.4l0.1-0.5c0.1,0,0.2,0,0.3,0c0.1,0,0.2,0,0.3-0.1c0.1-0.1,0.1-0.3,0.1-0.6v-3.9h0.6v3.9c0,0.5-0.1,0.8-0.2,1
			c-0.2,0.2-0.4,0.4-0.8,0.4C1045.8,338.5,1045.6,338.5,1045.5,338.4z M1046.3,332.6v-0.7h0.6v0.7H1046.3z"/>
	</g>
	<g enable-background="new    ">
		<path d="M1047.7,332.5v-0.6h3.3v0.5c-0.3,0.3-0.7,0.8-1,1.4c-0.3,0.6-0.6,1.2-0.7,1.8c-0.1,0.4-0.2,0.9-0.2,1.4h-0.7
			c0-0.4,0.1-0.9,0.2-1.5s0.4-1.1,0.7-1.7s0.6-1,0.9-1.3H1047.7z"/>
	</g>
	<g enable-background="new    ">
		<path d="M1074.4,354.6c-0.8,0-1.5,0.5-1.5,1.4c0,0.6,1,1.5,1,1.5l-0.2,0.2c0,0-2.2-1.3-2.5-2.7c-0.1-0.9,0.5-1.8,1.6-1.9
			c0.4,0,1.2,0.1,1.5,0.2c-1.8-1.8-2.8-3-2.7-3.4c0.4-0.4,1.7-2.1,1.7-3.4c0-0.9-1.3-2.9-1.3-2.9l0.3-0.2l3.5,4.4c0,0-1.7,2-1.7,3.4
			c0,1,0.6,1.8,1.1,2.3c0.2,0.3,1,1.1,1,1.2l0,0.3C1075.3,354.7,1074.8,354.6,1074.4,354.6z"/>
	</g>
	<line fill="none" stroke="#000000" stroke-width="0.459" x1="1084" y1="359.6" x2="1084" y2="343.6"/>
	<g enable-background="new    ">
		<path d="M1082.7,358.3c1.4,0,2.2,1,1.8,2.2c-0.4,1.2-1.9,2.2-3.4,2.2c-1.4,0-2.2-1-1.7-2.2
			C1079.8,359.2,1081.3,358.3,1082.7,358.3z"/>
	</g>
	<line fill="none" stroke="#000000" stroke-width="0.459" x1="1092.6" y1="362" x2="1092.6" y2="346"/>
	<g enable-background="new    ">
		<path d="M1091.3,360.7c1.4,0,2.2,1,1.8,2.2c-0.4,1.2-1.9,2.2-3.4,2.2c-1.4,0-2.2-1-1.7-2.2
			C1088.4,361.6,1089.9,360.7,1091.3,360.7z"/>
	</g>
	<line fill="none" stroke="#000000" stroke-width="0.459" x1="1102.8" y1="364.4" x2="1102.8" y2="348.4"/>
	<line fill="none" stroke="#000000" stroke-width="0.459" x1="1096.8" y1="365.2" x2="1104.2" y2="365.2"/>
	<g enable-background="new    ">
		<path d="M1101.5,363.1c1.4,0,2.2,1,1.8,2.2c-0.4,1.2-1.9,2.2-3.4,2.2s-2.2-1-1.7-2.2C1098.6,364,1100.1,363.1,1101.5,363.1z"/>
	</g>
	<g enable-background="new    ">
		<path d="M1075.7,335l0.8,0.2c-0.2,0.6-0.4,1.1-0.9,1.4s-0.9,0.5-1.5,0.5c-0.6,0-1.1-0.1-1.5-0.4s-0.7-0.6-0.9-1.1s-0.3-1-0.3-1.5
			c0-0.6,0.1-1.1,0.3-1.6s0.6-0.8,1-1s0.9-0.3,1.4-0.3c0.6,0,1.1,0.1,1.4,0.4s0.7,0.7,0.8,1.2l-0.7,0.2c-0.1-0.4-0.3-0.7-0.6-0.9
			s-0.6-0.3-1-0.3c-0.4,0-0.8,0.1-1.1,0.3s-0.5,0.5-0.6,0.8s-0.2,0.7-0.2,1.1c0,0.5,0.1,0.9,0.2,1.3s0.4,0.6,0.7,0.8s0.6,0.3,1,0.3
			c0.4,0,0.8-0.1,1.1-0.4S1075.6,335.5,1075.7,335z"/>
	</g>
	<g enable-background="new    ">
		<path d="M1081.4,333.1l-0.6,0c-0.1-0.2-0.1-0.4-0.2-0.5c-0.2-0.2-0.4-0.3-0.6-0.3c-0.2,0-0.4,0.1-0.5,0.2
			c-0.2,0.1-0.4,0.4-0.5,0.6s-0.2,0.7-0.2,1.2c0.2-0.2,0.3-0.4,0.6-0.5s0.5-0.2,0.7-0.2c0.4,0,0.8,0.2,1.1,0.5
			c0.3,0.3,0.4,0.7,0.4,1.2c0,0.3-0.1,0.6-0.2,0.9c-0.1,0.3-0.3,0.5-0.6,0.6s-0.5,0.2-0.8,0.2c-0.5,0-1-0.2-1.3-0.6
			c-0.3-0.4-0.5-1-0.5-1.9c0-1,0.2-1.7,0.6-2.2c0.3-0.4,0.8-0.6,1.3-0.6c0.4,0,0.7,0.1,1,0.3
			C1081.2,332.4,1081.3,332.7,1081.4,333.1z M1078.8,335.3c0,0.2,0,0.4,0.1,0.6c0.1,0.2,0.2,0.4,0.4,0.5c0.2,0.1,0.3,0.2,0.5,0.2
			c0.3,0,0.5-0.1,0.7-0.3c0.2-0.2,0.3-0.5,0.3-0.9c0-0.4-0.1-0.6-0.3-0.8s-0.4-0.3-0.7-0.3c-0.3,0-0.5,0.1-0.7,0.3
			S1078.8,335,1078.8,335.3z"/>
	</g>
	<g enable-background="new    ">
		<path d="M1116.3,358.1c1.9,0,3.6,0.7,3.8,2.3c0.1,1.1-1.4,2.2-3.3,2.2c-1.9,0-3.6-0.7-3.8-2.3
			C1112.9,359.2,1114.4,358.1,1116.3,358.1z M1116.7,362.2c0.8,0,1.3-0.8,1.2-1.4c-0.2-1.2-0.6-2.2-1.7-2.2c-0.8,0-1.3,0.8-1.2,1.4
			C1115.3,361.3,1115.6,362.2,1116.7,362.2z"/>
	</g>
	<g enable-background="new    ">
		<path d="M1117.7,335l0.8,0.2c-0.2,0.6-0.4,1.1-0.9,1.4s-0.9,0.5-1.5,0.5c-0.6,0-1.1-0.1-1.5-0.4s-0.7-0.6-0.9-1.1s-0.3-1-0.3-1.5
			c0-0.6,0.1-1.1,0.3-1.6s0.6-0.8,1-1s0.9-0.3,1.4-0.3c0.6,0,1.1,0.1,1.4,0.4s0.7,0.7,0.8,1.2l-0.7,0.2c-0.1-0.4-0.3-0.7-0.6-0.9
			s-0.6-0.3-1-0.3c-0.4,0-0.8,0.1-1.1,0.3s-0.5,0.5-0.6,0.8s-0.2,0.7-0.2,1.1c0,0.5,0.1,0.9,0.2,1.3s0.4,0.6,0.7,0.8s0.6,0.3,1,0.3
			c0.4,0,0.8-0.1,1.1-0.4S1117.6,335.5,1117.7,335z"/>
	</g>
	<g enable-background="new    ">
		<path d="M1120.3,337v-5.2h1l1.2,3.6c0.1,0.3,0.2,0.6,0.2,0.8c0.1-0.2,0.2-0.5,0.3-0.8l1.2-3.6h0.9v5.2h-0.7v-4.3l-1.5,4.3h-0.6
			l-1.5-4.4v4.4H1120.3z"/>
	</g>
	<g enable-background="new    ">
		<path d="M1128.7,336.5c-0.2,0.2-0.5,0.3-0.7,0.4s-0.5,0.1-0.7,0.1c-0.4,0-0.7-0.1-0.9-0.3c-0.2-0.2-0.3-0.5-0.3-0.8
			c0-0.2,0-0.3,0.1-0.5s0.2-0.3,0.3-0.4c0.1-0.1,0.3-0.2,0.5-0.2c0.1,0,0.3-0.1,0.6-0.1c0.5-0.1,0.9-0.1,1.1-0.2c0-0.1,0-0.1,0-0.2
			c0-0.3-0.1-0.4-0.2-0.5c-0.2-0.1-0.4-0.2-0.7-0.2c-0.3,0-0.5,0.1-0.7,0.2s-0.2,0.3-0.3,0.6l-0.6-0.1c0.1-0.3,0.1-0.5,0.3-0.6
			c0.1-0.2,0.3-0.3,0.6-0.4s0.5-0.1,0.8-0.1c0.3,0,0.6,0,0.8,0.1c0.2,0.1,0.3,0.2,0.4,0.3c0.1,0.1,0.2,0.3,0.2,0.4
			c0,0.1,0,0.3,0,0.6v0.8c0,0.6,0,1,0,1.1c0,0.2,0.1,0.3,0.2,0.4h-0.7C1128.8,336.9,1128.7,336.7,1128.7,336.5z M1128.7,335.1
			c-0.2,0.1-0.6,0.2-1,0.2c-0.3,0-0.4,0.1-0.6,0.1s-0.2,0.1-0.2,0.2c-0.1,0.1-0.1,0.2-0.1,0.3c0,0.2,0.1,0.3,0.2,0.4
			s0.3,0.2,0.6,0.2c0.2,0,0.5-0.1,0.7-0.2s0.3-0.3,0.4-0.4c0.1-0.1,0.1-0.4,0.1-0.6V335.1z"/>
	</g>
	<g enable-background="new    ">
		<path d="M1129.5,338.4l0.1-0.5c0.1,0,0.2,0,0.3,0c0.1,0,0.2,0,0.3-0.1c0.1-0.1,0.1-0.3,0.1-0.6v-3.9h0.6v3.9c0,0.5-0.1,0.8-0.2,1
			c-0.2,0.2-0.4,0.4-0.8,0.4C1129.8,338.5,1129.6,338.5,1129.5,338.4z M1130.3,332.6v-0.7h0.6v0.7H1130.3z"/>
	</g>
	<g enable-background="new    ">
		<path d="M1131.7,332.5v-0.6h3.3v0.5c-0.3,0.3-0.7,0.8-1,1.4c-0.3,0.6-0.6,1.2-0.7,1.8c-0.1,0.4-0.2,0.9-0.2,1.4h-0.7
			c0-0.4,0.1-0.9,0.2-1.5s0.4-1.1,0.7-1.7s0.6-1,0.9-1.3H1131.7z"/>
	</g>
	<g enable-background="new    ">
		<path d="M1158.4,354.6c-0.8,0-1.5,0.5-1.5,1.4c0,0.6,1,1.5,1,1.5l-0.2,0.2c0,0-2.2-1.3-2.5-2.7c-0.1-0.9,0.5-1.8,1.6-1.9
			c0.4,0,1.2,0.1,1.5,0.2c-1.8-1.8-2.8-3-2.7-3.4c0.4-0.4,1.7-2.1,1.7-3.4c0-0.9-1.3-2.9-1.3-2.9l0.3-0.2l3.5,4.4c0,0-1.7,2-1.7,3.4
			c0,1,0.6,1.8,1.1,2.3c0.2,0.3,1,1.1,1,1.2l0,0.3C1159.3,354.7,1158.8,354.6,1158.4,354.6z"/>
	</g>
	<line fill="none" stroke="#000000" stroke-width="0.459" x1="1168" y1="359.6" x2="1168" y2="343.6"/>
	<g enable-background="new    ">
		<path d="M1166.7,358.3c1.4,0,2.2,1,1.8,2.2c-0.4,1.2-1.9,2.2-3.4,2.2c-1.4,0-2.2-1-1.7-2.2
			C1163.8,359.2,1165.3,358.3,1166.7,358.3z"/>
	</g>
	<line fill="none" stroke="#000000" stroke-width="0.459" x1="1176.6" y1="362" x2="1176.6" y2="346"/>
	<g enable-background="new    ">
		<path d="M1175.3,360.7c1.4,0,2.2,1,1.8,2.2c-0.4,1.2-1.9,2.2-3.4,2.2c-1.4,0-2.2-1-1.7-2.2
			C1172.4,361.6,1173.9,360.7,1175.3,360.7z"/>
	</g>
	<line fill="none" stroke="#000000" stroke-width="0.459" x1="1186.8" y1="364.4" x2="1186.8" y2="348.4"/>
	<line fill="none" stroke="#000000" stroke-width="0.459" x1="1180.8" y1="365.2" x2="1188.2" y2="365.2"/>
	<g enable-background="new    ">
		<path d="M1185.5,363.1c1.4,0,2.2,1,1.8,2.2c-0.4,1.2-1.9,2.2-3.4,2.2s-2.2-1-1.7-2.2C1182.6,364,1184.1,363.1,1185.5,363.1z"/>
	</g>
	<g enable-background="new    ">
		<path d="M1159.7,335l0.8,0.2c-0.2,0.6-0.4,1.1-0.9,1.4s-0.9,0.5-1.5,0.5c-0.6,0-1.1-0.1-1.5-0.4s-0.7-0.6-0.9-1.1s-0.3-1-0.3-1.5
			c0-0.6,0.1-1.1,0.3-1.6s0.6-0.8,1-1s0.9-0.3,1.4-0.3c0.6,0,1.1,0.1,1.4,0.4s0.7,0.7,0.8,1.2l-0.7,0.2c-0.1-0.4-0.3-0.7-0.6-0.9
			s-0.6-0.3-1-0.3c-0.4,0-0.8,0.1-1.1,0.3s-0.5,0.5-0.6,0.8s-0.2,0.7-0.2,1.1c0,0.5,0.1,0.9,0.2,1.3s0.4,0.6,0.7,0.8s0.6,0.3,1,0.3
			c0.4,0,0.8-0.1,1.1-0.4S1159.6,335.5,1159.7,335z"/>
	</g>
	<g enable-background="new    ">
		<path d="M1165.4,333.1l-0.6,0c-0.1-0.2-0.1-0.4-0.2-0.5c-0.2-0.2-0.4-0.3-0.6-0.3c-0.2,0-0.4,0.1-0.5,0.2
			c-0.2,0.1-0.4,0.4-0.5,0.6s-0.2,0.7-0.2,1.2c0.2-0.2,0.3-0.4,0.6-0.5s0.5-0.2,0.7-0.2c0.4,0,0.8,0.2,1.1,0.5
			c0.3,0.3,0.4,0.7,0.4,1.2c0,0.3-0.1,0.6-0.2,0.9c-0.1,0.3-0.3,0.5-0.6,0.6s-0.5,0.2-0.8,0.2c-0.5,0-1-0.2-1.3-0.6
			c-0.3-0.4-0.5-1-0.5-1.9c0-1,0.2-1.7,0.6-2.2c0.3-0.4,0.8-0.6,1.3-0.6c0.4,0,0.7,0.1,1,0.3
			C1165.2,332.4,1165.3,332.7,1165.4,333.1z M1162.8,335.3c0,0.2,0,0.4,0.1,0.6c0.1,0.2,0.2,0.4,0.4,0.5c0.2,0.1,0.3,0.2,0.5,0.2
			c0.3,0,0.5-0.1,0.7-0.3c0.2-0.2,0.3-0.5,0.3-0.9c0-0.4-0.1-0.6-0.3-0.8s-0.4-0.3-0.7-0.3c-0.3,0-0.5,0.1-0.7,0.3
			S1162.8,335,1162.8,335.3z"/>
	</g>
	<line fill="none" stroke="#000000" stroke-width="0.459" x1="1202.8" y1="359.6" x2="1202.8" y2="343.6"/>
	<g enable-background="new    ">
		<path d="M1202.3,360.5c-0.3,0.9-1,1.5-1.6,1.8c-0.5,0.3-1.2,0.4-2,0.3c-0.5,0-1.3-0.2-1.6-0.7c-0.3-0.6-0.1-1.2,0-1.6
			c0.3-0.8,1-1.4,1.5-1.7c0.5-0.3,1.3-0.5,2.2-0.4c0.4,0,1.1,0.1,1.5,0.7C1202.6,359.4,1202.4,360.2,1202.3,360.5z M1200.3,359.2
			c-0.4,0.2-0.7,0.4-1,0.5c-0.3,0.2-0.6,0.4-1,0.6c-0.5,0.3-1.1,0.9-0.8,1.4c0.3,0.6,1.1,0.3,1.6,0c0.4-0.2,0.7-0.4,1-0.5
			c0.3-0.2,0.6-0.4,1-0.6c0.5-0.3,1.1-0.9,0.8-1.4C1201.7,358.6,1200.9,358.9,1200.3,359.2z"/>
	</g>
	<line fill="none" stroke="#000000" stroke-width="0.459" x1="1221.2" y1="359.6" x2="1221.2" y2="343.6"/>
	<g enable-background="new    ">
		<path d="M1220.7,360.5c-0.3,0.9-1,1.5-1.6,1.8c-0.5,0.3-1.2,0.4-2,0.3c-0.5,0-1.3-0.2-1.6-0.7c-0.3-0.6-0.1-1.2,0-1.6
			c0.3-0.8,1-1.4,1.5-1.7c0.5-0.3,1.3-0.5,2.2-0.4c0.4,0,1.1,0.1,1.5,0.7C1221,359.4,1220.8,360.2,1220.7,360.5z M1218.7,359.2
			c-0.4,0.2-0.7,0.4-1,0.5c-0.3,0.2-0.6,0.4-1,0.6c-0.5,0.3-1.1,0.9-0.8,1.4c0.3,0.6,1.1,0.3,1.6,0c0.4-0.2,0.7-0.4,1-0.5
			c0.3-0.2,0.6-0.4,1-0.6c0.5-0.3,1.1-0.9,0.8-1.4C1220.1,358.6,1219.3,358.9,1218.7,359.2z"/>
	</g>
	<g enable-background="new    ">
		<path d="M1201.7,335l0.8,0.2c-0.2,0.6-0.4,1.1-0.9,1.4s-0.9,0.5-1.5,0.5c-0.6,0-1.1-0.1-1.5-0.4s-0.7-0.6-0.9-1.1s-0.3-1-0.3-1.5
			c0-0.6,0.1-1.1,0.3-1.6s0.6-0.8,1-1s0.9-0.3,1.4-0.3c0.6,0,1.1,0.1,1.4,0.4s0.7,0.7,0.8,1.2l-0.7,0.2c-0.1-0.4-0.3-0.7-0.6-0.9
			s-0.6-0.3-1-0.3c-0.4,0-0.8,0.1-1.1,0.3s-0.5,0.5-0.6,0.8s-0.2,0.7-0.2,1.1c0,0.5,0.1,0.9,0.2,1.3s0.4,0.6,0.7,0.8s0.6,0.3,1,0.3
			c0.4,0,0.8-0.1,1.1-0.4S1201.6,335.5,1201.7,335z"/>
	</g>
	<g enable-background="new    ">
		<path d="M1204.3,337v-5.2h1l1.2,3.6c0.1,0.3,0.2,0.6,0.2,0.8c0.1-0.2,0.2-0.5,0.3-0.8l1.2-3.6h0.9v5.2h-0.7v-4.3l-1.5,4.3h-0.6
			l-1.5-4.4v4.4H1204.3z"/>
	</g>
	<g enable-background="new    ">
		<path d="M1212.7,336.5c-0.2,0.2-0.5,0.3-0.7,0.4s-0.5,0.1-0.7,0.1c-0.4,0-0.7-0.1-0.9-0.3c-0.2-0.2-0.3-0.5-0.3-0.8
			c0-0.2,0-0.3,0.1-0.5s0.2-0.3,0.3-0.4c0.1-0.1,0.3-0.2,0.5-0.2c0.1,0,0.3-0.1,0.6-0.1c0.5-0.1,0.9-0.1,1.1-0.2c0-0.1,0-0.1,0-0.2
			c0-0.3-0.1-0.4-0.2-0.5c-0.2-0.1-0.4-0.2-0.7-0.2c-0.3,0-0.5,0.1-0.7,0.2s-0.2,0.3-0.3,0.6l-0.6-0.1c0.1-0.3,0.1-0.5,0.3-0.6
			c0.1-0.2,0.3-0.3,0.6-0.4s0.5-0.1,0.8-0.1c0.3,0,0.6,0,0.8,0.1c0.2,0.1,0.3,0.2,0.4,0.3c0.1,0.1,0.2,0.3,0.2,0.4
			c0,0.1,0,0.3,0,0.6v0.8c0,0.6,0,1,0,1.1c0,0.2,0.1,0.3,0.2,0.4h-0.7C1212.8,336.9,1212.7,336.7,1212.7,336.5z M1212.7,335.1
			c-0.2,0.1-0.6,0.2-1,0.2c-0.3,0-0.4,0.1-0.6,0.1s-0.2,0.1-0.2,0.2c-0.1,0.1-0.1,0.2-0.1,0.3c0,0.2,0.1,0.3,0.2,0.4
			s0.3,0.2,0.6,0.2c0.2,0,0.5-0.1,0.7-0.2s0.3-0.3,0.4-0.4c0.1-0.1,0.1-0.4,0.1-0.6V335.1z"/>
	</g>
	<g enable-background="new    ">
		<path d="M1213.5,338.4l0.1-0.5c0.1,0,0.2,0,0.3,0c0.1,0,0.2,0,0.3-0.1c0.1-0.1,0.1-0.3,0.1-0.6v-3.9h0.6v3.9c0,0.5-0.1,0.8-0.2,1
			c-0.2,0.2-0.4,0.4-0.8,0.4C1213.8,338.5,1213.6,338.5,1213.5,338.4z M1214.3,332.6v-0.7h0.6v0.7H1214.3z"/>
	</g>
	<g enable-background="new    ">
		<path d="M1215.7,332.5v-0.6h3.3v0.5c-0.3,0.3-0.7,0.8-1,1.4c-0.3,0.6-0.6,1.2-0.7,1.8c-0.1,0.4-0.2,0.9-0.2,1.4h-0.7
			c0-0.4,0.1-0.9,0.2-1.5s0.4-1.1,0.7-1.7s0.6-1,0.9-1.3H1215.7z"/>
	</g>
	<g enable-background="new    ">
		<path d="M1254.4,354.6c-0.8,0-1.5,0.5-1.5,1.4c0,0.6,1,1.5,1,1.5l-0.2,0.2c0,0-2.2-1.3-2.5-2.7c-0.1-0.9,0.5-1.8,1.6-1.9
			c0.4,0,1.2,0.1,1.5,0.2c-1.8-1.8-2.8-3-2.7-3.4c0.4-0.4,1.7-2.1,1.7-3.4c0-0.9-1.3-2.9-1.3-2.9l0.3-0.2l3.5,4.4c0,0-1.7,2-1.7,3.4
			c0,1,0.6,1.8,1.1,2.3c0.2,0.3,1,1.1,1,1.2l0,0.3C1255.3,354.7,1254.8,354.6,1254.4,354.6z"/>
	</g>
	<line fill="none" stroke="#000000" stroke-width="0.459" x1="1261.6" y1="354.8" x2="1261.6" y2="338.8"/>
	<g enable-background="new    ">
		<path d="M1260.3,353.5c1.4,0,2.2,1,1.8,2.2c-0.4,1.2-1.9,2.2-3.4,2.2c-1.4,0-2.2-1-1.7-2.2
			C1257.4,354.4,1258.9,353.5,1260.3,353.5z"/>
	</g>
	<line fill="none" stroke="#000000" stroke-width="0.459" x1="1268" y1="357.2" x2="1268" y2="341.2"/>
	<g enable-background="new    ">
		<path d="M1266.7,355.9c1.4,0,2.2,1,1.8,2.2c-0.4,1.2-1.9,2.2-3.4,2.2c-1.4,0-2.2-1-1.7-2.2
			C1263.8,356.8,1265.3,355.9,1266.7,355.9z"/>
	</g>
	<line fill="none" stroke="#000000" stroke-width="0.459" x1="1274.2" y1="359.6" x2="1274.2" y2="343.6"/>
	<g enable-background="new    ">
		<path d="M1272.9,358.3c1.4,0,2.2,1,1.8,2.2c-0.4,1.2-1.9,2.2-3.4,2.2c-1.4,0-2.2-1-1.7-2.2C1270,359.2,1271.5,358.3,1272.9,358.3z
			"/>
	</g>
	<g enable-background="new    ">
		<path d="M1255.7,335l0.8,0.2c-0.2,0.6-0.4,1.1-0.9,1.4s-0.9,0.5-1.5,0.5c-0.6,0-1.1-0.1-1.5-0.4s-0.7-0.6-0.9-1.1s-0.3-1-0.3-1.5
			c0-0.6,0.1-1.1,0.3-1.6s0.6-0.8,1-1s0.9-0.3,1.4-0.3c0.6,0,1.1,0.1,1.4,0.4s0.7,0.7,0.8,1.2l-0.7,0.2c-0.1-0.4-0.3-0.7-0.6-0.9
			s-0.6-0.3-1-0.3c-0.4,0-0.8,0.1-1.1,0.3s-0.5,0.5-0.6,0.8s-0.2,0.7-0.2,1.1c0,0.5,0.1,0.9,0.2,1.3s0.4,0.6,0.7,0.8s0.6,0.3,1,0.3
			c0.4,0,0.8-0.1,1.1-0.4S1255.6,335.5,1255.7,335z"/>
	</g>
	<g enable-background="new    ">
		<path d="M1261.4,333.1l-0.6,0c-0.1-0.2-0.1-0.4-0.2-0.5c-0.2-0.2-0.4-0.3-0.6-0.3c-0.2,0-0.4,0.1-0.5,0.2
			c-0.2,0.1-0.4,0.4-0.5,0.6s-0.2,0.7-0.2,1.2c0.2-0.2,0.3-0.4,0.6-0.5s0.5-0.2,0.7-0.2c0.4,0,0.8,0.2,1.1,0.5
			c0.3,0.3,0.4,0.7,0.4,1.2c0,0.3-0.1,0.6-0.2,0.9c-0.1,0.3-0.3,0.5-0.6,0.6s-0.5,0.2-0.8,0.2c-0.5,0-1-0.2-1.3-0.6
			c-0.3-0.4-0.5-1-0.5-1.9c0-1,0.2-1.7,0.6-2.2c0.3-0.4,0.8-0.6,1.3-0.6c0.4,0,0.7,0.1,1,0.3
			C1261.2,332.4,1261.3,332.7,1261.4,333.1z M1258.8,335.3c0,0.2,0,0.4,0.1,0.6c0.1,0.2,0.2,0.4,0.4,0.5c0.2,0.1,0.3,0.2,0.5,0.2
			c0.3,0,0.5-0.1,0.7-0.3c0.2-0.2,0.3-0.5,0.3-0.9c0-0.4-0.1-0.6-0.3-0.8s-0.4-0.3-0.7-0.3c-0.3,0-0.5,0.1-0.7,0.3
			S1258.8,335,1258.8,335.3z"/>
	</g>
	<line fill="none" stroke="#000000" stroke-width="0.459" x1="1286.8" y1="354.8" x2="1286.8" y2="338.8"/>
	<g enable-background="new    ">
		<path d="M1286.3,355.7c-0.3,0.9-1,1.5-1.6,1.8c-0.5,0.3-1.2,0.4-2,0.3c-0.5,0-1.3-0.2-1.6-0.7c-0.3-0.6-0.1-1.2,0-1.6
			c0.3-0.8,1-1.4,1.5-1.7c0.5-0.3,1.3-0.5,2.2-0.4c0.4,0,1.1,0.1,1.5,0.7C1286.6,354.6,1286.4,355.4,1286.3,355.7z M1284.3,354.4
			c-0.4,0.2-0.7,0.4-1,0.5c-0.3,0.2-0.6,0.4-1,0.6c-0.5,0.3-1.1,0.9-0.8,1.4c0.3,0.6,1.1,0.3,1.6,0c0.4-0.2,0.7-0.4,1-0.5
			c0.3-0.2,0.6-0.4,1-0.6c0.5-0.3,1.1-0.9,0.8-1.4C1285.7,353.8,1284.9,354.1,1284.3,354.4z"/>
	</g>
	<line fill="none" stroke="#000000" stroke-width="0.459" x1="1305.2" y1="354.8" x2="1305.2" y2="338.8"/>
	<g enable-background="new    ">
		<path d="M1304.7,355.7c-0.3,0.9-1,1.5-1.6,1.8c-0.5,0.3-1.2,0.4-2,0.3c-0.5,0-1.3-0.2-1.6-0.7c-0.3-0.6-0.1-1.2,0-1.6
			c0.3-0.8,1-1.4,1.5-1.7c0.5-0.3,1.3-0.5,2.2-0.4c0.4,0,1.1,0.1,1.5,0.7C1305,354.6,1304.8,355.4,1304.7,355.7z M1302.7,354.4
			c-0.4,0.2-0.7,0.4-1,0.5c-0.3,0.2-0.6,0.4-1,0.6c-0.5,0.3-1.1,0.9-0.8,1.4c0.3,0.6,1.1,0.3,1.6,0c0.4-0.2,0.7-0.4,1-0.5
			c0.3-0.2,0.6-0.4,1-0.6c0.5-0.3,1.1-0.9,0.8-1.4C1304.1,353.8,1303.3,354.1,1302.7,354.4z"/>
	</g>
	<g enable-background="new    ">
		<path d="M1281.6,337v-5.7h4.1v0.7h-3.4v1.8h3.2v0.7h-3.2v1.9h3.5v0.7H1281.6z"/>
	</g>
	<g enable-background="new    ">
		<path d="M1287.3,337v-3.7h0.6v0.5c0.1-0.2,0.3-0.3,0.5-0.4c0.2-0.1,0.4-0.2,0.7-0.2c0.3,0,0.5,0.1,0.7,0.2
			c0.2,0.1,0.3,0.3,0.4,0.5c0.3-0.4,0.7-0.7,1.2-0.7c0.4,0,0.7,0.1,0.9,0.3s0.3,0.5,0.3,0.9v2.6h-0.6v-2.4c0-0.3,0-0.4-0.1-0.5
			s-0.1-0.2-0.2-0.3c-0.1-0.1-0.2-0.1-0.4-0.1c-0.3,0-0.5,0.1-0.7,0.3s-0.3,0.5-0.3,0.8v2.2h-0.6v-2.4c0-0.3-0.1-0.5-0.2-0.6
			s-0.3-0.2-0.5-0.2c-0.2,0-0.3,0-0.5,0.1s-0.3,0.2-0.3,0.4c-0.1,0.2-0.1,0.4-0.1,0.8v1.9H1287.3z"/>
	</g>
	<g enable-background="new    ">
		<path d="M1326.4,354.6c-0.8,0-1.5,0.5-1.5,1.4c0,0.6,1,1.5,1,1.5l-0.2,0.2c0,0-2.2-1.3-2.5-2.7c-0.1-0.9,0.5-1.8,1.6-1.9
			c0.4,0,1.2,0.1,1.5,0.2c-1.8-1.8-2.8-3-2.7-3.4c0.4-0.4,1.7-2.1,1.7-3.4c0-0.9-1.3-2.9-1.3-2.9l0.3-0.2l3.5,4.4c0,0-1.7,2-1.7,3.4
			c0,1,0.6,1.8,1.1,2.3c0.2,0.3,1,1.1,1,1.2l0,0.3C1327.3,354.7,1326.8,354.6,1326.4,354.6z"/>
	</g>
	<line fill="none" stroke="#000000" stroke-width="0.459" x1="1337" y1="354.8" x2="1337" y2="338.8"/>
	<g enable-background="new    ">
		<path d="M1335.7,353.5c1.4,0,2.2,1,1.8,2.2c-0.4,1.2-1.9,2.2-3.4,2.2c-1.4,0-2.2-1-1.7-2.2
			C1332.8,354.4,1334.3,353.5,1335.7,353.5z"/>
	</g>
	<line fill="none" stroke="#000000" stroke-width="0.459" x1="1346.2" y1="352.4" x2="1346.2" y2="336.4"/>
	<g enable-background="new    ">
		<path d="M1344.9,351.1c1.4,0,2.2,1,1.8,2.2c-0.4,1.2-1.9,2.2-3.4,2.2c-1.4,0-2.2-1-1.7-2.2C1342,352,1343.5,351.1,1344.9,351.1z"
			/>
	</g>
	<line fill="none" stroke="#000000" stroke-width="0.459" x1="1355.4" y1="354.8" x2="1355.4" y2="338.8"/>
	<g enable-background="new    ">
		<path d="M1354.1,353.5c1.4,0,2.2,1,1.8,2.2c-0.4,1.2-1.9,2.2-3.4,2.2c-1.4,0-2.2-1-1.7-2.2
			C1351.2,354.4,1352.7,353.5,1354.1,353.5z"/>
	</g>
	<g enable-background="new    ">
		<path d="M1325.9,324l0.8,0.2c-0.2,0.6-0.4,1.1-0.9,1.4s-0.9,0.5-1.5,0.5c-0.6,0-1.1-0.1-1.5-0.4s-0.7-0.6-0.9-1.1s-0.3-1-0.3-1.5
			c0-0.6,0.1-1.1,0.3-1.6s0.6-0.8,1-1s0.9-0.3,1.4-0.3c0.6,0,1.1,0.1,1.4,0.4s0.7,0.7,0.8,1.2l-0.7,0.2c-0.1-0.4-0.3-0.7-0.6-0.9
			s-0.6-0.3-1-0.3c-0.4,0-0.8,0.1-1.1,0.3s-0.5,0.5-0.6,0.8s-0.2,0.7-0.2,1.1c0,0.5,0.1,0.9,0.2,1.3s0.4,0.6,0.7,0.8s0.6,0.3,1,0.3
			c0.4,0,0.8-0.1,1.1-0.4S1325.8,324.5,1325.9,324z"/>
	</g>
	<g enable-background="new    ">
		<path d="M1342,337v-5.7h4.1v0.7h-3.4v1.8h3.2v0.7h-3.2v1.9h3.5v0.7H1342z"/>
	</g>
	<g enable-background="new    ">
		<path d="M1347.6,330.8c0,0.1,0,1,0,1c0.6-0.5,0.9-0.7,1.6-0.7c0.8,0,1.3,0.8,1.3,1.4c0,0.3-0.1,0.7-0.2,1
			c-0.1,0.4-0.5,0.6-0.8,0.9c-0.3,0.3-2.4,1.7-2.4,1.7v-9.5h0.4C1347.6,326.7,1347.6,328.7,1347.6,330.8z M1347.8,332.4
			c-0.2,0.4-0.2,1.1-0.2,1.6v1.4c0,0,0.6-0.5,0.9-0.8c0.3-0.3,0.5-0.6,0.6-1.1c0.1-0.5,0.1-1-0.2-1.3
			C1348.7,331.9,1348.1,331.7,1347.8,332.4z"/>
	</g>
	<g enable-background="new    ">
		<path d="M1353.1,337v-0.5c-0.2,0.4-0.6,0.6-1,0.6c-0.3,0-0.6-0.1-0.8-0.2c-0.2-0.2-0.4-0.4-0.6-0.7c-0.1-0.3-0.2-0.6-0.2-1
			c0-0.4,0.1-0.7,0.2-1c0.1-0.3,0.3-0.5,0.6-0.7c0.2-0.2,0.5-0.2,0.8-0.2c0.2,0,0.4,0,0.6,0.1s0.3,0.2,0.4,0.4v-1.8h0.6v5.2H1353.1z
			 M1351.1,335.1c0,0.5,0.1,0.8,0.3,1.1c0.2,0.2,0.4,0.4,0.7,0.4s0.5-0.1,0.7-0.3c0.2-0.2,0.3-0.6,0.3-1c0-0.5-0.1-0.9-0.3-1.1
			s-0.4-0.4-0.7-0.4c-0.3,0-0.5,0.1-0.7,0.3C1351.2,334.3,1351.1,334.6,1351.1,335.1z"/>
	</g>
	<g enable-background="new    ">
		<path d="M1354.7,332.6v-0.7h0.6v0.7H1354.7z M1354.7,337v-3.7h0.6v3.7H1354.7z"/>
	</g>
	<g enable-background="new    ">
		<path d="M1356.3,337v-3.7h0.6v0.5c0.1-0.2,0.3-0.3,0.5-0.4c0.2-0.1,0.4-0.2,0.7-0.2c0.3,0,0.5,0.1,0.7,0.2
			c0.2,0.1,0.3,0.3,0.4,0.5c0.3-0.4,0.7-0.7,1.2-0.7c0.4,0,0.7,0.1,0.9,0.3s0.3,0.5,0.3,0.9v2.6h-0.6v-2.4c0-0.3,0-0.4-0.1-0.5
			s-0.1-0.2-0.2-0.3c-0.1-0.1-0.2-0.1-0.4-0.1c-0.3,0-0.5,0.1-0.7,0.3s-0.3,0.5-0.3,0.8v2.2h-0.6v-2.4c0-0.3-0.1-0.5-0.2-0.6
			s-0.3-0.2-0.5-0.2c-0.2,0-0.3,0-0.5,0.1s-0.3,0.2-0.3,0.4c-0.1,0.2-0.1,0.4-0.1,0.8v1.9H1356.3z"/>
	</g>
	<line fill="none" stroke="#000000" stroke-width="0.459" x1="1370.8" y1="352.4" x2="1370.8" y2="336.4"/>
	<g enable-background="new    ">
		<path d="M1370.3,353.3c-0.3,0.9-1,1.5-1.6,1.8c-0.5,0.3-1.2,0.4-2,0.3c-0.5,0-1.3-0.2-1.6-0.7c-0.3-0.6-0.1-1.2,0-1.6
			c0.3-0.8,1-1.4,1.5-1.7c0.5-0.3,1.3-0.5,2.2-0.4c0.4,0,1.1,0.1,1.5,0.7C1370.6,352.2,1370.4,353,1370.3,353.3z M1368.3,352
			c-0.4,0.2-0.7,0.4-1,0.5c-0.3,0.2-0.6,0.4-1,0.6c-0.5,0.3-1.1,0.9-0.8,1.4c0.3,0.6,1.1,0.3,1.6,0c0.4-0.2,0.7-0.4,1-0.5
			c0.3-0.2,0.6-0.4,1-0.6c0.5-0.3,1.1-0.9,0.8-1.4C1369.7,351.4,1368.9,351.7,1368.3,352z"/>
	</g>
	<line fill="none" stroke="#000000" stroke-width="0.459" x1="1389.2" y1="352.4" x2="1389.2" y2="336.4"/>
	<g enable-background="new    ">
		<path d="M1388.7,353.3c-0.3,0.9-1,1.5-1.6,1.8c-0.5,0.3-1.2,0.4-2,0.3c-0.5,0-1.3-0.2-1.6-0.7c-0.3-0.6-0.1-1.2,0-1.6
			c0.3-0.8,1-1.4,1.5-1.7c0.5-0.3,1.3-0.5,2.2-0.4c0.4,0,1.1,0.1,1.5,0.7C1389,352.2,1388.8,353,1388.7,353.3z M1386.7,352
			c-0.4,0.2-0.7,0.4-1,0.5c-0.3,0.2-0.6,0.4-1,0.6c-0.5,0.3-1.1,0.9-0.8,1.4c0.3,0.6,1.1,0.3,1.6,0c0.4-0.2,0.7-0.4,1-0.5
			c0.3-0.2,0.6-0.4,1-0.6c0.5-0.3,1.1-0.9,0.8-1.4C1388.1,351.4,1387.3,351.7,1386.7,352z"/>
	</g>
	<g enable-background="new    ">
		<path d="M1365.6,337v-5.7h2c0.4,0,0.8,0,1,0.1c0.3,0.1,0.6,0.2,0.8,0.4c0.3,0.3,0.5,0.6,0.7,1s0.2,0.9,0.2,1.4
			c0,0.4-0.1,0.8-0.2,1.2s-0.2,0.6-0.4,0.8s-0.3,0.4-0.5,0.5s-0.4,0.2-0.7,0.3s-0.6,0.1-0.9,0.1H1365.6z M1366.4,336.3h1.2
			c0.4,0,0.7,0,0.9-0.1s0.4-0.2,0.5-0.3c0.2-0.2,0.3-0.4,0.4-0.7s0.2-0.7,0.2-1.1c0-0.6-0.1-1.1-0.3-1.4s-0.4-0.5-0.7-0.6
			c-0.2-0.1-0.5-0.1-1-0.1h-1.2V336.3z"/>
	</g>
	<g enable-background="new    ">
		<path d="M1372.3,337v-3.7h0.6v0.5c0.1-0.2,0.3-0.3,0.5-0.4c0.2-0.1,0.4-0.2,0.7-0.2c0.3,0,0.5,0.1,0.7,0.2
			c0.2,0.1,0.3,0.3,0.4,0.5c0.3-0.4,0.7-0.7,1.2-0.7c0.4,0,0.7,0.1,0.9,0.3s0.3,0.5,0.3,0.9v2.6h-0.6v-2.4c0-0.3,0-0.4-0.1-0.5
			s-0.1-0.2-0.2-0.3c-0.1-0.1-0.2-0.1-0.4-0.1c-0.3,0-0.5,0.1-0.7,0.3s-0.3,0.5-0.3,0.8v2.2h-0.6v-2.4c0-0.3-0.1-0.5-0.2-0.6
			s-0.3-0.2-0.5-0.2c-0.2,0-0.3,0-0.5,0.1s-0.3,0.2-0.3,0.4c-0.1,0.2-0.1,0.4-0.1,0.8v1.9H1372.3z"/>
	</g>
	<g enable-background="new    ">
		<path d="M1410.4,354.6c-0.8,0-1.5,0.5-1.5,1.4c0,0.6,1,1.5,1,1.5l-0.2,0.2c0,0-2.2-1.3-2.5-2.7c-0.1-0.9,0.5-1.8,1.6-1.9
			c0.4,0,1.2,0.1,1.5,0.2c-1.8-1.8-2.8-3-2.7-3.4c0.4-0.4,1.7-2.1,1.7-3.4c0-0.9-1.3-2.9-1.3-2.9l0.3-0.2l3.5,4.4c0,0-1.7,2-1.7,3.4
			c0,1,0.6,1.8,1.1,2.3c0.2,0.3,1,1.1,1,1.2l0,0.3C1411.3,354.7,1410.8,354.6,1410.4,354.6z"/>
	</g>
	<line fill="none" stroke="#000000" stroke-width="0.459" x1="1416.4" y1="351.6" x2="1416.4" y2="367.6"/>
	<g enable-background="new    ">
		<path d="M1419.7,348.7c1.4,0,2.2,1,1.8,2.2c-0.4,1.2-1.9,2.2-3.4,2.2c-1.4,0-2.2-1-1.7-2.2
			C1416.8,349.6,1418.3,348.7,1419.7,348.7z"/>
	</g>
	<line fill="none" stroke="#000000" stroke-width="0.459" x1="1425.6" y1="349.2" x2="1425.6" y2="365.2"/>
	<g enable-background="new    ">
		<path d="M1428.9,346.3c1.4,0,2.2,1,1.8,2.2c-0.4,1.2-1.9,2.2-3.4,2.2c-1.4,0-2.2-1-1.7-2.2C1426,347.2,1427.5,346.3,1428.9,346.3z
			"/>
	</g>
	<line fill="none" stroke="#000000" stroke-width="0.459" x1="1434.8" y1="346.8" x2="1434.8" y2="362.8"/>
	<g enable-background="new    ">
		<path d="M1438.1,343.9c1.4,0,2.2,1,1.8,2.2c-0.4,1.2-1.9,2.2-3.4,2.2c-1.4,0-2.2-1-1.7-2.2
			C1435.2,344.8,1436.7,343.9,1438.1,343.9z"/>
	</g>
	<g enable-background="new    ">
		<path d="M1410.3,334.8v-0.7l2.4,0v2.1c-0.4,0.3-0.8,0.5-1.2,0.7s-0.8,0.2-1.2,0.2c-0.6,0-1.1-0.1-1.5-0.4s-0.8-0.6-1-1
			s-0.4-1-0.4-1.5c0-0.6,0.1-1.1,0.3-1.6s0.6-0.8,1-1.1s0.9-0.4,1.5-0.4c0.4,0,0.8,0.1,1.1,0.2s0.6,0.3,0.8,0.6s0.3,0.6,0.4,0.9
			l-0.7,0.2c-0.1-0.3-0.2-0.5-0.3-0.7s-0.3-0.3-0.5-0.4s-0.5-0.2-0.8-0.2c-0.3,0-0.6,0.1-0.9,0.2s-0.5,0.2-0.6,0.4s-0.3,0.4-0.4,0.6
			c-0.1,0.4-0.2,0.7-0.2,1.2c0,0.5,0.1,0.9,0.3,1.3s0.4,0.6,0.8,0.8s0.7,0.2,1.1,0.2c0.3,0,0.6-0.1,1-0.2s0.5-0.3,0.7-0.4v-1.1
			H1410.3z"/>
	</g>
	<g enable-background="new    ">
		<path d="M1452.3,346.1c1.9,0,3.6,0.7,3.8,2.3c0.1,1.1-1.4,2.2-3.3,2.2c-1.9,0-3.6-0.7-3.8-2.3
			C1448.9,347.2,1450.4,346.1,1452.3,346.1z M1452.7,350.2c0.8,0,1.3-0.8,1.2-1.4c-0.2-1.2-0.6-2.2-1.7-2.2c-0.8,0-1.3,0.8-1.2,1.4
			C1451.3,349.3,1451.6,350.2,1452.7,350.2z"/>
	</g>
	<g enable-background="new    ">
		<path d="M1453.7,335l0.8,0.2c-0.2,0.6-0.4,1.1-0.9,1.4s-0.9,0.5-1.5,0.5c-0.6,0-1.1-0.1-1.5-0.4s-0.7-0.6-0.9-1.1s-0.3-1-0.3-1.5
			c0-0.6,0.1-1.1,0.3-1.6s0.6-0.8,1-1s0.9-0.3,1.4-0.3c0.6,0,1.1,0.1,1.4,0.4s0.7,0.7,0.8,1.2l-0.7,0.2c-0.1-0.4-0.3-0.7-0.6-0.9
			s-0.6-0.3-1-0.3c-0.4,0-0.8,0.1-1.1,0.3s-0.5,0.5-0.6,0.8s-0.2,0.7-0.2,1.1c0,0.5,0.1,0.9,0.2,1.3s0.4,0.6,0.7,0.8s0.6,0.3,1,0.3
			c0.4,0,0.8-0.1,1.1-0.4S1453.6,335.5,1453.7,335z"/>
	</g>
</g>
</svg>
