<?xml version="1.0" encoding="utf-8"?>
<!-- Generator: Adobe Illustrator 16.0.0, SVG Export Plug-In . SVG Version: 6.00 Build 0)  -->
<!DOCTYPE svg PUBLIC "-//W3C//DTD SVG 1.1//EN" "http://www.w3.org/Graphics/SVG/1.1/DTD/svg11.dtd">
<svg version="1.1" id="Layer_1" xmlns="http://www.w3.org/2000/svg" xmlns:xlink="http://www.w3.org/1999/xlink" x="0px" y="0px"
	 width="2880px" height="49.3px" viewBox="928 176.3 2880 49.3" enable-background="new 928 176.3 2880 49.3" xml:space="preserve">
<g id="Music">
	<rect x="928" y="117.3" fill="#FFFFFF" width="2880" height="425.2"/>
	<line fill="none" stroke="#000000" stroke-width="0.459" x1="956.4" y1="133.3" x2="956.4" y2="498.1"/>
	<g enable-background="new    ">
		<path d="M966.2,209.8c-4-1.9-4.6-4.3-4.8-6.8c-0.2-2.7,1.5-5.4,3.1-6.9c0.9-0.9,1.9-1.7,3.1-2.6c0-0.7-0.2-0.9-0.3-1.9
			c0-0.4-0.3-2.3,0.1-4.5c0.2-1.3,1.9-4.3,3-4.3c0.9,0,2.2,3.4,2.2,5.2c0.1,2.7-0.6,3.9-1.4,5.3c-0.4,0.7-0.8,1.2-1.3,1.7
			c-0.5,0.6-1,0.9-1.5,1.3c0,0,0.6,3.5,0.6,3.7c1.2-0.2,2.7,0.3,3.3,0.7c1.4,1,1.9,2.4,2,3.8c0.2,2.2-1,4.5-3.6,5.5
			c0,0,0.4,2.8,0.5,3.3c0.2,1.5,0.2,2.5-0.2,3.1c-0.6,1-1.5,2-3.2,2.1c-1.3,0.1-4-0.6-4.1-2.7c-0.1-1.2,0.5-2.6,2-2.7
			c0.9-0.1,2,0.7,2.1,1.8c0.1,0.9-0.5,1.9-2.1,2.4c0.2,0.3,1,0.7,2.1,0.7c1.1,0,2.3-0.7,2.8-1.7c0.3-0.7,0.3-1.8,0.2-2.9
			c-0.1-0.4-0.5-3.3-0.5-3.3C968.9,210.4,967,210.2,966.2,209.8z M966.5,205.3c0,0.9,0.8,2,1.5,2.4c-0.1,0.1-0.2,0.2-0.2,0.2
			c-0.8-0.4-1.5-1-1.6-1.2c-0.6-0.7-0.8-1.2-0.9-2.3c-0.1-1.1,0.5-2.5,1.8-3.5c0.7-0.5,1-0.6,1.6-0.7l-0.6-3.5
			c-0.6,0.3-3.1,2.3-4.1,3.9c-0.9,1.4-1.5,2.6-1.4,4c0.2,3.2,3.7,5.8,7.5,4.9c0,0-1.1-6.8-1.1-6.8
			C967,202.8,966.5,204.4,966.5,205.3z M968.1,193.1c1.7-1.3,3.9-3.8,3.8-5.7c0-0.6-0.3-1.7-1.2-1.7
			C968.8,185.8,967.7,190,968.1,193.1z M970.7,209.3c2.2-0.7,2.3-2.6,2.2-3.8c-0.1-0.9-0.5-3.1-3.3-2.9L970.7,209.3z"/>
	</g>
	<g enable-background="new    ">
		<path d="M986.6,207.4v1.3c0,0.8,0.9,0.7,0.9,0.7v0.5h-4.2v-0.5c0,0,0.9,0,0.9-0.7v-1.3h-3.6l-0.3-0.4c2.3-3.1,2.3-3.7,2.9-6.5h3.3
			c-0.8,1.5-3.4,4.2-5.3,6.4h3v-2.4l2.3-2.6v4.9h1.4v0.5H986.6z"/>
	</g>
	<g enable-background="new    ">
		<path d="M986.6,197.8v1.3c0,0.8,0.9,0.7,0.9,0.7v0.5h-4.2v-0.5c0,0,0.9,0,0.9-0.7v-1.3h-3.6l-0.3-0.4c2.3-3.1,2.3-3.7,2.9-6.5h3.3
			c-0.8,1.5-3.4,4.2-5.3,6.4h3v-2.4l2.3-2.6v4.9h1.4v0.5H986.6z"/>
	</g>
	<line fill="none" stroke="#000000" stroke-width="0.459" x1="1060" y1="190.9" x2="1060" y2="210.1"/>
	<line fill="none" stroke="#000000" stroke-width="0.459" x1="1129.6" y1="190.9" x2="1129.6" y2="210.1"/>
	<line fill="none" stroke="#000000" stroke-width="0.459" x1="1199.2" y1="190.9" x2="1199.2" y2="210.1"/>
	<line fill="none" stroke="#000000" stroke-width="0.459" x1="1268.8" y1="190.9" x2="1268.8" y2="210.1"/>
	<line fill="none" stroke="#000000" stroke-width="0.459" x1="1338.4" y1="190.9" x2="1338.4" y2="210.1"/>
	<line fill="none" stroke="#000000" stroke-width="0.459" x1="1408" y1="190.9" x2="1408" y2="210.1"/>
	<line fill="none" stroke="#000000" stroke-width="0.459" x1="1477.6" y1="190.9" x2="1477.6" y2="210.1"/>
	<line fill="none" stroke="#000000" stroke-width="0.459" x1="1547.2" y1="190.9" x2="1547.2" y2="210.1"/>
	<line fill="none" stroke="#000000" stroke-width="0.459" x1="1616.8" y1="190.9" x2="1616.8" y2="210.1"/>
	<line fill="none" stroke="#000000" stroke-width="0.459" x1="1686.4" y1="190.9" x2="1686.4" y2="210.1"/>
	<line fill="none" stroke="#000000" stroke-width="0.459" x1="1756" y1="190.9" x2="1756" y2="210.1"/>
	<line fill="none" stroke="#000000" stroke-width="0.459" x1="1825.6" y1="190.9" x2="1825.6" y2="210.1"/>
	<line fill="none" stroke="#000000" stroke-width="0.459" x1="1895.2" y1="190.9" x2="1895.2" y2="210.1"/>
	<line fill="none" stroke="#000000" stroke-width="0.459" x1="1964.8" y1="190.9" x2="1964.8" y2="210.1"/>
	<line fill="none" stroke="#000000" stroke-width="0.459" x1="2034.4" y1="190.9" x2="2034.4" y2="210.1"/>
	<line fill="none" stroke="#000000" stroke-width="0.459" x1="2104" y1="190.9" x2="2104" y2="210.1"/>
	<line fill="none" stroke="#000000" stroke-width="0.459" x1="2173.6" y1="190.9" x2="2173.6" y2="210.1"/>
	<line fill="none" stroke="#000000" stroke-width="0.459" x1="2243.2" y1="190.9" x2="2243.2" y2="210.1"/>
	<line fill="none" stroke="#000000" stroke-width="0.459" x1="2312.8" y1="190.9" x2="2312.8" y2="210.1"/>
	<line fill="none" stroke="#000000" stroke-width="0.459" x1="2382.4" y1="190.9" x2="2382.4" y2="210.1"/>
	<line fill="none" stroke="#000000" stroke-width="0.459" x1="2452" y1="190.9" x2="2452" y2="210.1"/>
	<line fill="none" stroke="#000000" stroke-width="0.459" x1="2521.6" y1="190.9" x2="2521.6" y2="210.1"/>
	<line fill="none" stroke="#000000" stroke-width="0.459" x1="2591.2" y1="190.9" x2="2591.2" y2="210.1"/>
	<line fill="none" stroke="#000000" stroke-width="0.459" x1="2660.8" y1="190.9" x2="2660.8" y2="210.1"/>
	<line fill="none" stroke="#000000" stroke-width="0.459" x1="2730.4" y1="190.9" x2="2730.4" y2="210.1"/>
	<line fill="none" stroke="#000000" stroke-width="0.459" x1="2800" y1="190.9" x2="2800" y2="210.1"/>
	<line fill="none" stroke="#000000" stroke-width="0.459" x1="2869.6" y1="190.9" x2="2869.6" y2="210.1"/>
	<line fill="none" stroke="#000000" stroke-width="0.459" x1="2939.2" y1="190.9" x2="2939.2" y2="210.1"/>
	<line fill="none" stroke="#000000" stroke-width="0.459" x1="3008.8" y1="190.9" x2="3008.8" y2="210.1"/>
	<line fill="none" stroke="#000000" stroke-width="0.459" x1="3078.4" y1="190.9" x2="3078.4" y2="210.1"/>
	<line fill="none" stroke="#000000" stroke-width="0.459" x1="3148" y1="190.9" x2="3148" y2="210.1"/>
	<line fill="none" stroke="#000000" stroke-width="0.459" x1="3217.6" y1="190.9" x2="3217.6" y2="210.1"/>
	<line fill="none" stroke="#000000" stroke-width="0.459" x1="3287.2" y1="190.9" x2="3287.2" y2="210.1"/>
	<line fill="none" stroke="#000000" stroke-width="0.459" x1="3356.8" y1="190.9" x2="3356.8" y2="210.1"/>
	<line fill="none" stroke="#000000" stroke-width="0.459" x1="3426.4" y1="190.9" x2="3426.4" y2="210.1"/>
	<line fill="none" stroke="#000000" stroke-width="0.459" x1="3496" y1="190.9" x2="3496" y2="210.1"/>
	<line fill="none" stroke="#000000" stroke-width="0.459" x1="3565.6" y1="190.9" x2="3565.6" y2="210.1"/>
	<line fill="none" stroke="#000000" stroke-width="0.459" x1="3635.2" y1="190.9" x2="3635.2" y2="210.1"/>
	<line fill="none" stroke="#000000" stroke-width="0.459" x1="3704.8" y1="190.9" x2="3704.8" y2="210.1"/>
	<line fill="none" stroke="#000000" stroke-width="2.419" x1="3778.6" y1="190.9" x2="3778.6" y2="210.1"/>
	<line fill="none" stroke="#000000" stroke-width="0.459" x1="3774.7" y1="190.9" x2="3774.7" y2="210.1"/>
	<line fill="none" stroke="#000000" stroke-width="0.459" x1="956.2" y1="190.9" x2="3779.8" y2="190.9"/>
	<line fill="none" stroke="#000000" stroke-width="0.459" x1="956.2" y1="195.7" x2="3779.8" y2="195.7"/>
	<line fill="none" stroke="#000000" stroke-width="0.459" x1="956.2" y1="200.5" x2="3779.8" y2="200.5"/>
	<line fill="none" stroke="#000000" stroke-width="0.459" x1="956.2" y1="205.3" x2="3779.8" y2="205.3"/>
	<line fill="none" stroke="#000000" stroke-width="0.459" x1="956.2" y1="210.1" x2="3779.8" y2="210.1"/>
	<line fill="none" stroke="#000000" stroke-width="0.459" x1="997" y1="198.9" x2="997" y2="214.9"/>
	<g enable-background="new    ">
		<path d="M1002.9,198.2c-0.4,1-1.2,1.8-1.8,2.1c-0.6,0.3-1.4,0.4-2.2,0.4c-0.5,0-1.5-0.2-1.8-0.8c-0.4-0.7-0.1-1.4,0-1.8
			c0.4-1,1.1-1.6,1.7-2c0.6-0.3,1.5-0.6,2.5-0.5c0.4,0.1,1.3,0.1,1.7,0.8C1003.2,196.9,1003,197.9,1002.9,198.2z M1000.6,196.7
			c-0.4,0.2-0.7,0.4-1.1,0.6c-0.4,0.2-0.7,0.4-1.1,0.7c-0.6,0.3-1.3,1-0.9,1.6c0.4,0.6,1.3,0.3,1.9,0c0.4-0.2,0.8-0.4,1.2-0.6
			s0.7-0.4,1.1-0.7c0.5-0.3,1.3-1,0.9-1.6C1002.1,196.1,1001.2,196.4,1000.6,196.7z"/>
	</g>
	<g enable-background="new    ">
		<path d="M1031.6,197.2c0.6,0,1,0.4,1,1c0,0.5-0.4,1-1,1s-1-0.4-1-1C1030.6,197.6,1031,197.2,1031.6,197.2z"/>
	</g>
	<line fill="none" stroke="#000000" stroke-width="0.459" x1="1022.6" y1="201.3" x2="1022.6" y2="217.3"/>
	<g enable-background="new    ">
		<path d="M1026.4,198.1c1.6,0,2.5,1.1,2,2.5c-0.5,1.4-2.2,2.5-3.8,2.5c-1.6,0-2.5-1.2-2-2.5
			C1023.1,199.2,1024.8,198.1,1026.4,198.1z"/>
	</g>
	<g enable-background="new    ">
		<path d="M1052.6,188.2c0.6,0.9,1.4,1.9,2.1,3.1c0.6,1.1,1.2,2.7,1.2,3.5c0.1,0.8,0.2,1.6,0.2,2.3c0,1.2-0.2,2.2-0.6,3.3l-0.2,0
			c0.3-0.9,0.5-2.2,0.5-3.3c0-0.9-0.2-2.1-0.5-3.1c-0.6-1.7-1.5-2.7-2.1-3.1c-0.8-0.6-1.8-0.6-1.8-0.6h-0.3v-5h0.3
			C1051.5,186.3,1052,187.4,1052.6,188.2z"/>
	</g>
	<line fill="none" stroke="#000000" stroke-width="0.459" x1="1051" y1="202.1" x2="1051" y2="186.1"/>
	<g enable-background="new    ">
		<path d="M1049.2,200.5c1.6,0,2.5,1.1,2,2.5c-0.5,1.4-2.2,2.5-3.8,2.5c-1.6,0-2.5-1.2-2-2.5
			C1045.9,201.6,1047.6,200.5,1049.2,200.5z"/>
	</g>
	<g enable-background="new    ">
		<path d="M1074.4,202c0.6,0,1,0.4,1,1c0,0.5-0.4,1-1,1s-1-0.4-1-1C1073.4,202.4,1073.8,202,1074.4,202z"/>
	</g>
	<line fill="none" stroke="#000000" stroke-width="0.459" x1="1071" y1="204.5" x2="1071" y2="188.5"/>
	<g enable-background="new    ">
		<path d="M1071.3,205.4c-0.4,1-1.2,1.8-1.8,2.1c-0.6,0.3-1.4,0.4-2.2,0.4c-0.5,0-1.5-0.2-1.8-0.8c-0.4-0.7-0.1-1.4,0-1.8
			c0.4-1,1.1-1.6,1.7-2c0.6-0.3,1.5-0.6,2.5-0.5c0.4,0.1,1.3,0.1,1.7,0.8C1071.6,204.1,1071.4,205.1,1071.3,205.4z M1069,203.9
			c-0.4,0.2-0.7,0.4-1.1,0.6c-0.4,0.2-0.7,0.4-1.1,0.7c-0.6,0.3-1.3,1-0.9,1.6c0.4,0.6,1.3,0.3,1.9,0c0.4-0.2,0.8-0.4,1.2-0.6
			s0.7-0.4,1.1-0.7c0.5-0.3,1.3-1,0.9-1.6C1070.5,203.3,1069.6,203.6,1069,203.9z"/>
	</g>
	<line fill="none" stroke="#000000" stroke-width="0.459" x1="1116.4" y1="206.9" x2="1116.4" y2="190.9"/>
	<g enable-background="new    ">
		<path d="M1114.6,205.3c1.6,0,2.5,1.1,2,2.5c-0.5,1.4-2.2,2.5-3.8,2.5c-1.6,0-2.5-1.2-2-2.5C1111.3,206.4,1113,205.3,1114.6,205.3z
			"/>
	</g>
	<line fill="none" stroke="#000000" stroke-width="0.459" x1="1140.6" y1="209.3" x2="1140.6" y2="193.3"/>
	<g enable-background="new    ">
		<path d="M1140.9,210.2c-0.4,1-1.2,1.8-1.8,2.1c-0.6,0.3-1.4,0.4-2.2,0.4c-0.5,0-1.5-0.2-1.8-0.8c-0.4-0.7-0.1-1.4,0-1.8
			c0.4-1,1.1-1.6,1.7-2c0.6-0.3,1.5-0.6,2.5-0.5c0.4,0.1,1.3,0.1,1.7,0.8C1141.2,208.9,1141,209.9,1140.9,210.2z M1138.6,208.7
			c-0.4,0.2-0.7,0.4-1.1,0.6c-0.4,0.2-0.7,0.4-1.1,0.7c-0.6,0.3-1.3,1-0.9,1.6c0.4,0.6,1.3,0.3,1.9,0c0.4-0.2,0.8-0.4,1.2-0.6
			s0.7-0.4,1.1-0.7c0.5-0.3,1.3-1,0.9-1.6C1140.1,208.1,1139.2,208.4,1138.6,208.7z"/>
	</g>
	<line fill="none" stroke="#000000" stroke-width="0.459" x1="1172.8" y1="211.7" x2="1172.8" y2="195.7"/>
	<g enable-background="new    ">
		<path d="M1173.1,212.6c-0.4,1-1.2,1.8-1.8,2.1c-0.6,0.3-1.4,0.4-2.2,0.4c-0.5,0-1.5-0.2-1.8-0.8c-0.4-0.7-0.1-1.4,0-1.8
			c0.4-1,1.1-1.6,1.7-2c0.6-0.3,1.5-0.6,2.5-0.5c0.4,0.1,1.3,0.1,1.7,0.8C1173.4,211.3,1173.2,212.3,1173.1,212.6z M1170.8,211.1
			c-0.4,0.2-0.7,0.4-1.1,0.6c-0.4,0.2-0.7,0.4-1.1,0.7c-0.6,0.3-1.3,1-0.9,1.6c0.4,0.6,1.3,0.3,1.9,0c0.4-0.2,0.8-0.4,1.2-0.6
			s0.7-0.4,1.1-0.7c0.5-0.3,1.3-1,0.9-1.6C1172.3,210.5,1171.4,210.8,1170.8,211.1z"/>
	</g>
	<g enable-background="new    ">
		<path d="M1214.8,211.6c0.6,0,1,0.4,1,1c0,0.5-0.4,1-1,1s-1-0.4-1-1C1213.8,212,1214.2,211.6,1214.8,211.6z"/>
	</g>
	<line fill="none" stroke="#000000" stroke-width="0.459" x1="1211.4" y1="214.1" x2="1211.4" y2="198.1"/>
	<line fill="none" stroke="#000000" stroke-width="0.459" x1="1204.4" y1="214.9" x2="1212.8" y2="214.9"/>
	<g enable-background="new    ">
		<path d="M1211.7,215c-0.4,1-1.2,1.8-1.8,2.1c-0.6,0.3-1.4,0.4-2.2,0.4c-0.5,0-1.5-0.2-1.8-0.8c-0.4-0.7-0.1-1.4,0-1.8
			c0.4-1,1.1-1.6,1.7-2c0.6-0.3,1.5-0.6,2.5-0.5c0.4,0.1,1.3,0.1,1.7,0.8C1212,213.7,1211.8,214.7,1211.7,215z M1209.4,213.5
			c-0.4,0.2-0.7,0.4-1.1,0.6c-0.4,0.2-0.7,0.4-1.1,0.7c-0.6,0.3-1.3,1-0.9,1.6c0.4,0.6,1.3,0.3,1.9,0c0.4-0.2,0.8-0.4,1.2-0.6
			s0.7-0.4,1.1-0.7c0.5-0.3,1.3-1,0.9-1.6C1210.9,212.9,1210,213.2,1209.4,213.5z"/>
	</g>
	<line fill="none" stroke="#000000" stroke-width="0.459" x1="1256" y1="204.5" x2="1256" y2="188.5"/>
	<g enable-background="new    ">
		<path d="M1254.2,202.9c1.6,0,2.5,1.1,2,2.5c-0.5,1.4-2.2,2.5-3.8,2.5c-1.6,0-2.5-1.2-2-2.5C1250.9,204,1252.6,202.9,1254.2,202.9z
			"/>
	</g>
	<g enable-background="new    ">
		<path d="M1283.2,202c0.6,0,1,0.4,1,1c0,0.5-0.4,1-1,1s-1-0.4-1-1C1282.2,202.4,1282.6,202,1283.2,202z"/>
	</g>
	<line fill="none" stroke="#000000" stroke-width="0.459" x1="1279.8" y1="202.1" x2="1279.8" y2="186.1"/>
	<g enable-background="new    ">
		<path d="M1280.1,203c-0.4,1-1.2,1.8-1.8,2.1c-0.6,0.3-1.4,0.4-2.2,0.4c-0.5,0-1.5-0.2-1.8-0.8c-0.4-0.7-0.1-1.4,0-1.8
			c0.4-1,1.1-1.6,1.7-2c0.6-0.3,1.5-0.6,2.5-0.5c0.4,0.1,1.3,0.1,1.7,0.8C1280.4,201.7,1280.2,202.7,1280.1,203z M1277.8,201.5
			c-0.4,0.2-0.7,0.4-1.1,0.6c-0.4,0.2-0.7,0.4-1.1,0.7c-0.6,0.3-1.3,1-0.9,1.6c0.4,0.6,1.3,0.3,1.9,0c0.4-0.2,0.8-0.4,1.2-0.6
			s0.7-0.4,1.1-0.7c0.5-0.3,1.3-1,0.9-1.6C1279.3,200.9,1278.4,201.2,1277.8,201.5z"/>
	</g>
	<line fill="none" stroke="#000000" stroke-width="0.459" x1="1325.2" y1="202.1" x2="1325.2" y2="186.1"/>
	<g enable-background="new    ">
		<path d="M1323.4,200.5c1.6,0,2.5,1.1,2,2.5c-0.5,1.4-2.2,2.5-3.8,2.5c-1.6,0-2.5-1.2-2-2.5
			C1320.1,201.6,1321.8,200.5,1323.4,200.5z"/>
	</g>
	<g enable-background="new    ">
		<path d="M1352.8,197.2c0.6,0,1,0.4,1,1c0,0.5-0.4,1-1,1s-1-0.4-1-1C1351.8,197.6,1352.2,197.2,1352.8,197.2z"/>
	</g>
	<line fill="none" stroke="#000000" stroke-width="0.459" x1="1343.8" y1="201.3" x2="1343.8" y2="217.3"/>
	<g enable-background="new    ">
		<path d="M1349.7,200.6c-0.4,1-1.2,1.8-1.8,2.1c-0.6,0.3-1.4,0.4-2.2,0.4c-0.5,0-1.5-0.2-1.8-0.8c-0.4-0.7-0.1-1.4,0-1.8
			c0.4-1,1.1-1.6,1.7-2c0.6-0.3,1.5-0.6,2.5-0.5c0.4,0.1,1.3,0.1,1.7,0.8C1350,199.3,1349.8,200.3,1349.7,200.6z M1347.4,199.1
			c-0.4,0.2-0.7,0.4-1.1,0.6c-0.4,0.2-0.7,0.4-1.1,0.7c-0.6,0.3-1.3,1-0.9,1.6c0.4,0.6,1.3,0.3,1.9,0c0.4-0.2,0.8-0.4,1.2-0.6
			s0.7-0.4,1.1-0.7c0.5-0.3,1.3-1,0.9-1.6C1348.9,198.5,1348,198.8,1347.4,199.1z"/>
	</g>
	<line fill="none" stroke="#000000" stroke-width="0.459" x1="1389.2" y1="201.3" x2="1389.2" y2="217.3"/>
	<g enable-background="new    ">
		<path d="M1393,198.1c1.6,0,2.5,1.1,2,2.5c-0.5,1.4-2.2,2.5-3.8,2.5c-1.6,0-2.5-1.2-2-2.5C1389.7,199.2,1391.4,198.1,1393,198.1z"
			/>
	</g>
	<g enable-background="new    ">
		<path d="M1417,195.5c2.1,0,4.1,0.8,4.3,2.6c0.1,1.3-1.6,2.5-3.7,2.5c-2.1,0-4.1-0.8-4.3-2.6C1413.1,196.7,1414.8,195.5,1417,195.5
			z M1417.5,200.2c0.9,0,1.5-0.9,1.4-1.6c-0.2-1.4-0.7-2.5-2-2.5c-0.9,0-1.5,0.9-1.3,1.6C1415.8,199.1,1416.2,200.2,1417.5,200.2z"
			/>
	</g>
	<line fill="none" stroke="#000000" stroke-width="0.459" x1="1483" y1="198.9" x2="1483" y2="214.9"/>
	<g enable-background="new    ">
		<path d="M1488.9,198.2c-0.4,1-1.2,1.8-1.8,2.1c-0.6,0.3-1.4,0.4-2.2,0.4c-0.5,0-1.5-0.2-1.8-0.8c-0.4-0.7-0.1-1.4,0-1.8
			c0.4-1,1.1-1.6,1.7-2c0.6-0.3,1.5-0.6,2.5-0.5c0.4,0.1,1.3,0.1,1.7,0.8C1489.2,196.9,1489,197.9,1488.9,198.2z M1486.6,196.7
			c-0.4,0.2-0.7,0.4-1.1,0.6c-0.4,0.2-0.7,0.4-1.1,0.7c-0.6,0.3-1.3,1-0.9,1.6c0.4,0.6,1.3,0.3,1.9,0c0.4-0.2,0.8-0.4,1.2-0.6
			s0.7-0.4,1.1-0.7c0.5-0.3,1.3-1,0.9-1.6C1488.1,196.1,1487.2,196.4,1486.6,196.7z"/>
	</g>
	<g enable-background="new    ">
		<path d="M1515,204.3c-0.8,0-1.5,0.5-1.5,1.4c0,0.6,1,1.5,1,1.5l-0.2,0.2c0,0-2.2-1.3-2.5-2.7c-0.1-0.9,0.5-1.8,1.6-1.9
			c0.4,0,1.2,0.1,1.5,0.2c-1.8-1.8-2.8-3-2.7-3.4c0.4-0.4,1.7-2.1,1.7-3.4c0-0.9-1.3-2.9-1.3-2.9l0.3-0.2l3.5,4.4c0,0-1.7,2-1.7,3.4
			c0,1,0.6,1.8,1.1,2.3c0.2,0.3,1,1.1,1,1.2l0,0.3C1515.9,204.4,1515.4,204.3,1515,204.3z"/>
	</g>
	<line fill="none" stroke="#000000" stroke-width="0.459" x1="1529.4" y1="198.9" x2="1529.4" y2="214.9"/>
	<g enable-background="new    ">
		<path d="M1533.2,195.7c1.6,0,2.5,1.1,2,2.5c-0.5,1.4-2.2,2.5-3.8,2.5c-1.6,0-2.5-1.2-2-2.5
			C1529.9,196.8,1531.6,195.7,1533.2,195.7z"/>
	</g>
	<line fill="none" stroke="#000000" stroke-width="0.459" x1="1553.8" y1="198.9" x2="1553.8" y2="214.9"/>
	<g enable-background="new    ">
		<path d="M1557.6,195.7c1.6,0,2.5,1.1,2,2.5c-0.5,1.4-2.2,2.5-3.8,2.5c-1.6,0-2.5-1.2-2-2.5C1554.3,196.8,1556,195.7,1557.6,195.7z
			"/>
	</g>
	<line fill="none" stroke="#000000" stroke-width="0.459" x1="1569.6" y1="201.3" x2="1569.6" y2="217.3"/>
	<g enable-background="new    ">
		<path d="M1573.4,198.1c1.6,0,2.5,1.1,2,2.5c-0.5,1.4-2.2,2.5-3.8,2.5c-1.6,0-2.5-1.2-2-2.5
			C1570.1,199.2,1571.8,198.1,1573.4,198.1z"/>
	</g>
	<line fill="none" stroke="#000000" stroke-width="0.459" x1="1591" y1="202.1" x2="1591" y2="186.1"/>
	<g enable-background="new    ">
		<path d="M1589.2,200.5c1.6,0,2.5,1.1,2,2.5c-0.5,1.4-2.2,2.5-3.8,2.5c-1.6,0-2.5-1.2-2-2.5
			C1585.9,201.6,1587.6,200.5,1589.2,200.5z"/>
	</g>
	<line fill="none" stroke="#000000" stroke-width="0.459" x1="1606.6" y1="204.5" x2="1606.6" y2="188.5"/>
	<g enable-background="new    ">
		<path d="M1604.8,202.9c1.6,0,2.5,1.1,2,2.5c-0.5,1.4-2.2,2.5-3.8,2.5c-1.6,0-2.5-1.2-2-2.5C1601.5,204,1603.2,202.9,1604.8,202.9z
			"/>
	</g>
	<g enable-background="new    ">
		<path d="M1632.4,202c0.6,0,1,0.4,1,1c0,0.5-0.4,1-1,1s-1-0.4-1-1C1631.4,202.4,1631.8,202,1632.4,202z"/>
	</g>
	<line fill="none" stroke="#000000" stroke-width="0.459" x1="1629" y1="204.5" x2="1629" y2="188.5"/>
	<g enable-background="new    ">
		<path d="M1627.2,202.9c1.6,0,2.5,1.1,2,2.5c-0.5,1.4-2.2,2.5-3.8,2.5c-1.6,0-2.5-1.2-2-2.5C1623.9,204,1625.6,202.9,1627.2,202.9z
			"/>
	</g>
	<g enable-background="new    ">
		<path d="M1648.6,193c0.6,0.9,1.4,1.9,2.1,3.1c0.6,1.1,1.2,2.7,1.2,3.5c0.1,0.8,0.2,1.6,0.2,2.3c0,1.2-0.2,2.2-0.6,3.3l-0.2,0
			c0.3-0.9,0.5-2.2,0.5-3.3c0-0.9-0.2-2.1-0.5-3.1c-0.6-1.7-1.5-2.7-2.1-3.1c-0.8-0.6-1.8-0.6-1.8-0.6h-0.3v-5h0.3
			C1647.5,191.1,1648,192.2,1648.6,193z"/>
	</g>
	<line fill="none" stroke="#000000" stroke-width="0.459" x1="1647" y1="206.9" x2="1647" y2="190.9"/>
	<g enable-background="new    ">
		<path d="M1645.2,205.3c1.6,0,2.5,1.1,2,2.5c-0.5,1.4-2.2,2.5-3.8,2.5c-1.6,0-2.5-1.2-2-2.5
			C1641.9,206.4,1643.6,205.3,1645.2,205.3z"/>
	</g>
	<line fill="none" stroke="#000000" stroke-width="0.459" x1="1660.6" y1="209.3" x2="1660.6" y2="193.3"/>
	<g enable-background="new    ">
		<path d="M1658.8,207.7c1.6,0,2.5,1.1,2,2.5c-0.5,1.4-2.2,2.5-3.8,2.5c-1.6,0-2.5-1.2-2-2.5
			C1655.5,208.8,1657.2,207.7,1658.8,207.7z"/>
	</g>
	<line fill="none" stroke="#000000" stroke-width="0.459" x1="1669.6" y1="198.9" x2="1669.6" y2="214.9"/>
	<g enable-background="new    ">
		<path d="M1673.4,195.7c1.6,0,2.5,1.1,2,2.5c-0.5,1.4-2.2,2.5-3.8,2.5c-1.6,0-2.5-1.2-2-2.5
			C1670.1,196.8,1671.8,195.7,1673.4,195.7z"/>
	</g>
	<line fill="none" stroke="#000000" stroke-width="0.459" x1="1693" y1="198.9" x2="1693" y2="214.9"/>
	<g enable-background="new    ">
		<path d="M1696.8,195.7c1.6,0,2.5,1.1,2,2.5c-0.5,1.4-2.2,2.5-3.8,2.5c-1.6,0-2.5-1.2-2-2.5
			C1693.5,196.8,1695.2,195.7,1696.8,195.7z"/>
	</g>
	<line fill="none" stroke="#000000" stroke-width="0.459" x1="1708.8" y1="201.3" x2="1708.8" y2="217.3"/>
	<g enable-background="new    ">
		<path d="M1712.6,198.1c1.6,0,2.5,1.1,2,2.5c-0.5,1.4-2.2,2.5-3.8,2.5c-1.6,0-2.5-1.2-2-2.5C1709.3,199.2,1711,198.1,1712.6,198.1z
			"/>
	</g>
	<line fill="none" stroke="#000000" stroke-width="0.459" x1="1730.2" y1="202.1" x2="1730.2" y2="186.1"/>
	<g enable-background="new    ">
		<path d="M1728.4,200.5c1.6,0,2.5,1.1,2,2.5c-0.5,1.4-2.2,2.5-3.8,2.5c-1.6,0-2.5-1.2-2-2.5
			C1725.1,201.6,1726.8,200.5,1728.4,200.5z"/>
	</g>
	<line fill="none" stroke="#000000" stroke-width="0.459" x1="1745.8" y1="204.5" x2="1745.8" y2="188.5"/>
	<g enable-background="new    ">
		<path d="M1744,202.9c1.6,0,2.5,1.1,2,2.5c-0.5,1.4-2.2,2.5-3.8,2.5c-1.6,0-2.5-1.2-2-2.5C1740.7,204,1742.4,202.9,1744,202.9z"/>
	</g>
	<g enable-background="new    ">
		<path d="M1771.6,202c0.6,0,1,0.4,1,1c0,0.5-0.4,1-1,1s-1-0.4-1-1C1770.6,202.4,1771,202,1771.6,202z"/>
	</g>
	<line fill="none" stroke="#000000" stroke-width="0.459" x1="1768.2" y1="204.5" x2="1768.2" y2="188.5"/>
	<g enable-background="new    ">
		<path d="M1766.4,202.9c1.6,0,2.5,1.1,2,2.5c-0.5,1.4-2.2,2.5-3.8,2.5c-1.6,0-2.5-1.2-2-2.5C1763.1,204,1764.8,202.9,1766.4,202.9z
			"/>
	</g>
	<g enable-background="new    ">
		<path d="M1787.6,193c0.6,0.9,1.4,1.9,2.1,3.1c0.6,1.1,1.2,2.7,1.2,3.5c0.1,0.8,0.2,1.6,0.2,2.3c0,1.2-0.2,2.2-0.6,3.3l-0.2,0
			c0.3-0.9,0.5-2.2,0.5-3.3c0-0.9-0.2-2.1-0.5-3.1c-0.6-1.7-1.5-2.7-2.1-3.1c-0.8-0.6-1.8-0.6-1.8-0.6h-0.3v-5h0.3
			C1786.5,191.1,1787,192.2,1787.6,193z"/>
	</g>
	<line fill="none" stroke="#000000" stroke-width="0.459" x1="1786" y1="206.9" x2="1786" y2="190.9"/>
	<g enable-background="new    ">
		<path d="M1784.2,205.3c1.6,0,2.5,1.1,2,2.5c-0.5,1.4-2.2,2.5-3.8,2.5c-1.6,0-2.5-1.2-2-2.5
			C1780.9,206.4,1782.6,205.3,1784.2,205.3z"/>
	</g>
	<line fill="none" stroke="#000000" stroke-width="0.459" x1="1799.6" y1="209.3" x2="1799.6" y2="193.3"/>
	<g enable-background="new    ">
		<path d="M1797.8,207.7c1.6,0,2.5,1.1,2,2.5c-0.5,1.4-2.2,2.5-3.8,2.5c-1.6,0-2.5-1.2-2-2.5
			C1794.5,208.8,1796.2,207.7,1797.8,207.7z"/>
	</g>
	<line fill="none" stroke="#000000" stroke-width="0.459" x1="1814.2" y1="209.3" x2="1814.2" y2="193.3"/>
	<g enable-background="new    ">
		<path d="M1812.4,207.7c1.6,0,2.5,1.1,2,2.5c-0.5,1.4-2.2,2.5-3.8,2.5c-1.6,0-2.5-1.2-2-2.5
			C1809.1,208.8,1810.8,207.7,1812.4,207.7z"/>
	</g>
	<g enable-background="new    ">
		<path d="M1811.6,215.2c0.6,0,1,0.4,1,1c0,0.5-0.4,1-1,1s-1-0.4-1-1C1810.6,215.6,1811,215.2,1811.6,215.2z"/>
	</g>
	<line fill="none" stroke="#000000" stroke-width="0.459" x1="1837.6" y1="209.3" x2="1837.6" y2="193.3"/>
	<g enable-background="new    ">
		<path d="M1835.8,207.7c1.6,0,2.5,1.1,2,2.5c-0.5,1.4-2.2,2.5-3.8,2.5c-1.6,0-2.5-1.2-2-2.5
			C1832.5,208.8,1834.2,207.7,1835.8,207.7z"/>
	</g>
	<g enable-background="new    ">
		<path d="M1835,215.2c0.6,0,1,0.4,1,1c0,0.5-0.4,1-1,1s-1-0.4-1-1C1834,215.6,1834.4,215.2,1835,215.2z"/>
	</g>
	<line fill="none" stroke="#000000" stroke-width="0.459" x1="1860.6" y1="209.3" x2="1860.6" y2="193.3"/>
	<g enable-background="new    ">
		<path d="M1858.8,207.7c1.6,0,2.5,1.1,2,2.5c-0.5,1.4-2.2,2.5-3.8,2.5c-1.6,0-2.5-1.2-2-2.5
			C1855.5,208.8,1857.2,207.7,1858.8,207.7z"/>
	</g>
	<g enable-background="new    ">
		<path d="M1858,215.2c0.6,0,1,0.4,1,1c0,0.5-0.4,1-1,1s-1-0.4-1-1C1857,215.6,1857.4,215.2,1858,215.2z"/>
	</g>
	<line fill="none" stroke="#000000" stroke-width="0.459" x1="1873.4" y1="209.3" x2="1873.4" y2="193.3"/>
	<g enable-background="new    ">
		<path d="M1871.6,207.7c1.6,0,2.5,1.1,2,2.5c-0.5,1.4-2.2,2.5-3.8,2.5c-1.6,0-2.5-1.2-2-2.5C1868.3,208.8,1870,207.7,1871.6,207.7z
			"/>
	</g>
	<g enable-background="new    ">
		<path d="M1870.8,215.2c0.6,0,1,0.4,1,1c0,0.5-0.4,1-1,1s-1-0.4-1-1C1869.8,215.6,1870.2,215.2,1870.8,215.2z"/>
	</g>
	<line fill="none" stroke="#000000" stroke-width="0.459" x1="1886.8" y1="209.3" x2="1886.8" y2="193.3"/>
	<g enable-background="new    ">
		<path d="M1885,207.7c1.6,0,2.5,1.1,2,2.5c-0.5,1.4-2.2,2.5-3.8,2.5c-1.6,0-2.5-1.2-2-2.5C1881.7,208.8,1883.4,207.7,1885,207.7z"
			/>
	</g>
	<g enable-background="new    ">
		<path d="M1884.2,215.2c0.6,0,1,0.4,1,1c0,0.5-0.4,1-1,1s-1-0.4-1-1C1883.2,215.6,1883.6,215.2,1884.2,215.2z"/>
	</g>
	<g enable-background="new    ">
		<path d="M1910.8,202c0.6,0,1,0.4,1,1c0,0.5-0.4,1-1,1s-1-0.4-1-1C1909.8,202.4,1910.2,202,1910.8,202z"/>
	</g>
	<line fill="none" stroke="#000000" stroke-width="0.459" x1="1907.4" y1="204.5" x2="1907.4" y2="188.5"/>
	<g enable-background="new    ">
		<path d="M1907.7,205.4c-0.4,1-1.2,1.8-1.8,2.1c-0.6,0.3-1.4,0.4-2.2,0.4c-0.5,0-1.5-0.2-1.8-0.8c-0.4-0.7-0.1-1.4,0-1.8
			c0.4-1,1.1-1.6,1.7-2c0.6-0.3,1.5-0.6,2.5-0.5c0.4,0.1,1.3,0.1,1.7,0.8C1908,204.1,1907.8,205.1,1907.7,205.4z M1905.4,203.9
			c-0.4,0.2-0.7,0.4-1.1,0.6c-0.4,0.2-0.7,0.4-1.1,0.7c-0.6,0.3-1.3,1-0.9,1.6c0.4,0.6,1.3,0.3,1.9,0c0.4-0.2,0.8-0.4,1.2-0.6
			s0.7-0.4,1.1-0.7c0.5-0.3,1.3-1,0.9-1.6C1906.9,203.3,1906,203.6,1905.4,203.9z"/>
	</g>
	<g enable-background="new    ">
		<path d="M1945.6,205.3c1.6,0,2.5,1.1,2,2.5c-0.5,1.4-2.2,2.5-3.8,2.5c-1.6,0-2.5-1.2-2-2.5C1942.3,206.4,1944,205.3,1945.6,205.3z
			"/>
	</g>
	<line fill="none" stroke="#000000" stroke-width="0.459" x1="1947.4" y1="206.9" x2="1947.4" y2="194.5"/>
	<g enable-background="new    ">
		<path d="M1954.4,207.7c1.6,0,2.5,1.1,2,2.5c-0.5,1.4-2.2,2.5-3.8,2.5c-1.6,0-2.5-1.2-2-2.5
			C1951.1,208.8,1952.8,207.7,1954.4,207.7z"/>
	</g>
	<line fill="none" stroke="#000000" stroke-width="0.459" x1="1956.2" y1="209.3" x2="1956.2" y2="195.7"/>
	<path d="M1947.1,193.3l9.3,1.2v2.4l-9.3-1.2V193.3z"/>
	<line fill="none" stroke="#000000" stroke-width="0.459" x1="1973.4" y1="211.7" x2="1973.4" y2="195.7"/>
	<g enable-background="new    ">
		<path d="M1971.6,210.1c1.6,0,2.5,1.1,2,2.5c-0.5,1.4-2.2,2.5-3.8,2.5c-1.6,0-2.5-1.2-2-2.5C1968.3,211.2,1970,210.1,1971.6,210.1z
			"/>
	</g>
	<g enable-background="new    ">
		<path d="M1970.8,217.6c0.6,0,1,0.4,1,1c0,0.5-0.4,1-1,1s-1-0.4-1-1C1969.8,218,1970.2,217.6,1970.8,217.6z"/>
	</g>
	<line fill="none" stroke="#000000" stroke-width="0.459" x1="1999" y1="211.7" x2="1999" y2="195.7"/>
	<g enable-background="new    ">
		<path d="M1997.2,210.1c1.6,0,2.5,1.1,2,2.5c-0.5,1.4-2.2,2.5-3.8,2.5c-1.6,0-2.5-1.2-2-2.5
			C1993.9,211.2,1995.6,210.1,1997.2,210.1z"/>
	</g>
	<g enable-background="new    ">
		<path d="M1996.4,217.6c0.6,0,1,0.4,1,1c0,0.5-0.4,1-1,1s-1-0.4-1-1C1995.4,218,1995.8,217.6,1996.4,217.6z"/>
	</g>
	<line fill="none" stroke="#000000" stroke-width="0.459" x1="2012.2" y1="211.7" x2="2012.2" y2="195.7"/>
	<g enable-background="new    ">
		<path d="M2010.4,210.1c1.6,0,2.5,1.1,2,2.5c-0.5,1.4-2.2,2.5-3.8,2.5c-1.6,0-2.5-1.2-2-2.5
			C2007.1,211.2,2008.8,210.1,2010.4,210.1z"/>
	</g>
	<g enable-background="new    ">
		<path d="M2009.6,217.6c0.6,0,1,0.4,1,1c0,0.5-0.4,1-1,1s-1-0.4-1-1C2008.6,218,2009,217.6,2009.6,217.6z"/>
	</g>
	<line fill="none" stroke="#000000" stroke-width="0.459" x1="2026.4" y1="211.7" x2="2026.4" y2="195.7"/>
	<g enable-background="new    ">
		<path d="M2024.6,210.1c1.6,0,2.5,1.1,2,2.5c-0.5,1.4-2.2,2.5-3.8,2.5c-1.6,0-2.5-1.2-2-2.5C2021.3,211.2,2023,210.1,2024.6,210.1z
			"/>
	</g>
	<g enable-background="new    ">
		<path d="M2023.8,217.6c0.6,0,1,0.4,1,1c0,0.5-0.4,1-1,1s-1-0.4-1-1C2022.8,218,2023.2,217.6,2023.8,217.6z"/>
	</g>
	<g enable-background="new    ">
		<path d="M2048.8,206.8c0.6,0,1,0.4,1,1c0,0.5-0.4,1-1,1s-1-0.4-1-1C2047.8,207.2,2048.2,206.8,2048.8,206.8z"/>
	</g>
	<line fill="none" stroke="#000000" stroke-width="0.459" x1="2045.4" y1="206.9" x2="2045.4" y2="190.9"/>
	<g enable-background="new    ">
		<path d="M2045.7,207.8c-0.4,1-1.2,1.8-1.8,2.1c-0.6,0.3-1.4,0.4-2.2,0.4c-0.5,0-1.5-0.2-1.8-0.8c-0.4-0.7-0.1-1.4,0-1.8
			c0.4-1,1.1-1.6,1.7-2c0.6-0.3,1.5-0.6,2.5-0.5c0.4,0.1,1.3,0.1,1.7,0.8C2046,206.5,2045.8,207.5,2045.7,207.8z M2043.4,206.3
			c-0.4,0.2-0.7,0.4-1.1,0.6c-0.4,0.2-0.7,0.4-1.1,0.7c-0.6,0.3-1.3,1-0.9,1.6c0.4,0.6,1.3,0.3,1.9,0c0.4-0.2,0.8-0.4,1.2-0.6
			s0.7-0.4,1.1-0.7c0.5-0.3,1.3-1,0.9-1.6C2044.9,205.7,2044,206,2043.4,206.3z"/>
	</g>
	<g enable-background="new    ">
		<path d="M2088.2,207.7c1.6,0,2.5,1.1,2,2.5c-0.5,1.4-2.2,2.5-3.8,2.5c-1.6,0-2.5-1.2-2-2.5
			C2084.9,208.8,2086.6,207.7,2088.2,207.7z"/>
	</g>
	<line fill="none" stroke="#000000" stroke-width="0.459" x1="2090" y1="209.3" x2="2090" y2="195.7"/>
	<g enable-background="new    ">
		<path d="M2098,210.1c1.6,0,2.5,1.1,2,2.5c-0.5,1.4-2.2,2.5-3.8,2.5c-1.6,0-2.5-1.2-2-2.5C2094.7,211.2,2096.4,210.1,2098,210.1z"
			/>
	</g>
	<line fill="none" stroke="#000000" stroke-width="0.459" x1="2099.8" y1="211.7" x2="2099.8" y2="196.9"/>
	<path d="M2089.7,194.5l10.3,1.2v2.4l-10.3-1.2V194.5z"/>
	<line fill="none" stroke="#000000" stroke-width="0.459" x1="2116.2" y1="214.1" x2="2116.2" y2="198.1"/>
	<line fill="none" stroke="#000000" stroke-width="0.459" x1="2109.2" y1="214.9" x2="2117.6" y2="214.9"/>
	<g enable-background="new    ">
		<path d="M2114.4,212.5c1.6,0,2.5,1.1,2,2.5c-0.5,1.4-2.2,2.5-3.8,2.5c-1.6,0-2.5-1.2-2-2.5
			C2111.1,213.6,2112.8,212.5,2114.4,212.5z"/>
	</g>
	<line fill="none" stroke="#000000" stroke-width="0.459" x1="2128" y1="198.9" x2="2128" y2="214.9"/>
	<g enable-background="new    ">
		<path d="M2133.9,198.2c-0.4,1-1.2,1.8-1.8,2.1c-0.6,0.3-1.4,0.4-2.2,0.4c-0.5,0-1.5-0.2-1.8-0.8c-0.4-0.7-0.1-1.4,0-1.8
			c0.4-1,1.1-1.6,1.7-2c0.6-0.3,1.5-0.6,2.5-0.5c0.4,0.1,1.3,0.1,1.7,0.8C2134.2,196.9,2134,197.9,2133.9,198.2z M2131.6,196.7
			c-0.4,0.2-0.7,0.4-1.1,0.6c-0.4,0.2-0.7,0.4-1.1,0.7c-0.6,0.3-1.3,1-0.9,1.6c0.4,0.6,1.3,0.3,1.9,0c0.4-0.2,0.8-0.4,1.2-0.6
			s0.7-0.4,1.1-0.7c0.5-0.3,1.3-1,0.9-1.6C2133.1,196.1,2132.2,196.4,2131.6,196.7z"/>
	</g>
	<line fill="none" stroke="#000000" stroke-width="0.459" x1="2161.8" y1="202.1" x2="2161.8" y2="186.1"/>
	<g enable-background="new    ">
		<path d="M2160,200.5c1.6,0,2.5,1.1,2,2.5c-0.5,1.4-2.2,2.5-3.8,2.5c-1.6,0-2.5-1.2-2-2.5C2156.7,201.6,2158.4,200.5,2160,200.5z"
			/>
	</g>
	<g enable-background="new    ">
		<path d="M2189.2,202c0.6,0,1,0.4,1,1c0,0.5-0.4,1-1,1s-1-0.4-1-1C2188.2,202.4,2188.6,202,2189.2,202z"/>
	</g>
	<line fill="none" stroke="#000000" stroke-width="0.459" x1="2185.8" y1="204.5" x2="2185.8" y2="188.5"/>
	<g enable-background="new    ">
		<path d="M2184,202.9c1.6,0,2.5,1.1,2,2.5c-0.5,1.4-2.2,2.5-3.8,2.5c-1.6,0-2.5-1.2-2-2.5C2180.7,204,2182.4,202.9,2184,202.9z"/>
	</g>
	<g enable-background="new    ">
		<path d="M2205.2,193c0.6,0.9,1.4,1.9,2.1,3.1c0.6,1.1,1.2,2.7,1.2,3.5c0.1,0.8,0.2,1.6,0.2,2.3c0,1.2-0.2,2.2-0.6,3.3l-0.2,0
			c0.3-0.9,0.5-2.2,0.5-3.3c0-0.9-0.2-2.1-0.5-3.1c-0.6-1.7-1.5-2.7-2.1-3.1c-0.8-0.6-1.8-0.6-1.8-0.6h-0.3v-5h0.3
			C2204.1,191.1,2204.6,192.2,2205.2,193z"/>
	</g>
	<line fill="none" stroke="#000000" stroke-width="0.459" x1="2203.6" y1="206.9" x2="2203.6" y2="190.9"/>
	<g enable-background="new    ">
		<path d="M2201.8,205.3c1.6,0,2.5,1.1,2,2.5c-0.5,1.4-2.2,2.5-3.8,2.5c-1.6,0-2.5-1.2-2-2.5
			C2198.5,206.4,2200.2,205.3,2201.8,205.3z"/>
	</g>
	<line fill="none" stroke="#000000" stroke-width="0.459" x1="2217.2" y1="209.3" x2="2217.2" y2="193.3"/>
	<g enable-background="new    ">
		<path d="M2215.4,207.7c1.6,0,2.5,1.1,2,2.5c-0.5,1.4-2.2,2.5-3.8,2.5c-1.6,0-2.5-1.2-2-2.5
			C2212.1,208.8,2213.8,207.7,2215.4,207.7z"/>
	</g>
	<line fill="none" stroke="#000000" stroke-width="0.459" x1="2231.8" y1="206.9" x2="2231.8" y2="190.9"/>
	<g enable-background="new    ">
		<path d="M2230,205.3c1.6,0,2.5,1.1,2,2.5c-0.5,1.4-2.2,2.5-3.8,2.5c-1.6,0-2.5-1.2-2-2.5C2226.7,206.4,2228.4,205.3,2230,205.3z"
			/>
	</g>
	<line fill="none" stroke="#000000" stroke-width="0.459" x1="2254.2" y1="209.3" x2="2254.2" y2="193.3"/>
	<g enable-background="new    ">
		<path d="M2254.5,210.2c-0.4,1-1.2,1.8-1.8,2.1c-0.6,0.3-1.4,0.4-2.2,0.4c-0.5,0-1.5-0.2-1.8-0.8c-0.4-0.7-0.1-1.4,0-1.8
			c0.4-1,1.1-1.6,1.7-2c0.6-0.3,1.5-0.6,2.5-0.5c0.4,0.1,1.3,0.1,1.7,0.8C2254.8,208.9,2254.6,209.9,2254.5,210.2z M2252.2,208.7
			c-0.4,0.2-0.7,0.4-1.1,0.6c-0.4,0.2-0.7,0.4-1.1,0.7c-0.6,0.3-1.3,1-0.9,1.6c0.4,0.6,1.3,0.3,1.9,0c0.4-0.2,0.8-0.4,1.2-0.6
			s0.7-0.4,1.1-0.7c0.5-0.3,1.3-1,0.9-1.6C2253.7,208.1,2252.8,208.4,2252.2,208.7z"/>
	</g>
	<line fill="none" stroke="#000000" stroke-width="0.459" x1="2286.4" y1="211.7" x2="2286.4" y2="195.7"/>
	<g enable-background="new    ">
		<path d="M2286.7,212.6c-0.4,1-1.2,1.8-1.8,2.1c-0.6,0.3-1.4,0.4-2.2,0.4c-0.5,0-1.5-0.2-1.8-0.8c-0.4-0.7-0.1-1.4,0-1.8
			c0.4-1,1.1-1.6,1.7-2c0.6-0.3,1.5-0.6,2.5-0.5c0.4,0.1,1.3,0.1,1.7,0.8C2287,211.3,2286.8,212.3,2286.7,212.6z M2284.4,211.1
			c-0.4,0.2-0.7,0.4-1.1,0.6c-0.4,0.2-0.7,0.4-1.1,0.7c-0.6,0.3-1.3,1-0.9,1.6c0.4,0.6,1.3,0.3,1.9,0c0.4-0.2,0.8-0.4,1.2-0.6
			s0.7-0.4,1.1-0.7c0.5-0.3,1.3-1,0.9-1.6C2285.9,210.5,2285,210.8,2284.4,211.1z"/>
	</g>
	<g enable-background="new    ">
		<path d="M2334.4,211.6c0.6,0,1,0.4,1,1c0,0.5-0.4,1-1,1s-1-0.4-1-1C2333.4,212,2333.8,211.6,2334.4,211.6z"/>
	</g>
	<line fill="none" stroke="#000000" stroke-width="0.459" x1="2331" y1="214.1" x2="2331" y2="198.1"/>
	<line fill="none" stroke="#000000" stroke-width="0.459" x1="2324" y1="214.9" x2="2332.4" y2="214.9"/>
	<g enable-background="new    ">
		<path d="M2331.3,215c-0.4,1-1.2,1.8-1.8,2.1c-0.6,0.3-1.4,0.4-2.2,0.4c-0.5,0-1.5-0.2-1.8-0.8c-0.4-0.7-0.1-1.4,0-1.8
			c0.4-1,1.1-1.6,1.7-2c0.6-0.3,1.5-0.6,2.5-0.5c0.4,0.1,1.3,0.1,1.7,0.8C2331.6,213.7,2331.4,214.7,2331.3,215z M2329,213.5
			c-0.4,0.2-0.7,0.4-1.1,0.6c-0.4,0.2-0.7,0.4-1.1,0.7c-0.6,0.3-1.3,1-0.9,1.6c0.4,0.6,1.3,0.3,1.9,0c0.4-0.2,0.8-0.4,1.2-0.6
			s0.7-0.4,1.1-0.7c0.5-0.3,1.3-1,0.9-1.6C2330.5,212.9,2329.6,213.2,2329,213.5z"/>
	</g>
	<g enable-background="new    ">
		<path d="M2369,204.3c-0.8,0-1.5,0.5-1.5,1.4c0,0.6,1,1.5,1,1.5l-0.2,0.2c0,0-2.2-1.3-2.5-2.7c-0.1-0.9,0.5-1.8,1.6-1.9
			c0.4,0,1.2,0.1,1.5,0.2c-1.8-1.8-2.8-3-2.7-3.4c0.4-0.4,1.7-2.1,1.7-3.4c0-0.9-1.3-2.9-1.3-2.9l0.3-0.2l3.5,4.4c0,0-1.7,2-1.7,3.4
			c0,1,0.6,1.8,1.1,2.3c0.2,0.3,1,1.1,1,1.2l0,0.3C2369.9,204.4,2369.4,204.3,2369,204.3z"/>
	</g>
	<line fill="none" stroke="#000000" stroke-width="0.459" x1="2389" y1="198.9" x2="2389" y2="214.9"/>
	<g enable-background="new    ">
		<path d="M2394.9,198.2c-0.4,1-1.2,1.8-1.8,2.1c-0.6,0.3-1.4,0.4-2.2,0.4c-0.5,0-1.5-0.2-1.8-0.8c-0.4-0.7-0.1-1.4,0-1.8
			c0.4-1,1.1-1.6,1.7-2c0.6-0.3,1.5-0.6,2.5-0.5c0.4,0.1,1.3,0.1,1.7,0.8C2395.2,196.9,2395,197.9,2394.9,198.2z M2392.6,196.7
			c-0.4,0.2-0.7,0.4-1.1,0.6c-0.4,0.2-0.7,0.4-1.1,0.7c-0.6,0.3-1.3,1-0.9,1.6c0.4,0.6,1.3,0.3,1.9,0c0.4-0.2,0.8-0.4,1.2-0.6
			s0.7-0.4,1.1-0.7c0.5-0.3,1.3-1,0.9-1.6C2394.1,196.1,2393.2,196.4,2392.6,196.7z"/>
	</g>
	<g enable-background="new    ">
		<path d="M2423.8,197.2c0.6,0,1,0.4,1,1c0,0.5-0.4,1-1,1s-1-0.4-1-1C2422.8,197.6,2423.2,197.2,2423.8,197.2z"/>
	</g>
	<line fill="none" stroke="#000000" stroke-width="0.459" x1="2414.8" y1="201.3" x2="2414.8" y2="217.3"/>
	<g enable-background="new    ">
		<path d="M2418.6,198.1c1.6,0,2.5,1.1,2,2.5c-0.5,1.4-2.2,2.5-3.8,2.5c-1.6,0-2.5-1.2-2-2.5C2415.3,199.2,2417,198.1,2418.6,198.1z
			"/>
	</g>
	<g enable-background="new    ">
		<path d="M2444.6,188.2c0.6,0.9,1.4,1.9,2.2,3.1c0.6,1.1,1.2,2.7,1.2,3.5c0.1,0.8,0.2,1.6,0.2,2.3c0,1.2-0.2,2.2-0.6,3.3l-0.2,0
			c0.3-0.9,0.5-2.2,0.5-3.3c0-0.9-0.2-2.1-0.5-3.1c-0.6-1.7-1.5-2.7-2.1-3.1c-0.8-0.6-1.8-0.6-1.8-0.6h-0.3v-5h0.3
			C2443.5,186.3,2444,187.4,2444.6,188.2z"/>
	</g>
	<line fill="none" stroke="#000000" stroke-width="0.459" x1="2443" y1="202.1" x2="2443" y2="186.1"/>
	<g enable-background="new    ">
		<path d="M2441.2,200.5c1.6,0,2.5,1.1,2,2.5c-0.5,1.4-2.2,2.5-3.8,2.5c-1.6,0-2.5-1.2-2-2.5
			C2437.9,201.6,2439.6,200.5,2441.2,200.5z"/>
	</g>
	<g enable-background="new    ">
		<path d="M2466.4,202c0.6,0,1,0.4,1,1c0,0.5-0.4,1-1,1s-1-0.4-1-1C2465.4,202.4,2465.8,202,2466.4,202z"/>
	</g>
	<line fill="none" stroke="#000000" stroke-width="0.459" x1="2463" y1="204.5" x2="2463" y2="188.5"/>
	<g enable-background="new    ">
		<path d="M2463.3,205.4c-0.4,1-1.2,1.8-1.8,2.1c-0.6,0.3-1.4,0.4-2.2,0.4c-0.5,0-1.5-0.2-1.8-0.8c-0.4-0.7-0.1-1.4,0-1.8
			c0.4-1,1.1-1.6,1.7-2c0.6-0.3,1.5-0.6,2.5-0.5c0.4,0.1,1.3,0.1,1.7,0.8C2463.7,204.1,2463.4,205.1,2463.3,205.4z M2461,203.9
			c-0.4,0.2-0.7,0.4-1.1,0.6c-0.4,0.2-0.7,0.4-1.1,0.7c-0.6,0.3-1.3,1-0.9,1.6c0.4,0.6,1.3,0.3,1.9,0c0.4-0.2,0.8-0.4,1.2-0.6
			s0.7-0.4,1.1-0.7c0.5-0.3,1.3-1,0.9-1.6C2462.5,203.3,2461.6,203.6,2461,203.9z"/>
	</g>
	<line fill="none" stroke="#000000" stroke-width="0.459" x1="2508.4" y1="206.9" x2="2508.4" y2="190.9"/>
	<g enable-background="new    ">
		<path d="M2506.6,205.3c1.6,0,2.5,1.1,2,2.5c-0.5,1.4-2.2,2.5-3.8,2.5c-1.6,0-2.5-1.2-2-2.5C2503.3,206.4,2505,205.3,2506.6,205.3z
			"/>
	</g>
	<line fill="none" stroke="#000000" stroke-width="0.459" x1="2532.6" y1="209.3" x2="2532.6" y2="193.3"/>
	<g enable-background="new    ">
		<path d="M2532.9,210.2c-0.4,1-1.2,1.8-1.8,2.1c-0.6,0.3-1.4,0.4-2.2,0.4c-0.5,0-1.5-0.2-1.8-0.8c-0.4-0.7-0.1-1.4,0-1.8
			c0.4-1,1.1-1.6,1.7-2c0.6-0.3,1.5-0.6,2.5-0.5c0.4,0.1,1.3,0.1,1.7,0.8C2533.2,208.9,2533,209.9,2532.9,210.2z M2530.6,208.7
			c-0.4,0.2-0.7,0.4-1.1,0.6c-0.4,0.2-0.7,0.4-1.1,0.7c-0.6,0.3-1.3,1-0.9,1.6c0.4,0.6,1.3,0.3,1.9,0c0.4-0.2,0.8-0.4,1.2-0.6
			s0.7-0.4,1.1-0.7c0.5-0.3,1.3-1,0.9-1.6C2532.1,208.1,2531.2,208.4,2530.6,208.7z"/>
	</g>
	<line fill="none" stroke="#000000" stroke-width="0.459" x1="2564.8" y1="211.7" x2="2564.8" y2="195.7"/>
	<g enable-background="new    ">
		<path d="M2565.1,212.6c-0.4,1-1.2,1.8-1.8,2.1c-0.6,0.3-1.4,0.4-2.2,0.4c-0.5,0-1.5-0.2-1.8-0.8c-0.4-0.7-0.1-1.4,0-1.8
			c0.4-1,1.1-1.6,1.7-2c0.6-0.3,1.5-0.6,2.5-0.5c0.4,0.1,1.3,0.1,1.7,0.8C2565.4,211.3,2565.2,212.3,2565.1,212.6z M2562.8,211.1
			c-0.4,0.2-0.7,0.4-1.1,0.6c-0.4,0.2-0.7,0.4-1.1,0.7c-0.6,0.3-1.3,1-0.9,1.6c0.4,0.6,1.3,0.3,1.9,0c0.4-0.2,0.8-0.4,1.2-0.6
			s0.7-0.4,1.1-0.7c0.5-0.3,1.3-1,0.9-1.6C2564.3,210.5,2563.4,210.8,2562.8,211.1z"/>
	</g>
	<g enable-background="new    ">
		<path d="M2606.8,211.6c0.6,0,1,0.4,1,1c0,0.5-0.4,1-1,1s-1-0.4-1-1C2605.8,212,2606.2,211.6,2606.8,211.6z"/>
	</g>
	<line fill="none" stroke="#000000" stroke-width="0.459" x1="2603.4" y1="214.1" x2="2603.4" y2="198.1"/>
	<line fill="none" stroke="#000000" stroke-width="0.459" x1="2596.4" y1="214.9" x2="2604.8" y2="214.9"/>
	<g enable-background="new    ">
		<path d="M2603.7,215c-0.4,1-1.2,1.8-1.8,2.1c-0.6,0.3-1.4,0.4-2.2,0.4c-0.5,0-1.5-0.2-1.8-0.8c-0.4-0.7-0.1-1.4,0-1.8
			c0.4-1,1.1-1.6,1.7-2c0.6-0.3,1.5-0.6,2.5-0.5c0.4,0.1,1.3,0.1,1.7,0.8C2604,213.7,2603.8,214.7,2603.7,215z M2601.4,213.5
			c-0.4,0.2-0.7,0.4-1.1,0.6c-0.4,0.2-0.7,0.4-1.1,0.7c-0.6,0.3-1.3,1-0.9,1.6c0.4,0.6,1.3,0.3,1.9,0c0.4-0.2,0.8-0.4,1.2-0.6
			c0.4-0.2,0.7-0.4,1.1-0.7c0.5-0.3,1.3-1,0.9-1.6C2602.9,212.9,2602,213.2,2601.4,213.5z"/>
	</g>
	<line fill="none" stroke="#000000" stroke-width="0.459" x1="2648" y1="204.5" x2="2648" y2="188.5"/>
	<g enable-background="new    ">
		<path d="M2646.2,202.9c1.6,0,2.5,1.1,2,2.5c-0.5,1.4-2.2,2.5-3.8,2.5c-1.6,0-2.5-1.2-2-2.5C2642.9,204,2644.6,202.9,2646.2,202.9z
			"/>
	</g>
	<g enable-background="new    ">
		<path d="M2675.2,202c0.6,0,1,0.4,1,1c0,0.5-0.4,1-1,1s-1-0.4-1-1C2674.2,202.4,2674.6,202,2675.2,202z"/>
	</g>
	<line fill="none" stroke="#000000" stroke-width="0.459" x1="2671.8" y1="202.1" x2="2671.8" y2="186.1"/>
	<g enable-background="new    ">
		<path d="M2672.1,203c-0.4,1-1.2,1.8-1.8,2.1c-0.6,0.3-1.4,0.4-2.2,0.4c-0.5,0-1.5-0.2-1.8-0.8c-0.4-0.7-0.1-1.4,0-1.8
			c0.4-1,1.1-1.6,1.7-2c0.6-0.3,1.5-0.6,2.5-0.5c0.4,0.1,1.3,0.1,1.7,0.8C2672.4,201.7,2672.2,202.7,2672.1,203z M2669.8,201.5
			c-0.4,0.2-0.7,0.4-1.1,0.6c-0.4,0.2-0.7,0.4-1.1,0.7c-0.6,0.3-1.3,1-0.9,1.6c0.4,0.6,1.3,0.3,1.9,0c0.4-0.2,0.8-0.4,1.2-0.6
			s0.7-0.4,1.1-0.7c0.5-0.3,1.3-1,0.9-1.6C2671.3,200.9,2670.4,201.2,2669.8,201.5z"/>
	</g>
	<line fill="none" stroke="#000000" stroke-width="0.459" x1="2717.2" y1="202.1" x2="2717.2" y2="186.1"/>
	<g enable-background="new    ">
		<path d="M2715.4,200.5c1.6,0,2.5,1.1,2,2.5c-0.5,1.4-2.2,2.5-3.8,2.5c-1.6,0-2.5-1.2-2-2.5
			C2712.1,201.6,2713.8,200.5,2715.4,200.5z"/>
	</g>
	<g enable-background="new    ">
		<path d="M2744.8,197.2c0.6,0,1,0.4,1,1c0,0.5-0.4,1-1,1s-1-0.4-1-1C2743.8,197.6,2744.2,197.2,2744.8,197.2z"/>
	</g>
	<line fill="none" stroke="#000000" stroke-width="0.459" x1="2735.8" y1="201.3" x2="2735.8" y2="217.3"/>
	<g enable-background="new    ">
		<path d="M2741.7,200.6c-0.4,1-1.2,1.8-1.8,2.1c-0.6,0.3-1.4,0.4-2.2,0.4c-0.5,0-1.5-0.2-1.8-0.8c-0.4-0.7-0.1-1.4,0-1.8
			c0.4-1,1.1-1.6,1.7-2c0.6-0.3,1.5-0.6,2.5-0.5c0.4,0.1,1.3,0.1,1.7,0.8C2742,199.3,2741.8,200.3,2741.7,200.6z M2739.4,199.1
			c-0.4,0.2-0.7,0.4-1.1,0.6c-0.4,0.2-0.7,0.4-1.1,0.7c-0.6,0.3-1.3,1-0.9,1.6c0.4,0.6,1.3,0.3,1.9,0c0.4-0.2,0.8-0.4,1.2-0.6
			c0.4-0.2,0.7-0.4,1.1-0.7c0.5-0.3,1.3-1,0.9-1.6C2740.9,198.5,2740,198.8,2739.4,199.1z"/>
	</g>
	<line fill="none" stroke="#000000" stroke-width="0.459" x1="2781.2" y1="201.3" x2="2781.2" y2="217.3"/>
	<g enable-background="new    ">
		<path d="M2785,198.1c1.6,0,2.5,1.1,2,2.5c-0.5,1.4-2.2,2.5-3.8,2.5c-1.6,0-2.5-1.2-2-2.5C2781.7,199.2,2783.4,198.1,2785,198.1z"
			/>
	</g>
	<g enable-background="new    ">
		<path d="M2809,195.5c2.1,0,4.1,0.8,4.3,2.6c0.1,1.3-1.6,2.5-3.7,2.5c-2.2,0-4.1-0.8-4.3-2.6C2805.1,196.7,2806.8,195.5,2809,195.5
			z M2809.5,200.2c0.9,0,1.5-0.9,1.4-1.6c-0.2-1.4-0.7-2.5-2-2.5c-0.9,0-1.5,0.9-1.3,1.6C2807.8,199.1,2808.2,200.2,2809.5,200.2z"
			/>
	</g>
	<line fill="none" stroke="#000000" stroke-width="0.459" x1="2875" y1="198.9" x2="2875" y2="214.9"/>
	<g enable-background="new    ">
		<path d="M2880.9,198.2c-0.4,1-1.2,1.8-1.8,2.1c-0.6,0.3-1.4,0.4-2.2,0.4c-0.5,0-1.5-0.2-1.8-0.8c-0.4-0.7-0.1-1.4,0-1.8
			c0.4-1,1.1-1.6,1.7-2c0.6-0.3,1.5-0.6,2.5-0.5c0.4,0.1,1.3,0.1,1.7,0.8C2881.2,196.9,2881,197.9,2880.9,198.2z M2878.6,196.7
			c-0.4,0.2-0.7,0.4-1.1,0.6c-0.4,0.2-0.7,0.4-1.1,0.7c-0.6,0.3-1.3,1-0.9,1.6c0.4,0.6,1.3,0.3,1.9,0c0.4-0.2,0.8-0.4,1.2-0.6
			s0.7-0.4,1.1-0.7c0.5-0.3,1.3-1,0.9-1.6C2880.1,196.1,2879.2,196.4,2878.6,196.7z"/>
	</g>
	<g enable-background="new    ">
		<path d="M2907,204.3c-0.8,0-1.5,0.5-1.5,1.4c0,0.6,1,1.5,1,1.5l-0.2,0.2c0,0-2.2-1.3-2.5-2.7c-0.1-0.9,0.5-1.8,1.6-1.9
			c0.4,0,1.2,0.1,1.5,0.2c-1.8-1.8-2.8-3-2.7-3.4c0.4-0.4,1.7-2.1,1.7-3.4c0-0.9-1.3-2.9-1.3-2.9l0.3-0.2l3.5,4.4c0,0-1.7,2-1.7,3.4
			c0,1,0.6,1.8,1.1,2.3c0.2,0.3,1,1.1,1,1.2l0,0.3C2907.9,204.4,2907.4,204.3,2907,204.3z"/>
	</g>
	<line fill="none" stroke="#000000" stroke-width="0.459" x1="2921.4" y1="198.9" x2="2921.4" y2="214.9"/>
	<g enable-background="new    ">
		<path d="M2925.2,195.7c1.6,0,2.5,1.1,2,2.5c-0.5,1.4-2.2,2.5-3.8,2.5c-1.6,0-2.5-1.2-2-2.5
			C2921.9,196.8,2923.6,195.7,2925.2,195.7z"/>
	</g>
	<line fill="none" stroke="#000000" stroke-width="0.459" x1="2945.8" y1="198.9" x2="2945.8" y2="214.9"/>
	<g enable-background="new    ">
		<path d="M2949.6,195.7c1.6,0,2.5,1.1,2,2.5c-0.5,1.4-2.2,2.5-3.8,2.5c-1.6,0-2.5-1.2-2-2.5C2946.3,196.8,2948,195.7,2949.6,195.7z
			"/>
	</g>
	<line fill="none" stroke="#000000" stroke-width="0.459" x1="2961.6" y1="201.3" x2="2961.6" y2="217.3"/>
	<g enable-background="new    ">
		<path d="M2965.4,198.1c1.6,0,2.5,1.1,2,2.5c-0.5,1.4-2.2,2.5-3.8,2.5c-1.6,0-2.5-1.2-2-2.5
			C2962.1,199.2,2963.8,198.1,2965.4,198.1z"/>
	</g>
	<line fill="none" stroke="#000000" stroke-width="0.459" x1="2983" y1="202.1" x2="2983" y2="186.1"/>
	<g enable-background="new    ">
		<path d="M2981.2,200.5c1.6,0,2.5,1.1,2,2.5c-0.5,1.4-2.2,2.5-3.8,2.5c-1.6,0-2.5-1.2-2-2.5
			C2977.9,201.6,2979.6,200.5,2981.2,200.5z"/>
	</g>
	<line fill="none" stroke="#000000" stroke-width="0.459" x1="2998.6" y1="204.5" x2="2998.6" y2="188.5"/>
	<g enable-background="new    ">
		<path d="M2996.8,202.9c1.6,0,2.5,1.1,2,2.5c-0.5,1.4-2.2,2.5-3.8,2.5c-1.6,0-2.5-1.2-2-2.5C2993.5,204,2995.2,202.9,2996.8,202.9z
			"/>
	</g>
	<g enable-background="new    ">
		<path d="M3024.4,202c0.6,0,1,0.4,1,1c0,0.5-0.4,1-1,1s-1-0.4-1-1C3023.4,202.4,3023.8,202,3024.4,202z"/>
	</g>
	<line fill="none" stroke="#000000" stroke-width="0.459" x1="3021" y1="204.5" x2="3021" y2="188.5"/>
	<g enable-background="new    ">
		<path d="M3019.2,202.9c1.6,0,2.5,1.1,2,2.5c-0.5,1.4-2.2,2.5-3.8,2.5c-1.6,0-2.5-1.2-2-2.5C3015.9,204,3017.6,202.9,3019.2,202.9z
			"/>
	</g>
	<g enable-background="new    ">
		<path d="M3040.6,193c0.6,0.9,1.4,1.9,2.2,3.1c0.6,1.1,1.2,2.7,1.2,3.5c0.1,0.8,0.2,1.6,0.2,2.3c0,1.2-0.2,2.2-0.6,3.3l-0.2,0
			c0.3-0.9,0.5-2.2,0.5-3.3c0-0.9-0.2-2.1-0.5-3.1c-0.6-1.7-1.5-2.7-2.1-3.1c-0.8-0.6-1.8-0.6-1.8-0.6h-0.3v-5h0.3
			C3039.5,191.1,3040,192.2,3040.6,193z"/>
	</g>
	<line fill="none" stroke="#000000" stroke-width="0.459" x1="3039" y1="206.9" x2="3039" y2="190.9"/>
	<g enable-background="new    ">
		<path d="M3037.2,205.3c1.6,0,2.5,1.1,2,2.5c-0.5,1.4-2.2,2.5-3.8,2.5c-1.6,0-2.5-1.2-2-2.5
			C3033.9,206.4,3035.6,205.3,3037.2,205.3z"/>
	</g>
	<line fill="none" stroke="#000000" stroke-width="0.459" x1="3052.6" y1="209.3" x2="3052.6" y2="193.3"/>
	<g enable-background="new    ">
		<path d="M3050.8,207.7c1.6,0,2.5,1.1,2,2.5c-0.5,1.4-2.2,2.5-3.8,2.5c-1.6,0-2.5-1.2-2-2.5
			C3047.5,208.8,3049.2,207.7,3050.8,207.7z"/>
	</g>
	<line fill="none" stroke="#000000" stroke-width="0.459" x1="3061.6" y1="198.9" x2="3061.6" y2="214.9"/>
	<g enable-background="new    ">
		<path d="M3065.4,195.7c1.6,0,2.5,1.1,2,2.5c-0.5,1.4-2.2,2.5-3.8,2.5c-1.6,0-2.5-1.2-2-2.5
			C3062.1,196.8,3063.8,195.7,3065.4,195.7z"/>
	</g>
	<line fill="none" stroke="#000000" stroke-width="0.459" x1="3085" y1="198.9" x2="3085" y2="214.9"/>
	<g enable-background="new    ">
		<path d="M3088.8,195.7c1.6,0,2.5,1.1,2,2.5c-0.5,1.4-2.2,2.5-3.8,2.5c-1.6,0-2.5-1.2-2-2.5
			C3085.5,196.8,3087.2,195.7,3088.8,195.7z"/>
	</g>
	<line fill="none" stroke="#000000" stroke-width="0.459" x1="3100.8" y1="201.3" x2="3100.8" y2="217.3"/>
	<g enable-background="new    ">
		<path d="M3104.6,198.1c1.6,0,2.5,1.1,2,2.5c-0.5,1.4-2.2,2.5-3.8,2.5c-1.6,0-2.5-1.2-2-2.5C3101.3,199.2,3103,198.1,3104.6,198.1z
			"/>
	</g>
	<line fill="none" stroke="#000000" stroke-width="0.459" x1="3122.2" y1="202.1" x2="3122.2" y2="186.1"/>
	<g enable-background="new    ">
		<path d="M3120.4,200.5c1.6,0,2.5,1.1,2,2.5c-0.5,1.4-2.2,2.5-3.8,2.5c-1.6,0-2.5-1.2-2-2.5
			C3117.1,201.6,3118.8,200.5,3120.4,200.5z"/>
	</g>
	<line fill="none" stroke="#000000" stroke-width="0.459" x1="3137.8" y1="204.5" x2="3137.8" y2="188.5"/>
	<g enable-background="new    ">
		<path d="M3136,202.9c1.6,0,2.5,1.1,2,2.5c-0.5,1.4-2.2,2.5-3.8,2.5c-1.6,0-2.5-1.2-2-2.5C3132.7,204,3134.4,202.9,3136,202.9z"/>
	</g>
	<g enable-background="new    ">
		<path d="M3163.6,202c0.6,0,1,0.4,1,1c0,0.5-0.4,1-1,1s-1-0.4-1-1C3162.6,202.4,3163,202,3163.6,202z"/>
	</g>
	<line fill="none" stroke="#000000" stroke-width="0.459" x1="3160.2" y1="204.5" x2="3160.2" y2="188.5"/>
	<g enable-background="new    ">
		<path d="M3158.4,202.9c1.6,0,2.5,1.1,2,2.5c-0.5,1.4-2.2,2.5-3.8,2.5c-1.6,0-2.5-1.2-2-2.5C3155.1,204,3156.8,202.9,3158.4,202.9z
			"/>
	</g>
	<g enable-background="new    ">
		<path d="M3179.6,193c0.6,0.9,1.4,1.9,2.2,3.1c0.6,1.1,1.2,2.7,1.2,3.5c0.1,0.8,0.2,1.6,0.2,2.3c0,1.2-0.2,2.2-0.6,3.3l-0.2,0
			c0.3-0.9,0.5-2.2,0.5-3.3c0-0.9-0.2-2.1-0.5-3.1c-0.6-1.7-1.5-2.7-2.1-3.1c-0.8-0.6-1.8-0.6-1.8-0.6h-0.3v-5h0.3
			C3178.5,191.1,3179,192.2,3179.6,193z"/>
	</g>
	<line fill="none" stroke="#000000" stroke-width="0.459" x1="3178" y1="206.9" x2="3178" y2="190.9"/>
	<g enable-background="new    ">
		<path d="M3176.2,205.3c1.6,0,2.5,1.1,2,2.5c-0.5,1.4-2.2,2.5-3.8,2.5c-1.6,0-2.5-1.2-2-2.5
			C3172.9,206.4,3174.6,205.3,3176.2,205.3z"/>
	</g>
	<line fill="none" stroke="#000000" stroke-width="0.459" x1="3191.6" y1="209.3" x2="3191.6" y2="193.3"/>
	<g enable-background="new    ">
		<path d="M3189.8,207.7c1.6,0,2.5,1.1,2,2.5c-0.5,1.4-2.2,2.5-3.8,2.5c-1.6,0-2.5-1.2-2-2.5
			C3186.5,208.8,3188.2,207.7,3189.8,207.7z"/>
	</g>
	<line fill="none" stroke="#000000" stroke-width="0.459" x1="3206.2" y1="209.3" x2="3206.2" y2="193.3"/>
	<g enable-background="new    ">
		<path d="M3204.4,207.7c1.6,0,2.5,1.1,2,2.5c-0.5,1.4-2.2,2.5-3.8,2.5c-1.6,0-2.5-1.2-2-2.5
			C3201.1,208.8,3202.8,207.7,3204.4,207.7z"/>
	</g>
	<g enable-background="new    ">
		<path d="M3203.6,215.2c0.6,0,1,0.4,1,1c0,0.5-0.4,1-1,1s-1-0.4-1-1C3202.6,215.6,3203,215.2,3203.6,215.2z"/>
	</g>
	<line fill="none" stroke="#000000" stroke-width="0.459" x1="3229.6" y1="209.3" x2="3229.6" y2="193.3"/>
	<g enable-background="new    ">
		<path d="M3227.8,207.7c1.6,0,2.5,1.1,2,2.5c-0.5,1.4-2.2,2.5-3.8,2.5c-1.6,0-2.5-1.2-2-2.5
			C3224.5,208.8,3226.2,207.7,3227.8,207.7z"/>
	</g>
	<g enable-background="new    ">
		<path d="M3227,215.2c0.6,0,1,0.4,1,1c0,0.5-0.4,1-1,1s-1-0.4-1-1C3226,215.6,3226.4,215.2,3227,215.2z"/>
	</g>
	<line fill="none" stroke="#000000" stroke-width="0.459" x1="3252.6" y1="209.3" x2="3252.6" y2="193.3"/>
	<g enable-background="new    ">
		<path d="M3250.8,207.7c1.6,0,2.5,1.1,2,2.5c-0.5,1.4-2.2,2.5-3.8,2.5c-1.6,0-2.5-1.2-2-2.5
			C3247.5,208.8,3249.2,207.7,3250.8,207.7z"/>
	</g>
	<g enable-background="new    ">
		<path d="M3250,215.2c0.6,0,1,0.4,1,1c0,0.5-0.4,1-1,1s-1-0.4-1-1C3249,215.6,3249.4,215.2,3250,215.2z"/>
	</g>
	<line fill="none" stroke="#000000" stroke-width="0.459" x1="3265.4" y1="209.3" x2="3265.4" y2="193.3"/>
	<g enable-background="new    ">
		<path d="M3263.6,207.7c1.6,0,2.5,1.1,2,2.5c-0.5,1.4-2.2,2.5-3.8,2.5c-1.6,0-2.5-1.2-2-2.5C3260.3,208.8,3262,207.7,3263.6,207.7z
			"/>
	</g>
	<g enable-background="new    ">
		<path d="M3262.8,215.2c0.6,0,1,0.4,1,1c0,0.5-0.4,1-1,1s-1-0.4-1-1C3261.8,215.6,3262.2,215.2,3262.8,215.2z"/>
	</g>
	<line fill="none" stroke="#000000" stroke-width="0.459" x1="3279.4" y1="209.3" x2="3279.4" y2="193.3"/>
	<g enable-background="new    ">
		<path d="M3277.6,207.7c1.6,0,2.5,1.1,2,2.5c-0.5,1.4-2.2,2.5-3.8,2.5c-1.6,0-2.5-1.2-2-2.5C3274.3,208.8,3276,207.7,3277.6,207.7z
			"/>
	</g>
	<g enable-background="new    ">
		<path d="M3276.8,215.2c0.6,0,1,0.4,1,1c0,0.5-0.4,1-1,1s-1-0.4-1-1C3275.8,215.6,3276.2,215.2,3276.8,215.2z"/>
	</g>
	<g enable-background="new    ">
		<path d="M3302.8,202c0.6,0,1,0.4,1,1c0,0.5-0.4,1-1,1s-1-0.4-1-1C3301.8,202.4,3302.2,202,3302.8,202z"/>
	</g>
	<line fill="none" stroke="#000000" stroke-width="0.459" x1="3299.4" y1="204.5" x2="3299.4" y2="188.5"/>
	<g enable-background="new    ">
		<path d="M3299.7,205.4c-0.4,1-1.2,1.8-1.8,2.1c-0.6,0.3-1.4,0.4-2.2,0.4c-0.5,0-1.5-0.2-1.8-0.8c-0.4-0.7-0.1-1.4,0-1.8
			c0.4-1,1.1-1.6,1.7-2c0.6-0.3,1.5-0.6,2.5-0.5c0.4,0.1,1.3,0.1,1.7,0.8C3300,204.1,3299.8,205.1,3299.7,205.4z M3297.4,203.9
			c-0.4,0.2-0.7,0.4-1.1,0.6c-0.4,0.2-0.7,0.4-1.1,0.7c-0.6,0.3-1.3,1-0.9,1.6c0.4,0.6,1.3,0.3,1.9,0c0.4-0.2,0.8-0.4,1.2-0.6
			c0.4-0.2,0.7-0.4,1.1-0.7c0.5-0.3,1.3-1,0.9-1.6C3298.9,203.3,3298,203.6,3297.4,203.9z"/>
	</g>
	<g enable-background="new    ">
		<path d="M3330.4,205.3c1.6,0,2.5,1.1,2,2.5c-0.5,1.4-2.2,2.5-3.8,2.5c-1.6,0-2.5-1.2-2-2.5
			C3327.1,206.4,3328.8,205.3,3330.4,205.3z"/>
	</g>
	<line fill="none" stroke="#000000" stroke-width="0.459" x1="3332.2" y1="206.9" x2="3332.2" y2="194.5"/>
	<g enable-background="new    ">
		<path d="M3341,207.7c1.6,0,2.5,1.1,2,2.5c-0.5,1.4-2.2,2.5-3.8,2.5c-1.6,0-2.5-1.2-2-2.5C3337.7,208.8,3339.4,207.7,3341,207.7z"
			/>
	</g>
	<line fill="none" stroke="#000000" stroke-width="0.459" x1="3342.8" y1="209.3" x2="3342.8" y2="195.7"/>
	<path d="M3331.9,193.3l11.1,1.2v2.4l-11.1-1.2V193.3z"/>
	<line fill="none" stroke="#000000" stroke-width="0.459" x1="3365.4" y1="211.7" x2="3365.4" y2="195.7"/>
	<g enable-background="new    ">
		<path d="M3363.6,210.1c1.6,0,2.5,1.1,2,2.5c-0.5,1.4-2.2,2.5-3.8,2.5c-1.6,0-2.5-1.2-2-2.5C3360.3,211.2,3362,210.1,3363.6,210.1z
			"/>
	</g>
	<g enable-background="new    ">
		<path d="M3362.8,217.6c0.6,0,1,0.4,1,1c0,0.5-0.4,1-1,1s-1-0.4-1-1C3361.8,218,3362.2,217.6,3362.8,217.6z"/>
	</g>
	<line fill="none" stroke="#000000" stroke-width="0.459" x1="3391" y1="211.7" x2="3391" y2="195.7"/>
	<g enable-background="new    ">
		<path d="M3389.2,210.1c1.6,0,2.5,1.1,2,2.5c-0.5,1.4-2.2,2.5-3.8,2.5c-1.6,0-2.5-1.2-2-2.5
			C3385.9,211.2,3387.6,210.1,3389.2,210.1z"/>
	</g>
	<g enable-background="new    ">
		<path d="M3388.4,217.6c0.6,0,1,0.4,1,1c0,0.5-0.4,1-1,1s-1-0.4-1-1C3387.4,218,3387.8,217.6,3388.4,217.6z"/>
	</g>
	<line fill="none" stroke="#000000" stroke-width="0.459" x1="3404.2" y1="211.7" x2="3404.2" y2="195.7"/>
	<g enable-background="new    ">
		<path d="M3402.4,210.1c1.6,0,2.5,1.1,2,2.5c-0.5,1.4-2.2,2.5-3.8,2.5c-1.6,0-2.5-1.2-2-2.5
			C3399.1,211.2,3400.8,210.1,3402.4,210.1z"/>
	</g>
	<g enable-background="new    ">
		<path d="M3401.6,217.6c0.6,0,1,0.4,1,1c0,0.5-0.4,1-1,1s-1-0.4-1-1C3400.6,218,3401,217.6,3401.6,217.6z"/>
	</g>
	<line fill="none" stroke="#000000" stroke-width="0.459" x1="3418.4" y1="211.7" x2="3418.4" y2="195.7"/>
	<g enable-background="new    ">
		<path d="M3416.6,210.1c1.6,0,2.5,1.1,2,2.5c-0.5,1.4-2.2,2.5-3.8,2.5c-1.6,0-2.5-1.2-2-2.5C3413.3,211.2,3415,210.1,3416.6,210.1z
			"/>
	</g>
	<g enable-background="new    ">
		<path d="M3415.8,217.6c0.6,0,1,0.4,1,1c0,0.5-0.4,1-1,1s-1-0.4-1-1C3414.8,218,3415.2,217.6,3415.8,217.6z"/>
	</g>
	<g enable-background="new    ">
		<path d="M3440.8,206.8c0.6,0,1,0.4,1,1c0,0.5-0.4,1-1,1s-1-0.4-1-1C3439.8,207.2,3440.2,206.8,3440.8,206.8z"/>
	</g>
	<line fill="none" stroke="#000000" stroke-width="0.459" x1="3437.4" y1="206.9" x2="3437.4" y2="190.9"/>
	<g enable-background="new    ">
		<path d="M3437.7,207.8c-0.4,1-1.2,1.8-1.8,2.1c-0.6,0.3-1.4,0.4-2.2,0.4c-0.5,0-1.5-0.2-1.8-0.8c-0.4-0.7-0.1-1.4,0-1.8
			c0.4-1,1.1-1.6,1.7-2c0.6-0.3,1.5-0.6,2.5-0.5c0.4,0.1,1.3,0.1,1.7,0.8C3438,206.5,3437.8,207.5,3437.7,207.8z M3435.4,206.3
			c-0.4,0.2-0.7,0.4-1.1,0.6c-0.4,0.2-0.7,0.4-1.1,0.7c-0.6,0.3-1.3,1-0.9,1.6c0.4,0.6,1.3,0.3,1.9,0c0.4-0.2,0.8-0.4,1.2-0.6
			c0.4-0.2,0.7-0.4,1.1-0.7c0.5-0.3,1.3-1,0.9-1.6C3436.9,205.7,3436,206,3435.4,206.3z"/>
	</g>
	<g enable-background="new    ">
		<path d="M3476.8,207.7c1.6,0,2.5,1.1,2,2.5c-0.5,1.4-2.2,2.5-3.8,2.5c-1.6,0-2.5-1.2-2-2.5
			C3473.5,208.8,3475.2,207.7,3476.8,207.7z"/>
	</g>
	<line fill="none" stroke="#000000" stroke-width="0.459" x1="3478.6" y1="209.3" x2="3478.6" y2="195.7"/>
	<g enable-background="new    ">
		<path d="M3486,210.1c1.6,0,2.5,1.1,2,2.5c-0.5,1.4-2.2,2.5-3.8,2.5c-1.6,0-2.5-1.2-2-2.5C3482.7,211.2,3484.4,210.1,3486,210.1z"
			/>
	</g>
	<line fill="none" stroke="#000000" stroke-width="0.459" x1="3487.8" y1="211.7" x2="3487.8" y2="196.9"/>
	<path d="M3478.3,194.5l9.7,1.2v2.4l-9.7-1.2V194.5z"/>
	<line fill="none" stroke="#000000" stroke-width="0.459" x1="3508.2" y1="214.1" x2="3508.2" y2="198.1"/>
	<line fill="none" stroke="#000000" stroke-width="0.459" x1="3501.2" y1="214.9" x2="3509.6" y2="214.9"/>
	<g enable-background="new    ">
		<path d="M3506.4,212.5c1.6,0,2.5,1.1,2,2.5c-0.5,1.4-2.2,2.5-3.8,2.5c-1.6,0-2.5-1.2-2-2.5
			C3503.1,213.6,3504.8,212.5,3506.4,212.5z"/>
	</g>
	<line fill="none" stroke="#000000" stroke-width="0.459" x1="3520" y1="198.9" x2="3520" y2="214.9"/>
	<g enable-background="new    ">
		<path d="M3525.9,198.2c-0.4,1-1.2,1.8-1.8,2.1c-0.6,0.3-1.4,0.4-2.2,0.4c-0.5,0-1.5-0.2-1.8-0.8c-0.4-0.7-0.1-1.4,0-1.8
			c0.4-1,1.1-1.6,1.7-2c0.6-0.3,1.5-0.6,2.5-0.5c0.4,0.1,1.3,0.1,1.7,0.8C3526.2,196.9,3526,197.9,3525.9,198.2z M3523.6,196.7
			c-0.4,0.2-0.7,0.4-1.1,0.6c-0.4,0.2-0.7,0.4-1.1,0.7c-0.6,0.3-1.3,1-0.9,1.6c0.4,0.6,1.3,0.3,1.9,0c0.4-0.2,0.8-0.4,1.2-0.6
			s0.7-0.4,1.1-0.7c0.5-0.3,1.3-1,0.9-1.6C3525.1,196.1,3524.2,196.4,3523.6,196.7z"/>
	</g>
	<line fill="none" stroke="#000000" stroke-width="0.459" x1="3553.8" y1="202.1" x2="3553.8" y2="186.1"/>
	<g enable-background="new    ">
		<path d="M3552,200.5c1.6,0,2.5,1.1,2,2.5c-0.5,1.4-2.2,2.5-3.8,2.5c-1.6,0-2.5-1.2-2-2.5C3548.7,201.6,3550.4,200.5,3552,200.5z"
			/>
	</g>
	<g enable-background="new    ">
		<path d="M3581.2,202c0.6,0,1,0.4,1,1c0,0.5-0.4,1-1,1s-1-0.4-1-1C3580.2,202.4,3580.6,202,3581.2,202z"/>
	</g>
	<line fill="none" stroke="#000000" stroke-width="0.459" x1="3577.8" y1="204.5" x2="3577.8" y2="188.5"/>
	<g enable-background="new    ">
		<path d="M3576,202.9c1.6,0,2.5,1.1,2,2.5c-0.5,1.4-2.2,2.5-3.8,2.5c-1.6,0-2.5-1.2-2-2.5C3572.7,204,3574.4,202.9,3576,202.9z"/>
	</g>
	<g enable-background="new    ">
		<path d="M3597.2,193c0.6,0.9,1.4,1.9,2.2,3.1c0.6,1.1,1.2,2.7,1.2,3.5c0.1,0.8,0.2,1.6,0.2,2.3c0,1.2-0.2,2.2-0.6,3.3l-0.2,0
			c0.3-0.9,0.5-2.2,0.5-3.3c0-0.9-0.2-2.1-0.5-3.1c-0.6-1.7-1.5-2.7-2.1-3.1c-0.8-0.6-1.8-0.6-1.8-0.6h-0.3v-5h0.3
			C3596.1,191.1,3596.6,192.2,3597.2,193z"/>
	</g>
	<line fill="none" stroke="#000000" stroke-width="0.459" x1="3595.6" y1="206.9" x2="3595.6" y2="190.9"/>
	<g enable-background="new    ">
		<path d="M3593.8,205.3c1.6,0,2.5,1.1,2,2.5c-0.5,1.4-2.2,2.5-3.8,2.5c-1.6,0-2.5-1.2-2-2.5
			C3590.5,206.4,3592.2,205.3,3593.8,205.3z"/>
	</g>
	<line fill="none" stroke="#000000" stroke-width="0.459" x1="3609.2" y1="209.3" x2="3609.2" y2="193.3"/>
	<g enable-background="new    ">
		<path d="M3607.4,207.7c1.6,0,2.5,1.1,2,2.5c-0.5,1.4-2.2,2.5-3.8,2.5c-1.6,0-2.5-1.2-2-2.5
			C3604.1,208.8,3605.8,207.7,3607.4,207.7z"/>
	</g>
	<line fill="none" stroke="#000000" stroke-width="0.459" x1="3623.8" y1="206.9" x2="3623.8" y2="190.9"/>
	<g enable-background="new    ">
		<path d="M3622,205.3c1.6,0,2.5,1.1,2,2.5c-0.5,1.4-2.2,2.5-3.8,2.5c-1.6,0-2.5-1.2-2-2.5C3618.7,206.4,3620.4,205.3,3622,205.3z"
			/>
	</g>
	<line fill="none" stroke="#000000" stroke-width="0.459" x1="3646.2" y1="209.3" x2="3646.2" y2="193.3"/>
	<g enable-background="new    ">
		<path d="M3646.5,210.2c-0.4,1-1.2,1.8-1.8,2.1c-0.6,0.3-1.4,0.4-2.2,0.4c-0.5,0-1.5-0.2-1.8-0.8c-0.4-0.7-0.1-1.4,0-1.8
			c0.4-1,1.1-1.6,1.7-2c0.6-0.3,1.5-0.6,2.5-0.5c0.4,0.1,1.3,0.1,1.7,0.8C3646.8,208.9,3646.6,209.9,3646.5,210.2z M3644.2,208.7
			c-0.4,0.2-0.7,0.4-1.1,0.6c-0.4,0.2-0.7,0.4-1.1,0.7c-0.6,0.3-1.3,1-0.9,1.6c0.4,0.6,1.3,0.3,1.9,0c0.4-0.2,0.8-0.4,1.2-0.6
			c0.4-0.2,0.7-0.4,1.1-0.7c0.5-0.3,1.3-1,0.9-1.6C3645.7,208.1,3644.8,208.4,3644.2,208.7z"/>
	</g>
	<line fill="none" stroke="#000000" stroke-width="0.459" x1="3678.4" y1="211.7" x2="3678.4" y2="195.7"/>
	<g enable-background="new    ">
		<path d="M3678.7,212.6c-0.4,1-1.2,1.8-1.8,2.1c-0.6,0.3-1.4,0.4-2.2,0.4c-0.5,0-1.5-0.2-1.8-0.8c-0.4-0.7-0.1-1.4,0-1.8
			c0.4-1,1.1-1.6,1.7-2c0.6-0.3,1.5-0.6,2.5-0.5c0.4,0.1,1.3,0.1,1.7,0.8C3679,211.3,3678.8,212.3,3678.7,212.6z M3676.4,211.1
			c-0.4,0.2-0.7,0.4-1.1,0.6c-0.4,0.2-0.7,0.4-1.1,0.7c-0.6,0.3-1.3,1-0.9,1.6c0.4,0.6,1.3,0.3,1.9,0c0.4-0.2,0.8-0.4,1.2-0.6
			c0.4-0.2,0.7-0.4,1.1-0.7c0.5-0.3,1.3-1,0.9-1.6C3677.9,210.5,3677,210.8,3676.4,211.1z"/>
	</g>
	<g enable-background="new    ">
		<path d="M3720.4,211.6c0.6,0,1,0.4,1,1c0,0.5-0.4,1-1,1s-1-0.4-1-1C3719.4,212,3719.8,211.6,3720.4,211.6z"/>
	</g>
	<line fill="none" stroke="#000000" stroke-width="0.459" x1="3717" y1="214.1" x2="3717" y2="198.1"/>
	<line fill="none" stroke="#000000" stroke-width="0.459" x1="3710" y1="214.9" x2="3718.4" y2="214.9"/>
	<g enable-background="new    ">
		<path d="M3717.3,215c-0.4,1-1.2,1.8-1.8,2.1c-0.6,0.3-1.4,0.4-2.2,0.4c-0.5,0-1.5-0.2-1.8-0.8c-0.4-0.7-0.1-1.4,0-1.8
			c0.4-1,1.1-1.6,1.7-2c0.6-0.3,1.5-0.6,2.5-0.5c0.4,0.1,1.3,0.1,1.7,0.8C3717.7,213.7,3717.4,214.7,3717.3,215z M3715,213.5
			c-0.4,0.2-0.7,0.4-1.1,0.6c-0.4,0.2-0.7,0.4-1.1,0.7c-0.6,0.3-1.3,1-0.9,1.6c0.4,0.6,1.3,0.3,1.9,0c0.4-0.2,0.8-0.4,1.2-0.6
			s0.7-0.4,1.1-0.7c0.5-0.3,1.3-1,0.9-1.6C3716.5,212.9,3715.6,213.2,3715,213.5z"/>
	</g>
	<g enable-background="new    ">
		<path d="M3759.8,204.3c-0.8,0-1.5,0.5-1.5,1.4c0,0.6,1,1.5,1,1.5l-0.2,0.2c0,0-2.2-1.3-2.5-2.7c-0.1-0.9,0.5-1.8,1.6-1.9
			c0.4,0,1.2,0.1,1.5,0.2c-1.8-1.8-2.8-3-2.7-3.4c0.4-0.4,1.7-2.1,1.7-3.4c0-0.9-1.3-2.9-1.3-2.9l0.3-0.2l3.5,4.4c0,0-1.7,2-1.7,3.4
			c0,1,0.6,1.8,1.1,2.3c0.2,0.3,1,1.1,1,1.2l0,0.3C3760.7,204.4,3760.2,204.3,3759.8,204.3z"/>
	</g>
	<path d="M1418.8,194.3c13-7.2,52.4-7.2,65.4,0l-0.1,0.2c-12.9-6.2-52.3-6.2-65.2,0L1418.8,194.3z"/>
	<path d="M2810.8,194.3c13-7.2,52.4-7.2,65.4,0l-0.1,0.2c-12.9-6.2-52.3-6.2-65.2,0L2810.8,194.3z"/>
	<path d="M1556.6,193.1c2.8-3.6,13.6-3,16,1l0,0C1570.1,191.3,1559.3,190.7,1556.6,193.1"/>
	<path d="M1588.2,207.7c1.6,4.4,12.2,7,15.6,4l0,0C1600.7,213.5,1590.1,210.9,1588.2,207.7"/>
	<path d="M1626.2,212.1c4.2,5.2,24.6,8.4,30.2,4.8l0,0C1651,219.3,1630.6,216.1,1626.2,212.1"/>
	<path d="M1695.8,193.1c2.8-3.6,13.4-3,15.8,1l0,0C1709.1,191.3,1698.5,190.7,1695.8,193.1"/>
	<path d="M1727.6,207.7c1.6,4.4,12,7,15.4,4l0,0C1739.9,213.5,1729.5,210.9,1727.6,207.7"/>
	<path d="M1765.6,212.1c4.4,4.8,24.2,7.4,29.8,4l0,0C1790,218.3,1770.2,215.7,1765.6,212.1"/>
	<path d="M1944.6,212.7c0.8,3.2,6.8,4.8,9,2.2l0,0C1951.7,216.3,1945.7,214.7,1944.6,212.7"/>
	<path d="M2087.2,214.9c0.8,3.4,7.4,5.2,9.8,2.4l0,0C2094.9,218.9,2088.3,217.1,2087.2,214.9"/>
	<path d="M2119.2,202.5c-0.4-4.4,7.4-10.6,11.6-9.4l0,0C2127.4,192.8,2119.6,199,2119.2,202.5"/>
	<path d="M2183,211.9c4.6,4.8,25,7.6,30.8,4.2l0,0C2208.2,218.3,2187.8,215.5,2183,211.9"/>
	<path d="M2948.6,193.1c2.8-3.6,13.6-3,16,1l0,0C2962.1,191.3,2951.3,190.7,2948.6,193.1"/>
	<path d="M2980.2,207.7c1.6,4.4,12.2,7,15.6,4l0,0C2992.7,213.5,2982.1,210.9,2980.2,207.7"/>
	<path d="M3018.2,212.1c4.2,5.2,24.6,8.4,30.2,4.8l0,0C3043,219.3,3022.6,216.1,3018.2,212.1"/>
	<path d="M3087.8,193.1c2.8-3.6,13.4-3,15.8,1l0,0C3101.1,191.3,3090.5,190.7,3087.8,193.1"/>
	<path d="M3119.6,207.7c1.6,4.4,12,7,15.4,4l0,0C3131.9,213.5,3121.5,210.9,3119.6,207.7"/>
	<path d="M3157.6,212.1c4.4,4.8,24.2,7.4,29.8,4l0,0C3182,218.3,3162.2,215.7,3157.6,212.1"/>
	<path d="M3329.6,212.7c1,3.6,8,5,10.4,2.2l0,0C3337.8,216.5,3330.8,215.1,3329.6,212.7"/>
	<path d="M3475.8,214.9c0.8,3.4,6.8,4.8,9.2,2.4l0,0C3482.9,218.5,3476.9,217.1,3475.8,214.9"/>
	<path d="M3511.2,202.5c-0.4-4.4,7.4-10.6,11.6-9.4l0,0C3519.4,192.8,3511.6,199,3511.2,202.5"/>
	<path d="M3575,211.9c4.6,4.8,25,7.6,30.8,4.2l0,0C3600.2,218.3,3579.8,215.5,3575,211.9"/>
</g>
</svg>
