<?xml version="1.0" encoding="utf-8"?>
<!-- Generator: Adobe Illustrator 16.0.0, SVG Export Plug-In . SVG Version: 6.00 Build 0)  -->
<!DOCTYPE svg PUBLIC "-//W3C//DTD SVG 1.1//EN" "http://www.w3.org/Graphics/SVG/1.1/DTD/svg11.dtd">
<svg version="1.1" id="Layer_1" xmlns="http://www.w3.org/2000/svg" xmlns:xlink="http://www.w3.org/1999/xlink" x="0px" y="0px"
	 width="2880px" height="49.3px" viewBox="928 176.3 2880 49.3" enable-background="new 928 176.3 2880 49.3" xml:space="preserve">
<g id="Music">
	<rect x="928" y="-114.8" fill="#FFFFFF" width="2880" height="425.2"/>
	<line fill="none" stroke="#000000" stroke-width="0.459" x1="956.4" y1="-98.8" x2="956.4" y2="266"/>
	<g enable-background="new    ">
		<path d="M966.3,190.3v17h-4.9v-17H966.3z M965.5,205.7v-13.8h-3.2v13.8H965.5z"/>
	</g>
	<g enable-background="new    ">
		<path d="M986.6,205.7v1.3c0,0.8,0.9,0.7,0.9,0.7v0.5h-4.2v-0.5c0,0,0.9,0,0.9-0.7v-1.3h-3.6l-0.3-0.4c2.3-3.1,2.3-3.7,2.9-6.5h3.3
			c-0.8,1.5-3.4,4.2-5.3,6.4h3v-2.4l2.3-2.6v4.9h1.4v0.5H986.6z"/>
	</g>
	<g enable-background="new    ">
		<path d="M986.6,196.1v1.3c0,0.8,0.9,0.7,0.9,0.7v0.5h-4.2v-0.5c0,0,0.9,0,0.9-0.7v-1.3h-3.6l-0.3-0.4c2.3-3.1,2.3-3.7,2.9-6.5h3.3
			c-0.8,1.5-3.4,4.2-5.3,6.4h3v-2.4l2.3-2.6v4.9h1.4v0.5H986.6z"/>
	</g>
	<line fill="none" stroke="#000000" stroke-width="0.459" x1="1060" y1="189.2" x2="1060" y2="208.4"/>
	<line fill="none" stroke="#000000" stroke-width="0.459" x1="1129.6" y1="189.2" x2="1129.6" y2="208.4"/>
	<line fill="none" stroke="#000000" stroke-width="0.459" x1="1199.2" y1="189.2" x2="1199.2" y2="208.4"/>
	<line fill="none" stroke="#000000" stroke-width="0.459" x1="1268.8" y1="189.2" x2="1268.8" y2="208.4"/>
	<line fill="none" stroke="#000000" stroke-width="0.459" x1="1338.4" y1="189.2" x2="1338.4" y2="208.4"/>
	<line fill="none" stroke="#000000" stroke-width="0.459" x1="1408" y1="189.2" x2="1408" y2="208.4"/>
	<line fill="none" stroke="#000000" stroke-width="0.459" x1="1477.6" y1="189.2" x2="1477.6" y2="208.4"/>
	<line fill="none" stroke="#000000" stroke-width="0.459" x1="1547.2" y1="189.2" x2="1547.2" y2="208.4"/>
	<line fill="none" stroke="#000000" stroke-width="0.459" x1="1616.8" y1="189.2" x2="1616.8" y2="208.4"/>
	<line fill="none" stroke="#000000" stroke-width="0.459" x1="1686.4" y1="189.2" x2="1686.4" y2="208.4"/>
	<line fill="none" stroke="#000000" stroke-width="0.459" x1="1756" y1="189.2" x2="1756" y2="208.4"/>
	<line fill="none" stroke="#000000" stroke-width="0.459" x1="1825.6" y1="189.2" x2="1825.6" y2="208.4"/>
	<line fill="none" stroke="#000000" stroke-width="0.459" x1="1895.2" y1="189.2" x2="1895.2" y2="208.4"/>
	<line fill="none" stroke="#000000" stroke-width="0.459" x1="1964.8" y1="189.2" x2="1964.8" y2="208.4"/>
	<line fill="none" stroke="#000000" stroke-width="0.459" x1="2034.4" y1="189.2" x2="2034.4" y2="208.4"/>
	<line fill="none" stroke="#000000" stroke-width="0.459" x1="2104" y1="189.2" x2="2104" y2="208.4"/>
	<line fill="none" stroke="#000000" stroke-width="0.459" x1="2173.6" y1="189.2" x2="2173.6" y2="208.4"/>
	<line fill="none" stroke="#000000" stroke-width="0.459" x1="2243.2" y1="189.2" x2="2243.2" y2="208.4"/>
	<line fill="none" stroke="#000000" stroke-width="0.459" x1="2312.8" y1="189.2" x2="2312.8" y2="208.4"/>
	<line fill="none" stroke="#000000" stroke-width="0.459" x1="2382.4" y1="189.2" x2="2382.4" y2="208.4"/>
	<line fill="none" stroke="#000000" stroke-width="0.459" x1="2452" y1="189.2" x2="2452" y2="208.4"/>
	<line fill="none" stroke="#000000" stroke-width="0.459" x1="2521.6" y1="189.2" x2="2521.6" y2="208.4"/>
	<line fill="none" stroke="#000000" stroke-width="0.459" x1="2591.2" y1="189.2" x2="2591.2" y2="208.4"/>
	<line fill="none" stroke="#000000" stroke-width="0.459" x1="2660.8" y1="189.2" x2="2660.8" y2="208.4"/>
	<line fill="none" stroke="#000000" stroke-width="0.459" x1="2730.4" y1="189.2" x2="2730.4" y2="208.4"/>
	<line fill="none" stroke="#000000" stroke-width="0.459" x1="2800" y1="189.2" x2="2800" y2="208.4"/>
	<line fill="none" stroke="#000000" stroke-width="0.459" x1="2869.6" y1="189.2" x2="2869.6" y2="208.4"/>
	<line fill="none" stroke="#000000" stroke-width="0.459" x1="2939.2" y1="189.2" x2="2939.2" y2="208.4"/>
	<line fill="none" stroke="#000000" stroke-width="0.459" x1="3008.8" y1="189.2" x2="3008.8" y2="208.4"/>
	<line fill="none" stroke="#000000" stroke-width="0.459" x1="3078.4" y1="189.2" x2="3078.4" y2="208.4"/>
	<line fill="none" stroke="#000000" stroke-width="0.459" x1="3148" y1="189.2" x2="3148" y2="208.4"/>
	<line fill="none" stroke="#000000" stroke-width="0.459" x1="3217.6" y1="189.2" x2="3217.6" y2="208.4"/>
	<line fill="none" stroke="#000000" stroke-width="0.459" x1="3287.2" y1="189.2" x2="3287.2" y2="208.4"/>
	<line fill="none" stroke="#000000" stroke-width="0.459" x1="3356.8" y1="189.2" x2="3356.8" y2="208.4"/>
	<line fill="none" stroke="#000000" stroke-width="0.459" x1="3426.4" y1="189.2" x2="3426.4" y2="208.4"/>
	<line fill="none" stroke="#000000" stroke-width="0.459" x1="3496" y1="189.2" x2="3496" y2="208.4"/>
	<line fill="none" stroke="#000000" stroke-width="0.459" x1="3565.6" y1="189.2" x2="3565.6" y2="208.4"/>
	<line fill="none" stroke="#000000" stroke-width="0.459" x1="3635.2" y1="189.2" x2="3635.2" y2="208.4"/>
	<line fill="none" stroke="#000000" stroke-width="0.459" x1="3704.8" y1="189.2" x2="3704.8" y2="208.4"/>
	<line fill="none" stroke="#000000" stroke-width="2.419" x1="3778.6" y1="189.2" x2="3778.6" y2="208.4"/>
	<line fill="none" stroke="#000000" stroke-width="0.459" x1="3774.7" y1="189.2" x2="3774.7" y2="208.4"/>
	<line fill="none" stroke="#000000" stroke-width="0.459" x1="956.2" y1="198.8" x2="3779.8" y2="198.8"/>
	<line fill="none" stroke="#000000" stroke-width="0.459" x1="997" y1="199.6" x2="997" y2="215.6"/>
	<g enable-background="new    ">
		<path d="M1002.9,198.9c-0.4,1-1.2,1.8-1.8,2.1c-0.6,0.3-1.4,0.4-2.2,0.4c-0.5,0-1.5-0.2-1.8-0.8c-0.4-0.7-0.1-1.4,0-1.8
			c0.4-1,1.1-1.6,1.7-2c0.6-0.3,1.5-0.6,2.5-0.5c0.4,0.1,1.3,0.1,1.7,0.8C1003.2,197.6,1003,198.6,1002.9,198.9z M1000.6,197.4
			c-0.4,0.2-0.7,0.4-1.1,0.6c-0.4,0.2-0.7,0.4-1.1,0.7c-0.6,0.3-1.3,1-0.9,1.6c0.4,0.6,1.3,0.3,1.9,0c0.4-0.2,0.8-0.4,1.2-0.6
			s0.7-0.4,1.1-0.7c0.5-0.3,1.3-1,0.9-1.6C1002.1,196.8,1001.2,197.1,1000.6,197.4z"/>
	</g>
	<line fill="none" stroke="#000000" stroke-width="0.459" x1="1022.6" y1="199.6" x2="1022.6" y2="215.6"/>
	<g enable-background="new    ">
		<path d="M1028.5,198.9c-0.4,1-1.2,1.8-1.8,2.1c-0.6,0.3-1.4,0.4-2.2,0.4c-0.5,0-1.5-0.2-1.8-0.8c-0.4-0.7-0.1-1.4,0-1.8
			c0.4-1,1.1-1.6,1.7-2c0.6-0.3,1.5-0.6,2.5-0.5c0.4,0.1,1.3,0.1,1.7,0.8C1028.8,197.6,1028.6,198.6,1028.5,198.9z M1026.2,197.4
			c-0.4,0.2-0.7,0.4-1.1,0.6c-0.4,0.2-0.7,0.4-1.1,0.7c-0.6,0.3-1.3,1-0.9,1.6c0.4,0.6,1.3,0.3,1.9,0c0.4-0.2,0.8-0.4,1.2-0.6
			s0.7-0.4,1.1-0.7c0.5-0.3,1.3-1,0.9-1.6C1027.7,196.8,1026.8,197.1,1026.2,197.4z"/>
	</g>
	<g enable-background="new    ">
		<path d="M991.2,214.1c-0.5,0-0.6-0.4-0.6-0.7c0-0.5,0.6-0.7,1-1.1c0-0.2-0.2-0.2-0.4-0.2c-1,0-1.4,0.8-1.7,1.6
			c-0.1,0.3-0.4,1-0.5,1.7h1.8v0.4c0,0-1.9,0-1.9,0c-0.2,0.6-0.5,1.7-0.6,1.9c-0.3,1-0.5,1.6-0.9,2.6c-0.3,0.8-1,1.9-1.9,2.9
			c-0.7,0.7-1.5,0.9-2.2,0.9c-0.5,0-1.2-0.7-1.2-1.4c0-0.6,0.3-1.3,1-1.3c0.6,0,0.8,0.4,0.8,0.9c-0.2,0.8-0.8,0.8-0.8,1
			c0.1,0.1,0.2,0.2,0.3,0.2c1.2,0,2-3.2,2.1-3.7c0.3-1.2,0.7-2.3,1.1-4H985v-0.4h1.8c0.3-0.7,0.6-1.3,1-1.8c0.9-1.3,2-1.9,3.4-1.9
			c0.6,0,1.2,0.6,1.2,1.2C992.4,213.4,992,214.1,991.2,214.1z"/>
	</g>
	<line fill="none" stroke="#000000" stroke-width="0.459" x1="1065.4" y1="199.6" x2="1065.4" y2="215.6"/>
	<g enable-background="new    ">
		<path d="M1071.3,198.9c-0.4,1-1.2,1.8-1.8,2.1c-0.6,0.3-1.4,0.4-2.2,0.4c-0.5,0-1.5-0.2-1.8-0.8c-0.4-0.7-0.1-1.4,0-1.8
			c0.4-1,1.1-1.6,1.7-2c0.6-0.3,1.5-0.6,2.5-0.5c0.4,0.1,1.3,0.1,1.7,0.8C1071.6,197.6,1071.4,198.6,1071.3,198.9z M1069,197.4
			c-0.4,0.2-0.7,0.4-1.1,0.6c-0.4,0.2-0.7,0.4-1.1,0.7c-0.6,0.3-1.3,1-0.9,1.6c0.4,0.6,1.3,0.3,1.9,0c0.4-0.2,0.8-0.4,1.2-0.6
			s0.7-0.4,1.1-0.7c0.5-0.3,1.3-1,0.9-1.6C1070.5,196.8,1069.6,197.1,1069,197.4z"/>
	</g>
	<g enable-background="new    ">
		<path d="M1101.5,196.3v2.5h-6.1v-2.5H1101.5z"/>
	</g>
	<line fill="none" stroke="#000000" stroke-width="0.459" x1="1094.8" y1="198.8" x2="1102" y2="198.8"/>
	<line fill="none" stroke="#000000" stroke-width="0.459" x1="1135" y1="199.6" x2="1135" y2="215.6"/>
	<g enable-background="new    ">
		<path d="M1140.9,198.9c-0.4,1-1.2,1.8-1.8,2.1c-0.6,0.3-1.4,0.4-2.2,0.4c-0.5,0-1.5-0.2-1.8-0.8c-0.4-0.7-0.1-1.4,0-1.8
			c0.4-1,1.1-1.6,1.7-2c0.6-0.3,1.5-0.6,2.5-0.5c0.4,0.1,1.3,0.1,1.7,0.8C1141.2,197.6,1141,198.6,1140.9,198.9z M1138.6,197.4
			c-0.4,0.2-0.7,0.4-1.1,0.6c-0.4,0.2-0.7,0.4-1.1,0.7c-0.6,0.3-1.3,1-0.9,1.6c0.4,0.6,1.3,0.3,1.9,0c0.4-0.2,0.8-0.4,1.2-0.6
			s0.7-0.4,1.1-0.7c0.5-0.3,1.3-1,0.9-1.6C1140.1,196.8,1139.2,197.1,1138.6,197.4z"/>
	</g>
	<line fill="none" stroke="#000000" stroke-width="0.459" x1="1167.2" y1="199.6" x2="1167.2" y2="215.6"/>
	<g enable-background="new    ">
		<path d="M1173.1,198.9c-0.4,1-1.2,1.8-1.8,2.1c-0.6,0.3-1.4,0.4-2.2,0.4c-0.5,0-1.5-0.2-1.8-0.8c-0.4-0.7-0.1-1.4,0-1.8
			c0.4-1,1.1-1.6,1.7-2c0.6-0.3,1.5-0.6,2.5-0.5c0.4,0.1,1.3,0.1,1.7,0.8C1173.4,197.6,1173.2,198.6,1173.1,198.9z M1170.8,197.4
			c-0.4,0.2-0.7,0.4-1.1,0.6c-0.4,0.2-0.7,0.4-1.1,0.7c-0.6,0.3-1.3,1-0.9,1.6c0.4,0.6,1.3,0.3,1.9,0c0.4-0.2,0.8-0.4,1.2-0.6
			s0.7-0.4,1.1-0.7c0.5-0.3,1.3-1,0.9-1.6C1172.3,196.8,1171.4,197.1,1170.8,197.4z"/>
	</g>
	<line fill="none" stroke="#000000" stroke-width="0.459" x1="1205.8" y1="199.6" x2="1205.8" y2="215.6"/>
	<g enable-background="new    ">
		<path d="M1211.7,198.9c-0.4,1-1.2,1.8-1.8,2.1c-0.6,0.3-1.4,0.4-2.2,0.4c-0.5,0-1.5-0.2-1.8-0.8c-0.4-0.7-0.1-1.4,0-1.8
			c0.4-1,1.1-1.6,1.7-2c0.6-0.3,1.5-0.6,2.5-0.5c0.4,0.1,1.3,0.1,1.7,0.8C1212,197.6,1211.8,198.6,1211.7,198.9z M1209.4,197.4
			c-0.4,0.2-0.7,0.4-1.1,0.6c-0.4,0.2-0.7,0.4-1.1,0.7c-0.6,0.3-1.3,1-0.9,1.6c0.4,0.6,1.3,0.3,1.9,0c0.4-0.2,0.8-0.4,1.2-0.6
			s0.7-0.4,1.1-0.7c0.5-0.3,1.3-1,0.9-1.6C1210.9,196.8,1210,197.1,1209.4,197.4z"/>
	</g>
	<g enable-background="new    ">
		<path d="M1241.5,196.3v2.5h-6.1v-2.5H1241.5z"/>
	</g>
	<line fill="none" stroke="#000000" stroke-width="0.459" x1="1234.8" y1="198.8" x2="1242" y2="198.8"/>
	<line fill="none" stroke="#000000" stroke-width="0.459" x1="1274.2" y1="199.6" x2="1274.2" y2="215.6"/>
	<g enable-background="new    ">
		<path d="M1280.1,198.9c-0.4,1-1.2,1.8-1.8,2.1c-0.6,0.3-1.4,0.4-2.2,0.4c-0.5,0-1.5-0.2-1.8-0.8c-0.4-0.7-0.1-1.4,0-1.8
			c0.4-1,1.1-1.6,1.7-2c0.6-0.3,1.5-0.6,2.5-0.5c0.4,0.1,1.3,0.1,1.7,0.8C1280.4,197.6,1280.2,198.6,1280.1,198.9z M1277.8,197.4
			c-0.4,0.2-0.7,0.4-1.1,0.6c-0.4,0.2-0.7,0.4-1.1,0.7c-0.6,0.3-1.3,1-0.9,1.6c0.4,0.6,1.3,0.3,1.9,0c0.4-0.2,0.8-0.4,1.2-0.6
			s0.7-0.4,1.1-0.7c0.5-0.3,1.3-1,0.9-1.6C1279.3,196.8,1278.4,197.1,1277.8,197.4z"/>
	</g>
	<g enable-background="new    ">
		<path d="M1310.3,196.3v2.5h-6.1v-2.5H1310.3z"/>
	</g>
	<line fill="none" stroke="#000000" stroke-width="0.459" x1="1303.6" y1="198.8" x2="1310.8" y2="198.8"/>
	<line fill="none" stroke="#000000" stroke-width="0.459" x1="1343.8" y1="199.6" x2="1343.8" y2="215.6"/>
	<g enable-background="new    ">
		<path d="M1349.7,198.9c-0.4,1-1.2,1.8-1.8,2.1c-0.6,0.3-1.4,0.4-2.2,0.4c-0.5,0-1.5-0.2-1.8-0.8c-0.4-0.7-0.1-1.4,0-1.8
			c0.4-1,1.1-1.6,1.7-2c0.6-0.3,1.5-0.6,2.5-0.5c0.4,0.1,1.3,0.1,1.7,0.8C1350,197.6,1349.8,198.6,1349.7,198.9z M1347.4,197.4
			c-0.4,0.2-0.7,0.4-1.1,0.6c-0.4,0.2-0.7,0.4-1.1,0.7c-0.6,0.3-1.3,1-0.9,1.6c0.4,0.6,1.3,0.3,1.9,0c0.4-0.2,0.8-0.4,1.2-0.6
			s0.7-0.4,1.1-0.7c0.5-0.3,1.3-1,0.9-1.6C1348.9,196.8,1348,197.1,1347.4,197.4z"/>
	</g>
	<g enable-background="new    ">
		<path d="M1379.9,196.3v2.5h-6.1v-2.5H1379.9z"/>
	</g>
	<line fill="none" stroke="#000000" stroke-width="0.459" x1="1373.2" y1="198.8" x2="1380.4" y2="198.8"/>
	<line fill="none" stroke="#000000" stroke-width="0.459" x1="1413.4" y1="199.6" x2="1413.4" y2="215.6"/>
	<g enable-background="new    ">
		<path d="M1419.3,198.9c-0.4,1-1.2,1.8-1.8,2.1c-0.6,0.3-1.4,0.4-2.2,0.4c-0.5,0-1.5-0.2-1.8-0.8c-0.4-0.7-0.1-1.4,0-1.8
			c0.4-1,1.1-1.6,1.7-2c0.6-0.3,1.5-0.6,2.5-0.5c0.4,0.1,1.3,0.1,1.7,0.8C1419.6,197.6,1419.4,198.6,1419.3,198.9z M1417,197.4
			c-0.4,0.2-0.7,0.4-1.1,0.6c-0.4,0.2-0.7,0.4-1.1,0.7c-0.6,0.3-1.3,1-0.9,1.6c0.4,0.6,1.3,0.3,1.9,0c0.4-0.2,0.8-0.4,1.2-0.6
			s0.7-0.4,1.1-0.7c0.5-0.3,1.3-1,0.9-1.6C1418.5,196.8,1417.6,197.1,1417,197.4z"/>
	</g>
	<line fill="none" stroke="#000000" stroke-width="0.459" x1="1443.6" y1="199.6" x2="1443.6" y2="215.6"/>
	<g enable-background="new    ">
		<path d="M1449.5,198.9c-0.4,1-1.2,1.8-1.8,2.1c-0.6,0.3-1.4,0.4-2.2,0.4c-0.5,0-1.5-0.2-1.8-0.8c-0.4-0.7-0.1-1.4,0-1.8
			c0.4-1,1.1-1.6,1.7-2c0.6-0.3,1.5-0.6,2.5-0.5c0.4,0.1,1.3,0.1,1.7,0.8C1449.8,197.6,1449.6,198.6,1449.5,198.9z M1447.2,197.4
			c-0.4,0.2-0.7,0.4-1.1,0.6c-0.4,0.2-0.7,0.4-1.1,0.7c-0.6,0.3-1.3,1-0.9,1.6c0.4,0.6,1.3,0.3,1.9,0c0.4-0.2,0.8-0.4,1.2-0.6
			s0.7-0.4,1.1-0.7c0.5-0.3,1.3-1,0.9-1.6C1448.7,196.8,1447.8,197.1,1447.2,197.4z"/>
	</g>
	<line fill="none" stroke="#000000" stroke-width="0.459" x1="1483" y1="199.6" x2="1483" y2="215.6"/>
	<g enable-background="new    ">
		<path d="M1488.9,198.9c-0.4,1-1.2,1.8-1.8,2.1c-0.6,0.3-1.4,0.4-2.2,0.4c-0.5,0-1.5-0.2-1.8-0.8c-0.4-0.7-0.1-1.4,0-1.8
			c0.4-1,1.1-1.6,1.7-2c0.6-0.3,1.5-0.6,2.5-0.5c0.4,0.1,1.3,0.1,1.7,0.8C1489.2,197.6,1489,198.6,1488.9,198.9z M1486.6,197.4
			c-0.4,0.2-0.7,0.4-1.1,0.6c-0.4,0.2-0.7,0.4-1.1,0.7c-0.6,0.3-1.3,1-0.9,1.6c0.4,0.6,1.3,0.3,1.9,0c0.4-0.2,0.8-0.4,1.2-0.6
			s0.7-0.4,1.1-0.7c0.5-0.3,1.3-1,0.9-1.6C1488.1,196.8,1487.2,197.1,1486.6,197.4z"/>
	</g>
	<g enable-background="new    ">
		<path d="M1517.7,196.3v2.5h-6.1v-2.5H1517.7z"/>
	</g>
	<line fill="none" stroke="#000000" stroke-width="0.459" x1="1511" y1="198.8" x2="1518.2" y2="198.8"/>
	<g enable-background="new    ">
		<path d="M1585.1,198.8v2.8h-6.1v-2.8H1585.1z"/>
	</g>
	<line fill="none" stroke="#000000" stroke-width="0.459" x1="1578.4" y1="198.8" x2="1585.6" y2="198.8"/>
	<g enable-background="new    ">
		<path d="M1654.7,198.8v2.8h-6.1v-2.8H1654.7z"/>
	</g>
	<line fill="none" stroke="#000000" stroke-width="0.459" x1="1648" y1="198.8" x2="1655.2" y2="198.8"/>
	<g enable-background="new    ">
		<path d="M1724.3,198.8v2.8h-6.1v-2.8H1724.3z"/>
	</g>
	<line fill="none" stroke="#000000" stroke-width="0.459" x1="1717.6" y1="198.8" x2="1724.8" y2="198.8"/>
	<g enable-background="new    ">
		<path d="M1793.9,198.8v2.8h-6.1v-2.8H1793.9z"/>
	</g>
	<line fill="none" stroke="#000000" stroke-width="0.459" x1="1787.2" y1="198.8" x2="1794.4" y2="198.8"/>
	<g enable-background="new    ">
		<path d="M1811.1,209c0.3,0,0.5,0,0.7,0.1c0.5,0.3,0.6,0.4,0.8,1c0.2-0.3,0.3-0.4,0.6-0.6c0.4-0.2,0.9-0.5,1.5-0.5
			c0.9,0,1.2,0.6,1.4,1.7c0,0.1-0.1,1.2-0.4,1.8c-0.6,1.1-1.7,2.2-2.9,2.2c-0.5,0-0.7-0.2-0.9-0.3c-0.3-0.2-0.3-0.3-0.6-0.5
			l-1.3,3.1l1.3,0.1v0.4h-5v-0.4l1.7-0.1c0,0,2.6-6.2,2.8-6.7c0.1-0.2-0.1-0.6-0.4-0.6c-0.3,0-0.8,0.5-1.2,0.9
			c-0.3,0.5-0.5,0.9-0.7,1.2c0,0-0.2,0-0.2,0C1809.3,209.7,1810.1,208.9,1811.1,209z M1814.1,209.7c-0.7,0-1.5,0.8-1.7,1.5
			c-0.1,0.2-0.2,0.6-0.3,0.9c-0.1,0.3-0.2,0.7-0.2,0.9c0,0.1,0.2,0.9,0.7,0.9c0.9,0,2-3.3,2-3.7
			C1814.5,209.8,1814.4,209.7,1814.1,209.7z"/>
	</g>
	<line fill="none" stroke="#000000" stroke-width="0.459" x1="1832" y1="199.6" x2="1832" y2="215.6"/>
	<g enable-background="new    ">
		<path d="M1835.8,196.4c1.6,0,2.5,1.1,2,2.5c-0.5,1.4-2.2,2.5-3.8,2.5c-1.6,0-2.5-1.2-2-2.5
			C1832.5,197.5,1834.2,196.4,1835.8,196.4z"/>
	</g>
	<line fill="none" stroke="#000000" stroke-width="0.459" x1="1855" y1="199.6" x2="1855" y2="215.6"/>
	<g enable-background="new    ">
		<path d="M1858.8,196.4c1.6,0,2.5,1.1,2,2.5c-0.5,1.4-2.2,2.5-3.8,2.5c-1.6,0-2.5-1.2-2-2.5
			C1855.5,197.5,1857.2,196.4,1858.8,196.4z"/>
	</g>
	<line fill="none" stroke="#000000" stroke-width="0.459" x1="1867.8" y1="199.6" x2="1867.8" y2="215.6"/>
	<g enable-background="new    ">
		<path d="M1871.6,196.4c1.6,0,2.5,1.1,2,2.5c-0.5,1.4-2.2,2.5-3.8,2.5c-1.6,0-2.5-1.2-2-2.5C1868.3,197.5,1870,196.4,1871.6,196.4z
			"/>
	</g>
	<line fill="none" stroke="#000000" stroke-width="0.459" x1="1881.2" y1="199.6" x2="1881.2" y2="215.6"/>
	<g enable-background="new    ">
		<path d="M1885,196.4c1.6,0,2.5,1.1,2,2.5c-0.5,1.4-2.2,2.5-3.8,2.5c-1.6,0-2.5-1.2-2-2.5C1881.7,197.5,1883.4,196.4,1885,196.4z"
			/>
	</g>
	<line fill="none" stroke="#000000" stroke-width="0.459" x1="1901.8" y1="199.6" x2="1901.8" y2="215.6"/>
	<g enable-background="new    ">
		<path d="M1905.6,196.4c1.6,0,2.5,1.1,2,2.5c-0.5,1.4-2.2,2.5-3.8,2.5c-1.6,0-2.5-1.2-2-2.5C1902.3,197.5,1904,196.4,1905.6,196.4z
			"/>
	</g>
	<g enable-background="new    ">
		<path d="M1919.2,202.6c-0.8,0-1.5,0.5-1.5,1.4c0,0.6,1,1.5,1,1.5l-0.2,0.2c0,0-2.2-1.3-2.5-2.7c-0.1-0.9,0.5-1.8,1.6-1.9
			c0.4,0,1.2,0.1,1.5,0.2c-1.8-1.8-2.8-3-2.7-3.4c0.4-0.4,1.7-2.1,1.7-3.4c0-0.9-1.3-2.9-1.3-2.9l0.3-0.2l3.5,4.4c0,0-1.7,2-1.7,3.4
			c0,1,0.6,1.8,1.1,2.3c0.2,0.3,1,1.1,1,1.2l0,0.3C1920.1,202.7,1919.6,202.6,1919.2,202.6z"/>
	</g>
	<g enable-background="new    ">
		<path d="M1936.1,196.3v2.5h-6.1v-2.5H1936.1z"/>
	</g>
	<line fill="none" stroke="#000000" stroke-width="0.459" x1="1929.4" y1="198.8" x2="1936.6" y2="198.8"/>
	<line fill="none" stroke="#000000" stroke-width="0.459" x1="1970.2" y1="199.6" x2="1970.2" y2="215.6"/>
	<g enable-background="new    ">
		<path d="M1974,196.4c1.6,0,2.5,1.1,2,2.5c-0.5,1.4-2.2,2.5-3.8,2.5c-1.6,0-2.5-1.2-2-2.5C1970.7,197.5,1972.4,196.4,1974,196.4z"
			/>
	</g>
	<line fill="none" stroke="#000000" stroke-width="0.459" x1="1993.4" y1="199.6" x2="1993.4" y2="215.6"/>
	<g enable-background="new    ">
		<path d="M1997.2,196.4c1.6,0,2.5,1.1,2,2.5c-0.5,1.4-2.2,2.5-3.8,2.5c-1.6,0-2.5-1.2-2-2.5
			C1993.9,197.5,1995.6,196.4,1997.2,196.4z"/>
	</g>
	<line fill="none" stroke="#000000" stroke-width="0.459" x1="2006.6" y1="199.6" x2="2006.6" y2="215.6"/>
	<g enable-background="new    ">
		<path d="M2010.4,196.4c1.6,0,2.5,1.1,2,2.5c-0.5,1.4-2.2,2.5-3.8,2.5c-1.6,0-2.5-1.2-2-2.5
			C2007.1,197.5,2008.8,196.4,2010.4,196.4z"/>
	</g>
	<line fill="none" stroke="#000000" stroke-width="0.459" x1="2020.8" y1="199.6" x2="2020.8" y2="215.6"/>
	<g enable-background="new    ">
		<path d="M2024.6,196.4c1.6,0,2.5,1.1,2,2.5c-0.5,1.4-2.2,2.5-3.8,2.5c-1.6,0-2.5-1.2-2-2.5C2021.3,197.5,2023,196.4,2024.6,196.4z
			"/>
	</g>
	<line fill="none" stroke="#000000" stroke-width="0.459" x1="2039.8" y1="199.6" x2="2039.8" y2="215.6"/>
	<g enable-background="new    ">
		<path d="M2043.6,196.4c1.6,0,2.5,1.1,2,2.5c-0.5,1.4-2.2,2.5-3.8,2.5c-1.6,0-2.5-1.2-2-2.5C2040.3,197.5,2042,196.4,2043.6,196.4z
			"/>
	</g>
	<g enable-background="new    ">
		<path d="M2058.8,202.6c-0.8,0-1.5,0.5-1.5,1.4c0,0.6,1,1.5,1,1.5l-0.2,0.2c0,0-2.2-1.3-2.5-2.7c-0.1-0.9,0.5-1.8,1.6-1.9
			c0.4,0,1.2,0.1,1.5,0.2c-1.8-1.8-2.8-3-2.7-3.4c0.4-0.4,1.7-2.1,1.7-3.4c0-0.9-1.3-2.9-1.3-2.9l0.3-0.2l3.5,4.4c0,0-1.7,2-1.7,3.4
			c0,1,0.6,1.8,1.1,2.3c0.2,0.3,1,1.1,1,1.2l0,0.3C2059.7,202.7,2059.2,202.6,2058.8,202.6z"/>
	</g>
	<g enable-background="new    ">
		<path d="M2077.5,196.3v2.5h-6.1v-2.5H2077.5z"/>
	</g>
	<line fill="none" stroke="#000000" stroke-width="0.459" x1="2070.8" y1="198.8" x2="2078" y2="198.8"/>
	<g enable-background="new    ">
		<path d="M2107.4,214.1c-0.5,0-0.6-0.4-0.6-0.7c0-0.5,0.6-0.7,1-1.1c0-0.2-0.2-0.2-0.4-0.2c-1,0-1.4,0.8-1.7,1.6
			c-0.1,0.3-0.4,1-0.5,1.7h1.8v0.4c0,0-1.9,0-1.9,0c-0.2,0.6-0.5,1.7-0.6,1.9c-0.3,1-0.5,1.6-0.9,2.6c-0.3,0.8-1,1.9-1.9,2.9
			c-0.7,0.7-1.5,0.9-2.2,0.9c-0.5,0-1.2-0.7-1.2-1.4c0-0.6,0.3-1.3,1-1.3c0.6,0,0.8,0.4,0.8,0.9c-0.2,0.8-0.8,0.8-0.8,1
			c0.1,0.1,0.2,0.2,0.3,0.2c1.2,0,2-3.2,2.1-3.7c0.3-1.2,0.7-2.3,1.1-4h-1.7v-0.4h1.8c0.3-0.7,0.6-1.3,1-1.8c0.9-1.3,2-1.9,3.4-1.9
			c0.6,0,1.2,0.6,1.2,1.2C2108.6,213.4,2108.2,214.1,2107.4,214.1z"/>
	</g>
	<line fill="none" stroke="#000000" stroke-width="0.459" x1="2110.6" y1="199.6" x2="2110.6" y2="215.6"/>
	<g enable-background="new    ">
		<path d="M2116.5,198.9c-0.4,1-1.2,1.8-1.8,2.1c-0.6,0.3-1.4,0.4-2.2,0.4c-0.5,0-1.5-0.2-1.8-0.8c-0.4-0.7-0.1-1.4,0-1.8
			c0.4-1,1.1-1.6,1.7-2c0.6-0.3,1.5-0.6,2.5-0.5c0.4,0.1,1.3,0.1,1.7,0.8C2116.8,197.6,2116.6,198.6,2116.5,198.9z M2114.2,197.4
			c-0.4,0.2-0.7,0.4-1.1,0.6c-0.4,0.2-0.7,0.4-1.1,0.7c-0.6,0.3-1.3,1-0.9,1.6c0.4,0.6,1.3,0.3,1.9,0c0.4-0.2,0.8-0.4,1.2-0.6
			s0.7-0.4,1.1-0.7c0.5-0.3,1.3-1,0.9-1.6C2115.7,196.8,2114.8,197.1,2114.2,197.4z"/>
	</g>
	<line fill="none" stroke="#000000" stroke-width="0.459" x1="2142.2" y1="199.6" x2="2142.2" y2="215.6"/>
	<g enable-background="new    ">
		<path d="M2148.1,198.9c-0.4,1-1.2,1.8-1.8,2.1c-0.6,0.3-1.4,0.4-2.2,0.4c-0.5,0-1.5-0.2-1.8-0.8c-0.4-0.7-0.1-1.4,0-1.8
			c0.4-1,1.1-1.6,1.7-2c0.6-0.3,1.5-0.6,2.5-0.5c0.4,0.1,1.3,0.1,1.7,0.8C2148.4,197.6,2148.2,198.6,2148.1,198.9z M2145.8,197.4
			c-0.4,0.2-0.7,0.4-1.1,0.6c-0.4,0.2-0.7,0.4-1.1,0.7c-0.6,0.3-1.3,1-0.9,1.6c0.4,0.6,1.3,0.3,1.9,0c0.4-0.2,0.8-0.4,1.2-0.6
			s0.7-0.4,1.1-0.7c0.5-0.3,1.3-1,0.9-1.6C2147.3,196.8,2146.4,197.1,2145.8,197.4z"/>
	</g>
	<line fill="none" stroke="#000000" stroke-width="0.459" x1="2180.2" y1="199.6" x2="2180.2" y2="215.6"/>
	<g enable-background="new    ">
		<path d="M2186.1,198.9c-0.4,1-1.2,1.8-1.8,2.1c-0.6,0.3-1.4,0.4-2.2,0.4c-0.5,0-1.5-0.2-1.8-0.8c-0.4-0.7-0.1-1.4,0-1.8
			c0.4-1,1.1-1.6,1.7-2c0.6-0.3,1.5-0.6,2.5-0.5c0.4,0.1,1.3,0.1,1.7,0.8C2186.4,197.6,2186.2,198.6,2186.1,198.9z M2183.8,197.4
			c-0.4,0.2-0.7,0.4-1.1,0.6c-0.4,0.2-0.7,0.4-1.1,0.7c-0.6,0.3-1.3,1-0.9,1.6c0.4,0.6,1.3,0.3,1.9,0c0.4-0.2,0.8-0.4,1.2-0.6
			s0.7-0.4,1.1-0.7c0.5-0.3,1.3-1,0.9-1.6C2185.3,196.8,2184.4,197.1,2183.8,197.4z"/>
	</g>
	<g enable-background="new    ">
		<path d="M2217.5,196.3v2.5h-6.1v-2.5H2217.5z"/>
	</g>
	<line fill="none" stroke="#000000" stroke-width="0.459" x1="2210.8" y1="198.8" x2="2218" y2="198.8"/>
	<line fill="none" stroke="#000000" stroke-width="0.459" x1="2248.6" y1="199.6" x2="2248.6" y2="215.6"/>
	<g enable-background="new    ">
		<path d="M2254.5,198.9c-0.4,1-1.2,1.8-1.8,2.1c-0.6,0.3-1.4,0.4-2.2,0.4c-0.5,0-1.5-0.2-1.8-0.8c-0.4-0.7-0.1-1.4,0-1.8
			c0.4-1,1.1-1.6,1.7-2c0.6-0.3,1.5-0.6,2.5-0.5c0.4,0.1,1.3,0.1,1.7,0.8C2254.8,197.6,2254.6,198.6,2254.5,198.9z M2252.2,197.4
			c-0.4,0.2-0.7,0.4-1.1,0.6c-0.4,0.2-0.7,0.4-1.1,0.7c-0.6,0.3-1.3,1-0.9,1.6c0.4,0.6,1.3,0.3,1.9,0c0.4-0.2,0.8-0.4,1.2-0.6
			s0.7-0.4,1.1-0.7c0.5-0.3,1.3-1,0.9-1.6C2253.7,196.8,2252.8,197.1,2252.2,197.4z"/>
	</g>
	<line fill="none" stroke="#000000" stroke-width="0.459" x1="2280.8" y1="199.6" x2="2280.8" y2="215.6"/>
	<g enable-background="new    ">
		<path d="M2286.7,198.9c-0.4,1-1.2,1.8-1.8,2.1c-0.6,0.3-1.4,0.4-2.2,0.4c-0.5,0-1.5-0.2-1.8-0.8c-0.4-0.7-0.1-1.4,0-1.8
			c0.4-1,1.1-1.6,1.7-2c0.6-0.3,1.5-0.6,2.5-0.5c0.4,0.1,1.3,0.1,1.7,0.8C2287,197.6,2286.8,198.6,2286.7,198.9z M2284.4,197.4
			c-0.4,0.2-0.7,0.4-1.1,0.6c-0.4,0.2-0.7,0.4-1.1,0.7c-0.6,0.3-1.3,1-0.9,1.6c0.4,0.6,1.3,0.3,1.9,0c0.4-0.2,0.8-0.4,1.2-0.6
			s0.7-0.4,1.1-0.7c0.5-0.3,1.3-1,0.9-1.6C2285.9,196.8,2285,197.1,2284.4,197.4z"/>
	</g>
	<line fill="none" stroke="#000000" stroke-width="0.459" x1="2325.4" y1="199.6" x2="2325.4" y2="215.6"/>
	<g enable-background="new    ">
		<path d="M2331.3,198.9c-0.4,1-1.2,1.8-1.8,2.1c-0.6,0.3-1.4,0.4-2.2,0.4c-0.5,0-1.5-0.2-1.8-0.8c-0.4-0.7-0.1-1.4,0-1.8
			c0.4-1,1.1-1.6,1.7-2c0.6-0.3,1.5-0.6,2.5-0.5c0.4,0.1,1.3,0.1,1.7,0.8C2331.6,197.6,2331.4,198.6,2331.3,198.9z M2329,197.4
			c-0.4,0.2-0.7,0.4-1.1,0.6c-0.4,0.2-0.7,0.4-1.1,0.7c-0.6,0.3-1.3,1-0.9,1.6c0.4,0.6,1.3,0.3,1.9,0c0.4-0.2,0.8-0.4,1.2-0.6
			s0.7-0.4,1.1-0.7c0.5-0.3,1.3-1,0.9-1.6C2330.5,196.8,2329.6,197.1,2329,197.4z"/>
	</g>
	<g enable-background="new    ">
		<path d="M2358.1,196.3v2.5h-6.1v-2.5H2358.1z"/>
	</g>
	<line fill="none" stroke="#000000" stroke-width="0.459" x1="2351.4" y1="198.8" x2="2358.6" y2="198.8"/>
	<line fill="none" stroke="#000000" stroke-width="0.459" x1="2389" y1="199.6" x2="2389" y2="215.6"/>
	<g enable-background="new    ">
		<path d="M2394.9,198.9c-0.4,1-1.2,1.8-1.8,2.1c-0.6,0.3-1.4,0.4-2.2,0.4c-0.5,0-1.5-0.2-1.8-0.8c-0.4-0.7-0.1-1.4,0-1.8
			c0.4-1,1.1-1.6,1.7-2c0.6-0.3,1.5-0.6,2.5-0.5c0.4,0.1,1.3,0.1,1.7,0.8C2395.2,197.6,2395,198.6,2394.9,198.9z M2392.6,197.4
			c-0.4,0.2-0.7,0.4-1.1,0.6c-0.4,0.2-0.7,0.4-1.1,0.7c-0.6,0.3-1.3,1-0.9,1.6c0.4,0.6,1.3,0.3,1.9,0c0.4-0.2,0.8-0.4,1.2-0.6
			s0.7-0.4,1.1-0.7c0.5-0.3,1.3-1,0.9-1.6C2394.1,196.8,2393.2,197.1,2392.6,197.4z"/>
	</g>
	<line fill="none" stroke="#000000" stroke-width="0.459" x1="2414.8" y1="199.6" x2="2414.8" y2="215.6"/>
	<g enable-background="new    ">
		<path d="M2420.7,198.9c-0.4,1-1.2,1.8-1.8,2.1c-0.6,0.3-1.4,0.4-2.2,0.4c-0.5,0-1.5-0.2-1.8-0.8c-0.4-0.7-0.1-1.4,0-1.8
			c0.4-1,1.1-1.6,1.7-2c0.6-0.3,1.5-0.6,2.5-0.5c0.4,0.1,1.3,0.1,1.7,0.8C2421,197.6,2420.8,198.6,2420.7,198.9z M2418.4,197.4
			c-0.4,0.2-0.7,0.4-1.1,0.6c-0.4,0.2-0.7,0.4-1.1,0.7c-0.6,0.3-1.3,1-0.9,1.6c0.4,0.6,1.3,0.3,1.9,0c0.4-0.2,0.8-0.4,1.2-0.6
			c0.4-0.2,0.7-0.4,1.1-0.7c0.5-0.3,1.3-1,0.9-1.6C2419.9,196.8,2419,197.1,2418.4,197.4z"/>
	</g>
	<g enable-background="new    ">
		<path d="M2383.2,214.1c-0.5,0-0.6-0.4-0.6-0.7c0-0.5,0.6-0.7,1-1.1c0-0.2-0.2-0.2-0.4-0.2c-1,0-1.4,0.8-1.7,1.6
			c-0.1,0.3-0.4,1-0.5,1.7h1.8v0.4c0,0-1.9,0-1.9,0c-0.2,0.6-0.5,1.7-0.6,1.9c-0.3,1-0.5,1.6-0.9,2.6c-0.3,0.8-1,1.9-1.9,2.9
			c-0.7,0.7-1.5,0.9-2.2,0.9c-0.5,0-1.2-0.7-1.2-1.4c0-0.6,0.3-1.3,1-1.3c0.6,0,0.8,0.4,0.8,0.9c-0.2,0.8-0.8,0.8-0.8,1
			c0.1,0.1,0.2,0.2,0.3,0.2c1.2,0,2-3.2,2.1-3.7c0.3-1.2,0.7-2.3,1.1-4h-1.7v-0.4h1.8c0.3-0.7,0.6-1.3,1-1.8c0.9-1.3,2-1.9,3.4-1.9
			c0.6,0,1.2,0.6,1.2,1.2C2384.4,213.4,2384,214.1,2383.2,214.1z"/>
	</g>
	<line fill="none" stroke="#000000" stroke-width="0.459" x1="2457.4" y1="199.6" x2="2457.4" y2="215.6"/>
	<g enable-background="new    ">
		<path d="M2463.3,198.9c-0.4,1-1.2,1.8-1.8,2.1c-0.6,0.3-1.4,0.4-2.2,0.4c-0.5,0-1.5-0.2-1.8-0.8c-0.4-0.7-0.1-1.4,0-1.8
			c0.4-1,1.1-1.6,1.7-2c0.6-0.3,1.5-0.6,2.5-0.5c0.4,0.1,1.3,0.1,1.7,0.8C2463.7,197.6,2463.4,198.6,2463.3,198.9z M2461,197.4
			c-0.4,0.2-0.7,0.4-1.1,0.6c-0.4,0.2-0.7,0.4-1.1,0.7c-0.6,0.3-1.3,1-0.9,1.6c0.4,0.6,1.3,0.3,1.9,0c0.4-0.2,0.8-0.4,1.2-0.6
			s0.7-0.4,1.1-0.7c0.5-0.3,1.3-1,0.9-1.6C2462.5,196.8,2461.6,197.1,2461,197.4z"/>
	</g>
	<g enable-background="new    ">
		<path d="M2493.5,196.3v2.5h-6.1v-2.5H2493.5z"/>
	</g>
	<line fill="none" stroke="#000000" stroke-width="0.459" x1="2486.8" y1="198.8" x2="2494" y2="198.8"/>
	<line fill="none" stroke="#000000" stroke-width="0.459" x1="2527" y1="199.6" x2="2527" y2="215.6"/>
	<g enable-background="new    ">
		<path d="M2532.9,198.9c-0.4,1-1.2,1.8-1.8,2.1c-0.6,0.3-1.4,0.4-2.2,0.4c-0.5,0-1.5-0.2-1.8-0.8c-0.4-0.7-0.1-1.4,0-1.8
			c0.4-1,1.1-1.6,1.7-2c0.6-0.3,1.5-0.6,2.5-0.5c0.4,0.1,1.3,0.1,1.7,0.8C2533.2,197.6,2533,198.6,2532.9,198.9z M2530.6,197.4
			c-0.4,0.2-0.7,0.4-1.1,0.6c-0.4,0.2-0.7,0.4-1.1,0.7c-0.6,0.3-1.3,1-0.9,1.6c0.4,0.6,1.3,0.3,1.9,0c0.4-0.2,0.8-0.4,1.2-0.6
			s0.7-0.4,1.1-0.7c0.5-0.3,1.3-1,0.9-1.6C2532.1,196.8,2531.2,197.1,2530.6,197.4z"/>
	</g>
	<line fill="none" stroke="#000000" stroke-width="0.459" x1="2559.2" y1="199.6" x2="2559.2" y2="215.6"/>
	<g enable-background="new    ">
		<path d="M2565.1,198.9c-0.4,1-1.2,1.8-1.8,2.1c-0.6,0.3-1.4,0.4-2.2,0.4c-0.5,0-1.5-0.2-1.8-0.8c-0.4-0.7-0.1-1.4,0-1.8
			c0.4-1,1.1-1.6,1.7-2c0.6-0.3,1.5-0.6,2.5-0.5c0.4,0.1,1.3,0.1,1.7,0.8C2565.4,197.6,2565.2,198.6,2565.1,198.9z M2562.8,197.4
			c-0.4,0.2-0.7,0.4-1.1,0.6c-0.4,0.2-0.7,0.4-1.1,0.7c-0.6,0.3-1.3,1-0.9,1.6c0.4,0.6,1.3,0.3,1.9,0c0.4-0.2,0.8-0.4,1.2-0.6
			s0.7-0.4,1.1-0.7c0.5-0.3,1.3-1,0.9-1.6C2564.3,196.8,2563.4,197.1,2562.8,197.4z"/>
	</g>
	<line fill="none" stroke="#000000" stroke-width="0.459" x1="2597.8" y1="199.6" x2="2597.8" y2="215.6"/>
	<g enable-background="new    ">
		<path d="M2603.7,198.9c-0.4,1-1.2,1.8-1.8,2.1c-0.6,0.3-1.4,0.4-2.2,0.4c-0.5,0-1.5-0.2-1.8-0.8c-0.4-0.7-0.1-1.4,0-1.8
			c0.4-1,1.1-1.6,1.7-2c0.6-0.3,1.5-0.6,2.5-0.5c0.4,0.1,1.3,0.1,1.7,0.8C2604,197.6,2603.8,198.6,2603.7,198.9z M2601.4,197.4
			c-0.4,0.2-0.7,0.4-1.1,0.6c-0.4,0.2-0.7,0.4-1.1,0.7c-0.6,0.3-1.3,1-0.9,1.6c0.4,0.6,1.3,0.3,1.9,0c0.4-0.2,0.8-0.4,1.2-0.6
			c0.4-0.2,0.7-0.4,1.1-0.7c0.5-0.3,1.3-1,0.9-1.6C2602.9,196.8,2602,197.1,2601.4,197.4z"/>
	</g>
	<g enable-background="new    ">
		<path d="M2633.5,196.3v2.5h-6.1v-2.5H2633.5z"/>
	</g>
	<line fill="none" stroke="#000000" stroke-width="0.459" x1="2626.8" y1="198.8" x2="2634" y2="198.8"/>
	<line fill="none" stroke="#000000" stroke-width="0.459" x1="2666.2" y1="199.6" x2="2666.2" y2="215.6"/>
	<g enable-background="new    ">
		<path d="M2672.1,198.9c-0.4,1-1.2,1.8-1.8,2.1c-0.6,0.3-1.4,0.4-2.2,0.4c-0.5,0-1.5-0.2-1.8-0.8c-0.4-0.7-0.1-1.4,0-1.8
			c0.4-1,1.1-1.6,1.7-2c0.6-0.3,1.5-0.6,2.5-0.5c0.4,0.1,1.3,0.1,1.7,0.8C2672.4,197.6,2672.2,198.6,2672.1,198.9z M2669.8,197.4
			c-0.4,0.2-0.7,0.4-1.1,0.6c-0.4,0.2-0.7,0.4-1.1,0.7c-0.6,0.3-1.3,1-0.9,1.6c0.4,0.6,1.3,0.3,1.9,0c0.4-0.2,0.8-0.4,1.2-0.6
			s0.7-0.4,1.1-0.7c0.5-0.3,1.3-1,0.9-1.6C2671.3,196.8,2670.4,197.1,2669.8,197.4z"/>
	</g>
	<g enable-background="new    ">
		<path d="M2702.3,196.3v2.5h-6.1v-2.5H2702.3z"/>
	</g>
	<line fill="none" stroke="#000000" stroke-width="0.459" x1="2695.6" y1="198.8" x2="2702.8" y2="198.8"/>
	<line fill="none" stroke="#000000" stroke-width="0.459" x1="2735.8" y1="199.6" x2="2735.8" y2="215.6"/>
	<g enable-background="new    ">
		<path d="M2741.7,198.9c-0.4,1-1.2,1.8-1.8,2.1c-0.6,0.3-1.4,0.4-2.2,0.4c-0.5,0-1.5-0.2-1.8-0.8c-0.4-0.7-0.1-1.4,0-1.8
			c0.4-1,1.1-1.6,1.7-2c0.6-0.3,1.5-0.6,2.5-0.5c0.4,0.1,1.3,0.1,1.7,0.8C2742,197.6,2741.8,198.6,2741.7,198.9z M2739.4,197.4
			c-0.4,0.2-0.7,0.4-1.1,0.6c-0.4,0.2-0.7,0.4-1.1,0.7c-0.6,0.3-1.3,1-0.9,1.6c0.4,0.6,1.3,0.3,1.9,0c0.4-0.2,0.8-0.4,1.2-0.6
			c0.4-0.2,0.7-0.4,1.1-0.7c0.5-0.3,1.3-1,0.9-1.6C2740.9,196.8,2740,197.1,2739.4,197.4z"/>
	</g>
	<g enable-background="new    ">
		<path d="M2771.9,196.3v2.5h-6.1v-2.5H2771.9z"/>
	</g>
	<line fill="none" stroke="#000000" stroke-width="0.459" x1="2765.2" y1="198.8" x2="2772.4" y2="198.8"/>
	<line fill="none" stroke="#000000" stroke-width="0.459" x1="2805.4" y1="199.6" x2="2805.4" y2="215.6"/>
	<g enable-background="new    ">
		<path d="M2811.3,198.9c-0.4,1-1.2,1.8-1.8,2.1c-0.6,0.3-1.4,0.4-2.2,0.4c-0.5,0-1.5-0.2-1.8-0.8c-0.4-0.7-0.1-1.4,0-1.8
			c0.4-1,1.1-1.6,1.7-2c0.6-0.3,1.5-0.6,2.5-0.5c0.4,0.1,1.3,0.1,1.7,0.8C2811.7,197.6,2811.4,198.6,2811.3,198.9z M2809,197.4
			c-0.4,0.2-0.7,0.4-1.1,0.6c-0.4,0.2-0.7,0.4-1.1,0.7c-0.6,0.3-1.3,1-0.9,1.6c0.4,0.6,1.3,0.3,1.9,0c0.4-0.2,0.8-0.4,1.2-0.6
			s0.7-0.4,1.1-0.7c0.5-0.3,1.3-1,0.9-1.6C2810.5,196.8,2809.6,197.1,2809,197.4z"/>
	</g>
	<line fill="none" stroke="#000000" stroke-width="0.459" x1="2835.6" y1="199.6" x2="2835.6" y2="215.6"/>
	<g enable-background="new    ">
		<path d="M2841.5,198.9c-0.4,1-1.2,1.8-1.8,2.1c-0.6,0.3-1.4,0.4-2.2,0.4c-0.5,0-1.5-0.2-1.8-0.8c-0.4-0.7-0.1-1.4,0-1.8
			c0.4-1,1.1-1.6,1.7-2c0.6-0.3,1.5-0.6,2.5-0.5c0.4,0.1,1.3,0.1,1.7,0.8C2841.8,197.6,2841.6,198.6,2841.5,198.9z M2839.2,197.4
			c-0.4,0.2-0.7,0.4-1.1,0.6c-0.4,0.2-0.7,0.4-1.1,0.7c-0.6,0.3-1.3,1-0.9,1.6c0.4,0.6,1.3,0.3,1.9,0c0.4-0.2,0.8-0.4,1.2-0.6
			c0.4-0.2,0.7-0.4,1.1-0.7c0.5-0.3,1.3-1,0.9-1.6C2840.7,196.8,2839.8,197.1,2839.2,197.4z"/>
	</g>
	<line fill="none" stroke="#000000" stroke-width="0.459" x1="2875" y1="199.6" x2="2875" y2="215.6"/>
	<g enable-background="new    ">
		<path d="M2880.9,198.9c-0.4,1-1.2,1.8-1.8,2.1c-0.6,0.3-1.4,0.4-2.2,0.4c-0.5,0-1.5-0.2-1.8-0.8c-0.4-0.7-0.1-1.4,0-1.8
			c0.4-1,1.1-1.6,1.7-2c0.6-0.3,1.5-0.6,2.5-0.5c0.4,0.1,1.3,0.1,1.7,0.8C2881.2,197.6,2881,198.6,2880.9,198.9z M2878.6,197.4
			c-0.4,0.2-0.7,0.4-1.1,0.6c-0.4,0.2-0.7,0.4-1.1,0.7c-0.6,0.3-1.3,1-0.9,1.6c0.4,0.6,1.3,0.3,1.9,0c0.4-0.2,0.8-0.4,1.2-0.6
			s0.7-0.4,1.1-0.7c0.5-0.3,1.3-1,0.9-1.6C2880.1,196.8,2879.2,197.1,2878.6,197.4z"/>
	</g>
	<g enable-background="new    ">
		<path d="M2909.7,196.3v2.5h-6.1v-2.5H2909.7z"/>
	</g>
	<line fill="none" stroke="#000000" stroke-width="0.459" x1="2903" y1="198.8" x2="2910.2" y2="198.8"/>
	<g enable-background="new    ">
		<path d="M2977.1,198.8v2.8h-6.1v-2.8H2977.1z"/>
	</g>
	<line fill="none" stroke="#000000" stroke-width="0.459" x1="2970.4" y1="198.8" x2="2977.6" y2="198.8"/>
	<g enable-background="new    ">
		<path d="M3046.7,198.8v2.8h-6.1v-2.8H3046.7z"/>
	</g>
	<line fill="none" stroke="#000000" stroke-width="0.459" x1="3040" y1="198.8" x2="3047.2" y2="198.8"/>
	<g enable-background="new    ">
		<path d="M3116.3,198.8v2.8h-6.1v-2.8H3116.3z"/>
	</g>
	<line fill="none" stroke="#000000" stroke-width="0.459" x1="3109.6" y1="198.8" x2="3116.8" y2="198.8"/>
	<g enable-background="new    ">
		<path d="M3185.9,198.8v2.8h-6.1v-2.8H3185.9z"/>
	</g>
	<line fill="none" stroke="#000000" stroke-width="0.459" x1="3179.2" y1="198.8" x2="3186.4" y2="198.8"/>
	<g enable-background="new    ">
		<path d="M3203.1,209c0.3,0,0.5,0,0.7,0.1c0.5,0.3,0.6,0.4,0.8,1c0.2-0.3,0.3-0.4,0.6-0.6c0.4-0.2,0.9-0.5,1.5-0.5
			c0.9,0,1.2,0.6,1.4,1.7c0,0.1-0.1,1.2-0.4,1.8c-0.6,1.1-1.7,2.2-2.9,2.2c-0.5,0-0.7-0.2-0.9-0.3c-0.3-0.2-0.3-0.3-0.6-0.5
			l-1.3,3.1l1.3,0.1v0.4h-5v-0.4l1.7-0.1c0,0,2.6-6.2,2.8-6.7c0.1-0.2-0.1-0.6-0.4-0.6c-0.3,0-0.8,0.5-1.2,0.9
			c-0.3,0.5-0.5,0.9-0.7,1.2c0,0-0.2,0-0.2,0C3201.3,209.7,3202.1,208.9,3203.1,209z M3206.1,209.7c-0.7,0-1.5,0.8-1.7,1.5
			c-0.1,0.2-0.2,0.6-0.3,0.9c-0.1,0.3-0.2,0.7-0.2,0.9c0,0.1,0.2,0.9,0.7,0.9c0.9,0,2-3.3,2-3.7
			C3206.5,209.8,3206.4,209.7,3206.1,209.7z"/>
	</g>
	<line fill="none" stroke="#000000" stroke-width="0.459" x1="3224" y1="199.6" x2="3224" y2="215.6"/>
	<g enable-background="new    ">
		<path d="M3227.8,196.4c1.6,0,2.5,1.1,2,2.5c-0.5,1.4-2.2,2.5-3.8,2.5c-1.6,0-2.5-1.2-2-2.5
			C3224.5,197.5,3226.2,196.4,3227.8,196.4z"/>
	</g>
	<line fill="none" stroke="#000000" stroke-width="0.459" x1="3247" y1="199.6" x2="3247" y2="215.6"/>
	<g enable-background="new    ">
		<path d="M3250.8,196.4c1.6,0,2.5,1.1,2,2.5c-0.5,1.4-2.2,2.5-3.8,2.5c-1.6,0-2.5-1.2-2-2.5
			C3247.5,197.5,3249.2,196.4,3250.8,196.4z"/>
	</g>
	<line fill="none" stroke="#000000" stroke-width="0.459" x1="3259.8" y1="199.6" x2="3259.8" y2="215.6"/>
	<g enable-background="new    ">
		<path d="M3263.6,196.4c1.6,0,2.5,1.1,2,2.5c-0.5,1.4-2.2,2.5-3.8,2.5c-1.6,0-2.5-1.2-2-2.5C3260.3,197.5,3262,196.4,3263.6,196.4z
			"/>
	</g>
	<line fill="none" stroke="#000000" stroke-width="0.459" x1="3273.8" y1="199.6" x2="3273.8" y2="215.6"/>
	<g enable-background="new    ">
		<path d="M3277.6,196.4c1.6,0,2.5,1.1,2,2.5c-0.5,1.4-2.2,2.5-3.8,2.5c-1.6,0-2.5-1.2-2-2.5C3274.3,197.5,3276,196.4,3277.6,196.4z
			"/>
	</g>
	<line fill="none" stroke="#000000" stroke-width="0.459" x1="3293.8" y1="199.6" x2="3293.8" y2="215.6"/>
	<g enable-background="new    ">
		<path d="M3297.6,196.4c1.6,0,2.5,1.1,2,2.5c-0.5,1.4-2.2,2.5-3.8,2.5c-1.6,0-2.5-1.2-2-2.5C3294.3,197.5,3296,196.4,3297.6,196.4z
			"/>
	</g>
	<g enable-background="new    ">
		<path d="M3310.4,202.6c-0.8,0-1.5,0.5-1.5,1.4c0,0.6,1,1.5,1,1.5l-0.2,0.2c0,0-2.2-1.3-2.5-2.7c-0.1-0.9,0.5-1.8,1.6-1.9
			c0.4,0,1.2,0.1,1.5,0.2c-1.8-1.8-2.8-3-2.7-3.4c0.4-0.4,1.7-2.1,1.7-3.4c0-0.9-1.3-2.9-1.3-2.9l0.3-0.2l3.5,4.4c0,0-1.7,2-1.7,3.4
			c0,1,0.6,1.8,1.1,2.3c0.2,0.3,1,1.1,1,1.2l0,0.3C3311.3,202.7,3310.8,202.6,3310.4,202.6z"/>
	</g>
	<g enable-background="new    ">
		<path d="M3326.3,196.3v2.5h-6.1v-2.5H3326.3z"/>
	</g>
	<line fill="none" stroke="#000000" stroke-width="0.459" x1="3319.6" y1="198.8" x2="3326.8" y2="198.8"/>
	<line fill="none" stroke="#000000" stroke-width="0.459" x1="3362.2" y1="199.6" x2="3362.2" y2="215.6"/>
	<g enable-background="new    ">
		<path d="M3366,196.4c1.6,0,2.5,1.1,2,2.5c-0.5,1.4-2.2,2.5-3.8,2.5c-1.6,0-2.5-1.2-2-2.5C3362.7,197.5,3364.4,196.4,3366,196.4z"
			/>
	</g>
	<line fill="none" stroke="#000000" stroke-width="0.459" x1="3385.4" y1="199.6" x2="3385.4" y2="215.6"/>
	<g enable-background="new    ">
		<path d="M3389.2,196.4c1.6,0,2.5,1.1,2,2.5c-0.5,1.4-2.2,2.5-3.8,2.5c-1.6,0-2.5-1.2-2-2.5
			C3385.9,197.5,3387.6,196.4,3389.2,196.4z"/>
	</g>
	<line fill="none" stroke="#000000" stroke-width="0.459" x1="3398.6" y1="199.6" x2="3398.6" y2="215.6"/>
	<g enable-background="new    ">
		<path d="M3402.4,196.4c1.6,0,2.5,1.1,2,2.5c-0.5,1.4-2.2,2.5-3.8,2.5c-1.6,0-2.5-1.2-2-2.5
			C3399.1,197.5,3400.8,196.4,3402.4,196.4z"/>
	</g>
	<line fill="none" stroke="#000000" stroke-width="0.459" x1="3412.8" y1="199.6" x2="3412.8" y2="215.6"/>
	<g enable-background="new    ">
		<path d="M3416.6,196.4c1.6,0,2.5,1.1,2,2.5c-0.5,1.4-2.2,2.5-3.8,2.5c-1.6,0-2.5-1.2-2-2.5C3413.3,197.5,3415,196.4,3416.6,196.4z
			"/>
	</g>
	<line fill="none" stroke="#000000" stroke-width="0.459" x1="3431.8" y1="199.6" x2="3431.8" y2="215.6"/>
	<g enable-background="new    ">
		<path d="M3435.6,196.4c1.6,0,2.5,1.1,2,2.5c-0.5,1.4-2.2,2.5-3.8,2.5c-1.6,0-2.5-1.2-2-2.5C3432.3,197.5,3434,196.4,3435.6,196.4z
			"/>
	</g>
	<g enable-background="new    ">
		<path d="M3449.6,202.6c-0.8,0-1.5,0.5-1.5,1.4c0,0.6,1,1.5,1,1.5l-0.2,0.2c0,0-2.2-1.3-2.5-2.7c-0.1-0.9,0.5-1.8,1.6-1.9
			c0.4,0,1.2,0.1,1.5,0.2c-1.8-1.8-2.8-3-2.7-3.4c0.4-0.4,1.7-2.1,1.7-3.4c0-0.9-1.3-2.9-1.3-2.9l0.3-0.2l3.5,4.4c0,0-1.7,2-1.7,3.4
			c0,1,0.6,1.8,1.1,2.3c0.2,0.3,1,1.1,1,1.2l0,0.3C3450.5,202.7,3450,202.6,3449.6,202.6z"/>
	</g>
	<g enable-background="new    ">
		<path d="M3467.1,196.3v2.5h-6.1v-2.5H3467.1z"/>
	</g>
	<line fill="none" stroke="#000000" stroke-width="0.459" x1="3460.4" y1="198.8" x2="3467.6" y2="198.8"/>
	<g enable-background="new    ">
		<path d="M3494.6,214.1c-0.5,0-0.6-0.4-0.6-0.7c0-0.5,0.6-0.7,1-1.1c0-0.2-0.2-0.2-0.4-0.2c-1,0-1.4,0.8-1.7,1.6
			c-0.1,0.3-0.4,1-0.5,1.7h1.8v0.4c0,0-1.9,0-1.9,0c-0.2,0.6-0.5,1.7-0.6,1.9c-0.3,1-0.5,1.6-0.9,2.6c-0.3,0.8-1,1.9-1.9,2.9
			c-0.7,0.7-1.5,0.9-2.2,0.9c-0.5,0-1.2-0.7-1.2-1.4c0-0.6,0.3-1.3,1-1.3c0.6,0,0.8,0.4,0.8,0.9c-0.2,0.8-0.8,0.8-0.8,1
			c0.1,0.1,0.2,0.2,0.3,0.2c1.2,0,2-3.2,2.1-3.7c0.3-1.2,0.7-2.3,1.1-4h-1.7v-0.4h1.8c0.3-0.7,0.6-1.3,1-1.8c0.9-1.3,2-1.9,3.4-1.9
			c0.6,0,1.2,0.6,1.2,1.2C3495.8,213.4,3495.4,214.1,3494.6,214.1z"/>
	</g>
	<line fill="none" stroke="#000000" stroke-width="0.459" x1="3502.6" y1="199.6" x2="3502.6" y2="215.6"/>
	<g enable-background="new    ">
		<path d="M3508.5,198.9c-0.4,1-1.2,1.8-1.8,2.1c-0.6,0.3-1.4,0.4-2.2,0.4c-0.5,0-1.5-0.2-1.8-0.8c-0.4-0.7-0.1-1.4,0-1.8
			c0.4-1,1.1-1.6,1.7-2c0.6-0.3,1.5-0.6,2.5-0.5c0.4,0.1,1.3,0.1,1.7,0.8C3508.8,197.6,3508.6,198.6,3508.5,198.9z M3506.2,197.4
			c-0.4,0.2-0.7,0.4-1.1,0.6c-0.4,0.2-0.7,0.4-1.1,0.7c-0.6,0.3-1.3,1-0.9,1.6c0.4,0.6,1.3,0.3,1.9,0c0.4-0.2,0.8-0.4,1.2-0.6
			c0.4-0.2,0.7-0.4,1.1-0.7c0.5-0.3,1.3-1,0.9-1.6C3507.7,196.8,3506.8,197.1,3506.2,197.4z"/>
	</g>
	<line fill="none" stroke="#000000" stroke-width="0.459" x1="3534.2" y1="199.6" x2="3534.2" y2="215.6"/>
	<g enable-background="new    ">
		<path d="M3540.1,198.9c-0.4,1-1.2,1.8-1.8,2.1c-0.6,0.3-1.4,0.4-2.2,0.4c-0.5,0-1.5-0.2-1.8-0.8c-0.4-0.7-0.1-1.4,0-1.8
			c0.4-1,1.1-1.6,1.7-2c0.6-0.3,1.5-0.6,2.5-0.5c0.4,0.1,1.3,0.1,1.7,0.8C3540.4,197.6,3540.2,198.6,3540.1,198.9z M3537.8,197.4
			c-0.4,0.2-0.7,0.4-1.1,0.6c-0.4,0.2-0.7,0.4-1.1,0.7c-0.6,0.3-1.3,1-0.9,1.6c0.4,0.6,1.3,0.3,1.9,0c0.4-0.2,0.8-0.4,1.2-0.6
			s0.7-0.4,1.1-0.7c0.5-0.3,1.3-1,0.9-1.6C3539.3,196.8,3538.4,197.1,3537.8,197.4z"/>
	</g>
	<line fill="none" stroke="#000000" stroke-width="0.459" x1="3572.2" y1="199.6" x2="3572.2" y2="215.6"/>
	<g enable-background="new    ">
		<path d="M3578.1,198.9c-0.4,1-1.2,1.8-1.8,2.1c-0.6,0.3-1.4,0.4-2.2,0.4c-0.5,0-1.5-0.2-1.8-0.8c-0.4-0.7-0.1-1.4,0-1.8
			c0.4-1,1.1-1.6,1.7-2c0.6-0.3,1.5-0.6,2.5-0.5c0.4,0.1,1.3,0.1,1.7,0.8C3578.4,197.6,3578.2,198.6,3578.1,198.9z M3575.8,197.4
			c-0.4,0.2-0.7,0.4-1.1,0.6c-0.4,0.2-0.7,0.4-1.1,0.7c-0.6,0.3-1.3,1-0.9,1.6c0.4,0.6,1.3,0.3,1.9,0c0.4-0.2,0.8-0.4,1.2-0.6
			s0.7-0.4,1.1-0.7c0.5-0.3,1.3-1,0.9-1.6C3577.3,196.8,3576.4,197.1,3575.8,197.4z"/>
	</g>
	<g enable-background="new    ">
		<path d="M3609.5,196.3v2.5h-6.1v-2.5H3609.5z"/>
	</g>
	<line fill="none" stroke="#000000" stroke-width="0.459" x1="3602.8" y1="198.8" x2="3610" y2="198.8"/>
	<line fill="none" stroke="#000000" stroke-width="0.459" x1="3640.6" y1="199.6" x2="3640.6" y2="215.6"/>
	<g enable-background="new    ">
		<path d="M3646.5,198.9c-0.4,1-1.2,1.8-1.8,2.1c-0.6,0.3-1.4,0.4-2.2,0.4c-0.5,0-1.5-0.2-1.8-0.8c-0.4-0.7-0.1-1.4,0-1.8
			c0.4-1,1.1-1.6,1.7-2c0.6-0.3,1.5-0.6,2.5-0.5c0.4,0.1,1.3,0.1,1.7,0.8C3646.8,197.6,3646.6,198.6,3646.5,198.9z M3644.2,197.4
			c-0.4,0.2-0.7,0.4-1.1,0.6c-0.4,0.2-0.7,0.4-1.1,0.7c-0.6,0.3-1.3,1-0.9,1.6c0.4,0.6,1.3,0.3,1.9,0c0.4-0.2,0.8-0.4,1.2-0.6
			c0.4-0.2,0.7-0.4,1.1-0.7c0.5-0.3,1.3-1,0.9-1.6C3645.7,196.8,3644.8,197.1,3644.2,197.4z"/>
	</g>
	<line fill="none" stroke="#000000" stroke-width="0.459" x1="3672.8" y1="199.6" x2="3672.8" y2="215.6"/>
	<g enable-background="new    ">
		<path d="M3678.7,198.9c-0.4,1-1.2,1.8-1.8,2.1c-0.6,0.3-1.4,0.4-2.2,0.4c-0.5,0-1.5-0.2-1.8-0.8c-0.4-0.7-0.1-1.4,0-1.8
			c0.4-1,1.1-1.6,1.7-2c0.6-0.3,1.5-0.6,2.5-0.5c0.4,0.1,1.3,0.1,1.7,0.8C3679,197.6,3678.8,198.6,3678.7,198.9z M3676.4,197.4
			c-0.4,0.2-0.7,0.4-1.1,0.6c-0.4,0.2-0.7,0.4-1.1,0.7c-0.6,0.3-1.3,1-0.9,1.6c0.4,0.6,1.3,0.3,1.9,0c0.4-0.2,0.8-0.4,1.2-0.6
			c0.4-0.2,0.7-0.4,1.1-0.7c0.5-0.3,1.3-1,0.9-1.6C3677.9,196.8,3677,197.1,3676.4,197.4z"/>
	</g>
	<line fill="none" stroke="#000000" stroke-width="0.459" x1="3711.4" y1="199.6" x2="3711.4" y2="215.6"/>
	<g enable-background="new    ">
		<path d="M3717.3,198.9c-0.4,1-1.2,1.8-1.8,2.1c-0.6,0.3-1.4,0.4-2.2,0.4c-0.5,0-1.5-0.2-1.8-0.8c-0.4-0.7-0.1-1.4,0-1.8
			c0.4-1,1.1-1.6,1.7-2c0.6-0.3,1.5-0.6,2.5-0.5c0.4,0.1,1.3,0.1,1.7,0.8C3717.7,197.6,3717.4,198.6,3717.3,198.9z M3715,197.4
			c-0.4,0.2-0.7,0.4-1.1,0.6c-0.4,0.2-0.7,0.4-1.1,0.7c-0.6,0.3-1.3,1-0.9,1.6c0.4,0.6,1.3,0.3,1.9,0c0.4-0.2,0.8-0.4,1.2-0.6
			s0.7-0.4,1.1-0.7c0.5-0.3,1.3-1,0.9-1.6C3716.5,196.8,3715.6,197.1,3715,197.4z"/>
	</g>
	<g enable-background="new    ">
		<path d="M3747.3,196.3v2.5h-6.1v-2.5H3747.3z"/>
	</g>
	<line fill="none" stroke="#000000" stroke-width="0.459" x1="3740.6" y1="198.8" x2="3747.8" y2="198.8"/>
</g>
</svg>
