<?xml version="1.0" encoding="utf-8"?>
<!-- Generator: Adobe Illustrator 16.0.0, SVG Export Plug-In . SVG Version: 6.00 Build 0)  -->
<!DOCTYPE svg PUBLIC "-//W3C//DTD SVG 1.1//EN" "http://www.w3.org/Graphics/SVG/1.1/DTD/svg11.dtd">
<svg version="1.1" id="Layer_1" xmlns="http://www.w3.org/2000/svg" xmlns:xlink="http://www.w3.org/1999/xlink" x="0px" y="0px"
	 width="2880px" height="49.3px" viewBox="928 176.3 2880 49.3" enable-background="new 928 176.3 2880 49.3" xml:space="preserve">
<g id="Music">
	<rect x="928" y="-57.2" fill="#FFFFFF" width="2880" height="425.2"/>
	<line fill="none" stroke="#000000" stroke-width="0.459" x1="956.4" y1="-41.2" x2="956.4" y2="323.6"/>
	<g enable-background="new    ">
		<path d="M966.3,190.3v17h-4.9v-17H966.3z M965.5,205.7v-13.8h-3.2v13.8H965.5z"/>
	</g>
	<g enable-background="new    ">
		<path d="M986.6,205.7v1.3c0,0.8,0.9,0.7,0.9,0.7v0.5h-4.2v-0.5c0,0,0.9,0,0.9-0.7v-1.3h-3.6l-0.3-0.4c2.3-3.1,2.3-3.7,2.9-6.5h3.3
			c-0.8,1.5-3.4,4.2-5.3,6.4h3v-2.4l2.3-2.6v4.9h1.4v0.5H986.6z"/>
	</g>
	<g enable-background="new    ">
		<path d="M986.6,196.1v1.3c0,0.8,0.9,0.7,0.9,0.7v0.5h-4.2v-0.5c0,0,0.9,0,0.9-0.7v-1.3h-3.6l-0.3-0.4c2.3-3.1,2.3-3.7,2.9-6.5h3.3
			c-0.8,1.5-3.4,4.2-5.3,6.4h3v-2.4l2.3-2.6v4.9h1.4v0.5H986.6z"/>
	</g>
	<line fill="none" stroke="#000000" stroke-width="0.459" x1="1060" y1="189.2" x2="1060" y2="208.4"/>
	<line fill="none" stroke="#000000" stroke-width="0.459" x1="1129.6" y1="189.2" x2="1129.6" y2="208.4"/>
	<line fill="none" stroke="#000000" stroke-width="0.459" x1="1199.2" y1="189.2" x2="1199.2" y2="208.4"/>
	<line fill="none" stroke="#000000" stroke-width="0.459" x1="1268.8" y1="189.2" x2="1268.8" y2="208.4"/>
	<line fill="none" stroke="#000000" stroke-width="0.459" x1="1338.4" y1="189.2" x2="1338.4" y2="208.4"/>
	<line fill="none" stroke="#000000" stroke-width="0.459" x1="1408" y1="189.2" x2="1408" y2="208.4"/>
	<line fill="none" stroke="#000000" stroke-width="0.459" x1="1477.6" y1="189.2" x2="1477.6" y2="208.4"/>
	<line fill="none" stroke="#000000" stroke-width="0.459" x1="1547.2" y1="189.2" x2="1547.2" y2="208.4"/>
	<line fill="none" stroke="#000000" stroke-width="0.459" x1="1616.8" y1="189.2" x2="1616.8" y2="208.4"/>
	<line fill="none" stroke="#000000" stroke-width="0.459" x1="1686.4" y1="189.2" x2="1686.4" y2="208.4"/>
	<line fill="none" stroke="#000000" stroke-width="0.459" x1="1756" y1="189.2" x2="1756" y2="208.4"/>
	<line fill="none" stroke="#000000" stroke-width="0.459" x1="1825.6" y1="189.2" x2="1825.6" y2="208.4"/>
	<line fill="none" stroke="#000000" stroke-width="0.459" x1="1895.2" y1="189.2" x2="1895.2" y2="208.4"/>
	<line fill="none" stroke="#000000" stroke-width="0.459" x1="1964.8" y1="189.2" x2="1964.8" y2="208.4"/>
	<line fill="none" stroke="#000000" stroke-width="0.459" x1="2034.4" y1="189.2" x2="2034.4" y2="208.4"/>
	<line fill="none" stroke="#000000" stroke-width="0.459" x1="2104" y1="189.2" x2="2104" y2="208.4"/>
	<line fill="none" stroke="#000000" stroke-width="0.459" x1="2173.6" y1="189.2" x2="2173.6" y2="208.4"/>
	<line fill="none" stroke="#000000" stroke-width="0.459" x1="2243.2" y1="189.2" x2="2243.2" y2="208.4"/>
	<line fill="none" stroke="#000000" stroke-width="0.459" x1="2312.8" y1="189.2" x2="2312.8" y2="208.4"/>
	<line fill="none" stroke="#000000" stroke-width="0.459" x1="2382.4" y1="189.2" x2="2382.4" y2="208.4"/>
	<line fill="none" stroke="#000000" stroke-width="0.459" x1="2452" y1="189.2" x2="2452" y2="208.4"/>
	<line fill="none" stroke="#000000" stroke-width="0.459" x1="2521.6" y1="189.2" x2="2521.6" y2="208.4"/>
	<line fill="none" stroke="#000000" stroke-width="0.459" x1="2591.2" y1="189.2" x2="2591.2" y2="208.4"/>
	<line fill="none" stroke="#000000" stroke-width="0.459" x1="2660.8" y1="189.2" x2="2660.8" y2="208.4"/>
	<line fill="none" stroke="#000000" stroke-width="0.459" x1="2730.4" y1="189.2" x2="2730.4" y2="208.4"/>
	<line fill="none" stroke="#000000" stroke-width="0.459" x1="2800" y1="189.2" x2="2800" y2="208.4"/>
	<line fill="none" stroke="#000000" stroke-width="0.459" x1="2869.6" y1="189.2" x2="2869.6" y2="208.4"/>
	<line fill="none" stroke="#000000" stroke-width="0.459" x1="2939.2" y1="189.2" x2="2939.2" y2="208.4"/>
	<line fill="none" stroke="#000000" stroke-width="0.459" x1="3008.8" y1="189.2" x2="3008.8" y2="208.4"/>
	<line fill="none" stroke="#000000" stroke-width="0.459" x1="3078.4" y1="189.2" x2="3078.4" y2="208.4"/>
	<line fill="none" stroke="#000000" stroke-width="0.459" x1="3148" y1="189.2" x2="3148" y2="208.4"/>
	<line fill="none" stroke="#000000" stroke-width="0.459" x1="3217.6" y1="189.2" x2="3217.6" y2="208.4"/>
	<line fill="none" stroke="#000000" stroke-width="0.459" x1="3287.2" y1="189.2" x2="3287.2" y2="208.4"/>
	<line fill="none" stroke="#000000" stroke-width="0.459" x1="3356.8" y1="189.2" x2="3356.8" y2="208.4"/>
	<line fill="none" stroke="#000000" stroke-width="0.459" x1="3426.4" y1="189.2" x2="3426.4" y2="208.4"/>
	<line fill="none" stroke="#000000" stroke-width="0.459" x1="3496" y1="189.2" x2="3496" y2="208.4"/>
	<line fill="none" stroke="#000000" stroke-width="0.459" x1="3565.6" y1="189.2" x2="3565.6" y2="208.4"/>
	<line fill="none" stroke="#000000" stroke-width="0.459" x1="3635.2" y1="189.2" x2="3635.2" y2="208.4"/>
	<line fill="none" stroke="#000000" stroke-width="0.459" x1="3704.8" y1="189.2" x2="3704.8" y2="208.4"/>
	<line fill="none" stroke="#000000" stroke-width="2.419" x1="3778.6" y1="189.2" x2="3778.6" y2="208.4"/>
	<line fill="none" stroke="#000000" stroke-width="0.459" x1="3774.7" y1="189.2" x2="3774.7" y2="208.4"/>
	<line fill="none" stroke="#000000" stroke-width="0.459" x1="956.2" y1="198.8" x2="3779.8" y2="198.8"/>
	<line fill="none" stroke="#000000" stroke-width="0.459" x1="997" y1="199.6" x2="997" y2="215.6"/>
	<g enable-background="new    ">
		<path d="M1002.9,198.9c-0.4,1-1.2,1.8-1.8,2.1c-0.6,0.3-1.4,0.4-2.2,0.4c-0.5,0-1.5-0.2-1.8-0.8c-0.4-0.7-0.1-1.4,0-1.8
			c0.4-1,1.1-1.6,1.7-2c0.6-0.3,1.5-0.6,2.5-0.5c0.4,0.1,1.3,0.1,1.7,0.8C1003.2,197.6,1003,198.6,1002.9,198.9z M1000.6,197.4
			c-0.4,0.2-0.7,0.4-1.1,0.6c-0.4,0.2-0.7,0.4-1.1,0.7c-0.6,0.3-1.3,1-0.9,1.6c0.4,0.6,1.3,0.3,1.9,0c0.4-0.2,0.8-0.4,1.2-0.6
			s0.7-0.4,1.1-0.7c0.5-0.3,1.3-1,0.9-1.6C1002.1,196.8,1001.2,197.1,1000.6,197.4z"/>
	</g>
	<line fill="none" stroke="#000000" stroke-width="0.459" x1="1022.6" y1="199.6" x2="1022.6" y2="215.6"/>
	<g enable-background="new    ">
		<path d="M1028.5,198.9c-0.4,1-1.2,1.8-1.8,2.1c-0.6,0.3-1.4,0.4-2.2,0.4c-0.5,0-1.5-0.2-1.8-0.8c-0.4-0.7-0.1-1.4,0-1.8
			c0.4-1,1.1-1.6,1.7-2c0.6-0.3,1.5-0.6,2.5-0.5c0.4,0.1,1.3,0.1,1.7,0.8C1028.8,197.6,1028.6,198.6,1028.5,198.9z M1026.2,197.4
			c-0.4,0.2-0.7,0.4-1.1,0.6c-0.4,0.2-0.7,0.4-1.1,0.7c-0.6,0.3-1.3,1-0.9,1.6c0.4,0.6,1.3,0.3,1.9,0c0.4-0.2,0.8-0.4,1.2-0.6
			s0.7-0.4,1.1-0.7c0.5-0.3,1.3-1,0.9-1.6C1027.7,196.8,1026.8,197.1,1026.2,197.4z"/>
	</g>
	<g enable-background="new    ">
		<path d="M991.2,214.1c-0.5,0-0.6-0.4-0.6-0.7c0-0.5,0.6-0.7,1-1.1c0-0.2-0.2-0.2-0.4-0.2c-1,0-1.4,0.8-1.7,1.6
			c-0.1,0.3-0.4,1-0.5,1.7h1.8v0.4c0,0-1.9,0-1.9,0c-0.2,0.6-0.5,1.7-0.6,1.9c-0.3,1-0.5,1.6-0.9,2.6c-0.3,0.8-1,1.9-1.9,2.9
			c-0.7,0.7-1.5,0.9-2.2,0.9c-0.5,0-1.2-0.7-1.2-1.4c0-0.6,0.3-1.3,1-1.3c0.6,0,0.8,0.4,0.8,0.9c-0.2,0.8-0.8,0.8-0.8,1
			c0.1,0.1,0.2,0.2,0.3,0.2c1.2,0,2-3.2,2.1-3.7c0.3-1.2,0.7-2.3,1.1-4H985v-0.4h1.8c0.3-0.7,0.6-1.3,1-1.8c0.9-1.3,2-1.9,3.4-1.9
			c0.6,0,1.2,0.6,1.2,1.2C992.4,213.4,992,214.1,991.2,214.1z"/>
	</g>
	<line fill="none" stroke="#000000" stroke-width="0.459" x1="1065.4" y1="199.6" x2="1065.4" y2="215.6"/>
	<g enable-background="new    ">
		<path d="M1071.3,198.9c-0.4,1-1.2,1.8-1.8,2.1c-0.6,0.3-1.4,0.4-2.2,0.4c-0.5,0-1.5-0.2-1.8-0.8c-0.4-0.7-0.1-1.4,0-1.8
			c0.4-1,1.1-1.6,1.7-2c0.6-0.3,1.5-0.6,2.5-0.5c0.4,0.1,1.3,0.1,1.7,0.8C1071.6,197.6,1071.4,198.6,1071.3,198.9z M1069,197.4
			c-0.4,0.2-0.7,0.4-1.1,0.6c-0.4,0.2-0.7,0.4-1.1,0.7c-0.6,0.3-1.3,1-0.9,1.6c0.4,0.6,1.3,0.3,1.9,0c0.4-0.2,0.8-0.4,1.2-0.6
			s0.7-0.4,1.1-0.7c0.5-0.3,1.3-1,0.9-1.6C1070.5,196.8,1069.6,197.1,1069,197.4z"/>
	</g>
	<g enable-background="new    ">
		<path d="M1101.5,196.3v2.5h-6.1v-2.5H1101.5z"/>
	</g>
	<line fill="none" stroke="#000000" stroke-width="0.459" x1="1094.8" y1="198.8" x2="1102" y2="198.8"/>
	<line fill="none" stroke="#000000" stroke-width="0.459" x1="1135" y1="199.6" x2="1135" y2="215.6"/>
	<g enable-background="new    ">
		<path d="M1140.9,198.9c-0.4,1-1.2,1.8-1.8,2.1c-0.6,0.3-1.4,0.4-2.2,0.4c-0.5,0-1.5-0.2-1.8-0.8c-0.4-0.7-0.1-1.4,0-1.8
			c0.4-1,1.1-1.6,1.7-2c0.6-0.3,1.5-0.6,2.5-0.5c0.4,0.1,1.3,0.1,1.7,0.8C1141.2,197.6,1141,198.6,1140.9,198.9z M1138.6,197.4
			c-0.4,0.2-0.7,0.4-1.1,0.6c-0.4,0.2-0.7,0.4-1.1,0.7c-0.6,0.3-1.3,1-0.9,1.6c0.4,0.6,1.3,0.3,1.9,0c0.4-0.2,0.8-0.4,1.2-0.6
			s0.7-0.4,1.1-0.7c0.5-0.3,1.3-1,0.9-1.6C1140.1,196.8,1139.2,197.1,1138.6,197.4z"/>
	</g>
	<line fill="none" stroke="#000000" stroke-width="0.459" x1="1167.2" y1="199.6" x2="1167.2" y2="215.6"/>
	<g enable-background="new    ">
		<path d="M1173.1,198.9c-0.4,1-1.2,1.8-1.8,2.1c-0.6,0.3-1.4,0.4-2.2,0.4c-0.5,0-1.5-0.2-1.8-0.8c-0.4-0.7-0.1-1.4,0-1.8
			c0.4-1,1.1-1.6,1.7-2c0.6-0.3,1.5-0.6,2.5-0.5c0.4,0.1,1.3,0.1,1.7,0.8C1173.4,197.6,1173.2,198.6,1173.1,198.9z M1170.8,197.4
			c-0.4,0.2-0.7,0.4-1.1,0.6c-0.4,0.2-0.7,0.4-1.1,0.7c-0.6,0.3-1.3,1-0.9,1.6c0.4,0.6,1.3,0.3,1.9,0c0.4-0.2,0.8-0.4,1.2-0.6
			s0.7-0.4,1.1-0.7c0.5-0.3,1.3-1,0.9-1.6C1172.3,196.8,1171.4,197.1,1170.8,197.4z"/>
	</g>
	<line fill="none" stroke="#000000" stroke-width="0.459" x1="1205.8" y1="199.6" x2="1205.8" y2="215.6"/>
	<g enable-background="new    ">
		<path d="M1211.7,198.9c-0.4,1-1.2,1.8-1.8,2.1c-0.6,0.3-1.4,0.4-2.2,0.4c-0.5,0-1.5-0.2-1.8-0.8c-0.4-0.7-0.1-1.4,0-1.8
			c0.4-1,1.1-1.6,1.7-2c0.6-0.3,1.5-0.6,2.5-0.5c0.4,0.1,1.3,0.1,1.7,0.8C1212,197.6,1211.8,198.6,1211.7,198.9z M1209.4,197.4
			c-0.4,0.2-0.7,0.4-1.1,0.6c-0.4,0.2-0.7,0.4-1.1,0.7c-0.6,0.3-1.3,1-0.9,1.6c0.4,0.6,1.3,0.3,1.9,0c0.4-0.2,0.8-0.4,1.2-0.6
			s0.7-0.4,1.1-0.7c0.5-0.3,1.3-1,0.9-1.6C1210.9,196.8,1210,197.1,1209.4,197.4z"/>
	</g>
	<g enable-background="new    ">
		<path d="M1241.5,196.3v2.5h-6.1v-2.5H1241.5z"/>
	</g>
	<line fill="none" stroke="#000000" stroke-width="0.459" x1="1234.8" y1="198.8" x2="1242" y2="198.8"/>
	<line fill="none" stroke="#000000" stroke-width="0.459" x1="1274.2" y1="199.6" x2="1274.2" y2="215.6"/>
	<g enable-background="new    ">
		<path d="M1280.1,198.9c-0.4,1-1.2,1.8-1.8,2.1c-0.6,0.3-1.4,0.4-2.2,0.4c-0.5,0-1.5-0.2-1.8-0.8c-0.4-0.7-0.1-1.4,0-1.8
			c0.4-1,1.1-1.6,1.7-2c0.6-0.3,1.5-0.6,2.5-0.5c0.4,0.1,1.3,0.1,1.7,0.8C1280.4,197.6,1280.2,198.6,1280.1,198.9z M1277.8,197.4
			c-0.4,0.2-0.7,0.4-1.1,0.6c-0.4,0.2-0.7,0.4-1.1,0.7c-0.6,0.3-1.3,1-0.9,1.6c0.4,0.6,1.3,0.3,1.9,0c0.4-0.2,0.8-0.4,1.2-0.6
			s0.7-0.4,1.1-0.7c0.5-0.3,1.3-1,0.9-1.6C1279.3,196.8,1278.4,197.1,1277.8,197.4z"/>
	</g>
	<g enable-background="new    ">
		<path d="M1310.3,196.3v2.5h-6.1v-2.5H1310.3z"/>
	</g>
	<line fill="none" stroke="#000000" stroke-width="0.459" x1="1303.6" y1="198.8" x2="1310.8" y2="198.8"/>
	<line fill="none" stroke="#000000" stroke-width="0.459" x1="1343.8" y1="199.6" x2="1343.8" y2="215.6"/>
	<g enable-background="new    ">
		<path d="M1349.7,198.9c-0.4,1-1.2,1.8-1.8,2.1c-0.6,0.3-1.4,0.4-2.2,0.4c-0.5,0-1.5-0.2-1.8-0.8c-0.4-0.7-0.1-1.4,0-1.8
			c0.4-1,1.1-1.6,1.7-2c0.6-0.3,1.5-0.6,2.5-0.5c0.4,0.1,1.3,0.1,1.7,0.8C1350,197.6,1349.8,198.6,1349.7,198.9z M1347.4,197.4
			c-0.4,0.2-0.7,0.4-1.1,0.6c-0.4,0.2-0.7,0.4-1.1,0.7c-0.6,0.3-1.3,1-0.9,1.6c0.4,0.6,1.3,0.3,1.9,0c0.4-0.2,0.8-0.4,1.2-0.6
			s0.7-0.4,1.1-0.7c0.5-0.3,1.3-1,0.9-1.6C1348.9,196.8,1348,197.1,1347.4,197.4z"/>
	</g>
	<g enable-background="new    ">
		<path d="M1379.9,196.3v2.5h-6.1v-2.5H1379.9z"/>
	</g>
	<line fill="none" stroke="#000000" stroke-width="0.459" x1="1373.2" y1="198.8" x2="1380.4" y2="198.8"/>
	<line fill="none" stroke="#000000" stroke-width="0.459" x1="1413.4" y1="199.6" x2="1413.4" y2="215.6"/>
	<g enable-background="new    ">
		<path d="M1419.3,198.9c-0.4,1-1.2,1.8-1.8,2.1c-0.6,0.3-1.4,0.4-2.2,0.4c-0.5,0-1.5-0.2-1.8-0.8c-0.4-0.7-0.1-1.4,0-1.8
			c0.4-1,1.1-1.6,1.7-2c0.6-0.3,1.5-0.6,2.5-0.5c0.4,0.1,1.3,0.1,1.7,0.8C1419.6,197.6,1419.4,198.6,1419.3,198.9z M1417,197.4
			c-0.4,0.2-0.7,0.4-1.1,0.6c-0.4,0.2-0.7,0.4-1.1,0.7c-0.6,0.3-1.3,1-0.9,1.6c0.4,0.6,1.3,0.3,1.9,0c0.4-0.2,0.8-0.4,1.2-0.6
			s0.7-0.4,1.1-0.7c0.5-0.3,1.3-1,0.9-1.6C1418.5,196.8,1417.6,197.1,1417,197.4z"/>
	</g>
	<line fill="none" stroke="#000000" stroke-width="0.459" x1="1443.6" y1="199.6" x2="1443.6" y2="215.6"/>
	<g enable-background="new    ">
		<path d="M1449.5,198.9c-0.4,1-1.2,1.8-1.8,2.1c-0.6,0.3-1.4,0.4-2.2,0.4c-0.5,0-1.5-0.2-1.8-0.8c-0.4-0.7-0.1-1.4,0-1.8
			c0.4-1,1.1-1.6,1.7-2c0.6-0.3,1.5-0.6,2.5-0.5c0.4,0.1,1.3,0.1,1.7,0.8C1449.8,197.6,1449.6,198.6,1449.5,198.9z M1447.2,197.4
			c-0.4,0.2-0.7,0.4-1.1,0.6c-0.4,0.2-0.7,0.4-1.1,0.7c-0.6,0.3-1.3,1-0.9,1.6c0.4,0.6,1.3,0.3,1.9,0c0.4-0.2,0.8-0.4,1.2-0.6
			s0.7-0.4,1.1-0.7c0.5-0.3,1.3-1,0.9-1.6C1448.7,196.8,1447.8,197.1,1447.2,197.4z"/>
	</g>
	<line fill="none" stroke="#000000" stroke-width="0.459" x1="1483" y1="199.6" x2="1483" y2="215.6"/>
	<g enable-background="new    ">
		<path d="M1488.9,198.9c-0.4,1-1.2,1.8-1.8,2.1c-0.6,0.3-1.4,0.4-2.2,0.4c-0.5,0-1.5-0.2-1.8-0.8c-0.4-0.7-0.1-1.4,0-1.8
			c0.4-1,1.1-1.6,1.7-2c0.6-0.3,1.5-0.6,2.5-0.5c0.4,0.1,1.3,0.1,1.7,0.8C1489.2,197.6,1489,198.6,1488.9,198.9z M1486.6,197.4
			c-0.4,0.2-0.7,0.4-1.1,0.6c-0.4,0.2-0.7,0.4-1.1,0.7c-0.6,0.3-1.3,1-0.9,1.6c0.4,0.6,1.3,0.3,1.9,0c0.4-0.2,0.8-0.4,1.2-0.6
			s0.7-0.4,1.1-0.7c0.5-0.3,1.3-1,0.9-1.6C1488.1,196.8,1487.2,197.1,1486.6,197.4z"/>
	</g>
	<g enable-background="new    ">
		<path d="M1517.7,196.3v2.5h-6.1v-2.5H1517.7z"/>
	</g>
	<line fill="none" stroke="#000000" stroke-width="0.459" x1="1511" y1="198.8" x2="1518.2" y2="198.8"/>
	<line fill="none" stroke="#000000" stroke-width="0.459" x1="1553.8" y1="199.6" x2="1553.8" y2="215.6"/>
	<g enable-background="new    ">
		<path d="M1559.7,198.9c-0.4,1-1.2,1.8-1.8,2.1c-0.6,0.3-1.4,0.4-2.2,0.4c-0.5,0-1.5-0.2-1.8-0.8c-0.4-0.7-0.1-1.4,0-1.8
			c0.4-1,1.1-1.6,1.7-2c0.6-0.3,1.5-0.6,2.5-0.5c0.4,0.1,1.3,0.1,1.7,0.8C1560,197.6,1559.8,198.6,1559.7,198.9z M1557.4,197.4
			c-0.4,0.2-0.7,0.4-1.1,0.6c-0.4,0.2-0.7,0.4-1.1,0.7c-0.6,0.3-1.3,1-0.9,1.6c0.4,0.6,1.3,0.3,1.9,0c0.4-0.2,0.8-0.4,1.2-0.6
			s0.7-0.4,1.1-0.7c0.5-0.3,1.3-1,0.9-1.6C1558.9,196.8,1558,197.1,1557.4,197.4z"/>
	</g>
	<line fill="none" stroke="#000000" stroke-width="0.459" x1="1585.4" y1="199.6" x2="1585.4" y2="215.6"/>
	<g enable-background="new    ">
		<path d="M1591.3,198.9c-0.4,1-1.2,1.8-1.8,2.1c-0.6,0.3-1.4,0.4-2.2,0.4c-0.5,0-1.5-0.2-1.8-0.8c-0.4-0.7-0.1-1.4,0-1.8
			c0.4-1,1.1-1.6,1.7-2c0.6-0.3,1.5-0.6,2.5-0.5c0.4,0.1,1.3,0.1,1.7,0.8C1591.6,197.6,1591.4,198.6,1591.3,198.9z M1589,197.4
			c-0.4,0.2-0.7,0.4-1.1,0.6c-0.4,0.2-0.7,0.4-1.1,0.7c-0.6,0.3-1.3,1-0.9,1.6c0.4,0.6,1.3,0.3,1.9,0c0.4-0.2,0.8-0.4,1.2-0.6
			s0.7-0.4,1.1-0.7c0.5-0.3,1.3-1,0.9-1.6C1590.5,196.8,1589.6,197.1,1589,197.4z"/>
	</g>
	<line fill="none" stroke="#000000" stroke-width="0.459" x1="1623.4" y1="199.6" x2="1623.4" y2="215.6"/>
	<g enable-background="new    ">
		<path d="M1629.3,198.9c-0.4,1-1.2,1.8-1.8,2.1c-0.6,0.3-1.4,0.4-2.2,0.4c-0.5,0-1.5-0.2-1.8-0.8c-0.4-0.7-0.1-1.4,0-1.8
			c0.4-1,1.1-1.6,1.7-2c0.6-0.3,1.5-0.6,2.5-0.5c0.4,0.1,1.3,0.1,1.7,0.8C1629.6,197.6,1629.4,198.6,1629.3,198.9z M1627,197.4
			c-0.4,0.2-0.7,0.4-1.1,0.6c-0.4,0.2-0.7,0.4-1.1,0.7c-0.6,0.3-1.3,1-0.9,1.6c0.4,0.6,1.3,0.3,1.9,0c0.4-0.2,0.8-0.4,1.2-0.6
			s0.7-0.4,1.1-0.7c0.5-0.3,1.3-1,0.9-1.6C1628.5,196.8,1627.6,197.1,1627,197.4z"/>
	</g>
	<g enable-background="new    ">
		<path d="M1660.9,196.3v2.5h-6.1v-2.5H1660.9z"/>
	</g>
	<line fill="none" stroke="#000000" stroke-width="0.459" x1="1654.2" y1="198.8" x2="1661.4" y2="198.8"/>
	<line fill="none" stroke="#000000" stroke-width="0.459" x1="1693" y1="199.6" x2="1693" y2="215.6"/>
	<g enable-background="new    ">
		<path d="M1698.9,198.9c-0.4,1-1.2,1.8-1.8,2.1c-0.6,0.3-1.4,0.4-2.2,0.4c-0.5,0-1.5-0.2-1.8-0.8c-0.4-0.7-0.1-1.4,0-1.8
			c0.4-1,1.1-1.6,1.7-2c0.6-0.3,1.5-0.6,2.5-0.5c0.4,0.1,1.3,0.1,1.7,0.8C1699.2,197.6,1699,198.6,1698.9,198.9z M1696.6,197.4
			c-0.4,0.2-0.7,0.4-1.1,0.6c-0.4,0.2-0.7,0.4-1.1,0.7c-0.6,0.3-1.3,1-0.9,1.6c0.4,0.6,1.3,0.3,1.9,0c0.4-0.2,0.8-0.4,1.2-0.6
			s0.7-0.4,1.1-0.7c0.5-0.3,1.3-1,0.9-1.6C1698.1,196.8,1697.2,197.1,1696.6,197.4z"/>
	</g>
	<line fill="none" stroke="#000000" stroke-width="0.459" x1="1724.6" y1="199.6" x2="1724.6" y2="215.6"/>
	<g enable-background="new    ">
		<path d="M1730.5,198.9c-0.4,1-1.2,1.8-1.8,2.1c-0.6,0.3-1.4,0.4-2.2,0.4c-0.5,0-1.5-0.2-1.8-0.8c-0.4-0.7-0.1-1.4,0-1.8
			c0.4-1,1.1-1.6,1.7-2c0.6-0.3,1.5-0.6,2.5-0.5c0.4,0.1,1.3,0.1,1.7,0.8C1730.8,197.6,1730.6,198.6,1730.5,198.9z M1728.2,197.4
			c-0.4,0.2-0.7,0.4-1.1,0.6c-0.4,0.2-0.7,0.4-1.1,0.7c-0.6,0.3-1.3,1-0.9,1.6c0.4,0.6,1.3,0.3,1.9,0c0.4-0.2,0.8-0.4,1.2-0.6
			s0.7-0.4,1.1-0.7c0.5-0.3,1.3-1,0.9-1.6C1729.7,196.8,1728.8,197.1,1728.2,197.4z"/>
	</g>
	<line fill="none" stroke="#000000" stroke-width="0.459" x1="1762.6" y1="199.6" x2="1762.6" y2="215.6"/>
	<g enable-background="new    ">
		<path d="M1768.5,198.9c-0.4,1-1.2,1.8-1.8,2.1c-0.6,0.3-1.4,0.4-2.2,0.4c-0.5,0-1.5-0.2-1.8-0.8c-0.4-0.7-0.1-1.4,0-1.8
			c0.4-1,1.1-1.6,1.7-2c0.6-0.3,1.5-0.6,2.5-0.5c0.4,0.1,1.3,0.1,1.7,0.8C1768.8,197.6,1768.6,198.6,1768.5,198.9z M1766.2,197.4
			c-0.4,0.2-0.7,0.4-1.1,0.6c-0.4,0.2-0.7,0.4-1.1,0.7c-0.6,0.3-1.3,1-0.9,1.6c0.4,0.6,1.3,0.3,1.9,0c0.4-0.2,0.8-0.4,1.2-0.6
			s0.7-0.4,1.1-0.7c0.5-0.3,1.3-1,0.9-1.6C1767.7,196.8,1766.8,197.1,1766.2,197.4z"/>
	</g>
	<g enable-background="new    ">
		<path d="M1799.9,196.3v2.5h-6.1v-2.5H1799.9z"/>
	</g>
	<line fill="none" stroke="#000000" stroke-width="0.459" x1="1793.2" y1="198.8" x2="1800.4" y2="198.8"/>
	<g enable-background="new    ">
		<path d="M1811.1,209c0.3,0,0.5,0,0.7,0.1c0.5,0.3,0.6,0.4,0.8,1c0.2-0.3,0.3-0.4,0.6-0.6c0.4-0.2,0.9-0.5,1.5-0.5
			c0.9,0,1.2,0.6,1.4,1.7c0,0.1-0.1,1.2-0.4,1.8c-0.6,1.1-1.7,2.2-2.9,2.2c-0.5,0-0.7-0.2-0.9-0.3c-0.3-0.2-0.3-0.3-0.6-0.5
			l-1.3,3.1l1.3,0.1v0.4h-5v-0.4l1.7-0.1c0,0,2.6-6.2,2.8-6.7c0.1-0.2-0.1-0.6-0.4-0.6c-0.3,0-0.8,0.5-1.2,0.9
			c-0.3,0.5-0.5,0.9-0.7,1.2c0,0-0.2,0-0.2,0C1809.3,209.7,1810.1,208.9,1811.1,209z M1814.1,209.7c-0.7,0-1.5,0.8-1.7,1.5
			c-0.1,0.2-0.2,0.6-0.3,0.9c-0.1,0.3-0.2,0.7-0.2,0.9c0,0.1,0.2,0.9,0.7,0.9c0.9,0,2-3.3,2-3.7
			C1814.5,209.8,1814.4,209.7,1814.1,209.7z"/>
	</g>
	<g enable-background="new    ">
		<path d="M1863.5,198.8v2.8h-6.1v-2.8H1863.5z"/>
	</g>
	<line fill="none" stroke="#000000" stroke-width="0.459" x1="1856.8" y1="198.8" x2="1864" y2="198.8"/>
	<g enable-background="new    ">
		<path d="M1933.1,198.8v2.8h-6.1v-2.8H1933.1z"/>
	</g>
	<line fill="none" stroke="#000000" stroke-width="0.459" x1="1926.4" y1="198.8" x2="1933.6" y2="198.8"/>
	<g enable-background="new    ">
		<path d="M2002.7,198.8v2.8h-6.1v-2.8H2002.7z"/>
	</g>
	<line fill="none" stroke="#000000" stroke-width="0.459" x1="1996" y1="198.8" x2="2003.2" y2="198.8"/>
	<g enable-background="new    ">
		<path d="M2072.3,198.8v2.8h-6.1v-2.8H2072.3z"/>
	</g>
	<line fill="none" stroke="#000000" stroke-width="0.459" x1="2065.6" y1="198.8" x2="2072.8" y2="198.8"/>
	<g enable-background="new    ">
		<path d="M2107.4,214.1c-0.5,0-0.6-0.4-0.6-0.7c0-0.5,0.6-0.7,1-1.1c0-0.2-0.2-0.2-0.4-0.2c-1,0-1.4,0.8-1.7,1.6
			c-0.1,0.3-0.4,1-0.5,1.7h1.8v0.4c0,0-1.9,0-1.9,0c-0.2,0.6-0.5,1.7-0.6,1.9c-0.3,1-0.5,1.6-0.9,2.6c-0.3,0.8-1,1.9-1.9,2.9
			c-0.7,0.7-1.5,0.9-2.2,0.9c-0.5,0-1.2-0.7-1.2-1.4c0-0.6,0.3-1.3,1-1.3c0.6,0,0.8,0.4,0.8,0.9c-0.2,0.8-0.8,0.8-0.8,1
			c0.1,0.1,0.2,0.2,0.3,0.2c1.2,0,2-3.2,2.1-3.7c0.3-1.2,0.7-2.3,1.1-4h-1.7v-0.4h1.8c0.3-0.7,0.6-1.3,1-1.8c0.9-1.3,2-1.9,3.4-1.9
			c0.6,0,1.2,0.6,1.2,1.2C2108.6,213.4,2108.2,214.1,2107.4,214.1z"/>
	</g>
	<line fill="none" stroke="#000000" stroke-width="0.459" x1="2110.6" y1="199.6" x2="2110.6" y2="215.6"/>
	<g enable-background="new    ">
		<path d="M2116.5,198.9c-0.4,1-1.2,1.8-1.8,2.1c-0.6,0.3-1.4,0.4-2.2,0.4c-0.5,0-1.5-0.2-1.8-0.8c-0.4-0.7-0.1-1.4,0-1.8
			c0.4-1,1.1-1.6,1.7-2c0.6-0.3,1.5-0.6,2.5-0.5c0.4,0.1,1.3,0.1,1.7,0.8C2116.8,197.6,2116.6,198.6,2116.5,198.9z M2114.2,197.4
			c-0.4,0.2-0.7,0.4-1.1,0.6c-0.4,0.2-0.7,0.4-1.1,0.7c-0.6,0.3-1.3,1-0.9,1.6c0.4,0.6,1.3,0.3,1.9,0c0.4-0.2,0.8-0.4,1.2-0.6
			s0.7-0.4,1.1-0.7c0.5-0.3,1.3-1,0.9-1.6C2115.7,196.8,2114.8,197.1,2114.2,197.4z"/>
	</g>
	<line fill="none" stroke="#000000" stroke-width="0.459" x1="2142.2" y1="199.6" x2="2142.2" y2="215.6"/>
	<g enable-background="new    ">
		<path d="M2148.1,198.9c-0.4,1-1.2,1.8-1.8,2.1c-0.6,0.3-1.4,0.4-2.2,0.4c-0.5,0-1.5-0.2-1.8-0.8c-0.4-0.7-0.1-1.4,0-1.8
			c0.4-1,1.1-1.6,1.7-2c0.6-0.3,1.5-0.6,2.5-0.5c0.4,0.1,1.3,0.1,1.7,0.8C2148.4,197.6,2148.2,198.6,2148.1,198.9z M2145.8,197.4
			c-0.4,0.2-0.7,0.4-1.1,0.6c-0.4,0.2-0.7,0.4-1.1,0.7c-0.6,0.3-1.3,1-0.9,1.6c0.4,0.6,1.3,0.3,1.9,0c0.4-0.2,0.8-0.4,1.2-0.6
			s0.7-0.4,1.1-0.7c0.5-0.3,1.3-1,0.9-1.6C2147.3,196.8,2146.4,197.1,2145.8,197.4z"/>
	</g>
	<line fill="none" stroke="#000000" stroke-width="0.459" x1="2180.2" y1="199.6" x2="2180.2" y2="215.6"/>
	<g enable-background="new    ">
		<path d="M2186.1,198.9c-0.4,1-1.2,1.8-1.8,2.1c-0.6,0.3-1.4,0.4-2.2,0.4c-0.5,0-1.5-0.2-1.8-0.8c-0.4-0.7-0.1-1.4,0-1.8
			c0.4-1,1.1-1.6,1.7-2c0.6-0.3,1.5-0.6,2.5-0.5c0.4,0.1,1.3,0.1,1.7,0.8C2186.4,197.6,2186.2,198.6,2186.1,198.9z M2183.8,197.4
			c-0.4,0.2-0.7,0.4-1.1,0.6c-0.4,0.2-0.7,0.4-1.1,0.7c-0.6,0.3-1.3,1-0.9,1.6c0.4,0.6,1.3,0.3,1.9,0c0.4-0.2,0.8-0.4,1.2-0.6
			s0.7-0.4,1.1-0.7c0.5-0.3,1.3-1,0.9-1.6C2185.3,196.8,2184.4,197.1,2183.8,197.4z"/>
	</g>
	<g enable-background="new    ">
		<path d="M2217.5,196.3v2.5h-6.1v-2.5H2217.5z"/>
	</g>
	<line fill="none" stroke="#000000" stroke-width="0.459" x1="2210.8" y1="198.8" x2="2218" y2="198.8"/>
	<line fill="none" stroke="#000000" stroke-width="0.459" x1="2248.6" y1="199.6" x2="2248.6" y2="215.6"/>
	<g enable-background="new    ">
		<path d="M2254.5,198.9c-0.4,1-1.2,1.8-1.8,2.1c-0.6,0.3-1.4,0.4-2.2,0.4c-0.5,0-1.5-0.2-1.8-0.8c-0.4-0.7-0.1-1.4,0-1.8
			c0.4-1,1.1-1.6,1.7-2c0.6-0.3,1.5-0.6,2.5-0.5c0.4,0.1,1.3,0.1,1.7,0.8C2254.8,197.6,2254.6,198.6,2254.5,198.9z M2252.2,197.4
			c-0.4,0.2-0.7,0.4-1.1,0.6c-0.4,0.2-0.7,0.4-1.1,0.7c-0.6,0.3-1.3,1-0.9,1.6c0.4,0.6,1.3,0.3,1.9,0c0.4-0.2,0.8-0.4,1.2-0.6
			s0.7-0.4,1.1-0.7c0.5-0.3,1.3-1,0.9-1.6C2253.7,196.8,2252.8,197.1,2252.2,197.4z"/>
	</g>
	<line fill="none" stroke="#000000" stroke-width="0.459" x1="2280.8" y1="199.6" x2="2280.8" y2="215.6"/>
	<g enable-background="new    ">
		<path d="M2286.7,198.9c-0.4,1-1.2,1.8-1.8,2.1c-0.6,0.3-1.4,0.4-2.2,0.4c-0.5,0-1.5-0.2-1.8-0.8c-0.4-0.7-0.1-1.4,0-1.8
			c0.4-1,1.1-1.6,1.7-2c0.6-0.3,1.5-0.6,2.5-0.5c0.4,0.1,1.3,0.1,1.7,0.8C2287,197.6,2286.8,198.6,2286.7,198.9z M2284.4,197.4
			c-0.4,0.2-0.7,0.4-1.1,0.6c-0.4,0.2-0.7,0.4-1.1,0.7c-0.6,0.3-1.3,1-0.9,1.6c0.4,0.6,1.3,0.3,1.9,0c0.4-0.2,0.8-0.4,1.2-0.6
			s0.7-0.4,1.1-0.7c0.5-0.3,1.3-1,0.9-1.6C2285.9,196.8,2285,197.1,2284.4,197.4z"/>
	</g>
	<line fill="none" stroke="#000000" stroke-width="0.459" x1="2325.4" y1="199.6" x2="2325.4" y2="215.6"/>
	<g enable-background="new    ">
		<path d="M2331.3,198.9c-0.4,1-1.2,1.8-1.8,2.1c-0.6,0.3-1.4,0.4-2.2,0.4c-0.5,0-1.5-0.2-1.8-0.8c-0.4-0.7-0.1-1.4,0-1.8
			c0.4-1,1.1-1.6,1.7-2c0.6-0.3,1.5-0.6,2.5-0.5c0.4,0.1,1.3,0.1,1.7,0.8C2331.6,197.6,2331.4,198.6,2331.3,198.9z M2329,197.4
			c-0.4,0.2-0.7,0.4-1.1,0.6c-0.4,0.2-0.7,0.4-1.1,0.7c-0.6,0.3-1.3,1-0.9,1.6c0.4,0.6,1.3,0.3,1.9,0c0.4-0.2,0.8-0.4,1.2-0.6
			s0.7-0.4,1.1-0.7c0.5-0.3,1.3-1,0.9-1.6C2330.5,196.8,2329.6,197.1,2329,197.4z"/>
	</g>
	<g enable-background="new    ">
		<path d="M2358.1,196.3v2.5h-6.1v-2.5H2358.1z"/>
	</g>
	<line fill="none" stroke="#000000" stroke-width="0.459" x1="2351.4" y1="198.8" x2="2358.6" y2="198.8"/>
	<line fill="none" stroke="#000000" stroke-width="0.459" x1="2389" y1="199.6" x2="2389" y2="215.6"/>
	<g enable-background="new    ">
		<path d="M2394.9,198.9c-0.4,1-1.2,1.8-1.8,2.1c-0.6,0.3-1.4,0.4-2.2,0.4c-0.5,0-1.5-0.2-1.8-0.8c-0.4-0.7-0.1-1.4,0-1.8
			c0.4-1,1.1-1.6,1.7-2c0.6-0.3,1.5-0.6,2.5-0.5c0.4,0.1,1.3,0.1,1.7,0.8C2395.2,197.6,2395,198.6,2394.9,198.9z M2392.6,197.4
			c-0.4,0.2-0.7,0.4-1.1,0.6c-0.4,0.2-0.7,0.4-1.1,0.7c-0.6,0.3-1.3,1-0.9,1.6c0.4,0.6,1.3,0.3,1.9,0c0.4-0.2,0.8-0.4,1.2-0.6
			s0.7-0.4,1.1-0.7c0.5-0.3,1.3-1,0.9-1.6C2394.1,196.8,2393.2,197.1,2392.6,197.4z"/>
	</g>
	<line fill="none" stroke="#000000" stroke-width="0.459" x1="2414.8" y1="199.6" x2="2414.8" y2="215.6"/>
	<g enable-background="new    ">
		<path d="M2420.7,198.9c-0.4,1-1.2,1.8-1.8,2.1c-0.6,0.3-1.4,0.4-2.2,0.4c-0.5,0-1.5-0.2-1.8-0.8c-0.4-0.7-0.1-1.4,0-1.8
			c0.4-1,1.1-1.6,1.7-2c0.6-0.3,1.5-0.6,2.5-0.5c0.4,0.1,1.3,0.1,1.7,0.8C2421,197.6,2420.8,198.6,2420.7,198.9z M2418.4,197.4
			c-0.4,0.2-0.7,0.4-1.1,0.6c-0.4,0.2-0.7,0.4-1.1,0.7c-0.6,0.3-1.3,1-0.9,1.6c0.4,0.6,1.3,0.3,1.9,0c0.4-0.2,0.8-0.4,1.2-0.6
			c0.4-0.2,0.7-0.4,1.1-0.7c0.5-0.3,1.3-1,0.9-1.6C2419.9,196.8,2419,197.1,2418.4,197.4z"/>
	</g>
	<g enable-background="new    ">
		<path d="M2383.2,214.1c-0.5,0-0.6-0.4-0.6-0.7c0-0.5,0.6-0.7,1-1.1c0-0.2-0.2-0.2-0.4-0.2c-1,0-1.4,0.8-1.7,1.6
			c-0.1,0.3-0.4,1-0.5,1.7h1.8v0.4c0,0-1.9,0-1.9,0c-0.2,0.6-0.5,1.7-0.6,1.9c-0.3,1-0.5,1.6-0.9,2.6c-0.3,0.8-1,1.9-1.9,2.9
			c-0.7,0.7-1.5,0.9-2.2,0.9c-0.5,0-1.2-0.7-1.2-1.4c0-0.6,0.3-1.3,1-1.3c0.6,0,0.8,0.4,0.8,0.9c-0.2,0.8-0.8,0.8-0.8,1
			c0.1,0.1,0.2,0.2,0.3,0.2c1.2,0,2-3.2,2.1-3.7c0.3-1.2,0.7-2.3,1.1-4h-1.7v-0.4h1.8c0.3-0.7,0.6-1.3,1-1.8c0.9-1.3,2-1.9,3.4-1.9
			c0.6,0,1.2,0.6,1.2,1.2C2384.4,213.4,2384,214.1,2383.2,214.1z"/>
	</g>
	<line fill="none" stroke="#000000" stroke-width="0.459" x1="2457.4" y1="199.6" x2="2457.4" y2="215.6"/>
	<g enable-background="new    ">
		<path d="M2463.3,198.9c-0.4,1-1.2,1.8-1.8,2.1c-0.6,0.3-1.4,0.4-2.2,0.4c-0.5,0-1.5-0.2-1.8-0.8c-0.4-0.7-0.1-1.4,0-1.8
			c0.4-1,1.1-1.6,1.7-2c0.6-0.3,1.5-0.6,2.5-0.5c0.4,0.1,1.3,0.1,1.7,0.8C2463.7,197.6,2463.4,198.6,2463.3,198.9z M2461,197.4
			c-0.4,0.2-0.7,0.4-1.1,0.6c-0.4,0.2-0.7,0.4-1.1,0.7c-0.6,0.3-1.3,1-0.9,1.6c0.4,0.6,1.3,0.3,1.9,0c0.4-0.2,0.8-0.4,1.2-0.6
			s0.7-0.4,1.1-0.7c0.5-0.3,1.3-1,0.9-1.6C2462.5,196.8,2461.6,197.1,2461,197.4z"/>
	</g>
	<g enable-background="new    ">
		<path d="M2493.5,196.3v2.5h-6.1v-2.5H2493.5z"/>
	</g>
	<line fill="none" stroke="#000000" stroke-width="0.459" x1="2486.8" y1="198.8" x2="2494" y2="198.8"/>
	<line fill="none" stroke="#000000" stroke-width="0.459" x1="2527" y1="199.6" x2="2527" y2="215.6"/>
	<g enable-background="new    ">
		<path d="M2532.9,198.9c-0.4,1-1.2,1.8-1.8,2.1c-0.6,0.3-1.4,0.4-2.2,0.4c-0.5,0-1.5-0.2-1.8-0.8c-0.4-0.7-0.1-1.4,0-1.8
			c0.4-1,1.1-1.6,1.7-2c0.6-0.3,1.5-0.6,2.5-0.5c0.4,0.1,1.3,0.1,1.7,0.8C2533.2,197.6,2533,198.6,2532.9,198.9z M2530.6,197.4
			c-0.4,0.2-0.7,0.4-1.1,0.6c-0.4,0.2-0.7,0.4-1.1,0.7c-0.6,0.3-1.3,1-0.9,1.6c0.4,0.6,1.3,0.3,1.9,0c0.4-0.2,0.8-0.4,1.2-0.6
			s0.7-0.4,1.1-0.7c0.5-0.3,1.3-1,0.9-1.6C2532.1,196.8,2531.2,197.1,2530.6,197.4z"/>
	</g>
	<line fill="none" stroke="#000000" stroke-width="0.459" x1="2559.2" y1="199.6" x2="2559.2" y2="215.6"/>
	<g enable-background="new    ">
		<path d="M2565.1,198.9c-0.4,1-1.2,1.8-1.8,2.1c-0.6,0.3-1.4,0.4-2.2,0.4c-0.5,0-1.5-0.2-1.8-0.8c-0.4-0.7-0.1-1.4,0-1.8
			c0.4-1,1.1-1.6,1.7-2c0.6-0.3,1.5-0.6,2.5-0.5c0.4,0.1,1.3,0.1,1.7,0.8C2565.4,197.6,2565.2,198.6,2565.1,198.9z M2562.8,197.4
			c-0.4,0.2-0.7,0.4-1.1,0.6c-0.4,0.2-0.7,0.4-1.1,0.7c-0.6,0.3-1.3,1-0.9,1.6c0.4,0.6,1.3,0.3,1.9,0c0.4-0.2,0.8-0.4,1.2-0.6
			s0.7-0.4,1.1-0.7c0.5-0.3,1.3-1,0.9-1.6C2564.3,196.8,2563.4,197.1,2562.8,197.4z"/>
	</g>
	<line fill="none" stroke="#000000" stroke-width="0.459" x1="2597.8" y1="199.6" x2="2597.8" y2="215.6"/>
	<g enable-background="new    ">
		<path d="M2603.7,198.9c-0.4,1-1.2,1.8-1.8,2.1c-0.6,0.3-1.4,0.4-2.2,0.4c-0.5,0-1.5-0.2-1.8-0.8c-0.4-0.7-0.1-1.4,0-1.8
			c0.4-1,1.1-1.6,1.7-2c0.6-0.3,1.5-0.6,2.5-0.5c0.4,0.1,1.3,0.1,1.7,0.8C2604,197.6,2603.8,198.6,2603.7,198.9z M2601.4,197.4
			c-0.4,0.2-0.7,0.4-1.1,0.6c-0.4,0.2-0.7,0.4-1.1,0.7c-0.6,0.3-1.3,1-0.9,1.6c0.4,0.6,1.3,0.3,1.9,0c0.4-0.2,0.8-0.4,1.2-0.6
			c0.4-0.2,0.7-0.4,1.1-0.7c0.5-0.3,1.3-1,0.9-1.6C2602.9,196.8,2602,197.1,2601.4,197.4z"/>
	</g>
	<g enable-background="new    ">
		<path d="M2633.5,196.3v2.5h-6.1v-2.5H2633.5z"/>
	</g>
	<line fill="none" stroke="#000000" stroke-width="0.459" x1="2626.8" y1="198.8" x2="2634" y2="198.8"/>
	<line fill="none" stroke="#000000" stroke-width="0.459" x1="2666.2" y1="199.6" x2="2666.2" y2="215.6"/>
	<g enable-background="new    ">
		<path d="M2672.1,198.9c-0.4,1-1.2,1.8-1.8,2.1c-0.6,0.3-1.4,0.4-2.2,0.4c-0.5,0-1.5-0.2-1.8-0.8c-0.4-0.7-0.1-1.4,0-1.8
			c0.4-1,1.1-1.6,1.7-2c0.6-0.3,1.5-0.6,2.5-0.5c0.4,0.1,1.3,0.1,1.7,0.8C2672.4,197.6,2672.2,198.6,2672.1,198.9z M2669.8,197.4
			c-0.4,0.2-0.7,0.4-1.1,0.6c-0.4,0.2-0.7,0.4-1.1,0.7c-0.6,0.3-1.3,1-0.9,1.6c0.4,0.6,1.3,0.3,1.9,0c0.4-0.2,0.8-0.4,1.2-0.6
			s0.7-0.4,1.1-0.7c0.5-0.3,1.3-1,0.9-1.6C2671.3,196.8,2670.4,197.1,2669.8,197.4z"/>
	</g>
	<g enable-background="new    ">
		<path d="M2702.3,196.3v2.5h-6.1v-2.5H2702.3z"/>
	</g>
	<line fill="none" stroke="#000000" stroke-width="0.459" x1="2695.6" y1="198.8" x2="2702.8" y2="198.8"/>
	<line fill="none" stroke="#000000" stroke-width="0.459" x1="2735.8" y1="199.6" x2="2735.8" y2="215.6"/>
	<g enable-background="new    ">
		<path d="M2741.7,198.9c-0.4,1-1.2,1.8-1.8,2.1c-0.6,0.3-1.4,0.4-2.2,0.4c-0.5,0-1.5-0.2-1.8-0.8c-0.4-0.7-0.1-1.4,0-1.8
			c0.4-1,1.1-1.6,1.7-2c0.6-0.3,1.5-0.6,2.5-0.5c0.4,0.1,1.3,0.1,1.7,0.8C2742,197.6,2741.8,198.6,2741.7,198.9z M2739.4,197.4
			c-0.4,0.2-0.7,0.4-1.1,0.6c-0.4,0.2-0.7,0.4-1.1,0.7c-0.6,0.3-1.3,1-0.9,1.6c0.4,0.6,1.3,0.3,1.9,0c0.4-0.2,0.8-0.4,1.2-0.6
			c0.4-0.2,0.7-0.4,1.1-0.7c0.5-0.3,1.3-1,0.9-1.6C2740.9,196.8,2740,197.1,2739.4,197.4z"/>
	</g>
	<g enable-background="new    ">
		<path d="M2771.9,196.3v2.5h-6.1v-2.5H2771.9z"/>
	</g>
	<line fill="none" stroke="#000000" stroke-width="0.459" x1="2765.2" y1="198.8" x2="2772.4" y2="198.8"/>
	<line fill="none" stroke="#000000" stroke-width="0.459" x1="2805.4" y1="199.6" x2="2805.4" y2="215.6"/>
	<g enable-background="new    ">
		<path d="M2811.3,198.9c-0.4,1-1.2,1.8-1.8,2.1c-0.6,0.3-1.4,0.4-2.2,0.4c-0.5,0-1.5-0.2-1.8-0.8c-0.4-0.7-0.1-1.4,0-1.8
			c0.4-1,1.1-1.6,1.7-2c0.6-0.3,1.5-0.6,2.5-0.5c0.4,0.1,1.3,0.1,1.7,0.8C2811.7,197.6,2811.4,198.6,2811.3,198.9z M2809,197.4
			c-0.4,0.2-0.7,0.4-1.1,0.6c-0.4,0.2-0.7,0.4-1.1,0.7c-0.6,0.3-1.3,1-0.9,1.6c0.4,0.6,1.3,0.3,1.9,0c0.4-0.2,0.8-0.4,1.2-0.6
			s0.7-0.4,1.1-0.7c0.5-0.3,1.3-1,0.9-1.6C2810.5,196.8,2809.6,197.1,2809,197.4z"/>
	</g>
	<line fill="none" stroke="#000000" stroke-width="0.459" x1="2835.6" y1="199.6" x2="2835.6" y2="215.6"/>
	<g enable-background="new    ">
		<path d="M2841.5,198.9c-0.4,1-1.2,1.8-1.8,2.1c-0.6,0.3-1.4,0.4-2.2,0.4c-0.5,0-1.5-0.2-1.8-0.8c-0.4-0.7-0.1-1.4,0-1.8
			c0.4-1,1.1-1.6,1.7-2c0.6-0.3,1.5-0.6,2.5-0.5c0.4,0.1,1.3,0.1,1.7,0.8C2841.8,197.6,2841.6,198.6,2841.5,198.9z M2839.2,197.4
			c-0.4,0.2-0.7,0.4-1.1,0.6c-0.4,0.2-0.7,0.4-1.1,0.7c-0.6,0.3-1.3,1-0.9,1.6c0.4,0.6,1.3,0.3,1.9,0c0.4-0.2,0.8-0.4,1.2-0.6
			c0.4-0.2,0.7-0.4,1.1-0.7c0.5-0.3,1.3-1,0.9-1.6C2840.7,196.8,2839.8,197.1,2839.2,197.4z"/>
	</g>
	<line fill="none" stroke="#000000" stroke-width="0.459" x1="2875" y1="199.6" x2="2875" y2="215.6"/>
	<g enable-background="new    ">
		<path d="M2880.9,198.9c-0.4,1-1.2,1.8-1.8,2.1c-0.6,0.3-1.4,0.4-2.2,0.4c-0.5,0-1.5-0.2-1.8-0.8c-0.4-0.7-0.1-1.4,0-1.8
			c0.4-1,1.1-1.6,1.7-2c0.6-0.3,1.5-0.6,2.5-0.5c0.4,0.1,1.3,0.1,1.7,0.8C2881.2,197.6,2881,198.6,2880.9,198.9z M2878.6,197.4
			c-0.4,0.2-0.7,0.4-1.1,0.6c-0.4,0.2-0.7,0.4-1.1,0.7c-0.6,0.3-1.3,1-0.9,1.6c0.4,0.6,1.3,0.3,1.9,0c0.4-0.2,0.8-0.4,1.2-0.6
			s0.7-0.4,1.1-0.7c0.5-0.3,1.3-1,0.9-1.6C2880.1,196.8,2879.2,197.1,2878.6,197.4z"/>
	</g>
	<g enable-background="new    ">
		<path d="M2909.7,196.3v2.5h-6.1v-2.5H2909.7z"/>
	</g>
	<line fill="none" stroke="#000000" stroke-width="0.459" x1="2903" y1="198.8" x2="2910.2" y2="198.8"/>
	<line fill="none" stroke="#000000" stroke-width="0.459" x1="2945.8" y1="199.6" x2="2945.8" y2="215.6"/>
	<g enable-background="new    ">
		<path d="M2951.7,198.9c-0.4,1-1.2,1.8-1.8,2.1c-0.6,0.3-1.4,0.4-2.2,0.4c-0.5,0-1.5-0.2-1.8-0.8c-0.4-0.7-0.1-1.4,0-1.8
			c0.4-1,1.1-1.6,1.7-2c0.6-0.3,1.5-0.6,2.5-0.5c0.4,0.1,1.3,0.1,1.7,0.8C2952,197.6,2951.8,198.6,2951.7,198.9z M2949.4,197.4
			c-0.4,0.2-0.7,0.4-1.1,0.6c-0.4,0.2-0.7,0.4-1.1,0.7c-0.6,0.3-1.3,1-0.9,1.6c0.4,0.6,1.3,0.3,1.9,0c0.4-0.2,0.8-0.4,1.2-0.6
			c0.4-0.2,0.7-0.4,1.1-0.7c0.5-0.3,1.3-1,0.9-1.6C2950.9,196.8,2950,197.1,2949.4,197.4z"/>
	</g>
	<line fill="none" stroke="#000000" stroke-width="0.459" x1="2977.4" y1="199.6" x2="2977.4" y2="215.6"/>
	<g enable-background="new    ">
		<path d="M2983.3,198.9c-0.4,1-1.2,1.8-1.8,2.1c-0.6,0.3-1.4,0.4-2.2,0.4c-0.5,0-1.5-0.2-1.8-0.8c-0.4-0.7-0.1-1.4,0-1.8
			c0.4-1,1.1-1.6,1.7-2c0.6-0.3,1.5-0.6,2.5-0.5c0.4,0.1,1.3,0.1,1.7,0.8C2983.7,197.6,2983.4,198.6,2983.3,198.9z M2981,197.4
			c-0.4,0.2-0.7,0.4-1.1,0.6c-0.4,0.2-0.7,0.4-1.1,0.7c-0.6,0.3-1.3,1-0.9,1.6c0.4,0.6,1.3,0.3,1.9,0c0.4-0.2,0.8-0.4,1.2-0.6
			s0.7-0.4,1.1-0.7c0.5-0.3,1.3-1,0.9-1.6C2982.5,196.8,2981.6,197.1,2981,197.4z"/>
	</g>
	<line fill="none" stroke="#000000" stroke-width="0.459" x1="3015.4" y1="199.6" x2="3015.4" y2="215.6"/>
	<g enable-background="new    ">
		<path d="M3021.3,198.9c-0.4,1-1.2,1.8-1.8,2.1c-0.6,0.3-1.4,0.4-2.2,0.4c-0.5,0-1.5-0.2-1.8-0.8c-0.4-0.7-0.1-1.4,0-1.8
			c0.4-1,1.1-1.6,1.7-2c0.6-0.3,1.5-0.6,2.5-0.5c0.4,0.1,1.3,0.1,1.7,0.8C3021.7,197.6,3021.4,198.6,3021.3,198.9z M3019,197.4
			c-0.4,0.2-0.7,0.4-1.1,0.6c-0.4,0.2-0.7,0.4-1.1,0.7c-0.6,0.3-1.3,1-0.9,1.6c0.4,0.6,1.3,0.3,1.9,0c0.4-0.2,0.8-0.4,1.2-0.6
			s0.7-0.4,1.1-0.7c0.5-0.3,1.3-1,0.9-1.6C3020.5,196.8,3019.6,197.1,3019,197.4z"/>
	</g>
	<g enable-background="new    ">
		<path d="M3052.9,196.3v2.5h-6.1v-2.5H3052.9z"/>
	</g>
	<line fill="none" stroke="#000000" stroke-width="0.459" x1="3046.2" y1="198.8" x2="3053.4" y2="198.8"/>
	<line fill="none" stroke="#000000" stroke-width="0.459" x1="3085" y1="199.6" x2="3085" y2="215.6"/>
	<g enable-background="new    ">
		<path d="M3090.9,198.9c-0.4,1-1.2,1.8-1.8,2.1c-0.6,0.3-1.4,0.4-2.2,0.4c-0.5,0-1.5-0.2-1.8-0.8c-0.4-0.7-0.1-1.4,0-1.8
			c0.4-1,1.1-1.6,1.7-2c0.6-0.3,1.5-0.6,2.5-0.5c0.4,0.1,1.3,0.1,1.7,0.8C3091.2,197.6,3091,198.6,3090.9,198.9z M3088.6,197.4
			c-0.4,0.2-0.7,0.4-1.1,0.6c-0.4,0.2-0.7,0.4-1.1,0.7c-0.6,0.3-1.3,1-0.9,1.6c0.4,0.6,1.3,0.3,1.9,0c0.4-0.2,0.8-0.4,1.2-0.6
			s0.7-0.4,1.1-0.7c0.5-0.3,1.3-1,0.9-1.6C3090.1,196.8,3089.2,197.1,3088.6,197.4z"/>
	</g>
	<line fill="none" stroke="#000000" stroke-width="0.459" x1="3116.6" y1="199.6" x2="3116.6" y2="215.6"/>
	<g enable-background="new    ">
		<path d="M3122.5,198.9c-0.4,1-1.2,1.8-1.8,2.1c-0.6,0.3-1.4,0.4-2.2,0.4c-0.5,0-1.5-0.2-1.8-0.8c-0.4-0.7-0.1-1.4,0-1.8
			c0.4-1,1.1-1.6,1.7-2c0.6-0.3,1.5-0.6,2.5-0.5c0.4,0.1,1.3,0.1,1.7,0.8C3122.8,197.6,3122.6,198.6,3122.5,198.9z M3120.2,197.4
			c-0.4,0.2-0.7,0.4-1.1,0.6c-0.4,0.2-0.7,0.4-1.1,0.7c-0.6,0.3-1.3,1-0.9,1.6c0.4,0.6,1.3,0.3,1.9,0c0.4-0.2,0.8-0.4,1.2-0.6
			c0.4-0.2,0.7-0.4,1.1-0.7c0.5-0.3,1.3-1,0.9-1.6C3121.7,196.8,3120.8,197.1,3120.2,197.4z"/>
	</g>
	<line fill="none" stroke="#000000" stroke-width="0.459" x1="3154.6" y1="199.6" x2="3154.6" y2="215.6"/>
	<g enable-background="new    ">
		<path d="M3160.5,198.9c-0.4,1-1.2,1.8-1.8,2.1c-0.6,0.3-1.4,0.4-2.2,0.4c-0.5,0-1.5-0.2-1.8-0.8c-0.4-0.7-0.1-1.4,0-1.8
			c0.4-1,1.1-1.6,1.7-2c0.6-0.3,1.5-0.6,2.5-0.5c0.4,0.1,1.3,0.1,1.7,0.8C3160.8,197.6,3160.6,198.6,3160.5,198.9z M3158.2,197.4
			c-0.4,0.2-0.7,0.4-1.1,0.6c-0.4,0.2-0.7,0.4-1.1,0.7c-0.6,0.3-1.3,1-0.9,1.6c0.4,0.6,1.3,0.3,1.9,0c0.4-0.2,0.8-0.4,1.2-0.6
			c0.4-0.2,0.7-0.4,1.1-0.7c0.5-0.3,1.3-1,0.9-1.6C3159.7,196.8,3158.8,197.1,3158.2,197.4z"/>
	</g>
	<g enable-background="new    ">
		<path d="M3191.9,196.3v2.5h-6.1v-2.5H3191.9z"/>
	</g>
	<line fill="none" stroke="#000000" stroke-width="0.459" x1="3185.2" y1="198.8" x2="3192.4" y2="198.8"/>
	<g enable-background="new    ">
		<path d="M3203.1,209c0.3,0,0.5,0,0.7,0.1c0.5,0.3,0.6,0.4,0.8,1c0.2-0.3,0.3-0.4,0.6-0.6c0.4-0.2,0.9-0.5,1.5-0.5
			c0.9,0,1.2,0.6,1.4,1.7c0,0.1-0.1,1.2-0.4,1.8c-0.6,1.1-1.7,2.2-2.9,2.2c-0.5,0-0.7-0.2-0.9-0.3c-0.3-0.2-0.3-0.3-0.6-0.5
			l-1.3,3.1l1.3,0.1v0.4h-5v-0.4l1.7-0.1c0,0,2.6-6.2,2.8-6.7c0.1-0.2-0.1-0.6-0.4-0.6c-0.3,0-0.8,0.5-1.2,0.9
			c-0.3,0.5-0.5,0.9-0.7,1.2c0,0-0.2,0-0.2,0C3201.3,209.7,3202.1,208.9,3203.1,209z M3206.1,209.7c-0.7,0-1.5,0.8-1.7,1.5
			c-0.1,0.2-0.2,0.6-0.3,0.9c-0.1,0.3-0.2,0.7-0.2,0.9c0,0.1,0.2,0.9,0.7,0.9c0.9,0,2-3.3,2-3.7
			C3206.5,209.8,3206.4,209.7,3206.1,209.7z"/>
	</g>
	<g enable-background="new    ">
		<path d="M3255.5,198.8v2.8h-6.1v-2.8H3255.5z"/>
	</g>
	<line fill="none" stroke="#000000" stroke-width="0.459" x1="3248.8" y1="198.8" x2="3256" y2="198.8"/>
	<g enable-background="new    ">
		<path d="M3325.1,198.8v2.8h-6.1v-2.8H3325.1z"/>
	</g>
	<line fill="none" stroke="#000000" stroke-width="0.459" x1="3318.4" y1="198.8" x2="3325.6" y2="198.8"/>
	<g enable-background="new    ">
		<path d="M3394.7,198.8v2.8h-6.1v-2.8H3394.7z"/>
	</g>
	<line fill="none" stroke="#000000" stroke-width="0.459" x1="3388" y1="198.8" x2="3395.2" y2="198.8"/>
	<g enable-background="new    ">
		<path d="M3464.3,198.8v2.8h-6.1v-2.8H3464.3z"/>
	</g>
	<line fill="none" stroke="#000000" stroke-width="0.459" x1="3457.6" y1="198.8" x2="3464.8" y2="198.8"/>
	<g enable-background="new    ">
		<path d="M3494.6,214.1c-0.5,0-0.6-0.4-0.6-0.7c0-0.5,0.6-0.7,1-1.1c0-0.2-0.2-0.2-0.4-0.2c-1,0-1.4,0.8-1.7,1.6
			c-0.1,0.3-0.4,1-0.5,1.7h1.8v0.4c0,0-1.9,0-1.9,0c-0.2,0.6-0.5,1.7-0.6,1.9c-0.3,1-0.5,1.6-0.9,2.6c-0.3,0.8-1,1.9-1.9,2.9
			c-0.7,0.7-1.5,0.9-2.2,0.9c-0.5,0-1.2-0.7-1.2-1.4c0-0.6,0.3-1.3,1-1.3c0.6,0,0.8,0.4,0.8,0.9c-0.2,0.8-0.8,0.8-0.8,1
			c0.1,0.1,0.2,0.2,0.3,0.2c1.2,0,2-3.2,2.1-3.7c0.3-1.2,0.7-2.3,1.1-4h-1.7v-0.4h1.8c0.3-0.7,0.6-1.3,1-1.8c0.9-1.3,2-1.9,3.4-1.9
			c0.6,0,1.2,0.6,1.2,1.2C3495.8,213.4,3495.4,214.1,3494.6,214.1z"/>
	</g>
	<line fill="none" stroke="#000000" stroke-width="0.459" x1="3502.6" y1="199.6" x2="3502.6" y2="215.6"/>
	<g enable-background="new    ">
		<path d="M3508.5,198.9c-0.4,1-1.2,1.8-1.8,2.1c-0.6,0.3-1.4,0.4-2.2,0.4c-0.5,0-1.5-0.2-1.8-0.8c-0.4-0.7-0.1-1.4,0-1.8
			c0.4-1,1.1-1.6,1.7-2c0.6-0.3,1.5-0.6,2.5-0.5c0.4,0.1,1.3,0.1,1.7,0.8C3508.8,197.6,3508.6,198.6,3508.5,198.9z M3506.2,197.4
			c-0.4,0.2-0.7,0.4-1.1,0.6c-0.4,0.2-0.7,0.4-1.1,0.7c-0.6,0.3-1.3,1-0.9,1.6c0.4,0.6,1.3,0.3,1.9,0c0.4-0.2,0.8-0.4,1.2-0.6
			c0.4-0.2,0.7-0.4,1.1-0.7c0.5-0.3,1.3-1,0.9-1.6C3507.7,196.8,3506.8,197.1,3506.2,197.4z"/>
	</g>
	<line fill="none" stroke="#000000" stroke-width="0.459" x1="3534.2" y1="199.6" x2="3534.2" y2="215.6"/>
	<g enable-background="new    ">
		<path d="M3540.1,198.9c-0.4,1-1.2,1.8-1.8,2.1c-0.6,0.3-1.4,0.4-2.2,0.4c-0.5,0-1.5-0.2-1.8-0.8c-0.4-0.7-0.1-1.4,0-1.8
			c0.4-1,1.1-1.6,1.7-2c0.6-0.3,1.5-0.6,2.5-0.5c0.4,0.1,1.3,0.1,1.7,0.8C3540.4,197.6,3540.2,198.6,3540.1,198.9z M3537.8,197.4
			c-0.4,0.2-0.7,0.4-1.1,0.6c-0.4,0.2-0.7,0.4-1.1,0.7c-0.6,0.3-1.3,1-0.9,1.6c0.4,0.6,1.3,0.3,1.9,0c0.4-0.2,0.8-0.4,1.2-0.6
			s0.7-0.4,1.1-0.7c0.5-0.3,1.3-1,0.9-1.6C3539.3,196.8,3538.4,197.1,3537.8,197.4z"/>
	</g>
	<line fill="none" stroke="#000000" stroke-width="0.459" x1="3572.2" y1="199.6" x2="3572.2" y2="215.6"/>
	<g enable-background="new    ">
		<path d="M3578.1,198.9c-0.4,1-1.2,1.8-1.8,2.1c-0.6,0.3-1.4,0.4-2.2,0.4c-0.5,0-1.5-0.2-1.8-0.8c-0.4-0.7-0.1-1.4,0-1.8
			c0.4-1,1.1-1.6,1.7-2c0.6-0.3,1.5-0.6,2.5-0.5c0.4,0.1,1.3,0.1,1.7,0.8C3578.4,197.6,3578.2,198.6,3578.1,198.9z M3575.8,197.4
			c-0.4,0.2-0.7,0.4-1.1,0.6c-0.4,0.2-0.7,0.4-1.1,0.7c-0.6,0.3-1.3,1-0.9,1.6c0.4,0.6,1.3,0.3,1.9,0c0.4-0.2,0.8-0.4,1.2-0.6
			s0.7-0.4,1.1-0.7c0.5-0.3,1.3-1,0.9-1.6C3577.3,196.8,3576.4,197.1,3575.8,197.4z"/>
	</g>
	<g enable-background="new    ">
		<path d="M3609.5,196.3v2.5h-6.1v-2.5H3609.5z"/>
	</g>
	<line fill="none" stroke="#000000" stroke-width="0.459" x1="3602.8" y1="198.8" x2="3610" y2="198.8"/>
	<line fill="none" stroke="#000000" stroke-width="0.459" x1="3640.6" y1="199.6" x2="3640.6" y2="215.6"/>
	<g enable-background="new    ">
		<path d="M3646.5,198.9c-0.4,1-1.2,1.8-1.8,2.1c-0.6,0.3-1.4,0.4-2.2,0.4c-0.5,0-1.5-0.2-1.8-0.8c-0.4-0.7-0.1-1.4,0-1.8
			c0.4-1,1.1-1.6,1.7-2c0.6-0.3,1.5-0.6,2.5-0.5c0.4,0.1,1.3,0.1,1.7,0.8C3646.8,197.6,3646.6,198.6,3646.5,198.9z M3644.2,197.4
			c-0.4,0.2-0.7,0.4-1.1,0.6c-0.4,0.2-0.7,0.4-1.1,0.7c-0.6,0.3-1.3,1-0.9,1.6c0.4,0.6,1.3,0.3,1.9,0c0.4-0.2,0.8-0.4,1.2-0.6
			c0.4-0.2,0.7-0.4,1.1-0.7c0.5-0.3,1.3-1,0.9-1.6C3645.7,196.8,3644.8,197.1,3644.2,197.4z"/>
	</g>
	<line fill="none" stroke="#000000" stroke-width="0.459" x1="3672.8" y1="199.6" x2="3672.8" y2="215.6"/>
	<g enable-background="new    ">
		<path d="M3678.7,198.9c-0.4,1-1.2,1.8-1.8,2.1c-0.6,0.3-1.4,0.4-2.2,0.4c-0.5,0-1.5-0.2-1.8-0.8c-0.4-0.7-0.1-1.4,0-1.8
			c0.4-1,1.1-1.6,1.7-2c0.6-0.3,1.5-0.6,2.5-0.5c0.4,0.1,1.3,0.1,1.7,0.8C3679,197.6,3678.8,198.6,3678.7,198.9z M3676.4,197.4
			c-0.4,0.2-0.7,0.4-1.1,0.6c-0.4,0.2-0.7,0.4-1.1,0.7c-0.6,0.3-1.3,1-0.9,1.6c0.4,0.6,1.3,0.3,1.9,0c0.4-0.2,0.8-0.4,1.2-0.6
			c0.4-0.2,0.7-0.4,1.1-0.7c0.5-0.3,1.3-1,0.9-1.6C3677.9,196.8,3677,197.1,3676.4,197.4z"/>
	</g>
	<line fill="none" stroke="#000000" stroke-width="0.459" x1="3711.4" y1="199.6" x2="3711.4" y2="215.6"/>
	<g enable-background="new    ">
		<path d="M3717.3,198.9c-0.4,1-1.2,1.8-1.8,2.1c-0.6,0.3-1.4,0.4-2.2,0.4c-0.5,0-1.5-0.2-1.8-0.8c-0.4-0.7-0.1-1.4,0-1.8
			c0.4-1,1.1-1.6,1.7-2c0.6-0.3,1.5-0.6,2.5-0.5c0.4,0.1,1.3,0.1,1.7,0.8C3717.7,197.6,3717.4,198.6,3717.3,198.9z M3715,197.4
			c-0.4,0.2-0.7,0.4-1.1,0.6c-0.4,0.2-0.7,0.4-1.1,0.7c-0.6,0.3-1.3,1-0.9,1.6c0.4,0.6,1.3,0.3,1.9,0c0.4-0.2,0.8-0.4,1.2-0.6
			s0.7-0.4,1.1-0.7c0.5-0.3,1.3-1,0.9-1.6C3716.5,196.8,3715.6,197.1,3715,197.4z"/>
	</g>
	<g enable-background="new    ">
		<path d="M3747.3,196.3v2.5h-6.1v-2.5H3747.3z"/>
	</g>
	<line fill="none" stroke="#000000" stroke-width="0.459" x1="3740.6" y1="198.8" x2="3747.8" y2="198.8"/>
</g>
</svg>
