<?xml version="1.0" encoding="utf-8"?>
<!-- Generator: Adobe Illustrator 16.0.0, SVG Export Plug-In . SVG Version: 6.00 Build 0)  -->
<!DOCTYPE svg PUBLIC "-//W3C//DTD SVG 1.1//EN" "http://www.w3.org/Graphics/SVG/1.1/DTD/svg11.dtd">
<svg version="1.1" id="Layer_1" xmlns="http://www.w3.org/2000/svg" xmlns:xlink="http://www.w3.org/1999/xlink" x="0px" y="0px"
	 width="2880px" height="49.3px" viewBox="928 176.3 2880 49.3" enable-background="new 928 176.3 2880 49.3" xml:space="preserve">
<g id="Music">
	<rect x="928" y="59.6" fill="#FFFFFF" width="2880" height="425.2"/>
	<line fill="none" stroke="#000000" stroke-width="0.459" x1="956.4" y1="75.6" x2="956.4" y2="440.4"/>
	<g enable-background="new    ">
		<path d="M966.2,209.8c-4-1.9-4.6-4.3-4.8-6.8c-0.2-2.7,1.5-5.4,3.1-6.9c0.9-0.9,1.9-1.7,3.1-2.6c0-0.7-0.2-0.9-0.3-1.9
			c0-0.4-0.3-2.3,0.1-4.5c0.2-1.3,1.9-4.3,3-4.3c0.9,0,2.2,3.4,2.2,5.2c0.1,2.7-0.6,3.9-1.4,5.3c-0.4,0.7-0.8,1.2-1.3,1.7
			c-0.5,0.6-1,0.9-1.5,1.3c0,0,0.6,3.5,0.6,3.7c1.2-0.2,2.7,0.3,3.3,0.7c1.4,1,1.9,2.4,2,3.8c0.2,2.2-1,4.5-3.6,5.5
			c0,0,0.4,2.8,0.5,3.3c0.2,1.5,0.2,2.5-0.2,3.1c-0.6,1-1.5,2-3.2,2.1c-1.3,0.1-4-0.6-4.1-2.7c-0.1-1.2,0.5-2.6,2-2.7
			c0.9-0.1,2,0.7,2.1,1.8c0.1,0.9-0.5,1.9-2.1,2.4c0.2,0.3,1,0.7,2.1,0.7c1.1,0,2.3-0.7,2.8-1.7c0.3-0.7,0.3-1.8,0.2-2.9
			c-0.1-0.4-0.5-3.3-0.5-3.3C968.9,210.3,967,210.2,966.2,209.8z M966.5,205.2c0,0.9,0.8,2,1.5,2.4c-0.1,0.1-0.2,0.2-0.2,0.2
			c-0.8-0.4-1.5-1-1.6-1.2c-0.6-0.7-0.8-1.2-0.9-2.3c-0.1-1.1,0.5-2.5,1.8-3.5c0.7-0.5,1-0.6,1.6-0.7l-0.6-3.5
			c-0.6,0.3-3.1,2.3-4.1,3.9c-0.9,1.4-1.5,2.6-1.4,4c0.2,3.2,3.7,5.8,7.5,4.9c0,0-1.1-6.8-1.1-6.8
			C967,202.7,966.5,204.3,966.5,205.2z M968.1,193.1c1.7-1.3,3.9-3.8,3.8-5.7c0-0.6-0.3-1.7-1.2-1.7
			C968.8,185.8,967.7,189.9,968.1,193.1z M970.7,209.3c2.2-0.7,2.3-2.6,2.2-3.8c-0.1-0.9-0.5-3.1-3.3-2.9L970.7,209.3z"/>
	</g>
	<g enable-background="new    ">
		<path d="M986.6,207.3v1.3c0,0.8,0.9,0.7,0.9,0.7v0.5h-4.2v-0.5c0,0,0.9,0,0.9-0.7v-1.3h-3.6l-0.3-0.4c2.3-3.1,2.3-3.7,2.9-6.5h3.3
			c-0.8,1.5-3.4,4.2-5.3,6.4h3v-2.4l2.3-2.6v4.9h1.4v0.5H986.6z"/>
	</g>
	<g enable-background="new    ">
		<path d="M986.6,197.7v1.3c0,0.8,0.9,0.7,0.9,0.7v0.5h-4.2v-0.5c0,0,0.9,0,0.9-0.7v-1.3h-3.6l-0.3-0.4c2.3-3.1,2.3-3.7,2.9-6.5h3.3
			c-0.8,1.5-3.4,4.2-5.3,6.4h3v-2.4l2.3-2.6v4.9h1.4v0.5H986.6z"/>
	</g>
	<line fill="none" stroke="#000000" stroke-width="0.459" x1="1060" y1="190.8" x2="1060" y2="210"/>
	<line fill="none" stroke="#000000" stroke-width="0.459" x1="1129.6" y1="190.8" x2="1129.6" y2="210"/>
	<line fill="none" stroke="#000000" stroke-width="0.459" x1="1199.2" y1="190.8" x2="1199.2" y2="210"/>
	<line fill="none" stroke="#000000" stroke-width="0.459" x1="1268.8" y1="190.8" x2="1268.8" y2="210"/>
	<line fill="none" stroke="#000000" stroke-width="0.459" x1="1338.4" y1="190.8" x2="1338.4" y2="210"/>
	<line fill="none" stroke="#000000" stroke-width="0.459" x1="1408" y1="190.8" x2="1408" y2="210"/>
	<line fill="none" stroke="#000000" stroke-width="0.459" x1="1477.6" y1="190.8" x2="1477.6" y2="210"/>
	<line fill="none" stroke="#000000" stroke-width="0.459" x1="1547.2" y1="190.8" x2="1547.2" y2="210"/>
	<line fill="none" stroke="#000000" stroke-width="0.459" x1="1616.8" y1="190.8" x2="1616.8" y2="210"/>
	<line fill="none" stroke="#000000" stroke-width="0.459" x1="1686.4" y1="190.8" x2="1686.4" y2="210"/>
	<line fill="none" stroke="#000000" stroke-width="0.459" x1="1756" y1="190.8" x2="1756" y2="210"/>
	<line fill="none" stroke="#000000" stroke-width="0.459" x1="1825.6" y1="190.8" x2="1825.6" y2="210"/>
	<line fill="none" stroke="#000000" stroke-width="0.459" x1="1895.2" y1="190.8" x2="1895.2" y2="210"/>
	<line fill="none" stroke="#000000" stroke-width="0.459" x1="1964.8" y1="190.8" x2="1964.8" y2="210"/>
	<line fill="none" stroke="#000000" stroke-width="0.459" x1="2034.4" y1="190.8" x2="2034.4" y2="210"/>
	<line fill="none" stroke="#000000" stroke-width="0.459" x1="2104" y1="190.8" x2="2104" y2="210"/>
	<line fill="none" stroke="#000000" stroke-width="0.459" x1="2173.6" y1="190.8" x2="2173.6" y2="210"/>
	<line fill="none" stroke="#000000" stroke-width="0.459" x1="2243.2" y1="190.8" x2="2243.2" y2="210"/>
	<line fill="none" stroke="#000000" stroke-width="0.459" x1="2312.8" y1="190.8" x2="2312.8" y2="210"/>
	<line fill="none" stroke="#000000" stroke-width="0.459" x1="2382.4" y1="190.8" x2="2382.4" y2="210"/>
	<line fill="none" stroke="#000000" stroke-width="0.459" x1="2452" y1="190.8" x2="2452" y2="210"/>
	<line fill="none" stroke="#000000" stroke-width="0.459" x1="2521.6" y1="190.8" x2="2521.6" y2="210"/>
	<line fill="none" stroke="#000000" stroke-width="0.459" x1="2591.2" y1="190.8" x2="2591.2" y2="210"/>
	<line fill="none" stroke="#000000" stroke-width="0.459" x1="2660.8" y1="190.8" x2="2660.8" y2="210"/>
	<line fill="none" stroke="#000000" stroke-width="0.459" x1="2730.4" y1="190.8" x2="2730.4" y2="210"/>
	<line fill="none" stroke="#000000" stroke-width="0.459" x1="2800" y1="190.8" x2="2800" y2="210"/>
	<line fill="none" stroke="#000000" stroke-width="0.459" x1="2869.6" y1="190.8" x2="2869.6" y2="210"/>
	<line fill="none" stroke="#000000" stroke-width="0.459" x1="2939.2" y1="190.8" x2="2939.2" y2="210"/>
	<line fill="none" stroke="#000000" stroke-width="0.459" x1="3008.8" y1="190.8" x2="3008.8" y2="210"/>
	<line fill="none" stroke="#000000" stroke-width="0.459" x1="3078.4" y1="190.8" x2="3078.4" y2="210"/>
	<line fill="none" stroke="#000000" stroke-width="0.459" x1="3148" y1="190.8" x2="3148" y2="210"/>
	<line fill="none" stroke="#000000" stroke-width="0.459" x1="3217.6" y1="190.8" x2="3217.6" y2="210"/>
	<line fill="none" stroke="#000000" stroke-width="0.459" x1="3287.2" y1="190.8" x2="3287.2" y2="210"/>
	<line fill="none" stroke="#000000" stroke-width="0.459" x1="3356.8" y1="190.8" x2="3356.8" y2="210"/>
	<line fill="none" stroke="#000000" stroke-width="0.459" x1="3426.4" y1="190.8" x2="3426.4" y2="210"/>
	<line fill="none" stroke="#000000" stroke-width="0.459" x1="3496" y1="190.8" x2="3496" y2="210"/>
	<line fill="none" stroke="#000000" stroke-width="0.459" x1="3565.6" y1="190.8" x2="3565.6" y2="210"/>
	<line fill="none" stroke="#000000" stroke-width="0.459" x1="3635.2" y1="190.8" x2="3635.2" y2="210"/>
	<line fill="none" stroke="#000000" stroke-width="0.459" x1="3704.8" y1="190.8" x2="3704.8" y2="210"/>
	<line fill="none" stroke="#000000" stroke-width="2.419" x1="3778.6" y1="190.8" x2="3778.6" y2="210"/>
	<line fill="none" stroke="#000000" stroke-width="0.459" x1="3774.7" y1="190.8" x2="3774.7" y2="210"/>
	<line fill="none" stroke="#000000" stroke-width="0.459" x1="956.2" y1="190.8" x2="3779.8" y2="190.8"/>
	<line fill="none" stroke="#000000" stroke-width="0.459" x1="956.2" y1="195.6" x2="3779.8" y2="195.6"/>
	<line fill="none" stroke="#000000" stroke-width="0.459" x1="956.2" y1="200.4" x2="3779.8" y2="200.4"/>
	<line fill="none" stroke="#000000" stroke-width="0.459" x1="956.2" y1="205.2" x2="3779.8" y2="205.2"/>
	<line fill="none" stroke="#000000" stroke-width="0.459" x1="956.2" y1="210" x2="3779.8" y2="210"/>
	<line fill="none" stroke="#000000" stroke-width="0.459" x1="1002.6" y1="214" x2="1002.6" y2="198"/>
	<line fill="none" stroke="#000000" stroke-width="0.459" x1="995.6" y1="214.8" x2="1004" y2="214.8"/>
	<g enable-background="new    ">
		<path d="M1002.9,215c-0.4,1-1.2,1.8-1.8,2.1c-0.6,0.3-1.4,0.4-2.2,0.4c-0.5,0-1.5-0.2-1.8-0.8c-0.4-0.7-0.1-1.4,0-1.8
			c0.4-1,1.1-1.6,1.7-2c0.6-0.3,1.5-0.6,2.5-0.5c0.4,0.1,1.3,0.1,1.7,0.8C1003.2,213.7,1003,214.6,1002.9,215z M1000.6,213.4
			c-0.4,0.2-0.7,0.4-1.1,0.6c-0.4,0.2-0.7,0.4-1.1,0.7c-0.6,0.3-1.3,1-0.9,1.6c0.4,0.6,1.3,0.3,1.9,0c0.4-0.2,0.8-0.4,1.2-0.6
			s0.7-0.4,1.1-0.7c0.5-0.3,1.3-1,0.9-1.6C1002.1,212.8,1001.2,213.1,1000.6,213.4z"/>
	</g>
	<line fill="none" stroke="#000000" stroke-width="0.459" x1="1028.2" y1="211.6" x2="1028.2" y2="195.6"/>
	<g enable-background="new    ">
		<path d="M1028.5,212.6c-0.4,1-1.2,1.8-1.8,2.1c-0.6,0.3-1.4,0.4-2.2,0.4c-0.5,0-1.5-0.2-1.8-0.8c-0.4-0.7-0.1-1.4,0-1.8
			c0.4-1,1.1-1.6,1.7-2c0.6-0.3,1.5-0.6,2.5-0.5c0.4,0.1,1.3,0.1,1.7,0.8C1028.8,211.3,1028.6,212.2,1028.5,212.6z M1026.2,211
			c-0.4,0.2-0.7,0.4-1.1,0.6c-0.4,0.2-0.7,0.4-1.1,0.7c-0.6,0.3-1.3,1-0.9,1.6c0.4,0.6,1.3,0.3,1.9,0c0.4-0.2,0.8-0.4,1.2-0.6
			s0.7-0.4,1.1-0.7c0.5-0.3,1.3-1,0.9-1.6C1027.7,210.4,1026.8,210.7,1026.2,211z"/>
	</g>
	<g enable-background="new    ">
		<path d="M1074.4,206.7c0.6,0,1,0.4,1,1c0,0.5-0.4,1-1,1s-1-0.4-1-1C1073.4,207.1,1073.8,206.7,1074.4,206.7z"/>
	</g>
	<line fill="none" stroke="#000000" stroke-width="0.459" x1="1071" y1="209.2" x2="1071" y2="193.2"/>
	<g enable-background="new    ">
		<path d="M1071.3,210.2c-0.4,1-1.2,1.8-1.8,2.1c-0.6,0.3-1.4,0.4-2.2,0.4c-0.5,0-1.5-0.2-1.8-0.8c-0.4-0.7-0.1-1.4,0-1.8
			c0.4-1,1.1-1.6,1.7-2c0.6-0.3,1.5-0.6,2.5-0.5c0.4,0.1,1.3,0.1,1.7,0.8C1071.6,208.9,1071.4,209.8,1071.3,210.2z M1069,208.6
			c-0.4,0.2-0.7,0.4-1.1,0.6c-0.4,0.2-0.7,0.4-1.1,0.7c-0.6,0.3-1.3,1-0.9,1.6c0.4,0.6,1.3,0.3,1.9,0c0.4-0.2,0.8-0.4,1.2-0.6
			s0.7-0.4,1.1-0.7c0.5-0.3,1.3-1,0.9-1.6C1070.5,208,1069.6,208.3,1069,208.6z"/>
	</g>
	<line fill="none" stroke="#000000" stroke-width="0.459" x1="1116.4" y1="206.8" x2="1116.4" y2="190.8"/>
	<g enable-background="new    ">
		<path d="M1114.6,205.2c1.6,0,2.5,1.1,2,2.5c-0.5,1.4-2.2,2.5-3.8,2.5c-1.6,0-2.5-1.2-2-2.5C1111.3,206.3,1113,205.2,1114.6,205.2z
			"/>
	</g>
	<line fill="none" stroke="#000000" stroke-width="0.459" x1="1140.6" y1="204.4" x2="1140.6" y2="188.4"/>
	<g enable-background="new    ">
		<path d="M1140.9,205.4c-0.4,1-1.2,1.8-1.8,2.1c-0.6,0.3-1.4,0.4-2.2,0.4c-0.5,0-1.5-0.2-1.8-0.8c-0.4-0.7-0.1-1.4,0-1.8
			c0.4-1,1.1-1.6,1.7-2c0.6-0.3,1.5-0.6,2.5-0.5c0.4,0.1,1.3,0.1,1.7,0.8C1141.2,204.1,1141,205,1140.9,205.4z M1138.6,203.8
			c-0.4,0.2-0.7,0.4-1.1,0.6c-0.4,0.2-0.7,0.4-1.1,0.7c-0.6,0.3-1.3,1-0.9,1.6c0.4,0.6,1.3,0.3,1.9,0c0.4-0.2,0.8-0.4,1.2-0.6
			s0.7-0.4,1.1-0.7c0.5-0.3,1.3-1,0.9-1.6C1140.1,203.2,1139.2,203.5,1138.6,203.8z"/>
	</g>
	<line fill="none" stroke="#000000" stroke-width="0.459" x1="1172.8" y1="204.4" x2="1172.8" y2="188.4"/>
	<g enable-background="new    ">
		<path d="M1173.1,205.4c-0.4,1-1.2,1.8-1.8,2.1c-0.6,0.3-1.4,0.4-2.2,0.4c-0.5,0-1.5-0.2-1.8-0.8c-0.4-0.7-0.1-1.4,0-1.8
			c0.4-1,1.1-1.6,1.7-2c0.6-0.3,1.5-0.6,2.5-0.5c0.4,0.1,1.3,0.1,1.7,0.8C1173.4,204.1,1173.2,205,1173.1,205.4z M1170.8,203.8
			c-0.4,0.2-0.7,0.4-1.1,0.6c-0.4,0.2-0.7,0.4-1.1,0.7c-0.6,0.3-1.3,1-0.9,1.6c0.4,0.6,1.3,0.3,1.9,0c0.4-0.2,0.8-0.4,1.2-0.6
			s0.7-0.4,1.1-0.7c0.5-0.3,1.3-1,0.9-1.6C1172.3,203.2,1171.4,203.5,1170.8,203.8z"/>
	</g>
	<g enable-background="new    ">
		<path d="M1214.8,211.5c0.6,0,1,0.4,1,1c0,0.5-0.4,1-1,1s-1-0.4-1-1C1213.8,211.9,1214.2,211.5,1214.8,211.5z"/>
	</g>
	<line fill="none" stroke="#000000" stroke-width="0.459" x1="1211.4" y1="214" x2="1211.4" y2="198"/>
	<line fill="none" stroke="#000000" stroke-width="0.459" x1="1204.4" y1="214.8" x2="1212.8" y2="214.8"/>
	<g enable-background="new    ">
		<path d="M1211.7,215c-0.4,1-1.2,1.8-1.8,2.1c-0.6,0.3-1.4,0.4-2.2,0.4c-0.5,0-1.5-0.2-1.8-0.8c-0.4-0.7-0.1-1.4,0-1.8
			c0.4-1,1.1-1.6,1.7-2c0.6-0.3,1.5-0.6,2.5-0.5c0.4,0.1,1.3,0.1,1.7,0.8C1212,213.7,1211.8,214.6,1211.7,215z M1209.4,213.4
			c-0.4,0.2-0.7,0.4-1.1,0.6c-0.4,0.2-0.7,0.4-1.1,0.7c-0.6,0.3-1.3,1-0.9,1.6c0.4,0.6,1.3,0.3,1.9,0c0.4-0.2,0.8-0.4,1.2-0.6
			s0.7-0.4,1.1-0.7c0.5-0.3,1.3-1,0.9-1.6C1210.9,212.8,1210,213.1,1209.4,213.4z"/>
	</g>
	<line fill="none" stroke="#000000" stroke-width="0.459" x1="1256" y1="209.2" x2="1256" y2="193.2"/>
	<g enable-background="new    ">
		<path d="M1254.2,207.6c1.6,0,2.5,1.1,2,2.5c-0.5,1.4-2.2,2.5-3.8,2.5c-1.6,0-2.5-1.2-2-2.5
			C1250.9,208.7,1252.6,207.6,1254.2,207.6z"/>
	</g>
	<g enable-background="new    ">
		<path d="M1283.2,206.7c0.6,0,1,0.4,1,1c0,0.5-0.4,1-1,1s-1-0.4-1-1C1282.2,207.1,1282.6,206.7,1283.2,206.7z"/>
	</g>
	<line fill="none" stroke="#000000" stroke-width="0.459" x1="1279.8" y1="206.8" x2="1279.8" y2="190.8"/>
	<g enable-background="new    ">
		<path d="M1280.1,207.8c-0.4,1-1.2,1.8-1.8,2.1c-0.6,0.3-1.4,0.4-2.2,0.4c-0.5,0-1.5-0.2-1.8-0.8c-0.4-0.7-0.1-1.4,0-1.8
			c0.4-1,1.1-1.6,1.7-2c0.6-0.3,1.5-0.6,2.5-0.5c0.4,0.1,1.3,0.1,1.7,0.8C1280.4,206.5,1280.2,207.4,1280.1,207.8z M1277.8,206.2
			c-0.4,0.2-0.7,0.4-1.1,0.6c-0.4,0.2-0.7,0.4-1.1,0.7c-0.6,0.3-1.3,1-0.9,1.6c0.4,0.6,1.3,0.3,1.9,0c0.4-0.2,0.8-0.4,1.2-0.6
			s0.7-0.4,1.1-0.7c0.5-0.3,1.3-1,0.9-1.6C1279.3,205.6,1278.4,205.9,1277.8,206.2z"/>
	</g>
	<line fill="none" stroke="#000000" stroke-width="0.459" x1="1325.2" y1="206.8" x2="1325.2" y2="190.8"/>
	<g enable-background="new    ">
		<path d="M1323.4,205.2c1.6,0,2.5,1.1,2,2.5c-0.5,1.4-2.2,2.5-3.8,2.5c-1.6,0-2.5-1.2-2-2.5
			C1320.1,206.3,1321.8,205.2,1323.4,205.2z"/>
	</g>
	<g enable-background="new    ">
		<path d="M1352.8,201.9c0.6,0,1,0.4,1,1c0,0.5-0.4,1-1,1s-1-0.4-1-1C1351.8,202.3,1352.2,201.9,1352.8,201.9z"/>
	</g>
	<line fill="none" stroke="#000000" stroke-width="0.459" x1="1349.4" y1="204.4" x2="1349.4" y2="188.4"/>
	<g enable-background="new    ">
		<path d="M1349.7,205.4c-0.4,1-1.2,1.8-1.8,2.1c-0.6,0.3-1.4,0.4-2.2,0.4c-0.5,0-1.5-0.2-1.8-0.8c-0.4-0.7-0.1-1.4,0-1.8
			c0.4-1,1.1-1.6,1.7-2c0.6-0.3,1.5-0.6,2.5-0.5c0.4,0.1,1.3,0.1,1.7,0.8C1350,204.1,1349.8,205,1349.7,205.4z M1347.4,203.8
			c-0.4,0.2-0.7,0.4-1.1,0.6c-0.4,0.2-0.7,0.4-1.1,0.7c-0.6,0.3-1.3,1-0.9,1.6c0.4,0.6,1.3,0.3,1.9,0c0.4-0.2,0.8-0.4,1.2-0.6
			s0.7-0.4,1.1-0.7c0.5-0.3,1.3-1,0.9-1.6C1348.9,203.2,1348,203.5,1347.4,203.8z"/>
	</g>
	<line fill="none" stroke="#000000" stroke-width="0.459" x1="1394.8" y1="204.4" x2="1394.8" y2="188.4"/>
	<g enable-background="new    ">
		<path d="M1393,202.8c1.6,0,2.5,1.1,2,2.5c-0.5,1.4-2.2,2.5-3.8,2.5c-1.6,0-2.5-1.2-2-2.5C1389.7,203.9,1391.4,202.8,1393,202.8z"
			/>
	</g>
	<g enable-background="new    ">
		<path d="M1422.4,201.9c0.6,0,1,0.4,1,1c0,0.5-0.4,1-1,1s-1-0.4-1-1C1421.4,202.3,1421.8,201.9,1422.4,201.9z"/>
	</g>
	<line fill="none" stroke="#000000" stroke-width="0.459" x1="1419" y1="202" x2="1419" y2="186"/>
	<g enable-background="new    ">
		<path d="M1419.3,203c-0.4,1-1.2,1.8-1.8,2.1c-0.6,0.3-1.4,0.4-2.2,0.4c-0.5,0-1.5-0.2-1.8-0.8c-0.4-0.7-0.1-1.4,0-1.8
			c0.4-1,1.1-1.6,1.7-2c0.6-0.3,1.5-0.6,2.5-0.5c0.4,0.1,1.3,0.1,1.7,0.8C1419.6,201.7,1419.4,202.6,1419.3,203z M1417,201.4
			c-0.4,0.2-0.7,0.4-1.1,0.6c-0.4,0.2-0.7,0.4-1.1,0.7c-0.6,0.3-1.3,1-0.9,1.6c0.4,0.6,1.3,0.3,1.9,0c0.4-0.2,0.8-0.4,1.2-0.6
			s0.7-0.4,1.1-0.7c0.5-0.3,1.3-1,0.9-1.6C1418.5,200.8,1417.6,201.1,1417,201.4z"/>
	</g>
	<line fill="none" stroke="#000000" stroke-width="0.459" x1="1458.8" y1="201.2" x2="1458.8" y2="217.2"/>
	<g enable-background="new    ">
		<path d="M1462.6,198c1.6,0,2.5,1.1,2,2.5c-0.5,1.4-2.2,2.5-3.8,2.5c-1.6,0-2.5-1.2-2-2.5C1459.3,199.1,1461,198,1462.6,198z"/>
	</g>
	<line fill="none" stroke="#000000" stroke-width="0.459" x1="1483" y1="198.8" x2="1483" y2="214.8"/>
	<g enable-background="new    ">
		<path d="M1488.9,198.2c-0.4,1-1.2,1.8-1.8,2.1c-0.6,0.3-1.4,0.4-2.2,0.4c-0.5,0-1.5-0.2-1.8-0.8c-0.4-0.7-0.1-1.4,0-1.8
			c0.4-1,1.1-1.6,1.7-2c0.6-0.3,1.5-0.6,2.5-0.5c0.4,0.1,1.3,0.1,1.7,0.8C1489.2,196.9,1489,197.8,1488.9,198.2z M1486.6,196.6
			c-0.4,0.2-0.7,0.4-1.1,0.6c-0.4,0.2-0.7,0.4-1.1,0.7c-0.6,0.3-1.3,1-0.9,1.6c0.4,0.6,1.3,0.3,1.9,0c0.4-0.2,0.8-0.4,1.2-0.6
			s0.7-0.4,1.1-0.7c0.5-0.3,1.3-1,0.9-1.6C1488.1,196,1487.2,196.3,1486.6,196.6z"/>
	</g>
	<g enable-background="new    ">
		<path d="M1517.7,198v2.5h-6.1V198H1517.7z"/>
	</g>
	<line fill="none" stroke="#000000" stroke-width="0.459" x1="1511" y1="200.4" x2="1518.2" y2="200.4"/>
	<line fill="none" stroke="#000000" stroke-width="0.459" x1="1559.4" y1="214" x2="1559.4" y2="198"/>
	<line fill="none" stroke="#000000" stroke-width="0.459" x1="1552.4" y1="214.8" x2="1560.8" y2="214.8"/>
	<g enable-background="new    ">
		<path d="M1559.7,215c-0.4,1-1.2,1.8-1.8,2.1c-0.6,0.3-1.4,0.4-2.2,0.4c-0.5,0-1.5-0.2-1.8-0.8c-0.4-0.7-0.1-1.4,0-1.8
			c0.4-1,1.1-1.6,1.7-2c0.6-0.3,1.5-0.6,2.5-0.5c0.4,0.1,1.3,0.1,1.7,0.8C1560,213.7,1559.8,214.6,1559.7,215z M1557.4,213.4
			c-0.4,0.2-0.7,0.4-1.1,0.6c-0.4,0.2-0.7,0.4-1.1,0.7c-0.6,0.3-1.3,1-0.9,1.6c0.4,0.6,1.3,0.3,1.9,0c0.4-0.2,0.8-0.4,1.2-0.6
			s0.7-0.4,1.1-0.7c0.5-0.3,1.3-1,0.9-1.6C1558.9,212.8,1558,213.1,1557.4,213.4z"/>
	</g>
	<line fill="none" stroke="#000000" stroke-width="0.459" x1="1591" y1="214" x2="1591" y2="198"/>
	<line fill="none" stroke="#000000" stroke-width="0.459" x1="1584" y1="214.8" x2="1592.4" y2="214.8"/>
	<g enable-background="new    ">
		<path d="M1591.3,215c-0.4,1-1.2,1.8-1.8,2.1c-0.6,0.3-1.4,0.4-2.2,0.4c-0.5,0-1.5-0.2-1.8-0.8c-0.4-0.7-0.1-1.4,0-1.8
			c0.4-1,1.1-1.6,1.7-2c0.6-0.3,1.5-0.6,2.5-0.5c0.4,0.1,1.3,0.1,1.7,0.8C1591.6,213.7,1591.4,214.6,1591.3,215z M1589,213.4
			c-0.4,0.2-0.7,0.4-1.1,0.6c-0.4,0.2-0.7,0.4-1.1,0.7c-0.6,0.3-1.3,1-0.9,1.6c0.4,0.6,1.3,0.3,1.9,0c0.4-0.2,0.8-0.4,1.2-0.6
			s0.7-0.4,1.1-0.7c0.5-0.3,1.3-1,0.9-1.6C1590.5,212.8,1589.6,213.1,1589,213.4z"/>
	</g>
	<line fill="none" stroke="#000000" stroke-width="0.459" x1="1629" y1="214" x2="1629" y2="198"/>
	<line fill="none" stroke="#000000" stroke-width="0.459" x1="1622" y1="214.8" x2="1630.4" y2="214.8"/>
	<g enable-background="new    ">
		<path d="M1629.3,215c-0.4,1-1.2,1.8-1.8,2.1c-0.6,0.3-1.4,0.4-2.2,0.4c-0.5,0-1.5-0.2-1.8-0.8c-0.4-0.7-0.1-1.4,0-1.8
			c0.4-1,1.1-1.6,1.7-2c0.6-0.3,1.5-0.6,2.5-0.5c0.4,0.1,1.3,0.1,1.7,0.8C1629.6,213.7,1629.4,214.6,1629.3,215z M1627,213.4
			c-0.4,0.2-0.7,0.4-1.1,0.6c-0.4,0.2-0.7,0.4-1.1,0.7c-0.6,0.3-1.3,1-0.9,1.6c0.4,0.6,1.3,0.3,1.9,0c0.4-0.2,0.8-0.4,1.2-0.6
			s0.7-0.4,1.1-0.7c0.5-0.3,1.3-1,0.9-1.6C1628.5,212.8,1627.6,213.1,1627,213.4z"/>
	</g>
	<g enable-background="new    ">
		<path d="M1660.9,198v2.5h-6.1V198H1660.9z"/>
	</g>
	<line fill="none" stroke="#000000" stroke-width="0.459" x1="1654.2" y1="200.4" x2="1661.4" y2="200.4"/>
	<line fill="none" stroke="#000000" stroke-width="0.459" x1="1698.6" y1="214" x2="1698.6" y2="198"/>
	<line fill="none" stroke="#000000" stroke-width="0.459" x1="1691.6" y1="214.8" x2="1700" y2="214.8"/>
	<g enable-background="new    ">
		<path d="M1698.9,215c-0.4,1-1.2,1.8-1.8,2.1c-0.6,0.3-1.4,0.4-2.2,0.4c-0.5,0-1.5-0.2-1.8-0.8c-0.4-0.7-0.1-1.4,0-1.8
			c0.4-1,1.1-1.6,1.7-2c0.6-0.3,1.5-0.6,2.5-0.5c0.4,0.1,1.3,0.1,1.7,0.8C1699.2,213.7,1699,214.6,1698.9,215z M1696.6,213.4
			c-0.4,0.2-0.7,0.4-1.1,0.6c-0.4,0.2-0.7,0.4-1.1,0.7c-0.6,0.3-1.3,1-0.9,1.6c0.4,0.6,1.3,0.3,1.9,0c0.4-0.2,0.8-0.4,1.2-0.6
			s0.7-0.4,1.1-0.7c0.5-0.3,1.3-1,0.9-1.6C1698.1,212.8,1697.2,213.1,1696.6,213.4z"/>
	</g>
	<line fill="none" stroke="#000000" stroke-width="0.459" x1="1730.2" y1="214" x2="1730.2" y2="198"/>
	<line fill="none" stroke="#000000" stroke-width="0.459" x1="1723.2" y1="214.8" x2="1731.6" y2="214.8"/>
	<g enable-background="new    ">
		<path d="M1730.5,215c-0.4,1-1.2,1.8-1.8,2.1c-0.6,0.3-1.4,0.4-2.2,0.4c-0.5,0-1.5-0.2-1.8-0.8c-0.4-0.7-0.1-1.4,0-1.8
			c0.4-1,1.1-1.6,1.7-2c0.6-0.3,1.5-0.6,2.5-0.5c0.4,0.1,1.3,0.1,1.7,0.8C1730.8,213.7,1730.6,214.6,1730.5,215z M1728.2,213.4
			c-0.4,0.2-0.7,0.4-1.1,0.6c-0.4,0.2-0.7,0.4-1.1,0.7c-0.6,0.3-1.3,1-0.9,1.6c0.4,0.6,1.3,0.3,1.9,0c0.4-0.2,0.8-0.4,1.2-0.6
			s0.7-0.4,1.1-0.7c0.5-0.3,1.3-1,0.9-1.6C1729.7,212.8,1728.8,213.1,1728.2,213.4z"/>
	</g>
	<line fill="none" stroke="#000000" stroke-width="0.459" x1="1768.2" y1="214" x2="1768.2" y2="198"/>
	<line fill="none" stroke="#000000" stroke-width="0.459" x1="1761.2" y1="214.8" x2="1769.6" y2="214.8"/>
	<g enable-background="new    ">
		<path d="M1768.5,215c-0.4,1-1.2,1.8-1.8,2.1c-0.6,0.3-1.4,0.4-2.2,0.4c-0.5,0-1.5-0.2-1.8-0.8c-0.4-0.7-0.1-1.4,0-1.8
			c0.4-1,1.1-1.6,1.7-2c0.6-0.3,1.5-0.6,2.5-0.5c0.4,0.1,1.3,0.1,1.7,0.8C1768.8,213.7,1768.6,214.6,1768.5,215z M1766.2,213.4
			c-0.4,0.2-0.7,0.4-1.1,0.6c-0.4,0.2-0.7,0.4-1.1,0.7c-0.6,0.3-1.3,1-0.9,1.6c0.4,0.6,1.3,0.3,1.9,0c0.4-0.2,0.8-0.4,1.2-0.6
			s0.7-0.4,1.1-0.7c0.5-0.3,1.3-1,0.9-1.6C1767.7,212.8,1766.8,213.1,1766.2,213.4z"/>
	</g>
	<g enable-background="new    ">
		<path d="M1799.9,198v2.5h-6.1V198H1799.9z"/>
	</g>
	<line fill="none" stroke="#000000" stroke-width="0.459" x1="1793.2" y1="200.4" x2="1800.4" y2="200.4"/>
	<line fill="none" stroke="#000000" stroke-width="0.459" x1="1837.6" y1="214" x2="1837.6" y2="198"/>
	<line fill="none" stroke="#000000" stroke-width="0.459" x1="1830.6" y1="214.8" x2="1839" y2="214.8"/>
	<g enable-background="new    ">
		<path d="M1837.9,215c-0.4,1-1.2,1.8-1.8,2.1c-0.6,0.3-1.4,0.4-2.2,0.4c-0.5,0-1.5-0.2-1.8-0.8c-0.4-0.7-0.1-1.4,0-1.8
			c0.4-1,1.1-1.6,1.7-2c0.6-0.3,1.5-0.6,2.5-0.5c0.4,0.1,1.3,0.1,1.7,0.8C1838.2,213.7,1838,214.6,1837.9,215z M1835.6,213.4
			c-0.4,0.2-0.7,0.4-1.1,0.6c-0.4,0.2-0.7,0.4-1.1,0.7c-0.6,0.3-1.3,1-0.9,1.6c0.4,0.6,1.3,0.3,1.9,0c0.4-0.2,0.8-0.4,1.2-0.6
			s0.7-0.4,1.1-0.7c0.5-0.3,1.3-1,0.9-1.6C1837.1,212.8,1836.2,213.1,1835.6,213.4z"/>
	</g>
	<line fill="none" stroke="#000000" stroke-width="0.459" x1="1873.4" y1="214" x2="1873.4" y2="198"/>
	<line fill="none" stroke="#000000" stroke-width="0.459" x1="1866.4" y1="214.8" x2="1874.8" y2="214.8"/>
	<g enable-background="new    ">
		<path d="M1873.7,215c-0.4,1-1.2,1.8-1.8,2.1c-0.6,0.3-1.4,0.4-2.2,0.4c-0.5,0-1.5-0.2-1.8-0.8c-0.4-0.7-0.1-1.4,0-1.8
			c0.4-1,1.1-1.6,1.7-2c0.6-0.3,1.5-0.6,2.5-0.5c0.4,0.1,1.3,0.1,1.7,0.8C1874,213.7,1873.8,214.6,1873.7,215z M1871.4,213.4
			c-0.4,0.2-0.7,0.4-1.1,0.6c-0.4,0.2-0.7,0.4-1.1,0.7c-0.6,0.3-1.3,1-0.9,1.6c0.4,0.6,1.3,0.3,1.9,0c0.4-0.2,0.8-0.4,1.2-0.6
			s0.7-0.4,1.1-0.7c0.5-0.3,1.3-1,0.9-1.6C1872.9,212.8,1872,213.1,1871.4,213.4z"/>
	</g>
	<line fill="none" stroke="#000000" stroke-width="0.459" x1="1907.4" y1="214" x2="1907.4" y2="198"/>
	<line fill="none" stroke="#000000" stroke-width="0.459" x1="1900.4" y1="214.8" x2="1908.8" y2="214.8"/>
	<g enable-background="new    ">
		<path d="M1907.7,215c-0.4,1-1.2,1.8-1.8,2.1c-0.6,0.3-1.4,0.4-2.2,0.4c-0.5,0-1.5-0.2-1.8-0.8c-0.4-0.7-0.1-1.4,0-1.8
			c0.4-1,1.1-1.6,1.7-2c0.6-0.3,1.5-0.6,2.5-0.5c0.4,0.1,1.3,0.1,1.7,0.8C1908,213.7,1907.8,214.6,1907.7,215z M1905.4,213.4
			c-0.4,0.2-0.7,0.4-1.1,0.6c-0.4,0.2-0.7,0.4-1.1,0.7c-0.6,0.3-1.3,1-0.9,1.6c0.4,0.6,1.3,0.3,1.9,0c0.4-0.2,0.8-0.4,1.2-0.6
			s0.7-0.4,1.1-0.7c0.5-0.3,1.3-1,0.9-1.6C1906.9,212.8,1906,213.1,1905.4,213.4z"/>
	</g>
	<g enable-background="new    ">
		<path d="M1936.1,198v2.5h-6.1V198H1936.1z"/>
	</g>
	<line fill="none" stroke="#000000" stroke-width="0.459" x1="1929.4" y1="200.4" x2="1936.6" y2="200.4"/>
	<line fill="none" stroke="#000000" stroke-width="0.459" x1="1975.8" y1="204.4" x2="1975.8" y2="188.4"/>
	<g enable-background="new    ">
		<path d="M1976.1,205.4c-0.4,1-1.2,1.8-1.8,2.1c-0.6,0.3-1.4,0.4-2.2,0.4c-0.5,0-1.5-0.2-1.8-0.8c-0.4-0.7-0.1-1.4,0-1.8
			c0.4-1,1.1-1.6,1.7-2c0.6-0.3,1.5-0.6,2.5-0.5c0.4,0.1,1.3,0.1,1.7,0.8C1976.4,204.1,1976.2,205,1976.1,205.4z M1973.8,203.8
			c-0.4,0.2-0.7,0.4-1.1,0.6c-0.4,0.2-0.7,0.4-1.1,0.7c-0.6,0.3-1.3,1-0.9,1.6c0.4,0.6,1.3,0.3,1.9,0c0.4-0.2,0.8-0.4,1.2-0.6
			s0.7-0.4,1.1-0.7c0.5-0.3,1.3-1,0.9-1.6C1975.3,203.2,1974.4,203.5,1973.8,203.8z"/>
	</g>
	<line fill="none" stroke="#000000" stroke-width="0.459" x1="2012.2" y1="204.4" x2="2012.2" y2="188.4"/>
	<g enable-background="new    ">
		<path d="M2012.5,205.4c-0.4,1-1.2,1.8-1.8,2.1c-0.6,0.3-1.4,0.4-2.2,0.4c-0.5,0-1.5-0.2-1.8-0.8c-0.4-0.7-0.1-1.4,0-1.8
			c0.4-1,1.1-1.6,1.7-2c0.6-0.3,1.5-0.6,2.5-0.5c0.4,0.1,1.3,0.1,1.7,0.8C2012.8,204.1,2012.6,205,2012.5,205.4z M2010.2,203.8
			c-0.4,0.2-0.7,0.4-1.1,0.6c-0.4,0.2-0.7,0.4-1.1,0.7c-0.6,0.3-1.3,1-0.9,1.6c0.4,0.6,1.3,0.3,1.9,0c0.4-0.2,0.8-0.4,1.2-0.6
			s0.7-0.4,1.1-0.7c0.5-0.3,1.3-1,0.9-1.6C2011.7,203.2,2010.8,203.5,2010.2,203.8z"/>
	</g>
	<line fill="none" stroke="#000000" stroke-width="0.459" x1="2045.4" y1="204.4" x2="2045.4" y2="188.4"/>
	<g enable-background="new    ">
		<path d="M2045.7,205.4c-0.4,1-1.2,1.8-1.8,2.1c-0.6,0.3-1.4,0.4-2.2,0.4c-0.5,0-1.5-0.2-1.8-0.8c-0.4-0.7-0.1-1.4,0-1.8
			c0.4-1,1.1-1.6,1.7-2c0.6-0.3,1.5-0.6,2.5-0.5c0.4,0.1,1.3,0.1,1.7,0.8C2046,204.1,2045.8,205,2045.7,205.4z M2043.4,203.8
			c-0.4,0.2-0.7,0.4-1.1,0.6c-0.4,0.2-0.7,0.4-1.1,0.7c-0.6,0.3-1.3,1-0.9,1.6c0.4,0.6,1.3,0.3,1.9,0c0.4-0.2,0.8-0.4,1.2-0.6
			s0.7-0.4,1.1-0.7c0.5-0.3,1.3-1,0.9-1.6C2044.9,203.2,2044,203.5,2043.4,203.8z"/>
	</g>
	<g enable-background="new    ">
		<path d="M2077.5,198v2.5h-6.1V198H2077.5z"/>
	</g>
	<line fill="none" stroke="#000000" stroke-width="0.459" x1="2070.8" y1="200.4" x2="2078" y2="200.4"/>
	<line fill="none" stroke="#000000" stroke-width="0.459" x1="2116.2" y1="214" x2="2116.2" y2="198"/>
	<line fill="none" stroke="#000000" stroke-width="0.459" x1="2109.2" y1="214.8" x2="2117.6" y2="214.8"/>
	<g enable-background="new    ">
		<path d="M2116.5,215c-0.4,1-1.2,1.8-1.8,2.1c-0.6,0.3-1.4,0.4-2.2,0.4c-0.5,0-1.5-0.2-1.8-0.8c-0.4-0.7-0.1-1.4,0-1.8
			c0.4-1,1.1-1.6,1.7-2c0.6-0.3,1.5-0.6,2.5-0.5c0.4,0.1,1.3,0.1,1.7,0.8C2116.8,213.7,2116.6,214.6,2116.5,215z M2114.2,213.4
			c-0.4,0.2-0.7,0.4-1.1,0.6c-0.4,0.2-0.7,0.4-1.1,0.7c-0.6,0.3-1.3,1-0.9,1.6c0.4,0.6,1.3,0.3,1.9,0c0.4-0.2,0.8-0.4,1.2-0.6
			s0.7-0.4,1.1-0.7c0.5-0.3,1.3-1,0.9-1.6C2115.7,212.8,2114.8,213.1,2114.2,213.4z"/>
	</g>
	<line fill="none" stroke="#000000" stroke-width="0.459" x1="2147.8" y1="214" x2="2147.8" y2="198"/>
	<line fill="none" stroke="#000000" stroke-width="0.459" x1="2140.8" y1="214.8" x2="2149.2" y2="214.8"/>
	<g enable-background="new    ">
		<path d="M2148.1,215c-0.4,1-1.2,1.8-1.8,2.1c-0.6,0.3-1.4,0.4-2.2,0.4c-0.5,0-1.5-0.2-1.8-0.8c-0.4-0.7-0.1-1.4,0-1.8
			c0.4-1,1.1-1.6,1.7-2c0.6-0.3,1.5-0.6,2.5-0.5c0.4,0.1,1.3,0.1,1.7,0.8C2148.4,213.7,2148.2,214.6,2148.1,215z M2145.8,213.4
			c-0.4,0.2-0.7,0.4-1.1,0.6c-0.4,0.2-0.7,0.4-1.1,0.7c-0.6,0.3-1.3,1-0.9,1.6c0.4,0.6,1.3,0.3,1.9,0c0.4-0.2,0.8-0.4,1.2-0.6
			s0.7-0.4,1.1-0.7c0.5-0.3,1.3-1,0.9-1.6C2147.3,212.8,2146.4,213.1,2145.8,213.4z"/>
	</g>
	<line fill="none" stroke="#000000" stroke-width="0.459" x1="2185.8" y1="214" x2="2185.8" y2="198"/>
	<line fill="none" stroke="#000000" stroke-width="0.459" x1="2178.8" y1="214.8" x2="2187.2" y2="214.8"/>
	<g enable-background="new    ">
		<path d="M2186.1,215c-0.4,1-1.2,1.8-1.8,2.1c-0.6,0.3-1.4,0.4-2.2,0.4c-0.5,0-1.5-0.2-1.8-0.8c-0.4-0.7-0.1-1.4,0-1.8
			c0.4-1,1.1-1.6,1.7-2c0.6-0.3,1.5-0.6,2.5-0.5c0.4,0.1,1.3,0.1,1.7,0.8C2186.4,213.7,2186.2,214.6,2186.1,215z M2183.8,213.4
			c-0.4,0.2-0.7,0.4-1.1,0.6c-0.4,0.2-0.7,0.4-1.1,0.7c-0.6,0.3-1.3,1-0.9,1.6c0.4,0.6,1.3,0.3,1.9,0c0.4-0.2,0.8-0.4,1.2-0.6
			s0.7-0.4,1.1-0.7c0.5-0.3,1.3-1,0.9-1.6C2185.3,212.8,2184.4,213.1,2183.8,213.4z"/>
	</g>
	<g enable-background="new    ">
		<path d="M2217.5,198v2.5h-6.1V198H2217.5z"/>
	</g>
	<line fill="none" stroke="#000000" stroke-width="0.459" x1="2210.8" y1="200.4" x2="2218" y2="200.4"/>
	<line fill="none" stroke="#000000" stroke-width="0.459" x1="2254.2" y1="204.4" x2="2254.2" y2="188.4"/>
	<g enable-background="new    ">
		<path d="M2254.5,205.4c-0.4,1-1.2,1.8-1.8,2.1c-0.6,0.3-1.4,0.4-2.2,0.4c-0.5,0-1.5-0.2-1.8-0.8c-0.4-0.7-0.1-1.4,0-1.8
			c0.4-1,1.1-1.6,1.7-2c0.6-0.3,1.5-0.6,2.5-0.5c0.4,0.1,1.3,0.1,1.7,0.8C2254.8,204.1,2254.6,205,2254.5,205.4z M2252.2,203.8
			c-0.4,0.2-0.7,0.4-1.1,0.6c-0.4,0.2-0.7,0.4-1.1,0.7c-0.6,0.3-1.3,1-0.9,1.6c0.4,0.6,1.3,0.3,1.9,0c0.4-0.2,0.8-0.4,1.2-0.6
			s0.7-0.4,1.1-0.7c0.5-0.3,1.3-1,0.9-1.6C2253.7,203.2,2252.8,203.5,2252.2,203.8z"/>
	</g>
	<line fill="none" stroke="#000000" stroke-width="0.459" x1="2286.4" y1="204.4" x2="2286.4" y2="188.4"/>
	<g enable-background="new    ">
		<path d="M2286.7,205.4c-0.4,1-1.2,1.8-1.8,2.1c-0.6,0.3-1.4,0.4-2.2,0.4c-0.5,0-1.5-0.2-1.8-0.8c-0.4-0.7-0.1-1.4,0-1.8
			c0.4-1,1.1-1.6,1.7-2c0.6-0.3,1.5-0.6,2.5-0.5c0.4,0.1,1.3,0.1,1.7,0.8C2287,204.1,2286.8,205,2286.7,205.4z M2284.4,203.8
			c-0.4,0.2-0.7,0.4-1.1,0.6c-0.4,0.2-0.7,0.4-1.1,0.7c-0.6,0.3-1.3,1-0.9,1.6c0.4,0.6,1.3,0.3,1.9,0c0.4-0.2,0.8-0.4,1.2-0.6
			s0.7-0.4,1.1-0.7c0.5-0.3,1.3-1,0.9-1.6C2285.9,203.2,2285,203.5,2284.4,203.8z"/>
	</g>
	<line fill="none" stroke="#000000" stroke-width="0.459" x1="2331" y1="214" x2="2331" y2="198"/>
	<line fill="none" stroke="#000000" stroke-width="0.459" x1="2324" y1="214.8" x2="2332.4" y2="214.8"/>
	<g enable-background="new    ">
		<path d="M2331.3,215c-0.4,1-1.2,1.8-1.8,2.1c-0.6,0.3-1.4,0.4-2.2,0.4c-0.5,0-1.5-0.2-1.8-0.8c-0.4-0.7-0.1-1.4,0-1.8
			c0.4-1,1.1-1.6,1.7-2c0.6-0.3,1.5-0.6,2.5-0.5c0.4,0.1,1.3,0.1,1.7,0.8C2331.6,213.7,2331.4,214.6,2331.3,215z M2329,213.4
			c-0.4,0.2-0.7,0.4-1.1,0.6c-0.4,0.2-0.7,0.4-1.1,0.7c-0.6,0.3-1.3,1-0.9,1.6c0.4,0.6,1.3,0.3,1.9,0c0.4-0.2,0.8-0.4,1.2-0.6
			s0.7-0.4,1.1-0.7c0.5-0.3,1.3-1,0.9-1.6C2330.5,212.8,2329.6,213.1,2329,213.4z"/>
	</g>
	<g enable-background="new    ">
		<path d="M2358.1,198v2.5h-6.1V198H2358.1z"/>
	</g>
	<line fill="none" stroke="#000000" stroke-width="0.459" x1="2351.4" y1="200.4" x2="2358.6" y2="200.4"/>
	<line fill="none" stroke="#000000" stroke-width="0.459" x1="2394.6" y1="214" x2="2394.6" y2="198"/>
	<line fill="none" stroke="#000000" stroke-width="0.459" x1="2387.6" y1="214.8" x2="2396" y2="214.8"/>
	<g enable-background="new    ">
		<path d="M2394.9,215c-0.4,1-1.2,1.8-1.8,2.1c-0.6,0.3-1.4,0.4-2.2,0.4c-0.5,0-1.5-0.2-1.8-0.8c-0.4-0.7-0.1-1.4,0-1.8
			c0.4-1,1.1-1.6,1.7-2c0.6-0.3,1.5-0.6,2.5-0.5c0.4,0.1,1.3,0.1,1.7,0.8C2395.2,213.7,2395,214.6,2394.9,215z M2392.6,213.4
			c-0.4,0.2-0.7,0.4-1.1,0.6c-0.4,0.2-0.7,0.4-1.1,0.7c-0.6,0.3-1.3,1-0.9,1.6c0.4,0.6,1.3,0.3,1.9,0c0.4-0.2,0.8-0.4,1.2-0.6
			s0.7-0.4,1.1-0.7c0.5-0.3,1.3-1,0.9-1.6C2394.1,212.8,2393.2,213.1,2392.6,213.4z"/>
	</g>
	<line fill="none" stroke="#000000" stroke-width="0.459" x1="2420.4" y1="211.6" x2="2420.4" y2="195.6"/>
	<g enable-background="new    ">
		<path d="M2420.7,212.6c-0.4,1-1.2,1.8-1.8,2.1c-0.6,0.3-1.4,0.4-2.2,0.4c-0.5,0-1.5-0.2-1.8-0.8c-0.4-0.7-0.1-1.4,0-1.8
			c0.4-1,1.1-1.6,1.7-2c0.6-0.3,1.5-0.6,2.5-0.5c0.4,0.1,1.3,0.1,1.7,0.8C2421,211.3,2420.8,212.2,2420.7,212.6z M2418.4,211
			c-0.4,0.2-0.7,0.4-1.1,0.6c-0.4,0.2-0.7,0.4-1.1,0.7c-0.6,0.3-1.3,1-0.9,1.6c0.4,0.6,1.3,0.3,1.9,0c0.4-0.2,0.8-0.4,1.2-0.6
			c0.4-0.2,0.7-0.4,1.1-0.7c0.5-0.3,1.3-1,0.9-1.6C2419.9,210.4,2419,210.7,2418.4,211z"/>
	</g>
	<g enable-background="new    ">
		<path d="M2466.4,206.7c0.6,0,1,0.4,1,1c0,0.5-0.4,1-1,1s-1-0.4-1-1C2465.4,207.1,2465.8,206.7,2466.4,206.7z"/>
	</g>
	<line fill="none" stroke="#000000" stroke-width="0.459" x1="2463" y1="209.2" x2="2463" y2="193.2"/>
	<g enable-background="new    ">
		<path d="M2463.3,210.2c-0.4,1-1.2,1.8-1.8,2.1c-0.6,0.3-1.4,0.4-2.2,0.4c-0.5,0-1.5-0.2-1.8-0.8c-0.4-0.7-0.1-1.4,0-1.8
			c0.4-1,1.1-1.6,1.7-2c0.6-0.3,1.5-0.6,2.5-0.5c0.4,0.1,1.3,0.1,1.7,0.8C2463.7,208.9,2463.4,209.8,2463.3,210.2z M2461,208.6
			c-0.4,0.2-0.7,0.4-1.1,0.6c-0.4,0.2-0.7,0.4-1.1,0.7c-0.6,0.3-1.3,1-0.9,1.6c0.4,0.6,1.3,0.3,1.9,0c0.4-0.2,0.8-0.4,1.2-0.6
			s0.7-0.4,1.1-0.7c0.5-0.3,1.3-1,0.9-1.6C2462.5,208,2461.6,208.3,2461,208.6z"/>
	</g>
	<line fill="none" stroke="#000000" stroke-width="0.459" x1="2508.4" y1="206.8" x2="2508.4" y2="190.8"/>
	<g enable-background="new    ">
		<path d="M2506.6,205.2c1.6,0,2.5,1.1,2,2.5c-0.5,1.4-2.2,2.5-3.8,2.5c-1.6,0-2.5-1.2-2-2.5C2503.3,206.3,2505,205.2,2506.6,205.2z
			"/>
	</g>
	<line fill="none" stroke="#000000" stroke-width="0.459" x1="2532.6" y1="204.4" x2="2532.6" y2="188.4"/>
	<g enable-background="new    ">
		<path d="M2532.9,205.4c-0.4,1-1.2,1.8-1.8,2.1c-0.6,0.3-1.4,0.4-2.2,0.4c-0.5,0-1.5-0.2-1.8-0.8c-0.4-0.7-0.1-1.4,0-1.8
			c0.4-1,1.1-1.6,1.7-2c0.6-0.3,1.5-0.6,2.5-0.5c0.4,0.1,1.3,0.1,1.7,0.8C2533.2,204.1,2533,205,2532.9,205.4z M2530.6,203.8
			c-0.4,0.2-0.7,0.4-1.1,0.6c-0.4,0.2-0.7,0.4-1.1,0.7c-0.6,0.3-1.3,1-0.9,1.6c0.4,0.6,1.3,0.3,1.9,0c0.4-0.2,0.8-0.4,1.2-0.6
			s0.7-0.4,1.1-0.7c0.5-0.3,1.3-1,0.9-1.6C2532.1,203.2,2531.2,203.5,2530.6,203.8z"/>
	</g>
	<line fill="none" stroke="#000000" stroke-width="0.459" x1="2564.8" y1="204.4" x2="2564.8" y2="188.4"/>
	<g enable-background="new    ">
		<path d="M2565.1,205.4c-0.4,1-1.2,1.8-1.8,2.1c-0.6,0.3-1.4,0.4-2.2,0.4c-0.5,0-1.5-0.2-1.8-0.8c-0.4-0.7-0.1-1.4,0-1.8
			c0.4-1,1.1-1.6,1.7-2c0.6-0.3,1.5-0.6,2.5-0.5c0.4,0.1,1.3,0.1,1.7,0.8C2565.4,204.1,2565.2,205,2565.1,205.4z M2562.8,203.8
			c-0.4,0.2-0.7,0.4-1.1,0.6c-0.4,0.2-0.7,0.4-1.1,0.7c-0.6,0.3-1.3,1-0.9,1.6c0.4,0.6,1.3,0.3,1.9,0c0.4-0.2,0.8-0.4,1.2-0.6
			s0.7-0.4,1.1-0.7c0.5-0.3,1.3-1,0.9-1.6C2564.3,203.2,2563.4,203.5,2562.8,203.8z"/>
	</g>
	<g enable-background="new    ">
		<path d="M2606.8,211.5c0.6,0,1,0.4,1,1c0,0.5-0.4,1-1,1s-1-0.4-1-1C2605.8,211.9,2606.2,211.5,2606.8,211.5z"/>
	</g>
	<line fill="none" stroke="#000000" stroke-width="0.459" x1="2603.4" y1="214" x2="2603.4" y2="198"/>
	<line fill="none" stroke="#000000" stroke-width="0.459" x1="2596.4" y1="214.8" x2="2604.8" y2="214.8"/>
	<g enable-background="new    ">
		<path d="M2603.7,215c-0.4,1-1.2,1.8-1.8,2.1c-0.6,0.3-1.4,0.4-2.2,0.4c-0.5,0-1.5-0.2-1.8-0.8c-0.4-0.7-0.1-1.4,0-1.8
			c0.4-1,1.1-1.6,1.7-2c0.6-0.3,1.5-0.6,2.5-0.5c0.4,0.1,1.3,0.1,1.7,0.8C2604,213.7,2603.8,214.6,2603.7,215z M2601.4,213.4
			c-0.4,0.2-0.7,0.4-1.1,0.6c-0.4,0.2-0.7,0.4-1.1,0.7c-0.6,0.3-1.3,1-0.9,1.6c0.4,0.6,1.3,0.3,1.9,0c0.4-0.2,0.8-0.4,1.2-0.6
			c0.4-0.2,0.7-0.4,1.1-0.7c0.5-0.3,1.3-1,0.9-1.6C2602.9,212.8,2602,213.1,2601.4,213.4z"/>
	</g>
	<line fill="none" stroke="#000000" stroke-width="0.459" x1="2648" y1="209.2" x2="2648" y2="193.2"/>
	<g enable-background="new    ">
		<path d="M2646.2,207.6c1.6,0,2.5,1.1,2,2.5c-0.5,1.4-2.2,2.5-3.8,2.5c-1.6,0-2.5-1.2-2-2.5
			C2642.9,208.7,2644.6,207.6,2646.2,207.6z"/>
	</g>
	<g enable-background="new    ">
		<path d="M2675.2,206.7c0.6,0,1,0.4,1,1c0,0.5-0.4,1-1,1s-1-0.4-1-1C2674.2,207.1,2674.6,206.7,2675.2,206.7z"/>
	</g>
	<line fill="none" stroke="#000000" stroke-width="0.459" x1="2671.8" y1="206.8" x2="2671.8" y2="190.8"/>
	<g enable-background="new    ">
		<path d="M2672.1,207.8c-0.4,1-1.2,1.8-1.8,2.1c-0.6,0.3-1.4,0.4-2.2,0.4c-0.5,0-1.5-0.2-1.8-0.8c-0.4-0.7-0.1-1.4,0-1.8
			c0.4-1,1.1-1.6,1.7-2c0.6-0.3,1.5-0.6,2.5-0.5c0.4,0.1,1.3,0.1,1.7,0.8C2672.4,206.5,2672.2,207.4,2672.1,207.8z M2669.8,206.2
			c-0.4,0.2-0.7,0.4-1.1,0.6c-0.4,0.2-0.7,0.4-1.1,0.7c-0.6,0.3-1.3,1-0.9,1.6c0.4,0.6,1.3,0.3,1.9,0c0.4-0.2,0.8-0.4,1.2-0.6
			s0.7-0.4,1.1-0.7c0.5-0.3,1.3-1,0.9-1.6C2671.3,205.6,2670.4,205.9,2669.8,206.2z"/>
	</g>
	<line fill="none" stroke="#000000" stroke-width="0.459" x1="2717.2" y1="206.8" x2="2717.2" y2="190.8"/>
	<g enable-background="new    ">
		<path d="M2715.4,205.2c1.6,0,2.5,1.1,2,2.5c-0.5,1.4-2.2,2.5-3.8,2.5c-1.6,0-2.5-1.2-2-2.5
			C2712.1,206.3,2713.8,205.2,2715.4,205.2z"/>
	</g>
	<g enable-background="new    ">
		<path d="M2744.8,201.9c0.6,0,1,0.4,1,1c0,0.5-0.4,1-1,1s-1-0.4-1-1C2743.8,202.3,2744.2,201.9,2744.8,201.9z"/>
	</g>
	<line fill="none" stroke="#000000" stroke-width="0.459" x1="2741.4" y1="204.4" x2="2741.4" y2="188.4"/>
	<g enable-background="new    ">
		<path d="M2741.7,205.4c-0.4,1-1.2,1.8-1.8,2.1c-0.6,0.3-1.4,0.4-2.2,0.4c-0.5,0-1.5-0.2-1.8-0.8c-0.4-0.7-0.1-1.4,0-1.8
			c0.4-1,1.1-1.6,1.7-2c0.6-0.3,1.5-0.6,2.5-0.5c0.4,0.1,1.3,0.1,1.7,0.8C2742,204.1,2741.8,205,2741.7,205.4z M2739.4,203.8
			c-0.4,0.2-0.7,0.4-1.1,0.6c-0.4,0.2-0.7,0.4-1.1,0.7c-0.6,0.3-1.3,1-0.9,1.6c0.4,0.6,1.3,0.3,1.9,0c0.4-0.2,0.8-0.4,1.2-0.6
			c0.4-0.2,0.7-0.4,1.1-0.7c0.5-0.3,1.3-1,0.9-1.6C2740.9,203.2,2740,203.5,2739.4,203.8z"/>
	</g>
	<line fill="none" stroke="#000000" stroke-width="0.459" x1="2786.8" y1="204.4" x2="2786.8" y2="188.4"/>
	<g enable-background="new    ">
		<path d="M2785,202.8c1.6,0,2.5,1.1,2,2.5c-0.5,1.4-2.2,2.5-3.8,2.5c-1.6,0-2.5-1.2-2-2.5C2781.7,203.9,2783.4,202.8,2785,202.8z"
			/>
	</g>
	<g enable-background="new    ">
		<path d="M2814.4,201.9c0.6,0,1,0.4,1,1c0,0.5-0.4,1-1,1s-1-0.4-1-1C2813.4,202.3,2813.8,201.9,2814.4,201.9z"/>
	</g>
	<line fill="none" stroke="#000000" stroke-width="0.459" x1="2811" y1="202" x2="2811" y2="186"/>
	<g enable-background="new    ">
		<path d="M2811.3,203c-0.4,1-1.2,1.8-1.8,2.1c-0.6,0.3-1.4,0.4-2.2,0.4c-0.5,0-1.5-0.2-1.8-0.8c-0.4-0.7-0.1-1.4,0-1.8
			c0.4-1,1.1-1.6,1.7-2c0.6-0.3,1.5-0.6,2.5-0.5c0.4,0.1,1.3,0.1,1.7,0.8C2811.7,201.7,2811.4,202.6,2811.3,203z M2809,201.4
			c-0.4,0.2-0.7,0.4-1.1,0.6c-0.4,0.2-0.7,0.4-1.1,0.7c-0.6,0.3-1.3,1-0.9,1.6c0.4,0.6,1.3,0.3,1.9,0c0.4-0.2,0.8-0.4,1.2-0.6
			s0.7-0.4,1.1-0.7c0.5-0.3,1.3-1,0.9-1.6C2810.5,200.8,2809.6,201.1,2809,201.4z"/>
	</g>
	<line fill="none" stroke="#000000" stroke-width="0.459" x1="2850.8" y1="201.2" x2="2850.8" y2="217.2"/>
	<g enable-background="new    ">
		<path d="M2854.6,198c1.6,0,2.5,1.1,2,2.5c-0.5,1.4-2.2,2.5-3.8,2.5c-1.6,0-2.5-1.2-2-2.5C2851.3,199.1,2853,198,2854.6,198z"/>
	</g>
	<line fill="none" stroke="#000000" stroke-width="0.459" x1="2875" y1="198.8" x2="2875" y2="214.8"/>
	<g enable-background="new    ">
		<path d="M2880.9,198.2c-0.4,1-1.2,1.8-1.8,2.1c-0.6,0.3-1.4,0.4-2.2,0.4c-0.5,0-1.5-0.2-1.8-0.8c-0.4-0.7-0.1-1.4,0-1.8
			c0.4-1,1.1-1.6,1.7-2c0.6-0.3,1.5-0.6,2.5-0.5c0.4,0.1,1.3,0.1,1.7,0.8C2881.2,196.9,2881,197.8,2880.9,198.2z M2878.6,196.6
			c-0.4,0.2-0.7,0.4-1.1,0.6c-0.4,0.2-0.7,0.4-1.1,0.7c-0.6,0.3-1.3,1-0.9,1.6c0.4,0.6,1.3,0.3,1.9,0c0.4-0.2,0.8-0.4,1.2-0.6
			s0.7-0.4,1.1-0.7c0.5-0.3,1.3-1,0.9-1.6C2880.1,196,2879.2,196.3,2878.6,196.6z"/>
	</g>
	<g enable-background="new    ">
		<path d="M2909.7,198v2.5h-6.1V198H2909.7z"/>
	</g>
	<line fill="none" stroke="#000000" stroke-width="0.459" x1="2903" y1="200.4" x2="2910.2" y2="200.4"/>
	<line fill="none" stroke="#000000" stroke-width="0.459" x1="2951.4" y1="214" x2="2951.4" y2="198"/>
	<line fill="none" stroke="#000000" stroke-width="0.459" x1="2944.4" y1="214.8" x2="2952.8" y2="214.8"/>
	<g enable-background="new    ">
		<path d="M2951.7,215c-0.4,1-1.2,1.8-1.8,2.1c-0.6,0.3-1.4,0.4-2.2,0.4c-0.5,0-1.5-0.2-1.8-0.8c-0.4-0.7-0.1-1.4,0-1.8
			c0.4-1,1.1-1.6,1.7-2c0.6-0.3,1.5-0.6,2.5-0.5c0.4,0.1,1.3,0.1,1.7,0.8C2952,213.7,2951.8,214.6,2951.7,215z M2949.4,213.4
			c-0.4,0.2-0.7,0.4-1.1,0.6c-0.4,0.2-0.7,0.4-1.1,0.7c-0.6,0.3-1.3,1-0.9,1.6c0.4,0.6,1.3,0.3,1.9,0c0.4-0.2,0.8-0.4,1.2-0.6
			c0.4-0.2,0.7-0.4,1.1-0.7c0.5-0.3,1.3-1,0.9-1.6C2950.9,212.8,2950,213.1,2949.4,213.4z"/>
	</g>
	<line fill="none" stroke="#000000" stroke-width="0.459" x1="2983" y1="214" x2="2983" y2="198"/>
	<line fill="none" stroke="#000000" stroke-width="0.459" x1="2976" y1="214.8" x2="2984.4" y2="214.8"/>
	<g enable-background="new    ">
		<path d="M2983.3,215c-0.4,1-1.2,1.8-1.8,2.1c-0.6,0.3-1.4,0.4-2.2,0.4c-0.5,0-1.5-0.2-1.8-0.8c-0.4-0.7-0.1-1.4,0-1.8
			c0.4-1,1.1-1.6,1.7-2c0.6-0.3,1.5-0.6,2.5-0.5c0.4,0.1,1.3,0.1,1.7,0.8C2983.7,213.7,2983.4,214.6,2983.3,215z M2981,213.4
			c-0.4,0.2-0.7,0.4-1.1,0.6c-0.4,0.2-0.7,0.4-1.1,0.7c-0.6,0.3-1.3,1-0.9,1.6c0.4,0.6,1.3,0.3,1.9,0c0.4-0.2,0.8-0.4,1.2-0.6
			s0.7-0.4,1.1-0.7c0.5-0.3,1.3-1,0.9-1.6C2982.5,212.8,2981.6,213.1,2981,213.4z"/>
	</g>
	<line fill="none" stroke="#000000" stroke-width="0.459" x1="3021" y1="214" x2="3021" y2="198"/>
	<line fill="none" stroke="#000000" stroke-width="0.459" x1="3014" y1="214.8" x2="3022.4" y2="214.8"/>
	<g enable-background="new    ">
		<path d="M3021.3,215c-0.4,1-1.2,1.8-1.8,2.1c-0.6,0.3-1.4,0.4-2.2,0.4c-0.5,0-1.5-0.2-1.8-0.8c-0.4-0.7-0.1-1.4,0-1.8
			c0.4-1,1.1-1.6,1.7-2c0.6-0.3,1.5-0.6,2.5-0.5c0.4,0.1,1.3,0.1,1.7,0.8C3021.7,213.7,3021.4,214.6,3021.3,215z M3019,213.4
			c-0.4,0.2-0.7,0.4-1.1,0.6c-0.4,0.2-0.7,0.4-1.1,0.7c-0.6,0.3-1.3,1-0.9,1.6c0.4,0.6,1.3,0.3,1.9,0c0.4-0.2,0.8-0.4,1.2-0.6
			s0.7-0.4,1.1-0.7c0.5-0.3,1.3-1,0.9-1.6C3020.5,212.8,3019.6,213.1,3019,213.4z"/>
	</g>
	<g enable-background="new    ">
		<path d="M3052.9,198v2.5h-6.1V198H3052.9z"/>
	</g>
	<line fill="none" stroke="#000000" stroke-width="0.459" x1="3046.2" y1="200.4" x2="3053.4" y2="200.4"/>
	<line fill="none" stroke="#000000" stroke-width="0.459" x1="3090.6" y1="214" x2="3090.6" y2="198"/>
	<line fill="none" stroke="#000000" stroke-width="0.459" x1="3083.6" y1="214.8" x2="3092" y2="214.8"/>
	<g enable-background="new    ">
		<path d="M3090.9,215c-0.4,1-1.2,1.8-1.8,2.1c-0.6,0.3-1.4,0.4-2.2,0.4c-0.5,0-1.5-0.2-1.8-0.8c-0.4-0.7-0.1-1.4,0-1.8
			c0.4-1,1.1-1.6,1.7-2c0.6-0.3,1.5-0.6,2.5-0.5c0.4,0.1,1.3,0.1,1.7,0.8C3091.2,213.7,3091,214.6,3090.9,215z M3088.6,213.4
			c-0.4,0.2-0.7,0.4-1.1,0.6c-0.4,0.2-0.7,0.4-1.1,0.7c-0.6,0.3-1.3,1-0.9,1.6c0.4,0.6,1.3,0.3,1.9,0c0.4-0.2,0.8-0.4,1.2-0.6
			s0.7-0.4,1.1-0.7c0.5-0.3,1.3-1,0.9-1.6C3090.1,212.8,3089.2,213.1,3088.6,213.4z"/>
	</g>
	<line fill="none" stroke="#000000" stroke-width="0.459" x1="3122.2" y1="214" x2="3122.2" y2="198"/>
	<line fill="none" stroke="#000000" stroke-width="0.459" x1="3115.2" y1="214.8" x2="3123.6" y2="214.8"/>
	<g enable-background="new    ">
		<path d="M3122.5,215c-0.4,1-1.2,1.8-1.8,2.1c-0.6,0.3-1.4,0.4-2.2,0.4c-0.5,0-1.5-0.2-1.8-0.8c-0.4-0.7-0.1-1.4,0-1.8
			c0.4-1,1.1-1.6,1.7-2c0.6-0.3,1.5-0.6,2.5-0.5c0.4,0.1,1.3,0.1,1.7,0.8C3122.8,213.7,3122.6,214.6,3122.5,215z M3120.2,213.4
			c-0.4,0.2-0.7,0.4-1.1,0.6c-0.4,0.2-0.7,0.4-1.1,0.7c-0.6,0.3-1.3,1-0.9,1.6c0.4,0.6,1.3,0.3,1.9,0c0.4-0.2,0.8-0.4,1.2-0.6
			c0.4-0.2,0.7-0.4,1.1-0.7c0.5-0.3,1.3-1,0.9-1.6C3121.7,212.8,3120.8,213.1,3120.2,213.4z"/>
	</g>
	<line fill="none" stroke="#000000" stroke-width="0.459" x1="3160.2" y1="214" x2="3160.2" y2="198"/>
	<line fill="none" stroke="#000000" stroke-width="0.459" x1="3153.2" y1="214.8" x2="3161.6" y2="214.8"/>
	<g enable-background="new    ">
		<path d="M3160.5,215c-0.4,1-1.2,1.8-1.8,2.1c-0.6,0.3-1.4,0.4-2.2,0.4c-0.5,0-1.5-0.2-1.8-0.8c-0.4-0.7-0.1-1.4,0-1.8
			c0.4-1,1.1-1.6,1.7-2c0.6-0.3,1.5-0.6,2.5-0.5c0.4,0.1,1.3,0.1,1.7,0.8C3160.8,213.7,3160.6,214.6,3160.5,215z M3158.2,213.4
			c-0.4,0.2-0.7,0.4-1.1,0.6c-0.4,0.2-0.7,0.4-1.1,0.7c-0.6,0.3-1.3,1-0.9,1.6c0.4,0.6,1.3,0.3,1.9,0c0.4-0.2,0.8-0.4,1.2-0.6
			c0.4-0.2,0.7-0.4,1.1-0.7c0.5-0.3,1.3-1,0.9-1.6C3159.7,212.8,3158.8,213.1,3158.2,213.4z"/>
	</g>
	<g enable-background="new    ">
		<path d="M3191.9,198v2.5h-6.1V198H3191.9z"/>
	</g>
	<line fill="none" stroke="#000000" stroke-width="0.459" x1="3185.2" y1="200.4" x2="3192.4" y2="200.4"/>
	<line fill="none" stroke="#000000" stroke-width="0.459" x1="3229.6" y1="214" x2="3229.6" y2="198"/>
	<line fill="none" stroke="#000000" stroke-width="0.459" x1="3222.6" y1="214.8" x2="3231" y2="214.8"/>
	<g enable-background="new    ">
		<path d="M3229.9,215c-0.4,1-1.2,1.8-1.8,2.1c-0.6,0.3-1.4,0.4-2.2,0.4c-0.5,0-1.5-0.2-1.8-0.8c-0.4-0.7-0.1-1.4,0-1.8
			c0.4-1,1.1-1.6,1.7-2c0.6-0.3,1.5-0.6,2.5-0.5c0.4,0.1,1.3,0.1,1.7,0.8C3230.2,213.7,3230,214.6,3229.9,215z M3227.6,213.4
			c-0.4,0.2-0.7,0.4-1.1,0.6c-0.4,0.2-0.7,0.4-1.1,0.7c-0.6,0.3-1.3,1-0.9,1.6c0.4,0.6,1.3,0.3,1.9,0c0.4-0.2,0.8-0.4,1.2-0.6
			s0.7-0.4,1.1-0.7c0.5-0.3,1.3-1,0.9-1.6C3229.1,212.8,3228.2,213.1,3227.6,213.4z"/>
	</g>
	<line fill="none" stroke="#000000" stroke-width="0.459" x1="3265.4" y1="214" x2="3265.4" y2="198"/>
	<line fill="none" stroke="#000000" stroke-width="0.459" x1="3258.4" y1="214.8" x2="3266.8" y2="214.8"/>
	<g enable-background="new    ">
		<path d="M3265.7,215c-0.4,1-1.2,1.8-1.8,2.1c-0.6,0.3-1.4,0.4-2.2,0.4c-0.5,0-1.5-0.2-1.8-0.8c-0.4-0.7-0.1-1.4,0-1.8
			c0.4-1,1.1-1.6,1.7-2c0.6-0.3,1.5-0.6,2.5-0.5c0.4,0.1,1.3,0.1,1.7,0.8C3266,213.7,3265.8,214.6,3265.7,215z M3263.4,213.4
			c-0.4,0.2-0.7,0.4-1.1,0.6c-0.4,0.2-0.7,0.4-1.1,0.7c-0.6,0.3-1.3,1-0.9,1.6c0.4,0.6,1.3,0.3,1.9,0c0.4-0.2,0.8-0.4,1.2-0.6
			c0.4-0.2,0.7-0.4,1.1-0.7c0.5-0.3,1.3-1,0.9-1.6C3264.9,212.8,3264,213.1,3263.4,213.4z"/>
	</g>
	<line fill="none" stroke="#000000" stroke-width="0.459" x1="3299.4" y1="214" x2="3299.4" y2="198"/>
	<line fill="none" stroke="#000000" stroke-width="0.459" x1="3292.4" y1="214.8" x2="3300.8" y2="214.8"/>
	<g enable-background="new    ">
		<path d="M3299.7,215c-0.4,1-1.2,1.8-1.8,2.1c-0.6,0.3-1.4,0.4-2.2,0.4c-0.5,0-1.5-0.2-1.8-0.8c-0.4-0.7-0.1-1.4,0-1.8
			c0.4-1,1.1-1.6,1.7-2c0.6-0.3,1.5-0.6,2.5-0.5c0.4,0.1,1.3,0.1,1.7,0.8C3300,213.7,3299.8,214.6,3299.7,215z M3297.4,213.4
			c-0.4,0.2-0.7,0.4-1.1,0.6c-0.4,0.2-0.7,0.4-1.1,0.7c-0.6,0.3-1.3,1-0.9,1.6c0.4,0.6,1.3,0.3,1.9,0c0.4-0.2,0.8-0.4,1.2-0.6
			c0.4-0.2,0.7-0.4,1.1-0.7c0.5-0.3,1.3-1,0.9-1.6C3298.9,212.8,3298,213.1,3297.4,213.4z"/>
	</g>
	<g enable-background="new    ">
		<path d="M3326.3,198v2.5h-6.1V198H3326.3z"/>
	</g>
	<line fill="none" stroke="#000000" stroke-width="0.459" x1="3319.6" y1="200.4" x2="3326.8" y2="200.4"/>
	<line fill="none" stroke="#000000" stroke-width="0.459" x1="3367.8" y1="204.4" x2="3367.8" y2="188.4"/>
	<g enable-background="new    ">
		<path d="M3368.1,205.4c-0.4,1-1.2,1.8-1.8,2.1c-0.6,0.3-1.4,0.4-2.2,0.4c-0.5,0-1.5-0.2-1.8-0.8c-0.4-0.7-0.1-1.4,0-1.8
			c0.4-1,1.1-1.6,1.7-2c0.6-0.3,1.5-0.6,2.5-0.5c0.4,0.1,1.3,0.1,1.7,0.8C3368.4,204.1,3368.2,205,3368.1,205.4z M3365.8,203.8
			c-0.4,0.2-0.7,0.4-1.1,0.6c-0.4,0.2-0.7,0.4-1.1,0.7c-0.6,0.3-1.3,1-0.9,1.6c0.4,0.6,1.3,0.3,1.9,0c0.4-0.2,0.8-0.4,1.2-0.6
			s0.7-0.4,1.1-0.7c0.5-0.3,1.3-1,0.9-1.6C3367.3,203.2,3366.4,203.5,3365.8,203.8z"/>
	</g>
	<line fill="none" stroke="#000000" stroke-width="0.459" x1="3404.2" y1="204.4" x2="3404.2" y2="188.4"/>
	<g enable-background="new    ">
		<path d="M3404.5,205.4c-0.4,1-1.2,1.8-1.8,2.1c-0.6,0.3-1.4,0.4-2.2,0.4c-0.5,0-1.5-0.2-1.8-0.8c-0.4-0.7-0.1-1.4,0-1.8
			c0.4-1,1.1-1.6,1.7-2c0.6-0.3,1.5-0.6,2.5-0.5c0.4,0.1,1.3,0.1,1.7,0.8C3404.8,204.1,3404.6,205,3404.5,205.4z M3402.2,203.8
			c-0.4,0.2-0.7,0.4-1.1,0.6c-0.4,0.2-0.7,0.4-1.1,0.7c-0.6,0.3-1.3,1-0.9,1.6c0.4,0.6,1.3,0.3,1.9,0c0.4-0.2,0.8-0.4,1.2-0.6
			c0.4-0.2,0.7-0.4,1.1-0.7c0.5-0.3,1.3-1,0.9-1.6C3403.7,203.2,3402.8,203.5,3402.2,203.8z"/>
	</g>
	<line fill="none" stroke="#000000" stroke-width="0.459" x1="3437.4" y1="204.4" x2="3437.4" y2="188.4"/>
	<g enable-background="new    ">
		<path d="M3437.7,205.4c-0.4,1-1.2,1.8-1.8,2.1c-0.6,0.3-1.4,0.4-2.2,0.4c-0.5,0-1.5-0.2-1.8-0.8c-0.4-0.7-0.1-1.4,0-1.8
			c0.4-1,1.1-1.6,1.7-2c0.6-0.3,1.5-0.6,2.5-0.5c0.4,0.1,1.3,0.1,1.7,0.8C3438,204.1,3437.8,205,3437.7,205.4z M3435.4,203.8
			c-0.4,0.2-0.7,0.4-1.1,0.6c-0.4,0.2-0.7,0.4-1.1,0.7c-0.6,0.3-1.3,1-0.9,1.6c0.4,0.6,1.3,0.3,1.9,0c0.4-0.2,0.8-0.4,1.2-0.6
			c0.4-0.2,0.7-0.4,1.1-0.7c0.5-0.3,1.3-1,0.9-1.6C3436.9,203.2,3436,203.5,3435.4,203.8z"/>
	</g>
	<g enable-background="new    ">
		<path d="M3467.1,198v2.5h-6.1V198H3467.1z"/>
	</g>
	<line fill="none" stroke="#000000" stroke-width="0.459" x1="3460.4" y1="200.4" x2="3467.6" y2="200.4"/>
	<line fill="none" stroke="#000000" stroke-width="0.459" x1="3508.2" y1="214" x2="3508.2" y2="198"/>
	<line fill="none" stroke="#000000" stroke-width="0.459" x1="3501.2" y1="214.8" x2="3509.6" y2="214.8"/>
	<g enable-background="new    ">
		<path d="M3508.5,215c-0.4,1-1.2,1.8-1.8,2.1c-0.6,0.3-1.4,0.4-2.2,0.4c-0.5,0-1.5-0.2-1.8-0.8c-0.4-0.7-0.1-1.4,0-1.8
			c0.4-1,1.1-1.6,1.7-2c0.6-0.3,1.5-0.6,2.5-0.5c0.4,0.1,1.3,0.1,1.7,0.8C3508.8,213.7,3508.6,214.6,3508.5,215z M3506.2,213.4
			c-0.4,0.2-0.7,0.4-1.1,0.6c-0.4,0.2-0.7,0.4-1.1,0.7c-0.6,0.3-1.3,1-0.9,1.6c0.4,0.6,1.3,0.3,1.9,0c0.4-0.2,0.8-0.4,1.2-0.6
			c0.4-0.2,0.7-0.4,1.1-0.7c0.5-0.3,1.3-1,0.9-1.6C3507.7,212.8,3506.8,213.1,3506.2,213.4z"/>
	</g>
	<line fill="none" stroke="#000000" stroke-width="0.459" x1="3539.8" y1="214" x2="3539.8" y2="198"/>
	<line fill="none" stroke="#000000" stroke-width="0.459" x1="3532.8" y1="214.8" x2="3541.2" y2="214.8"/>
	<g enable-background="new    ">
		<path d="M3540.1,215c-0.4,1-1.2,1.8-1.8,2.1c-0.6,0.3-1.4,0.4-2.2,0.4c-0.5,0-1.5-0.2-1.8-0.8c-0.4-0.7-0.1-1.4,0-1.8
			c0.4-1,1.1-1.6,1.7-2c0.6-0.3,1.5-0.6,2.5-0.5c0.4,0.1,1.3,0.1,1.7,0.8C3540.4,213.7,3540.2,214.6,3540.1,215z M3537.8,213.4
			c-0.4,0.2-0.7,0.4-1.1,0.6c-0.4,0.2-0.7,0.4-1.1,0.7c-0.6,0.3-1.3,1-0.9,1.6c0.4,0.6,1.3,0.3,1.9,0c0.4-0.2,0.8-0.4,1.2-0.6
			s0.7-0.4,1.1-0.7c0.5-0.3,1.3-1,0.9-1.6C3539.3,212.8,3538.4,213.1,3537.8,213.4z"/>
	</g>
	<line fill="none" stroke="#000000" stroke-width="0.459" x1="3577.8" y1="214" x2="3577.8" y2="198"/>
	<line fill="none" stroke="#000000" stroke-width="0.459" x1="3570.8" y1="214.8" x2="3579.2" y2="214.8"/>
	<g enable-background="new    ">
		<path d="M3578.1,215c-0.4,1-1.2,1.8-1.8,2.1c-0.6,0.3-1.4,0.4-2.2,0.4c-0.5,0-1.5-0.2-1.8-0.8c-0.4-0.7-0.1-1.4,0-1.8
			c0.4-1,1.1-1.6,1.7-2c0.6-0.3,1.5-0.6,2.5-0.5c0.4,0.1,1.3,0.1,1.7,0.8C3578.4,213.7,3578.2,214.6,3578.1,215z M3575.8,213.4
			c-0.4,0.2-0.7,0.4-1.1,0.6c-0.4,0.2-0.7,0.4-1.1,0.7c-0.6,0.3-1.3,1-0.9,1.6c0.4,0.6,1.3,0.3,1.9,0c0.4-0.2,0.8-0.4,1.2-0.6
			s0.7-0.4,1.1-0.7c0.5-0.3,1.3-1,0.9-1.6C3577.3,212.8,3576.4,213.1,3575.8,213.4z"/>
	</g>
	<g enable-background="new    ">
		<path d="M3609.5,198v2.5h-6.1V198H3609.5z"/>
	</g>
	<line fill="none" stroke="#000000" stroke-width="0.459" x1="3602.8" y1="200.4" x2="3610" y2="200.4"/>
	<line fill="none" stroke="#000000" stroke-width="0.459" x1="3646.2" y1="204.4" x2="3646.2" y2="188.4"/>
	<g enable-background="new    ">
		<path d="M3646.5,205.4c-0.4,1-1.2,1.8-1.8,2.1c-0.6,0.3-1.4,0.4-2.2,0.4c-0.5,0-1.5-0.2-1.8-0.8c-0.4-0.7-0.1-1.4,0-1.8
			c0.4-1,1.1-1.6,1.7-2c0.6-0.3,1.5-0.6,2.5-0.5c0.4,0.1,1.3,0.1,1.7,0.8C3646.8,204.1,3646.6,205,3646.5,205.4z M3644.2,203.8
			c-0.4,0.2-0.7,0.4-1.1,0.6c-0.4,0.2-0.7,0.4-1.1,0.7c-0.6,0.3-1.3,1-0.9,1.6c0.4,0.6,1.3,0.3,1.9,0c0.4-0.2,0.8-0.4,1.2-0.6
			c0.4-0.2,0.7-0.4,1.1-0.7c0.5-0.3,1.3-1,0.9-1.6C3645.7,203.2,3644.8,203.5,3644.2,203.8z"/>
	</g>
	<line fill="none" stroke="#000000" stroke-width="0.459" x1="3678.4" y1="204.4" x2="3678.4" y2="188.4"/>
	<g enable-background="new    ">
		<path d="M3678.7,205.4c-0.4,1-1.2,1.8-1.8,2.1c-0.6,0.3-1.4,0.4-2.2,0.4c-0.5,0-1.5-0.2-1.8-0.8c-0.4-0.7-0.1-1.4,0-1.8
			c0.4-1,1.1-1.6,1.7-2c0.6-0.3,1.5-0.6,2.5-0.5c0.4,0.1,1.3,0.1,1.7,0.8C3679,204.1,3678.8,205,3678.7,205.4z M3676.4,203.8
			c-0.4,0.2-0.7,0.4-1.1,0.6c-0.4,0.2-0.7,0.4-1.1,0.7c-0.6,0.3-1.3,1-0.9,1.6c0.4,0.6,1.3,0.3,1.9,0c0.4-0.2,0.8-0.4,1.2-0.6
			c0.4-0.2,0.7-0.4,1.1-0.7c0.5-0.3,1.3-1,0.9-1.6C3677.9,203.2,3677,203.5,3676.4,203.8z"/>
	</g>
	<line fill="none" stroke="#000000" stroke-width="0.459" x1="3717" y1="214" x2="3717" y2="198"/>
	<line fill="none" stroke="#000000" stroke-width="0.459" x1="3710" y1="214.8" x2="3718.4" y2="214.8"/>
	<g enable-background="new    ">
		<path d="M3717.3,215c-0.4,1-1.2,1.8-1.8,2.1c-0.6,0.3-1.4,0.4-2.2,0.4c-0.5,0-1.5-0.2-1.8-0.8c-0.4-0.7-0.1-1.4,0-1.8
			c0.4-1,1.1-1.6,1.7-2c0.6-0.3,1.5-0.6,2.5-0.5c0.4,0.1,1.3,0.1,1.7,0.8C3717.7,213.7,3717.4,214.6,3717.3,215z M3715,213.4
			c-0.4,0.2-0.7,0.4-1.1,0.6c-0.4,0.2-0.7,0.4-1.1,0.7c-0.6,0.3-1.3,1-0.9,1.6c0.4,0.6,1.3,0.3,1.9,0c0.4-0.2,0.8-0.4,1.2-0.6
			s0.7-0.4,1.1-0.7c0.5-0.3,1.3-1,0.9-1.6C3716.5,212.8,3715.6,213.1,3715,213.4z"/>
	</g>
	<g enable-background="new    ">
		<path d="M3747.3,198v2.5h-6.1V198H3747.3z"/>
	</g>
	<line fill="none" stroke="#000000" stroke-width="0.459" x1="3740.6" y1="200.4" x2="3747.8" y2="200.4"/>
</g>
</svg>
