<?xml version="1.0" encoding="utf-8"?>
<!-- Generator: Adobe Illustrator 16.0.0, SVG Export Plug-In . SVG Version: 6.00 Build 0)  -->
<!DOCTYPE svg PUBLIC "-//W3C//DTD SVG 1.1//EN" "http://www.w3.org/Graphics/SVG/1.1/DTD/svg11.dtd">
<svg version="1.1" id="Layer_1" xmlns="http://www.w3.org/2000/svg" xmlns:xlink="http://www.w3.org/1999/xlink" x="0px" y="0px"
	 width="1440px" height="62.5px" viewBox="80 325 1440 62.5" enable-background="new 80 325 1440 62.5" xml:space="preserve">
<g id="Music">
	<rect x="80" y="314.4" fill="#FFFFFF" width="1440" height="93.6"/>
	<g enable-background="new    ">
		<path d="M117.8,368c-4-1.9-4.6-4.3-4.8-6.8c-0.2-2.7,1.5-5.4,3.1-6.9c0.9-0.9,1.9-1.7,3.1-2.6c0-0.7-0.2-0.9-0.3-1.9
			c0-0.4-0.3-2.3,0.1-4.5c0.2-1.3,1.9-4.3,3-4.3c0.9,0,2.2,3.4,2.2,5.2c0.1,2.7-0.6,3.9-1.4,5.3c-0.4,0.7-0.8,1.2-1.3,1.7
			c-0.5,0.6-1,0.9-1.5,1.3c0,0,0.6,3.5,0.6,3.7c1.2-0.2,2.7,0.3,3.3,0.7c1.4,1,1.9,2.4,2,3.8c0.2,2.2-1,4.5-3.6,5.5
			c0,0,0.4,2.8,0.5,3.3c0.2,1.5,0.2,2.5-0.2,3.1c-0.6,1-1.5,2-3.2,2.1c-1.3,0.1-4-0.6-4.1-2.7c-0.1-1.2,0.5-2.6,2-2.7
			c0.9-0.1,2,0.7,2.1,1.8c0.1,0.9-0.5,1.9-2.1,2.4c0.2,0.3,1,0.7,2.1,0.7c1.1,0,2.3-0.7,2.8-1.7c0.3-0.7,0.3-1.8,0.2-2.9
			c-0.1-0.4-0.5-3.3-0.5-3.3C120.5,368.5,118.6,368.3,117.8,368z M118.1,363.4c0,0.9,0.8,2,1.5,2.4c-0.1,0.1-0.2,0.2-0.2,0.2
			c-0.8-0.4-1.5-1-1.6-1.2c-0.6-0.7-0.8-1.2-0.9-2.3c-0.1-1.1,0.5-2.5,1.8-3.5c0.7-0.5,1-0.6,1.6-0.7l-0.6-3.5
			c-0.6,0.3-3.1,2.3-4.1,3.9c-0.9,1.4-1.5,2.6-1.4,4c0.2,3.2,3.7,5.8,7.5,4.9c0,0-1.1-6.8-1.1-6.8
			C118.6,360.9,118.1,362.5,118.1,363.4z M119.7,351.2c1.7-1.3,3.9-3.8,3.8-5.7c0-0.6-0.3-1.7-1.2-1.7
			C120.4,343.9,119.3,348.1,119.7,351.2z M122.3,367.5c2.2-0.7,2.3-2.6,2.2-3.8c-0.1-0.9-0.5-3.1-3.3-2.9L122.3,367.5z"/>
	</g>
	<g enable-background="new    ">
		<path d="M132.3,355.2c0,0.2,0,1.2,0,1.2c0.7-0.7,1.1-0.8,1.9-0.8c1,0,1.6,0.9,1.6,1.7c0,0.4-0.1,0.8-0.2,1.2
			c-0.2,0.4-0.6,0.7-0.9,1.1c-0.3,0.3-2.8,2.1-2.8,2.1v-11.3h0.5C132.3,350.3,132.3,352.7,132.3,355.2z M132.5,357.1
			c-0.2,0.5-0.2,1.3-0.2,1.9v1.7c0,0,0.7-0.6,1.1-0.9c0.3-0.3,0.6-0.7,0.7-1.3c0.2-0.6,0.1-1.2-0.3-1.6
			C133.6,356.6,132.9,356.3,132.5,357.1z"/>
	</g>
	<g enable-background="new    ">
		<path d="M150.2,365.5v1.3c0,0.8,0.9,0.7,0.9,0.7v0.5h-4.2v-0.5c0,0,0.9,0,0.9-0.7v-1.3h-3.6l-0.3-0.4c2.3-3.1,2.3-3.7,2.9-6.5h3.3
			c-0.8,1.5-3.4,4.2-5.3,6.4h3v-2.4l2.3-2.6v4.9h1.4v0.5H150.2z"/>
	</g>
	<g enable-background="new    ">
		<path d="M150.2,355.9v1.3c0,0.8,0.9,0.7,0.9,0.7v0.5h-4.2v-0.5c0,0,0.9,0,0.9-0.7v-1.3h-3.6l-0.3-0.4c2.3-3.1,2.3-3.7,2.9-6.5h3.3
			c-0.8,1.5-3.4,4.2-5.3,6.4h3V353l2.3-2.6v4.9h1.4v0.5H150.2z"/>
	</g>
	<line fill="none" stroke="#000000" stroke-width="0.459" x1="173.6" y1="349" x2="173.6" y2="368.2"/>
	<line fill="none" stroke="#000000" stroke-width="0.459" x1="250.8" y1="349" x2="250.8" y2="368.2"/>
	<line fill="none" stroke="#000000" stroke-width="0.459" x1="328" y1="349" x2="328" y2="368.2"/>
	<line fill="none" stroke="#000000" stroke-width="0.459" x1="405.2" y1="349" x2="405.2" y2="368.2"/>
	<line fill="none" stroke="#000000" stroke-width="0.459" x1="482.4" y1="349" x2="482.4" y2="368.2"/>
	<line fill="none" stroke="#000000" stroke-width="0.459" x1="559.6" y1="349" x2="559.6" y2="368.2"/>
	<line fill="none" stroke="#000000" stroke-width="0.459" x1="636.8" y1="349" x2="636.8" y2="368.2"/>
	<line fill="none" stroke="#000000" stroke-width="0.459" x1="714" y1="349" x2="714" y2="368.2"/>
	<line fill="none" stroke="#000000" stroke-width="0.459" x1="791.2" y1="349" x2="791.2" y2="368.2"/>
	<line fill="none" stroke="#000000" stroke-width="0.459" x1="868.4" y1="349" x2="868.4" y2="368.2"/>
	<line fill="none" stroke="#000000" stroke-width="0.459" x1="945.6" y1="349" x2="945.6" y2="368.2"/>
	<line fill="none" stroke="#000000" stroke-width="0.459" x1="1022.8" y1="349" x2="1022.8" y2="368.2"/>
	<line fill="none" stroke="#000000" stroke-width="0.459" x1="1100" y1="349" x2="1100" y2="368.2"/>
	<line fill="none" stroke="#000000" stroke-width="0.459" x1="1177.2" y1="349" x2="1177.2" y2="368.2"/>
	<line fill="none" stroke="#000000" stroke-width="0.459" x1="1254.4" y1="349" x2="1254.4" y2="368.2"/>
	<line fill="none" stroke="#000000" stroke-width="0.459" x1="1331.6" y1="349" x2="1331.6" y2="368.2"/>
	<line fill="none" stroke="#000000" stroke-width="0.459" x1="1408.8" y1="349" x2="1408.8" y2="368.2"/>
	<line fill="none" stroke="#000000" stroke-width="2.419" x1="1490.6" y1="349" x2="1490.6" y2="368.2"/>
	<line fill="none" stroke="#000000" stroke-width="0.459" x1="1486.7" y1="349" x2="1486.7" y2="368.2"/>
	<line fill="none" stroke="#000000" stroke-width="0.459" x1="108.2" y1="349" x2="1491.8" y2="349"/>
	<line fill="none" stroke="#000000" stroke-width="0.459" x1="108.2" y1="353.8" x2="1491.8" y2="353.8"/>
	<line fill="none" stroke="#000000" stroke-width="0.459" x1="108.2" y1="358.6" x2="1491.8" y2="358.6"/>
	<line fill="none" stroke="#000000" stroke-width="0.459" x1="108.2" y1="363.4" x2="1491.8" y2="363.4"/>
	<line fill="none" stroke="#000000" stroke-width="0.459" x1="108.2" y1="368.2" x2="1491.8" y2="368.2"/>
	<line fill="none" stroke="#000000" stroke-width="0.459" x1="158.8" y1="373" x2="166.2" y2="373"/>
	<g enable-background="new    ">
		<path d="M163.5,370.9c1.4,0,2.2,1,1.8,2.2c-0.4,1.2-1.9,2.2-3.4,2.2c-1.4,0-2.2-1-1.7-2.2C160.6,371.8,162.1,370.9,163.5,370.9z"
			/>
	</g>
	<line fill="none" stroke="#000000" stroke-width="0.459" x1="164.8" y1="372.2" x2="164.8" y2="358.6"/>
	<g enable-background="new    ">
		<path d="M170.7,368.5c1.4,0,2.2,1,1.8,2.2c-0.4,1.2-1.9,2.2-3.4,2.2c-1.4,0-2.2-1-1.7-2.2C167.8,369.4,169.3,368.5,170.7,368.5z"
			/>
	</g>
	<line fill="none" stroke="#000000" stroke-width="0.459" x1="172" y1="369.8" x2="172" y2="357.4"/>
	<path d="M164.5,357.4l7.7-1.2v2.4l-7.7,1.2V357.4z"/>
	<line fill="none" stroke="#000000" stroke-width="0.459" x1="183.4" y1="365" x2="183.4" y2="349"/>
	<g enable-background="new    ">
		<path d="M182.1,363.7c1.4,0,2.2,1,1.8,2.2c-0.4,1.2-1.9,2.2-3.4,2.2c-1.4,0-2.2-1-1.7-2.2C179.2,364.6,180.7,363.7,182.1,363.7z"
			/>
	</g>
	<line fill="none" stroke="#000000" stroke-width="0.459" x1="200.4" y1="365" x2="200.4" y2="349"/>
	<g enable-background="new    ">
		<path d="M199.1,363.7c1.4,0,2.2,1,1.8,2.2c-0.4,1.2-1.9,2.2-3.4,2.2c-1.4,0-2.2-1-1.7-2.2C196.2,364.6,197.7,363.7,199.1,363.7z"
			/>
	</g>
	<g enable-background="new    ">
		<path d="M216,362.4c-0.8,0-1.5,0.5-1.5,1.4c0,0.6,1,1.5,1,1.5l-0.2,0.2c0,0-2.2-1.3-2.5-2.7c-0.1-0.9,0.5-1.8,1.6-1.9
			c0.4,0,1.2,0.1,1.5,0.2c-1.8-1.8-2.8-3-2.7-3.4c0.4-0.4,1.7-2.1,1.7-3.4c0-0.9-1.3-2.9-1.3-2.9l0.3-0.2l3.5,4.4c0,0-1.7,2-1.7,3.4
			c0,1,0.6,1.8,1.1,2.3c0.2,0.3,1,1.1,1,1.2l0,0.3C216.9,362.5,216.4,362.4,216,362.4z"/>
	</g>
	<g enable-background="new    ">
		<path d="M233.1,358.9c1.4,0,2.2,1,1.8,2.2c-0.4,1.2-1.9,2.2-3.4,2.2c-1.4,0-2.2-1-1.7-2.2C230.2,359.8,231.7,358.9,233.1,358.9z"
			/>
	</g>
	<line fill="none" stroke="#000000" stroke-width="0.459" x1="229.8" y1="361.8" x2="229.8" y2="376.6"/>
	<g enable-background="new    ">
		<path d="M243.5,354.1c1.4,0,2.2,1,1.8,2.2c-0.4,1.2-1.9,2.2-3.4,2.2c-1.4,0-2.2-1-1.7-2.2C240.6,355,242.1,354.1,243.5,354.1z"/>
	</g>
	<line fill="none" stroke="#000000" stroke-width="0.459" x1="240.2" y1="357" x2="240.2" y2="374.2"/>
	<path d="M229.6,375.4l10.9-2.4v2.4l-10.9,2.4V375.4z"/>
	<g enable-background="new    ">
		<path d="M162.2,336.2l2.2-5.7h0.8l2.3,5.7h-0.9l-0.7-1.7h-2.4l-0.6,1.7H162.2z M163.8,333.8h1.9l-0.6-1.6
			c-0.2-0.5-0.3-0.9-0.4-1.2c-0.1,0.4-0.2,0.7-0.3,1.1L163.8,333.8z"/>
	</g>
	<g enable-background="new    ">
		<path d="M179.3,345.4v-5.7h3.9v0.7H180v1.8h2.7v0.7H180v2.6H179.3z"/>
	</g>
	<line fill="none" stroke="#000000" stroke-width="0.459" x1="256.2" y1="354.6" x2="256.2" y2="370.6"/>
	<g enable-background="new    ">
		<path d="M259.5,351.7c1.4,0,2.2,1,1.8,2.2c-0.4,1.2-1.9,2.2-3.4,2.2c-1.4,0-2.2-1-1.7-2.2C256.6,352.6,258.1,351.7,259.5,351.7z"
			/>
	</g>
	<line fill="none" stroke="#000000" stroke-width="0.459" x1="273.2" y1="354.6" x2="273.2" y2="370.6"/>
	<g enable-background="new    ">
		<path d="M276.5,351.7c1.4,0,2.2,1,1.8,2.2c-0.4,1.2-1.9,2.2-3.4,2.2c-1.4,0-2.2-1-1.7-2.2C273.6,352.6,275.1,351.7,276.5,351.7z"
			/>
	</g>
	<g enable-background="new    ">
		<path d="M293.4,362.4c-0.8,0-1.5,0.5-1.5,1.4c0,0.6,1,1.5,1,1.5l-0.2,0.2c0,0-2.2-1.3-2.5-2.7c-0.1-0.9,0.5-1.8,1.6-1.9
			c0.4,0,1.2,0.1,1.5,0.2c-1.8-1.8-2.8-3-2.7-3.4c0.4-0.4,1.7-2.1,1.7-3.4c0-0.9-1.3-2.9-1.3-2.9l0.3-0.2l3.5,4.4c0,0-1.7,2-1.7,3.4
			c0,1,0.6,1.8,1.1,2.3c0.2,0.3,1,1.1,1,1.2l0,0.3C294.3,362.5,293.8,362.4,293.4,362.4z"/>
	</g>
	<g enable-background="new    ">
		<path d="M310.3,351.7c1.4,0,2.2,1,1.8,2.2c-0.4,1.2-1.9,2.2-3.4,2.2c-1.4,0-2.2-1-1.7-2.2C307.4,352.6,308.9,351.7,310.3,351.7z"
			/>
	</g>
	<line fill="none" stroke="#000000" stroke-width="0.459" x1="307" y1="354.6" x2="307" y2="369.4"/>
	<g enable-background="new    ">
		<path d="M320.9,354.1c1.4,0,2.2,1,1.8,2.2c-0.4,1.2-1.9,2.2-3.4,2.2c-1.4,0-2.2-1-1.7-2.2C318,355,319.5,354.1,320.9,354.1z"/>
	</g>
	<line fill="none" stroke="#000000" stroke-width="0.459" x1="317.6" y1="357" x2="317.6" y2="371.8"/>
	<path d="M306.8,368.2l11.1,2.4v2.4l-11.1-2.4V368.2z"/>
	<g enable-background="new    ">
		<path d="M256.6,345.4v-5.7h2c0.4,0,0.8,0,1,0.1c0.3,0.1,0.6,0.2,0.8,0.4c0.3,0.3,0.5,0.6,0.7,1s0.2,0.9,0.2,1.4
			c0,0.4-0.1,0.8-0.2,1.2s-0.2,0.6-0.4,0.8s-0.3,0.4-0.5,0.5s-0.4,0.2-0.7,0.3s-0.6,0.1-0.9,0.1H256.6z M257.4,344.7h1.2
			c0.4,0,0.7,0,0.9-0.1s0.4-0.2,0.5-0.3c0.2-0.2,0.3-0.4,0.4-0.7s0.2-0.7,0.2-1.1c0-0.6-0.1-1.1-0.3-1.4s-0.4-0.5-0.7-0.6
			c-0.2-0.1-0.5-0.1-1-0.1h-1.2V344.7z"/>
	</g>
	<g enable-background="new    ">
		<path d="M263.3,345.4v-3.7h0.6v0.5c0.1-0.2,0.3-0.3,0.5-0.4c0.2-0.1,0.4-0.2,0.7-0.2c0.3,0,0.5,0.1,0.7,0.2
			c0.2,0.1,0.3,0.3,0.4,0.5c0.3-0.4,0.7-0.7,1.2-0.7c0.4,0,0.7,0.1,0.9,0.3s0.3,0.5,0.3,0.9v2.6h-0.6V343c0-0.3,0-0.4-0.1-0.5
			s-0.1-0.2-0.2-0.3c-0.1-0.1-0.2-0.1-0.4-0.1c-0.3,0-0.5,0.1-0.7,0.3s-0.3,0.5-0.3,0.8v2.2h-0.6V343c0-0.3-0.1-0.5-0.2-0.6
			c-0.1-0.1-0.3-0.2-0.5-0.2c-0.2,0-0.3,0-0.5,0.1s-0.3,0.2-0.3,0.4s-0.1,0.4-0.1,0.8v1.9H263.3z"/>
	</g>
	<line fill="none" stroke="#000000" stroke-width="0.459" x1="333.4" y1="357" x2="333.4" y2="373"/>
	<g enable-background="new    ">
		<path d="M336.7,354.1c1.4,0,2.2,1,1.8,2.2c-0.4,1.2-1.9,2.2-3.4,2.2c-1.4,0-2.2-1-1.7-2.2C333.8,355,335.3,354.1,336.7,354.1z"/>
	</g>
	<line fill="none" stroke="#000000" stroke-width="0.459" x1="350.4" y1="359.4" x2="350.4" y2="375.4"/>
	<g enable-background="new    ">
		<path d="M353.7,356.5c1.4,0,2.2,1,1.8,2.2c-0.4,1.2-1.9,2.2-3.4,2.2c-1.4,0-2.2-1-1.7-2.2C350.8,357.4,352.3,356.5,353.7,356.5z"
			/>
	</g>
	<g enable-background="new    ">
		<path d="M370.6,362.4c-0.8,0-1.5,0.5-1.5,1.4c0,0.6,1,1.5,1,1.5l-0.2,0.2c0,0-2.2-1.3-2.5-2.7c-0.1-0.9,0.5-1.8,1.6-1.9
			c0.4,0,1.2,0.1,1.5,0.2c-1.8-1.8-2.8-3-2.7-3.4c0.4-0.4,1.7-2.1,1.7-3.4c0-0.9-1.3-2.9-1.3-2.9l0.3-0.2l3.5,4.4c0,0-1.7,2-1.7,3.4
			c0,1,0.6,1.8,1.1,2.3c0.2,0.3,1,1.1,1,1.2l0,0.3C371.5,362.5,371,362.4,370.6,362.4z"/>
	</g>
	<g enable-background="new    ">
		<path d="M387.5,356.5c1.4,0,2.2,1,1.8,2.2c-0.4,1.2-1.9,2.2-3.4,2.2c-1.4,0-2.2-1-1.7-2.2C384.6,357.4,386.1,356.5,387.5,356.5z"
			/>
	</g>
	<line fill="none" stroke="#000000" stroke-width="0.459" x1="388.8" y1="357.8" x2="388.8" y2="343"/>
	<g enable-background="new    ">
		<path d="M398.1,358.9c1.4,0,2.2,1,1.8,2.2c-0.4,1.2-1.9,2.2-3.4,2.2c-1.4,0-2.2-1-1.7-2.2C395.2,359.8,396.7,358.9,398.1,358.9z"
			/>
	</g>
	<line fill="none" stroke="#000000" stroke-width="0.459" x1="399.4" y1="360.2" x2="399.4" y2="345.4"/>
	<path d="M388.5,341.8l11.1,2.4v2.4l-11.1-2.4V341.8z"/>
	<g enable-background="new    ">
		<path d="M333.8,345.4v-5.7h2.1c0.4,0,0.8,0.1,1.1,0.2s0.5,0.3,0.6,0.5s0.2,0.5,0.2,0.8c0,0.2-0.1,0.5-0.2,0.7s-0.3,0.4-0.6,0.5
			c0.3,0.1,0.6,0.3,0.8,0.5s0.3,0.5,0.3,0.9c0,0.3-0.1,0.5-0.2,0.7s-0.3,0.4-0.4,0.5s-0.4,0.2-0.6,0.3s-0.6,0.1-0.9,0.1H333.8z
			 M334.5,342.1h1.2c0.3,0,0.6,0,0.7-0.1c0.2-0.1,0.3-0.2,0.4-0.3s0.1-0.3,0.1-0.5c0-0.2,0-0.4-0.1-0.5s-0.2-0.2-0.4-0.3
			s-0.5-0.1-0.9-0.1h-1.1V342.1z M334.5,344.7h1.4c0.2,0,0.4,0,0.5,0c0.2,0,0.3-0.1,0.4-0.2s0.2-0.2,0.3-0.3s0.1-0.3,0.1-0.5
			c0-0.2-0.1-0.4-0.2-0.6s-0.3-0.3-0.5-0.3s-0.5-0.1-0.8-0.1h-1.3V344.7z"/>
	</g>
	<g enable-background="new    ">
		<path d="M339.4,339.2c0,0.1,0,1,0,1c0.6-0.5,0.9-0.7,1.6-0.7c0.8,0,1.3,0.8,1.3,1.4c0,0.3-0.1,0.7-0.2,1c-0.1,0.4-0.5,0.6-0.8,0.9
			c-0.3,0.3-2.4,1.7-2.4,1.7v-9.5h0.4C339.4,335.1,339.4,337.1,339.4,339.2z M339.6,340.8c-0.2,0.4-0.2,1.1-0.2,1.6v1.4
			c0,0,0.6-0.5,0.9-0.8c0.3-0.3,0.5-0.6,0.6-1.1c0.1-0.5,0.1-1-0.2-1.3C340.5,340.3,339.9,340.1,339.6,340.8z"/>
	</g>
	<line fill="none" stroke="#000000" stroke-width="0.459" x1="416" y1="360.2" x2="416" y2="344.2"/>
	<g enable-background="new    ">
		<path d="M415.5,361.1c-0.3,0.9-1,1.5-1.6,1.8c-0.5,0.3-1.2,0.4-2,0.3c-0.5,0-1.3-0.2-1.6-0.7c-0.3-0.6-0.1-1.2,0-1.6
			c0.3-0.8,1-1.4,1.5-1.7c0.5-0.3,1.3-0.5,2.2-0.4c0.4,0,1.1,0.1,1.5,0.7C415.8,360,415.6,360.8,415.5,361.1z M413.5,359.8
			c-0.4,0.2-0.7,0.4-1,0.5c-0.3,0.2-0.6,0.4-1,0.6c-0.5,0.3-1.1,0.9-0.8,1.4c0.3,0.6,1.1,0.3,1.6,0c0.4-0.2,0.7-0.4,1-0.5
			c0.3-0.2,0.6-0.4,1-0.6c0.5-0.3,1.1-0.9,0.8-1.4C414.9,359.2,414.1,359.5,413.5,359.8z"/>
	</g>
	<g enable-background="new    ">
		<path d="M443.8,362.4c-0.8,0-1.5,0.5-1.5,1.4c0,0.6,1,1.5,1,1.5l-0.2,0.2c0,0-2.2-1.3-2.5-2.7c-0.1-0.9,0.5-1.8,1.6-1.9
			c0.4,0,1.2,0.1,1.5,0.2c-1.8-1.8-2.8-3-2.7-3.4c0.4-0.4,1.7-2.1,1.7-3.4c0-0.9-1.3-2.9-1.3-2.9l0.3-0.2l3.5,4.4c0,0-1.7,2-1.7,3.4
			c0,1,0.6,1.8,1.1,2.3c0.2,0.3,1,1.1,1,1.2l0,0.3C444.7,362.5,444.2,362.4,443.8,362.4z"/>
	</g>
	<g enable-background="new    ">
		<path d="M462.7,356.5c1.4,0,2.2,1,1.8,2.2c-0.4,1.2-1.9,2.2-3.4,2.2c-1.4,0-2.2-1-1.7-2.2C459.8,357.4,461.3,356.5,462.7,356.5z"
			/>
	</g>
	<line fill="none" stroke="#000000" stroke-width="0.459" x1="464" y1="357.8" x2="464" y2="343"/>
	<g enable-background="new    ">
		<path d="M474.1,358.9c1.4,0,2.2,1,1.8,2.2c-0.4,1.2-1.9,2.2-3.4,2.2c-1.4,0-2.2-1-1.7-2.2C471.2,359.8,472.7,358.9,474.1,358.9z"
			/>
	</g>
	<line fill="none" stroke="#000000" stroke-width="0.459" x1="475.4" y1="360.2" x2="475.4" y2="345.4"/>
	<path d="M463.7,341.8l11.9,2.4v2.4l-11.9-2.4V341.8z"/>
	<g enable-background="new    ">
		<path d="M410.9,345.4v-5.7h3.9v0.7h-3.1v1.8h2.7v0.7h-2.7v2.6H410.9z"/>
	</g>
	<line fill="none" stroke="#000000" stroke-width="0.459" x1="492.2" y1="362.6" x2="492.2" y2="346.6"/>
	<g enable-background="new    ">
		<path d="M490.9,361.3c1.4,0,2.2,1,1.8,2.2c-0.4,1.2-1.9,2.2-3.4,2.2c-1.4,0-2.2-1-1.7-2.2C488,362.2,489.5,361.3,490.9,361.3z"/>
	</g>
	<line fill="none" stroke="#000000" stroke-width="0.459" x1="509.2" y1="362.6" x2="509.2" y2="346.6"/>
	<g enable-background="new    ">
		<path d="M507.9,361.3c1.4,0,2.2,1,1.8,2.2c-0.4,1.2-1.9,2.2-3.4,2.2c-1.4,0-2.2-1-1.7-2.2C505,362.2,506.5,361.3,507.9,361.3z"/>
	</g>
	<g enable-background="new    ">
		<path d="M524.8,362.4c-0.8,0-1.5,0.5-1.5,1.4c0,0.6,1,1.5,1,1.5l-0.2,0.2c0,0-2.2-1.3-2.5-2.7c-0.1-0.9,0.5-1.8,1.6-1.9
			c0.4,0,1.2,0.1,1.5,0.2c-1.8-1.8-2.8-3-2.7-3.4c0.4-0.4,1.7-2.1,1.7-3.4c0-0.9-1.3-2.9-1.3-2.9l0.3-0.2l3.5,4.4c0,0-1.7,2-1.7,3.4
			c0,1,0.6,1.8,1.1,2.3c0.2,0.3,1,1.1,1,1.2l0,0.3C525.7,362.5,525.2,362.4,524.8,362.4z"/>
	</g>
	<g enable-background="new    ">
		<path d="M541.9,358.9c1.4,0,2.2,1,1.8,2.2c-0.4,1.2-1.9,2.2-3.4,2.2c-1.4,0-2.2-1-1.7-2.2C539,359.8,540.5,358.9,541.9,358.9z"/>
	</g>
	<line fill="none" stroke="#000000" stroke-width="0.459" x1="543.2" y1="360.2" x2="543.2" y2="345.4"/>
	<g enable-background="new    ">
		<path d="M552.3,361.3c1.4,0,2.2,1,1.8,2.2c-0.4,1.2-1.9,2.2-3.4,2.2c-1.4,0-2.2-1-1.7-2.2C549.4,362.2,550.9,361.3,552.3,361.3z"
			/>
	</g>
	<line fill="none" stroke="#000000" stroke-width="0.459" x1="553.6" y1="362.6" x2="553.6" y2="347.8"/>
	<path d="M542.9,344.2l10.9,2.4v2.4l-10.9-2.4V344.2z"/>
	<g enable-background="new    ">
		<path d="M490.7,343.2v-0.7l2.4,0v2.1c-0.4,0.3-0.8,0.5-1.2,0.7s-0.8,0.2-1.2,0.2c-0.6,0-1.1-0.1-1.5-0.4s-0.8-0.6-1-1
			s-0.4-1-0.4-1.5c0-0.6,0.1-1.1,0.3-1.6s0.6-0.8,1-1.1s0.9-0.4,1.5-0.4c0.4,0,0.8,0.1,1.1,0.2s0.6,0.3,0.8,0.6s0.3,0.6,0.4,0.9
			l-0.7,0.2c-0.1-0.3-0.2-0.5-0.3-0.7s-0.3-0.3-0.5-0.4s-0.5-0.2-0.8-0.2c-0.3,0-0.6,0.1-0.9,0.2s-0.5,0.2-0.6,0.4s-0.3,0.4-0.4,0.6
			c-0.1,0.4-0.2,0.7-0.2,1.2c0,0.5,0.1,0.9,0.3,1.3s0.4,0.6,0.8,0.8s0.7,0.2,1.1,0.2c0.3,0,0.6-0.1,1-0.2s0.5-0.3,0.7-0.4v-1.1
			H490.7z"/>
	</g>
	<g enable-background="new    ">
		<path d="M494.7,345.4v-3.7h0.6v0.5c0.1-0.2,0.3-0.3,0.5-0.4c0.2-0.1,0.4-0.2,0.7-0.2c0.3,0,0.5,0.1,0.7,0.2
			c0.2,0.1,0.3,0.3,0.4,0.5c0.3-0.4,0.7-0.7,1.2-0.7c0.4,0,0.7,0.1,0.9,0.3s0.3,0.5,0.3,0.9v2.6h-0.6V343c0-0.3,0-0.4-0.1-0.5
			s-0.1-0.2-0.2-0.3c-0.1-0.1-0.2-0.1-0.4-0.1c-0.3,0-0.5,0.1-0.7,0.3s-0.3,0.5-0.3,0.8v2.2h-0.6V343c0-0.3-0.1-0.5-0.2-0.6
			c-0.1-0.1-0.3-0.2-0.5-0.2c-0.2,0-0.3,0-0.5,0.1s-0.3,0.2-0.3,0.4s-0.1,0.4-0.1,0.8v1.9H494.7z"/>
	</g>
	<line fill="none" stroke="#000000" stroke-width="0.459" x1="569.4" y1="365" x2="569.4" y2="349"/>
	<g enable-background="new    ">
		<path d="M568.1,363.7c1.4,0,2.2,1,1.8,2.2c-0.4,1.2-1.9,2.2-3.4,2.2c-1.4,0-2.2-1-1.7-2.2C565.2,364.6,566.7,363.7,568.1,363.7z"
			/>
	</g>
	<line fill="none" stroke="#000000" stroke-width="0.459" x1="586.4" y1="365" x2="586.4" y2="349"/>
	<g enable-background="new    ">
		<path d="M585.1,363.7c1.4,0,2.2,1,1.8,2.2c-0.4,1.2-1.9,2.2-3.4,2.2c-1.4,0-2.2-1-1.7-2.2C582.2,364.6,583.7,363.7,585.1,363.7z"
			/>
	</g>
	<g enable-background="new    ">
		<path d="M602,362.4c-0.8,0-1.5,0.5-1.5,1.4c0,0.6,1,1.5,1,1.5l-0.2,0.2c0,0-2.2-1.3-2.5-2.7c-0.1-0.9,0.5-1.8,1.6-1.9
			c0.4,0,1.2,0.1,1.5,0.2c-1.8-1.8-2.8-3-2.7-3.4c0.4-0.4,1.7-2.1,1.7-3.4c0-0.9-1.3-2.9-1.3-2.9l0.3-0.2l3.5,4.4c0,0-1.7,2-1.7,3.4
			c0,1,0.6,1.8,1.1,2.3c0.2,0.3,1,1.1,1,1.2l0,0.3C602.9,362.5,602.4,362.4,602,362.4z"/>
	</g>
	<line fill="none" stroke="#000000" stroke-width="0.459" x1="614.4" y1="373" x2="621.8" y2="373"/>
	<g enable-background="new    ">
		<path d="M619.1,370.9c1.4,0,2.2,1,1.8,2.2c-0.4,1.2-1.9,2.2-3.4,2.2c-1.4,0-2.2-1-1.7-2.2C616.2,371.8,617.7,370.9,619.1,370.9z"
			/>
	</g>
	<line fill="none" stroke="#000000" stroke-width="0.459" x1="620.4" y1="372.2" x2="620.4" y2="358.6"/>
	<g enable-background="new    ">
		<path d="M629.5,368.5c1.4,0,2.2,1,1.8,2.2c-0.4,1.2-1.9,2.2-3.4,2.2c-1.4,0-2.2-1-1.7-2.2C626.6,369.4,628.1,368.5,629.5,368.5z"
			/>
	</g>
	<line fill="none" stroke="#000000" stroke-width="0.459" x1="630.8" y1="369.8" x2="630.8" y2="357.4"/>
	<path d="M620.1,357.4l10.9-1.2v2.4l-10.9,1.2V357.4z"/>
	<g enable-background="new    ">
		<path d="M565.2,345.4v-5.7h2c0.4,0,0.8,0,1,0.1c0.3,0.1,0.6,0.2,0.8,0.4c0.3,0.3,0.5,0.6,0.7,1s0.2,0.9,0.2,1.4
			c0,0.4-0.1,0.8-0.2,1.2s-0.2,0.6-0.4,0.8s-0.3,0.4-0.5,0.5s-0.4,0.2-0.7,0.3s-0.6,0.1-0.9,0.1H565.2z M566,344.7h1.2
			c0.4,0,0.7,0,0.9-0.1s0.4-0.2,0.5-0.3c0.2-0.2,0.3-0.4,0.4-0.7s0.2-0.7,0.2-1.1c0-0.6-0.1-1.1-0.3-1.4s-0.4-0.5-0.7-0.6
			c-0.2-0.1-0.5-0.1-1-0.1H566V344.7z"/>
	</g>
	<g enable-background="new    ">
		<path d="M571.9,345.4v-3.7h0.6v0.5c0.1-0.2,0.3-0.3,0.5-0.4c0.2-0.1,0.4-0.2,0.7-0.2c0.3,0,0.5,0.1,0.7,0.2
			c0.2,0.1,0.3,0.3,0.4,0.5c0.3-0.4,0.7-0.7,1.2-0.7c0.4,0,0.7,0.1,0.9,0.3s0.3,0.5,0.3,0.9v2.6h-0.6V343c0-0.3,0-0.4-0.1-0.5
			s-0.1-0.2-0.2-0.3c-0.1-0.1-0.2-0.1-0.4-0.1c-0.3,0-0.5,0.1-0.7,0.3s-0.3,0.5-0.3,0.8v2.2h-0.6V343c0-0.3-0.1-0.5-0.2-0.6
			c-0.1-0.1-0.3-0.2-0.5-0.2c-0.2,0-0.3,0-0.5,0.1s-0.3,0.2-0.3,0.4s-0.1,0.4-0.1,0.8v1.9H571.9z"/>
	</g>
	<line fill="none" stroke="#000000" stroke-width="0.459" x1="646.6" y1="360.2" x2="646.6" y2="344.2"/>
	<g enable-background="new    ">
		<path d="M645.3,358.9c1.4,0,2.2,1,1.8,2.2c-0.4,1.2-1.9,2.2-3.4,2.2c-1.4,0-2.2-1-1.7-2.2C642.4,359.8,643.9,358.9,645.3,358.9z"
			/>
	</g>
	<line fill="none" stroke="#000000" stroke-width="0.459" x1="663.6" y1="362.6" x2="663.6" y2="346.6"/>
	<g enable-background="new    ">
		<path d="M662.3,361.3c1.4,0,2.2,1,1.8,2.2c-0.4,1.2-1.9,2.2-3.4,2.2c-1.4,0-2.2-1-1.7-2.2C659.4,362.2,660.9,361.3,662.3,361.3z"
			/>
	</g>
	<g enable-background="new    ">
		<path d="M679.2,362.4c-0.8,0-1.5,0.5-1.5,1.4c0,0.6,1,1.5,1,1.5l-0.2,0.2c0,0-2.2-1.3-2.5-2.7c-0.1-0.9,0.5-1.8,1.6-1.9
			c0.4,0,1.2,0.1,1.5,0.2c-1.8-1.8-2.8-3-2.7-3.4c0.4-0.4,1.7-2.1,1.7-3.4c0-0.9-1.3-2.9-1.3-2.9l0.3-0.2l3.5,4.4c0,0-1.7,2-1.7,3.4
			c0,1,0.6,1.8,1.1,2.3c0.2,0.3,1,1.1,1,1.2l0,0.3C680.1,362.5,679.6,362.4,679.2,362.4z"/>
	</g>
	<g enable-background="new    ">
		<path d="M696.3,361.3c1.4,0,2.2,1,1.8,2.2c-0.4,1.2-1.9,2.2-3.4,2.2c-1.4,0-2.2-1-1.7-2.2C693.4,362.2,694.9,361.3,696.3,361.3z"
			/>
	</g>
	<line fill="none" stroke="#000000" stroke-width="0.459" x1="697.6" y1="362.6" x2="697.6" y2="349"/>
	<g enable-background="new    ">
		<path d="M706.7,363.7c1.4,0,2.2,1,1.8,2.2c-0.4,1.2-1.9,2.2-3.4,2.2c-1.4,0-2.2-1-1.7-2.2C703.8,364.6,705.3,363.7,706.7,363.7z"
			/>
	</g>
	<line fill="none" stroke="#000000" stroke-width="0.459" x1="708" y1="365" x2="708" y2="350.2"/>
	<path d="M697.3,347.8l10.9,1.2v2.4l-10.9-1.2V347.8z"/>
	<g enable-background="new    ">
		<path d="M645.1,343.2v-0.7l2.4,0v2.1c-0.4,0.3-0.8,0.5-1.2,0.7s-0.8,0.2-1.2,0.2c-0.6,0-1.1-0.1-1.5-0.4s-0.8-0.6-1-1
			s-0.4-1-0.4-1.5c0-0.6,0.1-1.1,0.3-1.6s0.6-0.8,1-1.1s0.9-0.4,1.5-0.4c0.4,0,0.8,0.1,1.1,0.2s0.6,0.3,0.8,0.6s0.3,0.6,0.4,0.9
			l-0.7,0.2c-0.1-0.3-0.2-0.5-0.3-0.7s-0.3-0.3-0.5-0.4s-0.5-0.2-0.8-0.2c-0.3,0-0.6,0.1-0.9,0.2s-0.5,0.2-0.6,0.4s-0.3,0.4-0.4,0.6
			c-0.1,0.4-0.2,0.7-0.2,1.2c0,0.5,0.1,0.9,0.3,1.3s0.4,0.6,0.8,0.8s0.7,0.2,1.1,0.2c0.3,0,0.6-0.1,1-0.2s0.5-0.3,0.7-0.4v-1.1
			H645.1z"/>
	</g>
	<g enable-background="new    ">
		<path d="M649.1,345.4v-3.7h0.6v0.5c0.1-0.2,0.3-0.3,0.5-0.4c0.2-0.1,0.4-0.2,0.7-0.2c0.3,0,0.5,0.1,0.7,0.2
			c0.2,0.1,0.3,0.3,0.4,0.5c0.3-0.4,0.7-0.7,1.2-0.7c0.4,0,0.7,0.1,0.9,0.3s0.3,0.5,0.3,0.9v2.6h-0.6V343c0-0.3,0-0.4-0.1-0.5
			s-0.1-0.2-0.2-0.3c-0.1-0.1-0.2-0.1-0.4-0.1c-0.3,0-0.5,0.1-0.7,0.3s-0.3,0.5-0.3,0.8v2.2h-0.6V343c0-0.3-0.1-0.5-0.2-0.6
			c-0.1-0.1-0.3-0.2-0.5-0.2c-0.2,0-0.3,0-0.5,0.1s-0.3,0.2-0.3,0.4s-0.1,0.4-0.1,0.8v1.9H649.1z"/>
	</g>
	<line fill="none" stroke="#000000" stroke-width="0.459" x1="724.8" y1="365" x2="724.8" y2="349"/>
	<g enable-background="new    ">
		<path d="M724.3,365.9c-0.3,0.9-1,1.5-1.6,1.8c-0.5,0.3-1.2,0.4-2,0.3c-0.5,0-1.3-0.2-1.6-0.7c-0.3-0.6-0.1-1.2,0-1.6
			c0.3-0.8,1-1.4,1.5-1.7c0.5-0.3,1.3-0.5,2.2-0.4c0.4,0,1.1,0.1,1.5,0.7C724.6,364.8,724.4,365.6,724.3,365.9z M722.3,364.6
			c-0.4,0.2-0.7,0.4-1,0.5c-0.3,0.2-0.6,0.4-1,0.6c-0.5,0.3-1.1,0.9-0.8,1.4c0.3,0.6,1.1,0.3,1.6,0c0.4-0.2,0.7-0.4,1-0.5
			c0.3-0.2,0.6-0.4,1-0.6c0.5-0.3,1.1-0.9,0.8-1.4C723.7,364,722.9,364.3,722.3,364.6z"/>
	</g>
	<g enable-background="new    ">
		<path d="M766.8,362.4c-0.8,0-1.5,0.5-1.5,1.4c0,0.6,1,1.5,1,1.5l-0.2,0.2c0,0-2.2-1.3-2.5-2.7c-0.1-0.9,0.5-1.8,1.6-1.9
			c0.4,0,1.2,0.1,1.5,0.2c-1.8-1.8-2.8-3-2.7-3.4c0.4-0.4,1.7-2.1,1.7-3.4c0-0.9-1.3-2.9-1.3-2.9l0.3-0.2l3.5,4.4c0,0-1.7,2-1.7,3.4
			c0,1,0.6,1.8,1.1,2.3c0.2,0.3,1,1.1,1,1.2l0,0.3C767.7,362.5,767.2,362.4,766.8,362.4z"/>
	</g>
	<g enable-background="new    ">
		<path d="M719.7,345.4v-5.7h3.9v0.7h-3.1v1.8h2.7v0.7h-2.7v2.6H719.7z"/>
	</g>
	<line fill="none" stroke="#000000" stroke-width="0.459" x1="796.4" y1="373" x2="803.8" y2="373"/>
	<g enable-background="new    ">
		<path d="M801.1,370.9c1.4,0,2.2,1,1.8,2.2c-0.4,1.2-1.9,2.2-3.4,2.2c-1.4,0-2.2-1-1.7-2.2C798.2,371.8,799.7,370.9,801.1,370.9z"
			/>
	</g>
	<line fill="none" stroke="#000000" stroke-width="0.459" x1="802.4" y1="372.2" x2="802.4" y2="358.6"/>
	<g enable-background="new    ">
		<path d="M813.9,368.5c1.4,0,2.2,1,1.8,2.2c-0.4,1.2-1.9,2.2-3.4,2.2c-1.4,0-2.2-1-1.7-2.2C811,369.4,812.5,368.5,813.9,368.5z"/>
	</g>
	<line fill="none" stroke="#000000" stroke-width="0.459" x1="815.2" y1="369.8" x2="815.2" y2="357.4"/>
	<path d="M802.1,357.4l13.3-1.2v2.4l-13.3,1.2V357.4z"/>
	<line fill="none" stroke="#000000" stroke-width="0.459" x1="878.2" y1="365" x2="878.2" y2="349"/>
	<g enable-background="new    ">
		<path d="M876.9,363.7c1.4,0,2.2,1,1.8,2.2c-0.4,1.2-1.9,2.2-3.4,2.2c-1.4,0-2.2-1-1.7-2.2C874,364.6,875.5,363.7,876.9,363.7z"/>
	</g>
	<line fill="none" stroke="#000000" stroke-width="0.459" x1="895.2" y1="365" x2="895.2" y2="349"/>
	<g enable-background="new    ">
		<path d="M893.9,363.7c1.4,0,2.2,1,1.8,2.2c-0.4,1.2-1.9,2.2-3.4,2.2c-1.4,0-2.2-1-1.7-2.2C891,364.6,892.5,363.7,893.9,363.7z"/>
	</g>
	<g enable-background="new    ">
		<path d="M910.8,362.4c-0.8,0-1.5,0.5-1.5,1.4c0,0.6,1,1.5,1,1.5l-0.2,0.2c0,0-2.2-1.3-2.5-2.7c-0.1-0.9,0.5-1.8,1.6-1.9
			c0.4,0,1.2,0.1,1.5,0.2c-1.8-1.8-2.8-3-2.7-3.4c0.4-0.4,1.7-2.1,1.7-3.4c0-0.9-1.3-2.9-1.3-2.9l0.3-0.2l3.5,4.4c0,0-1.7,2-1.7,3.4
			c0,1,0.6,1.8,1.1,2.3c0.2,0.3,1,1.1,1,1.2l0,0.3C911.7,362.5,911.2,362.4,910.8,362.4z"/>
	</g>
	<g enable-background="new    ">
		<path d="M927.9,358.9c1.4,0,2.2,1,1.8,2.2c-0.4,1.2-1.9,2.2-3.4,2.2c-1.4,0-2.2-1-1.7-2.2C925,359.8,926.5,358.9,927.9,358.9z"/>
	</g>
	<line fill="none" stroke="#000000" stroke-width="0.459" x1="924.6" y1="361.8" x2="924.6" y2="376.6"/>
	<g enable-background="new    ">
		<path d="M938.3,354.1c1.4,0,2.2,1,1.8,2.2c-0.4,1.2-1.9,2.2-3.4,2.2c-1.4,0-2.2-1-1.7-2.2C935.4,355,936.9,354.1,938.3,354.1z"/>
	</g>
	<line fill="none" stroke="#000000" stroke-width="0.459" x1="935" y1="357" x2="935" y2="374.2"/>
	<path d="M924.4,375.4l10.9-2.4v2.4l-10.9,2.4V375.4z"/>
	<g enable-background="new    ">
		<path d="M796.2,336.2l2.2-5.7h0.8l2.3,5.7h-0.9l-0.7-1.7h-2.4l-0.6,1.7H796.2z M797.8,333.8h1.9l-0.6-1.6
			c-0.2-0.5-0.3-0.9-0.4-1.2c-0.1,0.4-0.2,0.7-0.3,1.1L797.8,333.8z"/>
	</g>
	<g enable-background="new    ">
		<path d="M874.1,345.4v-5.7h3.9v0.7h-3.1v1.8h2.7v0.7h-2.7v2.6H874.1z"/>
	</g>
	<line fill="none" stroke="#000000" stroke-width="0.459" x1="951" y1="354.6" x2="951" y2="370.6"/>
	<g enable-background="new    ">
		<path d="M954.3,351.7c1.4,0,2.2,1,1.8,2.2c-0.4,1.2-1.9,2.2-3.4,2.2c-1.4,0-2.2-1-1.7-2.2C951.4,352.6,952.9,351.7,954.3,351.7z"
			/>
	</g>
	<line fill="none" stroke="#000000" stroke-width="0.459" x1="968" y1="354.6" x2="968" y2="370.6"/>
	<g enable-background="new    ">
		<path d="M971.3,351.7c1.4,0,2.2,1,1.8,2.2c-0.4,1.2-1.9,2.2-3.4,2.2c-1.4,0-2.2-1-1.7-2.2C968.4,352.6,969.9,351.7,971.3,351.7z"
			/>
	</g>
	<g enable-background="new    ">
		<path d="M988.2,362.4c-0.8,0-1.5,0.5-1.5,1.4c0,0.6,1,1.5,1,1.5l-0.2,0.2c0,0-2.2-1.3-2.5-2.7c-0.1-0.9,0.5-1.8,1.6-1.9
			c0.4,0,1.2,0.1,1.5,0.2c-1.8-1.8-2.8-3-2.7-3.4c0.4-0.4,1.7-2.1,1.7-3.4c0-0.9-1.3-2.9-1.3-2.9l0.3-0.2l3.5,4.4c0,0-1.7,2-1.7,3.4
			c0,1,0.6,1.8,1.1,2.3c0.2,0.3,1,1.1,1,1.2l0,0.3C989.1,362.5,988.6,362.4,988.2,362.4z"/>
	</g>
	<g enable-background="new    ">
		<path d="M1005.1,351.7c1.4,0,2.2,1,1.8,2.2c-0.4,1.2-1.9,2.2-3.4,2.2c-1.4,0-2.2-1-1.7-2.2
			C1002.2,352.6,1003.7,351.7,1005.1,351.7z"/>
	</g>
	<line fill="none" stroke="#000000" stroke-width="0.459" x1="1001.8" y1="354.6" x2="1001.8" y2="369.4"/>
	<g enable-background="new    ">
		<path d="M1015.7,354.1c1.4,0,2.2,1,1.8,2.2c-0.4,1.2-1.9,2.2-3.4,2.2c-1.4,0-2.2-1-1.7-2.2C1012.8,355,1014.3,354.1,1015.7,354.1z
			"/>
	</g>
	<line fill="none" stroke="#000000" stroke-width="0.459" x1="1012.4" y1="357" x2="1012.4" y2="371.8"/>
	<path d="M1001.6,368.2l11.1,2.4v2.4l-11.1-2.4V368.2z"/>
	<g enable-background="new    ">
		<path d="M951.4,345.4v-5.7h2c0.4,0,0.8,0,1,0.1c0.3,0.1,0.6,0.2,0.8,0.4c0.3,0.3,0.5,0.6,0.7,1s0.2,0.9,0.2,1.4
			c0,0.4-0.1,0.8-0.2,1.2s-0.2,0.6-0.4,0.8s-0.3,0.4-0.5,0.5s-0.4,0.2-0.7,0.3s-0.6,0.1-0.9,0.1H951.4z M952.2,344.7h1.2
			c0.4,0,0.7,0,0.9-0.1s0.4-0.2,0.5-0.3c0.2-0.2,0.3-0.4,0.4-0.7s0.2-0.7,0.2-1.1c0-0.6-0.1-1.1-0.3-1.4s-0.4-0.5-0.7-0.6
			c-0.2-0.1-0.5-0.1-1-0.1h-1.2V344.7z"/>
	</g>
	<g enable-background="new    ">
		<path d="M958.1,345.4v-3.7h0.6v0.5c0.1-0.2,0.3-0.3,0.5-0.4s0.4-0.2,0.7-0.2c0.3,0,0.5,0.1,0.7,0.2c0.2,0.1,0.3,0.3,0.4,0.5
			c0.3-0.4,0.7-0.7,1.2-0.7c0.4,0,0.7,0.1,0.9,0.3s0.3,0.5,0.3,0.9v2.6h-0.6V343c0-0.3,0-0.4-0.1-0.5s-0.1-0.2-0.2-0.3
			c-0.1-0.1-0.2-0.1-0.4-0.1c-0.3,0-0.5,0.1-0.7,0.3c-0.2,0.2-0.3,0.5-0.3,0.8v2.2h-0.6V343c0-0.3-0.1-0.5-0.2-0.6s-0.3-0.2-0.5-0.2
			c-0.2,0-0.3,0-0.5,0.1c-0.2,0.1-0.3,0.2-0.3,0.4s-0.1,0.4-0.1,0.8v1.9H958.1z"/>
	</g>
	<line fill="none" stroke="#000000" stroke-width="0.459" x1="1028.2" y1="357" x2="1028.2" y2="373"/>
	<g enable-background="new    ">
		<path d="M1031.5,354.1c1.4,0,2.2,1,1.8,2.2c-0.4,1.2-1.9,2.2-3.4,2.2s-2.2-1-1.7-2.2C1028.6,355,1030.1,354.1,1031.5,354.1z"/>
	</g>
	<line fill="none" stroke="#000000" stroke-width="0.459" x1="1045.2" y1="359.4" x2="1045.2" y2="375.4"/>
	<g enable-background="new    ">
		<path d="M1048.5,356.5c1.4,0,2.2,1,1.8,2.2c-0.4,1.2-1.9,2.2-3.4,2.2s-2.2-1-1.7-2.2C1045.6,357.4,1047.1,356.5,1048.5,356.5z"/>
	</g>
	<g enable-background="new    ">
		<path d="M1065.4,362.4c-0.8,0-1.5,0.5-1.5,1.4c0,0.6,1,1.5,1,1.5l-0.2,0.2c0,0-2.2-1.3-2.5-2.7c-0.1-0.9,0.5-1.8,1.6-1.9
			c0.4,0,1.2,0.1,1.5,0.2c-1.8-1.8-2.8-3-2.7-3.4c0.4-0.4,1.7-2.1,1.7-3.4c0-0.9-1.3-2.9-1.3-2.9l0.3-0.2l3.5,4.4c0,0-1.7,2-1.7,3.4
			c0,1,0.6,1.8,1.1,2.3c0.2,0.3,1,1.1,1,1.2l0,0.3C1066.3,362.5,1065.8,362.4,1065.4,362.4z"/>
	</g>
	<g enable-background="new    ">
		<path d="M1082.3,356.5c1.4,0,2.2,1,1.8,2.2c-0.4,1.2-1.9,2.2-3.4,2.2c-1.4,0-2.2-1-1.7-2.2
			C1079.4,357.4,1080.9,356.5,1082.3,356.5z"/>
	</g>
	<line fill="none" stroke="#000000" stroke-width="0.459" x1="1083.6" y1="357.8" x2="1083.6" y2="343"/>
	<g enable-background="new    ">
		<path d="M1092.9,358.9c1.4,0,2.2,1,1.8,2.2c-0.4,1.2-1.9,2.2-3.4,2.2c-1.4,0-2.2-1-1.7-2.2C1090,359.8,1091.5,358.9,1092.9,358.9z
			"/>
	</g>
	<line fill="none" stroke="#000000" stroke-width="0.459" x1="1094.2" y1="360.2" x2="1094.2" y2="345.4"/>
	<path d="M1083.3,341.8l11.1,2.4v2.4l-11.1-2.4V341.8z"/>
	<g enable-background="new    ">
		<path d="M1028.6,345.4v-5.7h2.1c0.4,0,0.8,0.1,1.1,0.2s0.5,0.3,0.6,0.5s0.2,0.5,0.2,0.8c0,0.2-0.1,0.5-0.2,0.7s-0.3,0.4-0.6,0.5
			c0.3,0.1,0.6,0.3,0.8,0.5s0.3,0.5,0.3,0.9c0,0.3-0.1,0.5-0.2,0.7s-0.3,0.4-0.4,0.5s-0.4,0.2-0.6,0.3s-0.6,0.1-0.9,0.1H1028.6z
			 M1029.3,342.1h1.2c0.3,0,0.6,0,0.7-0.1c0.2-0.1,0.3-0.2,0.4-0.3s0.1-0.3,0.1-0.5c0-0.2,0-0.4-0.1-0.5s-0.2-0.2-0.4-0.3
			s-0.5-0.1-0.9-0.1h-1.1V342.1z M1029.3,344.7h1.4c0.2,0,0.4,0,0.5,0c0.2,0,0.3-0.1,0.4-0.2s0.2-0.2,0.3-0.3s0.1-0.3,0.1-0.5
			c0-0.2-0.1-0.4-0.2-0.6s-0.3-0.3-0.5-0.3s-0.5-0.1-0.8-0.1h-1.3V344.7z"/>
	</g>
	<g enable-background="new    ">
		<path d="M1034.2,339.2c0,0.1,0,1,0,1c0.6-0.5,0.9-0.7,1.6-0.7c0.8,0,1.3,0.8,1.3,1.4c0,0.3-0.1,0.7-0.2,1
			c-0.1,0.4-0.5,0.6-0.8,0.9c-0.3,0.3-2.4,1.7-2.4,1.7v-9.5h0.4C1034.2,335.1,1034.2,337.1,1034.2,339.2z M1034.4,340.8
			c-0.2,0.4-0.2,1.1-0.2,1.6v1.4c0,0,0.6-0.5,0.9-0.8c0.3-0.3,0.5-0.6,0.6-1.1c0.1-0.5,0.1-1-0.2-1.3
			C1035.3,340.3,1034.7,340.1,1034.4,340.8z"/>
	</g>
	<line fill="none" stroke="#000000" stroke-width="0.459" x1="1110.8" y1="360.2" x2="1110.8" y2="344.2"/>
	<g enable-background="new    ">
		<path d="M1110.3,361.1c-0.3,0.9-1,1.5-1.6,1.8c-0.5,0.3-1.2,0.4-2,0.3c-0.5,0-1.3-0.2-1.6-0.7c-0.3-0.6-0.1-1.2,0-1.6
			c0.3-0.8,1-1.4,1.5-1.7c0.5-0.3,1.3-0.5,2.2-0.4c0.4,0,1.1,0.1,1.5,0.7C1110.6,360,1110.4,360.8,1110.3,361.1z M1108.3,359.8
			c-0.4,0.2-0.7,0.4-1,0.5c-0.3,0.2-0.6,0.4-1,0.6c-0.5,0.3-1.1,0.9-0.8,1.4c0.3,0.6,1.1,0.3,1.6,0c0.4-0.2,0.7-0.4,1-0.5
			c0.3-0.2,0.6-0.4,1-0.6c0.5-0.3,1.1-0.9,0.8-1.4C1109.7,359.2,1108.9,359.5,1108.3,359.8z"/>
	</g>
	<g enable-background="new    ">
		<path d="M1138.6,362.4c-0.8,0-1.5,0.5-1.5,1.4c0,0.6,1,1.5,1,1.5l-0.2,0.2c0,0-2.2-1.3-2.5-2.7c-0.1-0.9,0.5-1.8,1.6-1.9
			c0.4,0,1.2,0.1,1.5,0.2c-1.8-1.8-2.8-3-2.7-3.4c0.4-0.4,1.7-2.1,1.7-3.4c0-0.9-1.3-2.9-1.3-2.9l0.3-0.2l3.5,4.4c0,0-1.7,2-1.7,3.4
			c0,1,0.6,1.8,1.1,2.3c0.2,0.3,1,1.1,1,1.2l0,0.3C1139.5,362.5,1139,362.4,1138.6,362.4z"/>
	</g>
	<g enable-background="new    ">
		<path d="M1157.5,356.5c1.4,0,2.2,1,1.8,2.2c-0.4,1.2-1.9,2.2-3.4,2.2s-2.2-1-1.7-2.2C1154.6,357.4,1156.1,356.5,1157.5,356.5z"/>
	</g>
	<line fill="none" stroke="#000000" stroke-width="0.459" x1="1158.8" y1="357.8" x2="1158.8" y2="343"/>
	<g enable-background="new    ">
		<path d="M1168.9,358.9c1.4,0,2.2,1,1.8,2.2c-0.4,1.2-1.9,2.2-3.4,2.2c-1.4,0-2.2-1-1.7-2.2C1166,359.8,1167.5,358.9,1168.9,358.9z
			"/>
	</g>
	<line fill="none" stroke="#000000" stroke-width="0.459" x1="1170.2" y1="360.2" x2="1170.2" y2="345.4"/>
	<path d="M1158.5,341.8l11.9,2.4v2.4l-11.9-2.4V341.8z"/>
	<g enable-background="new    ">
		<path d="M1105.7,345.4v-5.7h3.9v0.7h-3.1v1.8h2.7v0.7h-2.7v2.6H1105.7z"/>
	</g>
	<line fill="none" stroke="#000000" stroke-width="0.459" x1="1187" y1="362.6" x2="1187" y2="346.6"/>
	<g enable-background="new    ">
		<path d="M1185.7,361.3c1.4,0,2.2,1,1.8,2.2c-0.4,1.2-1.9,2.2-3.4,2.2c-1.4,0-2.2-1-1.7-2.2
			C1182.8,362.2,1184.3,361.3,1185.7,361.3z"/>
	</g>
	<line fill="none" stroke="#000000" stroke-width="0.459" x1="1204" y1="362.6" x2="1204" y2="346.6"/>
	<g enable-background="new    ">
		<path d="M1202.7,361.3c1.4,0,2.2,1,1.8,2.2c-0.4,1.2-1.9,2.2-3.4,2.2c-1.4,0-2.2-1-1.7-2.2
			C1199.8,362.2,1201.3,361.3,1202.7,361.3z"/>
	</g>
	<g enable-background="new    ">
		<path d="M1219.6,362.4c-0.8,0-1.5,0.5-1.5,1.4c0,0.6,1,1.5,1,1.5l-0.2,0.2c0,0-2.2-1.3-2.5-2.7c-0.1-0.9,0.5-1.8,1.6-1.9
			c0.4,0,1.2,0.1,1.5,0.2c-1.8-1.8-2.8-3-2.7-3.4c0.4-0.4,1.7-2.1,1.7-3.4c0-0.9-1.3-2.9-1.3-2.9l0.3-0.2l3.5,4.4c0,0-1.7,2-1.7,3.4
			c0,1,0.6,1.8,1.1,2.3c0.2,0.3,1,1.1,1,1.2l0,0.3C1220.5,362.5,1220,362.4,1219.6,362.4z"/>
	</g>
	<g enable-background="new    ">
		<path d="M1236.7,358.9c1.4,0,2.2,1,1.8,2.2c-0.4,1.2-1.9,2.2-3.4,2.2c-1.4,0-2.2-1-1.7-2.2
			C1233.8,359.8,1235.3,358.9,1236.7,358.9z"/>
	</g>
	<line fill="none" stroke="#000000" stroke-width="0.459" x1="1238" y1="360.2" x2="1238" y2="345.4"/>
	<g enable-background="new    ">
		<path d="M1247.1,361.3c1.4,0,2.2,1,1.8,2.2c-0.4,1.2-1.9,2.2-3.4,2.2c-1.4,0-2.2-1-1.7-2.2
			C1244.2,362.2,1245.7,361.3,1247.1,361.3z"/>
	</g>
	<line fill="none" stroke="#000000" stroke-width="0.459" x1="1248.4" y1="362.6" x2="1248.4" y2="347.8"/>
	<path d="M1237.7,344.2l10.9,2.4v2.4l-10.9-2.4V344.2z"/>
	<g enable-background="new    ">
		<path d="M1185.5,343.2v-0.7l2.4,0v2.1c-0.4,0.3-0.8,0.5-1.2,0.7s-0.8,0.2-1.2,0.2c-0.6,0-1.1-0.1-1.5-0.4s-0.8-0.6-1-1
			s-0.4-1-0.4-1.5c0-0.6,0.1-1.1,0.3-1.6s0.6-0.8,1-1.1s0.9-0.4,1.5-0.4c0.4,0,0.8,0.1,1.1,0.2s0.6,0.3,0.8,0.6s0.3,0.6,0.4,0.9
			l-0.7,0.2c-0.1-0.3-0.2-0.5-0.3-0.7s-0.3-0.3-0.5-0.4s-0.5-0.2-0.8-0.2c-0.3,0-0.6,0.1-0.9,0.2s-0.5,0.2-0.6,0.4s-0.3,0.4-0.4,0.6
			c-0.1,0.4-0.2,0.7-0.2,1.2c0,0.5,0.1,0.9,0.3,1.3s0.4,0.6,0.8,0.8s0.7,0.2,1.1,0.2c0.3,0,0.6-0.1,1-0.2s0.5-0.3,0.7-0.4v-1.1
			H1185.5z"/>
	</g>
	<g enable-background="new    ">
		<path d="M1189.5,345.4v-3.7h0.6v0.5c0.1-0.2,0.3-0.3,0.5-0.4c0.2-0.1,0.4-0.2,0.7-0.2c0.3,0,0.5,0.1,0.7,0.2
			c0.2,0.1,0.3,0.3,0.4,0.5c0.3-0.4,0.7-0.7,1.2-0.7c0.4,0,0.7,0.1,0.9,0.3s0.3,0.5,0.3,0.9v2.6h-0.6V343c0-0.3,0-0.4-0.1-0.5
			s-0.1-0.2-0.2-0.3c-0.1-0.1-0.2-0.1-0.4-0.1c-0.3,0-0.5,0.1-0.7,0.3s-0.3,0.5-0.3,0.8v2.2h-0.6V343c0-0.3-0.1-0.5-0.2-0.6
			c-0.1-0.1-0.3-0.2-0.5-0.2c-0.2,0-0.3,0-0.5,0.1s-0.3,0.2-0.3,0.4c-0.1,0.2-0.1,0.4-0.1,0.8v1.9H1189.5z"/>
	</g>
	<line fill="none" stroke="#000000" stroke-width="0.459" x1="1264.2" y1="365" x2="1264.2" y2="349"/>
	<g enable-background="new    ">
		<path d="M1262.9,363.7c1.4,0,2.2,1,1.8,2.2c-0.4,1.2-1.9,2.2-3.4,2.2c-1.4,0-2.2-1-1.7-2.2C1260,364.6,1261.5,363.7,1262.9,363.7z
			"/>
	</g>
	<line fill="none" stroke="#000000" stroke-width="0.459" x1="1281.2" y1="365" x2="1281.2" y2="349"/>
	<g enable-background="new    ">
		<path d="M1279.9,363.7c1.4,0,2.2,1,1.8,2.2c-0.4,1.2-1.9,2.2-3.4,2.2c-1.4,0-2.2-1-1.7-2.2C1277,364.6,1278.5,363.7,1279.9,363.7z
			"/>
	</g>
	<g enable-background="new    ">
		<path d="M1296.8,362.4c-0.8,0-1.5,0.5-1.5,1.4c0,0.6,1,1.5,1,1.5l-0.2,0.2c0,0-2.2-1.3-2.5-2.7c-0.1-0.9,0.5-1.8,1.6-1.9
			c0.4,0,1.2,0.1,1.5,0.2c-1.8-1.8-2.8-3-2.7-3.4c0.4-0.4,1.7-2.1,1.7-3.4c0-0.9-1.3-2.9-1.3-2.9l0.3-0.2l3.5,4.4c0,0-1.7,2-1.7,3.4
			c0,1,0.6,1.8,1.1,2.3c0.2,0.3,1,1.1,1,1.2l0,0.3C1297.7,362.5,1297.2,362.4,1296.8,362.4z"/>
	</g>
	<line fill="none" stroke="#000000" stroke-width="0.459" x1="1309.2" y1="373" x2="1316.6" y2="373"/>
	<g enable-background="new    ">
		<path d="M1313.9,370.9c1.4,0,2.2,1,1.8,2.2c-0.4,1.2-1.9,2.2-3.4,2.2c-1.4,0-2.2-1-1.7-2.2C1311,371.8,1312.5,370.9,1313.9,370.9z
			"/>
	</g>
	<line fill="none" stroke="#000000" stroke-width="0.459" x1="1315.2" y1="372.2" x2="1315.2" y2="358.6"/>
	<g enable-background="new    ">
		<path d="M1324.3,368.5c1.4,0,2.2,1,1.8,2.2c-0.4,1.2-1.9,2.2-3.4,2.2c-1.4,0-2.2-1-1.7-2.2
			C1321.4,369.4,1322.9,368.5,1324.3,368.5z"/>
	</g>
	<line fill="none" stroke="#000000" stroke-width="0.459" x1="1325.6" y1="369.8" x2="1325.6" y2="357.4"/>
	<path d="M1314.9,357.4l10.9-1.2v2.4l-10.9,1.2V357.4z"/>
	<g enable-background="new    ">
		<path d="M1260,345.4v-5.7h2c0.4,0,0.8,0,1,0.1c0.3,0.1,0.6,0.2,0.8,0.4c0.3,0.3,0.5,0.6,0.7,1c0.1,0.4,0.2,0.9,0.2,1.4
			c0,0.4-0.1,0.8-0.2,1.2s-0.2,0.6-0.4,0.8c-0.2,0.2-0.3,0.4-0.5,0.5c-0.2,0.1-0.4,0.2-0.7,0.3c-0.3,0.1-0.6,0.1-0.9,0.1H1260z
			 M1260.8,344.7h1.2c0.4,0,0.7,0,0.9-0.1s0.4-0.2,0.5-0.3c0.2-0.2,0.3-0.4,0.4-0.7c0.1-0.3,0.2-0.7,0.2-1.1c0-0.6-0.1-1.1-0.3-1.4
			c-0.2-0.3-0.4-0.5-0.7-0.6c-0.2-0.1-0.5-0.1-1-0.1h-1.2V344.7z"/>
	</g>
	<g enable-background="new    ">
		<path d="M1266.7,345.4v-3.7h0.6v0.5c0.1-0.2,0.3-0.3,0.5-0.4c0.2-0.1,0.4-0.2,0.7-0.2c0.3,0,0.5,0.1,0.7,0.2
			c0.2,0.1,0.3,0.3,0.4,0.5c0.3-0.4,0.7-0.7,1.2-0.7c0.4,0,0.7,0.1,0.9,0.3s0.3,0.5,0.3,0.9v2.6h-0.6V343c0-0.3,0-0.4-0.1-0.5
			s-0.1-0.2-0.2-0.3c-0.1-0.1-0.2-0.1-0.4-0.1c-0.3,0-0.5,0.1-0.7,0.3s-0.3,0.5-0.3,0.8v2.2h-0.6V343c0-0.3-0.1-0.5-0.2-0.6
			s-0.3-0.2-0.5-0.2c-0.2,0-0.3,0-0.5,0.1s-0.3,0.2-0.3,0.4c-0.1,0.2-0.1,0.4-0.1,0.8v1.9H1266.7z"/>
	</g>
	<line fill="none" stroke="#000000" stroke-width="0.459" x1="1341.4" y1="360.2" x2="1341.4" y2="344.2"/>
	<g enable-background="new    ">
		<path d="M1340.1,358.9c1.4,0,2.2,1,1.8,2.2c-0.4,1.2-1.9,2.2-3.4,2.2c-1.4,0-2.2-1-1.7-2.2
			C1337.2,359.8,1338.7,358.9,1340.1,358.9z"/>
	</g>
	<line fill="none" stroke="#000000" stroke-width="0.459" x1="1358.4" y1="362.6" x2="1358.4" y2="346.6"/>
	<g enable-background="new    ">
		<path d="M1357.1,361.3c1.4,0,2.2,1,1.8,2.2c-0.4,1.2-1.9,2.2-3.4,2.2c-1.4,0-2.2-1-1.7-2.2
			C1354.2,362.2,1355.7,361.3,1357.1,361.3z"/>
	</g>
	<g enable-background="new    ">
		<path d="M1374,362.4c-0.8,0-1.5,0.5-1.5,1.4c0,0.6,1,1.5,1,1.5l-0.2,0.2c0,0-2.2-1.3-2.5-2.7c-0.1-0.9,0.5-1.8,1.6-1.9
			c0.4,0,1.2,0.1,1.5,0.2c-1.8-1.8-2.8-3-2.7-3.4c0.4-0.4,1.7-2.1,1.7-3.4c0-0.9-1.3-2.9-1.3-2.9l0.3-0.2l3.5,4.4c0,0-1.7,2-1.7,3.4
			c0,1,0.6,1.8,1.1,2.3c0.2,0.3,1,1.1,1,1.2l0,0.3C1374.9,362.5,1374.4,362.4,1374,362.4z"/>
	</g>
	<g enable-background="new    ">
		<path d="M1391.1,361.3c1.4,0,2.2,1,1.8,2.2c-0.4,1.2-1.9,2.2-3.4,2.2c-1.4,0-2.2-1-1.7-2.2
			C1388.2,362.2,1389.7,361.3,1391.1,361.3z"/>
	</g>
	<line fill="none" stroke="#000000" stroke-width="0.459" x1="1392.4" y1="362.6" x2="1392.4" y2="349"/>
	<g enable-background="new    ">
		<path d="M1401.5,363.7c1.4,0,2.2,1,1.8,2.2c-0.4,1.2-1.9,2.2-3.4,2.2s-2.2-1-1.7-2.2C1398.6,364.6,1400.1,363.7,1401.5,363.7z"/>
	</g>
	<line fill="none" stroke="#000000" stroke-width="0.459" x1="1402.8" y1="365" x2="1402.8" y2="350.2"/>
	<path d="M1392.1,347.8l10.9,1.2v2.4l-10.9-1.2V347.8z"/>
	<g enable-background="new    ">
		<path d="M1339.9,343.2v-0.7l2.4,0v2.1c-0.4,0.3-0.8,0.5-1.2,0.7c-0.4,0.1-0.8,0.2-1.2,0.2c-0.6,0-1.1-0.1-1.5-0.4
			c-0.5-0.2-0.8-0.6-1-1s-0.4-1-0.4-1.5c0-0.6,0.1-1.1,0.3-1.6c0.2-0.5,0.6-0.8,1-1.1s0.9-0.4,1.5-0.4c0.4,0,0.8,0.1,1.1,0.2
			c0.3,0.1,0.6,0.3,0.8,0.6c0.2,0.2,0.3,0.6,0.4,0.9l-0.7,0.2c-0.1-0.3-0.2-0.5-0.3-0.7c-0.1-0.2-0.3-0.3-0.5-0.4
			c-0.2-0.1-0.5-0.2-0.8-0.2c-0.3,0-0.6,0.1-0.9,0.2c-0.3,0.1-0.5,0.2-0.6,0.4c-0.2,0.2-0.3,0.4-0.4,0.6c-0.1,0.4-0.2,0.7-0.2,1.2
			c0,0.5,0.1,0.9,0.3,1.3s0.4,0.6,0.8,0.8s0.7,0.2,1.1,0.2c0.3,0,0.6-0.1,1-0.2s0.5-0.3,0.7-0.4v-1.1H1339.9z"/>
	</g>
	<g enable-background="new    ">
		<path d="M1343.9,345.4v-3.7h0.6v0.5c0.1-0.2,0.3-0.3,0.5-0.4c0.2-0.1,0.4-0.2,0.7-0.2c0.3,0,0.5,0.1,0.7,0.2
			c0.2,0.1,0.3,0.3,0.4,0.5c0.3-0.4,0.7-0.7,1.2-0.7c0.4,0,0.7,0.1,0.9,0.3s0.3,0.5,0.3,0.9v2.6h-0.6V343c0-0.3,0-0.4-0.1-0.5
			s-0.1-0.2-0.2-0.3c-0.1-0.1-0.2-0.1-0.4-0.1c-0.3,0-0.5,0.1-0.7,0.3c-0.2,0.2-0.3,0.5-0.3,0.8v2.2h-0.6V343c0-0.3-0.1-0.5-0.2-0.6
			c-0.1-0.1-0.3-0.2-0.5-0.2c-0.2,0-0.3,0-0.5,0.1c-0.2,0.1-0.3,0.2-0.3,0.4s-0.1,0.4-0.1,0.8v1.9H1343.9z"/>
	</g>
	<line fill="none" stroke="#000000" stroke-width="0.459" x1="1419.6" y1="365" x2="1419.6" y2="349"/>
	<g enable-background="new    ">
		<path d="M1419.1,365.9c-0.3,0.9-1,1.5-1.6,1.8c-0.5,0.3-1.2,0.4-2,0.3c-0.5,0-1.3-0.2-1.6-0.7c-0.3-0.6-0.1-1.2,0-1.6
			c0.3-0.8,1-1.4,1.5-1.7c0.5-0.3,1.3-0.5,2.2-0.4c0.4,0,1.1,0.1,1.5,0.7C1419.4,364.8,1419.2,365.6,1419.1,365.9z M1417.1,364.6
			c-0.4,0.2-0.7,0.4-1,0.5c-0.3,0.2-0.6,0.4-1,0.6c-0.5,0.3-1.1,0.9-0.8,1.4c0.3,0.6,1.1,0.3,1.6,0c0.4-0.2,0.7-0.4,1-0.5
			c0.3-0.2,0.6-0.4,1-0.6c0.5-0.3,1.1-0.9,0.8-1.4C1418.5,364,1417.7,364.3,1417.1,364.6z"/>
	</g>
	<g enable-background="new    ">
		<path d="M1462.4,362.4c-0.8,0-1.5,0.5-1.5,1.4c0,0.6,1,1.5,1,1.5l-0.2,0.2c0,0-2.2-1.3-2.5-2.7c-0.1-0.9,0.5-1.8,1.6-1.9
			c0.4,0,1.2,0.1,1.5,0.2c-1.8-1.8-2.8-3-2.7-3.4c0.4-0.4,1.7-2.1,1.7-3.4c0-0.9-1.3-2.9-1.3-2.9l0.3-0.2l3.5,4.4c0,0-1.7,2-1.7,3.4
			c0,1,0.6,1.8,1.1,2.3c0.2,0.3,1,1.1,1,1.2l0,0.3C1463.3,362.5,1462.8,362.4,1462.4,362.4z"/>
	</g>
	<g enable-background="new    ">
		<path d="M1414.5,345.4v-5.7h3.9v0.7h-3.1v1.8h2.7v0.7h-2.7v2.6H1414.5z"/>
	</g>
	<g enable-background="new    ">
		<path d="M1442.2,332.4v-0.5l1.9,0v1.7c-0.3,0.2-0.6,0.4-0.9,0.5s-0.6,0.2-1,0.2c-0.4,0-0.9-0.1-1.2-0.3s-0.6-0.5-0.8-0.8
			s-0.3-0.8-0.3-1.2c0-0.4,0.1-0.9,0.3-1.2c0.2-0.4,0.5-0.7,0.8-0.9s0.8-0.3,1.2-0.3c0.3,0,0.6,0.1,0.9,0.2s0.5,0.3,0.6,0.4
			c0.2,0.2,0.3,0.4,0.3,0.8l-0.5,0.1c-0.1-0.2-0.2-0.4-0.3-0.5c-0.1-0.1-0.2-0.2-0.4-0.3s-0.4-0.1-0.6-0.1c-0.3,0-0.5,0-0.7,0.1
			c-0.2,0.1-0.4,0.2-0.5,0.3c-0.1,0.1-0.2,0.3-0.3,0.5c-0.1,0.3-0.2,0.6-0.2,0.9c0,0.4,0.1,0.8,0.2,1s0.3,0.5,0.6,0.6
			c0.3,0.1,0.6,0.2,0.9,0.2c0.3,0,0.5-0.1,0.8-0.2c0.2-0.1,0.4-0.2,0.6-0.3v-0.9H1442.2z"/>
		<path d="M1447.2,333.8c-0.2,0.2-0.4,0.3-0.6,0.4c-0.2,0.1-0.4,0.1-0.6,0.1c-0.4,0-0.6-0.1-0.8-0.3c-0.2-0.2-0.3-0.4-0.3-0.7
			c0-0.2,0-0.3,0.1-0.4s0.2-0.2,0.3-0.3s0.3-0.1,0.4-0.2c0.1,0,0.3-0.1,0.5-0.1c0.5-0.1,0.8-0.1,1-0.2c0-0.1,0-0.1,0-0.1
			c0-0.2-0.1-0.4-0.2-0.5c-0.1-0.1-0.4-0.2-0.6-0.2c-0.3,0-0.5,0-0.6,0.1c-0.1,0.1-0.2,0.3-0.3,0.5l-0.5-0.1c0-0.2,0.1-0.4,0.2-0.6
			c0.1-0.1,0.3-0.3,0.5-0.3s0.5-0.1,0.8-0.1c0.3,0,0.5,0,0.7,0.1c0.2,0.1,0.3,0.2,0.4,0.3c0.1,0.1,0.1,0.2,0.2,0.4
			c0,0.1,0,0.3,0,0.5v0.8c0,0.5,0,0.9,0,1s0.1,0.3,0.1,0.4h-0.6C1447.2,334.1,1447.2,333.9,1447.2,333.8z M1447.1,332.5
			c-0.2,0.1-0.5,0.2-0.9,0.2c-0.2,0-0.4,0.1-0.5,0.1c-0.1,0-0.2,0.1-0.2,0.2c-0.1,0.1-0.1,0.2-0.1,0.3c0,0.2,0.1,0.3,0.2,0.4
			s0.3,0.2,0.5,0.2c0.2,0,0.4,0,0.6-0.1s0.3-0.2,0.4-0.4c0.1-0.1,0.1-0.3,0.1-0.6V332.5z"/>
		<path d="M1449.5,334.2l-1.3-3.3h0.6l0.7,2c0.1,0.2,0.1,0.4,0.2,0.7c0-0.2,0.1-0.4,0.2-0.6l0.7-2h0.6l-1.3,3.3H1449.5z"/>
		<path d="M1451.8,330.3v-0.6h0.6v0.6H1451.8z M1451.8,334.2v-3.3h0.6v3.3H1451.8z"/>
		<path d="M1453.2,334.2v-3.3h0.5v0.5c0.2-0.4,0.6-0.5,1.1-0.5c0.2,0,0.4,0,0.6,0.1c0.2,0.1,0.3,0.2,0.4,0.3
			c0.1,0.1,0.1,0.3,0.2,0.4c0,0.1,0,0.3,0,0.5v2h-0.6v-2c0-0.2,0-0.4-0.1-0.5c0-0.1-0.1-0.2-0.2-0.3s-0.2-0.1-0.4-0.1
			c-0.2,0-0.4,0.1-0.6,0.2c-0.2,0.2-0.3,0.4-0.3,0.9v1.8H1453.2z"/>
		<path d="M1458.4,332.7l0.6,0c0,0.2,0.1,0.4,0.2,0.6c0.1,0.1,0.3,0.3,0.5,0.4c0.2,0.1,0.4,0.1,0.7,0.1c0.2,0,0.4,0,0.6-0.1
			c0.2-0.1,0.3-0.2,0.4-0.3c0.1-0.1,0.1-0.2,0.1-0.4c0-0.1,0-0.3-0.1-0.4c-0.1-0.1-0.2-0.2-0.4-0.3c-0.1,0-0.4-0.1-0.8-0.2
			c-0.4-0.1-0.7-0.2-0.9-0.3c-0.2-0.1-0.4-0.3-0.5-0.4s-0.2-0.4-0.2-0.6c0-0.2,0.1-0.4,0.2-0.6c0.1-0.2,0.3-0.4,0.6-0.5
			s0.5-0.2,0.8-0.2c0.3,0,0.6,0.1,0.9,0.2c0.3,0.1,0.5,0.3,0.6,0.5c0.1,0.2,0.2,0.5,0.2,0.7l-0.6,0c0-0.3-0.1-0.5-0.3-0.7
			c-0.2-0.1-0.4-0.2-0.8-0.2c-0.4,0-0.6,0.1-0.8,0.2c-0.2,0.1-0.3,0.3-0.3,0.5c0,0.2,0.1,0.3,0.2,0.4c0.1,0.1,0.4,0.2,0.9,0.3
			c0.5,0.1,0.8,0.2,1,0.3c0.3,0.1,0.5,0.3,0.6,0.5s0.2,0.4,0.2,0.7c0,0.2-0.1,0.5-0.2,0.7c-0.1,0.2-0.3,0.4-0.6,0.5
			s-0.6,0.2-0.9,0.2c-0.4,0-0.8-0.1-1-0.2c-0.3-0.1-0.5-0.3-0.7-0.5C1458.5,333.3,1458.4,333,1458.4,332.7z"/>
		<path d="M1465,334.2v-0.5c-0.3,0.4-0.6,0.6-1.1,0.6c-0.2,0-0.4,0-0.5-0.1c-0.2-0.1-0.3-0.2-0.4-0.3c-0.1-0.1-0.1-0.3-0.2-0.4
			c0-0.1,0-0.3,0-0.5v-2.1h0.6v1.8c0,0.3,0,0.5,0,0.6c0,0.1,0.1,0.3,0.2,0.3c0.1,0.1,0.3,0.1,0.4,0.1s0.3,0,0.5-0.1
			c0.1-0.1,0.3-0.2,0.3-0.4c0.1-0.1,0.1-0.4,0.1-0.6v-1.8h0.6v3.3H1465z"/>
		<path d="M1467.6,333.7l0.1,0.5c-0.2,0-0.3,0-0.4,0c-0.2,0-0.4,0-0.5-0.1s-0.2-0.1-0.2-0.3s-0.1-0.3-0.1-0.7v-1.9h-0.4v-0.4h0.4
			v-0.8l0.6-0.3v1.2h0.6v0.4h-0.6v1.9c0,0.2,0,0.3,0,0.3c0,0,0.1,0.1,0.1,0.1c0,0,0.1,0,0.2,0
			C1467.4,333.7,1467.5,333.7,1467.6,333.7z"/>
		<path d="M1468.1,334.2v-4.6h0.6v1.6c0.3-0.3,0.6-0.5,1-0.5c0.2,0,0.5,0,0.6,0.1c0.2,0.1,0.3,0.2,0.4,0.4s0.1,0.4,0.1,0.7v2.1h-0.6
			v-2.1c0-0.3-0.1-0.5-0.2-0.6c-0.1-0.1-0.3-0.2-0.5-0.2c-0.2,0-0.3,0-0.5,0.1c-0.1,0.1-0.3,0.2-0.3,0.4c-0.1,0.1-0.1,0.4-0.1,0.6
			v1.8H1468.1z"/>
		<path d="M1474,333.1l0.6,0.1c-0.1,0.3-0.3,0.6-0.5,0.8s-0.6,0.3-1,0.3c-0.5,0-0.9-0.1-1.2-0.4s-0.4-0.7-0.4-1.3
			c0-0.6,0.1-1,0.4-1.3c0.3-0.3,0.7-0.5,1.1-0.5c0.4,0,0.8,0.2,1.1,0.5s0.4,0.7,0.4,1.3c0,0,0,0.1,0,0.2h-2.5c0,0.4,0.1,0.6,0.3,0.8
			c0.2,0.2,0.4,0.3,0.7,0.3c0.2,0,0.4-0.1,0.5-0.2S1473.9,333.4,1474,333.1z M1472.1,332.2h1.9c0-0.3-0.1-0.5-0.2-0.6
			c-0.2-0.2-0.4-0.3-0.7-0.3c-0.3,0-0.5,0.1-0.7,0.3S1472.1,331.9,1472.1,332.2z"/>
		<path d="M1475.2,334.2v-3.3h0.5v0.5c0.1-0.2,0.2-0.4,0.4-0.5s0.2-0.1,0.4-0.1c0.2,0,0.4,0.1,0.6,0.2l-0.2,0.5
			c-0.1-0.1-0.3-0.1-0.4-0.1c-0.1,0-0.2,0-0.3,0.1c-0.1,0.1-0.2,0.2-0.2,0.3c-0.1,0.2-0.1,0.4-0.1,0.7v1.7H1475.2z"/>
		<path d="M1477.4,334.2v-4.6h0.6v4.6H1477.4z"/>
		<path d="M1481,333.8c-0.2,0.2-0.4,0.3-0.6,0.4c-0.2,0.1-0.4,0.1-0.6,0.1c-0.4,0-0.6-0.1-0.8-0.3c-0.2-0.2-0.3-0.4-0.3-0.7
			c0-0.2,0-0.3,0.1-0.4s0.2-0.2,0.3-0.3c0.1-0.1,0.3-0.1,0.4-0.2c0.1,0,0.3-0.1,0.5-0.1c0.5-0.1,0.8-0.1,1-0.2c0-0.1,0-0.1,0-0.1
			c0-0.2-0.1-0.4-0.2-0.5c-0.1-0.1-0.4-0.2-0.6-0.2c-0.3,0-0.5,0-0.6,0.1s-0.2,0.3-0.3,0.5l-0.5-0.1c0-0.2,0.1-0.4,0.2-0.6
			c0.1-0.1,0.3-0.3,0.5-0.3s0.5-0.1,0.8-0.1c0.3,0,0.5,0,0.7,0.1c0.2,0.1,0.3,0.2,0.4,0.3c0.1,0.1,0.1,0.2,0.2,0.4
			c0,0.1,0,0.3,0,0.5v0.8c0,0.5,0,0.9,0,1c0,0.1,0.1,0.3,0.1,0.4h-0.6C1481,334.1,1481,333.9,1481,333.8z M1480.9,332.5
			c-0.2,0.1-0.5,0.2-0.9,0.2c-0.2,0-0.4,0.1-0.5,0.1c-0.1,0-0.2,0.1-0.2,0.2c-0.1,0.1-0.1,0.2-0.1,0.3c0,0.2,0.1,0.3,0.2,0.4
			c0.1,0.1,0.3,0.2,0.5,0.2c0.2,0,0.4,0,0.6-0.1c0.2-0.1,0.3-0.2,0.4-0.4c0.1-0.1,0.1-0.3,0.1-0.6V332.5z"/>
		<path d="M1482.4,334.2v-3.3h0.5v0.5c0.2-0.4,0.6-0.5,1.1-0.5c0.2,0,0.4,0,0.6,0.1c0.2,0.1,0.3,0.2,0.4,0.3
			c0.1,0.1,0.1,0.3,0.2,0.4c0,0.1,0,0.3,0,0.5v2h-0.6v-2c0-0.2,0-0.4-0.1-0.5c0-0.1-0.1-0.2-0.2-0.3s-0.2-0.1-0.4-0.1
			c-0.2,0-0.4,0.1-0.6,0.2c-0.2,0.2-0.3,0.4-0.3,0.9v1.8H1482.4z"/>
		<path d="M1488.1,334.2v-0.4c-0.2,0.3-0.5,0.5-0.9,0.5c-0.3,0-0.5-0.1-0.7-0.2c-0.2-0.1-0.4-0.3-0.5-0.6c-0.1-0.3-0.2-0.6-0.2-0.9
			c0-0.3,0.1-0.6,0.2-0.9s0.3-0.5,0.5-0.6c0.2-0.1,0.5-0.2,0.7-0.2c0.2,0,0.4,0,0.5,0.1c0.2,0.1,0.3,0.2,0.4,0.3v-1.6h0.6v4.6
			H1488.1z M1486.3,332.5c0,0.4,0.1,0.7,0.3,1c0.2,0.2,0.4,0.3,0.6,0.3c0.2,0,0.5-0.1,0.6-0.3c0.2-0.2,0.3-0.5,0.3-0.9
			c0-0.5-0.1-0.8-0.3-1s-0.4-0.3-0.6-0.3c-0.2,0-0.5,0.1-0.6,0.3C1486.4,331.8,1486.3,332.1,1486.3,332.5z"/>
	</g>
	<g enable-background="new    ">
		<path d="M760.9,347.5c-0.3-0.4-0.6-1-0.9-1.5c-0.2-0.6-0.4-1.2-0.4-1.8c0-0.6,0.1-1.1,0.3-1.6c0.2-0.6,0.5-1.2,1-1.8h0.5
			c-0.3,0.5-0.5,0.8-0.6,1c-0.1,0.3-0.3,0.7-0.3,1c-0.1,0.4-0.2,0.9-0.2,1.3c0,1.1,0.4,2.3,1.1,3.4H760.9z"/>
		<path d="M765.8,344.2l0.7,0.2c-0.1,0.6-0.4,1-0.8,1.3s-0.8,0.4-1.4,0.4c-0.6,0-1-0.1-1.4-0.3c-0.3-0.2-0.6-0.6-0.8-1
			c-0.2-0.4-0.3-0.9-0.3-1.4c0-0.5,0.1-1,0.3-1.4c0.2-0.4,0.5-0.7,0.9-0.9s0.8-0.3,1.2-0.3c0.5,0,0.9,0.1,1.3,0.4
			c0.4,0.3,0.6,0.6,0.7,1.1l-0.7,0.2c-0.1-0.4-0.3-0.6-0.5-0.8c-0.2-0.2-0.5-0.3-0.9-0.3c-0.4,0-0.7,0.1-1,0.3
			c-0.3,0.2-0.5,0.4-0.6,0.8c-0.1,0.3-0.2,0.6-0.2,1c0,0.4,0.1,0.8,0.2,1.1c0.1,0.3,0.3,0.6,0.6,0.7s0.6,0.2,0.9,0.2
			c0.4,0,0.7-0.1,1-0.3C765.6,345,765.7,344.6,765.8,344.2z"/>
		<path d="M767.7,347.5h-0.5c0.7-1.1,1.1-2.3,1.1-3.4c0-0.4-0.1-0.9-0.2-1.3c-0.1-0.4-0.2-0.7-0.3-1c-0.1-0.2-0.3-0.6-0.6-1.1h0.5
			c0.4,0.6,0.8,1.2,1,1.8c0.2,0.5,0.3,1,0.3,1.6c0,0.6-0.1,1.2-0.4,1.8C768.3,346.6,768,347.1,767.7,347.5z"/>
	</g>
	<g enable-background="new    ">
		<path d="M1457.7,346.9c-0.3-0.4-0.6-1-0.9-1.5c-0.2-0.6-0.4-1.2-0.4-1.8c0-0.6,0.1-1.1,0.3-1.6c0.2-0.6,0.5-1.2,1-1.8h0.5
			c-0.3,0.5-0.5,0.8-0.6,1c-0.1,0.3-0.3,0.7-0.3,1c-0.1,0.4-0.2,0.9-0.2,1.3c0,1.1,0.4,2.3,1.1,3.4H1457.7z"/>
		<path d="M1462.6,343.6l0.7,0.2c-0.1,0.6-0.4,1-0.8,1.3c-0.4,0.3-0.8,0.4-1.4,0.4c-0.6,0-1-0.1-1.4-0.3c-0.3-0.2-0.6-0.6-0.8-1
			c-0.2-0.4-0.3-0.9-0.3-1.4c0-0.5,0.1-1,0.3-1.4c0.2-0.4,0.5-0.7,0.9-0.9c0.4-0.2,0.8-0.3,1.2-0.3c0.5,0,0.9,0.1,1.3,0.4
			c0.4,0.3,0.6,0.6,0.7,1.1l-0.7,0.2c-0.1-0.4-0.3-0.6-0.5-0.8c-0.2-0.2-0.5-0.3-0.9-0.3c-0.4,0-0.7,0.1-1,0.3
			c-0.3,0.2-0.5,0.4-0.6,0.8c-0.1,0.3-0.2,0.6-0.2,1c0,0.4,0.1,0.8,0.2,1.1c0.1,0.3,0.3,0.6,0.6,0.7s0.6,0.2,0.9,0.2
			c0.4,0,0.7-0.1,1-0.3C1462.4,344.4,1462.5,344,1462.6,343.6z"/>
		<path d="M1464.5,346.9h-0.5c0.7-1.1,1.1-2.3,1.1-3.4c0-0.4-0.1-0.9-0.2-1.3c-0.1-0.4-0.2-0.7-0.3-1c-0.1-0.2-0.3-0.6-0.6-1.1h0.5
			c0.4,0.6,0.8,1.2,1,1.8c0.2,0.5,0.3,1,0.3,1.6c0,0.6-0.1,1.2-0.4,1.8C1465.1,346,1464.8,346.5,1464.5,346.9z"/>
	</g>
</g>
</svg>
