<?xml version="1.0" encoding="utf-8"?>
<!-- Generator: Adobe Illustrator 16.0.0, SVG Export Plug-In . SVG Version: 6.00 Build 0)  -->
<!DOCTYPE svg PUBLIC "-//W3C//DTD SVG 1.1//EN" "http://www.w3.org/Graphics/SVG/1.1/DTD/svg11.dtd">
<svg version="1.1" id="Layer_1" xmlns="http://www.w3.org/2000/svg" xmlns:xlink="http://www.w3.org/1999/xlink" x="0px" y="0px"
	 width="2160px" height="56px" viewBox="440 316.5 2160 56" enable-background="new 440 316.5 2160 56" xml:space="preserve">
<g id="Music">
	<rect x="440" y="314.4" fill="#FFFFFF" width="2160" height="93.6"/>
	<g enable-background="new    ">
		<path d="M477.8,356c-4-1.9-4.6-4.3-4.8-6.8c-0.2-2.7,1.5-5.4,3.1-6.9c0.9-0.9,1.9-1.7,3.1-2.6c0-0.7-0.2-0.9-0.3-1.9
			c0-0.4-0.3-2.3,0.1-4.5c0.2-1.3,1.9-4.3,3-4.3c0.9,0,2.2,3.4,2.2,5.2c0.1,2.7-0.6,3.9-1.4,5.3c-0.4,0.7-0.8,1.2-1.3,1.7
			c-0.5,0.6-1,0.9-1.5,1.3c0,0,0.6,3.5,0.6,3.7c1.2-0.2,2.7,0.3,3.3,0.7c1.4,1,1.9,2.4,2,3.8c0.2,2.2-1,4.5-3.6,5.5
			c0,0,0.4,2.8,0.5,3.3c0.2,1.5,0.2,2.5-0.2,3.1c-0.6,1-1.5,2-3.2,2.1c-1.3,0.1-4-0.6-4.1-2.7c-0.1-1.2,0.5-2.6,2-2.7
			c0.9-0.1,2,0.7,2.1,1.8c0.1,0.9-0.5,1.9-2.1,2.4c0.2,0.3,1,0.7,2.1,0.7c1.1,0,2.3-0.7,2.8-1.7c0.3-0.7,0.3-1.8,0.2-2.9
			c-0.1-0.4-0.5-3.3-0.5-3.3C480.5,356.5,478.6,356.3,477.8,356z M478.1,351.4c0,0.9,0.8,2,1.5,2.4c-0.1,0.1-0.2,0.2-0.2,0.2
			c-0.8-0.4-1.5-1-1.6-1.2c-0.6-0.7-0.8-1.2-0.9-2.3c-0.1-1.1,0.5-2.5,1.8-3.5c0.7-0.5,1-0.6,1.6-0.7l-0.6-3.5
			c-0.6,0.3-3.1,2.3-4.1,3.9c-0.9,1.4-1.5,2.6-1.4,4c0.2,3.2,3.7,5.8,7.5,4.9c0,0-1.1-6.8-1.1-6.8
			C478.6,348.9,478.1,350.5,478.1,351.4z M479.7,339.2c1.7-1.3,3.9-3.8,3.8-5.7c0-0.6-0.3-1.7-1.2-1.7
			C480.4,331.9,479.3,336.1,479.7,339.2z M482.3,355.5c2.2-0.7,2.3-2.6,2.2-3.8c-0.1-0.9-0.5-3.1-3.3-2.9L482.3,355.5z"/>
	</g>
	<g enable-background="new    ">
		<path d="M498.2,353.5v1.3c0,0.8,0.9,0.7,0.9,0.7v0.5h-4.2v-0.5c0,0,0.9,0,0.9-0.7v-1.3h-3.6l-0.3-0.4c2.3-3.1,2.3-3.7,2.9-6.5h3.3
			c-0.8,1.5-3.4,4.2-5.3,6.4h3v-2.4l2.3-2.6v4.9h1.4v0.5H498.2z"/>
	</g>
	<g enable-background="new    ">
		<path d="M495.6,346.5c-2,0-3.4-1-3.4-2.5c0-0.7,0.7-1.4,1.3-1.4c0.7,0,1.5,0.4,1.5,1.2c0,1-0.7,1.1-0.7,1.8c0,0.2,0.6,0.5,0.8,0.5
			c1.3,0,1.9-1.5,1.9-2.3c0-1.7-1.5-1.5-2.7-1.7c0,0,0-0.5,0-0.5c1.2-0.2,2.5-0.6,2.4-2c0-2-1.6-1.9-1.9-1.9c-0.1,0-0.6,0.3-0.5,0.5
			c0.1,0.4,0.7,0.6,0.9,1.4c0.2,0.7-0.6,1.5-1.3,1.5c-0.8,0-1.5-0.9-1.5-1.4c0-1.1,0.9-2.5,3.9-2.5c1.3,0,2.7,0.9,2.7,2.3
			c0,1.9-2.2,2-2.2,2.3c1.1,0.1,2.6,0.5,2.6,2C499.4,345.7,497,346.5,495.6,346.5z"/>
	</g>
	<line fill="none" stroke="#000000" stroke-width="0.459" x1="556.4" y1="337" x2="556.4" y2="356.2"/>
	<line fill="none" stroke="#000000" stroke-width="0.459" x1="610.8" y1="337" x2="610.8" y2="356.2"/>
	<line fill="none" stroke="#000000" stroke-width="0.459" x1="665.2" y1="337" x2="665.2" y2="356.2"/>
	<line fill="none" stroke="#000000" stroke-width="0.459" x1="719.6" y1="337" x2="719.6" y2="356.2"/>
	<line fill="none" stroke="#000000" stroke-width="0.459" x1="774" y1="337" x2="774" y2="356.2"/>
	<line fill="none" stroke="#000000" stroke-width="0.459" x1="828.4" y1="337" x2="828.4" y2="356.2"/>
	<line fill="none" stroke="#000000" stroke-width="0.459" x1="882.8" y1="337" x2="882.8" y2="356.2"/>
	<line fill="none" stroke="#000000" stroke-width="0.459" x1="937.2" y1="337" x2="937.2" y2="356.2"/>
	<line fill="none" stroke="#000000" stroke-width="0.459" x1="991.6" y1="337" x2="991.6" y2="356.2"/>
	<line fill="none" stroke="#000000" stroke-width="0.459" x1="1046" y1="337" x2="1046" y2="356.2"/>
	<line fill="none" stroke="#000000" stroke-width="0.459" x1="1100.4" y1="337" x2="1100.4" y2="356.2"/>
	<line fill="none" stroke="#000000" stroke-width="0.459" x1="1154.8" y1="337" x2="1154.8" y2="356.2"/>
	<line fill="none" stroke="#000000" stroke-width="0.459" x1="1209.2" y1="337" x2="1209.2" y2="356.2"/>
	<line fill="none" stroke="#000000" stroke-width="0.459" x1="1263.6" y1="337" x2="1263.6" y2="356.2"/>
	<line fill="none" stroke="#000000" stroke-width="0.459" x1="1318" y1="337" x2="1318" y2="356.2"/>
	<line fill="none" stroke="#000000" stroke-width="0.459" x1="1372.4" y1="337" x2="1372.4" y2="356.2"/>
	<line fill="none" stroke="#000000" stroke-width="0.459" x1="1426.8" y1="337" x2="1426.8" y2="356.2"/>
	<line fill="none" stroke="#000000" stroke-width="0.459" x1="1481.2" y1="337" x2="1481.2" y2="356.2"/>
	<line fill="none" stroke="#000000" stroke-width="0.459" x1="1535.6" y1="337" x2="1535.6" y2="356.2"/>
	<line fill="none" stroke="#000000" stroke-width="0.459" x1="1590" y1="337" x2="1590" y2="356.2"/>
	<line fill="none" stroke="#000000" stroke-width="0.459" x1="1644.4" y1="337" x2="1644.4" y2="356.2"/>
	<line fill="none" stroke="#000000" stroke-width="0.459" x1="1698.8" y1="337" x2="1698.8" y2="356.2"/>
	<line fill="none" stroke="#000000" stroke-width="0.459" x1="1753.2" y1="337" x2="1753.2" y2="356.2"/>
	<line fill="none" stroke="#000000" stroke-width="0.459" x1="1807.6" y1="337" x2="1807.6" y2="356.2"/>
	<line fill="none" stroke="#000000" stroke-width="0.459" x1="1862" y1="337" x2="1862" y2="356.2"/>
	<line fill="none" stroke="#000000" stroke-width="0.459" x1="1916.4" y1="337" x2="1916.4" y2="356.2"/>
	<line fill="none" stroke="#000000" stroke-width="0.459" x1="1970.8" y1="337" x2="1970.8" y2="356.2"/>
	<line fill="none" stroke="#000000" stroke-width="0.459" x1="2025.2" y1="337" x2="2025.2" y2="356.2"/>
	<line fill="none" stroke="#000000" stroke-width="0.459" x1="2079.6" y1="337" x2="2079.6" y2="356.2"/>
	<line fill="none" stroke="#000000" stroke-width="0.459" x1="2134" y1="337" x2="2134" y2="356.2"/>
	<line fill="none" stroke="#000000" stroke-width="0.459" x1="2188.4" y1="337" x2="2188.4" y2="356.2"/>
	<line fill="none" stroke="#000000" stroke-width="0.459" x1="2242.8" y1="337" x2="2242.8" y2="356.2"/>
	<line fill="none" stroke="#000000" stroke-width="0.459" x1="2297.2" y1="337" x2="2297.2" y2="356.2"/>
	<line fill="none" stroke="#000000" stroke-width="0.459" x1="2351.6" y1="337" x2="2351.6" y2="356.2"/>
	<line fill="none" stroke="#000000" stroke-width="0.459" x1="2406" y1="337" x2="2406" y2="356.2"/>
	<line fill="none" stroke="#000000" stroke-width="0.459" x1="2460.4" y1="337" x2="2460.4" y2="356.2"/>
	<line fill="none" stroke="#000000" stroke-width="0.459" x1="2514.8" y1="337" x2="2514.8" y2="356.2"/>
	<line fill="none" stroke="#000000" stroke-width="2.419" x1="2570.6" y1="337" x2="2570.6" y2="356.2"/>
	<line fill="none" stroke="#000000" stroke-width="0.459" x1="2566.7" y1="337" x2="2566.7" y2="356.2"/>
	<line fill="none" stroke="#000000" stroke-width="0.459" x1="468.2" y1="337" x2="2571.8" y2="337"/>
	<line fill="none" stroke="#000000" stroke-width="0.459" x1="468.2" y1="341.8" x2="2571.8" y2="341.8"/>
	<line fill="none" stroke="#000000" stroke-width="0.459" x1="468.2" y1="346.6" x2="2571.8" y2="346.6"/>
	<line fill="none" stroke="#000000" stroke-width="0.459" x1="468.2" y1="351.4" x2="2571.8" y2="351.4"/>
	<line fill="none" stroke="#000000" stroke-width="0.459" x1="468.2" y1="356.2" x2="2571.8" y2="356.2"/>
	<line fill="none" stroke="#000000" stroke-width="0.459" x1="507.4" y1="345" x2="507.4" y2="361"/>
	<g enable-background="new    ">
		<path d="M510.7,342.1c1.4,0,2.2,1,1.8,2.2c-0.4,1.2-1.9,2.2-3.4,2.2c-1.4,0-2.2-1-1.7-2.2C507.8,343,509.3,342.1,510.7,342.1z"/>
	</g>
	<g enable-background="new    ">
		<path d="M532,343.3c0.6,0,1,0.4,1,1c0,0.5-0.4,1-1,1s-1-0.4-1-1C531,343.7,531.4,343.3,532,343.3z"/>
	</g>
	<line fill="none" stroke="#000000" stroke-width="0.459" x1="524" y1="347.4" x2="524" y2="363.4"/>
	<g enable-background="new    ">
		<path d="M527.3,344.5c1.4,0,2.2,1,1.8,2.2c-0.4,1.2-1.9,2.2-3.4,2.2c-1.4,0-2.2-1-1.7-2.2C524.4,345.4,525.9,344.5,527.3,344.5z"
			/>
	</g>
	<g enable-background="new    ">
		<path d="M550.1,357.2c-0.8,1.4-1.7,2.7-2.4,3.7c-0.6,0.9-1.3,2.1-1.3,3.2H546v-5.1h0.4c0,0,1-0.1,2-0.7c0.7-0.4,1.7-1.7,2.4-3.6
			c0.4-1.1,0.4-1.8,0.4-2.8c0-1.1-0.5-2.6-0.9-3.4l0.2-0.1c0.7,1.1,1.3,3.1,1,5.4C551.2,354.8,550.9,355.9,550.1,357.2z"/>
	</g>
	<line fill="none" stroke="#000000" stroke-width="0.459" x1="546.2" y1="347.4" x2="546.2" y2="363.4"/>
	<g enable-background="new    ">
		<path d="M549.5,344.5c1.4,0,2.2,1,1.8,2.2c-0.4,1.2-1.9,2.2-3.4,2.2c-1.4,0-2.2-1-1.7-2.2C546.6,345.4,548.1,344.5,549.5,344.5z"
			/>
	</g>
	<g enable-background="new    ">
		<path d="M511.9,331.4l0.8,0.2c-0.2,0.6-0.4,1.1-0.9,1.4s-0.9,0.5-1.5,0.5c-0.6,0-1.1-0.1-1.5-0.4s-0.7-0.6-0.9-1.1s-0.3-1-0.3-1.5
			c0-0.6,0.1-1.1,0.3-1.6s0.6-0.8,1-1s0.9-0.3,1.4-0.3c0.6,0,1.1,0.1,1.4,0.4s0.7,0.7,0.8,1.2l-0.7,0.2c-0.1-0.4-0.3-0.7-0.6-0.9
			s-0.6-0.3-1-0.3c-0.4,0-0.8,0.1-1.1,0.3s-0.5,0.5-0.6,0.8s-0.2,0.7-0.2,1.1c0,0.5,0.1,0.9,0.2,1.3s0.4,0.6,0.7,0.8s0.6,0.3,1,0.3
			c0.4,0,0.8-0.1,1.1-0.4S511.8,331.9,511.9,331.4z"/>
	</g>
	<line fill="none" stroke="#000000" stroke-width="0.459" x1="566.2" y1="348.2" x2="566.2" y2="332.2"/>
	<g enable-background="new    ">
		<path d="M564.9,346.9c1.4,0,2.2,1,1.8,2.2c-0.4,1.2-1.9,2.2-3.4,2.2c-1.4,0-2.2-1-1.7-2.2C562,347.8,563.5,346.9,564.9,346.9z"/>
	</g>
	<g enable-background="new    ">
		<path d="M584.6,348.1c0.6,0,1,0.4,1,1c0,0.5-0.4,1-1,1s-1-0.4-1-1C583.6,348.5,584,348.1,584.6,348.1z"/>
	</g>
	<line fill="none" stroke="#000000" stroke-width="0.459" x1="581.2" y1="350.6" x2="581.2" y2="334.6"/>
	<g enable-background="new    ">
		<path d="M579.9,349.3c1.4,0,2.2,1,1.8,2.2c-0.4,1.2-1.9,2.2-3.4,2.2c-1.4,0-2.2-1-1.7-2.2C577,350.2,578.5,349.3,579.9,349.3z"/>
	</g>
	<g enable-background="new    ">
		<path d="M603.6,336.7c0.6,0.9,1.4,1.9,2.1,3.1c0.6,1.1,1.2,2.7,1.2,3.5c0.1,0.8,0.2,1.6,0.2,2.3c0,1.2-0.2,2.2-0.6,3.3l-0.2,0
			c0.3-0.9,0.5-2.2,0.5-3.3c0-0.9-0.2-2.1-0.5-3.1c-0.6-1.7-1.5-2.7-2.1-3.1c-0.8-0.6-1.8-0.6-1.8-0.6h-0.3v-5h0.3
			C602.5,334.8,603,335.9,603.6,336.7z"/>
	</g>
	<line fill="none" stroke="#000000" stroke-width="0.459" x1="602" y1="350.6" x2="602" y2="334.6"/>
	<g enable-background="new    ">
		<path d="M600.7,349.3c1.4,0,2.2,1,1.8,2.2c-0.4,1.2-1.9,2.2-3.4,2.2c-1.4,0-2.2-1-1.7-2.2C597.8,350.2,599.3,349.3,600.7,349.3z"
			/>
	</g>
	<line fill="none" stroke="#000000" stroke-width="0.459" x1="620.6" y1="350.6" x2="620.6" y2="334.6"/>
	<g enable-background="new    ">
		<path d="M619.3,349.3c1.4,0,2.2,1,1.8,2.2c-0.4,1.2-1.9,2.2-3.4,2.2c-1.4,0-2.2-1-1.7-2.2C616.4,350.2,617.9,349.3,619.3,349.3z"
			/>
	</g>
	<line fill="none" stroke="#000000" stroke-width="0.459" x1="637" y1="353" x2="637" y2="337"/>
	<g enable-background="new    ">
		<path d="M635.7,351.7c1.4,0,2.2,1,1.8,2.2c-0.4,1.2-1.9,2.2-3.4,2.2c-1.4,0-2.2-1-1.7-2.2C632.8,352.6,634.3,351.7,635.7,351.7z"
			/>
	</g>
	<line fill="none" stroke="#000000" stroke-width="0.459" x1="653.4" y1="355.4" x2="653.4" y2="339.4"/>
	<g enable-background="new    ">
		<path d="M652.1,354.1c1.4,0,2.2,1,1.8,2.2c-0.4,1.2-1.9,2.2-3.4,2.2c-1.4,0-2.2-1-1.7-2.2C649.2,355,650.7,354.1,652.1,354.1z"/>
	</g>
	<g enable-background="new    ">
		<path d="M616.5,333.4v-5.7h3.9v0.7h-3.1v1.8h2.7v0.7h-2.7v2.6H616.5z"/>
	</g>
	<line fill="none" stroke="#000000" stroke-width="0.459" x1="676" y1="357.8" x2="676" y2="341.8"/>
	<g enable-background="new    ">
		<path d="M675.5,358.7c-0.3,0.9-1,1.5-1.6,1.8c-0.5,0.3-1.2,0.4-2,0.3c-0.5,0-1.3-0.2-1.6-0.7c-0.3-0.6-0.1-1.2,0-1.6
			c0.3-0.8,1-1.4,1.5-1.7c0.5-0.3,1.3-0.5,2.2-0.4c0.4,0,1.1,0.1,1.5,0.7C675.8,357.6,675.6,358.4,675.5,358.7z M673.5,357.4
			c-0.4,0.2-0.7,0.4-1,0.5c-0.3,0.2-0.6,0.4-1,0.6c-0.5,0.3-1.1,0.9-0.8,1.4c0.3,0.6,1.1,0.3,1.6,0c0.4-0.2,0.7-0.4,1-0.5
			c0.3-0.2,0.6-0.4,1-0.6c0.5-0.3,1.1-0.9,0.8-1.4C674.9,356.8,674.1,357.1,673.5,357.4z"/>
	</g>
	<g enable-background="new    ">
		<path d="M704,350.4c-0.8,0-1.5,0.5-1.5,1.4c0,0.6,1,1.5,1,1.5l-0.2,0.2c0,0-2.2-1.3-2.5-2.7c-0.1-0.9,0.5-1.8,1.6-1.9
			c0.4,0,1.2,0.1,1.5,0.2c-1.8-1.8-2.8-3-2.7-3.4c0.4-0.4,1.7-2.1,1.7-3.4c0-0.9-1.3-2.9-1.3-2.9l0.3-0.2l3.5,4.4c0,0-1.7,2-1.7,3.4
			c0,1,0.6,1.8,1.1,2.3c0.2,0.3,1,1.1,1,1.2l0,0.3C704.9,350.5,704.4,350.4,704,350.4z"/>
	</g>
	<line fill="none" stroke="#000000" stroke-width="0.459" x1="729.4" y1="350.6" x2="729.4" y2="334.6"/>
	<g enable-background="new    ">
		<path d="M728.1,349.3c1.4,0,2.2,1,1.8,2.2c-0.4,1.2-1.9,2.2-3.4,2.2c-1.4,0-2.2-1-1.7-2.2C725.2,350.2,726.7,349.3,728.1,349.3z"
			/>
	</g>
	<line fill="none" stroke="#000000" stroke-width="0.459" x1="745.8" y1="353" x2="745.8" y2="337"/>
	<g enable-background="new    ">
		<path d="M744.5,351.7c1.4,0,2.2,1,1.8,2.2c-0.4,1.2-1.9,2.2-3.4,2.2c-1.4,0-2.2-1-1.7-2.2C741.6,352.6,743.1,351.7,744.5,351.7z"
			/>
	</g>
	<line fill="none" stroke="#000000" stroke-width="0.459" x1="762.2" y1="355.4" x2="762.2" y2="339.4"/>
	<g enable-background="new    ">
		<path d="M760.9,354.1c1.4,0,2.2,1,1.8,2.2c-0.4,1.2-1.9,2.2-3.4,2.2c-1.4,0-2.2-1-1.7-2.2C758,355,759.5,354.1,760.9,354.1z"/>
	</g>
	<g enable-background="new    ">
		<path d="M725.2,333.4v-5.7h2c0.4,0,0.8,0,1,0.1c0.3,0.1,0.6,0.2,0.8,0.4c0.3,0.3,0.5,0.6,0.7,1s0.2,0.9,0.2,1.4
			c0,0.4-0.1,0.8-0.2,1.2s-0.2,0.6-0.4,0.8s-0.3,0.4-0.5,0.5s-0.4,0.2-0.7,0.3s-0.6,0.1-0.9,0.1H725.2z M726,332.7h1.2
			c0.4,0,0.7,0,0.9-0.1s0.4-0.2,0.5-0.3c0.2-0.2,0.3-0.4,0.4-0.7s0.2-0.7,0.2-1.1c0-0.6-0.1-1.1-0.3-1.4s-0.4-0.5-0.7-0.6
			c-0.2-0.1-0.5-0.1-1-0.1H726V332.7z"/>
	</g>
	<g enable-background="new    ">
		<path d="M731.9,333.4v-3.7h0.6v0.5c0.1-0.2,0.3-0.3,0.5-0.4c0.2-0.1,0.4-0.2,0.7-0.2c0.3,0,0.5,0.1,0.7,0.2
			c0.2,0.1,0.3,0.3,0.4,0.5c0.3-0.4,0.7-0.7,1.2-0.7c0.4,0,0.7,0.1,0.9,0.3s0.3,0.5,0.3,0.9v2.6h-0.6V331c0-0.3,0-0.4-0.1-0.5
			s-0.1-0.2-0.2-0.3c-0.1-0.1-0.2-0.1-0.4-0.1c-0.3,0-0.5,0.1-0.7,0.3s-0.3,0.5-0.3,0.8v2.2h-0.6V331c0-0.3-0.1-0.5-0.2-0.6
			c-0.1-0.1-0.3-0.2-0.5-0.2c-0.2,0-0.3,0-0.5,0.1s-0.3,0.2-0.3,0.4s-0.1,0.4-0.1,0.8v1.9H731.9z"/>
	</g>
	<line fill="none" stroke="#000000" stroke-width="0.459" x1="783.8" y1="355.4" x2="783.8" y2="339.4"/>
	<g enable-background="new    ">
		<path d="M782.5,354.1c1.4,0,2.2,1,1.8,2.2c-0.4,1.2-1.9,2.2-3.4,2.2c-1.4,0-2.2-1-1.7-2.2C779.6,355,781.1,354.1,782.5,354.1z"/>
	</g>
	<line fill="none" stroke="#000000" stroke-width="0.459" x1="803.6" y1="357.8" x2="803.6" y2="341.8"/>
	<g enable-background="new    ">
		<path d="M803.1,358.7c-0.3,0.9-1,1.5-1.6,1.8c-0.5,0.3-1.2,0.4-2,0.3c-0.5,0-1.3-0.2-1.6-0.7c-0.3-0.6-0.1-1.2,0-1.6
			c0.3-0.8,1-1.4,1.5-1.7c0.5-0.3,1.3-0.5,2.2-0.4c0.4,0,1.1,0.1,1.5,0.7C803.4,357.6,803.2,358.4,803.1,358.7z M801.1,357.4
			c-0.4,0.2-0.7,0.4-1,0.5c-0.3,0.2-0.6,0.4-1,0.6c-0.5,0.3-1.1,0.9-0.8,1.4c0.3,0.6,1.1,0.3,1.6,0c0.4-0.2,0.7-0.4,1-0.5
			c0.3-0.2,0.6-0.4,1-0.6c0.5-0.3,1.1-0.9,0.8-1.4C802.5,356.8,801.7,357.1,801.1,357.4z"/>
	</g>
	<g enable-background="new    ">
		<path d="M782.3,331.2v-0.7l2.4,0v2.1c-0.4,0.3-0.8,0.5-1.2,0.7s-0.8,0.2-1.2,0.2c-0.6,0-1.1-0.1-1.5-0.4s-0.8-0.6-1-1
			s-0.4-1-0.4-1.5c0-0.6,0.1-1.1,0.3-1.6s0.6-0.8,1-1.1s0.9-0.4,1.5-0.4c0.4,0,0.8,0.1,1.1,0.2s0.6,0.3,0.8,0.6s0.3,0.6,0.4,0.9
			l-0.7,0.2c-0.1-0.3-0.2-0.5-0.3-0.7s-0.3-0.3-0.5-0.4s-0.5-0.2-0.8-0.2c-0.3,0-0.6,0.1-0.9,0.2s-0.5,0.2-0.6,0.4s-0.3,0.4-0.4,0.6
			c-0.1,0.4-0.2,0.7-0.2,1.2c0,0.5,0.1,0.9,0.3,1.3s0.4,0.6,0.8,0.8s0.7,0.2,1.1,0.2c0.3,0,0.6-0.1,1-0.2s0.5-0.3,0.7-0.4v-1.1
			H782.3z"/>
	</g>
	<line fill="none" stroke="#000000" stroke-width="0.459" x1="838.2" y1="353" x2="838.2" y2="337"/>
	<g enable-background="new    ">
		<path d="M836.9,351.7c1.4,0,2.2,1,1.8,2.2c-0.4,1.2-1.9,2.2-3.4,2.2c-1.4,0-2.2-1-1.7-2.2C834,352.6,835.5,351.7,836.9,351.7z"/>
	</g>
	<line fill="none" stroke="#000000" stroke-width="0.459" x1="854.6" y1="355.4" x2="854.6" y2="339.4"/>
	<g enable-background="new    ">
		<path d="M853.3,354.1c1.4,0,2.2,1,1.8,2.2c-0.4,1.2-1.9,2.2-3.4,2.2c-1.4,0-2.2-1-1.7-2.2C850.4,355,851.9,354.1,853.3,354.1z"/>
	</g>
	<line fill="none" stroke="#000000" stroke-width="0.459" x1="871" y1="360.2" x2="871" y2="344.2"/>
	<line fill="none" stroke="#000000" stroke-width="0.459" x1="865" y1="361" x2="872.4" y2="361"/>
	<g enable-background="new    ">
		<path d="M869.7,358.9c1.4,0,2.2,1,1.8,2.2c-0.4,1.2-1.9,2.2-3.4,2.2c-1.4,0-2.2-1-1.7-2.2C866.8,359.8,868.3,358.9,869.7,358.9z"
			/>
	</g>
	<g enable-background="new    ">
		<path d="M838.1,331.4l0.8,0.2c-0.2,0.6-0.4,1.1-0.9,1.4s-0.9,0.5-1.5,0.5c-0.6,0-1.1-0.1-1.5-0.4s-0.7-0.6-0.9-1.1s-0.3-1-0.3-1.5
			c0-0.6,0.1-1.1,0.3-1.6s0.6-0.8,1-1s0.9-0.3,1.4-0.3c0.6,0,1.1,0.1,1.4,0.4s0.7,0.7,0.8,1.2l-0.7,0.2c-0.1-0.4-0.3-0.7-0.6-0.9
			s-0.6-0.3-1-0.3c-0.4,0-0.8,0.1-1.1,0.3s-0.5,0.5-0.6,0.8s-0.2,0.7-0.2,1.1c0,0.5,0.1,0.9,0.2,1.3s0.4,0.6,0.7,0.8s0.6,0.3,1,0.3
			c0.4,0,0.8-0.1,1.1-0.4S838,331.9,838.1,331.4z"/>
	</g>
	<line fill="none" stroke="#000000" stroke-width="0.459" x1="893.6" y1="355.4" x2="893.6" y2="339.4"/>
	<g enable-background="new    ">
		<path d="M893.1,356.3c-0.3,0.9-1,1.5-1.6,1.8c-0.5,0.3-1.2,0.4-2,0.3c-0.5,0-1.3-0.2-1.6-0.7c-0.3-0.6-0.1-1.2,0-1.6
			c0.3-0.8,1-1.4,1.5-1.7c0.5-0.3,1.3-0.5,2.2-0.4c0.4,0,1.1,0.1,1.5,0.7C893.4,355.2,893.2,356,893.1,356.3z M891.1,355
			c-0.4,0.2-0.7,0.4-1,0.5c-0.3,0.2-0.6,0.4-1,0.6c-0.5,0.3-1.1,0.9-0.8,1.4c0.3,0.6,1.1,0.3,1.6,0c0.4-0.2,0.7-0.4,1-0.5
			c0.3-0.2,0.6-0.4,1-0.6c0.5-0.3,1.1-0.9,0.8-1.4C892.5,354.4,891.7,354.7,891.1,355z"/>
	</g>
	<g enable-background="new    ">
		<path d="M921.6,350.4c-0.8,0-1.5,0.5-1.5,1.4c0,0.6,1,1.5,1,1.5l-0.2,0.2c0,0-2.2-1.3-2.5-2.7c-0.1-0.9,0.5-1.8,1.6-1.9
			c0.4,0,1.2,0.1,1.5,0.2c-1.8-1.8-2.8-3-2.7-3.4c0.4-0.4,1.7-2.1,1.7-3.4c0-0.9-1.3-2.9-1.3-2.9l0.3-0.2l3.5,4.4c0,0-1.7,2-1.7,3.4
			c0,1,0.6,1.8,1.1,2.3c0.2,0.3,1,1.1,1,1.2l0,0.3C922.5,350.5,922,350.4,921.6,350.4z"/>
	</g>
	<line fill="none" stroke="#000000" stroke-width="0.459" x1="942.6" y1="345" x2="942.6" y2="361"/>
	<g enable-background="new    ">
		<path d="M945.9,342.1c1.4,0,2.2,1,1.8,2.2c-0.4,1.2-1.9,2.2-3.4,2.2c-1.4,0-2.2-1-1.7-2.2C943,343,944.5,342.1,945.9,342.1z"/>
	</g>
	<g enable-background="new    ">
		<path d="M967.2,343.3c0.6,0,1,0.4,1,1c0,0.5-0.4,1-1,1s-1-0.4-1-1C966.2,343.7,966.6,343.3,967.2,343.3z"/>
	</g>
	<line fill="none" stroke="#000000" stroke-width="0.459" x1="959.2" y1="347.4" x2="959.2" y2="363.4"/>
	<g enable-background="new    ">
		<path d="M962.5,344.5c1.4,0,2.2,1,1.8,2.2c-0.4,1.2-1.9,2.2-3.4,2.2c-1.4,0-2.2-1-1.7-2.2C959.6,345.4,961.1,344.5,962.5,344.5z"
			/>
	</g>
	<g enable-background="new    ">
		<path d="M985.3,357.2c-0.8,1.4-1.7,2.7-2.4,3.7c-0.6,0.9-1.3,2.1-1.3,3.2h-0.4v-5.1h0.4c0,0,1-0.1,2-0.7c0.7-0.4,1.7-1.7,2.4-3.6
			c0.4-1.1,0.4-1.8,0.4-2.8c0-1.1-0.5-2.6-0.9-3.4l0.2-0.1c0.7,1.1,1.3,3.1,1,5.4C986.4,354.8,986.1,355.9,985.3,357.2z"/>
	</g>
	<line fill="none" stroke="#000000" stroke-width="0.459" x1="981.4" y1="347.4" x2="981.4" y2="363.4"/>
	<g enable-background="new    ">
		<path d="M984.7,344.5c1.4,0,2.2,1,1.8,2.2c-0.4,1.2-1.9,2.2-3.4,2.2c-1.4,0-2.2-1-1.7-2.2C981.8,345.4,983.3,344.5,984.7,344.5z"
			/>
	</g>
	<g enable-background="new    ">
		<path d="M942.4,333.4l2.2-5.7h0.8l2.3,5.7h-0.9l-0.7-1.7h-2.4l-0.6,1.7H942.4z M944,331h1.9l-0.6-1.6c-0.2-0.5-0.3-0.9-0.4-1.2
			c-0.1,0.4-0.2,0.7-0.3,1.1L944,331z"/>
	</g>
	<g enable-background="new    ">
		<path d="M948.7,333.4v-3.7h0.6v0.5c0.1-0.2,0.3-0.3,0.5-0.4c0.2-0.1,0.4-0.2,0.7-0.2c0.3,0,0.5,0.1,0.7,0.2
			c0.2,0.1,0.3,0.3,0.4,0.5c0.3-0.4,0.7-0.7,1.2-0.7c0.4,0,0.7,0.1,0.9,0.3s0.3,0.5,0.3,0.9v2.6h-0.6V331c0-0.3,0-0.4-0.1-0.5
			s-0.1-0.2-0.2-0.3c-0.1-0.1-0.2-0.1-0.4-0.1c-0.3,0-0.5,0.1-0.7,0.3s-0.3,0.5-0.3,0.8v2.2h-0.6V331c0-0.3-0.1-0.5-0.2-0.6
			c-0.1-0.1-0.3-0.2-0.5-0.2c-0.2,0-0.3,0-0.5,0.1s-0.3,0.2-0.3,0.4s-0.1,0.4-0.1,0.8v1.9H948.7z"/>
	</g>
	<line fill="none" stroke="#000000" stroke-width="0.459" x1="1001.4" y1="348.2" x2="1001.4" y2="332.2"/>
	<g enable-background="new    ">
		<path d="M1000.1,346.9c1.4,0,2.2,1,1.8,2.2c-0.4,1.2-1.9,2.2-3.4,2.2c-1.4,0-2.2-1-1.7-2.2C997.2,347.8,998.7,346.9,1000.1,346.9z
			"/>
	</g>
	<g enable-background="new    ">
		<path d="M1019.8,348.1c0.6,0,1,0.4,1,1c0,0.5-0.4,1-1,1s-1-0.4-1-1C1018.8,348.5,1019.2,348.1,1019.8,348.1z"/>
	</g>
	<line fill="none" stroke="#000000" stroke-width="0.459" x1="1016.4" y1="350.6" x2="1016.4" y2="334.6"/>
	<g enable-background="new    ">
		<path d="M1015.1,349.3c1.4,0,2.2,1,1.8,2.2c-0.4,1.2-1.9,2.2-3.4,2.2c-1.4,0-2.2-1-1.7-2.2
			C1012.2,350.2,1013.7,349.3,1015.1,349.3z"/>
	</g>
	<g enable-background="new    ">
		<path d="M1038.8,336.7c0.6,0.9,1.4,1.9,2.1,3.1c0.6,1.1,1.2,2.7,1.2,3.5c0.1,0.8,0.2,1.6,0.2,2.3c0,1.2-0.2,2.2-0.6,3.3l-0.2,0
			c0.3-0.9,0.5-2.2,0.5-3.3c0-0.9-0.2-2.1-0.5-3.1c-0.6-1.7-1.5-2.7-2.1-3.1c-0.8-0.6-1.8-0.6-1.8-0.6h-0.3v-5h0.3
			C1037.7,334.8,1038.2,335.9,1038.8,336.7z"/>
	</g>
	<line fill="none" stroke="#000000" stroke-width="0.459" x1="1037.2" y1="350.6" x2="1037.2" y2="334.6"/>
	<g enable-background="new    ">
		<path d="M1035.9,349.3c1.4,0,2.2,1,1.8,2.2c-0.4,1.2-1.9,2.2-3.4,2.2c-1.4,0-2.2-1-1.7-2.2C1033,350.2,1034.5,349.3,1035.9,349.3z
			"/>
	</g>
	<line fill="none" stroke="#000000" stroke-width="0.459" x1="1055.8" y1="350.6" x2="1055.8" y2="334.6"/>
	<g enable-background="new    ">
		<path d="M1054.5,349.3c1.4,0,2.2,1,1.8,2.2c-0.4,1.2-1.9,2.2-3.4,2.2c-1.4,0-2.2-1-1.7-2.2
			C1051.6,350.2,1053.1,349.3,1054.5,349.3z"/>
	</g>
	<line fill="none" stroke="#000000" stroke-width="0.459" x1="1072.2" y1="353" x2="1072.2" y2="337"/>
	<g enable-background="new    ">
		<path d="M1070.9,351.7c1.4,0,2.2,1,1.8,2.2c-0.4,1.2-1.9,2.2-3.4,2.2c-1.4,0-2.2-1-1.7-2.2C1068,352.6,1069.5,351.7,1070.9,351.7z
			"/>
	</g>
	<line fill="none" stroke="#000000" stroke-width="0.459" x1="1088.6" y1="355.4" x2="1088.6" y2="339.4"/>
	<g enable-background="new    ">
		<path d="M1087.3,354.1c1.4,0,2.2,1,1.8,2.2c-0.4,1.2-1.9,2.2-3.4,2.2c-1.4,0-2.2-1-1.7-2.2C1084.4,355,1085.9,354.1,1087.3,354.1z
			"/>
	</g>
	<g enable-background="new    ">
		<path d="M1051.6,333.4v-5.7h2c0.4,0,0.8,0,1,0.1c0.3,0.1,0.6,0.2,0.8,0.4c0.3,0.3,0.5,0.6,0.7,1s0.2,0.9,0.2,1.4
			c0,0.4-0.1,0.8-0.2,1.2s-0.2,0.6-0.4,0.8s-0.3,0.4-0.5,0.5s-0.4,0.2-0.7,0.3s-0.6,0.1-0.9,0.1H1051.6z M1052.4,332.7h1.2
			c0.4,0,0.7,0,0.9-0.1s0.4-0.2,0.5-0.3c0.2-0.2,0.3-0.4,0.4-0.7s0.2-0.7,0.2-1.1c0-0.6-0.1-1.1-0.3-1.4s-0.4-0.5-0.7-0.6
			c-0.2-0.1-0.5-0.1-1-0.1h-1.2V332.7z"/>
	</g>
	<g enable-background="new    ">
		<path d="M1058.3,333.4v-3.7h0.6v0.5c0.1-0.2,0.3-0.3,0.5-0.4c0.2-0.1,0.4-0.2,0.7-0.2c0.3,0,0.5,0.1,0.7,0.2
			c0.2,0.1,0.3,0.3,0.4,0.5c0.3-0.4,0.7-0.7,1.2-0.7c0.4,0,0.7,0.1,0.9,0.3s0.3,0.5,0.3,0.9v2.6h-0.6V331c0-0.3,0-0.4-0.1-0.5
			s-0.1-0.2-0.2-0.3c-0.1-0.1-0.2-0.1-0.4-0.1c-0.3,0-0.5,0.1-0.7,0.3s-0.3,0.5-0.3,0.8v2.2h-0.6V331c0-0.3-0.1-0.5-0.2-0.6
			c-0.1-0.1-0.3-0.2-0.5-0.2c-0.2,0-0.3,0-0.5,0.1s-0.3,0.2-0.3,0.4s-0.1,0.4-0.1,0.8v1.9H1058.3z"/>
	</g>
	<line fill="none" stroke="#000000" stroke-width="0.459" x1="1111.2" y1="357.8" x2="1111.2" y2="341.8"/>
	<g enable-background="new    ">
		<path d="M1110.7,358.7c-0.3,0.9-1,1.5-1.6,1.8c-0.5,0.3-1.2,0.4-2,0.3c-0.5,0-1.3-0.2-1.6-0.7c-0.3-0.6-0.1-1.2,0-1.6
			c0.3-0.8,1-1.4,1.5-1.7c0.5-0.3,1.3-0.5,2.2-0.4c0.4,0,1.1,0.1,1.5,0.7C1111,357.6,1110.8,358.4,1110.7,358.7z M1108.7,357.4
			c-0.4,0.2-0.7,0.4-1,0.5c-0.3,0.2-0.6,0.4-1,0.6c-0.5,0.3-1.1,0.9-0.8,1.4c0.3,0.6,1.1,0.3,1.6,0c0.4-0.2,0.7-0.4,1-0.5
			c0.3-0.2,0.6-0.4,1-0.6c0.5-0.3,1.1-0.9,0.8-1.4C1110.1,356.8,1109.3,357.1,1108.7,357.4z"/>
	</g>
	<g enable-background="new    ">
		<path d="M1139.2,350.4c-0.8,0-1.5,0.5-1.5,1.4c0,0.6,1,1.5,1,1.5l-0.2,0.2c0,0-2.2-1.3-2.5-2.7c-0.1-0.9,0.5-1.8,1.6-1.9
			c0.4,0,1.2,0.1,1.5,0.2c-1.8-1.8-2.8-3-2.7-3.4c0.4-0.4,1.7-2.1,1.7-3.4c0-0.9-1.3-2.9-1.3-2.9l0.3-0.2l3.5,4.4c0,0-1.7,2-1.7,3.4
			c0,1,0.6,1.8,1.1,2.3c0.2,0.3,1,1.1,1,1.2l0,0.3C1140.1,350.5,1139.6,350.4,1139.2,350.4z"/>
	</g>
	<line fill="none" stroke="#000000" stroke-width="0.459" x1="1164.6" y1="357.8" x2="1164.6" y2="341.8"/>
	<g enable-background="new    ">
		<path d="M1163.3,356.5c1.4,0,2.2,1,1.8,2.2c-0.4,1.2-1.9,2.2-3.4,2.2c-1.4,0-2.2-1-1.7-2.2
			C1160.4,357.4,1161.9,356.5,1163.3,356.5z"/>
	</g>
	<line fill="none" stroke="#000000" stroke-width="0.459" x1="1181" y1="355.4" x2="1181" y2="339.4"/>
	<g enable-background="new    ">
		<path d="M1179.7,354.1c1.4,0,2.2,1,1.8,2.2c-0.4,1.2-1.9,2.2-3.4,2.2c-1.4,0-2.2-1-1.7-2.2C1176.8,355,1178.3,354.1,1179.7,354.1z
			"/>
	</g>
	<line fill="none" stroke="#000000" stroke-width="0.459" x1="1197.4" y1="353" x2="1197.4" y2="337"/>
	<g enable-background="new    ">
		<path d="M1196.1,351.7c1.4,0,2.2,1,1.8,2.2c-0.4,1.2-1.9,2.2-3.4,2.2c-1.4,0-2.2-1-1.7-2.2
			C1193.2,352.6,1194.7,351.7,1196.1,351.7z"/>
	</g>
	<g enable-background="new    ">
		<path d="M1160.5,333.4v-5.7h3.9v0.7h-3.1v1.8h2.7v0.7h-2.7v2.6H1160.5z"/>
	</g>
	<g enable-background="new    ">
		<path d="M1166.1,333.4v-3.7h0.6v0.5c0.1-0.2,0.3-0.3,0.5-0.4c0.2-0.1,0.4-0.2,0.7-0.2c0.3,0,0.5,0.1,0.7,0.2
			c0.2,0.1,0.3,0.3,0.4,0.5c0.3-0.4,0.7-0.7,1.2-0.7c0.4,0,0.7,0.1,0.9,0.3s0.3,0.5,0.3,0.9v2.6h-0.6V331c0-0.3,0-0.4-0.1-0.5
			s-0.1-0.2-0.2-0.3c-0.1-0.1-0.2-0.1-0.4-0.1c-0.3,0-0.5,0.1-0.7,0.3s-0.3,0.5-0.3,0.8v2.2h-0.6V331c0-0.3-0.1-0.5-0.2-0.6
			c-0.1-0.1-0.3-0.2-0.5-0.2c-0.2,0-0.3,0-0.5,0.1s-0.3,0.2-0.3,0.4s-0.1,0.4-0.1,0.8v1.9H1166.1z"/>
	</g>
	<line fill="none" stroke="#000000" stroke-width="0.459" x1="1219" y1="355.4" x2="1219" y2="339.4"/>
	<g enable-background="new    ">
		<path d="M1217.7,354.1c1.4,0,2.2,1,1.8,2.2c-0.4,1.2-1.9,2.2-3.4,2.2c-1.4,0-2.2-1-1.7-2.2C1214.8,355,1216.3,354.1,1217.7,354.1z
			"/>
	</g>
	<line fill="none" stroke="#000000" stroke-width="0.459" x1="1238.8" y1="350.6" x2="1238.8" y2="334.6"/>
	<g enable-background="new    ">
		<path d="M1238.3,351.5c-0.3,0.9-1,1.5-1.6,1.8c-0.5,0.3-1.2,0.4-2,0.3c-0.5,0-1.3-0.2-1.6-0.7c-0.3-0.6-0.1-1.2,0-1.6
			c0.3-0.8,1-1.4,1.5-1.7c0.5-0.3,1.3-0.5,2.2-0.4c0.4,0,1.1,0.1,1.5,0.7C1238.6,350.4,1238.4,351.2,1238.3,351.5z M1236.3,350.2
			c-0.4,0.2-0.7,0.4-1,0.5c-0.3,0.2-0.6,0.4-1,0.6c-0.5,0.3-1.1,0.9-0.8,1.4c0.3,0.6,1.1,0.3,1.6,0c0.4-0.2,0.7-0.4,1-0.5
			c0.3-0.2,0.6-0.4,1-0.6c0.5-0.3,1.1-0.9,0.8-1.4C1237.7,349.6,1236.9,349.9,1236.3,350.2z"/>
	</g>
	<g enable-background="new    ">
		<path d="M1218.9,331.4l0.8,0.2c-0.2,0.6-0.4,1.1-0.9,1.4s-0.9,0.5-1.5,0.5c-0.6,0-1.1-0.1-1.5-0.4s-0.7-0.6-0.9-1.1
			s-0.3-1-0.3-1.5c0-0.6,0.1-1.1,0.3-1.6s0.6-0.8,1-1s0.9-0.3,1.4-0.3c0.6,0,1.1,0.1,1.4,0.4s0.7,0.7,0.8,1.2l-0.7,0.2
			c-0.1-0.4-0.3-0.7-0.6-0.9s-0.6-0.3-1-0.3c-0.4,0-0.8,0.1-1.1,0.3s-0.5,0.5-0.6,0.8s-0.2,0.7-0.2,1.1c0,0.5,0.1,0.9,0.2,1.3
			s0.4,0.6,0.7,0.8s0.6,0.3,1,0.3c0.4,0,0.8-0.1,1.1-0.4S1218.8,331.9,1218.9,331.4z"/>
	</g>
	<line fill="none" stroke="#000000" stroke-width="0.459" x1="1273.4" y1="357.8" x2="1273.4" y2="341.8"/>
	<g enable-background="new    ">
		<path d="M1272.1,356.5c1.4,0,2.2,1,1.8,2.2c-0.4,1.2-1.9,2.2-3.4,2.2c-1.4,0-2.2-1-1.7-2.2
			C1269.2,357.4,1270.7,356.5,1272.1,356.5z"/>
	</g>
	<line fill="none" stroke="#000000" stroke-width="0.459" x1="1289.8" y1="360.2" x2="1289.8" y2="344.2"/>
	<line fill="none" stroke="#000000" stroke-width="0.459" x1="1283.8" y1="361" x2="1291.2" y2="361"/>
	<g enable-background="new    ">
		<path d="M1288.5,358.9c1.4,0,2.2,1,1.8,2.2c-0.4,1.2-1.9,2.2-3.4,2.2c-1.4,0-2.2-1-1.7-2.2
			C1285.6,359.8,1287.1,358.9,1288.5,358.9z"/>
	</g>
	<line fill="none" stroke="#000000" stroke-width="0.459" x1="1306.2" y1="357.8" x2="1306.2" y2="341.8"/>
	<g enable-background="new    ">
		<path d="M1304.9,356.5c1.4,0,2.2,1,1.8,2.2c-0.4,1.2-1.9,2.2-3.4,2.2c-1.4,0-2.2-1-1.7-2.2C1302,357.4,1303.5,356.5,1304.9,356.5z
			"/>
	</g>
	<g enable-background="new    ">
		<path d="M1271.9,331.2v-0.7l2.4,0v2.1c-0.4,0.3-0.8,0.5-1.2,0.7s-0.8,0.2-1.2,0.2c-0.6,0-1.1-0.1-1.5-0.4s-0.8-0.6-1-1
			s-0.4-1-0.4-1.5c0-0.6,0.1-1.1,0.3-1.6s0.6-0.8,1-1.1s0.9-0.4,1.5-0.4c0.4,0,0.8,0.1,1.1,0.2s0.6,0.3,0.8,0.6s0.3,0.6,0.4,0.9
			l-0.7,0.2c-0.1-0.3-0.2-0.5-0.3-0.7s-0.3-0.3-0.5-0.4s-0.5-0.2-0.8-0.2c-0.3,0-0.6,0.1-0.9,0.2s-0.5,0.2-0.6,0.4s-0.3,0.4-0.4,0.6
			c-0.1,0.4-0.2,0.7-0.2,1.2c0,0.5,0.1,0.9,0.3,1.3s0.4,0.6,0.8,0.8s0.7,0.2,1.1,0.2c0.3,0,0.6-0.1,1-0.2s0.5-0.3,0.7-0.4v-1.1
			H1271.9z"/>
	</g>
	<line fill="none" stroke="#000000" stroke-width="0.459" x1="1330.2" y1="360.2" x2="1330.2" y2="344.2"/>
	<line fill="none" stroke="#000000" stroke-width="0.459" x1="1323.2" y1="361" x2="1331.6" y2="361"/>
	<g enable-background="new    ">
		<path d="M1329.7,361.1c-0.3,0.9-1,1.5-1.6,1.8c-0.5,0.3-1.2,0.4-2,0.3c-0.5,0-1.3-0.2-1.6-0.7c-0.3-0.6-0.1-1.2,0-1.6
			c0.3-0.8,1-1.4,1.5-1.7c0.5-0.3,1.3-0.5,2.2-0.4c0.4,0,1.1,0.1,1.5,0.7C1330,360,1329.8,360.8,1329.7,361.1z M1327.7,359.8
			c-0.4,0.2-0.7,0.4-1,0.5c-0.3,0.2-0.6,0.4-1,0.6c-0.5,0.3-1.1,0.9-0.8,1.4c0.3,0.6,1.1,0.3,1.6,0c0.4-0.2,0.7-0.4,1-0.5
			c0.3-0.2,0.6-0.4,1-0.6c0.5-0.3,1.1-0.9,0.8-1.4C1329.1,359.2,1328.3,359.5,1327.7,359.8z"/>
	</g>
	<g enable-background="new    ">
		<path d="M1357.4,350.4c-0.8,0-1.5,0.5-1.5,1.4c0,0.6,1,1.5,1,1.5l-0.2,0.2c0,0-2.2-1.3-2.5-2.7c-0.1-0.9,0.5-1.8,1.6-1.9
			c0.4,0,1.2,0.1,1.5,0.2c-1.8-1.8-2.8-3-2.7-3.4c0.4-0.4,1.7-2.1,1.7-3.4c0-0.9-1.3-2.9-1.3-2.9l0.3-0.2l3.5,4.4c0,0-1.7,2-1.7,3.4
			c0,1,0.6,1.8,1.1,2.3c0.2,0.3,1,1.1,1,1.2l0,0.3C1358.3,350.5,1357.8,350.4,1357.4,350.4z"/>
	</g>
	<g enable-background="new    ">
		<path d="M1329.1,331.4l0.8,0.2c-0.2,0.6-0.4,1.1-0.9,1.4s-0.9,0.5-1.5,0.5c-0.6,0-1.1-0.1-1.5-0.4s-0.7-0.6-0.9-1.1
			s-0.3-1-0.3-1.5c0-0.6,0.1-1.1,0.3-1.6s0.6-0.8,1-1s0.9-0.3,1.4-0.3c0.6,0,1.1,0.1,1.4,0.4s0.7,0.7,0.8,1.2l-0.7,0.2
			c-0.1-0.4-0.3-0.7-0.6-0.9s-0.6-0.3-1-0.3c-0.4,0-0.8,0.1-1.1,0.3s-0.5,0.5-0.6,0.8s-0.2,0.7-0.2,1.1c0,0.5,0.1,0.9,0.2,1.3
			s0.4,0.6,0.7,0.8s0.6,0.3,1,0.3c0.4,0,0.8-0.1,1.1-0.4S1329,331.9,1329.1,331.4z"/>
	</g>
	<g enable-background="new    ">
		<path d="M1402.7,341.8v2.8h-6.1v-2.8H1402.7z"/>
	</g>
	<line fill="none" stroke="#000000" stroke-width="0.459" x1="1396" y1="341.8" x2="1403.2" y2="341.8"/>
	<g enable-background="new    ">
		<path d="M1457.1,341.8v2.8h-6.1v-2.8H1457.1z"/>
	</g>
	<line fill="none" stroke="#000000" stroke-width="0.459" x1="1450.4" y1="341.8" x2="1457.6" y2="341.8"/>
	<g enable-background="new    ">
		<path d="M1511.5,341.8v2.8h-6.1v-2.8H1511.5z"/>
	</g>
	<line fill="none" stroke="#000000" stroke-width="0.459" x1="1504.8" y1="341.8" x2="1512" y2="341.8"/>
	<line fill="none" stroke="#000000" stroke-width="0.459" x1="1541" y1="345" x2="1541" y2="361"/>
	<g enable-background="new    ">
		<path d="M1544.3,342.1c1.4,0,2.2,1,1.8,2.2c-0.4,1.2-1.9,2.2-3.4,2.2c-1.4,0-2.2-1-1.7-2.2C1541.4,343,1542.9,342.1,1544.3,342.1z
			"/>
	</g>
	<g enable-background="new    ">
		<path d="M1565.6,343.3c0.6,0,1,0.4,1,1c0,0.5-0.4,1-1,1s-1-0.4-1-1C1564.6,343.7,1565,343.3,1565.6,343.3z"/>
	</g>
	<line fill="none" stroke="#000000" stroke-width="0.459" x1="1557.6" y1="347.4" x2="1557.6" y2="363.4"/>
	<g enable-background="new    ">
		<path d="M1560.9,344.5c1.4,0,2.2,1,1.8,2.2c-0.4,1.2-1.9,2.2-3.4,2.2c-1.4,0-2.2-1-1.7-2.2C1558,345.4,1559.5,344.5,1560.9,344.5z
			"/>
	</g>
	<g enable-background="new    ">
		<path d="M1583.7,357.2c-0.8,1.4-1.7,2.7-2.4,3.7c-0.6,0.9-1.3,2.1-1.3,3.2h-0.4v-5.1h0.4c0,0,1-0.1,2-0.7c0.7-0.4,1.7-1.7,2.4-3.6
			c0.4-1.1,0.4-1.8,0.4-2.8c0-1.1-0.5-2.6-0.9-3.4l0.2-0.1c0.7,1.1,1.3,3.1,1,5.4C1584.8,354.8,1584.5,355.9,1583.7,357.2z"/>
	</g>
	<line fill="none" stroke="#000000" stroke-width="0.459" x1="1579.8" y1="347.4" x2="1579.8" y2="363.4"/>
	<g enable-background="new    ">
		<path d="M1583.1,344.5c1.4,0,2.2,1,1.8,2.2c-0.4,1.2-1.9,2.2-3.4,2.2c-1.4,0-2.2-1-1.7-2.2
			C1580.2,345.4,1581.7,344.5,1583.1,344.5z"/>
	</g>
	<g enable-background="new    ">
		<path d="M1545.5,331.4l0.8,0.2c-0.2,0.6-0.4,1.1-0.9,1.4s-0.9,0.5-1.5,0.5c-0.6,0-1.1-0.1-1.5-0.4s-0.7-0.6-0.9-1.1
			s-0.3-1-0.3-1.5c0-0.6,0.1-1.1,0.3-1.6s0.6-0.8,1-1s0.9-0.3,1.4-0.3c0.6,0,1.1,0.1,1.4,0.4s0.7,0.7,0.8,1.2l-0.7,0.2
			c-0.1-0.4-0.3-0.7-0.6-0.9s-0.6-0.3-1-0.3c-0.4,0-0.8,0.1-1.1,0.3s-0.5,0.5-0.6,0.8s-0.2,0.7-0.2,1.1c0,0.5,0.1,0.9,0.2,1.3
			s0.4,0.6,0.7,0.8s0.6,0.3,1,0.3c0.4,0,0.8-0.1,1.1-0.4S1545.4,331.9,1545.5,331.4z"/>
	</g>
	<line fill="none" stroke="#000000" stroke-width="0.459" x1="1599.8" y1="348.2" x2="1599.8" y2="332.2"/>
	<g enable-background="new    ">
		<path d="M1598.5,346.9c1.4,0,2.2,1,1.8,2.2c-0.4,1.2-1.9,2.2-3.4,2.2s-2.2-1-1.7-2.2C1595.6,347.8,1597.1,346.9,1598.5,346.9z"/>
	</g>
	<g enable-background="new    ">
		<path d="M1618.2,348.1c0.6,0,1,0.4,1,1c0,0.5-0.4,1-1,1s-1-0.4-1-1C1617.2,348.5,1617.6,348.1,1618.2,348.1z"/>
	</g>
	<line fill="none" stroke="#000000" stroke-width="0.459" x1="1614.8" y1="350.6" x2="1614.8" y2="334.6"/>
	<g enable-background="new    ">
		<path d="M1613.5,349.3c1.4,0,2.2,1,1.8,2.2c-0.4,1.2-1.9,2.2-3.4,2.2s-2.2-1-1.7-2.2C1610.6,350.2,1612.1,349.3,1613.5,349.3z"/>
	</g>
	<g enable-background="new    ">
		<path d="M1637.2,336.7c0.6,0.9,1.4,1.9,2.2,3.1c0.6,1.1,1.2,2.7,1.2,3.5c0.1,0.8,0.2,1.6,0.2,2.3c0,1.2-0.2,2.2-0.6,3.3l-0.2,0
			c0.3-0.9,0.5-2.2,0.5-3.3c0-0.9-0.2-2.1-0.5-3.1c-0.6-1.7-1.5-2.7-2.1-3.1c-0.8-0.6-1.8-0.6-1.8-0.6h-0.3v-5h0.3
			C1636.1,334.8,1636.6,335.9,1637.2,336.7z"/>
	</g>
	<line fill="none" stroke="#000000" stroke-width="0.459" x1="1635.6" y1="350.6" x2="1635.6" y2="334.6"/>
	<g enable-background="new    ">
		<path d="M1634.3,349.3c1.4,0,2.2,1,1.8,2.2c-0.4,1.2-1.9,2.2-3.4,2.2c-1.4,0-2.2-1-1.7-2.2
			C1631.4,350.2,1632.9,349.3,1634.3,349.3z"/>
	</g>
	<line fill="none" stroke="#000000" stroke-width="0.459" x1="1654.2" y1="350.6" x2="1654.2" y2="334.6"/>
	<g enable-background="new    ">
		<path d="M1652.9,349.3c1.4,0,2.2,1,1.8,2.2c-0.4,1.2-1.9,2.2-3.4,2.2c-1.4,0-2.2-1-1.7-2.2C1650,350.2,1651.5,349.3,1652.9,349.3z
			"/>
	</g>
	<line fill="none" stroke="#000000" stroke-width="0.459" x1="1670.6" y1="353" x2="1670.6" y2="337"/>
	<g enable-background="new    ">
		<path d="M1669.3,351.7c1.4,0,2.2,1,1.8,2.2c-0.4,1.2-1.9,2.2-3.4,2.2c-1.4,0-2.2-1-1.7-2.2
			C1666.4,352.6,1667.9,351.7,1669.3,351.7z"/>
	</g>
	<line fill="none" stroke="#000000" stroke-width="0.459" x1="1687" y1="355.4" x2="1687" y2="339.4"/>
	<g enable-background="new    ">
		<path d="M1685.7,354.1c1.4,0,2.2,1,1.8,2.2c-0.4,1.2-1.9,2.2-3.4,2.2c-1.4,0-2.2-1-1.7-2.2C1682.8,355,1684.3,354.1,1685.7,354.1z
			"/>
	</g>
	<g enable-background="new    ">
		<path d="M1650.1,333.4v-5.7h3.9v0.7h-3.1v1.8h2.7v0.7h-2.7v2.6H1650.1z"/>
	</g>
	<line fill="none" stroke="#000000" stroke-width="0.459" x1="1709.6" y1="357.8" x2="1709.6" y2="341.8"/>
	<g enable-background="new    ">
		<path d="M1709.1,358.7c-0.3,0.9-1,1.5-1.6,1.8c-0.5,0.3-1.2,0.4-2,0.3c-0.5,0-1.3-0.2-1.6-0.7c-0.3-0.6-0.1-1.2,0-1.6
			c0.3-0.8,1-1.4,1.5-1.7c0.5-0.3,1.3-0.5,2.2-0.4c0.4,0,1.1,0.1,1.5,0.7C1709.4,357.6,1709.2,358.4,1709.1,358.7z M1707.1,357.4
			c-0.4,0.2-0.7,0.4-1,0.5c-0.3,0.2-0.6,0.4-1,0.6c-0.5,0.3-1.1,0.9-0.8,1.4c0.3,0.6,1.1,0.3,1.6,0c0.4-0.2,0.7-0.4,1-0.5
			c0.3-0.2,0.6-0.4,1-0.6c0.5-0.3,1.1-0.9,0.8-1.4C1708.5,356.8,1707.7,357.1,1707.1,357.4z"/>
	</g>
	<g enable-background="new    ">
		<path d="M1737.6,350.4c-0.8,0-1.5,0.5-1.5,1.4c0,0.6,1,1.5,1,1.5l-0.2,0.2c0,0-2.2-1.3-2.5-2.7c-0.1-0.9,0.5-1.8,1.6-1.9
			c0.4,0,1.2,0.1,1.5,0.2c-1.8-1.8-2.8-3-2.7-3.4c0.4-0.4,1.7-2.1,1.7-3.4c0-0.9-1.3-2.9-1.3-2.9l0.3-0.2l3.5,4.4c0,0-1.7,2-1.7,3.4
			c0,1,0.6,1.8,1.1,2.3c0.2,0.3,1,1.1,1,1.2l0,0.3C1738.5,350.5,1738,350.4,1737.6,350.4z"/>
	</g>
	<line fill="none" stroke="#000000" stroke-width="0.459" x1="1763" y1="350.6" x2="1763" y2="334.6"/>
	<g enable-background="new    ">
		<path d="M1761.7,349.3c1.4,0,2.2,1,1.8,2.2c-0.4,1.2-1.9,2.2-3.4,2.2c-1.4,0-2.2-1-1.7-2.2
			C1758.8,350.2,1760.3,349.3,1761.7,349.3z"/>
	</g>
	<line fill="none" stroke="#000000" stroke-width="0.459" x1="1779.4" y1="353" x2="1779.4" y2="337"/>
	<g enable-background="new    ">
		<path d="M1778.1,351.7c1.4,0,2.2,1,1.8,2.2c-0.4,1.2-1.9,2.2-3.4,2.2c-1.4,0-2.2-1-1.7-2.2
			C1775.2,352.6,1776.7,351.7,1778.1,351.7z"/>
	</g>
	<line fill="none" stroke="#000000" stroke-width="0.459" x1="1795.8" y1="355.4" x2="1795.8" y2="339.4"/>
	<g enable-background="new    ">
		<path d="M1794.5,354.1c1.4,0,2.2,1,1.8,2.2c-0.4,1.2-1.9,2.2-3.4,2.2s-2.2-1-1.7-2.2C1791.6,355,1793.1,354.1,1794.5,354.1z"/>
	</g>
	<g enable-background="new    ">
		<path d="M1758.8,333.4v-5.7h2c0.4,0,0.8,0,1,0.1c0.3,0.1,0.6,0.2,0.8,0.4c0.3,0.3,0.5,0.6,0.7,1s0.2,0.9,0.2,1.4
			c0,0.4-0.1,0.8-0.2,1.2s-0.2,0.6-0.4,0.8s-0.3,0.4-0.5,0.5s-0.4,0.2-0.7,0.3s-0.6,0.1-0.9,0.1H1758.8z M1759.6,332.7h1.2
			c0.4,0,0.7,0,0.9-0.1s0.4-0.2,0.5-0.3c0.2-0.2,0.3-0.4,0.4-0.7s0.2-0.7,0.2-1.1c0-0.6-0.1-1.1-0.3-1.4s-0.4-0.5-0.7-0.6
			c-0.2-0.1-0.5-0.1-1-0.1h-1.2V332.7z"/>
	</g>
	<g enable-background="new    ">
		<path d="M1765.5,333.4v-3.7h0.6v0.5c0.1-0.2,0.3-0.3,0.5-0.4c0.2-0.1,0.4-0.2,0.7-0.2c0.3,0,0.5,0.1,0.7,0.2
			c0.2,0.1,0.3,0.3,0.4,0.5c0.3-0.4,0.7-0.7,1.2-0.7c0.4,0,0.7,0.1,0.9,0.3s0.3,0.5,0.3,0.9v2.6h-0.6V331c0-0.3,0-0.4-0.1-0.5
			s-0.1-0.2-0.2-0.3c-0.1-0.1-0.2-0.1-0.4-0.1c-0.3,0-0.5,0.1-0.7,0.3s-0.3,0.5-0.3,0.8v2.2h-0.6V331c0-0.3-0.1-0.5-0.2-0.6
			c-0.1-0.1-0.3-0.2-0.5-0.2c-0.2,0-0.3,0-0.5,0.1s-0.3,0.2-0.3,0.4c-0.1,0.2-0.1,0.4-0.1,0.8v1.9H1765.5z"/>
	</g>
	<line fill="none" stroke="#000000" stroke-width="0.459" x1="1817.4" y1="355.4" x2="1817.4" y2="339.4"/>
	<g enable-background="new    ">
		<path d="M1816.1,354.1c1.4,0,2.2,1,1.8,2.2c-0.4,1.2-1.9,2.2-3.4,2.2c-1.4,0-2.2-1-1.7-2.2C1813.2,355,1814.7,354.1,1816.1,354.1z
			"/>
	</g>
	<line fill="none" stroke="#000000" stroke-width="0.459" x1="1837.2" y1="357.8" x2="1837.2" y2="341.8"/>
	<g enable-background="new    ">
		<path d="M1836.7,358.7c-0.3,0.9-1,1.5-1.6,1.8c-0.5,0.3-1.2,0.4-2,0.3c-0.5,0-1.3-0.2-1.6-0.7c-0.3-0.6-0.1-1.2,0-1.6
			c0.3-0.8,1-1.4,1.5-1.7c0.5-0.3,1.3-0.5,2.2-0.4c0.4,0,1.1,0.1,1.5,0.7C1837,357.6,1836.8,358.4,1836.7,358.7z M1834.7,357.4
			c-0.4,0.2-0.7,0.4-1,0.5c-0.3,0.2-0.6,0.4-1,0.6c-0.5,0.3-1.1,0.9-0.8,1.4c0.3,0.6,1.1,0.3,1.6,0c0.4-0.2,0.7-0.4,1-0.5
			c0.3-0.2,0.6-0.4,1-0.6c0.5-0.3,1.1-0.9,0.8-1.4C1836.1,356.8,1835.3,357.1,1834.7,357.4z"/>
	</g>
	<g enable-background="new    ">
		<path d="M1815.9,331.2v-0.7l2.4,0v2.1c-0.4,0.3-0.8,0.5-1.2,0.7c-0.4,0.1-0.8,0.2-1.2,0.2c-0.6,0-1.1-0.1-1.5-0.4
			c-0.5-0.2-0.8-0.6-1-1s-0.4-1-0.4-1.5c0-0.6,0.1-1.1,0.3-1.6c0.2-0.5,0.6-0.8,1-1.1s0.9-0.4,1.5-0.4c0.4,0,0.8,0.1,1.1,0.2
			c0.3,0.1,0.6,0.3,0.8,0.6c0.2,0.2,0.3,0.6,0.4,0.9l-0.7,0.2c-0.1-0.3-0.2-0.5-0.3-0.7c-0.1-0.2-0.3-0.3-0.5-0.4
			c-0.2-0.1-0.5-0.2-0.8-0.2c-0.3,0-0.6,0.1-0.9,0.2c-0.3,0.1-0.5,0.2-0.6,0.4c-0.2,0.2-0.3,0.4-0.4,0.6c-0.1,0.4-0.2,0.7-0.2,1.2
			c0,0.5,0.1,0.9,0.3,1.3s0.4,0.6,0.8,0.8s0.7,0.2,1.1,0.2c0.3,0,0.6-0.1,1-0.2s0.5-0.3,0.7-0.4v-1.1H1815.9z"/>
	</g>
	<line fill="none" stroke="#000000" stroke-width="0.459" x1="1871.8" y1="353" x2="1871.8" y2="337"/>
	<g enable-background="new    ">
		<path d="M1870.5,351.7c1.4,0,2.2,1,1.8,2.2c-0.4,1.2-1.9,2.2-3.4,2.2s-2.2-1-1.7-2.2C1867.6,352.6,1869.1,351.7,1870.5,351.7z"/>
	</g>
	<line fill="none" stroke="#000000" stroke-width="0.459" x1="1888.2" y1="355.4" x2="1888.2" y2="339.4"/>
	<g enable-background="new    ">
		<path d="M1886.9,354.1c1.4,0,2.2,1,1.8,2.2c-0.4,1.2-1.9,2.2-3.4,2.2c-1.4,0-2.2-1-1.7-2.2C1884,355,1885.5,354.1,1886.9,354.1z"
			/>
	</g>
	<line fill="none" stroke="#000000" stroke-width="0.459" x1="1904.6" y1="360.2" x2="1904.6" y2="344.2"/>
	<line fill="none" stroke="#000000" stroke-width="0.459" x1="1898.6" y1="361" x2="1906" y2="361"/>
	<g enable-background="new    ">
		<path d="M1903.3,358.9c1.4,0,2.2,1,1.8,2.2c-0.4,1.2-1.9,2.2-3.4,2.2c-1.4,0-2.2-1-1.7-2.2
			C1900.4,359.8,1901.9,358.9,1903.3,358.9z"/>
	</g>
	<g enable-background="new    ">
		<path d="M1871.7,331.4l0.8,0.2c-0.2,0.6-0.4,1.1-0.9,1.4s-0.9,0.5-1.5,0.5c-0.6,0-1.1-0.1-1.5-0.4s-0.7-0.6-0.9-1.1
			s-0.3-1-0.3-1.5c0-0.6,0.1-1.1,0.3-1.6s0.6-0.8,1-1s0.9-0.3,1.4-0.3c0.6,0,1.1,0.1,1.4,0.4s0.7,0.7,0.8,1.2l-0.7,0.2
			c-0.1-0.4-0.3-0.7-0.6-0.9s-0.6-0.3-1-0.3c-0.4,0-0.8,0.1-1.1,0.3s-0.5,0.5-0.6,0.8s-0.2,0.7-0.2,1.1c0,0.5,0.1,0.9,0.2,1.3
			s0.4,0.6,0.7,0.8s0.6,0.3,1,0.3c0.4,0,0.8-0.1,1.1-0.4S1871.6,331.9,1871.7,331.4z"/>
	</g>
	<line fill="none" stroke="#000000" stroke-width="0.459" x1="1927.2" y1="355.4" x2="1927.2" y2="339.4"/>
	<g enable-background="new    ">
		<path d="M1926.7,356.3c-0.3,0.9-1,1.5-1.6,1.8c-0.5,0.3-1.2,0.4-2,0.3c-0.5,0-1.3-0.2-1.6-0.7c-0.3-0.6-0.1-1.2,0-1.6
			c0.3-0.8,1-1.4,1.5-1.7c0.5-0.3,1.3-0.5,2.2-0.4c0.4,0,1.1,0.1,1.5,0.7C1927,355.2,1926.8,356,1926.7,356.3z M1924.7,355
			c-0.4,0.2-0.7,0.4-1,0.5c-0.3,0.2-0.6,0.4-1,0.6c-0.5,0.3-1.1,0.9-0.8,1.4c0.3,0.6,1.1,0.3,1.6,0c0.4-0.2,0.7-0.4,1-0.5
			c0.3-0.2,0.6-0.4,1-0.6c0.5-0.3,1.1-0.9,0.8-1.4C1926.1,354.4,1925.3,354.7,1924.7,355z"/>
	</g>
	<g enable-background="new    ">
		<path d="M1955.2,350.4c-0.8,0-1.5,0.5-1.5,1.4c0,0.6,1,1.5,1,1.5l-0.2,0.2c0,0-2.2-1.3-2.5-2.7c-0.1-0.9,0.5-1.8,1.6-1.9
			c0.4,0,1.2,0.1,1.5,0.2c-1.8-1.8-2.8-3-2.7-3.4c0.4-0.4,1.7-2.1,1.7-3.4c0-0.9-1.3-2.9-1.3-2.9l0.3-0.2l3.5,4.4c0,0-1.7,2-1.7,3.4
			c0,1,0.6,1.8,1.1,2.3c0.2,0.3,1,1.1,1,1.2l0,0.3C1956.1,350.5,1955.6,350.4,1955.2,350.4z"/>
	</g>
	<line fill="none" stroke="#000000" stroke-width="0.459" x1="1976.2" y1="345" x2="1976.2" y2="361"/>
	<g enable-background="new    ">
		<path d="M1979.5,342.1c1.4,0,2.2,1,1.8,2.2c-0.4,1.2-1.9,2.2-3.4,2.2s-2.2-1-1.7-2.2C1976.6,343,1978.1,342.1,1979.5,342.1z"/>
	</g>
	<g enable-background="new    ">
		<path d="M2000.8,343.3c0.6,0,1,0.4,1,1c0,0.5-0.4,1-1,1s-1-0.4-1-1C1999.8,343.7,2000.2,343.3,2000.8,343.3z"/>
	</g>
	<line fill="none" stroke="#000000" stroke-width="0.459" x1="1992.8" y1="347.4" x2="1992.8" y2="363.4"/>
	<g enable-background="new    ">
		<path d="M1996.1,344.5c1.4,0,2.2,1,1.8,2.2c-0.4,1.2-1.9,2.2-3.4,2.2c-1.4,0-2.2-1-1.7-2.2
			C1993.2,345.4,1994.7,344.5,1996.1,344.5z"/>
	</g>
	<g enable-background="new    ">
		<path d="M2018.9,357.2c-0.8,1.4-1.7,2.7-2.4,3.7c-0.6,0.9-1.3,2.1-1.3,3.2h-0.4v-5.1h0.4c0,0,1-0.1,2-0.7c0.7-0.4,1.7-1.7,2.4-3.6
			c0.4-1.1,0.4-1.8,0.4-2.8c0-1.1-0.5-2.6-0.9-3.4l0.2-0.1c0.7,1.1,1.3,3.1,1,5.4C2020,354.8,2019.7,355.9,2018.9,357.2z"/>
	</g>
	<line fill="none" stroke="#000000" stroke-width="0.459" x1="2015" y1="347.4" x2="2015" y2="363.4"/>
	<g enable-background="new    ">
		<path d="M2018.3,344.5c1.4,0,2.2,1,1.8,2.2c-0.4,1.2-1.9,2.2-3.4,2.2c-1.4,0-2.2-1-1.7-2.2
			C2015.4,345.4,2016.9,344.5,2018.3,344.5z"/>
	</g>
	<g enable-background="new    ">
		<path d="M1976,333.4l2.2-5.7h0.8l2.3,5.7h-0.9l-0.7-1.7h-2.4l-0.6,1.7H1976z M1977.6,331h1.9l-0.6-1.6c-0.2-0.5-0.3-0.9-0.4-1.2
			c-0.1,0.4-0.2,0.7-0.3,1.1L1977.6,331z"/>
	</g>
	<g enable-background="new    ">
		<path d="M1982.3,333.4v-3.7h0.6v0.5c0.1-0.2,0.3-0.3,0.5-0.4c0.2-0.1,0.4-0.2,0.7-0.2c0.3,0,0.5,0.1,0.7,0.2
			c0.2,0.1,0.3,0.3,0.4,0.5c0.3-0.4,0.7-0.7,1.2-0.7c0.4,0,0.7,0.1,0.9,0.3s0.3,0.5,0.3,0.9v2.6h-0.6V331c0-0.3,0-0.4-0.1-0.5
			s-0.1-0.2-0.2-0.3c-0.1-0.1-0.2-0.1-0.4-0.1c-0.3,0-0.5,0.1-0.7,0.3s-0.3,0.5-0.3,0.8v2.2h-0.6V331c0-0.3-0.1-0.5-0.2-0.6
			s-0.3-0.2-0.5-0.2c-0.2,0-0.3,0-0.5,0.1s-0.3,0.2-0.3,0.4c-0.1,0.2-0.1,0.4-0.1,0.8v1.9H1982.3z"/>
	</g>
	<line fill="none" stroke="#000000" stroke-width="0.459" x1="2035" y1="348.2" x2="2035" y2="332.2"/>
	<g enable-background="new    ">
		<path d="M2033.7,346.9c1.4,0,2.2,1,1.8,2.2c-0.4,1.2-1.9,2.2-3.4,2.2c-1.4,0-2.2-1-1.7-2.2
			C2030.8,347.8,2032.3,346.9,2033.7,346.9z"/>
	</g>
	<g enable-background="new    ">
		<path d="M2053.4,348.1c0.6,0,1,0.4,1,1c0,0.5-0.4,1-1,1s-1-0.4-1-1C2052.4,348.5,2052.8,348.1,2053.4,348.1z"/>
	</g>
	<line fill="none" stroke="#000000" stroke-width="0.459" x1="2050" y1="350.6" x2="2050" y2="334.6"/>
	<g enable-background="new    ">
		<path d="M2048.7,349.3c1.4,0,2.2,1,1.8,2.2c-0.4,1.2-1.9,2.2-3.4,2.2c-1.4,0-2.2-1-1.7-2.2
			C2045.8,350.2,2047.3,349.3,2048.7,349.3z"/>
	</g>
	<g enable-background="new    ">
		<path d="M2072.4,336.7c0.6,0.9,1.4,1.9,2.1,3.1c0.6,1.1,1.2,2.7,1.2,3.5c0.1,0.8,0.2,1.6,0.2,2.3c0,1.2-0.2,2.2-0.6,3.3l-0.2,0
			c0.3-0.9,0.5-2.2,0.5-3.3c0-0.9-0.2-2.1-0.5-3.1c-0.6-1.7-1.5-2.7-2.1-3.1c-0.8-0.6-1.8-0.6-1.8-0.6h-0.3v-5h0.3
			C2071.3,334.8,2071.8,335.9,2072.4,336.7z"/>
	</g>
	<line fill="none" stroke="#000000" stroke-width="0.459" x1="2070.8" y1="350.6" x2="2070.8" y2="334.6"/>
	<g enable-background="new    ">
		<path d="M2069.5,349.3c1.4,0,2.2,1,1.8,2.2c-0.4,1.2-1.9,2.2-3.4,2.2s-2.2-1-1.7-2.2C2066.6,350.2,2068.1,349.3,2069.5,349.3z"/>
	</g>
	<line fill="none" stroke="#000000" stroke-width="0.459" x1="2089.4" y1="350.6" x2="2089.4" y2="334.6"/>
	<g enable-background="new    ">
		<path d="M2088.1,349.3c1.4,0,2.2,1,1.8,2.2c-0.4,1.2-1.9,2.2-3.4,2.2c-1.4,0-2.2-1-1.7-2.2
			C2085.2,350.2,2086.7,349.3,2088.1,349.3z"/>
	</g>
	<line fill="none" stroke="#000000" stroke-width="0.459" x1="2105.8" y1="353" x2="2105.8" y2="337"/>
	<g enable-background="new    ">
		<path d="M2104.5,351.7c1.4,0,2.2,1,1.8,2.2c-0.4,1.2-1.9,2.2-3.4,2.2s-2.2-1-1.7-2.2C2101.6,352.6,2103.1,351.7,2104.5,351.7z"/>
	</g>
	<line fill="none" stroke="#000000" stroke-width="0.459" x1="2122.2" y1="355.4" x2="2122.2" y2="339.4"/>
	<g enable-background="new    ">
		<path d="M2120.9,354.1c1.4,0,2.2,1,1.8,2.2c-0.4,1.2-1.9,2.2-3.4,2.2c-1.4,0-2.2-1-1.7-2.2C2118,355,2119.5,354.1,2120.9,354.1z"
			/>
	</g>
	<g enable-background="new    ">
		<path d="M2085.2,333.4v-5.7h2c0.4,0,0.8,0,1,0.1c0.3,0.1,0.6,0.2,0.8,0.4c0.3,0.3,0.5,0.6,0.7,1c0.2,0.4,0.2,0.9,0.2,1.4
			c0,0.4-0.1,0.8-0.2,1.2s-0.2,0.6-0.4,0.8c-0.2,0.2-0.3,0.4-0.5,0.5c-0.2,0.1-0.4,0.2-0.7,0.3c-0.3,0.1-0.6,0.1-0.9,0.1H2085.2z
			 M2086,332.7h1.2c0.4,0,0.7,0,0.9-0.1s0.4-0.2,0.5-0.3c0.2-0.2,0.3-0.4,0.4-0.7c0.1-0.3,0.2-0.7,0.2-1.1c0-0.6-0.1-1.1-0.3-1.4
			c-0.2-0.3-0.4-0.5-0.7-0.6c-0.2-0.1-0.5-0.1-1-0.1h-1.2V332.7z"/>
	</g>
	<g enable-background="new    ">
		<path d="M2091.9,333.4v-3.7h0.6v0.5c0.1-0.2,0.3-0.3,0.5-0.4c0.2-0.1,0.4-0.2,0.7-0.2c0.3,0,0.5,0.1,0.7,0.2
			c0.2,0.1,0.3,0.3,0.4,0.5c0.3-0.4,0.7-0.7,1.2-0.7c0.4,0,0.7,0.1,0.9,0.3s0.3,0.5,0.3,0.9v2.6h-0.6V331c0-0.3,0-0.4-0.1-0.5
			s-0.1-0.2-0.2-0.3c-0.1-0.1-0.2-0.1-0.4-0.1c-0.3,0-0.5,0.1-0.7,0.3c-0.2,0.2-0.3,0.5-0.3,0.8v2.2h-0.6V331c0-0.3-0.1-0.5-0.2-0.6
			c-0.1-0.1-0.3-0.2-0.5-0.2c-0.2,0-0.3,0-0.5,0.1c-0.2,0.1-0.3,0.2-0.3,0.4s-0.1,0.4-0.1,0.8v1.9H2091.9z"/>
	</g>
	<line fill="none" stroke="#000000" stroke-width="0.459" x1="2144.8" y1="357.8" x2="2144.8" y2="341.8"/>
	<g enable-background="new    ">
		<path d="M2144.3,358.7c-0.3,0.9-1,1.5-1.6,1.8c-0.5,0.3-1.2,0.4-2,0.3c-0.5,0-1.3-0.2-1.6-0.7c-0.3-0.6-0.1-1.2,0-1.6
			c0.3-0.8,1-1.4,1.5-1.7c0.5-0.3,1.3-0.5,2.2-0.4c0.4,0,1.1,0.1,1.5,0.7C2144.6,357.6,2144.4,358.4,2144.3,358.7z M2142.3,357.4
			c-0.4,0.2-0.7,0.4-1,0.5c-0.3,0.2-0.6,0.4-1,0.6c-0.5,0.3-1.1,0.9-0.8,1.4c0.3,0.6,1.1,0.3,1.6,0c0.4-0.2,0.7-0.4,1-0.5
			c0.3-0.2,0.6-0.4,1-0.6c0.5-0.3,1.1-0.9,0.8-1.4C2143.7,356.8,2142.9,357.1,2142.3,357.4z"/>
	</g>
	<g enable-background="new    ">
		<path d="M2172.8,350.4c-0.8,0-1.5,0.5-1.5,1.4c0,0.6,1,1.5,1,1.5l-0.2,0.2c0,0-2.2-1.3-2.5-2.7c-0.1-0.9,0.5-1.8,1.6-1.9
			c0.4,0,1.2,0.1,1.5,0.2c-1.8-1.8-2.8-3-2.7-3.4c0.4-0.4,1.7-2.1,1.7-3.4c0-0.9-1.3-2.9-1.3-2.9l0.3-0.2l3.5,4.4c0,0-1.7,2-1.7,3.4
			c0,1,0.6,1.8,1.1,2.3c0.2,0.3,1,1.1,1,1.2l0,0.3C2173.7,350.5,2173.2,350.4,2172.8,350.4z"/>
	</g>
	<line fill="none" stroke="#000000" stroke-width="0.459" x1="2198.2" y1="357.8" x2="2198.2" y2="341.8"/>
	<g enable-background="new    ">
		<path d="M2196.9,356.5c1.4,0,2.2,1,1.8,2.2c-0.4,1.2-1.9,2.2-3.4,2.2c-1.4,0-2.2-1-1.7-2.2C2194,357.4,2195.5,356.5,2196.9,356.5z
			"/>
	</g>
	<line fill="none" stroke="#000000" stroke-width="0.459" x1="2214.6" y1="355.4" x2="2214.6" y2="339.4"/>
	<g enable-background="new    ">
		<path d="M2213.3,354.1c1.4,0,2.2,1,1.8,2.2c-0.4,1.2-1.9,2.2-3.4,2.2c-1.4,0-2.2-1-1.7-2.2C2210.4,355,2211.9,354.1,2213.3,354.1z
			"/>
	</g>
	<line fill="none" stroke="#000000" stroke-width="0.459" x1="2231" y1="353" x2="2231" y2="337"/>
	<g enable-background="new    ">
		<path d="M2229.7,351.7c1.4,0,2.2,1,1.8,2.2c-0.4,1.2-1.9,2.2-3.4,2.2c-1.4,0-2.2-1-1.7-2.2
			C2226.8,352.6,2228.3,351.7,2229.7,351.7z"/>
	</g>
	<g enable-background="new    ">
		<path d="M2194.1,333.4v-5.7h3.9v0.7h-3.1v1.8h2.7v0.7h-2.7v2.6H2194.1z"/>
	</g>
	<g enable-background="new    ">
		<path d="M2199.7,333.4v-3.7h0.6v0.5c0.1-0.2,0.3-0.3,0.5-0.4c0.2-0.1,0.4-0.2,0.7-0.2c0.3,0,0.5,0.1,0.7,0.2
			c0.2,0.1,0.3,0.3,0.4,0.5c0.3-0.4,0.7-0.7,1.2-0.7c0.4,0,0.7,0.1,0.9,0.3s0.3,0.5,0.3,0.9v2.6h-0.6V331c0-0.3,0-0.4-0.1-0.5
			s-0.1-0.2-0.2-0.3c-0.1-0.1-0.2-0.1-0.4-0.1c-0.3,0-0.5,0.1-0.7,0.3s-0.3,0.5-0.3,0.8v2.2h-0.6V331c0-0.3-0.1-0.5-0.2-0.6
			s-0.3-0.2-0.5-0.2c-0.2,0-0.3,0-0.5,0.1s-0.3,0.2-0.3,0.4c-0.1,0.2-0.1,0.4-0.1,0.8v1.9H2199.7z"/>
	</g>
	<line fill="none" stroke="#000000" stroke-width="0.459" x1="2252.6" y1="355.4" x2="2252.6" y2="339.4"/>
	<g enable-background="new    ">
		<path d="M2251.3,354.1c1.4,0,2.2,1,1.8,2.2c-0.4,1.2-1.9,2.2-3.4,2.2c-1.4,0-2.2-1-1.7-2.2C2248.4,355,2249.9,354.1,2251.3,354.1z
			"/>
	</g>
	<line fill="none" stroke="#000000" stroke-width="0.459" x1="2272.4" y1="350.6" x2="2272.4" y2="334.6"/>
	<g enable-background="new    ">
		<path d="M2271.9,351.5c-0.3,0.9-1,1.5-1.6,1.8c-0.5,0.3-1.2,0.4-2,0.3c-0.5,0-1.3-0.2-1.6-0.7c-0.3-0.6-0.1-1.2,0-1.6
			c0.3-0.8,1-1.4,1.5-1.7c0.5-0.3,1.3-0.5,2.2-0.4c0.4,0,1.1,0.1,1.5,0.7C2272.2,350.4,2272,351.2,2271.9,351.5z M2269.9,350.2
			c-0.4,0.2-0.7,0.4-1,0.5c-0.3,0.2-0.6,0.4-1,0.6c-0.5,0.3-1.1,0.9-0.8,1.4c0.3,0.6,1.1,0.3,1.6,0c0.4-0.2,0.7-0.4,1-0.5
			c0.3-0.2,0.6-0.4,1-0.6c0.5-0.3,1.1-0.9,0.8-1.4C2271.3,349.6,2270.5,349.9,2269.9,350.2z"/>
	</g>
	<g enable-background="new    ">
		<path d="M2252.5,331.4l0.8,0.2c-0.2,0.6-0.4,1.1-0.9,1.4s-0.9,0.5-1.5,0.5c-0.6,0-1.1-0.1-1.5-0.4s-0.7-0.6-0.9-1.1
			s-0.3-1-0.3-1.5c0-0.6,0.1-1.1,0.3-1.6s0.6-0.8,1-1s0.9-0.3,1.4-0.3c0.6,0,1.1,0.1,1.4,0.4s0.7,0.7,0.8,1.2l-0.7,0.2
			c-0.1-0.4-0.3-0.7-0.6-0.9s-0.6-0.3-1-0.3c-0.4,0-0.8,0.1-1.1,0.3s-0.5,0.5-0.6,0.8s-0.2,0.7-0.2,1.1c0,0.5,0.1,0.9,0.2,1.3
			s0.4,0.6,0.7,0.8s0.6,0.3,1,0.3c0.4,0,0.8-0.1,1.1-0.4S2252.4,331.9,2252.5,331.4z"/>
	</g>
	<line fill="none" stroke="#000000" stroke-width="0.459" x1="2307" y1="357.8" x2="2307" y2="341.8"/>
	<g enable-background="new    ">
		<path d="M2305.7,356.5c1.4,0,2.2,1,1.8,2.2c-0.4,1.2-1.9,2.2-3.4,2.2c-1.4,0-2.2-1-1.7-2.2
			C2302.8,357.4,2304.3,356.5,2305.7,356.5z"/>
	</g>
	<line fill="none" stroke="#000000" stroke-width="0.459" x1="2323.4" y1="360.2" x2="2323.4" y2="344.2"/>
	<line fill="none" stroke="#000000" stroke-width="0.459" x1="2317.4" y1="361" x2="2324.8" y2="361"/>
	<g enable-background="new    ">
		<path d="M2322.1,358.9c1.4,0,2.2,1,1.8,2.2c-0.4,1.2-1.9,2.2-3.4,2.2c-1.4,0-2.2-1-1.7-2.2
			C2319.2,359.8,2320.7,358.9,2322.1,358.9z"/>
	</g>
	<line fill="none" stroke="#000000" stroke-width="0.459" x1="2339.8" y1="357.8" x2="2339.8" y2="341.8"/>
	<g enable-background="new    ">
		<path d="M2338.5,356.5c1.4,0,2.2,1,1.8,2.2c-0.4,1.2-1.9,2.2-3.4,2.2s-2.2-1-1.7-2.2C2335.6,357.4,2337.1,356.5,2338.5,356.5z"/>
	</g>
	<g enable-background="new    ">
		<path d="M2305.5,331.2v-0.7l2.4,0v2.1c-0.4,0.3-0.8,0.5-1.2,0.7s-0.8,0.2-1.2,0.2c-0.6,0-1.1-0.1-1.5-0.4s-0.8-0.6-1-1
			s-0.4-1-0.4-1.5c0-0.6,0.1-1.1,0.3-1.6s0.6-0.8,1-1.1s0.9-0.4,1.5-0.4c0.4,0,0.8,0.1,1.1,0.2s0.6,0.3,0.8,0.6s0.3,0.6,0.4,0.9
			l-0.7,0.2c-0.1-0.3-0.2-0.5-0.3-0.7s-0.3-0.3-0.5-0.4s-0.5-0.2-0.8-0.2c-0.3,0-0.6,0.1-0.9,0.2s-0.5,0.2-0.6,0.4s-0.3,0.4-0.4,0.6
			c-0.1,0.4-0.2,0.7-0.2,1.2c0,0.5,0.1,0.9,0.3,1.3s0.4,0.6,0.8,0.8s0.7,0.2,1.1,0.2c0.3,0,0.6-0.1,1-0.2s0.5-0.3,0.7-0.4v-1.1
			H2305.5z"/>
	</g>
	<line fill="none" stroke="#000000" stroke-width="0.459" x1="2363.8" y1="360.2" x2="2363.8" y2="344.2"/>
	<line fill="none" stroke="#000000" stroke-width="0.459" x1="2356.8" y1="361" x2="2365.2" y2="361"/>
	<g enable-background="new    ">
		<path d="M2363.3,361.1c-0.3,0.9-1,1.5-1.6,1.8c-0.5,0.3-1.2,0.4-2,0.3c-0.5,0-1.3-0.2-1.6-0.7c-0.3-0.6-0.1-1.2,0-1.6
			c0.3-0.8,1-1.4,1.5-1.7c0.5-0.3,1.3-0.5,2.2-0.4c0.4,0,1.1,0.1,1.5,0.7C2363.6,360,2363.4,360.8,2363.3,361.1z M2361.3,359.8
			c-0.4,0.2-0.7,0.4-1,0.5c-0.3,0.2-0.6,0.4-1,0.6c-0.5,0.3-1.1,0.9-0.8,1.4c0.3,0.6,1.1,0.3,1.6,0c0.4-0.2,0.7-0.4,1-0.5
			c0.3-0.2,0.6-0.4,1-0.6c0.5-0.3,1.1-0.9,0.8-1.4C2362.7,359.2,2361.9,359.5,2361.3,359.8z"/>
	</g>
	<g enable-background="new    ">
		<path d="M2391,350.4c-0.8,0-1.5,0.5-1.5,1.4c0,0.6,1,1.5,1,1.5l-0.2,0.2c0,0-2.2-1.3-2.5-2.7c-0.1-0.9,0.5-1.8,1.6-1.9
			c0.4,0,1.2,0.1,1.5,0.2c-1.8-1.8-2.8-3-2.7-3.4c0.4-0.4,1.7-2.1,1.7-3.4c0-0.9-1.3-2.9-1.3-2.9l0.3-0.2l3.5,4.4c0,0-1.7,2-1.7,3.4
			c0,1,0.6,1.8,1.1,2.3c0.2,0.3,1,1.1,1,1.2l0,0.3C2391.9,350.5,2391.4,350.4,2391,350.4z"/>
	</g>
	<g enable-background="new    ">
		<path d="M2362.7,331.4l0.8,0.2c-0.2,0.6-0.4,1.1-0.9,1.4s-0.9,0.5-1.5,0.5c-0.6,0-1.1-0.1-1.5-0.4s-0.7-0.6-0.9-1.1
			s-0.3-1-0.3-1.5c0-0.6,0.1-1.1,0.3-1.6s0.6-0.8,1-1s0.9-0.3,1.4-0.3c0.6,0,1.1,0.1,1.4,0.4s0.7,0.7,0.8,1.2l-0.7,0.2
			c-0.1-0.4-0.3-0.7-0.6-0.9s-0.6-0.3-1-0.3c-0.4,0-0.8,0.1-1.1,0.3s-0.5,0.5-0.6,0.8s-0.2,0.7-0.2,1.1c0,0.5,0.1,0.9,0.2,1.3
			s0.4,0.6,0.7,0.8s0.6,0.3,1,0.3c0.4,0,0.8-0.1,1.1-0.4S2362.6,331.9,2362.7,331.4z"/>
	</g>
	<g enable-background="new    ">
		<path d="M2436.3,341.8v2.8h-6.1v-2.8H2436.3z"/>
	</g>
	<line fill="none" stroke="#000000" stroke-width="0.459" x1="2429.6" y1="341.8" x2="2436.8" y2="341.8"/>
	<g enable-background="new    ">
		<path d="M2490.7,341.8v2.8h-6.1v-2.8H2490.7z"/>
	</g>
	<line fill="none" stroke="#000000" stroke-width="0.459" x1="2484" y1="341.8" x2="2491.2" y2="341.8"/>
	<g enable-background="new    ">
		<path d="M2544.1,341.8v2.8h-6.1v-2.8H2544.1z"/>
	</g>
	<line fill="none" stroke="#000000" stroke-width="0.459" x1="2537.4" y1="341.8" x2="2544.6" y2="341.8"/>
	<g enable-background="new    ">
		<path d="M2529.2,328.6l1.8-4.6h0.7l1.9,4.6h-0.7l-0.5-1.4h-1.9l-0.5,1.4H2529.2z M2530.5,326.7h1.6l-0.5-1.3
			c-0.1-0.4-0.3-0.7-0.3-0.9c-0.1,0.3-0.1,0.6-0.2,0.9L2530.5,326.7z"/>
		<path d="M2533.9,328.6V324h0.6v4.6H2533.9z"/>
		<path d="M2537.5,328.2c-0.2,0.2-0.4,0.3-0.6,0.4c-0.2,0.1-0.4,0.1-0.6,0.1c-0.4,0-0.6-0.1-0.8-0.3c-0.2-0.2-0.3-0.4-0.3-0.7
			c0-0.2,0-0.3,0.1-0.4s0.2-0.2,0.3-0.3s0.3-0.1,0.4-0.2c0.1,0,0.3-0.1,0.5-0.1c0.5-0.1,0.8-0.1,1-0.2c0-0.1,0-0.1,0-0.1
			c0-0.2-0.1-0.4-0.2-0.5c-0.1-0.1-0.4-0.2-0.6-0.2c-0.3,0-0.5,0-0.6,0.1c-0.1,0.1-0.2,0.3-0.3,0.5l-0.5-0.1c0-0.2,0.1-0.4,0.2-0.6
			c0.1-0.1,0.3-0.3,0.5-0.3s0.5-0.1,0.8-0.1c0.3,0,0.5,0,0.7,0.1c0.2,0.1,0.3,0.2,0.4,0.3c0.1,0.1,0.1,0.2,0.2,0.4
			c0,0.1,0,0.3,0,0.5v0.8c0,0.5,0,0.9,0,1s0.1,0.3,0.1,0.4h-0.6C2537.5,328.5,2537.5,328.3,2537.5,328.2z M2537.4,326.9
			c-0.2,0.1-0.5,0.2-0.9,0.2c-0.2,0-0.4,0.1-0.5,0.1c-0.1,0-0.2,0.1-0.2,0.2c-0.1,0.1-0.1,0.2-0.1,0.3c0,0.2,0.1,0.3,0.2,0.4
			s0.3,0.2,0.5,0.2c0.2,0,0.4,0,0.6-0.1s0.3-0.2,0.4-0.4c0.1-0.1,0.1-0.3,0.1-0.6V326.9z"/>
		<path d="M2538.9,328.6v-3.3h0.5v0.5c0.2-0.4,0.6-0.5,1.1-0.5c0.2,0,0.4,0,0.6,0.1c0.2,0.1,0.3,0.2,0.4,0.3
			c0.1,0.1,0.1,0.3,0.2,0.4c0,0.1,0,0.3,0,0.5v2h-0.6v-2c0-0.2,0-0.4-0.1-0.5c0-0.1-0.1-0.2-0.2-0.3s-0.2-0.1-0.4-0.1
			c-0.2,0-0.4,0.1-0.6,0.2c-0.2,0.2-0.3,0.4-0.3,0.9v1.8H2538.9z"/>
		<path d="M2544.3,328.6V324h0.9l1.1,3.2c0.1,0.3,0.2,0.5,0.2,0.7c0.1-0.2,0.1-0.4,0.2-0.7l1.1-3.2h0.8v4.6h-0.6v-3.8l-1.3,3.8h-0.5
			l-1.3-3.9v3.9H2544.3z"/>
		<path d="M2551.8,327.5l0.6,0.1c-0.1,0.3-0.3,0.6-0.5,0.8s-0.6,0.3-1,0.3c-0.5,0-0.9-0.1-1.2-0.4s-0.4-0.7-0.4-1.3
			c0-0.6,0.1-1,0.4-1.3c0.3-0.3,0.7-0.5,1.1-0.5c0.4,0,0.8,0.2,1.1,0.5s0.4,0.7,0.4,1.3c0,0,0,0.1,0,0.2h-2.5c0,0.4,0.1,0.6,0.3,0.8
			c0.2,0.2,0.4,0.3,0.7,0.3c0.2,0,0.4-0.1,0.5-0.2S2551.7,327.8,2551.8,327.5z M2550,326.6h1.9c0-0.3-0.1-0.5-0.2-0.6
			c-0.2-0.2-0.4-0.3-0.7-0.3c-0.3,0-0.5,0.1-0.7,0.3S2550,326.3,2550,326.6z"/>
		<path d="M2553.1,328.6v-3.3h0.5v0.5c0.2-0.4,0.6-0.5,1.1-0.5c0.2,0,0.4,0,0.6,0.1c0.2,0.1,0.3,0.2,0.4,0.3
			c0.1,0.1,0.1,0.3,0.2,0.4c0,0.1,0,0.3,0,0.5v2h-0.6v-2c0-0.2,0-0.4-0.1-0.5c0-0.1-0.1-0.2-0.2-0.3s-0.2-0.1-0.4-0.1
			c-0.2,0-0.4,0.1-0.6,0.2c-0.2,0.2-0.3,0.4-0.3,0.9v1.8H2553.1z"/>
		<path d="M2556.7,328.6V324h0.6v2.6l1.3-1.3h0.7l-1.3,1.2l1.4,2.1h-0.7l-1.1-1.7l-0.4,0.4v1.3H2556.7z"/>
		<path d="M2562.1,327.5l0.6,0.1c-0.1,0.3-0.3,0.6-0.5,0.8s-0.6,0.3-1,0.3c-0.5,0-0.9-0.1-1.2-0.4c-0.3-0.3-0.4-0.7-0.4-1.3
			c0-0.6,0.1-1,0.4-1.3c0.3-0.3,0.7-0.5,1.1-0.5c0.4,0,0.8,0.2,1.1,0.5s0.4,0.7,0.4,1.3c0,0,0,0.1,0,0.2h-2.5c0,0.4,0.1,0.6,0.3,0.8
			c0.2,0.2,0.4,0.3,0.7,0.3c0.2,0,0.4-0.1,0.5-0.2C2561.9,327.9,2562,327.8,2562.1,327.5z M2560.3,326.6h1.9c0-0.3-0.1-0.5-0.2-0.6
			c-0.2-0.2-0.4-0.3-0.7-0.3c-0.3,0-0.5,0.1-0.7,0.3C2560.4,326.1,2560.3,326.3,2560.3,326.6z"/>
		<path d="M2563.4,328.6v-3.3h0.5v0.5c0.2-0.4,0.6-0.5,1.1-0.5c0.2,0,0.4,0,0.6,0.1c0.2,0.1,0.3,0.2,0.4,0.3
			c0.1,0.1,0.1,0.3,0.2,0.4c0,0.1,0,0.3,0,0.5v2h-0.6v-2c0-0.2,0-0.4-0.1-0.5c0-0.1-0.1-0.2-0.2-0.3s-0.2-0.1-0.4-0.1
			c-0.2,0-0.4,0.1-0.6,0.2c-0.2,0.2-0.3,0.4-0.3,0.9v1.8H2563.4z"/>
	</g>
	<g enable-background="new    ">
		<path d="M505.8,324.2l2.2-5.7h0.8l2.3,5.7h-0.9l-0.7-1.7h-2.4l-0.6,1.7H505.8z M507.4,321.8h1.9l-0.6-1.6
			c-0.2-0.5-0.3-0.9-0.4-1.2c-0.1,0.4-0.2,0.7-0.3,1.1L507.4,321.8z"/>
	</g>
	<g enable-background="new    ">
		<path d="M1539.6,323.4l2.2-5.7h0.8l2.3,5.7h-0.9l-0.7-1.7h-2.4l-0.6,1.7H1539.6z M1541.2,321h1.9l-0.6-1.6
			c-0.2-0.5-0.3-0.9-0.4-1.2c-0.1,0.4-0.2,0.7-0.3,1.1L1541.2,321z"/>
	</g>
</g>
</svg>
