<?xml version="1.0" encoding="utf-8"?>
<!-- Generator: Adobe Illustrator 16.0.0, SVG Export Plug-In . SVG Version: 6.00 Build 0)  -->
<!DOCTYPE svg PUBLIC "-//W3C//DTD SVG 1.1//EN" "http://www.w3.org/Graphics/SVG/1.1/DTD/svg11.dtd">
<svg version="1.1" id="Layer_1" xmlns="http://www.w3.org/2000/svg" xmlns:xlink="http://www.w3.org/1999/xlink" x="0px" y="0px"
	 width="4056.499px" height="90px" viewBox="36.3 -7.694 4056.499 90" enable-background="new 36.3 -7.694 4056.499 90"
	 xml:space="preserve">
<g id="Music">
	<g enable-background="new    ">
		<path d="M50.025,69.805c-5.68-2.702-6.59-6.178-6.838-9.733c-0.275-3.859,2.179-7.774,4.467-9.954
			c1.323-1.239,2.758-2.454,4.468-3.75c-0.056-0.964-0.276-1.351-0.387-2.729c-0.026-0.579-0.386-3.281,0.193-6.396
			c0.358-1.848,2.674-6.204,4.273-6.231c1.24-0.027,3.144,4.936,3.198,7.417c0.083,3.832-0.827,5.569-1.958,7.555
			c-0.579,0.992-1.186,1.682-1.819,2.454c-0.662,0.8-1.406,1.269-2.096,1.875c0,0,0.883,4.99,0.91,5.349
			c1.766-0.221,3.916,0.414,4.688,0.967c1.958,1.46,2.702,3.474,2.84,5.431c0.248,3.115-1.461,6.396-5.239,7.969
			c0,0,0.579,3.971,0.717,4.798c0.305,2.179,0.249,3.558-0.22,4.438c-0.8,1.49-2.096,2.867-4.604,3.033
			c-1.931,0.11-5.735-0.854-5.929-3.888c-0.109-1.793,0.689-3.723,2.867-3.86c1.324-0.109,2.896,0.992,3.005,2.564
			c0.11,1.352-0.771,2.757-3.061,3.391c0.357,0.498,1.434,1.076,2.978,1.076c1.6,0,3.253-1.076,4.054-2.51
			c0.495-0.938,0.44-2.619,0.247-4.163c-0.083-0.524-0.744-4.688-0.744-4.688C53.996,70.549,51.183,70.355,50.025,69.805z
			 M50.577,63.27c0.055,1.322,1.157,2.867,2.178,3.392c-0.138,0.083-0.276,0.304-0.276,0.304c-1.13-0.552-2.096-1.461-2.344-1.793
			c-0.799-1.074-1.13-1.682-1.241-3.309c-0.109-1.518,0.717-3.557,2.564-4.99c0.965-0.717,1.434-0.883,2.261-1.075l-0.827-4.99
			c-0.854,0.496-4.384,3.336-5.873,5.652c-1.323,2.067-2.123,3.722-1.958,5.763c0.331,4.604,5.376,8.382,10.836,7.086
			c0,0-1.627-9.788-1.599-9.788C51.293,59.631,50.494,61.946,50.577,63.27z M52.81,45.788c2.398-1.875,5.652-5.403,5.459-8.133
			c-0.055-0.854-0.414-2.398-1.653-2.371C53.775,35.311,52.176,41.24,52.81,45.788z M56.56,69.088
			c3.171-1.076,3.31-3.806,3.199-5.433c-0.11-1.351-0.717-4.384-4.743-4.19L56.56,69.088z"/>
	</g>
	<g enable-background="new    ">
		<path d="M70.9,51.498c0,0.248,0,1.766,0,1.766c1.048-0.938,1.627-1.131,2.785-1.158c1.378-0.028,2.261,1.351,2.288,2.454
			c0.028,0.578-0.138,1.186-0.357,1.654c-0.248,0.605-0.91,1.074-1.352,1.516c-0.496,0.497-4.081,2.95-4.081,3.006V44.44H70.9
			C70.9,44.44,70.928,47.858,70.9,51.498z M71.204,54.228c-0.359,0.689-0.305,1.875-0.305,2.729v2.371
			c0,0.027,0.993-0.826,1.544-1.352c0.497-0.469,0.883-0.992,1.076-1.819c0.221-0.827,0.139-1.709-0.386-2.288
			C72.775,53.455,71.783,53.124,71.204,54.228z"/>
	</g>
	<g enable-background="new    ">
		<path d="M96.596,66.303v1.818c0,1.104,1.296,1.075,1.296,1.075v0.717h-5.982v-0.716c0,0,1.351,0.057,1.323-1.02v-1.875h-5.101
			l-0.496-0.524c3.336-4.494,3.364-5.321,4.164-9.401h4.77c-1.131,2.096-4.936,6.038-7.609,9.153h4.273v-3.392l3.364-3.694v7.086
			h1.985v0.772H96.596z"/>
	</g>
	<g enable-background="new    ">
		<path d="M96.596,52.52v1.819c0,1.104,1.296,1.074,1.296,1.074v0.718h-5.982v-0.718c0,0,1.351,0.057,1.323-1.02v-1.875h-5.101
			l-0.496-0.524C90.972,47.5,91,46.674,91.8,42.593h4.77c-1.131,2.096-4.936,6.039-7.609,9.153h4.273v-3.392l3.364-3.694v7.085
			h1.985v0.772L96.596,52.52L96.596,52.52z"/>
	</g>
	<line fill="none" stroke="#000000" stroke-width="0.459" x1="235.1" y1="42.598" x2="235.1" y2="70.197"/>
	<line fill="none" stroke="#000000" stroke-width="0.459" x1="368" y1="42.598" x2="368" y2="70.197"/>
	<line fill="none" stroke="#000000" stroke-width="0.459" x1="501" y1="42.598" x2="501" y2="70.197"/>
	<line fill="none" stroke="#000000" stroke-width="0.459" x1="634" y1="42.598" x2="634" y2="70.197"/>
	<line fill="none" stroke="#000000" stroke-width="0.459" x1="766.9" y1="42.598" x2="766.9" y2="70.197"/>
	<line fill="none" stroke="#000000" stroke-width="0.459" x1="899.9" y1="42.598" x2="899.9" y2="70.197"/>
	<line fill="none" stroke="#000000" stroke-width="0.459" x1="1032.9" y1="42.598" x2="1032.9" y2="70.197"/>
	<line fill="none" stroke="#000000" stroke-width="0.459" x1="1165.799" y1="42.598" x2="1165.799" y2="70.197"/>
	<line fill="none" stroke="#000000" stroke-width="0.459" x1="1298.799" y1="42.598" x2="1298.799" y2="70.197"/>
	<line fill="none" stroke="#000000" stroke-width="0.459" x1="1431.799" y1="42.598" x2="1431.799" y2="70.197"/>
	<line fill="none" stroke="#000000" stroke-width="0.459" x1="1564.699" y1="42.598" x2="1564.699" y2="70.197"/>
	<line fill="none" stroke="#000000" stroke-width="0.459" x1="1697.699" y1="42.598" x2="1697.699" y2="70.197"/>
	<line fill="none" stroke="#000000" stroke-width="0.459" x1="1830.699" y1="42.598" x2="1830.699" y2="70.197"/>
	<line fill="none" stroke="#000000" stroke-width="0.459" x1="1963.699" y1="42.598" x2="1963.699" y2="70.197"/>
	<line fill="none" stroke="#000000" stroke-width="0.459" x1="2096.6" y1="42.598" x2="2096.6" y2="70.197"/>
	<line fill="none" stroke="#000000" stroke-width="0.459" x1="2229.6" y1="42.598" x2="2229.6" y2="70.197"/>
	<line fill="none" stroke="#000000" stroke-width="0.459" x1="2362.6" y1="42.598" x2="2362.6" y2="70.197"/>
	<line fill="none" stroke="#000000" stroke-width="0.459" x1="2495.5" y1="42.598" x2="2495.5" y2="70.197"/>
	<line fill="none" stroke="#000000" stroke-width="0.459" x1="2628.5" y1="42.598" x2="2628.5" y2="70.197"/>
	<line fill="none" stroke="#000000" stroke-width="0.459" x1="2761.5" y1="42.598" x2="2761.5" y2="70.197"/>
	<line fill="none" stroke="#000000" stroke-width="0.459" x1="2894.401" y1="42.598" x2="2894.401" y2="70.197"/>
	<line fill="none" stroke="#000000" stroke-width="0.459" x1="3027.401" y1="42.598" x2="3027.401" y2="70.197"/>
	<line fill="none" stroke="#000000" stroke-width="0.459" x1="3160.401" y1="42.598" x2="3160.401" y2="70.197"/>
	<line fill="none" stroke="#000000" stroke-width="0.459" x1="3293.299" y1="42.598" x2="3293.299" y2="70.197"/>
	<line fill="none" stroke="#000000" stroke-width="0.459" x1="3426.299" y1="42.598" x2="3426.299" y2="70.197"/>
	<line fill="none" stroke="#000000" stroke-width="0.459" x1="3559.299" y1="42.598" x2="3559.299" y2="70.197"/>
	<line fill="none" stroke="#000000" stroke-width="0.459" x1="3692.199" y1="42.598" x2="3692.199" y2="70.197"/>
	<line fill="none" stroke="#000000" stroke-width="0.459" x1="3825.199" y1="42.598" x2="3825.199" y2="70.197"/>
	<line fill="none" stroke="#000000" stroke-width="0.459" x1="3958.199" y1="42.598" x2="3958.199" y2="70.197"/>
	<line fill="none" stroke="#000000" stroke-width="2.419" x1="4091.1" y1="42.598" x2="4091.1" y2="70.197"/>
	<line fill="none" stroke="#000000" stroke-width="0.459" x1="4085.5" y1="42.598" x2="4085.5" y2="70.197"/>
	<line fill="none" stroke="#000000" stroke-width="0.459" x1="36.3" y1="42.598" x2="4092.799" y2="42.598"/>
	<line fill="none" stroke="#000000" stroke-width="0.459" x1="36.3" y1="49.497" x2="4092.799" y2="49.497"/>
	<line fill="none" stroke="#000000" stroke-width="0.459" x1="36.3" y1="56.397" x2="4092.799" y2="56.397"/>
	<line fill="none" stroke="#000000" stroke-width="0.459" x1="36.3" y1="63.297" x2="4092.799" y2="63.297"/>
	<line fill="none" stroke="#000000" stroke-width="0.459" x1="36.3" y1="70.197" x2="4092.799" y2="70.197"/>
	<g enable-background="new    ">
		<path d="M119.157,52.849v3.529h-8.769v-3.529H119.157z"/>
	</g>
	<line fill="none" stroke="#000000" stroke-width="0.459" x1="109.5" y1="56.397" x2="119.9" y2="56.397"/>
	<g enable-background="new    ">
		<path d="M123.591,51.576c0.799,0,1.434,0.606,1.434,1.378c0,0.772-0.634,1.406-1.434,1.406s-1.434-0.634-1.434-1.406
			C122.158,52.183,122.792,51.576,123.591,51.576z"/>
	</g>
	<line fill="none" stroke="#000000" stroke-width="0.459" x1="187.6" y1="77.098" x2="198.3" y2="77.098"/>
	<g enable-background="new    ">
		<path d="M194.359,74.016c2.052,0.023,3.186,1.424,2.533,3.137c-0.627,1.736-2.798,3.111-4.825,3.088
			c-2.026-0.023-3.161-1.447-2.509-3.16C190.186,75.367,192.333,73.992,194.359,74.016z"/>
	</g>
	<line fill="none" stroke="#000000" stroke-width="0.459" x1="196.2" y1="75.897" x2="196.2" y2="56.397"/>
	<g enable-background="new    ">
		<path d="M217.047,70.569c2.051,0.024,3.185,1.424,2.533,3.137c-0.627,1.736-2.798,3.112-4.825,3.089
			c-2.027-0.024-3.161-1.447-2.509-3.16C212.874,71.922,215.021,70.547,217.047,70.569z"/>
	</g>
	<line fill="none" stroke="#000000" stroke-width="0.459" x1="218.9" y1="72.497" x2="218.9" y2="54.697"/>
	<path d="M195.9,54.697l23.301-1.7v3.5l-23.301,1.7V54.697z"/>
	<g enable-background="new    ">
		<path d="M114.967,28.808l3.158-8.223h1.172l3.365,8.223h-1.239l-0.959-2.49h-3.438l-0.902,2.49H114.967z M117.34,25.431h2.788
			l-0.858-2.277c-0.262-0.691-0.456-1.26-0.583-1.705c-0.104,0.527-0.252,1.051-0.442,1.57L117.34,25.431z"/>
	</g>
	<line fill="none" stroke="#000000" stroke-width="0.459" x1="249.1" y1="68.997" x2="249.1" y2="45.997"/>
	<g enable-background="new    ">
		<path d="M247.201,67.122c2.051,0.024,3.185,1.425,2.532,3.138c-0.627,1.735-2.798,3.111-4.824,3.088
			c-2.027-0.024-3.161-1.447-2.51-3.16C243.028,68.473,245.175,67.098,247.201,67.122z"/>
	</g>
	<line fill="none" stroke="#000000" stroke-width="0.459" x1="280.4" y1="62.098" x2="280.4" y2="39.098"/>
	<g enable-background="new    ">
		<path d="M278.504,60.229c2.051,0.024,3.185,1.424,2.533,3.137c-0.627,1.736-2.799,3.112-4.825,3.088
			c-2.027-0.024-3.161-1.446-2.509-3.159C274.331,61.581,276.478,60.206,278.504,60.229z"/>
	</g>
	<line fill="none" stroke="#000000" stroke-width="0.459" x1="312" y1="62.098" x2="312" y2="39.098"/>
	<g enable-background="new    ">
		<path d="M310.096,60.229c2.051,0.024,3.185,1.424,2.533,3.137c-0.627,1.736-2.799,3.112-4.825,3.088
			c-2.027-0.024-3.161-1.446-2.509-3.159C305.923,61.581,308.07,60.206,310.096,60.229z"/>
	</g>
	<line fill="none" stroke="#000000" stroke-width="0.459" x1="343.3" y1="68.997" x2="343.3" y2="45.997"/>
	<g enable-background="new    ">
		<path d="M341.399,67.122c2.051,0.024,3.186,1.425,2.533,3.138c-0.627,1.735-2.798,3.111-4.825,3.088
			c-2.027-0.024-3.161-1.447-2.509-3.16C337.226,68.473,339.372,67.098,341.399,67.122z"/>
	</g>
	<g enable-background="new    ">
		<path d="M248.961,34.542l1.088,0.274c-0.229,0.894-0.639,1.575-1.231,2.045c-0.593,0.469-1.316,0.704-2.173,0.704
			c-0.886,0-1.606-0.181-2.163-0.542c-0.555-0.36-0.978-0.883-1.268-1.567c-0.29-0.685-0.436-1.419-0.436-2.204
			c0-0.856,0.164-1.604,0.491-2.241s0.792-1.122,1.396-1.453c0.604-0.33,1.269-0.496,1.994-0.496c0.822,0,1.515,0.21,2.074,0.628
			c0.562,0.419,0.952,1.008,1.172,1.768l-1.07,0.252c-0.19-0.598-0.467-1.034-0.83-1.307s-0.819-0.409-1.369-0.409
			c-0.632,0-1.16,0.151-1.584,0.454s-0.723,0.709-0.895,1.22c-0.173,0.511-0.259,1.037-0.259,1.579c0,0.699,0.103,1.31,0.307,1.831
			s0.521,0.912,0.95,1.17c0.431,0.258,0.896,0.387,1.397,0.387c0.609,0,1.125-0.176,1.548-0.527
			C248.525,35.755,248.812,35.233,248.961,34.542z"/>
	</g>
	<line fill="none" stroke="#000000" stroke-width="0.459" x1="382" y1="65.598" x2="382" y2="42.598"/>
	<g enable-background="new    ">
		<path d="M380.169,63.676c2.051,0.024,3.185,1.424,2.532,3.138c-0.627,1.735-2.798,3.112-4.824,3.088
			c-2.027-0.024-3.161-1.447-2.51-3.16C375.995,65.028,378.143,63.653,380.169,63.676z"/>
	</g>
	<line fill="none" stroke="#000000" stroke-width="0.459" x1="415.9" y1="65.598" x2="415.9" y2="42.598"/>
	<g enable-background="new    ">
		<path d="M415.275,66.885c-0.458,1.23-1.496,2.221-2.244,2.582c-0.748,0.386-1.736,0.555-2.823,0.459
			c-0.65-0.049-1.832-0.267-2.315-1.039c-0.482-0.819-0.146-1.784,0.023-2.268c0.458-1.206,1.424-2.025,2.147-2.461
			c0.724-0.409,1.833-0.725,3.185-0.578c0.507,0.072,1.641,0.169,2.1,0.988C415.733,65.245,415.444,66.428,415.275,66.885z
			 M412.428,64.932c-0.556,0.266-0.941,0.507-1.423,0.771c-0.482,0.267-0.917,0.531-1.424,0.869
			c-0.699,0.435-1.615,1.229-1.157,2.026c0.482,0.795,1.617,0.41,2.363,0.023c0.556-0.266,0.989-0.507,1.473-0.771
			c0.482-0.266,0.893-0.508,1.398-0.846c0.676-0.434,1.593-1.229,1.135-2.025C414.31,64.184,413.176,64.569,412.428,64.932z"/>
	</g>
	<line fill="none" stroke="#000000" stroke-width="0.459" x1="458.699" y1="77.098" x2="469.4" y2="77.098"/>
	<g enable-background="new    ">
		<path d="M465.463,74.016c2.051,0.023,3.185,1.424,2.532,3.137c-0.627,1.736-2.798,3.111-4.824,3.088
			c-2.027-0.023-3.161-1.447-2.51-3.16C461.289,75.367,463.437,73.992,465.463,74.016z"/>
	</g>
	<line fill="none" stroke="#000000" stroke-width="0.459" x1="467.3" y1="75.897" x2="467.3" y2="56.397"/>
	<g enable-background="new    ">
		<path d="M485.566,70.569c2.051,0.024,3.186,1.424,2.533,3.137c-0.627,1.736-2.798,3.112-4.825,3.089
			c-2.027-0.024-3.161-1.447-2.509-3.16C481.393,71.922,483.539,70.547,485.566,70.569z"/>
	</g>
	<line fill="none" stroke="#000000" stroke-width="0.459" x1="487.4" y1="72.497" x2="487.4" y2="54.697"/>
	<path d="M467,54.697l20.8-1.7v3.5l-20.8,1.7V54.697z"/>
	<g enable-background="new    ">
		<path d="M376.117,37.425v-8.223h5.547v0.97h-4.459v2.547h3.859v0.971h-3.859v3.735H376.117z"/>
	</g>
	<line fill="none" stroke="#000000" stroke-width="0.459" x1="515" y1="68.997" x2="515" y2="45.997"/>
	<g enable-background="new    ">
		<path d="M513.137,67.122c2.051,0.024,3.185,1.425,2.533,3.138c-0.627,1.735-2.799,3.111-4.825,3.088
			c-2.027-0.024-3.161-1.447-2.509-3.16C508.964,68.473,511.111,67.098,513.137,67.122z"/>
	</g>
	<line fill="none" stroke="#000000" stroke-width="0.459" x1="546.3" y1="62.098" x2="546.3" y2="39.098"/>
	<g enable-background="new    ">
		<path d="M544.44,60.229c2.051,0.024,3.186,1.424,2.533,3.137c-0.627,1.736-2.798,3.112-4.825,3.088s-3.161-1.446-2.509-3.159
			C540.267,61.581,542.413,60.206,544.44,60.229z"/>
	</g>
	<line fill="none" stroke="#000000" stroke-width="0.459" x1="577.9" y1="62.098" x2="577.9" y2="39.098"/>
	<g enable-background="new    ">
		<path d="M576.031,60.229c2.052,0.024,3.186,1.424,2.533,3.137c-0.627,1.736-2.798,3.112-4.825,3.088
			c-2.026-0.024-3.161-1.446-2.509-3.159C571.857,61.581,574.004,60.206,576.031,60.229z"/>
	</g>
	<line fill="none" stroke="#000000" stroke-width="0.459" x1="609.199" y1="65.598" x2="609.199" y2="42.598"/>
	<g enable-background="new    ">
		<path d="M607.332,63.676c2.052,0.024,3.186,1.424,2.533,3.138c-0.627,1.735-2.798,3.112-4.824,3.088
			c-2.027-0.024-3.161-1.447-2.51-3.16C603.159,65.028,605.307,63.653,607.332,63.676z"/>
	</g>
	<g enable-background="new    ">
		<path d="M512.877,34.199v-0.965l3.482-0.005v3.051c-0.535,0.427-1.086,0.747-1.655,0.962c-0.568,0.215-1.151,0.323-1.75,0.323
			c-0.808,0-1.542-0.173-2.201-0.52c-0.66-0.346-1.158-0.846-1.495-1.5c-0.337-0.654-0.505-1.386-0.505-2.193
			c0-0.8,0.167-1.547,0.502-2.241c0.335-0.693,0.815-1.208,1.443-1.545s1.353-0.505,2.171-0.505c0.596,0,1.133,0.097,1.613,0.289
			s0.857,0.461,1.13,0.805c0.273,0.344,0.48,0.793,0.623,1.347l-0.98,0.269c-0.124-0.419-0.277-0.748-0.46-0.987
			c-0.184-0.239-0.445-0.431-0.785-0.574c-0.34-0.145-0.719-0.216-1.133-0.216c-0.497,0-0.928,0.075-1.29,0.227
			c-0.363,0.152-0.655,0.351-0.878,0.598s-0.396,0.518-0.519,0.813c-0.209,0.509-0.314,1.06-0.314,1.654
			c0,0.733,0.126,1.347,0.379,1.84c0.252,0.494,0.619,0.86,1.102,1.1c0.482,0.24,0.995,0.358,1.537,0.358
			c0.471,0,0.931-0.09,1.38-0.271c0.449-0.181,0.789-0.375,1.021-0.581v-1.531h-2.418V34.199z"/>
	</g>
	<line fill="none" stroke="#000000" stroke-width="0.459" x1="649.4" y1="68.997" x2="649.4" y2="45.997"/>
	<g enable-background="new    ">
		<path d="M648.759,70.331c-0.458,1.23-1.496,2.22-2.244,2.581c-0.748,0.387-1.737,0.555-2.823,0.459
			c-0.651-0.049-1.833-0.266-2.316-1.038c-0.481-0.819-0.145-1.784,0.024-2.268c0.458-1.206,1.423-2.026,2.147-2.461
			c0.724-0.409,1.833-0.724,3.185-0.578c0.506,0.071,1.64,0.169,2.099,0.987C649.217,68.69,648.928,69.873,648.759,70.331z
			 M645.911,68.377c-0.555,0.266-0.94,0.508-1.423,0.771c-0.481,0.266-0.917,0.531-1.423,0.869c-0.7,0.434-1.616,1.229-1.158,2.025
			c0.483,0.797,1.617,0.41,2.364,0.024c0.555-0.267,0.989-0.507,1.472-0.772c0.483-0.265,0.894-0.507,1.399-0.845
			c0.675-0.435,1.592-1.229,1.134-2.026C647.794,67.629,646.659,68.014,645.911,68.377z"/>
	</g>
	<g enable-background="new    ">
		<path d="M695.012,53.455c0.579-0.055,1.048-0.138,1.544-0.66c0.469-0.47,0.717-0.855,1.158-1.353l0.386,0.221l-3.061,11.554
			h-1.104c0,0,1.048-3.281,1.517-4.551c1.158-3.226,1.489-5.128,1.489-5.128c-0.688,0.523-2.344,1.683-3.64,1.766
			c-2.896,0.165-3.529-4.055-0.524-4.798C694.791,50.01,695.37,52.325,695.012,53.455z"/>
	</g>
	<line fill="none" stroke="#000000" stroke-width="0.459" x1="708" y1="77.098" x2="718.699" y2="77.098"/>
	<g enable-background="new    ">
		<path d="M714.741,74.016c2.052,0.023,3.186,1.424,2.533,3.137c-0.627,1.736-2.798,3.111-4.825,3.088
			c-2.026-0.023-3.161-1.447-2.509-3.16C710.569,75.367,712.716,73.992,714.741,74.016z"/>
	</g>
	<line fill="none" stroke="#000000" stroke-width="0.459" x1="716.6" y1="75.897" x2="716.6" y2="56.397"/>
	<line fill="none" stroke="#000000" stroke-width="0.459" x1="727" y1="77.098" x2="737.6" y2="77.098"/>
	<g enable-background="new    ">
		<path d="M733.696,74.016c2.051,0.023,3.186,1.424,2.533,3.137c-0.627,1.736-2.798,3.111-4.825,3.088
			c-2.026-0.023-3.161-1.447-2.509-3.16C729.523,75.367,731.67,73.992,733.696,74.016z"/>
	</g>
	<line fill="none" stroke="#000000" stroke-width="0.459" x1="735.6" y1="75.897" x2="735.6" y2="55.497"/>
	<g enable-background="new    ">
		<path d="M752.65,70.569c2.051,0.024,3.186,1.424,2.533,3.137c-0.627,1.736-2.798,3.112-4.825,3.089
			c-2.027-0.024-3.161-1.447-2.509-3.16C748.477,71.922,750.623,70.547,752.65,70.569z"/>
	</g>
	<line fill="none" stroke="#000000" stroke-width="0.459" x1="754.5" y1="72.497" x2="754.5" y2="54.697"/>
	<path d="M716.3,54.697l38.601-1.7v3.5l-38.601,1.7V54.697z"/>
	<g enable-background="new    ">
		<path d="M647.865,34.542l1.088,0.274c-0.229,0.894-0.639,1.575-1.23,2.045c-0.593,0.469-1.317,0.704-2.173,0.704
			c-0.887,0-1.607-0.181-2.163-0.542c-0.556-0.36-0.979-0.883-1.269-1.567c-0.29-0.685-0.435-1.419-0.435-2.204
			c0-0.856,0.164-1.604,0.491-2.241s0.792-1.122,1.396-1.453c0.604-0.33,1.27-0.496,1.994-0.496c0.823,0,1.515,0.21,2.075,0.628
			c0.561,0.419,0.952,1.008,1.172,1.768l-1.071,0.252c-0.189-0.598-0.467-1.034-0.83-1.307c-0.362-0.273-0.818-0.409-1.368-0.409
			c-0.633,0-1.16,0.151-1.584,0.454c-0.425,0.303-0.724,0.709-0.896,1.22c-0.172,0.511-0.258,1.037-0.258,1.579
			c0,0.699,0.102,1.31,0.306,1.831s0.521,0.912,0.951,1.17c0.43,0.258,0.896,0.387,1.396,0.387c0.609,0,1.125-0.176,1.549-0.527
			C647.429,35.755,647.715,35.233,647.865,34.542z"/>
	</g>
	<line fill="none" stroke="#000000" stroke-width="0.459" x1="780.9" y1="68.997" x2="780.9" y2="45.997"/>
	<g enable-background="new    ">
		<path d="M779.071,67.122c2.051,0.024,3.186,1.425,2.533,3.138c-0.627,1.735-2.798,3.111-4.825,3.088
			c-2.026-0.024-3.161-1.447-2.509-3.16C774.898,68.473,777.045,67.098,779.071,67.122z"/>
	</g>
	<g enable-background="new    ">
		<path d="M815.998,58.469c0.8,0,1.435,0.605,1.435,1.377c0,0.772-0.634,1.406-1.435,1.406c-0.8,0-1.434-0.634-1.434-1.406
			C814.565,59.075,815.198,58.469,815.998,58.469z"/>
	</g>
	<line fill="none" stroke="#000000" stroke-width="0.459" x1="811.1" y1="62.098" x2="811.1" y2="39.098"/>
	<g enable-background="new    ">
		<path d="M809.226,60.229c2.051,0.024,3.185,1.424,2.533,3.137c-0.627,1.736-2.798,3.112-4.825,3.088s-3.161-1.446-2.509-3.159
			C805.053,61.581,807.199,60.206,809.226,60.229z"/>
	</g>
	<g enable-background="new    ">
		<path d="M853.057,42.207c0.91,1.269,2.013,2.702,3.088,4.495c0.91,1.518,1.654,3.942,1.792,5.073
			c0.166,1.13,0.276,2.261,0.248,3.336c-0.027,1.653-0.303,3.228-0.854,4.688L857,59.742c0.496-1.268,0.744-3.17,0.744-4.715
			c0-1.323-0.248-3.032-0.688-4.384c-0.854-2.454-2.206-3.86-3.033-4.411c-1.213-0.827-2.564-0.883-2.564-0.883h-0.386v-7.224h0.386
			C851.457,39.477,852.257,41.077,853.057,42.207z"/>
	</g>
	<line fill="none" stroke="#000000" stroke-width="0.459" x1="850.699" y1="62.098" x2="850.699" y2="39.098"/>
	<g enable-background="new    ">
		<path d="M848.858,60.229c2.051,0.024,3.186,1.424,2.533,3.137c-0.627,1.736-2.798,3.112-4.825,3.088s-3.161-1.446-2.509-3.159
			C844.685,61.581,846.831,60.206,848.858,60.229z"/>
	</g>
	<g enable-background="new    ">
		<path d="M867.525,63.676c2.051,0.024,3.186,1.424,2.533,3.138c-0.627,1.735-2.798,3.112-4.825,3.088s-3.161-1.447-2.509-3.16
			C863.352,65.028,865.498,63.653,867.525,63.676z"/>
	</g>
	<line fill="none" stroke="#000000" stroke-width="0.459" x1="869.4" y1="65.598" x2="869.4" y2="47.798"/>
	<g enable-background="new    ">
		<path d="M885.906,67.122c2.052,0.024,3.186,1.425,2.533,3.138c-0.627,1.735-2.798,3.111-4.825,3.088
			c-2.026-0.024-3.161-1.447-2.509-3.16C881.732,68.473,883.879,67.098,885.906,67.122z"/>
	</g>
	<line fill="none" stroke="#000000" stroke-width="0.459" x1="887.8" y1="68.997" x2="887.8" y2="49.497"/>
	<path d="M869.1,45.997l19,1.7v3.5l-19-1.7V45.997z"/>
	<g enable-background="new    ">
		<path d="M768.027,26.511v-8.222h3.085c0.628,0,1.132,0.083,1.512,0.249c0.38,0.167,0.678,0.423,0.893,0.769
			c0.215,0.346,0.322,0.708,0.322,1.086c0,0.352-0.096,0.682-0.286,0.992c-0.19,0.311-0.479,0.562-0.864,0.752
			c0.498,0.146,0.88,0.395,1.147,0.746c0.268,0.352,0.4,0.767,0.4,1.245c0,0.385-0.082,0.743-0.244,1.074s-0.363,0.586-0.603,0.766
			s-0.54,0.314-0.9,0.406c-0.359,0.092-0.803,0.138-1.326,0.138L768.027,26.511L768.027,26.511z M769.115,21.744h1.778
			c0.482,0,0.828-0.032,1.038-0.096c0.276-0.082,0.485-0.219,0.625-0.409s0.21-0.43,0.21-0.718c0-0.273-0.065-0.514-0.196-0.721
			c-0.131-0.208-0.317-0.35-0.561-0.427c-0.243-0.076-0.66-0.115-1.25-0.115h-1.645V21.744L769.115,21.744z M769.115,25.541h2.047
			c0.352,0,0.599-0.013,0.74-0.039c0.25-0.045,0.46-0.119,0.628-0.225c0.168-0.104,0.307-0.257,0.415-0.457s0.163-0.431,0.163-0.692
			c0-0.307-0.079-0.573-0.236-0.8c-0.156-0.226-0.375-0.385-0.652-0.477c-0.279-0.092-0.681-0.138-1.203-0.138h-1.901V25.541
			L769.115,25.541z"/>
	</g>
	<g enable-background="new    ">
		<path d="M780.83,34.542l1.089,0.274c-0.229,0.894-0.64,1.575-1.231,2.045c-0.593,0.469-1.317,0.704-2.173,0.704
			c-0.886,0-1.607-0.181-2.163-0.542c-0.555-0.36-0.979-0.883-1.268-1.567c-0.29-0.685-0.436-1.419-0.436-2.204
			c0-0.856,0.164-1.604,0.491-2.241s0.792-1.122,1.396-1.453c0.604-0.33,1.27-0.496,1.994-0.496c0.823,0,1.516,0.21,2.075,0.628
			c0.562,0.419,0.952,1.008,1.172,1.768l-1.071,0.252c-0.189-0.598-0.467-1.034-0.829-1.307c-0.363-0.273-0.819-0.409-1.369-0.409
			c-0.632,0-1.16,0.151-1.584,0.454c-0.425,0.303-0.724,0.709-0.896,1.22c-0.172,0.511-0.258,1.037-0.258,1.579
			c0,0.699,0.102,1.31,0.306,1.831s0.521,0.912,0.951,1.17c0.431,0.258,0.896,0.387,1.397,0.387c0.608,0,1.125-0.176,1.548-0.527
			C780.396,35.755,780.682,35.233,780.83,34.542z"/>
	</g>
	<g enable-background="new    ">
		<path d="M837.407,34.542l1.088,0.274c-0.229,0.894-0.639,1.575-1.23,2.045c-0.593,0.469-1.317,0.704-2.173,0.704
			c-0.887,0-1.607-0.181-2.163-0.542c-0.556-0.36-0.979-0.883-1.269-1.567c-0.29-0.685-0.435-1.419-0.435-2.204
			c0-0.856,0.164-1.604,0.491-2.241s0.792-1.122,1.396-1.453c0.604-0.33,1.27-0.496,1.994-0.496c0.823,0,1.515,0.21,2.075,0.628
			c0.561,0.419,0.952,1.008,1.172,1.768l-1.071,0.252c-0.189-0.598-0.467-1.034-0.83-1.307c-0.362-0.273-0.818-0.409-1.368-0.409
			c-0.633,0-1.16,0.151-1.584,0.454c-0.425,0.303-0.724,0.709-0.896,1.22c-0.172,0.511-0.258,1.037-0.258,1.579
			c0,0.699,0.102,1.31,0.306,1.831s0.521,0.912,0.951,1.17c0.43,0.258,0.896,0.387,1.397,0.387c0.608,0,1.125-0.176,1.548-0.527
			C836.972,35.755,837.258,35.233,837.407,34.542z"/>
	</g>
	<g enable-background="new    ">
		<path d="M840.907,30.993V30.12h4.791v0.707c-0.471,0.501-0.938,1.168-1.4,1.999c-0.462,0.831-0.82,1.686-1.073,2.564
			c-0.182,0.619-0.298,1.297-0.348,2.034h-0.935c0.01-0.582,0.125-1.285,0.343-2.11c0.22-0.824,0.533-1.619,0.941-2.385
			c0.409-0.766,0.844-1.411,1.305-1.937L840.907,30.993L840.907,30.993z"/>
	</g>
	<line fill="none" stroke="#000000" stroke-width="0.459" x1="915.9" y1="75.897" x2="915.9" y2="52.897"/>
	<line fill="none" stroke="#000000" stroke-width="0.459" x1="907.3" y1="77.098" x2="918" y2="77.098"/>
	<g enable-background="new    ">
		<path d="M914.05,74.016c2.051,0.023,3.185,1.424,2.532,3.137c-0.627,1.736-2.798,3.111-4.824,3.088
			c-2.027-0.023-3.161-1.447-2.51-3.16C909.875,75.367,912.023,73.992,914.05,74.016z"/>
	</g>
	<g enable-background="new    ">
		<path d="M950.402,65.361c0.799,0,1.435,0.605,1.435,1.378s-0.635,1.406-1.435,1.406s-1.434-0.634-1.434-1.406
			C948.969,65.969,949.603,65.361,950.402,65.361z"/>
	</g>
	<line fill="none" stroke="#000000" stroke-width="0.459" x1="945.5" y1="65.598" x2="945.5" y2="42.598"/>
	<g enable-background="new    ">
		<path d="M943.63,63.676c2.051,0.024,3.185,1.424,2.532,3.138c-0.627,1.735-2.798,3.112-4.824,3.088
			c-2.027-0.024-3.161-1.447-2.51-3.16C939.456,65.028,941.604,63.653,943.63,63.676z"/>
	</g>
	<g enable-background="new    ">
		<path d="M986.886,49.098c0.91,1.269,2.013,2.702,3.088,4.495c0.91,1.517,1.654,3.941,1.792,5.072
			c0.166,1.13,0.275,2.261,0.248,3.337c-0.027,1.653-0.303,3.227-0.854,4.688l-0.331-0.057c0.497-1.268,0.745-3.17,0.745-4.715
			c0-1.322-0.248-3.031-0.688-4.384c-0.854-2.454-2.206-3.859-3.033-4.411c-1.213-0.826-2.564-0.883-2.564-0.883h-0.386v-7.223
			h0.386C985.286,46.368,986.087,47.969,986.886,49.098z"/>
	</g>
	<line fill="none" stroke="#000000" stroke-width="0.459" x1="984.5" y1="68.997" x2="984.5" y2="45.997"/>
	<g enable-background="new    ">
		<path d="M982.688,67.122c2.051,0.024,3.185,1.425,2.533,3.138c-0.627,1.735-2.798,3.111-4.825,3.088
			c-2.027-0.024-3.161-1.447-2.509-3.16C978.514,68.473,980.66,67.098,982.688,67.122z"/>
	</g>
	<g enable-background="new    ">
		<path d="M1001.067,67.122c2.051,0.024,3.186,1.425,2.533,3.138c-0.627,1.735-2.798,3.111-4.825,3.088
			c-2.026-0.024-3.161-1.447-2.509-3.16C996.894,68.473,999.041,67.098,1001.067,67.122z"/>
	</g>
	<line fill="none" stroke="#000000" stroke-width="0.459" x1="1002.9" y1="68.997" x2="1002.9" y2="49.497"/>
	<g enable-background="new    ">
		<path d="M1019.159,70.569c2.052,0.024,3.186,1.424,2.533,3.137c-0.627,1.736-2.798,3.112-4.825,3.089
			c-2.026-0.024-3.161-1.447-2.509-3.16C1014.987,71.922,1017.134,70.547,1019.159,70.569z"/>
	</g>
	<line fill="none" stroke="#000000" stroke-width="0.459" x1="1021" y1="72.497" x2="1021" y2="51.197"/>
	<path d="M1002.6,47.798l18.801,1.699v3.5l-18.801-1.699V47.798z"/>
	<g enable-background="new    ">
		<path d="M909.998,37.425v-8.223h5.548v0.97h-4.459v2.547h3.858v0.971h-3.858v3.735H909.998z"/>
	</g>
	<g enable-background="new    ">
		<path d="M965.713,37.425v-8.223h5.547v0.97h-4.459v2.547h3.858v0.971h-3.858v3.735H965.713z"/>
	</g>
	<g enable-background="new    ">
		<path d="M973.781,37.425v-5.361h0.813v0.752c0.168-0.262,0.392-0.474,0.671-0.633c0.279-0.16,0.598-0.24,0.954-0.24
			c0.396,0,0.723,0.083,0.977,0.247c0.254,0.165,0.434,0.396,0.538,0.692c0.424-0.626,0.977-0.939,1.656-0.939
			c0.532,0,0.939,0.147,1.227,0.441c0.286,0.295,0.43,0.748,0.43,1.361v3.68h-0.904v-3.377c0-0.363-0.029-0.625-0.088-0.785
			c-0.06-0.16-0.166-0.289-0.321-0.387c-0.155-0.097-0.336-0.146-0.545-0.146c-0.377,0-0.69,0.125-0.938,0.376
			c-0.25,0.25-0.375,0.651-0.375,1.204v3.114h-0.908v-3.483c0-0.403-0.074-0.707-0.223-0.908c-0.147-0.202-0.391-0.303-0.727-0.303
			c-0.256,0-0.492,0.066-0.709,0.201c-0.217,0.135-0.375,0.332-0.472,0.591c-0.099,0.26-0.146,0.633-0.146,1.121v2.781
			L973.781,37.425L973.781,37.425z"/>
	</g>
	<line fill="none" stroke="#000000" stroke-width="0.459" x1="1046.9" y1="72.497" x2="1046.9" y2="49.497"/>
	<g enable-background="new    ">
		<path d="M1045.006,70.569c2.051,0.024,3.185,1.424,2.532,3.137c-0.627,1.736-2.798,3.112-4.824,3.089
			c-2.027-0.024-3.161-1.447-2.51-3.16C1040.832,71.922,1042.98,70.547,1045.006,70.569z"/>
	</g>
	<g enable-background="new    ">
		<path d="M1081.934,65.361c0.799,0,1.434,0.605,1.434,1.378s-0.634,1.406-1.434,1.406s-1.434-0.634-1.434-1.406
			C1080.5,65.969,1081.134,65.361,1081.934,65.361z"/>
	</g>
	<line fill="none" stroke="#000000" stroke-width="0.459" x1="1077" y1="68.997" x2="1077" y2="45.997"/>
	<g enable-background="new    ">
		<path d="M1075.161,67.122c2.052,0.024,3.186,1.425,2.533,3.138c-0.627,1.735-2.798,3.111-4.825,3.088
			c-2.026-0.024-3.16-1.447-2.509-3.16C1070.988,68.473,1073.135,67.098,1075.161,67.122z"/>
	</g>
	<g enable-background="new    ">
		<path d="M1118.992,52.546c0.91,1.269,2.014,2.701,3.088,4.494c0.91,1.517,1.654,3.942,1.793,5.073
			c0.166,1.13,0.275,2.261,0.248,3.336c-0.027,1.654-0.304,3.227-0.854,4.688l-0.331-0.056c0.497-1.268,0.745-3.17,0.745-4.715
			c0-1.323-0.248-3.032-0.689-4.384c-0.854-2.454-2.206-3.86-3.032-4.411c-1.213-0.827-2.564-0.883-2.564-0.883h-0.386v-7.224h0.386
			C1117.394,49.815,1118.193,51.415,1118.992,52.546z"/>
	</g>
	<line fill="none" stroke="#000000" stroke-width="0.459" x1="1116.6" y1="72.497" x2="1116.6" y2="49.497"/>
	<g enable-background="new    ">
		<path d="M1114.793,70.569c2.051,0.024,3.185,1.424,2.532,3.137c-0.627,1.736-2.798,3.112-4.825,3.089
			c-2.026-0.024-3.16-1.447-2.509-3.16C1110.619,71.922,1112.767,70.547,1114.793,70.569z"/>
	</g>
	<g enable-background="new    ">
		<path d="M1133.461,70.569c2.051,0.024,3.185,1.424,2.532,3.137c-0.627,1.736-2.798,3.112-4.824,3.089
			c-2.027-0.024-3.161-1.447-2.51-3.16C1129.287,71.922,1131.435,70.547,1133.461,70.569z"/>
	</g>
	<line fill="none" stroke="#000000" stroke-width="0.459" x1="1135.3" y1="72.497" x2="1135.3" y2="54.697"/>
	<line fill="none" stroke="#000000" stroke-width="0.459" x1="1145.1" y1="77.098" x2="1155.699" y2="77.098"/>
	<g enable-background="new    ">
		<path d="M1151.84,74.016c2.051,0.023,3.185,1.424,2.532,3.137c-0.627,1.736-2.798,3.111-4.824,3.088
			c-2.027-0.023-3.161-1.447-2.51-3.16C1147.666,75.367,1149.814,73.992,1151.84,74.016z"/>
	</g>
	<line fill="none" stroke="#000000" stroke-width="0.459" x1="1153.699" y1="75.897" x2="1153.699" y2="56.397"/>
	<path d="M1135,52.897l19,1.7v3.5l-19-1.7V52.897z"/>
	<g enable-background="new    ">
		<path d="M1044.746,34.199v-0.965l3.483-0.005v3.051c-0.535,0.427-1.086,0.747-1.655,0.962c-0.568,0.215-1.151,0.323-1.75,0.323
			c-0.808,0-1.542-0.173-2.202-0.52c-0.659-0.346-1.157-0.846-1.495-1.5c-0.337-0.654-0.505-1.386-0.505-2.193
			c0-0.8,0.167-1.547,0.502-2.241c0.335-0.693,0.816-1.208,1.444-1.545s1.352-0.505,2.171-0.505c0.595,0,1.132,0.097,1.613,0.289
			c0.479,0.192,0.856,0.461,1.13,0.805c0.273,0.344,0.48,0.793,0.623,1.347l-0.98,0.269c-0.125-0.419-0.277-0.748-0.461-0.987
			c-0.183-0.239-0.444-0.431-0.784-0.574c-0.341-0.145-0.719-0.216-1.134-0.216c-0.496,0-0.927,0.075-1.29,0.227
			c-0.362,0.152-0.654,0.351-0.877,0.598s-0.396,0.518-0.519,0.813c-0.209,0.509-0.314,1.06-0.314,1.654
			c0,0.733,0.126,1.347,0.379,1.84c0.252,0.494,0.619,0.86,1.102,1.1c0.482,0.24,0.995,0.358,1.537,0.358
			c0.471,0,0.931-0.09,1.38-0.271c0.449-0.181,0.789-0.375,1.021-0.581v-1.531h-2.418V34.199z"/>
	</g>
	<line fill="none" stroke="#000000" stroke-width="0.459" x1="1183.299" y1="75.897" x2="1183.299" y2="52.897"/>
	<line fill="none" stroke="#000000" stroke-width="0.459" x1="1173.299" y1="77.098" x2="1185.299" y2="77.098"/>
	<g enable-background="new    ">
		<path d="M1182.639,77.225c-0.458,1.229-1.496,2.22-2.244,2.58c-0.748,0.387-1.737,0.556-2.823,0.459
			c-0.65-0.049-1.833-0.266-2.315-1.037c-0.482-0.82-0.146-1.785,0.023-2.269c0.458-1.206,1.423-2.026,2.147-2.461
			c0.724-0.409,1.833-0.724,3.185-0.577c0.506,0.071,1.641,0.168,2.1,0.987C1183.097,75.584,1182.808,76.766,1182.639,77.225z
			 M1179.791,75.271c-0.555,0.266-0.94,0.507-1.423,0.771c-0.481,0.266-0.917,0.531-1.423,0.869
			c-0.699,0.434-1.615,1.23-1.158,2.026c0.483,0.796,1.617,0.409,2.364,0.024c0.556-0.267,0.989-0.508,1.473-0.772
			c0.482-0.265,0.893-0.507,1.398-0.845c0.675-0.435,1.593-1.229,1.134-2.026C1181.674,74.522,1180.539,74.908,1179.791,75.271z"/>
	</g>
	<g enable-background="new    ">
		<path d="M1228.031,53.455c0.579-0.055,1.048-0.138,1.544-0.66c0.47-0.47,0.718-0.855,1.158-1.353l0.386,0.221l-3.061,11.554
			h-1.104c0,0,1.048-3.281,1.518-4.551c1.157-3.226,1.488-5.128,1.488-5.128c-0.688,0.523-2.344,1.683-3.64,1.766
			c-2.896,0.165-3.529-4.055-0.524-4.798C1227.811,50.01,1228.39,52.325,1228.031,53.455z"/>
	</g>
	<line fill="none" stroke="#000000" stroke-width="0.459" x1="1240.799" y1="77.098" x2="1251.401" y2="77.098"/>
	<g enable-background="new    ">
		<path d="M1247.474,74.016c2.051,0.023,3.185,1.424,2.533,3.137c-0.627,1.736-2.798,3.111-4.825,3.088s-3.161-1.447-2.509-3.16
			C1243.3,75.367,1245.447,73.992,1247.474,74.016z"/>
	</g>
	<line fill="none" stroke="#000000" stroke-width="0.459" x1="1249.299" y1="75.897" x2="1249.299" y2="56.397"/>
	<line fill="none" stroke="#000000" stroke-width="0.459" x1="1259.401" y1="77.098" x2="1270.1" y2="77.098"/>
	<g enable-background="new    ">
		<path d="M1266.141,74.016c2.051,0.023,3.185,1.424,2.533,3.137c-0.627,1.736-2.799,3.111-4.825,3.088
			c-2.027-0.023-3.161-1.447-2.509-3.16C1261.967,75.367,1264.114,73.992,1266.141,74.016z"/>
	</g>
	<line fill="none" stroke="#000000" stroke-width="0.459" x1="1268" y1="75.897" x2="1268" y2="55.497"/>
	<g enable-background="new    ">
		<path d="M1284.808,70.569c2.051,0.024,3.185,1.424,2.533,3.137c-0.627,1.736-2.798,3.112-4.825,3.089
			c-2.027-0.024-3.161-1.447-2.509-3.16C1280.635,71.922,1282.781,70.547,1284.808,70.569z"/>
	</g>
	<line fill="none" stroke="#000000" stroke-width="0.459" x1="1286.699" y1="72.497" x2="1286.699" y2="54.697"/>
	<path d="M1249,54.697l38-1.7v3.5l-38,1.7V54.697z"/>
	<g enable-background="new    ">
		<path d="M1170.543,23.629l1.089,0.274c-0.229,0.894-0.64,1.575-1.231,2.045c-0.593,0.469-1.316,0.704-2.173,0.704
			c-0.886,0-1.607-0.181-2.163-0.542c-0.555-0.36-0.978-0.883-1.268-1.567c-0.29-0.685-0.436-1.419-0.436-2.204
			c0-0.856,0.164-1.604,0.491-2.241c0.327-0.637,0.792-1.122,1.396-1.453c0.604-0.33,1.27-0.496,1.994-0.496
			c0.823,0,1.516,0.21,2.075,0.628c0.562,0.419,0.952,1.008,1.172,1.768l-1.071,0.252c-0.189-0.598-0.467-1.034-0.829-1.307
			c-0.363-0.273-0.819-0.409-1.369-0.409c-0.632,0-1.16,0.151-1.584,0.454c-0.424,0.303-0.724,0.709-0.896,1.22
			c-0.172,0.511-0.258,1.037-0.258,1.579c0,0.699,0.102,1.31,0.306,1.831s0.521,0.912,0.951,1.17
			c0.431,0.258,0.896,0.387,1.397,0.387c0.608,0,1.125-0.176,1.548-0.527C1170.109,24.842,1170.395,24.32,1170.543,23.629z"/>
	</g>
	<g enable-background="new    ">
		<path d="M1185.19,34.542l1.088,0.274c-0.229,0.894-0.639,1.575-1.23,2.045c-0.594,0.469-1.317,0.704-2.174,0.704
			c-0.886,0-1.606-0.181-2.162-0.542c-0.556-0.36-0.979-0.883-1.269-1.567c-0.29-0.685-0.435-1.419-0.435-2.204
			c0-0.856,0.164-1.604,0.49-2.241c0.327-0.637,0.793-1.122,1.396-1.453c0.604-0.33,1.27-0.496,1.994-0.496
			c0.823,0,1.515,0.21,2.075,0.628c0.561,0.419,0.952,1.008,1.172,1.768l-1.071,0.252c-0.189-0.598-0.467-1.034-0.83-1.307
			s-0.818-0.409-1.369-0.409c-0.632,0-1.16,0.151-1.584,0.454s-0.723,0.709-0.895,1.22c-0.172,0.511-0.258,1.037-0.258,1.579
			c0,0.699,0.102,1.31,0.306,1.831s0.521,0.912,0.951,1.17c0.43,0.258,0.896,0.387,1.396,0.387c0.609,0,1.125-0.176,1.548-0.527
			C1184.755,35.755,1185.041,35.233,1185.19,34.542z"/>
	</g>
	<line fill="none" stroke="#000000" stroke-width="0.459" x1="1312.799" y1="68.997" x2="1312.799" y2="45.997"/>
	<g enable-background="new    ">
		<path d="M1310.943,67.122c2.051,0.024,3.186,1.425,2.533,3.138c-0.627,1.735-2.798,3.111-4.825,3.088
			c-2.027-0.024-3.161-1.447-2.509-3.16C1306.77,68.473,1308.916,67.098,1310.943,67.122z"/>
	</g>
	<g enable-background="new    ">
		<path d="M1347.868,58.469c0.8,0,1.435,0.605,1.435,1.377c0,0.772-0.635,1.406-1.435,1.406s-1.434-0.634-1.434-1.406
			C1346.435,59.075,1347.069,58.469,1347.868,58.469z"/>
	</g>
	<line fill="none" stroke="#000000" stroke-width="0.459" x1="1343" y1="62.098" x2="1343" y2="39.098"/>
	<g enable-background="new    ">
		<path d="M1341.097,60.229c2.051,0.024,3.185,1.424,2.533,3.137c-0.627,1.736-2.798,3.112-4.825,3.088s-3.161-1.446-2.509-3.159
			C1336.924,61.581,1339.071,60.206,1341.097,60.229z"/>
	</g>
	<g enable-background="new    ">
		<path d="M1384.927,42.207c0.91,1.269,2.013,2.702,3.088,4.495c0.91,1.518,1.654,3.942,1.792,5.073
			c0.166,1.13,0.275,2.261,0.248,3.336c-0.027,1.653-0.303,3.228-0.854,4.688l-0.331-0.057c0.497-1.268,0.745-3.17,0.745-4.715
			c0-1.323-0.248-3.032-0.688-4.384c-0.854-2.454-2.206-3.86-3.033-4.411c-1.213-0.827-2.564-0.883-2.564-0.883h-0.386v-7.224h0.386
			C1383.327,39.477,1384.128,41.077,1384.927,42.207z"/>
	</g>
	<line fill="none" stroke="#000000" stroke-width="0.459" x1="1382.6" y1="62.098" x2="1382.6" y2="39.098"/>
	<g enable-background="new    ">
		<path d="M1380.729,60.229c2.051,0.024,3.186,1.424,2.533,3.137c-0.627,1.736-2.798,3.112-4.825,3.088s-3.161-1.446-2.509-3.159
			C1376.555,61.581,1378.701,60.206,1380.729,60.229z"/>
	</g>
	<g enable-background="new    ">
		<path d="M1399.396,63.676c2.051,0.024,3.185,1.424,2.533,3.138c-0.627,1.735-2.798,3.112-4.825,3.088s-3.161-1.447-2.509-3.16
			C1395.222,65.028,1397.368,63.653,1399.396,63.676z"/>
	</g>
	<line fill="none" stroke="#000000" stroke-width="0.459" x1="1401.299" y1="65.598" x2="1401.299" y2="47.798"/>
	<g enable-background="new    ">
		<path d="M1417.776,67.122c2.051,0.024,3.186,1.425,2.533,3.138c-0.627,1.735-2.798,3.111-4.825,3.088
			c-2.026-0.024-3.161-1.447-2.509-3.16C1413.603,68.473,1415.75,67.098,1417.776,67.122z"/>
	</g>
	<line fill="none" stroke="#000000" stroke-width="0.459" x1="1419.6" y1="68.997" x2="1419.6" y2="49.497"/>
	<path d="M1400.901,45.997l19,1.7v3.5l-19-1.7V45.997z"/>
	<g enable-background="new    ">
		<path d="M1298.748,25.363V17.14h3.086c0.628,0,1.132,0.083,1.512,0.249c0.379,0.167,0.677,0.423,0.892,0.769
			c0.215,0.346,0.322,0.708,0.322,1.086c0,0.352-0.095,0.682-0.286,0.992c-0.189,0.311-0.479,0.562-0.864,0.752
			c0.498,0.146,0.88,0.395,1.147,0.746c0.268,0.352,0.4,0.767,0.4,1.245c0,0.385-0.082,0.743-0.244,1.074
			c-0.161,0.331-0.363,0.586-0.603,0.766c-0.239,0.18-0.54,0.314-0.9,0.406c-0.359,0.092-0.803,0.138-1.325,0.138H1298.748z
			 M1299.837,20.595h1.777c0.482,0,0.828-0.032,1.038-0.096c0.277-0.082,0.485-0.219,0.625-0.409c0.141-0.19,0.21-0.43,0.21-0.718
			c0-0.273-0.064-0.514-0.196-0.721c-0.131-0.208-0.317-0.35-0.561-0.427c-0.243-0.076-0.66-0.115-1.25-0.115h-1.645
			L1299.837,20.595L1299.837,20.595z M1299.837,24.392h2.047c0.351,0,0.598-0.013,0.739-0.039c0.25-0.045,0.461-0.119,0.629-0.225
			c0.168-0.104,0.306-0.257,0.415-0.457c0.107-0.2,0.163-0.431,0.163-0.692c0-0.307-0.079-0.573-0.236-0.8
			c-0.157-0.226-0.375-0.385-0.653-0.477c-0.278-0.092-0.68-0.138-1.203-0.138h-1.9V24.392L1299.837,24.392z"/>
	</g>
	<g enable-background="new    ">
		<path d="M1312.702,34.542l1.089,0.274c-0.229,0.894-0.64,1.575-1.231,2.045c-0.593,0.469-1.317,0.704-2.173,0.704
			c-0.886,0-1.607-0.181-2.163-0.542c-0.555-0.36-0.978-0.883-1.268-1.567c-0.29-0.685-0.436-1.419-0.436-2.204
			c0-0.856,0.164-1.604,0.491-2.241s0.792-1.122,1.396-1.453c0.604-0.33,1.27-0.496,1.994-0.496c0.823,0,1.516,0.21,2.075,0.628
			c0.561,0.419,0.952,1.008,1.172,1.768l-1.071,0.252c-0.189-0.598-0.467-1.034-0.829-1.307c-0.363-0.273-0.819-0.409-1.369-0.409
			c-0.633,0-1.16,0.151-1.584,0.454s-0.724,0.709-0.896,1.22c-0.172,0.511-0.258,1.037-0.258,1.579c0,0.699,0.102,1.31,0.306,1.831
			s0.521,0.912,0.951,1.17c0.43,0.258,0.896,0.387,1.397,0.387c0.608,0,1.125-0.176,1.548-0.527
			C1312.267,35.755,1312.553,35.233,1312.702,34.542z"/>
	</g>
	<g enable-background="new    ">
		<path d="M1369.278,34.542l1.088,0.274c-0.229,0.894-0.639,1.575-1.23,2.045c-0.594,0.469-1.317,0.704-2.173,0.704
			c-0.887,0-1.607-0.181-2.163-0.542c-0.556-0.36-0.979-0.883-1.269-1.567c-0.29-0.685-0.435-1.419-0.435-2.204
			c0-0.856,0.164-1.604,0.491-2.241s0.792-1.122,1.396-1.453c0.604-0.33,1.27-0.496,1.994-0.496c0.823,0,1.515,0.21,2.075,0.628
			c0.561,0.419,0.952,1.008,1.172,1.768l-1.071,0.252c-0.189-0.598-0.467-1.034-0.83-1.307s-0.818-0.409-1.369-0.409
			c-0.632,0-1.16,0.151-1.584,0.454s-0.723,0.709-0.895,1.22c-0.172,0.511-0.258,1.037-0.258,1.579c0,0.699,0.102,1.31,0.306,1.831
			s0.521,0.912,0.951,1.17c0.43,0.258,0.896,0.387,1.396,0.387c0.609,0,1.125-0.176,1.548-0.527
			C1368.843,35.755,1369.129,35.233,1369.278,34.542z"/>
	</g>
	<g enable-background="new    ">
		<path d="M1372.778,30.993V30.12h4.791v0.707c-0.471,0.501-0.938,1.168-1.4,1.999s-0.82,1.686-1.073,2.564
			c-0.183,0.619-0.298,1.297-0.349,2.034h-0.934c0.01-0.582,0.125-1.285,0.343-2.11c0.22-0.824,0.533-1.619,0.941-2.385
			c0.409-0.766,0.844-1.411,1.305-1.937L1372.778,30.993L1372.778,30.993z"/>
	</g>
	<line fill="none" stroke="#000000" stroke-width="0.459" x1="1447.799" y1="75.897" x2="1447.799" y2="52.897"/>
	<line fill="none" stroke="#000000" stroke-width="0.459" x1="1439.199" y1="77.098" x2="1449.799" y2="77.098"/>
	<g enable-background="new    ">
		<path d="M1445.921,74.016c2.051,0.023,3.185,1.424,2.532,3.137c-0.627,1.736-2.798,3.111-4.824,3.088
			c-2.027-0.023-3.161-1.447-2.51-3.16C1441.748,75.367,1443.895,73.992,1445.921,74.016z"/>
	</g>
	<g enable-background="new    ">
		<path d="M1482.272,65.361c0.799,0,1.434,0.605,1.434,1.378s-0.634,1.406-1.434,1.406s-1.434-0.634-1.434-1.406
			C1480.839,65.969,1481.473,65.361,1482.272,65.361z"/>
	</g>
	<line fill="none" stroke="#000000" stroke-width="0.459" x1="1477.401" y1="65.598" x2="1477.401" y2="42.598"/>
	<g enable-background="new    ">
		<path d="M1475.5,63.676c2.051,0.024,3.185,1.424,2.532,3.138c-0.627,1.735-2.798,3.112-4.825,3.088
			c-2.026-0.024-3.16-1.447-2.509-3.16C1471.326,65.028,1473.474,63.653,1475.5,63.676z"/>
	</g>
	<g enable-background="new    ">
		<path d="M1518.756,49.098c0.91,1.269,2.013,2.702,3.088,4.495c0.91,1.517,1.654,3.941,1.792,5.072
			c0.166,1.13,0.275,2.261,0.248,3.337c-0.027,1.653-0.304,3.227-0.854,4.688l-0.331-0.057c0.497-1.268,0.745-3.17,0.745-4.715
			c0-1.322-0.248-3.031-0.688-4.384c-0.854-2.454-2.206-3.859-3.033-4.411c-1.213-0.826-2.564-0.883-2.564-0.883h-0.386v-7.223
			h0.386C1517.156,46.368,1517.957,47.969,1518.756,49.098z"/>
	</g>
	<line fill="none" stroke="#000000" stroke-width="0.459" x1="1516.401" y1="68.997" x2="1516.401" y2="45.997"/>
	<g enable-background="new    ">
		<path d="M1514.558,67.122c2.051,0.024,3.185,1.425,2.533,3.138c-0.627,1.735-2.798,3.111-4.825,3.088
			c-2.027-0.024-3.161-1.447-2.509-3.16C1510.384,68.473,1512.531,67.098,1514.558,67.122z"/>
	</g>
	<g enable-background="new    ">
		<path d="M1532.938,67.122c2.051,0.024,3.186,1.425,2.533,3.138c-0.627,1.735-2.798,3.111-4.825,3.088
			c-2.027-0.024-3.161-1.447-2.509-3.16C1528.764,68.473,1530.91,67.098,1532.938,67.122z"/>
	</g>
	<line fill="none" stroke="#000000" stroke-width="0.459" x1="1534.799" y1="68.997" x2="1534.799" y2="49.497"/>
	<g enable-background="new    ">
		<path d="M1551.03,70.569c2.051,0.024,3.186,1.424,2.533,3.137c-0.627,1.736-2.798,3.112-4.825,3.089
			c-2.026-0.024-3.161-1.447-2.509-3.16C1546.857,71.922,1549.004,70.547,1551.03,70.569z"/>
	</g>
	<line fill="none" stroke="#000000" stroke-width="0.459" x1="1552.901" y1="72.497" x2="1552.901" y2="51.197"/>
	<path d="M1534.5,47.798l18.799,1.699v3.5l-18.799-1.699V47.798z"/>
	<g enable-background="new    ">
		<path d="M1441.869,37.425v-8.223h5.547v0.97h-4.459v2.547h3.859v0.971h-3.859v3.735H1441.869z"/>
	</g>
	<g enable-background="new    ">
		<path d="M1497.582,37.425v-8.223h5.548v0.97h-4.459v2.547h3.858v0.971h-3.858v3.735H1497.582z"/>
	</g>
	<g enable-background="new    ">
		<path d="M1505.65,37.425v-5.361h0.813v0.752c0.168-0.262,0.392-0.474,0.671-0.633c0.279-0.16,0.598-0.24,0.954-0.24
			c0.396,0,0.723,0.083,0.977,0.247c0.254,0.165,0.433,0.396,0.538,0.692c0.424-0.626,0.976-0.939,1.656-0.939
			c0.531,0,0.939,0.147,1.227,0.441c0.286,0.295,0.43,0.748,0.43,1.361v3.68h-0.904v-3.377c0-0.363-0.029-0.625-0.088-0.785
			c-0.06-0.16-0.166-0.289-0.321-0.387c-0.155-0.097-0.336-0.146-0.545-0.146c-0.377,0-0.69,0.125-0.939,0.376
			c-0.249,0.25-0.374,0.651-0.374,1.204v3.114h-0.909v-3.483c0-0.403-0.073-0.707-0.222-0.908c-0.148-0.202-0.391-0.303-0.727-0.303
			c-0.257,0-0.492,0.066-0.709,0.201c-0.218,0.135-0.375,0.332-0.473,0.591c-0.098,0.26-0.146,0.633-0.146,1.121v2.781
			L1505.65,37.425L1505.65,37.425z"/>
	</g>
	<line fill="none" stroke="#000000" stroke-width="0.459" x1="1578.699" y1="72.497" x2="1578.699" y2="49.497"/>
	<g enable-background="new    ">
		<path d="M1576.877,70.569c2.051,0.024,3.185,1.424,2.532,3.137c-0.627,1.736-2.798,3.112-4.825,3.089
			c-2.026-0.024-3.16-1.447-2.509-3.16C1572.703,71.922,1574.851,70.547,1576.877,70.569z"/>
	</g>
	<g enable-background="new    ">
		<path d="M1613.805,65.361c0.799,0,1.434,0.605,1.434,1.378s-0.634,1.406-1.434,1.406s-1.434-0.634-1.434-1.406
			C1612.37,65.969,1613.005,65.361,1613.805,65.361z"/>
	</g>
	<line fill="none" stroke="#000000" stroke-width="0.459" x1="1608.901" y1="68.997" x2="1608.901" y2="45.997"/>
	<g enable-background="new    ">
		<path d="M1607.031,67.122c2.051,0.024,3.186,1.425,2.533,3.138c-0.627,1.735-2.798,3.111-4.825,3.088
			c-2.026-0.024-3.161-1.447-2.509-3.16C1602.859,68.473,1605.006,67.098,1607.031,67.122z"/>
	</g>
	<g enable-background="new    ">
		<path d="M1650.862,52.546c0.91,1.269,2.014,2.701,3.088,4.494c0.91,1.517,1.654,3.942,1.792,5.073
			c0.166,1.13,0.276,2.261,0.248,3.336c-0.026,1.654-0.303,3.227-0.854,4.688l-0.331-0.056c0.497-1.268,0.745-3.17,0.745-4.715
			c0-1.323-0.248-3.032-0.689-4.384c-0.854-2.454-2.206-3.86-3.032-4.411c-1.214-0.827-2.564-0.883-2.564-0.883h-0.386v-7.224h0.386
			C1649.263,49.815,1650.062,51.415,1650.862,52.546z"/>
	</g>
	<line fill="none" stroke="#000000" stroke-width="0.459" x1="1648.5" y1="72.497" x2="1648.5" y2="49.497"/>
	<g enable-background="new    ">
		<path d="M1646.663,70.569c2.052,0.024,3.186,1.424,2.533,3.137c-0.627,1.736-2.798,3.112-4.825,3.089
			c-2.026-0.024-3.16-1.447-2.509-3.16C1642.49,71.922,1644.638,70.547,1646.663,70.569z"/>
	</g>
	<g enable-background="new    ">
		<path d="M1665.33,70.569c2.052,0.024,3.186,1.424,2.533,3.137c-0.627,1.736-2.798,3.112-4.824,3.089
			c-2.027-0.024-3.161-1.447-2.51-3.16C1661.157,71.922,1663.305,70.547,1665.33,70.569z"/>
	</g>
	<line fill="none" stroke="#000000" stroke-width="0.459" x1="1667.199" y1="72.497" x2="1667.199" y2="54.697"/>
	<line fill="none" stroke="#000000" stroke-width="0.459" x1="1677" y1="77.098" x2="1687.6" y2="77.098"/>
	<g enable-background="new    ">
		<path d="M1683.709,74.016c2.052,0.023,3.186,1.424,2.533,3.137c-0.627,1.736-2.798,3.111-4.824,3.088
			c-2.027-0.023-3.161-1.447-2.51-3.16C1679.536,75.367,1681.684,73.992,1683.709,74.016z"/>
	</g>
	<line fill="none" stroke="#000000" stroke-width="0.459" x1="1685.6" y1="75.897" x2="1685.6" y2="56.397"/>
	<path d="M1666.901,52.897l19,1.7v3.5l-19-1.7V52.897z"/>
	<g enable-background="new    ">
		<path d="M1576.616,34.199v-0.965l3.483-0.005v3.051c-0.535,0.427-1.086,0.747-1.655,0.962s-1.151,0.323-1.75,0.323
			c-0.808,0-1.542-0.173-2.202-0.52c-0.66-0.346-1.158-0.846-1.495-1.5c-0.337-0.654-0.505-1.386-0.505-2.193
			c0-0.8,0.167-1.547,0.502-2.241c0.335-0.693,0.816-1.208,1.444-1.545s1.352-0.505,2.171-0.505c0.595,0,1.132,0.097,1.613,0.289
			c0.479,0.192,0.856,0.461,1.13,0.805c0.272,0.344,0.479,0.793,0.623,1.347l-0.981,0.269c-0.124-0.419-0.276-0.748-0.46-0.987
			c-0.183-0.239-0.444-0.431-0.784-0.574c-0.341-0.145-0.719-0.216-1.134-0.216c-0.497,0-0.927,0.075-1.29,0.227
			s-0.654,0.351-0.877,0.598s-0.396,0.518-0.519,0.813c-0.209,0.509-0.314,1.06-0.314,1.654c0,0.733,0.126,1.347,0.378,1.84
			c0.252,0.494,0.62,0.86,1.103,1.1c0.481,0.24,0.995,0.358,1.537,0.358c0.471,0,0.931-0.09,1.38-0.271
			c0.449-0.181,0.789-0.375,1.021-0.581v-1.531h-2.418V34.199z"/>
	</g>
	<line fill="none" stroke="#000000" stroke-width="0.459" x1="1713.699" y1="75.897" x2="1713.699" y2="52.897"/>
	<line fill="none" stroke="#000000" stroke-width="0.459" x1="1705.1" y1="77.098" x2="1715.799" y2="77.098"/>
	<g enable-background="new    ">
		<path d="M1711.854,74.016c2.051,0.023,3.186,1.424,2.533,3.137c-0.627,1.736-2.798,3.111-4.825,3.088s-3.161-1.447-2.509-3.16
			C1707.681,75.367,1709.827,73.992,1711.854,74.016z"/>
	</g>
	<g enable-background="new    ">
		<path d="M1754.974,52.849v3.529h-8.769v-3.529H1754.974z"/>
	</g>
	<line fill="none" stroke="#000000" stroke-width="0.459" x1="1745.299" y1="56.397" x2="1755.699" y2="56.397"/>
	<g enable-background="new    ">
		<path d="M1759.406,51.576c0.799,0,1.435,0.606,1.435,1.378c0,0.772-0.635,1.406-1.435,1.406s-1.434-0.634-1.434-1.406
			C1757.974,52.183,1758.607,51.576,1759.406,51.576z"/>
	</g>
	<g enable-background="new    ">
		<path d="M1698.845,25.363V17.14h2.833c0.64,0,1.127,0.039,1.464,0.117c0.471,0.108,0.874,0.305,1.206,0.589
			c0.434,0.367,0.758,0.835,0.973,1.405c0.215,0.57,0.323,1.222,0.323,1.955c0,0.624-0.073,1.178-0.219,1.66
			c-0.146,0.482-0.333,0.882-0.562,1.197c-0.228,0.316-0.478,0.565-0.749,0.746c-0.271,0.182-0.599,0.319-0.981,0.412
			c-0.384,0.094-0.824,0.141-1.321,0.141L1698.845,25.363L1698.845,25.363z M1699.933,24.392h1.755c0.542,0,0.968-0.05,1.276-0.151
			c0.308-0.101,0.554-0.243,0.736-0.426c0.259-0.258,0.459-0.605,0.604-1.041c0.144-0.436,0.216-0.964,0.216-1.584
			c0-0.86-0.141-1.521-0.423-1.983c-0.282-0.462-0.625-0.771-1.029-0.928c-0.292-0.112-0.761-0.169-1.408-0.169h-1.728
			L1699.933,24.392L1699.933,24.392z"/>
	</g>
	<g enable-background="new    ">
		<path d="M1717.061,34.542l1.088,0.274c-0.229,0.894-0.639,1.575-1.23,2.045c-0.594,0.469-1.317,0.704-2.174,0.704
			c-0.886,0-1.606-0.181-2.162-0.542c-0.556-0.36-0.979-0.883-1.269-1.567c-0.29-0.685-0.435-1.419-0.435-2.204
			c0-0.856,0.164-1.604,0.49-2.241c0.327-0.637,0.793-1.122,1.396-1.453c0.604-0.33,1.27-0.496,1.994-0.496
			c0.823,0,1.515,0.21,2.075,0.628c0.561,0.419,0.952,1.008,1.172,1.768l-1.071,0.252c-0.189-0.598-0.467-1.034-0.83-1.307
			s-0.818-0.409-1.369-0.409c-0.632,0-1.16,0.151-1.584,0.454s-0.723,0.709-0.895,1.22c-0.172,0.511-0.258,1.037-0.258,1.579
			c0,0.699,0.102,1.31,0.306,1.831s0.521,0.912,0.951,1.17c0.43,0.258,0.896,0.387,1.396,0.387c0.609,0,1.125-0.176,1.548-0.527
			C1716.625,35.755,1716.91,35.233,1717.061,34.542z"/>
	</g>
	<g enable-background="new    ">
		<path d="M1901.467,49.457v3.972h-8.77v-3.972H1901.467z"/>
	</g>
	<line fill="none" stroke="#000000" stroke-width="0.459" x1="1891.799" y1="49.497" x2="1902.1" y2="49.497"/>
	<g enable-background="new    ">
		<path d="M2034.434,49.457v3.972h-8.77v-3.972H2034.434z"/>
	</g>
	<line fill="none" stroke="#000000" stroke-width="0.459" x1="2024.799" y1="49.497" x2="2035.1" y2="49.497"/>
	<g enable-background="new    ">
		<path d="M2113.67,52.849v3.529h-8.769v-3.529H2113.67z"/>
	</g>
	<line fill="none" stroke="#000000" stroke-width="0.459" x1="2104" y1="56.397" x2="2114.401" y2="56.397"/>
	<g enable-background="new    ">
		<path d="M2118.104,51.576c0.8,0,1.434,0.606,1.434,1.378c0,0.772-0.634,1.406-1.434,1.406c-0.799,0-1.434-0.634-1.434-1.406
			C2116.67,52.183,2117.305,51.576,2118.104,51.576z"/>
	</g>
	<line fill="none" stroke="#000000" stroke-width="0.459" x1="2182.199" y1="77.098" x2="2192.799" y2="77.098"/>
	<g enable-background="new    ">
		<path d="M2188.873,74.016c2.052,0.023,3.185,1.424,2.533,3.137c-0.628,1.736-2.799,3.111-4.824,3.088
			c-2.026-0.023-3.161-1.447-2.51-3.16C2184.699,75.367,2186.846,73.992,2188.873,74.016z"/>
	</g>
	<line fill="none" stroke="#000000" stroke-width="0.459" x1="2190.699" y1="75.897" x2="2190.699" y2="56.397"/>
	<g enable-background="new    ">
		<path d="M2211.561,70.569c2.051,0.024,3.184,1.424,2.533,3.137c-0.628,1.736-2.799,3.112-4.825,3.089
			c-2.026-0.024-3.161-1.447-2.509-3.16C2207.387,71.922,2209.533,70.547,2211.561,70.569z"/>
	</g>
	<line fill="none" stroke="#000000" stroke-width="0.459" x1="2213.401" y1="72.497" x2="2213.401" y2="54.697"/>
	<path d="M2190.401,54.697l23.299-1.7v3.5l-23.299,1.7V54.697z"/>
	<g enable-background="new    ">
		<path d="M2099.716,24.213l3.157-8.223h1.173l3.364,8.223h-1.238l-0.959-2.49h-3.439l-0.902,2.49H2099.716z M2102.088,20.836h2.787
			l-0.857-2.277c-0.262-0.691-0.456-1.26-0.583-1.705c-0.104,0.527-0.253,1.051-0.443,1.57L2102.088,20.836z"/>
	</g>
	<line fill="none" stroke="#000000" stroke-width="0.459" x1="2243.6" y1="68.997" x2="2243.6" y2="45.997"/>
	<g enable-background="new    ">
		<path d="M2241.715,67.122c2.051,0.024,3.184,1.425,2.533,3.138c-0.629,1.735-2.8,3.111-4.825,3.088
			c-2.026-0.024-3.161-1.447-2.509-3.16C2237.541,68.473,2239.688,67.098,2241.715,67.122z"/>
	</g>
	<line fill="none" stroke="#000000" stroke-width="0.459" x1="2274.901" y1="62.098" x2="2274.901" y2="39.098"/>
	<g enable-background="new    ">
		<path d="M2273.018,60.229c2.051,0.024,3.186,1.424,2.533,3.137c-0.627,1.736-2.799,3.112-4.824,3.088
			c-2.027-0.024-3.16-1.446-2.51-3.159C2268.845,61.581,2270.992,60.206,2273.018,60.229z"/>
	</g>
	<line fill="none" stroke="#000000" stroke-width="0.459" x1="2306.5" y1="62.098" x2="2306.5" y2="39.098"/>
	<g enable-background="new    ">
		<path d="M2304.61,60.229c2.051,0.024,3.185,1.424,2.533,3.137c-0.628,1.736-2.799,3.112-4.825,3.088
			c-2.025-0.024-3.161-1.446-2.509-3.159C2300.436,61.581,2302.582,60.206,2304.61,60.229z"/>
	</g>
	<line fill="none" stroke="#000000" stroke-width="0.459" x1="2337.799" y1="68.997" x2="2337.799" y2="45.997"/>
	<g enable-background="new    ">
		<path d="M2335.912,67.122c2.052,0.024,3.185,1.425,2.533,3.138c-0.628,1.735-2.799,3.111-4.824,3.088
			c-2.026-0.024-3.161-1.447-2.51-3.16C2331.739,68.473,2333.885,67.098,2335.912,67.122z"/>
	</g>
	<g enable-background="new    ">
		<path d="M2243.475,34.542l1.088,0.274c-0.229,0.894-0.639,1.575-1.23,2.045c-0.594,0.469-1.317,0.704-2.174,0.704
			c-0.887,0-1.606-0.181-2.163-0.542c-0.556-0.36-0.978-0.883-1.268-1.567c-0.29-0.684-0.436-1.419-0.436-2.204
			c0-0.856,0.164-1.604,0.49-2.241c0.328-0.638,0.793-1.122,1.396-1.453c0.604-0.33,1.271-0.496,1.994-0.496
			c0.823,0,1.517,0.21,2.076,0.628c0.561,0.419,0.951,1.008,1.172,1.768l-1.07,0.252c-0.19-0.598-0.469-1.034-0.83-1.307
			c-0.362-0.273-0.819-0.409-1.368-0.409c-0.634,0-1.16,0.151-1.585,0.454c-0.426,0.303-0.723,0.709-0.896,1.22
			c-0.173,0.511-0.259,1.037-0.259,1.579c0,0.699,0.104,1.31,0.307,1.831s0.521,0.912,0.95,1.17
			c0.431,0.258,0.896,0.387,1.397,0.387c0.608,0,1.125-0.176,1.547-0.527C2243.039,35.755,2243.324,35.233,2243.475,34.542z"/>
	</g>
	<line fill="none" stroke="#000000" stroke-width="0.459" x1="2376.5" y1="65.598" x2="2376.5" y2="42.598"/>
	<g enable-background="new    ">
		<path d="M2374.682,63.676c2.051,0.024,3.186,1.424,2.533,3.138c-0.627,1.735-2.799,3.112-4.824,3.088
			c-2.027-0.024-3.16-1.447-2.51-3.16C2370.509,65.028,2372.656,63.653,2374.682,63.676z"/>
	</g>
	<line fill="none" stroke="#000000" stroke-width="0.459" x1="2410.401" y1="65.598" x2="2410.401" y2="42.598"/>
	<g enable-background="new    ">
		<path d="M2409.789,66.885c-0.459,1.23-1.496,2.221-2.243,2.582c-0.748,0.386-1.737,0.555-2.823,0.459
			c-0.65-0.049-1.833-0.267-2.314-1.039c-0.482-0.819-0.146-1.784,0.022-2.268c0.459-1.206,1.424-2.025,2.147-2.461
			c0.724-0.409,1.832-0.725,3.185-0.578c0.506,0.072,1.642,0.169,2.099,0.988C2410.246,65.245,2409.957,66.428,2409.789,66.885z
			 M2406.942,64.932c-0.555,0.266-0.941,0.507-1.424,0.771c-0.482,0.267-0.916,0.531-1.424,0.869
			c-0.699,0.435-1.615,1.229-1.157,2.026c0.482,0.795,1.616,0.41,2.364,0.023c0.555-0.266,0.988-0.507,1.472-0.771
			c0.482-0.266,0.893-0.508,1.398-0.846c0.677-0.434,1.593-1.229,1.134-2.025C2408.823,64.184,2407.69,64.569,2406.942,64.932z"/>
	</g>
	<line fill="none" stroke="#000000" stroke-width="0.459" x1="2453.299" y1="77.098" x2="2463.901" y2="77.098"/>
	<g enable-background="new    ">
		<path d="M2459.977,74.016c2.051,0.023,3.186,1.424,2.533,3.137c-0.627,1.736-2.799,3.111-4.824,3.088
			c-2.027-0.023-3.16-1.447-2.51-3.16C2455.804,75.367,2457.951,73.992,2459.977,74.016z"/>
	</g>
	<line fill="none" stroke="#000000" stroke-width="0.459" x1="2461.799" y1="75.897" x2="2461.799" y2="56.397"/>
	<g enable-background="new    ">
		<path d="M2480.08,70.569c2.052,0.024,3.185,1.424,2.533,3.137c-0.628,1.736-2.799,3.112-4.824,3.089
			c-2.026-0.024-3.161-1.447-2.51-3.16C2475.906,71.922,2478.053,70.547,2480.08,70.569z"/>
	</g>
	<line fill="none" stroke="#000000" stroke-width="0.459" x1="2481.901" y1="72.497" x2="2481.901" y2="54.697"/>
	<path d="M2461.5,54.697l20.799-1.7v3.5l-20.799,1.7V54.697z"/>
	<g enable-background="new    ">
		<path d="M2370.631,37.425v-8.223h5.547v0.97h-4.459v2.547h3.859v0.971h-3.859v3.735H2370.631z"/>
	</g>
	<line fill="none" stroke="#000000" stroke-width="0.459" x1="2509.5" y1="68.997" x2="2509.5" y2="45.997"/>
	<g enable-background="new    ">
		<path d="M2507.651,67.122c2.051,0.024,3.184,1.425,2.533,3.138c-0.628,1.735-2.799,3.111-4.825,3.088
			c-2.026-0.024-3.161-1.447-2.509-3.16C2503.477,68.473,2505.623,67.098,2507.651,67.122z"/>
	</g>
	<line fill="none" stroke="#000000" stroke-width="0.459" x1="2540.799" y1="62.098" x2="2540.799" y2="39.098"/>
	<g enable-background="new    ">
		<path d="M2538.953,60.229c2.052,0.024,3.187,1.424,2.533,3.137c-0.627,1.736-2.798,3.112-4.824,3.088s-3.159-1.446-2.51-3.159
			C2534.781,61.581,2536.928,60.206,2538.953,60.229z"/>
	</g>
	<line fill="none" stroke="#000000" stroke-width="0.459" x1="2572.401" y1="62.098" x2="2572.401" y2="39.098"/>
	<g enable-background="new    ">
		<path d="M2570.543,60.229c2.051,0.024,3.186,1.424,2.532,3.137c-0.627,1.736-2.798,3.112-4.823,3.088
			c-2.027-0.024-3.16-1.446-2.511-3.159C2566.371,61.581,2568.518,60.206,2570.543,60.229z"/>
	</g>
	<line fill="none" stroke="#000000" stroke-width="0.459" x1="2603.699" y1="65.598" x2="2603.699" y2="42.598"/>
	<g enable-background="new    ">
		<path d="M2601.848,63.676c2.051,0.024,3.186,1.424,2.533,3.138c-0.627,1.735-2.799,3.112-4.824,3.088
			c-2.027-0.024-3.16-1.447-2.51-3.16C2597.675,65.028,2599.823,63.653,2601.848,63.676z"/>
	</g>
	<g enable-background="new    ">
		<path d="M2507.391,34.199v-0.965l3.482-0.005v3.051c-0.534,0.427-1.086,0.747-1.654,0.962s-1.152,0.323-1.75,0.323
			c-0.809,0-1.541-0.173-2.201-0.52c-0.66-0.346-1.158-0.846-1.495-1.5c-0.337-0.654-0.505-1.386-0.505-2.193
			c0-0.8,0.168-1.547,0.502-2.241c0.335-0.693,0.816-1.208,1.444-1.545s1.353-0.505,2.171-0.505c0.595,0,1.132,0.097,1.613,0.289
			c0.479,0.192,0.855,0.461,1.129,0.805c0.272,0.344,0.479,0.793,0.623,1.347l-0.981,0.269c-0.124-0.419-0.276-0.748-0.46-0.987
			c-0.184-0.239-0.445-0.431-0.785-0.574c-0.34-0.145-0.718-0.216-1.133-0.216c-0.498,0-0.928,0.075-1.291,0.227
			c-0.362,0.151-0.654,0.351-0.877,0.598s-0.396,0.518-0.52,0.813c-0.209,0.509-0.313,1.06-0.313,1.654
			c0,0.733,0.126,1.347,0.378,1.84c0.253,0.494,0.62,0.86,1.104,1.1c0.482,0.24,0.994,0.358,1.537,0.358
			c0.472,0,0.931-0.09,1.379-0.271c0.449-0.181,0.789-0.375,1.021-0.581v-1.531h-2.418V34.199z"/>
	</g>
	<line fill="none" stroke="#000000" stroke-width="0.459" x1="2643.901" y1="68.997" x2="2643.901" y2="45.997"/>
	<g enable-background="new    ">
		<path d="M2643.272,70.331c-0.459,1.23-1.496,2.22-2.244,2.581c-0.748,0.387-1.736,0.555-2.822,0.459
			c-0.65-0.049-1.832-0.266-2.315-1.038c-0.481-0.819-0.146-1.784,0.024-2.268c0.459-1.206,1.424-2.026,2.146-2.461
			c0.725-0.409,1.834-0.724,3.186-0.578c0.507,0.071,1.64,0.169,2.099,0.987C2643.73,68.69,2643.441,69.873,2643.272,70.331z
			 M2640.425,68.377c-0.556,0.266-0.94,0.508-1.423,0.771c-0.482,0.266-0.918,0.531-1.425,0.869
			c-0.698,0.434-1.616,1.229-1.157,2.025c0.481,0.797,1.616,0.41,2.363,0.024c0.557-0.267,0.989-0.507,1.473-0.772
			c0.482-0.265,0.893-0.507,1.398-0.845c0.675-0.435,1.592-1.229,1.134-2.026C2642.307,67.629,2641.172,68.014,2640.425,68.377z"/>
	</g>
	<g enable-background="new    ">
		<path d="M2689.526,53.455c0.579-0.055,1.048-0.138,1.544-0.66c0.469-0.47,0.717-0.855,1.158-1.353l0.386,0.221l-3.061,11.554
			h-1.104c0,0,1.049-3.281,1.519-4.551c1.157-3.226,1.487-5.128,1.487-5.128c-0.688,0.523-2.344,1.683-3.639,1.766
			c-2.896,0.165-3.529-4.055-0.524-4.798C2689.305,50.01,2689.884,52.325,2689.526,53.455z"/>
	</g>
	<line fill="none" stroke="#000000" stroke-width="0.459" x1="2702.5" y1="77.098" x2="2713.199" y2="77.098"/>
	<g enable-background="new    ">
		<path d="M2709.256,74.016c2.051,0.023,3.184,1.424,2.533,3.137c-0.629,1.736-2.8,3.111-4.825,3.088
			c-2.026-0.023-3.161-1.447-2.509-3.16C2705.082,75.367,2707.229,73.992,2709.256,74.016z"/>
	</g>
	<line fill="none" stroke="#000000" stroke-width="0.459" x1="2711.1" y1="75.897" x2="2711.1" y2="56.397"/>
	<line fill="none" stroke="#000000" stroke-width="0.459" x1="2721.5" y1="77.098" x2="2732.1" y2="77.098"/>
	<g enable-background="new    ">
		<path d="M2728.211,74.016c2.051,0.023,3.184,1.424,2.532,3.137c-0.628,1.736-2.799,3.111-4.825,3.088
			c-2.025-0.023-3.16-1.447-2.509-3.16C2724.037,75.367,2726.184,73.992,2728.211,74.016z"/>
	</g>
	<line fill="none" stroke="#000000" stroke-width="0.459" x1="2730.1" y1="75.897" x2="2730.1" y2="55.497"/>
	<g enable-background="new    ">
		<path d="M2747.164,70.569c2.052,0.024,3.185,1.424,2.533,3.137c-0.628,1.736-2.799,3.112-4.824,3.089
			c-2.026-0.024-3.161-1.447-2.51-3.16C2742.99,71.922,2745.137,70.547,2747.164,70.569z"/>
	</g>
	<line fill="none" stroke="#000000" stroke-width="0.459" x1="2749" y1="72.497" x2="2749" y2="54.697"/>
	<path d="M2710.799,54.697l38.602-1.7v3.5l-38.602,1.7V54.697z"/>
	<g enable-background="new    ">
		<path d="M2642.377,34.542l1.089,0.274c-0.229,0.894-0.64,1.575-1.231,2.045c-0.593,0.469-1.316,0.704-2.174,0.704
			c-0.886,0-1.607-0.181-2.162-0.542c-0.555-0.36-0.979-0.883-1.268-1.567c-0.291-0.685-0.436-1.419-0.436-2.204
			c0-0.856,0.163-1.604,0.491-2.241c0.325-0.638,0.792-1.122,1.396-1.453c0.604-0.33,1.269-0.496,1.994-0.496
			c0.822,0,1.514,0.21,2.074,0.628c0.562,0.419,0.951,1.008,1.173,1.768l-1.071,0.252c-0.189-0.598-0.467-1.034-0.83-1.307
			s-0.818-0.409-1.369-0.409c-0.631,0-1.159,0.151-1.584,0.454c-0.424,0.303-0.723,0.709-0.895,1.22
			c-0.172,0.511-0.258,1.037-0.258,1.579c0,0.699,0.102,1.31,0.305,1.831c0.205,0.521,0.521,0.912,0.951,1.17
			c0.43,0.258,0.896,0.387,1.396,0.387c0.609,0,1.126-0.176,1.55-0.527C2641.942,35.755,2642.229,35.233,2642.377,34.542z"/>
	</g>
	<line fill="none" stroke="#000000" stroke-width="0.459" x1="2775.401" y1="68.997" x2="2775.401" y2="45.997"/>
	<g enable-background="new    ">
		<path d="M2773.586,67.122c2.051,0.024,3.184,1.425,2.532,3.138c-0.628,1.735-2.799,3.111-4.825,3.088
			c-2.025-0.024-3.16-1.447-2.509-3.16C2769.412,68.473,2771.559,67.098,2773.586,67.122z"/>
	</g>
	<g enable-background="new    ">
		<path d="M2810.512,58.469c0.799,0,1.434,0.605,1.434,1.377c0,0.772-0.635,1.406-1.434,1.406c-0.801,0-1.435-0.634-1.435-1.406
			C2809.078,59.075,2809.711,58.469,2810.512,58.469z"/>
	</g>
	<line fill="none" stroke="#000000" stroke-width="0.459" x1="2805.6" y1="62.098" x2="2805.6" y2="39.098"/>
	<g enable-background="new    ">
		<path d="M2803.739,60.229c2.051,0.024,3.187,1.424,2.533,3.137c-0.627,1.736-2.798,3.112-4.824,3.088
			c-2.027-0.024-3.16-1.446-2.51-3.159C2799.566,61.581,2801.713,60.206,2803.739,60.229z"/>
	</g>
	<g enable-background="new    ">
		<path d="M2847.571,42.207c0.91,1.269,2.014,2.702,3.088,4.495c0.91,1.518,1.654,3.942,1.793,5.073
			c0.165,1.13,0.275,2.261,0.248,3.336c-0.027,1.653-0.304,3.228-0.854,4.688l-0.33-0.057c0.496-1.268,0.743-3.17,0.743-4.715
			c0-1.323-0.248-3.032-0.688-4.384c-0.854-2.454-2.205-3.86-3.033-4.411c-1.213-0.827-2.563-0.883-2.563-0.883h-0.387v-7.224h0.387
			C2845.971,39.477,2846.772,41.077,2847.571,42.207z"/>
	</g>
	<line fill="none" stroke="#000000" stroke-width="0.459" x1="2845.199" y1="62.098" x2="2845.199" y2="39.098"/>
	<g enable-background="new    ">
		<path d="M2843.371,60.229c2.052,0.024,3.187,1.424,2.533,3.137c-0.627,1.736-2.798,3.112-4.824,3.088s-3.159-1.446-2.51-3.159
			C2839.198,61.581,2841.346,60.206,2843.371,60.229z"/>
	</g>
	<g enable-background="new    ">
		<path d="M2862.039,63.676c2.052,0.024,3.185,1.424,2.533,3.138c-0.628,1.735-2.799,3.112-4.824,3.088
			c-2.026-0.024-3.161-1.447-2.51-3.16C2857.865,65.028,2860.012,63.653,2862.039,63.676z"/>
	</g>
	<line fill="none" stroke="#000000" stroke-width="0.459" x1="2863.901" y1="65.598" x2="2863.901" y2="47.798"/>
	<g enable-background="new    ">
		<path d="M2880.418,67.122c2.051,0.024,3.186,1.425,2.532,3.138c-0.627,1.735-2.798,3.111-4.823,3.088
			c-2.027-0.024-3.16-1.447-2.511-3.16C2876.246,68.473,2878.393,67.098,2880.418,67.122z"/>
	</g>
	<line fill="none" stroke="#000000" stroke-width="0.459" x1="2882.299" y1="68.997" x2="2882.299" y2="49.497"/>
	<path d="M2863.6,45.997l19,1.7v3.5l-19-1.7V45.997z"/>
	<g enable-background="new    ">
		<path d="M2761.393,24.213V15.99h3.084c0.629,0,1.133,0.083,1.512,0.249c0.38,0.167,0.678,0.423,0.894,0.769
			c0.215,0.346,0.321,0.708,0.321,1.086c0,0.352-0.096,0.682-0.285,0.992c-0.19,0.31-0.479,0.562-0.864,0.752
			c0.498,0.146,0.881,0.395,1.147,0.746c0.268,0.352,0.4,0.767,0.4,1.245c0,0.385-0.082,0.743-0.244,1.074s-0.363,0.586-0.604,0.766
			c-0.238,0.18-0.539,0.314-0.9,0.406c-0.359,0.092-0.803,0.138-1.326,0.138H2761.393z M2762.481,19.445h1.777
			c0.481,0,0.828-0.032,1.038-0.096c0.275-0.082,0.485-0.219,0.626-0.409c0.14-0.19,0.21-0.43,0.21-0.718
			c0-0.273-0.065-0.514-0.196-0.721c-0.131-0.208-0.318-0.35-0.561-0.427c-0.244-0.076-0.66-0.115-1.252-0.115h-1.644
			L2762.481,19.445L2762.481,19.445z M2762.481,23.242h2.047c0.353,0,0.6-0.013,0.74-0.039c0.251-0.045,0.461-0.119,0.629-0.225
			c0.168-0.104,0.307-0.257,0.415-0.457c0.108-0.2,0.163-0.431,0.163-0.692c0-0.307-0.079-0.573-0.236-0.8
			c-0.156-0.226-0.375-0.385-0.652-0.477c-0.278-0.092-0.681-0.138-1.203-0.138h-1.901L2762.481,23.242L2762.481,23.242z"/>
	</g>
	<g enable-background="new    ">
		<path d="M2775.346,34.542l1.088,0.274c-0.229,0.894-0.639,1.575-1.231,2.045c-0.593,0.469-1.316,0.704-2.173,0.704
			c-0.887,0-1.607-0.181-2.163-0.542c-0.556-0.36-0.978-0.883-1.269-1.567c-0.289-0.684-0.435-1.419-0.435-2.204
			c0-0.856,0.164-1.604,0.49-2.241c0.327-0.638,0.793-1.122,1.396-1.453c0.604-0.33,1.271-0.496,1.994-0.496
			c0.823,0,1.516,0.21,2.076,0.628c0.561,0.419,0.951,1.008,1.172,1.768l-1.071,0.252c-0.189-0.598-0.468-1.034-0.83-1.307
			s-0.819-0.409-1.368-0.409c-0.633,0-1.159,0.151-1.584,0.454c-0.426,0.303-0.724,0.709-0.896,1.22
			c-0.173,0.511-0.259,1.037-0.259,1.579c0,0.699,0.103,1.31,0.307,1.831c0.203,0.521,0.521,0.912,0.95,1.17
			c0.431,0.258,0.896,0.387,1.396,0.387c0.609,0,1.125-0.176,1.548-0.527C2774.91,35.755,2775.196,35.233,2775.346,34.542z"/>
	</g>
	<g enable-background="new    ">
		<path d="M2831.922,34.542l1.088,0.274c-0.229,0.894-0.639,1.575-1.231,2.045c-0.593,0.469-1.316,0.704-2.173,0.704
			c-0.887,0-1.607-0.181-2.163-0.542c-0.556-0.36-0.978-0.883-1.269-1.567c-0.289-0.684-0.435-1.419-0.435-2.204
			c0-0.856,0.164-1.604,0.49-2.241c0.327-0.638,0.793-1.122,1.396-1.453c0.604-0.33,1.271-0.496,1.994-0.496
			c0.823,0,1.516,0.21,2.076,0.628c0.561,0.419,0.951,1.008,1.172,1.768l-1.071,0.252c-0.189-0.598-0.468-1.034-0.83-1.307
			s-0.819-0.409-1.368-0.409c-0.633,0-1.159,0.151-1.584,0.454c-0.426,0.303-0.724,0.709-0.896,1.22
			c-0.173,0.511-0.259,1.037-0.259,1.579c0,0.699,0.103,1.31,0.307,1.831c0.203,0.521,0.521,0.912,0.95,1.17
			c0.431,0.258,0.896,0.387,1.396,0.387c0.609,0,1.125-0.176,1.548-0.527C2831.487,35.755,2831.772,35.233,2831.922,34.542z"/>
	</g>
	<g enable-background="new    ">
		<path d="M2835.422,30.993V30.12h4.79v0.707c-0.472,0.501-0.938,1.168-1.401,1.999c-0.462,0.831-0.82,1.686-1.072,2.564
			c-0.182,0.619-0.298,1.297-0.348,2.034h-0.935c0.011-0.582,0.124-1.285,0.343-2.11c0.219-0.824,0.533-1.619,0.941-2.385
			c0.409-0.766,0.845-1.411,1.306-1.937L2835.422,30.993L2835.422,30.993z"/>
	</g>
	<line fill="none" stroke="#000000" stroke-width="0.459" x1="2910.401" y1="75.897" x2="2910.401" y2="52.897"/>
	<line fill="none" stroke="#000000" stroke-width="0.459" x1="2901.799" y1="77.098" x2="2912.5" y2="77.098"/>
	<g enable-background="new    ">
		<path d="M2908.563,74.016c2.051,0.023,3.186,1.424,2.533,3.137c-0.627,1.736-2.799,3.111-4.824,3.088
			c-2.027-0.023-3.16-1.447-2.51-3.16C2904.39,75.367,2906.537,73.992,2908.563,74.016z"/>
	</g>
	<g enable-background="new    ">
		<path d="M2944.916,65.361c0.8,0,1.435,0.605,1.435,1.378s-0.635,1.406-1.435,1.406c-0.801,0-1.434-0.634-1.434-1.406
			C2943.483,65.969,2944.115,65.361,2944.916,65.361z"/>
	</g>
	<line fill="none" stroke="#000000" stroke-width="0.459" x1="2940" y1="65.598" x2="2940" y2="42.598"/>
	<g enable-background="new    ">
		<path d="M2938.143,63.676c2.051,0.024,3.186,1.424,2.533,3.138c-0.627,1.735-2.799,3.112-4.824,3.088
			c-2.027-0.024-3.16-1.447-2.51-3.16C2933.97,65.028,2936.117,63.653,2938.143,63.676z"/>
	</g>
	<g enable-background="new    ">
		<path d="M2981.4,49.098c0.91,1.269,2.013,2.702,3.089,4.495c0.909,1.517,1.654,3.941,1.791,5.072
			c0.166,1.13,0.276,2.261,0.248,3.337c-0.027,1.653-0.303,3.227-0.854,4.688l-0.332-0.057c0.497-1.268,0.745-3.17,0.745-4.715
			c0-1.322-0.248-3.031-0.689-4.384c-0.854-2.454-2.206-3.859-3.032-4.411c-1.214-0.826-2.563-0.883-2.563-0.883h-0.387v-7.223
			h0.387C2979.801,46.368,2980.6,47.969,2981.4,49.098z"/>
	</g>
	<line fill="none" stroke="#000000" stroke-width="0.459" x1="2979.1" y1="68.997" x2="2979.1" y2="45.997"/>
	<g enable-background="new    ">
		<path d="M2977.201,67.122c2.051,0.024,3.185,1.425,2.533,3.138c-0.628,1.735-2.799,3.111-4.825,3.088
			c-2.025-0.024-3.161-1.447-2.509-3.16C2973.028,68.473,2975.174,67.098,2977.201,67.122z"/>
	</g>
	<g enable-background="new    ">
		<path d="M2995.58,67.122c2.052,0.024,3.187,1.425,2.533,3.138c-0.627,1.735-2.798,3.111-4.824,3.088
			c-2.026-0.024-3.159-1.447-2.51-3.16C2991.407,68.473,2993.555,67.098,2995.58,67.122z"/>
	</g>
	<line fill="none" stroke="#000000" stroke-width="0.459" x1="2997.401" y1="68.997" x2="2997.401" y2="49.497"/>
	<g enable-background="new    ">
		<path d="M3013.674,70.569c2.051,0.024,3.184,1.424,2.533,3.137c-0.629,1.736-2.8,3.112-4.825,3.089
			c-2.026-0.024-3.161-1.447-2.509-3.16C3009.5,71.922,3011.647,70.547,3013.674,70.569z"/>
	</g>
	<line fill="none" stroke="#000000" stroke-width="0.459" x1="3015.5" y1="72.497" x2="3015.5" y2="51.197"/>
	<path d="M2997.1,47.798l18.801,1.699v3.5l-18.801-1.699V47.798z"/>
	<g enable-background="new    ">
		<path d="M2904.512,37.425v-8.223h5.547v0.97h-4.459v2.547h3.859v0.971h-3.859v3.735H2904.512z"/>
	</g>
	<g enable-background="new    ">
		<path d="M2960.227,37.425v-8.223h5.547v0.97h-4.459v2.547h3.859v0.971h-3.859v3.735H2960.227z"/>
	</g>
	<g enable-background="new    ">
		<path d="M2968.293,37.425v-5.361h0.812v0.752c0.168-0.262,0.394-0.474,0.672-0.633c0.279-0.16,0.599-0.24,0.953-0.24
			c0.397,0,0.723,0.083,0.978,0.247c0.254,0.165,0.434,0.396,0.539,0.692c0.424-0.626,0.976-0.939,1.654-0.939
			c0.532,0,0.94,0.147,1.228,0.441c0.286,0.295,0.429,0.748,0.429,1.361v3.68h-0.903v-3.377c0-0.363-0.028-0.625-0.088-0.785
			c-0.06-0.16-0.166-0.289-0.321-0.387c-0.153-0.097-0.336-0.146-0.545-0.146c-0.377,0-0.688,0.125-0.938,0.376
			c-0.248,0.25-0.373,0.651-0.373,1.204v3.114h-0.908v-3.483c0-0.403-0.073-0.707-0.223-0.908c-0.147-0.202-0.392-0.303-0.728-0.303
			c-0.256,0-0.491,0.066-0.709,0.201c-0.217,0.135-0.375,0.332-0.473,0.591c-0.098,0.26-0.146,0.633-0.146,1.121v2.781
			L2968.293,37.425L2968.293,37.425z"/>
	</g>
	<line fill="none" stroke="#000000" stroke-width="0.459" x1="3041.401" y1="72.497" x2="3041.401" y2="49.497"/>
	<g enable-background="new    ">
		<path d="M3039.52,70.569c2.051,0.024,3.186,1.424,2.533,3.137c-0.627,1.736-2.799,3.112-4.824,3.089
			c-2.027-0.024-3.16-1.447-2.51-3.16C3035.347,71.922,3037.494,70.547,3039.52,70.569z"/>
	</g>
	<g enable-background="new    ">
		<path d="M3076.448,65.361c0.801,0,1.435,0.605,1.435,1.378s-0.634,1.406-1.435,1.406c-0.799,0-1.434-0.634-1.434-1.406
			C3075.014,65.969,3075.649,65.361,3076.448,65.361z"/>
	</g>
	<line fill="none" stroke="#000000" stroke-width="0.459" x1="3071.5" y1="68.997" x2="3071.5" y2="45.997"/>
	<g enable-background="new    ">
		<path d="M3069.676,67.122c2.051,0.024,3.184,1.425,2.533,3.138c-0.629,1.735-2.8,3.111-4.825,3.088
			c-2.026-0.024-3.161-1.447-2.509-3.16C3065.502,68.473,3067.649,67.098,3069.676,67.122z"/>
	</g>
	<g enable-background="new    ">
		<path d="M3113.506,52.546c0.91,1.269,2.013,2.701,3.088,4.494c0.91,1.517,1.654,3.942,1.793,5.073
			c0.165,1.13,0.274,2.261,0.248,3.336c-0.027,1.654-0.305,3.227-0.855,4.688l-0.33-0.056c0.496-1.268,0.744-3.17,0.744-4.715
			c0-1.323-0.248-3.032-0.689-4.384c-0.854-2.454-2.205-3.86-3.032-4.411c-1.213-0.827-2.564-0.883-2.564-0.883h-0.386v-7.224h0.386
			C3111.906,49.815,3112.707,51.415,3113.506,52.546z"/>
	</g>
	<line fill="none" stroke="#000000" stroke-width="0.459" x1="3111.199" y1="72.497" x2="3111.199" y2="49.497"/>
	<g enable-background="new    ">
		<path d="M3109.307,70.569c2.051,0.024,3.186,1.424,2.533,3.137c-0.627,1.736-2.799,3.112-4.824,3.089
			c-2.027-0.024-3.16-1.447-2.51-3.16C3105.134,71.922,3107.281,70.547,3109.307,70.569z"/>
	</g>
	<g enable-background="new    ">
		<path d="M3127.975,70.569c2.051,0.024,3.184,1.424,2.533,3.137c-0.628,1.736-2.799,3.112-4.825,3.089
			c-2.026-0.024-3.161-1.447-2.509-3.16C3123.801,71.922,3125.948,70.547,3127.975,70.569z"/>
	</g>
	<line fill="none" stroke="#000000" stroke-width="0.459" x1="3129.799" y1="72.497" x2="3129.799" y2="54.697"/>
	<line fill="none" stroke="#000000" stroke-width="0.459" x1="3139.6" y1="77.098" x2="3150.299" y2="77.098"/>
	<g enable-background="new    ">
		<path d="M3146.354,74.016c2.051,0.023,3.186,1.424,2.533,3.137c-0.627,1.736-2.799,3.111-4.824,3.088
			c-2.027-0.023-3.16-1.447-2.51-3.16C3142.181,75.367,3144.328,73.992,3146.354,74.016z"/>
	</g>
	<line fill="none" stroke="#000000" stroke-width="0.459" x1="3148.199" y1="75.897" x2="3148.199" y2="56.397"/>
	<path d="M3129.5,52.897l19,1.7v3.5l-19-1.7V52.897z"/>
	<g enable-background="new    ">
		<path d="M3039.26,34.199v-0.965l3.483-0.005v3.051c-0.534,0.427-1.087,0.747-1.655,0.962c-0.567,0.215-1.15,0.323-1.75,0.323
			c-0.808,0-1.541-0.173-2.201-0.52c-0.659-0.346-1.158-0.846-1.494-1.5c-0.336-0.654-0.505-1.386-0.505-2.193
			c0-0.8,0.167-1.547,0.502-2.241c0.335-0.693,0.815-1.208,1.444-1.545s1.352-0.505,2.171-0.505c0.595,0,1.132,0.097,1.612,0.289
			c0.479,0.192,0.856,0.461,1.131,0.805c0.271,0.344,0.479,0.793,0.622,1.347l-0.981,0.269c-0.123-0.419-0.277-0.748-0.46-0.987
			c-0.183-0.239-0.444-0.431-0.784-0.574c-0.342-0.145-0.719-0.216-1.135-0.216c-0.496,0-0.927,0.075-1.289,0.227
			c-0.363,0.151-0.656,0.351-0.878,0.598c-0.223,0.247-0.396,0.518-0.519,0.813c-0.21,0.509-0.314,1.06-0.314,1.654
			c0,0.733,0.126,1.347,0.379,1.84c0.252,0.494,0.619,0.86,1.103,1.1c0.483,0.24,0.993,0.358,1.537,0.358
			c0.471,0,0.932-0.09,1.38-0.271c0.447-0.181,0.789-0.375,1.021-0.581v-1.531h-2.419V34.199z"/>
	</g>
	<line fill="none" stroke="#000000" stroke-width="0.459" x1="3177.799" y1="75.897" x2="3177.799" y2="52.897"/>
	<line fill="none" stroke="#000000" stroke-width="0.459" x1="3167.799" y1="77.098" x2="3179.799" y2="77.098"/>
	<g enable-background="new    ">
		<path d="M3177.153,77.225c-0.459,1.229-1.496,2.22-2.244,2.58c-0.748,0.387-1.735,0.556-2.821,0.459
			c-0.651-0.049-1.833-0.266-2.316-1.037c-0.481-0.82-0.145-1.785,0.025-2.269c0.458-1.206,1.423-2.026,2.146-2.461
			c0.725-0.409,1.834-0.724,3.186-0.577c0.507,0.071,1.64,0.168,2.099,0.987C3177.611,75.584,3177.322,76.766,3177.153,77.225z
			 M3174.306,75.271c-0.556,0.266-0.94,0.507-1.423,0.771c-0.482,0.266-0.918,0.531-1.425,0.869
			c-0.698,0.434-1.616,1.23-1.157,2.026c0.481,0.796,1.616,0.409,2.363,0.024c0.557-0.267,0.989-0.508,1.473-0.772
			c0.482-0.265,0.893-0.507,1.398-0.845c0.675-0.435,1.592-1.229,1.134-2.026C3176.188,74.522,3175.053,74.908,3174.306,75.271z"/>
	</g>
	<g enable-background="new    ">
		<path d="M3222.545,53.455c0.578-0.055,1.048-0.138,1.543-0.66c0.47-0.47,0.718-0.855,1.158-1.353l0.387,0.221l-3.062,11.554
			h-1.104c0,0,1.05-3.281,1.519-4.551c1.158-3.226,1.488-5.128,1.488-5.128c-0.689,0.523-2.345,1.683-3.64,1.766
			c-2.896,0.165-3.528-4.055-0.523-4.798C3222.324,50.01,3222.904,52.325,3222.545,53.455z"/>
	</g>
	<line fill="none" stroke="#000000" stroke-width="0.459" x1="3235.299" y1="77.098" x2="3245.901" y2="77.098"/>
	<g enable-background="new    ">
		<path d="M3241.987,74.016c2.051,0.023,3.187,1.424,2.533,3.137c-0.627,1.736-2.798,3.111-4.824,3.088
			c-2.027-0.023-3.16-1.447-2.51-3.16C3237.814,75.367,3239.961,73.992,3241.987,74.016z"/>
	</g>
	<line fill="none" stroke="#000000" stroke-width="0.459" x1="3243.799" y1="75.897" x2="3243.799" y2="56.397"/>
	<line fill="none" stroke="#000000" stroke-width="0.459" x1="3253.901" y1="77.098" x2="3264.6" y2="77.098"/>
	<g enable-background="new    ">
		<path d="M3260.655,74.016c2.051,0.023,3.187,1.424,2.533,3.137c-0.627,1.736-2.798,3.111-4.824,3.088
			c-2.027-0.023-3.16-1.447-2.51-3.16C3256.482,75.367,3258.629,73.992,3260.655,74.016z"/>
	</g>
	<line fill="none" stroke="#000000" stroke-width="0.459" x1="3262.5" y1="75.897" x2="3262.5" y2="55.497"/>
	<g enable-background="new    ">
		<path d="M3279.321,70.569c2.051,0.024,3.187,1.424,2.533,3.137c-0.627,1.736-2.798,3.112-4.824,3.089
			c-2.027-0.024-3.16-1.447-2.51-3.16C3275.148,71.922,3277.295,70.547,3279.321,70.569z"/>
	</g>
	<line fill="none" stroke="#000000" stroke-width="0.459" x1="3281.199" y1="72.497" x2="3281.199" y2="54.697"/>
	<path d="M3243.5,54.697l38-1.7v3.5l-38,1.7V54.697z"/>
	<g enable-background="new    ">
		<path d="M3166.207,20.181l1.088,0.274c-0.229,0.894-0.639,1.575-1.23,2.045c-0.593,0.469-1.316,0.704-2.173,0.704
			c-0.888,0-1.607-0.181-2.163-0.542c-0.557-0.36-0.979-0.883-1.269-1.567s-0.435-1.419-0.435-2.204c0-0.856,0.164-1.604,0.49-2.241
			c0.327-0.638,0.793-1.122,1.396-1.453c0.604-0.33,1.271-0.496,1.994-0.496c0.823,0,1.516,0.21,2.075,0.628
			c0.562,0.419,0.951,1.008,1.173,1.768l-1.071,0.252c-0.189-0.598-0.468-1.034-0.83-1.307c-0.362-0.273-0.819-0.409-1.368-0.409
			c-0.633,0-1.159,0.151-1.585,0.454c-0.425,0.303-0.723,0.709-0.895,1.22c-0.174,0.511-0.26,1.037-0.26,1.579
			c0,0.699,0.104,1.31,0.308,1.831c0.202,0.521,0.521,0.912,0.95,1.17c0.431,0.258,0.896,0.387,1.396,0.387
			c0.609,0,1.125-0.176,1.547-0.527C3165.772,21.394,3166.057,20.873,3166.207,20.181z"/>
	</g>
	<g enable-background="new    ">
		<path d="M3179.703,34.542l1.09,0.274c-0.229,0.894-0.639,1.575-1.231,2.045c-0.593,0.469-1.316,0.704-2.174,0.704
			c-0.886,0-1.606-0.181-2.162-0.542c-0.555-0.36-0.979-0.883-1.269-1.567c-0.289-0.685-0.435-1.419-0.435-2.204
			c0-0.856,0.163-1.604,0.491-2.241c0.326-0.638,0.792-1.122,1.396-1.453c0.604-0.33,1.269-0.496,1.994-0.496
			c0.822,0,1.514,0.21,2.074,0.628c0.562,0.419,0.952,1.008,1.173,1.768l-1.071,0.252c-0.189-0.598-0.467-1.034-0.83-1.307
			c-0.362-0.273-0.817-0.409-1.368-0.409c-0.632,0-1.16,0.151-1.584,0.454c-0.425,0.303-0.724,0.709-0.896,1.22
			c-0.172,0.511-0.258,1.037-0.258,1.579c0,0.699,0.102,1.31,0.305,1.831c0.205,0.521,0.521,0.912,0.951,1.17
			c0.43,0.258,0.896,0.387,1.396,0.387c0.609,0,1.126-0.176,1.549-0.527C3179.268,35.755,3179.555,35.233,3179.703,34.542z"/>
	</g>
	<line fill="none" stroke="#000000" stroke-width="0.459" x1="3307.299" y1="68.997" x2="3307.299" y2="45.997"/>
	<g enable-background="new    ">
		<path d="M3305.455,67.122c2.052,0.024,3.187,1.425,2.533,3.138c-0.627,1.735-2.798,3.111-4.824,3.088
			c-2.026-0.024-3.159-1.447-2.51-3.16C3301.282,68.473,3303.43,67.098,3305.455,67.122z"/>
	</g>
	<g enable-background="new    ">
		<path d="M3342.381,58.469c0.8,0,1.434,0.605,1.434,1.377c0,0.772-0.634,1.406-1.434,1.406c-0.799,0-1.435-0.634-1.435-1.406
			C3340.948,59.075,3341.582,58.469,3342.381,58.469z"/>
	</g>
	<line fill="none" stroke="#000000" stroke-width="0.459" x1="3337.5" y1="62.098" x2="3337.5" y2="39.098"/>
	<g enable-background="new    ">
		<path d="M3335.61,60.229c2.051,0.024,3.187,1.424,2.533,3.137c-0.627,1.736-2.798,3.112-4.824,3.088
			c-2.027-0.024-3.16-1.446-2.51-3.159C3331.437,61.581,3333.584,60.206,3335.61,60.229z"/>
	</g>
	<g enable-background="new    ">
		<path d="M3379.44,42.207c0.91,1.269,2.013,2.702,3.088,4.495c0.91,1.518,1.654,3.942,1.793,5.073
			c0.165,1.13,0.275,2.261,0.248,3.336c-0.027,1.653-0.304,3.228-0.855,4.688l-0.33-0.057c0.496-1.268,0.744-3.17,0.744-4.715
			c0-1.323-0.248-3.032-0.688-4.384c-0.854-2.454-2.205-3.86-3.033-4.411c-1.213-0.827-2.563-0.883-2.563-0.883h-0.387v-7.224h0.387
			C3377.84,39.477,3378.641,41.077,3379.44,42.207z"/>
	</g>
	<line fill="none" stroke="#000000" stroke-width="0.459" x1="3377.1" y1="62.098" x2="3377.1" y2="39.098"/>
	<g enable-background="new    ">
		<path d="M3375.242,60.229c2.051,0.024,3.185,1.424,2.533,3.137c-0.628,1.736-2.799,3.112-4.825,3.088
			c-2.025-0.024-3.161-1.446-2.509-3.159C3371.069,61.581,3373.215,60.206,3375.242,60.229z"/>
	</g>
	<g enable-background="new    ">
		<path d="M3393.908,63.676c2.051,0.024,3.187,1.424,2.533,3.138c-0.627,1.735-2.798,3.112-4.824,3.088
			c-2.027-0.024-3.16-1.447-2.51-3.16C3389.736,65.028,3391.883,63.653,3393.908,63.676z"/>
	</g>
	<line fill="none" stroke="#000000" stroke-width="0.459" x1="3395.799" y1="65.598" x2="3395.799" y2="47.798"/>
	<g enable-background="new    ">
		<path d="M3412.289,67.122c2.052,0.024,3.187,1.425,2.533,3.138c-0.627,1.735-2.798,3.111-4.824,3.088
			c-2.026-0.024-3.159-1.447-2.51-3.16C3408.116,68.473,3410.264,67.098,3412.289,67.122z"/>
	</g>
	<line fill="none" stroke="#000000" stroke-width="0.459" x1="3414.1" y1="68.997" x2="3414.1" y2="49.497"/>
	<path d="M3395.401,45.997l19,1.7v3.5l-19-1.7V45.997z"/>
	<g enable-background="new    ">
		<path d="M3293.262,23.064v-8.222h3.086c0.628,0,1.132,0.083,1.512,0.249c0.379,0.167,0.676,0.423,0.893,0.769
			c0.215,0.346,0.321,0.708,0.321,1.086c0,0.352-0.095,0.682-0.286,0.992c-0.189,0.311-0.479,0.562-0.862,0.752
			c0.497,0.146,0.879,0.395,1.146,0.746c0.268,0.351,0.401,0.767,0.401,1.245c0,0.385-0.081,0.743-0.244,1.074
			s-0.364,0.586-0.603,0.766c-0.24,0.18-0.541,0.314-0.9,0.406c-0.361,0.092-0.803,0.138-1.326,0.138L3293.262,23.064
			L3293.262,23.064z M3294.351,18.297h1.778c0.481,0,0.828-0.032,1.037-0.096c0.277-0.082,0.484-0.219,0.625-0.409
			c0.141-0.19,0.211-0.43,0.211-0.718c0-0.273-0.065-0.514-0.196-0.721c-0.131-0.208-0.317-0.35-0.562-0.427
			c-0.242-0.076-0.66-0.115-1.25-0.115h-1.645L3294.351,18.297L3294.351,18.297z M3294.351,22.094h2.048
			c0.352,0,0.598-0.013,0.74-0.039c0.25-0.045,0.459-0.119,0.628-0.225c0.168-0.104,0.306-0.257,0.415-0.457
			c0.107-0.2,0.162-0.431,0.162-0.692c0-0.307-0.078-0.573-0.235-0.8c-0.157-0.226-0.375-0.385-0.653-0.477s-0.68-0.138-1.202-0.138
			h-1.901L3294.351,22.094L3294.351,22.094z"/>
	</g>
	<g enable-background="new    ">
		<path d="M3307.215,34.542l1.089,0.274c-0.229,0.894-0.639,1.575-1.231,2.045c-0.593,0.469-1.316,0.704-2.174,0.704
			c-0.886,0-1.606-0.181-2.162-0.542c-0.555-0.36-0.979-0.883-1.268-1.567c-0.29-0.685-0.436-1.419-0.436-2.204
			c0-0.856,0.163-1.604,0.491-2.241c0.326-0.638,0.792-1.122,1.396-1.453c0.604-0.33,1.269-0.496,1.994-0.496
			c0.822,0,1.514,0.21,2.074,0.628c0.563,0.419,0.952,1.008,1.173,1.768l-1.071,0.252c-0.189-0.598-0.467-1.034-0.83-1.307
			c-0.362-0.273-0.817-0.409-1.368-0.409c-0.632,0-1.16,0.151-1.584,0.454c-0.425,0.303-0.724,0.709-0.896,1.22
			c-0.172,0.511-0.258,1.037-0.258,1.579c0,0.699,0.102,1.31,0.305,1.831c0.205,0.521,0.521,0.912,0.951,1.17
			c0.43,0.258,0.896,0.387,1.396,0.387c0.608,0,1.125-0.176,1.549-0.527C3306.78,35.755,3307.067,35.233,3307.215,34.542z"/>
	</g>
	<g enable-background="new    ">
		<path d="M3363.791,34.542l1.09,0.274c-0.229,0.894-0.639,1.575-1.231,2.045c-0.593,0.469-1.316,0.704-2.174,0.704
			c-0.886,0-1.606-0.181-2.162-0.542c-0.555-0.36-0.979-0.883-1.269-1.567c-0.289-0.685-0.435-1.419-0.435-2.204
			c0-0.856,0.163-1.604,0.491-2.241c0.326-0.638,0.792-1.122,1.396-1.453c0.604-0.33,1.269-0.496,1.994-0.496
			c0.822,0,1.514,0.21,2.074,0.628c0.562,0.419,0.952,1.008,1.173,1.768l-1.071,0.252c-0.189-0.598-0.467-1.034-0.83-1.307
			c-0.362-0.273-0.817-0.409-1.368-0.409c-0.632,0-1.16,0.151-1.584,0.454c-0.425,0.303-0.724,0.709-0.896,1.22
			c-0.172,0.511-0.258,1.037-0.258,1.579c0,0.699,0.102,1.31,0.305,1.831c0.205,0.521,0.521,0.912,0.951,1.17
			c0.43,0.258,0.896,0.387,1.396,0.387c0.609,0,1.126-0.176,1.549-0.527C3363.356,35.755,3363.643,35.233,3363.791,34.542z"/>
	</g>
	<g enable-background="new    ">
		<path d="M3367.291,30.993V30.12h4.791v0.707c-0.471,0.501-0.938,1.168-1.399,1.999s-0.82,1.686-1.073,2.564
			c-0.182,0.619-0.298,1.297-0.349,2.034h-0.935c0.01-0.582,0.125-1.285,0.344-2.11c0.22-0.824,0.532-1.619,0.941-2.385
			c0.408-0.766,0.844-1.411,1.305-1.937L3367.291,30.993L3367.291,30.993z"/>
	</g>
	<line fill="none" stroke="#000000" stroke-width="0.459" x1="3442.299" y1="75.897" x2="3442.299" y2="52.897"/>
	<line fill="none" stroke="#000000" stroke-width="0.459" x1="3433.699" y1="77.098" x2="3444.299" y2="77.098"/>
	<g enable-background="new    ">
		<path d="M3440.434,74.016c2.051,0.023,3.186,1.424,2.533,3.137c-0.627,1.736-2.799,3.111-4.824,3.088
			c-2.027-0.023-3.16-1.447-2.51-3.16C3436.261,75.367,3438.408,73.992,3440.434,74.016z"/>
	</g>
	<g enable-background="new    ">
		<path d="M3476.785,65.361c0.801,0,1.435,0.605,1.435,1.378s-0.634,1.406-1.435,1.406c-0.799,0-1.434-0.634-1.434-1.406
			C3475.352,65.969,3475.987,65.361,3476.785,65.361z"/>
	</g>
	<line fill="none" stroke="#000000" stroke-width="0.459" x1="3471.901" y1="65.598" x2="3471.901" y2="42.598"/>
	<g enable-background="new    ">
		<path d="M3470.014,63.676c2.051,0.024,3.184,1.424,2.533,3.138c-0.629,1.735-2.8,3.112-4.825,3.088
			c-2.026-0.024-3.161-1.447-2.509-3.16C3465.84,65.028,3467.987,63.653,3470.014,63.676z"/>
	</g>
	<g enable-background="new    ">
		<path d="M3513.27,49.098c0.91,1.269,2.013,2.702,3.088,4.495c0.91,1.517,1.654,3.941,1.793,5.072
			c0.165,1.13,0.275,2.261,0.248,3.337c-0.027,1.653-0.304,3.227-0.855,4.688l-0.33-0.057c0.496-1.268,0.744-3.17,0.744-4.715
			c0-1.322-0.248-3.031-0.688-4.384c-0.854-2.454-2.205-3.859-3.033-4.411c-1.213-0.826-2.563-0.883-2.563-0.883h-0.387v-7.223
			h0.387C3511.67,46.368,3512.471,47.969,3513.27,49.098z"/>
	</g>
	<line fill="none" stroke="#000000" stroke-width="0.459" x1="3510.901" y1="68.997" x2="3510.901" y2="45.997"/>
	<g enable-background="new    ">
		<path d="M3509.071,67.122c2.051,0.024,3.187,1.425,2.533,3.138c-0.627,1.735-2.798,3.111-4.824,3.088
			c-2.027-0.024-3.16-1.447-2.51-3.16C3504.898,68.473,3507.045,67.098,3509.071,67.122z"/>
	</g>
	<g enable-background="new    ">
		<path d="M3527.451,67.122c2.051,0.024,3.185,1.425,2.533,3.138c-0.628,1.735-2.799,3.111-4.825,3.088
			c-2.025-0.024-3.161-1.447-2.509-3.16C3523.278,68.473,3525.424,67.098,3527.451,67.122z"/>
	</g>
	<line fill="none" stroke="#000000" stroke-width="0.459" x1="3529.299" y1="68.997" x2="3529.299" y2="49.497"/>
	<g enable-background="new    ">
		<path d="M3545.545,70.569c2.051,0.024,3.184,1.424,2.532,3.137c-0.628,1.736-2.799,3.112-4.825,3.089
			c-2.025-0.024-3.16-1.447-2.509-3.16C3541.371,71.922,3543.518,70.547,3545.545,70.569z"/>
	</g>
	<line fill="none" stroke="#000000" stroke-width="0.459" x1="3547.401" y1="72.497" x2="3547.401" y2="51.197"/>
	<path d="M3529,47.798l18.799,1.699v3.5l-18.799-1.8V47.798z"/>
	<g enable-background="new    ">
		<path d="M3436.383,37.425v-8.223h5.547v0.97h-4.459v2.547h3.859v0.971h-3.859v3.735H3436.383z"/>
	</g>
	<g enable-background="new    ">
		<path d="M3492.097,37.425v-8.223h5.548v0.97h-4.46v2.547h3.858v0.971h-3.858v3.735H3492.097z"/>
	</g>
	<g enable-background="new    ">
		<path d="M3500.164,37.425v-5.361h0.812v0.752c0.169-0.262,0.392-0.474,0.671-0.633c0.279-0.16,0.598-0.24,0.955-0.24
			c0.396,0,0.723,0.083,0.977,0.247c0.254,0.165,0.435,0.396,0.537,0.692c0.425-0.626,0.978-0.939,1.656-0.939
			c0.531,0,0.94,0.147,1.228,0.441c0.286,0.295,0.43,0.748,0.43,1.361v3.68h-0.904v-3.377c0-0.363-0.028-0.625-0.088-0.785
			c-0.059-0.16-0.166-0.289-0.319-0.387c-0.155-0.097-0.338-0.146-0.547-0.146c-0.377,0-0.689,0.125-0.938,0.376
			c-0.25,0.25-0.374,0.651-0.374,1.204v3.114h-0.909v-3.483c0-0.403-0.072-0.707-0.221-0.908c-0.148-0.202-0.391-0.303-0.729-0.303
			c-0.256,0-0.491,0.066-0.709,0.201c-0.218,0.135-0.375,0.332-0.472,0.591c-0.098,0.26-0.146,0.633-0.146,1.121v2.781
			L3500.164,37.425L3500.164,37.425z"/>
	</g>
	<line fill="none" stroke="#000000" stroke-width="0.459" x1="3573.199" y1="72.497" x2="3573.199" y2="49.497"/>
	<g enable-background="new    ">
		<path d="M3571.391,70.569c2.051,0.024,3.184,1.424,2.533,3.137c-0.628,1.736-2.799,3.112-4.825,3.089
			c-2.026-0.024-3.161-1.447-2.509-3.16C3567.217,71.922,3569.364,70.547,3571.391,70.569z"/>
	</g>
	<g enable-background="new    ">
		<path d="M3608.319,65.361c0.799,0,1.435,0.605,1.435,1.378s-0.636,1.406-1.435,1.406c-0.801,0-1.434-0.634-1.434-1.406
			C3606.885,65.969,3607.518,65.361,3608.319,65.361z"/>
	</g>
	<line fill="none" stroke="#000000" stroke-width="0.459" x1="3603.401" y1="68.997" x2="3603.401" y2="45.997"/>
	<g enable-background="new    ">
		<path d="M3601.545,67.122c2.051,0.024,3.186,1.425,2.532,3.138c-0.627,1.735-2.798,3.111-4.823,3.088
			c-2.027-0.024-3.16-1.447-2.511-3.16C3597.373,68.473,3599.52,67.098,3601.545,67.122z"/>
	</g>
	<g enable-background="new    ">
		<path d="M3645.375,52.546c0.91,1.269,2.014,2.701,3.09,4.494c0.908,1.517,1.654,3.942,1.791,5.073
			c0.166,1.13,0.275,2.261,0.248,3.336c-0.027,1.654-0.303,3.227-0.854,4.688l-0.332-0.056c0.497-1.268,0.745-3.17,0.745-4.715
			c0-1.323-0.248-3.032-0.688-4.384c-0.854-2.454-2.206-3.86-3.032-4.411c-1.214-0.827-2.564-0.883-2.564-0.883h-0.387v-7.224h0.387
			C3643.778,49.815,3644.576,51.415,3645.375,52.546z"/>
	</g>
	<line fill="none" stroke="#000000" stroke-width="0.459" x1="3643" y1="72.497" x2="3643" y2="49.497"/>
	<g enable-background="new    ">
		<path d="M3641.178,70.569c2.051,0.024,3.184,1.424,2.533,3.137c-0.629,1.736-2.8,3.112-4.825,3.089
			c-2.026-0.024-3.161-1.447-2.509-3.16C3637.004,71.922,3639.151,70.547,3641.178,70.569z"/>
	</g>
	<g enable-background="new    ">
		<path d="M3659.844,70.569c2.051,0.024,3.186,1.424,2.533,3.137c-0.627,1.736-2.799,3.112-4.824,3.089
			c-2.027-0.024-3.16-1.447-2.51-3.16C3655.67,71.922,3657.819,70.547,3659.844,70.569z"/>
	</g>
	<line fill="none" stroke="#000000" stroke-width="0.459" x1="3661.699" y1="72.497" x2="3661.699" y2="54.697"/>
	<line fill="none" stroke="#000000" stroke-width="0.459" x1="3671.5" y1="77.098" x2="3682.1" y2="77.098"/>
	<g enable-background="new    ">
		<path d="M3678.223,74.016c2.051,0.023,3.186,1.424,2.533,3.137c-0.627,1.736-2.799,3.111-4.824,3.088
			c-2.027-0.023-3.16-1.447-2.51-3.16C3674.05,75.367,3676.198,73.992,3678.223,74.016z"/>
	</g>
	<line fill="none" stroke="#000000" stroke-width="0.459" x1="3680.1" y1="75.897" x2="3680.1" y2="56.397"/>
	<path d="M3661.401,52.897l19,1.7v3.5l-19-1.7V52.897z"/>
	<g enable-background="new    ">
		<path d="M3571.131,34.199v-0.965l3.481-0.005v3.051c-0.534,0.427-1.086,0.747-1.653,0.962c-0.568,0.215-1.152,0.323-1.75,0.323
			c-0.809,0-1.541-0.173-2.201-0.52c-0.66-0.346-1.158-0.846-1.495-1.5c-0.337-0.654-0.505-1.386-0.505-2.193
			c0-0.8,0.168-1.547,0.502-2.241c0.335-0.693,0.815-1.208,1.443-1.545c0.629-0.337,1.354-0.505,2.172-0.505
			c0.595,0,1.132,0.097,1.612,0.289s0.856,0.461,1.129,0.805c0.273,0.344,0.48,0.793,0.623,1.347l-0.98,0.269
			c-0.124-0.419-0.276-0.748-0.46-0.987c-0.185-0.239-0.445-0.431-0.785-0.574c-0.34-0.145-0.718-0.216-1.133-0.216
			c-0.498,0-0.928,0.075-1.291,0.227c-0.362,0.151-0.654,0.351-0.877,0.598s-0.396,0.518-0.521,0.813
			c-0.209,0.509-0.313,1.06-0.313,1.654c0,0.733,0.126,1.347,0.378,1.84c0.253,0.494,0.62,0.86,1.103,1.1
			c0.483,0.24,0.995,0.358,1.537,0.358c0.472,0,0.931-0.09,1.38-0.271c0.449-0.181,0.789-0.375,1.021-0.581v-1.531h-2.418V34.199z"
			/>
	</g>
	<line fill="none" stroke="#000000" stroke-width="0.459" x1="3708.199" y1="75.897" x2="3708.199" y2="52.897"/>
	<line fill="none" stroke="#000000" stroke-width="0.459" x1="3699.699" y1="77.098" x2="3710.299" y2="77.098"/>
	<g enable-background="new    ">
		<path d="M3706.369,74.016c2.052,0.023,3.185,1.424,2.533,3.137c-0.628,1.736-2.799,3.111-4.824,3.088
			c-2.026-0.023-3.161-1.447-2.51-3.16C3702.196,75.367,3704.342,73.992,3706.369,74.016z"/>
	</g>
	<g enable-background="new    ">
		<path d="M3749.487,52.849v3.529h-8.768v-3.529H3749.487z"/>
	</g>
	<line fill="none" stroke="#000000" stroke-width="0.459" x1="3739.901" y1="56.397" x2="3750.199" y2="56.397"/>
	<g enable-background="new    ">
		<path d="M3753.922,51.576c0.799,0,1.434,0.606,1.434,1.378c0,0.772-0.635,1.406-1.434,1.406c-0.801,0-1.435-0.634-1.435-1.406
			C3752.489,52.183,3753.121,51.576,3753.922,51.576z"/>
	</g>
	<g enable-background="new    ">
		<path d="M3692.209,25.363V17.14h2.832c0.641,0,1.129,0.039,1.465,0.117c0.471,0.108,0.873,0.305,1.206,0.589
			c0.435,0.367,0.759,0.835,0.974,1.405c0.215,0.57,0.322,1.222,0.322,1.955c0,0.624-0.072,1.178-0.219,1.66
			c-0.147,0.482-0.333,0.882-0.562,1.197c-0.229,0.316-0.479,0.565-0.749,0.746c-0.271,0.182-0.599,0.319-0.98,0.412
			c-0.385,0.094-0.824,0.141-1.321,0.141L3692.209,25.363L3692.209,25.363z M3693.298,24.392h1.755c0.543,0,0.969-0.05,1.277-0.151
			c0.308-0.101,0.554-0.243,0.735-0.426c0.259-0.258,0.459-0.605,0.604-1.041c0.145-0.436,0.216-0.964,0.216-1.584
			c0-0.86-0.142-1.521-0.423-1.983c-0.283-0.462-0.626-0.771-1.029-0.928c-0.292-0.112-0.762-0.169-1.408-0.169h-1.728V24.392z"/>
	</g>
	<g enable-background="new    ">
		<path d="M3711.574,34.542l1.09,0.274c-0.229,0.894-0.64,1.575-1.231,2.045c-0.593,0.469-1.317,0.704-2.174,0.704
			c-0.886,0-1.607-0.181-2.162-0.542c-0.556-0.36-0.979-0.883-1.269-1.567c-0.29-0.685-0.435-1.419-0.435-2.204
			c0-0.856,0.163-1.604,0.491-2.241c0.325-0.638,0.791-1.122,1.396-1.453c0.604-0.33,1.269-0.496,1.994-0.496
			c0.821,0,1.514,0.21,2.073,0.628c0.563,0.419,0.952,1.008,1.174,1.768l-1.071,0.252c-0.19-0.598-0.467-1.034-0.83-1.307
			s-0.818-0.409-1.369-0.409c-0.631,0-1.159,0.151-1.584,0.454c-0.424,0.303-0.723,0.709-0.895,1.22
			c-0.173,0.511-0.259,1.037-0.259,1.579c0,0.699,0.103,1.31,0.306,1.831c0.205,0.521,0.521,0.912,0.95,1.17
			c0.431,0.258,0.896,0.387,1.396,0.387c0.609,0,1.126-0.176,1.549-0.527C3711.139,35.755,3711.426,35.233,3711.574,34.542z"/>
	</g>
	<g enable-background="new    ">
		<path d="M3895.981,49.457v3.972h-8.77v-3.972H3895.981z"/>
	</g>
	<line fill="none" stroke="#000000" stroke-width="0.459" x1="3886.299" y1="49.497" x2="3896.699" y2="49.497"/>
	<g enable-background="new    ">
		<path d="M4026.652,49.457v3.972h-8.769v-3.972H4026.652z"/>
	</g>
	<line fill="none" stroke="#000000" stroke-width="0.459" x1="4017" y1="49.497" x2="4027.299" y2="49.497"/>
</g>
</svg>
