<?xml version="1.0" encoding="utf-8"?>
<!-- Generator: Adobe Illustrator 16.0.0, SVG Export Plug-In . SVG Version: 6.00 Build 0)  -->
<!DOCTYPE svg PUBLIC "-//W3C//DTD SVG 1.1//EN" "http://www.w3.org/Graphics/SVG/1.1/DTD/svg11.dtd">
<svg version="1.1" id="Layer_1" xmlns="http://www.w3.org/2000/svg" xmlns:xlink="http://www.w3.org/1999/xlink" x="0px" y="0px"
	 width="1440px" height="63.7px" viewBox="208 360.7 1440 63.7" enable-background="new 208 360.7 1440 63.7" xml:space="preserve">
<g id="Music">
	<rect x="208" y="313" fill="#FFFFFF" width="1440" height="144"/>
	<g enable-background="new    ">
		<path d="M245.8,404.5c-4-1.9-4.6-4.3-4.8-6.8c-0.2-2.7,1.5-5.4,3.1-6.9c0.9-0.9,1.9-1.7,3.1-2.6c0-0.7-0.2-0.9-0.3-1.9
			c0-0.4-0.3-2.3,0.1-4.5c0.2-1.3,1.9-4.3,3-4.3c0.9,0,2.2,3.4,2.2,5.2c0.1,2.7-0.6,3.9-1.4,5.3c-0.4,0.7-0.8,1.2-1.3,1.7
			c-0.5,0.6-1,0.9-1.5,1.3c0,0,0.6,3.5,0.6,3.7c1.2-0.2,2.7,0.3,3.3,0.7c1.4,1,1.9,2.4,2,3.8c0.2,2.2-1,4.5-3.6,5.5
			c0,0,0.4,2.8,0.5,3.3c0.2,1.5,0.2,2.5-0.2,3.1c-0.6,1-1.5,2-3.2,2.1c-1.3,0.1-4-0.6-4.1-2.7c-0.1-1.2,0.5-2.6,2-2.7
			c0.9-0.1,2,0.7,2.1,1.8c0.1,0.9-0.5,1.9-2.1,2.4c0.2,0.3,1,0.7,2.1,0.7c1.1,0,2.3-0.7,2.8-1.7c0.3-0.7,0.3-1.8,0.2-2.9
			c-0.1-0.4-0.5-3.3-0.5-3.3C248.5,405.1,246.6,404.9,245.8,404.5z M246.1,400c0,0.9,0.8,2,1.5,2.4c-0.1,0.1-0.2,0.2-0.2,0.2
			c-0.8-0.4-1.5-1-1.6-1.2c-0.6-0.7-0.8-1.2-0.9-2.3c-0.1-1.1,0.5-2.5,1.8-3.5c0.7-0.5,1-0.6,1.6-0.7l-0.6-3.5
			c-0.6,0.3-3.1,2.3-4.1,3.9c-0.9,1.4-1.5,2.6-1.4,4c0.2,3.2,3.7,5.8,7.5,4.9c0,0-1.1-6.8-1.1-6.8
			C246.6,397.5,246.1,399.1,246.1,400z M247.7,387.8c1.7-1.3,3.9-3.8,3.8-5.7c0-0.6-0.3-1.7-1.2-1.7
			C248.4,380.5,247.3,384.7,247.7,387.8z M250.3,404c2.2-0.7,2.3-2.6,2.2-3.8c-0.1-0.9-0.5-3.1-3.3-2.9L250.3,404z"/>
	</g>
	<g enable-background="new    ">
		<path d="M266.2,402.1v1.3c0,0.8,0.9,0.7,0.9,0.7v0.5h-4.2v-0.5c0,0,0.9,0,0.9-0.7v-1.3h-3.6l-0.3-0.4c2.3-3.1,2.3-3.7,2.9-6.5h3.3
			c-0.8,1.5-3.4,4.2-5.3,6.4h3v-2.4l2.3-2.6v4.9h1.4v0.5H266.2z"/>
	</g>
	<g enable-background="new    ">
		<path d="M266.2,392.5v1.3c0,0.8,0.9,0.7,0.9,0.7v0.5h-4.2v-0.5c0,0,0.9,0,0.9-0.7v-1.3h-3.6l-0.3-0.4c2.3-3.1,2.3-3.7,2.9-6.5h3.3
			c-0.8,1.5-3.4,4.2-5.3,6.4h3v-2.4l2.3-2.6v4.9h1.4v0.5H266.2z"/>
	</g>
	<line fill="none" stroke="#000000" stroke-width="0.459" x1="301" y1="385.6" x2="301" y2="404.8"/>
	<line fill="none" stroke="#000000" stroke-width="0.459" x1="383.2" y1="385.6" x2="383.2" y2="404.8"/>
	<line fill="none" stroke="#000000" stroke-width="0.459" x1="465.4" y1="385.6" x2="465.4" y2="404.8"/>
	<line fill="none" stroke="#000000" stroke-width="0.459" x1="547.6" y1="385.6" x2="547.6" y2="404.8"/>
	<line fill="none" stroke="#000000" stroke-width="0.459" x1="629.8" y1="385.6" x2="629.8" y2="404.8"/>
	<line fill="none" stroke="#000000" stroke-width="0.459" x1="712" y1="385.6" x2="712" y2="404.8"/>
	<line fill="none" stroke="#000000" stroke-width="0.459" x1="794.2" y1="385.6" x2="794.2" y2="404.8"/>
	<line fill="none" stroke="#000000" stroke-width="0.459" x1="876.4" y1="385.6" x2="876.4" y2="404.8"/>
	<line fill="none" stroke="#000000" stroke-width="0.459" x1="958.6" y1="385.6" x2="958.6" y2="404.8"/>
	<line fill="none" stroke="#000000" stroke-width="0.459" x1="1040.8" y1="385.6" x2="1040.8" y2="404.8"/>
	<line fill="none" stroke="#000000" stroke-width="0.459" x1="1123" y1="385.6" x2="1123" y2="404.8"/>
	<line fill="none" stroke="#000000" stroke-width="0.459" x1="1205.2" y1="385.6" x2="1205.2" y2="404.8"/>
	<line fill="none" stroke="#000000" stroke-width="0.459" x1="1287.4" y1="385.6" x2="1287.4" y2="404.8"/>
	<line fill="none" stroke="#000000" stroke-width="0.459" x1="1369.6" y1="385.6" x2="1369.6" y2="404.8"/>
	<line fill="none" stroke="#000000" stroke-width="0.459" x1="1451.8" y1="385.6" x2="1451.8" y2="404.8"/>
	<line fill="none" stroke="#000000" stroke-width="0.459" x1="1534" y1="385.6" x2="1534" y2="404.8"/>
	<line fill="none" stroke="#000000" stroke-width="2.419" x1="1618.6" y1="385.6" x2="1618.6" y2="404.8"/>
	<line fill="none" stroke="#000000" stroke-width="0.459" x1="1614.7" y1="385.6" x2="1614.7" y2="404.8"/>
	<line fill="none" stroke="#000000" stroke-width="0.459" x1="236.2" y1="385.6" x2="1619.8" y2="385.6"/>
	<line fill="none" stroke="#000000" stroke-width="0.459" x1="236.2" y1="390.4" x2="1619.8" y2="390.4"/>
	<line fill="none" stroke="#000000" stroke-width="0.459" x1="236.2" y1="395.2" x2="1619.8" y2="395.2"/>
	<line fill="none" stroke="#000000" stroke-width="0.459" x1="236.2" y1="400" x2="1619.8" y2="400"/>
	<line fill="none" stroke="#000000" stroke-width="0.459" x1="236.2" y1="404.8" x2="1619.8" y2="404.8"/>
	<g enable-background="new    ">
		<path d="M276.8,394.9c0.6,0.9,1.4,1.9,2.1,3.1c0.6,1.1,1.2,2.7,1.2,3.5c0.1,0.8,0.2,1.6,0.2,2.3c0,1.2-0.2,2.2-0.6,3.3l-0.2,0
			c0.3-0.9,0.5-2.2,0.5-3.3c0-0.9-0.2-2.1-0.5-3.1c-0.6-1.7-1.5-2.7-2.1-3.1c-0.8-0.6-1.8-0.6-1.8-0.6h-0.3v-5h0.3
			C275.7,393,276.2,394.1,276.8,394.9z"/>
	</g>
	<line fill="none" stroke="#000000" stroke-width="0.459" x1="275.2" y1="408.8" x2="275.2" y2="392.8"/>
	<line fill="none" stroke="#000000" stroke-width="0.459" x1="269.2" y1="409.6" x2="276.6" y2="409.6"/>
	<g enable-background="new    ">
		<path d="M273.9,407.5c1.4,0,2.2,1,1.8,2.2c-0.4,1.2-1.9,2.2-3.4,2.2c-1.4,0-2.2-1-1.7-2.2C271,408.4,272.5,407.5,273.9,407.5z"/>
	</g>
	<g enable-background="new    ">
		<path d="M286.5,402.7c1.4,0,2.2,1,1.8,2.2c-0.4,1.2-1.9,2.2-3.4,2.2c-1.4,0-2.2-1-1.7-2.2C283.6,403.6,285.1,402.7,286.5,402.7z"
			/>
	</g>
	<line fill="none" stroke="#000000" stroke-width="0.459" x1="287.8" y1="404" x2="287.8" y2="390.4"/>
	<g enable-background="new    ">
		<path d="M295.5,400.3c1.4,0,2.2,1,1.8,2.2c-0.4,1.2-1.9,2.2-3.4,2.2c-1.4,0-2.2-1-1.7-2.2C292.6,401.2,294.1,400.3,295.5,400.3z"
			/>
	</g>
	<line fill="none" stroke="#000000" stroke-width="0.459" x1="296.8" y1="401.6" x2="296.8" y2="389.2"/>
	<path d="M287.5,389.2l9.5-1.2v2.4l-9.5,1.2V389.2z"/>
	<line fill="none" stroke="#000000" stroke-width="0.459" x1="311.8" y1="399.2" x2="311.8" y2="383.2"/>
	<g enable-background="new    ">
		<path d="M311.3,400.1c-0.3,0.9-1,1.5-1.6,1.8c-0.5,0.3-1.2,0.4-2,0.3c-0.5,0-1.3-0.2-1.6-0.7c-0.3-0.6-0.1-1.2,0-1.6
			c0.3-0.8,1-1.4,1.5-1.7c0.5-0.3,1.3-0.5,2.2-0.4c0.4,0,1.1,0.1,1.5,0.7C311.6,399,311.4,399.8,311.3,400.1z M309.3,398.8
			c-0.4,0.2-0.7,0.4-1,0.5c-0.3,0.2-0.6,0.4-1,0.6c-0.5,0.3-1.1,0.9-0.8,1.4c0.3,0.6,1.1,0.3,1.6,0c0.4-0.2,0.7-0.4,1-0.5
			c0.3-0.2,0.6-0.4,1-0.6c0.5-0.3,1.1-0.9,0.8-1.4C310.7,398.2,309.9,398.5,309.3,398.8z"/>
	</g>
	<g enable-background="new    ">
		<path d="M339.3,393.2c0.4,0,0.7-0.1,1.1-0.5c0.3-0.3,0.5-0.6,0.8-0.9l0.3,0.2l-2.1,8h-0.8c0,0,0.7-2.3,1.1-3.2
			c0.8-2.2,1-3.6,1-3.6c-0.5,0.4-1.6,1.2-2.5,1.2c-2,0.1-2.5-2.8-0.4-3.3C339.2,390.8,339.6,392.4,339.3,393.2z"/>
	</g>
	<line fill="none" stroke="#000000" stroke-width="0.459" x1="346.8" y1="409.6" x2="354.2" y2="409.6"/>
	<g enable-background="new    ">
		<path d="M351.5,407.5c1.4,0,2.2,1,1.8,2.2c-0.4,1.2-1.9,2.2-3.4,2.2c-1.4,0-2.2-1-1.7-2.2C348.6,408.4,350.1,407.5,351.5,407.5z"
			/>
	</g>
	<line fill="none" stroke="#000000" stroke-width="0.459" x1="352.8" y1="408.8" x2="352.8" y2="390.4"/>
	<g enable-background="new    ">
		<path d="M363.3,402.7c1.4,0,2.2,1,1.8,2.2c-0.4,1.2-1.9,2.2-3.4,2.2c-1.4,0-2.2-1-1.7-2.2C360.4,403.6,361.9,402.7,363.3,402.7z"
			/>
	</g>
	<line fill="none" stroke="#000000" stroke-width="0.459" x1="364.6" y1="404" x2="364.6" y2="389.8"/>
	<g enable-background="new    ">
		<path d="M374.9,400.3c1.4,0,2.2,1,1.8,2.2c-0.4,1.2-1.9,2.2-3.4,2.2c-1.4,0-2.2-1-1.7-2.2C372,401.2,373.5,400.3,374.9,400.3z"/>
	</g>
	<line fill="none" stroke="#000000" stroke-width="0.459" x1="376.2" y1="401.6" x2="376.2" y2="389.2"/>
	<path d="M352.5,389.2l23.9-1.2v2.4l-23.9,1.2V389.2z"/>
	<g enable-background="new    ">
		<path d="M268.6,372l2.2-5.7h0.8l2.3,5.7h-0.9l-0.7-1.7H270l-0.6,1.7H268.6z M270.2,369.6h1.9l-0.6-1.6c-0.2-0.5-0.3-0.9-0.4-1.2
			c-0.1,0.4-0.2,0.7-0.3,1.1L270.2,369.6z"/>
	</g>
	<g enable-background="new    ">
		<path d="M310.7,380l0.8,0.2c-0.2,0.6-0.4,1.1-0.9,1.4s-0.9,0.5-1.5,0.5c-0.6,0-1.1-0.1-1.5-0.4s-0.7-0.6-0.9-1.1s-0.3-1-0.3-1.5
			c0-0.6,0.1-1.1,0.3-1.6s0.6-0.8,1-1s0.9-0.3,1.4-0.3c0.6,0,1.1,0.1,1.4,0.4s0.7,0.7,0.8,1.2l-0.7,0.2c-0.1-0.4-0.3-0.7-0.6-0.9
			s-0.6-0.3-1-0.3c-0.4,0-0.8,0.1-1.1,0.3s-0.5,0.5-0.6,0.8s-0.2,0.7-0.2,1.1c0,0.5,0.1,0.9,0.2,1.3s0.4,0.6,0.7,0.8s0.6,0.3,1,0.3
			c0.4,0,0.8-0.1,1.1-0.4S310.6,380.5,310.7,380z"/>
	</g>
	<line fill="none" stroke="#000000" stroke-width="0.459" x1="394" y1="399.2" x2="394" y2="383.2"/>
	<g enable-background="new    ">
		<path d="M393.5,400.1c-0.3,0.9-1,1.5-1.6,1.8c-0.5,0.3-1.2,0.4-2,0.3c-0.5,0-1.3-0.2-1.6-0.7c-0.3-0.6-0.1-1.2,0-1.6
			c0.3-0.8,1-1.4,1.5-1.7c0.5-0.3,1.3-0.5,2.2-0.4c0.4,0,1.1,0.1,1.5,0.7C393.8,399,393.6,399.8,393.5,400.1z M391.5,398.8
			c-0.4,0.2-0.7,0.4-1,0.5c-0.3,0.2-0.6,0.4-1,0.6c-0.5,0.3-1.1,0.9-0.8,1.4c0.3,0.6,1.1,0.3,1.6,0c0.4-0.2,0.7-0.4,1-0.5
			c0.3-0.2,0.6-0.4,1-0.6c0.5-0.3,1.1-0.9,0.8-1.4C392.9,398.2,392.1,398.5,391.5,398.8z"/>
	</g>
	<g enable-background="new    ">
		<path d="M421.5,393.2c0.4,0,0.7-0.1,1.1-0.5c0.3-0.3,0.5-0.6,0.8-0.9l0.3,0.2l-2.1,8h-0.8c0,0,0.7-2.3,1.1-3.2
			c0.8-2.2,1-3.6,1-3.6c-0.5,0.4-1.6,1.2-2.5,1.2c-2,0.1-2.5-2.8-0.4-3.3C421.4,390.8,421.8,392.4,421.5,393.2z"/>
	</g>
	<line fill="none" stroke="#000000" stroke-width="0.459" x1="429" y1="409.6" x2="436.4" y2="409.6"/>
	<g enable-background="new    ">
		<path d="M433.7,407.5c1.4,0,2.2,1,1.8,2.2c-0.4,1.2-1.9,2.2-3.4,2.2c-1.4,0-2.2-1-1.7-2.2C430.8,408.4,432.3,407.5,433.7,407.5z"
			/>
	</g>
	<line fill="none" stroke="#000000" stroke-width="0.459" x1="435" y1="408.8" x2="435" y2="390.4"/>
	<g enable-background="new    ">
		<path d="M445.5,402.7c1.4,0,2.2,1,1.8,2.2c-0.4,1.2-1.9,2.2-3.4,2.2c-1.4,0-2.2-1-1.7-2.2C442.6,403.6,444.1,402.7,445.5,402.7z"
			/>
	</g>
	<line fill="none" stroke="#000000" stroke-width="0.459" x1="446.8" y1="404" x2="446.8" y2="389.8"/>
	<g enable-background="new    ">
		<path d="M457.1,400.3c1.4,0,2.2,1,1.8,2.2c-0.4,1.2-1.9,2.2-3.4,2.2c-1.4,0-2.2-1-1.7-2.2C454.2,401.2,455.7,400.3,457.1,400.3z"
			/>
	</g>
	<line fill="none" stroke="#000000" stroke-width="0.459" x1="458.4" y1="401.6" x2="458.4" y2="389.2"/>
	<path d="M434.7,389.2l23.9-1.2v2.4l-23.9,1.2V389.2z"/>
	<line fill="none" stroke="#000000" stroke-width="0.459" x1="475.2" y1="399.2" x2="475.2" y2="383.2"/>
	<g enable-background="new    ">
		<path d="M473.9,397.9c1.4,0,2.2,1,1.8,2.2c-0.4,1.2-1.9,2.2-3.4,2.2c-1.4,0-2.2-1-1.7-2.2C471,398.8,472.5,397.9,473.9,397.9z"/>
	</g>
	<line fill="none" stroke="#000000" stroke-width="0.459" x1="494.4" y1="404" x2="494.4" y2="388"/>
	<g enable-background="new    ">
		<path d="M493.1,402.7c1.4,0,2.2,1,1.8,2.2c-0.4,1.2-1.9,2.2-3.4,2.2c-1.4,0-2.2-1-1.7-2.2C490.2,403.6,491.7,402.7,493.1,402.7z"
			/>
	</g>
	<line fill="none" stroke="#000000" stroke-width="0.459" x1="513.8" y1="408.8" x2="513.8" y2="392.8"/>
	<line fill="none" stroke="#000000" stroke-width="0.459" x1="507.8" y1="409.6" x2="515.2" y2="409.6"/>
	<g enable-background="new    ">
		<path d="M512.5,407.5c1.4,0,2.2,1,1.8,2.2c-0.4,1.2-1.9,2.2-3.4,2.2c-1.4,0-2.2-1-1.7-2.2C509.6,408.4,511.1,407.5,512.5,407.5z"
			/>
	</g>
	<line fill="none" stroke="#000000" stroke-width="0.459" x1="533" y1="404" x2="533" y2="388"/>
	<g enable-background="new    ">
		<path d="M531.7,402.7c1.4,0,2.2,1,1.8,2.2c-0.4,1.2-1.9,2.2-3.4,2.2c-1.4,0-2.2-1-1.7-2.2C528.8,403.6,530.3,402.7,531.7,402.7z"
			/>
	</g>
	<line fill="none" stroke="#000000" stroke-width="0.459" x1="558.4" y1="406.4" x2="558.4" y2="390.4"/>
	<g enable-background="new    ">
		<path d="M557.9,407.3c-0.3,0.9-1,1.5-1.6,1.8c-0.5,0.3-1.2,0.4-2,0.3c-0.5,0-1.3-0.2-1.6-0.7c-0.3-0.6-0.1-1.2,0-1.6
			c0.3-0.8,1-1.4,1.5-1.7c0.5-0.3,1.3-0.5,2.2-0.4c0.4,0,1.1,0.1,1.5,0.7C558.2,406.2,558,407,557.9,407.3z M555.9,406
			c-0.4,0.2-0.7,0.4-1,0.5c-0.3,0.2-0.6,0.4-1,0.6c-0.5,0.3-1.1,0.9-0.8,1.4c0.3,0.6,1.1,0.3,1.6,0c0.4-0.2,0.7-0.4,1-0.5
			c0.3-0.2,0.6-0.4,1-0.6c0.5-0.3,1.1-0.9,0.8-1.4C557.3,405.4,556.5,405.7,555.9,406z"/>
	</g>
	<g enable-background="new    ">
		<path d="M585.9,393.2c0.4,0,0.7-0.1,1.1-0.5c0.3-0.3,0.5-0.6,0.8-0.9l0.3,0.2l-2.1,8h-0.8c0,0,0.7-2.3,1.1-3.2
			c0.8-2.2,1-3.6,1-3.6c-0.5,0.4-1.6,1.2-2.5,1.2c-2,0.1-2.5-2.8-0.4-3.3C585.8,390.8,586.2,392.4,585.9,393.2z"/>
	</g>
	<g enable-background="new    ">
		<path d="M598.1,402.7c1.4,0,2.2,1,1.8,2.2c-0.4,1.2-1.9,2.2-3.4,2.2c-1.4,0-2.2-1-1.7-2.2C595.2,403.6,596.7,402.7,598.1,402.7z"
			/>
	</g>
	<line fill="none" stroke="#000000" stroke-width="0.459" x1="599.4" y1="404" x2="599.4" y2="389.2"/>
	<g enable-background="new    ">
		<path d="M609.9,402.7c1.4,0,2.2,1,1.8,2.2c-0.4,1.2-1.9,2.2-3.4,2.2c-1.4,0-2.2-1-1.7-2.2C607,403.6,608.5,402.7,609.9,402.7z"/>
	</g>
	<line fill="none" stroke="#000000" stroke-width="0.459" x1="611.2" y1="404" x2="611.2" y2="389.2"/>
	<g enable-background="new    ">
		<path d="M621.5,405.1c1.4,0,2.2,1,1.8,2.2c-0.4,1.2-1.9,2.2-3.4,2.2c-1.4,0-2.2-1-1.7-2.2C618.6,406,620.1,405.1,621.5,405.1z"/>
	</g>
	<line fill="none" stroke="#000000" stroke-width="0.459" x1="622.8" y1="406.4" x2="622.8" y2="389.2"/>
	<path d="M599.1,388H623v2.4h-23.9V388z"/>
	<g enable-background="new    ">
		<path d="M555.9,379.8v-0.7l2.4,0v2.1c-0.4,0.3-0.8,0.5-1.2,0.7s-0.8,0.2-1.2,0.2c-0.6,0-1.1-0.1-1.5-0.4s-0.8-0.6-1-1
			s-0.4-1-0.4-1.5c0-0.6,0.1-1.1,0.3-1.6s0.6-0.8,1-1.1s0.9-0.4,1.5-0.4c0.4,0,0.8,0.1,1.1,0.2s0.6,0.3,0.8,0.6s0.3,0.6,0.4,0.9
			l-0.7,0.2c-0.1-0.3-0.2-0.5-0.3-0.7s-0.3-0.3-0.5-0.4s-0.5-0.2-0.8-0.2c-0.3,0-0.6,0.1-0.9,0.2s-0.5,0.2-0.6,0.4s-0.3,0.4-0.4,0.6
			c-0.1,0.4-0.2,0.7-0.2,1.2c0,0.5,0.1,0.9,0.3,1.3s0.4,0.6,0.8,0.8s0.7,0.2,1.1,0.2c0.3,0,0.6-0.1,1-0.2s0.5-0.3,0.7-0.4v-1.1
			H555.9z"/>
	</g>
	<g enable-background="new    ">
		<path d="M644.4,406.3c0.6,0,1,0.4,1,1c0,0.5-0.4,1-1,1s-1-0.4-1-1C643.4,406.7,643.8,406.3,644.4,406.3z"/>
	</g>
	<line fill="none" stroke="#000000" stroke-width="0.459" x1="641" y1="408.8" x2="641" y2="392.8"/>
	<line fill="none" stroke="#000000" stroke-width="0.459" x1="635" y1="409.6" x2="642.4" y2="409.6"/>
	<g enable-background="new    ">
		<path d="M639.7,407.5c1.4,0,2.2,1,1.8,2.2c-0.4,1.2-1.9,2.2-3.4,2.2c-1.4,0-2.2-1-1.7-2.2C636.8,408.4,638.3,407.5,639.7,407.5z"
			/>
	</g>
	<g enable-background="new    ">
		<path d="M667.8,394.9c0.6,0.9,1.4,1.9,2.1,3.1c0.6,1.1,1.2,2.7,1.2,3.5c0.1,0.8,0.2,1.6,0.2,2.3c0,1.2-0.2,2.2-0.6,3.3l-0.2,0
			c0.3-0.9,0.5-2.2,0.5-3.3c0-0.9-0.2-2.1-0.5-3.1c-0.6-1.7-1.5-2.7-2.1-3.1c-0.8-0.6-1.8-0.6-1.8-0.6h-0.3v-5h0.3
			C666.7,393,667.2,394.1,667.8,394.9z"/>
	</g>
	<line fill="none" stroke="#000000" stroke-width="0.459" x1="666.2" y1="408.8" x2="666.2" y2="392.8"/>
	<line fill="none" stroke="#000000" stroke-width="0.459" x1="660.2" y1="409.6" x2="667.6" y2="409.6"/>
	<g enable-background="new    ">
		<path d="M664.9,407.5c1.4,0,2.2,1,1.8,2.2c-0.4,1.2-1.9,2.2-3.4,2.2c-1.4,0-2.2-1-1.7-2.2C662,408.4,663.5,407.5,664.9,407.5z"/>
	</g>
	<line fill="none" stroke="#000000" stroke-width="0.459" x1="680.2" y1="404" x2="680.2" y2="388"/>
	<g enable-background="new    ">
		<path d="M678.9,402.7c1.4,0,2.2,1,1.8,2.2c-0.4,1.2-1.9,2.2-3.4,2.2c-1.4,0-2.2-1-1.7-2.2C676,403.6,677.5,402.7,678.9,402.7z"/>
	</g>
	<line fill="none" stroke="#000000" stroke-width="0.459" x1="698.4" y1="399.2" x2="698.4" y2="383.2"/>
	<g enable-background="new    ">
		<path d="M697.1,397.9c1.4,0,2.2,1,1.8,2.2c-0.4,1.2-1.9,2.2-3.4,2.2c-1.4,0-2.2-1-1.7-2.2C694.2,398.8,695.7,397.9,697.1,397.9z"
			/>
	</g>
	<g enable-background="new    ">
		<path d="M640.9,380l0.8,0.2c-0.2,0.6-0.4,1.1-0.9,1.4s-0.9,0.5-1.5,0.5c-0.6,0-1.1-0.1-1.5-0.4s-0.7-0.6-0.9-1.1s-0.3-1-0.3-1.5
			c0-0.6,0.1-1.1,0.3-1.6s0.6-0.8,1-1s0.9-0.3,1.4-0.3c0.6,0,1.1,0.1,1.4,0.4s0.7,0.7,0.8,1.2l-0.7,0.2c-0.1-0.4-0.3-0.7-0.6-0.9
			s-0.6-0.3-1-0.3c-0.4,0-0.8,0.1-1.1,0.3s-0.5,0.5-0.6,0.8s-0.2,0.7-0.2,1.1c0,0.5,0.1,0.9,0.2,1.3s0.4,0.6,0.7,0.8s0.6,0.3,1,0.3
			c0.4,0,0.8-0.1,1.1-0.4S640.8,380.5,640.9,380z"/>
	</g>
	<g enable-background="new    ">
		<path d="M680.1,380l0.8,0.2c-0.2,0.6-0.4,1.1-0.9,1.4s-0.9,0.5-1.5,0.5c-0.6,0-1.1-0.1-1.5-0.4s-0.7-0.6-0.9-1.1s-0.3-1-0.3-1.5
			c0-0.6,0.1-1.1,0.3-1.6s0.6-0.8,1-1s0.9-0.3,1.4-0.3c0.6,0,1.1,0.1,1.4,0.4s0.7,0.7,0.8,1.2L680,378c-0.1-0.4-0.3-0.7-0.6-0.9
			s-0.6-0.3-1-0.3c-0.4,0-0.8,0.1-1.1,0.3s-0.5,0.5-0.6,0.8s-0.2,0.7-0.2,1.1c0,0.5,0.1,0.9,0.2,1.3s0.4,0.6,0.7,0.8s0.6,0.3,1,0.3
			c0.4,0,0.8-0.1,1.1-0.4S680,380.5,680.1,380z"/>
	</g>
	<g enable-background="new    ">
		<path d="M682.5,377.5v-0.6h3.3v0.5c-0.3,0.3-0.7,0.8-1,1.4c-0.3,0.6-0.6,1.2-0.7,1.8c-0.1,0.4-0.2,0.9-0.2,1.4h-0.7
			c0-0.4,0.1-0.9,0.2-1.5s0.4-1.1,0.7-1.7s0.6-1,0.9-1.3H682.5z"/>
	</g>
	<g enable-background="new    ">
		<path d="M723.4,385.3c0.6,0.9,1.4,1.9,2.1,3.1c0.6,1.1,1.2,2.7,1.2,3.5c0.1,0.8,0.2,1.6,0.2,2.3c0,1.2-0.2,2.2-0.6,3.3l-0.2,0
			c0.3-0.9,0.5-2.2,0.5-3.3c0-0.9-0.2-2.1-0.5-3.1c-0.6-1.7-1.5-2.7-2.1-3.1c-0.8-0.6-1.8-0.6-1.8-0.6H722v-5h0.3
			C722.3,383.4,722.8,384.5,723.4,385.3z"/>
	</g>
	<line fill="none" stroke="#000000" stroke-width="0.459" x1="721.8" y1="399.2" x2="721.8" y2="383.2"/>
	<g enable-background="new    ">
		<path d="M720.5,397.9c1.4,0,2.2,1,1.8,2.2c-0.4,1.2-1.9,2.2-3.4,2.2c-1.4,0-2.2-1-1.7-2.2C717.6,398.8,719.1,397.9,720.5,397.9z"
			/>
	</g>
	<g enable-background="new    ">
		<path d="M738.8,401.5c0.6,0,1,0.4,1,1c0,0.5-0.4,1-1,1s-1-0.4-1-1C737.8,401.9,738.2,401.5,738.8,401.5z"/>
	</g>
	<line fill="none" stroke="#000000" stroke-width="0.459" x1="735.4" y1="401.6" x2="735.4" y2="385.6"/>
	<g enable-background="new    ">
		<path d="M734.1,400.3c1.4,0,2.2,1,1.8,2.2c-0.4,1.2-1.9,2.2-3.4,2.2c-1.4,0-2.2-1-1.7-2.2C731.2,401.2,732.7,400.3,734.1,400.3z"
			/>
	</g>
	<g enable-background="new    ">
		<path d="M753.9,393.2c0.4,0,0.7-0.1,1.1-0.5c0.3-0.3,0.5-0.6,0.8-0.9l0.3,0.2l-2.1,8h-0.8c0,0,0.7-2.3,1.1-3.2
			c0.8-2.2,1-3.6,1-3.6c-0.5,0.4-1.6,1.2-2.5,1.2c-2,0.1-2.5-2.8-0.4-3.3C753.8,390.8,754.2,392.4,753.9,393.2z"/>
	</g>
	<g enable-background="new    ">
		<path d="M765.1,400.3c1.4,0,2.2,1,1.8,2.2c-0.4,1.2-1.9,2.2-3.4,2.2c-1.4,0-2.2-1-1.7-2.2C762.2,401.2,763.7,400.3,765.1,400.3z"
			/>
	</g>
	<line fill="none" stroke="#000000" stroke-width="0.459" x1="766.4" y1="401.6" x2="766.4" y2="386.8"/>
	<g enable-background="new    ">
		<path d="M775.9,402.7c1.4,0,2.2,1,1.8,2.2c-0.4,1.2-1.9,2.2-3.4,2.2c-1.4,0-2.2-1-1.7-2.2C773,403.6,774.5,402.7,775.9,402.7z"/>
	</g>
	<line fill="none" stroke="#000000" stroke-width="0.459" x1="777.2" y1="404" x2="777.2" y2="386.8"/>
	<g enable-background="new    ">
		<path d="M786.7,400.3c1.4,0,2.2,1,1.8,2.2c-0.4,1.2-1.9,2.2-3.4,2.2c-1.4,0-2.2-1-1.7-2.2C783.8,401.2,785.3,400.3,786.7,400.3z"
			/>
	</g>
	<line fill="none" stroke="#000000" stroke-width="0.459" x1="788" y1="401.6" x2="788" y2="386.8"/>
	<path d="M766.1,385.6h22.1v2.4h-22.1V385.6z"/>
	<g enable-background="new    ">
		<path d="M717.7,382v-5.7h3.9v0.7h-3.1v1.8h2.7v0.7h-2.7v2.6H717.7z"/>
	</g>
	<line fill="none" stroke="#000000" stroke-width="0.459" x1="804" y1="399.2" x2="804" y2="383.2"/>
	<g enable-background="new    ">
		<path d="M802.7,397.9c1.4,0,2.2,1,1.8,2.2c-0.4,1.2-1.9,2.2-3.4,2.2c-1.4,0-2.2-1-1.7-2.2C799.8,398.8,801.3,397.9,802.7,397.9z"
			/>
	</g>
	<line fill="none" stroke="#000000" stroke-width="0.459" x1="823.2" y1="404" x2="823.2" y2="388"/>
	<g enable-background="new    ">
		<path d="M821.9,402.7c1.4,0,2.2,1,1.8,2.2c-0.4,1.2-1.9,2.2-3.4,2.2c-1.4,0-2.2-1-1.7-2.2C819,403.6,820.5,402.7,821.9,402.7z"/>
	</g>
	<line fill="none" stroke="#000000" stroke-width="0.459" x1="842.6" y1="406.4" x2="842.6" y2="390.4"/>
	<g enable-background="new    ">
		<path d="M841.3,405.1c1.4,0,2.2,1,1.8,2.2c-0.4,1.2-1.9,2.2-3.4,2.2c-1.4,0-2.2-1-1.7-2.2C838.4,406,839.9,405.1,841.3,405.1z"/>
	</g>
	<line fill="none" stroke="#000000" stroke-width="0.459" x1="861.8" y1="406.4" x2="861.8" y2="390.4"/>
	<g enable-background="new    ">
		<path d="M860.5,405.1c1.4,0,2.2,1,1.8,2.2c-0.4,1.2-1.9,2.2-3.4,2.2c-1.4,0-2.2-1-1.7-2.2C857.6,406,859.1,405.1,860.5,405.1z"/>
	</g>
	<g enable-background="new    ">
		<path d="M803.9,380l0.8,0.2c-0.2,0.6-0.4,1.1-0.9,1.4s-0.9,0.5-1.5,0.5c-0.6,0-1.1-0.1-1.5-0.4s-0.7-0.6-0.9-1.1s-0.3-1-0.3-1.5
			c0-0.6,0.1-1.1,0.3-1.6s0.6-0.8,1-1s0.9-0.3,1.4-0.3c0.6,0,1.1,0.1,1.4,0.4s0.7,0.7,0.8,1.2l-0.7,0.2c-0.1-0.4-0.3-0.7-0.6-0.9
			s-0.6-0.3-1-0.3c-0.4,0-0.8,0.1-1.1,0.3s-0.5,0.5-0.6,0.8s-0.2,0.7-0.2,1.1c0,0.5,0.1,0.9,0.2,1.3s0.4,0.6,0.7,0.8s0.6,0.3,1,0.3
			c0.4,0,0.8-0.1,1.1-0.4S803.8,380.5,803.9,380z"/>
	</g>
	<g enable-background="new    ">
		<path d="M841.1,379.8v-0.7l2.4,0v2.1c-0.4,0.3-0.8,0.5-1.2,0.7s-0.8,0.2-1.2,0.2c-0.6,0-1.1-0.1-1.5-0.4s-0.8-0.6-1-1
			s-0.4-1-0.4-1.5c0-0.6,0.1-1.1,0.3-1.6s0.6-0.8,1-1.1s0.9-0.4,1.5-0.4c0.4,0,0.8,0.1,1.1,0.2s0.6,0.3,0.8,0.6s0.3,0.6,0.4,0.9
			l-0.7,0.2c-0.1-0.3-0.2-0.5-0.3-0.7s-0.3-0.3-0.5-0.4s-0.5-0.2-0.8-0.2c-0.3,0-0.6,0.1-0.9,0.2s-0.5,0.2-0.6,0.4s-0.3,0.4-0.4,0.6
			c-0.1,0.4-0.2,0.7-0.2,1.2c0,0.5,0.1,0.9,0.3,1.3s0.4,0.6,0.8,0.8s0.7,0.2,1.1,0.2c0.3,0,0.6-0.1,1-0.2s0.5-0.3,0.7-0.4v-1.1
			H841.1z"/>
	</g>
	<line fill="none" stroke="#000000" stroke-width="0.459" x1="888.6" y1="408.8" x2="888.6" y2="392.8"/>
	<line fill="none" stroke="#000000" stroke-width="0.459" x1="881.6" y1="409.6" x2="890" y2="409.6"/>
	<g enable-background="new    ">
		<path d="M888.1,409.7c-0.3,0.9-1,1.5-1.6,1.8c-0.5,0.3-1.2,0.4-2,0.3c-0.5,0-1.3-0.2-1.6-0.7c-0.3-0.6-0.1-1.2,0-1.6
			c0.3-0.8,1-1.4,1.5-1.7c0.5-0.3,1.3-0.5,2.2-0.4c0.4,0,1.1,0.1,1.5,0.7C888.4,408.6,888.2,409.4,888.1,409.7z M886.1,408.4
			c-0.4,0.2-0.7,0.4-1,0.5c-0.3,0.2-0.6,0.4-1,0.6c-0.5,0.3-1.1,0.9-0.8,1.4c0.3,0.6,1.1,0.3,1.6,0c0.4-0.2,0.7-0.4,1-0.5
			c0.3-0.2,0.6-0.4,1-0.6c0.5-0.3,1.1-0.9,0.8-1.4C887.5,407.8,886.7,408.1,886.1,408.4z"/>
	</g>
	<g enable-background="new    ">
		<path d="M915.7,393.2c0.4,0,0.7-0.1,1.1-0.5c0.3-0.3,0.5-0.6,0.8-0.9l0.3,0.2l-2.1,8H915c0,0,0.7-2.3,1.1-3.2c0.8-2.2,1-3.6,1-3.6
			c-0.5,0.4-1.6,1.2-2.5,1.2c-2,0.1-2.5-2.8-0.4-3.3C915.6,390.8,916,392.4,915.7,393.2z"/>
	</g>
	<line fill="none" stroke="#000000" stroke-width="0.459" x1="923" y1="409.6" x2="930.4" y2="409.6"/>
	<g enable-background="new    ">
		<path d="M927.7,407.5c1.4,0,2.2,1,1.8,2.2c-0.4,1.2-1.9,2.2-3.4,2.2c-1.4,0-2.2-1-1.7-2.2C924.8,408.4,926.3,407.5,927.7,407.5z"
			/>
	</g>
	<line fill="none" stroke="#000000" stroke-width="0.459" x1="929" y1="408.8" x2="929" y2="390.4"/>
	<g enable-background="new    ">
		<path d="M939.1,402.7c1.4,0,2.2,1,1.8,2.2c-0.4,1.2-1.9,2.2-3.4,2.2c-1.4,0-2.2-1-1.7-2.2C936.2,403.6,937.7,402.7,939.1,402.7z"
			/>
	</g>
	<line fill="none" stroke="#000000" stroke-width="0.459" x1="940.4" y1="404" x2="940.4" y2="389.8"/>
	<g enable-background="new    ">
		<path d="M950.5,400.3c1.4,0,2.2,1,1.8,2.2c-0.4,1.2-1.9,2.2-3.4,2.2s-2.2-1-1.7-2.2C947.6,401.2,949.1,400.3,950.5,400.3z"/>
	</g>
	<line fill="none" stroke="#000000" stroke-width="0.459" x1="951.8" y1="401.6" x2="951.8" y2="389.2"/>
	<path d="M928.7,389.2L952,388v2.4l-23.3,1.2V389.2z"/>
	<g enable-background="new    ">
		<path d="M920.6,370.4l2.2-5.7h0.8l2.3,5.7h-0.9l-0.7-1.7H922l-0.6,1.7H920.6z M922.2,368h1.9l-0.6-1.6c-0.2-0.5-0.3-0.9-0.4-1.2
			c-0.1,0.4-0.2,0.7-0.3,1.1L922.2,368z"/>
	</g>
	<g enable-background="new    ">
		<path d="M887.5,380l0.8,0.2c-0.2,0.6-0.4,1.1-0.9,1.4s-0.9,0.5-1.5,0.5c-0.6,0-1.1-0.1-1.5-0.4s-0.7-0.6-0.9-1.1s-0.3-1-0.3-1.5
			c0-0.6,0.1-1.1,0.3-1.6s0.6-0.8,1-1s0.9-0.3,1.4-0.3c0.6,0,1.1,0.1,1.4,0.4s0.7,0.7,0.8,1.2l-0.7,0.2c-0.1-0.4-0.3-0.7-0.6-0.9
			s-0.6-0.3-1-0.3c-0.4,0-0.8,0.1-1.1,0.3s-0.5,0.5-0.6,0.8s-0.2,0.7-0.2,1.1c0,0.5,0.1,0.9,0.2,1.3s0.4,0.6,0.7,0.8s0.6,0.3,1,0.3
			c0.4,0,0.8-0.1,1.1-0.4S887.4,380.5,887.5,380z"/>
	</g>
	<line fill="none" stroke="#000000" stroke-width="0.459" x1="969.4" y1="399.2" x2="969.4" y2="383.2"/>
	<g enable-background="new    ">
		<path d="M968.9,400.1c-0.3,0.9-1,1.5-1.6,1.8c-0.5,0.3-1.2,0.4-2,0.3c-0.5,0-1.3-0.2-1.6-0.7c-0.3-0.6-0.1-1.2,0-1.6
			c0.3-0.8,1-1.4,1.5-1.7c0.5-0.3,1.3-0.5,2.2-0.4c0.4,0,1.1,0.1,1.5,0.7C969.2,399,969,399.8,968.9,400.1z M966.9,398.8
			c-0.4,0.2-0.7,0.4-1,0.5c-0.3,0.2-0.6,0.4-1,0.6c-0.5,0.3-1.1,0.9-0.8,1.4c0.3,0.6,1.1,0.3,1.6,0c0.4-0.2,0.7-0.4,1-0.5
			c0.3-0.2,0.6-0.4,1-0.6c0.5-0.3,1.1-0.9,0.8-1.4C968.3,398.2,967.5,398.5,966.9,398.8z"/>
	</g>
	<g enable-background="new    ">
		<path d="M996.9,393.2c0.4,0,0.7-0.1,1.1-0.5c0.3-0.3,0.5-0.6,0.8-0.9l0.3,0.2l-2.1,8h-0.8c0,0,0.7-2.3,1.1-3.2
			c0.8-2.2,1-3.6,1-3.6c-0.5,0.4-1.6,1.2-2.5,1.2c-2,0.1-2.5-2.8-0.4-3.3C996.8,390.8,997.2,392.4,996.9,393.2z"/>
	</g>
	<line fill="none" stroke="#000000" stroke-width="0.459" x1="1004.4" y1="409.6" x2="1011.8" y2="409.6"/>
	<g enable-background="new    ">
		<path d="M1009.1,407.5c1.4,0,2.2,1,1.8,2.2c-0.4,1.2-1.9,2.2-3.4,2.2c-1.4,0-2.2-1-1.7-2.2
			C1006.2,408.4,1007.7,407.5,1009.1,407.5z"/>
	</g>
	<line fill="none" stroke="#000000" stroke-width="0.459" x1="1010.4" y1="408.8" x2="1010.4" y2="390.4"/>
	<g enable-background="new    ">
		<path d="M1020.9,402.7c1.4,0,2.2,1,1.8,2.2c-0.4,1.2-1.9,2.2-3.4,2.2c-1.4,0-2.2-1-1.7-2.2C1018,403.6,1019.5,402.7,1020.9,402.7z
			"/>
	</g>
	<line fill="none" stroke="#000000" stroke-width="0.459" x1="1022.2" y1="404" x2="1022.2" y2="389.8"/>
	<g enable-background="new    ">
		<path d="M1032.5,400.3c1.4,0,2.2,1,1.8,2.2c-0.4,1.2-1.9,2.2-3.4,2.2s-2.2-1-1.7-2.2C1029.6,401.2,1031.1,400.3,1032.5,400.3z"/>
	</g>
	<line fill="none" stroke="#000000" stroke-width="0.459" x1="1033.8" y1="401.6" x2="1033.8" y2="389.2"/>
	<path d="M1010.1,389.2l23.9-1.2v2.4l-23.9,1.2V389.2z"/>
	<g enable-background="new    ">
		<path d="M968.3,380l0.8,0.2c-0.2,0.6-0.4,1.1-0.9,1.4c-0.4,0.3-0.9,0.5-1.5,0.5c-0.6,0-1.1-0.1-1.5-0.4s-0.7-0.6-0.9-1.1
			c-0.2-0.5-0.3-1-0.3-1.5c0-0.6,0.1-1.1,0.3-1.6c0.2-0.4,0.6-0.8,1-1c0.4-0.2,0.9-0.3,1.4-0.3c0.6,0,1.1,0.1,1.4,0.4
			s0.7,0.7,0.8,1.2l-0.7,0.2c-0.1-0.4-0.3-0.7-0.6-0.9c-0.3-0.2-0.6-0.3-1-0.3c-0.4,0-0.8,0.1-1.1,0.3c-0.3,0.2-0.5,0.5-0.6,0.8
			c-0.1,0.4-0.2,0.7-0.2,1.1c0,0.5,0.1,0.9,0.2,1.3c0.1,0.4,0.4,0.6,0.7,0.8c0.3,0.2,0.6,0.3,1,0.3c0.4,0,0.8-0.1,1.1-0.4
			C968,380.8,968.2,380.5,968.3,380z"/>
	</g>
	<line fill="none" stroke="#000000" stroke-width="0.459" x1="1051.6" y1="399.2" x2="1051.6" y2="383.2"/>
	<g enable-background="new    ">
		<path d="M1051.1,400.1c-0.3,0.9-1,1.5-1.6,1.8c-0.5,0.3-1.2,0.4-2,0.3c-0.5,0-1.3-0.2-1.6-0.7c-0.3-0.6-0.1-1.2,0-1.6
			c0.3-0.8,1-1.4,1.5-1.7c0.5-0.3,1.3-0.5,2.2-0.4c0.4,0,1.1,0.1,1.5,0.7C1051.4,399,1051.2,399.8,1051.1,400.1z M1049.1,398.8
			c-0.4,0.2-0.7,0.4-1,0.5c-0.3,0.2-0.6,0.4-1,0.6c-0.5,0.3-1.1,0.9-0.8,1.4c0.3,0.6,1.1,0.3,1.6,0c0.4-0.2,0.7-0.4,1-0.5
			c0.3-0.2,0.6-0.4,1-0.6c0.5-0.3,1.1-0.9,0.8-1.4C1050.5,398.2,1049.7,398.5,1049.1,398.8z"/>
	</g>
	<g enable-background="new    ">
		<path d="M1079.1,393.2c0.4,0,0.7-0.1,1.1-0.5c0.3-0.3,0.5-0.6,0.8-0.9l0.3,0.2l-2.1,8h-0.8c0,0,0.7-2.3,1.1-3.2
			c0.8-2.2,1-3.6,1-3.6c-0.5,0.4-1.6,1.2-2.5,1.2c-2,0.1-2.5-2.8-0.4-3.3C1079,390.8,1079.4,392.4,1079.1,393.2z"/>
	</g>
	<line fill="none" stroke="#000000" stroke-width="0.459" x1="1086.6" y1="409.6" x2="1094" y2="409.6"/>
	<g enable-background="new    ">
		<path d="M1091.3,407.5c1.4,0,2.2,1,1.8,2.2c-0.4,1.2-1.9,2.2-3.4,2.2c-1.4,0-2.2-1-1.7-2.2
			C1088.4,408.4,1089.9,407.5,1091.3,407.5z"/>
	</g>
	<line fill="none" stroke="#000000" stroke-width="0.459" x1="1092.6" y1="408.8" x2="1092.6" y2="390.4"/>
	<g enable-background="new    ">
		<path d="M1103.1,402.7c1.4,0,2.2,1,1.8,2.2c-0.4,1.2-1.9,2.2-3.4,2.2c-1.4,0-2.2-1-1.7-2.2
			C1100.2,403.6,1101.7,402.7,1103.1,402.7z"/>
	</g>
	<line fill="none" stroke="#000000" stroke-width="0.459" x1="1104.4" y1="404" x2="1104.4" y2="389.8"/>
	<g enable-background="new    ">
		<path d="M1114.7,400.3c1.4,0,2.2,1,1.8,2.2c-0.4,1.2-1.9,2.2-3.4,2.2c-1.4,0-2.2-1-1.7-2.2
			C1111.8,401.2,1113.3,400.3,1114.7,400.3z"/>
	</g>
	<line fill="none" stroke="#000000" stroke-width="0.459" x1="1116" y1="401.6" x2="1116" y2="389.2"/>
	<path d="M1092.3,389.2l23.9-1.2v2.4l-23.9,1.2V389.2z"/>
	<line fill="none" stroke="#000000" stroke-width="0.459" x1="1132.8" y1="399.2" x2="1132.8" y2="383.2"/>
	<g enable-background="new    ">
		<path d="M1131.5,397.9c1.4,0,2.2,1,1.8,2.2c-0.4,1.2-1.9,2.2-3.4,2.2s-2.2-1-1.7-2.2C1128.6,398.8,1130.1,397.9,1131.5,397.9z"/>
	</g>
	<line fill="none" stroke="#000000" stroke-width="0.459" x1="1152" y1="404" x2="1152" y2="388"/>
	<g enable-background="new    ">
		<path d="M1150.7,402.7c1.4,0,2.2,1,1.8,2.2c-0.4,1.2-1.9,2.2-3.4,2.2c-1.4,0-2.2-1-1.7-2.2
			C1147.8,403.6,1149.3,402.7,1150.7,402.7z"/>
	</g>
	<line fill="none" stroke="#000000" stroke-width="0.459" x1="1171.4" y1="408.8" x2="1171.4" y2="392.8"/>
	<line fill="none" stroke="#000000" stroke-width="0.459" x1="1165.4" y1="409.6" x2="1172.8" y2="409.6"/>
	<g enable-background="new    ">
		<path d="M1170.1,407.5c1.4,0,2.2,1,1.8,2.2c-0.4,1.2-1.9,2.2-3.4,2.2c-1.4,0-2.2-1-1.7-2.2
			C1167.2,408.4,1168.7,407.5,1170.1,407.5z"/>
	</g>
	<line fill="none" stroke="#000000" stroke-width="0.459" x1="1190.6" y1="404" x2="1190.6" y2="388"/>
	<g enable-background="new    ">
		<path d="M1189.3,402.7c1.4,0,2.2,1,1.8,2.2c-0.4,1.2-1.9,2.2-3.4,2.2c-1.4,0-2.2-1-1.7-2.2
			C1186.4,403.6,1187.9,402.7,1189.3,402.7z"/>
	</g>
	<line fill="none" stroke="#000000" stroke-width="0.459" x1="1216" y1="406.4" x2="1216" y2="390.4"/>
	<g enable-background="new    ">
		<path d="M1215.5,407.3c-0.3,0.9-1,1.5-1.6,1.8c-0.5,0.3-1.2,0.4-2,0.3c-0.5,0-1.3-0.2-1.6-0.7c-0.3-0.6-0.1-1.2,0-1.6
			c0.3-0.8,1-1.4,1.5-1.7c0.5-0.3,1.3-0.5,2.2-0.4c0.4,0,1.1,0.1,1.5,0.7C1215.8,406.2,1215.6,407,1215.5,407.3z M1213.5,406
			c-0.4,0.2-0.7,0.4-1,0.5c-0.3,0.2-0.6,0.4-1,0.6c-0.5,0.3-1.1,0.9-0.8,1.4c0.3,0.6,1.1,0.3,1.6,0c0.4-0.2,0.7-0.4,1-0.5
			c0.3-0.2,0.6-0.4,1-0.6c0.5-0.3,1.1-0.9,0.8-1.4C1214.9,405.4,1214.1,405.7,1213.5,406z"/>
	</g>
	<g enable-background="new    ">
		<path d="M1243.5,393.2c0.4,0,0.7-0.1,1.1-0.5c0.3-0.3,0.5-0.6,0.8-0.9l0.3,0.2l-2.1,8h-0.8c0,0,0.7-2.3,1.1-3.2
			c0.8-2.2,1-3.6,1-3.6c-0.5,0.4-1.6,1.2-2.5,1.2c-2,0.1-2.5-2.8-0.4-3.3C1243.4,390.8,1243.8,392.4,1243.5,393.2z"/>
	</g>
	<g enable-background="new    ">
		<path d="M1255.7,402.7c1.4,0,2.2,1,1.8,2.2c-0.4,1.2-1.9,2.2-3.4,2.2c-1.4,0-2.2-1-1.7-2.2
			C1252.8,403.6,1254.3,402.7,1255.7,402.7z"/>
	</g>
	<line fill="none" stroke="#000000" stroke-width="0.459" x1="1257" y1="404" x2="1257" y2="389.2"/>
	<g enable-background="new    ">
		<path d="M1267.5,402.7c1.4,0,2.2,1,1.8,2.2c-0.4,1.2-1.9,2.2-3.4,2.2s-2.2-1-1.7-2.2C1264.6,403.6,1266.1,402.7,1267.5,402.7z"/>
	</g>
	<line fill="none" stroke="#000000" stroke-width="0.459" x1="1268.8" y1="404" x2="1268.8" y2="389.2"/>
	<g enable-background="new    ">
		<path d="M1279.1,405.1c1.4,0,2.2,1,1.8,2.2c-0.4,1.2-1.9,2.2-3.4,2.2c-1.4,0-2.2-1-1.7-2.2C1276.2,406,1277.7,405.1,1279.1,405.1z
			"/>
	</g>
	<line fill="none" stroke="#000000" stroke-width="0.459" x1="1280.4" y1="406.4" x2="1280.4" y2="389.2"/>
	<path d="M1256.7,388h23.9v2.4h-23.9V388z"/>
	<g enable-background="new    ">
		<path d="M1213.5,379.8v-0.7l2.4,0v2.1c-0.4,0.3-0.8,0.5-1.2,0.7s-0.8,0.2-1.2,0.2c-0.6,0-1.1-0.1-1.5-0.4s-0.8-0.6-1-1
			s-0.4-1-0.4-1.5c0-0.6,0.1-1.1,0.3-1.6s0.6-0.8,1-1.1s0.9-0.4,1.5-0.4c0.4,0,0.8,0.1,1.1,0.2s0.6,0.3,0.8,0.6s0.3,0.6,0.4,0.9
			l-0.7,0.2c-0.1-0.3-0.2-0.5-0.3-0.7s-0.3-0.3-0.5-0.4s-0.5-0.2-0.8-0.2c-0.3,0-0.6,0.1-0.9,0.2s-0.5,0.2-0.6,0.4s-0.3,0.4-0.4,0.6
			c-0.1,0.4-0.2,0.7-0.2,1.2c0,0.5,0.1,0.9,0.3,1.3s0.4,0.6,0.8,0.8s0.7,0.2,1.1,0.2c0.3,0,0.6-0.1,1-0.2s0.5-0.3,0.7-0.4v-1.1
			H1213.5z"/>
	</g>
	<g enable-background="new    ">
		<path d="M1302,406.3c0.6,0,1,0.4,1,1c0,0.5-0.4,1-1,1s-1-0.4-1-1C1301,406.7,1301.4,406.3,1302,406.3z"/>
	</g>
	<line fill="none" stroke="#000000" stroke-width="0.459" x1="1298.6" y1="408.8" x2="1298.6" y2="392.8"/>
	<line fill="none" stroke="#000000" stroke-width="0.459" x1="1292.6" y1="409.6" x2="1300" y2="409.6"/>
	<g enable-background="new    ">
		<path d="M1297.3,407.5c1.4,0,2.2,1,1.8,2.2c-0.4,1.2-1.9,2.2-3.4,2.2c-1.4,0-2.2-1-1.7-2.2
			C1294.4,408.4,1295.9,407.5,1297.3,407.5z"/>
	</g>
	<g enable-background="new    ">
		<path d="M1325.4,394.9c0.6,0.9,1.4,1.9,2.1,3.1c0.6,1.1,1.2,2.7,1.2,3.5c0.1,0.8,0.2,1.6,0.2,2.3c0,1.2-0.2,2.2-0.6,3.3l-0.2,0
			c0.3-0.9,0.5-2.2,0.5-3.3c0-0.9-0.2-2.1-0.5-3.1c-0.6-1.7-1.5-2.7-2.1-3.1c-0.8-0.6-1.8-0.6-1.8-0.6h-0.3v-5h0.3
			C1324.3,393,1324.8,394.1,1325.4,394.9z"/>
	</g>
	<line fill="none" stroke="#000000" stroke-width="0.459" x1="1323.8" y1="408.8" x2="1323.8" y2="392.8"/>
	<line fill="none" stroke="#000000" stroke-width="0.459" x1="1317.8" y1="409.6" x2="1325.2" y2="409.6"/>
	<g enable-background="new    ">
		<path d="M1322.5,407.5c1.4,0,2.2,1,1.8,2.2c-0.4,1.2-1.9,2.2-3.4,2.2s-2.2-1-1.7-2.2C1319.6,408.4,1321.1,407.5,1322.5,407.5z"/>
	</g>
	<line fill="none" stroke="#000000" stroke-width="0.459" x1="1337.8" y1="404" x2="1337.8" y2="388"/>
	<g enable-background="new    ">
		<path d="M1336.5,402.7c1.4,0,2.2,1,1.8,2.2c-0.4,1.2-1.9,2.2-3.4,2.2s-2.2-1-1.7-2.2C1333.6,403.6,1335.1,402.7,1336.5,402.7z"/>
	</g>
	<line fill="none" stroke="#000000" stroke-width="0.459" x1="1356" y1="399.2" x2="1356" y2="383.2"/>
	<g enable-background="new    ">
		<path d="M1354.7,397.9c1.4,0,2.2,1,1.8,2.2c-0.4,1.2-1.9,2.2-3.4,2.2c-1.4,0-2.2-1-1.7-2.2
			C1351.8,398.8,1353.3,397.9,1354.7,397.9z"/>
	</g>
	<g enable-background="new    ">
		<path d="M1298.5,380l0.8,0.2c-0.2,0.6-0.4,1.1-0.9,1.4s-0.9,0.5-1.5,0.5c-0.6,0-1.1-0.1-1.5-0.4s-0.7-0.6-0.9-1.1s-0.3-1-0.3-1.5
			c0-0.6,0.1-1.1,0.3-1.6s0.6-0.8,1-1s0.9-0.3,1.4-0.3c0.6,0,1.1,0.1,1.4,0.4s0.7,0.7,0.8,1.2l-0.7,0.2c-0.1-0.4-0.3-0.7-0.6-0.9
			s-0.6-0.3-1-0.3c-0.4,0-0.8,0.1-1.1,0.3s-0.5,0.5-0.6,0.8s-0.2,0.7-0.2,1.1c0,0.5,0.1,0.9,0.2,1.3s0.4,0.6,0.7,0.8s0.6,0.3,1,0.3
			c0.4,0,0.8-0.1,1.1-0.4S1298.4,380.5,1298.5,380z"/>
	</g>
	<g enable-background="new    ">
		<path d="M1337.7,380l0.8,0.2c-0.2,0.6-0.4,1.1-0.9,1.4s-0.9,0.5-1.5,0.5c-0.6,0-1.1-0.1-1.5-0.4s-0.7-0.6-0.9-1.1s-0.3-1-0.3-1.5
			c0-0.6,0.1-1.1,0.3-1.6s0.6-0.8,1-1s0.9-0.3,1.4-0.3c0.6,0,1.1,0.1,1.4,0.4s0.7,0.7,0.8,1.2l-0.7,0.2c-0.1-0.4-0.3-0.7-0.6-0.9
			s-0.6-0.3-1-0.3c-0.4,0-0.8,0.1-1.1,0.3s-0.5,0.5-0.6,0.8s-0.2,0.7-0.2,1.1c0,0.5,0.1,0.9,0.2,1.3s0.4,0.6,0.7,0.8s0.6,0.3,1,0.3
			c0.4,0,0.8-0.1,1.1-0.4S1337.6,380.5,1337.7,380z"/>
	</g>
	<g enable-background="new    ">
		<path d="M1340.1,377.5v-0.6h3.3v0.5c-0.3,0.3-0.7,0.8-1,1.4c-0.3,0.6-0.6,1.2-0.7,1.8c-0.1,0.4-0.2,0.9-0.2,1.4h-0.7
			c0-0.4,0.1-0.9,0.2-1.5s0.4-1.1,0.7-1.7c0.3-0.5,0.6-1,0.9-1.3H1340.1z"/>
	</g>
	<g enable-background="new    ">
		<path d="M1381,385.3c0.6,0.9,1.4,1.9,2.1,3.1c0.6,1.1,1.2,2.7,1.2,3.5c0.1,0.8,0.2,1.6,0.2,2.3c0,1.2-0.2,2.2-0.6,3.3l-0.2,0
			c0.3-0.9,0.5-2.2,0.5-3.3c0-0.9-0.2-2.1-0.5-3.1c-0.6-1.7-1.5-2.7-2.1-3.1c-0.8-0.6-1.8-0.6-1.8-0.6h-0.3v-5h0.3
			C1379.9,383.4,1380.4,384.5,1381,385.3z"/>
	</g>
	<line fill="none" stroke="#000000" stroke-width="0.459" x1="1379.4" y1="399.2" x2="1379.4" y2="383.2"/>
	<g enable-background="new    ">
		<path d="M1378.1,397.9c1.4,0,2.2,1,1.8,2.2c-0.4,1.2-1.9,2.2-3.4,2.2c-1.4,0-2.2-1-1.7-2.2
			C1375.2,398.8,1376.7,397.9,1378.1,397.9z"/>
	</g>
	<g enable-background="new    ">
		<path d="M1396.4,401.5c0.6,0,1,0.4,1,1c0,0.5-0.4,1-1,1s-1-0.4-1-1C1395.4,401.9,1395.8,401.5,1396.4,401.5z"/>
	</g>
	<line fill="none" stroke="#000000" stroke-width="0.459" x1="1393" y1="401.6" x2="1393" y2="385.6"/>
	<g enable-background="new    ">
		<path d="M1391.7,400.3c1.4,0,2.2,1,1.8,2.2c-0.4,1.2-1.9,2.2-3.4,2.2c-1.4,0-2.2-1-1.7-2.2
			C1388.8,401.2,1390.3,400.3,1391.7,400.3z"/>
	</g>
	<g enable-background="new    ">
		<path d="M1411.5,393.2c0.4,0,0.7-0.1,1.1-0.5c0.3-0.3,0.5-0.6,0.8-0.9l0.3,0.2l-2.1,8h-0.8c0,0,0.7-2.3,1.1-3.2
			c0.8-2.2,1-3.6,1-3.6c-0.5,0.4-1.6,1.2-2.5,1.2c-2,0.1-2.5-2.8-0.4-3.3C1411.4,390.8,1411.8,392.4,1411.5,393.2z"/>
	</g>
	<g enable-background="new    ">
		<path d="M1422.7,400.3c1.4,0,2.2,1,1.8,2.2c-0.4,1.2-1.9,2.2-3.4,2.2c-1.4,0-2.2-1-1.7-2.2
			C1419.8,401.2,1421.3,400.3,1422.7,400.3z"/>
	</g>
	<line fill="none" stroke="#000000" stroke-width="0.459" x1="1424" y1="401.6" x2="1424" y2="386.8"/>
	<g enable-background="new    ">
		<path d="M1433.5,402.7c1.4,0,2.2,1,1.8,2.2c-0.4,1.2-1.9,2.2-3.4,2.2s-2.2-1-1.7-2.2C1430.6,403.6,1432.1,402.7,1433.5,402.7z"/>
	</g>
	<line fill="none" stroke="#000000" stroke-width="0.459" x1="1434.8" y1="404" x2="1434.8" y2="386.8"/>
	<g enable-background="new    ">
		<path d="M1444.3,400.3c1.4,0,2.2,1,1.8,2.2c-0.4,1.2-1.9,2.2-3.4,2.2c-1.4,0-2.2-1-1.7-2.2
			C1441.4,401.2,1442.9,400.3,1444.3,400.3z"/>
	</g>
	<line fill="none" stroke="#000000" stroke-width="0.459" x1="1445.6" y1="401.6" x2="1445.6" y2="386.8"/>
	<path d="M1423.7,385.6h22.1v2.4h-22.1V385.6z"/>
	<g enable-background="new    ">
		<path d="M1375.3,382v-5.7h3.9v0.7h-3.1v1.8h2.7v0.7h-2.7v2.6H1375.3z"/>
	</g>
	<line fill="none" stroke="#000000" stroke-width="0.459" x1="1461.6" y1="399.2" x2="1461.6" y2="383.2"/>
	<g enable-background="new    ">
		<path d="M1460.3,397.9c1.4,0,2.2,1,1.8,2.2c-0.4,1.2-1.9,2.2-3.4,2.2c-1.4,0-2.2-1-1.7-2.2
			C1457.4,398.8,1458.9,397.9,1460.3,397.9z"/>
	</g>
	<line fill="none" stroke="#000000" stroke-width="0.459" x1="1480.8" y1="404" x2="1480.8" y2="388"/>
	<g enable-background="new    ">
		<path d="M1479.5,402.7c1.4,0,2.2,1,1.8,2.2c-0.4,1.2-1.9,2.2-3.4,2.2s-2.2-1-1.7-2.2C1476.6,403.6,1478.1,402.7,1479.5,402.7z"/>
	</g>
	<line fill="none" stroke="#000000" stroke-width="0.459" x1="1500.2" y1="406.4" x2="1500.2" y2="390.4"/>
	<g enable-background="new    ">
		<path d="M1498.9,405.1c1.4,0,2.2,1,1.8,2.2c-0.4,1.2-1.9,2.2-3.4,2.2c-1.4,0-2.2-1-1.7-2.2C1496,406,1497.5,405.1,1498.9,405.1z"
			/>
	</g>
	<line fill="none" stroke="#000000" stroke-width="0.459" x1="1519.4" y1="406.4" x2="1519.4" y2="390.4"/>
	<g enable-background="new    ">
		<path d="M1518.1,405.1c1.4,0,2.2,1,1.8,2.2c-0.4,1.2-1.9,2.2-3.4,2.2c-1.4,0-2.2-1-1.7-2.2C1515.2,406,1516.7,405.1,1518.1,405.1z
			"/>
	</g>
	<g enable-background="new    ">
		<path d="M1461.5,380l0.8,0.2c-0.2,0.6-0.4,1.1-0.9,1.4s-0.9,0.5-1.5,0.5c-0.6,0-1.1-0.1-1.5-0.4s-0.7-0.6-0.9-1.1s-0.3-1-0.3-1.5
			c0-0.6,0.1-1.1,0.3-1.6s0.6-0.8,1-1s0.9-0.3,1.4-0.3c0.6,0,1.1,0.1,1.4,0.4s0.7,0.7,0.8,1.2l-0.7,0.2c-0.1-0.4-0.3-0.7-0.6-0.9
			s-0.6-0.3-1-0.3c-0.4,0-0.8,0.1-1.1,0.3s-0.5,0.5-0.6,0.8s-0.2,0.7-0.2,1.1c0,0.5,0.1,0.9,0.2,1.3s0.4,0.6,0.7,0.8s0.6,0.3,1,0.3
			c0.4,0,0.8-0.1,1.1-0.4S1461.4,380.5,1461.5,380z"/>
	</g>
	<g enable-background="new    ">
		<path d="M1498.7,379.8v-0.7l2.4,0v2.1c-0.4,0.3-0.8,0.5-1.2,0.7c-0.4,0.1-0.8,0.2-1.2,0.2c-0.6,0-1.1-0.1-1.5-0.4
			c-0.5-0.2-0.8-0.6-1-1s-0.4-1-0.4-1.5c0-0.6,0.1-1.1,0.3-1.6c0.2-0.5,0.6-0.8,1-1.1s0.9-0.4,1.5-0.4c0.4,0,0.8,0.1,1.1,0.2
			c0.3,0.1,0.6,0.3,0.8,0.6c0.2,0.2,0.3,0.6,0.4,0.9l-0.7,0.2c-0.1-0.3-0.2-0.5-0.3-0.7c-0.1-0.2-0.3-0.3-0.5-0.4
			c-0.2-0.1-0.5-0.2-0.8-0.2c-0.3,0-0.6,0.1-0.9,0.2c-0.3,0.1-0.5,0.2-0.6,0.4c-0.2,0.2-0.3,0.4-0.4,0.6c-0.1,0.4-0.2,0.7-0.2,1.2
			c0,0.5,0.1,0.9,0.3,1.3s0.4,0.6,0.8,0.8s0.7,0.2,1.1,0.2c0.3,0,0.6-0.1,1-0.2s0.5-0.3,0.7-0.4v-1.1H1498.7z"/>
	</g>
	<line fill="none" stroke="#000000" stroke-width="0.459" x1="1546.2" y1="408.8" x2="1546.2" y2="392.8"/>
	<line fill="none" stroke="#000000" stroke-width="0.459" x1="1539.2" y1="409.6" x2="1547.6" y2="409.6"/>
	<g enable-background="new    ">
		<path d="M1545.7,409.7c-0.3,0.9-1,1.5-1.6,1.8c-0.5,0.3-1.2,0.4-2,0.3c-0.5,0-1.3-0.2-1.6-0.7c-0.3-0.6-0.1-1.2,0-1.6
			c0.3-0.8,1-1.4,1.5-1.7c0.5-0.3,1.3-0.5,2.2-0.4c0.4,0,1.1,0.1,1.5,0.7C1546,408.6,1545.8,409.4,1545.7,409.7z M1543.7,408.4
			c-0.4,0.2-0.7,0.4-1,0.5c-0.3,0.2-0.6,0.4-1,0.6c-0.5,0.3-1.1,0.9-0.8,1.4c0.3,0.6,1.1,0.3,1.6,0c0.4-0.2,0.7-0.4,1-0.5
			c0.3-0.2,0.6-0.4,1-0.6c0.5-0.3,1.1-0.9,0.8-1.4C1545.1,407.8,1544.3,408.1,1543.7,408.4z"/>
	</g>
	<g enable-background="new    ">
		<path d="M1577.1,393.2c0.4,0,0.7-0.1,1.1-0.5c0.3-0.3,0.5-0.6,0.8-0.9l0.3,0.2l-2.1,8h-0.8c0,0,0.7-2.3,1.1-3.2
			c0.8-2.2,1-3.6,1-3.6c-0.5,0.4-1.6,1.2-2.5,1.2c-2,0.1-2.5-2.8-0.4-3.3C1577,390.8,1577.4,392.4,1577.1,393.2z"/>
	</g>
	<g enable-background="new    ">
		<path d="M1545.1,380l0.8,0.2c-0.2,0.6-0.4,1.1-0.9,1.4c-0.4,0.3-0.9,0.5-1.5,0.5c-0.6,0-1.1-0.1-1.5-0.4s-0.7-0.6-0.9-1.1
			c-0.2-0.5-0.3-1-0.3-1.5c0-0.6,0.1-1.1,0.3-1.6c0.2-0.4,0.6-0.8,1-1c0.4-0.2,0.9-0.3,1.4-0.3c0.6,0,1.1,0.1,1.4,0.4
			s0.7,0.7,0.8,1.2l-0.7,0.2c-0.1-0.4-0.3-0.7-0.6-0.9c-0.3-0.2-0.6-0.3-1-0.3c-0.4,0-0.8,0.1-1.1,0.3c-0.3,0.2-0.5,0.5-0.6,0.8
			c-0.1,0.4-0.2,0.7-0.2,1.1c0,0.5,0.1,0.9,0.2,1.3c0.1,0.4,0.4,0.6,0.7,0.8c0.3,0.2,0.6,0.3,1,0.3c0.4,0,0.8-0.1,1.1-0.4
			C1544.8,380.8,1545,380.5,1545.1,380z"/>
	</g>
	<g enable-background="new    ">
		<path d="M1592.1,375v-4.6h3.3v0.5h-2.7v1.4h2.5v0.5h-2.5v1.6h2.8v0.5H1592.1z"/>
		<path d="M1596.1,374l0.6-0.1c0,0.2,0.1,0.4,0.3,0.5c0.1,0.1,0.3,0.2,0.6,0.2c0.3,0,0.5-0.1,0.6-0.2c0.1-0.1,0.2-0.2,0.2-0.4
			c0-0.1-0.1-0.2-0.2-0.3c-0.1,0-0.3-0.1-0.6-0.2c-0.4-0.1-0.7-0.2-0.9-0.3c-0.2-0.1-0.3-0.2-0.4-0.3c-0.1-0.1-0.1-0.3-0.1-0.4
			c0-0.1,0-0.3,0.1-0.4s0.2-0.2,0.3-0.3c0.1-0.1,0.2-0.1,0.4-0.2c0.2,0,0.3-0.1,0.5-0.1c0.3,0,0.5,0,0.7,0.1
			c0.2,0.1,0.3,0.2,0.4,0.3s0.2,0.3,0.2,0.5l-0.6,0.1c0-0.2-0.1-0.3-0.2-0.4c-0.1-0.1-0.3-0.1-0.5-0.1c-0.3,0-0.4,0-0.6,0.1
			c-0.1,0.1-0.2,0.2-0.2,0.3c0,0.1,0,0.1,0.1,0.2c0,0.1,0.1,0.1,0.2,0.2c0.1,0,0.2,0.1,0.5,0.1c0.4,0.1,0.7,0.2,0.8,0.3
			c0.2,0.1,0.3,0.2,0.4,0.3s0.1,0.3,0.1,0.5c0,0.2-0.1,0.4-0.2,0.5s-0.3,0.3-0.5,0.4c-0.2,0.1-0.4,0.1-0.7,0.1c-0.4,0-0.8-0.1-1-0.3
			C1596.3,374.6,1596.1,374.4,1596.1,374z"/>
		<path d="M1599.5,376.3v-4.6h0.5v0.4c0.1-0.2,0.3-0.3,0.4-0.4c0.2-0.1,0.3-0.1,0.6-0.1c0.3,0,0.5,0.1,0.8,0.2
			c0.2,0.1,0.4,0.4,0.5,0.6c0.1,0.3,0.2,0.6,0.2,0.9c0,0.3-0.1,0.6-0.2,0.9c-0.1,0.3-0.3,0.5-0.5,0.6c-0.2,0.1-0.5,0.2-0.7,0.2
			c-0.2,0-0.4,0-0.5-0.1c-0.1-0.1-0.3-0.2-0.4-0.3v1.6H1599.5z M1600,373.4c0,0.4,0.1,0.7,0.3,0.9c0.2,0.2,0.4,0.3,0.6,0.3
			c0.2,0,0.5-0.1,0.6-0.3c0.2-0.2,0.3-0.5,0.3-1c0-0.4-0.1-0.7-0.3-1c-0.2-0.2-0.4-0.3-0.6-0.3c-0.2,0-0.5,0.1-0.6,0.3
			C1600.1,372.6,1600,372.9,1600,373.4z"/>
		<path d="M1603.1,371.1v-0.6h0.6v0.6H1603.1z M1603.1,375v-3.3h0.6v3.3H1603.1z"/>
		<path d="M1604.5,375v-3.3h0.5v0.5c0.1-0.2,0.2-0.4,0.4-0.5s0.2-0.1,0.4-0.1c0.2,0,0.4,0.1,0.6,0.2l-0.2,0.5
			c-0.1-0.1-0.3-0.1-0.4-0.1c-0.1,0-0.2,0-0.3,0.1c-0.1,0.1-0.2,0.2-0.2,0.3c-0.1,0.2-0.1,0.4-0.1,0.7v1.7H1604.5z"/>
		<path d="M1606.6,371.1v-0.6h0.6v0.6H1606.6z M1606.6,375v-3.3h0.6v3.3H1606.6z"/>
		<path d="M1609.3,374.5l0.1,0.5c-0.2,0-0.3,0-0.4,0c-0.2,0-0.4,0-0.5-0.1s-0.2-0.1-0.2-0.3s-0.1-0.3-0.1-0.7v-1.9h-0.4v-0.4h0.4
			v-0.8l0.6-0.3v1.2h0.6v0.4h-0.6v1.9c0,0.2,0,0.3,0,0.3c0,0,0.1,0.1,0.1,0.1c0,0,0.1,0,0.2,0
			C1609.1,374.5,1609.2,374.5,1609.3,374.5z"/>
		<path d="M1612,375v-0.5c-0.3,0.4-0.6,0.6-1.1,0.6c-0.2,0-0.4,0-0.5-0.1c-0.2-0.1-0.3-0.2-0.4-0.3c-0.1-0.1-0.1-0.3-0.2-0.4
			c0-0.1,0-0.3,0-0.5v-2.1h0.6v1.8c0,0.3,0,0.5,0,0.6c0,0.1,0.1,0.3,0.2,0.3c0.1,0.1,0.3,0.1,0.4,0.1s0.3,0,0.5-0.1
			c0.1-0.1,0.3-0.2,0.3-0.4c0.1-0.1,0.1-0.4,0.1-0.6v-1.8h0.6v3.3H1612z"/>
		<path d="M1615.5,374.6c-0.2,0.2-0.4,0.3-0.6,0.4c-0.2,0.1-0.4,0.1-0.6,0.1c-0.4,0-0.6-0.1-0.8-0.3c-0.2-0.2-0.3-0.4-0.3-0.7
			c0-0.2,0-0.3,0.1-0.4s0.2-0.2,0.3-0.3s0.3-0.1,0.4-0.2c0.1,0,0.3-0.1,0.5-0.1c0.5-0.1,0.8-0.1,1-0.2c0-0.1,0-0.1,0-0.1
			c0-0.2-0.1-0.4-0.2-0.5c-0.1-0.1-0.4-0.2-0.6-0.2c-0.3,0-0.5,0-0.6,0.1c-0.1,0.1-0.2,0.3-0.3,0.5l-0.5-0.1c0-0.2,0.1-0.4,0.2-0.6
			c0.1-0.1,0.3-0.3,0.5-0.3s0.5-0.1,0.8-0.1c0.3,0,0.5,0,0.7,0.1c0.2,0.1,0.3,0.2,0.4,0.3c0.1,0.1,0.1,0.2,0.2,0.4
			c0,0.1,0,0.3,0,0.5v0.8c0,0.5,0,0.9,0,1s0.1,0.3,0.1,0.4h-0.6C1615.6,374.9,1615.5,374.7,1615.5,374.6z M1615.5,373.3
			c-0.2,0.1-0.5,0.2-0.9,0.2c-0.2,0-0.4,0.1-0.5,0.1c-0.1,0-0.2,0.1-0.2,0.2c-0.1,0.1-0.1,0.2-0.1,0.3c0,0.2,0.1,0.3,0.2,0.4
			s0.3,0.2,0.5,0.2c0.2,0,0.4,0,0.6-0.1s0.3-0.2,0.4-0.4c0.1-0.1,0.1-0.3,0.1-0.6V373.3z"/>
		<path d="M1616.9,375v-4.6h0.6v4.6H1616.9z"/>
	</g>
</g>
</svg>
