<?xml version="1.0" encoding="utf-8"?>
<!-- Generator: Adobe Illustrator 16.0.0, SVG Export Plug-In . SVG Version: 6.00 Build 0)  -->
<!DOCTYPE svg PUBLIC "-//W3C//DTD SVG 1.1//EN" "http://www.w3.org/Graphics/SVG/1.1/DTD/svg11.dtd">
<svg version="1.1" id="Layer_1" xmlns="http://www.w3.org/2000/svg" xmlns:xlink="http://www.w3.org/1999/xlink" x="0px" y="0px"
	 width="4032px" height="59.3px" viewBox="1376 329.3 4032 59.3" enable-background="new 1376 329.3 4032 59.3"
	 xml:space="preserve">
<g id="Music">
	<rect x="1376" y="314.4" fill="#FFFFFF" width="4032" height="93.6"/>
	<g enable-background="new    ">
		<path d="M1413.8,372.8c-4-1.9-4.6-4.3-4.8-6.8c-0.2-2.7,1.5-5.4,3.1-6.9c0.9-0.9,1.9-1.7,3.1-2.6c0-0.7-0.2-0.9-0.3-1.9
			c0-0.4-0.3-2.3,0.1-4.5c0.2-1.3,1.9-4.3,3-4.3c0.9,0,2.2,3.4,2.2,5.2c0.1,2.7-0.6,3.9-1.4,5.3c-0.4,0.7-0.8,1.2-1.3,1.7
			c-0.5,0.6-1,0.9-1.5,1.3c0,0,0.6,3.5,0.6,3.7c1.2-0.2,2.7,0.3,3.3,0.7c1.4,1,1.9,2.4,2,3.8c0.2,2.2-1,4.5-3.6,5.5
			c0,0,0.4,2.8,0.5,3.3c0.2,1.5,0.2,2.5-0.2,3.1c-0.6,1-1.5,2-3.2,2.1c-1.3,0.1-4-0.6-4.1-2.7c-0.1-1.2,0.5-2.6,2-2.7
			c0.9-0.1,2,0.7,2.1,1.8c0.1,0.9-0.5,1.9-2.1,2.4c0.2,0.3,1,0.7,2.1,0.7c1.1,0,2.3-0.7,2.8-1.7c0.3-0.7,0.3-1.8,0.2-2.9
			c-0.1-0.4-0.5-3.3-0.5-3.3C1416.5,373.3,1414.6,373.1,1413.8,372.8z M1414.1,368.2c0,0.9,0.8,2,1.5,2.4c-0.1,0.1-0.2,0.2-0.2,0.2
			c-0.8-0.4-1.5-1-1.6-1.2c-0.6-0.7-0.8-1.2-0.9-2.3c-0.1-1.1,0.5-2.5,1.8-3.5c0.7-0.5,1-0.6,1.6-0.7l-0.6-3.5
			c-0.6,0.3-3.1,2.3-4.1,3.9c-0.9,1.4-1.5,2.6-1.4,4c0.2,3.2,3.7,5.8,7.5,4.9c0,0-1.1-6.8-1.1-6.8
			C1414.6,365.7,1414.1,367.3,1414.1,368.2z M1415.7,356c1.7-1.3,3.9-3.8,3.8-5.7c0-0.6-0.3-1.7-1.2-1.7
			C1416.4,348.7,1415.3,352.9,1415.7,356z M1418.3,372.2c2.2-0.7,2.3-2.6,2.2-3.8c-0.1-0.9-0.5-3.1-3.3-2.9L1418.3,372.2z"/>
	</g>
	<g enable-background="new    ">
		<path d="M1434.2,370.3v1.3c0,0.8,0.9,0.7,0.9,0.7v0.5h-4.2v-0.5c0,0,0.9,0,0.9-0.7v-1.3h-3.6l-0.3-0.4c2.3-3.1,2.3-3.7,2.9-6.5
			h3.3c-0.8,1.5-3.4,4.2-5.3,6.4h3v-2.4l2.3-2.6v4.9h1.4v0.5H1434.2z"/>
	</g>
	<g enable-background="new    ">
		<path d="M1434.2,360.7v1.3c0,0.8,0.9,0.7,0.9,0.7v0.5h-4.2v-0.5c0,0,0.9,0,0.9-0.7v-1.3h-3.6l-0.3-0.4c2.3-3.1,2.3-3.7,2.9-6.5
			h3.3c-0.8,1.5-3.4,4.2-5.3,6.4h3v-2.4l2.3-2.6v4.9h1.4v0.5H1434.2z"/>
	</g>
	<line fill="none" stroke="#000000" stroke-width="0.459" x1="1468.8" y1="353.8" x2="1468.8" y2="373"/>
	<line fill="none" stroke="#000000" stroke-width="0.459" x1="1529.8" y1="353.8" x2="1529.8" y2="373"/>
	<line fill="none" stroke="#000000" stroke-width="0.459" x1="1590.8" y1="353.8" x2="1590.8" y2="373"/>
	<line fill="none" stroke="#000000" stroke-width="0.459" x1="1651.8" y1="353.8" x2="1651.8" y2="373"/>
	<line fill="none" stroke="#000000" stroke-width="0.459" x1="1712.8" y1="353.8" x2="1712.8" y2="373"/>
	<line fill="none" stroke="#000000" stroke-width="0.459" x1="1773.8" y1="353.8" x2="1773.8" y2="373"/>
	<line fill="none" stroke="#000000" stroke-width="0.459" x1="1834.8" y1="353.8" x2="1834.8" y2="373"/>
	<line fill="none" stroke="#000000" stroke-width="0.459" x1="1895.8" y1="353.8" x2="1895.8" y2="373"/>
	<line fill="none" stroke="#000000" stroke-width="0.459" x1="1956.8" y1="353.8" x2="1956.8" y2="373"/>
	<line fill="none" stroke="#000000" stroke-width="0.459" x1="2017.8" y1="353.8" x2="2017.8" y2="373"/>
	<line fill="none" stroke="#000000" stroke-width="0.459" x1="2078.8" y1="353.8" x2="2078.8" y2="373"/>
	<line fill="none" stroke="#000000" stroke-width="0.459" x1="2139.8" y1="353.8" x2="2139.8" y2="373"/>
	<line fill="none" stroke="#000000" stroke-width="0.459" x1="2200.8" y1="353.8" x2="2200.8" y2="373"/>
	<line fill="none" stroke="#000000" stroke-width="0.459" x1="2261.8" y1="353.8" x2="2261.8" y2="373"/>
	<line fill="none" stroke="#000000" stroke-width="0.459" x1="2322.8" y1="353.8" x2="2322.8" y2="373"/>
	<line fill="none" stroke="#000000" stroke-width="0.459" x1="2383.8" y1="353.8" x2="2383.8" y2="373"/>
	<line fill="none" stroke="#000000" stroke-width="0.459" x1="2444.8" y1="353.8" x2="2444.8" y2="373"/>
	<line fill="none" stroke="#000000" stroke-width="0.459" x1="2505.8" y1="353.8" x2="2505.8" y2="373"/>
	<line fill="none" stroke="#000000" stroke-width="0.459" x1="2566.8" y1="353.8" x2="2566.8" y2="373"/>
	<line fill="none" stroke="#000000" stroke-width="0.459" x1="2627.8" y1="353.8" x2="2627.8" y2="373"/>
	<line fill="none" stroke="#000000" stroke-width="0.459" x1="2688.8" y1="353.8" x2="2688.8" y2="373"/>
	<line fill="none" stroke="#000000" stroke-width="0.459" x1="2749.8" y1="353.8" x2="2749.8" y2="373"/>
	<line fill="none" stroke="#000000" stroke-width="0.459" x1="2810.8" y1="353.8" x2="2810.8" y2="373"/>
	<line fill="none" stroke="#000000" stroke-width="0.459" x1="2871.8" y1="353.8" x2="2871.8" y2="373"/>
	<line fill="none" stroke="#000000" stroke-width="0.459" x1="2932.8" y1="353.8" x2="2932.8" y2="373"/>
	<line fill="none" stroke="#000000" stroke-width="0.459" x1="2993.8" y1="353.8" x2="2993.8" y2="373"/>
	<line fill="none" stroke="#000000" stroke-width="0.459" x1="3054.8" y1="353.8" x2="3054.8" y2="373"/>
	<line fill="none" stroke="#000000" stroke-width="0.459" x1="3115.8" y1="353.8" x2="3115.8" y2="373"/>
	<line fill="none" stroke="#000000" stroke-width="0.459" x1="3176.8" y1="353.8" x2="3176.8" y2="373"/>
	<line fill="none" stroke="#000000" stroke-width="0.459" x1="3237.8" y1="353.8" x2="3237.8" y2="373"/>
	<line fill="none" stroke="#000000" stroke-width="0.459" x1="3298.8" y1="353.8" x2="3298.8" y2="373"/>
	<line fill="none" stroke="#000000" stroke-width="0.459" x1="3359.8" y1="353.8" x2="3359.8" y2="373"/>
	<line fill="none" stroke="#000000" stroke-width="0.459" x1="3420.8" y1="353.8" x2="3420.8" y2="373"/>
	<line fill="none" stroke="#000000" stroke-width="0.459" x1="3481.8" y1="353.8" x2="3481.8" y2="373"/>
	<line fill="none" stroke="#000000" stroke-width="0.459" x1="3542.8" y1="353.8" x2="3542.8" y2="373"/>
	<line fill="none" stroke="#000000" stroke-width="0.459" x1="3603.8" y1="353.8" x2="3603.8" y2="373"/>
	<line fill="none" stroke="#000000" stroke-width="0.459" x1="3664.8" y1="353.8" x2="3664.8" y2="373"/>
	<line fill="none" stroke="#000000" stroke-width="0.459" x1="3725.8" y1="353.8" x2="3725.8" y2="373"/>
	<line fill="none" stroke="#000000" stroke-width="0.459" x1="3786.8" y1="353.8" x2="3786.8" y2="373"/>
	<line fill="none" stroke="#000000" stroke-width="0.459" x1="3847.8" y1="353.8" x2="3847.8" y2="373"/>
	<line fill="none" stroke="#000000" stroke-width="0.459" x1="3908.8" y1="353.8" x2="3908.8" y2="373"/>
	<line fill="none" stroke="#000000" stroke-width="0.459" x1="3969.8" y1="353.8" x2="3969.8" y2="373"/>
	<line fill="none" stroke="#000000" stroke-width="0.459" x1="4030.8" y1="353.8" x2="4030.8" y2="373"/>
	<line fill="none" stroke="#000000" stroke-width="0.459" x1="4091.8" y1="353.8" x2="4091.8" y2="373"/>
	<line fill="none" stroke="#000000" stroke-width="0.459" x1="4152.8" y1="353.8" x2="4152.8" y2="373"/>
	<line fill="none" stroke="#000000" stroke-width="0.459" x1="4213.8" y1="353.8" x2="4213.8" y2="373"/>
	<line fill="none" stroke="#000000" stroke-width="0.459" x1="4274.8" y1="353.8" x2="4274.8" y2="373"/>
	<line fill="none" stroke="#000000" stroke-width="0.459" x1="4335.8" y1="353.8" x2="4335.8" y2="373"/>
	<line fill="none" stroke="#000000" stroke-width="0.459" x1="4396.8" y1="353.8" x2="4396.8" y2="373"/>
	<line fill="none" stroke="#000000" stroke-width="0.459" x1="4457.8" y1="353.8" x2="4457.8" y2="373"/>
	<line fill="none" stroke="#000000" stroke-width="0.459" x1="4518.8" y1="353.8" x2="4518.8" y2="373"/>
	<line fill="none" stroke="#000000" stroke-width="0.459" x1="4579.8" y1="353.8" x2="4579.8" y2="373"/>
	<line fill="none" stroke="#000000" stroke-width="0.459" x1="4640.8" y1="353.8" x2="4640.8" y2="373"/>
	<line fill="none" stroke="#000000" stroke-width="0.459" x1="4701.8" y1="353.8" x2="4701.8" y2="373"/>
	<line fill="none" stroke="#000000" stroke-width="0.459" x1="4762.8" y1="353.8" x2="4762.8" y2="373"/>
	<line fill="none" stroke="#000000" stroke-width="0.459" x1="4823.8" y1="353.8" x2="4823.8" y2="373"/>
	<line fill="none" stroke="#000000" stroke-width="0.459" x1="4884.8" y1="353.8" x2="4884.8" y2="373"/>
	<line fill="none" stroke="#000000" stroke-width="0.459" x1="4945.8" y1="353.8" x2="4945.8" y2="373"/>
	<line fill="none" stroke="#000000" stroke-width="0.459" x1="5006.8" y1="353.8" x2="5006.8" y2="373"/>
	<line fill="none" stroke="#000000" stroke-width="0.459" x1="5067.8" y1="353.8" x2="5067.8" y2="373"/>
	<line fill="none" stroke="#000000" stroke-width="0.459" x1="5128.8" y1="353.8" x2="5128.8" y2="373"/>
	<line fill="none" stroke="#000000" stroke-width="0.459" x1="5189.8" y1="353.8" x2="5189.8" y2="373"/>
	<line fill="none" stroke="#000000" stroke-width="0.459" x1="5250.8" y1="353.8" x2="5250.8" y2="373"/>
	<line fill="none" stroke="#000000" stroke-width="0.459" x1="5311.8" y1="353.8" x2="5311.8" y2="373"/>
	<line fill="none" stroke="#000000" stroke-width="2.419" x1="5378.6" y1="353.8" x2="5378.6" y2="373"/>
	<line fill="none" stroke="#000000" stroke-width="0.459" x1="5374.7" y1="353.8" x2="5374.7" y2="373"/>
	<line fill="none" stroke="#000000" stroke-width="0.459" x1="1404.2" y1="353.8" x2="5379.8" y2="353.8"/>
	<line fill="none" stroke="#000000" stroke-width="0.459" x1="1404.2" y1="358.6" x2="5379.8" y2="358.6"/>
	<line fill="none" stroke="#000000" stroke-width="0.459" x1="1404.2" y1="363.4" x2="5379.8" y2="363.4"/>
	<line fill="none" stroke="#000000" stroke-width="0.459" x1="1404.2" y1="368.2" x2="5379.8" y2="368.2"/>
	<line fill="none" stroke="#000000" stroke-width="0.459" x1="1404.2" y1="373" x2="5379.8" y2="373"/>
	<line fill="none" stroke="#000000" stroke-width="0.459" x1="1447.8" y1="372.2" x2="1447.8" y2="356.2"/>
	<g enable-background="new    ">
		<path d="M1446.5,370.9c1.4,0,2.2,1,1.8,2.2c-0.4,1.2-1.9,2.2-3.4,2.2c-1.4,0-2.2-1-1.7-2.2
			C1443.6,371.8,1445.1,370.9,1446.5,370.9z"/>
	</g>
	<line fill="none" stroke="#000000" stroke-width="0.459" x1="1460.6" y1="367.4" x2="1460.6" y2="351.4"/>
	<g enable-background="new    ">
		<path d="M1459.3,366.1c1.4,0,2.2,1,1.8,2.2c-0.4,1.2-1.9,2.2-3.4,2.2c-1.4,0-2.2-1-1.7-2.2C1456.4,367,1457.9,366.1,1459.3,366.1z
			"/>
	</g>
	<line fill="none" stroke="#000000" stroke-width="0.459" x1="1479.6" y1="365" x2="1479.6" y2="349"/>
	<g enable-background="new    ">
		<path d="M1479.1,365.9c-0.3,0.9-1,1.5-1.6,1.8c-0.5,0.3-1.2,0.4-2,0.3c-0.5,0-1.3-0.2-1.6-0.7c-0.3-0.6-0.1-1.2,0-1.6
			c0.3-0.8,1-1.4,1.5-1.7c0.5-0.3,1.3-0.5,2.2-0.4c0.4,0,1.1,0.1,1.5,0.7C1479.4,364.8,1479.2,365.6,1479.1,365.9z M1477.1,364.6
			c-0.4,0.2-0.7,0.4-1,0.5c-0.3,0.2-0.6,0.4-1,0.6c-0.5,0.3-1.1,0.9-0.8,1.4c0.3,0.6,1.1,0.3,1.6,0c0.4-0.2,0.7-0.4,1-0.5
			c0.3-0.2,0.6-0.4,1-0.6c0.5-0.3,1.1-0.9,0.8-1.4C1478.5,364,1477.7,364.3,1477.1,364.6z"/>
	</g>
	<line fill="none" stroke="#000000" stroke-width="0.459" x1="1507.6" y1="365" x2="1507.6" y2="349"/>
	<g enable-background="new    ">
		<path d="M1507.1,365.9c-0.3,0.9-1,1.5-1.6,1.8c-0.5,0.3-1.2,0.4-2,0.3c-0.5,0-1.3-0.2-1.6-0.7c-0.3-0.6-0.1-1.2,0-1.6
			c0.3-0.8,1-1.4,1.5-1.7c0.5-0.3,1.3-0.5,2.2-0.4c0.4,0,1.1,0.1,1.5,0.7C1507.4,364.8,1507.2,365.6,1507.1,365.9z M1505.1,364.6
			c-0.4,0.2-0.7,0.4-1,0.5c-0.3,0.2-0.6,0.4-1,0.6c-0.5,0.3-1.1,0.9-0.8,1.4c0.3,0.6,1.1,0.3,1.6,0c0.4-0.2,0.7-0.4,1-0.5
			c0.3-0.2,0.6-0.4,1-0.6c0.5-0.3,1.1-0.9,0.8-1.4C1506.5,364,1505.7,364.3,1505.1,364.6z"/>
	</g>
	<g enable-background="new    ">
		<path d="M1444.2,339l2.2-5.7h0.8l2.3,5.7h-0.9l-0.7-1.7h-2.4l-0.6,1.7H1444.2z M1445.8,336.6h1.9l-0.6-1.6
			c-0.2-0.5-0.3-0.9-0.4-1.2c-0.1,0.4-0.2,0.7-0.3,1.1L1445.8,336.6z"/>
	</g>
	<g enable-background="new    ">
		<path d="M1477.9,347l0.8,0.2c-0.2,0.6-0.4,1.1-0.9,1.4s-0.9,0.5-1.5,0.5c-0.6,0-1.1-0.1-1.5-0.4s-0.7-0.6-0.9-1.1s-0.3-1-0.3-1.5
			c0-0.6,0.1-1.1,0.3-1.6s0.6-0.8,1-1s0.9-0.3,1.4-0.3c0.6,0,1.1,0.1,1.4,0.4s0.7,0.7,0.8,1.2l-0.7,0.2c-0.1-0.4-0.3-0.7-0.6-0.9
			s-0.6-0.3-1-0.3c-0.4,0-0.8,0.1-1.1,0.3s-0.5,0.5-0.6,0.8s-0.2,0.7-0.2,1.1c0,0.5,0.1,0.9,0.2,1.3s0.4,0.6,0.7,0.8s0.6,0.3,1,0.3
			c0.4,0,0.8-0.1,1.1-0.4S1477.8,347.5,1477.9,347z"/>
	</g>
	<g enable-background="new    ">
		<path d="M1541.7,360.9v2.5h-6.1v-2.5H1541.7z"/>
	</g>
	<line fill="none" stroke="#000000" stroke-width="0.459" x1="1535" y1="363.4" x2="1542.2" y2="363.4"/>
	<line fill="none" stroke="#000000" stroke-width="0.459" x1="1565" y1="372.2" x2="1565" y2="356.2"/>
	<g enable-background="new    ">
		<path d="M1563.7,370.9c1.4,0,2.2,1,1.8,2.2c-0.4,1.2-1.9,2.2-3.4,2.2c-1.4,0-2.2-1-1.7-2.2
			C1560.8,371.8,1562.3,370.9,1563.7,370.9z"/>
	</g>
	<line fill="none" stroke="#000000" stroke-width="0.459" x1="1580.2" y1="367.4" x2="1580.2" y2="351.4"/>
	<g enable-background="new    ">
		<path d="M1578.9,366.1c1.4,0,2.2,1,1.8,2.2c-0.4,1.2-1.9,2.2-3.4,2.2c-1.4,0-2.2-1-1.7-2.2C1576,367,1577.5,366.1,1578.9,366.1z"
			/>
	</g>
	<line fill="none" stroke="#000000" stroke-width="0.459" x1="1601.6" y1="365" x2="1601.6" y2="349"/>
	<g enable-background="new    ">
		<path d="M1601.1,365.9c-0.3,0.9-1,1.5-1.6,1.8c-0.5,0.3-1.2,0.4-2,0.3c-0.5,0-1.3-0.2-1.6-0.7c-0.3-0.6-0.1-1.2,0-1.6
			c0.3-0.8,1-1.4,1.5-1.7c0.5-0.3,1.3-0.5,2.2-0.4c0.4,0,1.1,0.1,1.5,0.7C1601.4,364.8,1601.2,365.6,1601.1,365.9z M1599.1,364.6
			c-0.4,0.2-0.7,0.4-1,0.5c-0.3,0.2-0.6,0.4-1,0.6c-0.5,0.3-1.1,0.9-0.8,1.4c0.3,0.6,1.1,0.3,1.6,0c0.4-0.2,0.7-0.4,1-0.5
			c0.3-0.2,0.6-0.4,1-0.6c0.5-0.3,1.1-0.9,0.8-1.4C1600.5,364,1599.7,364.3,1599.1,364.6z"/>
	</g>
	<line fill="none" stroke="#000000" stroke-width="0.459" x1="1629.6" y1="365" x2="1629.6" y2="349"/>
	<g enable-background="new    ">
		<path d="M1629.1,365.9c-0.3,0.9-1,1.5-1.6,1.8c-0.5,0.3-1.2,0.4-2,0.3c-0.5,0-1.3-0.2-1.6-0.7c-0.3-0.6-0.1-1.2,0-1.6
			c0.3-0.8,1-1.4,1.5-1.7c0.5-0.3,1.3-0.5,2.2-0.4c0.4,0,1.1,0.1,1.5,0.7C1629.4,364.8,1629.2,365.6,1629.1,365.9z M1627.1,364.6
			c-0.4,0.2-0.7,0.4-1,0.5c-0.3,0.2-0.6,0.4-1,0.6c-0.5,0.3-1.1,0.9-0.8,1.4c0.3,0.6,1.1,0.3,1.6,0c0.4-0.2,0.7-0.4,1-0.5
			c0.3-0.2,0.6-0.4,1-0.6c0.5-0.3,1.1-0.9,0.8-1.4C1628.5,364,1627.7,364.3,1627.1,364.6z"/>
	</g>
	<g enable-background="new    ">
		<path d="M1595.8,349v-5.7h2c0.4,0,0.8,0,1,0.1c0.3,0.1,0.6,0.2,0.8,0.4c0.3,0.3,0.5,0.6,0.7,1s0.2,0.9,0.2,1.4
			c0,0.4-0.1,0.8-0.2,1.2s-0.2,0.6-0.4,0.8s-0.3,0.4-0.5,0.5s-0.4,0.2-0.7,0.3s-0.6,0.1-0.9,0.1H1595.8z M1596.6,348.3h1.2
			c0.4,0,0.7,0,0.9-0.1s0.4-0.2,0.5-0.3c0.2-0.2,0.3-0.4,0.4-0.7s0.2-0.7,0.2-1.1c0-0.6-0.1-1.1-0.3-1.4s-0.4-0.5-0.7-0.6
			c-0.2-0.1-0.5-0.1-1-0.1h-1.2V348.3z"/>
	</g>
	<g enable-background="new    ">
		<path d="M1602.5,349v-3.7h0.6v0.5c0.1-0.2,0.3-0.3,0.5-0.4c0.2-0.1,0.4-0.2,0.7-0.2c0.3,0,0.5,0.1,0.7,0.2
			c0.2,0.1,0.3,0.3,0.4,0.5c0.3-0.4,0.7-0.7,1.2-0.7c0.4,0,0.7,0.1,0.9,0.3s0.3,0.5,0.3,0.9v2.6h-0.6v-2.4c0-0.3,0-0.4-0.1-0.5
			s-0.1-0.2-0.2-0.3c-0.1-0.1-0.2-0.1-0.4-0.1c-0.3,0-0.5,0.1-0.7,0.3s-0.3,0.5-0.3,0.8v2.2h-0.6v-2.4c0-0.3-0.1-0.5-0.2-0.6
			c-0.1-0.1-0.3-0.2-0.5-0.2c-0.2,0-0.3,0-0.5,0.1s-0.3,0.2-0.3,0.4s-0.1,0.4-0.1,0.8v1.9H1602.5z"/>
	</g>
	<g enable-background="new    ">
		<path d="M1663.7,360.9v2.5h-6.1v-2.5H1663.7z"/>
	</g>
	<line fill="none" stroke="#000000" stroke-width="0.459" x1="1657" y1="363.4" x2="1664.2" y2="363.4"/>
	<line fill="none" stroke="#000000" stroke-width="0.459" x1="1687" y1="374.6" x2="1687" y2="358.6"/>
	<g enable-background="new    ">
		<path d="M1685.7,373.3c1.4,0,2.2,1,1.8,2.2c-0.4,1.2-1.9,2.2-3.4,2.2c-1.4,0-2.2-1-1.7-2.2
			C1682.8,374.2,1684.3,373.3,1685.7,373.3z"/>
	</g>
	<line fill="none" stroke="#000000" stroke-width="0.459" x1="1702.2" y1="369.8" x2="1702.2" y2="353.8"/>
	<g enable-background="new    ">
		<path d="M1700.9,368.5c1.4,0,2.2,1,1.8,2.2c-0.4,1.2-1.9,2.2-3.4,2.2c-1.4,0-2.2-1-1.7-2.2C1698,369.4,1699.5,368.5,1700.9,368.5z
			"/>
	</g>
	<line fill="none" stroke="#000000" stroke-width="0.459" x1="1723.6" y1="365" x2="1723.6" y2="349"/>
	<g enable-background="new    ">
		<path d="M1723.1,365.9c-0.3,0.9-1,1.5-1.6,1.8c-0.5,0.3-1.2,0.4-2,0.3c-0.5,0-1.3-0.2-1.6-0.7c-0.3-0.6-0.1-1.2,0-1.6
			c0.3-0.8,1-1.4,1.5-1.7c0.5-0.3,1.3-0.5,2.2-0.4c0.4,0,1.1,0.1,1.5,0.7C1723.4,364.8,1723.2,365.6,1723.1,365.9z M1721.1,364.6
			c-0.4,0.2-0.7,0.4-1,0.5c-0.3,0.2-0.6,0.4-1,0.6c-0.5,0.3-1.1,0.9-0.8,1.4c0.3,0.6,1.1,0.3,1.6,0c0.4-0.2,0.7-0.4,1-0.5
			c0.3-0.2,0.6-0.4,1-0.6c0.5-0.3,1.1-0.9,0.8-1.4C1722.5,364,1721.7,364.3,1721.1,364.6z"/>
	</g>
	<line fill="none" stroke="#000000" stroke-width="0.459" x1="1751.6" y1="365" x2="1751.6" y2="349"/>
	<g enable-background="new    ">
		<path d="M1751.1,365.9c-0.3,0.9-1,1.5-1.6,1.8c-0.5,0.3-1.2,0.4-2,0.3c-0.5,0-1.3-0.2-1.6-0.7c-0.3-0.6-0.1-1.2,0-1.6
			c0.3-0.8,1-1.4,1.5-1.7c0.5-0.3,1.3-0.5,2.2-0.4c0.4,0,1.1,0.1,1.5,0.7C1751.4,364.8,1751.2,365.6,1751.1,365.9z M1749.1,364.6
			c-0.4,0.2-0.7,0.4-1,0.5c-0.3,0.2-0.6,0.4-1,0.6c-0.5,0.3-1.1,0.9-0.8,1.4c0.3,0.6,1.1,0.3,1.6,0c0.4-0.2,0.7-0.4,1-0.5
			c0.3-0.2,0.6-0.4,1-0.6c0.5-0.3,1.1-0.9,0.8-1.4C1750.5,364,1749.7,364.3,1749.1,364.6z"/>
	</g>
	<g enable-background="new    ">
		<path d="M1720.5,346.8v-0.7l2.4,0v2.1c-0.4,0.3-0.8,0.5-1.2,0.7s-0.8,0.2-1.2,0.2c-0.6,0-1.1-0.1-1.5-0.4s-0.8-0.6-1-1
			s-0.4-1-0.4-1.5c0-0.6,0.1-1.1,0.3-1.6s0.6-0.8,1-1.1s0.9-0.4,1.5-0.4c0.4,0,0.8,0.1,1.1,0.2s0.6,0.3,0.8,0.6s0.3,0.6,0.4,0.9
			l-0.7,0.2c-0.1-0.3-0.2-0.5-0.3-0.7s-0.3-0.3-0.5-0.4s-0.5-0.2-0.8-0.2c-0.3,0-0.6,0.1-0.9,0.2s-0.5,0.2-0.6,0.4s-0.3,0.4-0.4,0.6
			c-0.1,0.4-0.2,0.7-0.2,1.2c0,0.5,0.1,0.9,0.3,1.3s0.4,0.6,0.8,0.8s0.7,0.2,1.1,0.2c0.3,0,0.6-0.1,1-0.2s0.5-0.3,0.7-0.4v-1.1
			H1720.5z"/>
	</g>
	<g enable-background="new    ">
		<path d="M1785.7,360.9v2.5h-6.1v-2.5H1785.7z"/>
	</g>
	<line fill="none" stroke="#000000" stroke-width="0.459" x1="1779" y1="363.4" x2="1786.2" y2="363.4"/>
	<line fill="none" stroke="#000000" stroke-width="0.459" x1="1804.4" y1="361.8" x2="1804.4" y2="377.8"/>
	<g enable-background="new    ">
		<path d="M1807.7,358.9c1.4,0,2.2,1,1.8,2.2c-0.4,1.2-1.9,2.2-3.4,2.2c-1.4,0-2.2-1-1.7-2.2
			C1804.8,359.8,1806.3,358.9,1807.7,358.9z"/>
	</g>
	<line fill="none" stroke="#000000" stroke-width="0.459" x1="1819.6" y1="364.2" x2="1819.6" y2="380.2"/>
	<g enable-background="new    ">
		<path d="M1822.9,361.3c1.4,0,2.2,1,1.8,2.2c-0.4,1.2-1.9,2.2-3.4,2.2c-1.4,0-2.2-1-1.7-2.2C1820,362.2,1821.5,361.3,1822.9,361.3z
			"/>
	</g>
	<line fill="none" stroke="#000000" stroke-width="0.459" x1="1845.6" y1="365" x2="1845.6" y2="349"/>
	<g enable-background="new    ">
		<path d="M1845.1,365.9c-0.3,0.9-1,1.5-1.6,1.8c-0.5,0.3-1.2,0.4-2,0.3c-0.5,0-1.3-0.2-1.6-0.7c-0.3-0.6-0.1-1.2,0-1.6
			c0.3-0.8,1-1.4,1.5-1.7c0.5-0.3,1.3-0.5,2.2-0.4c0.4,0,1.1,0.1,1.5,0.7C1845.4,364.8,1845.2,365.6,1845.1,365.9z M1843.1,364.6
			c-0.4,0.2-0.7,0.4-1,0.5c-0.3,0.2-0.6,0.4-1,0.6c-0.5,0.3-1.1,0.9-0.8,1.4c0.3,0.6,1.1,0.3,1.6,0c0.4-0.2,0.7-0.4,1-0.5
			c0.3-0.2,0.6-0.4,1-0.6c0.5-0.3,1.1-0.9,0.8-1.4C1844.5,364,1843.7,364.3,1843.1,364.6z"/>
	</g>
	<g enable-background="new    ">
		<path d="M1873.9,360.9v2.5h-6.1v-2.5H1873.9z"/>
	</g>
	<line fill="none" stroke="#000000" stroke-width="0.459" x1="1867.2" y1="363.4" x2="1874.4" y2="363.4"/>
	<g enable-background="new    ">
		<path d="M1843.9,347l0.8,0.2c-0.2,0.6-0.4,1.1-0.9,1.4s-0.9,0.5-1.5,0.5c-0.6,0-1.1-0.1-1.5-0.4s-0.7-0.6-0.9-1.1s-0.3-1-0.3-1.5
			c0-0.6,0.1-1.1,0.3-1.6s0.6-0.8,1-1s0.9-0.3,1.4-0.3c0.6,0,1.1,0.1,1.4,0.4s0.7,0.7,0.8,1.2l-0.7,0.2c-0.1-0.4-0.3-0.7-0.6-0.9
			s-0.6-0.3-1-0.3c-0.4,0-0.8,0.1-1.1,0.3s-0.5,0.5-0.6,0.8s-0.2,0.7-0.2,1.1c0,0.5,0.1,0.9,0.2,1.3s0.4,0.6,0.7,0.8s0.6,0.3,1,0.3
			c0.4,0,0.8-0.1,1.1-0.4S1843.8,347.5,1843.9,347z"/>
	</g>
	<g enable-background="new    ">
		<path d="M1907.7,360.9v2.5h-6.1v-2.5H1907.7z"/>
	</g>
	<line fill="none" stroke="#000000" stroke-width="0.459" x1="1901" y1="363.4" x2="1908.2" y2="363.4"/>
	<line fill="none" stroke="#000000" stroke-width="0.459" x1="1931" y1="367.4" x2="1931" y2="351.4"/>
	<g enable-background="new    ">
		<path d="M1929.7,366.1c1.4,0,2.2,1,1.8,2.2c-0.4,1.2-1.9,2.2-3.4,2.2c-1.4,0-2.2-1-1.7-2.2C1926.8,367,1928.3,366.1,1929.7,366.1z
			"/>
	</g>
	<line fill="none" stroke="#000000" stroke-width="0.459" x1="1941.6" y1="364.2" x2="1941.6" y2="380.2"/>
	<g enable-background="new    ">
		<path d="M1944.9,361.3c1.4,0,2.2,1,1.8,2.2c-0.4,1.2-1.9,2.2-3.4,2.2c-1.4,0-2.2-1-1.7-2.2C1942,362.2,1943.5,361.3,1944.9,361.3z
			"/>
	</g>
	<line fill="none" stroke="#000000" stroke-width="0.459" x1="1962.2" y1="359.4" x2="1962.2" y2="375.4"/>
	<g enable-background="new    ">
		<path d="M1967.3,358.7c-0.3,0.9-1,1.5-1.6,1.8c-0.5,0.3-1.2,0.4-2,0.3c-0.5,0-1.3-0.2-1.6-0.7c-0.3-0.6-0.1-1.2,0-1.6
			c0.3-0.8,1-1.4,1.5-1.7c0.5-0.3,1.3-0.5,2.2-0.4c0.4,0,1.1,0.1,1.5,0.7C1967.6,357.6,1967.4,358.4,1967.3,358.7z M1965.3,357.4
			c-0.4,0.2-0.7,0.4-1,0.5c-0.3,0.2-0.6,0.4-1,0.6c-0.5,0.3-1.1,0.9-0.8,1.4c0.3,0.6,1.1,0.3,1.6,0c0.4-0.2,0.7-0.4,1-0.5
			c0.3-0.2,0.6-0.4,1-0.6c0.5-0.3,1.1-0.9,0.8-1.4C1966.7,356.8,1965.9,357.1,1965.3,357.4z"/>
	</g>
	<line fill="none" stroke="#000000" stroke-width="0.459" x1="1990" y1="361.8" x2="1990" y2="377.8"/>
	<g enable-background="new    ">
		<path d="M1995.1,361.1c-0.3,0.9-1,1.5-1.6,1.8c-0.5,0.3-1.2,0.4-2,0.3c-0.5,0-1.3-0.2-1.6-0.7c-0.3-0.6-0.1-1.2,0-1.6
			c0.3-0.8,1-1.4,1.5-1.7c0.5-0.3,1.3-0.5,2.2-0.4c0.4,0,1.1,0.1,1.5,0.7C1995.4,360,1995.2,360.8,1995.1,361.1z M1993.1,359.8
			c-0.4,0.2-0.7,0.4-1,0.5c-0.3,0.2-0.6,0.4-1,0.6c-0.5,0.3-1.1,0.9-0.8,1.4c0.3,0.6,1.1,0.3,1.6,0c0.4-0.2,0.7-0.4,1-0.5
			c0.3-0.2,0.6-0.4,1-0.6c0.5-0.3,1.1-0.9,0.8-1.4C1994.5,359.2,1993.7,359.5,1993.1,359.8z"/>
	</g>
	<g enable-background="new    ">
		<path d="M1966.7,347l0.8,0.2c-0.2,0.6-0.4,1.1-0.9,1.4s-0.9,0.5-1.5,0.5c-0.6,0-1.1-0.1-1.5-0.4s-0.7-0.6-0.9-1.1s-0.3-1-0.3-1.5
			c0-0.6,0.1-1.1,0.3-1.6s0.6-0.8,1-1s0.9-0.3,1.4-0.3c0.6,0,1.1,0.1,1.4,0.4s0.7,0.7,0.8,1.2l-0.7,0.2c-0.1-0.4-0.3-0.7-0.6-0.9
			s-0.6-0.3-1-0.3c-0.4,0-0.8,0.1-1.1,0.3s-0.5,0.5-0.6,0.8s-0.2,0.7-0.2,1.1c0,0.5,0.1,0.9,0.2,1.3s0.4,0.6,0.7,0.8s0.6,0.3,1,0.3
			c0.4,0,0.8-0.1,1.1-0.4S1966.6,347.5,1966.7,347z"/>
	</g>
	<g enable-background="new    ">
		<path d="M1968.8,349.1l1.7-5.9h0.6l-1.7,5.9H1968.8z"/>
	</g>
	<g enable-background="new    ">
		<path d="M1971.4,349v-5.7h4.1v0.7h-3.4v1.8h3.2v0.7h-3.2v1.9h3.5v0.7H1971.4z"/>
	</g>
	<g enable-background="new    ">
		<path d="M2029.7,360.9v2.5h-6.1v-2.5H2029.7z"/>
	</g>
	<line fill="none" stroke="#000000" stroke-width="0.459" x1="2023" y1="363.4" x2="2030.2" y2="363.4"/>
	<line fill="none" stroke="#000000" stroke-width="0.459" x1="2048.4" y1="364.2" x2="2048.4" y2="380.2"/>
	<g enable-background="new    ">
		<path d="M2051.7,361.3c1.4,0,2.2,1,1.8,2.2c-0.4,1.2-1.9,2.2-3.4,2.2c-1.4,0-2.2-1-1.7-2.2
			C2048.8,362.2,2050.3,361.3,2051.7,361.3z"/>
	</g>
	<line fill="none" stroke="#000000" stroke-width="0.459" x1="2068.2" y1="365" x2="2068.2" y2="349"/>
	<g enable-background="new    ">
		<path d="M2066.9,363.7c1.4,0,2.2,1,1.8,2.2c-0.4,1.2-1.9,2.2-3.4,2.2c-1.4,0-2.2-1-1.7-2.2C2064,364.6,2065.5,363.7,2066.9,363.7z
			"/>
	</g>
	<g enable-background="new    ">
		<path d="M2024.2,349v-5.7h4.1v0.7h-3.4v1.8h3.2v0.7h-3.2v1.9h3.5v0.7H2024.2z"/>
	</g>
	<g enable-background="new    ">
		<path d="M2029.8,342.8c0,0.1,0,1,0,1c0.6-0.5,0.9-0.7,1.6-0.7c0.8,0,1.3,0.8,1.3,1.4c0,0.3-0.1,0.7-0.2,1
			c-0.1,0.4-0.5,0.6-0.8,0.9c-0.3,0.3-2.4,1.7-2.4,1.7v-9.5h0.4C2029.8,338.7,2029.8,340.7,2029.8,342.8z M2030,344.4
			c-0.2,0.4-0.2,1.1-0.2,1.6v1.4c0,0,0.6-0.5,0.9-0.8c0.3-0.3,0.5-0.6,0.6-1.1c0.1-0.5,0.1-1-0.2-1.3
			C2030.9,343.9,2030.3,343.7,2030,344.4z"/>
	</g>
	<g enable-background="new    ">
		<path d="M2035.3,349v-0.5c-0.2,0.4-0.6,0.6-1,0.6c-0.3,0-0.6-0.1-0.8-0.2s-0.4-0.4-0.6-0.7c-0.1-0.3-0.2-0.6-0.2-1
			c0-0.4,0.1-0.7,0.2-1c0.1-0.3,0.3-0.5,0.6-0.7c0.2-0.2,0.5-0.2,0.8-0.2c0.2,0,0.4,0,0.6,0.1s0.3,0.2,0.4,0.4v-1.8h0.6v5.2H2035.3z
			 M2033.3,347.1c0,0.5,0.1,0.8,0.3,1.1s0.4,0.4,0.7,0.4c0.3,0,0.5-0.1,0.7-0.3c0.2-0.2,0.3-0.6,0.3-1c0-0.5-0.1-0.9-0.3-1.1
			c-0.2-0.2-0.4-0.4-0.7-0.4c-0.3,0-0.5,0.1-0.7,0.3C2033.4,346.3,2033.3,346.6,2033.3,347.1z"/>
	</g>
	<g enable-background="new    ">
		<path d="M2037.9,344.6v-0.7h0.6v0.7H2037.9z M2037.9,349v-3.7h0.6v3.7H2037.9z"/>
	</g>
	<g enable-background="new    ">
		<path d="M2039.9,349v-3.7h0.6v0.5c0.1-0.2,0.3-0.3,0.5-0.4c0.2-0.1,0.4-0.2,0.7-0.2c0.3,0,0.5,0.1,0.7,0.2
			c0.2,0.1,0.3,0.3,0.4,0.5c0.3-0.4,0.7-0.7,1.2-0.7c0.4,0,0.7,0.1,0.9,0.3s0.3,0.5,0.3,0.9v2.6h-0.6v-2.4c0-0.3,0-0.4-0.1-0.5
			s-0.1-0.2-0.2-0.3c-0.1-0.1-0.2-0.1-0.4-0.1c-0.3,0-0.5,0.1-0.7,0.3s-0.3,0.5-0.3,0.8v2.2h-0.6v-2.4c0-0.3-0.1-0.5-0.2-0.6
			c-0.1-0.1-0.3-0.2-0.5-0.2c-0.2,0-0.3,0-0.5,0.1s-0.3,0.2-0.3,0.4s-0.1,0.4-0.1,0.8v1.9H2039.9z"/>
	</g>
	<line fill="none" stroke="#000000" stroke-width="0.459" x1="2084.2" y1="361.8" x2="2084.2" y2="377.8"/>
	<g enable-background="new    ">
		<path d="M2089.3,361.1c-0.3,0.9-1,1.5-1.6,1.8c-0.5,0.3-1.2,0.4-2,0.3c-0.5,0-1.3-0.2-1.6-0.7c-0.3-0.6-0.1-1.2,0-1.6
			c0.3-0.8,1-1.4,1.5-1.7c0.5-0.3,1.3-0.5,2.2-0.4c0.4,0,1.1,0.1,1.5,0.7C2089.6,360,2089.4,360.8,2089.3,361.1z M2087.3,359.8
			c-0.4,0.2-0.7,0.4-1,0.5c-0.3,0.2-0.6,0.4-1,0.6c-0.5,0.3-1.1,0.9-0.8,1.4c0.3,0.6,1.1,0.3,1.6,0c0.4-0.2,0.7-0.4,1-0.5
			c0.3-0.2,0.6-0.4,1-0.6c0.5-0.3,1.1-0.9,0.8-1.4C2088.7,359.2,2087.9,359.5,2087.3,359.8z"/>
	</g>
	<line fill="none" stroke="#000000" stroke-width="0.459" x1="2117.6" y1="374.6" x2="2117.6" y2="358.6"/>
	<g enable-background="new    ">
		<path d="M2117.1,375.5c-0.3,0.9-1,1.5-1.6,1.8c-0.5,0.3-1.2,0.4-2,0.3c-0.5,0-1.3-0.2-1.6-0.7c-0.3-0.6-0.1-1.2,0-1.6
			c0.3-0.8,1-1.4,1.5-1.7c0.5-0.3,1.3-0.5,2.2-0.4c0.4,0,1.1,0.1,1.5,0.7C2117.4,374.4,2117.2,375.2,2117.1,375.5z M2115.1,374.2
			c-0.4,0.2-0.7,0.4-1,0.5c-0.3,0.2-0.6,0.4-1,0.6c-0.5,0.3-1.1,0.9-0.8,1.4c0.3,0.6,1.1,0.3,1.6,0c0.4-0.2,0.7-0.4,1-0.5
			c0.3-0.2,0.6-0.4,1-0.6c0.5-0.3,1.1-0.9,0.8-1.4C2116.5,373.6,2115.7,373.9,2115.1,374.2z"/>
	</g>
	<g enable-background="new    ">
		<path d="M2084.6,349v-5.7h2c0.4,0,0.8,0,1,0.1c0.3,0.1,0.6,0.2,0.8,0.4c0.3,0.3,0.5,0.6,0.7,1s0.2,0.9,0.2,1.4
			c0,0.4-0.1,0.8-0.2,1.2s-0.2,0.6-0.4,0.8s-0.3,0.4-0.5,0.5s-0.4,0.2-0.7,0.3s-0.6,0.1-0.9,0.1H2084.6z M2085.4,348.3h1.2
			c0.4,0,0.7,0,0.9-0.1s0.4-0.2,0.5-0.3c0.2-0.2,0.3-0.4,0.4-0.7s0.2-0.7,0.2-1.1c0-0.6-0.1-1.1-0.3-1.4s-0.4-0.5-0.7-0.6
			c-0.2-0.1-0.5-0.1-1-0.1h-1.2V348.3z"/>
	</g>
	<g enable-background="new    ">
		<path d="M2091.3,349v-3.7h0.6v0.5c0.1-0.2,0.3-0.3,0.5-0.4c0.2-0.1,0.4-0.2,0.7-0.2c0.3,0,0.5,0.1,0.7,0.2
			c0.2,0.1,0.3,0.3,0.4,0.5c0.3-0.4,0.7-0.7,1.2-0.7c0.4,0,0.7,0.1,0.9,0.3s0.3,0.5,0.3,0.9v2.6h-0.6v-2.4c0-0.3,0-0.4-0.1-0.5
			s-0.1-0.2-0.2-0.3c-0.1-0.1-0.2-0.1-0.4-0.1c-0.3,0-0.5,0.1-0.7,0.3s-0.3,0.5-0.3,0.8v2.2h-0.6v-2.4c0-0.3-0.1-0.5-0.2-0.6
			c-0.1-0.1-0.3-0.2-0.5-0.2c-0.2,0-0.3,0-0.5,0.1s-0.3,0.2-0.3,0.4s-0.1,0.4-0.1,0.8v1.9H2091.3z"/>
	</g>
	<g enable-background="new    ">
		<path d="M2151.7,360.9v2.5h-6.1v-2.5H2151.7z"/>
	</g>
	<line fill="none" stroke="#000000" stroke-width="0.459" x1="2145" y1="363.4" x2="2152.2" y2="363.4"/>
	<line fill="none" stroke="#000000" stroke-width="0.459" x1="2175" y1="372.2" x2="2175" y2="356.2"/>
	<g enable-background="new    ">
		<path d="M2173.7,370.9c1.4,0,2.2,1,1.8,2.2c-0.4,1.2-1.9,2.2-3.4,2.2c-1.4,0-2.2-1-1.7-2.2
			C2170.8,371.8,2172.3,370.9,2173.7,370.9z"/>
	</g>
	<line fill="none" stroke="#000000" stroke-width="0.459" x1="2190.2" y1="369.8" x2="2190.2" y2="353.8"/>
	<g enable-background="new    ">
		<path d="M2188.9,368.5c1.4,0,2.2,1,1.8,2.2c-0.4,1.2-1.9,2.2-3.4,2.2c-1.4,0-2.2-1-1.7-2.2C2186,369.4,2187.5,368.5,2188.9,368.5z
			"/>
	</g>
	<line fill="none" stroke="#000000" stroke-width="0.459" x1="2206.2" y1="361.8" x2="2206.2" y2="377.8"/>
	<g enable-background="new    ">
		<path d="M2211.3,361.1c-0.3,0.9-1,1.5-1.6,1.8c-0.5,0.3-1.2,0.4-2,0.3c-0.5,0-1.3-0.2-1.6-0.7c-0.3-0.6-0.1-1.2,0-1.6
			c0.3-0.8,1-1.4,1.5-1.7c0.5-0.3,1.3-0.5,2.2-0.4c0.4,0,1.1,0.1,1.5,0.7C2211.6,360,2211.4,360.8,2211.3,361.1z M2209.3,359.8
			c-0.4,0.2-0.7,0.4-1,0.5c-0.3,0.2-0.6,0.4-1,0.6c-0.5,0.3-1.1,0.9-0.8,1.4c0.3,0.6,1.1,0.3,1.6,0c0.4-0.2,0.7-0.4,1-0.5
			c0.3-0.2,0.6-0.4,1-0.6c0.5-0.3,1.1-0.9,0.8-1.4C2210.7,359.2,2209.9,359.5,2209.3,359.8z"/>
	</g>
	<line fill="none" stroke="#000000" stroke-width="0.459" x1="2239.6" y1="374.6" x2="2239.6" y2="358.6"/>
	<g enable-background="new    ">
		<path d="M2239.1,375.5c-0.3,0.9-1,1.5-1.6,1.8c-0.5,0.3-1.2,0.4-2,0.3c-0.5,0-1.3-0.2-1.6-0.7c-0.3-0.6-0.1-1.2,0-1.6
			c0.3-0.8,1-1.4,1.5-1.7c0.5-0.3,1.3-0.5,2.2-0.4c0.4,0,1.1,0.1,1.5,0.7C2239.4,374.4,2239.2,375.2,2239.1,375.5z M2237.1,374.2
			c-0.4,0.2-0.7,0.4-1,0.5c-0.3,0.2-0.6,0.4-1,0.6c-0.5,0.3-1.1,0.9-0.8,1.4c0.3,0.6,1.1,0.3,1.6,0c0.4-0.2,0.7-0.4,1-0.5
			c0.3-0.2,0.6-0.4,1-0.6c0.5-0.3,1.1-0.9,0.8-1.4C2238.5,373.6,2237.7,373.9,2237.1,374.2z"/>
	</g>
	<g enable-background="new    ">
		<path d="M2209.3,346.8v-0.7l2.4,0v2.1c-0.4,0.3-0.8,0.5-1.2,0.7s-0.8,0.2-1.2,0.2c-0.6,0-1.1-0.1-1.5-0.4s-0.8-0.6-1-1
			s-0.4-1-0.4-1.5c0-0.6,0.1-1.1,0.3-1.6s0.6-0.8,1-1.1s0.9-0.4,1.5-0.4c0.4,0,0.8,0.1,1.1,0.2s0.6,0.3,0.8,0.6s0.3,0.6,0.4,0.9
			l-0.7,0.2c-0.1-0.3-0.2-0.5-0.3-0.7s-0.3-0.3-0.5-0.4s-0.5-0.2-0.8-0.2c-0.3,0-0.6,0.1-0.9,0.2s-0.5,0.2-0.6,0.4s-0.3,0.4-0.4,0.6
			c-0.1,0.4-0.2,0.7-0.2,1.2c0,0.5,0.1,0.9,0.3,1.3s0.4,0.6,0.8,0.8s0.7,0.2,1.1,0.2c0.3,0,0.6-0.1,1-0.2s0.5-0.3,0.7-0.4v-1.1
			H2209.3z"/>
	</g>
	<g enable-background="new    ">
		<path d="M2273.7,360.9v2.5h-6.1v-2.5H2273.7z"/>
	</g>
	<line fill="none" stroke="#000000" stroke-width="0.459" x1="2267" y1="363.4" x2="2274.2" y2="363.4"/>
	<line fill="none" stroke="#000000" stroke-width="0.459" x1="2292.4" y1="361.8" x2="2292.4" y2="377.8"/>
	<g enable-background="new    ">
		<path d="M2295.7,358.9c1.4,0,2.2,1,1.8,2.2c-0.4,1.2-1.9,2.2-3.4,2.2c-1.4,0-2.2-1-1.7-2.2
			C2292.8,359.8,2294.3,358.9,2295.7,358.9z"/>
	</g>
	<line fill="none" stroke="#000000" stroke-width="0.459" x1="2307.6" y1="364.2" x2="2307.6" y2="380.2"/>
	<g enable-background="new    ">
		<path d="M2310.9,361.3c1.4,0,2.2,1,1.8,2.2c-0.4,1.2-1.9,2.2-3.4,2.2c-1.4,0-2.2-1-1.7-2.2C2308,362.2,2309.5,361.3,2310.9,361.3z
			"/>
	</g>
	<line fill="none" stroke="#000000" stroke-width="0.459" x1="2333.6" y1="365" x2="2333.6" y2="349"/>
	<g enable-background="new    ">
		<path d="M2333.1,365.9c-0.3,0.9-1,1.5-1.6,1.8c-0.5,0.3-1.2,0.4-2,0.3c-0.5,0-1.3-0.2-1.6-0.7c-0.3-0.6-0.1-1.2,0-1.6
			c0.3-0.8,1-1.4,1.5-1.7c0.5-0.3,1.3-0.5,2.2-0.4c0.4,0,1.1,0.1,1.5,0.7C2333.4,364.8,2333.2,365.6,2333.1,365.9z M2331.1,364.6
			c-0.4,0.2-0.7,0.4-1,0.5c-0.3,0.2-0.6,0.4-1,0.6c-0.5,0.3-1.1,0.9-0.8,1.4c0.3,0.6,1.1,0.3,1.6,0c0.4-0.2,0.7-0.4,1-0.5
			c0.3-0.2,0.6-0.4,1-0.6c0.5-0.3,1.1-0.9,0.8-1.4C2332.5,364,2331.7,364.3,2331.1,364.6z"/>
	</g>
	<g enable-background="new    ">
		<path d="M2361.9,360.9v2.5h-6.1v-2.5H2361.9z"/>
	</g>
	<line fill="none" stroke="#000000" stroke-width="0.459" x1="2355.2" y1="363.4" x2="2362.4" y2="363.4"/>
	<g enable-background="new    ">
		<path d="M2328.8,339v-5.7h2.1c0.4,0,0.8,0.1,1.1,0.2s0.5,0.3,0.6,0.5s0.2,0.5,0.2,0.8c0,0.2-0.1,0.5-0.2,0.7s-0.3,0.4-0.6,0.5
			c0.3,0.1,0.6,0.3,0.8,0.5s0.3,0.5,0.3,0.9c0,0.3-0.1,0.5-0.2,0.7s-0.3,0.4-0.4,0.5s-0.4,0.2-0.6,0.3s-0.6,0.1-0.9,0.1H2328.8z
			 M2329.5,335.7h1.2c0.3,0,0.6,0,0.7-0.1c0.2-0.1,0.3-0.2,0.4-0.3s0.1-0.3,0.1-0.5c0-0.2,0-0.4-0.1-0.5s-0.2-0.2-0.4-0.3
			s-0.5-0.1-0.9-0.1h-1.1V335.7z M2329.5,338.3h1.4c0.2,0,0.4,0,0.5,0c0.2,0,0.3-0.1,0.4-0.2s0.2-0.2,0.3-0.3s0.1-0.3,0.1-0.5
			c0-0.2-0.1-0.4-0.2-0.6s-0.3-0.3-0.5-0.3s-0.5-0.1-0.8-0.1h-1.3V338.3z"/>
	</g>
	<g enable-background="new    ">
		<path d="M2333.1,347l0.8,0.2c-0.2,0.6-0.4,1.1-0.9,1.4s-0.9,0.5-1.5,0.5c-0.6,0-1.1-0.1-1.5-0.4s-0.7-0.6-0.9-1.1s-0.3-1-0.3-1.5
			c0-0.6,0.1-1.1,0.3-1.6s0.6-0.8,1-1s0.9-0.3,1.4-0.3c0.6,0,1.1,0.1,1.4,0.4s0.7,0.7,0.8,1.2l-0.7,0.2c-0.1-0.4-0.3-0.7-0.6-0.9
			s-0.6-0.3-1-0.3c-0.4,0-0.8,0.1-1.1,0.3s-0.5,0.5-0.6,0.8s-0.2,0.7-0.2,1.1c0,0.5,0.1,0.9,0.2,1.3s0.4,0.6,0.7,0.8s0.6,0.3,1,0.3
			c0.4,0,0.8-0.1,1.1-0.4S2333,347.5,2333.1,347z"/>
	</g>
	<g enable-background="new    ">
		<path d="M2395.7,360.9v2.5h-6.1v-2.5H2395.7z"/>
	</g>
	<line fill="none" stroke="#000000" stroke-width="0.459" x1="2389" y1="363.4" x2="2396.2" y2="363.4"/>
	<line fill="none" stroke="#000000" stroke-width="0.459" x1="2419" y1="372.2" x2="2419" y2="356.2"/>
	<g enable-background="new    ">
		<path d="M2417.7,370.9c1.4,0,2.2,1,1.8,2.2c-0.4,1.2-1.9,2.2-3.4,2.2c-1.4,0-2.2-1-1.7-2.2
			C2414.8,371.8,2416.3,370.9,2417.7,370.9z"/>
	</g>
	<line fill="none" stroke="#000000" stroke-width="0.459" x1="2434.2" y1="367.4" x2="2434.2" y2="351.4"/>
	<g enable-background="new    ">
		<path d="M2432.9,366.1c1.4,0,2.2,1,1.8,2.2c-0.4,1.2-1.9,2.2-3.4,2.2c-1.4,0-2.2-1-1.7-2.2C2430,367,2431.5,366.1,2432.9,366.1z"
			/>
	</g>
	<g enable-background="new    ">
		<path d="M2415.2,338.8l2.2-5.7h0.8l2.3,5.7h-0.9l-0.7-1.7h-2.4l-0.6,1.7H2415.2z M2416.8,336.4h1.9l-0.6-1.6
			c-0.2-0.5-0.3-0.9-0.4-1.2c-0.1,0.4-0.2,0.7-0.3,1.1L2416.8,336.4z"/>
	</g>
	<line fill="none" stroke="#000000" stroke-width="0.459" x1="2455.6" y1="365" x2="2455.6" y2="349"/>
	<g enable-background="new    ">
		<path d="M2455.1,365.9c-0.3,0.9-1,1.5-1.6,1.8c-0.5,0.3-1.2,0.4-2,0.3c-0.5,0-1.3-0.2-1.6-0.7c-0.3-0.6-0.1-1.2,0-1.6
			c0.3-0.8,1-1.4,1.5-1.7c0.5-0.3,1.3-0.5,2.2-0.4c0.4,0,1.1,0.1,1.5,0.7C2455.4,364.8,2455.2,365.6,2455.1,365.9z M2453.1,364.6
			c-0.4,0.2-0.7,0.4-1,0.5c-0.3,0.2-0.6,0.4-1,0.6c-0.5,0.3-1.1,0.9-0.8,1.4c0.3,0.6,1.1,0.3,1.6,0c0.4-0.2,0.7-0.4,1-0.5
			c0.3-0.2,0.6-0.4,1-0.6c0.5-0.3,1.1-0.9,0.8-1.4C2454.5,364,2453.7,364.3,2453.1,364.6z"/>
	</g>
	<line fill="none" stroke="#000000" stroke-width="0.459" x1="2483.6" y1="365" x2="2483.6" y2="349"/>
	<g enable-background="new    ">
		<path d="M2483.1,365.9c-0.3,0.9-1,1.5-1.6,1.8c-0.5,0.3-1.2,0.4-2,0.3c-0.5,0-1.3-0.2-1.6-0.7c-0.3-0.6-0.1-1.2,0-1.6
			c0.3-0.8,1-1.4,1.5-1.7c0.5-0.3,1.3-0.5,2.2-0.4c0.4,0,1.1,0.1,1.5,0.7C2483.4,364.8,2483.2,365.6,2483.1,365.9z M2481.1,364.6
			c-0.4,0.2-0.7,0.4-1,0.5c-0.3,0.2-0.6,0.4-1,0.6c-0.5,0.3-1.1,0.9-0.8,1.4c0.3,0.6,1.1,0.3,1.6,0c0.4-0.2,0.7-0.4,1-0.5
			c0.3-0.2,0.6-0.4,1-0.6c0.5-0.3,1.1-0.9,0.8-1.4C2482.5,364,2481.7,364.3,2481.1,364.6z"/>
	</g>
	<g enable-background="new    ">
		<path d="M2453.9,347l0.8,0.2c-0.2,0.6-0.4,1.1-0.9,1.4s-0.9,0.5-1.5,0.5c-0.6,0-1.1-0.1-1.5-0.4s-0.7-0.6-0.9-1.1s-0.3-1-0.3-1.5
			c0-0.6,0.1-1.1,0.3-1.6s0.6-0.8,1-1s0.9-0.3,1.4-0.3c0.6,0,1.1,0.1,1.4,0.4s0.7,0.7,0.8,1.2l-0.7,0.2c-0.1-0.4-0.3-0.7-0.6-0.9
			s-0.6-0.3-1-0.3c-0.4,0-0.8,0.1-1.1,0.3s-0.5,0.5-0.6,0.8s-0.2,0.7-0.2,1.1c0,0.5,0.1,0.9,0.2,1.3s0.4,0.6,0.7,0.8s0.6,0.3,1,0.3
			c0.4,0,0.8-0.1,1.1-0.4S2453.8,347.5,2453.9,347z"/>
	</g>
	<g enable-background="new    ">
		<path d="M2517.7,360.9v2.5h-6.1v-2.5H2517.7z"/>
	</g>
	<line fill="none" stroke="#000000" stroke-width="0.459" x1="2511" y1="363.4" x2="2518.2" y2="363.4"/>
	<line fill="none" stroke="#000000" stroke-width="0.459" x1="2541" y1="372.2" x2="2541" y2="356.2"/>
	<g enable-background="new    ">
		<path d="M2539.7,370.9c1.4,0,2.2,1,1.8,2.2c-0.4,1.2-1.9,2.2-3.4,2.2c-1.4,0-2.2-1-1.7-2.2
			C2536.8,371.8,2538.3,370.9,2539.7,370.9z"/>
	</g>
	<line fill="none" stroke="#000000" stroke-width="0.459" x1="2556.2" y1="367.4" x2="2556.2" y2="351.4"/>
	<g enable-background="new    ">
		<path d="M2554.9,366.1c1.4,0,2.2,1,1.8,2.2c-0.4,1.2-1.9,2.2-3.4,2.2c-1.4,0-2.2-1-1.7-2.2C2552,367,2553.5,366.1,2554.9,366.1z"
			/>
	</g>
	<line fill="none" stroke="#000000" stroke-width="0.459" x1="2577.6" y1="365" x2="2577.6" y2="349"/>
	<g enable-background="new    ">
		<path d="M2577.1,365.9c-0.3,0.9-1,1.5-1.6,1.8c-0.5,0.3-1.2,0.4-2,0.3c-0.5,0-1.3-0.2-1.6-0.7c-0.3-0.6-0.1-1.2,0-1.6
			c0.3-0.8,1-1.4,1.5-1.7c0.5-0.3,1.3-0.5,2.2-0.4c0.4,0,1.1,0.1,1.5,0.7C2577.4,364.8,2577.2,365.6,2577.1,365.9z M2575.1,364.6
			c-0.4,0.2-0.7,0.4-1,0.5c-0.3,0.2-0.6,0.4-1,0.6c-0.5,0.3-1.1,0.9-0.8,1.4c0.3,0.6,1.1,0.3,1.6,0c0.4-0.2,0.7-0.4,1-0.5
			c0.3-0.2,0.6-0.4,1-0.6c0.5-0.3,1.1-0.9,0.8-1.4C2576.5,364,2575.7,364.3,2575.1,364.6z"/>
	</g>
	<line fill="none" stroke="#000000" stroke-width="0.459" x1="2605.6" y1="365" x2="2605.6" y2="349"/>
	<g enable-background="new    ">
		<path d="M2605.1,365.9c-0.3,0.9-1,1.5-1.6,1.8c-0.5,0.3-1.2,0.4-2,0.3c-0.5,0-1.3-0.2-1.6-0.7c-0.3-0.6-0.1-1.2,0-1.6
			c0.3-0.8,1-1.4,1.5-1.7c0.5-0.3,1.3-0.5,2.2-0.4c0.4,0,1.1,0.1,1.5,0.7C2605.4,364.8,2605.2,365.6,2605.1,365.9z M2603.1,364.6
			c-0.4,0.2-0.7,0.4-1,0.5c-0.3,0.2-0.6,0.4-1,0.6c-0.5,0.3-1.1,0.9-0.8,1.4c0.3,0.6,1.1,0.3,1.6,0c0.4-0.2,0.7-0.4,1-0.5
			c0.3-0.2,0.6-0.4,1-0.6c0.5-0.3,1.1-0.9,0.8-1.4C2604.5,364,2603.7,364.3,2603.1,364.6z"/>
	</g>
	<g enable-background="new    ">
		<path d="M2571.8,349v-5.7h2c0.4,0,0.8,0,1,0.1c0.3,0.1,0.6,0.2,0.8,0.4c0.3,0.3,0.5,0.6,0.7,1s0.2,0.9,0.2,1.4
			c0,0.4-0.1,0.8-0.2,1.2s-0.2,0.6-0.4,0.8s-0.3,0.4-0.5,0.5s-0.4,0.2-0.7,0.3s-0.6,0.1-0.9,0.1H2571.8z M2572.6,348.3h1.2
			c0.4,0,0.7,0,0.9-0.1s0.4-0.2,0.5-0.3c0.2-0.2,0.3-0.4,0.4-0.7s0.2-0.7,0.2-1.1c0-0.6-0.1-1.1-0.3-1.4s-0.4-0.5-0.7-0.6
			c-0.2-0.1-0.5-0.1-1-0.1h-1.2V348.3z"/>
	</g>
	<g enable-background="new    ">
		<path d="M2578.5,349v-3.7h0.6v0.5c0.1-0.2,0.3-0.3,0.5-0.4c0.2-0.1,0.4-0.2,0.7-0.2c0.3,0,0.5,0.1,0.7,0.2
			c0.2,0.1,0.3,0.3,0.4,0.5c0.3-0.4,0.7-0.7,1.2-0.7c0.4,0,0.7,0.1,0.9,0.3s0.3,0.5,0.3,0.9v2.6h-0.6v-2.4c0-0.3,0-0.4-0.1-0.5
			s-0.1-0.2-0.2-0.3c-0.1-0.1-0.2-0.1-0.4-0.1c-0.3,0-0.5,0.1-0.7,0.3s-0.3,0.5-0.3,0.8v2.2h-0.6v-2.4c0-0.3-0.1-0.5-0.2-0.6
			c-0.1-0.1-0.3-0.2-0.5-0.2c-0.2,0-0.3,0-0.5,0.1s-0.3,0.2-0.3,0.4s-0.1,0.4-0.1,0.8v1.9H2578.5z"/>
	</g>
	<g enable-background="new    ">
		<path d="M2639.7,360.9v2.5h-6.1v-2.5H2639.7z"/>
	</g>
	<line fill="none" stroke="#000000" stroke-width="0.459" x1="2633" y1="363.4" x2="2640.2" y2="363.4"/>
	<line fill="none" stroke="#000000" stroke-width="0.459" x1="2663" y1="374.6" x2="2663" y2="358.6"/>
	<g enable-background="new    ">
		<path d="M2661.7,373.3c1.4,0,2.2,1,1.8,2.2c-0.4,1.2-1.9,2.2-3.4,2.2c-1.4,0-2.2-1-1.7-2.2
			C2658.8,374.2,2660.3,373.3,2661.7,373.3z"/>
	</g>
	<line fill="none" stroke="#000000" stroke-width="0.459" x1="2678.2" y1="369.8" x2="2678.2" y2="353.8"/>
	<g enable-background="new    ">
		<path d="M2676.9,368.5c1.4,0,2.2,1,1.8,2.2c-0.4,1.2-1.9,2.2-3.4,2.2c-1.4,0-2.2-1-1.7-2.2C2674,369.4,2675.5,368.5,2676.9,368.5z
			"/>
	</g>
	<line fill="none" stroke="#000000" stroke-width="0.459" x1="2699.6" y1="365" x2="2699.6" y2="349"/>
	<g enable-background="new    ">
		<path d="M2699.1,365.9c-0.3,0.9-1,1.5-1.6,1.8c-0.5,0.3-1.2,0.4-2,0.3c-0.5,0-1.3-0.2-1.6-0.7c-0.3-0.6-0.1-1.2,0-1.6
			c0.3-0.8,1-1.4,1.5-1.7c0.5-0.3,1.3-0.5,2.2-0.4c0.4,0,1.1,0.1,1.5,0.7C2699.4,364.8,2699.2,365.6,2699.1,365.9z M2697.1,364.6
			c-0.4,0.2-0.7,0.4-1,0.5c-0.3,0.2-0.6,0.4-1,0.6c-0.5,0.3-1.1,0.9-0.8,1.4c0.3,0.6,1.1,0.3,1.6,0c0.4-0.2,0.7-0.4,1-0.5
			c0.3-0.2,0.6-0.4,1-0.6c0.5-0.3,1.1-0.9,0.8-1.4C2698.5,364,2697.7,364.3,2697.1,364.6z"/>
	</g>
	<line fill="none" stroke="#000000" stroke-width="0.459" x1="2727.6" y1="365" x2="2727.6" y2="349"/>
	<g enable-background="new    ">
		<path d="M2727.1,365.9c-0.3,0.9-1,1.5-1.6,1.8c-0.5,0.3-1.2,0.4-2,0.3c-0.5,0-1.3-0.2-1.6-0.7c-0.3-0.6-0.1-1.2,0-1.6
			c0.3-0.8,1-1.4,1.5-1.7c0.5-0.3,1.3-0.5,2.2-0.4c0.4,0,1.1,0.1,1.5,0.7C2727.4,364.8,2727.2,365.6,2727.1,365.9z M2725.1,364.6
			c-0.4,0.2-0.7,0.4-1,0.5c-0.3,0.2-0.6,0.4-1,0.6c-0.5,0.3-1.1,0.9-0.8,1.4c0.3,0.6,1.1,0.3,1.6,0c0.4-0.2,0.7-0.4,1-0.5
			c0.3-0.2,0.6-0.4,1-0.6c0.5-0.3,1.1-0.9,0.8-1.4C2726.5,364,2725.7,364.3,2725.1,364.6z"/>
	</g>
	<g enable-background="new    ">
		<path d="M2696.5,346.8v-0.7l2.4,0v2.1c-0.4,0.3-0.8,0.5-1.2,0.7s-0.8,0.2-1.2,0.2c-0.6,0-1.1-0.1-1.5-0.4s-0.8-0.6-1-1
			s-0.4-1-0.4-1.5c0-0.6,0.1-1.1,0.3-1.6s0.6-0.8,1-1.1s0.9-0.4,1.5-0.4c0.4,0,0.8,0.1,1.1,0.2s0.6,0.3,0.8,0.6s0.3,0.6,0.4,0.9
			l-0.7,0.2c-0.1-0.3-0.2-0.5-0.3-0.7s-0.3-0.3-0.5-0.4s-0.5-0.2-0.8-0.2c-0.3,0-0.6,0.1-0.9,0.2s-0.5,0.2-0.6,0.4s-0.3,0.4-0.4,0.6
			c-0.1,0.4-0.2,0.7-0.2,1.2c0,0.5,0.1,0.9,0.3,1.3s0.4,0.6,0.8,0.8s0.7,0.2,1.1,0.2c0.3,0,0.6-0.1,1-0.2s0.5-0.3,0.7-0.4v-1.1
			H2696.5z"/>
	</g>
	<g enable-background="new    ">
		<path d="M2761.7,360.9v2.5h-6.1v-2.5H2761.7z"/>
	</g>
	<line fill="none" stroke="#000000" stroke-width="0.459" x1="2755" y1="363.4" x2="2762.2" y2="363.4"/>
	<line fill="none" stroke="#000000" stroke-width="0.459" x1="2780.4" y1="361.8" x2="2780.4" y2="377.8"/>
	<g enable-background="new    ">
		<path d="M2783.7,358.9c1.4,0,2.2,1,1.8,2.2c-0.4,1.2-1.9,2.2-3.4,2.2c-1.4,0-2.2-1-1.7-2.2
			C2780.8,359.8,2782.3,358.9,2783.7,358.9z"/>
	</g>
	<line fill="none" stroke="#000000" stroke-width="0.459" x1="2795.6" y1="364.2" x2="2795.6" y2="380.2"/>
	<g enable-background="new    ">
		<path d="M2798.9,361.3c1.4,0,2.2,1,1.8,2.2c-0.4,1.2-1.9,2.2-3.4,2.2c-1.4,0-2.2-1-1.7-2.2C2796,362.2,2797.5,361.3,2798.9,361.3z
			"/>
	</g>
	<line fill="none" stroke="#000000" stroke-width="0.459" x1="2821.6" y1="365" x2="2821.6" y2="349"/>
	<g enable-background="new    ">
		<path d="M2821.1,365.9c-0.3,0.9-1,1.5-1.6,1.8c-0.5,0.3-1.2,0.4-2,0.3c-0.5,0-1.3-0.2-1.6-0.7c-0.3-0.6-0.1-1.2,0-1.6
			c0.3-0.8,1-1.4,1.5-1.7c0.5-0.3,1.3-0.5,2.2-0.4c0.4,0,1.1,0.1,1.5,0.7C2821.4,364.8,2821.2,365.6,2821.1,365.9z M2819.1,364.6
			c-0.4,0.2-0.7,0.4-1,0.5c-0.3,0.2-0.6,0.4-1,0.6c-0.5,0.3-1.1,0.9-0.8,1.4c0.3,0.6,1.1,0.3,1.6,0c0.4-0.2,0.7-0.4,1-0.5
			c0.3-0.2,0.6-0.4,1-0.6c0.5-0.3,1.1-0.9,0.8-1.4C2820.5,364,2819.7,364.3,2819.1,364.6z"/>
	</g>
	<g enable-background="new    ">
		<path d="M2849.9,360.9v2.5h-6.1v-2.5H2849.9z"/>
	</g>
	<line fill="none" stroke="#000000" stroke-width="0.459" x1="2843.2" y1="363.4" x2="2850.4" y2="363.4"/>
	<g enable-background="new    ">
		<path d="M2819.9,347l0.8,0.2c-0.2,0.6-0.4,1.1-0.9,1.4s-0.9,0.5-1.5,0.5c-0.6,0-1.1-0.1-1.5-0.4s-0.7-0.6-0.9-1.1s-0.3-1-0.3-1.5
			c0-0.6,0.1-1.1,0.3-1.6s0.6-0.8,1-1s0.9-0.3,1.4-0.3c0.6,0,1.1,0.1,1.4,0.4s0.7,0.7,0.8,1.2l-0.7,0.2c-0.1-0.4-0.3-0.7-0.6-0.9
			s-0.6-0.3-1-0.3c-0.4,0-0.8,0.1-1.1,0.3s-0.5,0.5-0.6,0.8s-0.2,0.7-0.2,1.1c0,0.5,0.1,0.9,0.2,1.3s0.4,0.6,0.7,0.8s0.6,0.3,1,0.3
			c0.4,0,0.8-0.1,1.1-0.4S2819.8,347.5,2819.9,347z"/>
	</g>
	<g enable-background="new    ">
		<path d="M2883.7,360.9v2.5h-6.1v-2.5H2883.7z"/>
	</g>
	<line fill="none" stroke="#000000" stroke-width="0.459" x1="2877" y1="363.4" x2="2884.2" y2="363.4"/>
	<line fill="none" stroke="#000000" stroke-width="0.459" x1="2907" y1="367.4" x2="2907" y2="351.4"/>
	<g enable-background="new    ">
		<path d="M2905.7,366.1c1.4,0,2.2,1,1.8,2.2c-0.4,1.2-1.9,2.2-3.4,2.2c-1.4,0-2.2-1-1.7-2.2C2902.8,367,2904.3,366.1,2905.7,366.1z
			"/>
	</g>
	<line fill="none" stroke="#000000" stroke-width="0.459" x1="2917.6" y1="364.2" x2="2917.6" y2="380.2"/>
	<g enable-background="new    ">
		<path d="M2920.9,361.3c1.4,0,2.2,1,1.8,2.2c-0.4,1.2-1.9,2.2-3.4,2.2c-1.4,0-2.2-1-1.7-2.2C2918,362.2,2919.5,361.3,2920.9,361.3z
			"/>
	</g>
	<line fill="none" stroke="#000000" stroke-width="0.459" x1="2938.2" y1="359.4" x2="2938.2" y2="375.4"/>
	<g enable-background="new    ">
		<path d="M2943.3,358.7c-0.3,0.9-1,1.5-1.6,1.8c-0.5,0.3-1.2,0.4-2,0.3c-0.5,0-1.3-0.2-1.6-0.7c-0.3-0.6-0.1-1.2,0-1.6
			c0.3-0.8,1-1.4,1.5-1.7c0.5-0.3,1.3-0.5,2.2-0.4c0.4,0,1.1,0.1,1.5,0.7C2943.6,357.6,2943.4,358.4,2943.3,358.7z M2941.3,357.4
			c-0.4,0.2-0.7,0.4-1,0.5c-0.3,0.2-0.6,0.4-1,0.6c-0.5,0.3-1.1,0.9-0.8,1.4c0.3,0.6,1.1,0.3,1.6,0c0.4-0.2,0.7-0.4,1-0.5
			c0.3-0.2,0.6-0.4,1-0.6c0.5-0.3,1.1-0.9,0.8-1.4C2942.7,356.8,2941.9,357.1,2941.3,357.4z"/>
	</g>
	<line fill="none" stroke="#000000" stroke-width="0.459" x1="2966" y1="361.8" x2="2966" y2="377.8"/>
	<g enable-background="new    ">
		<path d="M2971.1,361.1c-0.3,0.9-1,1.5-1.6,1.8c-0.5,0.3-1.2,0.4-2,0.3c-0.5,0-1.3-0.2-1.6-0.7c-0.3-0.6-0.1-1.2,0-1.6
			c0.3-0.8,1-1.4,1.5-1.7c0.5-0.3,1.3-0.5,2.2-0.4c0.4,0,1.1,0.1,1.5,0.7C2971.4,360,2971.2,360.8,2971.1,361.1z M2969.1,359.8
			c-0.4,0.2-0.7,0.4-1,0.5c-0.3,0.2-0.6,0.4-1,0.6c-0.5,0.3-1.1,0.9-0.8,1.4c0.3,0.6,1.1,0.3,1.6,0c0.4-0.2,0.7-0.4,1-0.5
			c0.3-0.2,0.6-0.4,1-0.6c0.5-0.3,1.1-0.9,0.8-1.4C2970.5,359.2,2969.7,359.5,2969.1,359.8z"/>
	</g>
	<g enable-background="new    ">
		<path d="M2942.7,347l0.8,0.2c-0.2,0.6-0.4,1.1-0.9,1.4s-0.9,0.5-1.5,0.5c-0.6,0-1.1-0.1-1.5-0.4s-0.7-0.6-0.9-1.1s-0.3-1-0.3-1.5
			c0-0.6,0.1-1.1,0.3-1.6s0.6-0.8,1-1s0.9-0.3,1.4-0.3c0.6,0,1.1,0.1,1.4,0.4s0.7,0.7,0.8,1.2l-0.7,0.2c-0.1-0.4-0.3-0.7-0.6-0.9
			s-0.6-0.3-1-0.3c-0.4,0-0.8,0.1-1.1,0.3s-0.5,0.5-0.6,0.8s-0.2,0.7-0.2,1.1c0,0.5,0.1,0.9,0.2,1.3s0.4,0.6,0.7,0.8s0.6,0.3,1,0.3
			c0.4,0,0.8-0.1,1.1-0.4S2942.6,347.5,2942.7,347z"/>
	</g>
	<g enable-background="new    ">
		<path d="M2944.8,349.1l1.7-5.9h0.6l-1.7,5.9H2944.8z"/>
	</g>
	<g enable-background="new    ">
		<path d="M2947.4,349v-5.7h4.1v0.7h-3.4v1.8h3.2v0.7h-3.2v1.9h3.5v0.7H2947.4z"/>
	</g>
	<g enable-background="new    ">
		<path d="M3005.7,360.9v2.5h-6.1v-2.5H3005.7z"/>
	</g>
	<line fill="none" stroke="#000000" stroke-width="0.459" x1="2999" y1="363.4" x2="3006.2" y2="363.4"/>
	<line fill="none" stroke="#000000" stroke-width="0.459" x1="3024.4" y1="364.2" x2="3024.4" y2="380.2"/>
	<g enable-background="new    ">
		<path d="M3027.7,361.3c1.4,0,2.2,1,1.8,2.2c-0.4,1.2-1.9,2.2-3.4,2.2c-1.4,0-2.2-1-1.7-2.2
			C3024.8,362.2,3026.3,361.3,3027.7,361.3z"/>
	</g>
	<line fill="none" stroke="#000000" stroke-width="0.459" x1="3044.2" y1="365" x2="3044.2" y2="349"/>
	<g enable-background="new    ">
		<path d="M3042.9,363.7c1.4,0,2.2,1,1.8,2.2c-0.4,1.2-1.9,2.2-3.4,2.2c-1.4,0-2.2-1-1.7-2.2C3040,364.6,3041.5,363.7,3042.9,363.7z
			"/>
	</g>
	<g enable-background="new    ">
		<path d="M3000.2,349v-5.7h4.1v0.7h-3.4v1.8h3.2v0.7h-3.2v1.9h3.5v0.7H3000.2z"/>
	</g>
	<g enable-background="new    ">
		<path d="M3005.8,342.8c0,0.1,0,1,0,1c0.6-0.5,0.9-0.7,1.6-0.7c0.8,0,1.3,0.8,1.3,1.4c0,0.3-0.1,0.7-0.2,1
			c-0.1,0.4-0.5,0.6-0.8,0.9c-0.3,0.3-2.4,1.7-2.4,1.7v-9.5h0.4C3005.8,338.7,3005.8,340.7,3005.8,342.8z M3006,344.4
			c-0.2,0.4-0.2,1.1-0.2,1.6v1.4c0,0,0.6-0.5,0.9-0.8c0.3-0.3,0.5-0.6,0.6-1.1c0.1-0.5,0.1-1-0.2-1.3
			C3006.9,343.9,3006.3,343.7,3006,344.4z"/>
	</g>
	<g enable-background="new    ">
		<path d="M3011.3,349v-0.5c-0.2,0.4-0.6,0.6-1,0.6c-0.3,0-0.6-0.1-0.8-0.2s-0.4-0.4-0.6-0.7c-0.1-0.3-0.2-0.6-0.2-1
			c0-0.4,0.1-0.7,0.2-1c0.1-0.3,0.3-0.5,0.6-0.7c0.2-0.2,0.5-0.2,0.8-0.2c0.2,0,0.4,0,0.6,0.1s0.3,0.2,0.4,0.4v-1.8h0.6v5.2H3011.3z
			 M3009.3,347.1c0,0.5,0.1,0.8,0.3,1.1s0.4,0.4,0.7,0.4c0.3,0,0.5-0.1,0.7-0.3c0.2-0.2,0.3-0.6,0.3-1c0-0.5-0.1-0.9-0.3-1.1
			c-0.2-0.2-0.4-0.4-0.7-0.4c-0.3,0-0.5,0.1-0.7,0.3C3009.4,346.3,3009.3,346.6,3009.3,347.1z"/>
	</g>
	<g enable-background="new    ">
		<path d="M3013.9,344.6v-0.7h0.6v0.7H3013.9z M3013.9,349v-3.7h0.6v3.7H3013.9z"/>
	</g>
	<g enable-background="new    ">
		<path d="M3015.9,349v-3.7h0.6v0.5c0.1-0.2,0.3-0.3,0.5-0.4c0.2-0.1,0.4-0.2,0.7-0.2c0.3,0,0.5,0.1,0.7,0.2
			c0.2,0.1,0.3,0.3,0.4,0.5c0.3-0.4,0.7-0.7,1.2-0.7c0.4,0,0.7,0.1,0.9,0.3s0.3,0.5,0.3,0.9v2.6h-0.6v-2.4c0-0.3,0-0.4-0.1-0.5
			s-0.1-0.2-0.2-0.3c-0.1-0.1-0.2-0.1-0.4-0.1c-0.3,0-0.5,0.1-0.7,0.3s-0.3,0.5-0.3,0.8v2.2h-0.6v-2.4c0-0.3-0.1-0.5-0.2-0.6
			c-0.1-0.1-0.3-0.2-0.5-0.2c-0.2,0-0.3,0-0.5,0.1s-0.3,0.2-0.3,0.4s-0.1,0.4-0.1,0.8v1.9H3015.9z"/>
	</g>
	<line fill="none" stroke="#000000" stroke-width="0.459" x1="3060.2" y1="361.8" x2="3060.2" y2="377.8"/>
	<g enable-background="new    ">
		<path d="M3065.3,361.1c-0.3,0.9-1,1.5-1.6,1.8c-0.5,0.3-1.2,0.4-2,0.3c-0.5,0-1.3-0.2-1.6-0.7c-0.3-0.6-0.1-1.2,0-1.6
			c0.3-0.8,1-1.4,1.5-1.7c0.5-0.3,1.3-0.5,2.2-0.4c0.4,0,1.1,0.1,1.5,0.7C3065.6,360,3065.4,360.8,3065.3,361.1z M3063.3,359.8
			c-0.4,0.2-0.7,0.4-1,0.5c-0.3,0.2-0.6,0.4-1,0.6c-0.5,0.3-1.1,0.9-0.8,1.4c0.3,0.6,1.1,0.3,1.6,0c0.4-0.2,0.7-0.4,1-0.5
			c0.3-0.2,0.6-0.4,1-0.6c0.5-0.3,1.1-0.9,0.8-1.4C3064.7,359.2,3063.9,359.5,3063.3,359.8z"/>
	</g>
	<line fill="none" stroke="#000000" stroke-width="0.459" x1="3093.6" y1="374.6" x2="3093.6" y2="358.6"/>
	<g enable-background="new    ">
		<path d="M3093.1,375.5c-0.3,0.9-1,1.5-1.6,1.8c-0.5,0.3-1.2,0.4-2,0.3c-0.5,0-1.3-0.2-1.6-0.7c-0.3-0.6-0.1-1.2,0-1.6
			c0.3-0.8,1-1.4,1.5-1.7c0.5-0.3,1.3-0.5,2.2-0.4c0.4,0,1.1,0.1,1.5,0.7C3093.4,374.4,3093.2,375.2,3093.1,375.5z M3091.1,374.2
			c-0.4,0.2-0.7,0.4-1,0.5c-0.3,0.2-0.6,0.4-1,0.6c-0.5,0.3-1.1,0.9-0.8,1.4c0.3,0.6,1.1,0.3,1.6,0c0.4-0.2,0.7-0.4,1-0.5
			c0.3-0.2,0.6-0.4,1-0.6c0.5-0.3,1.1-0.9,0.8-1.4C3092.5,373.6,3091.7,373.9,3091.1,374.2z"/>
	</g>
	<g enable-background="new    ">
		<path d="M3060.6,349v-5.7h2c0.4,0,0.8,0,1,0.1c0.3,0.1,0.6,0.2,0.8,0.4c0.3,0.3,0.5,0.6,0.7,1s0.2,0.9,0.2,1.4
			c0,0.4-0.1,0.8-0.2,1.2s-0.2,0.6-0.4,0.8s-0.3,0.4-0.5,0.5s-0.4,0.2-0.7,0.3s-0.6,0.1-0.9,0.1H3060.6z M3061.4,348.3h1.2
			c0.4,0,0.7,0,0.9-0.1s0.4-0.2,0.5-0.3c0.2-0.2,0.3-0.4,0.4-0.7s0.2-0.7,0.2-1.1c0-0.6-0.1-1.1-0.3-1.4s-0.4-0.5-0.7-0.6
			c-0.2-0.1-0.5-0.1-1-0.1h-1.2V348.3z"/>
	</g>
	<g enable-background="new    ">
		<path d="M3067.3,349v-3.7h0.6v0.5c0.1-0.2,0.3-0.3,0.5-0.4c0.2-0.1,0.4-0.2,0.7-0.2c0.3,0,0.5,0.1,0.7,0.2
			c0.2,0.1,0.3,0.3,0.4,0.5c0.3-0.4,0.7-0.7,1.2-0.7c0.4,0,0.7,0.1,0.9,0.3s0.3,0.5,0.3,0.9v2.6h-0.6v-2.4c0-0.3,0-0.4-0.1-0.5
			s-0.1-0.2-0.2-0.3c-0.1-0.1-0.2-0.1-0.4-0.1c-0.3,0-0.5,0.1-0.7,0.3s-0.3,0.5-0.3,0.8v2.2h-0.6v-2.4c0-0.3-0.1-0.5-0.2-0.6
			c-0.1-0.1-0.3-0.2-0.5-0.2c-0.2,0-0.3,0-0.5,0.1s-0.3,0.2-0.3,0.4s-0.1,0.4-0.1,0.8v1.9H3067.3z"/>
	</g>
	<g enable-background="new    ">
		<path d="M3127.7,360.9v2.5h-6.1v-2.5H3127.7z"/>
	</g>
	<line fill="none" stroke="#000000" stroke-width="0.459" x1="3121" y1="363.4" x2="3128.2" y2="363.4"/>
	<line fill="none" stroke="#000000" stroke-width="0.459" x1="3151" y1="372.2" x2="3151" y2="356.2"/>
	<g enable-background="new    ">
		<path d="M3149.7,370.9c1.4,0,2.2,1,1.8,2.2c-0.4,1.2-1.9,2.2-3.4,2.2c-1.4,0-2.2-1-1.7-2.2
			C3146.8,371.8,3148.3,370.9,3149.7,370.9z"/>
	</g>
	<line fill="none" stroke="#000000" stroke-width="0.459" x1="3166.2" y1="369.8" x2="3166.2" y2="353.8"/>
	<g enable-background="new    ">
		<path d="M3164.9,368.5c1.4,0,2.2,1,1.8,2.2c-0.4,1.2-1.9,2.2-3.4,2.2c-1.4,0-2.2-1-1.7-2.2C3162,369.4,3163.5,368.5,3164.9,368.5z
			"/>
	</g>
	<line fill="none" stroke="#000000" stroke-width="0.459" x1="3182.2" y1="361.8" x2="3182.2" y2="377.8"/>
	<g enable-background="new    ">
		<path d="M3187.3,361.1c-0.3,0.9-1,1.5-1.6,1.8c-0.5,0.3-1.2,0.4-2,0.3c-0.5,0-1.3-0.2-1.6-0.7c-0.3-0.6-0.1-1.2,0-1.6
			c0.3-0.8,1-1.4,1.5-1.7c0.5-0.3,1.3-0.5,2.2-0.4c0.4,0,1.1,0.1,1.5,0.7C3187.6,360,3187.4,360.8,3187.3,361.1z M3185.3,359.8
			c-0.4,0.2-0.7,0.4-1,0.5c-0.3,0.2-0.6,0.4-1,0.6c-0.5,0.3-1.1,0.9-0.8,1.4c0.3,0.6,1.1,0.3,1.6,0c0.4-0.2,0.7-0.4,1-0.5
			c0.3-0.2,0.6-0.4,1-0.6c0.5-0.3,1.1-0.9,0.8-1.4C3186.7,359.2,3185.9,359.5,3185.3,359.8z"/>
	</g>
	<line fill="none" stroke="#000000" stroke-width="0.459" x1="3215.6" y1="374.6" x2="3215.6" y2="358.6"/>
	<g enable-background="new    ">
		<path d="M3215.1,375.5c-0.3,0.9-1,1.5-1.6,1.8c-0.5,0.3-1.2,0.4-2,0.3c-0.5,0-1.3-0.2-1.6-0.7c-0.3-0.6-0.1-1.2,0-1.6
			c0.3-0.8,1-1.4,1.5-1.7c0.5-0.3,1.3-0.5,2.2-0.4c0.4,0,1.1,0.1,1.5,0.7C3215.4,374.4,3215.2,375.2,3215.1,375.5z M3213.1,374.2
			c-0.4,0.2-0.7,0.4-1,0.5c-0.3,0.2-0.6,0.4-1,0.6c-0.5,0.3-1.1,0.9-0.8,1.4c0.3,0.6,1.1,0.3,1.6,0c0.4-0.2,0.7-0.4,1-0.5
			c0.3-0.2,0.6-0.4,1-0.6c0.5-0.3,1.1-0.9,0.8-1.4C3214.5,373.6,3213.7,373.9,3213.1,374.2z"/>
	</g>
	<g enable-background="new    ">
		<path d="M3185.3,346.8v-0.7l2.4,0v2.1c-0.4,0.3-0.8,0.5-1.2,0.7s-0.8,0.2-1.2,0.2c-0.6,0-1.1-0.1-1.5-0.4s-0.8-0.6-1-1
			s-0.4-1-0.4-1.5c0-0.6,0.1-1.1,0.3-1.6s0.6-0.8,1-1.1s0.9-0.4,1.5-0.4c0.4,0,0.8,0.1,1.1,0.2s0.6,0.3,0.8,0.6s0.3,0.6,0.4,0.9
			l-0.7,0.2c-0.1-0.3-0.2-0.5-0.3-0.7s-0.3-0.3-0.5-0.4s-0.5-0.2-0.8-0.2c-0.3,0-0.6,0.1-0.9,0.2s-0.5,0.2-0.6,0.4s-0.3,0.4-0.4,0.6
			c-0.1,0.4-0.2,0.7-0.2,1.2c0,0.5,0.1,0.9,0.3,1.3s0.4,0.6,0.8,0.8s0.7,0.2,1.1,0.2c0.3,0,0.6-0.1,1-0.2s0.5-0.3,0.7-0.4v-1.1
			H3185.3z"/>
	</g>
	<g enable-background="new    ">
		<path d="M3249.7,360.9v2.5h-6.1v-2.5H3249.7z"/>
	</g>
	<line fill="none" stroke="#000000" stroke-width="0.459" x1="3243" y1="363.4" x2="3250.2" y2="363.4"/>
	<line fill="none" stroke="#000000" stroke-width="0.459" x1="3268.4" y1="361.8" x2="3268.4" y2="377.8"/>
	<g enable-background="new    ">
		<path d="M3271.7,358.9c1.4,0,2.2,1,1.8,2.2c-0.4,1.2-1.9,2.2-3.4,2.2c-1.4,0-2.2-1-1.7-2.2
			C3268.8,359.8,3270.3,358.9,3271.7,358.9z"/>
	</g>
	<line fill="none" stroke="#000000" stroke-width="0.459" x1="3283.6" y1="364.2" x2="3283.6" y2="380.2"/>
	<g enable-background="new    ">
		<path d="M3286.9,361.3c1.4,0,2.2,1,1.8,2.2c-0.4,1.2-1.9,2.2-3.4,2.2c-1.4,0-2.2-1-1.7-2.2C3284,362.2,3285.5,361.3,3286.9,361.3z
			"/>
	</g>
	<line fill="none" stroke="#000000" stroke-width="0.459" x1="3304.2" y1="361.8" x2="3304.2" y2="377.8"/>
	<g enable-background="new    ">
		<path d="M3309.3,361.1c-0.3,0.9-1,1.5-1.6,1.8c-0.5,0.3-1.2,0.4-2,0.3c-0.5,0-1.3-0.2-1.6-0.7c-0.3-0.6-0.1-1.2,0-1.6
			c0.3-0.8,1-1.4,1.5-1.7c0.5-0.3,1.3-0.5,2.2-0.4c0.4,0,1.1,0.1,1.5,0.7C3309.6,360,3309.4,360.8,3309.3,361.1z M3307.3,359.8
			c-0.4,0.2-0.7,0.4-1,0.5c-0.3,0.2-0.6,0.4-1,0.6c-0.5,0.3-1.1,0.9-0.8,1.4c0.3,0.6,1.1,0.3,1.6,0c0.4-0.2,0.7-0.4,1-0.5
			c0.3-0.2,0.6-0.4,1-0.6c0.5-0.3,1.1-0.9,0.8-1.4C3308.7,359.2,3307.9,359.5,3307.3,359.8z"/>
	</g>
	<g enable-background="new    ">
		<path d="M3337.9,360.9v2.5h-6.1v-2.5H3337.9z"/>
	</g>
	<line fill="none" stroke="#000000" stroke-width="0.459" x1="3331.2" y1="363.4" x2="3338.4" y2="363.4"/>
	<g enable-background="new    ">
		<path d="M3306.9,337.6l0.8,0.2c-0.2,0.6-0.4,1.1-0.9,1.4s-0.9,0.5-1.5,0.5c-0.6,0-1.1-0.1-1.5-0.4s-0.7-0.6-0.9-1.1
			s-0.3-1-0.3-1.5c0-0.6,0.1-1.1,0.3-1.6s0.6-0.8,1-1s0.9-0.3,1.4-0.3c0.6,0,1.1,0.1,1.4,0.4s0.7,0.7,0.8,1.2l-0.7,0.2
			c-0.1-0.4-0.3-0.7-0.6-0.9s-0.6-0.3-1-0.3c-0.4,0-0.8,0.1-1.1,0.3s-0.5,0.5-0.6,0.8s-0.2,0.7-0.2,1.1c0,0.5,0.1,0.9,0.2,1.3
			s0.4,0.6,0.7,0.8s0.6,0.3,1,0.3c0.4,0,0.8-0.1,1.1-0.4S3306.8,338.1,3306.9,337.6z"/>
	</g>
	<g enable-background="new    ">
		<path d="M3307.1,347l0.8,0.2c-0.2,0.6-0.4,1.1-0.9,1.4s-0.9,0.5-1.5,0.5c-0.6,0-1.1-0.1-1.5-0.4s-0.7-0.6-0.9-1.1s-0.3-1-0.3-1.5
			c0-0.6,0.1-1.1,0.3-1.6s0.6-0.8,1-1s0.9-0.3,1.4-0.3c0.6,0,1.1,0.1,1.4,0.4s0.7,0.7,0.8,1.2l-0.7,0.2c-0.1-0.4-0.3-0.7-0.6-0.9
			s-0.6-0.3-1-0.3c-0.4,0-0.8,0.1-1.1,0.3s-0.5,0.5-0.6,0.8s-0.2,0.7-0.2,1.1c0,0.5,0.1,0.9,0.2,1.3s0.4,0.6,0.7,0.8s0.6,0.3,1,0.3
			c0.4,0,0.8-0.1,1.1-0.4S3307,347.5,3307.1,347z"/>
	</g>
	<g enable-background="new    ">
		<path d="M3371.7,360.9v2.5h-6.1v-2.5H3371.7z"/>
	</g>
	<line fill="none" stroke="#000000" stroke-width="0.459" x1="3365" y1="363.4" x2="3372.2" y2="363.4"/>
	<line fill="none" stroke="#000000" stroke-width="0.459" x1="3395" y1="372.2" x2="3395" y2="356.2"/>
	<g enable-background="new    ">
		<path d="M3393.7,370.9c1.4,0,2.2,1,1.8,2.2c-0.4,1.2-1.9,2.2-3.4,2.2c-1.4,0-2.2-1-1.7-2.2
			C3390.8,371.8,3392.3,370.9,3393.7,370.9z"/>
	</g>
	<line fill="none" stroke="#000000" stroke-width="0.459" x1="3410.2" y1="367.4" x2="3410.2" y2="351.4"/>
	<g enable-background="new    ">
		<path d="M3408.9,366.1c1.4,0,2.2,1,1.8,2.2c-0.4,1.2-1.9,2.2-3.4,2.2c-1.4,0-2.2-1-1.7-2.2C3406,367,3407.5,366.1,3408.9,366.1z"
			/>
	</g>
	<g enable-background="new    ">
		<path d="M3389.8,339.4l2.2-5.7h0.8l2.3,5.7h-0.9l-0.7-1.7h-2.4l-0.6,1.7H3389.8z M3391.4,337h1.9l-0.6-1.6
			c-0.2-0.5-0.3-0.9-0.4-1.2c-0.1,0.4-0.2,0.7-0.3,1.1L3391.4,337z"/>
	</g>
	<line fill="none" stroke="#000000" stroke-width="0.459" x1="3431.6" y1="365" x2="3431.6" y2="349"/>
	<g enable-background="new    ">
		<path d="M3431.1,365.9c-0.3,0.9-1,1.5-1.6,1.8c-0.5,0.3-1.2,0.4-2,0.3c-0.5,0-1.3-0.2-1.6-0.7c-0.3-0.6-0.1-1.2,0-1.6
			c0.3-0.8,1-1.4,1.5-1.7c0.5-0.3,1.3-0.5,2.2-0.4c0.4,0,1.1,0.1,1.5,0.7C3431.4,364.8,3431.2,365.6,3431.1,365.9z M3429.1,364.6
			c-0.4,0.2-0.7,0.4-1,0.5c-0.3,0.2-0.6,0.4-1,0.6c-0.5,0.3-1.1,0.9-0.8,1.4c0.3,0.6,1.1,0.3,1.6,0c0.4-0.2,0.7-0.4,1-0.5
			c0.3-0.2,0.6-0.4,1-0.6c0.5-0.3,1.1-0.9,0.8-1.4C3430.5,364,3429.7,364.3,3429.1,364.6z"/>
	</g>
	<line fill="none" stroke="#000000" stroke-width="0.459" x1="3459.6" y1="365" x2="3459.6" y2="349"/>
	<g enable-background="new    ">
		<path d="M3459.1,365.9c-0.3,0.9-1,1.5-1.6,1.8c-0.5,0.3-1.2,0.4-2,0.3c-0.5,0-1.3-0.2-1.6-0.7c-0.3-0.6-0.1-1.2,0-1.6
			c0.3-0.8,1-1.4,1.5-1.7c0.5-0.3,1.3-0.5,2.2-0.4c0.4,0,1.1,0.1,1.5,0.7C3459.4,364.8,3459.2,365.6,3459.1,365.9z M3457.1,364.6
			c-0.4,0.2-0.7,0.4-1,0.5c-0.3,0.2-0.6,0.4-1,0.6c-0.5,0.3-1.1,0.9-0.8,1.4c0.3,0.6,1.1,0.3,1.6,0c0.4-0.2,0.7-0.4,1-0.5
			c0.3-0.2,0.6-0.4,1-0.6c0.5-0.3,1.1-0.9,0.8-1.4C3458.5,364,3457.7,364.3,3457.1,364.6z"/>
	</g>
	<g enable-background="new    ">
		<path d="M3429.9,347l0.8,0.2c-0.2,0.6-0.4,1.1-0.9,1.4s-0.9,0.5-1.5,0.5c-0.6,0-1.1-0.1-1.5-0.4s-0.7-0.6-0.9-1.1s-0.3-1-0.3-1.5
			c0-0.6,0.1-1.1,0.3-1.6s0.6-0.8,1-1s0.9-0.3,1.4-0.3c0.6,0,1.1,0.1,1.4,0.4s0.7,0.7,0.8,1.2l-0.7,0.2c-0.1-0.4-0.3-0.7-0.6-0.9
			s-0.6-0.3-1-0.3c-0.4,0-0.8,0.1-1.1,0.3s-0.5,0.5-0.6,0.8s-0.2,0.7-0.2,1.1c0,0.5,0.1,0.9,0.2,1.3s0.4,0.6,0.7,0.8s0.6,0.3,1,0.3
			c0.4,0,0.8-0.1,1.1-0.4S3429.8,347.5,3429.9,347z"/>
	</g>
	<g enable-background="new    ">
		<path d="M3493.7,360.9v2.5h-6.1v-2.5H3493.7z"/>
	</g>
	<line fill="none" stroke="#000000" stroke-width="0.459" x1="3487" y1="363.4" x2="3494.2" y2="363.4"/>
	<line fill="none" stroke="#000000" stroke-width="0.459" x1="3517" y1="372.2" x2="3517" y2="356.2"/>
	<g enable-background="new    ">
		<path d="M3515.7,370.9c1.4,0,2.2,1,1.8,2.2c-0.4,1.2-1.9,2.2-3.4,2.2c-1.4,0-2.2-1-1.7-2.2
			C3512.8,371.8,3514.3,370.9,3515.7,370.9z"/>
	</g>
	<line fill="none" stroke="#000000" stroke-width="0.459" x1="3532.2" y1="367.4" x2="3532.2" y2="351.4"/>
	<g enable-background="new    ">
		<path d="M3530.9,366.1c1.4,0,2.2,1,1.8,2.2c-0.4,1.2-1.9,2.2-3.4,2.2c-1.4,0-2.2-1-1.7-2.2C3528,367,3529.5,366.1,3530.9,366.1z"
			/>
	</g>
	<line fill="none" stroke="#000000" stroke-width="0.459" x1="3553.6" y1="365" x2="3553.6" y2="349"/>
	<g enable-background="new    ">
		<path d="M3553.1,365.9c-0.3,0.9-1,1.5-1.6,1.8c-0.5,0.3-1.2,0.4-2,0.3c-0.5,0-1.3-0.2-1.6-0.7c-0.3-0.6-0.1-1.2,0-1.6
			c0.3-0.8,1-1.4,1.5-1.7c0.5-0.3,1.3-0.5,2.2-0.4c0.4,0,1.1,0.1,1.5,0.7C3553.4,364.8,3553.2,365.6,3553.1,365.9z M3551.1,364.6
			c-0.4,0.2-0.7,0.4-1,0.5c-0.3,0.2-0.6,0.4-1,0.6c-0.5,0.3-1.1,0.9-0.8,1.4c0.3,0.6,1.1,0.3,1.6,0c0.4-0.2,0.7-0.4,1-0.5
			c0.3-0.2,0.6-0.4,1-0.6c0.5-0.3,1.1-0.9,0.8-1.4C3552.5,364,3551.7,364.3,3551.1,364.6z"/>
	</g>
	<line fill="none" stroke="#000000" stroke-width="0.459" x1="3581.6" y1="365" x2="3581.6" y2="349"/>
	<g enable-background="new    ">
		<path d="M3581.1,365.9c-0.3,0.9-1,1.5-1.6,1.8c-0.5,0.3-1.2,0.4-2,0.3c-0.5,0-1.3-0.2-1.6-0.7c-0.3-0.6-0.1-1.2,0-1.6
			c0.3-0.8,1-1.4,1.5-1.7c0.5-0.3,1.3-0.5,2.2-0.4c0.4,0,1.1,0.1,1.5,0.7C3581.4,364.8,3581.2,365.6,3581.1,365.9z M3579.1,364.6
			c-0.4,0.2-0.7,0.4-1,0.5c-0.3,0.2-0.6,0.4-1,0.6c-0.5,0.3-1.1,0.9-0.8,1.4c0.3,0.6,1.1,0.3,1.6,0c0.4-0.2,0.7-0.4,1-0.5
			c0.3-0.2,0.6-0.4,1-0.6c0.5-0.3,1.1-0.9,0.8-1.4C3580.5,364,3579.7,364.3,3579.1,364.6z"/>
	</g>
	<g enable-background="new    ">
		<path d="M3547.8,349v-5.7h2c0.4,0,0.8,0,1,0.1c0.3,0.1,0.6,0.2,0.8,0.4c0.3,0.3,0.5,0.6,0.7,1s0.2,0.9,0.2,1.4
			c0,0.4-0.1,0.8-0.2,1.2s-0.2,0.6-0.4,0.8s-0.3,0.4-0.5,0.5s-0.4,0.2-0.7,0.3s-0.6,0.1-0.9,0.1H3547.8z M3548.6,348.3h1.2
			c0.4,0,0.7,0,0.9-0.1s0.4-0.2,0.5-0.3c0.2-0.2,0.3-0.4,0.4-0.7s0.2-0.7,0.2-1.1c0-0.6-0.1-1.1-0.3-1.4s-0.4-0.5-0.7-0.6
			c-0.2-0.1-0.5-0.1-1-0.1h-1.2V348.3z"/>
	</g>
	<g enable-background="new    ">
		<path d="M3554.5,349v-3.7h0.6v0.5c0.1-0.2,0.3-0.3,0.5-0.4c0.2-0.1,0.4-0.2,0.7-0.2c0.3,0,0.5,0.1,0.7,0.2
			c0.2,0.1,0.3,0.3,0.4,0.5c0.3-0.4,0.7-0.7,1.2-0.7c0.4,0,0.7,0.1,0.9,0.3s0.3,0.5,0.3,0.9v2.6h-0.6v-2.4c0-0.3,0-0.4-0.1-0.5
			s-0.1-0.2-0.2-0.3c-0.1-0.1-0.2-0.1-0.4-0.1c-0.3,0-0.5,0.1-0.7,0.3s-0.3,0.5-0.3,0.8v2.2h-0.6v-2.4c0-0.3-0.1-0.5-0.2-0.6
			c-0.1-0.1-0.3-0.2-0.5-0.2c-0.2,0-0.3,0-0.5,0.1s-0.3,0.2-0.3,0.4c-0.1,0.2-0.1,0.4-0.1,0.8v1.9H3554.5z"/>
	</g>
	<g enable-background="new    ">
		<path d="M3615.7,360.9v2.5h-6.1v-2.5H3615.7z"/>
	</g>
	<line fill="none" stroke="#000000" stroke-width="0.459" x1="3609" y1="363.4" x2="3616.2" y2="363.4"/>
	<line fill="none" stroke="#000000" stroke-width="0.459" x1="3639" y1="374.6" x2="3639" y2="358.6"/>
	<g enable-background="new    ">
		<path d="M3637.7,373.3c1.4,0,2.2,1,1.8,2.2c-0.4,1.2-1.9,2.2-3.4,2.2c-1.4,0-2.2-1-1.7-2.2
			C3634.8,374.2,3636.3,373.3,3637.7,373.3z"/>
	</g>
	<line fill="none" stroke="#000000" stroke-width="0.459" x1="3654.2" y1="369.8" x2="3654.2" y2="353.8"/>
	<g enable-background="new    ">
		<path d="M3652.9,368.5c1.4,0,2.2,1,1.8,2.2c-0.4,1.2-1.9,2.2-3.4,2.2c-1.4,0-2.2-1-1.7-2.2C3650,369.4,3651.5,368.5,3652.9,368.5z
			"/>
	</g>
	<line fill="none" stroke="#000000" stroke-width="0.459" x1="3675.6" y1="365" x2="3675.6" y2="349"/>
	<g enable-background="new    ">
		<path d="M3675.1,365.9c-0.3,0.9-1,1.5-1.6,1.8c-0.5,0.3-1.2,0.4-2,0.3c-0.5,0-1.3-0.2-1.6-0.7c-0.3-0.6-0.1-1.2,0-1.6
			c0.3-0.8,1-1.4,1.5-1.7c0.5-0.3,1.3-0.5,2.2-0.4c0.4,0,1.1,0.1,1.5,0.7C3675.4,364.8,3675.2,365.6,3675.1,365.9z M3673.1,364.6
			c-0.4,0.2-0.7,0.4-1,0.5c-0.3,0.2-0.6,0.4-1,0.6c-0.5,0.3-1.1,0.9-0.8,1.4c0.3,0.6,1.1,0.3,1.6,0c0.4-0.2,0.7-0.4,1-0.5
			c0.3-0.2,0.6-0.4,1-0.6c0.5-0.3,1.1-0.9,0.8-1.4C3674.5,364,3673.7,364.3,3673.1,364.6z"/>
	</g>
	<line fill="none" stroke="#000000" stroke-width="0.459" x1="3703.6" y1="365" x2="3703.6" y2="349"/>
	<g enable-background="new    ">
		<path d="M3703.1,365.9c-0.3,0.9-1,1.5-1.6,1.8c-0.5,0.3-1.2,0.4-2,0.3c-0.5,0-1.3-0.2-1.6-0.7c-0.3-0.6-0.1-1.2,0-1.6
			c0.3-0.8,1-1.4,1.5-1.7c0.5-0.3,1.3-0.5,2.2-0.4c0.4,0,1.1,0.1,1.5,0.7C3703.4,364.8,3703.2,365.6,3703.1,365.9z M3701.1,364.6
			c-0.4,0.2-0.7,0.4-1,0.5c-0.3,0.2-0.6,0.4-1,0.6c-0.5,0.3-1.1,0.9-0.8,1.4c0.3,0.6,1.1,0.3,1.6,0c0.4-0.2,0.7-0.4,1-0.5
			c0.3-0.2,0.6-0.4,1-0.6c0.5-0.3,1.1-0.9,0.8-1.4C3702.5,364,3701.7,364.3,3701.1,364.6z"/>
	</g>
	<g enable-background="new    ">
		<path d="M3672.5,346.8v-0.7l2.4,0v2.1c-0.4,0.3-0.8,0.5-1.2,0.7s-0.8,0.2-1.2,0.2c-0.6,0-1.1-0.1-1.5-0.4s-0.8-0.6-1-1
			s-0.4-1-0.4-1.5c0-0.6,0.1-1.1,0.3-1.6s0.6-0.8,1-1.1s0.9-0.4,1.5-0.4c0.4,0,0.8,0.1,1.1,0.2s0.6,0.3,0.8,0.6s0.3,0.6,0.4,0.9
			l-0.7,0.2c-0.1-0.3-0.2-0.5-0.3-0.7s-0.3-0.3-0.5-0.4s-0.5-0.2-0.8-0.2c-0.3,0-0.6,0.1-0.9,0.2s-0.5,0.2-0.6,0.4s-0.3,0.4-0.4,0.6
			c-0.1,0.4-0.2,0.7-0.2,1.2c0,0.5,0.1,0.9,0.3,1.3s0.4,0.6,0.8,0.8s0.7,0.2,1.1,0.2c0.3,0,0.6-0.1,1-0.2s0.5-0.3,0.7-0.4v-1.1
			H3672.5z"/>
	</g>
	<g enable-background="new    ">
		<path d="M3737.7,360.9v2.5h-6.1v-2.5H3737.7z"/>
	</g>
	<line fill="none" stroke="#000000" stroke-width="0.459" x1="3731" y1="363.4" x2="3738.2" y2="363.4"/>
	<line fill="none" stroke="#000000" stroke-width="0.459" x1="3756.4" y1="361.8" x2="3756.4" y2="377.8"/>
	<g enable-background="new    ">
		<path d="M3759.7,358.9c1.4,0,2.2,1,1.8,2.2c-0.4,1.2-1.9,2.2-3.4,2.2c-1.4,0-2.2-1-1.7-2.2
			C3756.8,359.8,3758.3,358.9,3759.7,358.9z"/>
	</g>
	<line fill="none" stroke="#000000" stroke-width="0.459" x1="3771.6" y1="364.2" x2="3771.6" y2="380.2"/>
	<g enable-background="new    ">
		<path d="M3774.9,361.3c1.4,0,2.2,1,1.8,2.2c-0.4,1.2-1.9,2.2-3.4,2.2c-1.4,0-2.2-1-1.7-2.2C3772,362.2,3773.5,361.3,3774.9,361.3z
			"/>
	</g>
	<line fill="none" stroke="#000000" stroke-width="0.459" x1="3797.6" y1="365" x2="3797.6" y2="349"/>
	<g enable-background="new    ">
		<path d="M3797.1,365.9c-0.3,0.9-1,1.5-1.6,1.8c-0.5,0.3-1.2,0.4-2,0.3c-0.5,0-1.3-0.2-1.6-0.7c-0.3-0.6-0.1-1.2,0-1.6
			c0.3-0.8,1-1.4,1.5-1.7c0.5-0.3,1.3-0.5,2.2-0.4c0.4,0,1.1,0.1,1.5,0.7C3797.4,364.8,3797.2,365.6,3797.1,365.9z M3795.1,364.6
			c-0.4,0.2-0.7,0.4-1,0.5c-0.3,0.2-0.6,0.4-1,0.6c-0.5,0.3-1.1,0.9-0.8,1.4c0.3,0.6,1.1,0.3,1.6,0c0.4-0.2,0.7-0.4,1-0.5
			c0.3-0.2,0.6-0.4,1-0.6c0.5-0.3,1.1-0.9,0.8-1.4C3796.5,364,3795.7,364.3,3795.1,364.6z"/>
	</g>
	<g enable-background="new    ">
		<path d="M3825.9,360.9v2.5h-6.1v-2.5H3825.9z"/>
	</g>
	<line fill="none" stroke="#000000" stroke-width="0.459" x1="3819.2" y1="363.4" x2="3826.4" y2="363.4"/>
	<g enable-background="new    ">
		<path d="M3795.9,347l0.8,0.2c-0.2,0.6-0.4,1.1-0.9,1.4s-0.9,0.5-1.5,0.5c-0.6,0-1.1-0.1-1.5-0.4s-0.7-0.6-0.9-1.1s-0.3-1-0.3-1.5
			c0-0.6,0.1-1.1,0.3-1.6s0.6-0.8,1-1s0.9-0.3,1.4-0.3c0.6,0,1.1,0.1,1.4,0.4s0.7,0.7,0.8,1.2l-0.7,0.2c-0.1-0.4-0.3-0.7-0.6-0.9
			s-0.6-0.3-1-0.3c-0.4,0-0.8,0.1-1.1,0.3s-0.5,0.5-0.6,0.8s-0.2,0.7-0.2,1.1c0,0.5,0.1,0.9,0.2,1.3s0.4,0.6,0.7,0.8s0.6,0.3,1,0.3
			c0.4,0,0.8-0.1,1.1-0.4S3795.8,347.5,3795.9,347z"/>
	</g>
	<g enable-background="new    ">
		<path d="M3859.7,360.9v2.5h-6.1v-2.5H3859.7z"/>
	</g>
	<line fill="none" stroke="#000000" stroke-width="0.459" x1="3853" y1="363.4" x2="3860.2" y2="363.4"/>
	<line fill="none" stroke="#000000" stroke-width="0.459" x1="3883" y1="367.4" x2="3883" y2="351.4"/>
	<g enable-background="new    ">
		<path d="M3881.7,366.1c1.4,0,2.2,1,1.8,2.2c-0.4,1.2-1.9,2.2-3.4,2.2c-1.4,0-2.2-1-1.7-2.2C3878.8,367,3880.3,366.1,3881.7,366.1z
			"/>
	</g>
	<line fill="none" stroke="#000000" stroke-width="0.459" x1="3893.6" y1="364.2" x2="3893.6" y2="380.2"/>
	<g enable-background="new    ">
		<path d="M3896.9,361.3c1.4,0,2.2,1,1.8,2.2c-0.4,1.2-1.9,2.2-3.4,2.2c-1.4,0-2.2-1-1.7-2.2C3894,362.2,3895.5,361.3,3896.9,361.3z
			"/>
	</g>
	<line fill="none" stroke="#000000" stroke-width="0.459" x1="3914.2" y1="359.4" x2="3914.2" y2="375.4"/>
	<g enable-background="new    ">
		<path d="M3919.3,358.7c-0.3,0.9-1,1.5-1.6,1.8c-0.5,0.3-1.2,0.4-2,0.3c-0.5,0-1.3-0.2-1.6-0.7c-0.3-0.6-0.1-1.2,0-1.6
			c0.3-0.8,1-1.4,1.5-1.7c0.5-0.3,1.3-0.5,2.2-0.4c0.4,0,1.1,0.1,1.5,0.7C3919.6,357.6,3919.4,358.4,3919.3,358.7z M3917.3,357.4
			c-0.4,0.2-0.7,0.4-1,0.5c-0.3,0.2-0.6,0.4-1,0.6c-0.5,0.3-1.1,0.9-0.8,1.4c0.3,0.6,1.1,0.3,1.6,0c0.4-0.2,0.7-0.4,1-0.5
			c0.3-0.2,0.6-0.4,1-0.6c0.5-0.3,1.1-0.9,0.8-1.4C3918.7,356.8,3917.9,357.1,3917.3,357.4z"/>
	</g>
	<line fill="none" stroke="#000000" stroke-width="0.459" x1="3942" y1="361.8" x2="3942" y2="377.8"/>
	<g enable-background="new    ">
		<path d="M3947.1,361.1c-0.3,0.9-1,1.5-1.6,1.8c-0.5,0.3-1.2,0.4-2,0.3c-0.5,0-1.3-0.2-1.6-0.7c-0.3-0.6-0.1-1.2,0-1.6
			c0.3-0.8,1-1.4,1.5-1.7c0.5-0.3,1.3-0.5,2.2-0.4c0.4,0,1.1,0.1,1.5,0.7C3947.4,360,3947.2,360.8,3947.1,361.1z M3945.1,359.8
			c-0.4,0.2-0.7,0.4-1,0.5c-0.3,0.2-0.6,0.4-1,0.6c-0.5,0.3-1.1,0.9-0.8,1.4c0.3,0.6,1.1,0.3,1.6,0c0.4-0.2,0.7-0.4,1-0.5
			c0.3-0.2,0.6-0.4,1-0.6c0.5-0.3,1.1-0.9,0.8-1.4C3946.5,359.2,3945.7,359.5,3945.1,359.8z"/>
	</g>
	<g enable-background="new    ">
		<path d="M3918.7,347l0.8,0.2c-0.2,0.6-0.4,1.1-0.9,1.4s-0.9,0.5-1.5,0.5c-0.6,0-1.1-0.1-1.5-0.4s-0.7-0.6-0.9-1.1s-0.3-1-0.3-1.5
			c0-0.6,0.1-1.1,0.3-1.6s0.6-0.8,1-1s0.9-0.3,1.4-0.3c0.6,0,1.1,0.1,1.4,0.4s0.7,0.7,0.8,1.2l-0.7,0.2c-0.1-0.4-0.3-0.7-0.6-0.9
			s-0.6-0.3-1-0.3c-0.4,0-0.8,0.1-1.1,0.3s-0.5,0.5-0.6,0.8s-0.2,0.7-0.2,1.1c0,0.5,0.1,0.9,0.2,1.3s0.4,0.6,0.7,0.8s0.6,0.3,1,0.3
			c0.4,0,0.8-0.1,1.1-0.4S3918.6,347.5,3918.7,347z"/>
	</g>
	<g enable-background="new    ">
		<path d="M3920.8,349.1l1.7-5.9h0.6l-1.7,5.9H3920.8z"/>
	</g>
	<g enable-background="new    ">
		<path d="M3923.4,349v-5.7h4.1v0.7h-3.4v1.8h3.2v0.7h-3.2v1.9h3.5v0.7H3923.4z"/>
	</g>
	<g enable-background="new    ">
		<path d="M3981.7,360.9v2.5h-6.1v-2.5H3981.7z"/>
	</g>
	<line fill="none" stroke="#000000" stroke-width="0.459" x1="3975" y1="363.4" x2="3982.2" y2="363.4"/>
	<line fill="none" stroke="#000000" stroke-width="0.459" x1="4000.4" y1="364.2" x2="4000.4" y2="380.2"/>
	<g enable-background="new    ">
		<path d="M4003.7,361.3c1.4,0,2.2,1,1.8,2.2c-0.4,1.2-1.9,2.2-3.4,2.2c-1.4,0-2.2-1-1.7-2.2
			C4000.8,362.2,4002.3,361.3,4003.7,361.3z"/>
	</g>
	<line fill="none" stroke="#000000" stroke-width="0.459" x1="4020.2" y1="365" x2="4020.2" y2="349"/>
	<g enable-background="new    ">
		<path d="M4018.9,363.7c1.4,0,2.2,1,1.8,2.2c-0.4,1.2-1.9,2.2-3.4,2.2c-1.4,0-2.2-1-1.7-2.2C4016,364.6,4017.5,363.7,4018.9,363.7z
			"/>
	</g>
	<g enable-background="new    ">
		<path d="M3976.2,349v-5.7h4.1v0.7h-3.4v1.8h3.2v0.7h-3.2v1.9h3.5v0.7H3976.2z"/>
	</g>
	<g enable-background="new    ">
		<path d="M3981.8,342.8c0,0.1,0,1,0,1c0.6-0.5,0.9-0.7,1.6-0.7c0.8,0,1.3,0.8,1.3,1.4c0,0.3-0.1,0.7-0.2,1
			c-0.1,0.4-0.5,0.6-0.8,0.9c-0.3,0.3-2.4,1.7-2.4,1.7v-9.5h0.4C3981.8,338.7,3981.8,340.7,3981.8,342.8z M3982,344.4
			c-0.2,0.4-0.2,1.1-0.2,1.6v1.4c0,0,0.6-0.5,0.9-0.8c0.3-0.3,0.5-0.6,0.6-1.1c0.1-0.5,0.1-1-0.2-1.3
			C3982.9,343.9,3982.3,343.7,3982,344.4z"/>
	</g>
	<g enable-background="new    ">
		<path d="M3987.3,349v-0.5c-0.2,0.4-0.6,0.6-1,0.6c-0.3,0-0.6-0.1-0.8-0.2s-0.4-0.4-0.6-0.7c-0.1-0.3-0.2-0.6-0.2-1
			c0-0.4,0.1-0.7,0.2-1c0.1-0.3,0.3-0.5,0.6-0.7c0.2-0.2,0.5-0.2,0.8-0.2c0.2,0,0.4,0,0.6,0.1s0.3,0.2,0.4,0.4v-1.8h0.6v5.2H3987.3z
			 M3985.3,347.1c0,0.5,0.1,0.8,0.3,1.1s0.4,0.4,0.7,0.4c0.3,0,0.5-0.1,0.7-0.3c0.2-0.2,0.3-0.6,0.3-1c0-0.5-0.1-0.9-0.3-1.1
			s-0.4-0.4-0.7-0.4c-0.3,0-0.5,0.1-0.7,0.3C3985.4,346.3,3985.3,346.6,3985.3,347.1z"/>
	</g>
	<g enable-background="new    ">
		<path d="M3989.9,344.6v-0.7h0.6v0.7H3989.9z M3989.9,349v-3.7h0.6v3.7H3989.9z"/>
	</g>
	<g enable-background="new    ">
		<path d="M3991.9,349v-3.7h0.6v0.5c0.1-0.2,0.3-0.3,0.5-0.4c0.2-0.1,0.4-0.2,0.7-0.2c0.3,0,0.5,0.1,0.7,0.2
			c0.2,0.1,0.3,0.3,0.4,0.5c0.3-0.4,0.7-0.7,1.2-0.7c0.4,0,0.7,0.1,0.9,0.3s0.3,0.5,0.3,0.9v2.6h-0.6v-2.4c0-0.3,0-0.4-0.1-0.5
			s-0.1-0.2-0.2-0.3c-0.1-0.1-0.2-0.1-0.4-0.1c-0.3,0-0.5,0.1-0.7,0.3c-0.2,0.2-0.3,0.5-0.3,0.8v2.2h-0.6v-2.4
			c0-0.3-0.1-0.5-0.2-0.6c-0.1-0.1-0.3-0.2-0.5-0.2c-0.2,0-0.3,0-0.5,0.1c-0.2,0.1-0.3,0.2-0.3,0.4s-0.1,0.4-0.1,0.8v1.9H3991.9z"/>
	</g>
	<line fill="none" stroke="#000000" stroke-width="0.459" x1="4036.2" y1="361.8" x2="4036.2" y2="377.8"/>
	<g enable-background="new    ">
		<path d="M4041.3,361.1c-0.3,0.9-1,1.5-1.6,1.8c-0.5,0.3-1.2,0.4-2,0.3c-0.5,0-1.3-0.2-1.6-0.7c-0.3-0.6-0.1-1.2,0-1.6
			c0.3-0.8,1-1.4,1.5-1.7c0.5-0.3,1.3-0.5,2.2-0.4c0.4,0,1.1,0.1,1.5,0.7C4041.6,360,4041.4,360.8,4041.3,361.1z M4039.3,359.8
			c-0.4,0.2-0.7,0.4-1,0.5c-0.3,0.2-0.6,0.4-1,0.6c-0.5,0.3-1.1,0.9-0.8,1.4c0.3,0.6,1.1,0.3,1.6,0c0.4-0.2,0.7-0.4,1-0.5
			c0.3-0.2,0.6-0.4,1-0.6c0.5-0.3,1.1-0.9,0.8-1.4C4040.7,359.2,4039.9,359.5,4039.3,359.8z"/>
	</g>
	<line fill="none" stroke="#000000" stroke-width="0.459" x1="4069.6" y1="374.6" x2="4069.6" y2="358.6"/>
	<g enable-background="new    ">
		<path d="M4069.1,375.5c-0.3,0.9-1,1.5-1.6,1.8c-0.5,0.3-1.2,0.4-2,0.3c-0.5,0-1.3-0.2-1.6-0.7c-0.3-0.6-0.1-1.2,0-1.6
			c0.3-0.8,1-1.4,1.5-1.7c0.5-0.3,1.3-0.5,2.2-0.4c0.4,0,1.1,0.1,1.5,0.7C4069.4,374.4,4069.2,375.2,4069.1,375.5z M4067.1,374.2
			c-0.4,0.2-0.7,0.4-1,0.5c-0.3,0.2-0.6,0.4-1,0.6c-0.5,0.3-1.1,0.9-0.8,1.4c0.3,0.6,1.1,0.3,1.6,0c0.4-0.2,0.7-0.4,1-0.5
			c0.3-0.2,0.6-0.4,1-0.6c0.5-0.3,1.1-0.9,0.8-1.4C4068.5,373.6,4067.7,373.9,4067.1,374.2z"/>
	</g>
	<g enable-background="new    ">
		<path d="M4036.6,349v-5.7h2c0.4,0,0.8,0,1,0.1c0.3,0.1,0.6,0.2,0.8,0.4c0.3,0.3,0.5,0.6,0.7,1s0.2,0.9,0.2,1.4
			c0,0.4-0.1,0.8-0.2,1.2s-0.2,0.6-0.4,0.8s-0.3,0.4-0.5,0.5s-0.4,0.2-0.7,0.3s-0.6,0.1-0.9,0.1H4036.6z M4037.4,348.3h1.2
			c0.4,0,0.7,0,0.9-0.1s0.4-0.2,0.5-0.3c0.2-0.2,0.3-0.4,0.4-0.7s0.2-0.7,0.2-1.1c0-0.6-0.1-1.1-0.3-1.4s-0.4-0.5-0.7-0.6
			c-0.2-0.1-0.5-0.1-1-0.1h-1.2V348.3z"/>
	</g>
	<g enable-background="new    ">
		<path d="M4043.3,349v-3.7h0.6v0.5c0.1-0.2,0.3-0.3,0.5-0.4c0.2-0.1,0.4-0.2,0.7-0.2c0.3,0,0.5,0.1,0.7,0.2
			c0.2,0.1,0.3,0.3,0.4,0.5c0.3-0.4,0.7-0.7,1.2-0.7c0.4,0,0.7,0.1,0.9,0.3s0.3,0.5,0.3,0.9v2.6h-0.6v-2.4c0-0.3,0-0.4-0.1-0.5
			s-0.1-0.2-0.2-0.3c-0.1-0.1-0.2-0.1-0.4-0.1c-0.3,0-0.5,0.1-0.7,0.3s-0.3,0.5-0.3,0.8v2.2h-0.6v-2.4c0-0.3-0.1-0.5-0.2-0.6
			s-0.3-0.2-0.5-0.2c-0.2,0-0.3,0-0.5,0.1s-0.3,0.2-0.3,0.4c-0.1,0.2-0.1,0.4-0.1,0.8v1.9H4043.3z"/>
	</g>
	<g enable-background="new    ">
		<path d="M4103.7,360.9v2.5h-6.1v-2.5H4103.7z"/>
	</g>
	<line fill="none" stroke="#000000" stroke-width="0.459" x1="4097" y1="363.4" x2="4104.2" y2="363.4"/>
	<line fill="none" stroke="#000000" stroke-width="0.459" x1="4127" y1="372.2" x2="4127" y2="356.2"/>
	<g enable-background="new    ">
		<path d="M4125.7,370.9c1.4,0,2.2,1,1.8,2.2c-0.4,1.2-1.9,2.2-3.4,2.2c-1.4,0-2.2-1-1.7-2.2
			C4122.8,371.8,4124.3,370.9,4125.7,370.9z"/>
	</g>
	<line fill="none" stroke="#000000" stroke-width="0.459" x1="4142.2" y1="369.8" x2="4142.2" y2="353.8"/>
	<g enable-background="new    ">
		<path d="M4140.9,368.5c1.4,0,2.2,1,1.8,2.2c-0.4,1.2-1.9,2.2-3.4,2.2c-1.4,0-2.2-1-1.7-2.2C4138,369.4,4139.5,368.5,4140.9,368.5z
			"/>
	</g>
	<line fill="none" stroke="#000000" stroke-width="0.459" x1="4158.2" y1="361.8" x2="4158.2" y2="377.8"/>
	<g enable-background="new    ">
		<path d="M4163.3,361.1c-0.3,0.9-1,1.5-1.6,1.8c-0.5,0.3-1.2,0.4-2,0.3c-0.5,0-1.3-0.2-1.6-0.7c-0.3-0.6-0.1-1.2,0-1.6
			c0.3-0.8,1-1.4,1.5-1.7c0.5-0.3,1.3-0.5,2.2-0.4c0.4,0,1.1,0.1,1.5,0.7C4163.6,360,4163.4,360.8,4163.3,361.1z M4161.3,359.8
			c-0.4,0.2-0.7,0.4-1,0.5c-0.3,0.2-0.6,0.4-1,0.6c-0.5,0.3-1.1,0.9-0.8,1.4c0.3,0.6,1.1,0.3,1.6,0c0.4-0.2,0.7-0.4,1-0.5
			c0.3-0.2,0.6-0.4,1-0.6c0.5-0.3,1.1-0.9,0.8-1.4C4162.7,359.2,4161.9,359.5,4161.3,359.8z"/>
	</g>
	<line fill="none" stroke="#000000" stroke-width="0.459" x1="4191.6" y1="374.6" x2="4191.6" y2="358.6"/>
	<g enable-background="new    ">
		<path d="M4191.1,375.5c-0.3,0.9-1,1.5-1.6,1.8c-0.5,0.3-1.2,0.4-2,0.3c-0.5,0-1.3-0.2-1.6-0.7c-0.3-0.6-0.1-1.2,0-1.6
			c0.3-0.8,1-1.4,1.5-1.7c0.5-0.3,1.3-0.5,2.2-0.4c0.4,0,1.1,0.1,1.5,0.7C4191.4,374.4,4191.2,375.2,4191.1,375.5z M4189.1,374.2
			c-0.4,0.2-0.7,0.4-1,0.5c-0.3,0.2-0.6,0.4-1,0.6c-0.5,0.3-1.1,0.9-0.8,1.4c0.3,0.6,1.1,0.3,1.6,0c0.4-0.2,0.7-0.4,1-0.5
			c0.3-0.2,0.6-0.4,1-0.6c0.5-0.3,1.1-0.9,0.8-1.4C4190.5,373.6,4189.7,373.9,4189.1,374.2z"/>
	</g>
	<g enable-background="new    ">
		<path d="M4161.3,346.8v-0.7l2.4,0v2.1c-0.4,0.3-0.8,0.5-1.2,0.7s-0.8,0.2-1.2,0.2c-0.6,0-1.1-0.1-1.5-0.4s-0.8-0.6-1-1
			s-0.4-1-0.4-1.5c0-0.6,0.1-1.1,0.3-1.6s0.6-0.8,1-1.1s0.9-0.4,1.5-0.4c0.4,0,0.8,0.1,1.1,0.2s0.6,0.3,0.8,0.6s0.3,0.6,0.4,0.9
			l-0.7,0.2c-0.1-0.3-0.2-0.5-0.3-0.7s-0.3-0.3-0.5-0.4s-0.5-0.2-0.8-0.2c-0.3,0-0.6,0.1-0.9,0.2s-0.5,0.2-0.6,0.4s-0.3,0.4-0.4,0.6
			c-0.1,0.4-0.2,0.7-0.2,1.2c0,0.5,0.1,0.9,0.3,1.3s0.4,0.6,0.8,0.8s0.7,0.2,1.1,0.2c0.3,0,0.6-0.1,1-0.2s0.5-0.3,0.7-0.4v-1.1
			H4161.3z"/>
	</g>
	<g enable-background="new    ">
		<path d="M4225.7,360.9v2.5h-6.1v-2.5H4225.7z"/>
	</g>
	<line fill="none" stroke="#000000" stroke-width="0.459" x1="4219" y1="363.4" x2="4226.2" y2="363.4"/>
	<line fill="none" stroke="#000000" stroke-width="0.459" x1="4244.4" y1="361.8" x2="4244.4" y2="377.8"/>
	<g enable-background="new    ">
		<path d="M4247.7,358.9c1.4,0,2.2,1,1.8,2.2c-0.4,1.2-1.9,2.2-3.4,2.2c-1.4,0-2.2-1-1.7-2.2
			C4244.8,359.8,4246.3,358.9,4247.7,358.9z"/>
	</g>
	<line fill="none" stroke="#000000" stroke-width="0.459" x1="4259.6" y1="364.2" x2="4259.6" y2="380.2"/>
	<g enable-background="new    ">
		<path d="M4262.9,361.3c1.4,0,2.2,1,1.8,2.2c-0.4,1.2-1.9,2.2-3.4,2.2c-1.4,0-2.2-1-1.7-2.2C4260,362.2,4261.5,361.3,4262.9,361.3z
			"/>
	</g>
	<line fill="none" stroke="#000000" stroke-width="0.459" x1="4285.6" y1="365" x2="4285.6" y2="349"/>
	<g enable-background="new    ">
		<path d="M4285.1,365.9c-0.3,0.9-1,1.5-1.6,1.8c-0.5,0.3-1.2,0.4-2,0.3c-0.5,0-1.3-0.2-1.6-0.7c-0.3-0.6-0.1-1.2,0-1.6
			c0.3-0.8,1-1.4,1.5-1.7c0.5-0.3,1.3-0.5,2.2-0.4c0.4,0,1.1,0.1,1.5,0.7C4285.4,364.8,4285.2,365.6,4285.1,365.9z M4283.1,364.6
			c-0.4,0.2-0.7,0.4-1,0.5c-0.3,0.2-0.6,0.4-1,0.6c-0.5,0.3-1.1,0.9-0.8,1.4c0.3,0.6,1.1,0.3,1.6,0c0.4-0.2,0.7-0.4,1-0.5
			c0.3-0.2,0.6-0.4,1-0.6c0.5-0.3,1.1-0.9,0.8-1.4C4284.5,364,4283.7,364.3,4283.1,364.6z"/>
	</g>
	<g enable-background="new    ">
		<path d="M4313.9,360.9v2.5h-6.1v-2.5H4313.9z"/>
	</g>
	<line fill="none" stroke="#000000" stroke-width="0.459" x1="4307.2" y1="363.4" x2="4314.4" y2="363.4"/>
	<g enable-background="new    ">
		<path d="M4280.8,338.2v-5.7h2.1c0.4,0,0.8,0.1,1.1,0.2s0.5,0.3,0.6,0.5s0.2,0.5,0.2,0.8c0,0.2-0.1,0.5-0.2,0.7s-0.3,0.4-0.6,0.5
			c0.3,0.1,0.6,0.3,0.8,0.5s0.3,0.5,0.3,0.9c0,0.3-0.1,0.5-0.2,0.7s-0.3,0.4-0.4,0.5s-0.4,0.2-0.6,0.3s-0.6,0.1-0.9,0.1H4280.8z
			 M4281.5,334.9h1.2c0.3,0,0.6,0,0.7-0.1c0.2-0.1,0.3-0.2,0.4-0.3s0.1-0.3,0.1-0.5c0-0.2,0-0.4-0.1-0.5s-0.2-0.2-0.4-0.3
			s-0.5-0.1-0.9-0.1h-1.1V334.9z M4281.5,337.5h1.4c0.2,0,0.4,0,0.5,0c0.2,0,0.3-0.1,0.4-0.2s0.2-0.2,0.3-0.3s0.1-0.3,0.1-0.5
			c0-0.2-0.1-0.4-0.2-0.6s-0.3-0.3-0.5-0.3s-0.5-0.1-0.8-0.1h-1.3V337.5z"/>
	</g>
	<g enable-background="new    ">
		<path d="M4285.1,347l0.8,0.2c-0.2,0.6-0.4,1.1-0.9,1.4c-0.4,0.3-0.9,0.5-1.5,0.5c-0.6,0-1.1-0.1-1.5-0.4s-0.7-0.6-0.9-1.1
			c-0.2-0.5-0.3-1-0.3-1.5c0-0.6,0.1-1.1,0.3-1.6c0.2-0.4,0.6-0.8,1-1c0.4-0.2,0.9-0.3,1.4-0.3c0.6,0,1.1,0.1,1.4,0.4
			s0.7,0.7,0.8,1.2l-0.7,0.2c-0.1-0.4-0.3-0.7-0.6-0.9c-0.3-0.2-0.6-0.3-1-0.3c-0.4,0-0.8,0.1-1.1,0.3c-0.3,0.2-0.5,0.5-0.6,0.8
			c-0.1,0.4-0.2,0.7-0.2,1.1c0,0.5,0.1,0.9,0.2,1.3c0.1,0.4,0.4,0.6,0.7,0.8c0.3,0.2,0.6,0.3,1,0.3c0.4,0,0.8-0.1,1.1-0.4
			C4284.8,347.8,4285,347.5,4285.1,347z"/>
	</g>
	<g enable-background="new    ">
		<path d="M4347.7,360.9v2.5h-6.1v-2.5H4347.7z"/>
	</g>
	<line fill="none" stroke="#000000" stroke-width="0.459" x1="4341" y1="363.4" x2="4348.2" y2="363.4"/>
	<line fill="none" stroke="#000000" stroke-width="0.459" x1="4371" y1="372.2" x2="4371" y2="356.2"/>
	<g enable-background="new    ">
		<path d="M4369.7,370.9c1.4,0,2.2,1,1.8,2.2c-0.4,1.2-1.9,2.2-3.4,2.2c-1.4,0-2.2-1-1.7-2.2
			C4366.8,371.8,4368.3,370.9,4369.7,370.9z"/>
	</g>
	<line fill="none" stroke="#000000" stroke-width="0.459" x1="4386.2" y1="367.4" x2="4386.2" y2="351.4"/>
	<g enable-background="new    ">
		<path d="M4384.9,366.1c1.4,0,2.2,1,1.8,2.2c-0.4,1.2-1.9,2.2-3.4,2.2c-1.4,0-2.2-1-1.7-2.2C4382,367,4383.5,366.1,4384.9,366.1z"
			/>
	</g>
	<g enable-background="new    ">
		<path d="M4367.2,338.8l2.2-5.7h0.8l2.3,5.7h-0.9l-0.7-1.7h-2.4l-0.6,1.7H4367.2z M4368.8,336.4h1.9l-0.6-1.6
			c-0.2-0.5-0.3-0.9-0.4-1.2c-0.1,0.4-0.2,0.7-0.3,1.1L4368.8,336.4z"/>
	</g>
	<line fill="none" stroke="#000000" stroke-width="0.459" x1="4407.6" y1="365" x2="4407.6" y2="349"/>
	<g enable-background="new    ">
		<path d="M4407.1,365.9c-0.3,0.9-1,1.5-1.6,1.8c-0.5,0.3-1.2,0.4-2,0.3c-0.5,0-1.3-0.2-1.6-0.7c-0.3-0.6-0.1-1.2,0-1.6
			c0.3-0.8,1-1.4,1.5-1.7c0.5-0.3,1.3-0.5,2.2-0.4c0.4,0,1.1,0.1,1.5,0.7C4407.4,364.8,4407.2,365.6,4407.1,365.9z M4405.1,364.6
			c-0.4,0.2-0.7,0.4-1,0.5c-0.3,0.2-0.6,0.4-1,0.6c-0.5,0.3-1.1,0.9-0.8,1.4c0.3,0.6,1.1,0.3,1.6,0c0.4-0.2,0.7-0.4,1-0.5
			c0.3-0.2,0.6-0.4,1-0.6c0.5-0.3,1.1-0.9,0.8-1.4C4406.5,364,4405.7,364.3,4405.1,364.6z"/>
	</g>
	<line fill="none" stroke="#000000" stroke-width="0.459" x1="4435.6" y1="365" x2="4435.6" y2="349"/>
	<g enable-background="new    ">
		<path d="M4435.1,365.9c-0.3,0.9-1,1.5-1.6,1.8c-0.5,0.3-1.2,0.4-2,0.3c-0.5,0-1.3-0.2-1.6-0.7c-0.3-0.6-0.1-1.2,0-1.6
			c0.3-0.8,1-1.4,1.5-1.7c0.5-0.3,1.3-0.5,2.2-0.4c0.4,0,1.1,0.1,1.5,0.7C4435.4,364.8,4435.2,365.6,4435.1,365.9z M4433.1,364.6
			c-0.4,0.2-0.7,0.4-1,0.5c-0.3,0.2-0.6,0.4-1,0.6c-0.5,0.3-1.1,0.9-0.8,1.4c0.3,0.6,1.1,0.3,1.6,0c0.4-0.2,0.7-0.4,1-0.5
			c0.3-0.2,0.6-0.4,1-0.6c0.5-0.3,1.1-0.9,0.8-1.4C4434.5,364,4433.7,364.3,4433.1,364.6z"/>
	</g>
	<g enable-background="new    ">
		<path d="M4405.9,347l0.8,0.2c-0.2,0.6-0.4,1.1-0.9,1.4s-0.9,0.5-1.5,0.5c-0.6,0-1.1-0.1-1.5-0.4s-0.7-0.6-0.9-1.1s-0.3-1-0.3-1.5
			c0-0.6,0.1-1.1,0.3-1.6s0.6-0.8,1-1s0.9-0.3,1.4-0.3c0.6,0,1.1,0.1,1.4,0.4s0.7,0.7,0.8,1.2l-0.7,0.2c-0.1-0.4-0.3-0.7-0.6-0.9
			s-0.6-0.3-1-0.3c-0.4,0-0.8,0.1-1.1,0.3s-0.5,0.5-0.6,0.8s-0.2,0.7-0.2,1.1c0,0.5,0.1,0.9,0.2,1.3s0.4,0.6,0.7,0.8s0.6,0.3,1,0.3
			c0.4,0,0.8-0.1,1.1-0.4S4405.8,347.5,4405.9,347z"/>
	</g>
	<g enable-background="new    ">
		<path d="M4469.7,360.9v2.5h-6.1v-2.5H4469.7z"/>
	</g>
	<line fill="none" stroke="#000000" stroke-width="0.459" x1="4463" y1="363.4" x2="4470.2" y2="363.4"/>
	<line fill="none" stroke="#000000" stroke-width="0.459" x1="4493" y1="372.2" x2="4493" y2="356.2"/>
	<g enable-background="new    ">
		<path d="M4491.7,370.9c1.4,0,2.2,1,1.8,2.2c-0.4,1.2-1.9,2.2-3.4,2.2c-1.4,0-2.2-1-1.7-2.2
			C4488.8,371.8,4490.3,370.9,4491.7,370.9z"/>
	</g>
	<line fill="none" stroke="#000000" stroke-width="0.459" x1="4508.2" y1="367.4" x2="4508.2" y2="351.4"/>
	<g enable-background="new    ">
		<path d="M4506.9,366.1c1.4,0,2.2,1,1.8,2.2c-0.4,1.2-1.9,2.2-3.4,2.2c-1.4,0-2.2-1-1.7-2.2C4504,367,4505.5,366.1,4506.9,366.1z"
			/>
	</g>
	<line fill="none" stroke="#000000" stroke-width="0.459" x1="4529.6" y1="365" x2="4529.6" y2="349"/>
	<g enable-background="new    ">
		<path d="M4529.1,365.9c-0.3,0.9-1,1.5-1.6,1.8c-0.5,0.3-1.2,0.4-2,0.3c-0.5,0-1.3-0.2-1.6-0.7c-0.3-0.6-0.1-1.2,0-1.6
			c0.3-0.8,1-1.4,1.5-1.7c0.5-0.3,1.3-0.5,2.2-0.4c0.4,0,1.1,0.1,1.5,0.7C4529.4,364.8,4529.2,365.6,4529.1,365.9z M4527.1,364.6
			c-0.4,0.2-0.7,0.4-1,0.5c-0.3,0.2-0.6,0.4-1,0.6c-0.5,0.3-1.1,0.9-0.8,1.4c0.3,0.6,1.1,0.3,1.6,0c0.4-0.2,0.7-0.4,1-0.5
			c0.3-0.2,0.6-0.4,1-0.6c0.5-0.3,1.1-0.9,0.8-1.4C4528.5,364,4527.7,364.3,4527.1,364.6z"/>
	</g>
	<line fill="none" stroke="#000000" stroke-width="0.459" x1="4557.6" y1="365" x2="4557.6" y2="349"/>
	<g enable-background="new    ">
		<path d="M4557.1,365.9c-0.3,0.9-1,1.5-1.6,1.8c-0.5,0.3-1.2,0.4-2,0.3c-0.5,0-1.3-0.2-1.6-0.7c-0.3-0.6-0.1-1.2,0-1.6
			c0.3-0.8,1-1.4,1.5-1.7c0.5-0.3,1.3-0.5,2.2-0.4c0.4,0,1.1,0.1,1.5,0.7C4557.4,364.8,4557.2,365.6,4557.1,365.9z M4555.1,364.6
			c-0.4,0.2-0.7,0.4-1,0.5c-0.3,0.2-0.6,0.4-1,0.6c-0.5,0.3-1.1,0.9-0.8,1.4c0.3,0.6,1.1,0.3,1.6,0c0.4-0.2,0.7-0.4,1-0.5
			c0.3-0.2,0.6-0.4,1-0.6c0.5-0.3,1.1-0.9,0.8-1.4C4556.5,364,4555.7,364.3,4555.1,364.6z"/>
	</g>
	<g enable-background="new    ">
		<path d="M4523.8,349v-5.7h2c0.4,0,0.8,0,1,0.1c0.3,0.1,0.6,0.2,0.8,0.4c0.3,0.3,0.5,0.6,0.7,1s0.2,0.9,0.2,1.4
			c0,0.4-0.1,0.8-0.2,1.2s-0.2,0.6-0.4,0.8s-0.3,0.4-0.5,0.5s-0.4,0.2-0.7,0.3s-0.6,0.1-0.9,0.1H4523.8z M4524.6,348.3h1.2
			c0.4,0,0.7,0,0.9-0.1s0.4-0.2,0.5-0.3c0.2-0.2,0.3-0.4,0.4-0.7s0.2-0.7,0.2-1.1c0-0.6-0.1-1.1-0.3-1.4s-0.4-0.5-0.7-0.6
			c-0.2-0.1-0.5-0.1-1-0.1h-1.2V348.3z"/>
	</g>
	<g enable-background="new    ">
		<path d="M4530.5,349v-3.7h0.6v0.5c0.1-0.2,0.3-0.3,0.5-0.4c0.2-0.1,0.4-0.2,0.7-0.2c0.3,0,0.5,0.1,0.7,0.2
			c0.2,0.1,0.3,0.3,0.4,0.5c0.3-0.4,0.7-0.7,1.2-0.7c0.4,0,0.7,0.1,0.9,0.3s0.3,0.5,0.3,0.9v2.6h-0.6v-2.4c0-0.3,0-0.4-0.1-0.5
			s-0.1-0.2-0.2-0.3c-0.1-0.1-0.2-0.1-0.4-0.1c-0.3,0-0.5,0.1-0.7,0.3s-0.3,0.5-0.3,0.8v2.2h-0.6v-2.4c0-0.3-0.1-0.5-0.2-0.6
			c-0.1-0.1-0.3-0.2-0.5-0.2c-0.2,0-0.3,0-0.5,0.1s-0.3,0.2-0.3,0.4c-0.1,0.2-0.1,0.4-0.1,0.8v1.9H4530.5z"/>
	</g>
	<g enable-background="new    ">
		<path d="M4591.7,360.9v2.5h-6.1v-2.5H4591.7z"/>
	</g>
	<line fill="none" stroke="#000000" stroke-width="0.459" x1="4585" y1="363.4" x2="4592.2" y2="363.4"/>
	<line fill="none" stroke="#000000" stroke-width="0.459" x1="4615" y1="374.6" x2="4615" y2="358.6"/>
	<g enable-background="new    ">
		<path d="M4613.7,373.3c1.4,0,2.2,1,1.8,2.2c-0.4,1.2-1.9,2.2-3.4,2.2c-1.4,0-2.2-1-1.7-2.2
			C4610.8,374.2,4612.3,373.3,4613.7,373.3z"/>
	</g>
	<line fill="none" stroke="#000000" stroke-width="0.459" x1="4630.2" y1="369.8" x2="4630.2" y2="353.8"/>
	<g enable-background="new    ">
		<path d="M4628.9,368.5c1.4,0,2.2,1,1.8,2.2c-0.4,1.2-1.9,2.2-3.4,2.2c-1.4,0-2.2-1-1.7-2.2C4626,369.4,4627.5,368.5,4628.9,368.5z
			"/>
	</g>
	<line fill="none" stroke="#000000" stroke-width="0.459" x1="4651.6" y1="365" x2="4651.6" y2="349"/>
	<g enable-background="new    ">
		<path d="M4651.1,365.9c-0.3,0.9-1,1.5-1.6,1.8c-0.5,0.3-1.2,0.4-2,0.3c-0.5,0-1.3-0.2-1.6-0.7c-0.3-0.6-0.1-1.2,0-1.6
			c0.3-0.8,1-1.4,1.5-1.7c0.5-0.3,1.3-0.5,2.2-0.4c0.4,0,1.1,0.1,1.5,0.7C4651.4,364.8,4651.2,365.6,4651.1,365.9z M4649.1,364.6
			c-0.4,0.2-0.7,0.4-1,0.5c-0.3,0.2-0.6,0.4-1,0.6c-0.5,0.3-1.1,0.9-0.8,1.4c0.3,0.6,1.1,0.3,1.6,0c0.4-0.2,0.7-0.4,1-0.5
			c0.3-0.2,0.6-0.4,1-0.6c0.5-0.3,1.1-0.9,0.8-1.4C4650.5,364,4649.7,364.3,4649.1,364.6z"/>
	</g>
	<line fill="none" stroke="#000000" stroke-width="0.459" x1="4679.6" y1="365" x2="4679.6" y2="349"/>
	<g enable-background="new    ">
		<path d="M4679.1,365.9c-0.3,0.9-1,1.5-1.6,1.8c-0.5,0.3-1.2,0.4-2,0.3c-0.5,0-1.3-0.2-1.6-0.7c-0.3-0.6-0.1-1.2,0-1.6
			c0.3-0.8,1-1.4,1.5-1.7c0.5-0.3,1.3-0.5,2.2-0.4c0.4,0,1.1,0.1,1.5,0.7C4679.4,364.8,4679.2,365.6,4679.1,365.9z M4677.1,364.6
			c-0.4,0.2-0.7,0.4-1,0.5c-0.3,0.2-0.6,0.4-1,0.6c-0.5,0.3-1.1,0.9-0.8,1.4c0.3,0.6,1.1,0.3,1.6,0c0.4-0.2,0.7-0.4,1-0.5
			c0.3-0.2,0.6-0.4,1-0.6c0.5-0.3,1.1-0.9,0.8-1.4C4678.5,364,4677.7,364.3,4677.1,364.6z"/>
	</g>
	<g enable-background="new    ">
		<path d="M4648.5,346.8v-0.7l2.4,0v2.1c-0.4,0.3-0.8,0.5-1.2,0.7s-0.8,0.2-1.2,0.2c-0.6,0-1.1-0.1-1.5-0.4s-0.8-0.6-1-1
			s-0.4-1-0.4-1.5c0-0.6,0.1-1.1,0.3-1.6s0.6-0.8,1-1.1s0.9-0.4,1.5-0.4c0.4,0,0.8,0.1,1.1,0.2s0.6,0.3,0.8,0.6s0.3,0.6,0.4,0.9
			l-0.7,0.2c-0.1-0.3-0.2-0.5-0.3-0.7s-0.3-0.3-0.5-0.4s-0.5-0.2-0.8-0.2c-0.3,0-0.6,0.1-0.9,0.2s-0.5,0.2-0.6,0.4s-0.3,0.4-0.4,0.6
			c-0.1,0.4-0.2,0.7-0.2,1.2c0,0.5,0.1,0.9,0.3,1.3s0.4,0.6,0.8,0.8s0.7,0.2,1.1,0.2c0.3,0,0.6-0.1,1-0.2s0.5-0.3,0.7-0.4v-1.1
			H4648.5z"/>
	</g>
	<g enable-background="new    ">
		<path d="M4713.7,360.9v2.5h-6.1v-2.5H4713.7z"/>
	</g>
	<line fill="none" stroke="#000000" stroke-width="0.459" x1="4707" y1="363.4" x2="4714.2" y2="363.4"/>
	<line fill="none" stroke="#000000" stroke-width="0.459" x1="4732.4" y1="361.8" x2="4732.4" y2="377.8"/>
	<g enable-background="new    ">
		<path d="M4735.7,358.9c1.4,0,2.2,1,1.8,2.2c-0.4,1.2-1.9,2.2-3.4,2.2c-1.4,0-2.2-1-1.7-2.2
			C4732.8,359.8,4734.3,358.9,4735.7,358.9z"/>
	</g>
	<line fill="none" stroke="#000000" stroke-width="0.459" x1="4747.6" y1="364.2" x2="4747.6" y2="380.2"/>
	<g enable-background="new    ">
		<path d="M4750.9,361.3c1.4,0,2.2,1,1.8,2.2c-0.4,1.2-1.9,2.2-3.4,2.2c-1.4,0-2.2-1-1.7-2.2C4748,362.2,4749.5,361.3,4750.9,361.3z
			"/>
	</g>
	<line fill="none" stroke="#000000" stroke-width="0.459" x1="4773.6" y1="365" x2="4773.6" y2="349"/>
	<g enable-background="new    ">
		<path d="M4773.1,365.9c-0.3,0.9-1,1.5-1.6,1.8c-0.5,0.3-1.2,0.4-2,0.3c-0.5,0-1.3-0.2-1.6-0.7c-0.3-0.6-0.1-1.2,0-1.6
			c0.3-0.8,1-1.4,1.5-1.7c0.5-0.3,1.3-0.5,2.2-0.4c0.4,0,1.1,0.1,1.5,0.7C4773.4,364.8,4773.2,365.6,4773.1,365.9z M4771.1,364.6
			c-0.4,0.2-0.7,0.4-1,0.5c-0.3,0.2-0.6,0.4-1,0.6c-0.5,0.3-1.1,0.9-0.8,1.4c0.3,0.6,1.1,0.3,1.6,0c0.4-0.2,0.7-0.4,1-0.5
			c0.3-0.2,0.6-0.4,1-0.6c0.5-0.3,1.1-0.9,0.8-1.4C4772.5,364,4771.7,364.3,4771.1,364.6z"/>
	</g>
	<g enable-background="new    ">
		<path d="M4801.9,360.9v2.5h-6.1v-2.5H4801.9z"/>
	</g>
	<line fill="none" stroke="#000000" stroke-width="0.459" x1="4795.2" y1="363.4" x2="4802.4" y2="363.4"/>
	<g enable-background="new    ">
		<path d="M4771.9,347l0.8,0.2c-0.2,0.6-0.4,1.1-0.9,1.4s-0.9,0.5-1.5,0.5c-0.6,0-1.1-0.1-1.5-0.4s-0.7-0.6-0.9-1.1s-0.3-1-0.3-1.5
			c0-0.6,0.1-1.1,0.3-1.6s0.6-0.8,1-1s0.9-0.3,1.4-0.3c0.6,0,1.1,0.1,1.4,0.4s0.7,0.7,0.8,1.2l-0.7,0.2c-0.1-0.4-0.3-0.7-0.6-0.9
			s-0.6-0.3-1-0.3c-0.4,0-0.8,0.1-1.1,0.3s-0.5,0.5-0.6,0.8s-0.2,0.7-0.2,1.1c0,0.5,0.1,0.9,0.2,1.3s0.4,0.6,0.7,0.8s0.6,0.3,1,0.3
			c0.4,0,0.8-0.1,1.1-0.4S4771.8,347.5,4771.9,347z"/>
	</g>
	<g enable-background="new    ">
		<path d="M4835.7,360.9v2.5h-6.1v-2.5H4835.7z"/>
	</g>
	<line fill="none" stroke="#000000" stroke-width="0.459" x1="4829" y1="363.4" x2="4836.2" y2="363.4"/>
	<line fill="none" stroke="#000000" stroke-width="0.459" x1="4859" y1="367.4" x2="4859" y2="351.4"/>
	<g enable-background="new    ">
		<path d="M4857.7,366.1c1.4,0,2.2,1,1.8,2.2c-0.4,1.2-1.9,2.2-3.4,2.2c-1.4,0-2.2-1-1.7-2.2C4854.8,367,4856.3,366.1,4857.7,366.1z
			"/>
	</g>
	<line fill="none" stroke="#000000" stroke-width="0.459" x1="4869.6" y1="364.2" x2="4869.6" y2="380.2"/>
	<g enable-background="new    ">
		<path d="M4872.9,361.3c1.4,0,2.2,1,1.8,2.2c-0.4,1.2-1.9,2.2-3.4,2.2c-1.4,0-2.2-1-1.7-2.2C4870,362.2,4871.5,361.3,4872.9,361.3z
			"/>
	</g>
	<line fill="none" stroke="#000000" stroke-width="0.459" x1="4890.2" y1="359.4" x2="4890.2" y2="375.4"/>
	<g enable-background="new    ">
		<path d="M4895.3,358.7c-0.3,0.9-1,1.5-1.6,1.8c-0.5,0.3-1.2,0.4-2,0.3c-0.5,0-1.3-0.2-1.6-0.7c-0.3-0.6-0.1-1.2,0-1.6
			c0.3-0.8,1-1.4,1.5-1.7c0.5-0.3,1.3-0.5,2.2-0.4c0.4,0,1.1,0.1,1.5,0.7C4895.6,357.6,4895.4,358.4,4895.3,358.7z M4893.3,357.4
			c-0.4,0.2-0.7,0.4-1,0.5c-0.3,0.2-0.6,0.4-1,0.6c-0.5,0.3-1.1,0.9-0.8,1.4c0.3,0.6,1.1,0.3,1.6,0c0.4-0.2,0.7-0.4,1-0.5
			c0.3-0.2,0.6-0.4,1-0.6c0.5-0.3,1.1-0.9,0.8-1.4C4894.7,356.8,4893.9,357.1,4893.3,357.4z"/>
	</g>
	<line fill="none" stroke="#000000" stroke-width="0.459" x1="4918" y1="361.8" x2="4918" y2="377.8"/>
	<g enable-background="new    ">
		<path d="M4923.1,361.1c-0.3,0.9-1,1.5-1.6,1.8c-0.5,0.3-1.2,0.4-2,0.3c-0.5,0-1.3-0.2-1.6-0.7c-0.3-0.6-0.1-1.2,0-1.6
			c0.3-0.8,1-1.4,1.5-1.7c0.5-0.3,1.3-0.5,2.2-0.4c0.4,0,1.1,0.1,1.5,0.7C4923.4,360,4923.2,360.8,4923.1,361.1z M4921.1,359.8
			c-0.4,0.2-0.7,0.4-1,0.5c-0.3,0.2-0.6,0.4-1,0.6c-0.5,0.3-1.1,0.9-0.8,1.4c0.3,0.6,1.1,0.3,1.6,0c0.4-0.2,0.7-0.4,1-0.5
			c0.3-0.2,0.6-0.4,1-0.6c0.5-0.3,1.1-0.9,0.8-1.4C4922.5,359.2,4921.7,359.5,4921.1,359.8z"/>
	</g>
	<g enable-background="new    ">
		<path d="M4894.7,347l0.8,0.2c-0.2,0.6-0.4,1.1-0.9,1.4s-0.9,0.5-1.5,0.5c-0.6,0-1.1-0.1-1.5-0.4s-0.7-0.6-0.9-1.1s-0.3-1-0.3-1.5
			c0-0.6,0.1-1.1,0.3-1.6s0.6-0.8,1-1s0.9-0.3,1.4-0.3c0.6,0,1.1,0.1,1.4,0.4s0.7,0.7,0.8,1.2l-0.7,0.2c-0.1-0.4-0.3-0.7-0.6-0.9
			s-0.6-0.3-1-0.3c-0.4,0-0.8,0.1-1.1,0.3s-0.5,0.5-0.6,0.8s-0.2,0.7-0.2,1.1c0,0.5,0.1,0.9,0.2,1.3s0.4,0.6,0.7,0.8s0.6,0.3,1,0.3
			c0.4,0,0.8-0.1,1.1-0.4S4894.6,347.5,4894.7,347z"/>
	</g>
	<g enable-background="new    ">
		<path d="M4896.8,349.1l1.7-5.9h0.6l-1.7,5.9H4896.8z"/>
	</g>
	<g enable-background="new    ">
		<path d="M4899.4,349v-5.7h4.1v0.7h-3.4v1.8h3.2v0.7h-3.2v1.9h3.5v0.7H4899.4z"/>
	</g>
	<g enable-background="new    ">
		<path d="M4957.7,360.9v2.5h-6.1v-2.5H4957.7z"/>
	</g>
	<line fill="none" stroke="#000000" stroke-width="0.459" x1="4951" y1="363.4" x2="4958.2" y2="363.4"/>
	<line fill="none" stroke="#000000" stroke-width="0.459" x1="4976.4" y1="364.2" x2="4976.4" y2="380.2"/>
	<g enable-background="new    ">
		<path d="M4979.7,361.3c1.4,0,2.2,1,1.8,2.2c-0.4,1.2-1.9,2.2-3.4,2.2c-1.4,0-2.2-1-1.7-2.2
			C4976.8,362.2,4978.3,361.3,4979.7,361.3z"/>
	</g>
	<line fill="none" stroke="#000000" stroke-width="0.459" x1="4996.2" y1="365" x2="4996.2" y2="349"/>
	<g enable-background="new    ">
		<path d="M4994.9,363.7c1.4,0,2.2,1,1.8,2.2c-0.4,1.2-1.9,2.2-3.4,2.2c-1.4,0-2.2-1-1.7-2.2C4992,364.6,4993.5,363.7,4994.9,363.7z
			"/>
	</g>
	<g enable-background="new    ">
		<path d="M4952.2,349v-5.7h4.1v0.7h-3.4v1.8h3.2v0.7h-3.2v1.9h3.5v0.7H4952.2z"/>
	</g>
	<g enable-background="new    ">
		<path d="M4957.8,342.8c0,0.1,0,1,0,1c0.6-0.5,0.9-0.7,1.6-0.7c0.8,0,1.3,0.8,1.3,1.4c0,0.3-0.1,0.7-0.2,1
			c-0.1,0.4-0.5,0.6-0.8,0.9c-0.3,0.3-2.4,1.7-2.4,1.7v-9.5h0.4C4957.8,338.7,4957.8,340.7,4957.8,342.8z M4958,344.4
			c-0.2,0.4-0.2,1.1-0.2,1.6v1.4c0,0,0.6-0.5,0.9-0.8c0.3-0.3,0.5-0.6,0.6-1.1c0.1-0.5,0.1-1-0.2-1.3
			C4958.9,343.9,4958.3,343.7,4958,344.4z"/>
	</g>
	<g enable-background="new    ">
		<path d="M4963.3,349v-0.5c-0.2,0.4-0.6,0.6-1,0.6c-0.3,0-0.6-0.1-0.8-0.2s-0.4-0.4-0.6-0.7c-0.1-0.3-0.2-0.6-0.2-1
			c0-0.4,0.1-0.7,0.2-1c0.1-0.3,0.3-0.5,0.6-0.7c0.2-0.2,0.5-0.2,0.8-0.2c0.2,0,0.4,0,0.6,0.1s0.3,0.2,0.4,0.4v-1.8h0.6v5.2H4963.3z
			 M4961.3,347.1c0,0.5,0.1,0.8,0.3,1.1s0.4,0.4,0.7,0.4c0.3,0,0.5-0.1,0.7-0.3c0.2-0.2,0.3-0.6,0.3-1c0-0.5-0.1-0.9-0.3-1.1
			s-0.4-0.4-0.7-0.4c-0.3,0-0.5,0.1-0.7,0.3C4961.4,346.3,4961.3,346.6,4961.3,347.1z"/>
	</g>
	<g enable-background="new    ">
		<path d="M4965.9,344.6v-0.7h0.6v0.7H4965.9z M4965.9,349v-3.7h0.6v3.7H4965.9z"/>
	</g>
	<g enable-background="new    ">
		<path d="M4967.9,349v-3.7h0.6v0.5c0.1-0.2,0.3-0.3,0.5-0.4c0.2-0.1,0.4-0.2,0.7-0.2c0.3,0,0.5,0.1,0.7,0.2
			c0.2,0.1,0.3,0.3,0.4,0.5c0.3-0.4,0.7-0.7,1.2-0.7c0.4,0,0.7,0.1,0.9,0.3s0.3,0.5,0.3,0.9v2.6h-0.6v-2.4c0-0.3,0-0.4-0.1-0.5
			s-0.1-0.2-0.2-0.3c-0.1-0.1-0.2-0.1-0.4-0.1c-0.3,0-0.5,0.1-0.7,0.3c-0.2,0.2-0.3,0.5-0.3,0.8v2.2h-0.6v-2.4
			c0-0.3-0.1-0.5-0.2-0.6c-0.1-0.1-0.3-0.2-0.5-0.2c-0.2,0-0.3,0-0.5,0.1c-0.2,0.1-0.3,0.2-0.3,0.4s-0.1,0.4-0.1,0.8v1.9H4967.9z"/>
	</g>
	<line fill="none" stroke="#000000" stroke-width="0.459" x1="5012.2" y1="361.8" x2="5012.2" y2="377.8"/>
	<g enable-background="new    ">
		<path d="M5017.3,361.1c-0.3,0.9-1,1.5-1.6,1.8c-0.5,0.3-1.2,0.4-2,0.3c-0.5,0-1.3-0.2-1.6-0.7c-0.3-0.6-0.1-1.2,0-1.6
			c0.3-0.8,1-1.4,1.5-1.7c0.5-0.3,1.3-0.5,2.2-0.4c0.4,0,1.1,0.1,1.5,0.7C5017.6,360,5017.4,360.8,5017.3,361.1z M5015.3,359.8
			c-0.4,0.2-0.7,0.4-1,0.5c-0.3,0.2-0.6,0.4-1,0.6c-0.5,0.3-1.1,0.9-0.8,1.4c0.3,0.6,1.1,0.3,1.6,0c0.4-0.2,0.7-0.4,1-0.5
			c0.3-0.2,0.6-0.4,1-0.6c0.5-0.3,1.1-0.9,0.8-1.4C5016.7,359.2,5015.9,359.5,5015.3,359.8z"/>
	</g>
	<line fill="none" stroke="#000000" stroke-width="0.459" x1="5045.6" y1="374.6" x2="5045.6" y2="358.6"/>
	<g enable-background="new    ">
		<path d="M5045.1,375.5c-0.3,0.9-1,1.5-1.6,1.8c-0.5,0.3-1.2,0.4-2,0.3c-0.5,0-1.3-0.2-1.6-0.7c-0.3-0.6-0.1-1.2,0-1.6
			c0.3-0.8,1-1.4,1.5-1.7c0.5-0.3,1.3-0.5,2.2-0.4c0.4,0,1.1,0.1,1.5,0.7C5045.4,374.4,5045.2,375.2,5045.1,375.5z M5043.1,374.2
			c-0.4,0.2-0.7,0.4-1,0.5c-0.3,0.2-0.6,0.4-1,0.6c-0.5,0.3-1.1,0.9-0.8,1.4c0.3,0.6,1.1,0.3,1.6,0c0.4-0.2,0.7-0.4,1-0.5
			c0.3-0.2,0.6-0.4,1-0.6c0.5-0.3,1.1-0.9,0.8-1.4C5044.5,373.6,5043.7,373.9,5043.1,374.2z"/>
	</g>
	<g enable-background="new    ">
		<path d="M5012.6,349v-5.7h2c0.4,0,0.8,0,1,0.1c0.3,0.1,0.6,0.2,0.8,0.4c0.3,0.3,0.5,0.6,0.7,1s0.2,0.9,0.2,1.4
			c0,0.4-0.1,0.8-0.2,1.2s-0.2,0.6-0.4,0.8s-0.3,0.4-0.5,0.5s-0.4,0.2-0.7,0.3s-0.6,0.1-0.9,0.1H5012.6z M5013.4,348.3h1.2
			c0.4,0,0.7,0,0.9-0.1s0.4-0.2,0.5-0.3c0.2-0.2,0.3-0.4,0.4-0.7s0.2-0.7,0.2-1.1c0-0.6-0.1-1.1-0.3-1.4s-0.4-0.5-0.7-0.6
			c-0.2-0.1-0.5-0.1-1-0.1h-1.2V348.3z"/>
	</g>
	<g enable-background="new    ">
		<path d="M5019.3,349v-3.7h0.6v0.5c0.1-0.2,0.3-0.3,0.5-0.4c0.2-0.1,0.4-0.2,0.7-0.2c0.3,0,0.5,0.1,0.7,0.2
			c0.2,0.1,0.3,0.3,0.4,0.5c0.3-0.4,0.7-0.7,1.2-0.7c0.4,0,0.7,0.1,0.9,0.3s0.3,0.5,0.3,0.9v2.6h-0.6v-2.4c0-0.3,0-0.4-0.1-0.5
			s-0.1-0.2-0.2-0.3c-0.1-0.1-0.2-0.1-0.4-0.1c-0.3,0-0.5,0.1-0.7,0.3c-0.2,0.2-0.3,0.5-0.3,0.8v2.2h-0.6v-2.4
			c0-0.3-0.1-0.5-0.2-0.6c-0.1-0.1-0.3-0.2-0.5-0.2c-0.2,0-0.3,0-0.5,0.1s-0.3,0.2-0.3,0.4c-0.1,0.2-0.1,0.4-0.1,0.8v1.9H5019.3z"/>
	</g>
	<g enable-background="new    ">
		<path d="M5079.7,360.9v2.5h-6.1v-2.5H5079.7z"/>
	</g>
	<line fill="none" stroke="#000000" stroke-width="0.459" x1="5073" y1="363.4" x2="5080.2" y2="363.4"/>
	<line fill="none" stroke="#000000" stroke-width="0.459" x1="5103" y1="372.2" x2="5103" y2="356.2"/>
	<g enable-background="new    ">
		<path d="M5101.7,370.9c1.4,0,2.2,1,1.8,2.2c-0.4,1.2-1.9,2.2-3.4,2.2c-1.4,0-2.2-1-1.7-2.2
			C5098.8,371.8,5100.3,370.9,5101.7,370.9z"/>
	</g>
	<line fill="none" stroke="#000000" stroke-width="0.459" x1="5118.2" y1="369.8" x2="5118.2" y2="353.8"/>
	<g enable-background="new    ">
		<path d="M5116.9,368.5c1.4,0,2.2,1,1.8,2.2c-0.4,1.2-1.9,2.2-3.4,2.2c-1.4,0-2.2-1-1.7-2.2C5114,369.4,5115.5,368.5,5116.9,368.5z
			"/>
	</g>
	<line fill="none" stroke="#000000" stroke-width="0.459" x1="5134.2" y1="361.8" x2="5134.2" y2="377.8"/>
	<g enable-background="new    ">
		<path d="M5139.3,361.1c-0.3,0.9-1,1.5-1.6,1.8c-0.5,0.3-1.2,0.4-2,0.3c-0.5,0-1.3-0.2-1.6-0.7c-0.3-0.6-0.1-1.2,0-1.6
			c0.3-0.8,1-1.4,1.5-1.7c0.5-0.3,1.3-0.5,2.2-0.4c0.4,0,1.1,0.1,1.5,0.7C5139.6,360,5139.4,360.8,5139.3,361.1z M5137.3,359.8
			c-0.4,0.2-0.7,0.4-1,0.5c-0.3,0.2-0.6,0.4-1,0.6c-0.5,0.3-1.1,0.9-0.8,1.4c0.3,0.6,1.1,0.3,1.6,0c0.4-0.2,0.7-0.4,1-0.5
			c0.3-0.2,0.6-0.4,1-0.6c0.5-0.3,1.1-0.9,0.8-1.4C5138.7,359.2,5137.9,359.5,5137.3,359.8z"/>
	</g>
	<line fill="none" stroke="#000000" stroke-width="0.459" x1="5167.6" y1="374.6" x2="5167.6" y2="358.6"/>
	<g enable-background="new    ">
		<path d="M5167.1,375.5c-0.3,0.9-1,1.5-1.6,1.8c-0.5,0.3-1.2,0.4-2,0.3c-0.5,0-1.3-0.2-1.6-0.7c-0.3-0.6-0.1-1.2,0-1.6
			c0.3-0.8,1-1.4,1.5-1.7c0.5-0.3,1.3-0.5,2.2-0.4c0.4,0,1.1,0.1,1.5,0.7C5167.4,374.4,5167.2,375.2,5167.1,375.5z M5165.1,374.2
			c-0.4,0.2-0.7,0.4-1,0.5c-0.3,0.2-0.6,0.4-1,0.6c-0.5,0.3-1.1,0.9-0.8,1.4c0.3,0.6,1.1,0.3,1.6,0c0.4-0.2,0.7-0.4,1-0.5
			c0.3-0.2,0.6-0.4,1-0.6c0.5-0.3,1.1-0.9,0.8-1.4C5166.5,373.6,5165.7,373.9,5165.1,374.2z"/>
	</g>
	<g enable-background="new    ">
		<path d="M5137.3,346.8v-0.7l2.4,0v2.1c-0.4,0.3-0.8,0.5-1.2,0.7s-0.8,0.2-1.2,0.2c-0.6,0-1.1-0.1-1.5-0.4s-0.8-0.6-1-1
			s-0.4-1-0.4-1.5c0-0.6,0.1-1.1,0.3-1.6s0.6-0.8,1-1.1s0.9-0.4,1.5-0.4c0.4,0,0.8,0.1,1.1,0.2s0.6,0.3,0.8,0.6s0.3,0.6,0.4,0.9
			l-0.7,0.2c-0.1-0.3-0.2-0.5-0.3-0.7s-0.3-0.3-0.5-0.4s-0.5-0.2-0.8-0.2c-0.3,0-0.6,0.1-0.9,0.2s-0.5,0.2-0.6,0.4s-0.3,0.4-0.4,0.6
			c-0.1,0.4-0.2,0.7-0.2,1.2c0,0.5,0.1,0.9,0.3,1.3s0.4,0.6,0.8,0.8s0.7,0.2,1.1,0.2c0.3,0,0.6-0.1,1-0.2s0.5-0.3,0.7-0.4v-1.1
			H5137.3z"/>
	</g>
	<g enable-background="new    ">
		<path d="M5201.7,360.9v2.5h-6.1v-2.5H5201.7z"/>
	</g>
	<line fill="none" stroke="#000000" stroke-width="0.459" x1="5195" y1="363.4" x2="5202.2" y2="363.4"/>
	<line fill="none" stroke="#000000" stroke-width="0.459" x1="5220.4" y1="361.8" x2="5220.4" y2="377.8"/>
	<g enable-background="new    ">
		<path d="M5223.7,358.9c1.4,0,2.2,1,1.8,2.2c-0.4,1.2-1.9,2.2-3.4,2.2c-1.4,0-2.2-1-1.7-2.2
			C5220.8,359.8,5222.3,358.9,5223.7,358.9z"/>
	</g>
	<line fill="none" stroke="#000000" stroke-width="0.459" x1="5235.6" y1="364.2" x2="5235.6" y2="380.2"/>
	<g enable-background="new    ">
		<path d="M5238.9,361.3c1.4,0,2.2,1,1.8,2.2c-0.4,1.2-1.9,2.2-3.4,2.2c-1.4,0-2.2-1-1.7-2.2C5236,362.2,5237.5,361.3,5238.9,361.3z
			"/>
	</g>
	<line fill="none" stroke="#000000" stroke-width="0.459" x1="5256.2" y1="361.8" x2="5256.2" y2="377.8"/>
	<g enable-background="new    ">
		<path d="M5261.3,361.1c-0.3,0.9-1,1.5-1.6,1.8c-0.5,0.3-1.2,0.4-2,0.3c-0.5,0-1.3-0.2-1.6-0.7c-0.3-0.6-0.1-1.2,0-1.6
			c0.3-0.8,1-1.4,1.5-1.7c0.5-0.3,1.3-0.5,2.2-0.4c0.4,0,1.1,0.1,1.5,0.7C5261.6,360,5261.4,360.8,5261.3,361.1z M5259.3,359.8
			c-0.4,0.2-0.7,0.4-1,0.5c-0.3,0.2-0.6,0.4-1,0.6c-0.5,0.3-1.1,0.9-0.8,1.4c0.3,0.6,1.1,0.3,1.6,0c0.4-0.2,0.7-0.4,1-0.5
			c0.3-0.2,0.6-0.4,1-0.6c0.5-0.3,1.1-0.9,0.8-1.4C5260.7,359.2,5259.9,359.5,5259.3,359.8z"/>
	</g>
	<g enable-background="new    ">
		<path d="M5289.9,360.9v2.5h-6.1v-2.5H5289.9z"/>
	</g>
	<line fill="none" stroke="#000000" stroke-width="0.459" x1="5283.2" y1="363.4" x2="5290.4" y2="363.4"/>
	<g enable-background="new    ">
		<path d="M5258.9,336l0.8,0.2c-0.2,0.6-0.4,1.1-0.9,1.4c-0.4,0.3-0.9,0.5-1.5,0.5c-0.6,0-1.1-0.1-1.5-0.4s-0.7-0.6-0.9-1.1
			c-0.2-0.5-0.3-1-0.3-1.5c0-0.6,0.1-1.1,0.3-1.6c0.2-0.4,0.6-0.8,1-1c0.4-0.2,0.9-0.3,1.4-0.3c0.6,0,1.1,0.1,1.4,0.4
			s0.7,0.7,0.8,1.2l-0.7,0.2c-0.1-0.4-0.3-0.7-0.6-0.9c-0.3-0.2-0.6-0.3-1-0.3c-0.4,0-0.8,0.1-1.1,0.3c-0.3,0.2-0.5,0.5-0.6,0.8
			c-0.1,0.4-0.2,0.7-0.2,1.1c0,0.5,0.1,0.9,0.2,1.3c0.1,0.4,0.4,0.6,0.7,0.8c0.3,0.2,0.6,0.3,1,0.3c0.4,0,0.8-0.1,1.1-0.4
			C5258.6,336.8,5258.8,336.5,5258.9,336z"/>
	</g>
	<g enable-background="new    ">
		<path d="M5259.1,347l0.8,0.2c-0.2,0.6-0.4,1.1-0.9,1.4c-0.4,0.3-0.9,0.5-1.5,0.5c-0.6,0-1.1-0.1-1.5-0.4s-0.7-0.6-0.9-1.1
			c-0.2-0.5-0.3-1-0.3-1.5c0-0.6,0.1-1.1,0.3-1.6c0.2-0.4,0.6-0.8,1-1c0.4-0.2,0.9-0.3,1.4-0.3c0.6,0,1.1,0.1,1.4,0.4
			s0.7,0.7,0.8,1.2l-0.7,0.2c-0.1-0.4-0.3-0.7-0.6-0.9c-0.3-0.2-0.6-0.3-1-0.3c-0.4,0-0.8,0.1-1.1,0.3c-0.3,0.2-0.5,0.5-0.6,0.8
			c-0.1,0.4-0.2,0.7-0.2,1.1c0,0.5,0.1,0.9,0.2,1.3c0.1,0.4,0.4,0.6,0.7,0.8c0.3,0.2,0.6,0.3,1,0.3c0.4,0,0.8-0.1,1.1-0.4
			C5258.8,347.8,5259,347.5,5259.1,347z"/>
	</g>
	<g enable-background="new    ">
		<path d="M5323.7,360.9v2.5h-6.1v-2.5H5323.7z"/>
	</g>
	<line fill="none" stroke="#000000" stroke-width="0.459" x1="5317" y1="363.4" x2="5324.2" y2="363.4"/>
</g>
</svg>
