<?xml version="1.0" encoding="utf-8"?>
<!-- Generator: Adobe Illustrator 16.0.0, SVG Export Plug-In . SVG Version: 6.00 Build 0)  -->
<!DOCTYPE svg PUBLIC "-//W3C//DTD SVG 1.1//EN" "http://www.w3.org/Graphics/SVG/1.1/DTD/svg11.dtd">
<svg version="1.1" id="Layer_1" xmlns="http://www.w3.org/2000/svg" xmlns:xlink="http://www.w3.org/1999/xlink" x="0px" y="0px"
	 width="4513.011px" height="90px" viewBox="52.1 -13.594 4513.011 90" enable-background="new 52.1 -13.594 4513.011 90"
	 xml:space="preserve">
<g id="Music">
	<line fill="none" stroke="#000000" stroke-width="0.459" x1="52.1" y1="-13.594" x2="52.1" y2="49.006"/>
	<path fill="none" stroke="#000000" stroke-width="0.459" d="M52.1-13.594"/>
	<g enable-background="new    ">
		<path d="M70.142,15.758v31.246h-8.938V15.758H70.142z M68.628,44.012V18.749h-5.946v25.265h5.946V44.012z"/>
	</g>
	<g enable-background="new    ">
		<path d="M90.88,44.047v2.323c0,1.407,1.654,1.372,1.654,1.372v0.915h-7.637v-0.915c0,0,1.725,0.07,1.689-1.302v-2.394h-6.509
			l-0.635-0.668c4.259-5.736,4.293-6.791,5.313-12h6.087c-1.443,2.675-6.298,7.707-9.711,11.683h5.454v-4.328l4.293-4.715v9.043
			h2.533v0.984H90.88L90.88,44.047z"/>
	</g>
	<g enable-background="new    ">
		<path d="M90.88,26.454v2.323c0,1.407,1.654,1.372,1.654,1.372v0.915h-7.637v-0.915c0,0,1.725,0.07,1.689-1.302v-2.394h-6.509
			l-0.635-0.668c4.259-5.735,4.293-6.791,5.313-11.999h6.087c-1.443,2.675-6.298,7.706-9.711,11.683h5.454v-4.328l4.293-4.715v9.043
			h2.533v0.984L90.88,26.454L90.88,26.454z"/>
	</g>
	<line fill="none" stroke="#000000" stroke-width="0.459" x1="246.7" y1="13.806" x2="246.7" y2="49.006"/>
	<line fill="none" stroke="#000000" stroke-width="0.459" x1="395.5" y1="13.806" x2="395.5" y2="49.006"/>
	<line fill="none" stroke="#000000" stroke-width="0.459" x1="544.3" y1="13.806" x2="544.3" y2="49.006"/>
	<line fill="none" stroke="#000000" stroke-width="0.459" x1="693.1" y1="13.806" x2="693.1" y2="49.006"/>
	<line fill="none" stroke="#000000" stroke-width="0.459" x1="841.9" y1="13.806" x2="841.9" y2="49.006"/>
	<line fill="none" stroke="#000000" stroke-width="0.459" x1="990.699" y1="13.806" x2="990.699" y2="49.006"/>
	<line fill="none" stroke="#000000" stroke-width="0.459" x1="1139.5" y1="13.806" x2="1139.5" y2="49.006"/>
	<line fill="none" stroke="#000000" stroke-width="0.459" x1="1288.3" y1="13.806" x2="1288.3" y2="49.006"/>
	<line fill="none" stroke="#000000" stroke-width="0.459" x1="1437.1" y1="13.806" x2="1437.1" y2="49.006"/>
	<line fill="none" stroke="#000000" stroke-width="0.459" x1="1585.799" y1="13.806" x2="1585.799" y2="49.006"/>
	<line fill="none" stroke="#000000" stroke-width="0.459" x1="1734.6" y1="13.806" x2="1734.6" y2="49.006"/>
	<line fill="none" stroke="#000000" stroke-width="0.459" x1="1883.401" y1="13.806" x2="1883.401" y2="49.006"/>
	<line fill="none" stroke="#000000" stroke-width="0.459" x1="2032.199" y1="13.806" x2="2032.199" y2="49.006"/>
	<line fill="none" stroke="#000000" stroke-width="0.459" x1="2181" y1="13.806" x2="2181" y2="49.006"/>
	<line fill="none" stroke="#000000" stroke-width="0.459" x1="2329.799" y1="13.806" x2="2329.799" y2="49.006"/>
	<line fill="none" stroke="#000000" stroke-width="0.459" x1="2478.6" y1="13.806" x2="2478.6" y2="49.006"/>
	<line fill="none" stroke="#000000" stroke-width="0.459" x1="2627.401" y1="13.806" x2="2627.401" y2="49.006"/>
	<line fill="none" stroke="#000000" stroke-width="0.459" x1="2776.199" y1="13.806" x2="2776.199" y2="49.006"/>
	<line fill="none" stroke="#000000" stroke-width="0.459" x1="2925" y1="13.806" x2="2925" y2="49.006"/>
	<line fill="none" stroke="#000000" stroke-width="0.459" x1="3073.799" y1="13.806" x2="3073.799" y2="49.006"/>
	<line fill="none" stroke="#000000" stroke-width="0.459" x1="3222.6" y1="13.806" x2="3222.6" y2="49.006"/>
	<line fill="none" stroke="#000000" stroke-width="0.459" x1="3371.401" y1="13.806" x2="3371.401" y2="49.006"/>
	<line fill="none" stroke="#000000" stroke-width="0.459" x1="3520.199" y1="13.806" x2="3520.199" y2="49.006"/>
	<line fill="none" stroke="#000000" stroke-width="0.459" x1="3669" y1="13.806" x2="3669" y2="49.006"/>
	<line fill="none" stroke="#000000" stroke-width="0.459" x1="3817.799" y1="13.806" x2="3817.799" y2="49.006"/>
	<line fill="none" stroke="#000000" stroke-width="0.459" x1="3966.6" y1="13.806" x2="3966.6" y2="49.006"/>
	<line fill="none" stroke="#000000" stroke-width="0.459" x1="4115.299" y1="13.806" x2="4115.299" y2="49.006"/>
	<line fill="none" stroke="#000000" stroke-width="0.459" x1="4264.1" y1="13.806" x2="4264.1" y2="49.006"/>
	<line fill="none" stroke="#000000" stroke-width="0.459" x1="4412.9" y1="13.806" x2="4412.9" y2="49.006"/>
	<line fill="none" stroke="#000000" stroke-width="2.419" x1="4563.9" y1="13.806" x2="4563.9" y2="49.006"/>
	<line fill="none" stroke="#000000" stroke-width="0.459" x1="4556.799" y1="13.806" x2="4556.799" y2="49.006"/>
	<g enable-background="new    ">
		<path d="M177.978,22.549v5.067h-11.188v-5.067H177.978z"/>
	</g>
	<line fill="none" stroke="#000000" stroke-width="0.459" x1="165.7" y1="22.606" x2="178.8" y2="22.606"/>
	<g enable-background="new    ">
		<path d="M326.771,22.549v5.067h-11.189v-5.067H326.771z"/>
	</g>
	<line fill="none" stroke="#000000" stroke-width="0.459" x1="314.4" y1="22.606" x2="327.6" y2="22.606"/>
	<g enable-background="new    ">
		<path d="M475.565,22.549v5.067h-11.188v-5.067H475.565z"/>
	</g>
	<line fill="none" stroke="#000000" stroke-width="0.459" x1="463.199" y1="22.606" x2="476.4" y2="22.606"/>
	<g enable-background="new    ">
		<path d="M624.359,22.549v5.067H613.17v-5.067H624.359z"/>
	</g>
	<line fill="none" stroke="#000000" stroke-width="0.459" x1="612" y1="22.606" x2="625.199" y2="22.606"/>
	<g enable-background="new    ">
		<path d="M773.153,22.549v5.067h-11.188v-5.067H773.153z"/>
	</g>
	<line fill="none" stroke="#000000" stroke-width="0.459" x1="760.8" y1="22.606" x2="774" y2="22.606"/>
	<g enable-background="new    ">
		<path d="M921.948,22.549v5.067h-11.188v-5.067H921.948z"/>
	</g>
	<line fill="none" stroke="#000000" stroke-width="0.459" x1="909.6" y1="22.606" x2="922.8" y2="22.606"/>
	<g enable-background="new    ">
		<path d="M1070.741,22.549v5.067h-11.188v-5.067H1070.741z"/>
	</g>
	<line fill="none" stroke="#000000" stroke-width="0.459" x1="1058.4" y1="22.606" x2="1071.6" y2="22.606"/>
	<g enable-background="new    ">
		<path d="M1219.535,22.549v5.067h-11.188v-5.067H1219.535z"/>
	</g>
	<line fill="none" stroke="#000000" stroke-width="0.459" x1="1207.199" y1="22.606" x2="1220.4" y2="22.606"/>
	<g enable-background="new    ">
		<path d="M1310.024,26.877v4.504h-11.188v-4.504H1310.024z"/>
	</g>
	<line fill="none" stroke="#000000" stroke-width="0.459" x1="1297.699" y1="31.406" x2="1310.9" y2="31.406"/>
	<g enable-background="new    ">
		<path d="M1361.091,40.141c2.99,0.035,4.645,2.076,3.694,4.574c-0.915,2.532-4.082,4.539-7.038,4.504s-4.608-2.111-3.659-4.609
			C1355.003,42.111,1358.135,40.105,1361.091,40.141z"/>
	</g>
	<line fill="none" stroke="#000000" stroke-width="0.459" x1="1364.4" y1="43.106" x2="1364.4" y2="16.006"/>
	<g enable-background="new    ">
		<path d="M1376.849,40.141c2.991,0.035,4.645,2.076,3.694,4.574c-0.914,2.532-4.082,4.539-7.037,4.504
			c-2.956-0.035-4.609-2.111-3.66-4.609C1370.761,42.111,1373.893,40.105,1376.849,40.141z"/>
	</g>
	<line fill="none" stroke="#000000" stroke-width="0.459" x1="1380.1" y1="43.106" x2="1380.1" y2="16.006"/>
	<g enable-background="new    ">
		<path d="M1392.608,40.141c2.991,0.035,4.646,2.076,3.695,4.574c-0.915,2.532-4.082,4.539-7.038,4.504s-4.609-2.111-3.66-4.609
			C1386.521,42.111,1389.653,40.105,1392.608,40.141z"/>
	</g>
	<line fill="none" stroke="#000000" stroke-width="0.459" x1="1395.9" y1="43.106" x2="1395.9" y2="16.006"/>
	<g enable-background="new    ">
		<path d="M1408.367,40.141c2.991,0.035,4.646,2.076,3.695,4.574c-0.915,2.532-4.082,4.539-7.038,4.504s-4.608-2.111-3.66-4.609
			C1402.281,42.111,1405.412,40.105,1408.367,40.141z"/>
	</g>
	<line fill="none" stroke="#000000" stroke-width="0.459" x1="1411.699" y1="43.106" x2="1411.699" y2="16.006"/>
	<path d="M1364,13.806h48.1v4.4H1364V13.806z"/>
	<path d="M1364,20.406h48.1v4.4H1364V20.406z"/>
	<line fill="none" stroke="#000000" stroke-width="0.459" x1="1427.8" y1="43.106" x2="1427.8" y2="13.806"/>
	<g enable-background="new    ">
		<path d="M1424.492,40.141c2.991,0.035,4.646,2.076,3.695,4.574c-0.915,2.532-4.082,4.539-7.038,4.504s-4.608-2.111-3.66-4.609
			C1418.406,42.111,1421.537,40.105,1424.492,40.141z"/>
	</g>
	<g enable-background="new    ">
		<path d="M1458.817,26.877v4.504h-11.188v-4.504H1458.817z"/>
	</g>
	<line fill="none" stroke="#000000" stroke-width="0.459" x1="1446.5" y1="31.406" x2="1459.699" y2="31.406"/>
	<g enable-background="new    ">
		<path d="M1509.884,40.141c2.991,0.035,4.645,2.076,3.694,4.574c-0.915,2.532-4.082,4.539-7.037,4.504
			c-2.956-0.035-4.609-2.111-3.66-4.609C1503.796,42.111,1506.928,40.105,1509.884,40.141z"/>
	</g>
	<line fill="none" stroke="#000000" stroke-width="0.459" x1="1513.199" y1="43.106" x2="1513.199" y2="16.006"/>
	<g enable-background="new    ">
		<path d="M1525.644,40.141c2.991,0.035,4.646,2.076,3.695,4.574c-0.915,2.532-4.082,4.539-7.038,4.504s-4.609-2.111-3.66-4.609
			C1519.556,42.111,1522.688,40.105,1525.644,40.141z"/>
	</g>
	<line fill="none" stroke="#000000" stroke-width="0.459" x1="1528.9" y1="43.106" x2="1528.9" y2="16.006"/>
	<g enable-background="new    ">
		<path d="M1541.403,40.141c2.991,0.035,4.646,2.076,3.695,4.574c-0.915,2.532-4.082,4.539-7.038,4.504s-4.609-2.111-3.66-4.609
			C1535.316,42.111,1538.448,40.105,1541.403,40.141z"/>
	</g>
	<line fill="none" stroke="#000000" stroke-width="0.459" x1="1544.699" y1="43.106" x2="1544.699" y2="16.006"/>
	<g enable-background="new    ">
		<path d="M1557.16,40.141c2.991,0.035,4.646,2.076,3.695,4.574c-0.915,2.532-4.082,4.539-7.038,4.504s-4.608-2.111-3.66-4.609
			C1551.073,42.111,1554.205,40.105,1557.16,40.141z"/>
	</g>
	<line fill="none" stroke="#000000" stroke-width="0.459" x1="1560.401" y1="43.106" x2="1560.401" y2="16.006"/>
	<path d="M1512.8,13.806h48.101v4.4H1512.8V13.806z"/>
	<path d="M1512.8,20.406h48.101v4.4H1512.8V20.406z"/>
	<line fill="none" stroke="#000000" stroke-width="0.459" x1="1576.6" y1="43.106" x2="1576.6" y2="13.806"/>
	<g enable-background="new    ">
		<path d="M1573.285,40.141c2.991,0.035,4.646,2.076,3.695,4.574c-0.915,2.532-4.082,4.539-7.038,4.504s-4.608-2.111-3.66-4.609
			C1567.198,42.111,1570.33,40.105,1573.285,40.141z"/>
	</g>
	<g enable-background="new    ">
		<path d="M1607.612,26.877v4.504h-11.188v-4.504H1607.612z"/>
	</g>
	<line fill="none" stroke="#000000" stroke-width="0.459" x1="1595.299" y1="31.406" x2="1608.5" y2="31.406"/>
	<g enable-background="new    ">
		<path d="M1658.679,40.141c2.991,0.035,4.645,2.076,3.694,4.574c-0.915,2.532-4.082,4.539-7.037,4.504
			c-2.956-0.035-4.609-2.111-3.66-4.609C1652.591,42.111,1655.723,40.105,1658.679,40.141z"/>
	</g>
	<line fill="none" stroke="#000000" stroke-width="0.459" x1="1662" y1="43.106" x2="1662" y2="16.006"/>
	<g enable-background="new    ">
		<path d="M1674.437,40.141c2.991,0.035,4.646,2.076,3.695,4.574c-0.915,2.532-4.082,4.539-7.038,4.504s-4.609-2.111-3.66-4.609
			C1668.349,42.111,1671.481,40.105,1674.437,40.141z"/>
	</g>
	<line fill="none" stroke="#000000" stroke-width="0.459" x1="1677.699" y1="43.106" x2="1677.699" y2="16.006"/>
	<g enable-background="new    ">
		<path d="M1690.196,40.141c2.991,0.035,4.646,2.076,3.695,4.574c-0.915,2.532-4.082,4.539-7.038,4.504s-4.609-2.111-3.66-4.609
			C1684.109,42.111,1687.24,40.105,1690.196,40.141z"/>
	</g>
	<line fill="none" stroke="#000000" stroke-width="0.459" x1="1693.5" y1="43.106" x2="1693.5" y2="16.006"/>
	<g enable-background="new    ">
		<path d="M1705.955,40.141c2.991,0.035,4.646,2.076,3.695,4.574c-0.915,2.532-4.082,4.539-7.038,4.504s-4.608-2.111-3.66-4.609
			C1699.868,42.111,1703,40.105,1705.955,40.141z"/>
	</g>
	<line fill="none" stroke="#000000" stroke-width="0.459" x1="1709.199" y1="43.106" x2="1709.199" y2="16.006"/>
	<path d="M1661.5,13.806h48.1v4.4h-48.1V13.806z"/>
	<path d="M1661.5,20.406h48.1v4.4h-48.1V20.406z"/>
	<line fill="none" stroke="#000000" stroke-width="0.459" x1="1725.401" y1="43.106" x2="1725.401" y2="13.806"/>
	<g enable-background="new    ">
		<path d="M1722.08,40.141c2.991,0.035,4.646,2.076,3.695,4.574c-0.915,2.532-4.082,4.539-7.038,4.504s-4.608-2.111-3.66-4.609
			C1715.993,42.111,1719.125,40.105,1722.08,40.141z"/>
	</g>
	<g enable-background="new    ">
		<path d="M1756.405,26.877v4.504h-11.188v-4.504H1756.405z"/>
	</g>
	<line fill="none" stroke="#000000" stroke-width="0.459" x1="1744.1" y1="31.406" x2="1757.299" y2="31.406"/>
	<g enable-background="new    ">
		<path d="M1807.472,40.141c2.991,0.035,4.645,2.076,3.694,4.574c-0.914,2.532-4.082,4.539-7.037,4.504
			c-2.956-0.035-4.609-2.111-3.66-4.609C1801.384,42.111,1804.516,40.105,1807.472,40.141z"/>
	</g>
	<line fill="none" stroke="#000000" stroke-width="0.459" x1="1810.799" y1="43.106" x2="1810.799" y2="16.006"/>
	<g enable-background="new    ">
		<path d="M1823.231,40.141c2.991,0.035,4.645,2.076,3.695,4.574c-0.915,2.532-4.082,4.539-7.038,4.504s-4.609-2.111-3.66-4.609
			C1817.144,42.111,1820.276,40.105,1823.231,40.141z"/>
	</g>
	<line fill="none" stroke="#000000" stroke-width="0.459" x1="1826.5" y1="43.106" x2="1826.5" y2="16.006"/>
	<g enable-background="new    ">
		<path d="M1838.99,40.141c2.991,0.035,4.646,2.076,3.695,4.574c-0.915,2.532-4.082,4.539-7.038,4.504s-4.609-2.111-3.66-4.609
			C1832.904,42.111,1836.035,40.105,1838.99,40.141z"/>
	</g>
	<line fill="none" stroke="#000000" stroke-width="0.459" x1="1842.299" y1="43.106" x2="1842.299" y2="16.006"/>
	<g enable-background="new    ">
		<path d="M1854.748,40.141c2.991,0.035,4.646,2.076,3.695,4.574c-0.915,2.532-4.082,4.539-7.038,4.504s-4.608-2.111-3.66-4.609
			C1848.661,42.111,1851.793,40.105,1854.748,40.141z"/>
	</g>
	<line fill="none" stroke="#000000" stroke-width="0.459" x1="1858" y1="43.106" x2="1858" y2="16.006"/>
	<path d="M1810.299,13.806h48.102v4.4h-48.102V13.806z"/>
	<path d="M1810.299,20.406h48.102v4.4h-48.102V20.406z"/>
	<line fill="none" stroke="#000000" stroke-width="0.459" x1="1874.199" y1="43.106" x2="1874.199" y2="13.806"/>
	<g enable-background="new    ">
		<path d="M1870.875,40.141c2.991,0.035,4.646,2.076,3.695,4.574c-0.915,2.532-4.082,4.539-7.038,4.504s-4.608-2.111-3.66-4.609
			C1864.788,42.111,1867.92,40.105,1870.875,40.141z"/>
	</g>
	<g enable-background="new    ">
		<path d="M1905.199,26.877v4.504h-11.188v-4.504H1905.199z"/>
	</g>
	<line fill="none" stroke="#000000" stroke-width="0.459" x1="1892.901" y1="31.406" x2="1906.1" y2="31.406"/>
	<g enable-background="new    ">
		<path d="M1956.267,40.141c2.991,0.035,4.645,2.076,3.694,4.574c-0.914,2.532-4.082,4.539-7.037,4.504
			c-2.956-0.035-4.609-2.111-3.66-4.609C1950.179,42.111,1953.311,40.105,1956.267,40.141z"/>
	</g>
	<line fill="none" stroke="#000000" stroke-width="0.459" x1="1959.6" y1="43.106" x2="1959.6" y2="16.006"/>
	<g enable-background="new    ">
		<path d="M1972.026,40.141c2.991,0.035,4.646,2.076,3.695,4.574c-0.915,2.532-4.082,4.539-7.038,4.504s-4.609-2.111-3.66-4.609
			C1965.939,42.111,1969.071,40.105,1972.026,40.141z"/>
	</g>
	<line fill="none" stroke="#000000" stroke-width="0.459" x1="1975.299" y1="43.106" x2="1975.299" y2="16.006"/>
	<g enable-background="new    ">
		<path d="M1987.783,40.141c2.991,0.035,4.646,2.076,3.695,4.574c-0.915,2.532-4.082,4.539-7.038,4.504s-4.608-2.111-3.66-4.609
			C1981.697,42.111,1984.828,40.105,1987.783,40.141z"/>
	</g>
	<line fill="none" stroke="#000000" stroke-width="0.459" x1="1991.1" y1="43.106" x2="1991.1" y2="16.006"/>
	<g enable-background="new    ">
		<path d="M2003.543,40.141c2.991,0.035,4.646,2.076,3.695,4.574c-0.915,2.532-4.082,4.539-7.038,4.504s-4.608-2.111-3.66-4.609
			C1997.457,42.111,2000.588,40.105,2003.543,40.141z"/>
	</g>
	<line fill="none" stroke="#000000" stroke-width="0.459" x1="2006.799" y1="43.106" x2="2006.799" y2="16.006"/>
	<path d="M1959.1,13.806h48.1v4.4h-48.1V13.806z"/>
	<path d="M1959.1,20.406h48.1v4.4h-48.1V20.406z"/>
	<line fill="none" stroke="#000000" stroke-width="0.459" x1="2023" y1="43.106" x2="2023" y2="13.806"/>
	<g enable-background="new    ">
		<path d="M2019.668,40.141c2.991,0.035,4.646,2.076,3.695,4.574c-0.915,2.532-4.082,4.539-7.038,4.504s-4.608-2.111-3.66-4.609
			C2013.582,42.111,2016.713,40.105,2019.668,40.141z"/>
	</g>
	<g enable-background="new    ">
		<path d="M2053.992,26.877v4.504h-11.188v-4.504H2053.992z"/>
	</g>
	<line fill="none" stroke="#000000" stroke-width="0.459" x1="2041.699" y1="31.406" x2="2054.901" y2="31.406"/>
	<g enable-background="new    ">
		<path d="M2105.06,40.141c2.991,0.035,4.646,2.076,3.695,4.574c-0.915,2.532-4.082,4.539-7.038,4.504s-4.609-2.111-3.66-4.609
			C2098.972,42.111,2102.104,40.105,2105.06,40.141z"/>
	</g>
	<line fill="none" stroke="#000000" stroke-width="0.459" x1="2108.299" y1="43.106" x2="2108.299" y2="16.006"/>
	<g enable-background="new    ">
		<path d="M2120.819,40.141c2.991,0.035,4.646,2.076,3.695,4.574c-0.915,2.532-4.082,4.539-7.038,4.504s-4.608-2.111-3.66-4.609
			C2114.732,42.111,2117.864,40.105,2120.819,40.141z"/>
	</g>
	<line fill="none" stroke="#000000" stroke-width="0.459" x1="2124.1" y1="43.106" x2="2124.1" y2="16.006"/>
	<g enable-background="new    ">
		<path d="M2136.578,40.141c2.991,0.035,4.646,2.076,3.695,4.574c-0.915,2.532-4.082,4.539-7.038,4.504s-4.608-2.111-3.659-4.609
			C2130.491,42.111,2133.623,40.105,2136.578,40.141z"/>
	</g>
	<line fill="none" stroke="#000000" stroke-width="0.459" x1="2139.901" y1="43.106" x2="2139.901" y2="16.006"/>
	<g enable-background="new    ">
		<path d="M2152.336,40.141c2.991,0.035,4.646,2.076,3.695,4.574c-0.915,2.532-4.082,4.539-7.038,4.504s-4.608-2.111-3.659-4.609
			C2146.25,42.111,2149.381,40.105,2152.336,40.141z"/>
	</g>
	<line fill="none" stroke="#000000" stroke-width="0.459" x1="2155.6" y1="43.106" x2="2155.6" y2="16.006"/>
	<path d="M2107.901,13.806h48.1v4.4h-48.1V13.806z"/>
	<path d="M2107.901,20.406h48.1v4.4h-48.1V20.406z"/>
	<line fill="none" stroke="#000000" stroke-width="0.459" x1="2171.799" y1="43.106" x2="2171.799" y2="13.806"/>
	<g enable-background="new    ">
		<path d="M2168.461,40.141c2.991,0.035,4.646,2.076,3.695,4.574c-0.915,2.532-4.082,4.539-7.038,4.504s-4.608-2.111-3.659-4.609
			C2162.375,42.111,2165.506,40.105,2168.461,40.141z"/>
	</g>
	<g enable-background="new    ">
		<path d="M2202.787,26.877v4.504h-11.188v-4.504H2202.787z"/>
	</g>
	<line fill="none" stroke="#000000" stroke-width="0.459" x1="2190.5" y1="31.406" x2="2203.699" y2="31.406"/>
	<g enable-background="new    ">
		<path d="M2253.854,40.141c2.991,0.035,4.645,2.076,3.695,4.574c-0.915,2.532-4.082,4.539-7.038,4.504s-4.609-2.111-3.66-4.609
			C2247.767,42.111,2250.899,40.105,2253.854,40.141z"/>
	</g>
	<line fill="none" stroke="#000000" stroke-width="0.459" x1="2257.1" y1="43.106" x2="2257.1" y2="16.006"/>
	<g enable-background="new    ">
		<path d="M2269.614,40.141c2.991,0.035,4.646,2.076,3.695,4.574c-0.915,2.532-4.082,4.539-7.038,4.504s-4.608-2.111-3.66-4.609
			C2263.527,42.111,2266.658,40.105,2269.614,40.141z"/>
	</g>
	<line fill="none" stroke="#000000" stroke-width="0.459" x1="2272.901" y1="43.106" x2="2272.901" y2="16.006"/>
	<g enable-background="new    ">
		<path d="M2285.371,40.141c2.991,0.035,4.646,2.076,3.695,4.574c-0.915,2.532-4.082,4.539-7.038,4.504s-4.608-2.111-3.659-4.609
			C2279.284,42.111,2282.416,40.105,2285.371,40.141z"/>
	</g>
	<line fill="none" stroke="#000000" stroke-width="0.459" x1="2288.699" y1="43.106" x2="2288.699" y2="16.006"/>
	<g enable-background="new    ">
		<path d="M2301.132,40.141c2.991,0.035,4.645,2.076,3.694,4.574c-0.914,2.532-4.082,4.539-7.037,4.504
			c-2.957-0.035-4.609-2.111-3.66-4.609C2295.043,42.111,2298.176,40.105,2301.132,40.141z"/>
	</g>
	<line fill="none" stroke="#000000" stroke-width="0.459" x1="2304.401" y1="43.106" x2="2304.401" y2="16.006"/>
	<path d="M2256.699,13.806h48.101v4.4h-48.101V13.806z"/>
	<path d="M2256.699,20.406h48.101v4.4h-48.101V20.406z"/>
	<line fill="none" stroke="#000000" stroke-width="0.459" x1="2320.5" y1="43.106" x2="2320.5" y2="13.806"/>
	<g enable-background="new    ">
		<path d="M2317.256,40.141c2.99,0.035,4.645,2.076,3.695,4.574c-0.916,2.532-4.082,4.539-7.037,4.504
			c-2.957-0.035-4.609-2.111-3.66-4.609C2311.168,42.111,2314.301,40.105,2317.256,40.141z"/>
	</g>
	<g enable-background="new    ">
		<path d="M2351.58,26.877v4.504h-11.188v-4.504H2351.58z"/>
	</g>
	<line fill="none" stroke="#000000" stroke-width="0.459" x1="2339.299" y1="31.406" x2="2352.5" y2="31.406"/>
	<g enable-background="new    ">
		<path d="M2402.649,40.141c2.991,0.035,4.645,2.076,3.695,4.574c-0.915,2.532-4.082,4.539-7.037,4.504
			c-2.956-0.035-4.609-2.111-3.66-4.609C2396.562,42.111,2399.694,40.105,2402.649,40.141z"/>
	</g>
	<line fill="none" stroke="#000000" stroke-width="0.459" x1="2405.901" y1="43.106" x2="2405.901" y2="16.006"/>
	<g enable-background="new    ">
		<path d="M2418.406,40.141c2.991,0.035,4.646,2.076,3.695,4.574c-0.915,2.532-4.082,4.539-7.037,4.504
			c-2.956-0.035-4.609-2.111-3.66-4.609C2412.32,42.111,2415.451,40.105,2418.406,40.141z"/>
	</g>
	<line fill="none" stroke="#000000" stroke-width="0.459" x1="2421.699" y1="43.106" x2="2421.699" y2="16.006"/>
	<g enable-background="new    ">
		<path d="M2434.166,40.141c2.99,0.035,4.646,2.076,3.694,4.574c-0.915,2.532-4.082,4.539-7.038,4.504
			c-2.955-0.035-4.608-2.111-3.658-4.609C2428.078,42.111,2431.209,40.105,2434.166,40.141z"/>
	</g>
	<line fill="none" stroke="#000000" stroke-width="0.459" x1="2437.5" y1="43.106" x2="2437.5" y2="16.006"/>
	<g enable-background="new    ">
		<path d="M2449.924,40.141c2.99,0.035,4.645,2.076,3.695,4.574c-0.916,2.532-4.082,4.539-7.037,4.504
			c-2.957-0.035-4.609-2.111-3.66-4.609C2443.836,42.111,2446.969,40.105,2449.924,40.141z"/>
	</g>
	<line fill="none" stroke="#000000" stroke-width="0.459" x1="2453.199" y1="43.106" x2="2453.199" y2="16.006"/>
	<path d="M2405.5,13.806h48.1v4.4h-48.1V13.806z"/>
	<path d="M2405.5,20.406h48.1v4.4h-48.1V20.406z"/>
	<line fill="none" stroke="#000000" stroke-width="0.459" x1="2469.299" y1="43.106" x2="2469.299" y2="13.806"/>
	<g enable-background="new    ">
		<path d="M2466.051,40.141c2.99,0.035,4.645,2.076,3.693,4.574c-0.914,2.532-4.082,4.539-7.037,4.504s-4.609-2.111-3.659-4.609
			C2459.963,42.111,2463.095,40.105,2466.051,40.141z"/>
	</g>
	<g enable-background="new    ">
		<path d="M2558.682,22.549v5.067h-11.189v-5.067H2558.682z"/>
	</g>
	<line fill="none" stroke="#000000" stroke-width="0.459" x1="2546.401" y1="22.606" x2="2559.5" y2="22.606"/>
	<g enable-background="new    ">
		<path d="M2707.475,22.549v5.067h-11.189v-5.067H2707.475z"/>
	</g>
	<line fill="none" stroke="#000000" stroke-width="0.459" x1="2695.1" y1="22.606" x2="2708.299" y2="22.606"/>
	<g enable-background="new    ">
		<path d="M2797.963,26.877v4.504h-11.189v-4.504H2797.963z"/>
	</g>
	<line fill="none" stroke="#000000" stroke-width="0.459" x1="2785.699" y1="31.406" x2="2798.901" y2="31.406"/>
	<g enable-background="new    ">
		<path d="M2849.03,40.141c2.991,0.035,4.646,2.076,3.695,4.574c-0.915,2.532-4.082,4.539-7.037,4.504
			c-2.956-0.035-4.609-2.111-3.66-4.609C2842.943,42.111,2846.074,40.105,2849.03,40.141z"/>
	</g>
	<line fill="none" stroke="#000000" stroke-width="0.459" x1="2852.299" y1="43.106" x2="2852.299" y2="16.006"/>
	<g enable-background="new    ">
		<path d="M2864.789,40.141c2.991,0.035,4.646,2.076,3.695,4.574c-0.915,2.532-4.082,4.539-7.037,4.504
			c-2.956-0.035-4.608-2.111-3.66-4.609C2858.702,42.111,2861.834,40.105,2864.789,40.141z"/>
	</g>
	<line fill="none" stroke="#000000" stroke-width="0.459" x1="2868.1" y1="43.106" x2="2868.1" y2="16.006"/>
	<g enable-background="new    ">
		<path d="M2880.547,40.141c2.99,0.035,4.645,2.076,3.695,4.574c-0.916,2.532-4.082,4.539-7.037,4.504
			c-2.957-0.035-4.609-2.111-3.66-4.609C2874.459,42.111,2877.592,40.105,2880.547,40.141z"/>
	</g>
	<line fill="none" stroke="#000000" stroke-width="0.459" x1="2883.799" y1="43.106" x2="2883.799" y2="16.006"/>
	<g enable-background="new    ">
		<path d="M2896.307,40.141c2.99,0.035,4.645,2.076,3.695,4.574c-0.916,2.532-4.082,4.539-7.037,4.504
			c-2.957-0.035-4.609-2.111-3.66-4.609C2890.22,42.111,2893.352,40.105,2896.307,40.141z"/>
	</g>
	<line fill="none" stroke="#000000" stroke-width="0.459" x1="2899.6" y1="43.106" x2="2899.6" y2="16.006"/>
	<path d="M2851.901,13.806h48.1v4.4h-48.1V13.806z"/>
	<path d="M2851.901,20.406h48.1v4.4h-48.1V20.406z"/>
	<line fill="none" stroke="#000000" stroke-width="0.459" x1="2915.699" y1="43.106" x2="2915.699" y2="13.806"/>
	<g enable-background="new    ">
		<path d="M2912.432,40.141c2.99,0.035,4.645,2.076,3.695,4.574c-0.916,2.532-4.082,4.539-7.037,4.504
			c-2.957-0.035-4.609-2.111-3.66-4.609C2906.345,42.111,2909.477,40.105,2912.432,40.141z"/>
	</g>
	<g enable-background="new    ">
		<path d="M2946.756,26.877v4.504h-11.189v-4.504H2946.756z"/>
	</g>
	<line fill="none" stroke="#000000" stroke-width="0.459" x1="2934.5" y1="31.406" x2="2947.699" y2="31.406"/>
	<g enable-background="new    ">
		<path d="M2997.824,40.141c2.991,0.035,4.646,2.076,3.695,4.574c-0.915,2.532-4.082,4.539-7.037,4.504
			c-2.956-0.035-4.609-2.111-3.66-4.609C2991.738,42.111,2994.869,40.105,2997.824,40.141z"/>
	</g>
	<line fill="none" stroke="#000000" stroke-width="0.459" x1="3001.1" y1="43.106" x2="3001.1" y2="16.006"/>
	<g enable-background="new    ">
		<path d="M3013.584,40.141c2.99,0.035,4.645,2.076,3.694,4.574c-0.915,2.532-4.082,4.539-7.037,4.504
			c-2.956-0.035-4.608-2.111-3.659-4.609C3007.498,42.111,3010.629,40.105,3013.584,40.141z"/>
	</g>
	<line fill="none" stroke="#000000" stroke-width="0.459" x1="3016.901" y1="43.106" x2="3016.901" y2="16.006"/>
	<g enable-background="new    ">
		<path d="M3029.342,40.141c2.99,0.035,4.645,2.076,3.695,4.574c-0.916,2.532-4.082,4.539-7.037,4.504
			c-2.957-0.035-4.609-2.111-3.66-4.609C3023.254,42.111,3026.387,40.105,3029.342,40.141z"/>
	</g>
	<line fill="none" stroke="#000000" stroke-width="0.459" x1="3032.6" y1="43.106" x2="3032.6" y2="16.006"/>
	<g enable-background="new    ">
		<path d="M3045.1,40.141c2.991,0.035,4.645,2.076,3.695,4.574c-0.915,2.532-4.082,4.539-7.037,4.504
			c-2.956-0.035-4.609-2.111-3.66-4.609C3039.013,42.111,3042.145,40.105,3045.1,40.141z"/>
	</g>
	<line fill="none" stroke="#000000" stroke-width="0.459" x1="3048.401" y1="43.106" x2="3048.401" y2="16.006"/>
	<path d="M3000.699,13.806h48.101v4.4h-48.101V13.806z"/>
	<path d="M3000.699,20.406h48.101v4.4h-48.101V20.406z"/>
	<line fill="none" stroke="#000000" stroke-width="0.459" x1="3064.5" y1="43.106" x2="3064.5" y2="13.806"/>
	<g enable-background="new    ">
		<path d="M3061.227,40.141c2.991,0.035,4.645,2.076,3.695,4.574c-0.915,2.532-4.082,4.539-7.037,4.504
			c-2.956-0.035-4.609-2.111-3.66-4.609C3055.14,42.111,3058.272,40.105,3061.227,40.141z"/>
	</g>
	<g enable-background="new    ">
		<path d="M3095.551,26.877v4.504h-11.189v-4.504H3095.551z"/>
	</g>
	<line fill="none" stroke="#000000" stroke-width="0.459" x1="3083.299" y1="31.406" x2="3096.5" y2="31.406"/>
	<g enable-background="new    ">
		<path d="M3146.617,40.141c2.991,0.035,4.646,2.076,3.695,4.574c-0.915,2.532-4.082,4.539-7.037,4.504
			c-2.956-0.035-4.609-2.111-3.66-4.609C3140.531,42.111,3143.662,40.105,3146.617,40.141z"/>
	</g>
	<line fill="none" stroke="#000000" stroke-width="0.459" x1="3149.901" y1="43.106" x2="3149.901" y2="16.006"/>
	<g enable-background="new    ">
		<path d="M3162.375,40.141c2.99,0.035,4.645,2.076,3.694,4.574c-0.915,2.532-4.082,4.539-7.037,4.504
			c-2.956-0.035-4.608-2.111-3.659-4.609C3156.289,42.111,3159.42,40.105,3162.375,40.141z"/>
	</g>
	<line fill="none" stroke="#000000" stroke-width="0.459" x1="3165.699" y1="43.106" x2="3165.699" y2="16.006"/>
	<g enable-background="new    ">
		<path d="M3178.135,40.141c2.99,0.035,4.645,2.076,3.695,4.574c-0.916,2.532-4.082,4.539-7.037,4.504
			c-2.957-0.035-4.609-2.111-3.66-4.609C3172.048,42.111,3175.18,40.105,3178.135,40.141z"/>
	</g>
	<line fill="none" stroke="#000000" stroke-width="0.459" x1="3181.401" y1="43.106" x2="3181.401" y2="16.006"/>
	<g enable-background="new    ">
		<path d="M3193.895,40.141c2.991,0.035,4.645,2.076,3.695,4.574c-0.915,2.532-4.082,4.539-7.037,4.504
			c-2.956-0.035-4.609-2.111-3.66-4.609C3187.808,42.111,3190.94,40.105,3193.895,40.141z"/>
	</g>
	<line fill="none" stroke="#000000" stroke-width="0.459" x1="3197.199" y1="43.106" x2="3197.199" y2="16.006"/>
	<path d="M3149.5,13.806h48.1v4.4h-48.1V13.806z"/>
	<path d="M3149.5,20.406h48.1v4.4h-48.1V20.406z"/>
	<line fill="none" stroke="#000000" stroke-width="0.459" x1="3213.299" y1="43.106" x2="3213.299" y2="13.806"/>
	<g enable-background="new    ">
		<path d="M3210.02,40.141c2.991,0.035,4.645,2.076,3.695,4.574c-0.915,2.532-4.082,4.539-7.037,4.504
			c-2.956-0.035-4.609-2.111-3.66-4.609C3203.933,42.111,3207.065,40.105,3210.02,40.141z"/>
	</g>
	<g enable-background="new    ">
		<path d="M3244.344,26.877v4.504h-11.189v-4.504H3244.344z"/>
	</g>
	<line fill="none" stroke="#000000" stroke-width="0.459" x1="3232.1" y1="31.406" x2="3245.199" y2="31.406"/>
	<g enable-background="new    ">
		<path d="M3295.412,40.141c2.99,0.035,4.646,2.076,3.694,4.574c-0.915,2.532-4.082,4.539-7.038,4.504
			c-2.955-0.035-4.608-2.111-3.658-4.609C3289.324,42.111,3292.457,40.105,3295.412,40.141z"/>
	</g>
	<line fill="none" stroke="#000000" stroke-width="0.459" x1="3298.699" y1="43.106" x2="3298.699" y2="16.006"/>
	<g enable-background="new    ">
		<path d="M3311.172,40.141c2.99,0.035,4.645,2.076,3.693,4.574c-0.914,2.532-4.082,4.539-7.037,4.504s-4.609-2.111-3.659-4.609
			C3305.084,42.111,3308.216,40.105,3311.172,40.141z"/>
	</g>
	<line fill="none" stroke="#000000" stroke-width="0.459" x1="3314.5" y1="43.106" x2="3314.5" y2="16.006"/>
	<g enable-background="new    ">
		<path d="M3326.93,40.141c2.99,0.035,4.645,2.076,3.695,4.574c-0.916,2.532-4.082,4.539-7.037,4.504
			c-2.957-0.035-4.609-2.111-3.66-4.609C3320.843,42.111,3323.975,40.105,3326.93,40.141z"/>
	</g>
	<line fill="none" stroke="#000000" stroke-width="0.459" x1="3330.199" y1="43.106" x2="3330.199" y2="16.006"/>
	<g enable-background="new    ">
		<path d="M3342.69,40.141c2.99,0.035,4.645,2.076,3.694,4.574c-0.915,2.532-4.082,4.539-7.038,4.504
			c-2.955-0.035-4.609-2.111-3.659-4.609C3336.602,42.111,3339.734,40.105,3342.69,40.141z"/>
	</g>
	<line fill="none" stroke="#000000" stroke-width="0.459" x1="3346" y1="43.106" x2="3346" y2="16.006"/>
	<path d="M3298.299,13.806h48.102v4.4h-48.102V13.806z"/>
	<path d="M3298.299,20.406h48.102v4.4h-48.102V20.406z"/>
	<line fill="none" stroke="#000000" stroke-width="0.459" x1="3362.1" y1="43.106" x2="3362.1" y2="13.806"/>
	<g enable-background="new    ">
		<path d="M3358.815,40.141c2.991,0.035,4.645,2.076,3.695,4.574c-0.915,2.532-4.082,4.539-7.037,4.504
			c-2.956-0.035-4.609-2.111-3.66-4.609C3352.728,42.111,3355.86,40.105,3358.815,40.141z"/>
	</g>
	<g enable-background="new    ">
		<path d="M3393.139,26.877v4.504h-11.189v-4.504H3393.139z"/>
	</g>
	<line fill="none" stroke="#000000" stroke-width="0.459" x1="3380.799" y1="31.406" x2="3394" y2="31.406"/>
	<g enable-background="new    ">
		<path d="M3444.205,40.141c2.991,0.035,4.646,2.076,3.695,4.574c-0.915,2.532-4.082,4.539-7.037,4.504
			c-2.956-0.035-4.608-2.111-3.66-4.609C3438.118,42.111,3441.25,40.105,3444.205,40.141z"/>
	</g>
	<line fill="none" stroke="#000000" stroke-width="0.459" x1="3447.5" y1="43.106" x2="3447.5" y2="16.006"/>
	<g enable-background="new    ">
		<path d="M3459.965,40.141c2.99,0.035,4.645,2.076,3.695,4.574c-0.916,2.532-4.082,4.539-7.037,4.504
			c-2.957-0.035-4.609-2.111-3.66-4.609C3453.877,42.111,3457.01,40.105,3459.965,40.141z"/>
	</g>
	<line fill="none" stroke="#000000" stroke-width="0.459" x1="3463.299" y1="43.106" x2="3463.299" y2="16.006"/>
	<g enable-background="new    ">
		<path d="M3475.725,40.141c2.99,0.035,4.645,2.076,3.694,4.574c-0.915,2.532-4.082,4.539-7.038,4.504
			c-2.955-0.035-4.609-2.111-3.659-4.609C3469.637,42.111,3472.769,40.105,3475.725,40.141z"/>
	</g>
	<line fill="none" stroke="#000000" stroke-width="0.459" x1="3479" y1="43.106" x2="3479" y2="16.006"/>
	<g enable-background="new    ">
		<path d="M3491.483,40.141c2.991,0.035,4.645,2.076,3.695,4.574c-0.915,2.532-4.082,4.539-7.037,4.504
			c-2.956-0.035-4.609-2.111-3.66-4.609C3485.396,42.111,3488.528,40.105,3491.483,40.141z"/>
	</g>
	<line fill="none" stroke="#000000" stroke-width="0.459" x1="3494.799" y1="43.106" x2="3494.799" y2="16.006"/>
	<path d="M3447.1,13.806h48.1v4.4h-48.1V13.806z"/>
	<path d="M3447.1,20.406h48.1v4.4h-48.1V20.406z"/>
	<line fill="none" stroke="#000000" stroke-width="0.459" x1="3510.901" y1="43.106" x2="3510.901" y2="13.806"/>
	<g enable-background="new    ">
		<path d="M3507.61,40.141c2.991,0.035,4.646,2.076,3.695,4.574c-0.915,2.532-4.082,4.539-7.037,4.504
			c-2.956-0.035-4.609-2.111-3.66-4.609C3501.523,42.111,3504.655,40.105,3507.61,40.141z"/>
	</g>
	<g enable-background="new    ">
		<path d="M3541.934,26.877v4.504h-11.189v-4.504H3541.934z"/>
	</g>
	<line fill="none" stroke="#000000" stroke-width="0.459" x1="3529.6" y1="31.406" x2="3542.799" y2="31.406"/>
	<g enable-background="new    ">
		<path d="M3593,40.141c2.99,0.035,4.645,2.076,3.694,4.574c-0.915,2.532-4.082,4.539-7.037,4.504
			c-2.956-0.035-4.608-2.111-3.659-4.609C3586.914,42.111,3590.045,40.105,3593,40.141z"/>
	</g>
	<line fill="none" stroke="#000000" stroke-width="0.459" x1="3596.299" y1="43.106" x2="3596.299" y2="16.006"/>
	<g enable-background="new    ">
		<path d="M3608.758,40.141c2.99,0.035,4.645,2.076,3.695,4.574c-0.916,2.532-4.082,4.539-7.037,4.504
			c-2.957-0.035-4.609-2.111-3.66-4.609C3602.67,42.111,3605.803,40.105,3608.758,40.141z"/>
	</g>
	<line fill="none" stroke="#000000" stroke-width="0.459" x1="3612" y1="43.106" x2="3612" y2="16.006"/>
	<g enable-background="new    ">
		<path d="M3624.518,40.141c2.991,0.035,4.645,2.076,3.695,4.574c-0.915,2.532-4.082,4.539-7.037,4.504
			c-2.956-0.035-4.609-2.111-3.66-4.609C3618.431,42.111,3621.563,40.105,3624.518,40.141z"/>
	</g>
	<line fill="none" stroke="#000000" stroke-width="0.459" x1="3627.799" y1="43.106" x2="3627.799" y2="16.006"/>
	<g enable-background="new    ">
		<path d="M3640.276,40.141c2.991,0.035,4.645,2.076,3.695,4.574c-0.915,2.532-4.082,4.539-7.037,4.504
			c-2.956-0.035-4.609-2.111-3.66-4.609C3634.189,42.111,3637.321,40.105,3640.276,40.141z"/>
	</g>
	<line fill="none" stroke="#000000" stroke-width="0.459" x1="3643.6" y1="43.106" x2="3643.6" y2="16.006"/>
	<path d="M3595.901,13.806h48.1v4.4h-48.1V13.806z"/>
	<path d="M3595.901,20.406h48.1v4.4h-48.1V20.406z"/>
	<line fill="none" stroke="#000000" stroke-width="0.459" x1="3659.699" y1="43.106" x2="3659.699" y2="13.806"/>
	<g enable-background="new    ">
		<path d="M3656.403,40.141c2.991,0.035,4.646,2.076,3.695,4.574c-0.915,2.532-4.082,4.539-7.037,4.504
			c-2.956-0.035-4.609-2.111-3.66-4.609C3650.316,42.111,3653.448,40.105,3656.403,40.141z"/>
	</g>
	<g enable-background="new    ">
		<path d="M3690.727,26.877v4.504h-11.189v-4.504H3690.727z"/>
	</g>
	<line fill="none" stroke="#000000" stroke-width="0.459" x1="3678.401" y1="31.406" x2="3691.6" y2="31.406"/>
	<g enable-background="new    ">
		<path d="M3741.795,40.141c2.99,0.035,4.645,2.076,3.694,4.574c-0.915,2.532-4.082,4.539-7.037,4.504
			c-2.956-0.035-4.608-2.111-3.659-4.609C3735.707,42.111,3738.84,40.105,3741.795,40.141z"/>
	</g>
	<line fill="none" stroke="#000000" stroke-width="0.459" x1="3745.1" y1="43.106" x2="3745.1" y2="16.006"/>
	<g enable-background="new    ">
		<path d="M3757.553,40.141c2.99,0.035,4.645,2.076,3.695,4.574c-0.916,2.532-4.082,4.539-7.037,4.504
			c-2.957-0.035-4.609-2.111-3.66-4.609C3751.466,42.111,3754.598,40.105,3757.553,40.141z"/>
	</g>
	<line fill="none" stroke="#000000" stroke-width="0.459" x1="3760.799" y1="43.106" x2="3760.799" y2="16.006"/>
	<g enable-background="new    ">
		<path d="M3773.313,40.141c2.99,0.035,4.645,2.076,3.694,4.574c-0.915,2.532-4.082,4.539-7.038,4.504
			c-2.955-0.035-4.609-2.111-3.659-4.609C3767.225,42.111,3770.357,40.105,3773.313,40.141z"/>
	</g>
	<line fill="none" stroke="#000000" stroke-width="0.459" x1="3776.6" y1="43.106" x2="3776.6" y2="16.006"/>
	<g enable-background="new    ">
		<path d="M3789.071,40.141c2.991,0.035,4.646,2.076,3.695,4.574c-0.915,2.532-4.082,4.539-7.037,4.504
			c-2.956-0.035-4.609-2.111-3.66-4.609C3782.984,42.111,3786.115,40.105,3789.071,40.141z"/>
	</g>
	<line fill="none" stroke="#000000" stroke-width="0.459" x1="3792.401" y1="43.106" x2="3792.401" y2="16.006"/>
	<path d="M3744.699,13.806h48.103v4.4h-48.103V13.806z"/>
	<path d="M3744.699,20.406h48.103v4.4h-48.103V20.406z"/>
	<line fill="none" stroke="#000000" stroke-width="0.459" x1="3808.5" y1="43.106" x2="3808.5" y2="13.806"/>
	<g enable-background="new    ">
		<path d="M3805.198,40.141c2.99,0.035,4.646,2.076,3.694,4.574c-0.915,2.532-4.082,4.539-7.038,4.504
			c-2.955-0.035-4.609-2.111-3.659-4.609C3799.11,42.111,3802.241,40.105,3805.198,40.141z"/>
	</g>
	<g enable-background="new    ">
		<path d="M3839.522,26.877v4.504h-11.189v-4.504H3839.522z"/>
	</g>
	<line fill="none" stroke="#000000" stroke-width="0.459" x1="3827.199" y1="31.406" x2="3840.401" y2="31.406"/>
	<g enable-background="new    ">
		<path d="M3890.588,40.141c2.989,0.035,4.645,2.076,3.693,4.574c-0.915,2.532-4.082,4.539-7.038,4.504
			c-2.955-0.035-4.608-2.111-3.659-4.609C3884.5,42.111,3887.632,40.105,3890.588,40.141z"/>
	</g>
	<line fill="none" stroke="#000000" stroke-width="0.459" x1="3893.901" y1="43.106" x2="3893.901" y2="16.006"/>
	<g enable-background="new    ">
		<path d="M3906.346,40.141c2.99,0.035,4.645,2.076,3.695,4.574c-0.916,2.532-4.082,4.539-7.037,4.504
			c-2.957-0.035-4.609-2.111-3.66-4.609C3900.259,42.111,3903.391,40.105,3906.346,40.141z"/>
	</g>
	<line fill="none" stroke="#000000" stroke-width="0.459" x1="3909.6" y1="43.106" x2="3909.6" y2="16.006"/>
	<g enable-background="new    ">
		<path d="M3922.106,40.141c2.991,0.035,4.645,2.076,3.695,4.574c-0.915,2.532-4.082,4.539-7.037,4.504
			c-2.956-0.035-4.609-2.111-3.66-4.609C3916.019,42.111,3919.151,40.105,3922.106,40.141z"/>
	</g>
	<line fill="none" stroke="#000000" stroke-width="0.459" x1="3925.401" y1="43.106" x2="3925.401" y2="16.006"/>
	<g enable-background="new    ">
		<path d="M3937.865,40.141c2.991,0.035,4.646,2.076,3.695,4.574c-0.915,2.532-4.082,4.539-7.037,4.504
			c-2.956-0.035-4.609-2.111-3.66-4.609C3931.779,42.111,3934.91,40.105,3937.865,40.141z"/>
	</g>
	<line fill="none" stroke="#000000" stroke-width="0.459" x1="3941.199" y1="43.106" x2="3941.199" y2="16.006"/>
	<path d="M3893.5,13.806h48.1v4.4h-48.1V13.806z"/>
	<path d="M3893.5,20.406h48.1v4.4h-48.1V20.406z"/>
	<line fill="none" stroke="#000000" stroke-width="0.459" x1="3957.299" y1="43.106" x2="3957.299" y2="13.806"/>
	<g enable-background="new    ">
		<path d="M3953.99,40.141c2.991,0.035,4.646,2.076,3.695,4.574c-0.915,2.532-4.082,4.539-7.037,4.504
			c-2.956-0.035-4.609-2.111-3.66-4.609C3947.904,42.111,3951.035,40.105,3953.99,40.141z"/>
	</g>
	<g enable-background="new    ">
		<path d="M3988.316,26.877v4.504h-11.188v-4.504H3988.316z"/>
	</g>
	<line fill="none" stroke="#000000" stroke-width="0.459" x1="3976" y1="31.406" x2="3989.199" y2="31.406"/>
	<g enable-background="new    ">
		<path d="M4039.381,40.141c2.99,0.035,4.645,2.076,3.695,4.574c-0.916,2.532-4.082,4.539-7.037,4.504
			c-2.957-0.035-4.609-2.111-3.66-4.609C4033.293,42.111,4036.426,40.105,4039.381,40.141z"/>
	</g>
	<line fill="none" stroke="#000000" stroke-width="0.459" x1="4042.699" y1="43.106" x2="4042.699" y2="16.006"/>
	<g enable-background="new    ">
		<path d="M4055.141,40.141c2.991,0.035,4.645,2.076,3.695,4.574c-0.915,2.532-4.082,4.539-7.037,4.504
			c-2.956-0.035-4.609-2.111-3.66-4.609C4049.054,42.111,4052.186,40.105,4055.141,40.141z"/>
	</g>
	<line fill="none" stroke="#000000" stroke-width="0.459" x1="4058.401" y1="43.106" x2="4058.401" y2="16.006"/>
	<g enable-background="new    ">
		<path d="M4070.901,40.141c2.99,0.035,4.645,2.076,3.694,4.574c-0.915,2.532-4.082,4.539-7.038,4.504
			c-2.955-0.035-4.609-2.111-3.659-4.609C4064.813,42.111,4067.945,40.105,4070.901,40.141z"/>
	</g>
	<line fill="none" stroke="#000000" stroke-width="0.459" x1="4074.199" y1="43.106" x2="4074.199" y2="16.006"/>
	<g enable-background="new    ">
		<path d="M4086.658,40.141c2.991,0.035,4.646,2.076,3.695,4.574c-0.915,2.532-4.082,4.539-7.037,4.504
			c-2.956-0.035-4.609-2.111-3.66-4.609C4080.572,42.111,4083.703,40.105,4086.658,40.141z"/>
	</g>
	<line fill="none" stroke="#000000" stroke-width="0.459" x1="4089.901" y1="43.106" x2="4089.901" y2="16.006"/>
	<path d="M4042.299,13.806h48.102v4.4h-48.102V13.806z"/>
	<path d="M4042.299,20.406h48.102v4.4h-48.102V20.406z"/>
	<line fill="none" stroke="#000000" stroke-width="0.459" x1="4106.1" y1="43.106" x2="4106.1" y2="13.806"/>
	<g enable-background="new    ">
		<path d="M4102.783,40.141c2.992,0.035,4.646,2.076,3.695,4.574c-0.915,2.532-4.082,4.539-7.037,4.504
			c-2.956-0.035-4.609-2.111-3.66-4.609C4096.696,42.111,4099.828,40.105,4102.783,40.141z"/>
	</g>
	<g enable-background="new    ">
		<path d="M4137.109,26.877v4.504h-11.189v-4.504H4137.109z"/>
	</g>
	<line fill="none" stroke="#000000" stroke-width="0.459" x1="4124.799" y1="31.406" x2="4138" y2="31.406"/>
	<g enable-background="new    ">
		<path d="M4188.176,40.141c2.99,0.035,4.645,2.076,3.694,4.574c-0.915,2.532-4.082,4.539-7.037,4.504
			c-2.956-0.035-4.608-2.111-3.66-4.609C4182.088,42.111,4185.221,40.105,4188.176,40.141z"/>
	</g>
	<line fill="none" stroke="#000000" stroke-width="0.459" x1="4191.5" y1="43.106" x2="4191.5" y2="16.006"/>
	<g enable-background="new    ">
		<path d="M4203.936,40.141c2.991,0.035,4.645,2.076,3.695,4.574c-0.916,2.532-4.082,4.539-7.037,4.504
			c-2.957-0.035-4.609-2.111-3.66-4.609C4197.849,42.111,4200.98,40.105,4203.936,40.141z"/>
	</g>
	<line fill="none" stroke="#000000" stroke-width="0.459" x1="4207.199" y1="43.106" x2="4207.199" y2="16.006"/>
	<g enable-background="new    ">
		<path d="M4219.693,40.141c2.991,0.035,4.645,2.076,3.695,4.574c-0.916,2.532-4.082,4.539-7.037,4.504
			c-2.957-0.035-4.609-2.111-3.66-4.609C4213.606,42.111,4216.738,40.105,4219.693,40.141z"/>
	</g>
	<line fill="none" stroke="#000000" stroke-width="0.459" x1="4223" y1="43.106" x2="4223" y2="16.006"/>
	<g enable-background="new    ">
		<path d="M4235.453,40.141c2.992,0.035,4.646,2.076,3.695,4.574c-0.915,2.532-4.082,4.539-7.037,4.504
			c-2.956-0.035-4.609-2.111-3.66-4.609C4229.367,42.111,4232.498,40.105,4235.453,40.141z"/>
	</g>
	<line fill="none" stroke="#000000" stroke-width="0.459" x1="4238.699" y1="43.106" x2="4238.699" y2="16.006"/>
	<path d="M4191,13.806h48.1v4.4H4191V13.806z"/>
	<path d="M4191,20.406h48.1v4.4H4191V20.406z"/>
	<line fill="none" stroke="#000000" stroke-width="0.459" x1="4254.9" y1="43.106" x2="4254.9" y2="13.806"/>
	<g enable-background="new    ">
		<path d="M4251.578,40.141c2.992,0.035,4.646,2.076,3.695,4.574c-0.915,2.532-4.082,4.539-7.037,4.504
			c-2.956-0.035-4.609-2.111-3.66-4.609C4245.492,42.111,4248.623,40.105,4251.578,40.141z"/>
	</g>
	<g enable-background="new    ">
		<path d="M4285.902,26.877v4.504h-11.189v-4.504H4285.902z"/>
	</g>
	<line fill="none" stroke="#000000" stroke-width="0.459" x1="4273.6" y1="31.406" x2="4286.799" y2="31.406"/>
	<g enable-background="new    ">
		<path d="M4336.969,40.141c2.991,0.035,4.645,2.076,3.695,4.574c-0.916,2.532-4.082,4.539-7.037,4.504
			c-2.957-0.035-4.609-2.111-3.66-4.609C4330.881,42.111,4334.014,40.105,4336.969,40.141z"/>
	</g>
	<line fill="none" stroke="#000000" stroke-width="0.459" x1="4340.299" y1="43.106" x2="4340.299" y2="16.006"/>
	<g enable-background="new    ">
		<path d="M4352.729,40.141c2.991,0.035,4.645,2.076,3.695,4.574c-0.916,2.532-4.082,4.539-7.037,4.504
			c-2.957-0.035-4.609-2.111-3.66-4.609C4346.642,42.111,4349.773,40.105,4352.729,40.141z"/>
	</g>
	<line fill="none" stroke="#000000" stroke-width="0.459" x1="4356" y1="43.106" x2="4356" y2="16.006"/>
	<g enable-background="new    ">
		<path d="M4368.488,40.141c2.991,0.035,4.645,2.076,3.695,4.574c-0.916,2.532-4.082,4.539-7.037,4.504
			c-2.957-0.035-4.609-2.111-3.66-4.609C4362.401,42.111,4365.533,40.105,4368.488,40.141z"/>
	</g>
	<line fill="none" stroke="#000000" stroke-width="0.459" x1="4371.799" y1="43.106" x2="4371.799" y2="16.006"/>
	<g enable-background="new    ">
		<path d="M4384.248,40.141c2.99,0.035,4.646,2.076,3.694,4.574c-0.915,2.532-4.082,4.539-7.038,4.504
			c-2.955-0.035-4.609-2.111-3.659-4.609C4378.16,42.111,4381.291,40.105,4384.248,40.141z"/>
	</g>
	<line fill="none" stroke="#000000" stroke-width="0.459" x1="4387.5" y1="43.106" x2="4387.5" y2="16.006"/>
	<path d="M4339.799,13.806h48.102v4.4h-48.102V13.806z"/>
	<path d="M4339.799,20.406h48.102v4.4h-48.102V20.406z"/>
	<line fill="none" stroke="#000000" stroke-width="0.459" x1="4403.699" y1="43.106" x2="4403.699" y2="13.806"/>
	<g enable-background="new    ">
		<path d="M4400.371,40.141c2.992,0.035,4.646,2.076,3.695,4.574c-0.915,2.532-4.082,4.539-7.037,4.504
			c-2.956-0.035-4.609-2.111-3.66-4.609C4394.285,42.111,4397.416,40.105,4400.371,40.141z"/>
	</g>
	<g enable-background="new    ">
		<path d="M4434.695,26.877v4.504h-11.189v-4.504H4434.695z"/>
	</g>
	<line fill="none" stroke="#000000" stroke-width="0.459" x1="4422.4" y1="31.406" x2="4435.6" y2="31.406"/>
	<g enable-background="new    ">
		<path d="M4483.199,40.141c2.99,0.035,4.646,2.076,3.694,4.574c-0.915,2.532-4.082,4.539-7.038,4.504
			c-2.955-0.035-4.609-2.111-3.659-4.609C4477.111,42.111,4480.244,40.105,4483.199,40.141z"/>
	</g>
	<line fill="none" stroke="#000000" stroke-width="0.459" x1="4486.5" y1="43.106" x2="4486.5" y2="16.006"/>
	<g enable-background="new    ">
		<path d="M4498.959,40.141c2.99,0.035,4.645,2.076,3.694,4.574c-0.915,2.532-4.082,4.539-7.037,4.504
			c-2.956-0.035-4.608-2.111-3.66-4.609C4492.873,42.111,4496.004,40.105,4498.959,40.141z"/>
	</g>
	<line fill="none" stroke="#000000" stroke-width="0.459" x1="4502.199" y1="43.106" x2="4502.199" y2="16.006"/>
	<g enable-background="new    ">
		<path d="M4514.715,40.141c2.99,0.035,4.645,2.076,3.694,4.574c-0.915,2.532-4.082,4.539-7.037,4.504
			c-2.956-0.035-4.608-2.111-3.66-4.609C4508.627,42.111,4511.76,40.105,4514.715,40.141z"/>
	</g>
	<line fill="none" stroke="#000000" stroke-width="0.459" x1="4518" y1="43.106" x2="4518" y2="16.006"/>
	<g enable-background="new    ">
		<path d="M4530.477,40.141c2.99,0.035,4.645,2.076,3.693,4.574c-0.914,2.532-4.082,4.539-7.037,4.504s-4.609-2.111-3.66-4.609
			C4524.389,42.111,4527.521,40.105,4530.477,40.141z"/>
	</g>
	<line fill="none" stroke="#000000" stroke-width="0.459" x1="4533.799" y1="43.106" x2="4533.799" y2="16.006"/>
	<path d="M4486.1,13.806h48.1v4.4h-48.1V13.806z"/>
	<path d="M4486.1,20.406h48.1v4.4h-48.1V20.406z"/>
	<line fill="none" stroke="#000000" stroke-width="0.459" x1="4549.5" y1="43.106" x2="4549.5" y2="13.806"/>
	<g enable-background="new    ">
		<path d="M4546.234,40.141c2.991,0.035,4.645,2.076,3.695,4.574c-0.916,2.532-4.082,4.539-7.037,4.504
			c-2.957-0.035-4.609-2.111-3.66-4.609C4540.147,42.111,4543.279,40.105,4546.234,40.141z"/>
	</g>
</g>
</svg>
