<?xml version="1.0" encoding="utf-8"?>
<!-- Generator: Adobe Illustrator 16.0.0, SVG Export Plug-In . SVG Version: 6.00 Build 0)  -->
<!DOCTYPE svg PUBLIC "-//W3C//DTD SVG 1.1//EN" "http://www.w3.org/Graphics/SVG/1.1/DTD/svg11.dtd">
<svg version="1.1" id="Layer_1" xmlns="http://www.w3.org/2000/svg" xmlns:xlink="http://www.w3.org/1999/xlink" x="0px" y="0px"
	 width="4513.011px" height="90px" viewBox="52.1 0 4513.011 90" enable-background="new 52.1 0 4513.011 90" xml:space="preserve">
<g id="Music">
	<line fill="none" stroke="#000000" stroke-width="0.459" x1="52.1" y1="0" x2="52.1" y2="90"/>
	<g enable-background="new    ">
		<path d="M70.142,29.068v31.247h-8.938V29.068H70.142z M68.628,57.323V32.06h-5.946v25.264L68.628,57.323L68.628,57.323z"/>
	</g>
	<g enable-background="new    ">
		<path d="M90.88,57.359v2.322c0,1.407,1.654,1.373,1.654,1.373v0.914h-7.637v-0.914c0,0,1.725,0.069,1.689-1.303v-2.395h-6.509
			l-0.635-0.668c4.259-5.734,4.293-6.791,5.313-11.999h6.087c-1.443,2.675-6.298,7.706-9.711,11.683h5.454v-4.328l4.293-4.715v9.043
			h2.533v0.983H90.88V57.359z"/>
	</g>
	<g enable-background="new    ">
		<path d="M90.88,39.767v2.323c0,1.407,1.654,1.372,1.654,1.372v0.915h-7.637v-0.915c0,0,1.725,0.07,1.689-1.302v-2.394h-6.509
			l-0.635-0.668c4.259-5.735,4.293-6.791,5.313-11.999h6.087c-1.443,2.675-6.298,7.706-9.711,11.683h5.454v-4.328l4.293-4.715v9.043
			h2.533v0.984L90.88,39.767L90.88,39.767z"/>
	</g>
	<line fill="none" stroke="#000000" stroke-width="0.459" x1="246.7" y1="27.1" x2="246.7" y2="62.3"/>
	<line fill="none" stroke="#000000" stroke-width="0.459" x1="395.5" y1="27.1" x2="395.5" y2="62.3"/>
	<line fill="none" stroke="#000000" stroke-width="0.459" x1="544.3" y1="27.1" x2="544.3" y2="62.3"/>
	<line fill="none" stroke="#000000" stroke-width="0.459" x1="693.1" y1="27.1" x2="693.1" y2="62.3"/>
	<line fill="none" stroke="#000000" stroke-width="0.459" x1="841.9" y1="27.1" x2="841.9" y2="62.3"/>
	<line fill="none" stroke="#000000" stroke-width="0.459" x1="990.699" y1="27.1" x2="990.699" y2="62.3"/>
	<line fill="none" stroke="#000000" stroke-width="0.459" x1="1139.5" y1="27.1" x2="1139.5" y2="62.3"/>
	<line fill="none" stroke="#000000" stroke-width="0.459" x1="1288.3" y1="27.1" x2="1288.3" y2="62.3"/>
	<line fill="none" stroke="#000000" stroke-width="0.459" x1="1437.1" y1="27.1" x2="1437.1" y2="62.3"/>
	<line fill="none" stroke="#000000" stroke-width="0.459" x1="1585.799" y1="27.1" x2="1585.799" y2="62.3"/>
	<line fill="none" stroke="#000000" stroke-width="0.459" x1="1734.6" y1="27.1" x2="1734.6" y2="62.3"/>
	<line fill="none" stroke="#000000" stroke-width="0.459" x1="1883.401" y1="27.1" x2="1883.401" y2="62.3"/>
	<line fill="none" stroke="#000000" stroke-width="0.459" x1="2032.199" y1="27.1" x2="2032.199" y2="62.3"/>
	<line fill="none" stroke="#000000" stroke-width="0.459" x1="2181" y1="27.1" x2="2181" y2="62.3"/>
	<line fill="none" stroke="#000000" stroke-width="0.459" x1="2329.799" y1="27.1" x2="2329.799" y2="62.3"/>
	<line fill="none" stroke="#000000" stroke-width="0.459" x1="2478.6" y1="27.1" x2="2478.6" y2="62.3"/>
	<line fill="none" stroke="#000000" stroke-width="0.459" x1="2627.401" y1="27.1" x2="2627.401" y2="62.3"/>
	<line fill="none" stroke="#000000" stroke-width="0.459" x1="2776.199" y1="27.1" x2="2776.199" y2="62.3"/>
	<line fill="none" stroke="#000000" stroke-width="0.459" x1="2925" y1="27.1" x2="2925" y2="62.3"/>
	<line fill="none" stroke="#000000" stroke-width="0.459" x1="3073.799" y1="27.1" x2="3073.799" y2="62.3"/>
	<line fill="none" stroke="#000000" stroke-width="0.459" x1="3222.6" y1="27.1" x2="3222.6" y2="62.3"/>
	<line fill="none" stroke="#000000" stroke-width="0.459" x1="3371.401" y1="27.1" x2="3371.401" y2="62.3"/>
	<line fill="none" stroke="#000000" stroke-width="0.459" x1="3520.199" y1="27.1" x2="3520.199" y2="62.3"/>
	<line fill="none" stroke="#000000" stroke-width="0.459" x1="3669" y1="27.1" x2="3669" y2="62.3"/>
	<line fill="none" stroke="#000000" stroke-width="0.459" x1="3817.799" y1="27.1" x2="3817.799" y2="62.3"/>
	<line fill="none" stroke="#000000" stroke-width="0.459" x1="3966.6" y1="27.1" x2="3966.6" y2="62.3"/>
	<line fill="none" stroke="#000000" stroke-width="0.459" x1="4115.299" y1="27.1" x2="4115.299" y2="62.3"/>
	<line fill="none" stroke="#000000" stroke-width="0.459" x1="4264.1" y1="27.1" x2="4264.1" y2="62.3"/>
	<line fill="none" stroke="#000000" stroke-width="0.459" x1="4412.9" y1="27.1" x2="4412.9" y2="62.3"/>
	<line fill="none" stroke="#000000" stroke-width="2.419" x1="4563.9" y1="27.1" x2="4563.9" y2="62.3"/>
	<line fill="none" stroke="#000000" stroke-width="0.459" x1="4556.799" y1="27.1" x2="4556.799" y2="62.3"/>
	<g enable-background="new    ">
		<path d="M177.978,35.859v5.067h-11.188v-5.067H177.978z"/>
	</g>
	<line fill="none" stroke="#000000" stroke-width="0.459" x1="165.7" y1="35.9" x2="178.8" y2="35.9"/>
	<g enable-background="new    ">
		<path d="M326.771,35.859v5.067h-11.189v-5.067H326.771z"/>
	</g>
	<line fill="none" stroke="#000000" stroke-width="0.459" x1="314.4" y1="35.9" x2="327.6" y2="35.9"/>
	<g enable-background="new    ">
		<path d="M475.565,35.859v5.067h-11.188v-5.067H475.565z"/>
	</g>
	<line fill="none" stroke="#000000" stroke-width="0.459" x1="463.199" y1="35.9" x2="476.4" y2="35.9"/>
	<g enable-background="new    ">
		<path d="M624.359,35.859v5.067H613.17v-5.067H624.359z"/>
	</g>
	<line fill="none" stroke="#000000" stroke-width="0.459" x1="612" y1="35.9" x2="625.199" y2="35.9"/>
	<g enable-background="new    ">
		<path d="M773.153,35.859v5.067h-11.188v-5.067H773.153z"/>
	</g>
	<line fill="none" stroke="#000000" stroke-width="0.459" x1="760.8" y1="35.9" x2="774" y2="35.9"/>
	<g enable-background="new    ">
		<path d="M921.948,35.859v5.067h-11.188v-5.067H921.948z"/>
	</g>
	<line fill="none" stroke="#000000" stroke-width="0.459" x1="909.6" y1="35.9" x2="922.8" y2="35.9"/>
	<g enable-background="new    ">
		<path d="M1070.741,35.859v5.067h-11.188v-5.067H1070.741z"/>
	</g>
	<line fill="none" stroke="#000000" stroke-width="0.459" x1="1058.4" y1="35.9" x2="1071.6" y2="35.9"/>
	<g enable-background="new    ">
		<path d="M1219.535,35.859v5.067h-11.188v-5.067H1219.535z"/>
	</g>
	<line fill="none" stroke="#000000" stroke-width="0.459" x1="1207.199" y1="35.9" x2="1220.4" y2="35.9"/>
	<g enable-background="new    ">
		<path d="M1306.117,53.453c2.991,0.035,4.646,2.076,3.695,4.574c-0.915,2.533-4.082,4.539-7.038,4.504s-4.608-2.111-3.66-4.609
			C1300.031,55.424,1303.162,53.418,1306.117,53.453z"/>
	</g>
	<line fill="none" stroke="#000000" stroke-width="0.459" x1="1309.4" y1="56.4" x2="1309.4" y2="29.3"/>
	<g enable-background="new    ">
		<path d="M1323.343,53.453c2.991,0.035,4.645,2.076,3.694,4.574c-0.915,2.533-4.082,4.539-7.037,4.504
			c-2.956-0.035-4.609-2.111-3.66-4.609C1317.255,55.424,1320.387,53.418,1323.343,53.453z"/>
	</g>
	<line fill="none" stroke="#000000" stroke-width="0.459" x1="1326.6" y1="56.4" x2="1326.6" y2="29.3"/>
	<path d="M1309,27.1h18.1v4.4H1309V27.1z"/>
	<line fill="none" stroke="#000000" stroke-width="0.459" x1="1343.5" y1="56.4" x2="1343.5" y2="27.1"/>
	<g enable-background="new    ">
		<path d="M1340.199,53.453c2.991,0.035,4.646,2.076,3.695,4.574c-0.915,2.533-4.082,4.539-7.038,4.504s-4.609-2.111-3.66-4.609
			C1334.113,55.424,1337.244,53.418,1340.199,53.453z"/>
	</g>
	<g enable-background="new    ">
		<path d="M1364.996,40.188v4.504h-11.188v-4.504H1364.996z"/>
	</g>
	<line fill="none" stroke="#000000" stroke-width="0.459" x1="1352.699" y1="44.7" x2="1365.9" y2="44.7"/>
	<g enable-background="new    ">
		<path d="M1454.91,53.453c2.991,0.035,4.646,2.076,3.695,4.574c-0.915,2.533-4.082,4.539-7.038,4.504s-4.608-2.111-3.66-4.609
			C1448.823,55.424,1451.955,53.418,1454.91,53.453z"/>
	</g>
	<line fill="none" stroke="#000000" stroke-width="0.459" x1="1458.199" y1="56.4" x2="1458.199" y2="29.3"/>
	<g enable-background="new    ">
		<path d="M1472.136,53.453c2.991,0.035,4.645,2.076,3.694,4.574c-0.915,2.533-4.082,4.539-7.037,4.504
			c-2.956-0.035-4.609-2.111-3.66-4.609C1466.048,55.424,1469.18,53.418,1472.136,53.453z"/>
	</g>
	<line fill="none" stroke="#000000" stroke-width="0.459" x1="1475.4" y1="56.4" x2="1475.4" y2="29.3"/>
	<path d="M1457.8,27.1h18.101v4.4H1457.8V27.1z"/>
	<line fill="none" stroke="#000000" stroke-width="0.459" x1="1492.3" y1="56.4" x2="1492.3" y2="27.1"/>
	<g enable-background="new    ">
		<path d="M1488.994,53.453c2.991,0.035,4.646,2.076,3.695,4.574c-0.915,2.533-4.082,4.539-7.038,4.504s-4.608-2.111-3.66-4.609
			C1482.907,55.424,1486.039,53.418,1488.994,53.453z"/>
	</g>
	<g enable-background="new    ">
		<path d="M1513.789,40.188v4.504H1502.6v-4.504H1513.789z"/>
	</g>
	<line fill="none" stroke="#000000" stroke-width="0.459" x1="1501.5" y1="44.7" x2="1514.699" y2="44.7"/>
	<g enable-background="new    ">
		<path d="M1603.705,53.453c2.991,0.035,4.646,2.076,3.695,4.574c-0.915,2.533-4.082,4.539-7.038,4.504s-4.608-2.111-3.66-4.609
			C1597.618,55.424,1600.75,53.418,1603.705,53.453z"/>
	</g>
	<line fill="none" stroke="#000000" stroke-width="0.459" x1="1607" y1="56.4" x2="1607" y2="29.3"/>
	<g enable-background="new    ">
		<path d="M1620.931,53.453c2.991,0.035,4.645,2.076,3.694,4.574c-0.914,2.533-4.082,4.539-7.037,4.504
			c-2.956-0.035-4.609-2.111-3.66-4.609C1614.843,55.424,1617.975,53.418,1620.931,53.453z"/>
	</g>
	<line fill="none" stroke="#000000" stroke-width="0.459" x1="1624.199" y1="56.4" x2="1624.199" y2="29.3"/>
	<path d="M1606.6,27.1h18.1v4.4h-18.1V27.1z"/>
	<line fill="none" stroke="#000000" stroke-width="0.459" x1="1641.1" y1="56.4" x2="1641.1" y2="27.1"/>
	<g enable-background="new    ">
		<path d="M1637.787,53.453c2.991,0.035,4.646,2.076,3.695,4.574c-0.915,2.533-4.082,4.539-7.038,4.504s-4.608-2.111-3.66-4.609
			C1631.7,55.424,1634.832,53.418,1637.787,53.453z"/>
	</g>
	<g enable-background="new    ">
		<path d="M1662.584,40.188v4.504h-11.189v-4.504H1662.584z"/>
	</g>
	<line fill="none" stroke="#000000" stroke-width="0.459" x1="1650.299" y1="44.7" x2="1663.5" y2="44.7"/>
	<g enable-background="new    ">
		<path d="M1752.498,53.453c2.991,0.035,4.646,2.076,3.695,4.574c-0.915,2.533-4.082,4.539-7.038,4.504s-4.608-2.111-3.66-4.609
			C1746.411,55.424,1749.543,53.418,1752.498,53.453z"/>
	</g>
	<line fill="none" stroke="#000000" stroke-width="0.459" x1="1755.799" y1="56.4" x2="1755.799" y2="29.3"/>
	<g enable-background="new    ">
		<path d="M1769.724,53.453c2.991,0.035,4.645,2.076,3.694,4.574c-0.914,2.533-4.082,4.539-7.037,4.504
			c-2.956-0.035-4.609-2.111-3.66-4.609C1763.636,55.424,1766.768,53.418,1769.724,53.453z"/>
	</g>
	<line fill="none" stroke="#000000" stroke-width="0.459" x1="1773" y1="56.4" x2="1773" y2="29.3"/>
	<path d="M1755.401,27.1h18.1v4.4h-18.1V27.1z"/>
	<line fill="none" stroke="#000000" stroke-width="0.459" x1="1789.901" y1="56.4" x2="1789.901" y2="27.1"/>
	<g enable-background="new    ">
		<path d="M1786.582,53.453c2.991,0.035,4.646,2.076,3.695,4.574c-0.915,2.533-4.082,4.539-7.038,4.504s-4.608-2.111-3.66-4.609
			C1780.495,55.424,1783.627,53.418,1786.582,53.453z"/>
	</g>
	<g enable-background="new    ">
		<path d="M1811.377,40.188v4.504h-11.189v-4.504H1811.377z"/>
	</g>
	<line fill="none" stroke="#000000" stroke-width="0.459" x1="1799.1" y1="44.7" x2="1812.299" y2="44.7"/>
	<g enable-background="new    ">
		<path d="M1901.293,53.453c2.991,0.035,4.646,2.076,3.695,4.574c-0.915,2.533-4.082,4.539-7.038,4.504s-4.608-2.111-3.66-4.609
			C1895.207,55.424,1898.338,53.418,1901.293,53.453z"/>
	</g>
	<line fill="none" stroke="#000000" stroke-width="0.459" x1="1904.6" y1="56.4" x2="1904.6" y2="29.3"/>
	<g enable-background="new    ">
		<path d="M1918.519,53.453c2.991,0.035,4.646,2.076,3.695,4.574c-0.915,2.533-4.082,4.539-7.038,4.504s-4.609-2.111-3.66-4.609
			C1912.431,55.424,1915.563,53.418,1918.519,53.453z"/>
	</g>
	<line fill="none" stroke="#000000" stroke-width="0.459" x1="1921.799" y1="56.4" x2="1921.799" y2="29.3"/>
	<path d="M1904.199,27.1h18.101v4.4h-18.101V27.1z"/>
	<line fill="none" stroke="#000000" stroke-width="0.459" x1="1938.699" y1="56.4" x2="1938.699" y2="27.1"/>
	<g enable-background="new    ">
		<path d="M1935.375,53.453c2.991,0.035,4.646,2.076,3.695,4.574c-0.915,2.533-4.082,4.539-7.038,4.504s-4.608-2.111-3.66-4.609
			C1929.288,55.424,1932.42,53.418,1935.375,53.453z"/>
	</g>
	<g enable-background="new    ">
		<path d="M1960.172,40.188v4.504h-11.189v-4.504H1960.172z"/>
	</g>
	<line fill="none" stroke="#000000" stroke-width="0.459" x1="1947.901" y1="44.7" x2="1961.1" y2="44.7"/>
	<g enable-background="new    ">
		<path d="M2050.086,53.453c2.991,0.035,4.646,2.076,3.695,4.574c-0.915,2.533-4.082,4.539-7.038,4.504s-4.608-2.111-3.659-4.609
			C2044,55.424,2047.131,53.418,2050.086,53.453z"/>
	</g>
	<line fill="none" stroke="#000000" stroke-width="0.459" x1="2053.401" y1="56.4" x2="2053.401" y2="29.3"/>
	<g enable-background="new    ">
		<path d="M2067.313,53.453c2.991,0.035,4.645,2.076,3.695,4.574c-0.915,2.533-4.082,4.539-7.038,4.504s-4.609-2.111-3.66-4.609
			C2061.226,55.424,2064.358,53.418,2067.313,53.453z"/>
	</g>
	<line fill="none" stroke="#000000" stroke-width="0.459" x1="2070.6" y1="56.4" x2="2070.6" y2="29.3"/>
	<path d="M2053,27.1h18.1v4.4H2053V27.1z"/>
	<line fill="none" stroke="#000000" stroke-width="0.459" x1="2087.5" y1="56.4" x2="2087.5" y2="27.1"/>
	<g enable-background="new    ">
		<path d="M2084.17,53.453c2.991,0.035,4.646,2.076,3.695,4.574c-0.915,2.533-4.082,4.539-7.038,4.504s-4.608-2.111-3.659-4.609
			C2078.082,55.424,2081.215,53.418,2084.17,53.453z"/>
	</g>
	<g enable-background="new    ">
		<path d="M2108.965,40.188v4.504h-11.189v-4.504H2108.965z"/>
	</g>
	<line fill="none" stroke="#000000" stroke-width="0.459" x1="2096.699" y1="44.7" x2="2109.901" y2="44.7"/>
	<g enable-background="new    ">
		<path d="M2198.882,53.453c2.991,0.035,4.645,2.076,3.694,4.574c-0.914,2.533-4.082,4.539-7.037,4.504
			c-2.957-0.035-4.609-2.111-3.66-4.609C2192.793,55.424,2195.926,53.418,2198.882,53.453z"/>
	</g>
	<line fill="none" stroke="#000000" stroke-width="0.459" x1="2202.199" y1="56.4" x2="2202.199" y2="29.3"/>
	<g enable-background="new    ">
		<path d="M2216.105,53.453c2.991,0.035,4.646,2.076,3.695,4.574c-0.915,2.533-4.082,4.539-7.038,4.504s-4.609-2.111-3.66-4.609
			C2210.018,55.424,2213.15,53.418,2216.105,53.453z"/>
	</g>
	<line fill="none" stroke="#000000" stroke-width="0.459" x1="2219.401" y1="56.4" x2="2219.401" y2="29.3"/>
	<path d="M2201.799,27.1h18.102v4.4h-18.102V27.1z"/>
	<line fill="none" stroke="#000000" stroke-width="0.459" x1="2236.299" y1="56.4" x2="2236.299" y2="27.1"/>
	<g enable-background="new    ">
		<path d="M2232.966,53.453c2.991,0.035,4.645,2.076,3.694,4.574c-0.914,2.533-4.082,4.539-7.037,4.504
			c-2.957-0.035-4.609-2.111-3.66-4.609C2226.877,55.424,2230.01,53.418,2232.966,53.453z"/>
	</g>
	<g enable-background="new    ">
		<path d="M2257.76,40.188v4.504h-11.189v-4.504H2257.76z"/>
	</g>
	<line fill="none" stroke="#000000" stroke-width="0.459" x1="2245.5" y1="44.7" x2="2258.699" y2="44.7"/>
	<g enable-background="new    ">
		<path d="M2347.674,53.453c2.99,0.035,4.645,2.076,3.695,4.574c-0.916,2.533-4.082,4.539-7.037,4.504
			c-2.957-0.035-4.609-2.111-3.66-4.609C2341.586,55.424,2344.719,53.418,2347.674,53.453z"/>
	</g>
	<line fill="none" stroke="#000000" stroke-width="0.459" x1="2351" y1="56.4" x2="2351" y2="29.3"/>
	<g enable-background="new    ">
		<path d="M2364.901,53.453c2.991,0.035,4.645,2.076,3.695,4.574c-0.915,2.533-4.082,4.539-7.037,4.504
			c-2.956-0.035-4.609-2.111-3.66-4.609C2358.814,55.424,2361.946,53.418,2364.901,53.453z"/>
	</g>
	<line fill="none" stroke="#000000" stroke-width="0.459" x1="2368.199" y1="56.4" x2="2368.199" y2="29.3"/>
	<path d="M2350.5,27.1h18.1v4.4h-18.1V27.1z"/>
	<line fill="none" stroke="#000000" stroke-width="0.459" x1="2385" y1="56.4" x2="2385" y2="27.1"/>
	<g enable-background="new    ">
		<path d="M2381.758,53.453c2.99,0.035,4.645,2.076,3.695,4.574c-0.916,2.533-4.082,4.539-7.037,4.504
			c-2.957-0.035-4.609-2.111-3.66-4.609C2375.67,55.424,2378.803,53.418,2381.758,53.453z"/>
	</g>
	<g enable-background="new    ">
		<path d="M2406.555,40.188v4.504h-11.189v-4.504H2406.555z"/>
	</g>
	<line fill="none" stroke="#000000" stroke-width="0.459" x1="2394.299" y1="44.7" x2="2407.5" y2="44.7"/>
	<g enable-background="new    ">
		<path d="M2558.682,35.859v5.067h-11.189v-5.067H2558.682z"/>
	</g>
	<line fill="none" stroke="#000000" stroke-width="0.459" x1="2546.401" y1="35.9" x2="2559.5" y2="35.9"/>
	<g enable-background="new    ">
		<path d="M2707.475,35.859v5.067h-11.189v-5.067H2707.475z"/>
	</g>
	<line fill="none" stroke="#000000" stroke-width="0.459" x1="2695.1" y1="35.9" x2="2708.299" y2="35.9"/>
	<g enable-background="new    ">
		<path d="M2794.057,53.453c2.99,0.035,4.645,2.076,3.695,4.574c-0.916,2.533-4.082,4.539-7.037,4.504
			c-2.957-0.035-4.609-2.111-3.66-4.609C2787.97,55.424,2791.102,53.418,2794.057,53.453z"/>
	</g>
	<line fill="none" stroke="#000000" stroke-width="0.459" x1="2797.299" y1="56.4" x2="2797.299" y2="29.3"/>
	<g enable-background="new    ">
		<path d="M2811.281,53.453c2.991,0.035,4.646,2.076,3.695,4.574c-0.915,2.533-4.082,4.539-7.037,4.504
			c-2.956-0.035-4.609-2.111-3.66-4.609C2805.195,55.424,2808.326,53.418,2811.281,53.453z"/>
	</g>
	<line fill="none" stroke="#000000" stroke-width="0.459" x1="2814.6" y1="56.4" x2="2814.6" y2="29.3"/>
	<path d="M2796.901,27.1h18.1v4.4h-18.1V27.1z"/>
	<line fill="none" stroke="#000000" stroke-width="0.459" x1="2831.401" y1="56.4" x2="2831.401" y2="27.1"/>
	<g enable-background="new    ">
		<path d="M2828.141,53.453c2.99,0.035,4.645,2.076,3.694,4.574c-0.915,2.533-4.082,4.539-7.038,4.504
			c-2.955-0.035-4.609-2.111-3.659-4.609C2822.053,55.424,2825.185,53.418,2828.141,53.453z"/>
	</g>
	<g enable-background="new    ">
		<path d="M2852.936,40.188v4.504h-11.189v-4.504H2852.936z"/>
	</g>
	<line fill="none" stroke="#000000" stroke-width="0.459" x1="2840.6" y1="44.7" x2="2853.799" y2="44.7"/>
	<g enable-background="new    ">
		<path d="M2942.85,53.453c2.991,0.035,4.645,2.076,3.695,4.574c-0.915,2.533-4.082,4.539-7.037,4.504
			c-2.956-0.035-4.609-2.111-3.66-4.609C2936.763,55.424,2939.895,53.418,2942.85,53.453z"/>
	</g>
	<line fill="none" stroke="#000000" stroke-width="0.459" x1="2946.1" y1="56.4" x2="2946.1" y2="29.3"/>
	<g enable-background="new    ">
		<path d="M2960.076,53.453c2.99,0.035,4.646,2.076,3.694,4.574c-0.915,2.533-4.082,4.539-7.038,4.504
			c-2.955-0.035-4.609-2.111-3.659-4.609C2953.989,55.424,2957.121,53.418,2960.076,53.453z"/>
	</g>
	<line fill="none" stroke="#000000" stroke-width="0.459" x1="2963.401" y1="56.4" x2="2963.401" y2="29.3"/>
	<path d="M2945.699,27.1h18.101v4.4h-18.101V27.1z"/>
	<line fill="none" stroke="#000000" stroke-width="0.459" x1="2980.199" y1="56.4" x2="2980.199" y2="27.1"/>
	<g enable-background="new    ">
		<path d="M2976.934,53.453c2.991,0.035,4.645,2.076,3.695,4.574c-0.915,2.533-4.082,4.539-7.037,4.504
			c-2.956-0.035-4.609-2.111-3.66-4.609C2970.847,55.424,2973.979,53.418,2976.934,53.453z"/>
	</g>
	<g enable-background="new    ">
		<path d="M3001.731,40.188v4.504h-11.189v-4.504H3001.731z"/>
	</g>
	<line fill="none" stroke="#000000" stroke-width="0.459" x1="2989.401" y1="44.7" x2="3002.6" y2="44.7"/>
	<g enable-background="new    ">
		<path d="M3091.645,53.453c2.991,0.035,4.645,2.076,3.695,4.574c-0.915,2.533-4.082,4.539-7.037,4.504
			c-2.956-0.035-4.609-2.111-3.66-4.609C3085.558,55.424,3088.69,53.418,3091.645,53.453z"/>
	</g>
	<line fill="none" stroke="#000000" stroke-width="0.459" x1="3094.901" y1="56.4" x2="3094.901" y2="29.3"/>
	<g enable-background="new    ">
		<path d="M3108.869,53.453c2.991,0.035,4.646,2.076,3.695,4.574c-0.915,2.533-4.082,4.539-7.037,4.504
			c-2.956-0.035-4.608-2.111-3.66-4.609C3102.782,55.424,3105.914,53.418,3108.869,53.453z"/>
	</g>
	<line fill="none" stroke="#000000" stroke-width="0.459" x1="3112.199" y1="56.4" x2="3112.199" y2="29.3"/>
	<path d="M3094.5,27.1h18.1v4.4h-18.1V27.1z"/>
	<line fill="none" stroke="#000000" stroke-width="0.459" x1="3129" y1="56.4" x2="3129" y2="27.1"/>
	<g enable-background="new    ">
		<path d="M3125.727,53.453c2.991,0.035,4.645,2.076,3.695,4.574c-0.915,2.533-4.082,4.539-7.037,4.504
			c-2.956-0.035-4.609-2.111-3.66-4.609C3119.64,55.424,3122.772,53.418,3125.727,53.453z"/>
	</g>
	<g enable-background="new    ">
		<path d="M3150.524,40.188v4.504h-11.189v-4.504H3150.524z"/>
	</g>
	<line fill="none" stroke="#000000" stroke-width="0.459" x1="3138.199" y1="44.7" x2="3151.401" y2="44.7"/>
	<g enable-background="new    ">
		<path d="M3240.438,53.453c2.991,0.035,4.645,2.076,3.695,4.574c-0.915,2.533-4.082,4.539-7.037,4.504
			c-2.956-0.035-4.609-2.111-3.66-4.609C3234.351,55.424,3237.483,53.418,3240.438,53.453z"/>
	</g>
	<line fill="none" stroke="#000000" stroke-width="0.459" x1="3243.699" y1="56.4" x2="3243.699" y2="29.3"/>
	<g enable-background="new    ">
		<path d="M3257.662,53.453c2.991,0.035,4.646,2.076,3.695,4.574c-0.915,2.533-4.082,4.539-7.037,4.504
			c-2.956-0.035-4.608-2.111-3.66-4.609C3251.575,55.424,3254.707,53.418,3257.662,53.453z"/>
	</g>
	<line fill="none" stroke="#000000" stroke-width="0.459" x1="3261" y1="56.4" x2="3261" y2="29.3"/>
	<path d="M3243.299,27.1h18.102v4.4h-18.102V27.1z"/>
	<line fill="none" stroke="#000000" stroke-width="0.459" x1="3277.799" y1="56.4" x2="3277.799" y2="27.1"/>
	<g enable-background="new    ">
		<path d="M3274.522,53.453c2.991,0.035,4.645,2.076,3.695,4.574c-0.915,2.533-4.082,4.539-7.037,4.504
			c-2.956-0.035-4.609-2.111-3.66-4.609C3268.435,55.424,3271.567,53.418,3274.522,53.453z"/>
	</g>
	<g enable-background="new    ">
		<path d="M3299.318,40.188v4.504h-11.188v-4.504H3299.318z"/>
	</g>
	<line fill="none" stroke="#000000" stroke-width="0.459" x1="3287" y1="44.7" x2="3300.199" y2="44.7"/>
	<g enable-background="new    ">
		<path d="M3389.233,53.453c2.991,0.035,4.645,2.076,3.695,4.574c-0.915,2.533-4.082,4.539-7.037,4.504
			c-2.956-0.035-4.609-2.111-3.66-4.609C3383.146,55.424,3386.278,53.418,3389.233,53.453z"/>
	</g>
	<line fill="none" stroke="#000000" stroke-width="0.459" x1="3392.5" y1="56.4" x2="3392.5" y2="29.3"/>
	<g enable-background="new    ">
		<path d="M3406.457,53.453c2.991,0.035,4.646,2.076,3.695,4.574c-0.915,2.533-4.082,4.539-7.037,4.504
			c-2.956-0.035-4.608-2.111-3.66-4.609C3400.371,55.424,3403.502,53.418,3406.457,53.453z"/>
	</g>
	<line fill="none" stroke="#000000" stroke-width="0.459" x1="3409.699" y1="56.4" x2="3409.699" y2="29.3"/>
	<path d="M3392.1,27.1h18.1v4.4h-18.1V27.1z"/>
	<line fill="none" stroke="#000000" stroke-width="0.459" x1="3426.6" y1="56.4" x2="3426.6" y2="27.1"/>
	<g enable-background="new    ">
		<path d="M3423.317,53.453c2.991,0.035,4.645,2.076,3.695,4.574c-0.915,2.533-4.082,4.539-7.037,4.504
			c-2.956-0.035-4.609-2.111-3.66-4.609C3417.23,55.424,3420.362,53.418,3423.317,53.453z"/>
	</g>
	<g enable-background="new    ">
		<path d="M3448.112,40.188v4.504h-11.188v-4.504H3448.112z"/>
	</g>
	<line fill="none" stroke="#000000" stroke-width="0.459" x1="3435.799" y1="44.7" x2="3449" y2="44.7"/>
	<g enable-background="new    ">
		<path d="M3538.028,53.453c2.991,0.035,4.646,2.076,3.695,4.574c-0.915,2.533-4.082,4.539-7.037,4.504
			c-2.956-0.035-4.609-2.111-3.66-4.609C3531.941,55.424,3535.073,53.418,3538.028,53.453z"/>
	</g>
	<line fill="none" stroke="#000000" stroke-width="0.459" x1="3541.299" y1="56.4" x2="3541.299" y2="29.3"/>
	<g enable-background="new    ">
		<path d="M3555.252,53.453c2.99,0.035,4.645,2.076,3.694,4.574c-0.915,2.533-4.082,4.539-7.037,4.504
			c-2.956-0.035-4.608-2.111-3.659-4.609C3549.166,55.424,3552.297,53.418,3555.252,53.453z"/>
	</g>
	<line fill="none" stroke="#000000" stroke-width="0.459" x1="3558.5" y1="56.4" x2="3558.5" y2="29.3"/>
	<path d="M3540.901,27.1h18.1v4.4h-18.1V27.1z"/>
	<line fill="none" stroke="#000000" stroke-width="0.459" x1="3575.401" y1="56.4" x2="3575.401" y2="27.1"/>
	<g enable-background="new    ">
		<path d="M3572.112,53.453c2.991,0.035,4.646,2.076,3.695,4.574c-0.915,2.533-4.082,4.539-7.037,4.504
			c-2.956-0.035-4.609-2.111-3.66-4.609C3566.025,55.424,3569.156,53.418,3572.112,53.453z"/>
	</g>
	<g enable-background="new    ">
		<path d="M3596.906,40.188v4.504h-11.188v-4.504H3596.906z"/>
	</g>
	<line fill="none" stroke="#000000" stroke-width="0.459" x1="3584.6" y1="44.7" x2="3597.799" y2="44.7"/>
	<g enable-background="new    ">
		<path d="M3686.821,53.453c2.991,0.035,4.646,2.076,3.695,4.574c-0.915,2.533-4.082,4.539-7.037,4.504
			c-2.956-0.035-4.609-2.111-3.66-4.609C3680.734,55.424,3683.865,53.418,3686.821,53.453z"/>
	</g>
	<line fill="none" stroke="#000000" stroke-width="0.459" x1="3690.1" y1="56.4" x2="3690.1" y2="29.3"/>
	<g enable-background="new    ">
		<path d="M3704.045,53.453c2.99,0.035,4.645,2.076,3.694,4.574c-0.915,2.533-4.082,4.539-7.037,4.504
			c-2.956-0.035-4.608-2.111-3.659-4.609C3697.957,55.424,3701.09,53.418,3704.045,53.453z"/>
	</g>
	<line fill="none" stroke="#000000" stroke-width="0.459" x1="3707.299" y1="56.4" x2="3707.299" y2="29.3"/>
	<path d="M3689.699,27.1h18.103v4.4h-18.103V27.1z"/>
	<line fill="none" stroke="#000000" stroke-width="0.459" x1="3724.199" y1="56.4" x2="3724.199" y2="27.1"/>
	<g enable-background="new    ">
		<path d="M3720.905,53.453c2.99,0.035,4.646,2.076,3.694,4.574c-0.915,2.533-4.082,4.539-7.038,4.504
			c-2.955-0.035-4.609-2.111-3.659-4.609C3714.817,55.424,3717.948,53.418,3720.905,53.453z"/>
	</g>
	<g enable-background="new    ">
		<path d="M3745.701,40.188v4.504h-11.188v-4.504H3745.701z"/>
	</g>
	<line fill="none" stroke="#000000" stroke-width="0.459" x1="3733.401" y1="44.7" x2="3746.6" y2="44.7"/>
	<g enable-background="new    ">
		<path d="M3835.615,53.453c2.991,0.035,4.646,2.076,3.695,4.574c-0.915,2.533-4.082,4.539-7.037,4.504
			c-2.956-0.035-4.609-2.111-3.66-4.609C3829.529,55.424,3832.66,53.418,3835.615,53.453z"/>
	</g>
	<line fill="none" stroke="#000000" stroke-width="0.459" x1="3838.901" y1="56.4" x2="3838.901" y2="29.3"/>
	<g enable-background="new    ">
		<path d="M3852.84,53.453c2.99,0.035,4.645,2.076,3.695,4.574c-0.916,2.533-4.082,4.539-7.037,4.504
			c-2.957-0.035-4.609-2.111-3.66-4.609C3846.752,55.424,3849.885,53.418,3852.84,53.453z"/>
	</g>
	<line fill="none" stroke="#000000" stroke-width="0.459" x1="3856.1" y1="56.4" x2="3856.1" y2="29.3"/>
	<path d="M3838.5,27.1h18.1v4.4h-18.1V27.1z"/>
	<line fill="none" stroke="#000000" stroke-width="0.459" x1="3873" y1="56.4" x2="3873" y2="27.1"/>
	<g enable-background="new    ">
		<path d="M3869.698,53.453c2.991,0.035,4.646,2.076,3.695,4.574c-0.915,2.533-4.082,4.539-7.037,4.504
			c-2.956-0.035-4.609-2.111-3.66-4.609C3863.611,55.424,3866.742,53.418,3869.698,53.453z"/>
	</g>
	<g enable-background="new    ">
		<path d="M3894.493,40.188v4.504h-11.188v-4.504H3894.493z"/>
	</g>
	<line fill="none" stroke="#000000" stroke-width="0.459" x1="3882.199" y1="44.7" x2="3895.401" y2="44.7"/>
	<g enable-background="new    ">
		<path d="M3984.41,53.453c2.99,0.035,4.646,2.076,3.694,4.574c-0.915,2.533-4.082,4.539-7.038,4.504
			c-2.955-0.035-4.609-2.111-3.659-4.609C3978.323,55.424,3981.455,53.418,3984.41,53.453z"/>
	</g>
	<line fill="none" stroke="#000000" stroke-width="0.459" x1="3987.699" y1="56.4" x2="3987.699" y2="29.3"/>
	<g enable-background="new    ">
		<path d="M4001.633,53.453c2.99,0.035,4.645,2.076,3.695,4.574c-0.916,2.533-4.082,4.539-7.037,4.504
			c-2.957-0.035-4.609-2.111-3.66-4.609C3995.545,55.424,3998.678,53.418,4001.633,53.453z"/>
	</g>
	<line fill="none" stroke="#000000" stroke-width="0.459" x1="4004.901" y1="56.4" x2="4004.901" y2="29.3"/>
	<path d="M3987.299,27.1h18.102v4.4h-18.102V27.1z"/>
	<line fill="none" stroke="#000000" stroke-width="0.459" x1="4021.799" y1="56.4" x2="4021.799" y2="27.1"/>
	<g enable-background="new    ">
		<path d="M4018.492,53.453c2.991,0.035,4.646,2.076,3.695,4.574c-0.915,2.533-4.082,4.539-7.037,4.504
			c-2.956-0.035-4.609-2.111-3.66-4.609C4012.406,55.424,4015.537,53.418,4018.492,53.453z"/>
	</g>
	<g enable-background="new    ">
		<path d="M4043.287,40.188v4.504h-11.188v-4.504H4043.287z"/>
	</g>
	<line fill="none" stroke="#000000" stroke-width="0.459" x1="4031" y1="44.7" x2="4044.199" y2="44.7"/>
	<g enable-background="new    ">
		<path d="M4133.203,53.453c2.992,0.035,4.646,2.076,3.695,4.574c-0.915,2.533-4.082,4.539-7.037,4.504
			c-2.956-0.035-4.609-2.111-3.66-4.609C4127.117,55.424,4130.248,53.418,4133.203,53.453z"/>
	</g>
	<line fill="none" stroke="#000000" stroke-width="0.459" x1="4136.5" y1="56.4" x2="4136.5" y2="29.3"/>
	<g enable-background="new    ">
		<path d="M4150.428,53.453c2.991,0.035,4.645,2.076,3.695,4.574c-0.916,2.533-4.082,4.539-7.037,4.504
			c-2.957-0.035-4.609-2.111-3.66-4.609C4144.34,55.424,4147.473,53.418,4150.428,53.453z"/>
	</g>
	<line fill="none" stroke="#000000" stroke-width="0.459" x1="4153.699" y1="56.4" x2="4153.699" y2="29.3"/>
	<path d="M4136.1,27.1h18.1v4.4h-18.1V27.1z"/>
	<line fill="none" stroke="#000000" stroke-width="0.459" x1="4170.6" y1="56.4" x2="4170.6" y2="27.1"/>
	<g enable-background="new    ">
		<path d="M4167.287,53.453c2.99,0.035,4.646,2.076,3.694,4.574c-0.915,2.533-4.082,4.539-7.038,4.504
			c-2.955-0.035-4.609-2.111-3.659-4.609C4161.199,55.424,4164.332,53.418,4167.287,53.453z"/>
	</g>
	<g enable-background="new    ">
		<path d="M4192.082,40.188v4.504h-11.188v-4.504H4192.082z"/>
	</g>
	<line fill="none" stroke="#000000" stroke-width="0.459" x1="4179.799" y1="44.7" x2="4193" y2="44.7"/>
	<g enable-background="new    ">
		<path d="M4281.996,53.453c2.992,0.035,4.646,2.076,3.695,4.574c-0.915,2.533-4.082,4.539-7.037,4.504
			c-2.956-0.035-4.609-2.111-3.66-4.609C4275.91,55.424,4279.041,53.418,4281.996,53.453z"/>
	</g>
	<line fill="none" stroke="#000000" stroke-width="0.459" x1="4285.299" y1="56.4" x2="4285.299" y2="29.3"/>
	<g enable-background="new    ">
		<path d="M4299.223,53.453c2.99,0.035,4.645,2.076,3.693,4.574c-0.914,2.533-4.082,4.539-7.037,4.504s-4.609-2.111-3.66-4.609
			C4293.135,55.424,4296.267,53.418,4299.223,53.453z"/>
	</g>
	<line fill="none" stroke="#000000" stroke-width="0.459" x1="4302.5" y1="56.4" x2="4302.5" y2="29.3"/>
	<path d="M4284.9,27.1h18.1v4.4h-18.1V27.1z"/>
	<line fill="none" stroke="#000000" stroke-width="0.459" x1="4319.4" y1="56.4" x2="4319.4" y2="27.1"/>
	<g enable-background="new    ">
		<path d="M4316.08,53.453c2.992,0.035,4.646,2.076,3.695,4.574c-0.915,2.533-4.082,4.539-7.037,4.504
			c-2.956-0.035-4.609-2.111-3.66-4.609C4309.994,55.424,4313.125,53.418,4316.08,53.453z"/>
	</g>
	<g enable-background="new    ">
		<path d="M4340.875,40.188v4.504h-11.189v-4.504H4340.875z"/>
	</g>
	<line fill="none" stroke="#000000" stroke-width="0.459" x1="4328.6" y1="44.7" x2="4341.799" y2="44.7"/>
	<g enable-background="new    ">
		<path d="M4430.789,53.453c2.992,0.035,4.646,2.076,3.695,4.574c-0.915,2.533-4.082,4.539-7.037,4.504
			c-2.956-0.035-4.609-2.111-3.66-4.609C4424.703,55.424,4427.834,53.418,4430.789,53.453z"/>
	</g>
	<line fill="none" stroke="#000000" stroke-width="0.459" x1="4434.1" y1="56.4" x2="4434.1" y2="29.3"/>
	<g enable-background="new    ">
		<path d="M4447.283,53.453c2.99,0.035,4.646,2.076,3.694,4.574c-0.915,2.533-4.082,4.539-7.038,4.504
			c-2.955-0.035-4.609-2.111-3.659-4.609C4441.195,55.424,4444.328,53.418,4447.283,53.453z"/>
	</g>
	<line fill="none" stroke="#000000" stroke-width="0.459" x1="4450.6" y1="56.4" x2="4450.6" y2="29.3"/>
	<path d="M4433.699,27.1H4451v4.4h-17.301V27.1z"/>
	<line fill="none" stroke="#000000" stroke-width="0.459" x1="4467.1" y1="56.4" x2="4467.1" y2="27.1"/>
	<g enable-background="new    ">
		<path d="M4463.775,53.453c2.991,0.035,4.645,2.076,3.695,4.574c-0.916,2.533-4.082,4.539-7.037,4.504
			c-2.957-0.035-4.609-2.111-3.66-4.609C4457.688,55.424,4460.82,53.418,4463.775,53.453z"/>
	</g>
	<g enable-background="new    ">
		<path d="M4487.104,40.188v4.504h-11.188v-4.504H4487.104z"/>
	</g>
	<line fill="none" stroke="#000000" stroke-width="0.459" x1="4474.799" y1="44.7" x2="4488" y2="44.7"/>
</g>
</svg>
