<?xml version="1.0" encoding="utf-8"?>
<!-- Generator: Adobe Illustrator 16.0.0, SVG Export Plug-In . SVG Version: 6.00 Build 0)  -->
<!DOCTYPE svg PUBLIC "-//W3C//DTD SVG 1.1//EN" "http://www.w3.org/Graphics/SVG/1.1/DTD/svg11.dtd">
<svg version="1.1" id="Layer_1" xmlns="http://www.w3.org/2000/svg" xmlns:xlink="http://www.w3.org/1999/xlink" x="0px" y="0px"
	 width="4513.011px" height="90px" viewBox="52.1 13.65 4513.011 90" enable-background="new 52.1 13.65 4513.011 90"
	 xml:space="preserve">
<g id="Music">
	<line fill="none" stroke="#000000" stroke-width="0.459" x1="52.1" y1="40.95" x2="52.1" y2="103.65"/>
	<g enable-background="new    ">
		<path d="M70.142,42.938v31.246h-8.938V42.938H70.142z M68.628,71.192V45.929h-5.946v25.264H68.628z"/>
	</g>
	<g enable-background="new    ">
		<path d="M90.88,71.228v2.323c0,1.406,1.654,1.371,1.654,1.371v0.916h-7.637v-0.916c0,0,1.725,0.07,1.689-1.302v-2.394h-6.509
			l-0.635-0.668c4.259-5.735,4.293-6.791,5.313-11.999h6.087c-1.443,2.675-6.298,7.706-9.711,11.683h5.454v-4.328l4.293-4.715v9.043
			h2.533v0.984L90.88,71.228L90.88,71.228z"/>
	</g>
	<g enable-background="new    ">
		<path d="M90.88,53.635v2.323c0,1.406,1.654,1.372,1.654,1.372v0.914h-7.637v-0.913c0,0,1.725,0.069,1.689-1.303v-2.394h-6.509
			l-0.635-0.668c4.259-5.735,4.293-6.791,5.313-11.999h6.087c-1.443,2.675-6.298,7.706-9.711,11.683h5.454v-4.328l4.293-4.715v9.043
			h2.533v0.984H90.88z"/>
	</g>
	<line fill="none" stroke="#000000" stroke-width="0.459" x1="246.7" y1="40.95" x2="246.7" y2="76.15"/>
	<line fill="none" stroke="#000000" stroke-width="0.459" x1="395.5" y1="40.95" x2="395.5" y2="76.15"/>
	<line fill="none" stroke="#000000" stroke-width="0.459" x1="544.3" y1="40.95" x2="544.3" y2="76.15"/>
	<line fill="none" stroke="#000000" stroke-width="0.459" x1="693.1" y1="40.95" x2="693.1" y2="76.15"/>
	<line fill="none" stroke="#000000" stroke-width="0.459" x1="841.9" y1="40.95" x2="841.9" y2="76.15"/>
	<line fill="none" stroke="#000000" stroke-width="0.459" x1="990.699" y1="40.95" x2="990.699" y2="76.15"/>
	<line fill="none" stroke="#000000" stroke-width="0.459" x1="1139.5" y1="40.95" x2="1139.5" y2="76.15"/>
	<line fill="none" stroke="#000000" stroke-width="0.459" x1="1288.3" y1="40.95" x2="1288.3" y2="76.15"/>
	<line fill="none" stroke="#000000" stroke-width="0.459" x1="1437.1" y1="40.95" x2="1437.1" y2="76.15"/>
	<line fill="none" stroke="#000000" stroke-width="0.459" x1="1585.799" y1="40.95" x2="1585.799" y2="76.15"/>
	<line fill="none" stroke="#000000" stroke-width="0.459" x1="1734.6" y1="40.95" x2="1734.6" y2="76.15"/>
	<line fill="none" stroke="#000000" stroke-width="0.459" x1="1883.401" y1="40.95" x2="1883.401" y2="76.15"/>
	<line fill="none" stroke="#000000" stroke-width="0.459" x1="2032.199" y1="40.95" x2="2032.199" y2="76.15"/>
	<line fill="none" stroke="#000000" stroke-width="0.459" x1="2181" y1="40.95" x2="2181" y2="76.15"/>
	<line fill="none" stroke="#000000" stroke-width="0.459" x1="2329.799" y1="40.95" x2="2329.799" y2="76.15"/>
	<line fill="none" stroke="#000000" stroke-width="0.459" x1="2478.6" y1="40.95" x2="2478.6" y2="76.15"/>
	<line fill="none" stroke="#000000" stroke-width="0.459" x1="2627.401" y1="40.95" x2="2627.401" y2="76.15"/>
	<line fill="none" stroke="#000000" stroke-width="0.459" x1="2776.199" y1="40.95" x2="2776.199" y2="76.15"/>
	<line fill="none" stroke="#000000" stroke-width="0.459" x1="2925" y1="40.95" x2="2925" y2="76.15"/>
	<line fill="none" stroke="#000000" stroke-width="0.459" x1="3073.799" y1="40.95" x2="3073.799" y2="76.15"/>
	<line fill="none" stroke="#000000" stroke-width="0.459" x1="3222.6" y1="40.95" x2="3222.6" y2="76.15"/>
	<line fill="none" stroke="#000000" stroke-width="0.459" x1="3371.401" y1="40.95" x2="3371.401" y2="76.15"/>
	<line fill="none" stroke="#000000" stroke-width="0.459" x1="3520.199" y1="40.95" x2="3520.199" y2="76.15"/>
	<line fill="none" stroke="#000000" stroke-width="0.459" x1="3669" y1="40.95" x2="3669" y2="76.15"/>
	<line fill="none" stroke="#000000" stroke-width="0.459" x1="3817.799" y1="40.95" x2="3817.799" y2="76.15"/>
	<line fill="none" stroke="#000000" stroke-width="0.459" x1="3966.6" y1="40.95" x2="3966.6" y2="76.15"/>
	<line fill="none" stroke="#000000" stroke-width="0.459" x1="4115.299" y1="40.95" x2="4115.299" y2="76.15"/>
	<line fill="none" stroke="#000000" stroke-width="0.459" x1="4264.1" y1="40.95" x2="4264.1" y2="76.15"/>
	<line fill="none" stroke="#000000" stroke-width="0.459" x1="4412.9" y1="40.95" x2="4412.9" y2="76.15"/>
	<line fill="none" stroke="#000000" stroke-width="2.419" x1="4563.9" y1="40.95" x2="4563.9" y2="76.15"/>
	<line fill="none" stroke="#000000" stroke-width="0.459" x1="4556.799" y1="40.95" x2="4556.799" y2="76.15"/>
	<line fill="none" stroke="#000000" stroke-width="0.459" x1="115.8" y1="70.25" x2="115.8" y2="40.95"/>
	<g enable-background="new    ">
		<path d="M113.389,67.875c2.617,0.03,4.064,1.815,3.233,4.002c-0.802,2.217-3.572,3.974-6.159,3.941
			c-2.586-0.029-4.034-1.848-3.203-4.033C108.062,69.599,110.802,67.844,113.389,67.875z"/>
	</g>
	<line fill="none" stroke="#000000" stroke-width="0.459" x1="150.6" y1="70.25" x2="150.6" y2="40.95"/>
	<g enable-background="new    ">
		<path d="M148.206,67.875c2.616,0.03,4.063,1.815,3.232,4.002c-0.801,2.217-3.571,3.974-6.159,3.941
			c-2.586-0.029-4.033-1.848-3.202-4.033C142.879,69.599,145.62,67.844,148.206,67.875z"/>
	</g>
	<line fill="none" stroke="#000000" stroke-width="0.459" x1="185.4" y1="70.25" x2="185.4" y2="40.95"/>
	<g enable-background="new    ">
		<path d="M183.021,67.875c2.617,0.03,4.064,1.815,3.233,4.002c-0.801,2.217-3.572,3.974-6.159,3.941
			c-2.586-0.029-4.034-1.848-3.203-4.033C177.694,69.599,180.435,67.844,183.021,67.875z"/>
	</g>
	<line fill="none" stroke="#000000" stroke-width="0.459" x1="220.2" y1="70.25" x2="220.2" y2="40.95"/>
	<g enable-background="new    ">
		<path d="M217.838,67.875c2.617,0.03,4.063,1.815,3.232,4.002c-0.801,2.217-3.571,3.974-6.158,3.941
			c-2.586-0.029-4.034-1.848-3.203-4.033C212.511,69.599,215.251,67.844,217.838,67.875z"/>
	</g>
	<line fill="none" stroke="#000000" stroke-width="0.459" x1="264.5" y1="70.25" x2="264.5" y2="40.95"/>
	<g enable-background="new    ">
		<path d="M262.184,67.875c2.617,0.03,4.064,1.815,3.233,4.002c-0.801,2.217-3.572,3.974-6.159,3.941
			c-2.586-0.029-4.034-1.848-3.203-4.033C256.856,69.599,259.597,67.844,262.184,67.875z"/>
	</g>
	<line fill="none" stroke="#000000" stroke-width="0.459" x1="297.5" y1="70.25" x2="297.5" y2="40.95"/>
	<g enable-background="new    ">
		<path d="M295.168,67.875c2.616,0.03,4.063,1.815,3.232,4.002c-0.801,2.217-3.571,3.974-6.158,3.941
			c-2.587-0.029-4.034-1.848-3.203-4.033C289.841,69.599,292.582,67.844,295.168,67.875z"/>
	</g>
	<g enable-background="new    ">
		<path d="M327.783,67.875c2.617,0.03,4.064,1.815,3.233,4.002c-0.801,2.217-3.572,3.974-6.159,3.941
			c-2.586-0.029-4.034-1.848-3.203-4.033C322.456,69.599,325.198,67.844,327.783,67.875z"/>
	</g>
	<line fill="none" stroke="#000000" stroke-width="0.459" x1="330.1" y1="70.25" x2="330.1" y2="43.15"/>
	<g enable-background="new    ">
		<path d="M348.309,67.875c2.617,0.03,4.063,1.815,3.232,4.002c-0.801,2.217-3.571,3.974-6.158,3.941
			c-2.586-0.029-4.034-1.848-3.203-4.033C342.981,69.599,345.722,67.844,348.309,67.875z"/>
	</g>
	<line fill="none" stroke="#000000" stroke-width="0.459" x1="350.699" y1="70.25" x2="350.699" y2="43.15"/>
	<path d="M329.699,40.95h21.4v4.4h-21.4V40.95z"/>
	<line fill="none" stroke="#000000" stroke-width="0.459" x1="370.8" y1="70.25" x2="370.8" y2="40.95"/>
	<g enable-background="new    ">
		<path d="M368.465,67.875c2.616,0.03,4.063,1.815,3.232,4.002c-0.801,2.217-3.571,3.974-6.159,3.941
			c-2.586-0.029-4.033-1.848-3.202-4.033C363.138,69.599,365.878,67.844,368.465,67.875z"/>
	</g>
	<line fill="none" stroke="#000000" stroke-width="0.459" x1="413.3" y1="70.25" x2="413.3" y2="40.95"/>
	<g enable-background="new    ">
		<path d="M410.978,67.875c2.617,0.03,4.063,1.815,3.233,4.002c-0.802,2.217-3.572,3.974-6.159,3.941
			c-2.586-0.029-4.034-1.848-3.203-4.033C405.65,69.599,408.391,67.844,410.978,67.875z"/>
	</g>
	<line fill="none" stroke="#000000" stroke-width="0.459" x1="448.199" y1="70.25" x2="448.199" y2="40.95"/>
	<g enable-background="new    ">
		<path d="M445.793,67.875c2.616,0.03,4.063,1.815,3.232,4.002c-0.801,2.217-3.572,3.974-6.159,3.941
			c-2.586-0.029-4.034-1.848-3.203-4.033C440.466,69.599,443.206,67.844,445.793,67.875z"/>
	</g>
	<line fill="none" stroke="#000000" stroke-width="0.459" x1="483" y1="70.25" x2="483" y2="40.95"/>
	<g enable-background="new    ">
		<path d="M480.609,67.875c2.617,0.03,4.064,1.815,3.233,4.002c-0.801,2.217-3.572,3.974-6.159,3.941
			c-2.586-0.029-4.034-1.848-3.203-4.033C475.281,69.599,478.023,67.844,480.609,67.875z"/>
	</g>
	<line fill="none" stroke="#000000" stroke-width="0.459" x1="517.8" y1="70.25" x2="517.8" y2="40.95"/>
	<g enable-background="new    ">
		<path d="M515.426,67.875c2.617,0.03,4.063,1.815,3.232,4.002c-0.801,2.217-3.571,3.974-6.158,3.941
			c-2.587-0.029-4.034-1.848-3.203-4.033C510.099,69.599,512.839,67.844,515.426,67.875z"/>
	</g>
	<line fill="none" stroke="#000000" stroke-width="0.459" x1="562.1" y1="70.25" x2="562.1" y2="40.95"/>
	<g enable-background="new    ">
		<path d="M559.771,67.875c2.617,0.03,4.064,1.815,3.233,4.002c-0.802,2.217-3.572,3.974-6.159,3.941
			c-2.586-0.029-4.034-1.848-3.203-4.033C554.444,69.599,557.185,67.844,559.771,67.875z"/>
	</g>
	<line fill="none" stroke="#000000" stroke-width="0.459" x1="595.1" y1="70.25" x2="595.1" y2="40.95"/>
	<g enable-background="new    ">
		<path d="M592.755,67.875c2.616,0.03,4.063,1.815,3.232,4.002c-0.801,2.217-3.572,3.974-6.159,3.941
			c-2.586-0.029-4.033-1.848-3.203-4.033C587.428,69.599,590.168,67.844,592.755,67.875z"/>
	</g>
	<g enable-background="new    ">
		<path d="M625.372,67.875c2.617,0.03,4.064,1.815,3.233,4.002c-0.801,2.217-3.572,3.974-6.159,3.941
			c-2.586-0.029-4.034-1.848-3.203-4.033C620.046,69.599,622.786,67.844,625.372,67.875z"/>
	</g>
	<line fill="none" stroke="#000000" stroke-width="0.459" x1="627.699" y1="70.25" x2="627.699" y2="43.15"/>
	<g enable-background="new    ">
		<path d="M645.896,67.875c2.617,0.03,4.064,1.815,3.233,4.002c-0.802,2.217-3.572,3.974-6.159,3.941
			c-2.586-0.029-4.034-1.848-3.203-4.033C640.568,69.599,643.309,67.844,645.896,67.875z"/>
	</g>
	<line fill="none" stroke="#000000" stroke-width="0.459" x1="648.3" y1="70.25" x2="648.3" y2="43.15"/>
	<path d="M627.3,40.95h21.399v4.4H627.3V40.95z"/>
	<line fill="none" stroke="#000000" stroke-width="0.459" x1="668.4" y1="70.25" x2="668.4" y2="40.95"/>
	<g enable-background="new    ">
		<path d="M666.053,67.875c2.617,0.03,4.063,1.815,3.232,4.002c-0.801,2.217-3.571,3.974-6.158,3.941
			c-2.587-0.029-4.034-1.848-3.203-4.033C660.726,69.599,663.466,67.844,666.053,67.875z"/>
	</g>
	<line fill="none" stroke="#000000" stroke-width="0.459" x1="710.9" y1="70.25" x2="710.9" y2="40.95"/>
	<g enable-background="new    ">
		<path d="M708.566,67.875c2.617,0.03,4.064,1.815,3.233,4.002c-0.802,2.217-3.572,3.974-6.159,3.941
			c-2.586-0.029-4.034-1.848-3.203-4.033C703.239,69.599,705.98,67.844,708.566,67.875z"/>
	</g>
	<line fill="none" stroke="#000000" stroke-width="0.459" x1="745.699" y1="70.25" x2="745.699" y2="40.95"/>
	<g enable-background="new    ">
		<path d="M743.382,67.875c2.616,0.03,4.063,1.815,3.232,4.002c-0.801,2.217-3.571,3.974-6.159,3.941
			c-2.586-0.029-4.033-1.848-3.202-4.033C738.055,69.599,740.795,67.844,743.382,67.875z"/>
	</g>
	<line fill="none" stroke="#000000" stroke-width="0.459" x1="780.6" y1="70.25" x2="780.6" y2="40.95"/>
	<g enable-background="new    ">
		<path d="M778.198,67.875c2.617,0.03,4.064,1.815,3.233,4.002c-0.801,2.217-3.572,3.974-6.159,3.941
			c-2.586-0.029-4.034-1.848-3.203-4.033C772.87,69.599,775.612,67.844,778.198,67.875z"/>
	</g>
	<line fill="none" stroke="#000000" stroke-width="0.459" x1="815.4" y1="70.25" x2="815.4" y2="40.95"/>
	<g enable-background="new    ">
		<path d="M813.015,67.875c2.617,0.03,4.063,1.815,3.232,4.002c-0.801,2.217-3.571,3.974-6.158,3.941
			c-2.586-0.029-4.034-1.848-3.203-4.033C807.688,69.599,810.428,67.844,813.015,67.875z"/>
	</g>
	<line fill="none" stroke="#000000" stroke-width="0.459" x1="859.699" y1="70.25" x2="859.699" y2="40.95"/>
	<g enable-background="new    ">
		<path d="M857.359,67.875c2.617,0.03,4.064,1.815,3.233,4.002c-0.802,2.217-3.572,3.974-6.159,3.941
			c-2.586-0.029-4.034-1.848-3.203-4.033C852.031,69.599,854.773,67.844,857.359,67.875z"/>
	</g>
	<line fill="none" stroke="#000000" stroke-width="0.459" x1="892.699" y1="70.25" x2="892.699" y2="40.95"/>
	<g enable-background="new    ">
		<path d="M890.344,67.875c2.617,0.03,4.063,1.815,3.232,4.002c-0.801,2.217-3.571,3.974-6.158,3.941
			c-2.587-0.029-4.034-1.848-3.203-4.033C885.017,69.599,887.757,67.844,890.344,67.875z"/>
	</g>
	<g enable-background="new    ">
		<path d="M922.961,67.875c2.616,0.03,4.063,1.815,3.232,4.002c-0.801,2.217-3.572,3.974-6.159,3.941
			c-2.586-0.029-4.034-1.848-3.203-4.033C917.634,69.599,920.375,67.844,922.961,67.875z"/>
	</g>
	<line fill="none" stroke="#000000" stroke-width="0.459" x1="925.3" y1="70.25" x2="925.3" y2="43.15"/>
	<g enable-background="new    ">
		<path d="M943.484,67.875c2.617,0.03,4.064,1.815,3.233,4.002c-0.802,2.217-3.572,3.974-6.159,3.941
			c-2.586-0.029-4.034-1.848-3.203-4.033C938.156,69.599,940.898,67.844,943.484,67.875z"/>
	</g>
	<line fill="none" stroke="#000000" stroke-width="0.459" x1="945.9" y1="70.25" x2="945.9" y2="43.15"/>
	<path d="M924.9,40.95h21.4v4.4h-21.4V40.95z"/>
	<line fill="none" stroke="#000000" stroke-width="0.459" x1="966" y1="70.25" x2="966" y2="40.95"/>
	<g enable-background="new    ">
		<path d="M963.641,67.875c2.617,0.03,4.063,1.815,3.232,4.002c-0.801,2.217-3.571,3.974-6.158,3.941
			c-2.586-0.029-4.034-1.848-3.203-4.033C958.313,69.599,961.054,67.844,963.641,67.875z"/>
	</g>
	<line fill="none" stroke="#000000" stroke-width="0.459" x1="1008.5" y1="70.25" x2="1008.5" y2="40.95"/>
	<g enable-background="new    ">
		<path d="M1006.154,67.875c2.617,0.03,4.064,1.815,3.233,4.002c-0.801,2.217-3.572,3.974-6.159,3.941
			c-2.586-0.029-4.034-1.848-3.203-4.033C1000.826,69.599,1003.568,67.844,1006.154,67.875z"/>
	</g>
	<line fill="none" stroke="#000000" stroke-width="0.459" x1="1043.3" y1="70.25" x2="1043.3" y2="40.95"/>
	<g enable-background="new    ">
		<path d="M1040.97,67.875c2.616,0.03,4.063,1.815,3.232,4.002c-0.801,2.217-3.571,3.974-6.159,3.941
			c-2.586-0.029-4.033-1.848-3.202-4.033C1035.643,69.599,1038.383,67.844,1040.97,67.875z"/>
	</g>
	<line fill="none" stroke="#000000" stroke-width="0.459" x1="1078.199" y1="70.25" x2="1078.199" y2="40.95"/>
	<g enable-background="new    ">
		<path d="M1075.785,67.875c2.617,0.03,4.064,1.815,3.233,4.002c-0.801,2.217-3.572,3.974-6.159,3.941
			c-2.586-0.029-4.034-1.848-3.203-4.033C1070.459,69.599,1073.199,67.844,1075.785,67.875z"/>
	</g>
	<line fill="none" stroke="#000000" stroke-width="0.459" x1="1113" y1="70.25" x2="1113" y2="40.95"/>
	<g enable-background="new    ">
		<path d="M1110.603,67.875c2.617,0.03,4.063,1.815,3.233,4.002c-0.802,2.217-3.572,3.974-6.159,3.941
			c-2.586-0.029-4.034-1.848-3.203-4.033C1105.275,69.599,1108.016,67.844,1110.603,67.875z"/>
	</g>
	<line fill="none" stroke="#000000" stroke-width="0.459" x1="1157.3" y1="70.25" x2="1157.3" y2="40.95"/>
	<g enable-background="new    ">
		<path d="M1154.947,67.875c2.617,0.03,4.064,1.815,3.233,4.002c-0.801,2.217-3.572,3.974-6.159,3.941
			c-2.586-0.029-4.034-1.848-3.203-4.033C1149.619,69.599,1152.361,67.844,1154.947,67.875z"/>
	</g>
	<line fill="none" stroke="#000000" stroke-width="0.459" x1="1190.3" y1="70.25" x2="1190.3" y2="40.95"/>
	<g enable-background="new    ">
		<path d="M1187.931,67.875c2.617,0.03,4.063,1.815,3.233,4.002c-0.802,2.217-3.572,3.974-6.159,3.941
			c-2.587-0.029-4.034-1.848-3.203-4.033C1182.604,69.599,1185.344,67.844,1187.931,67.875z"/>
	</g>
	<g enable-background="new    ">
		<path d="M1220.549,67.875c2.616,0.03,4.063,1.815,3.232,4.002c-0.801,2.217-3.572,3.974-6.159,3.941
			c-2.586-0.029-4.034-1.848-3.202-4.033C1215.222,69.599,1217.962,67.844,1220.549,67.875z"/>
	</g>
	<line fill="none" stroke="#000000" stroke-width="0.459" x1="1222.9" y1="70.25" x2="1222.9" y2="43.15"/>
	<g enable-background="new    ">
		<path d="M1241.071,67.875c2.617,0.03,4.064,1.815,3.233,4.002c-0.801,2.217-3.572,3.974-6.159,3.941
			c-2.586-0.029-4.034-1.848-3.203-4.033C1235.743,69.599,1238.485,67.844,1241.071,67.875z"/>
	</g>
	<line fill="none" stroke="#000000" stroke-width="0.459" x1="1243.4" y1="70.25" x2="1243.4" y2="43.15"/>
	<path d="M1222.5,40.95h21.399v4.4H1222.5V40.95z"/>
	<line fill="none" stroke="#000000" stroke-width="0.459" x1="1263.6" y1="70.25" x2="1263.6" y2="40.95"/>
	<g enable-background="new    ">
		<path d="M1261.229,67.875c2.617,0.03,4.064,1.815,3.233,4.002c-0.802,2.217-3.572,3.974-6.159,3.941
			c-2.586-0.029-4.034-1.848-3.203-4.033C1255.901,69.599,1258.642,67.844,1261.229,67.875z"/>
	</g>
	<line fill="none" stroke="#000000" stroke-width="0.459" x1="1307.6" y1="70.25" x2="1307.6" y2="40.95"/>
	<g enable-background="new    ">
		<path d="M1305.207,67.875c2.617,0.03,4.064,1.815,3.233,4.002c-0.801,2.217-3.572,3.974-6.159,3.941
			c-2.586-0.029-4.034-1.848-3.203-4.033C1299.881,69.599,1302.621,67.844,1305.207,67.875z"/>
	</g>
	<line fill="none" stroke="#000000" stroke-width="0.459" x1="1341.699" y1="70.25" x2="1341.699" y2="40.95"/>
	<g enable-background="new    ">
		<path d="M1339.291,67.875c2.616,0.03,4.063,1.815,3.232,4.002c-0.801,2.217-3.572,3.974-6.159,3.941
			c-2.586-0.029-4.034-1.848-3.203-4.033C1333.963,69.599,1336.703,67.844,1339.291,67.875z"/>
	</g>
	<line fill="none" stroke="#000000" stroke-width="0.459" x1="1362.5" y1="70.25" x2="1362.5" y2="40.95"/>
	<g enable-background="new    ">
		<path d="M1360.181,67.875c2.617,0.03,4.063,1.815,3.233,4.002c-0.802,2.217-3.572,3.974-6.159,3.941
			c-2.587-0.029-4.034-1.848-3.203-4.033C1354.854,69.599,1357.595,67.844,1360.181,67.875z"/>
	</g>
	<line fill="none" stroke="#000000" stroke-width="0.459" x1="1425.9" y1="70.25" x2="1425.9" y2="40.95"/>
	<g enable-background="new    ">
		<path d="M1423.582,67.875c2.617,0.03,4.064,1.815,3.233,4.002c-0.801,2.217-3.572,3.974-6.159,3.941
			c-2.586-0.029-4.034-1.848-3.203-4.033C1418.256,69.599,1420.996,67.844,1423.582,67.875z"/>
	</g>
	<line fill="none" stroke="#000000" stroke-width="0.459" x1="1456.4" y1="70.25" x2="1456.4" y2="40.95"/>
	<g enable-background="new    ">
		<path d="M1454,67.875c2.617,0.03,4.064,1.815,3.233,4.002c-0.801,2.217-3.572,3.974-6.159,3.941
			c-2.586-0.029-4.034-1.848-3.203-4.033C1448.674,69.599,1451.414,67.844,1454,67.875z"/>
	</g>
	<line fill="none" stroke="#000000" stroke-width="0.459" x1="1490.5" y1="70.25" x2="1490.5" y2="40.95"/>
	<g enable-background="new    ">
		<path d="M1488.084,67.875c2.617,0.03,4.064,1.815,3.233,4.002c-0.801,2.217-3.572,3.974-6.159,3.941
			c-2.586-0.029-4.034-1.848-3.203-4.033C1482.758,69.599,1485.498,67.844,1488.084,67.875z"/>
	</g>
	<g enable-background="new    ">
		<path d="M1508.974,67.875c2.617,0.03,4.063,1.815,3.233,4.002c-0.802,2.217-3.572,3.974-6.159,3.941
			c-2.587-0.029-4.034-1.848-3.203-4.033C1503.647,69.599,1506.388,67.844,1508.974,67.875z"/>
	</g>
	<line fill="none" stroke="#000000" stroke-width="0.459" x1="1511.3" y1="70.25" x2="1511.3" y2="43.15"/>
	<g enable-background="new    ">
		<path d="M1540.493,67.875c2.617,0.03,4.064,1.815,3.233,4.002c-0.801,2.217-3.572,3.974-6.159,3.941
			c-2.586-0.029-4.034-1.848-3.203-4.033C1535.166,69.599,1537.906,67.844,1540.493,67.875z"/>
	</g>
	<line fill="none" stroke="#000000" stroke-width="0.459" x1="1542.9" y1="70.25" x2="1542.9" y2="43.15"/>
	<path d="M1510.9,40.95h32.399v4.4H1510.9V40.95z"/>
	<line fill="none" stroke="#000000" stroke-width="0.459" x1="1574.699" y1="70.25" x2="1574.699" y2="40.95"/>
	<g enable-background="new    ">
		<path d="M1572.375,67.875c2.617,0.03,4.064,1.815,3.233,4.002c-0.801,2.217-3.572,3.974-6.159,3.941
			c-2.586-0.029-4.034-1.848-3.203-4.033C1567.049,69.599,1569.789,67.844,1572.375,67.875z"/>
	</g>
	<line fill="none" stroke="#000000" stroke-width="0.459" x1="1605.199" y1="70.25" x2="1605.199" y2="40.95"/>
	<g enable-background="new    ">
		<path d="M1602.796,67.875c2.616,0.03,4.063,1.815,3.232,4.002c-0.801,2.217-3.571,3.974-6.159,3.941
			c-2.586-0.029-4.033-1.848-3.203-4.033C1597.469,69.599,1600.209,67.844,1602.796,67.875z"/>
	</g>
	<line fill="none" stroke="#000000" stroke-width="0.459" x1="1639.199" y1="70.25" x2="1639.199" y2="40.95"/>
	<g enable-background="new    ">
		<path d="M1636.878,67.875c2.616,0.03,4.063,1.815,3.232,4.002c-0.801,2.217-3.571,3.974-6.159,3.941
			c-2.586-0.029-4.033-1.848-3.203-4.033C1631.551,69.599,1634.291,67.844,1636.878,67.875z"/>
	</g>
	<line fill="none" stroke="#000000" stroke-width="0.459" x1="1660.1" y1="70.25" x2="1660.1" y2="40.95"/>
	<g enable-background="new    ">
		<path d="M1657.769,67.875c2.617,0.03,4.063,1.815,3.233,4.002c-0.802,2.217-3.572,3.974-6.159,3.941
			c-2.586-0.029-4.034-1.848-3.203-4.033C1652.442,69.599,1655.183,67.844,1657.769,67.875z"/>
	</g>
	<line fill="none" stroke="#000000" stroke-width="0.459" x1="1723.5" y1="70.25" x2="1723.5" y2="40.95"/>
	<g enable-background="new    ">
		<path d="M1721.171,67.875c2.616,0.03,4.063,1.815,3.232,4.002c-0.801,2.217-3.571,3.974-6.159,3.941
			c-2.586-0.029-4.033-1.848-3.203-4.033C1715.844,69.599,1718.584,67.844,1721.171,67.875z"/>
	</g>
	<line fill="none" stroke="#000000" stroke-width="0.459" x1="1754" y1="70.25" x2="1754" y2="40.95"/>
	<g enable-background="new    ">
		<path d="M1751.589,67.875c2.616,0.03,4.063,1.815,3.232,4.002c-0.801,2.217-3.571,3.974-6.159,3.941
			c-2.586-0.029-4.033-1.848-3.203-4.033C1746.262,69.599,1749.003,67.844,1751.589,67.875z"/>
	</g>
	<line fill="none" stroke="#000000" stroke-width="0.459" x1="1788" y1="70.25" x2="1788" y2="40.95"/>
	<g enable-background="new    ">
		<path d="M1785.673,67.875c2.616,0.03,4.063,1.815,3.232,4.002c-0.801,2.217-3.571,3.974-6.159,3.941
			c-2.586-0.029-4.033-1.848-3.203-4.033C1780.346,69.599,1783.087,67.844,1785.673,67.875z"/>
	</g>
	<g enable-background="new    ">
		<path d="M1806.562,67.875c2.617,0.03,4.063,1.815,3.233,4.002c-0.802,2.217-3.572,3.974-6.159,3.941
			c-2.586-0.029-4.034-1.848-3.203-4.033C1801.235,69.599,1803.976,67.844,1806.562,67.875z"/>
	</g>
	<line fill="none" stroke="#000000" stroke-width="0.459" x1="1808.901" y1="70.25" x2="1808.901" y2="43.15"/>
	<g enable-background="new    ">
		<path d="M1838.082,67.875c2.616,0.03,4.063,1.815,3.232,4.002c-0.801,2.217-3.572,3.974-6.159,3.941
			c-2.586-0.029-4.034-1.848-3.203-4.033C1832.754,69.599,1835.494,67.844,1838.082,67.875z"/>
	</g>
	<line fill="none" stroke="#000000" stroke-width="0.459" x1="1840.401" y1="70.25" x2="1840.401" y2="43.15"/>
	<path d="M1808.5,40.95h32.399v4.4H1808.5V40.95z"/>
	<line fill="none" stroke="#000000" stroke-width="0.459" x1="1872.299" y1="70.25" x2="1872.299" y2="40.95"/>
	<g enable-background="new    ">
		<path d="M1869.966,67.875c2.616,0.03,4.063,1.815,3.232,4.002c-0.801,2.217-3.571,3.974-6.159,3.941
			c-2.586-0.029-4.033-1.848-3.203-4.033C1864.639,69.599,1867.38,67.844,1869.966,67.875z"/>
	</g>
	<line fill="none" stroke="#000000" stroke-width="0.459" x1="1902.699" y1="70.25" x2="1902.699" y2="40.95"/>
	<g enable-background="new    ">
		<path d="M1900.384,67.875c2.616,0.03,4.063,1.815,3.232,4.002c-0.801,2.217-3.571,3.974-6.159,3.941
			c-2.586-0.029-4.033-1.848-3.202-4.033C1895.057,69.599,1897.798,67.844,1900.384,67.875z"/>
	</g>
	<line fill="none" stroke="#000000" stroke-width="0.459" x1="1936.799" y1="70.25" x2="1936.799" y2="40.95"/>
	<g enable-background="new    ">
		<path d="M1934.466,67.875c2.616,0.03,4.063,1.815,3.232,4.002c-0.801,2.217-3.571,3.974-6.159,3.941
			c-2.586-0.029-4.033-1.848-3.203-4.033C1929.139,69.599,1931.88,67.844,1934.466,67.875z"/>
	</g>
	<line fill="none" stroke="#000000" stroke-width="0.459" x1="1957.699" y1="70.25" x2="1957.699" y2="40.95"/>
	<g enable-background="new    ">
		<path d="M1955.357,67.875c2.617,0.03,4.064,1.815,3.233,4.002c-0.801,2.217-3.572,3.974-6.159,3.941
			c-2.586-0.029-4.034-1.848-3.203-4.033C1950.03,69.599,1952.771,67.844,1955.357,67.875z"/>
	</g>
	<line fill="none" stroke="#000000" stroke-width="0.459" x1="2021.1" y1="70.25" x2="2021.1" y2="40.95"/>
	<g enable-background="new    ">
		<path d="M2018.759,67.875c2.616,0.03,4.063,1.815,3.232,4.002c-0.801,2.217-3.571,3.974-6.159,3.941
			c-2.586-0.029-4.033-1.848-3.202-4.033C2013.432,69.599,2016.173,67.844,2018.759,67.875z"/>
	</g>
	<line fill="none" stroke="#000000" stroke-width="0.459" x1="2051.5" y1="70.25" x2="2051.5" y2="40.95"/>
	<g enable-background="new    ">
		<path d="M2049.177,67.875c2.616,0.03,4.063,1.815,3.232,4.002c-0.801,2.217-3.571,3.974-6.159,3.941
			c-2.586-0.029-4.033-1.848-3.203-4.033C2043.85,69.599,2046.591,67.844,2049.177,67.875z"/>
	</g>
	<line fill="none" stroke="#000000" stroke-width="0.459" x1="2085.6" y1="70.25" x2="2085.6" y2="40.95"/>
	<g enable-background="new    ">
		<path d="M2083.261,67.875c2.616,0.03,4.063,1.815,3.232,4.002c-0.801,2.217-3.571,3.974-6.159,3.941
			c-2.586-0.029-4.033-1.848-3.202-4.033C2077.934,69.599,2080.675,67.844,2083.261,67.875z"/>
	</g>
	<g enable-background="new    ">
		<path d="M2104.15,67.875c2.617,0.03,4.063,1.815,3.233,4.002c-0.802,2.217-3.572,3.974-6.159,3.941
			c-2.586-0.029-4.034-1.848-3.203-4.033C2098.823,69.599,2101.563,67.844,2104.15,67.875z"/>
	</g>
	<line fill="none" stroke="#000000" stroke-width="0.459" x1="2106.5" y1="70.25" x2="2106.5" y2="43.15"/>
	<g enable-background="new    ">
		<path d="M2135.668,67.875c2.617,0.03,4.064,1.815,3.233,4.002c-0.801,2.217-3.572,3.974-6.159,3.941
			c-2.586-0.029-4.033-1.848-3.203-4.033C2130.342,69.599,2133.082,67.844,2135.668,67.875z"/>
	</g>
	<line fill="none" stroke="#000000" stroke-width="0.459" x1="2138" y1="70.25" x2="2138" y2="43.15"/>
	<path d="M2106.1,40.95h32.4v4.4h-32.4V40.95z"/>
	<line fill="none" stroke="#000000" stroke-width="0.459" x1="2169.901" y1="70.25" x2="2169.901" y2="40.95"/>
	<g enable-background="new    ">
		<path d="M2167.552,67.875c2.616,0.03,4.063,1.815,3.232,4.002c-0.801,2.217-3.571,3.974-6.159,3.941
			c-2.586-0.029-4.033-1.848-3.202-4.033C2162.225,69.599,2164.966,67.844,2167.552,67.875z"/>
	</g>
	<line fill="none" stroke="#000000" stroke-width="0.459" x1="2200.299" y1="70.25" x2="2200.299" y2="40.95"/>
	<g enable-background="new    ">
		<path d="M2197.972,67.875c2.616,0.03,4.063,1.815,3.232,4.002c-0.801,2.217-3.571,3.974-6.159,3.941
			c-2.586-0.029-4.033-1.848-3.202-4.033C2192.645,69.599,2195.386,67.844,2197.972,67.875z"/>
	</g>
	<line fill="none" stroke="#000000" stroke-width="0.459" x1="2234.401" y1="70.25" x2="2234.401" y2="40.95"/>
	<g enable-background="new    ">
		<path d="M2232.056,67.875c2.616,0.03,4.063,1.815,3.232,4.002c-0.801,2.217-3.571,3.974-6.159,3.941
			c-2.586-0.029-4.033-1.848-3.202-4.033C2226.729,69.599,2229.47,67.844,2232.056,67.875z"/>
	</g>
	<line fill="none" stroke="#000000" stroke-width="0.459" x1="2255.299" y1="70.25" x2="2255.299" y2="40.95"/>
	<g enable-background="new    ">
		<path d="M2252.945,67.875c2.617,0.03,4.064,1.815,3.233,4.002c-0.801,2.217-3.572,3.974-6.159,3.941
			c-2.586-0.029-4.034-1.848-3.203-4.033C2247.617,69.599,2250.358,67.844,2252.945,67.875z"/>
	</g>
	<line fill="none" stroke="#000000" stroke-width="0.459" x1="2318.699" y1="70.25" x2="2318.699" y2="40.95"/>
	<g enable-background="new    ">
		<path d="M2316.347,67.875c2.616,0.03,4.063,1.815,3.232,4.002c-0.801,2.217-3.571,3.974-6.157,3.941
			c-2.588-0.029-4.034-1.848-3.203-4.033C2311.02,69.599,2313.76,67.844,2316.347,67.875z"/>
	</g>
	<line fill="none" stroke="#000000" stroke-width="0.459" x1="2349.1" y1="70.25" x2="2349.1" y2="40.95"/>
	<g enable-background="new    ">
		<path d="M2346.765,67.875c2.616,0.03,4.063,1.815,3.232,4.002c-0.801,2.217-3.571,3.974-6.157,3.941
			c-2.588-0.029-4.034-1.848-3.203-4.033C2341.438,69.599,2344.178,67.844,2346.765,67.875z"/>
	</g>
	<line fill="none" stroke="#000000" stroke-width="0.459" x1="2383.199" y1="70.25" x2="2383.199" y2="40.95"/>
	<g enable-background="new    ">
		<path d="M2380.849,67.875c2.617,0.03,4.063,1.815,3.233,4.002c-0.802,2.217-3.572,3.974-6.158,3.941
			c-2.587-0.029-4.034-1.848-3.203-4.033C2375.522,69.599,2378.262,67.844,2380.849,67.875z"/>
	</g>
	<g enable-background="new    ">
		<path d="M2401.74,67.875c2.617,0.03,4.064,1.815,3.233,4.002c-0.801,2.217-3.572,3.974-6.158,3.941
			c-2.587-0.029-4.034-1.848-3.203-4.033C2396.412,69.599,2399.153,67.844,2401.74,67.875z"/>
	</g>
	<line fill="none" stroke="#000000" stroke-width="0.459" x1="2404.1" y1="70.25" x2="2404.1" y2="43.15"/>
	<g enable-background="new    ">
		<path d="M2433.256,67.875c2.617,0.03,4.063,1.815,3.232,4.002c-0.801,2.217-3.572,3.974-6.158,3.941
			c-2.586-0.029-4.033-1.848-3.202-4.033C2427.929,69.599,2430.67,67.844,2433.256,67.875z"/>
	</g>
	<line fill="none" stroke="#000000" stroke-width="0.459" x1="2435.6" y1="70.25" x2="2435.6" y2="43.15"/>
	<path d="M2403.699,40.95h32.4v4.4h-32.4V40.95z"/>
	<line fill="none" stroke="#000000" stroke-width="0.459" x1="2467.5" y1="70.25" x2="2467.5" y2="40.95"/>
	<g enable-background="new    ">
		<path d="M2465.141,67.875c2.617,0.03,4.064,1.815,3.232,4.002c-0.801,2.217-3.571,3.974-6.158,3.941
			c-2.586-0.029-4.033-1.848-3.202-4.033C2459.814,69.599,2462.555,67.844,2465.141,67.875z"/>
	</g>
	<line fill="none" stroke="#000000" stroke-width="0.459" x1="2496.5" y1="70.25" x2="2496.5" y2="40.95"/>
	<g enable-background="new    ">
		<path d="M2494.093,67.875c2.616,0.03,4.063,1.815,3.232,4.002c-0.801,2.217-3.571,3.974-6.157,3.941
			c-2.588-0.029-4.034-1.848-3.203-4.033C2488.766,69.599,2491.506,67.844,2494.093,67.875z"/>
	</g>
	<line fill="none" stroke="#000000" stroke-width="0.459" x1="2531.299" y1="70.25" x2="2531.299" y2="40.95"/>
	<g enable-background="new    ">
		<path d="M2528.912,67.875c2.616,0.03,4.063,1.815,3.232,4.002c-0.801,2.217-3.572,3.974-6.158,3.941
			c-2.587-0.029-4.033-1.848-3.203-4.033C2523.584,69.599,2526.324,67.844,2528.912,67.875z"/>
	</g>
	<line fill="none" stroke="#000000" stroke-width="0.459" x1="2566.1" y1="70.25" x2="2566.1" y2="40.95"/>
	<g enable-background="new    ">
		<path d="M2563.726,67.875c2.617,0.03,4.063,1.815,3.233,4.002c-0.802,2.217-3.572,3.974-6.158,3.941
			c-2.587-0.029-4.034-1.848-3.203-4.033C2558.399,69.599,2561.139,67.844,2563.726,67.875z"/>
	</g>
	<line fill="none" stroke="#000000" stroke-width="0.459" x1="2600.901" y1="70.25" x2="2600.901" y2="40.95"/>
	<g enable-background="new    ">
		<path d="M2598.541,67.875c2.617,0.03,4.064,1.815,3.233,4.002c-0.801,2.217-3.572,3.974-6.158,3.941
			c-2.587-0.029-4.034-1.848-3.202-4.033C2593.215,69.599,2595.955,67.844,2598.541,67.875z"/>
	</g>
	<line fill="none" stroke="#000000" stroke-width="0.459" x1="2645.299" y1="70.25" x2="2645.299" y2="40.95"/>
	<g enable-background="new    ">
		<path d="M2642.887,67.875c2.617,0.03,4.063,1.815,3.232,4.002c-0.801,2.217-3.572,3.974-6.158,3.941
			c-2.586-0.029-4.033-1.848-3.202-4.033C2637.56,69.599,2640.301,67.844,2642.887,67.875z"/>
	</g>
	<line fill="none" stroke="#000000" stroke-width="0.459" x1="2678.199" y1="70.25" x2="2678.199" y2="40.95"/>
	<g enable-background="new    ">
		<path d="M2675.871,67.875c2.616,0.03,4.063,1.815,3.232,4.002c-0.801,2.217-3.572,3.974-6.158,3.941
			c-2.587-0.029-4.033-1.848-3.203-4.033C2670.543,69.599,2673.283,67.844,2675.871,67.875z"/>
	</g>
	<g enable-background="new    ">
		<path d="M2708.49,67.875c2.617,0.03,4.064,1.815,3.233,4.002c-0.801,2.217-3.572,3.974-6.158,3.941
			c-2.587-0.029-4.034-1.848-3.203-4.033C2703.162,69.599,2705.903,67.844,2708.49,67.875z"/>
	</g>
	<line fill="none" stroke="#000000" stroke-width="0.459" x1="2710.901" y1="70.25" x2="2710.901" y2="43.15"/>
	<g enable-background="new    ">
		<path d="M2729.011,67.875c2.616,0.03,4.063,1.815,3.232,4.002c-0.801,2.217-3.571,3.974-6.157,3.941
			c-2.588-0.029-4.034-1.848-3.203-4.033C2723.684,69.599,2726.424,67.844,2729.011,67.875z"/>
	</g>
	<line fill="none" stroke="#000000" stroke-width="0.459" x1="2731.401" y1="70.25" x2="2731.401" y2="43.15"/>
	<path d="M2710.401,40.95h21.398v4.4h-21.398V40.95z"/>
	<line fill="none" stroke="#000000" stroke-width="0.459" x1="2751.5" y1="70.25" x2="2751.5" y2="40.95"/>
	<g enable-background="new    ">
		<path d="M2749.168,67.875c2.617,0.03,4.064,1.815,3.233,4.002c-0.801,2.217-3.572,3.974-6.158,3.941
			c-2.587-0.029-4.034-1.848-3.202-4.033C2743.842,69.599,2746.582,67.844,2749.168,67.875z"/>
	</g>
	<line fill="none" stroke="#000000" stroke-width="0.459" x1="2795.5" y1="70.25" x2="2795.5" y2="40.95"/>
	<g enable-background="new    ">
		<path d="M2793.148,67.875c2.617,0.03,4.063,1.815,3.233,4.002c-0.802,2.217-3.572,3.974-6.158,3.941
			c-2.587-0.029-4.034-1.848-3.203-4.033C2787.821,69.599,2790.561,67.844,2793.148,67.875z"/>
	</g>
	<line fill="none" stroke="#000000" stroke-width="0.459" x1="2829.6" y1="70.25" x2="2829.6" y2="40.95"/>
	<g enable-background="new    ">
		<path d="M2827.231,67.875c2.617,0.03,4.064,1.815,3.232,4.002c-0.801,2.217-3.571,3.974-6.158,3.941
			c-2.586-0.029-4.033-1.848-3.202-4.033C2821.904,69.599,2824.645,67.844,2827.231,67.875z"/>
	</g>
	<line fill="none" stroke="#000000" stroke-width="0.459" x1="2850.5" y1="70.25" x2="2850.5" y2="40.95"/>
	<g enable-background="new    ">
		<path d="M2848.121,67.875c2.616,0.03,4.063,1.815,3.232,4.002c-0.801,2.217-3.572,3.974-6.158,3.941
			c-2.587-0.029-4.033-1.848-3.203-4.033C2842.793,69.599,2845.533,67.844,2848.121,67.875z"/>
	</g>
	<line fill="none" stroke="#000000" stroke-width="0.459" x1="2913.901" y1="70.25" x2="2913.901" y2="40.95"/>
	<g enable-background="new    ">
		<path d="M2911.523,67.875c2.617,0.03,4.063,1.815,3.233,4.002c-0.802,2.217-3.572,3.974-6.158,3.941
			c-2.587-0.029-4.034-1.848-3.203-4.033C2906.196,69.599,2908.936,67.844,2911.523,67.875z"/>
	</g>
	<line fill="none" stroke="#000000" stroke-width="0.459" x1="2944.299" y1="70.25" x2="2944.299" y2="40.95"/>
	<g enable-background="new    ">
		<path d="M2941.941,67.875c2.617,0.03,4.063,1.815,3.233,4.002c-0.802,2.217-3.572,3.974-6.158,3.941
			c-2.587-0.029-4.034-1.848-3.203-4.033C2936.614,69.599,2939.354,67.844,2941.941,67.875z"/>
	</g>
	<line fill="none" stroke="#000000" stroke-width="0.459" x1="2978.401" y1="70.25" x2="2978.401" y2="40.95"/>
	<g enable-background="new    ">
		<path d="M2976.025,67.875c2.617,0.03,4.063,1.815,3.233,4.002c-0.802,2.217-3.572,3.974-6.158,3.941
			c-2.587-0.029-4.034-1.848-3.203-4.033C2970.698,69.599,2973.438,67.844,2976.025,67.875z"/>
	</g>
	<g enable-background="new    ">
		<path d="M2996.916,67.875c2.616,0.03,4.063,1.815,3.232,4.002c-0.801,2.217-3.572,3.974-6.158,3.941
			c-2.587-0.029-4.033-1.848-3.203-4.033C2991.588,69.599,2994.328,67.844,2996.916,67.875z"/>
	</g>
	<line fill="none" stroke="#000000" stroke-width="0.459" x1="2999.299" y1="70.25" x2="2999.299" y2="43.15"/>
	<g enable-background="new    ">
		<path d="M3028.433,67.875c2.617,0.03,4.063,1.815,3.233,4.002c-0.802,2.217-3.572,3.974-6.158,3.941
			c-2.587-0.029-4.034-1.848-3.203-4.033C3023.106,69.599,3025.846,67.844,3028.433,67.875z"/>
	</g>
	<line fill="none" stroke="#000000" stroke-width="0.459" x1="3030.799" y1="70.25" x2="3030.799" y2="43.15"/>
	<path d="M2998.901,40.95h32.398v4.4h-32.398V40.95z"/>
	<line fill="none" stroke="#000000" stroke-width="0.459" x1="3062.699" y1="70.25" x2="3062.699" y2="40.95"/>
	<g enable-background="new    ">
		<path d="M3060.318,67.875c2.617,0.03,4.064,1.815,3.233,4.002c-0.801,2.217-3.572,3.974-6.158,3.941
			c-2.587-0.029-4.034-1.848-3.203-4.033C3054.99,69.599,3057.731,67.844,3060.318,67.875z"/>
	</g>
	<line fill="none" stroke="#000000" stroke-width="0.459" x1="3093.1" y1="70.25" x2="3093.1" y2="40.95"/>
	<g enable-background="new    ">
		<path d="M3090.736,67.875c2.617,0.03,4.064,1.815,3.233,4.002c-0.801,2.217-3.572,3.974-6.158,3.941
			c-2.587-0.029-4.034-1.848-3.203-4.033C3085.408,69.599,3088.149,67.844,3090.736,67.875z"/>
	</g>
	<line fill="none" stroke="#000000" stroke-width="0.459" x1="3127.199" y1="70.25" x2="3127.199" y2="40.95"/>
	<g enable-background="new    ">
		<path d="M3124.818,67.875c2.617,0.03,4.064,1.815,3.233,4.002c-0.801,2.217-3.572,3.974-6.158,3.941
			c-2.587-0.029-4.034-1.848-3.203-4.033C3119.49,69.599,3122.231,67.844,3124.818,67.875z"/>
	</g>
	<line fill="none" stroke="#000000" stroke-width="0.459" x1="3148.1" y1="70.25" x2="3148.1" y2="40.95"/>
	<g enable-background="new    ">
		<path d="M3145.707,67.875c2.617,0.03,4.064,1.815,3.233,4.002c-0.801,2.217-3.572,3.974-6.158,3.941
			c-2.587-0.029-4.034-1.848-3.202-4.033C3140.381,69.599,3143.121,67.844,3145.707,67.875z"/>
	</g>
	<line fill="none" stroke="#000000" stroke-width="0.459" x1="3211.5" y1="70.25" x2="3211.5" y2="40.95"/>
	<g enable-background="new    ">
		<path d="M3209.111,67.875c2.617,0.03,4.064,1.815,3.233,4.002c-0.801,2.217-3.572,3.974-6.158,3.941
			c-2.587-0.029-4.034-1.848-3.203-4.033C3203.783,69.599,3206.524,67.844,3209.111,67.875z"/>
	</g>
	<line fill="none" stroke="#000000" stroke-width="0.459" x1="3241.901" y1="70.25" x2="3241.901" y2="40.95"/>
	<g enable-background="new    ">
		<path d="M3239.529,67.875c2.617,0.03,4.064,1.815,3.233,4.002c-0.801,2.217-3.572,3.974-6.158,3.941
			c-2.587-0.029-4.034-1.848-3.203-4.033C3234.201,69.599,3236.942,67.844,3239.529,67.875z"/>
	</g>
	<line fill="none" stroke="#000000" stroke-width="0.459" x1="3276" y1="70.25" x2="3276" y2="40.95"/>
	<g enable-background="new    ">
		<path d="M3273.613,67.875c2.617,0.03,4.064,1.815,3.233,4.002c-0.801,2.217-3.572,3.974-6.158,3.941
			c-2.587-0.029-4.034-1.848-3.203-4.033C3268.285,69.599,3271.026,67.844,3273.613,67.875z"/>
	</g>
	<g enable-background="new    ">
		<path d="M3294.502,67.875c2.616,0.03,4.063,1.815,3.232,4.002c-0.801,2.217-3.572,3.974-6.159,3.941
			c-2.586-0.029-4.032-1.848-3.202-4.033C3289.175,69.599,3291.916,67.844,3294.502,67.875z"/>
	</g>
	<line fill="none" stroke="#000000" stroke-width="0.459" x1="3296.901" y1="70.25" x2="3296.901" y2="43.15"/>
	<g enable-background="new    ">
		<path d="M3326.021,67.875c2.617,0.03,4.063,1.815,3.233,4.002c-0.802,2.217-3.572,3.974-6.158,3.941
			c-2.587-0.029-4.034-1.848-3.203-4.033C3320.694,69.599,3323.434,67.844,3326.021,67.875z"/>
	</g>
	<line fill="none" stroke="#000000" stroke-width="0.459" x1="3328.401" y1="70.25" x2="3328.401" y2="43.15"/>
	<path d="M3296.401,40.95h32.398v4.4h-32.398V40.95z"/>
	<line fill="none" stroke="#000000" stroke-width="0.459" x1="3360.299" y1="70.25" x2="3360.299" y2="40.95"/>
	<g enable-background="new    ">
		<path d="M3357.906,67.875c2.617,0.03,4.064,1.815,3.233,4.002c-0.801,2.217-3.572,3.974-6.158,3.941
			c-2.587-0.029-4.034-1.848-3.203-4.033C3352.578,69.599,3355.319,67.844,3357.906,67.875z"/>
	</g>
	<line fill="none" stroke="#000000" stroke-width="0.459" x1="3390.699" y1="70.25" x2="3390.699" y2="40.95"/>
	<g enable-background="new    ">
		<path d="M3388.323,67.875c2.617,0.03,4.064,1.815,3.233,4.002c-0.801,2.217-3.572,3.974-6.158,3.941
			c-2.587-0.029-4.034-1.848-3.203-4.033C3382.996,69.599,3385.737,67.844,3388.323,67.875z"/>
	</g>
	<line fill="none" stroke="#000000" stroke-width="0.459" x1="3424.799" y1="70.25" x2="3424.799" y2="40.95"/>
	<g enable-background="new    ">
		<path d="M3422.407,67.875c2.617,0.03,4.064,1.815,3.233,4.002c-0.801,2.217-3.572,3.974-6.158,3.941
			c-2.587-0.029-4.034-1.848-3.203-4.033C3417.08,69.599,3419.821,67.844,3422.407,67.875z"/>
	</g>
	<line fill="none" stroke="#000000" stroke-width="0.459" x1="3445.699" y1="70.25" x2="3445.699" y2="40.95"/>
	<g enable-background="new    ">
		<path d="M3443.295,67.875c2.617,0.03,4.064,1.815,3.233,4.002c-0.801,2.217-3.572,3.974-6.158,3.941
			c-2.587-0.029-4.034-1.848-3.202-4.033C3437.969,69.599,3440.709,67.844,3443.295,67.875z"/>
	</g>
	<line fill="none" stroke="#000000" stroke-width="0.459" x1="3509.1" y1="70.25" x2="3509.1" y2="40.95"/>
	<g enable-background="new    ">
		<path d="M3506.7,67.875c2.617,0.03,4.064,1.815,3.233,4.002c-0.801,2.217-3.572,3.974-6.158,3.941
			c-2.587-0.029-4.034-1.848-3.203-4.033C3501.373,69.599,3504.114,67.844,3506.7,67.875z"/>
	</g>
	<line fill="none" stroke="#000000" stroke-width="0.459" x1="3539.5" y1="70.25" x2="3539.5" y2="40.95"/>
	<g enable-background="new    ">
		<path d="M3537.118,67.875c2.617,0.03,4.064,1.815,3.233,4.002c-0.801,2.217-3.572,3.974-6.158,3.941
			c-2.587-0.029-4.034-1.848-3.203-4.033C3531.791,69.599,3534.531,67.844,3537.118,67.875z"/>
	</g>
	<line fill="none" stroke="#000000" stroke-width="0.459" x1="3573.6" y1="70.25" x2="3573.6" y2="40.95"/>
	<g enable-background="new    ">
		<path d="M3571.202,67.875c2.617,0.03,4.064,1.815,3.233,4.002c-0.801,2.217-3.572,3.974-6.158,3.941
			c-2.587-0.029-4.034-1.848-3.203-4.033C3565.875,69.599,3568.615,67.844,3571.202,67.875z"/>
	</g>
	<g enable-background="new    ">
		<path d="M3592.091,67.875c2.616,0.03,4.063,1.815,3.232,4.002c-0.801,2.217-3.571,3.974-6.157,3.941
			c-2.588-0.029-4.034-1.848-3.203-4.033C3586.764,69.599,3589.504,67.844,3592.091,67.875z"/>
	</g>
	<line fill="none" stroke="#000000" stroke-width="0.459" x1="3594.5" y1="70.25" x2="3594.5" y2="43.15"/>
	<g enable-background="new    ">
		<path d="M3623.609,67.875c2.617,0.03,4.063,1.815,3.233,4.002c-0.802,2.217-3.572,3.974-6.158,3.941
			c-2.587-0.029-4.034-1.848-3.203-4.033C3618.281,69.599,3621.022,67.844,3623.609,67.875z"/>
	</g>
	<line fill="none" stroke="#000000" stroke-width="0.459" x1="3626" y1="70.25" x2="3626" y2="43.15"/>
	<path d="M3594,40.95h32.399v4.4H3594V40.95z"/>
	<line fill="none" stroke="#000000" stroke-width="0.459" x1="3657.901" y1="70.25" x2="3657.901" y2="40.95"/>
	<g enable-background="new    ">
		<path d="M3655.493,67.875c2.617,0.03,4.064,1.815,3.233,4.002c-0.801,2.217-3.572,3.974-6.158,3.941
			c-2.587-0.029-4.034-1.848-3.203-4.033C3650.166,69.599,3652.906,67.844,3655.493,67.875z"/>
	</g>
	<line fill="none" stroke="#000000" stroke-width="0.459" x1="3688.299" y1="70.25" x2="3688.299" y2="40.95"/>
	<g enable-background="new    ">
		<path d="M3685.912,67.875c2.616,0.03,4.063,1.815,3.232,4.002c-0.801,2.217-3.572,3.974-6.158,3.941
			c-2.587-0.029-4.033-1.848-3.203-4.033C3680.584,69.599,3683.324,67.844,3685.912,67.875z"/>
	</g>
	<line fill="none" stroke="#000000" stroke-width="0.459" x1="3722.401" y1="70.25" x2="3722.401" y2="40.95"/>
	<g enable-background="new    ">
		<path d="M3719.994,67.875c2.617,0.03,4.064,1.815,3.233,4.002c-0.801,2.217-3.572,3.974-6.159,3.941
			c-2.586-0.029-4.033-1.848-3.201-4.033C3714.666,69.599,3717.408,67.844,3719.994,67.875z"/>
	</g>
	<line fill="none" stroke="#000000" stroke-width="0.459" x1="3743.199" y1="70.25" x2="3743.199" y2="40.95"/>
	<g enable-background="new    ">
		<path d="M3740.886,67.875c2.616,0.03,4.063,1.815,3.232,4.002c-0.801,2.217-3.571,3.974-6.157,3.941
			c-2.588-0.029-4.034-1.848-3.203-4.033C3735.559,69.599,3738.299,67.844,3740.886,67.875z"/>
	</g>
	<line fill="none" stroke="#000000" stroke-width="0.459" x1="3806.699" y1="70.25" x2="3806.699" y2="40.95"/>
	<g enable-background="new    ">
		<path d="M3804.287,67.875c2.617,0.03,4.064,1.815,3.233,4.002c-0.801,2.217-3.572,3.974-6.159,3.941
			c-2.586-0.029-4.033-1.848-3.201-4.033C3798.959,69.599,3801.701,67.844,3804.287,67.875z"/>
	</g>
	<line fill="none" stroke="#000000" stroke-width="0.459" x1="3837.1" y1="70.25" x2="3837.1" y2="40.95"/>
	<g enable-background="new    ">
		<path d="M3834.707,67.875c2.616,0.03,4.063,1.815,3.232,4.002c-0.801,2.217-3.572,3.974-6.158,3.941
			c-2.587-0.029-4.033-1.848-3.203-4.033C3829.379,69.599,3832.119,67.844,3834.707,67.875z"/>
	</g>
	<line fill="none" stroke="#000000" stroke-width="0.459" x1="3871.199" y1="70.25" x2="3871.199" y2="40.95"/>
	<g enable-background="new    ">
		<path d="M3868.789,67.875c2.616,0.03,4.063,1.815,3.232,4.002c-0.801,2.217-3.572,3.974-6.158,3.941
			c-2.587-0.029-4.033-1.848-3.203-4.033C3863.461,69.599,3866.201,67.844,3868.789,67.875z"/>
	</g>
	<g enable-background="new    ">
		<path d="M3889.678,67.875c2.617,0.03,4.063,1.815,3.232,4.002c-0.801,2.217-3.572,3.974-6.158,3.941
			c-2.586-0.029-4.033-1.848-3.202-4.033C3884.351,69.599,3887.092,67.844,3889.678,67.875z"/>
	</g>
	<line fill="none" stroke="#000000" stroke-width="0.459" x1="3892" y1="70.25" x2="3892" y2="43.15"/>
	<g enable-background="new    ">
		<path d="M3921.197,67.875c2.617,0.03,4.064,1.815,3.233,4.002c-0.801,2.217-3.572,3.974-6.158,3.941
			c-2.587-0.029-4.034-1.848-3.203-4.033C3915.869,69.599,3918.61,67.844,3921.197,67.875z"/>
	</g>
	<line fill="none" stroke="#000000" stroke-width="0.459" x1="3923.6" y1="70.25" x2="3923.6" y2="43.15"/>
	<path d="M3891.6,40.95h32.4v4.4h-32.4V40.95z"/>
	<line fill="none" stroke="#000000" stroke-width="0.459" x1="3955.401" y1="70.25" x2="3955.401" y2="40.95"/>
	<g enable-background="new    ">
		<path d="M3953.082,67.875c2.616,0.03,4.063,1.815,3.232,4.002c-0.801,2.217-3.572,3.974-6.158,3.941
			c-2.587-0.029-4.033-1.848-3.203-4.033C3947.754,69.599,3950.494,67.844,3953.082,67.875z"/>
	</g>
	<line fill="none" stroke="#000000" stroke-width="0.459" x1="3985.901" y1="70.25" x2="3985.901" y2="40.95"/>
	<g enable-background="new    ">
		<path d="M3983.5,67.875c2.616,0.03,4.063,1.815,3.232,4.002c-0.801,2.217-3.572,3.974-6.159,3.941
			c-2.586-0.029-4.032-1.848-3.202-4.033C3978.173,69.599,3980.914,67.844,3983.5,67.875z"/>
	</g>
	<line fill="none" stroke="#000000" stroke-width="0.459" x1="4019.901" y1="70.25" x2="4019.901" y2="40.95"/>
	<g enable-background="new    ">
		<path d="M4017.582,67.875c2.617,0.03,4.064,1.815,3.233,4.002c-0.801,2.217-3.572,3.974-6.158,3.941
			c-2.587-0.029-4.034-1.848-3.202-4.033C4012.256,69.599,4014.996,67.844,4017.582,67.875z"/>
	</g>
	<line fill="none" stroke="#000000" stroke-width="0.459" x1="4040.799" y1="70.25" x2="4040.799" y2="40.95"/>
	<g enable-background="new    ">
		<path d="M4038.472,67.875c2.616,0.03,4.063,1.815,3.232,4.002c-0.801,2.217-3.571,3.974-6.157,3.941
			c-2.588-0.029-4.034-1.848-3.203-4.033C4033.145,69.599,4035.885,67.844,4038.472,67.875z"/>
	</g>
	<line fill="none" stroke="#000000" stroke-width="0.459" x1="4104.199" y1="70.25" x2="4104.199" y2="40.95"/>
	<g enable-background="new    ">
		<path d="M4101.875,67.875c2.617,0.03,4.063,1.815,3.232,4.002c-0.801,2.217-3.572,3.974-6.158,3.941
			c-2.587-0.029-4.034-1.848-3.203-4.033C4096.547,69.599,4099.287,67.844,4101.875,67.875z"/>
	</g>
	<line fill="none" stroke="#000000" stroke-width="0.459" x1="4134.699" y1="70.25" x2="4134.699" y2="40.95"/>
	<g enable-background="new    ">
		<path d="M4132.293,67.875c2.617,0.03,4.064,1.815,3.233,4.002c-0.801,2.217-3.571,3.974-6.158,3.941
			c-2.587-0.029-4.034-1.848-3.203-4.033C4126.967,69.599,4129.707,67.844,4132.293,67.875z"/>
	</g>
	<line fill="none" stroke="#000000" stroke-width="0.459" x1="4168.699" y1="70.25" x2="4168.699" y2="40.95"/>
	<g enable-background="new    ">
		<path d="M4166.377,67.875c2.617,0.03,4.063,1.815,3.232,4.002c-0.801,2.217-3.572,3.974-6.159,3.941
			c-2.586-0.029-4.033-1.848-3.202-4.033C4161.049,69.599,4163.791,67.844,4166.377,67.875z"/>
	</g>
	<g enable-background="new    ">
		<path d="M4187.267,67.875c2.617,0.03,4.063,1.815,3.233,4.002c-0.801,2.217-3.572,3.974-6.158,3.941
			c-2.588-0.029-4.035-1.848-3.203-4.033C4181.939,69.599,4184.68,67.844,4187.267,67.875z"/>
	</g>
	<line fill="none" stroke="#000000" stroke-width="0.459" x1="4189.6" y1="70.25" x2="4189.6" y2="43.15"/>
	<g enable-background="new    ">
		<path d="M4218.785,67.875c2.617,0.03,4.063,1.815,3.232,4.002c-0.801,2.217-3.572,3.974-6.158,3.941
			c-2.587-0.029-4.034-1.848-3.203-4.033C4213.457,69.599,4216.197,67.844,4218.785,67.875z"/>
	</g>
	<line fill="none" stroke="#000000" stroke-width="0.459" x1="4221.199" y1="70.25" x2="4221.199" y2="43.15"/>
	<path d="M4189.199,40.95h32.4v4.4h-32.4V40.95z"/>
	<line fill="none" stroke="#000000" stroke-width="0.459" x1="4253" y1="70.25" x2="4253" y2="40.95"/>
	<g enable-background="new    ">
		<path d="M4250.668,67.875c2.617,0.03,4.064,1.815,3.233,4.002c-0.801,2.217-3.571,3.974-6.158,3.941
			c-2.587-0.029-4.034-1.848-3.203-4.033C4245.342,69.599,4248.082,67.844,4250.668,67.875z"/>
	</g>
	<line fill="none" stroke="#000000" stroke-width="0.459" x1="4283.5" y1="70.25" x2="4283.5" y2="40.95"/>
	<g enable-background="new    ">
		<path d="M4281.086,67.875c2.617,0.03,4.064,1.815,3.233,4.002c-0.801,2.217-3.571,3.974-6.158,3.941
			c-2.587-0.029-4.034-1.848-3.203-4.033C4275.76,69.599,4278.5,67.844,4281.086,67.875z"/>
	</g>
	<line fill="none" stroke="#000000" stroke-width="0.459" x1="4317.5" y1="70.25" x2="4317.5" y2="40.95"/>
	<g enable-background="new    ">
		<path d="M4315.17,67.875c2.617,0.03,4.064,1.815,3.233,4.002c-0.801,2.217-3.571,3.974-6.158,3.941
			c-2.587-0.029-4.034-1.848-3.203-4.033C4309.844,69.599,4312.584,67.844,4315.17,67.875z"/>
	</g>
	<line fill="none" stroke="#000000" stroke-width="0.459" x1="4338.4" y1="70.25" x2="4338.4" y2="40.95"/>
	<g enable-background="new    ">
		<path d="M4336.06,67.875c2.617,0.03,4.063,1.815,3.233,4.002c-0.801,2.217-3.572,3.974-6.158,3.941
			c-2.588-0.029-4.035-1.848-3.203-4.033C4330.732,69.599,4333.473,67.844,4336.06,67.875z"/>
	</g>
	<line fill="none" stroke="#000000" stroke-width="0.459" x1="4401.799" y1="70.25" x2="4401.799" y2="40.95"/>
	<g enable-background="new    ">
		<path d="M4399.461,67.875c2.617,0.03,4.064,1.815,3.233,4.002c-0.801,2.217-3.571,3.974-6.158,3.941
			c-2.587-0.029-4.034-1.848-3.203-4.033C4394.135,69.599,4396.875,67.844,4399.461,67.875z"/>
	</g>
	<line fill="none" stroke="#000000" stroke-width="0.459" x1="4432.199" y1="70.25" x2="4432.199" y2="40.95"/>
	<g enable-background="new    ">
		<path d="M4429.879,67.875c2.617,0.03,4.064,1.815,3.233,4.002c-0.801,2.217-3.571,3.974-6.158,3.941
			c-2.587-0.029-4.034-1.848-3.203-4.033C4424.553,69.599,4427.293,67.844,4429.879,67.875z"/>
	</g>
	<line fill="none" stroke="#000000" stroke-width="0.459" x1="4465.199" y1="70.25" x2="4465.199" y2="40.95"/>
	<g enable-background="new    ">
		<path d="M4462.867,67.875c2.617,0.03,4.063,1.815,3.232,4.002c-0.801,2.217-3.572,3.974-6.158,3.941
			c-2.587-0.029-4.034-1.848-3.203-4.033C4457.539,69.599,4460.279,67.844,4462.867,67.875z"/>
	</g>
	<g enable-background="new    ">
		<path d="M4482.289,67.875c2.617,0.03,4.064,1.815,3.233,4.002c-0.801,2.217-3.571,3.974-6.159,3.941
			c-2.586-0.029-4.033-1.848-3.202-4.033C4476.961,69.599,4479.703,67.844,4482.289,67.875z"/>
	</g>
	<line fill="none" stroke="#000000" stroke-width="0.459" x1="4484.699" y1="70.25" x2="4484.699" y2="43.15"/>
	<g enable-background="new    ">
		<path d="M4513.806,67.875c2.617,0.03,4.063,1.815,3.233,4.002c-0.801,2.217-3.572,3.974-6.158,3.941
			c-2.588-0.029-4.035-1.848-3.203-4.033C4508.479,69.599,4511.219,67.844,4513.806,67.875z"/>
	</g>
	<line fill="none" stroke="#000000" stroke-width="0.459" x1="4516.199" y1="70.25" x2="4516.199" y2="43.15"/>
	<path d="M4484.199,40.95h32.4v4.4h-32.4V40.95z"/>
	<line fill="none" stroke="#000000" stroke-width="0.459" x1="4547.699" y1="70.25" x2="4547.699" y2="40.95"/>
	<g enable-background="new    ">
		<path d="M4545.326,67.875c2.617,0.03,4.063,1.815,3.232,4.002c-0.801,2.217-3.572,3.974-6.158,3.941
			c-2.587-0.029-4.034-1.848-3.203-4.033C4539.998,69.599,4542.738,67.844,4545.326,67.875z"/>
	</g>
</g>
</svg>
