<?xml version="1.0" encoding="utf-8"?>
<!-- Generator: Adobe Illustrator 16.0.0, SVG Export Plug-In . SVG Version: 6.00 Build 0)  -->
<!DOCTYPE svg PUBLIC "-//W3C//DTD SVG 1.1//EN" "http://www.w3.org/Graphics/SVG/1.1/DTD/svg11.dtd">
<svg version="1.1" id="Layer_1" xmlns="http://www.w3.org/2000/svg" xmlns:xlink="http://www.w3.org/1999/xlink" x="0px" y="0px"
	 width="2077.6px" height="90px" viewBox="0 0 2077.6 90" enable-background="new 0 0 2077.6 90" xml:space="preserve">
<g id="Music">
	<g enable-background="new    ">
		<path d="M14.399,76.891c-5.898-2.799-6.898-6.5-7.1-10.199c-0.3-4,2.3-8.1,4.7-10.4c1.398-1.3,2.898-2.6,4.699-3.898
			c-0.101-1-0.301-1.4-0.399-2.9c0-0.6-0.4-3.398,0.2-6.7c0.398-1.899,2.8-6.5,4.5-6.5c1.3,0,3.3,5.2,3.3,7.802
			c0.1,4-0.9,5.799-2,7.898c-0.601,1-1.2,1.8-1.9,2.602c-0.698,0.799-1.5,1.299-2.198,2c0,0,0.898,5.198,1,5.6
			c1.8-0.2,4.1,0.4,4.898,1c2,1.5,2.8,3.6,3,5.699c0.3,3.301-1.5,6.701-5.5,8.301c0,0,0.602,4.199,0.7,5c0.3,2.3,0.3,3.699-0.2,4.6
			c-0.8,1.602-2.2,3-4.8,3.2c-2,0.101-6-0.899-6.2-4.101c-0.1-1.899,0.7-3.899,3-4c1.4-0.101,3,1,3.102,2.701
			c0.1,1.398-0.802,2.898-3.2,3.5c0.398,0.5,1.5,1.1,3.1,1.1c1.7,0,3.4-1.1,4.2-2.6c0.5-1,0.5-2.701,0.3-4.4
			c-0.1-0.5-0.8-4.9-0.8-4.9C18.6,77.592,15.6,77.391,14.399,76.891z M15,69.991c0.1,1.399,1.2,3,2.3,3.5
			c-0.102,0.101-0.3,0.3-0.3,0.3c-1.2-0.6-2.2-1.5-2.5-1.898c-0.8-1.102-1.2-1.801-1.3-3.5c-0.102-1.602,0.698-3.7,2.698-5.2
			c1-0.7,1.5-0.9,2.4-1.101l-0.9-5.199c-0.898,0.5-4.6,3.5-6.1,5.898c-1.4,2.2-2.2,3.9-2,6c0.3,4.801,5.6,8.801,11.3,7.4l-1.7-10.2
			C15.7,66.191,14.899,68.691,15,69.991z M17.3,51.791c2.5-2,5.9-5.6,5.7-8.5c-0.102-0.898-0.4-2.5-1.7-2.5
			C18.3,40.791,16.6,46.991,17.3,51.791z M21.2,76.092c3.3-1.101,3.5-4,3.3-5.699c-0.102-1.4-0.7-4.602-5-4.4L21.2,76.092z"/>
	</g>
	<g enable-background="new    ">
		<path d="M36.2,57.691c0,0.3,0,1.8,0,1.8c1.1-1,1.698-1.2,2.898-1.2c1.4,0,2.4,1.4,2.4,2.602c0,0.6-0.102,1.199-0.4,1.699
			c-0.3,0.601-1,1.101-1.398,1.601c-0.5,0.5-4.302,3.1-4.302,3.1v-17h0.7C36.2,50.391,36.3,53.891,36.2,57.691z M36.5,60.592
			c-0.4,0.699-0.3,2-0.3,2.899v2.5c0,0,1-0.899,1.6-1.399c0.5-0.5,0.9-1,1.1-1.899c0.2-0.9,0.102-1.8-0.398-2.4
			C38.2,59.791,37.2,59.391,36.5,60.592z"/>
	</g>
	<g enable-background="new    ">
		<path d="M63.1,73.191v1.9c0,1.198,1.4,1.1,1.4,1.1v0.8h-6.3v-0.8c0,0,1.398,0.1,1.398-1.1v-2h-5.3l-0.5-0.5
			c3.5-4.701,3.5-5.602,4.399-9.802h5c-1.199,2.2-5.199,6.302-8,9.601h4.5v-3.5l3.5-3.899v7.399h2.101v0.801H63.1z"/>
	</g>
	<g enable-background="new    ">
		<path d="M59.2,62.691c-2.9,0-5.102-1.4-5.102-3.801c0-1,1-2.101,2-2.101c1.102,0,2.2,0.601,2.2,1.802c0,1.5-1.101,1.6-1,2.698
			c0,0.302,0.899,0.7,1.2,0.7c1.898,0,2.898-2.2,2.898-3.5c0-2.5-2.3-2.2-4.1-2.6c0-0.102,0-0.801,0-0.701
			c1.899-0.199,3.7-0.899,3.7-3c0-3-2.4-2.799-2.801-2.799c-0.199,0-0.801,0.398-0.801,0.699c0.102,0.6,1,0.899,1.4,2
			c0.399,1.1-0.9,2.301-2,2.301c-1.3,0-2.2-1.4-2.2-2.102c0-1.699,1.3-3.8,5.8-3.8c2,0,4.102,1.399,4.102,3.5
			c0,2.8-3.301,3-3.301,3.399c1.699,0.201,3.899,0.801,3.899,3C64.899,61.391,61.3,62.691,59.2,62.691z"/>
	</g>
	<line fill="none" stroke="#000000" stroke-width="0.459" x1="110" y1="48.391" x2="110" y2="77.191"/>
	<line fill="none" stroke="#000000" stroke-width="0.459" x1="232.5" y1="48.391" x2="232.5" y2="77.191"/>
	<line fill="none" stroke="#000000" stroke-width="0.459" x1="355.1" y1="48.391" x2="355.1" y2="77.191"/>
	<line fill="none" stroke="#000000" stroke-width="0.459" x1="477.6" y1="48.391" x2="477.6" y2="77.191"/>
	<line fill="none" stroke="#000000" stroke-width="0.459" x1="600.1" y1="48.391" x2="600.1" y2="77.191"/>
	<line fill="none" stroke="#000000" stroke-width="0.459" x1="722.6" y1="48.391" x2="722.6" y2="77.191"/>
	<line fill="none" stroke="#000000" stroke-width="0.459" x1="845.2" y1="48.391" x2="845.2" y2="77.191"/>
	<line fill="none" stroke="#000000" stroke-width="0.459" x1="967.7" y1="48.391" x2="967.7" y2="77.191"/>
	<line fill="none" stroke="#000000" stroke-width="0.459" x1="1090.2" y1="48.391" x2="1090.2" y2="77.191"/>
	<line fill="none" stroke="#000000" stroke-width="0.459" x1="1212.8" y1="48.391" x2="1212.8" y2="77.191"/>
	<line fill="none" stroke="#000000" stroke-width="0.459" x1="1335.3" y1="48.391" x2="1335.3" y2="77.191"/>
	<line fill="none" stroke="#000000" stroke-width="0.459" x1="1457.8" y1="48.391" x2="1457.8" y2="77.191"/>
	<line fill="none" stroke="#000000" stroke-width="0.459" x1="1580.3" y1="48.391" x2="1580.3" y2="77.191"/>
	<line fill="none" stroke="#000000" stroke-width="0.459" x1="1702.899" y1="48.391" x2="1702.899" y2="77.191"/>
	<line fill="none" stroke="#000000" stroke-width="0.459" x1="1825.399" y1="48.391" x2="1825.399" y2="77.191"/>
	<line fill="none" stroke="#000000" stroke-width="0.459" x1="1947.899" y1="48.391" x2="1947.899" y2="77.191"/>
	<line fill="none" stroke="#000000" stroke-width="2.419" x1="2075.8" y1="48.391" x2="2075.8" y2="77.191"/>
	<line fill="none" stroke="#000000" stroke-width="0.459" x1="2070" y1="48.391" x2="2070" y2="77.191"/>
	<line fill="none" stroke="#000000" stroke-width="0.459" x1="0" y1="48.391" x2="2077.6" y2="48.391"/>
	<line fill="none" stroke="#000000" stroke-width="0.459" x1="0" y1="55.592" x2="2077.6" y2="55.592"/>
	<line fill="none" stroke="#000000" stroke-width="0.459" x1="0" y1="62.791" x2="2077.6" y2="62.791"/>
	<line fill="none" stroke="#000000" stroke-width="0.459" x1="0" y1="69.991" x2="2077.6" y2="69.991"/>
	<line fill="none" stroke="#000000" stroke-width="0.459" x1="0" y1="77.191" x2="2077.6" y2="77.191"/>
	<g enable-background="new    ">
		<path d="M85.6,79.391c0.8,0,1.5,0.601,1.5,1.399c0,0.802-0.7,1.5-1.5,1.5s-1.5-0.698-1.5-1.5C84.1,80.092,84.8,79.391,85.6,79.391
			z"/>
	</g>
	<line fill="none" stroke="#000000" stroke-width="0.459" x1="71.5" y1="84.491" x2="82.6" y2="84.491"/>
	<g enable-background="new    ">
		<path d="M78.5,81.291c2.1,0,3.3,1.5,2.6,3.301s-2.898,3.301-5,3.199c-2.1,0-3.3-1.5-2.6-3.3
			C74.199,82.691,76.399,81.291,78.5,81.291z"/>
	</g>
	<line fill="none" stroke="#000000" stroke-width="0.459" x1="80.5" y1="83.291" x2="80.5" y2="60.991"/>
	<line fill="none" stroke="#000000" stroke-width="0.459" x1="90.1" y1="84.491" x2="101.3" y2="84.491"/>
	<g enable-background="new    ">
		<path d="M97.2,81.291c2.1,0,3.3,1.5,2.6,3.301s-2.9,3.301-5,3.199c-2.1,0-3.3-1.5-2.6-3.3C92.8,82.691,95,81.291,97.2,81.291z"/>
	</g>
	<line fill="none" stroke="#000000" stroke-width="0.459" x1="99.1" y1="83.291" x2="99.1" y2="60.991"/>
	<path d="M80.1,59.191h19.3v3.6H80.1V59.191z"/>
	<path d="M93.399,64.592H99.5v3.601h-6.102V64.592z"/>
	<line fill="none" stroke="#000000" stroke-width="0.459" x1="124.6" y1="79.592" x2="124.6" y2="55.592"/>
	<g enable-background="new    ">
		<path d="M122.7,77.691c2.1,0,3.3,1.5,2.6,3.3s-2.9,3.3-5,3.2c-2.1,0-3.3-1.5-2.6-3.301C118.3,79.092,120.6,77.592,122.7,77.691z"
			/>
	</g>
	<line fill="none" stroke="#000000" stroke-width="0.459" x1="162.8" y1="83.291" x2="162.8" y2="59.191"/>
	<line fill="none" stroke="#000000" stroke-width="0.459" x1="153.8" y1="84.491" x2="164.899" y2="84.491"/>
	<g enable-background="new    ">
		<path d="M160.8,81.291c2.1,0,3.3,1.5,2.6,3.301c-0.698,1.801-2.898,3.301-5,3.199c-2.1,0-3.3-1.5-2.6-3.3
			S158.7,81.291,160.8,81.291z"/>
	</g>
	<line fill="none" stroke="#000000" stroke-width="0.459" x1="201.2" y1="72.391" x2="201.2" y2="48.391"/>
	<g enable-background="new    ">
		<path d="M199.3,70.491c2.1,0,3.3,1.5,2.6,3.3c-0.7,1.801-2.898,3.301-5,3.2c-2.1,0-3.3-1.5-2.6-3.3
			C194.899,71.891,197.1,70.391,199.3,70.491z"/>
	</g>
	<g enable-background="new    ">
		<path d="M73.899,27.991l3.302-8.601h1.198l3.5,8.601H80.7l-1-2.601H76.1l-0.898,2.601H73.899z M76.399,24.491h2.9l-0.9-2.399
			c-0.3-0.699-0.5-1.301-0.6-1.801c-0.101,0.602-0.3,1.102-0.5,1.602L76.399,24.491z"/>
	</g>
	<g enable-background="new    ">
		<path d="M118.5,45.691v-8.6h5.8v1h-4.7v2.698h4v1h-4v3.899h-1.1V45.691z"/>
	</g>
	<line fill="none" stroke="#000000" stroke-width="0.459" x1="248.7" y1="75.991" x2="248.7" y2="51.991"/>
	<g enable-background="new    ">
		<path d="M248,77.391c-0.5,1.301-1.602,2.301-2.3,2.701c-0.802,0.398-1.802,0.6-3,0.5c-0.7-0.102-1.9-0.302-2.4-1.102
			c-0.5-0.898-0.2-1.898,0-2.398c0.5-1.302,1.5-2.102,2.2-2.602c0.8-0.398,1.898-0.801,3.3-0.6c0.5,0.1,1.7,0.199,2.2,1
			C248.5,75.689,248.2,76.891,248,77.391z M245,75.391c-0.602,0.301-1,0.5-1.5,0.801c-0.5,0.3-1,0.6-1.5,0.9
			c-0.7,0.5-1.7,1.299-1.2,2.1c0.5,0.8,1.7,0.4,2.5,0c0.6-0.301,1-0.5,1.5-0.801c0.5-0.299,0.9-0.5,1.5-0.899
			c0.7-0.5,1.7-1.3,1.2-2.101C247,74.592,245.8,74.991,245,75.391z"/>
	</g>
	<g enable-background="new    ">
		<path d="M327.7,79.391c0.8,0,1.5,0.601,1.5,1.399c0,0.802-0.7,1.5-1.5,1.5c-0.802,0-1.5-0.698-1.5-1.5
			C326.2,80.092,326.8,79.391,327.7,79.391z"/>
	</g>
	<line fill="none" stroke="#000000" stroke-width="0.459" x1="313.6" y1="84.491" x2="324.7" y2="84.491"/>
	<g enable-background="new    ">
		<path d="M320.6,81.291c2.102,0,3.3,1.5,2.602,3.301c-0.7,1.801-2.9,3.301-5,3.199c-2.102,0-3.302-1.5-2.602-3.3
			C316.2,82.691,318.5,81.291,320.6,81.291z"/>
	</g>
	<line fill="none" stroke="#000000" stroke-width="0.459" x1="322.5" y1="83.291" x2="322.5" y2="60.991"/>
	<line fill="none" stroke="#000000" stroke-width="0.459" x1="337.3" y1="84.491" x2="348.399" y2="84.491"/>
	<g enable-background="new    ">
		<path d="M344.3,81.291c2.1,0,3.3,1.5,2.6,3.301s-2.898,3.301-5,3.199c-2.1,0-3.3-1.5-2.6-3.3S342.2,81.291,344.3,81.291z"/>
	</g>
	<line fill="none" stroke="#000000" stroke-width="0.459" x1="346.3" y1="83.291" x2="346.3" y2="60.991"/>
	<path d="M322.2,59.191H346.6v3.6H322.2V59.191z"/>
	<path d="M340.5,64.592h6.1v3.601h-6.1V64.592z"/>
	<g enable-background="new    ">
		<path d="M247.1,42.691l1.102,0.3c-0.2,0.899-0.7,1.601-1.302,2.101c-0.6,0.5-1.398,0.699-2.3,0.699c-0.898,0-1.7-0.199-2.3-0.6
			c-0.6-0.401-1-0.9-1.3-1.6c-0.3-0.701-0.5-1.5-0.5-2.302c0-0.899,0.2-1.698,0.5-2.3c0.3-0.7,0.8-1.2,1.5-1.5
			c0.6-0.301,1.3-0.5,2.1-0.5c0.9,0,1.602,0.199,2.2,0.699c0.6,0.4,1,1.101,1.2,1.801l-1.102,0.3
			c-0.198-0.601-0.5-1.101-0.898-1.399c-0.4-0.299-0.9-0.399-1.4-0.399c-0.7,0-1.2,0.2-1.7,0.5c-0.398,0.3-0.8,0.7-0.898,1.3
			c-0.2,0.5-0.3,1.102-0.3,1.7c0,0.7,0.1,1.399,0.3,1.899s0.5,1,1,1.201c0.398,0.299,0.898,0.398,1.5,0.398c0.6,0,1.2-0.2,1.6-0.6
			S246.899,43.391,247.1,42.691z"/>
	</g>
	<line fill="none" stroke="#000000" stroke-width="0.459" x1="369.7" y1="79.592" x2="369.7" y2="55.592"/>
	<g enable-background="new    ">
		<path d="M367.7,77.691c2.1,0,3.3,1.5,2.6,3.3s-2.9,3.3-5,3.2c-2.1,0-3.3-1.5-2.6-3.301C363.399,79.092,365.6,77.592,367.7,77.691z
			"/>
	</g>
	<line fill="none" stroke="#000000" stroke-width="0.459" x1="407.8" y1="83.291" x2="407.8" y2="59.191"/>
	<line fill="none" stroke="#000000" stroke-width="0.459" x1="398.899" y1="84.491" x2="410" y2="84.491"/>
	<g enable-background="new    ">
		<path d="M405.899,81.291c2.102,0,3.302,1.5,2.602,3.301s-2.9,3.301-5,3.199c-2.102,0-3.3-1.5-2.602-3.3
			C401.5,82.691,403.8,81.291,405.899,81.291z"/>
	</g>
	<line fill="none" stroke="#000000" stroke-width="0.459" x1="446.3" y1="68.791" x2="446.3" y2="44.791"/>
	<g enable-background="new    ">
		<path d="M444.3,66.891c2.1,0,3.3,1.5,2.6,3.301c-0.7,1.8-2.898,3.3-5,3.199c-2.1,0-3.3-1.5-2.6-3.299
			C440,68.291,442.2,66.791,444.3,66.891z"/>
	</g>
	<line fill="none" stroke="#000000" stroke-width="0.459" x1="493.7" y1="72.391" x2="493.7" y2="48.391"/>
	<g enable-background="new    ">
		<path d="M493,73.791c-0.5,1.301-1.602,2.301-2.3,2.7c-0.802,0.399-1.802,0.601-3,0.5c-0.7-0.101-1.9-0.3-2.4-1.101
			c-0.5-0.899-0.2-1.899,0-2.399c0.5-1.3,1.5-2.101,2.2-2.601c0.8-0.399,1.898-0.799,3.3-0.601c0.5,0.101,1.7,0.2,2.2,1
			C493.5,72.092,493.2,73.291,493,73.791z M490.1,71.791c-0.6,0.301-1,0.5-1.5,0.801s-1,0.601-1.5,0.899c-0.7,0.5-1.7,1.3-1.2,2.101
			s1.7,0.399,2.5,0c0.602-0.301,1-0.5,1.5-0.801c0.5-0.3,0.9-0.5,1.5-0.898c0.7-0.5,1.7-1.301,1.2-2.102
			C492,70.991,490.899,71.391,490.1,71.791z"/>
	</g>
	<g enable-background="new    ">
		<path d="M570.3,79.391c0.8,0,1.5,0.601,1.5,1.399c0,0.802-0.7,1.5-1.5,1.5s-1.5-0.698-1.5-1.5
			C568.8,80.092,569.5,79.391,570.3,79.391z"/>
	</g>
	<line fill="none" stroke="#000000" stroke-width="0.459" x1="556.2" y1="84.491" x2="567.3" y2="84.491"/>
	<g enable-background="new    ">
		<path d="M563.2,81.291c2.1,0,3.3,1.5,2.6,3.301s-2.9,3.301-5,3.199c-2.1,0-3.3-1.5-2.6-3.3
			C558.899,82.691,561.1,81.291,563.2,81.291z"/>
	</g>
	<line fill="none" stroke="#000000" stroke-width="0.459" x1="565.2" y1="83.291" x2="565.2" y2="60.991"/>
	<line fill="none" stroke="#000000" stroke-width="0.459" x1="580" y1="84.491" x2="591.1" y2="84.491"/>
	<g enable-background="new    ">
		<path d="M587,81.291c2.1,0,3.3,1.5,2.6,3.301s-2.9,3.301-5,3.199c-2.1,0-3.3-1.5-2.6-3.3C582.6,82.691,584.899,81.291,587,81.291z
			"/>
	</g>
	<line fill="none" stroke="#000000" stroke-width="0.459" x1="588.899" y1="83.291" x2="588.899" y2="60.991"/>
	<path d="M564.8,59.191h24.4v3.6h-24.4V59.191z"/>
	<path d="M583.2,64.592h6.1v3.601h-6.1V64.592z"/>
	<g enable-background="new    ">
		<path d="M486,45.691v-8.6h5.8v1h-4.7v2.698h4v1h-4v3.899H486V45.691z"/>
	</g>
	<line fill="none" stroke="#000000" stroke-width="0.459" x1="608.2" y1="60.391" x2="608.2" y2="84.491"/>
	<g enable-background="new    ">
		<path d="M613.1,56.092c2.102,0,3.3,1.5,2.602,3.301c-0.7,1.799-2.9,3.299-5,3.199c-2.102,0-3.302-1.5-2.602-3.301
			C608.7,57.491,611,55.991,613.1,56.092z"/>
	</g>
	<line fill="none" stroke="#000000" stroke-width="0.459" x1="653.2" y1="65.191" x2="653.2" y2="41.191"/>
	<g enable-background="new    ">
		<path d="M651.2,63.291c2.1,0,3.3,1.5,2.6,3.301s-2.9,3.301-5,3.199c-2.1,0-3.3-1.5-2.6-3.3
			C646.899,64.691,649.1,63.191,651.2,63.291z"/>
	</g>
	<line fill="none" stroke="#000000" stroke-width="0.459" x1="691.3" y1="72.391" x2="691.3" y2="48.391"/>
	<g enable-background="new    ">
		<path d="M689.399,70.491c2.102,0,3.302,1.5,2.602,3.3c-0.7,1.801-2.9,3.301-5,3.2c-2.102-0.101-3.302-1.5-2.602-3.3
			C685,71.891,687.3,70.391,689.399,70.491z"/>
	</g>
	<line fill="none" stroke="#000000" stroke-width="0.459" x1="737.3" y1="75.991" x2="737.3" y2="51.991"/>
	<g enable-background="new    ">
		<path d="M735.3,74.092c2.1,0,3.3,1.5,2.6,3.301c-0.699,1.799-2.898,3.299-5,3.199c-2.1-0.101-3.3-1.5-2.6-3.301
			C731,75.491,733.2,73.991,735.3,74.092z"/>
	</g>
	<line fill="none" stroke="#000000" stroke-width="0.459" x1="773" y1="79.592" x2="773" y2="55.592"/>
	<g enable-background="new    ">
		<path d="M771.1,77.691c2.101,0,3.3,1.5,2.601,3.3s-2.899,3.3-5,3.2c-2.101,0-3.301-1.5-2.601-3.301
			C766.7,79.092,768.899,77.592,771.1,77.691z"/>
	</g>
	<g enable-background="new    ">
		<path d="M817.8,57.791c0.8,0,1.5,0.602,1.5,1.4s-0.7,1.5-1.5,1.5s-1.5-0.7-1.5-1.5C816.3,58.391,817,57.791,817.8,57.791z"/>
	</g>
	<g enable-background="new    ">
		<path d="M810.7,59.691c2.1,0,3.3,1.5,2.6,3.3s-2.9,3.3-5,3.2s-3.3-1.5-2.6-3.301C806.3,61.092,808.6,59.592,810.7,59.691z"/>
	</g>
	<line fill="none" stroke="#000000" stroke-width="0.459" x1="805.8" y1="63.991" x2="805.8" y2="86.291"/>
	<g enable-background="new    ">
		<path d="M836.2,59.691c2.1,0,3.3,1.5,2.6,3.3s-2.9,3.3-5,3.2s-3.3-1.5-2.6-3.301C831.899,61.092,834.1,59.592,836.2,59.691z"/>
	</g>
	<line fill="none" stroke="#000000" stroke-width="0.459" x1="831.399" y1="63.991" x2="831.399" y2="86.291"/>
	<path d="M805.5,84.391h26.2v3.601h-26.2V84.391z"/>
	<path d="M824.899,78.991H831v3.601h-6.102V78.991z"/>
	<g enable-background="new    ">
		<path d="M731,45.691v-8.6h3.2c0.698,0,1.198,0.1,1.6,0.299c0.4,0.201,0.7,0.399,0.9,0.801c0.198,0.4,0.3,0.699,0.3,1.1
			s-0.102,0.7-0.3,1c-0.2,0.301-0.5,0.602-0.9,0.801c0.5,0.199,0.9,0.399,1.2,0.801c0.3,0.398,0.398,0.799,0.398,1.299
			c0,0.4-0.1,0.801-0.3,1.101c-0.2,0.302-0.4,0.601-0.6,0.802c-0.2,0.198-0.602,0.299-0.9,0.398s-0.8,0.102-1.4,0.102H731V45.691
			L731,45.691z M732.1,40.691h1.9c0.5,0,0.898,0,1.1-0.1c0.3-0.102,0.5-0.201,0.7-0.4c0.1-0.2,0.2-0.4,0.2-0.801
			c0-0.299-0.102-0.5-0.2-0.799c-0.1-0.302-0.3-0.4-0.6-0.4c-0.302-0.1-0.7-0.1-1.302-0.1H732.2v2.6H732.1L732.1,40.691z
			 M732.1,44.691h2.101c0.399,0,0.601,0,0.801,0c0.3,0,0.5-0.1,0.699-0.2s0.301-0.3,0.399-0.5c0.101-0.2,0.2-0.5,0.2-0.7
			c0-0.3-0.1-0.6-0.2-0.8c-0.1-0.2-0.399-0.399-0.7-0.5c-0.3-0.101-0.698-0.101-1.3-0.101h-2V44.691z"/>
	</g>
	<g enable-background="new    ">
		<path d="M739.399,36.391c0,0.201,0,1.5,0,1.5c0.9-0.799,1.4-1,2.4-1c1.2,0,2,1.201,2,2.101c0,0.5-0.101,1-0.3,1.399
			c-0.2,0.5-0.802,0.899-1.2,1.301c-0.4,0.4-3.601,2.6-3.601,2.6v-14.1h0.601C739.399,30.191,739.5,33.191,739.399,36.391z
			 M739.7,38.691c-0.302,0.6-0.302,1.6-0.302,2.4v2.1c0,0,0.9-0.7,1.302-1.2c0.398-0.399,0.8-0.899,0.898-1.601
			c0.2-0.699,0.102-1.5-0.3-2C741.1,38.092,740.2,37.791,739.7,38.691z"/>
	</g>
	<line fill="none" stroke="#000000" stroke-width="0.459" x1="859.8" y1="65.191" x2="859.8" y2="41.191"/>
	<g enable-background="new    ">
		<path d="M857.899,63.291c2.102,0,3.302,1.5,2.602,3.301s-2.9,3.301-5,3.199c-2.102-0.1-3.302-1.5-2.602-3.3
			C853.5,64.691,855.7,63.191,857.899,63.291z"/>
	</g>
	<line fill="none" stroke="#000000" stroke-width="0.459" x1="897.899" y1="72.391" x2="897.899" y2="48.391"/>
	<g enable-background="new    ">
		<path d="M896,70.491c2.1,0,3.3,1.5,2.6,3.3c-0.7,1.801-2.899,3.301-5,3.2c-2.1-0.101-3.3-1.5-2.6-3.3
			C891.6,71.891,893.899,70.391,896,70.491z"/>
	</g>
	<line fill="none" stroke="#000000" stroke-width="0.459" x1="936.399" y1="68.791" x2="936.399" y2="44.791"/>
	<g enable-background="new    ">
		<path d="M934.399,66.891c2.102,0,3.302,1.5,2.602,3.301c-0.7,1.8-2.9,3.3-5,3.199c-2.102,0-3.302-1.5-2.602-3.299
			C930.1,68.291,932.3,66.791,934.399,66.891z"/>
	</g>
	<g enable-background="new    ">
		<path d="M853.6,45.691v-8.6h5.8v1H854.7v2.698h4v1h-4v3.899H853.6V45.691z"/>
	</g>
	<g enable-background="new    ">
		<path d="M936.3,42.691l1.1,0.3c-0.199,0.899-0.699,1.601-1.3,2.101c-0.6,0.5-1.4,0.699-2.3,0.699c-0.9,0-1.7-0.199-2.301-0.6
			s-1-0.9-1.301-1.6c-0.3-0.701-0.5-1.5-0.5-2.302c0-0.899,0.2-1.698,0.5-2.3c0.301-0.7,0.801-1.2,1.5-1.5
			c0.602-0.301,1.301-0.5,2.102-0.5c0.898,0,1.6,0.199,2.198,0.699c0.602,0.5,1,1.101,1.2,1.801l-1.1,0.3
			c-0.2-0.601-0.5-1.101-0.9-1.399c-0.398-0.299-0.898-0.399-1.398-0.399c-0.7,0-1.2,0.2-1.7,0.5c-0.4,0.3-0.8,0.7-0.9,1.3
			c-0.1,0.602-0.3,1.102-0.3,1.7c0,0.7,0.1,1.399,0.3,1.899s0.5,1,1,1.201c0.4,0.299,0.9,0.398,1.5,0.398c0.601,0,1.2-0.2,1.601-0.6
			C935.8,43.991,936.1,43.391,936.3,42.691z"/>
	</g>
	<line fill="none" stroke="#000000" stroke-width="0.459" x1="983.8" y1="72.391" x2="983.8" y2="48.391"/>
	<g enable-background="new    ">
		<path d="M983.2,73.791c-0.5,1.301-1.602,2.301-2.302,2.7c-0.8,0.399-1.8,0.601-3,0.5c-0.698-0.101-1.898-0.3-2.398-1.101
			c-0.5-0.899-0.2-1.899,0-2.399c0.5-1.3,1.5-2.101,2.198-2.601c0.802-0.399,1.9-0.799,3.302-0.601c0.5,0.101,1.698,0.2,2.198,1
			C983.6,72.092,983.3,73.291,983.2,73.791z M980.2,71.791c-0.602,0.301-1,0.5-1.5,0.801s-1,0.601-1.5,0.899
			c-0.7,0.5-1.7,1.3-1.2,2.101s1.7,0.399,2.5,0c0.6-0.301,1-0.5,1.5-0.801c0.5-0.3,0.898-0.5,1.5-0.898c0.7-0.5,1.7-1.301,1.2-2.102
			C982.1,70.991,981,71.391,980.2,71.791z"/>
	</g>
	<g enable-background="new    ">
		<path d="M1053.2,79.391c0.8,0,1.5,0.601,1.5,1.399c0,0.802-0.7,1.5-1.5,1.5c-0.802,0-1.5-0.698-1.5-1.5
			C1051.7,80.092,1052.399,79.391,1053.2,79.391z"/>
	</g>
	<line fill="none" stroke="#000000" stroke-width="0.459" x1="1039.1" y1="84.491" x2="1050.2" y2="84.491"/>
	<g enable-background="new    ">
		<path d="M1046.2,81.291c2.1,0,3.3,1.5,2.6,3.301s-2.9,3.301-5,3.199c-2.1,0-3.3-1.5-2.6-3.3
			C1041.8,82.691,1044,81.291,1046.2,81.291z"/>
	</g>
	<line fill="none" stroke="#000000" stroke-width="0.459" x1="1048.1" y1="83.291" x2="1048.1" y2="60.991"/>
	<line fill="none" stroke="#000000" stroke-width="0.459" x1="1072.5" y1="84.491" x2="1083.6" y2="84.491"/>
	<g enable-background="new    ">
		<path d="M1079.5,81.291c2.1,0,3.3,1.5,2.6,3.301s-2.899,3.301-5,3.199c-2.1-0.1-3.3-1.5-2.6-3.3
			C1075.1,82.691,1077.399,81.291,1079.5,81.291z"/>
	</g>
	<line fill="none" stroke="#000000" stroke-width="0.459" x1="1081.399" y1="83.291" x2="1081.399" y2="60.991"/>
	<path d="M1047.8,59.191h34v3.6h-34V59.191z"/>
	<path d="M1075.7,64.592h6.1v3.601h-6.1V64.592z"/>
	<g enable-background="new    ">
		<path d="M1041.2,27.991l3.3-8.601h1.2l3.5,8.601h-1.302l-1-2.601h-3.6l-0.9,2.601H1041.2z M1043.7,24.491h2.898l-0.898-2.399
			c-0.302-0.699-0.5-1.301-0.602-1.801c-0.1,0.602-0.3,1.102-0.5,1.602L1043.7,24.491z"/>
	</g>
	<g enable-background="new    ">
		<path d="M976.1,45.691v-8.6h5.8v1h-4.698v2.698h4v1h-4v3.899H976.1V45.691z"/>
	</g>
	<line fill="none" stroke="#000000" stroke-width="0.459" x1="1104.899" y1="79.592" x2="1104.899" y2="55.592"/>
	<g enable-background="new    ">
		<path d="M1102.899,77.691c2.102,0,3.302,1.5,2.602,3.3s-2.9,3.3-5,3.2c-2.102,0-3.302-1.5-2.602-3.301
			C1098.5,79.092,1100.8,77.592,1102.899,77.691z"/>
	</g>
	<line fill="none" stroke="#000000" stroke-width="0.459" x1="1143" y1="83.291" x2="1143" y2="59.191"/>
	<line fill="none" stroke="#000000" stroke-width="0.459" x1="1134" y1="84.491" x2="1145.1" y2="84.491"/>
	<g enable-background="new    ">
		<path d="M1141.1,81.291c2.101,0,3.3,1.5,2.601,3.301s-2.899,3.301-5,3.199c-2.101-0.1-3.301-1.5-2.601-3.3
			C1136.7,82.691,1138.899,81.291,1141.1,81.291z"/>
	</g>
	<line fill="none" stroke="#000000" stroke-width="0.459" x1="1181.399" y1="72.391" x2="1181.399" y2="48.391"/>
	<g enable-background="new    ">
		<path d="M1179.5,70.491c2.1,0,3.3,1.5,2.6,3.3c-0.7,1.801-2.899,3.301-5,3.2c-2.1,0-3.3-1.5-2.6-3.3
			C1175.1,71.891,1177.399,70.391,1179.5,70.491z"/>
	</g>
	<g enable-background="new    ">
		<path d="M1098.7,45.691v-8.6h5.8v1h-4.7v2.698h4v1h-4v3.899h-1.1V45.691z"/>
	</g>
	<line fill="none" stroke="#000000" stroke-width="0.459" x1="1228.899" y1="75.991" x2="1228.899" y2="51.991"/>
	<g enable-background="new    ">
		<path d="M1228.2,77.391c-0.5,1.301-1.602,2.301-2.302,2.701c-0.8,0.398-1.8,0.6-3,0.5c-0.698-0.102-1.898-0.302-2.398-1.102
			c-0.5-0.898-0.2-1.898,0-2.398c0.5-1.302,1.5-2.102,2.198-2.602c0.802-0.398,1.9-0.801,3.302-0.6c0.5,0.1,1.698,0.199,2.198,1
			C1228.7,75.691,1228.399,76.891,1228.2,77.391z M1225.2,75.391c-0.602,0.301-1,0.5-1.5,0.801c-0.5,0.3-1,0.6-1.5,0.9
			c-0.7,0.5-1.7,1.299-1.2,2.1c0.5,0.8,1.7,0.4,2.5,0c0.6-0.301,1-0.5,1.5-0.801c0.5-0.299,0.898-0.5,1.5-0.899
			c0.7-0.5,1.7-1.3,1.2-2.101C1227.2,74.592,1226,74.991,1225.2,75.391z"/>
	</g>
	<g enable-background="new    ">
		<path d="M1307.899,79.391c0.802,0,1.5,0.601,1.5,1.399c0,0.802-0.698,1.5-1.5,1.5c-0.8,0-1.5-0.698-1.5-1.5
			C1306.399,80.092,1307.1,79.391,1307.899,79.391z"/>
	</g>
	<line fill="none" stroke="#000000" stroke-width="0.459" x1="1293.8" y1="84.491" x2="1304.899" y2="84.491"/>
	<g enable-background="new    ">
		<path d="M1300.8,81.291c2.1,0,3.3,1.5,2.6,3.301c-0.699,1.801-2.898,3.301-5,3.199c-2.1-0.1-3.3-1.5-2.6-3.3
			S1298.7,81.291,1300.8,81.291z"/>
	</g>
	<line fill="none" stroke="#000000" stroke-width="0.459" x1="1302.8" y1="83.291" x2="1302.8" y2="60.991"/>
	<line fill="none" stroke="#000000" stroke-width="0.459" x1="1317.5" y1="84.491" x2="1328.6" y2="84.491"/>
	<g enable-background="new    ">
		<path d="M1324.5,81.291c2.1,0,3.3,1.5,2.6,3.301s-2.899,3.301-5,3.199c-2.1-0.1-3.3-1.5-2.6-3.3S1322.399,81.291,1324.5,81.291z"
			/>
	</g>
	<line fill="none" stroke="#000000" stroke-width="0.459" x1="1326.5" y1="83.291" x2="1326.5" y2="60.991"/>
	<path d="M1302.399,59.191h24.4v3.6h-24.4V59.191z"/>
	<path d="M1320.7,64.592h6.1v3.601h-6.1V64.592z"/>
	<g enable-background="new    ">
		<path d="M1227.3,42.691l1.1,0.3c-0.199,0.899-0.699,1.601-1.3,2.101c-0.6,0.5-1.4,0.699-2.3,0.699c-0.9,0-1.7-0.199-2.301-0.6
			s-1-0.9-1.301-1.6c-0.3-0.701-0.5-1.5-0.5-2.302c0-0.899,0.2-1.698,0.5-2.3c0.301-0.7,0.801-1.2,1.5-1.5
			c0.602-0.301,1.301-0.5,2.102-0.5c0.898,0,1.6,0.199,2.198,0.699c0.602,0.5,1,1.101,1.2,1.801l-1.1,0.3
			c-0.2-0.601-0.5-1.101-0.9-1.399c-0.398-0.299-0.898-0.399-1.398-0.399c-0.7,0-1.2,0.2-1.7,0.5c-0.4,0.3-0.8,0.7-0.9,1.3
			c-0.1,0.602-0.3,1.102-0.3,1.7c0,0.7,0.1,1.399,0.3,1.899s0.5,1,1,1.201c0.4,0.299,0.9,0.398,1.5,0.398c0.601,0,1.2-0.2,1.601-0.6
			C1226.8,43.991,1227.1,43.391,1227.3,42.691z"/>
	</g>
	<line fill="none" stroke="#000000" stroke-width="0.459" x1="1349.899" y1="79.592" x2="1349.899" y2="55.592"/>
	<g enable-background="new    ">
		<path d="M1348,77.691c2.1,0,3.3,1.5,2.6,3.3s-2.899,3.3-5,3.2c-2.1,0-3.3-1.5-2.6-3.301
			C1343.6,79.092,1345.899,77.592,1348,77.691z"/>
	</g>
	<line fill="none" stroke="#000000" stroke-width="0.459" x1="1388.1" y1="83.291" x2="1388.1" y2="59.191"/>
	<line fill="none" stroke="#000000" stroke-width="0.459" x1="1379.1" y1="84.491" x2="1390.2" y2="84.491"/>
	<g enable-background="new    ">
		<path d="M1386.1,81.291c2.101,0,3.3,1.5,2.601,3.301s-2.899,3.301-5,3.199c-2.101-0.1-3.301-1.5-2.601-3.3
			C1381.7,82.691,1384,81.291,1386.1,81.291z"/>
	</g>
	<line fill="none" stroke="#000000" stroke-width="0.459" x1="1426.5" y1="68.791" x2="1426.5" y2="44.791"/>
	<g enable-background="new    ">
		<path d="M1424.5,66.891c2.1,0,3.3,1.5,2.6,3.301c-0.7,1.8-2.899,3.3-5,3.199c-2.1,0-3.3-1.5-2.6-3.299
			C1420.2,68.291,1422.399,66.791,1424.5,66.891z"/>
	</g>
	<line fill="none" stroke="#000000" stroke-width="0.459" x1="1473.899" y1="72.391" x2="1473.899" y2="48.391"/>
	<g enable-background="new    ">
		<path d="M1473.3,73.791c-0.5,1.301-1.6,2.301-2.3,2.7c-0.802,0.399-1.802,0.601-3,0.5c-0.7-0.101-1.9-0.3-2.4-1.101
			c-0.5-0.899-0.2-1.899,0-2.399c0.5-1.3,1.5-2.101,2.2-2.601c0.8-0.399,1.898-0.799,3.3-0.601c0.5,0.101,1.7,0.2,2.2,1
			C1473.8,72.092,1473.399,73.291,1473.3,73.791z M1470.3,71.791c-0.6,0.301-1,0.5-1.5,0.801s-1,0.601-1.5,0.899
			c-0.7,0.5-1.7,1.3-1.2,2.101s1.7,0.399,2.5,0c0.601-0.301,1-0.5,1.5-0.801c0.5-0.3,0.9-0.5,1.5-0.898c0.7-0.5,1.7-1.301,1.2-2.102
			C1472.3,70.991,1471.1,71.391,1470.3,71.791z"/>
	</g>
	<g enable-background="new    ">
		<path d="M1550.6,79.391c0.8,0,1.5,0.601,1.5,1.399c0,0.802-0.7,1.5-1.5,1.5s-1.5-0.698-1.5-1.5
			C1549.1,80.092,1549.7,79.391,1550.6,79.391z"/>
	</g>
	<line fill="none" stroke="#000000" stroke-width="0.459" x1="1536.399" y1="84.491" x2="1547.6" y2="84.491"/>
	<g enable-background="new    ">
		<path d="M1543.5,81.291c2.1,0,3.3,1.5,2.6,3.301s-2.899,3.301-5,3.199c-2.1-0.1-3.3-1.5-2.6-3.3
			C1539.1,82.691,1541.399,81.291,1543.5,81.291z"/>
	</g>
	<line fill="none" stroke="#000000" stroke-width="0.459" x1="1545.399" y1="83.291" x2="1545.399" y2="60.991"/>
	<line fill="none" stroke="#000000" stroke-width="0.459" x1="1560.2" y1="84.491" x2="1571.3" y2="84.491"/>
	<g enable-background="new    ">
		<path d="M1567.2,81.291c2.1,0,3.3,1.5,2.6,3.301s-2.9,3.301-5,3.199c-2.1-0.1-3.3-1.5-2.6-3.3
			C1562.8,82.691,1565.1,81.291,1567.2,81.291z"/>
	</g>
	<line fill="none" stroke="#000000" stroke-width="0.459" x1="1569.1" y1="83.291" x2="1569.1" y2="60.991"/>
	<path d="M1545.1,59.191h24.4v3.6h-24.4V59.191z"/>
	<path d="M1563.399,64.592h6.102v3.601h-6.102V64.592z"/>
	<g enable-background="new    ">
		<path d="M1466.3,45.691v-8.6h5.8v1h-4.7v2.698h4v1h-4v3.899h-1.1V45.691z"/>
	</g>
	<line fill="none" stroke="#000000" stroke-width="0.459" x1="1588.399" y1="60.391" x2="1588.399" y2="84.491"/>
	<g enable-background="new    ">
		<path d="M1593.3,56.092c2.1,0,3.3,1.5,2.6,3.301c-0.699,1.799-2.898,3.299-5,3.199c-2.1,0-3.3-1.5-2.6-3.301
			C1589,57.491,1591.2,55.991,1593.3,56.092z"/>
	</g>
	<line fill="none" stroke="#000000" stroke-width="0.459" x1="1633.399" y1="65.191" x2="1633.399" y2="41.191"/>
	<g enable-background="new    ">
		<path d="M1631.5,63.291c2.1,0,3.3,1.5,2.6,3.301s-2.899,3.301-5,3.199c-2.1,0-3.3-1.5-2.6-3.3
			C1627.1,64.691,1629.3,63.191,1631.5,63.291z"/>
	</g>
	<line fill="none" stroke="#000000" stroke-width="0.459" x1="1671.5" y1="72.391" x2="1671.5" y2="48.391"/>
	<g enable-background="new    ">
		<path d="M1669.6,70.491c2.101,0,3.3,1.5,2.601,3.3c-0.699,1.801-2.899,3.301-5,3.2c-2.101,0-3.301-1.5-2.601-3.3
			C1665.2,71.891,1667.5,70.391,1669.6,70.491z"/>
	</g>
	<line fill="none" stroke="#000000" stroke-width="0.459" x1="1717.5" y1="75.991" x2="1717.5" y2="51.991"/>
	<g enable-background="new    ">
		<path d="M1715.6,74.092c2.101,0,3.3,1.5,2.601,3.301c-0.699,1.799-2.899,3.299-5,3.199c-2.101,0-3.301-1.5-2.601-3.301
			C1711.2,75.491,1713.399,73.991,1715.6,74.092z"/>
	</g>
	<line fill="none" stroke="#000000" stroke-width="0.459" x1="1753.2" y1="79.592" x2="1753.2" y2="55.592"/>
	<g enable-background="new    ">
		<path d="M1751.3,77.691c2.1,0,3.3,1.5,2.6,3.3c-0.698,1.8-2.898,3.3-5,3.2c-2.1-0.1-3.3-1.5-2.6-3.301
			C1746.899,79.092,1749.2,77.592,1751.3,77.691z"/>
	</g>
	<g enable-background="new    ">
		<path d="M1798,57.791c0.8,0,1.5,0.602,1.5,1.4s-0.7,1.5-1.5,1.5s-1.5-0.7-1.5-1.5C1796.5,58.391,1797.2,57.791,1798,57.791z"/>
	</g>
	<g enable-background="new    ">
		<path d="M1790.899,59.691c2.102,0,3.302,1.5,2.602,3.3s-2.9,3.3-5,3.2c-2.102,0-3.3-1.5-2.602-3.301
			C1786.6,61.092,1788.8,59.592,1790.899,59.691z"/>
	</g>
	<line fill="none" stroke="#000000" stroke-width="0.459" x1="1786.1" y1="63.991" x2="1786.1" y2="86.291"/>
	<g enable-background="new    ">
		<path d="M1816.5,59.691c2.1,0,3.3,1.5,2.6,3.3s-2.898,3.3-5,3.2c-2.1,0-3.3-1.5-2.6-3.301
			C1812.1,61.092,1814.3,59.592,1816.5,59.691z"/>
	</g>
	<line fill="none" stroke="#000000" stroke-width="0.459" x1="1811.6" y1="63.991" x2="1811.6" y2="86.291"/>
	<path d="M1785.7,84.391h26.198v3.601H1785.7V84.391z"/>
	<path d="M1805.1,78.991h6.101v3.601h-6.101V78.991z"/>
	<g enable-background="new    ">
		<path d="M1711.2,45.691v-8.6h3.198c0.7,0,1.2,0.1,1.602,0.299c0.398,0.201,0.7,0.399,0.898,0.801c0.2,0.4,0.302,0.699,0.302,1.1
			s-0.102,0.7-0.302,1c-0.198,0.301-0.5,0.602-0.898,0.801c0.5,0.199,0.898,0.399,1.2,0.801c0.3,0.398,0.398,0.799,0.398,1.299
			c0,0.4-0.102,0.801-0.3,1.101c-0.2,0.302-0.4,0.601-0.602,0.802c-0.2,0.198-0.6,0.299-0.898,0.398
			c-0.4,0.102-0.802,0.102-1.4,0.102h-3.198V45.691z M1712.3,40.691h1.9c0.5,0,0.898,0,1.1-0.1c0.3-0.102,0.5-0.201,0.7-0.4
			c0.1-0.2,0.2-0.4,0.2-0.801c0-0.299-0.102-0.5-0.2-0.799c-0.102-0.302-0.3-0.4-0.602-0.4c-0.3,0-0.698-0.1-1.3-0.1h-1.7v2.6
			H1712.3L1712.3,40.691z M1712.3,44.691h2.1c0.4,0,0.602,0,0.802,0c0.3,0,0.5-0.1,0.698-0.2c0.2-0.101,0.302-0.3,0.4-0.5
			s0.2-0.5,0.2-0.7c0-0.3-0.102-0.6-0.2-0.8c-0.2-0.2-0.4-0.399-0.7-0.5s-0.7-0.101-1.3-0.101h-2V44.691z"/>
	</g>
	<g enable-background="new    ">
		<path d="M1719.7,36.391c0,0.201,0,1.5,0,1.5c0.898-0.799,1.398-1,2.398-1c1.2,0,2,1.201,2,2.101c0,0.5-0.102,1-0.3,1.399
			c-0.2,0.5-0.802,0.899-1.2,1.301c-0.398,0.4-3.602,2.6-3.602,2.6v-14.1h0.602C1719.7,30.191,1719.7,33.191,1719.7,36.391z
			 M1719.899,38.691c-0.3,0.6-0.3,1.6-0.3,2.4v2.1c0,0,0.898-0.7,1.3-1.2c0.4-0.399,0.802-0.899,0.9-1.601
			c0.198-0.699,0.1-1.5-0.302-2C1721.3,38.092,1720.399,37.791,1719.899,38.691z"/>
	</g>
	<line fill="none" stroke="#000000" stroke-width="0.459" x1="1840" y1="65.191" x2="1840" y2="41.191"/>
	<g enable-background="new    ">
		<path d="M1838.1,63.291c2.101,0,3.3,1.5,2.601,3.301s-2.899,3.301-5,3.199c-2.101,0-3.301-1.5-2.601-3.3
			C1833.7,64.691,1836,63.191,1838.1,63.291z"/>
	</g>
	<line fill="none" stroke="#000000" stroke-width="0.459" x1="1878.2" y1="72.391" x2="1878.2" y2="48.391"/>
	<g enable-background="new    ">
		<path d="M1876.2,70.491c2.1,0,3.3,1.5,2.6,3.3c-0.7,1.801-2.9,3.301-5,3.2s-3.3-1.5-2.6-3.3
			C1871.899,71.891,1874.1,70.391,1876.2,70.491z"/>
	</g>
	<line fill="none" stroke="#000000" stroke-width="0.459" x1="1916.6" y1="68.791" x2="1916.6" y2="44.791"/>
	<g enable-background="new    ">
		<path d="M1914.7,66.891c2.1,0,3.3,1.5,2.6,3.301c-0.7,1.8-2.9,3.3-5,3.199c-2.1,0-3.3-1.5-2.6-3.299
			C1910.3,68.291,1912.5,66.791,1914.7,66.891z"/>
	</g>
	<g enable-background="new    ">
		<path d="M1833.8,45.691v-8.6h5.8v1h-4.7v2.698h4v1h-4v3.899h-1.1V45.691z"/>
	</g>
	<g enable-background="new    ">
		<path d="M1916.5,42.691l1.1,0.3c-0.2,0.899-0.7,1.601-1.3,2.101s-1.4,0.699-2.3,0.699c-0.9,0-1.7-0.199-2.3-0.6
			c-0.602-0.4-1-0.9-1.302-1.6c-0.3-0.701-0.5-1.5-0.5-2.302c0-0.899,0.2-1.698,0.5-2.3c0.302-0.7,0.802-1.2,1.5-1.5
			c0.602-0.301,1.302-0.5,2.102-0.5c0.898,0,1.6,0.199,2.2,0.699c0.6,0.5,1,1.101,1.198,1.801l-1.1,0.3
			c-0.2-0.601-0.5-1.101-0.9-1.399c-0.398-0.299-0.898-0.399-1.398-0.399c-0.7,0-1.2,0.2-1.7,0.5c-0.4,0.3-0.8,0.7-0.9,1.3
			c-0.1,0.602-0.3,1.102-0.3,1.7c0,0.7,0.102,1.399,0.3,1.899c0.2,0.5,0.5,1,1,1.201c0.4,0.299,0.9,0.398,1.5,0.398
			c0.602,0,1.2-0.2,1.602-0.6C1916,43.991,1916.3,43.391,1916.5,42.691z"/>
	</g>
	<line fill="none" stroke="#000000" stroke-width="0.459" x1="1964.1" y1="72.391" x2="1964.1" y2="48.391"/>
	<g enable-background="new    ">
		<path d="M1963.399,73.791c-0.5,1.301-1.6,2.301-2.3,2.7c-0.8,0.399-1.8,0.601-3,0.5c-0.7-0.101-1.898-0.3-2.398-1.101
			c-0.5-0.899-0.2-1.899,0-2.399c0.5-1.3,1.5-2.101,2.198-2.601c0.802-0.399,1.9-0.799,3.302-0.601c0.5,0.101,1.698,0.2,2.198,1
			C1963.899,72.092,1963.6,73.291,1963.399,73.791z M1960.399,71.791c-0.6,0.301-1,0.5-1.5,0.801s-1,0.601-1.5,0.899
			c-0.698,0.5-1.698,1.3-1.198,2.101s1.698,0.399,2.5,0c0.6-0.301,1-0.5,1.5-0.801c0.5-0.3,0.898-0.5,1.5-0.898
			c0.698-0.5,1.698-1.301,1.198-2.102C1962.399,70.991,1961.2,71.391,1960.399,71.791z"/>
	</g>
	<g enable-background="new    ">
		<path d="M1956.399,45.691v-8.6h5.802v1h-4.7v2.698h4v1h-4v3.899h-1.102V45.691z"/>
	</g>
</g>
</svg>
