<?xml version="1.0" encoding="utf-8"?>
<!-- Generator: Adobe Illustrator 16.0.0, SVG Export Plug-In . SVG Version: 6.00 Build 0)  -->
<!DOCTYPE svg PUBLIC "-//W3C//DTD SVG 1.1//EN" "http://www.w3.org/Graphics/SVG/1.1/DTD/svg11.dtd">
<svg version="1.1" id="Layer_1" xmlns="http://www.w3.org/2000/svg" xmlns:xlink="http://www.w3.org/1999/xlink" x="0px" y="0px"
	 width="1800px" height="60.5px" viewBox="260 314 1800 60.5" enable-background="new 260 314 1800 60.5" xml:space="preserve">
<g id="Music">
	<rect x="260" y="314.4" fill="#FFFFFF" width="1800" height="93.6"/>
	<g enable-background="new    ">
		<path d="M297.8,356c-4-1.9-4.6-4.3-4.8-6.8c-0.2-2.7,1.5-5.4,3.1-6.9c0.9-0.9,1.9-1.7,3.1-2.6c0-0.7-0.2-0.9-0.3-1.9
			c0-0.4-0.3-2.3,0.1-4.5c0.2-1.3,1.9-4.3,3-4.3c0.9,0,2.2,3.4,2.2,5.2c0.1,2.7-0.6,3.9-1.4,5.3c-0.4,0.7-0.8,1.2-1.3,1.7
			c-0.5,0.6-1,0.9-1.5,1.3c0,0,0.6,3.5,0.6,3.7c1.2-0.2,2.7,0.3,3.3,0.7c1.4,1,1.9,2.4,2,3.8c0.2,2.2-1,4.5-3.6,5.5
			c0,0,0.4,2.8,0.5,3.3c0.2,1.5,0.2,2.5-0.2,3.1c-0.6,1-1.5,2-3.2,2.1c-1.3,0.1-4-0.6-4.1-2.7c-0.1-1.2,0.5-2.6,2-2.7
			c0.9-0.1,2,0.7,2.1,1.8c0.1,0.9-0.5,1.9-2.1,2.4c0.2,0.3,1,0.7,2.1,0.7c1.1,0,2.3-0.7,2.8-1.7c0.3-0.7,0.3-1.8,0.2-2.9
			c-0.1-0.4-0.5-3.3-0.5-3.3C300.5,356.5,298.6,356.3,297.8,356z M298.1,351.4c0,0.9,0.8,2,1.5,2.4c-0.1,0.1-0.2,0.2-0.2,0.2
			c-0.8-0.4-1.5-1-1.6-1.2c-0.6-0.7-0.8-1.2-0.9-2.3c-0.1-1.1,0.5-2.5,1.8-3.5c0.7-0.5,1-0.6,1.6-0.7l-0.6-3.5
			c-0.6,0.3-3.1,2.3-4.1,3.9c-0.9,1.4-1.5,2.6-1.4,4c0.2,3.2,3.7,5.8,7.5,4.9c0,0-1.1-6.8-1.1-6.8
			C298.6,348.9,298.1,350.5,298.1,351.4z M299.7,339.2c1.7-1.3,3.9-3.8,3.8-5.7c0-0.6-0.3-1.7-1.2-1.7
			C300.4,331.9,299.3,336.1,299.7,339.2z M302.3,355.5c2.2-0.7,2.3-2.6,2.2-3.8c-0.1-0.9-0.5-3.1-3.3-2.9L302.3,355.5z"/>
	</g>
	<g enable-background="new    ">
		<path d="M318.2,353.5v1.3c0,0.8,0.9,0.7,0.9,0.7v0.5h-4.2v-0.5c0,0,0.9,0,0.9-0.7v-1.3h-3.6l-0.3-0.4c2.3-3.1,2.3-3.7,2.9-6.5h3.3
			c-0.8,1.5-3.4,4.2-5.3,6.4h3v-2.4l2.3-2.6v4.9h1.4v0.5H318.2z"/>
	</g>
	<g enable-background="new    ">
		<path d="M315.6,346.5c-2,0-3.4-1-3.4-2.5c0-0.7,0.7-1.4,1.3-1.4c0.7,0,1.5,0.4,1.5,1.2c0,1-0.7,1.1-0.7,1.8c0,0.2,0.6,0.5,0.8,0.5
			c1.3,0,1.9-1.5,1.9-2.3c0-1.7-1.5-1.5-2.7-1.7c0,0,0-0.5,0-0.5c1.2-0.2,2.5-0.6,2.4-2c0-2-1.6-1.9-1.9-1.9c-0.1,0-0.6,0.3-0.5,0.5
			c0.1,0.4,0.7,0.6,0.9,1.4c0.2,0.7-0.6,1.5-1.3,1.5c-0.8,0-1.5-0.9-1.5-1.4c0-1.1,0.9-2.5,3.9-2.5c1.3,0,2.7,0.9,2.7,2.3
			c0,1.9-2.2,2-2.2,2.3c1.1,0.1,2.6,0.5,2.6,2C319.4,345.7,317,346.5,315.6,346.5z"/>
	</g>
	<line fill="none" stroke="#000000" stroke-width="0.459" x1="339.8" y1="337" x2="339.8" y2="356.2"/>
	<line fill="none" stroke="#000000" stroke-width="0.459" x1="392.6" y1="337" x2="392.6" y2="356.2"/>
	<line fill="none" stroke="#000000" stroke-width="0.459" x1="445.4" y1="337" x2="445.4" y2="356.2"/>
	<line fill="none" stroke="#000000" stroke-width="0.459" x1="498.2" y1="337" x2="498.2" y2="356.2"/>
	<line fill="none" stroke="#000000" stroke-width="0.459" x1="551" y1="337" x2="551" y2="356.2"/>
	<line fill="none" stroke="#000000" stroke-width="0.459" x1="603.8" y1="337" x2="603.8" y2="356.2"/>
	<line fill="none" stroke="#000000" stroke-width="0.459" x1="656.6" y1="337" x2="656.6" y2="356.2"/>
	<line fill="none" stroke="#000000" stroke-width="0.459" x1="709.4" y1="337" x2="709.4" y2="356.2"/>
	<line fill="none" stroke="#000000" stroke-width="0.459" x1="762.2" y1="337" x2="762.2" y2="356.2"/>
	<line fill="none" stroke="#000000" stroke-width="0.459" x1="815" y1="337" x2="815" y2="356.2"/>
	<line fill="none" stroke="#000000" stroke-width="0.459" x1="867.8" y1="337" x2="867.8" y2="356.2"/>
	<line fill="none" stroke="#000000" stroke-width="0.459" x1="920.6" y1="337" x2="920.6" y2="356.2"/>
	<line fill="none" stroke="#000000" stroke-width="0.459" x1="973.4" y1="337" x2="973.4" y2="356.2"/>
	<line fill="none" stroke="#000000" stroke-width="0.459" x1="1026.2" y1="337" x2="1026.2" y2="356.2"/>
	<line fill="none" stroke="#000000" stroke-width="0.459" x1="1079" y1="337" x2="1079" y2="356.2"/>
	<line fill="none" stroke="#000000" stroke-width="0.459" x1="1131.8" y1="337" x2="1131.8" y2="356.2"/>
	<line fill="none" stroke="#000000" stroke-width="0.459" x1="1184.6" y1="337" x2="1184.6" y2="356.2"/>
	<line fill="none" stroke="#000000" stroke-width="0.459" x1="1237.4" y1="337" x2="1237.4" y2="356.2"/>
	<line fill="none" stroke="#000000" stroke-width="0.459" x1="1290.2" y1="337" x2="1290.2" y2="356.2"/>
	<line fill="none" stroke="#000000" stroke-width="0.459" x1="1343" y1="337" x2="1343" y2="356.2"/>
	<line fill="none" stroke="#000000" stroke-width="0.459" x1="1395.8" y1="337" x2="1395.8" y2="356.2"/>
	<line fill="none" stroke="#000000" stroke-width="0.459" x1="1448.6" y1="337" x2="1448.6" y2="356.2"/>
	<line fill="none" stroke="#000000" stroke-width="0.459" x1="1501.4" y1="337" x2="1501.4" y2="356.2"/>
	<line fill="none" stroke="#000000" stroke-width="0.459" x1="1554.2" y1="337" x2="1554.2" y2="356.2"/>
	<line fill="none" stroke="#000000" stroke-width="0.459" x1="1607" y1="337" x2="1607" y2="356.2"/>
	<line fill="none" stroke="#000000" stroke-width="0.459" x1="1659.8" y1="337" x2="1659.8" y2="356.2"/>
	<line fill="none" stroke="#000000" stroke-width="0.459" x1="1712.6" y1="337" x2="1712.6" y2="356.2"/>
	<line fill="none" stroke="#000000" stroke-width="0.459" x1="1765.4" y1="337" x2="1765.4" y2="356.2"/>
	<line fill="none" stroke="#000000" stroke-width="0.459" x1="1818.2" y1="337" x2="1818.2" y2="356.2"/>
	<line fill="none" stroke="#000000" stroke-width="0.459" x1="1871" y1="337" x2="1871" y2="356.2"/>
	<line fill="none" stroke="#000000" stroke-width="0.459" x1="1923.8" y1="337" x2="1923.8" y2="356.2"/>
	<line fill="none" stroke="#000000" stroke-width="0.459" x1="1976.6" y1="337" x2="1976.6" y2="356.2"/>
	<line fill="none" stroke="#000000" stroke-width="2.419" x1="2030.6" y1="337" x2="2030.6" y2="356.2"/>
	<line fill="none" stroke="#000000" stroke-width="0.459" x1="2026.7" y1="337" x2="2026.7" y2="356.2"/>
	<line fill="none" stroke="#000000" stroke-width="0.459" x1="288.2" y1="337" x2="2031.8" y2="337"/>
	<line fill="none" stroke="#000000" stroke-width="0.459" x1="288.2" y1="341.8" x2="2031.8" y2="341.8"/>
	<line fill="none" stroke="#000000" stroke-width="0.459" x1="288.2" y1="346.6" x2="2031.8" y2="346.6"/>
	<line fill="none" stroke="#000000" stroke-width="0.459" x1="288.2" y1="351.4" x2="2031.8" y2="351.4"/>
	<line fill="none" stroke="#000000" stroke-width="0.459" x1="288.2" y1="356.2" x2="2031.8" y2="356.2"/>
	<line fill="none" stroke="#000000" stroke-width="0.459" x1="327" y1="350.6" x2="327" y2="334.6"/>
	<g enable-background="new    ">
		<path d="M325.7,349.3c1.4,0,2.2,1,1.8,2.2c-0.4,1.2-1.9,2.2-3.4,2.2c-1.4,0-2.2-1-1.7-2.2C322.8,350.2,324.3,349.3,325.7,349.3z"
			/>
	</g>
	<g enable-background="new    ">
		<path d="M322.6,325l2.6-6.9h1l2.8,6.9h-1l-0.8-2.1h-2.9l-0.8,2.1H322.6z M324.6,322.2h2.3l-0.7-1.9c-0.2-0.6-0.4-1.1-0.5-1.4
			c-0.1,0.4-0.2,0.9-0.4,1.3L324.6,322.2z"/>
	</g>
	<line fill="none" stroke="#000000" stroke-width="0.459" x1="350.6" y1="348.2" x2="350.6" y2="332.2"/>
	<g enable-background="new    ">
		<path d="M350.1,349.1c-0.3,0.9-1,1.5-1.6,1.8c-0.5,0.3-1.2,0.4-2,0.3c-0.5,0-1.3-0.2-1.6-0.7c-0.3-0.6-0.1-1.2,0-1.6
			c0.3-0.8,1-1.4,1.5-1.7c0.5-0.3,1.3-0.5,2.2-0.4c0.4,0,1.1,0.1,1.5,0.7C350.4,348,350.2,348.8,350.1,349.1z M348.1,347.8
			c-0.4,0.2-0.7,0.4-1,0.5c-0.3,0.2-0.6,0.4-1,0.6c-0.5,0.3-1.1,0.9-0.8,1.4c0.3,0.6,1.1,0.3,1.6,0c0.4-0.2,0.7-0.4,1-0.5
			c0.3-0.2,0.6-0.4,1-0.6c0.5-0.3,1.1-0.9,0.8-1.4C349.5,347.2,348.7,347.5,348.1,347.8z"/>
	</g>
	<line fill="none" stroke="#000000" stroke-width="0.459" x1="379" y1="350.6" x2="379" y2="334.6"/>
	<g enable-background="new    ">
		<path d="M377.7,349.3c1.4,0,2.2,1,1.8,2.2c-0.4,1.2-1.9,2.2-3.4,2.2c-1.4,0-2.2-1-1.7-2.2C374.8,350.2,376.3,349.3,377.7,349.3z"
			/>
	</g>
	<g enable-background="new    ">
		<path d="M348,331l0.9,0.2c-0.2,0.7-0.5,1.3-1,1.7c-0.5,0.4-1.1,0.6-1.8,0.6c-0.7,0-1.3-0.2-1.8-0.5c-0.5-0.3-0.8-0.7-1.1-1.3
			c-0.2-0.6-0.4-1.2-0.4-1.8c0-0.7,0.1-1.3,0.4-1.9c0.3-0.5,0.7-0.9,1.2-1.2c0.5-0.3,1.1-0.4,1.7-0.4c0.7,0,1.3,0.2,1.7,0.5
			c0.5,0.3,0.8,0.8,1,1.5l-0.9,0.2c-0.2-0.5-0.4-0.9-0.7-1.1c-0.3-0.2-0.7-0.3-1.1-0.3c-0.5,0-1,0.1-1.3,0.4s-0.6,0.6-0.7,1
			c-0.1,0.4-0.2,0.9-0.2,1.3c0,0.6,0.1,1.1,0.3,1.5c0.2,0.4,0.4,0.8,0.8,1s0.7,0.3,1.2,0.3c0.5,0,0.9-0.1,1.3-0.4
			C347.7,332,347.9,331.6,348,331z"/>
	</g>
	<line fill="none" stroke="#000000" stroke-width="0.459" x1="403.4" y1="353" x2="403.4" y2="337"/>
	<g enable-background="new    ">
		<path d="M402.9,353.9c-0.3,0.9-1,1.5-1.6,1.8c-0.5,0.3-1.2,0.4-2,0.3c-0.5,0-1.3-0.2-1.6-0.7c-0.3-0.6-0.1-1.2,0-1.6
			c0.3-0.8,1-1.4,1.5-1.7c0.5-0.3,1.3-0.5,2.2-0.4c0.4,0,1.1,0.1,1.5,0.7C403.2,352.8,403,353.6,402.9,353.9z M400.9,352.6
			c-0.4,0.2-0.7,0.4-1,0.5c-0.3,0.2-0.6,0.4-1,0.6c-0.5,0.3-1.1,0.9-0.8,1.4c0.3,0.6,1.1,0.3,1.6,0c0.4-0.2,0.7-0.4,1-0.5
			c0.3-0.2,0.6-0.4,1-0.6c0.5-0.3,1.1-0.9,0.8-1.4C402.3,352,401.5,352.3,400.9,352.6z"/>
	</g>
	<line fill="none" stroke="#000000" stroke-width="0.459" x1="431.8" y1="355.4" x2="431.8" y2="339.4"/>
	<g enable-background="new    ">
		<path d="M430.5,354.1c1.4,0,2.2,1,1.8,2.2c-0.4,1.2-1.9,2.2-3.4,2.2c-1.4,0-2.2-1-1.7-2.2C427.6,355,429.1,354.1,430.5,354.1z"/>
	</g>
	<line fill="none" stroke="#000000" stroke-width="0.459" x1="455.2" y1="353" x2="455.2" y2="337"/>
	<g enable-background="new    ">
		<path d="M453.9,351.7c1.4,0,2.2,1,1.8,2.2c-0.4,1.2-1.9,2.2-3.4,2.2c-1.4,0-2.2-1-1.7-2.2C451,352.6,452.5,351.7,453.9,351.7z"/>
	</g>
	<line fill="none" stroke="#000000" stroke-width="0.459" x1="474.4" y1="357.8" x2="474.4" y2="341.8"/>
	<g enable-background="new    ">
		<path d="M473.9,358.7c-0.3,0.9-1,1.5-1.6,1.8c-0.5,0.3-1.2,0.4-2,0.3c-0.5,0-1.3-0.2-1.6-0.7c-0.3-0.6-0.1-1.2,0-1.6
			c0.3-0.8,1-1.4,1.5-1.7c0.5-0.3,1.3-0.5,2.2-0.4c0.4,0,1.1,0.1,1.5,0.7C474.2,357.6,474,358.4,473.9,358.7z M471.9,357.4
			c-0.4,0.2-0.7,0.4-1,0.5c-0.3,0.2-0.6,0.4-1,0.6c-0.5,0.3-1.1,0.9-0.8,1.4c0.3,0.6,1.1,0.3,1.6,0c0.4-0.2,0.7-0.4,1-0.5
			c0.3-0.2,0.6-0.4,1-0.6c0.5-0.3,1.1-0.9,0.8-1.4C473.3,356.8,472.5,357.1,471.9,357.4z"/>
	</g>
	<g enable-background="new    ">
		<path d="M454.4,330.7v-0.8l2.9,0v2.5c-0.4,0.4-0.9,0.6-1.4,0.8s-1,0.3-1.5,0.3c-0.7,0-1.3-0.1-1.8-0.4c-0.6-0.3-1-0.7-1.2-1.3
			s-0.4-1.2-0.4-1.8c0-0.7,0.1-1.3,0.4-1.9c0.3-0.6,0.7-1,1.2-1.3c0.5-0.3,1.1-0.4,1.8-0.4c0.5,0,0.9,0.1,1.3,0.2
			c0.4,0.2,0.7,0.4,0.9,0.7c0.2,0.3,0.4,0.7,0.5,1.1l-0.8,0.2c-0.1-0.4-0.2-0.6-0.4-0.8c-0.2-0.2-0.4-0.4-0.7-0.5
			c-0.3-0.1-0.6-0.2-0.9-0.2c-0.4,0-0.8,0.1-1.1,0.2c-0.3,0.1-0.5,0.3-0.7,0.5c-0.2,0.2-0.3,0.4-0.4,0.7c-0.2,0.4-0.3,0.9-0.3,1.4
			c0,0.6,0.1,1.1,0.3,1.5s0.5,0.7,0.9,0.9c0.4,0.2,0.8,0.3,1.3,0.3c0.4,0,0.8-0.1,1.2-0.2s0.7-0.3,0.9-0.5v-1.3H454.4z"/>
	</g>
	<g enable-background="new    ">
		<path d="M506.6,350.4c-0.8,0-1.5,0.5-1.5,1.4c0,0.6,1,1.5,1,1.5l-0.2,0.2c0,0-2.2-1.3-2.5-2.7c-0.1-0.9,0.5-1.8,1.6-1.9
			c0.4,0,1.2,0.1,1.5,0.2c-1.8-1.8-2.8-3-2.7-3.4c0.4-0.4,1.7-2.1,1.7-3.4c0-0.9-1.3-2.9-1.3-2.9l0.3-0.2l3.5,4.4c0,0-1.7,2-1.7,3.4
			c0,1,0.6,1.8,1.1,2.3c0.2,0.3,1,1.1,1,1.2l0,0.3C507.5,350.5,507,350.4,506.6,350.4z"/>
	</g>
	<line fill="none" stroke="#000000" stroke-width="0.459" x1="523.8" y1="357.8" x2="523.8" y2="341.8"/>
	<g enable-background="new    ">
		<path d="M522.5,356.5c1.4,0,2.2,1,1.8,2.2c-0.4,1.2-1.9,2.2-3.4,2.2c-1.4,0-2.2-1-1.7-2.2C519.6,357.4,521.1,356.5,522.5,356.5z"
			/>
	</g>
	<line fill="none" stroke="#000000" stroke-width="0.459" x1="539.8" y1="355.4" x2="539.8" y2="339.4"/>
	<g enable-background="new    ">
		<path d="M538.5,354.1c1.4,0,2.2,1,1.8,2.2c-0.4,1.2-1.9,2.2-3.4,2.2c-1.4,0-2.2-1-1.7-2.2C535.6,355,537.1,354.1,538.5,354.1z"/>
	</g>
	<line fill="none" stroke="#000000" stroke-width="0.459" x1="561.8" y1="353" x2="561.8" y2="337"/>
	<g enable-background="new    ">
		<path d="M561.3,353.9c-0.3,0.9-1,1.5-1.6,1.8c-0.5,0.3-1.2,0.4-2,0.3c-0.5,0-1.3-0.2-1.6-0.7c-0.3-0.6-0.1-1.2,0-1.6
			c0.3-0.8,1-1.4,1.5-1.7c0.5-0.3,1.3-0.5,2.2-0.4c0.4,0,1.1,0.1,1.5,0.7C561.6,352.8,561.4,353.6,561.3,353.9z M559.3,352.6
			c-0.4,0.2-0.7,0.4-1,0.5c-0.3,0.2-0.6,0.4-1,0.6c-0.5,0.3-1.1,0.9-0.8,1.4c0.3,0.6,1.1,0.3,1.6,0c0.4-0.2,0.7-0.4,1-0.5
			c0.3-0.2,0.6-0.4,1-0.6c0.5-0.3,1.1-0.9,0.8-1.4C560.7,352,559.9,352.3,559.3,352.6z"/>
	</g>
	<line fill="none" stroke="#000000" stroke-width="0.459" x1="590.2" y1="353" x2="590.2" y2="337"/>
	<g enable-background="new    ">
		<path d="M588.9,351.7c1.4,0,2.2,1,1.8,2.2c-0.4,1.2-1.9,2.2-3.4,2.2c-1.4,0-2.2-1-1.7-2.2C586,352.6,587.5,351.7,588.9,351.7z"/>
	</g>
	<g enable-background="new    ">
		<path d="M579.6,350.8v-3.1h0.6v2.9l1.9-0.6v-2.8h0.6v2.6l0.7-0.2v2l-0.7,0.2v2.8l0.7-0.2v2l-0.7,0.2v3.1h-0.6v-3l-1.9,0.6v2.8
			h-0.6v-2.6l-0.8,0.3v-2l0.8-0.3v-2.9l-0.8,0.3v-2L579.6,350.8z M580.2,352.6v2.9l1.9-0.6V352L580.2,352.6z"/>
	</g>
	<line fill="none" stroke="#000000" stroke-width="0.459" x1="614.6" y1="348.2" x2="614.6" y2="332.2"/>
	<g enable-background="new    ">
		<path d="M614.1,349.1c-0.3,0.9-1,1.5-1.6,1.8c-0.5,0.3-1.2,0.4-2,0.3c-0.5,0-1.3-0.2-1.6-0.7c-0.3-0.6-0.1-1.2,0-1.6
			c0.3-0.8,1-1.4,1.5-1.7c0.5-0.3,1.3-0.5,2.2-0.4c0.4,0,1.1,0.1,1.5,0.7C614.4,348,614.2,348.8,614.1,349.1z M612.1,347.8
			c-0.4,0.2-0.7,0.4-1,0.5c-0.3,0.2-0.6,0.4-1,0.6c-0.5,0.3-1.1,0.9-0.8,1.4c0.3,0.6,1.1,0.3,1.6,0c0.4-0.2,0.7-0.4,1-0.5
			c0.3-0.2,0.6-0.4,1-0.6c0.5-0.3,1.1-0.9,0.8-1.4C613.5,347.2,612.7,347.5,612.1,347.8z"/>
	</g>
	<line fill="none" stroke="#000000" stroke-width="0.459" x1="643" y1="350.6" x2="643" y2="334.6"/>
	<g enable-background="new    ">
		<path d="M641.7,349.3c1.4,0,2.2,1,1.8,2.2c-0.4,1.2-1.9,2.2-3.4,2.2c-1.4,0-2.2-1-1.7-2.2C638.8,350.2,640.3,349.3,641.7,349.3z"
			/>
	</g>
	<g enable-background="new    ">
		<path d="M670.8,352.9c0.6,0,1,0.4,1,1c0,0.5-0.4,1-1,1s-1-0.4-1-1C669.8,353.3,670.2,352.9,670.8,352.9z"/>
	</g>
	<line fill="none" stroke="#000000" stroke-width="0.459" x1="667.4" y1="355.4" x2="667.4" y2="339.4"/>
	<g enable-background="new    ">
		<path d="M666.9,356.3c-0.3,0.9-1,1.5-1.6,1.8c-0.5,0.3-1.2,0.4-2,0.3c-0.5,0-1.3-0.2-1.6-0.7c-0.3-0.6-0.1-1.2,0-1.6
			c0.3-0.8,1-1.4,1.5-1.7c0.5-0.3,1.3-0.5,2.2-0.4c0.4,0,1.1,0.1,1.5,0.7C667.2,355.2,667,356,666.9,356.3z M664.9,355
			c-0.4,0.2-0.7,0.4-1,0.5c-0.3,0.2-0.6,0.4-1,0.6c-0.5,0.3-1.1,0.9-0.8,1.4c0.3,0.6,1.1,0.3,1.6,0c0.4-0.2,0.7-0.4,1-0.5
			c0.3-0.2,0.6-0.4,1-0.6c0.5-0.3,1.1-0.9,0.8-1.4C666.3,354.4,665.5,354.7,664.9,355z"/>
	</g>
	<g enable-background="new    ">
		<path d="M667.2,331l0.9,0.2c-0.2,0.7-0.5,1.3-1,1.7c-0.5,0.4-1.1,0.6-1.8,0.6c-0.7,0-1.3-0.2-1.8-0.5c-0.5-0.3-0.8-0.7-1.1-1.3
			c-0.2-0.6-0.4-1.2-0.4-1.8c0-0.7,0.1-1.3,0.4-1.9c0.3-0.5,0.7-0.9,1.2-1.2c0.5-0.3,1.1-0.4,1.7-0.4c0.7,0,1.3,0.2,1.7,0.5
			c0.5,0.3,0.8,0.8,1,1.5l-0.9,0.2c-0.2-0.5-0.4-0.9-0.7-1.1c-0.3-0.2-0.7-0.3-1.1-0.3c-0.5,0-1,0.1-1.3,0.4s-0.6,0.6-0.7,1
			c-0.1,0.4-0.2,0.9-0.2,1.3c0,0.6,0.1,1.1,0.3,1.5c0.2,0.4,0.4,0.8,0.8,1s0.7,0.3,1.2,0.3c0.5,0,0.9-0.1,1.3-0.4
			C666.9,332,667.1,331.6,667.2,331z"/>
	</g>
	<g enable-background="new    ">
		<path d="M721.3,344.1v2.5h-6.1v-2.5H721.3z"/>
	</g>
	<line fill="none" stroke="#000000" stroke-width="0.459" x1="714.6" y1="346.6" x2="721.8" y2="346.6"/>
	<line fill="none" stroke="#000000" stroke-width="0.459" x1="749" y1="350.6" x2="749" y2="334.6"/>
	<g enable-background="new    ">
		<path d="M747.7,349.3c1.4,0,2.2,1,1.8,2.2c-0.4,1.2-1.9,2.2-3.4,2.2c-1.4,0-2.2-1-1.7-2.2C744.8,350.2,746.3,349.3,747.7,349.3z"
			/>
	</g>
	<line fill="none" stroke="#000000" stroke-width="0.459" x1="784.4" y1="345" x2="784.4" y2="361"/>
	<g enable-background="new    ">
		<path d="M789.5,344.3c-0.3,0.9-1,1.5-1.6,1.8c-0.5,0.3-1.2,0.4-2,0.3c-0.5,0-1.3-0.2-1.6-0.7c-0.3-0.6-0.1-1.2,0-1.6
			c0.3-0.8,1-1.4,1.5-1.7c0.5-0.3,1.3-0.5,2.2-0.4c0.4,0,1.1,0.1,1.5,0.7C789.8,343.2,789.6,344,789.5,344.3z M787.5,343
			c-0.4,0.2-0.7,0.4-1,0.5c-0.3,0.2-0.6,0.4-1,0.6c-0.5,0.3-1.1,0.9-0.8,1.4c0.3,0.6,1.1,0.3,1.6,0c0.4-0.2,0.7-0.4,1-0.5
			c0.3-0.2,0.6-0.4,1-0.6c0.5-0.3,1.1-0.9,0.8-1.4C788.9,342.4,788.1,342.7,787.5,343z"/>
	</g>
	<line fill="none" stroke="#000000" stroke-width="0.459" x1="808" y1="350.6" x2="808" y2="334.6"/>
	<g enable-background="new    ">
		<path d="M806.7,349.3c1.4,0,2.2,1,1.8,2.2c-0.4,1.2-1.9,2.2-3.4,2.2c-1.4,0-2.2-1-1.7-2.2C803.8,350.2,805.3,349.3,806.7,349.3z"
			/>
	</g>
	<line fill="none" stroke="#000000" stroke-width="0.459" x1="824.8" y1="350.6" x2="824.8" y2="334.6"/>
	<g enable-background="new    ">
		<path d="M823.5,349.3c1.4,0,2.2,1,1.8,2.2c-0.4,1.2-1.9,2.2-3.4,2.2c-1.4,0-2.2-1-1.7-2.2C820.6,350.2,822.1,349.3,823.5,349.3z"
			/>
	</g>
	<line fill="none" stroke="#000000" stroke-width="0.459" x1="840.6" y1="353" x2="840.6" y2="337"/>
	<g enable-background="new    ">
		<path d="M839.3,351.7c1.4,0,2.2,1,1.8,2.2c-0.4,1.2-1.9,2.2-3.4,2.2c-1.4,0-2.2-1-1.7-2.2C836.4,352.6,837.9,351.7,839.3,351.7z"
			/>
	</g>
	<line fill="none" stroke="#000000" stroke-width="0.459" x1="856.6" y1="355.4" x2="856.6" y2="339.4"/>
	<g enable-background="new    ">
		<path d="M855.3,354.1c1.4,0,2.2,1,1.8,2.2c-0.4,1.2-1.9,2.2-3.4,2.2c-1.4,0-2.2-1-1.7-2.2C852.4,355,853.9,354.1,855.3,354.1z"/>
	</g>
	<line fill="none" stroke="#000000" stroke-width="0.459" x1="877.6" y1="353" x2="877.6" y2="337"/>
	<g enable-background="new    ">
		<path d="M876.3,351.7c1.4,0,2.2,1,1.8,2.2c-0.4,1.2-1.9,2.2-3.4,2.2c-1.4,0-2.2-1-1.7-2.2C873.4,352.6,874.9,351.7,876.3,351.7z"
			/>
	</g>
	<line fill="none" stroke="#000000" stroke-width="0.459" x1="896.8" y1="357.8" x2="896.8" y2="341.8"/>
	<g enable-background="new    ">
		<path d="M896.3,358.7c-0.3,0.9-1,1.5-1.6,1.8c-0.5,0.3-1.2,0.4-2,0.3c-0.5,0-1.3-0.2-1.6-0.7c-0.3-0.6-0.1-1.2,0-1.6
			c0.3-0.8,1-1.4,1.5-1.7c0.5-0.3,1.3-0.5,2.2-0.4c0.4,0,1.1,0.1,1.5,0.7C896.6,357.6,896.4,358.4,896.3,358.7z M894.3,357.4
			c-0.4,0.2-0.7,0.4-1,0.5c-0.3,0.2-0.6,0.4-1,0.6c-0.5,0.3-1.1,0.9-0.8,1.4c0.3,0.6,1.1,0.3,1.6,0c0.4-0.2,0.7-0.4,1-0.5
			c0.3-0.2,0.6-0.4,1-0.6c0.5-0.3,1.1-0.9,0.8-1.4C895.7,356.8,894.9,357.1,894.3,357.4z"/>
	</g>
	<g enable-background="new    ">
		<path d="M876.8,330.7v-0.8l2.9,0v2.5c-0.4,0.4-0.9,0.6-1.4,0.8s-1,0.3-1.5,0.3c-0.7,0-1.3-0.1-1.8-0.4c-0.6-0.3-1-0.7-1.2-1.3
			s-0.4-1.2-0.4-1.8c0-0.7,0.1-1.3,0.4-1.9c0.3-0.6,0.7-1,1.2-1.3c0.5-0.3,1.1-0.4,1.8-0.4c0.5,0,0.9,0.1,1.3,0.2
			c0.4,0.2,0.7,0.4,0.9,0.7c0.2,0.3,0.4,0.7,0.5,1.1l-0.8,0.2c-0.1-0.4-0.2-0.6-0.4-0.8c-0.2-0.2-0.4-0.4-0.7-0.5
			c-0.3-0.1-0.6-0.2-0.9-0.2c-0.4,0-0.8,0.1-1.1,0.2c-0.3,0.1-0.5,0.3-0.7,0.5c-0.2,0.2-0.3,0.4-0.4,0.7c-0.2,0.4-0.3,0.9-0.3,1.4
			c0,0.6,0.1,1.1,0.3,1.5s0.5,0.7,0.9,0.9c0.4,0.2,0.8,0.3,1.3,0.3c0.4,0,0.8-0.1,1.2-0.2s0.7-0.3,0.9-0.5v-1.3H876.8z"/>
	</g>
	<g enable-background="new    ">
		<path d="M929,350.4c-0.8,0-1.5,0.5-1.5,1.4c0,0.6,1,1.5,1,1.5l-0.2,0.2c0,0-2.2-1.3-2.5-2.7c-0.1-0.9,0.5-1.8,1.6-1.9
			c0.4,0,1.2,0.1,1.5,0.2c-1.8-1.8-2.8-3-2.7-3.4c0.4-0.4,1.7-2.1,1.7-3.4c0-0.9-1.3-2.9-1.3-2.9l0.3-0.2l3.5,4.4c0,0-1.7,2-1.7,3.4
			c0,1,0.6,1.8,1.1,2.3c0.2,0.3,1,1.1,1,1.2l0,0.3C929.9,350.5,929.4,350.4,929,350.4z"/>
	</g>
	<line fill="none" stroke="#000000" stroke-width="0.459" x1="946.2" y1="357.8" x2="946.2" y2="341.8"/>
	<g enable-background="new    ">
		<path d="M944.9,356.5c1.4,0,2.2,1,1.8,2.2c-0.4,1.2-1.9,2.2-3.4,2.2c-1.4,0-2.2-1-1.7-2.2C942,357.4,943.5,356.5,944.9,356.5z"/>
	</g>
	<line fill="none" stroke="#000000" stroke-width="0.459" x1="962.2" y1="355.4" x2="962.2" y2="339.4"/>
	<g enable-background="new    ">
		<path d="M960.9,354.1c1.4,0,2.2,1,1.8,2.2c-0.4,1.2-1.9,2.2-3.4,2.2c-1.4,0-2.2-1-1.7-2.2C958,355,959.5,354.1,960.9,354.1z"/>
	</g>
	<line fill="none" stroke="#000000" stroke-width="0.459" x1="984.2" y1="353" x2="984.2" y2="337"/>
	<g enable-background="new    ">
		<path d="M983.7,353.9c-0.3,0.9-1,1.5-1.6,1.8c-0.5,0.3-1.2,0.4-2,0.3c-0.5,0-1.3-0.2-1.6-0.7c-0.3-0.6-0.1-1.2,0-1.6
			c0.3-0.8,1-1.4,1.5-1.7c0.5-0.3,1.3-0.5,2.2-0.4c0.4,0,1.1,0.1,1.5,0.7C984,352.8,983.8,353.6,983.7,353.9z M981.7,352.6
			c-0.4,0.2-0.7,0.4-1,0.5c-0.3,0.2-0.6,0.4-1,0.6c-0.5,0.3-1.1,0.9-0.8,1.4c0.3,0.6,1.1,0.3,1.6,0c0.4-0.2,0.7-0.4,1-0.5
			c0.3-0.2,0.6-0.4,1-0.6c0.5-0.3,1.1-0.9,0.8-1.4C983.1,352,982.3,352.3,981.7,352.6z"/>
	</g>
	<line fill="none" stroke="#000000" stroke-width="0.459" x1="1012.6" y1="353" x2="1012.6" y2="337"/>
	<g enable-background="new    ">
		<path d="M1011.3,351.7c1.4,0,2.2,1,1.8,2.2c-0.4,1.2-1.9,2.2-3.4,2.2c-1.4,0-2.2-1-1.7-2.2
			C1008.4,352.6,1009.9,351.7,1011.3,351.7z"/>
	</g>
	<g enable-background="new    ">
		<path d="M1002,350.8v-3.1h0.6v2.9l1.9-0.6v-2.8h0.6v2.6l0.7-0.2v2l-0.7,0.2v2.8l0.7-0.2v2l-0.7,0.2v3.1h-0.6v-3l-1.9,0.6v2.8h-0.6
			v-2.6l-0.8,0.3v-2l0.8-0.3v-2.9l-0.8,0.3v-2L1002,350.8z M1002.6,352.6v2.9l1.9-0.6V352L1002.6,352.6z"/>
	</g>
	<line fill="none" stroke="#000000" stroke-width="0.459" x1="1037" y1="348.2" x2="1037" y2="332.2"/>
	<g enable-background="new    ">
		<path d="M1036.5,349.1c-0.3,0.9-1,1.5-1.6,1.8c-0.5,0.3-1.2,0.4-2,0.3c-0.5,0-1.3-0.2-1.6-0.7c-0.3-0.6-0.1-1.2,0-1.6
			c0.3-0.8,1-1.4,1.5-1.7c0.5-0.3,1.3-0.5,2.2-0.4c0.4,0,1.1,0.1,1.5,0.7C1036.8,348,1036.6,348.8,1036.5,349.1z M1034.5,347.8
			c-0.4,0.2-0.7,0.4-1,0.5c-0.3,0.2-0.6,0.4-1,0.6c-0.5,0.3-1.1,0.9-0.8,1.4c0.3,0.6,1.1,0.3,1.6,0c0.4-0.2,0.7-0.4,1-0.5
			c0.3-0.2,0.6-0.4,1-0.6c0.5-0.3,1.1-0.9,0.8-1.4C1035.9,347.2,1035.1,347.5,1034.5,347.8z"/>
	</g>
	<line fill="none" stroke="#000000" stroke-width="0.459" x1="1065.4" y1="350.6" x2="1065.4" y2="334.6"/>
	<g enable-background="new    ">
		<path d="M1064.1,349.3c1.4,0,2.2,1,1.8,2.2c-0.4,1.2-1.9,2.2-3.4,2.2c-1.4,0-2.2-1-1.7-2.2
			C1061.2,350.2,1062.7,349.3,1064.1,349.3z"/>
	</g>
	<g enable-background="new    ">
		<path d="M1094.6,357.7c0.6,0,1,0.4,1,1c0,0.5-0.4,1-1,1s-1-0.4-1-1C1093.6,358.1,1094,357.7,1094.6,357.7z"/>
	</g>
	<line fill="none" stroke="#000000" stroke-width="0.459" x1="1091.2" y1="360.2" x2="1091.2" y2="344.2"/>
	<line fill="none" stroke="#000000" stroke-width="0.459" x1="1084.2" y1="361" x2="1092.6" y2="361"/>
	<g enable-background="new    ">
		<path d="M1090.7,361.1c-0.3,0.9-1,1.5-1.6,1.8c-0.5,0.3-1.2,0.4-2,0.3c-0.5,0-1.3-0.2-1.6-0.7c-0.3-0.6-0.1-1.2,0-1.6
			c0.3-0.8,1-1.4,1.5-1.7c0.5-0.3,1.3-0.5,2.2-0.4c0.4,0,1.1,0.1,1.5,0.7C1091,360,1090.8,360.8,1090.7,361.1z M1088.7,359.8
			c-0.4,0.2-0.7,0.4-1,0.5c-0.3,0.2-0.6,0.4-1,0.6c-0.5,0.3-1.1,0.9-0.8,1.4c0.3,0.6,1.1,0.3,1.6,0c0.4-0.2,0.7-0.4,1-0.5
			c0.3-0.2,0.6-0.4,1-0.6c0.5-0.3,1.1-0.9,0.8-1.4C1090.1,359.2,1089.3,359.5,1088.7,359.8z"/>
	</g>
	<g enable-background="new    ">
		<path d="M1091,331l0.9,0.2c-0.2,0.7-0.5,1.3-1,1.7c-0.5,0.4-1.1,0.6-1.8,0.6c-0.7,0-1.3-0.2-1.8-0.5c-0.5-0.3-0.8-0.7-1.1-1.3
			c-0.2-0.6-0.4-1.2-0.4-1.8c0-0.7,0.1-1.3,0.4-1.9c0.3-0.5,0.7-0.9,1.2-1.2c0.5-0.3,1.1-0.4,1.7-0.4c0.7,0,1.3,0.2,1.7,0.5
			c0.5,0.3,0.8,0.8,1,1.5l-0.9,0.2c-0.2-0.5-0.4-0.9-0.7-1.1c-0.3-0.2-0.7-0.3-1.1-0.3c-0.5,0-1,0.1-1.3,0.4s-0.6,0.6-0.7,1
			c-0.1,0.4-0.2,0.9-0.2,1.3c0,0.6,0.1,1.1,0.3,1.5c0.2,0.4,0.4,0.8,0.8,1s0.7,0.3,1.2,0.3c0.5,0,0.9-0.1,1.3-0.4
			C1090.7,332,1090.9,331.6,1091,331z"/>
	</g>
	<g enable-background="new    ">
		<path d="M1143.7,344.1v2.5h-6.1v-2.5H1143.7z"/>
	</g>
	<line fill="none" stroke="#000000" stroke-width="0.459" x1="1137" y1="346.6" x2="1144.2" y2="346.6"/>
	<line fill="none" stroke="#000000" stroke-width="0.459" x1="1171.4" y1="350.6" x2="1171.4" y2="334.6"/>
	<g enable-background="new    ">
		<path d="M1170.1,349.3c1.4,0,2.2,1,1.8,2.2c-0.4,1.2-1.9,2.2-3.4,2.2c-1.4,0-2.2-1-1.7-2.2
			C1167.2,350.2,1168.7,349.3,1170.1,349.3z"/>
	</g>
	<g enable-background="new    ">
		<path d="M1166.4,325l2.6-6.9h1l2.8,6.9h-1l-0.8-2.1h-2.9l-0.8,2.1H1166.4z M1168.4,322.2h2.3l-0.7-1.9c-0.2-0.6-0.4-1.1-0.5-1.4
			c-0.1,0.4-0.2,0.9-0.4,1.3L1168.4,322.2z"/>
	</g>
	<line fill="none" stroke="#000000" stroke-width="0.459" x1="1195.4" y1="348.2" x2="1195.4" y2="332.2"/>
	<g enable-background="new    ">
		<path d="M1194.9,349.1c-0.3,0.9-1,1.5-1.6,1.8c-0.5,0.3-1.2,0.4-2,0.3c-0.5,0-1.3-0.2-1.6-0.7c-0.3-0.6-0.1-1.2,0-1.6
			c0.3-0.8,1-1.4,1.5-1.7c0.5-0.3,1.3-0.5,2.2-0.4c0.4,0,1.1,0.1,1.5,0.7C1195.2,348,1195,348.8,1194.9,349.1z M1192.9,347.8
			c-0.4,0.2-0.7,0.4-1,0.5c-0.3,0.2-0.6,0.4-1,0.6c-0.5,0.3-1.1,0.9-0.8,1.4c0.3,0.6,1.1,0.3,1.6,0c0.4-0.2,0.7-0.4,1-0.5
			c0.3-0.2,0.6-0.4,1-0.6c0.5-0.3,1.1-0.9,0.8-1.4C1194.3,347.2,1193.5,347.5,1192.9,347.8z"/>
	</g>
	<line fill="none" stroke="#000000" stroke-width="0.459" x1="1223.8" y1="350.6" x2="1223.8" y2="334.6"/>
	<g enable-background="new    ">
		<path d="M1222.5,349.3c1.4,0,2.2,1,1.8,2.2c-0.4,1.2-1.9,2.2-3.4,2.2s-2.2-1-1.7-2.2C1219.6,350.2,1221.1,349.3,1222.5,349.3z"/>
	</g>
	<g enable-background="new    ">
		<path d="M1192.8,331l0.9,0.2c-0.2,0.7-0.5,1.3-1,1.7c-0.5,0.4-1.1,0.6-1.8,0.6c-0.7,0-1.3-0.2-1.8-0.5c-0.5-0.3-0.8-0.7-1.1-1.3
			c-0.2-0.6-0.4-1.2-0.4-1.8c0-0.7,0.1-1.3,0.4-1.9c0.3-0.5,0.7-0.9,1.2-1.2c0.5-0.3,1.1-0.4,1.7-0.4c0.7,0,1.3,0.2,1.7,0.5
			c0.5,0.3,0.8,0.8,1,1.5l-0.9,0.2c-0.2-0.5-0.4-0.9-0.7-1.1c-0.3-0.2-0.7-0.3-1.1-0.3c-0.5,0-1,0.1-1.3,0.4s-0.6,0.6-0.7,1
			c-0.1,0.4-0.2,0.9-0.2,1.3c0,0.6,0.1,1.1,0.3,1.5c0.2,0.4,0.4,0.8,0.8,1s0.7,0.3,1.2,0.3c0.5,0,0.9-0.1,1.3-0.4
			S1192.7,331.6,1192.8,331z"/>
	</g>
	<line fill="none" stroke="#000000" stroke-width="0.459" x1="1248.2" y1="353" x2="1248.2" y2="337"/>
	<g enable-background="new    ">
		<path d="M1247.7,353.9c-0.3,0.9-1,1.5-1.6,1.8c-0.5,0.3-1.2,0.4-2,0.3c-0.5,0-1.3-0.2-1.6-0.7c-0.3-0.6-0.1-1.2,0-1.6
			c0.3-0.8,1-1.4,1.5-1.7c0.5-0.3,1.3-0.5,2.2-0.4c0.4,0,1.1,0.1,1.5,0.7C1248,352.8,1247.8,353.6,1247.7,353.9z M1245.7,352.6
			c-0.4,0.2-0.7,0.4-1,0.5c-0.3,0.2-0.6,0.4-1,0.6c-0.5,0.3-1.1,0.9-0.8,1.4c0.3,0.6,1.1,0.3,1.6,0c0.4-0.2,0.7-0.4,1-0.5
			c0.3-0.2,0.6-0.4,1-0.6c0.5-0.3,1.1-0.9,0.8-1.4C1247.1,352,1246.3,352.3,1245.7,352.6z"/>
	</g>
	<line fill="none" stroke="#000000" stroke-width="0.459" x1="1276.6" y1="355.4" x2="1276.6" y2="339.4"/>
	<g enable-background="new    ">
		<path d="M1275.3,354.1c1.4,0,2.2,1,1.8,2.2c-0.4,1.2-1.9,2.2-3.4,2.2c-1.4,0-2.2-1-1.7-2.2C1272.4,355,1273.9,354.1,1275.3,354.1z
			"/>
	</g>
	<line fill="none" stroke="#000000" stroke-width="0.459" x1="1300" y1="353" x2="1300" y2="337"/>
	<g enable-background="new    ">
		<path d="M1298.7,351.7c1.4,0,2.2,1,1.8,2.2c-0.4,1.2-1.9,2.2-3.4,2.2c-1.4,0-2.2-1-1.7-2.2
			C1295.8,352.6,1297.3,351.7,1298.7,351.7z"/>
	</g>
	<line fill="none" stroke="#000000" stroke-width="0.459" x1="1319.2" y1="357.8" x2="1319.2" y2="341.8"/>
	<g enable-background="new    ">
		<path d="M1318.7,358.7c-0.3,0.9-1,1.5-1.6,1.8c-0.5,0.3-1.2,0.4-2,0.3c-0.5,0-1.3-0.2-1.6-0.7c-0.3-0.6-0.1-1.2,0-1.6
			c0.3-0.8,1-1.4,1.5-1.7c0.5-0.3,1.3-0.5,2.2-0.4c0.4,0,1.1,0.1,1.5,0.7C1319,357.6,1318.8,358.4,1318.7,358.7z M1316.7,357.4
			c-0.4,0.2-0.7,0.4-1,0.5c-0.3,0.2-0.6,0.4-1,0.6c-0.5,0.3-1.1,0.9-0.8,1.4c0.3,0.6,1.1,0.3,1.6,0c0.4-0.2,0.7-0.4,1-0.5
			c0.3-0.2,0.6-0.4,1-0.6c0.5-0.3,1.1-0.9,0.8-1.4C1318.1,356.8,1317.3,357.1,1316.7,357.4z"/>
	</g>
	<g enable-background="new    ">
		<path d="M1299.2,330.7v-0.8l2.9,0v2.5c-0.4,0.4-0.9,0.6-1.4,0.8s-1,0.3-1.5,0.3c-0.7,0-1.3-0.1-1.8-0.4c-0.6-0.3-1-0.7-1.2-1.3
			s-0.4-1.2-0.4-1.8c0-0.7,0.1-1.3,0.4-1.9c0.3-0.6,0.7-1,1.2-1.3s1.1-0.4,1.8-0.4c0.5,0,0.9,0.1,1.3,0.2c0.4,0.2,0.7,0.4,0.9,0.7
			c0.2,0.3,0.4,0.7,0.5,1.1l-0.8,0.2c-0.1-0.4-0.2-0.6-0.4-0.8c-0.2-0.2-0.4-0.4-0.7-0.5c-0.3-0.1-0.6-0.2-0.9-0.2
			c-0.4,0-0.8,0.1-1.1,0.2c-0.3,0.1-0.5,0.3-0.7,0.5c-0.2,0.2-0.3,0.4-0.4,0.7c-0.2,0.4-0.3,0.9-0.3,1.4c0,0.6,0.1,1.1,0.3,1.5
			s0.5,0.7,0.9,0.9c0.4,0.2,0.8,0.3,1.3,0.3c0.4,0,0.8-0.1,1.2-0.2s0.7-0.3,0.9-0.5v-1.3H1299.2z"/>
	</g>
	<g enable-background="new    ">
		<path d="M1351.4,350.4c-0.8,0-1.5,0.5-1.5,1.4c0,0.6,1,1.5,1,1.5l-0.2,0.2c0,0-2.2-1.3-2.5-2.7c-0.1-0.9,0.5-1.8,1.6-1.9
			c0.4,0,1.2,0.1,1.5,0.2c-1.8-1.8-2.8-3-2.7-3.4c0.4-0.4,1.7-2.1,1.7-3.4c0-0.9-1.3-2.9-1.3-2.9l0.3-0.2l3.5,4.4c0,0-1.7,2-1.7,3.4
			c0,1,0.6,1.8,1.1,2.3c0.2,0.3,1,1.1,1,1.2l0,0.3C1352.3,350.5,1351.8,350.4,1351.4,350.4z"/>
	</g>
	<line fill="none" stroke="#000000" stroke-width="0.459" x1="1368.6" y1="357.8" x2="1368.6" y2="341.8"/>
	<g enable-background="new    ">
		<path d="M1367.3,356.5c1.4,0,2.2,1,1.8,2.2c-0.4,1.2-1.9,2.2-3.4,2.2c-1.4,0-2.2-1-1.7-2.2
			C1364.4,357.4,1365.9,356.5,1367.3,356.5z"/>
	</g>
	<line fill="none" stroke="#000000" stroke-width="0.459" x1="1384.6" y1="355.4" x2="1384.6" y2="339.4"/>
	<g enable-background="new    ">
		<path d="M1383.3,354.1c1.4,0,2.2,1,1.8,2.2c-0.4,1.2-1.9,2.2-3.4,2.2c-1.4,0-2.2-1-1.7-2.2C1380.4,355,1381.9,354.1,1383.3,354.1z
			"/>
	</g>
	<line fill="none" stroke="#000000" stroke-width="0.459" x1="1406.6" y1="353" x2="1406.6" y2="337"/>
	<g enable-background="new    ">
		<path d="M1406.1,353.9c-0.3,0.9-1,1.5-1.6,1.8c-0.5,0.3-1.2,0.4-2,0.3c-0.5,0-1.3-0.2-1.6-0.7c-0.3-0.6-0.1-1.2,0-1.6
			c0.3-0.8,1-1.4,1.5-1.7c0.5-0.3,1.3-0.5,2.2-0.4c0.4,0,1.1,0.1,1.5,0.7C1406.4,352.8,1406.2,353.6,1406.1,353.9z M1404.1,352.6
			c-0.4,0.2-0.7,0.4-1,0.5c-0.3,0.2-0.6,0.4-1,0.6c-0.5,0.3-1.1,0.9-0.8,1.4c0.3,0.6,1.1,0.3,1.6,0c0.4-0.2,0.7-0.4,1-0.5
			c0.3-0.2,0.6-0.4,1-0.6c0.5-0.3,1.1-0.9,0.8-1.4C1405.5,352,1404.7,352.3,1404.1,352.6z"/>
	</g>
	<line fill="none" stroke="#000000" stroke-width="0.459" x1="1435" y1="353" x2="1435" y2="337"/>
	<g enable-background="new    ">
		<path d="M1433.7,351.7c1.4,0,2.2,1,1.8,2.2c-0.4,1.2-1.9,2.2-3.4,2.2c-1.4,0-2.2-1-1.7-2.2
			C1430.8,352.6,1432.3,351.7,1433.7,351.7z"/>
	</g>
	<g enable-background="new    ">
		<path d="M1424.4,350.8v-3.1h0.6v2.9l1.9-0.6v-2.8h0.6v2.6l0.7-0.2v2l-0.7,0.2v2.8l0.7-0.2v2l-0.7,0.2v3.1h-0.6v-3l-1.9,0.6v2.8
			h-0.6v-2.6l-0.8,0.3v-2l0.8-0.3v-2.9l-0.8,0.3v-2L1424.4,350.8z M1425,352.6v2.9l1.9-0.6V352L1425,352.6z"/>
	</g>
	<line fill="none" stroke="#000000" stroke-width="0.459" x1="1459.4" y1="348.2" x2="1459.4" y2="332.2"/>
	<g enable-background="new    ">
		<path d="M1458.9,349.1c-0.3,0.9-1,1.5-1.6,1.8c-0.5,0.3-1.2,0.4-2,0.3c-0.5,0-1.3-0.2-1.6-0.7c-0.3-0.6-0.1-1.2,0-1.6
			c0.3-0.8,1-1.4,1.5-1.7c0.5-0.3,1.3-0.5,2.2-0.4c0.4,0,1.1,0.1,1.5,0.7C1459.2,348,1459,348.8,1458.9,349.1z M1456.9,347.8
			c-0.4,0.2-0.7,0.4-1,0.5c-0.3,0.2-0.6,0.4-1,0.6c-0.5,0.3-1.1,0.9-0.8,1.4c0.3,0.6,1.1,0.3,1.6,0c0.4-0.2,0.7-0.4,1-0.5
			c0.3-0.2,0.6-0.4,1-0.6c0.5-0.3,1.1-0.9,0.8-1.4C1458.3,347.2,1457.5,347.5,1456.9,347.8z"/>
	</g>
	<line fill="none" stroke="#000000" stroke-width="0.459" x1="1487.8" y1="350.6" x2="1487.8" y2="334.6"/>
	<g enable-background="new    ">
		<path d="M1486.5,349.3c1.4,0,2.2,1,1.8,2.2c-0.4,1.2-1.9,2.2-3.4,2.2s-2.2-1-1.7-2.2C1483.6,350.2,1485.1,349.3,1486.5,349.3z"/>
	</g>
	<g enable-background="new    ">
		<path d="M1515.6,352.9c0.6,0,1,0.4,1,1c0,0.5-0.4,1-1,1s-1-0.4-1-1C1514.6,353.3,1515,352.9,1515.6,352.9z"/>
	</g>
	<line fill="none" stroke="#000000" stroke-width="0.459" x1="1512.2" y1="355.4" x2="1512.2" y2="339.4"/>
	<g enable-background="new    ">
		<path d="M1511.7,356.3c-0.3,0.9-1,1.5-1.6,1.8c-0.5,0.3-1.2,0.4-2,0.3c-0.5,0-1.3-0.2-1.6-0.7c-0.3-0.6-0.1-1.2,0-1.6
			c0.3-0.8,1-1.4,1.5-1.7c0.5-0.3,1.3-0.5,2.2-0.4c0.4,0,1.1,0.1,1.5,0.7C1512,355.2,1511.8,356,1511.7,356.3z M1509.7,355
			c-0.4,0.2-0.7,0.4-1,0.5c-0.3,0.2-0.6,0.4-1,0.6c-0.5,0.3-1.1,0.9-0.8,1.4c0.3,0.6,1.1,0.3,1.6,0c0.4-0.2,0.7-0.4,1-0.5
			c0.3-0.2,0.6-0.4,1-0.6c0.5-0.3,1.1-0.9,0.8-1.4C1511.1,354.4,1510.3,354.7,1509.7,355z"/>
	</g>
	<g enable-background="new    ">
		<path d="M1512,331l0.9,0.2c-0.2,0.7-0.5,1.3-1,1.7c-0.5,0.4-1.1,0.6-1.8,0.6c-0.7,0-1.3-0.2-1.8-0.5c-0.5-0.3-0.8-0.7-1.1-1.3
			c-0.2-0.6-0.4-1.2-0.4-1.8c0-0.7,0.1-1.3,0.4-1.9c0.3-0.5,0.7-0.9,1.2-1.2c0.5-0.3,1.1-0.4,1.7-0.4c0.7,0,1.3,0.2,1.7,0.5
			c0.5,0.3,0.8,0.8,1,1.5l-0.9,0.2c-0.2-0.5-0.4-0.9-0.7-1.1c-0.3-0.2-0.7-0.3-1.1-0.3c-0.5,0-1,0.1-1.3,0.4c-0.4,0.3-0.6,0.6-0.7,1
			c-0.1,0.4-0.2,0.9-0.2,1.3c0,0.6,0.1,1.1,0.3,1.5c0.2,0.4,0.4,0.8,0.8,1s0.7,0.3,1.2,0.3c0.5,0,0.9-0.1,1.3-0.4
			S1511.9,331.6,1512,331z"/>
	</g>
	<g enable-background="new    ">
		<path d="M1566.1,344.1v2.5h-6.1v-2.5H1566.1z"/>
	</g>
	<line fill="none" stroke="#000000" stroke-width="0.459" x1="1559.4" y1="346.6" x2="1566.6" y2="346.6"/>
	<line fill="none" stroke="#000000" stroke-width="0.459" x1="1593.8" y1="350.6" x2="1593.8" y2="334.6"/>
	<g enable-background="new    ">
		<path d="M1592.5,349.3c1.4,0,2.2,1,1.8,2.2c-0.4,1.2-1.9,2.2-3.4,2.2s-2.2-1-1.7-2.2C1589.6,350.2,1591.1,349.3,1592.5,349.3z"/>
	</g>
	<line fill="none" stroke="#000000" stroke-width="0.459" x1="1629.2" y1="345" x2="1629.2" y2="361"/>
	<g enable-background="new    ">
		<path d="M1634.3,344.3c-0.3,0.9-1,1.5-1.6,1.8c-0.5,0.3-1.2,0.4-2,0.3c-0.5,0-1.3-0.2-1.6-0.7c-0.3-0.6-0.1-1.2,0-1.6
			c0.3-0.8,1-1.4,1.5-1.7c0.5-0.3,1.3-0.5,2.2-0.4c0.4,0,1.1,0.1,1.5,0.7C1634.6,343.2,1634.4,344,1634.3,344.3z M1632.3,343
			c-0.4,0.2-0.7,0.4-1,0.5c-0.3,0.2-0.6,0.4-1,0.6c-0.5,0.3-1.1,0.9-0.8,1.4c0.3,0.6,1.1,0.3,1.6,0c0.4-0.2,0.7-0.4,1-0.5
			c0.3-0.2,0.6-0.4,1-0.6c0.5-0.3,1.1-0.9,0.8-1.4C1633.7,342.4,1632.9,342.7,1632.3,343z"/>
	</g>
	<line fill="none" stroke="#000000" stroke-width="0.459" x1="1652.8" y1="350.6" x2="1652.8" y2="334.6"/>
	<g enable-background="new    ">
		<path d="M1651.5,349.3c1.4,0,2.2,1,1.8,2.2c-0.4,1.2-1.9,2.2-3.4,2.2s-2.2-1-1.7-2.2C1648.6,350.2,1650.1,349.3,1651.5,349.3z"/>
	</g>
	<line fill="none" stroke="#000000" stroke-width="0.459" x1="1669.6" y1="350.6" x2="1669.6" y2="334.6"/>
	<g enable-background="new    ">
		<path d="M1668.3,349.3c1.4,0,2.2,1,1.8,2.2c-0.4,1.2-1.9,2.2-3.4,2.2c-1.4,0-2.2-1-1.7-2.2
			C1665.4,350.2,1666.9,349.3,1668.3,349.3z"/>
	</g>
	<line fill="none" stroke="#000000" stroke-width="0.459" x1="1685.4" y1="353" x2="1685.4" y2="337"/>
	<g enable-background="new    ">
		<path d="M1684.1,351.7c1.4,0,2.2,1,1.8,2.2c-0.4,1.2-1.9,2.2-3.4,2.2c-1.4,0-2.2-1-1.7-2.2
			C1681.2,352.6,1682.7,351.7,1684.1,351.7z"/>
	</g>
	<line fill="none" stroke="#000000" stroke-width="0.459" x1="1701.4" y1="355.4" x2="1701.4" y2="339.4"/>
	<g enable-background="new    ">
		<path d="M1700.1,354.1c1.4,0,2.2,1,1.8,2.2c-0.4,1.2-1.9,2.2-3.4,2.2c-1.4,0-2.2-1-1.7-2.2C1697.2,355,1698.7,354.1,1700.1,354.1z
			"/>
	</g>
	<line fill="none" stroke="#000000" stroke-width="0.459" x1="1722.4" y1="353" x2="1722.4" y2="337"/>
	<g enable-background="new    ">
		<path d="M1721.1,351.7c1.4,0,2.2,1,1.8,2.2c-0.4,1.2-1.9,2.2-3.4,2.2c-1.4,0-2.2-1-1.7-2.2
			C1718.2,352.6,1719.7,351.7,1721.1,351.7z"/>
	</g>
	<line fill="none" stroke="#000000" stroke-width="0.459" x1="1741.6" y1="357.8" x2="1741.6" y2="341.8"/>
	<g enable-background="new    ">
		<path d="M1741.1,358.7c-0.3,0.9-1,1.5-1.6,1.8c-0.5,0.3-1.2,0.4-2,0.3c-0.5,0-1.3-0.2-1.6-0.7c-0.3-0.6-0.1-1.2,0-1.6
			c0.3-0.8,1-1.4,1.5-1.7c0.5-0.3,1.3-0.5,2.2-0.4c0.4,0,1.1,0.1,1.5,0.7C1741.4,357.6,1741.2,358.4,1741.1,358.7z M1739.1,357.4
			c-0.4,0.2-0.7,0.4-1,0.5c-0.3,0.2-0.6,0.4-1,0.6c-0.5,0.3-1.1,0.9-0.8,1.4c0.3,0.6,1.1,0.3,1.6,0c0.4-0.2,0.7-0.4,1-0.5
			c0.3-0.2,0.6-0.4,1-0.6c0.5-0.3,1.1-0.9,0.8-1.4C1740.5,356.8,1739.7,357.1,1739.1,357.4z"/>
	</g>
	<g enable-background="new    ">
		<path d="M1721.6,330.7v-0.8l2.9,0v2.5c-0.4,0.4-0.9,0.6-1.4,0.8c-0.5,0.2-1,0.3-1.5,0.3c-0.7,0-1.3-0.1-1.8-0.4s-1-0.7-1.2-1.3
			s-0.4-1.2-0.4-1.8c0-0.7,0.1-1.3,0.4-1.9c0.3-0.6,0.7-1,1.2-1.3c0.5-0.3,1.1-0.4,1.8-0.4c0.5,0,0.9,0.1,1.3,0.2
			c0.4,0.2,0.7,0.4,0.9,0.7c0.2,0.3,0.4,0.7,0.5,1.1l-0.8,0.2c-0.1-0.4-0.2-0.6-0.4-0.8c-0.2-0.2-0.4-0.4-0.7-0.5
			c-0.3-0.1-0.6-0.2-0.9-0.2c-0.4,0-0.8,0.1-1.1,0.2c-0.3,0.1-0.5,0.3-0.7,0.5c-0.2,0.2-0.3,0.4-0.4,0.7c-0.2,0.4-0.3,0.9-0.3,1.4
			c0,0.6,0.1,1.1,0.3,1.5s0.5,0.7,0.9,0.9s0.8,0.3,1.3,0.3c0.4,0,0.8-0.1,1.2-0.2s0.7-0.3,0.9-0.5v-1.3H1721.6z"/>
	</g>
	<g enable-background="new    ">
		<path d="M1773.8,350.4c-0.8,0-1.5,0.5-1.5,1.4c0,0.6,1,1.5,1,1.5l-0.2,0.2c0,0-2.2-1.3-2.5-2.7c-0.1-0.9,0.5-1.8,1.6-1.9
			c0.4,0,1.2,0.1,1.5,0.2c-1.8-1.8-2.8-3-2.7-3.4c0.4-0.4,1.7-2.1,1.7-3.4c0-0.9-1.3-2.9-1.3-2.9l0.3-0.2l3.5,4.4c0,0-1.7,2-1.7,3.4
			c0,1,0.6,1.8,1.1,2.3c0.2,0.3,1,1.1,1,1.2l0,0.3C1774.7,350.5,1774.2,350.4,1773.8,350.4z"/>
	</g>
	<line fill="none" stroke="#000000" stroke-width="0.459" x1="1791" y1="357.8" x2="1791" y2="341.8"/>
	<g enable-background="new    ">
		<path d="M1789.7,356.5c1.4,0,2.2,1,1.8,2.2c-0.4,1.2-1.9,2.2-3.4,2.2c-1.4,0-2.2-1-1.7-2.2
			C1786.8,357.4,1788.3,356.5,1789.7,356.5z"/>
	</g>
	<line fill="none" stroke="#000000" stroke-width="0.459" x1="1807" y1="355.4" x2="1807" y2="339.4"/>
	<g enable-background="new    ">
		<path d="M1805.7,354.1c1.4,0,2.2,1,1.8,2.2c-0.4,1.2-1.9,2.2-3.4,2.2c-1.4,0-2.2-1-1.7-2.2C1802.8,355,1804.3,354.1,1805.7,354.1z
			"/>
	</g>
	<line fill="none" stroke="#000000" stroke-width="0.459" x1="1829" y1="353" x2="1829" y2="337"/>
	<g enable-background="new    ">
		<path d="M1828.5,353.9c-0.3,0.9-1,1.5-1.6,1.8c-0.5,0.3-1.2,0.4-2,0.3c-0.5,0-1.3-0.2-1.6-0.7c-0.3-0.6-0.1-1.2,0-1.6
			c0.3-0.8,1-1.4,1.5-1.7c0.5-0.3,1.3-0.5,2.2-0.4c0.4,0,1.1,0.1,1.5,0.7C1828.8,352.8,1828.6,353.6,1828.5,353.9z M1826.5,352.6
			c-0.4,0.2-0.7,0.4-1,0.5c-0.3,0.2-0.6,0.4-1,0.6c-0.5,0.3-1.1,0.9-0.8,1.4c0.3,0.6,1.1,0.3,1.6,0c0.4-0.2,0.7-0.4,1-0.5
			c0.3-0.2,0.6-0.4,1-0.6c0.5-0.3,1.1-0.9,0.8-1.4C1827.9,352,1827.1,352.3,1826.5,352.6z"/>
	</g>
	<line fill="none" stroke="#000000" stroke-width="0.459" x1="1857.4" y1="353" x2="1857.4" y2="337"/>
	<g enable-background="new    ">
		<path d="M1856.1,351.7c1.4,0,2.2,1,1.8,2.2c-0.4,1.2-1.9,2.2-3.4,2.2c-1.4,0-2.2-1-1.7-2.2
			C1853.2,352.6,1854.7,351.7,1856.1,351.7z"/>
	</g>
	<g enable-background="new    ">
		<path d="M1846.8,350.8v-3.1h0.6v2.9l1.9-0.6v-2.8h0.6v2.6l0.7-0.2v2l-0.7,0.2v2.8l0.7-0.2v2l-0.7,0.2v3.1h-0.6v-3l-1.9,0.6v2.8
			h-0.6v-2.6l-0.8,0.3v-2l0.8-0.3v-2.9l-0.8,0.3v-2L1846.8,350.8z M1847.4,352.6v2.9l1.9-0.6V352L1847.4,352.6z"/>
	</g>
	<line fill="none" stroke="#000000" stroke-width="0.459" x1="1881.8" y1="348.2" x2="1881.8" y2="332.2"/>
	<g enable-background="new    ">
		<path d="M1881.3,349.1c-0.3,0.9-1,1.5-1.6,1.8c-0.5,0.3-1.2,0.4-2,0.3c-0.5,0-1.3-0.2-1.6-0.7c-0.3-0.6-0.1-1.2,0-1.6
			c0.3-0.8,1-1.4,1.5-1.7c0.5-0.3,1.3-0.5,2.2-0.4c0.4,0,1.1,0.1,1.5,0.7C1881.6,348,1881.4,348.8,1881.3,349.1z M1879.3,347.8
			c-0.4,0.2-0.7,0.4-1,0.5c-0.3,0.2-0.6,0.4-1,0.6c-0.5,0.3-1.1,0.9-0.8,1.4c0.3,0.6,1.1,0.3,1.6,0c0.4-0.2,0.7-0.4,1-0.5
			c0.3-0.2,0.6-0.4,1-0.6c0.5-0.3,1.1-0.9,0.8-1.4C1880.7,347.2,1879.9,347.5,1879.3,347.8z"/>
	</g>
	<line fill="none" stroke="#000000" stroke-width="0.459" x1="1910.2" y1="350.6" x2="1910.2" y2="334.6"/>
	<g enable-background="new    ">
		<path d="M1908.9,349.3c1.4,0,2.2,1,1.8,2.2c-0.4,1.2-1.9,2.2-3.4,2.2c-1.4,0-2.2-1-1.7-2.2C1906,350.2,1907.5,349.3,1908.9,349.3z
			"/>
	</g>
	<g enable-background="new    ">
		<path d="M1939.4,357.7c0.6,0,1,0.4,1,1c0,0.5-0.4,1-1,1s-1-0.4-1-1C1938.4,358.1,1938.8,357.7,1939.4,357.7z"/>
	</g>
	<line fill="none" stroke="#000000" stroke-width="0.459" x1="1936" y1="360.2" x2="1936" y2="344.2"/>
	<line fill="none" stroke="#000000" stroke-width="0.459" x1="1929" y1="361" x2="1937.4" y2="361"/>
	<g enable-background="new    ">
		<path d="M1935.5,361.1c-0.3,0.9-1,1.5-1.6,1.8c-0.5,0.3-1.2,0.4-2,0.3c-0.5,0-1.3-0.2-1.6-0.7c-0.3-0.6-0.1-1.2,0-1.6
			c0.3-0.8,1-1.4,1.5-1.7c0.5-0.3,1.3-0.5,2.2-0.4c0.4,0,1.1,0.1,1.5,0.7C1935.8,360,1935.6,360.8,1935.5,361.1z M1933.5,359.8
			c-0.4,0.2-0.7,0.4-1,0.5c-0.3,0.2-0.6,0.4-1,0.6c-0.5,0.3-1.1,0.9-0.8,1.4c0.3,0.6,1.1,0.3,1.6,0c0.4-0.2,0.7-0.4,1-0.5
			c0.3-0.2,0.6-0.4,1-0.6c0.5-0.3,1.1-0.9,0.8-1.4C1934.9,359.2,1934.1,359.5,1933.5,359.8z"/>
	</g>
	<g enable-background="new    ">
		<path d="M1935.8,331l0.9,0.2c-0.2,0.7-0.5,1.3-1,1.7c-0.5,0.4-1.1,0.6-1.8,0.6c-0.7,0-1.3-0.2-1.8-0.5c-0.5-0.3-0.8-0.7-1.1-1.3
			c-0.2-0.6-0.4-1.2-0.4-1.8c0-0.7,0.1-1.3,0.4-1.9c0.3-0.5,0.7-0.9,1.2-1.2c0.5-0.3,1.1-0.4,1.7-0.4c0.7,0,1.3,0.2,1.7,0.5
			c0.5,0.3,0.8,0.8,1,1.5l-0.9,0.2c-0.2-0.5-0.4-0.9-0.7-1.1c-0.3-0.2-0.7-0.3-1.1-0.3c-0.5,0-1,0.1-1.3,0.4s-0.6,0.6-0.7,1
			c-0.1,0.4-0.2,0.9-0.2,1.3c0,0.6,0.1,1.1,0.3,1.5c0.2,0.4,0.4,0.8,0.8,1s0.7,0.3,1.2,0.3c0.5,0,0.9-0.1,1.3-0.4
			S1935.7,331.6,1935.8,331z"/>
	</g>
	<g enable-background="new    ">
		<path d="M2004.9,341.8v2.8h-6.1v-2.8H2004.9z"/>
	</g>
	<line fill="none" stroke="#000000" stroke-width="0.459" x1="1998.2" y1="341.8" x2="2005.4" y2="341.8"/>
</g>
</svg>
