<?xml version="1.0" encoding="utf-8"?>
<!-- Generator: Adobe Illustrator 16.0.0, SVG Export Plug-In . SVG Version: 6.00 Build 0)  -->
<!DOCTYPE svg PUBLIC "-//W3C//DTD SVG 1.1//EN" "http://www.w3.org/Graphics/SVG/1.1/DTD/svg11.dtd">
<svg version="1.1" id="Layer_1" xmlns="http://www.w3.org/2000/svg" xmlns:xlink="http://www.w3.org/1999/xlink" x="0px" y="0px"
	 width="2160px" height="59.5px" viewBox="0 0 2160 59.5" enable-background="new 0 0 2160 59.5" xml:space="preserve">
<rect y="-0.1" fill="#FFFFFF" width="2160" height="93.6"/>
<g>
	<path d="M37.8,41.4c-4-1.9-4.6-4.3-4.8-6.8c-0.2-2.7,1.5-5.4,3.1-6.9c0.9-0.9,1.9-1.7,3.1-2.6c0-0.7-0.2-0.9-0.3-1.9
		c0-0.4-0.3-2.3,0.1-4.5c0.2-1.3,1.9-4.3,3-4.3c0.9,0,2.2,3.4,2.2,5.2c0.1,2.7-0.6,3.9-1.4,5.3c-0.4,0.7-0.8,1.2-1.3,1.7
		c-0.5,0.6-1,0.9-1.5,1.3c0,0,0.6,3.5,0.6,3.7c1.2-0.2,2.7,0.3,3.3,0.7c1.4,1,1.9,2.4,2,3.8c0.2,2.2-1,4.5-3.6,5.5
		c0,0,0.4,2.8,0.5,3.3c0.2,1.5,0.2,2.5-0.2,3.1c-0.6,1-1.5,2-3.2,2.1c-1.3,0.1-4-0.6-4.1-2.7c-0.1-1.2,0.5-2.6,2-2.7
		c0.9-0.1,2,0.7,2.1,1.8c0.1,0.9-0.5,1.9-2.1,2.4c0.2,0.3,1,0.7,2.1,0.7c1.1,0,2.3-0.7,2.8-1.7c0.3-0.7,0.3-1.8,0.2-2.9
		c-0.1-0.4-0.5-3.3-0.5-3.3C40.5,42,38.6,41.8,37.8,41.4z M38.1,36.9c0,0.9,0.8,2,1.5,2.4c-0.1,0.1-0.2,0.2-0.2,0.2
		c-0.8-0.4-1.5-1-1.6-1.2c-0.6-0.7-0.8-1.2-0.9-2.3c-0.1-1.1,0.5-2.5,1.8-3.5c0.7-0.5,1-0.6,1.6-0.7l-0.6-3.5
		c-0.6,0.3-3.1,2.3-4.1,3.9c-0.9,1.4-1.5,2.6-1.4,4c0.2,3.2,3.7,5.8,7.5,4.9c0,0-1.1-6.8-1.1-6.8C38.6,34.4,38.1,36,38.1,36.9z
		 M39.7,24.7c1.7-1.3,3.9-3.8,3.8-5.7c0-0.6-0.3-1.7-1.2-1.7C40.4,17.4,39.3,21.6,39.7,24.7z M42.3,41c2.2-0.7,2.3-2.6,2.2-3.8
		c-0.1-0.9-0.5-3.1-3.3-2.9L42.3,41z"/>
</g>
<g>
	<path d="M51.9,28.7c0,0.2,0,1.2,0,1.2c0.7-0.7,1.1-0.8,1.9-0.8c1,0,1.6,0.9,1.6,1.7c0,0.4-0.1,0.8-0.2,1.2
		c-0.2,0.4-0.6,0.7-0.9,1.1c-0.3,0.3-2.8,2.1-2.8,2.1V23.8h0.5C51.9,23.8,51.9,26.2,51.9,28.7z M52.1,30.6c-0.2,0.5-0.2,1.3-0.2,1.9
		v1.7c0,0,0.7-0.6,1.1-0.9c0.3-0.3,0.6-0.7,0.7-1.3c0.2-0.6,0.1-1.2-0.3-1.6C53.2,30.1,52.5,29.8,52.1,30.6z"/>
</g>
<g>
	<path d="M69.6,39v1.3c0,0.8,0.9,0.7,0.9,0.7v0.5h-4.2V41c0,0,0.9,0,0.9-0.7V39h-3.6l-0.3-0.4c2.3-3.1,2.3-3.7,2.9-6.5h3.3
		c-0.8,1.5-3.4,4.2-5.3,6.4h3v-2.4l2.3-2.6v4.9H71V39H69.6z"/>
</g>
<g>
	<path d="M66.8,32c-2,0-3.4-1-3.4-2.5c0-0.7,0.7-1.4,1.3-1.4c0.7,0,1.5,0.4,1.5,1.2c0,1-0.7,1.1-0.7,1.8c0,0.2,0.6,0.5,0.8,0.5
		c1.3,0,1.9-1.5,1.9-2.3c0-1.7-1.5-1.5-2.7-1.7c0,0,0-0.5,0-0.5c1.2-0.2,2.5-0.6,2.4-2c0-2-1.6-1.9-1.9-1.9c-0.1,0-0.6,0.3-0.5,0.5
		c0.1,0.4,0.7,0.6,0.9,1.4c0.2,0.7-0.6,1.5-1.3,1.5c-0.8,0-1.5-0.9-1.5-1.4c0-1.1,0.9-2.5,3.9-2.5c1.3,0,2.7,0.9,2.7,2.3
		c0,1.9-2.2,2-2.2,2.3c1.1,0.1,2.6,0.5,2.6,2C70.6,31.2,68.2,32,66.8,32z"/>
</g>
<line fill="none" stroke="#000000" stroke-width="0.459" stroke-miterlimit="10" x1="93.8" y1="22.5" x2="93.8" y2="41.7"/>
<line fill="none" stroke="#000000" stroke-width="0.459" stroke-miterlimit="10" x1="153.6" y1="22.5" x2="153.6" y2="41.7"/>
<line fill="none" stroke="#000000" stroke-width="0.459" stroke-miterlimit="10" x1="213.4" y1="22.5" x2="213.4" y2="41.7"/>
<line fill="none" stroke="#000000" stroke-width="0.459" stroke-miterlimit="10" x1="273.2" y1="22.5" x2="273.2" y2="41.7"/>
<line fill="none" stroke="#000000" stroke-width="0.459" stroke-miterlimit="10" x1="333" y1="22.5" x2="333" y2="41.7"/>
<line fill="none" stroke="#000000" stroke-width="0.459" stroke-miterlimit="10" x1="392.8" y1="22.5" x2="392.8" y2="41.7"/>
<line fill="none" stroke="#000000" stroke-width="0.459" stroke-miterlimit="10" x1="452.6" y1="22.5" x2="452.6" y2="41.7"/>
<line fill="none" stroke="#000000" stroke-width="0.459" stroke-miterlimit="10" x1="512.4" y1="22.5" x2="512.4" y2="41.7"/>
<line fill="none" stroke="#000000" stroke-width="0.459" stroke-miterlimit="10" x1="572.2" y1="22.5" x2="572.2" y2="41.7"/>
<line fill="none" stroke="#000000" stroke-width="0.459" stroke-miterlimit="10" x1="632" y1="22.5" x2="632" y2="41.7"/>
<line fill="none" stroke="#000000" stroke-width="0.459" stroke-miterlimit="10" x1="691.8" y1="22.5" x2="691.8" y2="41.7"/>
<line fill="none" stroke="#000000" stroke-width="0.459" stroke-miterlimit="10" x1="751.6" y1="22.5" x2="751.6" y2="41.7"/>
<line fill="none" stroke="#000000" stroke-width="0.459" stroke-miterlimit="10" x1="811.4" y1="22.5" x2="811.4" y2="41.7"/>
<line fill="none" stroke="#000000" stroke-width="0.459" stroke-miterlimit="10" x1="871.2" y1="22.5" x2="871.2" y2="41.7"/>
<line fill="none" stroke="#000000" stroke-width="0.459" stroke-miterlimit="10" x1="931" y1="22.5" x2="931" y2="41.7"/>
<line fill="none" stroke="#000000" stroke-width="0.459" stroke-miterlimit="10" x1="990.8" y1="22.5" x2="990.8" y2="41.7"/>
<line fill="none" stroke="#000000" stroke-width="0.459" stroke-miterlimit="10" x1="1050.6" y1="22.5" x2="1050.6" y2="41.7"/>
<line fill="none" stroke="#000000" stroke-width="0.459" stroke-miterlimit="10" x1="1110.4" y1="22.5" x2="1110.4" y2="41.7"/>
<line fill="none" stroke="#000000" stroke-width="0.459" stroke-miterlimit="10" x1="1112.8" y1="22.5" x2="1112.8" y2="41.7"/>
<line fill="none" stroke="#000000" stroke-width="0.459" stroke-miterlimit="10" x1="1172.6" y1="22.5" x2="1172.6" y2="41.7"/>
<line fill="none" stroke="#000000" stroke-width="0.459" stroke-miterlimit="10" x1="1232.4" y1="22.5" x2="1232.4" y2="41.7"/>
<line fill="none" stroke="#000000" stroke-width="0.459" stroke-miterlimit="10" x1="1292.2" y1="22.5" x2="1292.2" y2="41.7"/>
<line fill="none" stroke="#000000" stroke-width="0.459" stroke-miterlimit="10" x1="1352" y1="22.5" x2="1352" y2="41.7"/>
<line fill="none" stroke="#000000" stroke-width="0.459" stroke-miterlimit="10" x1="1411.8" y1="22.5" x2="1411.8" y2="41.7"/>
<line fill="none" stroke="#000000" stroke-width="0.459" stroke-miterlimit="10" x1="1471.6" y1="22.5" x2="1471.6" y2="41.7"/>
<line fill="none" stroke="#000000" stroke-width="0.459" stroke-miterlimit="10" x1="1531.4" y1="22.5" x2="1531.4" y2="41.7"/>
<line fill="none" stroke="#000000" stroke-width="0.459" stroke-miterlimit="10" x1="1591.2" y1="22.5" x2="1591.2" y2="41.7"/>
<line fill="none" stroke="#000000" stroke-width="0.459" stroke-miterlimit="10" x1="1651" y1="22.5" x2="1651" y2="41.7"/>
<line fill="none" stroke="#000000" stroke-width="0.459" stroke-miterlimit="10" x1="1710.8" y1="22.5" x2="1710.8" y2="41.7"/>
<line fill="none" stroke="#000000" stroke-width="0.459" stroke-miterlimit="10" x1="1770.6" y1="22.5" x2="1770.6" y2="41.7"/>
<line fill="none" stroke="#000000" stroke-width="0.459" stroke-miterlimit="10" x1="1830.4" y1="22.5" x2="1830.4" y2="41.7"/>
<line fill="none" stroke="#000000" stroke-width="0.459" stroke-miterlimit="10" x1="1890.2" y1="22.5" x2="1890.2" y2="41.7"/>
<line fill="none" stroke="#000000" stroke-width="0.459" stroke-miterlimit="10" x1="1950" y1="22.5" x2="1950" y2="41.7"/>
<line fill="none" stroke="#000000" stroke-width="0.459" stroke-miterlimit="10" x1="2009.8" y1="22.5" x2="2009.8" y2="41.7"/>
<line fill="none" stroke="#000000" stroke-width="0.459" stroke-miterlimit="10" x1="2069.6" y1="22.5" x2="2069.6" y2="41.7"/>
<line fill="none" stroke="#000000" stroke-width="2.4187" stroke-miterlimit="10" x1="2130.6" y1="22.5" x2="2130.6" y2="41.7"/>
<line fill="none" stroke="#000000" stroke-width="0.459" stroke-miterlimit="10" x1="2126.7" y1="22.5" x2="2126.7" y2="41.7"/>
<line fill="none" stroke="#000000" stroke-width="0.459" stroke-miterlimit="10" x1="28.2" y1="22.5" x2="2131.8" y2="22.5"/>
<line fill="none" stroke="#000000" stroke-width="0.459" stroke-miterlimit="10" x1="28.2" y1="27.3" x2="2131.8" y2="27.3"/>
<line fill="none" stroke="#000000" stroke-width="0.459" stroke-miterlimit="10" x1="28.2" y1="32.1" x2="2131.8" y2="32.1"/>
<line fill="none" stroke="#000000" stroke-width="0.459" stroke-miterlimit="10" x1="28.2" y1="36.9" x2="2131.8" y2="36.9"/>
<line fill="none" stroke="#000000" stroke-width="0.459" stroke-miterlimit="10" x1="28.2" y1="41.7" x2="2131.8" y2="41.7"/>
<line fill="none" stroke="#000000" stroke-width="0.459" stroke-miterlimit="10" x1="85" y1="45.7" x2="85" y2="29.7"/>
<line fill="none" stroke="#000000" stroke-width="0.459" stroke-miterlimit="10" x1="78.8" y1="46.5" x2="86.4" y2="46.5"/>
<path d="M80.1,46.5c0.1-0.3,0.3-0.6,0.5-0.8c0.2-0.3,0.5-0.5,0.8-0.7s0.6-0.3,1-0.5s0.7-0.2,1.1-0.2s0.7,0.1,0.9,0.2
	c0.3,0.1,0.5,0.3,0.6,0.5c0.2,0.2,0.3,0.4,0.3,0.7c0,0.3,0,0.5-0.1,0.8c-0.1,0.3-0.3,0.6-0.5,0.8c-0.2,0.3-0.5,0.5-0.8,0.7
	c-0.3,0.2-0.6,0.3-1,0.5c-0.4,0.1-0.7,0.2-1.1,0.2c-0.4,0-0.7-0.1-0.9-0.2c-0.3-0.1-0.5-0.3-0.6-0.5c-0.2-0.2-0.3-0.4-0.3-0.7
	C80,47.1,80,46.8,80.1,46.5z"/>
<line fill="none" stroke="#000000" stroke-width="0.459" stroke-miterlimit="10" x1="103.8" y1="38.5" x2="103.8" y2="22.5"/>
<path d="M104.2,37.8c0.1,0.1,0.1,0.3,0.1,0.4c0,0.2,0,0.3,0,0.5c0,0.2,0,0.3-0.1,0.4c0,0.1-0.1,0.2-0.1,0.3
	c-0.2,0.4-0.4,0.8-0.7,1.1c-0.3,0.3-0.6,0.5-0.9,0.7c-0.5,0.3-1.2,0.4-2,0.3c-0.1,0-0.2,0-0.4-0.1c-0.2,0-0.3-0.1-0.5-0.1
	c-0.2-0.1-0.3-0.1-0.4-0.2c-0.1-0.1-0.2-0.2-0.3-0.3c-0.1-0.1-0.1-0.3-0.2-0.4c0-0.2,0-0.3,0-0.4c0-0.1,0-0.3,0.1-0.4
	c0-0.1,0.1-0.2,0.1-0.3c0.2-0.4,0.4-0.8,0.7-1.1c0.3-0.3,0.6-0.5,0.8-0.7c0.3-0.1,0.6-0.3,0.9-0.4c0.4-0.1,0.8-0.1,1.3-0.1
	c0.1,0,0.2,0,0.3,0c0.1,0,0.3,0.1,0.4,0.1c0.1,0.1,0.3,0.1,0.4,0.2S104.1,37.7,104.2,37.8z M103.8,38.1c-0.1-0.1-0.2-0.2-0.3-0.3
	c-0.1,0-0.3-0.1-0.4-0.1c-0.2,0-0.3,0-0.5,0.1s-0.3,0.1-0.4,0.2c-0.2,0.1-0.4,0.2-0.5,0.3c-0.2,0.1-0.3,0.2-0.5,0.3
	c-0.3,0.2-0.7,0.4-1,0.6c-0.1,0.1-0.2,0.2-0.4,0.3c-0.1,0.1-0.2,0.2-0.3,0.3c-0.1,0.1-0.1,0.3-0.2,0.4s0,0.3,0.1,0.4
	c0.1,0.1,0.2,0.2,0.3,0.3c0.1,0,0.3,0.1,0.4,0c0.2,0,0.3-0.1,0.5-0.1c0.2-0.1,0.3-0.1,0.4-0.2c0.2-0.1,0.4-0.2,0.5-0.3
	c0.2-0.1,0.3-0.2,0.5-0.3c0.2-0.1,0.3-0.2,0.5-0.3c0.2-0.1,0.3-0.2,0.5-0.3c0.1-0.1,0.2-0.2,0.4-0.3c0.1-0.1,0.2-0.2,0.3-0.3
	c0.1-0.1,0.1-0.3,0.2-0.4C103.9,38.4,103.9,38.2,103.8,38.1z"/>
<g>
	<path d="M138.8,9.6l1.1-0.1c0,0.3,0.1,0.5,0.2,0.6c0.1,0.1,0.3,0.2,0.5,0.2c0.3,0,0.5-0.1,0.6-0.3s0.3-0.4,0.3-0.7
		c0-0.2-0.1-0.4-0.2-0.6c-0.1-0.1-0.3-0.2-0.5-0.2c-0.1,0-0.1,0-0.2,0l0.2-0.9c0,0,0.1,0,0.1,0c0.3,0,0.5-0.1,0.7-0.2
		s0.2-0.4,0.2-0.6c0-0.2-0.1-0.3-0.2-0.4c-0.1-0.1-0.2-0.2-0.4-0.2c-0.2,0-0.3,0.1-0.4,0.2c-0.1,0.1-0.2,0.3-0.3,0.6l-1-0.2
		c0.1-0.4,0.3-0.7,0.5-1c0.4-0.3,0.8-0.5,1.3-0.5c0.5,0,0.9,0.1,1.2,0.4c0.3,0.3,0.4,0.6,0.4,1.1c0,0.3-0.1,0.6-0.3,0.8
		c-0.2,0.2-0.4,0.4-0.7,0.5c0.2,0.1,0.4,0.3,0.5,0.5c0.1,0.2,0.2,0.4,0.2,0.6c0,0.4-0.1,0.8-0.4,1.2c-0.4,0.5-0.9,0.7-1.6,0.7
		c-0.5,0-0.9-0.1-1.2-0.4C139.1,10.5,138.9,10.1,138.8,9.6z"/>
</g>
<path d="M128.9,34.5c0.1-0.3,0.3-0.6,0.5-0.8c0.2-0.3,0.5-0.5,0.8-0.7s0.6-0.3,1-0.5s0.7-0.2,1.1-0.2s0.7,0.1,0.9,0.2
	c0.3,0.1,0.5,0.3,0.6,0.5c0.2,0.2,0.3,0.4,0.3,0.7s0,0.5-0.1,0.8c-0.1,0.3-0.3,0.6-0.5,0.8s-0.5,0.5-0.8,0.7c-0.3,0.2-0.6,0.3-1,0.5
	c-0.4,0.1-0.7,0.2-1.1,0.2c-0.4,0-0.7-0.1-0.9-0.2c-0.3-0.1-0.5-0.3-0.6-0.5c-0.2-0.2-0.3-0.4-0.3-0.7S128.8,34.8,128.9,34.5z"/>
<line fill="none" stroke="#000000" stroke-width="0.459" stroke-miterlimit="10" x1="133.8" y1="33.7" x2="133.8" y2="18.9"/>
<path d="M136.1,36.9c0.1-0.3,0.3-0.6,0.5-0.8c0.2-0.3,0.5-0.5,0.8-0.7c0.3-0.2,0.6-0.3,1-0.5s0.7-0.2,1.1-0.2c0.4,0,0.7,0.1,0.9,0.2
	c0.3,0.1,0.5,0.3,0.6,0.5c0.2,0.2,0.3,0.4,0.3,0.7c0,0.3,0,0.5-0.1,0.8s-0.3,0.6-0.5,0.8c-0.2,0.3-0.5,0.5-0.8,0.7
	c-0.3,0.2-0.6,0.3-1,0.5c-0.4,0.1-0.7,0.2-1,0.2c-0.4,0-0.7-0.1-0.9-0.2c-0.3-0.1-0.5-0.3-0.6-0.5c-0.2-0.2-0.3-0.4-0.3-0.7
	S136,37.2,136.1,36.9z"/>
<line fill="none" stroke="#000000" stroke-width="0.459" stroke-miterlimit="10" x1="141" y1="36.1" x2="141" y2="20.1"/>
<path d="M143.5,39.3c0.1-0.3,0.3-0.6,0.5-0.8c0.2-0.3,0.5-0.5,0.8-0.7c0.3-0.2,0.6-0.3,1-0.5s0.7-0.2,1.1-0.2c0.4,0,0.7,0.1,0.9,0.2
	c0.3,0.1,0.5,0.3,0.6,0.5c0.2,0.2,0.3,0.4,0.3,0.7c0,0.3,0,0.5-0.1,0.8s-0.3,0.6-0.5,0.8c-0.2,0.3-0.5,0.5-0.8,0.7
	c-0.3,0.2-0.6,0.3-1,0.5c-0.4,0.1-0.7,0.2-1.1,0.2c-0.4,0-0.7-0.1-0.9-0.2c-0.3-0.1-0.5-0.3-0.6-0.5c-0.2-0.2-0.3-0.4-0.3-0.7
	S143.4,39.6,143.5,39.3z"/>
<line fill="none" stroke="#000000" stroke-width="0.459" stroke-miterlimit="10" x1="148.4" y1="38.5" x2="148.4" y2="21.3"/>
<polyline points="133.6,17.7 148.6,20.1 148.6,22.5 133.6,20.1 "/>
<g>
	<path d="M99.5,18.9v-5.7h3.9v0.7h-3.1v1.8h2.7v0.7h-2.7v2.6H99.5z"/>
</g>
<line fill="none" stroke="#000000" stroke-width="0.459" stroke-miterlimit="10" x1="163.6" y1="33.7" x2="163.6" y2="17.7"/>
<path d="M164,33c0.1,0.1,0.1,0.3,0.1,0.4c0,0.2,0,0.3,0,0.5c0,0.2,0,0.3-0.1,0.4s-0.1,0.2-0.1,0.3c-0.2,0.4-0.4,0.8-0.7,1.1
	c-0.3,0.3-0.6,0.5-0.9,0.7c-0.5,0.3-1.2,0.4-2,0.3c-0.1,0-0.2,0-0.4-0.1c-0.2,0-0.3-0.1-0.5-0.1c-0.2-0.1-0.3-0.1-0.4-0.2
	c-0.1-0.1-0.2-0.2-0.3-0.3c-0.1-0.1-0.1-0.3-0.2-0.4c0-0.2,0-0.3,0-0.4c0-0.1,0-0.3,0.1-0.4s0.1-0.2,0.1-0.3
	c0.2-0.4,0.4-0.8,0.7-1.1c0.3-0.3,0.6-0.5,0.8-0.7c0.3-0.1,0.6-0.3,0.9-0.4c0.4-0.1,0.8-0.1,1.3-0.1c0.1,0,0.2,0,0.3,0
	c0.1,0,0.3,0.1,0.4,0.1c0.1,0.1,0.3,0.1,0.4,0.2S163.9,32.9,164,33z M163.6,33.3c-0.1-0.1-0.2-0.2-0.3-0.3c-0.1,0-0.3-0.1-0.4-0.1
	c-0.2,0-0.3,0-0.5,0.1c-0.2,0.1-0.3,0.1-0.4,0.2c-0.2,0.1-0.4,0.2-0.5,0.3c-0.2,0.1-0.3,0.2-0.5,0.3c-0.3,0.2-0.7,0.4-1,0.6
	c-0.1,0.1-0.2,0.2-0.4,0.3c-0.1,0.1-0.2,0.2-0.3,0.3c-0.1,0.1-0.1,0.3-0.2,0.4c0,0.1,0,0.3,0.1,0.4c0.1,0.1,0.2,0.2,0.3,0.3
	s0.3,0.1,0.4,0c0.2,0,0.3-0.1,0.5-0.1c0.2-0.1,0.3-0.1,0.4-0.2c0.2-0.1,0.4-0.2,0.5-0.3c0.2-0.1,0.3-0.2,0.5-0.3
	c0.2-0.1,0.3-0.2,0.5-0.3c0.2-0.1,0.3-0.2,0.5-0.3c0.1-0.1,0.2-0.2,0.4-0.3c0.1-0.1,0.2-0.2,0.3-0.3c0.1-0.1,0.1-0.3,0.2-0.4
	S163.7,33.4,163.6,33.3z"/>
<line fill="none" stroke="#000000" stroke-width="0.459" stroke-miterlimit="10" x1="197.4" y1="36.1" x2="197.4" y2="20.1"/>
<path d="M192.5,36.9c0.1-0.3,0.3-0.6,0.5-0.8c0.2-0.3,0.5-0.5,0.8-0.7c0.3-0.2,0.6-0.3,1-0.5s0.7-0.2,1.1-0.2c0.4,0,0.7,0.1,0.9,0.2
	c0.3,0.1,0.5,0.3,0.6,0.5s0.3,0.4,0.3,0.7c0,0.3,0,0.5-0.1,0.8s-0.3,0.6-0.5,0.8s-0.5,0.5-0.8,0.7c-0.3,0.2-0.6,0.3-1,0.5
	c-0.4,0.1-0.7,0.2-1.1,0.2c-0.4,0-0.7-0.1-0.9-0.2c-0.3-0.1-0.5-0.3-0.6-0.5c-0.2-0.2-0.3-0.4-0.3-0.7S192.4,37.2,192.5,36.9z"/>
<g>
	<path d="M159.3,18.9v-5.7h3.9v0.7H160v1.8h2.7v0.7H160v2.6H159.3z"/>
</g>
<g>
	<path d="M164.9,14.4v-0.6h3.3v0.5c-0.3,0.3-0.7,0.8-1,1.4c-0.3,0.6-0.6,1.2-0.7,1.8c-0.1,0.4-0.2,0.9-0.2,1.4h-0.7
		c0-0.4,0.1-0.9,0.2-1.5s0.4-1.1,0.7-1.7s0.6-1,0.9-1.3H164.9z"/>
</g>
<line fill="none" stroke="#000000" stroke-width="0.459" stroke-miterlimit="10" x1="223.4" y1="38.5" x2="223.4" y2="22.5"/>
<path d="M223.8,37.8c0.1,0.1,0.1,0.3,0.1,0.4c0,0.2,0,0.3,0,0.5c0,0.2,0,0.3-0.1,0.4c0,0.1-0.1,0.2-0.1,0.3
	c-0.2,0.4-0.4,0.8-0.7,1.1c-0.3,0.3-0.6,0.5-0.9,0.7c-0.5,0.3-1.2,0.4-2,0.3c-0.1,0-0.2,0-0.4-0.1c-0.2,0-0.3-0.1-0.5-0.1
	c-0.2-0.1-0.3-0.1-0.4-0.2c-0.1-0.1-0.2-0.2-0.3-0.3c-0.1-0.1-0.1-0.3-0.2-0.4c0-0.2,0-0.3,0-0.4c0-0.1,0-0.3,0.1-0.4
	s0.1-0.2,0.1-0.3c0.2-0.4,0.4-0.8,0.7-1.1c0.3-0.3,0.6-0.5,0.8-0.7c0.3-0.1,0.6-0.3,0.9-0.4c0.4-0.1,0.8-0.1,1.3-0.1
	c0.1,0,0.2,0,0.3,0c0.1,0,0.3,0.1,0.4,0.1s0.3,0.1,0.4,0.2S223.7,37.7,223.8,37.8z M223.4,38.1c-0.1-0.1-0.2-0.2-0.3-0.3
	s-0.3-0.1-0.4-0.1c-0.2,0-0.3,0-0.5,0.1s-0.3,0.1-0.4,0.2c-0.2,0.1-0.4,0.2-0.5,0.3c-0.2,0.1-0.3,0.2-0.5,0.3
	c-0.3,0.2-0.7,0.4-1,0.6c-0.1,0.1-0.2,0.2-0.4,0.3c-0.1,0.1-0.2,0.2-0.3,0.3c-0.1,0.1-0.1,0.3-0.2,0.4s0,0.3,0.1,0.4
	c0.1,0.1,0.2,0.2,0.3,0.3c0.1,0,0.3,0.1,0.4,0c0.2,0,0.3-0.1,0.5-0.1s0.3-0.1,0.4-0.2c0.2-0.1,0.4-0.2,0.5-0.3
	c0.2-0.1,0.3-0.2,0.5-0.3c0.2-0.1,0.3-0.2,0.5-0.3c0.2-0.1,0.3-0.2,0.5-0.3c0.1-0.1,0.2-0.2,0.4-0.3c0.1-0.1,0.2-0.2,0.3-0.3
	c0.1-0.1,0.1-0.3,0.2-0.4C223.5,38.4,223.5,38.2,223.4,38.1z"/>
<line fill="none" stroke="#000000" stroke-width="0.459" stroke-miterlimit="10" x1="257.2" y1="43.3" x2="257.2" y2="27.3"/>
<path d="M252.3,44.1c0.1-0.3,0.3-0.6,0.5-0.8c0.2-0.3,0.5-0.5,0.8-0.7c0.3-0.2,0.6-0.3,1-0.5s0.7-0.2,1.1-0.2c0.4,0,0.7,0.1,0.9,0.2
	c0.3,0.1,0.5,0.3,0.6,0.5c0.2,0.2,0.3,0.4,0.3,0.7c0,0.3,0,0.5-0.1,0.8c-0.1,0.3-0.3,0.6-0.5,0.8c-0.2,0.3-0.5,0.5-0.8,0.7
	c-0.3,0.2-0.6,0.3-1,0.5c-0.4,0.1-0.7,0.2-1,0.2c-0.4,0-0.7-0.1-0.9-0.2s-0.5-0.3-0.6-0.5c-0.2-0.2-0.3-0.4-0.3-0.7
	C252.2,44.7,252.2,44.4,252.3,44.1z"/>
<g>
	<path d="M219,18.9v-5.7h2.1c0.4,0,0.8,0.1,1.1,0.2c0.3,0.1,0.5,0.3,0.6,0.5c0.1,0.2,0.2,0.5,0.2,0.8c0,0.2-0.1,0.5-0.2,0.7
		c-0.1,0.2-0.3,0.4-0.6,0.5c0.3,0.1,0.6,0.3,0.8,0.5c0.2,0.2,0.3,0.5,0.3,0.9c0,0.3-0.1,0.5-0.2,0.7s-0.3,0.4-0.4,0.5
		c-0.2,0.1-0.4,0.2-0.6,0.3c-0.3,0.1-0.6,0.1-0.9,0.1H219z M219.7,15.6h1.2c0.3,0,0.6,0,0.7-0.1c0.2-0.1,0.3-0.2,0.4-0.3
		s0.1-0.3,0.1-0.5c0-0.2,0-0.4-0.1-0.5c-0.1-0.1-0.2-0.2-0.4-0.3c-0.2-0.1-0.5-0.1-0.9-0.1h-1.1V15.6z M219.7,18.2h1.4
		c0.2,0,0.4,0,0.5,0c0.2,0,0.3-0.1,0.4-0.2s0.2-0.2,0.3-0.3c0.1-0.1,0.1-0.3,0.1-0.5c0-0.2-0.1-0.4-0.2-0.6
		c-0.1-0.2-0.3-0.3-0.5-0.3c-0.2-0.1-0.5-0.1-0.8-0.1h-1.3V18.2z"/>
</g>
<g>
	<path d="M224.8,12.7c0,0.1,0,1,0,1c0.6-0.5,0.9-0.7,1.6-0.7c0.8,0,1.3,0.8,1.3,1.4c0,0.3-0.1,0.7-0.2,1c-0.1,0.4-0.5,0.6-0.8,0.9
		c-0.3,0.3-2.4,1.7-2.4,1.7V8.6h0.4C224.8,8.6,224.8,10.6,224.8,12.7z M225,14.3c-0.2,0.4-0.2,1.1-0.2,1.6v1.4c0,0,0.6-0.5,0.9-0.8
		c0.3-0.3,0.5-0.6,0.6-1.1c0.1-0.5,0.1-1-0.2-1.3C225.9,13.8,225.3,13.6,225,14.3z"/>
</g>
<line fill="none" stroke="#000000" stroke-width="0.459" stroke-miterlimit="10" x1="284.6" y1="45.7" x2="284.6" y2="29.7"/>
<line fill="none" stroke="#000000" stroke-width="0.459" stroke-miterlimit="10" x1="278.4" y1="46.5" x2="286" y2="46.5"/>
<path d="M285,45c0.1,0.1,0.1,0.3,0.1,0.4c0,0.2,0,0.3,0,0.5c0,0.2,0,0.3-0.1,0.4s-0.1,0.2-0.1,0.3c-0.2,0.4-0.4,0.8-0.7,1.1
	c-0.3,0.3-0.6,0.5-0.9,0.7c-0.5,0.3-1.2,0.4-2,0.3c-0.1,0-0.2,0-0.4-0.1c-0.2,0-0.3-0.1-0.5-0.1c-0.2-0.1-0.3-0.1-0.4-0.2
	s-0.2-0.2-0.3-0.3c-0.1-0.1-0.1-0.3-0.2-0.4c0-0.2,0-0.3,0-0.4c0-0.1,0-0.3,0.1-0.4s0.1-0.2,0.1-0.3c0.2-0.4,0.4-0.8,0.7-1.1
	c0.3-0.3,0.6-0.5,0.8-0.7c0.3-0.1,0.6-0.3,0.9-0.4c0.4-0.1,0.8-0.1,1.3-0.1c0.1,0,0.2,0,0.3,0c0.1,0,0.3,0.1,0.4,0.1
	c0.1,0.1,0.3,0.1,0.4,0.2S284.9,44.9,285,45z M284.6,45.3c-0.1-0.1-0.2-0.2-0.3-0.3c-0.1,0-0.3-0.1-0.4-0.1c-0.2,0-0.3,0-0.5,0.1
	c-0.2,0.1-0.3,0.1-0.4,0.2c-0.2,0.1-0.4,0.2-0.5,0.3c-0.2,0.1-0.3,0.2-0.5,0.3c-0.3,0.2-0.7,0.4-1,0.6c-0.1,0.1-0.2,0.2-0.4,0.3
	c-0.1,0.1-0.2,0.2-0.3,0.3c-0.1,0.1-0.1,0.3-0.2,0.4c0,0.1,0,0.3,0.1,0.4c0.1,0.1,0.2,0.2,0.3,0.3c0.1,0,0.3,0.1,0.4,0
	c0.2,0,0.3-0.1,0.5-0.1c0.2-0.1,0.3-0.1,0.4-0.2c0.2-0.1,0.4-0.2,0.5-0.3c0.2-0.1,0.3-0.2,0.5-0.3c0.2-0.1,0.3-0.2,0.5-0.3
	c0.2-0.1,0.3-0.2,0.5-0.3c0.1-0.1,0.2-0.2,0.4-0.3c0.1-0.1,0.2-0.2,0.3-0.3c0.1-0.1,0.1-0.3,0.2-0.4S284.7,45.4,284.6,45.3z"/>
<line fill="none" stroke="#000000" stroke-width="0.459" stroke-miterlimit="10" x1="317.4" y1="45.7" x2="317.4" y2="29.7"/>
<line fill="none" stroke="#000000" stroke-width="0.459" stroke-miterlimit="10" x1="311.2" y1="46.5" x2="318.8" y2="46.5"/>
<path d="M312.5,46.5c0.1-0.3,0.3-0.6,0.5-0.8c0.2-0.3,0.5-0.5,0.8-0.7c0.3-0.2,0.6-0.3,1-0.5s0.7-0.2,1.1-0.2c0.4,0,0.7,0.1,0.9,0.2
	c0.3,0.1,0.5,0.3,0.6,0.5c0.2,0.2,0.3,0.4,0.3,0.7c0,0.3,0,0.5-0.1,0.8c-0.1,0.3-0.3,0.6-0.5,0.8c-0.2,0.3-0.5,0.5-0.8,0.7
	c-0.3,0.2-0.6,0.3-1,0.5c-0.4,0.1-0.7,0.2-1.1,0.2c-0.4,0-0.7-0.1-0.9-0.2c-0.3-0.1-0.5-0.3-0.6-0.5c-0.2-0.2-0.3-0.4-0.3-0.7
	S312.4,46.8,312.5,46.5z"/>
<g>
	<path d="M280.3,18.9v-5.7h3.9v0.7H281v1.8h2.7v0.7H281v2.6H280.3z"/>
</g>
<line fill="none" stroke="#000000" stroke-width="0.459" stroke-miterlimit="10" x1="343" y1="38.5" x2="343" y2="22.5"/>
<path d="M343.4,37.8c0.1,0.1,0.1,0.3,0.1,0.4c0,0.2,0,0.3,0,0.5c0,0.2,0,0.3-0.1,0.4c0,0.1-0.1,0.2-0.1,0.3
	c-0.2,0.4-0.4,0.8-0.7,1.1c-0.3,0.3-0.6,0.5-0.9,0.7c-0.5,0.3-1.2,0.4-2,0.3c-0.1,0-0.2,0-0.4-0.1s-0.3-0.1-0.5-0.1
	c-0.2-0.1-0.3-0.1-0.4-0.2c-0.1-0.1-0.2-0.2-0.3-0.3c-0.1-0.1-0.1-0.3-0.2-0.4c0-0.2,0-0.3,0-0.4c0-0.1,0-0.3,0.1-0.4
	s0.1-0.2,0.1-0.3c0.2-0.4,0.4-0.8,0.7-1.1c0.3-0.3,0.6-0.5,0.8-0.7c0.3-0.1,0.6-0.3,0.9-0.4c0.4-0.1,0.8-0.1,1.3-0.1
	c0.1,0,0.2,0,0.3,0c0.1,0,0.3,0.1,0.4,0.1c0.1,0.1,0.3,0.1,0.4,0.2S343.3,37.7,343.4,37.8z M343,38.1c-0.1-0.1-0.2-0.2-0.3-0.3
	c-0.1,0-0.3-0.1-0.4-0.1c-0.2,0-0.3,0-0.5,0.1s-0.3,0.1-0.4,0.2c-0.2,0.1-0.4,0.2-0.5,0.3c-0.2,0.1-0.3,0.2-0.5,0.3
	c-0.3,0.2-0.7,0.4-1,0.6c-0.1,0.1-0.2,0.2-0.4,0.3c-0.1,0.1-0.2,0.2-0.3,0.3c-0.1,0.1-0.1,0.3-0.2,0.4c0,0.1,0,0.3,0.1,0.4
	s0.2,0.2,0.3,0.3c0.1,0,0.3,0.1,0.4,0c0.2,0,0.3-0.1,0.5-0.1c0.2-0.1,0.3-0.1,0.4-0.2c0.2-0.1,0.4-0.2,0.5-0.3
	c0.2-0.1,0.3-0.2,0.5-0.3c0.2-0.1,0.3-0.2,0.5-0.3c0.2-0.1,0.3-0.2,0.5-0.3c0.1-0.1,0.2-0.2,0.4-0.3c0.1-0.1,0.2-0.2,0.3-0.3
	c0.1-0.1,0.1-0.3,0.2-0.4C343.1,38.4,343.1,38.2,343,38.1z"/>
<g>
	<path d="M377.6,9.8l1.1-0.1c0,0.3,0.1,0.5,0.2,0.6c0.1,0.1,0.3,0.2,0.5,0.2c0.3,0,0.5-0.1,0.6-0.3s0.3-0.4,0.3-0.7
		c0-0.2-0.1-0.4-0.2-0.6c-0.1-0.1-0.3-0.2-0.5-0.2c-0.1,0-0.1,0-0.2,0l0.2-0.9c0,0,0.1,0,0.1,0c0.3,0,0.5-0.1,0.7-0.2
		s0.2-0.4,0.2-0.6c0-0.2-0.1-0.3-0.2-0.4c-0.1-0.1-0.2-0.2-0.4-0.2c-0.2,0-0.3,0.1-0.4,0.2c-0.1,0.1-0.2,0.3-0.3,0.6l-1-0.2
		c0.1-0.4,0.3-0.7,0.5-1c0.4-0.3,0.8-0.5,1.3-0.5c0.5,0,0.9,0.1,1.2,0.4c0.3,0.3,0.4,0.6,0.4,1.1c0,0.3-0.1,0.6-0.3,0.8
		c-0.2,0.2-0.4,0.4-0.7,0.5c0.2,0.1,0.4,0.3,0.5,0.5c0.1,0.2,0.2,0.4,0.2,0.6c0,0.4-0.1,0.8-0.4,1.2c-0.4,0.5-0.9,0.7-1.6,0.7
		c-0.5,0-0.9-0.1-1.2-0.4C377.9,10.7,377.7,10.3,377.6,9.8z"/>
</g>
<path d="M365.9,34.5c0.1-0.3,0.3-0.6,0.5-0.8c0.2-0.3,0.5-0.5,0.8-0.7c0.3-0.2,0.6-0.3,1-0.5s0.7-0.2,1.1-0.2s0.7,0.1,0.9,0.2
	c0.3,0.1,0.5,0.3,0.6,0.5c0.2,0.2,0.3,0.4,0.3,0.7s0,0.5-0.1,0.8c-0.1,0.3-0.3,0.6-0.5,0.8s-0.5,0.5-0.8,0.7c-0.3,0.2-0.6,0.3-1,0.5
	c-0.4,0.1-0.7,0.2-1.1,0.2c-0.4,0-0.7-0.1-0.9-0.2c-0.3-0.1-0.5-0.3-0.6-0.5c-0.2-0.2-0.3-0.4-0.3-0.7S365.8,34.8,365.9,34.5z"/>
<line fill="none" stroke="#000000" stroke-width="0.459" stroke-miterlimit="10" x1="370.8" y1="33.7" x2="370.8" y2="18.9"/>
<path d="M374.1,36.9c0.1-0.3,0.3-0.6,0.5-0.8c0.2-0.3,0.5-0.5,0.8-0.7c0.3-0.2,0.6-0.3,1-0.5s0.7-0.2,1.1-0.2s0.7,0.1,0.9,0.2
	c0.3,0.1,0.5,0.3,0.6,0.5s0.3,0.4,0.3,0.7c0,0.3,0,0.5-0.1,0.8c-0.1,0.3-0.3,0.6-0.5,0.8s-0.5,0.5-0.8,0.7c-0.3,0.2-0.6,0.3-1,0.5
	c-0.4,0.1-0.7,0.2-1.1,0.2c-0.4,0-0.7-0.1-0.9-0.2c-0.3-0.1-0.5-0.3-0.6-0.5c-0.2-0.2-0.3-0.4-0.3-0.7S374,37.2,374.1,36.9z"/>
<line fill="none" stroke="#000000" stroke-width="0.459" stroke-miterlimit="10" x1="379" y1="36.1" x2="379" y2="20.1"/>
<path d="M382.7,39.3c0.1-0.3,0.3-0.6,0.5-0.8c0.2-0.3,0.5-0.5,0.8-0.7c0.3-0.2,0.6-0.3,1-0.5c0.3-0.1,0.7-0.2,1.1-0.2
	s0.7,0.1,0.9,0.2c0.3,0.1,0.5,0.3,0.6,0.5c0.2,0.2,0.3,0.4,0.3,0.7c0,0.3,0,0.5-0.1,0.8c-0.1,0.3-0.3,0.6-0.5,0.8
	c-0.2,0.3-0.5,0.5-0.8,0.7s-0.6,0.3-1,0.5c-0.4,0.1-0.7,0.2-1,0.2c-0.4,0-0.7-0.1-0.9-0.2s-0.5-0.3-0.6-0.5
	c-0.2-0.2-0.3-0.4-0.3-0.7C382.6,39.9,382.6,39.6,382.7,39.3z"/>
<line fill="none" stroke="#000000" stroke-width="0.459" stroke-miterlimit="10" x1="387.6" y1="38.5" x2="387.6" y2="21.3"/>
<polyline points="370.6,17.7 387.8,20.1 387.8,22.5 370.6,20.1 "/>
<line fill="none" stroke="#000000" stroke-width="0.459" stroke-miterlimit="10" x1="402.8" y1="33.7" x2="402.8" y2="17.7"/>
<path d="M403.2,33c0.1,0.1,0.1,0.3,0.1,0.4c0,0.2,0,0.3,0,0.5c0,0.2,0,0.3-0.1,0.4s-0.1,0.2-0.1,0.3c-0.2,0.4-0.4,0.8-0.7,1.1
	s-0.6,0.5-0.9,0.7c-0.5,0.3-1.2,0.4-2,0.3c-0.1,0-0.2,0-0.4-0.1c-0.2,0-0.3-0.1-0.5-0.1c-0.2-0.1-0.3-0.1-0.4-0.2
	c-0.1-0.1-0.2-0.2-0.3-0.3c-0.1-0.1-0.1-0.3-0.2-0.4c0-0.2,0-0.3,0-0.4c0-0.1,0-0.3,0.1-0.4s0.1-0.2,0.1-0.3
	c0.2-0.4,0.4-0.8,0.7-1.1c0.3-0.3,0.6-0.5,0.8-0.7c0.3-0.1,0.6-0.3,0.9-0.4c0.4-0.1,0.8-0.1,1.3-0.1c0.1,0,0.2,0,0.3,0
	c0.1,0,0.3,0.1,0.4,0.1c0.1,0.1,0.3,0.1,0.4,0.2S403.1,32.9,403.2,33z M402.8,33.3c-0.1-0.1-0.2-0.2-0.3-0.3c-0.1,0-0.3-0.1-0.4-0.1
	c-0.2,0-0.3,0-0.5,0.1c-0.2,0.1-0.3,0.1-0.4,0.2c-0.2,0.1-0.4,0.2-0.5,0.3c-0.2,0.1-0.3,0.2-0.5,0.3c-0.3,0.2-0.7,0.4-1,0.6
	c-0.1,0.1-0.2,0.2-0.4,0.3c-0.1,0.1-0.2,0.2-0.3,0.3c-0.1,0.1-0.1,0.3-0.2,0.4c0,0.1,0,0.3,0.1,0.4c0.1,0.1,0.2,0.2,0.3,0.3
	s0.3,0.1,0.4,0c0.2,0,0.3-0.1,0.5-0.1c0.2-0.1,0.3-0.1,0.4-0.2c0.2-0.1,0.4-0.2,0.5-0.3c0.2-0.1,0.3-0.2,0.5-0.3
	c0.2-0.1,0.3-0.2,0.5-0.3c0.2-0.1,0.3-0.2,0.5-0.3c0.1-0.1,0.2-0.2,0.4-0.3c0.1-0.1,0.2-0.2,0.3-0.3c0.1-0.1,0.1-0.3,0.2-0.4
	S402.9,33.4,402.8,33.3z"/>
<line fill="none" stroke="#000000" stroke-width="0.459" stroke-miterlimit="10" x1="436.6" y1="36.1" x2="436.6" y2="20.1"/>
<path d="M431.7,36.9c0.1-0.3,0.3-0.6,0.5-0.8c0.2-0.3,0.5-0.5,0.8-0.7c0.3-0.2,0.6-0.3,1-0.5s0.7-0.2,1.1-0.2c0.4,0,0.7,0.1,0.9,0.2
	c0.3,0.1,0.5,0.3,0.6,0.5c0.2,0.2,0.3,0.4,0.3,0.7c0,0.3,0,0.5-0.1,0.8c-0.1,0.3-0.3,0.6-0.5,0.8s-0.5,0.5-0.8,0.7
	c-0.3,0.2-0.6,0.3-1,0.5c-0.4,0.1-0.7,0.2-1.1,0.2c-0.4,0-0.7-0.1-0.9-0.2c-0.3-0.1-0.5-0.3-0.6-0.5c-0.2-0.2-0.3-0.4-0.3-0.7
	S431.6,37.2,431.7,36.9z"/>
<g>
	<path d="M399.3,16.7V16l2.4,0v2.1c-0.4,0.3-0.8,0.5-1.2,0.7c-0.4,0.1-0.8,0.2-1.2,0.2c-0.6,0-1.1-0.1-1.5-0.4c-0.5-0.2-0.8-0.6-1-1
		s-0.4-1-0.4-1.5c0-0.6,0.1-1.1,0.3-1.6c0.2-0.5,0.6-0.8,1-1.1s0.9-0.4,1.5-0.4c0.4,0,0.8,0.1,1.1,0.2c0.3,0.1,0.6,0.3,0.8,0.6
		c0.2,0.2,0.3,0.6,0.4,0.9L401,15c-0.1-0.3-0.2-0.5-0.3-0.7c-0.1-0.2-0.3-0.3-0.5-0.4c-0.2-0.1-0.5-0.2-0.8-0.2
		c-0.3,0-0.6,0.1-0.9,0.2c-0.3,0.1-0.5,0.2-0.6,0.4c-0.2,0.2-0.3,0.4-0.4,0.6c-0.1,0.4-0.2,0.7-0.2,1.2c0,0.5,0.1,0.9,0.3,1.3
		s0.4,0.6,0.8,0.8s0.7,0.2,1.1,0.2c0.3,0,0.6-0.1,1-0.2s0.5-0.3,0.7-0.4v-1.1H399.3z"/>
</g>
<g>
	<path d="M466.2,28.8c0.6,0,1,0.4,1,1c0,0.5-0.4,1-1,1s-1-0.4-1-1C465.2,29.2,465.6,28.8,466.2,28.8z"/>
</g>
<line fill="none" stroke="#000000" stroke-width="0.459" stroke-miterlimit="10" x1="458" y1="30.5" x2="458" y2="46.5"/>
<path d="M463.2,28.2c0.1,0.1,0.1,0.3,0.1,0.4c0,0.2,0,0.3,0,0.5c0,0.2,0,0.3-0.1,0.4c0,0.1-0.1,0.2-0.1,0.3
	c-0.2,0.4-0.4,0.8-0.7,1.1c-0.3,0.3-0.6,0.5-0.9,0.7c-0.5,0.3-1.2,0.4-2,0.3c-0.1,0-0.2,0-0.4-0.1c-0.2,0-0.3-0.1-0.5-0.1
	c-0.2-0.1-0.3-0.1-0.4-0.2s-0.2-0.2-0.3-0.3c-0.1-0.1-0.1-0.3-0.2-0.4c0-0.2,0-0.3,0-0.4c0-0.1,0-0.3,0.1-0.4c0-0.1,0.1-0.2,0.1-0.3
	c0.2-0.4,0.4-0.8,0.7-1.1c0.3-0.3,0.6-0.5,0.8-0.7c0.3-0.1,0.6-0.3,0.9-0.4c0.4-0.1,0.8-0.1,1.3-0.1c0.1,0,0.2,0,0.3,0
	c0.1,0,0.3,0.1,0.4,0.1c0.1,0.1,0.3,0.1,0.4,0.2S463.1,28.1,463.2,28.2z M462.8,28.5c-0.1-0.1-0.2-0.2-0.3-0.3
	c-0.1,0-0.3-0.1-0.4-0.1c-0.2,0-0.3,0-0.5,0.1c-0.2,0.1-0.3,0.1-0.4,0.2c-0.2,0.1-0.4,0.2-0.5,0.3c-0.2,0.1-0.3,0.2-0.5,0.3
	c-0.3,0.2-0.7,0.4-1,0.6c-0.1,0.1-0.2,0.2-0.4,0.3c-0.1,0.1-0.2,0.2-0.3,0.3c-0.1,0.1-0.1,0.3-0.2,0.4s0,0.3,0.1,0.4
	c0.1,0.1,0.2,0.2,0.3,0.3c0.1,0,0.3,0.1,0.4,0c0.2,0,0.3-0.1,0.5-0.1s0.3-0.1,0.4-0.2c0.2-0.1,0.4-0.2,0.5-0.3
	c0.2-0.1,0.3-0.2,0.5-0.3c0.2-0.1,0.3-0.2,0.5-0.3c0.2-0.1,0.3-0.2,0.5-0.3c0.1-0.1,0.2-0.2,0.4-0.3s0.2-0.2,0.3-0.3
	c0.1-0.1,0.1-0.3,0.2-0.4C462.9,28.8,462.9,28.6,462.8,28.5z"/>
<g>
	<path d="M462.5,16.9l0.8,0.2c-0.2,0.6-0.4,1.1-0.9,1.4c-0.4,0.3-0.9,0.5-1.5,0.5c-0.6,0-1.1-0.1-1.5-0.4s-0.7-0.6-0.9-1.1
		s-0.3-1-0.3-1.5c0-0.6,0.1-1.1,0.3-1.6c0.2-0.4,0.6-0.8,1-1c0.4-0.2,0.9-0.3,1.4-0.3c0.6,0,1.1,0.1,1.4,0.4
		c0.4,0.3,0.7,0.7,0.8,1.2l-0.7,0.2c-0.1-0.4-0.3-0.7-0.6-0.9c-0.3-0.2-0.6-0.3-1-0.3c-0.4,0-0.8,0.1-1.1,0.3
		c-0.3,0.2-0.5,0.5-0.6,0.8c-0.1,0.4-0.2,0.7-0.2,1.1c0,0.5,0.1,0.9,0.2,1.3c0.1,0.4,0.4,0.6,0.7,0.8c0.3,0.2,0.6,0.3,1,0.3
		c0.4,0,0.8-0.1,1.1-0.4C462.2,17.7,462.4,17.4,462.5,16.9z"/>
</g>
<g>
	<path d="M464.8,17.8l0.6-0.1c0,0.3,0.1,0.4,0.3,0.6c0.2,0.1,0.4,0.2,0.7,0.2c0.3,0,0.5-0.1,0.6-0.2c0.1-0.1,0.2-0.3,0.2-0.4
		c0-0.1-0.1-0.3-0.2-0.3c-0.1-0.1-0.3-0.1-0.6-0.2c-0.5-0.1-0.8-0.2-1-0.3s-0.3-0.2-0.4-0.4s-0.1-0.3-0.1-0.5c0-0.2,0-0.3,0.1-0.5
		c0.1-0.1,0.2-0.3,0.3-0.4c0.1-0.1,0.2-0.1,0.4-0.2c0.2-0.1,0.4-0.1,0.5-0.1c0.3,0,0.6,0,0.8,0.1c0.2,0.1,0.4,0.2,0.5,0.3
		s0.2,0.3,0.2,0.6l-0.6,0.1c0-0.2-0.1-0.3-0.2-0.4c-0.1-0.1-0.3-0.2-0.6-0.2c-0.3,0-0.5,0-0.6,0.1c-0.1,0.1-0.2,0.2-0.2,0.3
		c0,0.1,0,0.2,0.1,0.2c0.1,0.1,0.1,0.1,0.2,0.2c0.1,0,0.2,0.1,0.6,0.2c0.4,0.1,0.8,0.2,0.9,0.3c0.2,0.1,0.3,0.2,0.4,0.3
		c0.1,0.1,0.2,0.3,0.2,0.5c0,0.2-0.1,0.4-0.2,0.6s-0.3,0.3-0.5,0.4c-0.2,0.1-0.5,0.2-0.8,0.2c-0.5,0-0.9-0.1-1.1-0.3
		C465.1,18.5,464.9,18.2,464.8,17.8z"/>
</g>
<g>
	<path d="M472.1,18.9v-0.5c-0.3,0.4-0.7,0.6-1.2,0.6c-0.2,0-0.4,0-0.6-0.1c-0.2-0.1-0.3-0.2-0.4-0.3s-0.2-0.3-0.2-0.5
		c0-0.1,0-0.3,0-0.6v-2.3h0.6v2.1c0,0.3,0,0.6,0,0.7c0,0.2,0.1,0.3,0.3,0.4c0.1,0.1,0.3,0.1,0.5,0.1s0.4,0,0.5-0.1
		c0.2-0.1,0.3-0.2,0.4-0.4c0.1-0.2,0.1-0.4,0.1-0.7v-2h0.6v3.7H472.1z"/>
</g>
<g>
	<path d="M474.4,17.8l0.6-0.1c0,0.3,0.1,0.4,0.3,0.6c0.2,0.1,0.4,0.2,0.7,0.2c0.3,0,0.5-0.1,0.6-0.2c0.1-0.1,0.2-0.3,0.2-0.4
		c0-0.1-0.1-0.3-0.2-0.3c-0.1-0.1-0.3-0.1-0.6-0.2c-0.5-0.1-0.8-0.2-1-0.3s-0.3-0.2-0.4-0.4s-0.1-0.3-0.1-0.5c0-0.2,0-0.3,0.1-0.5
		c0.1-0.1,0.2-0.3,0.3-0.4c0.1-0.1,0.2-0.1,0.4-0.2c0.2-0.1,0.4-0.1,0.5-0.1c0.3,0,0.6,0,0.8,0.1c0.2,0.1,0.4,0.2,0.5,0.3
		s0.2,0.3,0.2,0.6l-0.6,0.1c0-0.2-0.1-0.3-0.2-0.4c-0.1-0.1-0.3-0.2-0.6-0.2c-0.3,0-0.5,0-0.6,0.1c-0.1,0.1-0.2,0.2-0.2,0.3
		c0,0.1,0,0.2,0.1,0.2c0.1,0.1,0.1,0.1,0.2,0.2c0.1,0,0.2,0.1,0.6,0.2c0.4,0.1,0.8,0.2,0.9,0.3c0.2,0.1,0.3,0.2,0.4,0.3
		c0.1,0.1,0.2,0.3,0.2,0.5c0,0.2-0.1,0.4-0.2,0.6s-0.3,0.3-0.5,0.4c-0.2,0.1-0.5,0.2-0.8,0.2c-0.5,0-0.9-0.1-1.1-0.3
		C474.7,18.5,474.5,18.2,474.4,17.8z"/>
</g>
<g>
	<path d="M481.1,18.9v-1.2h-2.2v-0.6l2.4-3.3h0.5v3.3h0.7v0.6h-0.7v1.2H481.1z M481.1,17.1v-2.3l-1.6,2.3H481.1z"/>
</g>
<g>
	<path d="M519.8,35.6c-0.7-0.5-1.7-1.6-1.7-3.5c0-1.7,0.9-3.1,1.7-3.5l0.1,0.1c-1.1,1.1-1.1,2.2-1.1,3.4c0,1.1,0.1,2.3,1.1,3.4
		L519.8,35.6z M521.1,29.9c0,0.1,0,1,0,1c0.5-0.5,0.9-0.6,1.3-0.6c0.7,0,1,0.6,1,1.2c0,0.3-0.1,0.6-0.2,0.9
		c-0.1,0.3-0.3,0.5-0.5,0.7c-0.2,0.3-2.1,1.5-2.1,1.5v-8.4h0.5C521.1,26.2,521.1,28,521.1,29.9z M521.3,31.4
		c-0.2,0.3-0.2,0.8-0.2,1.3v1.2c0,0,0.5-0.4,0.7-0.7c0.2-0.2,0.4-0.5,0.5-0.9c0.1-0.4,0.1-0.8-0.2-1.1C522,31,521.5,30.8,521.3,31.4
		z M524.1,29.9c0,0.1,0,1,0,1c0.5-0.5,0.9-0.6,1.3-0.6c0.7,0,1,0.6,1,1.2c0,0.3-0.1,0.6-0.2,0.8c-0.1,0.3-0.3,0.5-0.5,0.8
		c-0.2,0.2-2.1,1.5-2.1,1.5v-8.4h0.5C524.1,26.2,524.1,28,524.1,29.9z M524.3,31.4c-0.2,0.3-0.2,0.8-0.2,1.3v1.2
		c0,0,0.5-0.4,0.8-0.7c0.2-0.2,0.4-0.5,0.5-0.9c0.1-0.4,0.1-0.8-0.2-1.1C525,31,524.6,30.8,524.3,31.4z M526.4,35.6l-0.1-0.1
		c1.1-1.1,1.1-2.3,1.1-3.4c0-1.2-0.1-2.3-1.1-3.4l0.1-0.1c0.7,0.4,1.7,1.8,1.7,3.5C528,34.1,527.1,35.1,526.4,35.6z"/>
</g>
<line fill="none" stroke="#000000" stroke-width="0.459" stroke-miterlimit="10" x1="517.6" y1="32.1" x2="524.8" y2="32.1"/>
<g>
	<path d="M522.9,16.9l0.8,0.2c-0.2,0.6-0.4,1.1-0.9,1.4c-0.4,0.3-0.9,0.5-1.5,0.5c-0.6,0-1.1-0.1-1.5-0.4s-0.7-0.6-0.9-1.1
		s-0.3-1-0.3-1.5c0-0.6,0.1-1.1,0.3-1.6c0.2-0.4,0.6-0.8,1-1c0.4-0.2,0.9-0.3,1.4-0.3c0.6,0,1.1,0.1,1.4,0.4
		c0.4,0.3,0.7,0.7,0.8,1.2l-0.7,0.2c-0.1-0.4-0.3-0.7-0.6-0.9c-0.3-0.2-0.6-0.3-1-0.3c-0.4,0-0.8,0.1-1.1,0.3
		c-0.3,0.2-0.5,0.5-0.6,0.8c-0.1,0.4-0.2,0.7-0.2,1.1c0,0.5,0.1,0.9,0.2,1.3c0.1,0.4,0.4,0.6,0.7,0.8c0.3,0.2,0.6,0.3,1,0.3
		c0.4,0,0.8-0.1,1.1-0.4C522.6,17.7,522.8,17.4,522.9,16.9z"/>
</g>
<line fill="none" stroke="#000000" stroke-width="0.459" stroke-miterlimit="10" x1="599" y1="33.7" x2="599" y2="17.7"/>
<path d="M594.1,34.5c0.1-0.3,0.3-0.6,0.5-0.8c0.2-0.3,0.5-0.5,0.8-0.7s0.6-0.3,1-0.5s0.7-0.2,1.1-0.2s0.7,0.1,0.9,0.2
	c0.3,0.1,0.5,0.3,0.6,0.5c0.2,0.2,0.3,0.4,0.3,0.7s0,0.5-0.1,0.8c-0.1,0.3-0.3,0.6-0.5,0.8s-0.5,0.5-0.8,0.7c-0.3,0.2-0.6,0.3-1,0.5
	c-0.4,0.1-0.7,0.2-1.1,0.2c-0.4,0-0.7-0.1-0.9-0.2c-0.3-0.1-0.5-0.3-0.6-0.5c-0.2-0.2-0.3-0.4-0.3-0.7C594,35.1,594,34.8,594.1,34.5
	z"/>
<line fill="none" stroke="#000000" stroke-width="0.459" stroke-miterlimit="10" x1="637.4" y1="30.5" x2="637.4" y2="46.5"/>
<path d="M642.6,28.2c0.1,0.1,0.1,0.3,0.1,0.4c0,0.2,0,0.3,0,0.5c0,0.2,0,0.3-0.1,0.4c0,0.1-0.1,0.2-0.1,0.3
	c-0.2,0.4-0.4,0.8-0.7,1.1c-0.3,0.3-0.6,0.5-0.9,0.7c-0.5,0.3-1.2,0.4-2,0.3c-0.1,0-0.2,0-0.4-0.1c-0.2,0-0.3-0.1-0.5-0.1
	c-0.2-0.1-0.3-0.1-0.4-0.2c-0.1-0.1-0.2-0.2-0.3-0.3c-0.1-0.1-0.1-0.3-0.2-0.4c0-0.2,0-0.3,0-0.4c0-0.1,0-0.3,0.1-0.4
	c0-0.1,0.1-0.2,0.1-0.3c0.2-0.4,0.4-0.8,0.7-1.1c0.3-0.3,0.6-0.5,0.8-0.7c0.3-0.1,0.6-0.3,0.9-0.4c0.4-0.1,0.8-0.1,1.3-0.1
	c0.1,0,0.2,0,0.3,0c0.1,0,0.3,0.1,0.4,0.1s0.3,0.1,0.4,0.2C642.4,27.9,642.5,28.1,642.6,28.2z M642.2,28.5c-0.1-0.1-0.2-0.2-0.3-0.3
	s-0.3-0.1-0.4-0.1s-0.3,0-0.5,0.1c-0.2,0.1-0.3,0.1-0.4,0.2c-0.2,0.1-0.4,0.2-0.5,0.3c-0.2,0.1-0.3,0.2-0.5,0.3
	c-0.3,0.2-0.7,0.4-1,0.6c-0.1,0.1-0.2,0.2-0.4,0.3c-0.1,0.1-0.2,0.2-0.3,0.3c-0.1,0.1-0.1,0.3-0.2,0.4c0,0.1,0,0.3,0.1,0.4
	c0.1,0.1,0.2,0.2,0.3,0.3c0.1,0,0.3,0.1,0.4,0c0.2,0,0.3-0.1,0.5-0.1s0.3-0.1,0.4-0.2c0.2-0.1,0.4-0.2,0.5-0.3
	c0.2-0.1,0.3-0.2,0.5-0.3c0.2-0.1,0.3-0.2,0.5-0.3s0.3-0.2,0.5-0.3c0.1-0.1,0.2-0.2,0.4-0.3c0.1-0.1,0.2-0.2,0.3-0.3
	c0.1-0.1,0.1-0.3,0.2-0.4C642.3,28.8,642.3,28.6,642.2,28.5z"/>
<g>
	<path d="M677,9.8l1.1-0.1c0,0.3,0.1,0.5,0.2,0.6c0.1,0.1,0.3,0.2,0.5,0.2c0.3,0,0.5-0.1,0.6-0.3s0.3-0.4,0.3-0.7
		c0-0.2-0.1-0.4-0.2-0.6c-0.1-0.1-0.3-0.2-0.5-0.2c-0.1,0-0.1,0-0.2,0l0.2-0.9c0,0,0.1,0,0.1,0c0.3,0,0.5-0.1,0.7-0.2S680,7.3,680,7
		c0-0.2-0.1-0.3-0.2-0.4c-0.1-0.1-0.2-0.2-0.4-0.2c-0.2,0-0.3,0.1-0.4,0.2c-0.1,0.1-0.2,0.3-0.3,0.6l-1-0.2c0.1-0.4,0.3-0.7,0.5-1
		c0.4-0.3,0.8-0.5,1.3-0.5c0.5,0,0.9,0.1,1.2,0.4c0.3,0.3,0.4,0.6,0.4,1.1c0,0.3-0.1,0.6-0.3,0.8c-0.2,0.2-0.4,0.4-0.7,0.5
		c0.2,0.1,0.4,0.3,0.5,0.5c0.1,0.2,0.2,0.4,0.2,0.6c0,0.4-0.1,0.8-0.4,1.2c-0.4,0.5-0.9,0.7-1.6,0.7c-0.5,0-0.9-0.1-1.2-0.4
		C677.3,10.7,677.1,10.3,677,9.8z"/>
</g>
<path d="M666.5,34.5c0.1-0.3,0.3-0.6,0.5-0.8c0.2-0.3,0.5-0.5,0.8-0.7c0.3-0.2,0.6-0.3,1-0.5s0.7-0.2,1.1-0.2c0.4,0,0.7,0.1,0.9,0.2
	c0.3,0.1,0.5,0.3,0.6,0.5c0.2,0.2,0.3,0.4,0.3,0.7c0,0.3,0,0.5-0.1,0.8c-0.1,0.3-0.3,0.6-0.5,0.8c-0.2,0.3-0.5,0.5-0.8,0.7
	c-0.3,0.2-0.6,0.3-1,0.5c-0.4,0.1-0.7,0.2-1,0.2c-0.4,0-0.7-0.1-0.9-0.2c-0.3-0.1-0.5-0.3-0.6-0.5c-0.2-0.2-0.3-0.4-0.3-0.7
	S666.4,34.8,666.5,34.5z"/>
<line fill="none" stroke="#000000" stroke-width="0.459" stroke-miterlimit="10" x1="671.4" y1="33.7" x2="671.4" y2="18.9"/>
<path d="M673.7,36.9c0.1-0.3,0.3-0.6,0.5-0.8c0.2-0.3,0.5-0.5,0.8-0.7s0.6-0.3,1-0.5c0.3-0.1,0.7-0.2,1.1-0.2s0.7,0.1,0.9,0.2
	s0.5,0.3,0.6,0.5c0.2,0.2,0.3,0.4,0.3,0.7c0,0.3,0,0.5-0.1,0.8c-0.1,0.3-0.3,0.6-0.5,0.8c-0.2,0.3-0.5,0.5-0.8,0.7
	c-0.3,0.2-0.6,0.3-1,0.5c-0.4,0.1-0.7,0.2-1,0.2c-0.4,0-0.7-0.1-0.9-0.2c-0.3-0.1-0.5-0.3-0.6-0.5c-0.2-0.2-0.3-0.4-0.3-0.7
	C673.6,37.5,673.6,37.2,673.7,36.9z"/>
<line fill="none" stroke="#000000" stroke-width="0.459" stroke-miterlimit="10" x1="678.6" y1="36.1" x2="678.6" y2="20.1"/>
<path d="M680.9,39.3c0.1-0.3,0.3-0.6,0.5-0.8c0.2-0.3,0.5-0.5,0.8-0.7c0.3-0.2,0.6-0.3,1-0.5s0.7-0.2,1.1-0.2s0.7,0.1,0.9,0.2
	c0.3,0.1,0.5,0.3,0.6,0.5c0.2,0.2,0.3,0.4,0.3,0.7s0,0.5-0.1,0.8c-0.1,0.3-0.3,0.6-0.5,0.8c-0.2,0.3-0.5,0.5-0.8,0.7
	c-0.3,0.2-0.6,0.3-1,0.5c-0.4,0.1-0.7,0.2-1.1,0.2c-0.4,0-0.7-0.1-0.9-0.2c-0.3-0.1-0.5-0.3-0.6-0.5s-0.3-0.4-0.3-0.7
	S680.8,39.6,680.9,39.3z"/>
<line fill="none" stroke="#000000" stroke-width="0.459" stroke-miterlimit="10" x1="685.8" y1="38.5" x2="685.8" y2="21.3"/>
<polyline points="671.2,17.7 686,20.1 686,22.5 671.2,20.1 "/>
<g>
	<path d="M637.9,18.9v-5.7h3.9v0.7h-3.1v1.8h2.7v0.7h-2.7v2.6H637.9z"/>
</g>
<line fill="none" stroke="#000000" stroke-width="0.459" stroke-miterlimit="10" x1="701.8" y1="33.7" x2="701.8" y2="17.7"/>
<path d="M702.2,33c0.1,0.1,0.1,0.3,0.1,0.4c0,0.2,0,0.3,0,0.5c0,0.2,0,0.3-0.1,0.4c0,0.1-0.1,0.2-0.1,0.3c-0.2,0.4-0.4,0.8-0.7,1.1
	s-0.6,0.5-0.9,0.7c-0.5,0.3-1.2,0.4-2,0.3c-0.1,0-0.2,0-0.4-0.1s-0.3-0.1-0.5-0.1c-0.2-0.1-0.3-0.1-0.4-0.2
	c-0.1-0.1-0.2-0.2-0.3-0.3c-0.1-0.1-0.1-0.3-0.2-0.4c0-0.2,0-0.3,0-0.4c0-0.1,0-0.3,0.1-0.4c0-0.1,0.1-0.2,0.1-0.3
	c0.2-0.4,0.4-0.8,0.7-1.1c0.3-0.3,0.6-0.5,0.8-0.7c0.3-0.1,0.6-0.3,0.9-0.4c0.4-0.1,0.8-0.1,1.3-0.1c0.1,0,0.2,0,0.3,0
	c0.1,0,0.3,0.1,0.4,0.1c0.1,0.1,0.3,0.1,0.4,0.2C702,32.7,702.1,32.9,702.2,33z M701.8,33.3c-0.1-0.1-0.2-0.2-0.3-0.3
	c-0.1,0-0.3-0.1-0.4-0.1c-0.2,0-0.3,0-0.5,0.1c-0.2,0.1-0.3,0.1-0.4,0.2c-0.2,0.1-0.4,0.2-0.5,0.3c-0.2,0.1-0.3,0.2-0.5,0.3
	c-0.3,0.2-0.7,0.4-1,0.6c-0.1,0.1-0.2,0.2-0.4,0.3c-0.1,0.1-0.2,0.2-0.3,0.3c-0.1,0.1-0.1,0.3-0.2,0.4c0,0.1,0,0.3,0.1,0.4
	c0.1,0.1,0.2,0.2,0.3,0.3c0.1,0,0.3,0.1,0.4,0c0.2,0,0.3-0.1,0.5-0.1c0.2-0.1,0.3-0.1,0.4-0.2c0.2-0.1,0.4-0.2,0.5-0.3
	c0.2-0.1,0.3-0.2,0.5-0.3c0.2-0.1,0.3-0.2,0.5-0.3c0.2-0.1,0.3-0.2,0.5-0.3c0.1-0.1,0.2-0.2,0.4-0.3c0.1-0.1,0.2-0.2,0.3-0.3
	c0.1-0.1,0.1-0.3,0.2-0.4C701.9,33.6,701.9,33.4,701.8,33.3z"/>
<line fill="none" stroke="#000000" stroke-width="0.459" stroke-miterlimit="10" x1="735.6" y1="36.1" x2="735.6" y2="20.1"/>
<path d="M730.7,36.9c0.1-0.3,0.3-0.6,0.5-0.8c0.2-0.3,0.5-0.5,0.8-0.7s0.6-0.3,1-0.5c0.3-0.1,0.7-0.2,1.1-0.2s0.7,0.1,0.9,0.2
	s0.5,0.3,0.6,0.5c0.2,0.2,0.3,0.4,0.3,0.7c0,0.3,0,0.5-0.1,0.8c-0.1,0.3-0.3,0.6-0.5,0.8c-0.2,0.3-0.5,0.5-0.8,0.7
	c-0.3,0.2-0.6,0.3-1,0.5c-0.4,0.1-0.7,0.2-1,0.2c-0.4,0-0.7-0.1-0.9-0.2c-0.3-0.1-0.5-0.3-0.6-0.5c-0.2-0.2-0.3-0.4-0.3-0.7
	C730.6,37.5,730.6,37.2,730.7,36.9z"/>
<g>
	<path d="M697.5,18.9v-5.7h3.9v0.7h-3.1v1.8h2.7v0.7h-2.7v2.6H697.5z"/>
</g>
<g>
	<path d="M703.1,14.4v-0.6h3.3v0.5c-0.3,0.3-0.7,0.8-1,1.4c-0.3,0.6-0.6,1.2-0.7,1.8c-0.1,0.4-0.2,0.9-0.2,1.4h-0.7
		c0-0.4,0.1-0.9,0.2-1.5s0.4-1.1,0.7-1.7s0.6-1,0.9-1.3H703.1z"/>
</g>
<line fill="none" stroke="#000000" stroke-width="0.459" stroke-miterlimit="10" x1="761.6" y1="38.5" x2="761.6" y2="22.5"/>
<path d="M762,37.8c0.1,0.1,0.1,0.3,0.1,0.4c0,0.2,0,0.3,0,0.5c0,0.2,0,0.3-0.1,0.4c0,0.1-0.1,0.2-0.1,0.3c-0.2,0.4-0.4,0.8-0.7,1.1
	c-0.3,0.3-0.6,0.5-0.9,0.7c-0.5,0.3-1.2,0.4-2,0.3c-0.1,0-0.2,0-0.4-0.1s-0.3-0.1-0.5-0.1c-0.2-0.1-0.3-0.1-0.4-0.2
	c-0.1-0.1-0.2-0.2-0.3-0.3c-0.1-0.1-0.1-0.3-0.2-0.4c0-0.2,0-0.3,0-0.4c0-0.1,0-0.3,0.1-0.4c0-0.1,0.1-0.2,0.1-0.3
	c0.2-0.4,0.4-0.8,0.7-1.1c0.3-0.3,0.6-0.5,0.8-0.7c0.3-0.1,0.6-0.3,0.9-0.4s0.8-0.1,1.3-0.1c0.1,0,0.2,0,0.3,0
	c0.1,0,0.3,0.1,0.4,0.1s0.3,0.1,0.4,0.2C761.8,37.5,761.9,37.7,762,37.8z M761.6,38.1c-0.1-0.1-0.2-0.2-0.3-0.3
	c-0.1,0-0.3-0.1-0.4-0.1c-0.2,0-0.3,0-0.5,0.1c-0.2,0.1-0.3,0.1-0.4,0.2c-0.2,0.1-0.4,0.2-0.5,0.3c-0.2,0.1-0.3,0.2-0.5,0.3
	c-0.3,0.2-0.7,0.4-1,0.6c-0.1,0.1-0.2,0.2-0.4,0.3c-0.1,0.1-0.2,0.2-0.3,0.3c-0.1,0.1-0.1,0.3-0.2,0.4c0,0.1,0,0.3,0.1,0.4
	c0.1,0.1,0.2,0.2,0.3,0.3c0.1,0,0.3,0.1,0.4,0c0.2,0,0.3-0.1,0.5-0.1c0.2-0.1,0.3-0.1,0.4-0.2c0.2-0.1,0.4-0.2,0.5-0.3
	c0.2-0.1,0.3-0.2,0.5-0.3c0.2-0.1,0.3-0.2,0.5-0.3c0.2-0.1,0.3-0.2,0.5-0.3c0.1-0.1,0.2-0.2,0.4-0.3c0.1-0.1,0.2-0.2,0.3-0.3
	c0.1-0.1,0.1-0.3,0.2-0.4C761.7,38.4,761.7,38.2,761.6,38.1z"/>
<line fill="none" stroke="#000000" stroke-width="0.459" stroke-miterlimit="10" x1="795.4" y1="43.3" x2="795.4" y2="27.3"/>
<path d="M790.5,44.1c0.1-0.3,0.3-0.6,0.5-0.8c0.2-0.3,0.5-0.5,0.8-0.7c0.3-0.2,0.6-0.3,1-0.5s0.7-0.2,1.1-0.2s0.7,0.1,0.9,0.2
	c0.3,0.1,0.5,0.3,0.6,0.5c0.2,0.2,0.3,0.4,0.3,0.7s0,0.5-0.1,0.8c-0.1,0.3-0.3,0.6-0.5,0.8s-0.5,0.5-0.8,0.7c-0.3,0.2-0.6,0.3-1,0.5
	c-0.4,0.1-0.7,0.2-1,0.2c-0.4,0-0.7-0.1-0.9-0.2s-0.5-0.3-0.6-0.5c-0.2-0.2-0.3-0.4-0.3-0.7C790.4,44.7,790.4,44.4,790.5,44.1z"/>
<g>
	<path d="M757.2,18.9v-5.7h2.1c0.4,0,0.8,0.1,1.1,0.2c0.3,0.1,0.5,0.3,0.6,0.5c0.1,0.2,0.2,0.5,0.2,0.8c0,0.2-0.1,0.5-0.2,0.7
		c-0.1,0.2-0.3,0.4-0.6,0.5c0.3,0.1,0.6,0.3,0.8,0.5c0.2,0.2,0.3,0.5,0.3,0.9c0,0.3-0.1,0.5-0.2,0.7s-0.3,0.4-0.4,0.5
		c-0.2,0.1-0.4,0.2-0.6,0.3c-0.3,0.1-0.6,0.1-0.9,0.1H757.2z M757.9,15.6h1.2c0.3,0,0.6,0,0.7-0.1c0.2-0.1,0.3-0.2,0.4-0.3
		s0.1-0.3,0.1-0.5c0-0.2,0-0.4-0.1-0.5c-0.1-0.1-0.2-0.2-0.4-0.3c-0.2-0.1-0.5-0.1-0.9-0.1h-1.1V15.6z M757.9,18.2h1.4
		c0.2,0,0.4,0,0.5,0c0.2,0,0.3-0.1,0.4-0.2s0.2-0.2,0.3-0.3c0.1-0.1,0.1-0.3,0.1-0.5c0-0.2-0.1-0.4-0.2-0.6
		c-0.1-0.2-0.3-0.3-0.5-0.3c-0.2-0.1-0.5-0.1-0.8-0.1h-1.3V18.2z"/>
</g>
<g>
	<path d="M763,12.7c0,0.1,0,1,0,1c0.6-0.5,0.9-0.7,1.6-0.7c0.8,0,1.3,0.8,1.3,1.4c0,0.3-0.1,0.7-0.2,1c-0.1,0.4-0.5,0.6-0.8,0.9
		c-0.3,0.3-2.4,1.7-2.4,1.7V8.6h0.4C763,8.6,763,10.6,763,12.7z M763.2,14.3c-0.2,0.4-0.2,1.1-0.2,1.6v1.4c0,0,0.6-0.5,0.9-0.8
		c0.3-0.3,0.5-0.6,0.6-1.1c0.1-0.5,0.1-1-0.2-1.3C764.1,13.8,763.5,13.6,763.2,14.3z"/>
</g>
<line fill="none" stroke="#000000" stroke-width="0.459" stroke-miterlimit="10" x1="822.8" y1="45.7" x2="822.8" y2="29.7"/>
<line fill="none" stroke="#000000" stroke-width="0.459" stroke-miterlimit="10" x1="816.6" y1="46.5" x2="824.2" y2="46.5"/>
<path d="M823.2,45c0.1,0.1,0.1,0.3,0.1,0.4c0,0.2,0,0.3,0,0.5c0,0.2,0,0.3-0.1,0.4c0,0.1-0.1,0.2-0.1,0.3c-0.2,0.4-0.4,0.8-0.7,1.1
	c-0.3,0.3-0.6,0.5-0.9,0.7c-0.5,0.3-1.2,0.4-2,0.3c-0.1,0-0.2,0-0.4-0.1c-0.2,0-0.3-0.1-0.5-0.1c-0.2-0.1-0.3-0.1-0.4-0.2
	c-0.1-0.1-0.2-0.2-0.3-0.3c-0.1-0.1-0.1-0.3-0.2-0.4s0-0.3,0-0.4s0-0.3,0.1-0.4s0.1-0.2,0.1-0.3c0.2-0.4,0.4-0.8,0.7-1.1
	c0.3-0.3,0.6-0.5,0.8-0.7c0.3-0.1,0.6-0.3,0.9-0.4c0.4-0.1,0.8-0.1,1.3-0.1c0.1,0,0.2,0,0.3,0c0.1,0,0.3,0.1,0.4,0.1
	c0.1,0.1,0.3,0.1,0.4,0.2C823,44.7,823.1,44.9,823.2,45z M822.8,45.3c-0.1-0.1-0.2-0.2-0.3-0.3c-0.1,0-0.3-0.1-0.4-0.1
	s-0.3,0-0.5,0.1c-0.2,0.1-0.3,0.1-0.4,0.2c-0.2,0.1-0.4,0.2-0.5,0.3c-0.2,0.1-0.3,0.2-0.5,0.3c-0.3,0.2-0.7,0.4-1,0.6
	c-0.1,0.1-0.2,0.2-0.4,0.3c-0.1,0.1-0.2,0.2-0.3,0.3c-0.1,0.1-0.1,0.3-0.2,0.4c0,0.1,0,0.3,0.1,0.4c0.1,0.1,0.2,0.2,0.3,0.3
	c0.1,0,0.3,0.1,0.4,0c0.2,0,0.3-0.1,0.5-0.1c0.2-0.1,0.3-0.1,0.4-0.2c0.2-0.1,0.4-0.2,0.5-0.3c0.2-0.1,0.3-0.2,0.5-0.3
	c0.2-0.1,0.3-0.2,0.5-0.3c0.2-0.1,0.3-0.2,0.5-0.3c0.1-0.1,0.2-0.2,0.4-0.3c0.1-0.1,0.2-0.2,0.3-0.3c0.1-0.1,0.1-0.3,0.2-0.4
	C822.9,45.6,822.9,45.4,822.8,45.3z"/>
<line fill="none" stroke="#000000" stroke-width="0.459" stroke-miterlimit="10" x1="855.6" y1="45.7" x2="855.6" y2="29.7"/>
<line fill="none" stroke="#000000" stroke-width="0.459" stroke-miterlimit="10" x1="849.4" y1="46.5" x2="857" y2="46.5"/>
<path d="M850.7,46.5c0.1-0.3,0.3-0.6,0.5-0.8c0.2-0.3,0.5-0.5,0.8-0.7s0.6-0.3,1-0.5s0.7-0.2,1.1-0.2s0.7,0.1,0.9,0.2
	c0.3,0.1,0.5,0.3,0.6,0.5c0.2,0.2,0.3,0.4,0.3,0.7c0,0.3,0,0.5-0.1,0.8c-0.1,0.3-0.3,0.6-0.5,0.8c-0.2,0.3-0.5,0.5-0.8,0.7
	c-0.3,0.2-0.6,0.3-1,0.5c-0.4,0.1-0.7,0.2-1,0.2c-0.4,0-0.7-0.1-0.9-0.2c-0.3-0.1-0.5-0.3-0.6-0.5c-0.2-0.2-0.3-0.4-0.3-0.7
	S850.6,46.8,850.7,46.5z"/>
<g>
	<path d="M818.5,18.9v-5.7h3.9v0.7h-3.1v1.8h2.7v0.7h-2.7v2.6H818.5z"/>
</g>
<line fill="none" stroke="#000000" stroke-width="0.459" stroke-miterlimit="10" x1="881.2" y1="38.5" x2="881.2" y2="22.5"/>
<path d="M881.6,37.8c0.1,0.1,0.1,0.3,0.1,0.4c0,0.2,0,0.3,0,0.5c0,0.2,0,0.3-0.1,0.4c0,0.1-0.1,0.2-0.1,0.3
	c-0.2,0.4-0.4,0.8-0.7,1.1c-0.3,0.3-0.6,0.5-0.9,0.7c-0.5,0.3-1.2,0.4-2,0.3c-0.1,0-0.2,0-0.4-0.1c-0.2,0-0.3-0.1-0.5-0.1
	c-0.2-0.1-0.3-0.1-0.4-0.2c-0.1-0.1-0.2-0.2-0.3-0.3c-0.1-0.1-0.1-0.3-0.2-0.4c0-0.2,0-0.3,0-0.4c0-0.1,0-0.3,0.1-0.4
	s0.1-0.2,0.1-0.3c0.2-0.4,0.4-0.8,0.7-1.1c0.3-0.3,0.6-0.5,0.8-0.7c0.3-0.1,0.6-0.3,0.9-0.4c0.4-0.1,0.8-0.1,1.3-0.1
	c0.1,0,0.2,0,0.3,0c0.1,0,0.3,0.1,0.4,0.1s0.3,0.1,0.4,0.2C881.4,37.5,881.5,37.7,881.6,37.8z M881.2,38.1c-0.1-0.1-0.2-0.2-0.3-0.3
	s-0.3-0.1-0.4-0.1c-0.2,0-0.3,0-0.5,0.1c-0.2,0.1-0.3,0.1-0.4,0.2c-0.2,0.1-0.4,0.2-0.5,0.3c-0.2,0.1-0.3,0.2-0.5,0.3
	c-0.3,0.2-0.7,0.4-1,0.6c-0.1,0.1-0.2,0.2-0.4,0.3c-0.1,0.1-0.2,0.2-0.3,0.3c-0.1,0.1-0.1,0.3-0.2,0.4s0,0.3,0.1,0.4
	c0.1,0.1,0.2,0.2,0.3,0.3c0.1,0,0.3,0.1,0.4,0c0.2,0,0.3-0.1,0.5-0.1s0.3-0.1,0.4-0.2c0.2-0.1,0.4-0.2,0.5-0.3
	c0.2-0.1,0.3-0.2,0.5-0.3c0.2-0.1,0.3-0.2,0.5-0.3c0.2-0.1,0.3-0.2,0.5-0.3c0.1-0.1,0.2-0.2,0.4-0.3c0.1-0.1,0.2-0.2,0.3-0.3
	c0.1-0.1,0.1-0.3,0.2-0.4C881.3,38.4,881.3,38.2,881.2,38.1z"/>
<g>
	<path d="M916.6,9.8l1.1-0.1c0,0.3,0.1,0.5,0.2,0.6c0.1,0.1,0.3,0.2,0.5,0.2c0.3,0,0.5-0.1,0.6-0.3s0.3-0.4,0.3-0.7
		c0-0.2-0.1-0.4-0.2-0.6c-0.1-0.1-0.3-0.2-0.5-0.2c-0.1,0-0.1,0-0.2,0l0.2-0.9c0,0,0.1,0,0.1,0c0.3,0,0.5-0.1,0.7-0.2
		s0.2-0.4,0.2-0.6c0-0.2-0.1-0.3-0.2-0.4c-0.1-0.1-0.2-0.2-0.4-0.2c-0.2,0-0.3,0.1-0.4,0.2c-0.1,0.1-0.2,0.3-0.3,0.6l-1-0.2
		c0.1-0.4,0.3-0.7,0.5-1c0.4-0.3,0.8-0.5,1.3-0.5c0.5,0,0.9,0.1,1.2,0.4c0.3,0.3,0.4,0.6,0.4,1.1c0,0.3-0.1,0.6-0.3,0.8
		c-0.2,0.2-0.4,0.4-0.7,0.5c0.2,0.1,0.4,0.3,0.5,0.5c0.1,0.2,0.2,0.4,0.2,0.6c0,0.4-0.1,0.8-0.4,1.2c-0.4,0.5-0.9,0.7-1.6,0.7
		c-0.5,0-0.9-0.1-1.2-0.4C916.9,10.7,916.7,10.3,916.6,9.8z"/>
</g>
<path d="M905.7,34.5c0.1-0.3,0.3-0.6,0.5-0.8c0.2-0.3,0.5-0.5,0.8-0.7c0.3-0.2,0.6-0.3,1-0.5s0.7-0.2,1.1-0.2c0.4,0,0.7,0.1,0.9,0.2
	c0.3,0.1,0.5,0.3,0.6,0.5c0.2,0.2,0.3,0.4,0.3,0.7c0,0.3,0,0.5-0.1,0.8c-0.1,0.3-0.3,0.6-0.5,0.8s-0.5,0.5-0.8,0.7
	c-0.3,0.2-0.6,0.3-1,0.5c-0.4,0.1-0.7,0.2-1.1,0.2c-0.4,0-0.7-0.1-0.9-0.2c-0.3-0.1-0.5-0.3-0.6-0.5c-0.2-0.2-0.3-0.4-0.3-0.7
	S905.6,34.8,905.7,34.5z"/>
<line fill="none" stroke="#000000" stroke-width="0.459" stroke-miterlimit="10" x1="910.6" y1="33.7" x2="910.6" y2="18.9"/>
<path d="M912.7,36.9c0.1-0.3,0.3-0.6,0.5-0.8c0.2-0.3,0.5-0.5,0.8-0.7s0.6-0.3,1-0.5c0.3-0.1,0.7-0.2,1.1-0.2s0.7,0.1,0.9,0.2
	s0.5,0.3,0.6,0.5s0.3,0.4,0.3,0.7c0,0.3,0,0.5-0.1,0.8c-0.1,0.3-0.3,0.6-0.5,0.8c-0.2,0.3-0.5,0.5-0.8,0.7c-0.3,0.2-0.6,0.3-1,0.5
	c-0.4,0.1-0.7,0.2-1.1,0.2c-0.4,0-0.7-0.1-0.9-0.2c-0.3-0.1-0.5-0.3-0.6-0.5c-0.2-0.2-0.3-0.4-0.3-0.7
	C912.6,37.5,912.6,37.2,912.7,36.9z"/>
<line fill="none" stroke="#000000" stroke-width="0.459" stroke-miterlimit="10" x1="917.6" y1="36.1" x2="917.6" y2="20"/>
<path d="M920.9,39.3c0.1-0.3,0.3-0.6,0.5-0.8c0.2-0.3,0.5-0.5,0.8-0.7c0.3-0.2,0.6-0.3,1-0.5s0.7-0.2,1.1-0.2s0.7,0.1,0.9,0.2
	c0.3,0.1,0.5,0.3,0.6,0.5s0.3,0.4,0.3,0.7s0,0.5-0.1,0.8c-0.1,0.3-0.3,0.6-0.5,0.8c-0.2,0.3-0.5,0.5-0.8,0.7c-0.3,0.2-0.6,0.3-1,0.5
	c-0.4,0.1-0.7,0.2-1.1,0.2c-0.4,0-0.7-0.1-0.9-0.2c-0.3-0.1-0.5-0.3-0.6-0.5c-0.2-0.2-0.3-0.4-0.3-0.7S920.8,39.6,920.9,39.3z"/>
<line fill="none" stroke="#000000" stroke-width="0.459" stroke-miterlimit="10" x1="925.8" y1="38.5" x2="925.8" y2="21.3"/>
<polyline points="910.4,17.7 926,20.1 926,22.5 910.4,20.1 "/>
<g>
	<path d="M876.8,18.9v-5.7h2c0.4,0,0.8,0,1,0.1c0.3,0.1,0.6,0.2,0.8,0.4c0.3,0.3,0.5,0.6,0.7,1c0.1,0.4,0.2,0.9,0.2,1.4
		c0,0.4-0.1,0.8-0.2,1.2s-0.2,0.6-0.4,0.8c-0.2,0.2-0.3,0.4-0.5,0.5c-0.2,0.1-0.4,0.2-0.7,0.3c-0.3,0.1-0.6,0.1-0.9,0.1H876.8z
		 M877.6,18.2h1.2c0.4,0,0.7,0,0.9-0.1s0.4-0.2,0.5-0.3c0.2-0.2,0.3-0.4,0.4-0.7c0.1-0.3,0.2-0.7,0.2-1.1c0-0.6-0.1-1.1-0.3-1.4
		c-0.2-0.3-0.4-0.5-0.7-0.6c-0.2-0.1-0.5-0.1-1-0.1h-1.2V18.2z"/>
</g>
<g>
	<path d="M883.5,18.9v-3.7h0.6v0.5c0.1-0.2,0.3-0.3,0.5-0.4c0.2-0.1,0.4-0.2,0.7-0.2c0.3,0,0.5,0.1,0.7,0.2c0.2,0.1,0.3,0.3,0.4,0.5
		c0.3-0.4,0.7-0.7,1.2-0.7c0.4,0,0.7,0.1,0.9,0.3s0.3,0.5,0.3,0.9v2.6h-0.6v-2.4c0-0.3,0-0.4-0.1-0.5s-0.1-0.2-0.2-0.3
		s-0.2-0.1-0.4-0.1c-0.3,0-0.5,0.1-0.7,0.3c-0.2,0.2-0.3,0.5-0.3,0.8v2.2h-0.6v-2.4c0-0.3-0.1-0.5-0.2-0.6c-0.1-0.1-0.3-0.2-0.5-0.2
		c-0.2,0-0.3,0-0.5,0.1s-0.3,0.2-0.3,0.4c-0.1,0.2-0.1,0.4-0.1,0.8v1.9H883.5z"/>
</g>
<line fill="none" stroke="#000000" stroke-width="0.459" stroke-miterlimit="10" x1="941" y1="33.7" x2="941" y2="17.7"/>
<path d="M941.4,33c0.1,0.1,0.1,0.3,0.1,0.4c0,0.2,0,0.3,0,0.5c0,0.2,0,0.3-0.1,0.4s-0.1,0.2-0.1,0.3c-0.2,0.4-0.4,0.8-0.7,1.1
	c-0.3,0.3-0.6,0.5-0.9,0.7c-0.5,0.3-1.2,0.4-2,0.3c-0.1,0-0.2,0-0.4-0.1c-0.2,0-0.3-0.1-0.5-0.1c-0.2-0.1-0.3-0.1-0.4-0.2
	c-0.1-0.1-0.2-0.2-0.3-0.3c-0.1-0.1-0.1-0.3-0.2-0.4c0-0.2,0-0.3,0-0.4c0-0.1,0-0.3,0.1-0.4c0-0.1,0.1-0.2,0.1-0.3
	c0.2-0.4,0.4-0.8,0.7-1.1c0.3-0.3,0.6-0.5,0.8-0.7c0.3-0.1,0.6-0.3,0.9-0.4c0.4-0.1,0.8-0.1,1.3-0.1c0.1,0,0.2,0,0.3,0
	c0.1,0,0.3,0.1,0.4,0.1c0.1,0.1,0.3,0.1,0.4,0.2C941.2,32.7,941.3,32.9,941.4,33z M941,33.3c-0.1-0.1-0.2-0.2-0.3-0.3
	c-0.1,0-0.3-0.1-0.4-0.1c-0.2,0-0.3,0-0.5,0.1c-0.2,0.1-0.3,0.1-0.4,0.2c-0.2,0.1-0.4,0.2-0.5,0.3c-0.2,0.1-0.3,0.2-0.5,0.3
	c-0.3,0.2-0.7,0.4-1,0.6c-0.1,0.1-0.2,0.2-0.4,0.3c-0.1,0.1-0.2,0.2-0.3,0.3c-0.1,0.1-0.1,0.3-0.2,0.4c0,0.1,0,0.3,0.1,0.4
	c0.1,0.1,0.2,0.2,0.3,0.3s0.3,0.1,0.4,0c0.2,0,0.3-0.1,0.5-0.1c0.2-0.1,0.3-0.1,0.4-0.2c0.2-0.1,0.4-0.2,0.5-0.3
	c0.2-0.1,0.3-0.2,0.5-0.3c0.2-0.1,0.3-0.2,0.5-0.3c0.2-0.1,0.3-0.2,0.5-0.3c0.1-0.1,0.2-0.2,0.4-0.3c0.1-0.1,0.2-0.2,0.3-0.3
	c0.1-0.1,0.1-0.3,0.2-0.4S941.1,33.4,941,33.3z"/>
<line fill="none" stroke="#000000" stroke-width="0.459" stroke-miterlimit="10" x1="974.8" y1="36.1" x2="974.8" y2="20.1"/>
<path d="M969.9,36.9c0.1-0.3,0.3-0.6,0.5-0.8c0.2-0.3,0.5-0.5,0.8-0.7c0.3-0.2,0.6-0.3,1-0.5s0.7-0.2,1.1-0.2c0.4,0,0.7,0.1,0.9,0.2
	c0.3,0.1,0.5,0.3,0.6,0.5c0.2,0.2,0.3,0.4,0.3,0.7c0,0.3,0,0.5-0.1,0.8c-0.1,0.3-0.3,0.6-0.5,0.8c-0.2,0.3-0.5,0.5-0.8,0.7
	c-0.3,0.2-0.6,0.3-1,0.5c-0.4,0.1-0.7,0.2-1,0.2c-0.4,0-0.7-0.1-0.9-0.2c-0.3-0.1-0.5-0.3-0.6-0.5c-0.2-0.2-0.3-0.4-0.3-0.7
	S969.8,37.2,969.9,36.9z"/>
<g>
	<path d="M937.5,16.7V16l2.4,0v2.1c-0.4,0.3-0.8,0.5-1.2,0.7c-0.4,0.1-0.8,0.2-1.2,0.2c-0.6,0-1.1-0.1-1.5-0.4c-0.5-0.2-0.8-0.6-1-1
		s-0.4-1-0.4-1.5c0-0.6,0.1-1.1,0.3-1.6c0.2-0.5,0.6-0.8,1-1.1s0.9-0.4,1.5-0.4c0.4,0,0.8,0.1,1.1,0.2c0.3,0.1,0.6,0.3,0.8,0.6
		c0.2,0.2,0.3,0.6,0.4,0.9l-0.7,0.2c-0.1-0.3-0.2-0.5-0.3-0.7c-0.1-0.2-0.3-0.3-0.5-0.4c-0.2-0.1-0.5-0.2-0.8-0.2
		c-0.3,0-0.6,0.1-0.9,0.2c-0.3,0.1-0.5,0.2-0.6,0.4c-0.2,0.2-0.3,0.4-0.4,0.6c-0.1,0.4-0.2,0.7-0.2,1.2c0,0.5,0.1,0.9,0.3,1.3
		s0.4,0.6,0.8,0.8s0.7,0.2,1.1,0.2c0.3,0,0.6-0.1,1-0.2s0.5-0.3,0.7-0.4v-1.1H937.5z"/>
</g>
<g>
	<path d="M974.5,16.9l0.8,0.2c-0.2,0.6-0.4,1.1-0.9,1.4c-0.4,0.3-0.9,0.5-1.5,0.5c-0.6,0-1.1-0.1-1.5-0.4s-0.7-0.6-0.9-1.1
		s-0.3-1-0.3-1.5c0-0.6,0.1-1.1,0.3-1.6c0.2-0.4,0.6-0.8,1-1c0.4-0.2,0.9-0.3,1.4-0.3c0.6,0,1.1,0.1,1.4,0.4
		c0.4,0.3,0.7,0.7,0.8,1.2l-0.7,0.2c-0.1-0.4-0.3-0.7-0.6-0.9c-0.3-0.2-0.6-0.3-1-0.3c-0.4,0-0.8,0.1-1.1,0.3
		c-0.3,0.2-0.5,0.5-0.6,0.8c-0.1,0.4-0.2,0.7-0.2,1.1c0,0.5,0.1,0.9,0.2,1.3c0.1,0.4,0.4,0.6,0.7,0.8c0.3,0.2,0.6,0.3,1,0.3
		c0.4,0,0.8-0.1,1.1-0.4C974.2,17.7,974.4,17.4,974.5,16.9z"/>
</g>
<g>
	<path d="M1004.2,38.4c0.6,0,1,0.4,1,1c0,0.5-0.4,1-1,1s-1-0.4-1-1C1003.2,38.8,1003.6,38.4,1004.2,38.4z"/>
</g>
<line fill="none" stroke="#000000" stroke-width="0.459" stroke-miterlimit="10" x1="1000.8" y1="38.5" x2="1000.8" y2="22.5"/>
<path d="M1001.2,37.8c0.1,0.1,0.1,0.3,0.1,0.4c0,0.2,0,0.3,0,0.5c0,0.2,0,0.3-0.1,0.4c0,0.1-0.1,0.2-0.1,0.3
	c-0.2,0.4-0.4,0.8-0.7,1.1c-0.3,0.3-0.6,0.5-0.9,0.7c-0.5,0.3-1.2,0.4-2,0.3c-0.1,0-0.2,0-0.4-0.1c-0.2,0-0.3-0.1-0.5-0.1
	c-0.2-0.1-0.3-0.1-0.4-0.2c-0.1-0.1-0.2-0.2-0.3-0.3c-0.1-0.1-0.1-0.3-0.2-0.4c0-0.2,0-0.3,0-0.4c0-0.1,0-0.3,0.1-0.4
	s0.1-0.2,0.1-0.3c0.2-0.4,0.4-0.8,0.7-1.1c0.3-0.3,0.6-0.5,0.8-0.7c0.3-0.1,0.6-0.3,0.9-0.4c0.4-0.1,0.8-0.1,1.3-0.1
	c0.1,0,0.2,0,0.3,0c0.1,0,0.3,0.1,0.4,0.1c0.1,0.1,0.3,0.1,0.4,0.2S1001.1,37.7,1001.2,37.8z M1000.8,38.1c-0.1-0.1-0.2-0.2-0.3-0.3
	c-0.1,0-0.3-0.1-0.4-0.1c-0.2,0-0.3,0-0.5,0.1s-0.3,0.1-0.4,0.2c-0.2,0.1-0.4,0.2-0.5,0.3c-0.2,0.1-0.3,0.2-0.5,0.3
	c-0.3,0.2-0.7,0.4-1,0.6c-0.1,0.1-0.2,0.2-0.4,0.3c-0.1,0.1-0.2,0.2-0.3,0.3c-0.1,0.1-0.1,0.3-0.2,0.4s0,0.3,0.1,0.4
	c0.1,0.1,0.2,0.2,0.3,0.3c0.1,0,0.3,0.1,0.4,0c0.2,0,0.3-0.1,0.5-0.1s0.3-0.1,0.4-0.2c0.2-0.1,0.4-0.2,0.5-0.3
	c0.2-0.1,0.3-0.2,0.5-0.3c0.2-0.1,0.3-0.2,0.5-0.3c0.2-0.1,0.3-0.2,0.5-0.3c0.1-0.1,0.2-0.2,0.4-0.3c0.1-0.1,0.2-0.2,0.3-0.3
	c0.1-0.1,0.1-0.3,0.2-0.4C1000.9,38.4,1000.9,38.2,1000.8,38.1z"/>
<g>
	<path d="M996.5,18.9v-5.7h3.9v0.7h-3.1v1.8h2.7v0.7h-2.7v2.6H996.5z"/>
</g>
<g>
	<path d="M1058,35.6c-0.7-0.5-1.7-1.6-1.7-3.5c0-1.7,0.9-3.1,1.7-3.5l0.1,0.1c-1.1,1.1-1.1,2.2-1.1,3.4c0,1.1,0.1,2.3,1.1,3.4
		L1058,35.6z M1059.3,29.9c0,0.1,0,1,0,1c0.5-0.5,0.9-0.6,1.3-0.6c0.7,0,1,0.6,1,1.2c0,0.3-0.1,0.6-0.2,0.9
		c-0.1,0.3-0.3,0.5-0.5,0.7c-0.2,0.3-2.1,1.5-2.1,1.5v-8.4h0.5C1059.3,26.2,1059.3,28,1059.3,29.9z M1059.5,31.4
		c-0.2,0.3-0.2,0.8-0.2,1.3v1.2c0,0,0.5-0.4,0.7-0.7c0.2-0.2,0.4-0.5,0.5-0.9c0.1-0.4,0.1-0.8-0.2-1.1
		C1060.2,31,1059.7,30.8,1059.5,31.4z M1062.3,29.9c0,0.1,0,1,0,1c0.5-0.5,0.9-0.6,1.3-0.6c0.7,0,1,0.6,1,1.2c0,0.3-0.1,0.6-0.2,0.8
		c-0.1,0.3-0.3,0.5-0.5,0.8c-0.2,0.2-2.1,1.5-2.1,1.5v-8.4h0.5C1062.3,26.2,1062.3,28,1062.3,29.9z M1062.5,31.4
		c-0.2,0.3-0.2,0.8-0.2,1.3v1.2c0,0,0.5-0.4,0.8-0.7c0.2-0.2,0.4-0.5,0.5-0.9c0.1-0.4,0.1-0.8-0.2-1.1
		C1063.2,31,1062.8,30.8,1062.5,31.4z M1064.6,35.6l-0.1-0.1c1.1-1.1,1.1-2.3,1.1-3.4c0-1.2-0.1-2.3-1.1-3.4l0.1-0.1
		c0.7,0.4,1.7,1.8,1.7,3.5C1066.2,34.1,1065.3,35.1,1064.6,35.6z"/>
</g>
<line fill="none" stroke="#000000" stroke-width="0.459" stroke-miterlimit="10" x1="1055.8" y1="32.1" x2="1063" y2="32.1"/>
<line fill="none" stroke="#000000" stroke-width="0.459" stroke-miterlimit="10" x1="1094.6" y1="45.7" x2="1094.6" y2="29.7"/>
<line fill="none" stroke="#000000" stroke-width="0.459" stroke-miterlimit="10" x1="1088.4" y1="46.5" x2="1096" y2="46.5"/>
<path d="M1089.7,46.5c0.1-0.3,0.3-0.6,0.5-0.8c0.2-0.3,0.5-0.5,0.8-0.7s0.6-0.3,1-0.5c0.3-0.1,0.7-0.2,1.1-0.2
	c0.4,0,0.7,0.1,0.9,0.2s0.5,0.3,0.6,0.5c0.2,0.2,0.3,0.4,0.3,0.7c0,0.3,0,0.5-0.1,0.8c-0.1,0.3-0.3,0.6-0.5,0.8
	c-0.2,0.3-0.5,0.5-0.8,0.7c-0.3,0.2-0.6,0.3-1,0.5c-0.4,0.1-0.7,0.2-1.1,0.2c-0.4,0-0.7-0.1-0.9-0.2c-0.3-0.1-0.5-0.3-0.6-0.5
	c-0.2-0.2-0.3-0.4-0.3-0.7C1089.6,47.1,1089.6,46.8,1089.7,46.5z"/>
<line fill="none" stroke="#000000" stroke-width="0.459" stroke-miterlimit="10" x1="1122.8" y1="38.5" x2="1122.8" y2="22.5"/>
<path d="M1123.2,37.8c0.1,0.1,0.1,0.3,0.1,0.4c0,0.2,0,0.3,0,0.5c0,0.2,0,0.3-0.1,0.4c0,0.1-0.1,0.2-0.1,0.3
	c-0.2,0.4-0.4,0.8-0.7,1.1c-0.3,0.3-0.6,0.5-0.9,0.7c-0.5,0.3-1.2,0.4-2,0.3c-0.1,0-0.2,0-0.4-0.1c-0.2,0-0.3-0.1-0.5-0.1
	s-0.3-0.1-0.4-0.2c-0.1-0.1-0.2-0.2-0.3-0.3c-0.1-0.1-0.1-0.3-0.2-0.4c0-0.2,0-0.3,0-0.4c0-0.1,0-0.3,0.1-0.4c0-0.1,0.1-0.2,0.1-0.3
	c0.2-0.4,0.4-0.8,0.7-1.1c0.3-0.3,0.6-0.5,0.8-0.7c0.3-0.1,0.6-0.3,0.9-0.4c0.4-0.1,0.8-0.1,1.3-0.1c0.1,0,0.2,0,0.3,0
	c0.1,0,0.3,0.1,0.4,0.1s0.3,0.1,0.4,0.2S1123.1,37.7,1123.2,37.8z M1122.8,38.1c-0.1-0.1-0.2-0.2-0.3-0.3s-0.3-0.1-0.4-0.1
	c-0.2,0-0.3,0-0.5,0.1c-0.2,0.1-0.3,0.1-0.4,0.2c-0.2,0.1-0.4,0.2-0.5,0.3c-0.2,0.1-0.3,0.2-0.5,0.3c-0.3,0.2-0.7,0.4-1,0.6
	c-0.1,0.1-0.2,0.2-0.4,0.3c-0.1,0.1-0.2,0.2-0.3,0.3c-0.1,0.1-0.1,0.3-0.2,0.4c0,0.1,0,0.3,0.1,0.4c0.1,0.1,0.2,0.2,0.3,0.3
	c0.1,0,0.3,0.1,0.4,0c0.2,0,0.3-0.1,0.5-0.1c0.2-0.1,0.3-0.1,0.4-0.2c0.2-0.1,0.4-0.2,0.5-0.3c0.2-0.1,0.3-0.2,0.5-0.3
	c0.2-0.1,0.3-0.2,0.5-0.3c0.2-0.1,0.3-0.2,0.5-0.3c0.1-0.1,0.2-0.2,0.4-0.3c0.1-0.1,0.2-0.2,0.3-0.3s0.1-0.3,0.2-0.4
	C1122.9,38.4,1122.9,38.2,1122.8,38.1z"/>
<g>
	<path d="M1158.6,9.8l1.1-0.1c0,0.3,0.1,0.5,0.2,0.6s0.3,0.2,0.5,0.2c0.3,0,0.5-0.1,0.6-0.3s0.3-0.4,0.3-0.7c0-0.2-0.1-0.4-0.2-0.6
		c-0.1-0.1-0.3-0.2-0.5-0.2c-0.1,0-0.1,0-0.2,0l0.2-0.9c0,0,0.1,0,0.1,0c0.3,0,0.5-0.1,0.7-0.2s0.2-0.4,0.2-0.6
		c0-0.2-0.1-0.3-0.2-0.4c-0.1-0.1-0.2-0.2-0.4-0.2c-0.2,0-0.3,0.1-0.4,0.2c-0.1,0.1-0.2,0.3-0.3,0.6l-1-0.2c0.1-0.4,0.3-0.7,0.5-1
		c0.4-0.3,0.8-0.5,1.3-0.5c0.5,0,0.9,0.1,1.2,0.4s0.4,0.6,0.4,1.1c0,0.3-0.1,0.6-0.3,0.8c-0.2,0.2-0.4,0.4-0.7,0.5
		c0.2,0.1,0.4,0.3,0.5,0.5c0.1,0.2,0.2,0.4,0.2,0.6c0,0.4-0.2,0.8-0.4,1.2c-0.4,0.5-0.9,0.7-1.6,0.7c-0.5,0-0.9-0.1-1.2-0.4
		S1158.7,10.3,1158.6,9.8z"/>
</g>
<path d="M1147.9,34.5c0.1-0.3,0.3-0.6,0.5-0.8c0.2-0.3,0.5-0.5,0.8-0.7c0.3-0.2,0.6-0.3,1-0.5c0.3-0.1,0.7-0.2,1.1-0.2
	s0.7,0.1,0.9,0.2c0.3,0.1,0.5,0.3,0.6,0.5c0.2,0.2,0.3,0.4,0.3,0.7s0,0.5-0.1,0.8c-0.1,0.3-0.3,0.6-0.5,0.8s-0.5,0.5-0.8,0.7
	c-0.3,0.2-0.6,0.3-1,0.5s-0.7,0.2-1,0.2c-0.4,0-0.7-0.1-0.9-0.2c-0.3-0.1-0.5-0.3-0.6-0.5c-0.2-0.2-0.3-0.4-0.3-0.7
	C1147.8,35.1,1147.8,34.8,1147.9,34.5z"/>
<line fill="none" stroke="#000000" stroke-width="0.459" stroke-miterlimit="10" x1="1152.8" y1="33.7" x2="1152.8" y2="18.9"/>
<path d="M1155.1,36.9c0.1-0.3,0.3-0.6,0.5-0.8c0.2-0.3,0.5-0.5,0.8-0.7c0.3-0.2,0.6-0.3,1-0.5s0.7-0.2,1.1-0.2s0.7,0.1,0.9,0.2
	c0.3,0.1,0.5,0.3,0.6,0.5c0.2,0.2,0.3,0.4,0.3,0.7c0,0.3,0,0.5-0.1,0.8s-0.3,0.6-0.5,0.8s-0.5,0.5-0.8,0.7c-0.3,0.2-0.6,0.3-1,0.5
	c-0.4,0.1-0.7,0.2-1,0.2c-0.4,0-0.7-0.1-0.9-0.2c-0.3-0.1-0.5-0.3-0.6-0.5s-0.3-0.4-0.3-0.7C1155,37.5,1155,37.2,1155.1,36.9z"/>
<line fill="none" stroke="#000000" stroke-width="0.459" stroke-miterlimit="10" x1="1160" y1="36.1" x2="1160" y2="20.1"/>
<path d="M1162.5,39.3c0.1-0.3,0.3-0.6,0.5-0.8c0.2-0.3,0.5-0.5,0.8-0.7c0.3-0.2,0.6-0.3,1-0.5c0.3-0.1,0.7-0.2,1.1-0.2
	s0.7,0.1,0.9,0.2c0.3,0.1,0.5,0.3,0.6,0.5s0.3,0.4,0.3,0.7s0,0.5-0.1,0.8c-0.1,0.3-0.3,0.6-0.5,0.8c-0.2,0.3-0.5,0.5-0.8,0.7
	c-0.3,0.2-0.6,0.3-1,0.5s-0.7,0.2-1,0.2c-0.4,0-0.7-0.1-0.9-0.2c-0.3-0.1-0.5-0.3-0.6-0.5s-0.3-0.4-0.3-0.7
	C1162.4,39.9,1162.4,39.6,1162.5,39.3z"/>
<line fill="none" stroke="#000000" stroke-width="0.459" stroke-miterlimit="10" x1="1167.4" y1="38.5" x2="1167.4" y2="21.3"/>
<polyline points="1152.6,17.7 1167.6,20.1 1167.6,22.5 1152.6,20.1 "/>
<g>
	<path d="M1118.5,18.9v-5.7h3.9v0.7h-3.1v1.8h2.7v0.7h-2.7v2.6H1118.5z"/>
</g>
<line fill="none" stroke="#000000" stroke-width="0.459" stroke-miterlimit="10" x1="1182.6" y1="33.7" x2="1182.6" y2="17.7"/>
<path d="M1183,33c0.1,0.1,0.1,0.3,0.1,0.4c0,0.2,0,0.3,0,0.5c0,0.2,0,0.3-0.1,0.4c0,0.1-0.1,0.2-0.1,0.3c-0.2,0.4-0.4,0.8-0.7,1.1
	s-0.6,0.5-0.9,0.7c-0.5,0.3-1.2,0.4-2,0.3c-0.1,0-0.2,0-0.4-0.1c-0.2,0-0.3-0.1-0.5-0.1s-0.3-0.1-0.4-0.2c-0.1-0.1-0.2-0.2-0.3-0.3
	c-0.1-0.1-0.1-0.3-0.2-0.4s0-0.3,0-0.4s0-0.3,0.1-0.4c0-0.1,0.1-0.2,0.1-0.3c0.2-0.4,0.4-0.8,0.7-1.1c0.3-0.3,0.6-0.5,0.8-0.7
	c0.3-0.1,0.6-0.3,0.9-0.4c0.4-0.1,0.8-0.1,1.3-0.1c0.1,0,0.2,0,0.3,0c0.1,0,0.3,0.1,0.4,0.1c0.1,0.1,0.3,0.1,0.4,0.2
	C1182.8,32.7,1182.9,32.9,1183,33z M1182.6,33.3c-0.1-0.1-0.2-0.2-0.3-0.3c-0.1,0-0.3-0.1-0.4-0.1s-0.3,0-0.5,0.1
	c-0.2,0.1-0.3,0.1-0.4,0.2c-0.2,0.1-0.4,0.2-0.5,0.3c-0.2,0.1-0.3,0.2-0.5,0.3c-0.3,0.2-0.7,0.4-1,0.6c-0.1,0.1-0.2,0.2-0.4,0.3
	c-0.1,0.1-0.2,0.2-0.3,0.3s-0.1,0.3-0.2,0.4c0,0.1,0,0.3,0.1,0.4c0.1,0.1,0.2,0.2,0.3,0.3c0.1,0,0.3,0.1,0.4,0
	c0.2,0,0.3-0.1,0.5-0.1c0.2-0.1,0.3-0.1,0.4-0.2c0.2-0.1,0.4-0.2,0.5-0.3c0.2-0.1,0.3-0.2,0.5-0.3c0.2-0.1,0.3-0.2,0.5-0.3
	c0.2-0.1,0.3-0.2,0.5-0.3c0.1-0.1,0.2-0.2,0.4-0.3c0.1-0.1,0.2-0.2,0.3-0.3c0.1-0.1,0.1-0.3,0.2-0.4
	C1182.7,33.6,1182.7,33.4,1182.6,33.3z"/>
<line fill="none" stroke="#000000" stroke-width="0.459" stroke-miterlimit="10" x1="1216.4" y1="36.1" x2="1216.4" y2="20.1"/>
<path d="M1211.5,36.9c0.1-0.3,0.3-0.6,0.5-0.8c0.2-0.3,0.5-0.5,0.8-0.7s0.6-0.3,1-0.5c0.3-0.1,0.7-0.2,1.1-0.2s0.7,0.1,0.9,0.2
	s0.5,0.3,0.6,0.5c0.2,0.2,0.3,0.4,0.3,0.7c0,0.3,0,0.5-0.1,0.8c-0.1,0.3-0.3,0.6-0.5,0.8c-0.2,0.3-0.5,0.5-0.8,0.7
	c-0.3,0.2-0.6,0.3-1,0.5c-0.4,0.1-0.7,0.2-1,0.2c-0.4,0-0.7-0.1-0.9-0.2c-0.3-0.1-0.5-0.3-0.6-0.5c-0.2-0.2-0.3-0.4-0.3-0.7
	C1211.4,37.5,1211.4,37.2,1211.5,36.9z"/>
<g>
	<path d="M1178.3,18.9v-5.7h3.9v0.7h-3.1v1.8h2.7v0.7h-2.7v2.6H1178.3z"/>
</g>
<g>
	<path d="M1183.9,14.4v-0.6h3.3v0.5c-0.3,0.3-0.7,0.8-1,1.4c-0.3,0.6-0.6,1.2-0.7,1.8c-0.1,0.4-0.2,0.9-0.2,1.4h-0.7
		c0-0.4,0.1-0.9,0.2-1.5s0.4-1.1,0.7-1.7c0.3-0.5,0.6-1,0.9-1.3H1183.9z"/>
</g>
<line fill="none" stroke="#000000" stroke-width="0.459" stroke-miterlimit="10" x1="1242.4" y1="38.5" x2="1242.4" y2="22.5"/>
<path d="M1242.8,37.8c0.1,0.1,0.1,0.3,0.1,0.4c0,0.2,0,0.3,0,0.5c0,0.2,0,0.3-0.1,0.4c0,0.1-0.1,0.2-0.1,0.3
	c-0.2,0.4-0.4,0.8-0.7,1.1c-0.3,0.3-0.6,0.5-0.9,0.7c-0.5,0.3-1.2,0.4-2,0.3c-0.1,0-0.2,0-0.4-0.1c-0.2,0-0.3-0.1-0.5-0.1
	s-0.3-0.1-0.4-0.2c-0.1-0.1-0.2-0.2-0.3-0.3c-0.1-0.1-0.1-0.3-0.2-0.4c0-0.2,0-0.3,0-0.4c0-0.1,0-0.3,0.1-0.4c0-0.1,0.1-0.2,0.1-0.3
	c0.2-0.4,0.4-0.8,0.7-1.1c0.3-0.3,0.6-0.5,0.8-0.7c0.3-0.1,0.6-0.3,0.9-0.4c0.4-0.1,0.8-0.1,1.3-0.1c0.1,0,0.2,0,0.3,0
	c0.1,0,0.3,0.1,0.4,0.1c0.1,0.1,0.3,0.1,0.4,0.2C1242.6,37.5,1242.7,37.7,1242.8,37.8z M1242.4,38.1c-0.1-0.1-0.2-0.2-0.3-0.3
	c-0.1,0-0.3-0.1-0.4-0.1c-0.2,0-0.3,0-0.5,0.1c-0.2,0.1-0.3,0.1-0.4,0.2c-0.2,0.1-0.4,0.2-0.5,0.3c-0.2,0.1-0.3,0.2-0.5,0.3
	c-0.3,0.2-0.7,0.4-1,0.6c-0.1,0.1-0.2,0.2-0.4,0.3c-0.1,0.1-0.2,0.2-0.3,0.3c-0.1,0.1-0.1,0.3-0.2,0.4s0,0.3,0.1,0.4
	c0.1,0.1,0.2,0.2,0.3,0.3c0.1,0,0.3,0.1,0.4,0c0.2,0,0.3-0.1,0.5-0.1s0.3-0.1,0.4-0.2c0.2-0.1,0.4-0.2,0.5-0.3
	c0.2-0.1,0.3-0.2,0.5-0.3c0.2-0.1,0.3-0.2,0.5-0.3c0.2-0.1,0.3-0.2,0.5-0.3c0.1-0.1,0.2-0.2,0.4-0.3c0.1-0.1,0.2-0.2,0.3-0.3
	s0.1-0.3,0.2-0.4C1242.5,38.4,1242.5,38.2,1242.4,38.1z"/>
<line fill="none" stroke="#000000" stroke-width="0.459" stroke-miterlimit="10" x1="1276.2" y1="43.3" x2="1276.2" y2="27.3"/>
<path d="M1271.3,44.1c0.1-0.3,0.3-0.6,0.5-0.8c0.2-0.3,0.5-0.5,0.8-0.7c0.3-0.2,0.6-0.3,1-0.5c0.3-0.1,0.7-0.2,1.1-0.2
	c0.4,0,0.7,0.1,0.9,0.2s0.5,0.3,0.6,0.5c0.2,0.2,0.3,0.4,0.3,0.7c0,0.3,0,0.5-0.1,0.8c-0.1,0.3-0.3,0.6-0.5,0.8
	c-0.2,0.3-0.5,0.5-0.8,0.7c-0.3,0.2-0.6,0.3-1,0.5c-0.4,0.1-0.7,0.2-1,0.2c-0.4,0-0.7-0.1-0.9-0.2c-0.3-0.1-0.5-0.3-0.6-0.5
	c-0.2-0.2-0.3-0.4-0.3-0.7C1271.2,44.7,1271.2,44.4,1271.3,44.1z"/>
<g>
	<path d="M1238,18.9v-5.7h2.1c0.4,0,0.8,0.1,1.1,0.2c0.3,0.1,0.5,0.3,0.6,0.5c0.1,0.2,0.2,0.5,0.2,0.8c0,0.2-0.1,0.5-0.2,0.7
		c-0.1,0.2-0.3,0.4-0.6,0.5c0.3,0.1,0.6,0.3,0.8,0.5c0.2,0.2,0.3,0.5,0.3,0.9c0,0.3-0.1,0.5-0.2,0.7s-0.3,0.4-0.4,0.5
		c-0.2,0.1-0.4,0.2-0.6,0.3c-0.3,0.1-0.6,0.1-0.9,0.1H1238z M1238.7,15.6h1.2c0.3,0,0.6,0,0.7-0.1c0.2-0.1,0.3-0.2,0.4-0.3
		s0.1-0.3,0.1-0.5c0-0.2,0-0.4-0.1-0.5c-0.1-0.1-0.2-0.2-0.4-0.3c-0.2-0.1-0.5-0.1-0.9-0.1h-1.1V15.6z M1238.7,18.2h1.4
		c0.2,0,0.4,0,0.5,0c0.2,0,0.3-0.1,0.4-0.2s0.2-0.2,0.3-0.3c0.1-0.1,0.1-0.3,0.1-0.5c0-0.2-0.1-0.4-0.2-0.6
		c-0.1-0.2-0.3-0.3-0.5-0.3c-0.2-0.1-0.5-0.1-0.8-0.1h-1.3V18.2z"/>
</g>
<g>
	<path d="M1243.8,12.7c0,0.1,0,1,0,1c0.6-0.5,0.9-0.7,1.6-0.7c0.8,0,1.3,0.8,1.3,1.4c0,0.3-0.1,0.7-0.2,1c-0.1,0.4-0.5,0.6-0.8,0.9
		c-0.3,0.3-2.4,1.7-2.4,1.7V8.6h0.4C1243.8,8.6,1243.8,10.6,1243.8,12.7z M1244,14.3c-0.2,0.4-0.2,1.1-0.2,1.6v1.4
		c0,0,0.6-0.5,0.9-0.8c0.3-0.3,0.5-0.6,0.6-1.1c0.1-0.5,0.1-1-0.2-1.3C1244.9,13.8,1244.3,13.6,1244,14.3z"/>
</g>
<line fill="none" stroke="#000000" stroke-width="0.459" stroke-miterlimit="10" x1="1303.6" y1="45.7" x2="1303.6" y2="29.7"/>
<line fill="none" stroke="#000000" stroke-width="0.459" stroke-miterlimit="10" x1="1297.4" y1="46.5" x2="1305" y2="46.5"/>
<path d="M1304,45c0.1,0.1,0.1,0.3,0.1,0.4c0,0.2,0,0.3,0,0.5c0,0.2,0,0.3-0.1,0.4c0,0.1-0.1,0.2-0.1,0.3c-0.2,0.4-0.4,0.8-0.7,1.1
	c-0.3,0.3-0.6,0.5-0.9,0.7c-0.5,0.3-1.2,0.4-2,0.3c-0.1,0-0.2,0-0.4-0.1s-0.3-0.1-0.5-0.1c-0.2-0.1-0.3-0.1-0.4-0.2
	c-0.1-0.1-0.2-0.2-0.3-0.3c-0.1-0.1-0.1-0.3-0.2-0.4c0-0.2,0-0.3,0-0.4c0-0.1,0-0.3,0.1-0.4c0-0.1,0.1-0.2,0.1-0.3
	c0.2-0.4,0.4-0.8,0.7-1.1s0.6-0.5,0.8-0.7c0.3-0.1,0.6-0.3,0.9-0.4c0.4-0.1,0.8-0.1,1.3-0.1c0.1,0,0.2,0,0.3,0
	c0.1,0,0.3,0.1,0.4,0.1c0.1,0.1,0.3,0.1,0.4,0.2S1303.9,44.9,1304,45z M1303.6,45.3c-0.1-0.1-0.2-0.2-0.3-0.3
	c-0.1,0-0.3-0.1-0.4-0.1c-0.2,0-0.3,0-0.5,0.1c-0.2,0.1-0.3,0.1-0.4,0.2c-0.2,0.1-0.4,0.2-0.5,0.3c-0.2,0.1-0.3,0.2-0.5,0.3
	c-0.3,0.2-0.7,0.4-1,0.6c-0.1,0.1-0.2,0.2-0.4,0.3c-0.1,0.1-0.2,0.2-0.3,0.3c-0.1,0.1-0.1,0.3-0.2,0.4c0,0.1,0,0.3,0.1,0.4
	c0.1,0.1,0.2,0.2,0.3,0.3c0.1,0,0.3,0.1,0.4,0c0.2,0,0.3-0.1,0.5-0.1c0.2-0.1,0.3-0.1,0.4-0.2c0.2-0.1,0.4-0.2,0.5-0.3
	c0.2-0.1,0.3-0.2,0.5-0.3c0.2-0.1,0.3-0.2,0.5-0.3c0.2-0.1,0.3-0.2,0.5-0.3c0.1-0.1,0.2-0.2,0.4-0.3c0.1-0.1,0.2-0.2,0.3-0.3
	c0.1-0.1,0.1-0.3,0.2-0.4C1303.7,45.6,1303.7,45.4,1303.6,45.3z"/>
<line fill="none" stroke="#000000" stroke-width="0.459" stroke-miterlimit="10" x1="1336.4" y1="45.7" x2="1336.4" y2="29.7"/>
<line fill="none" stroke="#000000" stroke-width="0.459" stroke-miterlimit="10" x1="1330.2" y1="46.5" x2="1337.8" y2="46.5"/>
<path d="M1331.5,46.5c0.1-0.3,0.3-0.6,0.5-0.8c0.2-0.3,0.5-0.5,0.8-0.7s0.6-0.3,1-0.5c0.3-0.1,0.7-0.2,1.1-0.2s0.7,0.1,0.9,0.2
	s0.5,0.3,0.6,0.5c0.2,0.2,0.3,0.4,0.3,0.7c0,0.3,0,0.5-0.1,0.8c-0.1,0.3-0.3,0.6-0.5,0.8c-0.2,0.3-0.5,0.5-0.8,0.7
	c-0.3,0.2-0.6,0.3-1,0.5c-0.4,0.1-0.7,0.2-1,0.2c-0.4,0-0.7-0.1-0.9-0.2c-0.3-0.1-0.5-0.3-0.6-0.5c-0.2-0.2-0.3-0.4-0.3-0.7
	C1331.4,47.1,1331.4,46.8,1331.5,46.5z"/>
<g>
	<path d="M1299.3,18.9v-5.7h3.9v0.7h-3.1v1.8h2.7v0.7h-2.7v2.6H1299.3z"/>
</g>
<line fill="none" stroke="#000000" stroke-width="0.459" stroke-miterlimit="10" x1="1362" y1="38.5" x2="1362" y2="22.5"/>
<path d="M1362.4,37.8c0.1,0.1,0.1,0.3,0.1,0.4c0,0.2,0,0.3,0,0.5c0,0.2,0,0.3-0.1,0.4c0,0.1-0.1,0.2-0.1,0.3
	c-0.2,0.4-0.4,0.8-0.7,1.1c-0.3,0.3-0.6,0.5-0.9,0.7c-0.5,0.3-1.2,0.4-2,0.3c-0.1,0-0.2,0-0.4-0.1s-0.3-0.1-0.5-0.1
	c-0.2-0.1-0.3-0.1-0.4-0.2c-0.1-0.1-0.2-0.2-0.3-0.3c-0.1-0.1-0.1-0.3-0.2-0.4c0-0.2,0-0.3,0-0.4c0-0.1,0-0.3,0.1-0.4
	c0-0.1,0.1-0.2,0.1-0.3c0.2-0.4,0.4-0.8,0.7-1.1c0.3-0.3,0.6-0.5,0.8-0.7c0.3-0.1,0.6-0.3,0.9-0.4s0.8-0.1,1.3-0.1
	c0.1,0,0.2,0,0.3,0c0.1,0,0.3,0.1,0.4,0.1c0.1,0.1,0.3,0.1,0.4,0.2S1362.3,37.7,1362.4,37.8z M1362,38.1c-0.1-0.1-0.2-0.2-0.3-0.3
	c-0.1,0-0.3-0.1-0.4-0.1c-0.2,0-0.3,0-0.5,0.1c-0.2,0.1-0.3,0.1-0.4,0.2c-0.2,0.1-0.4,0.2-0.5,0.3c-0.2,0.1-0.3,0.2-0.5,0.3
	c-0.3,0.2-0.7,0.4-1,0.6c-0.1,0.1-0.2,0.2-0.4,0.3c-0.1,0.1-0.2,0.2-0.3,0.3c-0.1,0.1-0.1,0.3-0.2,0.4c0,0.1,0,0.3,0.1,0.4
	c0.1,0.1,0.2,0.2,0.3,0.3c0.1,0,0.3,0.1,0.4,0c0.2,0,0.3-0.1,0.5-0.1c0.2-0.1,0.3-0.1,0.4-0.2c0.2-0.1,0.4-0.2,0.5-0.3
	c0.2-0.1,0.3-0.2,0.5-0.3c0.2-0.1,0.3-0.2,0.5-0.3c0.2-0.1,0.3-0.2,0.5-0.3c0.1-0.1,0.2-0.2,0.4-0.3c0.1-0.1,0.2-0.2,0.3-0.3
	c0.1-0.1,0.1-0.3,0.2-0.4C1362.1,38.4,1362.1,38.2,1362,38.1z"/>
<g>
	<path d="M1396.6,9.8l1.1-0.1c0,0.3,0.1,0.5,0.2,0.6s0.3,0.2,0.5,0.2c0.3,0,0.5-0.1,0.6-0.3s0.3-0.4,0.3-0.7c0-0.2-0.1-0.4-0.2-0.6
		c-0.1-0.1-0.3-0.2-0.5-0.2c-0.1,0-0.1,0-0.2,0l0.2-0.9c0,0,0.1,0,0.1,0c0.3,0,0.5-0.1,0.7-0.2s0.2-0.4,0.2-0.6
		c0-0.2-0.1-0.3-0.2-0.4c-0.1-0.1-0.2-0.2-0.4-0.2c-0.2,0-0.3,0.1-0.4,0.2c-0.1,0.1-0.2,0.3-0.3,0.6l-1-0.2c0.1-0.4,0.3-0.7,0.5-1
		c0.4-0.3,0.8-0.5,1.3-0.5c0.5,0,0.9,0.1,1.2,0.4s0.4,0.6,0.4,1.1c0,0.3-0.1,0.6-0.3,0.8c-0.2,0.2-0.4,0.4-0.7,0.5
		c0.2,0.1,0.4,0.3,0.5,0.5c0.1,0.2,0.2,0.4,0.2,0.6c0,0.4-0.2,0.8-0.4,1.2c-0.4,0.5-0.9,0.7-1.6,0.7c-0.5,0-0.9-0.1-1.2-0.4
		S1396.7,10.3,1396.6,9.8z"/>
</g>
<path d="M1384.9,34.5c0.1-0.3,0.3-0.6,0.5-0.8c0.2-0.3,0.5-0.5,0.8-0.7s0.6-0.3,1-0.5c0.3-0.1,0.7-0.2,1.1-0.2
	c0.4,0,0.7,0.1,0.9,0.2s0.5,0.3,0.6,0.5c0.2,0.2,0.3,0.4,0.3,0.7c0,0.3,0,0.5-0.1,0.8c-0.1,0.3-0.3,0.6-0.5,0.8
	c-0.2,0.3-0.5,0.5-0.8,0.7c-0.3,0.2-0.6,0.3-1,0.5c-0.4,0.1-0.7,0.2-1,0.2c-0.4,0-0.7-0.1-0.9-0.2c-0.3-0.1-0.5-0.3-0.6-0.5
	c-0.2-0.2-0.3-0.4-0.3-0.7C1384.8,35.1,1384.8,34.8,1384.9,34.5z"/>
<line fill="none" stroke="#000000" stroke-width="0.459" stroke-miterlimit="10" x1="1389.8" y1="33.7" x2="1389.8" y2="18.9"/>
<path d="M1393.1,36.9c0.1-0.3,0.3-0.6,0.5-0.8c0.2-0.3,0.5-0.5,0.8-0.7c0.3-0.2,0.6-0.3,1-0.5c0.3-0.1,0.7-0.2,1.1-0.2
	s0.7,0.1,0.9,0.2s0.5,0.3,0.6,0.5c0.2,0.2,0.3,0.4,0.3,0.7c0,0.3,0,0.5-0.1,0.8s-0.3,0.6-0.5,0.8s-0.5,0.5-0.8,0.7
	c-0.3,0.2-0.6,0.3-1,0.5c-0.4,0.1-0.7,0.2-1.1,0.2c-0.4,0-0.7-0.1-0.9-0.2c-0.3-0.1-0.5-0.3-0.6-0.5s-0.3-0.4-0.3-0.7
	C1393,37.5,1393,37.2,1393.1,36.9z"/>
<line fill="none" stroke="#000000" stroke-width="0.459" stroke-miterlimit="10" x1="1398" y1="36.1" x2="1398" y2="20.1"/>
<path d="M1401.7,39.3c0.1-0.3,0.3-0.6,0.5-0.8c0.2-0.3,0.5-0.5,0.8-0.7c0.3-0.2,0.6-0.3,1-0.5c0.3-0.1,0.7-0.2,1.1-0.2
	c0.4,0,0.7,0.1,0.9,0.2c0.3,0.1,0.5,0.3,0.6,0.5c0.2,0.2,0.3,0.4,0.3,0.7c0,0.3,0,0.5-0.1,0.8c-0.1,0.3-0.3,0.6-0.5,0.8
	c-0.2,0.3-0.5,0.5-0.8,0.7s-0.6,0.3-1,0.5c-0.4,0.1-0.7,0.2-1.1,0.2c-0.4,0-0.7-0.1-0.9-0.2c-0.3-0.1-0.5-0.3-0.6-0.5
	c-0.2-0.2-0.3-0.4-0.3-0.7C1401.6,39.9,1401.6,39.6,1401.7,39.3z"/>
<line fill="none" stroke="#000000" stroke-width="0.459" stroke-miterlimit="10" x1="1406.6" y1="38.5" x2="1406.6" y2="21.3"/>
<polyline points="1389.6,17.7 1406.8,20.1 1406.8,22.5 1389.6,20.1 "/>
<line fill="none" stroke="#000000" stroke-width="0.459" stroke-miterlimit="10" x1="1421.8" y1="33.7" x2="1421.8" y2="17.7"/>
<path d="M1422.2,33c0.1,0.1,0.1,0.3,0.1,0.4c0,0.2,0,0.3,0,0.5c0,0.2,0,0.3-0.1,0.4c0,0.1-0.1,0.2-0.1,0.3c-0.2,0.4-0.4,0.8-0.7,1.1
	c-0.3,0.3-0.6,0.5-0.9,0.7c-0.5,0.3-1.2,0.4-2,0.3c-0.1,0-0.2,0-0.4-0.1s-0.3-0.1-0.5-0.1c-0.2-0.1-0.3-0.1-0.4-0.2
	c-0.1-0.1-0.2-0.2-0.3-0.3c-0.1-0.1-0.1-0.3-0.2-0.4c0-0.2,0-0.3,0-0.4c0-0.1,0-0.3,0.1-0.4c0-0.1,0.1-0.2,0.1-0.3
	c0.2-0.4,0.4-0.8,0.7-1.1s0.6-0.5,0.8-0.7c0.3-0.1,0.6-0.3,0.9-0.4c0.4-0.1,0.8-0.1,1.3-0.1c0.1,0,0.2,0,0.3,0
	c0.1,0,0.3,0.1,0.4,0.1c0.1,0.1,0.3,0.1,0.4,0.2S1422.1,32.9,1422.2,33z M1421.8,33.3c-0.1-0.1-0.2-0.2-0.3-0.3
	c-0.1,0-0.3-0.1-0.4-0.1c-0.2,0-0.3,0-0.5,0.1c-0.2,0.1-0.3,0.1-0.4,0.2c-0.2,0.1-0.4,0.2-0.5,0.3c-0.2,0.1-0.3,0.2-0.5,0.3
	c-0.3,0.2-0.7,0.4-1,0.6c-0.1,0.1-0.2,0.2-0.4,0.3c-0.1,0.1-0.2,0.2-0.3,0.3c-0.1,0.1-0.1,0.3-0.2,0.4c0,0.1,0,0.3,0.1,0.4
	c0.1,0.1,0.2,0.2,0.3,0.3c0.1,0,0.3,0.1,0.4,0c0.2,0,0.3-0.1,0.5-0.1c0.2-0.1,0.3-0.1,0.4-0.2c0.2-0.1,0.4-0.2,0.5-0.3
	c0.2-0.1,0.3-0.2,0.5-0.3c0.2-0.1,0.3-0.2,0.5-0.3c0.2-0.1,0.3-0.2,0.5-0.3c0.1-0.1,0.2-0.2,0.4-0.3c0.1-0.1,0.2-0.2,0.3-0.3
	c0.1-0.1,0.1-0.3,0.2-0.4C1421.9,33.6,1421.9,33.4,1421.8,33.3z"/>
<line fill="none" stroke="#000000" stroke-width="0.459" stroke-miterlimit="10" x1="1455.6" y1="36.1" x2="1455.6" y2="20.1"/>
<path d="M1450.7,36.9c0.1-0.3,0.3-0.6,0.5-0.8c0.2-0.3,0.5-0.5,0.8-0.7c0.3-0.2,0.6-0.3,1-0.5c0.3-0.1,0.7-0.2,1.1-0.2
	s0.7,0.1,0.9,0.2c0.3,0.1,0.5,0.3,0.6,0.5c0.2,0.2,0.3,0.4,0.3,0.7c0,0.3,0,0.5-0.1,0.8c-0.1,0.3-0.3,0.6-0.5,0.8s-0.5,0.5-0.8,0.7
	c-0.3,0.2-0.6,0.3-1,0.5s-0.7,0.2-1,0.2c-0.4,0-0.7-0.1-0.9-0.2c-0.3-0.1-0.5-0.3-0.6-0.5s-0.3-0.4-0.3-0.7
	C1450.6,37.5,1450.6,37.2,1450.7,36.9z"/>
<g>
	<path d="M1418.3,16.7V16l2.4,0v2.1c-0.4,0.3-0.8,0.5-1.2,0.7c-0.4,0.1-0.8,0.2-1.2,0.2c-0.6,0-1.1-0.1-1.5-0.4
		c-0.5-0.2-0.8-0.6-1-1s-0.4-1-0.4-1.5c0-0.6,0.1-1.1,0.3-1.6c0.2-0.5,0.6-0.8,1-1.1s0.9-0.4,1.5-0.4c0.4,0,0.8,0.1,1.1,0.2
		c0.3,0.1,0.6,0.3,0.8,0.6c0.2,0.2,0.3,0.6,0.4,0.9L1420,15c-0.1-0.3-0.2-0.5-0.3-0.7c-0.1-0.2-0.3-0.3-0.5-0.4
		c-0.2-0.1-0.5-0.2-0.8-0.2c-0.3,0-0.6,0.1-0.9,0.2c-0.3,0.1-0.5,0.2-0.6,0.4s-0.3,0.4-0.4,0.6c-0.1,0.4-0.2,0.7-0.2,1.2
		c0,0.5,0.1,0.9,0.3,1.3s0.4,0.6,0.8,0.8s0.7,0.2,1.1,0.2c0.3,0,0.6-0.1,1-0.2s0.5-0.3,0.7-0.4v-1.1H1418.3z"/>
</g>
<g>
	<path d="M1485.2,28.8c0.6,0,1,0.4,1,1c0,0.5-0.4,1-1,1s-1-0.4-1-1C1484.2,29.2,1484.6,28.8,1485.2,28.8z"/>
</g>
<line fill="none" stroke="#000000" stroke-width="0.459" stroke-miterlimit="10" x1="1477" y1="30.5" x2="1477" y2="46.5"/>
<path d="M1482.2,28.2c0.1,0.1,0.1,0.3,0.1,0.4c0,0.2,0,0.3,0,0.5c0,0.2,0,0.3-0.1,0.4c0,0.1-0.1,0.2-0.1,0.3
	c-0.2,0.4-0.4,0.8-0.7,1.1c-0.3,0.3-0.6,0.5-0.9,0.7c-0.5,0.3-1.2,0.4-2,0.3c-0.1,0-0.2,0-0.4-0.1s-0.3-0.1-0.5-0.1
	c-0.2-0.1-0.3-0.1-0.4-0.2c-0.1-0.1-0.2-0.2-0.3-0.3c-0.1-0.1-0.1-0.3-0.2-0.4c0-0.2,0-0.3,0-0.4c0-0.1,0-0.3,0.1-0.4
	c0-0.1,0.1-0.2,0.1-0.3c0.2-0.4,0.4-0.8,0.7-1.1c0.3-0.3,0.6-0.5,0.8-0.7c0.3-0.1,0.6-0.3,0.9-0.4c0.4-0.1,0.8-0.1,1.3-0.1
	c0.1,0,0.2,0,0.3,0c0.1,0,0.3,0.1,0.4,0.1c0.1,0.1,0.3,0.1,0.4,0.2S1482.1,28.1,1482.2,28.2z M1481.8,28.5c-0.1-0.1-0.2-0.2-0.3-0.3
	s-0.3-0.1-0.4-0.1c-0.2,0-0.3,0-0.5,0.1c-0.2,0.1-0.3,0.1-0.4,0.2c-0.2,0.1-0.4,0.2-0.5,0.3c-0.2,0.1-0.3,0.2-0.5,0.3
	c-0.3,0.2-0.7,0.4-1,0.6c-0.1,0.1-0.2,0.2-0.4,0.3c-0.1,0.1-0.2,0.2-0.3,0.3c-0.1,0.1-0.1,0.3-0.2,0.4c0,0.1,0,0.3,0.1,0.4
	c0.1,0.1,0.2,0.2,0.3,0.3c0.1,0,0.3,0.1,0.4,0c0.2,0,0.3-0.1,0.5-0.1c0.2-0.1,0.3-0.1,0.4-0.2c0.2-0.1,0.4-0.2,0.5-0.3
	s0.3-0.2,0.5-0.3c0.2-0.1,0.3-0.2,0.5-0.3s0.3-0.2,0.5-0.3c0.1-0.1,0.2-0.2,0.4-0.3s0.2-0.2,0.3-0.3c0.1-0.1,0.1-0.3,0.2-0.4
	C1481.9,28.8,1481.9,28.6,1481.8,28.5z"/>
<g>
	<path d="M1481.5,16.9l0.8,0.2c-0.2,0.6-0.4,1.1-0.9,1.4c-0.4,0.3-0.9,0.5-1.5,0.5c-0.6,0-1.1-0.1-1.5-0.4s-0.7-0.6-0.9-1.1
		s-0.3-1-0.3-1.5c0-0.6,0.1-1.1,0.3-1.6c0.2-0.4,0.6-0.8,1-1c0.4-0.2,0.9-0.3,1.4-0.3c0.6,0,1.1,0.1,1.4,0.4
		c0.4,0.3,0.7,0.7,0.8,1.2l-0.7,0.2c-0.1-0.4-0.3-0.7-0.6-0.9c-0.3-0.2-0.6-0.3-1-0.3c-0.4,0-0.8,0.1-1.1,0.3
		c-0.3,0.2-0.5,0.5-0.6,0.8c-0.1,0.4-0.2,0.7-0.2,1.1c0,0.5,0.1,0.9,0.2,1.3s0.4,0.6,0.7,0.8c0.3,0.2,0.6,0.3,1,0.3
		c0.4,0,0.8-0.1,1.1-0.4C1481.2,17.7,1481.4,17.4,1481.5,16.9z"/>
</g>
<g>
	<path d="M1483.8,17.8l0.6-0.1c0,0.3,0.1,0.4,0.3,0.6c0.2,0.1,0.4,0.2,0.7,0.2c0.3,0,0.5-0.1,0.6-0.2c0.1-0.1,0.2-0.3,0.2-0.4
		c0-0.1-0.1-0.3-0.2-0.3c-0.1-0.1-0.3-0.1-0.6-0.2c-0.5-0.1-0.8-0.2-1-0.3c-0.2-0.1-0.3-0.2-0.4-0.4s-0.1-0.3-0.1-0.5
		c0-0.2,0-0.3,0.1-0.5c0.1-0.1,0.2-0.3,0.3-0.4c0.1-0.1,0.2-0.1,0.4-0.2c0.2-0.1,0.4-0.1,0.5-0.1c0.3,0,0.6,0,0.8,0.1
		c0.2,0.1,0.4,0.2,0.5,0.3s0.2,0.3,0.2,0.6l-0.6,0.1c0-0.2-0.1-0.3-0.2-0.4c-0.1-0.1-0.3-0.2-0.6-0.2c-0.3,0-0.5,0-0.6,0.1
		c-0.1,0.1-0.2,0.2-0.2,0.3c0,0.1,0,0.2,0.1,0.2c0.1,0.1,0.1,0.1,0.2,0.2c0.1,0,0.2,0.1,0.6,0.2c0.4,0.1,0.8,0.2,0.9,0.3
		c0.2,0.1,0.3,0.2,0.4,0.3c0.1,0.1,0.2,0.3,0.2,0.5c0,0.2-0.1,0.4-0.2,0.6s-0.3,0.3-0.5,0.4c-0.2,0.1-0.5,0.2-0.8,0.2
		c-0.5,0-0.9-0.1-1.1-0.3C1484.1,18.5,1483.9,18.2,1483.8,17.8z"/>
</g>
<g>
	<path d="M1491.1,18.9v-0.5c-0.3,0.4-0.7,0.6-1.2,0.6c-0.2,0-0.4,0-0.6-0.1c-0.2-0.1-0.3-0.2-0.4-0.3s-0.2-0.3-0.2-0.5
		c0-0.1,0-0.3,0-0.6v-2.3h0.6v2.1c0,0.3,0,0.6,0,0.7c0,0.2,0.1,0.3,0.3,0.4c0.1,0.1,0.3,0.1,0.5,0.1s0.4,0,0.5-0.1
		c0.2-0.1,0.3-0.2,0.4-0.4c0.1-0.2,0.1-0.4,0.1-0.7v-2h0.6v3.7H1491.1z"/>
</g>
<g>
	<path d="M1493.4,17.8l0.6-0.1c0,0.3,0.1,0.4,0.3,0.6c0.2,0.1,0.4,0.2,0.7,0.2c0.3,0,0.5-0.1,0.6-0.2c0.1-0.1,0.2-0.3,0.2-0.4
		c0-0.1-0.1-0.3-0.2-0.3c-0.1-0.1-0.3-0.1-0.6-0.2c-0.5-0.1-0.8-0.2-1-0.3c-0.2-0.1-0.3-0.2-0.4-0.4s-0.1-0.3-0.1-0.5
		c0-0.2,0-0.3,0.1-0.5c0.1-0.1,0.2-0.3,0.3-0.4c0.1-0.1,0.2-0.1,0.4-0.2c0.2-0.1,0.4-0.1,0.5-0.1c0.3,0,0.6,0,0.8,0.1
		c0.2,0.1,0.4,0.2,0.5,0.3s0.2,0.3,0.2,0.6l-0.6,0.1c0-0.2-0.1-0.3-0.2-0.4c-0.1-0.1-0.3-0.2-0.6-0.2c-0.3,0-0.5,0-0.6,0.1
		c-0.1,0.1-0.2,0.2-0.2,0.3c0,0.1,0,0.2,0.1,0.2c0.1,0.1,0.1,0.1,0.2,0.2c0.1,0,0.2,0.1,0.6,0.2c0.4,0.1,0.8,0.2,0.9,0.3
		c0.2,0.1,0.3,0.2,0.4,0.3c0.1,0.1,0.2,0.3,0.2,0.5c0,0.2-0.1,0.4-0.2,0.6s-0.3,0.3-0.5,0.4c-0.2,0.1-0.5,0.2-0.8,0.2
		c-0.5,0-0.9-0.1-1.1-0.3C1493.7,18.5,1493.5,18.2,1493.4,17.8z"/>
</g>
<g>
	<path d="M1500.1,18.9v-1.2h-2.2v-0.6l2.4-3.3h0.5v3.3h0.7v0.6h-0.7v1.2H1500.1z M1500.1,17.1v-2.3l-1.6,2.3H1500.1z"/>
</g>
<g>
	<path d="M1538.8,35.6c-0.7-0.5-1.7-1.6-1.7-3.5c0-1.7,0.9-3.1,1.7-3.5l0.1,0.1c-1.1,1.1-1.1,2.2-1.1,3.4c0,1.1,0.1,2.3,1.1,3.4
		L1538.8,35.6z M1540.1,29.9c0,0.1,0,1,0,1c0.5-0.5,0.9-0.6,1.3-0.6c0.7,0,1,0.6,1,1.2c0,0.3-0.1,0.6-0.2,0.9
		c-0.1,0.3-0.3,0.5-0.5,0.7c-0.2,0.3-2.2,1.5-2.2,1.5v-8.4h0.5C1540.1,26.2,1540.1,28,1540.1,29.9z M1540.3,31.4
		c-0.2,0.3-0.2,0.8-0.2,1.3v1.2c0,0,0.5-0.4,0.7-0.7c0.2-0.2,0.4-0.5,0.5-0.9s0.1-0.8-0.2-1.1C1541,31,1540.5,30.8,1540.3,31.4z
		 M1543.1,29.9c0,0.1,0,1,0,1c0.5-0.5,0.9-0.6,1.3-0.6c0.7,0,1,0.6,1,1.2c0,0.3-0.1,0.6-0.2,0.8c-0.1,0.3-0.3,0.5-0.5,0.8
		c-0.2,0.2-2.1,1.5-2.1,1.5v-8.4h0.5C1543.1,26.2,1543.1,28,1543.1,29.9z M1543.3,31.4c-0.2,0.3-0.2,0.8-0.2,1.3v1.2
		c0,0,0.5-0.4,0.8-0.7c0.2-0.2,0.4-0.5,0.5-0.9c0.1-0.4,0.1-0.8-0.2-1.1C1544,31,1543.6,30.8,1543.3,31.4z M1545.4,35.6l-0.1-0.1
		c1.1-1.1,1.1-2.3,1.1-3.4c0-1.2-0.1-2.3-1.1-3.4l0.1-0.1c0.7,0.4,1.7,1.8,1.7,3.5C1547,34.1,1546.1,35.1,1545.4,35.6z"/>
</g>
<line fill="none" stroke="#000000" stroke-width="0.459" stroke-miterlimit="10" x1="1536.6" y1="32.1" x2="1543.8" y2="32.1"/>
<g>
	<path d="M1541.9,16.9l0.8,0.2c-0.2,0.6-0.4,1.1-0.9,1.4c-0.4,0.3-0.9,0.5-1.5,0.5c-0.6,0-1.1-0.1-1.5-0.4s-0.7-0.6-0.9-1.1
		s-0.3-1-0.3-1.5c0-0.6,0.1-1.1,0.3-1.6c0.2-0.4,0.6-0.8,1-1c0.4-0.2,0.9-0.3,1.4-0.3c0.6,0,1.1,0.1,1.4,0.4
		c0.4,0.3,0.7,0.7,0.8,1.2l-0.7,0.2c-0.1-0.4-0.3-0.7-0.6-0.9c-0.3-0.2-0.6-0.3-1-0.3c-0.4,0-0.8,0.1-1.1,0.3
		c-0.3,0.2-0.5,0.5-0.6,0.8c-0.1,0.4-0.2,0.7-0.2,1.1c0,0.5,0.1,0.9,0.2,1.3s0.4,0.6,0.7,0.8c0.3,0.2,0.6,0.3,1,0.3
		c0.4,0,0.8-0.1,1.1-0.4C1541.6,17.7,1541.8,17.4,1541.9,16.9z"/>
</g>
<line fill="none" stroke="#000000" stroke-width="0.459" stroke-miterlimit="10" x1="1618" y1="33.7" x2="1618" y2="17.7"/>
<path d="M1613.1,34.5c0.1-0.3,0.3-0.6,0.5-0.8c0.2-0.3,0.5-0.5,0.8-0.7c0.3-0.2,0.6-0.3,1-0.5c0.3-0.1,0.7-0.2,1.1-0.2
	s0.7,0.1,0.9,0.2c0.3,0.1,0.5,0.3,0.6,0.5c0.2,0.2,0.3,0.4,0.3,0.7c0,0.3,0,0.5-0.1,0.8c-0.1,0.3-0.3,0.6-0.5,0.8
	c-0.2,0.3-0.5,0.5-0.8,0.7c-0.3,0.2-0.6,0.3-1,0.5s-0.7,0.2-1,0.2c-0.4,0-0.7-0.1-0.9-0.2c-0.3-0.1-0.5-0.3-0.6-0.5
	c-0.2-0.2-0.3-0.4-0.3-0.7C1613,35.1,1613,34.8,1613.1,34.5z"/>
<line fill="none" stroke="#000000" stroke-width="0.459" stroke-miterlimit="10" x1="1656.4" y1="30.5" x2="1656.4" y2="46.5"/>
<path d="M1661.6,28.2c0.1,0.1,0.1,0.3,0.1,0.4c0,0.2,0,0.3,0,0.5c0,0.2,0,0.3-0.1,0.4c0,0.1-0.1,0.2-0.1,0.3
	c-0.2,0.4-0.4,0.8-0.7,1.1c-0.3,0.3-0.6,0.5-0.9,0.7c-0.5,0.3-1.2,0.4-2,0.3c-0.1,0-0.2,0-0.4-0.1s-0.3-0.1-0.5-0.1
	c-0.2-0.1-0.3-0.1-0.4-0.2c-0.1-0.1-0.2-0.2-0.3-0.3c-0.1-0.1-0.1-0.3-0.2-0.4c0-0.2,0-0.3,0-0.4c0-0.1,0-0.3,0.1-0.4
	c0-0.1,0.1-0.2,0.1-0.3c0.2-0.4,0.4-0.8,0.7-1.1c0.3-0.3,0.6-0.5,0.8-0.7c0.3-0.1,0.6-0.3,0.9-0.4c0.4-0.1,0.8-0.1,1.3-0.1
	c0.1,0,0.2,0,0.3,0c0.1,0,0.3,0.1,0.4,0.1c0.1,0.1,0.3,0.1,0.4,0.2S1661.5,28.1,1661.6,28.2z M1661.2,28.5c-0.1-0.1-0.2-0.2-0.3-0.3
	s-0.3-0.1-0.4-0.1s-0.3,0-0.5,0.1c-0.2,0.1-0.3,0.1-0.4,0.2c-0.2,0.1-0.4,0.2-0.5,0.3c-0.2,0.1-0.3,0.2-0.5,0.3
	c-0.3,0.2-0.7,0.4-1,0.6c-0.1,0.1-0.2,0.2-0.4,0.3c-0.1,0.1-0.2,0.2-0.3,0.3c-0.1,0.1-0.1,0.3-0.2,0.4c0,0.1,0,0.3,0.1,0.4
	c0.1,0.1,0.2,0.2,0.3,0.3c0.1,0,0.3,0.1,0.4,0c0.2,0,0.3-0.1,0.5-0.1c0.2-0.1,0.3-0.1,0.4-0.2c0.2-0.1,0.4-0.2,0.5-0.3
	c0.2-0.1,0.3-0.2,0.5-0.3c0.2-0.1,0.3-0.2,0.5-0.3c0.2-0.1,0.3-0.2,0.5-0.3c0.1-0.1,0.2-0.2,0.4-0.3s0.2-0.2,0.3-0.3
	c0.1-0.1,0.1-0.3,0.2-0.4C1661.3,28.8,1661.3,28.6,1661.2,28.5z"/>
<g>
	<path d="M1696,9.8l1.1-0.1c0,0.3,0.1,0.5,0.2,0.6s0.3,0.2,0.5,0.2c0.3,0,0.5-0.1,0.6-0.3s0.3-0.4,0.3-0.7c0-0.2-0.1-0.4-0.2-0.6
		c-0.1-0.1-0.3-0.2-0.5-0.2c-0.1,0-0.1,0-0.2,0l0.2-0.9c0,0,0.1,0,0.1,0c0.3,0,0.5-0.1,0.7-0.2s0.2-0.4,0.2-0.6
		c0-0.2-0.1-0.3-0.2-0.4c-0.1-0.1-0.2-0.2-0.4-0.2c-0.2,0-0.3,0.1-0.4,0.2c-0.1,0.1-0.2,0.3-0.3,0.6l-1-0.2c0.1-0.4,0.3-0.7,0.5-1
		c0.4-0.3,0.8-0.5,1.3-0.5c0.5,0,0.9,0.1,1.2,0.4s0.4,0.6,0.4,1.1c0,0.3-0.1,0.6-0.3,0.8c-0.2,0.2-0.4,0.4-0.7,0.5
		c0.2,0.1,0.4,0.3,0.5,0.5c0.1,0.2,0.2,0.4,0.2,0.6c0,0.4-0.2,0.8-0.4,1.2c-0.4,0.5-0.9,0.7-1.6,0.7c-0.5,0-0.9-0.1-1.2-0.4
		S1696.1,10.3,1696,9.8z"/>
</g>
<path d="M1685.5,34.5c0.1-0.3,0.3-0.6,0.5-0.8c0.2-0.3,0.5-0.5,0.8-0.7s0.6-0.3,1-0.5c0.3-0.1,0.7-0.2,1.1-0.2
	c0.4,0,0.7,0.1,0.9,0.2s0.5,0.3,0.6,0.5c0.2,0.2,0.3,0.4,0.3,0.7s0,0.5-0.1,0.8c-0.1,0.3-0.3,0.6-0.5,0.8s-0.5,0.5-0.8,0.7
	c-0.3,0.2-0.6,0.3-1,0.5c-0.4,0.1-0.7,0.2-1,0.2c-0.4,0-0.7-0.1-0.9-0.2c-0.3-0.1-0.5-0.3-0.6-0.5c-0.2-0.2-0.3-0.4-0.3-0.7
	C1685.4,35.1,1685.4,34.8,1685.5,34.5z"/>
<line fill="none" stroke="#000000" stroke-width="0.459" stroke-miterlimit="10" x1="1690.4" y1="33.7" x2="1690.4" y2="18.9"/>
<path d="M1692.7,36.9c0.1-0.3,0.3-0.6,0.5-0.8c0.2-0.3,0.5-0.5,0.8-0.7c0.3-0.2,0.6-0.3,1-0.5c0.3-0.1,0.7-0.2,1.1-0.2
	s0.7,0.1,0.9,0.2c0.3,0.1,0.5,0.3,0.6,0.5c0.2,0.2,0.3,0.4,0.3,0.7c0,0.3,0,0.5-0.1,0.8c-0.1,0.3-0.3,0.6-0.5,0.8
	c-0.2,0.3-0.5,0.5-0.8,0.7c-0.3,0.2-0.6,0.3-1,0.5c-0.4,0.1-0.7,0.2-1,0.2c-0.4,0-0.7-0.1-0.9-0.2c-0.3-0.1-0.5-0.3-0.6-0.5
	c-0.2-0.2-0.3-0.4-0.3-0.7C1692.6,37.5,1692.6,37.2,1692.7,36.9z"/>
<line fill="none" stroke="#000000" stroke-width="0.459" stroke-miterlimit="10" x1="1697.6" y1="36.1" x2="1697.6" y2="20.1"/>
<path d="M1699.9,39.3c0.1-0.3,0.3-0.6,0.5-0.8c0.2-0.3,0.5-0.5,0.8-0.7c0.3-0.2,0.6-0.3,1-0.5s0.7-0.2,1.1-0.2s0.7,0.1,0.9,0.2
	c0.3,0.1,0.5,0.3,0.6,0.5s0.3,0.4,0.3,0.7s0,0.5-0.1,0.8c-0.1,0.3-0.3,0.6-0.5,0.8c-0.2,0.3-0.5,0.5-0.8,0.7c-0.3,0.2-0.6,0.3-1,0.5
	s-0.7,0.2-1,0.2c-0.4,0-0.7-0.1-0.9-0.2c-0.3-0.1-0.5-0.3-0.6-0.5s-0.3-0.4-0.3-0.7S1699.8,39.6,1699.9,39.3z"/>
<line fill="none" stroke="#000000" stroke-width="0.459" stroke-miterlimit="10" x1="1704.8" y1="38.5" x2="1704.8" y2="21.3"/>
<polyline points="1690.2,17.7 1705,20.1 1705,22.5 1690.2,20.1 "/>
<g>
	<path d="M1656.9,18.9v-5.7h3.9v0.7h-3.1v1.8h2.7v0.7h-2.7v2.6H1656.9z"/>
</g>
<line fill="none" stroke="#000000" stroke-width="0.459" stroke-miterlimit="10" x1="1720.8" y1="33.7" x2="1720.8" y2="17.7"/>
<path d="M1721.2,33c0.1,0.1,0.1,0.3,0.1,0.4c0,0.2,0,0.3,0,0.5c0,0.2,0,0.3-0.1,0.4c0,0.1-0.1,0.2-0.1,0.3c-0.2,0.4-0.4,0.8-0.7,1.1
	c-0.3,0.3-0.6,0.5-0.9,0.7c-0.5,0.3-1.2,0.4-2,0.3c-0.1,0-0.2,0-0.4-0.1s-0.3-0.1-0.5-0.1s-0.3-0.1-0.4-0.2
	c-0.1-0.1-0.2-0.2-0.3-0.3c-0.1-0.1-0.1-0.3-0.2-0.4c0-0.2,0-0.3,0-0.4c0-0.1,0-0.3,0.1-0.4s0.1-0.2,0.1-0.3
	c0.2-0.4,0.4-0.8,0.7-1.1s0.6-0.5,0.8-0.7c0.3-0.1,0.6-0.3,0.9-0.4c0.4-0.1,0.8-0.1,1.3-0.1c0.1,0,0.2,0,0.3,0
	c0.1,0,0.3,0.1,0.4,0.1c0.1,0.1,0.3,0.1,0.4,0.2C1721,32.7,1721.1,32.9,1721.2,33z M1720.8,33.3c-0.1-0.1-0.2-0.2-0.3-0.3
	c-0.1,0-0.3-0.1-0.4-0.1c-0.2,0-0.3,0-0.5,0.1c-0.2,0.1-0.3,0.1-0.4,0.2c-0.2,0.1-0.4,0.2-0.5,0.3c-0.2,0.1-0.3,0.2-0.5,0.3
	c-0.3,0.2-0.7,0.4-1,0.6c-0.1,0.1-0.2,0.2-0.4,0.3c-0.1,0.1-0.2,0.2-0.3,0.3c-0.1,0.1-0.1,0.3-0.2,0.4c0,0.1,0,0.3,0.1,0.4
	c0.1,0.1,0.2,0.2,0.3,0.3c0.1,0,0.3,0.1,0.4,0c0.2,0,0.3-0.1,0.5-0.1c0.2-0.1,0.3-0.1,0.4-0.2c0.2-0.1,0.4-0.2,0.5-0.3
	c0.2-0.1,0.3-0.2,0.5-0.3c0.2-0.1,0.3-0.2,0.5-0.3c0.2-0.1,0.3-0.2,0.5-0.3c0.1-0.1,0.2-0.2,0.4-0.3c0.1-0.1,0.2-0.2,0.3-0.3
	c0.1-0.1,0.1-0.3,0.2-0.4C1720.9,33.6,1720.9,33.4,1720.8,33.3z"/>
<line fill="none" stroke="#000000" stroke-width="0.459" stroke-miterlimit="10" x1="1754.6" y1="36.1" x2="1754.6" y2="20.1"/>
<path d="M1749.7,36.9c0.1-0.3,0.3-0.6,0.5-0.8c0.2-0.3,0.5-0.5,0.8-0.7c0.3-0.2,0.6-0.3,1-0.5c0.3-0.1,0.7-0.2,1.1-0.2
	s0.7,0.1,0.9,0.2c0.3,0.1,0.5,0.3,0.6,0.5c0.2,0.2,0.3,0.4,0.3,0.7c0,0.3,0,0.5-0.1,0.8c-0.1,0.3-0.3,0.6-0.5,0.8
	c-0.2,0.3-0.5,0.5-0.8,0.7c-0.3,0.2-0.6,0.3-1,0.5c-0.4,0.1-0.7,0.2-1,0.2c-0.4,0-0.7-0.1-0.9-0.2c-0.3-0.1-0.5-0.3-0.6-0.5
	c-0.2-0.2-0.3-0.4-0.3-0.7C1749.6,37.5,1749.6,37.2,1749.7,36.9z"/>
<g>
	<path d="M1716.5,18.9v-5.7h3.9v0.7h-3.1v1.8h2.7v0.7h-2.7v2.6H1716.5z"/>
</g>
<g>
	<path d="M1722.1,14.4v-0.6h3.3v0.5c-0.3,0.3-0.7,0.8-1,1.4c-0.3,0.6-0.6,1.2-0.7,1.8c-0.1,0.4-0.2,0.9-0.2,1.4h-0.7
		c0-0.4,0.1-0.9,0.2-1.5s0.4-1.1,0.7-1.7c0.3-0.5,0.6-1,0.9-1.3H1722.1z"/>
</g>
<line fill="none" stroke="#000000" stroke-width="0.459" stroke-miterlimit="10" x1="1780.6" y1="38.5" x2="1780.6" y2="22.5"/>
<path d="M1781,37.8c0.1,0.1,0.1,0.3,0.1,0.4c0,0.2,0,0.3,0,0.5c0,0.2,0,0.3-0.1,0.4c0,0.1-0.1,0.2-0.1,0.3c-0.2,0.4-0.4,0.8-0.7,1.1
	c-0.3,0.3-0.6,0.5-0.9,0.7c-0.5,0.3-1.2,0.4-2,0.3c-0.1,0-0.2,0-0.4-0.1s-0.3-0.1-0.5-0.1s-0.3-0.1-0.4-0.2
	c-0.1-0.1-0.2-0.2-0.3-0.3c-0.1-0.1-0.1-0.3-0.2-0.4c0-0.2,0-0.3,0-0.4c0-0.1,0-0.3,0.1-0.4s0.1-0.2,0.1-0.3
	c0.2-0.4,0.4-0.8,0.7-1.1c0.3-0.3,0.6-0.5,0.8-0.7c0.3-0.1,0.6-0.3,0.9-0.4s0.8-0.1,1.3-0.1c0.1,0,0.2,0,0.3,0
	c0.1,0,0.3,0.1,0.4,0.1c0.1,0.1,0.3,0.1,0.4,0.2C1780.8,37.5,1780.9,37.7,1781,37.8z M1780.6,38.1c-0.1-0.1-0.2-0.2-0.3-0.3
	c-0.1,0-0.3-0.1-0.4-0.1c-0.2,0-0.3,0-0.5,0.1c-0.2,0.1-0.3,0.1-0.4,0.2c-0.2,0.1-0.4,0.2-0.5,0.3c-0.2,0.1-0.3,0.2-0.5,0.3
	c-0.3,0.2-0.7,0.4-1,0.6c-0.1,0.1-0.2,0.2-0.4,0.3c-0.1,0.1-0.2,0.2-0.3,0.3c-0.1,0.1-0.1,0.3-0.2,0.4s0,0.3,0.1,0.4
	c0.1,0.1,0.2,0.2,0.3,0.3c0.1,0,0.3,0.1,0.4,0c0.2,0,0.3-0.1,0.5-0.1s0.3-0.1,0.4-0.2c0.2-0.1,0.4-0.2,0.5-0.3
	c0.2-0.1,0.3-0.2,0.5-0.3c0.2-0.1,0.3-0.2,0.5-0.3c0.2-0.1,0.3-0.2,0.5-0.3c0.1-0.1,0.2-0.2,0.4-0.3c0.1-0.1,0.2-0.2,0.3-0.3
	s0.1-0.3,0.2-0.4C1780.7,38.4,1780.7,38.2,1780.6,38.1z"/>
<line fill="none" stroke="#000000" stroke-width="0.459" stroke-miterlimit="10" x1="1814.4" y1="43.3" x2="1814.4" y2="27.3"/>
<path d="M1809.5,44.1c0.1-0.3,0.3-0.6,0.5-0.8c0.2-0.3,0.5-0.5,0.8-0.7c0.3-0.2,0.6-0.3,1-0.5c0.3-0.1,0.7-0.2,1.1-0.2
	s0.7,0.1,0.9,0.2c0.3,0.1,0.5,0.3,0.6,0.5c0.2,0.2,0.3,0.4,0.3,0.7s0,0.5-0.1,0.8c-0.1,0.3-0.3,0.6-0.5,0.8s-0.5,0.5-0.8,0.7
	c-0.3,0.2-0.6,0.3-1,0.5c-0.4,0.1-0.7,0.2-1,0.2c-0.4,0-0.7-0.1-0.9-0.2s-0.5-0.3-0.6-0.5c-0.2-0.2-0.3-0.4-0.3-0.7
	C1809.4,44.7,1809.4,44.4,1809.5,44.1z"/>
<g>
	<path d="M1776.2,18.9v-5.7h2.1c0.4,0,0.8,0.1,1.1,0.2c0.3,0.1,0.5,0.3,0.6,0.5c0.1,0.2,0.2,0.5,0.2,0.8c0,0.2-0.1,0.5-0.2,0.7
		c-0.1,0.2-0.3,0.4-0.6,0.5c0.3,0.1,0.6,0.3,0.8,0.5c0.2,0.2,0.3,0.5,0.3,0.9c0,0.3-0.1,0.5-0.2,0.7s-0.3,0.4-0.4,0.5
		c-0.2,0.1-0.4,0.2-0.6,0.3c-0.3,0.1-0.6,0.1-0.9,0.1H1776.2z M1776.9,15.6h1.2c0.3,0,0.6,0,0.7-0.1c0.2-0.1,0.3-0.2,0.4-0.3
		s0.1-0.3,0.1-0.5c0-0.2,0-0.4-0.1-0.5c-0.1-0.1-0.2-0.2-0.4-0.3c-0.2-0.1-0.5-0.1-0.9-0.1h-1.1V15.6z M1776.9,18.2h1.4
		c0.2,0,0.4,0,0.5,0c0.2,0,0.3-0.1,0.4-0.2s0.2-0.2,0.3-0.3c0.1-0.1,0.1-0.3,0.1-0.5c0-0.2-0.1-0.4-0.2-0.6
		c-0.1-0.2-0.3-0.3-0.5-0.3c-0.2-0.1-0.5-0.1-0.8-0.1h-1.3V18.2z"/>
</g>
<g>
	<path d="M1782,12.7c0,0.1,0,1,0,1c0.6-0.5,0.9-0.7,1.6-0.7c0.8,0,1.3,0.8,1.3,1.4c0,0.3-0.1,0.7-0.2,1c-0.1,0.4-0.5,0.6-0.8,0.9
		c-0.3,0.3-2.4,1.7-2.4,1.7V8.6h0.4C1782,8.6,1782,10.6,1782,12.7z M1782.2,14.3c-0.2,0.4-0.2,1.1-0.2,1.6v1.4c0,0,0.6-0.5,0.9-0.8
		c0.3-0.3,0.5-0.6,0.6-1.1c0.1-0.5,0.1-1-0.2-1.3C1783.1,13.8,1782.5,13.6,1782.2,14.3z"/>
</g>
<line fill="none" stroke="#000000" stroke-width="0.459" stroke-miterlimit="10" x1="1841.8" y1="45.7" x2="1841.8" y2="29.7"/>
<line fill="none" stroke="#000000" stroke-width="0.459" stroke-miterlimit="10" x1="1835.6" y1="46.5" x2="1843.2" y2="46.5"/>
<path d="M1842.2,45c0.1,0.1,0.1,0.3,0.1,0.4c0,0.2,0,0.3,0,0.5c0,0.2,0,0.3-0.1,0.4c0,0.1-0.1,0.2-0.1,0.3c-0.2,0.4-0.4,0.8-0.7,1.1
	c-0.3,0.3-0.6,0.5-0.9,0.7c-0.5,0.3-1.2,0.4-2,0.3c-0.1,0-0.2,0-0.4-0.1s-0.3-0.1-0.5-0.1c-0.2-0.1-0.3-0.1-0.4-0.2
	s-0.2-0.2-0.3-0.3c-0.1-0.1-0.1-0.3-0.2-0.4s0-0.3,0-0.4s0-0.3,0.1-0.4c0-0.1,0.1-0.2,0.1-0.3c0.2-0.4,0.4-0.8,0.7-1.1
	s0.6-0.5,0.8-0.7c0.3-0.1,0.6-0.3,0.9-0.4c0.4-0.1,0.8-0.1,1.3-0.1c0.1,0,0.2,0,0.3,0c0.1,0,0.3,0.1,0.4,0.1
	c0.1,0.1,0.3,0.1,0.4,0.2S1842.1,44.9,1842.2,45z M1841.8,45.3c-0.1-0.1-0.2-0.2-0.3-0.3c-0.1,0-0.3-0.1-0.4-0.1s-0.3,0-0.5,0.1
	c-0.2,0.1-0.3,0.1-0.4,0.2c-0.2,0.1-0.4,0.2-0.5,0.3c-0.2,0.1-0.3,0.2-0.5,0.3c-0.3,0.2-0.7,0.4-1,0.6c-0.1,0.1-0.2,0.2-0.4,0.3
	c-0.1,0.1-0.2,0.2-0.3,0.3c-0.1,0.1-0.1,0.3-0.2,0.4c0,0.1,0,0.3,0.1,0.4c0.1,0.1,0.2,0.2,0.3,0.3c0.1,0,0.3,0.1,0.4,0
	c0.2,0,0.3-0.1,0.5-0.1c0.2-0.1,0.3-0.1,0.4-0.2c0.2-0.1,0.4-0.2,0.5-0.3c0.2-0.1,0.3-0.2,0.5-0.3c0.2-0.1,0.3-0.2,0.5-0.3
	c0.2-0.1,0.3-0.2,0.5-0.3c0.1-0.1,0.2-0.2,0.4-0.3c0.1-0.1,0.2-0.2,0.3-0.3c0.1-0.1,0.1-0.3,0.2-0.4S1841.9,45.4,1841.8,45.3z"/>
<line fill="none" stroke="#000000" stroke-width="0.459" stroke-miterlimit="10" x1="1874.6" y1="45.7" x2="1874.6" y2="29.7"/>
<line fill="none" stroke="#000000" stroke-width="0.459" stroke-miterlimit="10" x1="1868.4" y1="46.5" x2="1876" y2="46.5"/>
<path d="M1869.7,46.5c0.1-0.3,0.3-0.6,0.5-0.8c0.2-0.3,0.5-0.5,0.8-0.7c0.3-0.2,0.6-0.3,1-0.5c0.3-0.1,0.7-0.2,1.1-0.2
	s0.7,0.1,0.9,0.2c0.3,0.1,0.5,0.3,0.6,0.5c0.2,0.2,0.3,0.4,0.3,0.7c0,0.3,0,0.5-0.1,0.8c-0.1,0.3-0.3,0.6-0.5,0.8
	c-0.2,0.3-0.5,0.5-0.8,0.7c-0.3,0.2-0.6,0.3-1,0.5c-0.4,0.1-0.7,0.2-1,0.2c-0.4,0-0.7-0.1-0.9-0.2c-0.3-0.1-0.5-0.3-0.6-0.5
	c-0.2-0.2-0.3-0.4-0.3-0.7C1869.6,47.1,1869.6,46.8,1869.7,46.5z"/>
<g>
	<path d="M1837.5,18.9v-5.7h3.9v0.7h-3.1v1.8h2.7v0.7h-2.7v2.6H1837.5z"/>
</g>
<line fill="none" stroke="#000000" stroke-width="0.459" stroke-miterlimit="10" x1="1900.2" y1="38.5" x2="1900.2" y2="22.5"/>
<path d="M1900.6,37.8c0.1,0.1,0.1,0.3,0.1,0.4c0,0.2,0,0.3,0,0.5c0,0.2,0,0.3-0.1,0.4c0,0.1-0.1,0.2-0.1,0.3
	c-0.2,0.4-0.4,0.8-0.7,1.1c-0.3,0.3-0.6,0.5-0.9,0.7c-0.5,0.3-1.2,0.4-2,0.3c-0.1,0-0.2,0-0.4-0.1s-0.3-0.1-0.5-0.1
	c-0.2-0.1-0.3-0.1-0.4-0.2c-0.1-0.1-0.2-0.2-0.3-0.3c-0.1-0.1-0.1-0.3-0.2-0.4c0-0.2,0-0.3,0-0.4c0-0.1,0-0.3,0.1-0.4
	c0-0.1,0.1-0.2,0.1-0.3c0.2-0.4,0.4-0.8,0.7-1.1c0.3-0.3,0.6-0.5,0.8-0.7c0.3-0.1,0.6-0.3,0.9-0.4s0.8-0.1,1.3-0.1
	c0.1,0,0.2,0,0.3,0c0.1,0,0.3,0.1,0.4,0.1c0.1,0.1,0.3,0.1,0.4,0.2S1900.5,37.7,1900.6,37.8z M1900.2,38.1c-0.1-0.1-0.2-0.2-0.3-0.3
	s-0.3-0.1-0.4-0.1c-0.2,0-0.3,0-0.5,0.1s-0.3,0.1-0.4,0.2c-0.2,0.1-0.4,0.2-0.5,0.3c-0.2,0.1-0.3,0.2-0.5,0.3
	c-0.3,0.2-0.7,0.4-1,0.6c-0.1,0.1-0.2,0.2-0.4,0.3c-0.1,0.1-0.2,0.2-0.3,0.3c-0.1,0.1-0.1,0.3-0.2,0.4c0,0.1,0,0.3,0.1,0.4
	s0.2,0.2,0.3,0.3c0.1,0,0.3,0.1,0.4,0c0.2,0,0.3-0.1,0.5-0.1c0.2-0.1,0.3-0.1,0.4-0.2c0.2-0.1,0.4-0.2,0.5-0.3
	c0.2-0.1,0.3-0.2,0.5-0.3c0.2-0.1,0.3-0.2,0.5-0.3c0.2-0.1,0.3-0.2,0.5-0.3c0.1-0.1,0.2-0.2,0.4-0.3c0.1-0.1,0.2-0.2,0.3-0.3
	c0.1-0.1,0.1-0.3,0.2-0.4C1900.3,38.4,1900.3,38.2,1900.2,38.1z"/>
<g>
	<path d="M1935.6,9.8l1.1-0.1c0,0.3,0.1,0.5,0.2,0.6s0.3,0.2,0.5,0.2c0.3,0,0.5-0.1,0.6-0.3s0.3-0.4,0.3-0.7c0-0.2-0.1-0.4-0.2-0.6
		c-0.1-0.1-0.3-0.2-0.5-0.2c-0.1,0-0.1,0-0.2,0l0.2-0.9c0,0,0.1,0,0.1,0c0.3,0,0.5-0.1,0.7-0.2s0.2-0.4,0.2-0.6
		c0-0.2-0.1-0.3-0.2-0.4c-0.1-0.1-0.2-0.2-0.4-0.2c-0.2,0-0.3,0.1-0.4,0.2c-0.1,0.1-0.2,0.3-0.3,0.6l-1-0.2c0.1-0.4,0.3-0.7,0.5-1
		c0.4-0.3,0.8-0.5,1.3-0.5c0.5,0,0.9,0.1,1.2,0.4s0.4,0.6,0.4,1.1c0,0.3-0.1,0.6-0.3,0.8c-0.2,0.2-0.4,0.4-0.7,0.5
		c0.2,0.1,0.4,0.3,0.5,0.5c0.1,0.2,0.2,0.4,0.2,0.6c0,0.4-0.2,0.8-0.4,1.2c-0.4,0.5-0.9,0.7-1.6,0.7c-0.5,0-0.9-0.1-1.2-0.4
		S1935.7,10.3,1935.6,9.8z"/>
</g>
<path d="M1924.7,34.5c0.1-0.3,0.3-0.6,0.5-0.8c0.2-0.3,0.5-0.5,0.8-0.7c0.3-0.2,0.6-0.3,1-0.5c0.3-0.1,0.7-0.2,1.1-0.2
	s0.7,0.1,0.9,0.2c0.3,0.1,0.5,0.3,0.6,0.5c0.2,0.2,0.3,0.4,0.3,0.7s0,0.5-0.1,0.8c-0.1,0.3-0.3,0.6-0.5,0.8s-0.5,0.5-0.8,0.7
	c-0.3,0.2-0.6,0.3-1,0.5s-0.7,0.2-1,0.2c-0.4,0-0.7-0.1-0.9-0.2c-0.3-0.1-0.5-0.3-0.6-0.5s-0.3-0.4-0.3-0.7
	C1924.6,35.1,1924.6,34.8,1924.7,34.5z"/>
<line fill="none" stroke="#000000" stroke-width="0.459" stroke-miterlimit="10" x1="1929.6" y1="33.7" x2="1929.6" y2="18.9"/>
<path d="M1931.7,36.9c0.1-0.3,0.3-0.6,0.5-0.8c0.2-0.3,0.5-0.5,0.8-0.7c0.3-0.2,0.6-0.3,1-0.5c0.3-0.1,0.7-0.2,1.1-0.2
	s0.7,0.1,0.9,0.2s0.5,0.3,0.6,0.5c0.2,0.2,0.3,0.4,0.3,0.7c0,0.3,0,0.5-0.1,0.8s-0.3,0.6-0.5,0.8s-0.5,0.5-0.8,0.7
	c-0.3,0.2-0.6,0.3-1,0.5c-0.4,0.1-0.7,0.2-1.1,0.2c-0.4,0-0.7-0.1-0.9-0.2c-0.3-0.1-0.5-0.3-0.6-0.5s-0.3-0.4-0.3-0.7
	C1931.6,37.5,1931.6,37.2,1931.7,36.9z"/>
<line fill="none" stroke="#000000" stroke-width="0.459" stroke-miterlimit="10" x1="1936.6" y1="36.1" x2="1936.6" y2="20"/>
<path d="M1939.9,39.3c0.1-0.3,0.3-0.6,0.5-0.8c0.2-0.3,0.5-0.5,0.8-0.7c0.3-0.2,0.6-0.3,1-0.5s0.7-0.2,1.1-0.2s0.7,0.1,0.9,0.2
	c0.3,0.1,0.5,0.3,0.6,0.5s0.3,0.4,0.3,0.7s0,0.5-0.1,0.8c-0.1,0.3-0.3,0.6-0.5,0.8c-0.2,0.3-0.5,0.5-0.8,0.7c-0.3,0.2-0.6,0.3-1,0.5
	s-0.7,0.2-1,0.2c-0.4,0-0.7-0.1-0.9-0.2c-0.3-0.1-0.5-0.3-0.6-0.5s-0.3-0.4-0.3-0.7S1939.8,39.6,1939.9,39.3z"/>
<line fill="none" stroke="#000000" stroke-width="0.459" stroke-miterlimit="10" x1="1944.8" y1="38.5" x2="1944.8" y2="21.3"/>
<polyline points="1929.4,17.7 1945,20.1 1945,22.5 1929.4,20.1 "/>
<g>
	<path d="M1895.8,18.9v-5.7h2c0.4,0,0.8,0,1,0.1c0.3,0.1,0.6,0.2,0.8,0.4c0.3,0.3,0.5,0.6,0.7,1c0.1,0.4,0.2,0.9,0.2,1.4
		c0,0.4-0.1,0.8-0.2,1.2s-0.2,0.6-0.4,0.8c-0.2,0.2-0.3,0.4-0.5,0.5c-0.2,0.1-0.4,0.2-0.7,0.3c-0.3,0.1-0.6,0.1-0.9,0.1H1895.8z
		 M1896.6,18.2h1.2c0.4,0,0.7,0,0.9-0.1s0.4-0.2,0.5-0.3c0.2-0.2,0.3-0.4,0.4-0.7c0.1-0.3,0.2-0.7,0.2-1.1c0-0.6-0.1-1.1-0.3-1.4
		c-0.2-0.3-0.4-0.5-0.7-0.6c-0.2-0.1-0.5-0.1-1-0.1h-1.2V18.2z"/>
</g>
<g>
	<path d="M1902.5,18.9v-3.7h0.6v0.5c0.1-0.2,0.3-0.3,0.5-0.4c0.2-0.1,0.4-0.2,0.7-0.2c0.3,0,0.5,0.1,0.7,0.2
		c0.2,0.1,0.3,0.3,0.4,0.5c0.3-0.4,0.7-0.7,1.2-0.7c0.4,0,0.7,0.1,0.9,0.3s0.3,0.5,0.3,0.9v2.6h-0.6v-2.4c0-0.3,0-0.4-0.1-0.5
		s-0.1-0.2-0.2-0.3c-0.1-0.1-0.2-0.1-0.4-0.1c-0.3,0-0.5,0.1-0.7,0.3c-0.2,0.2-0.3,0.5-0.3,0.8v2.2h-0.6v-2.4c0-0.3-0.1-0.5-0.2-0.6
		c-0.1-0.1-0.3-0.2-0.5-0.2c-0.2,0-0.3,0-0.5,0.1s-0.3,0.2-0.3,0.4c-0.1,0.2-0.1,0.4-0.1,0.8v1.9H1902.5z"/>
</g>
<line fill="none" stroke="#000000" stroke-width="0.459" stroke-miterlimit="10" x1="1960" y1="33.7" x2="1960" y2="17.7"/>
<path d="M1960.4,33c0.1,0.1,0.1,0.3,0.1,0.4c0,0.2,0,0.3,0,0.5c0,0.2,0,0.3-0.1,0.4s-0.1,0.2-0.1,0.3c-0.2,0.4-0.4,0.8-0.7,1.1
	s-0.6,0.5-0.9,0.7c-0.5,0.3-1.2,0.4-2,0.3c-0.1,0-0.2,0-0.4-0.1s-0.3-0.1-0.5-0.1s-0.3-0.1-0.4-0.2c-0.1-0.1-0.2-0.2-0.3-0.3
	c-0.1-0.1-0.1-0.3-0.2-0.4s0-0.3,0-0.4s0-0.3,0.1-0.4c0-0.1,0.1-0.2,0.1-0.3c0.2-0.4,0.4-0.8,0.7-1.1s0.6-0.5,0.8-0.7
	c0.3-0.1,0.6-0.3,0.9-0.4c0.4-0.1,0.8-0.1,1.3-0.1c0.1,0,0.2,0,0.3,0c0.1,0,0.3,0.1,0.4,0.1c0.1,0.1,0.3,0.1,0.4,0.2
	S1960.3,32.9,1960.4,33z M1960,33.3c-0.1-0.1-0.2-0.2-0.3-0.3c-0.1,0-0.3-0.1-0.4-0.1s-0.3,0-0.5,0.1c-0.2,0.1-0.3,0.1-0.4,0.2
	c-0.2,0.1-0.4,0.2-0.5,0.3c-0.2,0.1-0.3,0.2-0.5,0.3c-0.3,0.2-0.7,0.4-1,0.6c-0.1,0.1-0.2,0.2-0.4,0.3c-0.1,0.1-0.2,0.2-0.3,0.3
	s-0.1,0.3-0.2,0.4c0,0.1,0,0.3,0.1,0.4c0.1,0.1,0.2,0.2,0.3,0.3s0.3,0.1,0.4,0c0.2,0,0.3-0.1,0.5-0.1c0.2-0.1,0.3-0.1,0.4-0.2
	c0.2-0.1,0.4-0.2,0.5-0.3c0.2-0.1,0.3-0.2,0.5-0.3c0.2-0.1,0.3-0.2,0.5-0.3c0.2-0.1,0.3-0.2,0.5-0.3c0.1-0.1,0.2-0.2,0.4-0.3
	c0.1-0.1,0.2-0.2,0.3-0.3c0.1-0.1,0.1-0.3,0.2-0.4S1960.1,33.4,1960,33.3z"/>
<line fill="none" stroke="#000000" stroke-width="0.459" stroke-miterlimit="10" x1="1993.8" y1="36.1" x2="1993.8" y2="20.1"/>
<path d="M1988.9,36.9c0.1-0.3,0.3-0.6,0.5-0.8c0.2-0.3,0.5-0.5,0.8-0.7s0.6-0.3,1-0.5c0.3-0.1,0.7-0.2,1.1-0.2s0.7,0.1,0.9,0.2
	s0.5,0.3,0.6,0.5c0.2,0.2,0.3,0.4,0.3,0.7c0,0.3,0,0.5-0.1,0.8s-0.3,0.6-0.5,0.8s-0.5,0.5-0.8,0.7c-0.3,0.2-0.6,0.3-1,0.5
	s-0.7,0.2-1,0.2c-0.4,0-0.7-0.1-0.9-0.2c-0.3-0.1-0.5-0.3-0.6-0.5s-0.3-0.4-0.3-0.7S1988.8,37.2,1988.9,36.9z"/>
<g>
	<path d="M1956.5,16.7V16l2.4,0v2.1c-0.4,0.3-0.8,0.5-1.2,0.7c-0.4,0.1-0.8,0.2-1.2,0.2c-0.6,0-1.1-0.1-1.5-0.4
		c-0.5-0.2-0.8-0.6-1-1s-0.4-1-0.4-1.5c0-0.6,0.1-1.1,0.3-1.6c0.2-0.5,0.6-0.8,1-1.1s0.9-0.4,1.5-0.4c0.4,0,0.8,0.1,1.1,0.2
		c0.3,0.1,0.6,0.3,0.8,0.6c0.2,0.2,0.3,0.6,0.4,0.9l-0.7,0.2c-0.1-0.3-0.2-0.5-0.3-0.7c-0.1-0.2-0.3-0.3-0.5-0.4
		c-0.2-0.1-0.5-0.2-0.8-0.2c-0.3,0-0.6,0.1-0.9,0.2c-0.3,0.1-0.5,0.2-0.6,0.4s-0.3,0.4-0.4,0.6c-0.1,0.4-0.2,0.7-0.2,1.2
		c0,0.5,0.1,0.9,0.3,1.3s0.4,0.6,0.8,0.8s0.7,0.2,1.1,0.2c0.3,0,0.6-0.1,1-0.2s0.5-0.3,0.7-0.4v-1.1H1956.5z"/>
</g>
<g>
	<path d="M1993.5,16.9l0.8,0.2c-0.2,0.6-0.4,1.1-0.9,1.4c-0.4,0.3-0.9,0.5-1.5,0.5c-0.6,0-1.1-0.1-1.5-0.4s-0.7-0.6-0.9-1.1
		s-0.3-1-0.3-1.5c0-0.6,0.1-1.1,0.3-1.6c0.2-0.4,0.6-0.8,1-1c0.4-0.2,0.9-0.3,1.4-0.3c0.6,0,1.1,0.1,1.4,0.4
		c0.4,0.3,0.7,0.7,0.8,1.2l-0.7,0.2c-0.1-0.4-0.3-0.7-0.6-0.9c-0.3-0.2-0.6-0.3-1-0.3c-0.4,0-0.8,0.1-1.1,0.3
		c-0.3,0.2-0.5,0.5-0.6,0.8c-0.1,0.4-0.2,0.7-0.2,1.1c0,0.5,0.1,0.9,0.2,1.3s0.4,0.6,0.7,0.8c0.3,0.2,0.6,0.3,1,0.3
		c0.4,0,0.8-0.1,1.1-0.4C1993.2,17.7,1993.4,17.4,1993.5,16.9z"/>
</g>
<g>
	<path d="M2023.2,38.4c0.6,0,1,0.4,1,1c0,0.5-0.4,1-1,1s-1-0.4-1-1C2022.2,38.8,2022.6,38.4,2023.2,38.4z"/>
</g>
<line fill="none" stroke="#000000" stroke-width="0.459" stroke-miterlimit="10" x1="2019.8" y1="38.5" x2="2019.8" y2="22.5"/>
<path d="M2020.2,37.8c0.1,0.1,0.1,0.3,0.1,0.4c0,0.2,0,0.3,0,0.5c0,0.2,0,0.3-0.1,0.4c0,0.1-0.1,0.2-0.1,0.3
	c-0.2,0.4-0.4,0.8-0.7,1.1c-0.3,0.3-0.6,0.5-0.9,0.7c-0.5,0.3-1.2,0.4-2,0.3c-0.1,0-0.2,0-0.4-0.1s-0.3-0.1-0.5-0.1
	s-0.3-0.1-0.4-0.2c-0.1-0.1-0.2-0.2-0.3-0.3c-0.1-0.1-0.1-0.3-0.2-0.4c0-0.2,0-0.3,0-0.4c0-0.1,0-0.3,0.1-0.4c0-0.1,0.1-0.2,0.1-0.3
	c0.2-0.4,0.4-0.8,0.7-1.1c0.3-0.3,0.6-0.5,0.8-0.7c0.3-0.1,0.6-0.3,0.9-0.4s0.8-0.1,1.3-0.1c0.1,0,0.2,0,0.3,0
	c0.1,0,0.3,0.1,0.4,0.1c0.1,0.1,0.3,0.1,0.4,0.2C2020,37.5,2020.1,37.7,2020.2,37.8z M2019.8,38.1c-0.1-0.1-0.2-0.2-0.3-0.3
	c-0.1,0-0.3-0.1-0.4-0.1c-0.2,0-0.3,0-0.5,0.1c-0.2,0.1-0.3,0.1-0.4,0.2c-0.2,0.1-0.4,0.2-0.5,0.3c-0.2,0.1-0.3,0.2-0.5,0.3
	c-0.3,0.2-0.7,0.4-1,0.6c-0.1,0.1-0.2,0.2-0.4,0.3c-0.1,0.1-0.2,0.2-0.3,0.3c-0.1,0.1-0.1,0.3-0.2,0.4s0,0.3,0.1,0.4
	c0.1,0.1,0.2,0.2,0.3,0.3c0.1,0,0.3,0.1,0.4,0c0.2,0,0.3-0.1,0.5-0.1s0.3-0.1,0.4-0.2c0.2-0.1,0.4-0.2,0.5-0.3
	c0.2-0.1,0.3-0.2,0.5-0.3c0.2-0.1,0.3-0.2,0.5-0.3c0.2-0.1,0.3-0.2,0.5-0.3c0.1-0.1,0.2-0.2,0.4-0.3c0.1-0.1,0.2-0.2,0.3-0.3
	s0.1-0.3,0.2-0.4C2019.9,38.4,2019.9,38.2,2019.8,38.1z"/>
<g>
	<path d="M2015.5,18.9v-5.7h3.9v0.7h-3.1v1.8h2.7v0.7h-2.7v2.6H2015.5z"/>
</g>
<rect x="2095.4" y="27.3" width="6.1" height="2.8"/>
<line fill="none" stroke="#000000" stroke-width="0.459" stroke-miterlimit="10" x1="2094.8" y1="27.3" x2="2102" y2="27.3"/>
<path d="M131.6,40.7c0.8,4.4,9.8,7.8,13.4,5.2C141.8,47.4,132.8,44,131.6,40.7"/>
<path d="M667.2,39.7c1.2,4.4,11.2,8.4,15.2,6.2C678.9,47,668.9,43,667.2,39.7"/>
<path d="M366.2,40.1c2,4,13.8,8.4,18.4,6.6C380.4,47.4,368.6,43,366.2,40.1"/>
<path d="M908.4,40.5c1.2,4.4,10.8,8.4,14.8,6.2C919.7,47.8,910.1,43.8,908.4,40.5"/>
<path d="M1150.6,40.7c0.8,4.4,9.8,7.8,13.4,5.2C1160.8,47.4,1151.8,44,1150.6,40.7"/>
<path d="M1385.2,40.1c2,4,13.8,8.4,18.4,6.6C1399.4,47.4,1387.6,43,1385.2,40.1"/>
<path d="M1686.2,39.7c1.2,4.4,11.2,8.4,15.2,6.2C1697.9,47,1687.9,43,1686.2,39.7"/>
<path d="M1927.4,40.5c1.2,4.4,10.8,8.4,14.8,6.2C1938.7,47.8,1929.1,43.8,1927.4,40.5"/>
<g>
	<path d="M2102,11.7l1.8-4.6h0.7l1.9,4.6h-0.7l-0.5-1.4h-1.9l-0.5,1.4H2102z M2103.3,9.8h1.6l-0.5-1.3c-0.1-0.4-0.3-0.7-0.3-0.9
		c-0.1,0.3-0.1,0.6-0.2,0.9L2103.3,9.8z"/>
</g>
<g>
	<path d="M2106.9,11.7V8.4h0.5v0.5c0.2-0.4,0.6-0.5,1.1-0.5c0.2,0,0.4,0,0.6,0.1c0.2,0.1,0.3,0.2,0.4,0.3c0.1,0.1,0.1,0.3,0.2,0.4
		c0,0.1,0,0.3,0,0.5v2h-0.6v-2c0-0.2,0-0.4-0.1-0.5c0-0.1-0.1-0.2-0.2-0.3c-0.1-0.1-0.2-0.1-0.4-0.1c-0.2,0-0.4,0.1-0.6,0.2
		c-0.2,0.2-0.3,0.4-0.3,0.9v1.8H2106.9z"/>
</g>
<g>
	<path d="M2110.5,10c0-0.6,0.2-1.1,0.5-1.4c0.3-0.2,0.6-0.4,1-0.4c0.5,0,0.8,0.1,1.1,0.4c0.3,0.3,0.4,0.7,0.4,1.2
		c0,0.4-0.1,0.8-0.2,1c-0.1,0.2-0.3,0.4-0.6,0.6c-0.2,0.1-0.5,0.2-0.8,0.2c-0.5,0-0.8-0.1-1.1-0.4C2110.6,11,2110.5,10.6,2110.5,10z
		 M2111,10c0,0.4,0.1,0.7,0.3,1s0.4,0.3,0.7,0.3c0.3,0,0.5-0.1,0.7-0.3c0.2-0.2,0.3-0.5,0.3-1c0-0.4-0.1-0.7-0.3-0.9
		s-0.4-0.3-0.7-0.3c-0.3,0-0.5,0.1-0.7,0.3S2111,9.6,2111,10z M2111.7,8l0.4-0.9h0.7l-0.7,0.9H2111.7z"/>
</g>
<g>
	<path d="M2114.4,11.7V8.4h0.5v0.5c0.2-0.4,0.6-0.5,1.1-0.5c0.2,0,0.4,0,0.6,0.1c0.2,0.1,0.3,0.2,0.4,0.3c0.1,0.1,0.1,0.3,0.2,0.4
		c0,0.1,0,0.3,0,0.5v2h-0.6v-2c0-0.2,0-0.4-0.1-0.5c0-0.1-0.1-0.2-0.2-0.3c-0.1-0.1-0.2-0.1-0.4-0.1c-0.2,0-0.4,0.1-0.6,0.2
		c-0.2,0.2-0.3,0.4-0.3,0.9v1.8H2114.4z"/>
</g>
<g>
	<path d="M2118.2,7.8V7.1h0.6v0.6H2118.2z M2118.2,11.7V8.4h0.6v3.3H2118.2z"/>
</g>
<g>
	<path d="M2119.7,11.7V8.4h0.5v0.5c0.1-0.2,0.2-0.3,0.4-0.4s0.4-0.1,0.6-0.1c0.2,0,0.4,0.1,0.6,0.2c0.2,0.1,0.3,0.2,0.3,0.4
		c0.3-0.4,0.6-0.6,1-0.6c0.3,0,0.6,0.1,0.8,0.3c0.2,0.2,0.3,0.5,0.3,0.8v2.3h-0.6V9.6c0-0.2,0-0.4-0.1-0.5c0-0.1-0.1-0.2-0.2-0.2
		c-0.1-0.1-0.2-0.1-0.3-0.1c-0.2,0-0.4,0.1-0.6,0.2s-0.2,0.4-0.2,0.7v1.9h-0.6V9.5c0-0.2,0-0.4-0.1-0.6s-0.2-0.2-0.4-0.2
		c-0.2,0-0.3,0-0.4,0.1c-0.1,0.1-0.2,0.2-0.3,0.4c-0.1,0.2-0.1,0.4-0.1,0.7v1.7H2119.7z"/>
</g>
<g>
	<path d="M2124.7,10c0-0.6,0.2-1.1,0.5-1.4c0.3-0.2,0.6-0.4,1-0.4c0.5,0,0.8,0.1,1.1,0.4c0.3,0.3,0.4,0.7,0.4,1.2
		c0,0.4-0.1,0.8-0.2,1c-0.1,0.2-0.3,0.4-0.6,0.6c-0.2,0.1-0.5,0.2-0.8,0.2c-0.5,0-0.8-0.1-1.1-0.4C2124.9,11,2124.7,10.6,2124.7,10z
		 M2125.3,10c0,0.4,0.1,0.7,0.3,1s0.4,0.3,0.7,0.3c0.3,0,0.5-0.1,0.7-0.3c0.2-0.2,0.3-0.5,0.3-1c0-0.4-0.1-0.7-0.3-0.9
		s-0.4-0.3-0.7-0.3c-0.3,0-0.5,0.1-0.7,0.3S2125.3,9.6,2125.3,10z"/>
</g>
</svg>
