<?xml version="1.0" encoding="utf-8"?>
<!-- Generator: Adobe Illustrator 16.0.0, SVG Export Plug-In . SVG Version: 6.00 Build 0)  -->
<!DOCTYPE svg PUBLIC "-//W3C//DTD SVG 1.1//EN" "http://www.w3.org/Graphics/SVG/1.1/DTD/svg11.dtd">
<svg version="1.1" id="Layer_1" xmlns="http://www.w3.org/2000/svg" xmlns:xlink="http://www.w3.org/1999/xlink" x="0px" y="0px"
	 width="2880px" height="56px" viewBox="928 349 2880 56" enable-background="new 928 349 2880 56" xml:space="preserve">
<g id="Music">
	<rect x="928" y="349" fill="#FFFFFF" width="2880" height="72"/>
	<g enable-background="new    ">
		<path d="M965.8,389.5c-4-1.9-4.6-4.3-4.8-6.8c-0.2-2.7,1.5-5.4,3.1-6.9c0.9-0.9,1.9-1.7,3.1-2.6c0-0.7-0.2-0.9-0.3-1.9
			c0-0.4-0.3-2.3,0.1-4.5c0.2-1.3,1.9-4.3,3-4.3c0.9,0,2.2,3.4,2.2,5.2c0.1,2.7-0.6,3.9-1.4,5.3c-0.4,0.7-0.8,1.2-1.3,1.7
			c-0.5,0.6-1,0.9-1.5,1.3c0,0,0.6,3.5,0.6,3.7c1.2-0.2,2.7,0.3,3.3,0.7c1.4,1,1.9,2.4,2,3.8c0.2,2.2-1,4.5-3.6,5.5
			c0,0,0.4,2.8,0.5,3.3c0.2,1.5,0.2,2.5-0.2,3.1c-0.6,1-1.5,2-3.2,2.1c-1.3,0.1-4-0.6-4.1-2.7c-0.1-1.2,0.5-2.6,2-2.7
			c0.9-0.1,2,0.7,2.1,1.8c0.1,0.9-0.5,1.9-2.1,2.4c0.2,0.3,1,0.7,2.1,0.7c1.1,0,2.3-0.7,2.8-1.7c0.3-0.7,0.3-1.8,0.2-2.9
			c-0.1-0.4-0.5-3.3-0.5-3.3C968.5,390.1,966.6,389.9,965.8,389.5z M966.1,385c0,0.9,0.8,2,1.5,2.4c-0.1,0.1-0.2,0.2-0.2,0.2
			c-0.8-0.4-1.5-1-1.6-1.2c-0.6-0.7-0.8-1.2-0.9-2.3c-0.1-1.1,0.5-2.5,1.8-3.5c0.7-0.5,1-0.6,1.6-0.7l-0.6-3.5
			c-0.6,0.3-3.1,2.3-4.1,3.9c-0.9,1.4-1.5,2.6-1.4,4c0.2,3.2,3.7,5.8,7.5,4.9c0,0-1.1-6.8-1.1-6.8
			C966.6,382.5,966.1,384.1,966.1,385z M967.7,372.8c1.7-1.3,3.9-3.8,3.8-5.7c0-0.6-0.3-1.7-1.2-1.7
			C968.4,365.5,967.3,369.7,967.7,372.8z M970.3,389c2.2-0.7,2.3-2.6,2.2-3.8c-0.1-0.9-0.5-3.1-3.3-2.9L970.3,389z"/>
	</g>
	<g enable-background="new    ">
		<path d="M986.2,387.1v1.3c0,0.8,0.9,0.7,0.9,0.7v0.5h-4.2v-0.5c0,0,0.9,0,0.9-0.7v-1.3h-3.6l-0.3-0.4c2.3-3.1,2.3-3.7,2.9-6.5h3.3
			c-0.8,1.5-3.4,4.2-5.3,6.4h3v-2.4l2.3-2.6v4.9h1.4v0.5H986.2z"/>
	</g>
	<g enable-background="new    ">
		<path d="M986.2,377.5v1.3c0,0.8,0.9,0.7,0.9,0.7v0.5h-4.2v-0.5c0,0,0.9,0,0.9-0.7v-1.3h-3.6l-0.3-0.4c2.3-3.1,2.3-3.7,2.9-6.5h3.3
			c-0.8,1.5-3.4,4.2-5.3,6.4h3v-2.4l2.3-2.6v4.9h1.4v0.5H986.2z"/>
	</g>
	<line fill="none" stroke="#000000" stroke-width="0.459" x1="1011.8" y1="370.6" x2="1011.8" y2="389.8"/>
	<line fill="none" stroke="#000000" stroke-width="0.459" x1="1098" y1="370.6" x2="1098" y2="389.8"/>
	<line fill="none" stroke="#000000" stroke-width="0.459" x1="1184.2" y1="370.6" x2="1184.2" y2="389.8"/>
	<line fill="none" stroke="#000000" stroke-width="0.459" x1="1270.4" y1="370.6" x2="1270.4" y2="389.8"/>
	<line fill="none" stroke="#000000" stroke-width="0.459" x1="1356.6" y1="370.6" x2="1356.6" y2="389.8"/>
	<line fill="none" stroke="#000000" stroke-width="0.459" x1="1442.8" y1="370.6" x2="1442.8" y2="389.8"/>
	<line fill="none" stroke="#000000" stroke-width="0.459" x1="1529" y1="370.6" x2="1529" y2="389.8"/>
	<line fill="none" stroke="#000000" stroke-width="0.459" x1="1615.2" y1="370.6" x2="1615.2" y2="389.8"/>
	<line fill="none" stroke="#000000" stroke-width="0.459" x1="1701.4" y1="370.6" x2="1701.4" y2="389.8"/>
	<line fill="none" stroke="#000000" stroke-width="0.459" x1="1787.6" y1="370.6" x2="1787.6" y2="389.8"/>
	<line fill="none" stroke="#000000" stroke-width="0.459" x1="1873.8" y1="370.6" x2="1873.8" y2="389.8"/>
	<line fill="none" stroke="#000000" stroke-width="0.459" x1="1960" y1="370.6" x2="1960" y2="389.8"/>
	<line fill="none" stroke="#000000" stroke-width="0.459" x1="2046.2" y1="370.6" x2="2046.2" y2="389.8"/>
	<line fill="none" stroke="#000000" stroke-width="0.459" x1="2132.4" y1="370.6" x2="2132.4" y2="389.8"/>
	<line fill="none" stroke="#000000" stroke-width="0.459" x1="2218.6" y1="370.6" x2="2218.6" y2="389.8"/>
	<line fill="none" stroke="#000000" stroke-width="0.459" x1="2304.8" y1="370.6" x2="2304.8" y2="389.8"/>
	<line fill="none" stroke="#000000" stroke-width="0.459" x1="2391" y1="370.6" x2="2391" y2="389.8"/>
	<line fill="none" stroke="#000000" stroke-width="0.459" x1="2477.2" y1="370.6" x2="2477.2" y2="389.8"/>
	<line fill="none" stroke="#000000" stroke-width="0.459" x1="2563.4" y1="370.6" x2="2563.4" y2="389.8"/>
	<line fill="none" stroke="#000000" stroke-width="0.459" x1="2649.6" y1="370.6" x2="2649.6" y2="389.8"/>
	<line fill="none" stroke="#000000" stroke-width="0.459" x1="2735.8" y1="370.6" x2="2735.8" y2="389.8"/>
	<line fill="none" stroke="#000000" stroke-width="0.459" x1="2822" y1="370.6" x2="2822" y2="389.8"/>
	<line fill="none" stroke="#000000" stroke-width="0.459" x1="2908.2" y1="370.6" x2="2908.2" y2="389.8"/>
	<line fill="none" stroke="#000000" stroke-width="0.459" x1="2994.4" y1="370.6" x2="2994.4" y2="389.8"/>
	<line fill="none" stroke="#000000" stroke-width="0.459" x1="3080.6" y1="370.6" x2="3080.6" y2="389.8"/>
	<line fill="none" stroke="#000000" stroke-width="0.459" x1="3083" y1="370.6" x2="3083" y2="389.8"/>
	<line fill="none" stroke="#000000" stroke-width="0.459" x1="3169.2" y1="370.6" x2="3169.2" y2="389.8"/>
	<line fill="none" stroke="#000000" stroke-width="0.459" x1="3255.4" y1="370.6" x2="3255.4" y2="389.8"/>
	<line fill="none" stroke="#000000" stroke-width="0.459" x1="3341.6" y1="370.6" x2="3341.6" y2="389.8"/>
	<line fill="none" stroke="#000000" stroke-width="0.459" x1="3427.8" y1="370.6" x2="3427.8" y2="389.8"/>
	<line fill="none" stroke="#000000" stroke-width="0.459" x1="3514" y1="370.6" x2="3514" y2="389.8"/>
	<line fill="none" stroke="#000000" stroke-width="0.459" x1="3600.2" y1="370.6" x2="3600.2" y2="389.8"/>
	<line fill="none" stroke="#000000" stroke-width="0.459" x1="3686.4" y1="370.6" x2="3686.4" y2="389.8"/>
	<line fill="none" stroke="#000000" stroke-width="2.419" x1="3778.6" y1="370.6" x2="3778.6" y2="389.8"/>
	<line fill="none" stroke="#000000" stroke-width="0.459" x1="3774.7" y1="370.6" x2="3774.7" y2="389.8"/>
	<line fill="none" stroke="#000000" stroke-width="0.459" x1="956.2" y1="370.6" x2="3779.8" y2="370.6"/>
	<line fill="none" stroke="#000000" stroke-width="0.459" x1="956.2" y1="375.4" x2="3779.8" y2="375.4"/>
	<line fill="none" stroke="#000000" stroke-width="0.459" x1="956.2" y1="380.2" x2="3779.8" y2="380.2"/>
	<line fill="none" stroke="#000000" stroke-width="0.459" x1="956.2" y1="385" x2="3779.8" y2="385"/>
	<line fill="none" stroke="#000000" stroke-width="0.459" x1="956.2" y1="389.8" x2="3779.8" y2="389.8"/>
	<g enable-background="new    ">
		<path d="M996.3,382.9c1.4,0,2.2,1,1.8,2.2c-0.4,1.2-1.9,2.2-3.4,2.2c-1.4,0-2.2-1-1.7-2.2C993.4,383.8,994.9,382.9,996.3,382.9z"
			/>
	</g>
	<line fill="none" stroke="#000000" stroke-width="0.459" x1="997.6" y1="384.2" x2="997.6" y2="369.4"/>
	<g enable-background="new    ">
		<path d="M1004.7,382.9c1.4,0,2.2,1,1.8,2.2c-0.4,1.2-1.9,2.2-3.4,2.2c-1.4,0-2.2-1-1.7-2.2
			C1001.8,383.8,1003.3,382.9,1004.7,382.9z"/>
	</g>
	<line fill="none" stroke="#000000" stroke-width="0.459" x1="1006" y1="384.2" x2="1006" y2="369.4"/>
	<path d="M997.3,368.2h8.9v2.4h-8.9V368.2z"/>
	<g enable-background="new    ">
		<path d="M1026,381.7c0.6,0,1,0.4,1,1c0,0.5-0.4,1-1,1s-1-0.4-1-1C1025,382.1,1025.4,381.7,1026,381.7z"/>
	</g>
	<line fill="none" stroke="#000000" stroke-width="0.459" x1="1022.6" y1="384.2" x2="1022.6" y2="368.2"/>
	<g enable-background="new    ">
		<path d="M1022.1,385.1c-0.3,0.9-1,1.5-1.6,1.8c-0.5,0.3-1.2,0.4-2,0.3c-0.5,0-1.3-0.2-1.6-0.7c-0.3-0.6-0.1-1.2,0-1.6
			c0.3-0.8,1-1.4,1.5-1.7c0.5-0.3,1.3-0.5,2.2-0.4c0.4,0,1.1,0.1,1.5,0.7C1022.4,384,1022.2,384.8,1022.1,385.1z M1020.1,383.8
			c-0.4,0.2-0.7,0.4-1,0.5c-0.3,0.2-0.6,0.4-1,0.6c-0.5,0.3-1.1,0.9-0.8,1.4c0.3,0.6,1.1,0.3,1.6,0c0.4-0.2,0.7-0.4,1-0.5
			c0.3-0.2,0.6-0.4,1-0.6c0.5-0.3,1.1-0.9,0.8-1.4C1021.5,383.2,1020.7,383.5,1020.1,383.8z"/>
	</g>
	<g enable-background="new    ">
		<path d="M1071.7,382.9c1.4,0,2.2,1,1.8,2.2c-0.4,1.2-1.9,2.2-3.4,2.2c-1.4,0-2.2-1-1.7-2.2
			C1068.8,383.8,1070.3,382.9,1071.7,382.9z"/>
	</g>
	<line fill="none" stroke="#000000" stroke-width="0.459" x1="1073" y1="384.2" x2="1073" y2="369.4"/>
	<g enable-background="new    ">
		<path d="M1086.5,382.9c1.4,0,2.2,1,1.8,2.2c-0.4,1.2-1.9,2.2-3.4,2.2c-1.4,0-2.2-1-1.7-2.2
			C1083.6,383.8,1085.1,382.9,1086.5,382.9z"/>
	</g>
	<line fill="none" stroke="#000000" stroke-width="0.459" x1="1087.8" y1="384.2" x2="1087.8" y2="369.4"/>
	<path d="M1072.7,368.2h15.3v2.4h-15.3V368.2z"/>
	<g enable-background="new    ">
		<path d="M1012.8,357.6l2.2-5.7h0.8l2.3,5.7h-0.9l-0.7-1.7h-2.4l-0.6,1.7H1012.8z M1014.4,355.2h1.9l-0.6-1.6
			c-0.2-0.5-0.3-0.9-0.4-1.2c-0.1,0.4-0.2,0.7-0.3,1.1L1014.4,355.2z"/>
	</g>
	<g enable-background="new    ">
		<path d="M1021.5,363.8l0.8,0.2c-0.2,0.6-0.4,1.1-0.9,1.4s-0.9,0.5-1.5,0.5c-0.6,0-1.1-0.1-1.5-0.4s-0.7-0.6-0.9-1.1
			s-0.3-1-0.3-1.5c0-0.6,0.1-1.1,0.3-1.6s0.6-0.8,1-1s0.9-0.3,1.4-0.3c0.6,0,1.1,0.1,1.4,0.4s0.7,0.7,0.8,1.2l-0.7,0.2
			c-0.1-0.4-0.3-0.7-0.6-0.9s-0.6-0.3-1-0.3c-0.4,0-0.8,0.1-1.1,0.3s-0.5,0.5-0.6,0.8s-0.2,0.7-0.2,1.1c0,0.5,0.1,0.9,0.2,1.3
			s0.4,0.6,0.7,0.8s0.6,0.3,1,0.3c0.4,0,0.8-0.1,1.1-0.4S1021.4,364.3,1021.5,363.8z"/>
	</g>
	<g enable-background="new    ">
		<path d="M1106.5,387.7c1.4,0,2.2,1,1.8,2.2c-0.4,1.2-1.9,2.2-3.4,2.2c-1.4,0-2.2-1-1.7-2.2
			C1103.6,388.6,1105.1,387.7,1106.5,387.7z"/>
	</g>
	<line fill="none" stroke="#000000" stroke-width="0.459" x1="1107.8" y1="389" x2="1107.8" y2="371.8"/>
	<g enable-background="new    ">
		<path d="M1119.1,382.9c1.4,0,2.2,1,1.8,2.2c-0.4,1.2-1.9,2.2-3.4,2.2c-1.4,0-2.2-1-1.7-2.2
			C1116.2,383.8,1117.7,382.9,1119.1,382.9z"/>
	</g>
	<line fill="none" stroke="#000000" stroke-width="0.459" x1="1120.4" y1="384.2" x2="1120.4" y2="369.4"/>
	<path d="M1107.5,370.6l13.1-2.4v2.4l-13.1,2.4V370.6z"/>
	<line fill="none" stroke="#000000" stroke-width="0.459" x1="1131.8" y1="384.2" x2="1131.8" y2="368.2"/>
	<g enable-background="new    ">
		<path d="M1131.3,385.1c-0.3,0.9-1,1.5-1.6,1.8c-0.5,0.3-1.2,0.4-2,0.3c-0.5,0-1.3-0.2-1.6-0.7c-0.3-0.6-0.1-1.2,0-1.6
			c0.3-0.8,1-1.4,1.5-1.7c0.5-0.3,1.3-0.5,2.2-0.4c0.4,0,1.1,0.1,1.5,0.7C1131.6,384,1131.4,384.8,1131.3,385.1z M1129.3,383.8
			c-0.4,0.2-0.7,0.4-1,0.5c-0.3,0.2-0.6,0.4-1,0.6c-0.5,0.3-1.1,0.9-0.8,1.4c0.3,0.6,1.1,0.3,1.6,0c0.4-0.2,0.7-0.4,1-0.5
			c0.3-0.2,0.6-0.4,1-0.6c0.5-0.3,1.1-0.9,0.8-1.4C1130.7,383.2,1129.9,383.5,1129.3,383.8z"/>
	</g>
	<g enable-background="new    ">
		<path d="M1162.5,382.9c1.4,0,2.2,1,1.8,2.2c-0.4,1.2-1.9,2.2-3.4,2.2c-1.4,0-2.2-1-1.7-2.2
			C1159.6,383.8,1161.1,382.9,1162.5,382.9z"/>
	</g>
	<line fill="none" stroke="#000000" stroke-width="0.459" x1="1163.8" y1="384.2" x2="1163.8" y2="369.4"/>
	<g enable-background="new    ">
		<path d="M1174.9,382.9c1.4,0,2.2,1,1.8,2.2c-0.4,1.2-1.9,2.2-3.4,2.2c-1.4,0-2.2-1-1.7-2.2C1172,383.8,1173.5,382.9,1174.9,382.9z
			"/>
	</g>
	<line fill="none" stroke="#000000" stroke-width="0.459" x1="1176.2" y1="384.2" x2="1176.2" y2="369.4"/>
	<path d="M1163.5,368.2h12.9v2.4h-12.9V368.2z"/>
	<g enable-background="new    ">
		<path d="M1198.4,381.7c0.6,0,1,0.4,1,1c0,0.5-0.4,1-1,1s-1-0.4-1-1C1197.4,382.1,1197.8,381.7,1198.4,381.7z"/>
	</g>
	<line fill="none" stroke="#000000" stroke-width="0.459" x1="1195" y1="384.2" x2="1195" y2="368.2"/>
	<g enable-background="new    ">
		<path d="M1194.5,385.1c-0.3,0.9-1,1.5-1.6,1.8c-0.5,0.3-1.2,0.4-2,0.3c-0.5,0-1.3-0.2-1.6-0.7c-0.3-0.6-0.1-1.2,0-1.6
			c0.3-0.8,1-1.4,1.5-1.7c0.5-0.3,1.3-0.5,2.2-0.4c0.4,0,1.1,0.1,1.5,0.7C1194.8,384,1194.6,384.8,1194.5,385.1z M1192.5,383.8
			c-0.4,0.2-0.7,0.4-1,0.5c-0.3,0.2-0.6,0.4-1,0.6c-0.5,0.3-1.1,0.9-0.8,1.4c0.3,0.6,1.1,0.3,1.6,0c0.4-0.2,0.7-0.4,1-0.5
			c0.3-0.2,0.6-0.4,1-0.6c0.5-0.3,1.1-0.9,0.8-1.4C1193.9,383.2,1193.1,383.5,1192.5,383.8z"/>
	</g>
	<g enable-background="new    ">
		<path d="M1244.1,382.9c1.4,0,2.2,1,1.8,2.2c-0.4,1.2-1.9,2.2-3.4,2.2c-1.4,0-2.2-1-1.7-2.2
			C1241.2,383.8,1242.7,382.9,1244.1,382.9z"/>
	</g>
	<line fill="none" stroke="#000000" stroke-width="0.459" x1="1245.4" y1="384.2" x2="1245.4" y2="369.4"/>
	<g enable-background="new    ">
		<path d="M1258.9,382.9c1.4,0,2.2,1,1.8,2.2c-0.4,1.2-1.9,2.2-3.4,2.2c-1.4,0-2.2-1-1.7-2.2C1256,383.8,1257.5,382.9,1258.9,382.9z
			"/>
	</g>
	<line fill="none" stroke="#000000" stroke-width="0.459" x1="1260.2" y1="384.2" x2="1260.2" y2="369.4"/>
	<path d="M1245.1,368.2h15.3v2.4h-15.3V368.2z"/>
	<g enable-background="new    ">
		<path d="M1192.5,363.6v-0.7l2.4,0v2.1c-0.4,0.3-0.8,0.5-1.2,0.7s-0.8,0.2-1.2,0.2c-0.6,0-1.1-0.1-1.5-0.4s-0.8-0.6-1-1
			s-0.4-1-0.4-1.5c0-0.6,0.1-1.1,0.3-1.6s0.6-0.8,1-1.1s0.9-0.4,1.5-0.4c0.4,0,0.8,0.1,1.1,0.2s0.6,0.3,0.8,0.6s0.3,0.6,0.4,0.9
			l-0.7,0.2c-0.1-0.3-0.2-0.5-0.3-0.7s-0.3-0.3-0.5-0.4s-0.5-0.2-0.8-0.2c-0.3,0-0.6,0.1-0.9,0.2s-0.5,0.2-0.6,0.4s-0.3,0.4-0.4,0.6
			c-0.1,0.4-0.2,0.7-0.2,1.2c0,0.5,0.1,0.9,0.3,1.3s0.4,0.6,0.8,0.8s0.7,0.2,1.1,0.2c0.3,0,0.6-0.1,1-0.2s0.5-0.3,0.7-0.4v-1.1
			H1192.5z"/>
	</g>
	<g enable-background="new    ">
		<path d="M1278.9,385.3c1.4,0,2.2,1,1.8,2.2c-0.4,1.2-1.9,2.2-3.4,2.2c-1.4,0-2.2-1-1.7-2.2C1276,386.2,1277.5,385.3,1278.9,385.3z
			"/>
	</g>
	<line fill="none" stroke="#000000" stroke-width="0.459" x1="1280.2" y1="386.6" x2="1280.2" y2="371.8"/>
	<g enable-background="new    ">
		<path d="M1291.1,382.9c1.4,0,2.2,1,1.8,2.2c-0.4,1.2-1.9,2.2-3.4,2.2c-1.4,0-2.2-1-1.7-2.2
			C1288.2,383.8,1289.7,382.9,1291.1,382.9z"/>
	</g>
	<line fill="none" stroke="#000000" stroke-width="0.459" x1="1292.4" y1="384.2" x2="1292.4" y2="369.4"/>
	<path d="M1279.9,370.6l12.7-2.4v2.4l-12.7,2.4V370.6z"/>
	<line fill="none" stroke="#000000" stroke-width="0.459" x1="1305" y1="384.2" x2="1305" y2="368.2"/>
	<g enable-background="new    ">
		<path d="M1304.5,385.1c-0.3,0.9-1,1.5-1.6,1.8c-0.5,0.3-1.2,0.4-2,0.3c-0.5,0-1.3-0.2-1.6-0.7c-0.3-0.6-0.1-1.2,0-1.6
			c0.3-0.8,1-1.4,1.5-1.7c0.5-0.3,1.3-0.5,2.2-0.4c0.4,0,1.1,0.1,1.5,0.7C1304.8,384,1304.6,384.8,1304.5,385.1z M1302.5,383.8
			c-0.4,0.2-0.7,0.4-1,0.5c-0.3,0.2-0.6,0.4-1,0.6c-0.5,0.3-1.1,0.9-0.8,1.4c0.3,0.6,1.1,0.3,1.6,0c0.4-0.2,0.7-0.4,1-0.5
			c0.3-0.2,0.6-0.4,1-0.6c0.5-0.3,1.1-0.9,0.8-1.4C1303.9,383.2,1303.1,383.5,1302.5,383.8z"/>
	</g>
	<g enable-background="new    ">
		<path d="M1333.1,378.2c0.4,0,0.7-0.1,1.1-0.5c0.3-0.3,0.5-0.6,0.8-0.9l0.3,0.2l-2.1,8h-0.8c0,0,0.7-2.3,1.1-3.2
			c0.8-2.2,1-3.6,1-3.6c-0.5,0.4-1.6,1.2-2.5,1.2c-2,0.1-2.5-2.8-0.4-3.3C1333,375.8,1333.4,377.4,1333.1,378.2z"/>
	</g>
	<g enable-background="new    ">
		<path d="M1348.8,370.3c0.6,0.9,1.4,1.9,2.1,3.1c0.6,1.1,1.2,2.7,1.2,3.5c0.1,0.8,0.2,1.6,0.2,2.3c0,1.2-0.2,2.2-0.6,3.3l-0.2,0
			c0.3-0.9,0.5-2.2,0.5-3.3c0-0.9-0.2-2.1-0.5-3.1c-0.6-1.7-1.5-2.7-2.1-3.1c-0.8-0.6-1.8-0.6-1.8-0.6h-0.3v-5h0.3
			C1347.7,368.4,1348.2,369.5,1348.8,370.3z"/>
	</g>
	<line fill="none" stroke="#000000" stroke-width="0.459" x1="1347.2" y1="384.2" x2="1347.2" y2="368.2"/>
	<g enable-background="new    ">
		<path d="M1345.9,382.9c1.4,0,2.2,1,1.8,2.2c-0.4,1.2-1.9,2.2-3.4,2.2c-1.4,0-2.2-1-1.7-2.2C1343,383.8,1344.5,382.9,1345.9,382.9z
			"/>
	</g>
	<g enable-background="new    ">
		<path d="M1365.1,378.1c1.4,0,2.2,1,1.8,2.2c-0.4,1.2-1.9,2.2-3.4,2.2c-1.4,0-2.2-1-1.7-2.2C1362.2,379,1363.7,378.1,1365.1,378.1z
			"/>
	</g>
	<line fill="none" stroke="#000000" stroke-width="0.459" x1="1366.4" y1="379.4" x2="1366.4" y2="364.6"/>
	<g enable-background="new    ">
		<path d="M1377.7,378.1c1.4,0,2.2,1,1.8,2.2c-0.4,1.2-1.9,2.2-3.4,2.2c-1.4,0-2.2-1-1.7-2.2C1374.8,379,1376.3,378.1,1377.7,378.1z
			"/>
	</g>
	<line fill="none" stroke="#000000" stroke-width="0.459" x1="1379" y1="379.4" x2="1379" y2="364.6"/>
	<g enable-background="new    ">
		<path d="M1390.1,378.1c1.4,0,2.2,1,1.8,2.2c-0.4,1.2-1.9,2.2-3.4,2.2c-1.4,0-2.2-1-1.7-2.2C1387.2,379,1388.7,378.1,1390.1,378.1z
			"/>
	</g>
	<line fill="none" stroke="#000000" stroke-width="0.459" x1="1391.4" y1="379.4" x2="1391.4" y2="364.6"/>
	<g enable-background="new    ">
		<path d="M1402.7,380.5c1.4,0,2.2,1,1.8,2.2c-0.4,1.2-1.9,2.2-3.4,2.2c-1.4,0-2.2-1-1.7-2.2
			C1399.8,381.4,1401.3,380.5,1402.7,380.5z"/>
	</g>
	<line fill="none" stroke="#000000" stroke-width="0.459" x1="1404" y1="381.8" x2="1404" y2="364.6"/>
	<path d="M1366.1,363.4h38.1v2.4h-38.1V363.4z"/>
	<line fill="none" stroke="#000000" stroke-width="0.459" x1="1415.4" y1="381.8" x2="1415.4" y2="365.8"/>
	<g enable-background="new    ">
		<path d="M1414.9,382.7c-0.3,0.9-1,1.5-1.6,1.8c-0.5,0.3-1.2,0.4-2,0.3c-0.5,0-1.3-0.2-1.6-0.7c-0.3-0.6-0.1-1.2,0-1.6
			c0.3-0.8,1-1.4,1.5-1.7c0.5-0.3,1.3-0.5,2.2-0.4c0.4,0,1.1,0.1,1.5,0.7C1415.2,381.6,1415,382.4,1414.9,382.7z M1412.9,381.4
			c-0.4,0.2-0.7,0.4-1,0.5c-0.3,0.2-0.6,0.4-1,0.6c-0.5,0.3-1.1,0.9-0.8,1.4c0.3,0.6,1.1,0.3,1.6,0c0.4-0.2,0.7-0.4,1-0.5
			c0.3-0.2,0.6-0.4,1-0.6c0.5-0.3,1.1-0.9,0.8-1.4C1414.3,380.8,1413.5,381.1,1412.9,381.4z"/>
	</g>
	<g enable-background="new    ">
		<path d="M1451.3,382.9c1.4,0,2.2,1,1.8,2.2c-0.4,1.2-1.9,2.2-3.4,2.2c-1.4,0-2.2-1-1.7-2.2
			C1448.4,383.8,1449.9,382.9,1451.3,382.9z"/>
	</g>
	<line fill="none" stroke="#000000" stroke-width="0.459" x1="1452.6" y1="384.2" x2="1452.6" y2="369.4"/>
	<g enable-background="new    ">
		<path d="M1463.9,382.9c1.4,0,2.2,1,1.8,2.2c-0.4,1.2-1.9,2.2-3.4,2.2c-1.4,0-2.2-1-1.7-2.2C1461,383.8,1462.5,382.9,1463.9,382.9z
			"/>
	</g>
	<line fill="none" stroke="#000000" stroke-width="0.459" x1="1465.2" y1="384.2" x2="1465.2" y2="369.4"/>
	<g enable-background="new    ">
		<path d="M1476.3,382.9c1.4,0,2.2,1,1.8,2.2c-0.4,1.2-1.9,2.2-3.4,2.2c-1.4,0-2.2-1-1.7-2.2
			C1473.4,383.8,1474.9,382.9,1476.3,382.9z"/>
	</g>
	<line fill="none" stroke="#000000" stroke-width="0.459" x1="1477.6" y1="384.2" x2="1477.6" y2="369.4"/>
	<g enable-background="new    ">
		<path d="M1488.9,385.3c1.4,0,2.2,1,1.8,2.2c-0.4,1.2-1.9,2.2-3.4,2.2c-1.4,0-2.2-1-1.7-2.2C1486,386.2,1487.5,385.3,1488.9,385.3z
			"/>
	</g>
	<line fill="none" stroke="#000000" stroke-width="0.459" x1="1490.2" y1="386.6" x2="1490.2" y2="369.4"/>
	<path d="M1452.3,368.2h38.1v2.4h-38.1V368.2z"/>
	<line fill="none" stroke="#000000" stroke-width="0.459" x1="1501.8" y1="386.6" x2="1501.8" y2="370.6"/>
	<g enable-background="new    ">
		<path d="M1501.3,387.5c-0.3,0.9-1,1.5-1.6,1.8c-0.5,0.3-1.2,0.4-2,0.3c-0.5,0-1.3-0.2-1.6-0.7c-0.3-0.6-0.1-1.2,0-1.6
			c0.3-0.8,1-1.4,1.5-1.7c0.5-0.3,1.3-0.5,2.2-0.4c0.4,0,1.1,0.1,1.5,0.7C1501.6,386.4,1501.4,387.2,1501.3,387.5z M1499.3,386.2
			c-0.4,0.2-0.7,0.4-1,0.5c-0.3,0.2-0.6,0.4-1,0.6c-0.5,0.3-1.1,0.9-0.8,1.4c0.3,0.6,1.1,0.3,1.6,0c0.4-0.2,0.7-0.4,1-0.5
			c0.3-0.2,0.6-0.4,1-0.6c0.5-0.3,1.1-0.9,0.8-1.4C1500.7,385.6,1499.9,385.9,1499.3,386.2z"/>
	</g>
	<g enable-background="new    ">
		<path d="M1537.5,387.7c1.4,0,2.2,1,1.8,2.2c-0.4,1.2-1.9,2.2-3.4,2.2c-1.4,0-2.2-1-1.7-2.2
			C1534.6,388.6,1536.1,387.7,1537.5,387.7z"/>
	</g>
	<line fill="none" stroke="#000000" stroke-width="0.459" x1="1538.8" y1="389" x2="1538.8" y2="374.2"/>
	<g enable-background="new    ">
		<path d="M1547.7,387.7c1.4,0,2.2,1,1.8,2.2c-0.4,1.2-1.9,2.2-3.4,2.2c-1.4,0-2.2-1-1.7-2.2
			C1544.8,388.6,1546.3,387.7,1547.7,387.7z"/>
	</g>
	<line fill="none" stroke="#000000" stroke-width="0.459" x1="1549" y1="389" x2="1549" y2="374.2"/>
	<g enable-background="new    ">
		<path d="M1557.7,387.7c1.4,0,2.2,1,1.8,2.2c-0.4,1.2-1.9,2.2-3.4,2.2c-1.4,0-2.2-1-1.7-2.2
			C1554.8,388.6,1556.3,387.7,1557.7,387.7z"/>
	</g>
	<line fill="none" stroke="#000000" stroke-width="0.459" x1="1559" y1="389" x2="1559" y2="374.2"/>
	<g enable-background="new    ">
		<path d="M1567.9,387.7c1.4,0,2.2,1,1.8,2.2c-0.4,1.2-1.9,2.2-3.4,2.2c-1.4,0-2.2-1-1.7-2.2C1565,388.6,1566.5,387.7,1567.9,387.7z
			"/>
	</g>
	<line fill="none" stroke="#000000" stroke-width="0.459" x1="1569.2" y1="389" x2="1569.2" y2="374.2"/>
	<path d="M1538.5,373h30.9v2.4h-30.9V373z"/>
	<g enable-background="new    ">
		<path d="M1577.9,390.1c1.4,0,2.2,1,1.8,2.2c-0.4,1.2-1.9,2.2-3.4,2.2c-1.4,0-2.2-1-1.7-2.2C1575,391,1576.5,390.1,1577.9,390.1z"
			/>
	</g>
	<line fill="none" stroke="#000000" stroke-width="0.459" x1="1579.2" y1="391.4" x2="1579.2" y2="376.6"/>
	<g enable-background="new    ">
		<path d="M1588.1,390.1c1.4,0,2.2,1,1.8,2.2c-0.4,1.2-1.9,2.2-3.4,2.2c-1.4,0-2.2-1-1.7-2.2C1585.2,391,1586.7,390.1,1588.1,390.1z
			"/>
	</g>
	<line fill="none" stroke="#000000" stroke-width="0.459" x1="1589.4" y1="391.4" x2="1589.4" y2="376.6"/>
	<g enable-background="new    ">
		<path d="M1598.3,390.1c1.4,0,2.2,1,1.8,2.2c-0.4,1.2-1.9,2.2-3.4,2.2c-1.4,0-2.2-1-1.7-2.2C1595.4,391,1596.9,390.1,1598.3,390.1z
			"/>
	</g>
	<line fill="none" stroke="#000000" stroke-width="0.459" x1="1599.6" y1="391.4" x2="1599.6" y2="376.6"/>
	<g enable-background="new    ">
		<path d="M1608.3,390.1c1.4,0,2.2,1,1.8,2.2c-0.4,1.2-1.9,2.2-3.4,2.2c-1.4,0-2.2-1-1.7-2.2C1605.4,391,1606.9,390.1,1608.3,390.1z
			"/>
	</g>
	<line fill="none" stroke="#000000" stroke-width="0.459" x1="1609.6" y1="391.4" x2="1609.6" y2="376.6"/>
	<path d="M1578.9,375.4h30.9v2.4h-30.9V375.4z"/>
	<g enable-background="new    ">
		<path d="M1534.6,365.8v-5.7h2c0.4,0,0.8,0,1,0.1c0.3,0.1,0.6,0.2,0.8,0.4c0.3,0.3,0.5,0.6,0.7,1s0.2,0.9,0.2,1.4
			c0,0.4-0.1,0.8-0.2,1.2s-0.2,0.6-0.4,0.8s-0.3,0.4-0.5,0.5s-0.4,0.2-0.7,0.3s-0.6,0.1-0.9,0.1H1534.6z M1535.4,365.1h1.2
			c0.4,0,0.7,0,0.9-0.1s0.4-0.2,0.5-0.3c0.2-0.2,0.3-0.4,0.4-0.7s0.2-0.7,0.2-1.1c0-0.6-0.1-1.1-0.3-1.4s-0.4-0.5-0.7-0.6
			c-0.2-0.1-0.5-0.1-1-0.1h-1.2V365.1z"/>
	</g>
	<g enable-background="new    ">
		<path d="M1577.7,363.6v-0.7l2.4,0v2.1c-0.4,0.3-0.8,0.5-1.2,0.7s-0.8,0.2-1.2,0.2c-0.6,0-1.1-0.1-1.5-0.4s-0.8-0.6-1-1
			s-0.4-1-0.4-1.5c0-0.6,0.1-1.1,0.3-1.6s0.6-0.8,1-1.1s0.9-0.4,1.5-0.4c0.4,0,0.8,0.1,1.1,0.2s0.6,0.3,0.8,0.6s0.3,0.6,0.4,0.9
			l-0.7,0.2c-0.1-0.3-0.2-0.5-0.3-0.7s-0.3-0.3-0.5-0.4s-0.5-0.2-0.8-0.2c-0.3,0-0.6,0.1-0.9,0.2s-0.5,0.2-0.6,0.4s-0.3,0.4-0.4,0.6
			c-0.1,0.4-0.2,0.7-0.2,1.2c0,0.5,0.1,0.9,0.3,1.3s0.4,0.6,0.8,0.8s0.7,0.2,1.1,0.2c0.3,0,0.6-0.1,1-0.2s0.5-0.3,0.7-0.4v-1.1
			H1577.7z"/>
	</g>
	<line fill="none" stroke="#000000" stroke-width="0.459" x1="1627.4" y1="393.8" x2="1627.4" y2="377.8"/>
	<line fill="none" stroke="#000000" stroke-width="0.459" x1="1620.4" y1="394.6" x2="1628.8" y2="394.6"/>
	<g enable-background="new    ">
		<path d="M1626.9,394.7c-0.3,0.9-1,1.5-1.6,1.8c-0.5,0.3-1.2,0.4-2,0.3c-0.5,0-1.3-0.2-1.6-0.7c-0.3-0.6-0.1-1.2,0-1.6
			c0.3-0.8,1-1.4,1.5-1.7c0.5-0.3,1.3-0.5,2.2-0.4c0.4,0,1.1,0.1,1.5,0.7C1627.2,393.6,1627,394.4,1626.9,394.7z M1624.9,393.4
			c-0.4,0.2-0.7,0.4-1,0.5c-0.3,0.2-0.6,0.4-1,0.6c-0.5,0.3-1.1,0.9-0.8,1.4c0.3,0.6,1.1,0.3,1.6,0c0.4-0.2,0.7-0.4,1-0.5
			c0.3-0.2,0.6-0.4,1-0.6c0.5-0.3,1.1-0.9,0.8-1.4C1626.3,392.8,1625.5,393.1,1624.9,393.4z"/>
	</g>
	<g enable-background="new    ">
		<path d="M1658.4,384c-0.8,0-1.5,0.5-1.5,1.4c0,0.6,1,1.5,1,1.5l-0.2,0.2c0,0-2.2-1.3-2.5-2.7c-0.1-0.9,0.5-1.8,1.6-1.9
			c0.4,0,1.2,0.1,1.5,0.2c-1.8-1.8-2.8-3-2.7-3.4c0.4-0.4,1.7-2.1,1.7-3.4c0-0.9-1.3-2.9-1.3-2.9l0.3-0.2l3.5,4.4c0,0-1.7,2-1.7,3.4
			c0,1,0.6,1.8,1.1,2.3c0.2,0.3,1,1.1,1,1.2l0,0.3C1659.3,384.1,1658.8,384,1658.4,384z"/>
	</g>
	<g enable-background="new    ">
		<path d="M1679.1,382.9c1.4,0,2.2,1,1.8,2.2c-0.4,1.2-1.9,2.2-3.4,2.2c-1.4,0-2.2-1-1.7-2.2
			C1676.2,383.8,1677.7,382.9,1679.1,382.9z"/>
	</g>
	<line fill="none" stroke="#000000" stroke-width="0.459" x1="1680.4" y1="384.2" x2="1680.4" y2="369.4"/>
	<g enable-background="new    ">
		<path d="M1691.9,382.9c1.4,0,2.2,1,1.8,2.2c-0.4,1.2-1.9,2.2-3.4,2.2c-1.4,0-2.2-1-1.7-2.2C1689,383.8,1690.5,382.9,1691.9,382.9z
			"/>
	</g>
	<line fill="none" stroke="#000000" stroke-width="0.459" x1="1693.2" y1="384.2" x2="1693.2" y2="369.4"/>
	<path d="M1680.1,368.2h13.3v2.4h-13.3V368.2z"/>
	<g enable-background="new    ">
		<path d="M1673.2,358l2.2-5.7h0.8l2.3,5.7h-0.9l-0.7-1.7h-2.4l-0.6,1.7H1673.2z M1674.8,355.6h1.9l-0.6-1.6
			c-0.2-0.5-0.3-0.9-0.4-1.2c-0.1,0.4-0.2,0.7-0.3,1.1L1674.8,355.6z"/>
	</g>
	<g enable-background="new    ">
		<path d="M1626.3,363.8l0.8,0.2c-0.2,0.6-0.4,1.1-0.9,1.4s-0.9,0.5-1.5,0.5c-0.6,0-1.1-0.1-1.5-0.4s-0.7-0.6-0.9-1.1
			s-0.3-1-0.3-1.5c0-0.6,0.1-1.1,0.3-1.6s0.6-0.8,1-1s0.9-0.3,1.4-0.3c0.6,0,1.1,0.1,1.4,0.4s0.7,0.7,0.8,1.2l-0.7,0.2
			c-0.1-0.4-0.3-0.7-0.6-0.9s-0.6-0.3-1-0.3c-0.4,0-0.8,0.1-1.1,0.3s-0.5,0.5-0.6,0.8s-0.2,0.7-0.2,1.1c0,0.5,0.1,0.9,0.2,1.3
			s0.4,0.6,0.7,0.8s0.6,0.3,1,0.3c0.4,0,0.8-0.1,1.1-0.4S1626.2,364.3,1626.3,363.8z"/>
	</g>
	<g enable-background="new    ">
		<path d="M1715.6,381.7c0.6,0,1,0.4,1,1c0,0.5-0.4,1-1,1s-1-0.4-1-1C1714.6,382.1,1715,381.7,1715.6,381.7z"/>
	</g>
	<line fill="none" stroke="#000000" stroke-width="0.459" x1="1712.2" y1="384.2" x2="1712.2" y2="368.2"/>
	<g enable-background="new    ">
		<path d="M1711.7,385.1c-0.3,0.9-1,1.5-1.6,1.8c-0.5,0.3-1.2,0.4-2,0.3c-0.5,0-1.3-0.2-1.6-0.7c-0.3-0.6-0.1-1.2,0-1.6
			c0.3-0.8,1-1.4,1.5-1.7c0.5-0.3,1.3-0.5,2.2-0.4c0.4,0,1.1,0.1,1.5,0.7C1712,384,1711.8,384.8,1711.7,385.1z M1709.7,383.8
			c-0.4,0.2-0.7,0.4-1,0.5c-0.3,0.2-0.6,0.4-1,0.6c-0.5,0.3-1.1,0.9-0.8,1.4c0.3,0.6,1.1,0.3,1.6,0c0.4-0.2,0.7-0.4,1-0.5
			c0.3-0.2,0.6-0.4,1-0.6c0.5-0.3,1.1-0.9,0.8-1.4C1711.1,383.2,1710.3,383.5,1709.7,383.8z"/>
	</g>
	<g enable-background="new    ">
		<path d="M1761.3,382.9c1.4,0,2.2,1,1.8,2.2c-0.4,1.2-1.9,2.2-3.4,2.2c-1.4,0-2.2-1-1.7-2.2
			C1758.4,383.8,1759.9,382.9,1761.3,382.9z"/>
	</g>
	<line fill="none" stroke="#000000" stroke-width="0.459" x1="1762.6" y1="384.2" x2="1762.6" y2="369.4"/>
	<g enable-background="new    ">
		<path d="M1776.1,382.9c1.4,0,2.2,1,1.8,2.2c-0.4,1.2-1.9,2.2-3.4,2.2c-1.4,0-2.2-1-1.7-2.2
			C1773.2,383.8,1774.7,382.9,1776.1,382.9z"/>
	</g>
	<line fill="none" stroke="#000000" stroke-width="0.459" x1="1777.4" y1="384.2" x2="1777.4" y2="369.4"/>
	<path d="M1762.3,368.2h15.3v2.4h-15.3V368.2z"/>
	<g enable-background="new    ">
		<path d="M1711.1,363.8l0.8,0.2c-0.2,0.6-0.4,1.1-0.9,1.4s-0.9,0.5-1.5,0.5c-0.6,0-1.1-0.1-1.5-0.4s-0.7-0.6-0.9-1.1
			s-0.3-1-0.3-1.5c0-0.6,0.1-1.1,0.3-1.6s0.6-0.8,1-1s0.9-0.3,1.4-0.3c0.6,0,1.1,0.1,1.4,0.4s0.7,0.7,0.8,1.2l-0.7,0.2
			c-0.1-0.4-0.3-0.7-0.6-0.9s-0.6-0.3-1-0.3c-0.4,0-0.8,0.1-1.1,0.3s-0.5,0.5-0.6,0.8s-0.2,0.7-0.2,1.1c0,0.5,0.1,0.9,0.2,1.3
			s0.4,0.6,0.7,0.8s0.6,0.3,1,0.3c0.4,0,0.8-0.1,1.1-0.4S1711,364.3,1711.1,363.8z"/>
	</g>
	<g enable-background="new    ">
		<path d="M1796.1,387.7c1.4,0,2.2,1,1.8,2.2c-0.4,1.2-1.9,2.2-3.4,2.2c-1.4,0-2.2-1-1.7-2.2
			C1793.2,388.6,1794.7,387.7,1796.1,387.7z"/>
	</g>
	<line fill="none" stroke="#000000" stroke-width="0.459" x1="1797.4" y1="389" x2="1797.4" y2="371.8"/>
	<g enable-background="new    ">
		<path d="M1808.7,382.9c1.4,0,2.2,1,1.8,2.2c-0.4,1.2-1.9,2.2-3.4,2.2c-1.4,0-2.2-1-1.7-2.2
			C1805.8,383.8,1807.3,382.9,1808.7,382.9z"/>
	</g>
	<line fill="none" stroke="#000000" stroke-width="0.459" x1="1810" y1="384.2" x2="1810" y2="369.4"/>
	<path d="M1797.1,370.6l13.1-2.4v2.4l-13.1,2.4V370.6z"/>
	<line fill="none" stroke="#000000" stroke-width="0.459" x1="1821.4" y1="384.2" x2="1821.4" y2="368.2"/>
	<g enable-background="new    ">
		<path d="M1820.9,385.1c-0.3,0.9-1,1.5-1.6,1.8c-0.5,0.3-1.2,0.4-2,0.3c-0.5,0-1.3-0.2-1.6-0.7c-0.3-0.6-0.1-1.2,0-1.6
			c0.3-0.8,1-1.4,1.5-1.7c0.5-0.3,1.3-0.5,2.2-0.4c0.4,0,1.1,0.1,1.5,0.7C1821.2,384,1821,384.8,1820.9,385.1z M1818.9,383.8
			c-0.4,0.2-0.7,0.4-1,0.5c-0.3,0.2-0.6,0.4-1,0.6c-0.5,0.3-1.1,0.9-0.8,1.4c0.3,0.6,1.1,0.3,1.6,0c0.4-0.2,0.7-0.4,1-0.5
			c0.3-0.2,0.6-0.4,1-0.6c0.5-0.3,1.1-0.9,0.8-1.4C1820.3,383.2,1819.5,383.5,1818.9,383.8z"/>
	</g>
	<g enable-background="new    ">
		<path d="M1852.1,382.9c1.4,0,2.2,1,1.8,2.2c-0.4,1.2-1.9,2.2-3.4,2.2c-1.4,0-2.2-1-1.7-2.2
			C1849.2,383.8,1850.7,382.9,1852.1,382.9z"/>
	</g>
	<line fill="none" stroke="#000000" stroke-width="0.459" x1="1853.4" y1="384.2" x2="1853.4" y2="369.4"/>
	<g enable-background="new    ">
		<path d="M1864.5,382.9c1.4,0,2.2,1,1.8,2.2c-0.4,1.2-1.9,2.2-3.4,2.2c-1.4,0-2.2-1-1.7-2.2
			C1861.6,383.8,1863.1,382.9,1864.5,382.9z"/>
	</g>
	<line fill="none" stroke="#000000" stroke-width="0.459" x1="1865.8" y1="384.2" x2="1865.8" y2="369.4"/>
	<path d="M1853.1,368.2h12.9v2.4h-12.9V368.2z"/>
	<g enable-background="new    ">
		<path d="M1888,381.7c0.6,0,1,0.4,1,1c0,0.5-0.4,1-1,1s-1-0.4-1-1C1887,382.1,1887.4,381.7,1888,381.7z"/>
	</g>
	<line fill="none" stroke="#000000" stroke-width="0.459" x1="1884.6" y1="384.2" x2="1884.6" y2="368.2"/>
	<g enable-background="new    ">
		<path d="M1884.1,385.1c-0.3,0.9-1,1.5-1.6,1.8c-0.5,0.3-1.2,0.4-2,0.3c-0.5,0-1.3-0.2-1.6-0.7c-0.3-0.6-0.1-1.2,0-1.6
			c0.3-0.8,1-1.4,1.5-1.7c0.5-0.3,1.3-0.5,2.2-0.4c0.4,0,1.1,0.1,1.5,0.7C1884.4,384,1884.2,384.8,1884.1,385.1z M1882.1,383.8
			c-0.4,0.2-0.7,0.4-1,0.5c-0.3,0.2-0.6,0.4-1,0.6c-0.5,0.3-1.1,0.9-0.8,1.4c0.3,0.6,1.1,0.3,1.6,0c0.4-0.2,0.7-0.4,1-0.5
			c0.3-0.2,0.6-0.4,1-0.6c0.5-0.3,1.1-0.9,0.8-1.4C1883.5,383.2,1882.7,383.5,1882.1,383.8z"/>
	</g>
	<g enable-background="new    ">
		<path d="M1933.7,382.9c1.4,0,2.2,1,1.8,2.2c-0.4,1.2-1.9,2.2-3.4,2.2c-1.4,0-2.2-1-1.7-2.2
			C1930.8,383.8,1932.3,382.9,1933.7,382.9z"/>
	</g>
	<line fill="none" stroke="#000000" stroke-width="0.459" x1="1935" y1="384.2" x2="1935" y2="369.4"/>
	<g enable-background="new    ">
		<path d="M1948.5,382.9c1.4,0,2.2,1,1.8,2.2c-0.4,1.2-1.9,2.2-3.4,2.2c-1.4,0-2.2-1-1.7-2.2
			C1945.6,383.8,1947.1,382.9,1948.5,382.9z"/>
	</g>
	<line fill="none" stroke="#000000" stroke-width="0.459" x1="1949.8" y1="384.2" x2="1949.8" y2="369.4"/>
	<path d="M1934.7,368.2h15.3v2.4h-15.3V368.2z"/>
	<g enable-background="new    ">
		<path d="M1882.1,363.6v-0.7l2.4,0v2.1c-0.4,0.3-0.8,0.5-1.2,0.7s-0.8,0.2-1.2,0.2c-0.6,0-1.1-0.1-1.5-0.4s-0.8-0.6-1-1
			s-0.4-1-0.4-1.5c0-0.6,0.1-1.1,0.3-1.6s0.6-0.8,1-1.1s0.9-0.4,1.5-0.4c0.4,0,0.8,0.1,1.1,0.2s0.6,0.3,0.8,0.6s0.3,0.6,0.4,0.9
			l-0.7,0.2c-0.1-0.3-0.2-0.5-0.3-0.7s-0.3-0.3-0.5-0.4s-0.5-0.2-0.8-0.2c-0.3,0-0.6,0.1-0.9,0.2s-0.5,0.2-0.6,0.4s-0.3,0.4-0.4,0.6
			c-0.1,0.4-0.2,0.7-0.2,1.2c0,0.5,0.1,0.9,0.3,1.3s0.4,0.6,0.8,0.8s0.7,0.2,1.1,0.2c0.3,0,0.6-0.1,1-0.2s0.5-0.3,0.7-0.4v-1.1
			H1882.1z"/>
	</g>
	<g enable-background="new    ">
		<path d="M1968.5,385.3c1.4,0,2.2,1,1.8,2.2c-0.4,1.2-1.9,2.2-3.4,2.2c-1.4,0-2.2-1-1.7-2.2
			C1965.6,386.2,1967.1,385.3,1968.5,385.3z"/>
	</g>
	<line fill="none" stroke="#000000" stroke-width="0.459" x1="1969.8" y1="386.6" x2="1969.8" y2="371.8"/>
	<g enable-background="new    ">
		<path d="M1980.7,382.9c1.4,0,2.2,1,1.8,2.2c-0.4,1.2-1.9,2.2-3.4,2.2c-1.4,0-2.2-1-1.7-2.2
			C1977.8,383.8,1979.3,382.9,1980.7,382.9z"/>
	</g>
	<line fill="none" stroke="#000000" stroke-width="0.459" x1="1982" y1="384.2" x2="1982" y2="369.4"/>
	<path d="M1969.5,370.6l12.7-2.4v2.4l-12.7,2.4V370.6z"/>
	<line fill="none" stroke="#000000" stroke-width="0.459" x1="1994.6" y1="384.2" x2="1994.6" y2="368.2"/>
	<g enable-background="new    ">
		<path d="M1994.1,385.1c-0.3,0.9-1,1.5-1.6,1.8c-0.5,0.3-1.2,0.4-2,0.3c-0.5,0-1.3-0.2-1.6-0.7c-0.3-0.6-0.1-1.2,0-1.6
			c0.3-0.8,1-1.4,1.5-1.7c0.5-0.3,1.3-0.5,2.2-0.4c0.4,0,1.1,0.1,1.5,0.7C1994.4,384,1994.2,384.8,1994.1,385.1z M1992.1,383.8
			c-0.4,0.2-0.7,0.4-1,0.5c-0.3,0.2-0.6,0.4-1,0.6c-0.5,0.3-1.1,0.9-0.8,1.4c0.3,0.6,1.1,0.3,1.6,0c0.4-0.2,0.7-0.4,1-0.5
			c0.3-0.2,0.6-0.4,1-0.6c0.5-0.3,1.1-0.9,0.8-1.4C1993.5,383.2,1992.7,383.5,1992.1,383.8z"/>
	</g>
	<g enable-background="new    ">
		<path d="M2022.7,378.2c0.4,0,0.7-0.1,1.1-0.5c0.3-0.3,0.5-0.6,0.8-0.9l0.3,0.2l-2.1,8h-0.8c0,0,0.7-2.3,1.1-3.2
			c0.8-2.2,1-3.6,1-3.6c-0.5,0.4-1.6,1.2-2.5,1.2c-2,0.1-2.5-2.8-0.4-3.3C2022.6,375.8,2023,377.4,2022.7,378.2z"/>
	</g>
	<g enable-background="new    ">
		<path d="M2038.4,370.3c0.6,0.9,1.4,1.9,2.1,3.1c0.6,1.1,1.2,2.7,1.2,3.5c0.1,0.8,0.2,1.6,0.2,2.3c0,1.2-0.2,2.2-0.6,3.3l-0.2,0
			c0.3-0.9,0.5-2.2,0.5-3.3c0-0.9-0.2-2.1-0.5-3.1c-0.6-1.7-1.5-2.7-2.1-3.1c-0.8-0.6-1.8-0.6-1.8-0.6h-0.3v-5h0.3
			C2037.3,368.4,2037.8,369.5,2038.4,370.3z"/>
	</g>
	<line fill="none" stroke="#000000" stroke-width="0.459" x1="2036.8" y1="384.2" x2="2036.8" y2="368.2"/>
	<g enable-background="new    ">
		<path d="M2035.5,382.9c1.4,0,2.2,1,1.8,2.2c-0.4,1.2-1.9,2.2-3.4,2.2c-1.4,0-2.2-1-1.7-2.2
			C2032.6,383.8,2034.1,382.9,2035.5,382.9z"/>
	</g>
	<g enable-background="new    ">
		<path d="M2054.7,378.1c1.4,0,2.2,1,1.8,2.2c-0.4,1.2-1.9,2.2-3.4,2.2c-1.4,0-2.2-1-1.7-2.2C2051.8,379,2053.3,378.1,2054.7,378.1z
			"/>
	</g>
	<line fill="none" stroke="#000000" stroke-width="0.459" x1="2056" y1="379.4" x2="2056" y2="364.6"/>
	<g enable-background="new    ">
		<path d="M2067.3,378.1c1.4,0,2.2,1,1.8,2.2c-0.4,1.2-1.9,2.2-3.4,2.2c-1.4,0-2.2-1-1.7-2.2C2064.4,379,2065.9,378.1,2067.3,378.1z
			"/>
	</g>
	<line fill="none" stroke="#000000" stroke-width="0.459" x1="2068.6" y1="379.4" x2="2068.6" y2="364.6"/>
	<g enable-background="new    ">
		<path d="M2079.7,378.1c1.4,0,2.2,1,1.8,2.2c-0.4,1.2-1.9,2.2-3.4,2.2c-1.4,0-2.2-1-1.7-2.2C2076.8,379,2078.3,378.1,2079.7,378.1z
			"/>
	</g>
	<line fill="none" stroke="#000000" stroke-width="0.459" x1="2081" y1="379.4" x2="2081" y2="364.6"/>
	<g enable-background="new    ">
		<path d="M2092.3,380.5c1.4,0,2.2,1,1.8,2.2c-0.4,1.2-1.9,2.2-3.4,2.2c-1.4,0-2.2-1-1.7-2.2
			C2089.4,381.4,2090.9,380.5,2092.3,380.5z"/>
	</g>
	<line fill="none" stroke="#000000" stroke-width="0.459" x1="2093.6" y1="381.8" x2="2093.6" y2="364.6"/>
	<path d="M2055.7,363.4h38.1v2.4h-38.1V363.4z"/>
	<line fill="none" stroke="#000000" stroke-width="0.459" x1="2105" y1="381.8" x2="2105" y2="365.8"/>
	<g enable-background="new    ">
		<path d="M2104.5,382.7c-0.3,0.9-1,1.5-1.6,1.8c-0.5,0.3-1.2,0.4-2,0.3c-0.5,0-1.3-0.2-1.6-0.7c-0.3-0.6-0.1-1.2,0-1.6
			c0.3-0.8,1-1.4,1.5-1.7c0.5-0.3,1.3-0.5,2.2-0.4c0.4,0,1.1,0.1,1.5,0.7C2104.8,381.6,2104.6,382.4,2104.5,382.7z M2102.5,381.4
			c-0.4,0.2-0.7,0.4-1,0.5c-0.3,0.2-0.6,0.4-1,0.6c-0.5,0.3-1.1,0.9-0.8,1.4c0.3,0.6,1.1,0.3,1.6,0c0.4-0.2,0.7-0.4,1-0.5
			c0.3-0.2,0.6-0.4,1-0.6c0.5-0.3,1.1-0.9,0.8-1.4C2103.9,380.8,2103.1,381.1,2102.5,381.4z"/>
	</g>
	<g enable-background="new    ">
		<path d="M2140.9,382.9c1.4,0,2.2,1,1.8,2.2c-0.4,1.2-1.9,2.2-3.4,2.2c-1.4,0-2.2-1-1.7-2.2C2138,383.8,2139.5,382.9,2140.9,382.9z
			"/>
	</g>
	<line fill="none" stroke="#000000" stroke-width="0.459" x1="2142.2" y1="384.2" x2="2142.2" y2="369.4"/>
	<g enable-background="new    ">
		<path d="M2153.5,382.9c1.4,0,2.2,1,1.8,2.2c-0.4,1.2-1.9,2.2-3.4,2.2c-1.4,0-2.2-1-1.7-2.2
			C2150.6,383.8,2152.1,382.9,2153.5,382.9z"/>
	</g>
	<line fill="none" stroke="#000000" stroke-width="0.459" x1="2154.8" y1="384.2" x2="2154.8" y2="369.4"/>
	<g enable-background="new    ">
		<path d="M2165.9,382.9c1.4,0,2.2,1,1.8,2.2c-0.4,1.2-1.9,2.2-3.4,2.2c-1.4,0-2.2-1-1.7-2.2C2163,383.8,2164.5,382.9,2165.9,382.9z
			"/>
	</g>
	<line fill="none" stroke="#000000" stroke-width="0.459" x1="2167.2" y1="384.2" x2="2167.2" y2="369.4"/>
	<g enable-background="new    ">
		<path d="M2178.5,385.3c1.4,0,2.2,1,1.8,2.2c-0.4,1.2-1.9,2.2-3.4,2.2c-1.4,0-2.2-1-1.7-2.2
			C2175.6,386.2,2177.1,385.3,2178.5,385.3z"/>
	</g>
	<line fill="none" stroke="#000000" stroke-width="0.459" x1="2179.8" y1="386.6" x2="2179.8" y2="369.4"/>
	<path d="M2141.9,368.2h38.1v2.4h-38.1V368.2z"/>
	<line fill="none" stroke="#000000" stroke-width="0.459" x1="2191.4" y1="386.6" x2="2191.4" y2="370.6"/>
	<g enable-background="new    ">
		<path d="M2190.9,387.5c-0.3,0.9-1,1.5-1.6,1.8c-0.5,0.3-1.2,0.4-2,0.3c-0.5,0-1.3-0.2-1.6-0.7c-0.3-0.6-0.1-1.2,0-1.6
			c0.3-0.8,1-1.4,1.5-1.7c0.5-0.3,1.3-0.5,2.2-0.4c0.4,0,1.1,0.1,1.5,0.7C2191.2,386.4,2191,387.2,2190.9,387.5z M2188.9,386.2
			c-0.4,0.2-0.7,0.4-1,0.5c-0.3,0.2-0.6,0.4-1,0.6c-0.5,0.3-1.1,0.9-0.8,1.4c0.3,0.6,1.1,0.3,1.6,0c0.4-0.2,0.7-0.4,1-0.5
			c0.3-0.2,0.6-0.4,1-0.6c0.5-0.3,1.1-0.9,0.8-1.4C2190.3,385.6,2189.5,385.9,2188.9,386.2z"/>
	</g>
	<g enable-background="new    ">
		<path d="M2227.1,387.7c1.4,0,2.2,1,1.8,2.2c-0.4,1.2-1.9,2.2-3.4,2.2c-1.4,0-2.2-1-1.7-2.2
			C2224.2,388.6,2225.7,387.7,2227.1,387.7z"/>
	</g>
	<line fill="none" stroke="#000000" stroke-width="0.459" x1="2228.4" y1="389" x2="2228.4" y2="374.2"/>
	<g enable-background="new    ">
		<path d="M2237.3,387.7c1.4,0,2.2,1,1.8,2.2c-0.4,1.2-1.9,2.2-3.4,2.2c-1.4,0-2.2-1-1.7-2.2
			C2234.4,388.6,2235.9,387.7,2237.3,387.7z"/>
	</g>
	<line fill="none" stroke="#000000" stroke-width="0.459" x1="2238.6" y1="389" x2="2238.6" y2="374.2"/>
	<g enable-background="new    ">
		<path d="M2247.3,387.7c1.4,0,2.2,1,1.8,2.2c-0.4,1.2-1.9,2.2-3.4,2.2c-1.4,0-2.2-1-1.7-2.2
			C2244.4,388.6,2245.9,387.7,2247.3,387.7z"/>
	</g>
	<line fill="none" stroke="#000000" stroke-width="0.459" x1="2248.6" y1="389" x2="2248.6" y2="374.2"/>
	<g enable-background="new    ">
		<path d="M2257.5,387.7c1.4,0,2.2,1,1.8,2.2c-0.4,1.2-1.9,2.2-3.4,2.2c-1.4,0-2.2-1-1.7-2.2
			C2254.6,388.6,2256.1,387.7,2257.5,387.7z"/>
	</g>
	<line fill="none" stroke="#000000" stroke-width="0.459" x1="2258.8" y1="389" x2="2258.8" y2="374.2"/>
	<path d="M2228.1,373h30.9v2.4h-30.9V373z"/>
	<g enable-background="new    ">
		<path d="M2267.5,390.1c1.4,0,2.2,1,1.8,2.2c-0.4,1.2-1.9,2.2-3.4,2.2c-1.4,0-2.2-1-1.7-2.2C2264.6,391,2266.1,390.1,2267.5,390.1z
			"/>
	</g>
	<line fill="none" stroke="#000000" stroke-width="0.459" x1="2268.8" y1="391.4" x2="2268.8" y2="376.6"/>
	<g enable-background="new    ">
		<path d="M2277.7,390.1c1.4,0,2.2,1,1.8,2.2c-0.4,1.2-1.9,2.2-3.4,2.2c-1.4,0-2.2-1-1.7-2.2C2274.8,391,2276.3,390.1,2277.7,390.1z
			"/>
	</g>
	<line fill="none" stroke="#000000" stroke-width="0.459" x1="2279" y1="391.4" x2="2279" y2="376.6"/>
	<g enable-background="new    ">
		<path d="M2287.9,390.1c1.4,0,2.2,1,1.8,2.2c-0.4,1.2-1.9,2.2-3.4,2.2c-1.4,0-2.2-1-1.7-2.2C2285,391,2286.5,390.1,2287.9,390.1z"
			/>
	</g>
	<line fill="none" stroke="#000000" stroke-width="0.459" x1="2289.2" y1="391.4" x2="2289.2" y2="376.6"/>
	<g enable-background="new    ">
		<path d="M2297.9,390.1c1.4,0,2.2,1,1.8,2.2c-0.4,1.2-1.9,2.2-3.4,2.2c-1.4,0-2.2-1-1.7-2.2C2295,391,2296.5,390.1,2297.9,390.1z"
			/>
	</g>
	<line fill="none" stroke="#000000" stroke-width="0.459" x1="2299.2" y1="391.4" x2="2299.2" y2="376.6"/>
	<path d="M2268.5,375.4h30.9v2.4h-30.9V375.4z"/>
	<g enable-background="new    ">
		<path d="M2224.2,365.8v-5.7h2c0.4,0,0.8,0,1,0.1c0.3,0.1,0.6,0.2,0.8,0.4c0.3,0.3,0.5,0.6,0.7,1s0.2,0.9,0.2,1.4
			c0,0.4-0.1,0.8-0.2,1.2s-0.2,0.6-0.4,0.8s-0.3,0.4-0.5,0.5s-0.4,0.2-0.7,0.3s-0.6,0.1-0.9,0.1H2224.2z M2225,365.1h1.2
			c0.4,0,0.7,0,0.9-0.1s0.4-0.2,0.5-0.3c0.2-0.2,0.3-0.4,0.4-0.7s0.2-0.7,0.2-1.1c0-0.6-0.1-1.1-0.3-1.4s-0.4-0.5-0.7-0.6
			c-0.2-0.1-0.5-0.1-1-0.1h-1.2V365.1z"/>
	</g>
	<g enable-background="new    ">
		<path d="M2267.3,363.6v-0.7l2.4,0v2.1c-0.4,0.3-0.8,0.5-1.2,0.7s-0.8,0.2-1.2,0.2c-0.6,0-1.1-0.1-1.5-0.4s-0.8-0.6-1-1
			s-0.4-1-0.4-1.5c0-0.6,0.1-1.1,0.3-1.6s0.6-0.8,1-1.1s0.9-0.4,1.5-0.4c0.4,0,0.8,0.1,1.1,0.2s0.6,0.3,0.8,0.6s0.3,0.6,0.4,0.9
			l-0.7,0.2c-0.1-0.3-0.2-0.5-0.3-0.7s-0.3-0.3-0.5-0.4s-0.5-0.2-0.8-0.2c-0.3,0-0.6,0.1-0.9,0.2s-0.5,0.2-0.6,0.4s-0.3,0.4-0.4,0.6
			c-0.1,0.4-0.2,0.7-0.2,1.2c0,0.5,0.1,0.9,0.3,1.3s0.4,0.6,0.8,0.8s0.7,0.2,1.1,0.2c0.3,0,0.6-0.1,1-0.2s0.5-0.3,0.7-0.4v-1.1
			H2267.3z"/>
	</g>
	<line fill="none" stroke="#000000" stroke-width="0.459" x1="2317" y1="393.8" x2="2317" y2="377.8"/>
	<line fill="none" stroke="#000000" stroke-width="0.459" x1="2310" y1="394.6" x2="2318.4" y2="394.6"/>
	<g enable-background="new    ">
		<path d="M2316.5,394.7c-0.3,0.9-1,1.5-1.6,1.8c-0.5,0.3-1.2,0.4-2,0.3c-0.5,0-1.3-0.2-1.6-0.7c-0.3-0.6-0.1-1.2,0-1.6
			c0.3-0.8,1-1.4,1.5-1.7c0.5-0.3,1.3-0.5,2.2-0.4c0.4,0,1.1,0.1,1.5,0.7C2316.8,393.6,2316.6,394.4,2316.5,394.7z M2314.5,393.4
			c-0.4,0.2-0.7,0.4-1,0.5c-0.3,0.2-0.6,0.4-1,0.6c-0.5,0.3-1.1,0.9-0.8,1.4c0.3,0.6,1.1,0.3,1.6,0c0.4-0.2,0.7-0.4,1-0.5
			c0.3-0.2,0.6-0.4,1-0.6c0.5-0.3,1.1-0.9,0.8-1.4C2315.9,392.8,2315.1,393.1,2314.5,393.4z"/>
	</g>
	<g enable-background="new    ">
		<path d="M2350.2,384c-0.8,0-1.5,0.5-1.5,1.4c0,0.6,1,1.5,1,1.5l-0.2,0.2c0,0-2.2-1.3-2.5-2.7c-0.1-0.9,0.5-1.8,1.6-1.9
			c0.4,0,1.2,0.1,1.5,0.2c-1.8-1.8-2.8-3-2.7-3.4c0.4-0.4,1.7-2.1,1.7-3.4c0-0.9-1.3-2.9-1.3-2.9l0.3-0.2l3.5,4.4c0,0-1.7,2-1.7,3.4
			c0,1,0.6,1.8,1.1,2.3c0.2,0.3,1,1.1,1,1.2l0,0.3C2351.1,384.1,2350.6,384,2350.2,384z"/>
	</g>
	<g enable-background="new    ">
		<path d="M2372.2,384c-0.8,0-1.5,0.5-1.5,1.4c0,0.6,1,1.5,1,1.5l-0.2,0.2c0,0-2.2-1.3-2.5-2.7c-0.1-0.9,0.5-1.8,1.6-1.9
			c0.4,0,1.2,0.1,1.5,0.2c-1.8-1.8-2.8-3-2.7-3.4c0.4-0.4,1.7-2.1,1.7-3.4c0-0.9-1.3-2.9-1.3-2.9l0.3-0.2l3.5,4.4c0,0-1.7,2-1.7,3.4
			c0,1,0.6,1.8,1.1,2.3c0.2,0.3,1,1.1,1,1.2l0,0.3C2373.1,384.1,2372.6,384,2372.2,384z"/>
	</g>
	<g enable-background="new    ">
		<path d="M2315.9,363.8l0.8,0.2c-0.2,0.6-0.4,1.1-0.9,1.4s-0.9,0.5-1.5,0.5c-0.6,0-1.1-0.1-1.5-0.4s-0.7-0.6-0.9-1.1
			s-0.3-1-0.3-1.5c0-0.6,0.1-1.1,0.3-1.6s0.6-0.8,1-1s0.9-0.3,1.4-0.3c0.6,0,1.1,0.1,1.4,0.4s0.7,0.7,0.8,1.2l-0.7,0.2
			c-0.1-0.4-0.3-0.7-0.6-0.9s-0.6-0.3-1-0.3c-0.4,0-0.8,0.1-1.1,0.3s-0.5,0.5-0.6,0.8s-0.2,0.7-0.2,1.1c0,0.5,0.1,0.9,0.2,1.3
			s0.4,0.6,0.7,0.8s0.6,0.3,1,0.3c0.4,0,0.8-0.1,1.1-0.4S2315.8,364.3,2315.9,363.8z"/>
	</g>
	<line fill="none" stroke="#000000" stroke-width="0.459" x1="2408" y1="384.2" x2="2408" y2="368.2"/>
	<g enable-background="new    ">
		<path d="M2407.5,385.1c-0.3,0.9-1,1.5-1.6,1.8c-0.5,0.3-1.2,0.4-2,0.3c-0.5,0-1.3-0.2-1.6-0.7c-0.3-0.6-0.1-1.2,0-1.6
			c0.3-0.8,1-1.4,1.5-1.7c0.5-0.3,1.3-0.5,2.2-0.4c0.4,0,1.1,0.1,1.5,0.7C2407.8,384,2407.6,384.8,2407.5,385.1z M2405.5,383.8
			c-0.4,0.2-0.7,0.4-1,0.5c-0.3,0.2-0.6,0.4-1,0.6c-0.5,0.3-1.1,0.9-0.8,1.4c0.3,0.6,1.1,0.3,1.6,0c0.4-0.2,0.7-0.4,1-0.5
			c0.3-0.2,0.6-0.4,1-0.6c0.5-0.3,1.1-0.9,0.8-1.4C2406.9,383.2,2406.1,383.5,2405.5,383.8z"/>
	</g>
	<g enable-background="new    ">
		<path d="M2396.4,382v-3.1h0.6v2.9l1.9-0.6v-2.8h0.6v2.6l0.7-0.2v2l-0.7,0.2v2.8l0.7-0.2v2l-0.7,0.2v3.1h-0.6v-3l-1.9,0.6v2.8h-0.6
			v-2.6l-0.8,0.3v-2l0.8-0.3V384l-0.8,0.3v-2L2396.4,382z M2397,383.8v2.9l1.9-0.6v-2.9L2397,383.8z"/>
	</g>
	<g enable-background="new    ">
		<path d="M2405.4,391.7c0.6,0,1,0.4,1,1c0,0.5-0.4,1-1,1s-1-0.4-1-1C2404.4,392.1,2404.8,391.7,2405.4,391.7z"/>
	</g>
	<line fill="none" stroke="#000000" stroke-width="0.459" x1="2445.4" y1="381.8" x2="2445.4" y2="365.8"/>
	<g enable-background="new    ">
		<path d="M2444.9,382.7c-0.3,0.9-1,1.5-1.6,1.8c-0.5,0.3-1.2,0.4-2,0.3c-0.5,0-1.3-0.2-1.6-0.7c-0.3-0.6-0.1-1.2,0-1.6
			c0.3-0.8,1-1.4,1.5-1.7c0.5-0.3,1.3-0.5,2.2-0.4c0.4,0,1.1,0.1,1.5,0.7C2445.2,381.6,2445,382.4,2444.9,382.7z M2442.9,381.4
			c-0.4,0.2-0.7,0.4-1,0.5c-0.3,0.2-0.6,0.4-1,0.6c-0.5,0.3-1.1,0.9-0.8,1.4c0.3,0.6,1.1,0.3,1.6,0c0.4-0.2,0.7-0.4,1-0.5
			c0.3-0.2,0.6-0.4,1-0.6c0.5-0.3,1.1-0.9,0.8-1.4C2444.3,380.8,2443.5,381.1,2442.9,381.4z"/>
	</g>
	<g enable-background="new    ">
		<path d="M2442.8,386.9c0.6,0,1,0.4,1,1c0,0.5-0.4,1-1,1s-1-0.4-1-1C2441.8,387.3,2442.2,386.9,2442.8,386.9z"/>
	</g>
	<g enable-background="new    ">
		<path d="M2399,358.4v-5.7h2.1c0.4,0,0.8,0.1,1.1,0.2c0.3,0.1,0.5,0.3,0.6,0.5c0.1,0.2,0.2,0.5,0.2,0.8c0,0.2-0.1,0.5-0.2,0.7
			s-0.3,0.4-0.6,0.5c0.3,0.1,0.6,0.3,0.8,0.5c0.2,0.2,0.3,0.5,0.3,0.9c0,0.3-0.1,0.5-0.2,0.7s-0.3,0.4-0.4,0.5
			c-0.2,0.1-0.4,0.2-0.6,0.3c-0.3,0.1-0.6,0.1-0.9,0.1H2399z M2399.7,355.1h1.2c0.3,0,0.6,0,0.7-0.1c0.2-0.1,0.3-0.2,0.4-0.3
			s0.1-0.3,0.1-0.5c0-0.2,0-0.4-0.1-0.5c-0.1-0.1-0.2-0.2-0.4-0.3c-0.2-0.1-0.5-0.1-0.9-0.1h-1.1V355.1z M2399.7,357.7h1.4
			c0.2,0,0.4,0,0.5,0c0.2,0,0.3-0.1,0.4-0.2s0.2-0.2,0.3-0.3c0.1-0.1,0.1-0.3,0.1-0.5c0-0.2-0.1-0.4-0.2-0.6s-0.3-0.3-0.5-0.3
			c-0.2-0.1-0.5-0.1-0.8-0.1h-1.3V357.7z"/>
	</g>
	<g enable-background="new    ">
		<path d="M2402.8,365.8v-5.7h4.1v0.7h-3.4v1.8h3.2v0.7h-3.2v1.9h3.5v0.7H2402.8z"/>
	</g>
	<g enable-background="new    ">
		<path d="M2439.6,365.8l2.2-5.7h0.8l2.3,5.7h-0.9l-0.7-1.7h-2.4l-0.6,1.7H2439.6z M2441.2,363.4h1.9l-0.6-1.6
			c-0.2-0.5-0.3-0.9-0.4-1.2c-0.1,0.4-0.2,0.7-0.3,1.1L2441.2,363.4z"/>
	</g>
	<line fill="none" stroke="#000000" stroke-width="0.459" x1="2494.2" y1="384.2" x2="2494.2" y2="368.2"/>
	<g enable-background="new    ">
		<path d="M2493.7,385.1c-0.3,0.9-1,1.5-1.6,1.8c-0.5,0.3-1.2,0.4-2,0.3c-0.5,0-1.3-0.2-1.6-0.7c-0.3-0.6-0.1-1.2,0-1.6
			c0.3-0.8,1-1.4,1.5-1.7c0.5-0.3,1.3-0.5,2.2-0.4c0.4,0,1.1,0.1,1.5,0.7C2494,384,2493.8,384.8,2493.7,385.1z M2491.7,383.8
			c-0.4,0.2-0.7,0.4-1,0.5c-0.3,0.2-0.6,0.4-1,0.6c-0.5,0.3-1.1,0.9-0.8,1.4c0.3,0.6,1.1,0.3,1.6,0c0.4-0.2,0.7-0.4,1-0.5
			c0.3-0.2,0.6-0.4,1-0.6c0.5-0.3,1.1-0.9,0.8-1.4C2493.1,383.2,2492.3,383.5,2491.7,383.8z"/>
	</g>
	<g enable-background="new    ">
		<path d="M2482.6,382v-3.1h0.6v2.9l1.9-0.6v-2.8h0.6v2.6l0.7-0.2v2l-0.7,0.2v2.8l0.7-0.2v2l-0.7,0.2v3.1h-0.6v-3l-1.9,0.6v2.8h-0.6
			v-2.6l-0.8,0.3v-2l0.8-0.3V384l-0.8,0.3v-2L2482.6,382z M2483.2,383.8v2.9l1.9-0.6v-2.9L2483.2,383.8z"/>
	</g>
	<g enable-background="new    ">
		<path d="M2491.6,391.7c0.6,0,1,0.4,1,1c0,0.5-0.4,1-1,1s-1-0.4-1-1C2490.6,392.1,2491,391.7,2491.6,391.7z"/>
	</g>
	<g enable-background="new    ">
		<path d="M2531.9,377.7v2.5h-6.1v-2.5H2531.9z"/>
	</g>
	<line fill="none" stroke="#000000" stroke-width="0.459" x1="2525.2" y1="380.2" x2="2532.4" y2="380.2"/>
	<g enable-background="new    ">
		<path d="M2489,365.8v-5.7h4.1v0.7h-3.4v1.8h3.2v0.7h-3.2v1.9h3.5v0.7H2489z"/>
	</g>
	<line fill="none" stroke="#000000" stroke-width="0.459" x1="2580.4" y1="384.2" x2="2580.4" y2="368.2"/>
	<g enable-background="new    ">
		<path d="M2579.9,385.1c-0.3,0.9-1,1.5-1.6,1.8c-0.5,0.3-1.2,0.4-2,0.3c-0.5,0-1.3-0.2-1.6-0.7c-0.3-0.6-0.1-1.2,0-1.6
			c0.3-0.8,1-1.4,1.5-1.7c0.5-0.3,1.3-0.5,2.2-0.4c0.4,0,1.1,0.1,1.5,0.7C2580.2,384,2580,384.8,2579.9,385.1z M2577.9,383.8
			c-0.4,0.2-0.7,0.4-1,0.5c-0.3,0.2-0.6,0.4-1,0.6c-0.5,0.3-1.1,0.9-0.8,1.4c0.3,0.6,1.1,0.3,1.6,0c0.4-0.2,0.7-0.4,1-0.5
			c0.3-0.2,0.6-0.4,1-0.6c0.5-0.3,1.1-0.9,0.8-1.4C2579.3,383.2,2578.5,383.5,2577.9,383.8z"/>
	</g>
	<g enable-background="new    ">
		<path d="M2568.8,382v-3.1h0.6v2.9l1.9-0.6v-2.8h0.6v2.6l0.7-0.2v2l-0.7,0.2v2.8l0.7-0.2v2l-0.7,0.2v3.1h-0.6v-3l-1.9,0.6v2.8h-0.6
			v-2.6l-0.8,0.3v-2l0.8-0.3V384l-0.8,0.3v-2L2568.8,382z M2569.4,383.8v2.9l1.9-0.6v-2.9L2569.4,383.8z"/>
	</g>
	<g enable-background="new    ">
		<path d="M2577.8,391.7c0.6,0,1,0.4,1,1c0,0.5-0.4,1-1,1s-1-0.4-1-1C2576.8,392.1,2577.2,391.7,2577.8,391.7z"/>
	</g>
	<line fill="none" stroke="#000000" stroke-width="0.459" x1="2617.8" y1="381.8" x2="2617.8" y2="365.8"/>
	<g enable-background="new    ">
		<path d="M2617.3,382.7c-0.3,0.9-1,1.5-1.6,1.8c-0.5,0.3-1.2,0.4-2,0.3c-0.5,0-1.3-0.2-1.6-0.7c-0.3-0.6-0.1-1.2,0-1.6
			c0.3-0.8,1-1.4,1.5-1.7c0.5-0.3,1.3-0.5,2.2-0.4c0.4,0,1.1,0.1,1.5,0.7C2617.6,381.6,2617.4,382.4,2617.3,382.7z M2615.3,381.4
			c-0.4,0.2-0.7,0.4-1,0.5c-0.3,0.2-0.6,0.4-1,0.6c-0.5,0.3-1.1,0.9-0.8,1.4c0.3,0.6,1.1,0.3,1.6,0c0.4-0.2,0.7-0.4,1-0.5
			c0.3-0.2,0.6-0.4,1-0.6c0.5-0.3,1.1-0.9,0.8-1.4C2616.7,380.8,2615.9,381.1,2615.3,381.4z"/>
	</g>
	<g enable-background="new    ">
		<path d="M2615.2,386.9c0.6,0,1,0.4,1,1c0,0.5-0.4,1-1,1s-1-0.4-1-1C2614.2,387.3,2614.6,386.9,2615.2,386.9z"/>
	</g>
	<g enable-background="new    ">
		<path d="M2612,365.8l2.2-5.7h0.8l2.3,5.7h-0.9l-0.7-1.7h-2.4l-0.6,1.7H2612z M2613.6,363.4h1.9l-0.6-1.6c-0.2-0.5-0.3-0.9-0.4-1.2
			c-0.1,0.4-0.2,0.7-0.3,1.1L2613.6,363.4z"/>
	</g>
	<line fill="none" stroke="#000000" stroke-width="0.459" x1="2666.6" y1="384.2" x2="2666.6" y2="368.2"/>
	<g enable-background="new    ">
		<path d="M2666.1,385.1c-0.3,0.9-1,1.5-1.6,1.8c-0.5,0.3-1.2,0.4-2,0.3c-0.5,0-1.3-0.2-1.6-0.7c-0.3-0.6-0.1-1.2,0-1.6
			c0.3-0.8,1-1.4,1.5-1.7c0.5-0.3,1.3-0.5,2.2-0.4c0.4,0,1.1,0.1,1.5,0.7C2666.4,384,2666.2,384.8,2666.1,385.1z M2664.1,383.8
			c-0.4,0.2-0.7,0.4-1,0.5c-0.3,0.2-0.6,0.4-1,0.6c-0.5,0.3-1.1,0.9-0.8,1.4c0.3,0.6,1.1,0.3,1.6,0c0.4-0.2,0.7-0.4,1-0.5
			c0.3-0.2,0.6-0.4,1-0.6c0.5-0.3,1.1-0.9,0.8-1.4C2665.5,383.2,2664.7,383.5,2664.1,383.8z"/>
	</g>
	<g enable-background="new    ">
		<path d="M2655,382v-3.1h0.6v2.9l1.9-0.6v-2.8h0.6v2.6l0.7-0.2v2l-0.7,0.2v2.8l0.7-0.2v2l-0.7,0.2v3.1h-0.6v-3l-1.9,0.6v2.8h-0.6
			v-2.6l-0.8,0.3v-2l0.8-0.3V384l-0.8,0.3v-2L2655,382z M2655.6,383.8v2.9l1.9-0.6v-2.9L2655.6,383.8z"/>
	</g>
	<g enable-background="new    ">
		<path d="M2664,391.7c0.6,0,1,0.4,1,1c0,0.5-0.4,1-1,1s-1-0.4-1-1C2663,392.1,2663.4,391.7,2664,391.7z"/>
	</g>
	<g enable-background="new    ">
		<path d="M2704.3,377.7v2.5h-6.1v-2.5H2704.3z"/>
	</g>
	<line fill="none" stroke="#000000" stroke-width="0.459" x1="2697.6" y1="380.2" x2="2704.8" y2="380.2"/>
	<g enable-background="new    ">
		<path d="M2661.4,365.8v-5.7h4.1v0.7h-3.4v1.8h3.2v0.7h-3.2v1.9h3.5v0.7H2661.4z"/>
	</g>
	<line fill="none" stroke="#000000" stroke-width="0.459" x1="2741.2" y1="381" x2="2741.2" y2="397"/>
	<g enable-background="new    ">
		<path d="M2746.3,380.3c-0.3,0.9-1,1.5-1.6,1.8c-0.5,0.3-1.2,0.4-2,0.3c-0.5,0-1.3-0.2-1.6-0.7c-0.3-0.6-0.1-1.2,0-1.6
			c0.3-0.8,1-1.4,1.5-1.7c0.5-0.3,1.3-0.5,2.2-0.4c0.4,0,1.1,0.1,1.5,0.7C2746.6,379.2,2746.4,380,2746.3,380.3z M2744.3,379
			c-0.4,0.2-0.7,0.4-1,0.5c-0.3,0.2-0.6,0.4-1,0.6c-0.5,0.3-1.1,0.9-0.8,1.4c0.3,0.6,1.1,0.3,1.6,0c0.4-0.2,0.7-0.4,1-0.5
			c0.3-0.2,0.6-0.4,1-0.6c0.5-0.3,1.1-0.9,0.8-1.4C2745.7,378.4,2744.9,378.7,2744.3,379z"/>
	</g>
	<g enable-background="new    ">
		<path d="M2744.2,372.5c0.6,0,1,0.4,1,1c0,0.5-0.4,1-1,1s-1-0.4-1-1C2743.2,372.9,2743.6,372.5,2744.2,372.5z"/>
	</g>
	<line fill="none" stroke="#000000" stroke-width="0.459" x1="2781.6" y1="378.6" x2="2781.6" y2="394.6"/>
	<g enable-background="new    ">
		<path d="M2786.7,377.9c-0.3,0.9-1,1.5-1.6,1.8c-0.5,0.3-1.2,0.4-2,0.3c-0.5,0-1.3-0.2-1.6-0.7c-0.3-0.6-0.1-1.2,0-1.6
			c0.3-0.8,1-1.4,1.5-1.7c0.5-0.3,1.3-0.5,2.2-0.4c0.4,0,1.1,0.1,1.5,0.7C2787,376.8,2786.8,377.6,2786.7,377.9z M2784.7,376.6
			c-0.4,0.2-0.7,0.4-1,0.5c-0.3,0.2-0.6,0.4-1,0.6c-0.5,0.3-1.1,0.9-0.8,1.4c0.3,0.6,1.1,0.3,1.6,0c0.4-0.2,0.7-0.4,1-0.5
			c0.3-0.2,0.6-0.4,1-0.6c0.5-0.3,1.1-0.9,0.8-1.4C2786.1,376,2785.3,376.3,2784.7,376.6z"/>
	</g>
	<g enable-background="new    ">
		<path d="M2784.6,372.5c0.6,0,1,0.4,1,1c0,0.5-0.4,1-1,1s-1-0.4-1-1C2783.6,372.9,2784,372.5,2784.6,372.5z"/>
	</g>
	<g enable-background="new    ">
		<path d="M2744.3,363.6v-0.7l2.4,0v2.1c-0.4,0.3-0.8,0.5-1.2,0.7s-0.8,0.2-1.2,0.2c-0.6,0-1.1-0.1-1.5-0.4s-0.8-0.6-1-1
			s-0.4-1-0.4-1.5c0-0.6,0.1-1.1,0.3-1.6s0.6-0.8,1-1.1s0.9-0.4,1.5-0.4c0.4,0,0.8,0.1,1.1,0.2s0.6,0.3,0.8,0.6s0.3,0.6,0.4,0.9
			l-0.7,0.2c-0.1-0.3-0.2-0.5-0.3-0.7s-0.3-0.3-0.5-0.4s-0.5-0.2-0.8-0.2c-0.3,0-0.6,0.1-0.9,0.2s-0.5,0.2-0.6,0.4s-0.3,0.4-0.4,0.6
			c-0.1,0.4-0.2,0.7-0.2,1.2c0,0.5,0.1,0.9,0.3,1.3s0.4,0.6,0.8,0.8s0.7,0.2,1.1,0.2c0.3,0,0.6-0.1,1-0.2s0.5-0.3,0.7-0.4v-1.1
			H2744.3z"/>
	</g>
	<g enable-background="new    ">
		<path d="M2786.1,363.8l0.8,0.2c-0.2,0.6-0.4,1.1-0.9,1.4c-0.4,0.3-0.9,0.5-1.5,0.5c-0.6,0-1.1-0.1-1.5-0.4s-0.7-0.6-0.9-1.1
			c-0.2-0.5-0.3-1-0.3-1.5c0-0.6,0.1-1.1,0.3-1.6c0.2-0.4,0.6-0.8,1-1c0.4-0.2,0.9-0.3,1.4-0.3c0.6,0,1.1,0.1,1.4,0.4
			s0.7,0.7,0.8,1.2l-0.7,0.2c-0.1-0.4-0.3-0.7-0.6-0.9c-0.3-0.2-0.6-0.3-1-0.3c-0.4,0-0.8,0.1-1.1,0.3c-0.3,0.2-0.5,0.5-0.6,0.8
			c-0.1,0.4-0.2,0.7-0.2,1.1c0,0.5,0.1,0.9,0.2,1.3c0.1,0.4,0.4,0.6,0.7,0.8c0.3,0.2,0.6,0.3,1,0.3c0.4,0,0.8-0.1,1.1-0.4
			C2785.8,364.6,2786,364.3,2786.1,363.8z"/>
	</g>
	<line fill="none" stroke="#000000" stroke-width="0.459" x1="2827.4" y1="381" x2="2827.4" y2="397"/>
	<g enable-background="new    ">
		<path d="M2832.5,380.3c-0.3,0.9-1,1.5-1.6,1.8c-0.5,0.3-1.2,0.4-2,0.3c-0.5,0-1.3-0.2-1.6-0.7c-0.3-0.6-0.1-1.2,0-1.6
			c0.3-0.8,1-1.4,1.5-1.7c0.5-0.3,1.3-0.5,2.2-0.4c0.4,0,1.1,0.1,1.5,0.7C2832.8,379.2,2832.6,380,2832.5,380.3z M2830.5,379
			c-0.4,0.2-0.7,0.4-1,0.5c-0.3,0.2-0.6,0.4-1,0.6c-0.5,0.3-1.1,0.9-0.8,1.4c0.3,0.6,1.1,0.3,1.6,0c0.4-0.2,0.7-0.4,1-0.5
			c0.3-0.2,0.6-0.4,1-0.6c0.5-0.3,1.1-0.9,0.8-1.4C2831.9,378.4,2831.1,378.7,2830.5,379z"/>
	</g>
	<g enable-background="new    ">
		<path d="M2830.4,372.5c0.6,0,1,0.4,1,1c0,0.5-0.4,1-1,1s-1-0.4-1-1C2829.4,372.9,2829.8,372.5,2830.4,372.5z"/>
	</g>
	<g enable-background="new    ">
		<path d="M2873.7,377.7v2.5h-6.1v-2.5H2873.7z"/>
	</g>
	<line fill="none" stroke="#000000" stroke-width="0.459" x1="2867" y1="380.2" x2="2874.2" y2="380.2"/>
	<g enable-background="new    ">
		<path d="M2830.5,363.6v-0.7l2.4,0v2.1c-0.4,0.3-0.8,0.5-1.2,0.7s-0.8,0.2-1.2,0.2c-0.6,0-1.1-0.1-1.5-0.4s-0.8-0.6-1-1
			s-0.4-1-0.4-1.5c0-0.6,0.1-1.1,0.3-1.6s0.6-0.8,1-1.1s0.9-0.4,1.5-0.4c0.4,0,0.8,0.1,1.1,0.2s0.6,0.3,0.8,0.6s0.3,0.6,0.4,0.9
			l-0.7,0.2c-0.1-0.3-0.2-0.5-0.3-0.7s-0.3-0.3-0.5-0.4s-0.5-0.2-0.8-0.2c-0.3,0-0.6,0.1-0.9,0.2s-0.5,0.2-0.6,0.4s-0.3,0.4-0.4,0.6
			c-0.1,0.4-0.2,0.7-0.2,1.2c0,0.5,0.1,0.9,0.3,1.3s0.4,0.6,0.8,0.8s0.7,0.2,1.1,0.2c0.3,0,0.6-0.1,1-0.2s0.5-0.3,0.7-0.4v-1.1
			H2830.5z"/>
	</g>
	<line fill="none" stroke="#000000" stroke-width="0.459" x1="2913.6" y1="381" x2="2913.6" y2="397"/>
	<g enable-background="new    ">
		<path d="M2918.7,380.3c-0.3,0.9-1,1.5-1.6,1.8c-0.5,0.3-1.2,0.4-2,0.3c-0.5,0-1.3-0.2-1.6-0.7c-0.3-0.6-0.1-1.2,0-1.6
			c0.3-0.8,1-1.4,1.5-1.7c0.5-0.3,1.3-0.5,2.2-0.4c0.4,0,1.1,0.1,1.5,0.7C2919,379.2,2918.8,380,2918.7,380.3z M2916.7,379
			c-0.4,0.2-0.7,0.4-1,0.5c-0.3,0.2-0.6,0.4-1,0.6c-0.5,0.3-1.1,0.9-0.8,1.4c0.3,0.6,1.1,0.3,1.6,0c0.4-0.2,0.7-0.4,1-0.5
			c0.3-0.2,0.6-0.4,1-0.6c0.5-0.3,1.1-0.9,0.8-1.4C2918.1,378.4,2917.3,378.7,2916.7,379z"/>
	</g>
	<g enable-background="new    ">
		<path d="M2916.6,372.5c0.6,0,1,0.4,1,1c0,0.5-0.4,1-1,1s-1-0.4-1-1C2915.6,372.9,2916,372.5,2916.6,372.5z"/>
	</g>
	<line fill="none" stroke="#000000" stroke-width="0.459" x1="2959.6" y1="381.8" x2="2959.6" y2="365.8"/>
	<g enable-background="new    ">
		<path d="M2959.1,382.7c-0.3,0.9-1,1.5-1.6,1.8c-0.5,0.3-1.2,0.4-2,0.3c-0.5,0-1.3-0.2-1.6-0.7c-0.3-0.6-0.1-1.2,0-1.6
			c0.3-0.8,1-1.4,1.5-1.7c0.5-0.3,1.3-0.5,2.2-0.4c0.4,0,1.1,0.1,1.5,0.7C2959.4,381.6,2959.2,382.4,2959.1,382.7z M2957.1,381.4
			c-0.4,0.2-0.7,0.4-1,0.5c-0.3,0.2-0.6,0.4-1,0.6c-0.5,0.3-1.1,0.9-0.8,1.4c0.3,0.6,1.1,0.3,1.6,0c0.4-0.2,0.7-0.4,1-0.5
			c0.3-0.2,0.6-0.4,1-0.6c0.5-0.3,1.1-0.9,0.8-1.4C2958.5,380.8,2957.7,381.1,2957.1,381.4z"/>
	</g>
	<g enable-background="new    ">
		<path d="M2957,386.9c0.6,0,1,0.4,1,1c0,0.5-0.4,1-1,1s-1-0.4-1-1C2956,387.3,2956.4,386.9,2957,386.9z"/>
	</g>
	<g enable-background="new    ">
		<path d="M2913.4,365.8l2.2-5.7h0.8l2.3,5.7h-0.9l-0.7-1.7h-2.4l-0.6,1.7H2913.4z M2915,363.4h1.9l-0.6-1.6
			c-0.2-0.5-0.3-0.9-0.4-1.2c-0.1,0.4-0.2,0.7-0.3,1.1L2915,363.4z"/>
	</g>
	<g enable-background="new    ">
		<path d="M2954.4,365.8v-5.7h2c0.4,0,0.8,0,1,0.1c0.3,0.1,0.6,0.2,0.8,0.4c0.3,0.3,0.5,0.6,0.7,1s0.2,0.9,0.2,1.4
			c0,0.4-0.1,0.8-0.2,1.2s-0.2,0.6-0.4,0.8s-0.3,0.4-0.5,0.5s-0.4,0.2-0.7,0.3s-0.6,0.1-0.9,0.1H2954.4z M2955.2,365.1h1.2
			c0.4,0,0.7,0,0.9-0.1s0.4-0.2,0.5-0.3c0.2-0.2,0.3-0.4,0.4-0.7s0.2-0.7,0.2-1.1c0-0.6-0.1-1.1-0.3-1.4s-0.4-0.5-0.7-0.6
			c-0.2-0.1-0.5-0.1-1-0.1h-1.2V365.1z"/>
	</g>
	<line fill="none" stroke="#000000" stroke-width="0.459" x1="3005.2" y1="384.2" x2="3005.2" y2="368.2"/>
	<g enable-background="new    ">
		<path d="M3004.7,385.1c-0.3,0.9-1,1.5-1.6,1.8c-0.5,0.3-1.2,0.4-2,0.3c-0.5,0-1.3-0.2-1.6-0.7c-0.3-0.6-0.1-1.2,0-1.6
			c0.3-0.8,1-1.4,1.5-1.7c0.5-0.3,1.3-0.5,2.2-0.4c0.4,0,1.1,0.1,1.5,0.7C3005,384,3004.8,384.8,3004.7,385.1z M3002.7,383.8
			c-0.4,0.2-0.7,0.4-1,0.5c-0.3,0.2-0.6,0.4-1,0.6c-0.5,0.3-1.1,0.9-0.8,1.4c0.3,0.6,1.1,0.3,1.6,0c0.4-0.2,0.7-0.4,1-0.5
			c0.3-0.2,0.6-0.4,1-0.6c0.5-0.3,1.1-0.9,0.8-1.4C3004.1,383.2,3003.3,383.5,3002.7,383.8z"/>
	</g>
	<g enable-background="new    ">
		<path d="M3002.6,391.7c0.6,0,1,0.4,1,1c0,0.5-0.4,1-1,1s-1-0.4-1-1C3001.6,392.1,3002,391.7,3002.6,391.7z"/>
	</g>
	<g enable-background="new    ">
		<path d="M3036.8,384c-0.8,0-1.5,0.5-1.5,1.4c0,0.6,1,1.5,1,1.5l-0.2,0.2c0,0-2.2-1.3-2.5-2.7c-0.1-0.9,0.5-1.8,1.6-1.9
			c0.4,0,1.2,0.1,1.5,0.2c-1.8-1.8-2.8-3-2.7-3.4c0.4-0.4,1.7-2.1,1.7-3.4c0-0.9-1.3-2.9-1.3-2.9l0.3-0.2l3.5,4.4c0,0-1.7,2-1.7,3.4
			c0,1,0.6,1.8,1.1,2.3c0.2,0.3,1,1.1,1,1.2l0,0.3C3037.7,384.1,3037.2,384,3036.8,384z"/>
	</g>
	<g enable-background="new    ">
		<path d="M3057.9,382.9c1.4,0,2.2,1,1.8,2.2c-0.4,1.2-1.9,2.2-3.4,2.2c-1.4,0-2.2-1-1.7-2.2C3055,383.8,3056.5,382.9,3057.9,382.9z
			"/>
	</g>
	<line fill="none" stroke="#000000" stroke-width="0.459" x1="3059.2" y1="384.2" x2="3059.2" y2="369.4"/>
	<g enable-background="new    ">
		<path d="M3070.9,382.9c1.4,0,2.2,1,1.8,2.2c-0.4,1.2-1.9,2.2-3.4,2.2c-1.4,0-2.2-1-1.7-2.2C3068,383.8,3069.5,382.9,3070.9,382.9z
			"/>
	</g>
	<line fill="none" stroke="#000000" stroke-width="0.459" x1="3072.2" y1="384.2" x2="3072.2" y2="369.4"/>
	<path d="M3058.9,368.2h13.5v2.4h-13.5V368.2z"/>
	<g enable-background="new    ">
		<path d="M3053.8,358.6l2.2-5.7h0.8l2.3,5.7h-0.9l-0.7-1.7h-2.4l-0.6,1.7H3053.8z M3055.4,356.2h1.9l-0.6-1.6
			c-0.2-0.5-0.3-0.9-0.4-1.2c-0.1,0.4-0.2,0.7-0.3,1.1L3055.4,356.2z"/>
	</g>
	<g enable-background="new    ">
		<path d="M3002.7,363.6v-0.7l2.4,0v2.1c-0.4,0.3-0.8,0.5-1.2,0.7c-0.4,0.1-0.8,0.2-1.2,0.2c-0.6,0-1.1-0.1-1.5-0.4
			c-0.5-0.2-0.8-0.6-1-1s-0.4-1-0.4-1.5c0-0.6,0.1-1.1,0.3-1.6c0.2-0.5,0.6-0.8,1-1.1s0.9-0.4,1.5-0.4c0.4,0,0.8,0.1,1.1,0.2
			c0.3,0.1,0.6,0.3,0.8,0.6c0.2,0.2,0.3,0.6,0.4,0.9l-0.7,0.2c-0.1-0.3-0.2-0.5-0.3-0.7c-0.1-0.2-0.3-0.3-0.5-0.4
			c-0.2-0.1-0.5-0.2-0.8-0.2c-0.3,0-0.6,0.1-0.9,0.2c-0.3,0.1-0.5,0.2-0.6,0.4c-0.2,0.2-0.3,0.4-0.4,0.6c-0.1,0.4-0.2,0.7-0.2,1.2
			c0,0.5,0.1,0.9,0.3,1.3s0.4,0.6,0.8,0.8s0.7,0.2,1.1,0.2c0.3,0,0.6-0.1,1-0.2s0.5-0.3,0.7-0.4v-1.1H3002.7z"/>
	</g>
	<g enable-background="new    ">
		<path d="M3097.2,381.7c0.6,0,1,0.4,1,1c0,0.5-0.4,1-1,1s-1-0.4-1-1C3096.2,382.1,3096.6,381.7,3097.2,381.7z"/>
	</g>
	<line fill="none" stroke="#000000" stroke-width="0.459" x1="3093.8" y1="384.2" x2="3093.8" y2="368.2"/>
	<g enable-background="new    ">
		<path d="M3093.3,385.1c-0.3,0.9-1,1.5-1.6,1.8c-0.5,0.3-1.2,0.4-2,0.3c-0.5,0-1.3-0.2-1.6-0.7c-0.3-0.6-0.1-1.2,0-1.6
			c0.3-0.8,1-1.4,1.5-1.7c0.5-0.3,1.3-0.5,2.2-0.4c0.4,0,1.1,0.1,1.5,0.7C3093.6,384,3093.4,384.8,3093.3,385.1z M3091.3,383.8
			c-0.4,0.2-0.7,0.4-1,0.5c-0.3,0.2-0.6,0.4-1,0.6c-0.5,0.3-1.1,0.9-0.8,1.4c0.3,0.6,1.1,0.3,1.6,0c0.4-0.2,0.7-0.4,1-0.5
			c0.3-0.2,0.6-0.4,1-0.6c0.5-0.3,1.1-0.9,0.8-1.4C3092.7,383.2,3091.9,383.5,3091.3,383.8z"/>
	</g>
	<g enable-background="new    ">
		<path d="M3142.9,382.9c1.4,0,2.2,1,1.8,2.2c-0.4,1.2-1.9,2.2-3.4,2.2c-1.4,0-2.2-1-1.7-2.2C3140,383.8,3141.5,382.9,3142.9,382.9z
			"/>
	</g>
	<line fill="none" stroke="#000000" stroke-width="0.459" x1="3144.2" y1="384.2" x2="3144.2" y2="369.4"/>
	<g enable-background="new    ">
		<path d="M3157.7,382.9c1.4,0,2.2,1,1.8,2.2c-0.4,1.2-1.9,2.2-3.4,2.2c-1.4,0-2.2-1-1.7-2.2
			C3154.8,383.8,3156.3,382.9,3157.7,382.9z"/>
	</g>
	<line fill="none" stroke="#000000" stroke-width="0.459" x1="3159" y1="384.2" x2="3159" y2="369.4"/>
	<path d="M3143.9,368.2h15.3v2.4h-15.3V368.2z"/>
	<g enable-background="new    ">
		<path d="M3092.7,363.8l0.8,0.2c-0.2,0.6-0.4,1.1-0.9,1.4s-0.9,0.5-1.5,0.5c-0.6,0-1.1-0.1-1.5-0.4s-0.7-0.6-0.9-1.1
			s-0.3-1-0.3-1.5c0-0.6,0.1-1.1,0.3-1.6s0.6-0.8,1-1s0.9-0.3,1.4-0.3c0.6,0,1.1,0.1,1.4,0.4s0.7,0.7,0.8,1.2l-0.7,0.2
			c-0.1-0.4-0.3-0.7-0.6-0.9s-0.6-0.3-1-0.3c-0.4,0-0.8,0.1-1.1,0.3s-0.5,0.5-0.6,0.8s-0.2,0.7-0.2,1.1c0,0.5,0.1,0.9,0.2,1.3
			s0.4,0.6,0.7,0.8s0.6,0.3,1,0.3c0.4,0,0.8-0.1,1.1-0.4S3092.6,364.3,3092.7,363.8z"/>
	</g>
	<g enable-background="new    ">
		<path d="M3177.7,387.7c1.4,0,2.2,1,1.8,2.2c-0.4,1.2-1.9,2.2-3.4,2.2c-1.4,0-2.2-1-1.7-2.2
			C3174.8,388.6,3176.3,387.7,3177.7,387.7z"/>
	</g>
	<line fill="none" stroke="#000000" stroke-width="0.459" x1="3179" y1="389" x2="3179" y2="371.8"/>
	<g enable-background="new    ">
		<path d="M3190.3,382.9c1.4,0,2.2,1,1.8,2.2c-0.4,1.2-1.9,2.2-3.4,2.2c-1.4,0-2.2-1-1.7-2.2
			C3187.4,383.8,3188.9,382.9,3190.3,382.9z"/>
	</g>
	<line fill="none" stroke="#000000" stroke-width="0.459" x1="3191.6" y1="384.2" x2="3191.6" y2="369.4"/>
	<path d="M3178.7,370.6l13.1-2.4v2.4l-13.1,2.4V370.6z"/>
	<line fill="none" stroke="#000000" stroke-width="0.459" x1="3203" y1="384.2" x2="3203" y2="368.2"/>
	<g enable-background="new    ">
		<path d="M3202.5,385.1c-0.3,0.9-1,1.5-1.6,1.8c-0.5,0.3-1.2,0.4-2,0.3c-0.5,0-1.3-0.2-1.6-0.7c-0.3-0.6-0.1-1.2,0-1.6
			c0.3-0.8,1-1.4,1.5-1.7c0.5-0.3,1.3-0.5,2.2-0.4c0.4,0,1.1,0.1,1.5,0.7C3202.8,384,3202.6,384.8,3202.5,385.1z M3200.5,383.8
			c-0.4,0.2-0.7,0.4-1,0.5c-0.3,0.2-0.6,0.4-1,0.6c-0.5,0.3-1.1,0.9-0.8,1.4c0.3,0.6,1.1,0.3,1.6,0c0.4-0.2,0.7-0.4,1-0.5
			c0.3-0.2,0.6-0.4,1-0.6c0.5-0.3,1.1-0.9,0.8-1.4C3201.9,383.2,3201.1,383.5,3200.5,383.8z"/>
	</g>
	<g enable-background="new    ">
		<path d="M3233.7,382.9c1.4,0,2.2,1,1.8,2.2c-0.4,1.2-1.9,2.2-3.4,2.2c-1.4,0-2.2-1-1.7-2.2
			C3230.8,383.8,3232.3,382.9,3233.7,382.9z"/>
	</g>
	<line fill="none" stroke="#000000" stroke-width="0.459" x1="3235" y1="384.2" x2="3235" y2="369.4"/>
	<g enable-background="new    ">
		<path d="M3246.1,382.9c1.4,0,2.2,1,1.8,2.2c-0.4,1.2-1.9,2.2-3.4,2.2c-1.4,0-2.2-1-1.7-2.2
			C3243.2,383.8,3244.7,382.9,3246.1,382.9z"/>
	</g>
	<line fill="none" stroke="#000000" stroke-width="0.459" x1="3247.4" y1="384.2" x2="3247.4" y2="369.4"/>
	<path d="M3234.7,368.2h12.9v2.4h-12.9V368.2z"/>
	<g enable-background="new    ">
		<path d="M3269.6,381.7c0.6,0,1,0.4,1,1c0,0.5-0.4,1-1,1s-1-0.4-1-1C3268.6,382.1,3269,381.7,3269.6,381.7z"/>
	</g>
	<line fill="none" stroke="#000000" stroke-width="0.459" x1="3266.2" y1="384.2" x2="3266.2" y2="368.2"/>
	<g enable-background="new    ">
		<path d="M3265.7,385.1c-0.3,0.9-1,1.5-1.6,1.8c-0.5,0.3-1.2,0.4-2,0.3c-0.5,0-1.3-0.2-1.6-0.7c-0.3-0.6-0.1-1.2,0-1.6
			c0.3-0.8,1-1.4,1.5-1.7c0.5-0.3,1.3-0.5,2.2-0.4c0.4,0,1.1,0.1,1.5,0.7C3266,384,3265.8,384.8,3265.7,385.1z M3263.7,383.8
			c-0.4,0.2-0.7,0.4-1,0.5c-0.3,0.2-0.6,0.4-1,0.6c-0.5,0.3-1.1,0.9-0.8,1.4c0.3,0.6,1.1,0.3,1.6,0c0.4-0.2,0.7-0.4,1-0.5
			c0.3-0.2,0.6-0.4,1-0.6c0.5-0.3,1.1-0.9,0.8-1.4C3265.1,383.2,3264.3,383.5,3263.7,383.8z"/>
	</g>
	<g enable-background="new    ">
		<path d="M3315.3,382.9c1.4,0,2.2,1,1.8,2.2c-0.4,1.2-1.9,2.2-3.4,2.2c-1.4,0-2.2-1-1.7-2.2
			C3312.4,383.8,3313.9,382.9,3315.3,382.9z"/>
	</g>
	<line fill="none" stroke="#000000" stroke-width="0.459" x1="3316.6" y1="384.2" x2="3316.6" y2="369.4"/>
	<g enable-background="new    ">
		<path d="M3330.1,382.9c1.4,0,2.2,1,1.8,2.2c-0.4,1.2-1.9,2.2-3.4,2.2c-1.4,0-2.2-1-1.7-2.2
			C3327.2,383.8,3328.7,382.9,3330.1,382.9z"/>
	</g>
	<line fill="none" stroke="#000000" stroke-width="0.459" x1="3331.4" y1="384.2" x2="3331.4" y2="369.4"/>
	<path d="M3316.3,368.2h15.3v2.4h-15.3V368.2z"/>
	<g enable-background="new    ">
		<path d="M3263.7,363.6v-0.7l2.4,0v2.1c-0.4,0.3-0.8,0.5-1.2,0.7c-0.4,0.1-0.8,0.2-1.2,0.2c-0.6,0-1.1-0.1-1.5-0.4
			c-0.5-0.2-0.8-0.6-1-1s-0.4-1-0.4-1.5c0-0.6,0.1-1.1,0.3-1.6c0.2-0.5,0.6-0.8,1-1.1s0.9-0.4,1.5-0.4c0.4,0,0.8,0.1,1.1,0.2
			c0.3,0.1,0.6,0.3,0.8,0.6c0.2,0.2,0.3,0.6,0.4,0.9l-0.7,0.2c-0.1-0.3-0.2-0.5-0.3-0.7c-0.1-0.2-0.3-0.3-0.5-0.4
			c-0.2-0.1-0.5-0.2-0.8-0.2c-0.3,0-0.6,0.1-0.9,0.2c-0.3,0.1-0.5,0.2-0.6,0.4c-0.2,0.2-0.3,0.4-0.4,0.6c-0.1,0.4-0.2,0.7-0.2,1.2
			c0,0.5,0.1,0.9,0.3,1.3s0.4,0.6,0.8,0.8s0.7,0.2,1.1,0.2c0.3,0,0.6-0.1,1-0.2s0.5-0.3,0.7-0.4v-1.1H3263.7z"/>
	</g>
	<g enable-background="new    ">
		<path d="M3350.1,385.3c1.4,0,2.2,1,1.8,2.2c-0.4,1.2-1.9,2.2-3.4,2.2c-1.4,0-2.2-1-1.7-2.2
			C3347.2,386.2,3348.7,385.3,3350.1,385.3z"/>
	</g>
	<line fill="none" stroke="#000000" stroke-width="0.459" x1="3351.4" y1="386.6" x2="3351.4" y2="371.8"/>
	<g enable-background="new    ">
		<path d="M3362.3,382.9c1.4,0,2.2,1,1.8,2.2c-0.4,1.2-1.9,2.2-3.4,2.2c-1.4,0-2.2-1-1.7-2.2
			C3359.4,383.8,3360.9,382.9,3362.3,382.9z"/>
	</g>
	<line fill="none" stroke="#000000" stroke-width="0.459" x1="3363.6" y1="384.2" x2="3363.6" y2="369.4"/>
	<path d="M3351.1,370.6l12.7-2.4v2.4l-12.7,2.4V370.6z"/>
	<line fill="none" stroke="#000000" stroke-width="0.459" x1="3376.2" y1="384.2" x2="3376.2" y2="368.2"/>
	<g enable-background="new    ">
		<path d="M3375.7,385.1c-0.3,0.9-1,1.5-1.6,1.8c-0.5,0.3-1.2,0.4-2,0.3c-0.5,0-1.3-0.2-1.6-0.7c-0.3-0.6-0.1-1.2,0-1.6
			c0.3-0.8,1-1.4,1.5-1.7c0.5-0.3,1.3-0.5,2.2-0.4c0.4,0,1.1,0.1,1.5,0.7C3376,384,3375.8,384.8,3375.7,385.1z M3373.7,383.8
			c-0.4,0.2-0.7,0.4-1,0.5c-0.3,0.2-0.6,0.4-1,0.6c-0.5,0.3-1.1,0.9-0.8,1.4c0.3,0.6,1.1,0.3,1.6,0c0.4-0.2,0.7-0.4,1-0.5
			c0.3-0.2,0.6-0.4,1-0.6c0.5-0.3,1.1-0.9,0.8-1.4C3375.1,383.2,3374.3,383.5,3373.7,383.8z"/>
	</g>
	<g enable-background="new    ">
		<path d="M3404.3,378.2c0.4,0,0.7-0.1,1.1-0.5c0.3-0.3,0.5-0.6,0.8-0.9l0.3,0.2l-2.1,8h-0.8c0,0,0.7-2.3,1.1-3.2
			c0.8-2.2,1-3.6,1-3.6c-0.5,0.4-1.6,1.2-2.5,1.2c-2,0.1-2.5-2.8-0.4-3.3C3404.2,375.8,3404.6,377.4,3404.3,378.2z"/>
	</g>
	<g enable-background="new    ">
		<path d="M3420,370.3c0.6,0.9,1.4,1.9,2.1,3.1c0.6,1.1,1.2,2.7,1.2,3.5c0.1,0.8,0.2,1.6,0.2,2.3c0,1.2-0.2,2.2-0.6,3.3l-0.2,0
			c0.3-0.9,0.5-2.2,0.5-3.3c0-0.9-0.2-2.1-0.5-3.1c-0.6-1.7-1.5-2.7-2.1-3.1c-0.8-0.6-1.8-0.6-1.8-0.6h-0.3v-5h0.3
			C3418.9,368.4,3419.4,369.5,3420,370.3z"/>
	</g>
	<line fill="none" stroke="#000000" stroke-width="0.459" x1="3418.4" y1="384.2" x2="3418.4" y2="368.2"/>
	<g enable-background="new    ">
		<path d="M3417.1,382.9c1.4,0,2.2,1,1.8,2.2c-0.4,1.2-1.9,2.2-3.4,2.2c-1.4,0-2.2-1-1.7-2.2
			C3414.2,383.8,3415.7,382.9,3417.1,382.9z"/>
	</g>
	<g enable-background="new    ">
		<path d="M3436.3,378.1c1.4,0,2.2,1,1.8,2.2c-0.4,1.2-1.9,2.2-3.4,2.2c-1.4,0-2.2-1-1.7-2.2C3433.4,379,3434.9,378.1,3436.3,378.1z
			"/>
	</g>
	<line fill="none" stroke="#000000" stroke-width="0.459" x1="3437.6" y1="379.4" x2="3437.6" y2="364.6"/>
	<g enable-background="new    ">
		<path d="M3448.9,378.1c1.4,0,2.2,1,1.8,2.2c-0.4,1.2-1.9,2.2-3.4,2.2c-1.4,0-2.2-1-1.7-2.2C3446,379,3447.5,378.1,3448.9,378.1z"
			/>
	</g>
	<line fill="none" stroke="#000000" stroke-width="0.459" x1="3450.2" y1="379.4" x2="3450.2" y2="364.6"/>
	<g enable-background="new    ">
		<path d="M3461.3,378.1c1.4,0,2.2,1,1.8,2.2c-0.4,1.2-1.9,2.2-3.4,2.2c-1.4,0-2.2-1-1.7-2.2C3458.4,379,3459.9,378.1,3461.3,378.1z
			"/>
	</g>
	<line fill="none" stroke="#000000" stroke-width="0.459" x1="3462.6" y1="379.4" x2="3462.6" y2="364.6"/>
	<g enable-background="new    ">
		<path d="M3473.9,380.5c1.4,0,2.2,1,1.8,2.2c-0.4,1.2-1.9,2.2-3.4,2.2c-1.4,0-2.2-1-1.7-2.2C3471,381.4,3472.5,380.5,3473.9,380.5z
			"/>
	</g>
	<line fill="none" stroke="#000000" stroke-width="0.459" x1="3475.2" y1="381.8" x2="3475.2" y2="364.6"/>
	<path d="M3437.3,363.4h38.1v2.4h-38.1V363.4z"/>
	<line fill="none" stroke="#000000" stroke-width="0.459" x1="3486.6" y1="381.8" x2="3486.6" y2="365.8"/>
	<g enable-background="new    ">
		<path d="M3486.1,382.7c-0.3,0.9-1,1.5-1.6,1.8c-0.5,0.3-1.2,0.4-2,0.3c-0.5,0-1.3-0.2-1.6-0.7c-0.3-0.6-0.1-1.2,0-1.6
			c0.3-0.8,1-1.4,1.5-1.7c0.5-0.3,1.3-0.5,2.2-0.4c0.4,0,1.1,0.1,1.5,0.7C3486.4,381.6,3486.2,382.4,3486.1,382.7z M3484.1,381.4
			c-0.4,0.2-0.7,0.4-1,0.5c-0.3,0.2-0.6,0.4-1,0.6c-0.5,0.3-1.1,0.9-0.8,1.4c0.3,0.6,1.1,0.3,1.6,0c0.4-0.2,0.7-0.4,1-0.5
			c0.3-0.2,0.6-0.4,1-0.6c0.5-0.3,1.1-0.9,0.8-1.4C3485.5,380.8,3484.7,381.1,3484.1,381.4z"/>
	</g>
	<g enable-background="new    ">
		<path d="M3522.5,382.9c1.4,0,2.2,1,1.8,2.2c-0.4,1.2-1.9,2.2-3.4,2.2s-2.2-1-1.7-2.2C3519.6,383.8,3521.1,382.9,3522.5,382.9z"/>
	</g>
	<line fill="none" stroke="#000000" stroke-width="0.459" x1="3523.8" y1="384.2" x2="3523.8" y2="369.4"/>
	<g enable-background="new    ">
		<path d="M3535.1,382.9c1.4,0,2.2,1,1.8,2.2c-0.4,1.2-1.9,2.2-3.4,2.2c-1.4,0-2.2-1-1.7-2.2
			C3532.2,383.8,3533.7,382.9,3535.1,382.9z"/>
	</g>
	<line fill="none" stroke="#000000" stroke-width="0.459" x1="3536.4" y1="384.2" x2="3536.4" y2="369.4"/>
	<g enable-background="new    ">
		<path d="M3547.5,382.9c1.4,0,2.2,1,1.8,2.2c-0.4,1.2-1.9,2.2-3.4,2.2s-2.2-1-1.7-2.2C3544.6,383.8,3546.1,382.9,3547.5,382.9z"/>
	</g>
	<line fill="none" stroke="#000000" stroke-width="0.459" x1="3548.8" y1="384.2" x2="3548.8" y2="369.4"/>
	<g enable-background="new    ">
		<path d="M3560.1,385.3c1.4,0,2.2,1,1.8,2.2c-0.4,1.2-1.9,2.2-3.4,2.2c-1.4,0-2.2-1-1.7-2.2
			C3557.2,386.2,3558.7,385.3,3560.1,385.3z"/>
	</g>
	<line fill="none" stroke="#000000" stroke-width="0.459" x1="3561.4" y1="386.6" x2="3561.4" y2="369.4"/>
	<path d="M3523.5,368.2h38.1v2.4h-38.1V368.2z"/>
	<line fill="none" stroke="#000000" stroke-width="0.459" x1="3573" y1="386.6" x2="3573" y2="370.6"/>
	<g enable-background="new    ">
		<path d="M3572.5,387.5c-0.3,0.9-1,1.5-1.6,1.8c-0.5,0.3-1.2,0.4-2,0.3c-0.5,0-1.3-0.2-1.6-0.7c-0.3-0.6-0.1-1.2,0-1.6
			c0.3-0.8,1-1.4,1.5-1.7c0.5-0.3,1.3-0.5,2.2-0.4c0.4,0,1.1,0.1,1.5,0.7C3572.8,386.4,3572.6,387.2,3572.5,387.5z M3570.5,386.2
			c-0.4,0.2-0.7,0.4-1,0.5c-0.3,0.2-0.6,0.4-1,0.6c-0.5,0.3-1.1,0.9-0.8,1.4c0.3,0.6,1.1,0.3,1.6,0c0.4-0.2,0.7-0.4,1-0.5
			c0.3-0.2,0.6-0.4,1-0.6c0.5-0.3,1.1-0.9,0.8-1.4C3571.9,385.6,3571.1,385.9,3570.5,386.2z"/>
	</g>
	<g enable-background="new    ">
		<path d="M3608.7,387.7c1.4,0,2.2,1,1.8,2.2c-0.4,1.2-1.9,2.2-3.4,2.2c-1.4,0-2.2-1-1.7-2.2
			C3605.8,388.6,3607.3,387.7,3608.7,387.7z"/>
	</g>
	<line fill="none" stroke="#000000" stroke-width="0.459" x1="3610" y1="389" x2="3610" y2="374.2"/>
	<g enable-background="new    ">
		<path d="M3618.9,387.7c1.4,0,2.2,1,1.8,2.2c-0.4,1.2-1.9,2.2-3.4,2.2c-1.4,0-2.2-1-1.7-2.2C3616,388.6,3617.5,387.7,3618.9,387.7z
			"/>
	</g>
	<line fill="none" stroke="#000000" stroke-width="0.459" x1="3620.2" y1="389" x2="3620.2" y2="374.2"/>
	<g enable-background="new    ">
		<path d="M3628.9,387.7c1.4,0,2.2,1,1.8,2.2c-0.4,1.2-1.9,2.2-3.4,2.2c-1.4,0-2.2-1-1.7-2.2C3626,388.6,3627.5,387.7,3628.9,387.7z
			"/>
	</g>
	<line fill="none" stroke="#000000" stroke-width="0.459" x1="3630.2" y1="389" x2="3630.2" y2="374.2"/>
	<g enable-background="new    ">
		<path d="M3639.1,387.7c1.4,0,2.2,1,1.8,2.2c-0.4,1.2-1.9,2.2-3.4,2.2c-1.4,0-2.2-1-1.7-2.2
			C3636.2,388.6,3637.7,387.7,3639.1,387.7z"/>
	</g>
	<line fill="none" stroke="#000000" stroke-width="0.459" x1="3640.4" y1="389" x2="3640.4" y2="374.2"/>
	<path d="M3609.7,373h30.9v2.4h-30.9V373z"/>
	<g enable-background="new    ">
		<path d="M3649.1,390.1c1.4,0,2.2,1,1.8,2.2c-0.4,1.2-1.9,2.2-3.4,2.2c-1.4,0-2.2-1-1.7-2.2C3646.2,391,3647.7,390.1,3649.1,390.1z
			"/>
	</g>
	<line fill="none" stroke="#000000" stroke-width="0.459" x1="3650.4" y1="391.4" x2="3650.4" y2="376.6"/>
	<g enable-background="new    ">
		<path d="M3659.3,390.1c1.4,0,2.2,1,1.8,2.2c-0.4,1.2-1.9,2.2-3.4,2.2c-1.4,0-2.2-1-1.7-2.2C3656.4,391,3657.9,390.1,3659.3,390.1z
			"/>
	</g>
	<line fill="none" stroke="#000000" stroke-width="0.459" x1="3660.6" y1="391.4" x2="3660.6" y2="376.6"/>
	<g enable-background="new    ">
		<path d="M3669.5,390.1c1.4,0,2.2,1,1.8,2.2c-0.4,1.2-1.9,2.2-3.4,2.2s-2.2-1-1.7-2.2C3666.6,391,3668.1,390.1,3669.5,390.1z"/>
	</g>
	<line fill="none" stroke="#000000" stroke-width="0.459" x1="3670.8" y1="391.4" x2="3670.8" y2="376.6"/>
	<g enable-background="new    ">
		<path d="M3679.5,390.1c1.4,0,2.2,1,1.8,2.2c-0.4,1.2-1.9,2.2-3.4,2.2s-2.2-1-1.7-2.2C3676.6,391,3678.1,390.1,3679.5,390.1z"/>
	</g>
	<line fill="none" stroke="#000000" stroke-width="0.459" x1="3680.8" y1="391.4" x2="3680.8" y2="376.6"/>
	<path d="M3650.1,375.4h30.9v2.4h-30.9V375.4z"/>
	<g enable-background="new    ">
		<path d="M3605.8,365.8v-5.7h2c0.4,0,0.8,0,1,0.1c0.3,0.1,0.6,0.2,0.8,0.4c0.3,0.3,0.5,0.6,0.7,1s0.2,0.9,0.2,1.4
			c0,0.4-0.1,0.8-0.2,1.2s-0.2,0.6-0.4,0.8s-0.3,0.4-0.5,0.5s-0.4,0.2-0.7,0.3s-0.6,0.1-0.9,0.1H3605.8z M3606.6,365.1h1.2
			c0.4,0,0.7,0,0.9-0.1s0.4-0.2,0.5-0.3c0.2-0.2,0.3-0.4,0.4-0.7s0.2-0.7,0.2-1.1c0-0.6-0.1-1.1-0.3-1.4s-0.4-0.5-0.7-0.6
			c-0.2-0.1-0.5-0.1-1-0.1h-1.2V365.1z"/>
	</g>
	<g enable-background="new    ">
		<path d="M3648.9,363.6v-0.7l2.4,0v2.1c-0.4,0.3-0.8,0.5-1.2,0.7c-0.4,0.1-0.8,0.2-1.2,0.2c-0.6,0-1.1-0.1-1.5-0.4
			c-0.5-0.2-0.8-0.6-1-1s-0.4-1-0.4-1.5c0-0.6,0.1-1.1,0.3-1.6c0.2-0.5,0.6-0.8,1-1.1s0.9-0.4,1.5-0.4c0.4,0,0.8,0.1,1.1,0.2
			c0.3,0.1,0.6,0.3,0.8,0.6c0.2,0.2,0.3,0.6,0.4,0.9l-0.7,0.2c-0.1-0.3-0.2-0.5-0.3-0.7c-0.1-0.2-0.3-0.3-0.5-0.4
			c-0.2-0.1-0.5-0.2-0.8-0.2c-0.3,0-0.6,0.1-0.9,0.2c-0.3,0.1-0.5,0.2-0.6,0.4c-0.2,0.2-0.3,0.4-0.4,0.6c-0.1,0.4-0.2,0.7-0.2,1.2
			c0,0.5,0.1,0.9,0.3,1.3s0.4,0.6,0.8,0.8s0.7,0.2,1.1,0.2c0.3,0,0.6-0.1,1-0.2s0.5-0.3,0.7-0.4v-1.1H3648.9z"/>
	</g>
	<line fill="none" stroke="#000000" stroke-width="0.459" x1="3698.6" y1="393.8" x2="3698.6" y2="377.8"/>
	<line fill="none" stroke="#000000" stroke-width="0.459" x1="3691.6" y1="394.6" x2="3700" y2="394.6"/>
	<g enable-background="new    ">
		<path d="M3698.1,394.7c-0.3,0.9-1,1.5-1.6,1.8c-0.5,0.3-1.2,0.4-2,0.3c-0.5,0-1.3-0.2-1.6-0.7c-0.3-0.6-0.1-1.2,0-1.6
			c0.3-0.8,1-1.4,1.5-1.7c0.5-0.3,1.3-0.5,2.2-0.4c0.4,0,1.1,0.1,1.5,0.7C3698.4,393.6,3698.2,394.4,3698.1,394.7z M3696.1,393.4
			c-0.4,0.2-0.7,0.4-1,0.5c-0.3,0.2-0.6,0.4-1,0.6c-0.5,0.3-1.1,0.9-0.8,1.4c0.3,0.6,1.1,0.3,1.6,0c0.4-0.2,0.7-0.4,1-0.5
			c0.3-0.2,0.6-0.4,1-0.6c0.5-0.3,1.1-0.9,0.8-1.4C3697.5,392.8,3696.7,393.1,3696.1,393.4z"/>
	</g>
	<g enable-background="new    ">
		<path d="M3733,384c-0.8,0-1.5,0.5-1.5,1.4c0,0.6,1,1.5,1,1.5l-0.2,0.2c0,0-2.2-1.3-2.5-2.7c-0.1-0.9,0.5-1.8,1.6-1.9
			c0.4,0,1.2,0.1,1.5,0.2c-1.8-1.8-2.8-3-2.7-3.4c0.4-0.4,1.7-2.1,1.7-3.4c0-0.9-1.3-2.9-1.3-2.9l0.3-0.2l3.5,4.4c0,0-1.7,2-1.7,3.4
			c0,1,0.6,1.8,1.1,2.3c0.2,0.3,1,1.1,1,1.2l0,0.3C3733.9,384.1,3733.4,384,3733,384z"/>
	</g>
	<g enable-background="new    ">
		<path d="M3755.6,384c-0.8,0-1.5,0.5-1.5,1.4c0,0.6,1,1.5,1,1.5l-0.2,0.2c0,0-2.2-1.3-2.5-2.7c-0.1-0.9,0.5-1.8,1.6-1.9
			c0.4,0,1.2,0.1,1.5,0.2c-1.8-1.8-2.8-3-2.7-3.4c0.4-0.4,1.7-2.1,1.7-3.4c0-0.9-1.3-2.9-1.3-2.9l0.3-0.2l3.5,4.4c0,0-1.7,2-1.7,3.4
			c0,1,0.6,1.8,1.1,2.3c0.2,0.3,1,1.1,1,1.2l0,0.3C3756.5,384.1,3756,384,3755.6,384z"/>
	</g>
	<g enable-background="new    ">
		<path d="M3697.5,363.8l0.8,0.2c-0.2,0.6-0.4,1.1-0.9,1.4s-0.9,0.5-1.5,0.5c-0.6,0-1.1-0.1-1.5-0.4s-0.7-0.6-0.9-1.1
			s-0.3-1-0.3-1.5c0-0.6,0.1-1.1,0.3-1.6s0.6-0.8,1-1s0.9-0.3,1.4-0.3c0.6,0,1.1,0.1,1.4,0.4s0.7,0.7,0.8,1.2l-0.7,0.2
			c-0.1-0.4-0.3-0.7-0.6-0.9s-0.6-0.3-1-0.3c-0.4,0-0.8,0.1-1.1,0.3s-0.5,0.5-0.6,0.8s-0.2,0.7-0.2,1.1c0,0.5,0.1,0.9,0.2,1.3
			s0.4,0.6,0.7,0.8s0.6,0.3,1,0.3c0.4,0,0.8-0.1,1.1-0.4S3697.4,364.3,3697.5,363.8z"/>
	</g>
	<path d="M1119.6,388.2c1.6,4.8,6.2,4.8,7.8,0l-0.2-0.1c-1.4,3.7-6,3.7-7.4,0L1119.6,388.2z"/>
	<path d="M1291.6,388.2c1.8,4.8,7.2,4.8,9,0l-0.2-0.1c-1.6,3.7-7,3.7-8.6,0L1291.6,388.2z"/>
	<path d="M1403.4,386c1.6,3.6,6,3.6,7.6,0l-0.2-0.1c-1.4,2.5-5.8,2.5-7.2,0L1403.4,386z"/>
	<path d="M1489.6,390.6c1.6,3.6,6.2,3.6,7.8,0l-0.2-0.1c-1.4,2.5-6,2.5-7.4,0L1489.6,390.6z"/>
	<path d="M1809.4,388.2c1.6,4.8,6,4.8,7.6,0l-0.2-0.1c-1.4,3.7-5.8,3.7-7.2,0L1809.4,388.2z"/>
	<path d="M1981.4,388.2c1.8,4.8,7,4.8,8.8,0l-0.2-0.1c-1.6,3.7-6.8,3.7-8.4,0L1981.4,388.2z"/>
	<path d="M2092.8,386c1.6,3.6,6.2,3.6,7.8,0l-0.2-0.1c-1.4,2.5-6,2.5-7.4,0L2092.8,386z"/>
	<path d="M2179.2,390.6c1.6,3.6,6.2,3.6,7.8,0l-0.2-0.1c-1.4,2.5-6,2.5-7.4,0L2179.2,390.6z"/>
	<path d="M3190.8,388.2c1.6,4.8,6.2,4.8,7.8,0l-0.2-0.1c-1.4,3.7-6,3.7-7.4,0L3190.8,388.2z"/>
	<path d="M3362.8,388.2c1.8,4.8,7.4,4.8,9.2,0l-0.2-0.1c-1.6,3.7-7.2,3.7-8.8,0L3362.8,388.2z"/>
	<path d="M3474.6,386c1.6,3.6,6,3.6,7.6,0l-0.2-0.1c-1.4,2.5-5.8,2.5-7.2,0L3474.6,386z"/>
	<path d="M3560.6,390.6c1.6,3.6,6.4,3.6,8,0l-0.2-0.1c-1.4,2.5-6.2,2.5-7.6,0L3560.6,390.6z"/>
	<g enable-background="new    ">
		<path d="M3740.5,361.2v-4.6h3.1v0.5h-2.5v1.4h2.2v0.5h-2.2v2.1H3740.5z"/>
		<path d="M3746.5,360.1l0.6,0.1c-0.1,0.3-0.3,0.6-0.5,0.8s-0.6,0.3-0.9,0.3c-0.5,0-0.9-0.1-1.2-0.4c-0.3-0.3-0.4-0.7-0.4-1.3
			c0-0.6,0.1-1,0.4-1.3c0.3-0.3,0.7-0.5,1.1-0.5c0.4,0,0.8,0.2,1.1,0.5s0.4,0.7,0.4,1.3c0,0,0,0.1,0,0.2h-2.5c0,0.4,0.1,0.6,0.3,0.8
			c0.2,0.2,0.4,0.3,0.7,0.3c0.2,0,0.4-0.1,0.5-0.2C3746.3,360.5,3746.5,360.4,3746.5,360.1z M3744.7,359.2h1.9
			c0-0.3-0.1-0.5-0.2-0.6c-0.2-0.2-0.4-0.3-0.7-0.3c-0.3,0-0.5,0.1-0.7,0.3C3744.8,358.7,3744.7,358.9,3744.7,359.2z"/>
		<path d="M3747.8,361.2v-4.6h0.6v4.6H3747.8z"/>
		<path d="M3749.3,357.3v-0.6h0.6v0.6H3749.3z M3749.3,361.2v-3.3h0.6v3.3H3749.3z"/>
		<path d="M3750.3,361.2l1.2-1.7l-1.1-1.6h0.7l0.5,0.8c0.1,0.1,0.2,0.3,0.2,0.4c0.1-0.1,0.2-0.3,0.3-0.4l0.6-0.8h0.7l-1.1,1.6
			l1.2,1.8h-0.7l-0.7-1l-0.2-0.3l-0.9,1.3H3750.3z"/>
		<path d="M3755.7,361.2v-4.6h1.7c0.3,0,0.6,0,0.8,0.1s0.4,0.2,0.5,0.4c0.1,0.2,0.2,0.4,0.2,0.6c0,0.2-0.1,0.4-0.2,0.6
			c-0.1,0.2-0.3,0.3-0.5,0.4c0.3,0.1,0.5,0.2,0.6,0.4c0.1,0.2,0.2,0.4,0.2,0.7c0,0.2,0,0.4-0.1,0.6c-0.1,0.2-0.2,0.3-0.3,0.4
			c-0.1,0.1-0.3,0.2-0.5,0.2c-0.2,0.1-0.4,0.1-0.7,0.1H3755.7z M3756.3,358.5h1c0.3,0,0.5,0,0.6-0.1c0.2,0,0.3-0.1,0.3-0.2
			s0.1-0.2,0.1-0.4c0-0.2,0-0.3-0.1-0.4c-0.1-0.1-0.2-0.2-0.3-0.2c-0.1,0-0.4-0.1-0.7-0.1h-0.9V358.5z M3756.3,360.7h1.1
			c0.2,0,0.3,0,0.4,0c0.1,0,0.3-0.1,0.4-0.1s0.2-0.1,0.2-0.3s0.1-0.2,0.1-0.4c0-0.2,0-0.3-0.1-0.4s-0.2-0.2-0.4-0.3
			c-0.2-0.1-0.4-0.1-0.7-0.1h-1.1V360.7z"/>
		<path d="M3762.2,360.1l0.6,0.1c-0.1,0.3-0.3,0.6-0.5,0.8s-0.6,0.3-0.9,0.3c-0.5,0-0.9-0.1-1.2-0.4c-0.3-0.3-0.4-0.7-0.4-1.3
			c0-0.6,0.1-1,0.4-1.3c0.3-0.3,0.7-0.5,1.1-0.5c0.4,0,0.8,0.2,1.1,0.5s0.4,0.7,0.4,1.3c0,0,0,0.1,0,0.2h-2.5c0,0.4,0.1,0.6,0.3,0.8
			c0.2,0.2,0.4,0.3,0.7,0.3c0.2,0,0.4-0.1,0.5-0.2C3762,360.5,3762.1,360.4,3762.2,360.1z M3760.3,359.2h1.9c0-0.3-0.1-0.5-0.2-0.6
			c-0.2-0.2-0.4-0.3-0.7-0.3c-0.3,0-0.5,0.1-0.7,0.3C3760.5,358.7,3760.4,358.9,3760.3,359.2z"/>
		<path d="M3763.5,361.2v-3.3h0.5v0.5c0.1-0.2,0.2-0.4,0.4-0.5s0.2-0.1,0.4-0.1c0.2,0,0.4,0.1,0.6,0.2l-0.2,0.5
			c-0.1-0.1-0.3-0.1-0.4-0.1c-0.1,0-0.2,0-0.3,0.1c-0.1,0.1-0.2,0.2-0.2,0.3c-0.1,0.2-0.1,0.4-0.1,0.7v1.7H3763.5z"/>
		<path d="M3765.6,361.2v-3.3h0.5v0.5c0.2-0.4,0.6-0.5,1.1-0.5c0.2,0,0.4,0,0.6,0.1c0.2,0.1,0.3,0.2,0.4,0.3
			c0.1,0.1,0.1,0.3,0.2,0.4c0,0.1,0,0.3,0,0.5v2h-0.6v-2c0-0.2,0-0.4-0.1-0.5c0-0.1-0.1-0.2-0.2-0.3s-0.2-0.1-0.4-0.1
			c-0.2,0-0.4,0.1-0.6,0.2c-0.2,0.2-0.3,0.4-0.3,0.9v1.8H3765.6z"/>
		<path d="M3771.3,360.8c-0.2,0.2-0.4,0.3-0.6,0.4c-0.2,0.1-0.4,0.1-0.6,0.1c-0.4,0-0.6-0.1-0.8-0.3c-0.2-0.2-0.3-0.4-0.3-0.7
			c0-0.2,0-0.3,0.1-0.4c0.1-0.1,0.2-0.2,0.3-0.3s0.3-0.1,0.4-0.2c0.1,0,0.3-0.1,0.5-0.1c0.5-0.1,0.8-0.1,1-0.2c0-0.1,0-0.1,0-0.1
			c0-0.2-0.1-0.4-0.2-0.5c-0.1-0.1-0.4-0.2-0.6-0.2c-0.3,0-0.5,0-0.6,0.1c-0.1,0.1-0.2,0.3-0.3,0.5l-0.5-0.1c0-0.2,0.1-0.4,0.2-0.6
			c0.1-0.1,0.3-0.3,0.5-0.3s0.5-0.1,0.8-0.1c0.3,0,0.5,0,0.7,0.1c0.2,0.1,0.3,0.2,0.4,0.3c0.1,0.1,0.1,0.2,0.2,0.4
			c0,0.1,0,0.3,0,0.5v0.8c0,0.5,0,0.9,0,1c0,0.1,0.1,0.3,0.1,0.4h-0.6C3771.4,361.1,3771.4,360.9,3771.3,360.8z M3771.3,359.5
			c-0.2,0.1-0.5,0.2-0.9,0.2c-0.2,0-0.4,0.1-0.5,0.1c-0.1,0-0.2,0.1-0.2,0.2c-0.1,0.1-0.1,0.2-0.1,0.3c0,0.2,0.1,0.3,0.2,0.4
			c0.1,0.1,0.3,0.2,0.5,0.2c0.2,0,0.4,0,0.6-0.1s0.3-0.2,0.4-0.4c0.1-0.1,0.1-0.3,0.1-0.6V359.5z"/>
		<path d="M3772.7,361.2v-3.3h0.5v0.5c0.1-0.2,0.2-0.4,0.4-0.5s0.2-0.1,0.4-0.1c0.2,0,0.4,0.1,0.6,0.2l-0.2,0.5
			c-0.1-0.1-0.3-0.1-0.4-0.1c-0.1,0-0.2,0-0.3,0.1c-0.1,0.1-0.2,0.2-0.2,0.3c-0.1,0.2-0.1,0.4-0.1,0.7v1.7H3772.7z"/>
		<path d="M3777,361.2v-0.4c-0.2,0.3-0.5,0.5-0.9,0.5c-0.3,0-0.5-0.1-0.7-0.2c-0.2-0.1-0.4-0.3-0.5-0.6c-0.1-0.3-0.2-0.6-0.2-0.9
			c0-0.3,0.1-0.6,0.2-0.9s0.3-0.5,0.5-0.6c0.2-0.1,0.5-0.2,0.7-0.2c0.2,0,0.4,0,0.5,0.1c0.2,0.1,0.3,0.2,0.4,0.3v-1.6h0.6v4.6H3777z
			 M3775.2,359.5c0,0.4,0.1,0.7,0.3,1c0.2,0.2,0.4,0.3,0.6,0.3c0.2,0,0.5-0.1,0.6-0.3c0.2-0.2,0.3-0.5,0.3-0.9c0-0.5-0.1-0.8-0.3-1
			c-0.2-0.2-0.4-0.3-0.6-0.3c-0.2,0-0.5,0.1-0.6,0.3S3775.2,359.1,3775.2,359.5z"/>
	</g>
</g>
</svg>
