<?xml version="1.0" encoding="utf-8"?>
<!-- Generator: Adobe Illustrator 16.0.0, SVG Export Plug-In . SVG Version: 6.00 Build 0)  -->
<!DOCTYPE svg PUBLIC "-//W3C//DTD SVG 1.1//EN" "http://www.w3.org/Graphics/SVG/1.1/DTD/svg11.dtd">
<svg version="1.1" id="Layer_1" xmlns="http://www.w3.org/2000/svg" xmlns:xlink="http://www.w3.org/1999/xlink" x="0px" y="0px"
	 width="1152px" height="54px" viewBox="-63 277.5 1152 54" enable-background="new -63 277.5 1152 54" xml:space="preserve">
<g id="Music">
	<rect x="-63" y="157.9" fill="#FFFFFF" width="1152" height="170"/>
	<line fill="none" stroke="#000000" stroke-width="0.459" x1="-34.6" y1="181.5" x2="-34.6" y2="315.5"/>
	<g enable-background="new    ">
		<path d="M-24.8,314.8c-4-1.9-4.6-4.3-4.8-6.8c-0.2-2.7,1.5-5.4,3.1-6.9c0.9-0.9,1.9-1.7,3.1-2.6c0-0.7-0.2-0.9-0.3-1.9
			c0-0.4-0.3-2.3,0.1-4.5c0.2-1.3,1.9-4.3,3-4.3c0.9,0,2.2,3.4,2.2,5.2c0.1,2.7-0.6,3.9-1.4,5.3c-0.4,0.7-0.8,1.2-1.3,1.7
			c-0.5,0.6-1,0.9-1.5,1.3c0,0,0.6,3.5,0.6,3.7c1.2-0.2,2.7,0.3,3.3,0.7c1.4,1,1.9,2.4,2,3.8c0.2,2.2-1,4.5-3.6,5.5
			c0,0,0.4,2.8,0.5,3.3c0.2,1.5,0.2,2.5-0.2,3.1c-0.6,1-1.5,2-3.2,2.1c-1.3,0.1-4-0.6-4.1-2.7c-0.1-1.2,0.5-2.6,2-2.7
			c0.9-0.1,2,0.7,2.1,1.8c0.1,0.9-0.5,1.9-2.1,2.4c0.2,0.3,1,0.7,2.1,0.7c1.1,0,2.3-0.7,2.8-1.7c0.3-0.7,0.3-1.8,0.2-2.9
			c-0.1-0.4-0.5-3.3-0.5-3.3C-22.1,315.4-24,315.2-24.8,314.8z M-24.5,310.3c0,0.9,0.8,2,1.5,2.4c-0.1,0.1-0.2,0.2-0.2,0.2
			c-0.8-0.4-1.5-1-1.6-1.2c-0.6-0.7-0.8-1.2-0.9-2.3c-0.1-1.1,0.5-2.5,1.8-3.5c0.7-0.5,1-0.6,1.6-0.7l-0.6-3.5
			c-0.6,0.3-3.1,2.3-4.1,3.9c-0.9,1.4-1.5,2.6-1.4,4c0.2,3.2,3.7,5.8,7.5,4.9c0,0-1.1-6.8-1.1-6.8C-24,307.8-24.5,309.4-24.5,310.3z
			 M-22.9,298.1c1.7-1.3,3.9-3.8,3.8-5.7c0-0.6-0.3-1.7-1.2-1.7C-22.2,290.8-23.3,295-22.9,298.1z M-20.3,314.3
			c2.2-0.7,2.3-2.6,2.2-3.8c-0.1-0.9-0.5-3.1-3.3-2.9L-20.3,314.3z"/>
	</g>
	<g enable-background="new    ">
		<path d="M-4.4,312.4v1.3c0,0.8,0.9,0.7,0.9,0.7v0.5h-4.2v-0.5c0,0,0.9,0,0.9-0.7v-1.3h-3.6l-0.3-0.4c2.3-3.1,2.3-3.7,2.9-6.5h3.3
			c-0.8,1.5-3.4,4.2-5.3,6.4h3v-2.4l2.3-2.6v4.9H-3v0.5H-4.4z"/>
	</g>
	<g enable-background="new    ">
		<path d="M-4.4,302.8v1.3c0,0.8,0.9,0.7,0.9,0.7v0.5h-4.2v-0.5c0,0,0.9,0,0.9-0.7v-1.3h-3.6l-0.3-0.4c2.3-3.1,2.3-3.7,2.9-6.5h3.3
			c-0.8,1.5-3.4,4.2-5.3,6.4h3v-2.4l2.3-2.6v4.9H-3v0.5H-4.4z"/>
	</g>
	<line fill="none" stroke="#000000" stroke-width="0.459" x1="65.4" y1="295.9" x2="65.4" y2="315.1"/>
	<line fill="none" stroke="#000000" stroke-width="0.459" x1="131.4" y1="295.9" x2="131.4" y2="315.1"/>
	<line fill="none" stroke="#000000" stroke-width="0.459" x1="197.4" y1="295.9" x2="197.4" y2="315.1"/>
	<line fill="none" stroke="#000000" stroke-width="0.459" x1="263.4" y1="295.9" x2="263.4" y2="315.1"/>
	<line fill="none" stroke="#000000" stroke-width="0.459" x1="329.4" y1="295.9" x2="329.4" y2="315.1"/>
	<line fill="none" stroke="#000000" stroke-width="0.459" x1="395.4" y1="295.9" x2="395.4" y2="315.1"/>
	<line fill="none" stroke="#000000" stroke-width="0.459" x1="461.4" y1="295.9" x2="461.4" y2="315.1"/>
	<line fill="none" stroke="#000000" stroke-width="0.459" x1="527.4" y1="295.9" x2="527.4" y2="315.1"/>
	<line fill="none" stroke="#000000" stroke-width="0.459" x1="593.4" y1="295.9" x2="593.4" y2="315.1"/>
	<line fill="none" stroke="#000000" stroke-width="0.459" x1="659.4" y1="295.9" x2="659.4" y2="315.1"/>
	<line fill="none" stroke="#000000" stroke-width="0.459" x1="725.4" y1="295.9" x2="725.4" y2="315.1"/>
	<line fill="none" stroke="#000000" stroke-width="0.459" x1="791.4" y1="295.9" x2="791.4" y2="315.1"/>
	<line fill="none" stroke="#000000" stroke-width="0.459" x1="857.4" y1="295.9" x2="857.4" y2="315.1"/>
	<line fill="none" stroke="#000000" stroke-width="0.459" x1="923.4" y1="295.9" x2="923.4" y2="315.1"/>
	<line fill="none" stroke="#000000" stroke-width="0.459" x1="989.4" y1="295.9" x2="989.4" y2="315.1"/>
	<line fill="none" stroke="#000000" stroke-width="2.419" x1="1059.6" y1="295.9" x2="1059.6" y2="315.1"/>
	<line fill="none" stroke="#000000" stroke-width="0.459" x1="1055.7" y1="295.9" x2="1055.7" y2="315.1"/>
	<line fill="none" stroke="#000000" stroke-width="0.459" x1="-34.8" y1="295.9" x2="1060.8" y2="295.9"/>
	<line fill="none" stroke="#000000" stroke-width="0.459" x1="-34.8" y1="300.7" x2="1060.8" y2="300.7"/>
	<line fill="none" stroke="#000000" stroke-width="0.459" x1="-34.8" y1="305.5" x2="1060.8" y2="305.5"/>
	<line fill="none" stroke="#000000" stroke-width="0.459" x1="-34.8" y1="310.3" x2="1060.8" y2="310.3"/>
	<line fill="none" stroke="#000000" stroke-width="0.459" x1="-34.8" y1="315.1" x2="1060.8" y2="315.1"/>
	<line fill="none" stroke="#000000" stroke-width="0.459" x1="10.2" y1="316.7" x2="10.2" y2="300.7"/>
	<g enable-background="new    ">
		<path d="M10.5,317.6c-0.4,1-1.2,1.8-1.8,2.1c-0.6,0.3-1.4,0.4-2.2,0.4c-0.5,0-1.5-0.2-1.8-0.8c-0.4-0.7-0.1-1.4,0-1.8
			c0.4-1,1.1-1.6,1.7-2c0.6-0.3,1.5-0.6,2.5-0.5c0.4,0.1,1.3,0.1,1.7,0.8C10.8,316.3,10.6,317.3,10.5,317.6z M8.2,316.1
			c-0.4,0.2-0.7,0.4-1.1,0.6c-0.4,0.2-0.7,0.4-1.1,0.7c-0.6,0.3-1.3,1-0.9,1.6c0.4,0.6,1.3,0.3,1.9,0c0.4-0.2,0.8-0.4,1.2-0.6
			s0.7-0.4,1.1-0.7c0.5-0.3,1.3-1,0.9-1.6C9.7,315.5,8.8,315.8,8.2,316.1z"/>
	</g>
	<line fill="none" stroke="#000000" stroke-width="0.459" x1="50.6" y1="307.1" x2="50.6" y2="291.1"/>
	<g enable-background="new    ">
		<path d="M50.9,308c-0.4,1-1.2,1.8-1.8,2.1c-0.6,0.3-1.4,0.4-2.2,0.4c-0.5,0-1.5-0.2-1.8-0.8c-0.4-0.7-0.1-1.4,0-1.8
			c0.4-1,1.1-1.6,1.7-2c0.6-0.3,1.5-0.6,2.5-0.5c0.4,0.1,1.3,0.1,1.7,0.8C51.2,306.7,51,307.7,50.9,308z M48.6,306.5
			c-0.4,0.2-0.7,0.4-1.1,0.6c-0.4,0.2-0.7,0.4-1.1,0.7c-0.6,0.3-1.3,1-0.9,1.6c0.4,0.6,1.3,0.3,1.9,0c0.4-0.2,0.8-0.4,1.2-0.6
			s0.7-0.4,1.1-0.7c0.5-0.3,1.3-1,0.9-1.6C50.1,305.9,49.2,306.2,48.6,306.5z"/>
	</g>
	<line fill="none" stroke="#000000" stroke-width="0.459" x1="76.2" y1="314.3" x2="76.2" y2="298.3"/>
	<g enable-background="new    ">
		<path d="M74.4,312.7c1.6,0,2.5,1.1,2,2.5c-0.5,1.4-2.2,2.5-3.8,2.5c-1.6,0-2.5-1.2-2-2.5C71.1,313.8,72.8,312.7,74.4,312.7z"/>
	</g>
	<line fill="none" stroke="#000000" stroke-width="0.459" x1="91.4" y1="314.3" x2="91.4" y2="298.3"/>
	<g enable-background="new    ">
		<path d="M89.6,312.7c1.6,0,2.5,1.1,2,2.5c-0.5,1.4-2.2,2.5-3.8,2.5c-1.6,0-2.5-1.2-2-2.5C86.3,313.8,88,312.7,89.6,312.7z"/>
	</g>
	<line fill="none" stroke="#000000" stroke-width="0.459" x1="101" y1="299.1" x2="101" y2="315.1"/>
	<g enable-background="new    ">
		<path d="M106.9,298.4c-0.4,1-1.2,1.8-1.8,2.1c-0.6,0.3-1.4,0.4-2.2,0.4c-0.5,0-1.5-0.2-1.8-0.8c-0.4-0.7-0.1-1.4,0-1.8
			c0.4-1,1.1-1.6,1.7-2c0.6-0.3,1.5-0.6,2.5-0.5c0.4,0.1,1.3,0.1,1.7,0.8C107.2,297.1,107,298.1,106.9,298.4z M104.6,296.9
			c-0.4,0.2-0.7,0.4-1.1,0.6c-0.4,0.2-0.7,0.4-1.1,0.7c-0.6,0.3-1.3,1-0.9,1.6c0.4,0.6,1.3,0.3,1.9,0c0.4-0.2,0.8-0.4,1.2-0.6
			s0.7-0.4,1.1-0.7c0.5-0.3,1.3-1,0.9-1.6C106.1,296.3,105.2,296.6,104.6,296.9z"/>
	</g>
	<line fill="none" stroke="#000000" stroke-width="0.459" x1="148.4" y1="314.3" x2="148.4" y2="298.3"/>
	<g enable-background="new    ">
		<path d="M148.7,315.2c-0.4,1-1.2,1.8-1.8,2.1c-0.6,0.3-1.4,0.4-2.2,0.4c-0.5,0-1.5-0.2-1.8-0.8c-0.4-0.7-0.1-1.4,0-1.8
			c0.4-1,1.1-1.6,1.7-2c0.6-0.3,1.5-0.6,2.5-0.5c0.4,0.1,1.3,0.1,1.7,0.8C149,313.9,148.8,314.9,148.7,315.2z M146.4,313.7
			c-0.4,0.2-0.7,0.4-1.1,0.6c-0.4,0.2-0.7,0.4-1.1,0.7c-0.6,0.3-1.3,1-0.9,1.6c0.4,0.6,1.3,0.3,1.9,0c0.4-0.2,0.8-0.4,1.2-0.6
			s0.7-0.4,1.1-0.7c0.5-0.3,1.3-1,0.9-1.6C147.9,313.1,147,313.4,146.4,313.7z"/>
	</g>
	<line fill="none" stroke="#000000" stroke-width="0.459" x1="177.2" y1="307.1" x2="177.2" y2="291.1"/>
	<g enable-background="new    ">
		<path d="M177.5,308c-0.4,1-1.2,1.8-1.8,2.1c-0.6,0.3-1.4,0.4-2.2,0.4c-0.5,0-1.5-0.2-1.8-0.8c-0.4-0.7-0.1-1.4,0-1.8
			c0.4-1,1.1-1.6,1.7-2c0.6-0.3,1.5-0.6,2.5-0.5c0.4,0.1,1.3,0.1,1.7,0.8C177.8,306.7,177.6,307.7,177.5,308z M175.2,306.5
			c-0.4,0.2-0.7,0.4-1.1,0.6c-0.4,0.2-0.7,0.4-1.1,0.7c-0.6,0.3-1.3,1-0.9,1.6c0.4,0.6,1.3,0.3,1.9,0c0.4-0.2,0.8-0.4,1.2-0.6
			s0.7-0.4,1.1-0.7c0.5-0.3,1.3-1,0.9-1.6C176.7,305.9,175.8,306.2,175.2,306.5z"/>
	</g>
	<line fill="none" stroke="#000000" stroke-width="0.459" x1="214.4" y1="316.7" x2="214.4" y2="300.7"/>
	<g enable-background="new    ">
		<path d="M212.6,315.1c1.6,0,2.5,1.1,2,2.5c-0.5,1.4-2.2,2.5-3.8,2.5c-1.6,0-2.5-1.2-2-2.5C209.3,316.2,211,315.1,212.6,315.1z"/>
	</g>
	<line fill="none" stroke="#000000" stroke-width="0.459" x1="229.4" y1="316.7" x2="229.4" y2="300.7"/>
	<g enable-background="new    ">
		<path d="M227.6,315.1c1.6,0,2.5,1.1,2,2.5c-0.5,1.4-2.2,2.5-3.8,2.5c-1.6,0-2.5-1.2-2-2.5C224.3,316.2,226,315.1,227.6,315.1z"/>
	</g>
	<line fill="none" stroke="#000000" stroke-width="0.459" x1="239" y1="301.5" x2="239" y2="317.5"/>
	<g enable-background="new    ">
		<path d="M244.9,300.8c-0.4,1-1.2,1.8-1.8,2.1c-0.6,0.3-1.4,0.4-2.2,0.4c-0.5,0-1.5-0.2-1.8-0.8c-0.4-0.7-0.1-1.4,0-1.8
			c0.4-1,1.1-1.6,1.7-2c0.6-0.3,1.5-0.6,2.5-0.5c0.4,0.1,1.3,0.1,1.7,0.8C245.2,299.5,245,300.5,244.9,300.8z M242.6,299.3
			c-0.4,0.2-0.7,0.4-1.1,0.6c-0.4,0.2-0.7,0.4-1.1,0.7c-0.6,0.3-1.3,1-0.9,1.6c0.4,0.6,1.3,0.3,1.9,0c0.4-0.2,0.8-0.4,1.2-0.6
			s0.7-0.4,1.1-0.7c0.5-0.3,1.3-1,0.9-1.6C244.1,298.7,243.2,299,242.6,299.3z"/>
	</g>
	<line fill="none" stroke="#000000" stroke-width="0.459" x1="274.2" y1="316.7" x2="274.2" y2="300.7"/>
	<g enable-background="new    ">
		<path d="M274.5,317.6c-0.4,1-1.2,1.8-1.8,2.1c-0.6,0.3-1.4,0.4-2.2,0.4c-0.5,0-1.5-0.2-1.8-0.8c-0.4-0.7-0.1-1.4,0-1.8
			c0.4-1,1.1-1.6,1.7-2c0.6-0.3,1.5-0.6,2.5-0.5c0.4,0.1,1.3,0.1,1.7,0.8C274.8,316.3,274.6,317.3,274.5,317.6z M272.2,316.1
			c-0.4,0.2-0.7,0.4-1.1,0.6c-0.4,0.2-0.7,0.4-1.1,0.7c-0.6,0.3-1.3,1-0.9,1.6c0.4,0.6,1.3,0.3,1.9,0c0.4-0.2,0.8-0.4,1.2-0.6
			s0.7-0.4,1.1-0.7c0.5-0.3,1.3-1,0.9-1.6C273.7,315.5,272.8,315.8,272.2,316.1z"/>
	</g>
	<line fill="none" stroke="#000000" stroke-width="0.459" x1="314.6" y1="307.1" x2="314.6" y2="291.1"/>
	<g enable-background="new    ">
		<path d="M314.9,308c-0.4,1-1.2,1.8-1.8,2.1c-0.6,0.3-1.4,0.4-2.2,0.4c-0.5,0-1.5-0.2-1.8-0.8c-0.4-0.7-0.1-1.4,0-1.8
			c0.4-1,1.1-1.6,1.7-2c0.6-0.3,1.5-0.6,2.5-0.5c0.4,0.1,1.3,0.1,1.7,0.8C315.2,306.7,315,307.7,314.9,308z M312.6,306.5
			c-0.4,0.2-0.7,0.4-1.1,0.6c-0.4,0.2-0.7,0.4-1.1,0.7c-0.6,0.3-1.3,1-0.9,1.6c0.4,0.6,1.3,0.3,1.9,0c0.4-0.2,0.8-0.4,1.2-0.6
			s0.7-0.4,1.1-0.7c0.5-0.3,1.3-1,0.9-1.6C314.1,305.9,313.2,306.2,312.6,306.5z"/>
	</g>
	<line fill="none" stroke="#000000" stroke-width="0.459" x1="340.2" y1="314.3" x2="340.2" y2="298.3"/>
	<g enable-background="new    ">
		<path d="M338.4,312.7c1.6,0,2.5,1.1,2,2.5c-0.5,1.4-2.2,2.5-3.8,2.5c-1.6,0-2.5-1.2-2-2.5C335.1,313.8,336.8,312.7,338.4,312.7z"
			/>
	</g>
	<line fill="none" stroke="#000000" stroke-width="0.459" x1="355.4" y1="314.3" x2="355.4" y2="298.3"/>
	<g enable-background="new    ">
		<path d="M353.6,312.7c1.6,0,2.5,1.1,2,2.5c-0.5,1.4-2.2,2.5-3.8,2.5c-1.6,0-2.5-1.2-2-2.5C350.3,313.8,352,312.7,353.6,312.7z"/>
	</g>
	<line fill="none" stroke="#000000" stroke-width="0.459" x1="365" y1="299.1" x2="365" y2="315.1"/>
	<g enable-background="new    ">
		<path d="M370.9,298.4c-0.4,1-1.2,1.8-1.8,2.1c-0.6,0.3-1.4,0.4-2.2,0.4c-0.5,0-1.5-0.2-1.8-0.8c-0.4-0.7-0.1-1.4,0-1.8
			c0.4-1,1.1-1.6,1.7-2c0.6-0.3,1.5-0.6,2.5-0.5c0.4,0.1,1.3,0.1,1.7,0.8C371.2,297.1,371,298.1,370.9,298.4z M368.6,296.9
			c-0.4,0.2-0.7,0.4-1.1,0.6c-0.4,0.2-0.7,0.4-1.1,0.7c-0.6,0.3-1.3,1-0.9,1.6c0.4,0.6,1.3,0.3,1.9,0c0.4-0.2,0.8-0.4,1.2-0.6
			s0.7-0.4,1.1-0.7c0.5-0.3,1.3-1,0.9-1.6C370.1,296.3,369.2,296.6,368.6,296.9z"/>
	</g>
	<line fill="none" stroke="#000000" stroke-width="0.459" x1="412.4" y1="314.3" x2="412.4" y2="298.3"/>
	<g enable-background="new    ">
		<path d="M412.7,315.2c-0.4,1-1.2,1.8-1.8,2.1c-0.6,0.3-1.4,0.4-2.2,0.4c-0.5,0-1.5-0.2-1.8-0.8c-0.4-0.7-0.1-1.4,0-1.8
			c0.4-1,1.1-1.6,1.7-2c0.6-0.3,1.5-0.6,2.5-0.5c0.4,0.1,1.3,0.1,1.7,0.8C413,313.9,412.8,314.9,412.7,315.2z M410.4,313.7
			c-0.4,0.2-0.7,0.4-1.1,0.6c-0.4,0.2-0.7,0.4-1.1,0.7c-0.6,0.3-1.3,1-0.9,1.6c0.4,0.6,1.3,0.3,1.9,0c0.4-0.2,0.8-0.4,1.2-0.6
			s0.7-0.4,1.1-0.7c0.5-0.3,1.3-1,0.9-1.6C411.9,313.1,411,313.4,410.4,313.7z"/>
	</g>
	<line fill="none" stroke="#000000" stroke-width="0.459" x1="450.2" y1="307.1" x2="450.2" y2="291.1"/>
	<g enable-background="new    ">
		<path d="M450.5,308c-0.4,1-1.2,1.8-1.8,2.1c-0.6,0.3-1.4,0.4-2.2,0.4c-0.5,0-1.5-0.2-1.8-0.8c-0.4-0.7-0.1-1.4,0-1.8
			c0.4-1,1.1-1.6,1.7-2c0.6-0.3,1.5-0.6,2.5-0.5c0.4,0.1,1.3,0.1,1.7,0.8C450.8,306.7,450.6,307.7,450.5,308z M448.2,306.5
			c-0.4,0.2-0.7,0.4-1.1,0.6c-0.4,0.2-0.7,0.4-1.1,0.7c-0.6,0.3-1.3,1-0.9,1.6c0.4,0.6,1.3,0.3,1.9,0c0.4-0.2,0.8-0.4,1.2-0.6
			s0.7-0.4,1.1-0.7c0.5-0.3,1.3-1,0.9-1.6C449.7,305.9,448.8,306.2,448.2,306.5z"/>
	</g>
	<line fill="none" stroke="#000000" stroke-width="0.459" x1="472.2" y1="316.7" x2="472.2" y2="300.7"/>
	<g enable-background="new    ">
		<path d="M470.4,315.1c1.6,0,2.5,1.1,2,2.5c-0.5,1.4-2.2,2.5-3.8,2.5c-1.6,0-2.5-1.2-2-2.5C467.1,316.2,468.8,315.1,470.4,315.1z"
			/>
	</g>
	<line fill="none" stroke="#000000" stroke-width="0.459" x1="489" y1="316.7" x2="489" y2="300.7"/>
	<g enable-background="new    ">
		<path d="M487.2,315.1c1.6,0,2.5,1.1,2,2.5c-0.5,1.4-2.2,2.5-3.8,2.5c-1.6,0-2.5-1.2-2-2.5C483.9,316.2,485.6,315.1,487.2,315.1z"
			/>
	</g>
	<line fill="none" stroke="#000000" stroke-width="0.459" x1="500.2" y1="301.5" x2="500.2" y2="317.5"/>
	<g enable-background="new    ">
		<path d="M506.1,300.8c-0.4,1-1.2,1.8-1.8,2.1c-0.6,0.3-1.4,0.4-2.2,0.4c-0.5,0-1.5-0.2-1.8-0.8c-0.4-0.7-0.1-1.4,0-1.8
			c0.4-1,1.1-1.6,1.7-2c0.6-0.3,1.5-0.6,2.5-0.5c0.4,0.1,1.3,0.1,1.7,0.8C506.4,299.5,506.2,300.5,506.1,300.8z M503.8,299.3
			c-0.4,0.2-0.7,0.4-1.1,0.6c-0.4,0.2-0.7,0.4-1.1,0.7c-0.6,0.3-1.3,1-0.9,1.6c0.4,0.6,1.3,0.3,1.9,0c0.4-0.2,0.8-0.4,1.2-0.6
			s0.7-0.4,1.1-0.7c0.5-0.3,1.3-1,0.9-1.6C505.3,298.7,504.4,299,503.8,299.3z"/>
	</g>
	<line fill="none" stroke="#000000" stroke-width="0.459" x1="538.2" y1="316.7" x2="538.2" y2="300.7"/>
	<g enable-background="new    ">
		<path d="M538.5,317.6c-0.4,1-1.2,1.8-1.8,2.1c-0.6,0.3-1.4,0.4-2.2,0.4c-0.5,0-1.5-0.2-1.8-0.8c-0.4-0.7-0.1-1.4,0-1.8
			c0.4-1,1.1-1.6,1.7-2c0.6-0.3,1.5-0.6,2.5-0.5c0.4,0.1,1.3,0.1,1.7,0.8C538.8,316.3,538.6,317.3,538.5,317.6z M536.2,316.1
			c-0.4,0.2-0.7,0.4-1.1,0.6c-0.4,0.2-0.7,0.4-1.1,0.7c-0.6,0.3-1.3,1-0.9,1.6c0.4,0.6,1.3,0.3,1.9,0c0.4-0.2,0.8-0.4,1.2-0.6
			c0.4-0.2,0.7-0.4,1.1-0.7c0.5-0.3,1.3-1,0.9-1.6C537.7,315.5,536.8,315.8,536.2,316.1z"/>
	</g>
	<line fill="none" stroke="#000000" stroke-width="0.459" x1="571.8" y1="307.1" x2="571.8" y2="291.1"/>
	<g enable-background="new    ">
		<path d="M572.1,308c-0.4,1-1.2,1.8-1.8,2.1c-0.6,0.3-1.4,0.4-2.2,0.4c-0.5,0-1.5-0.2-1.8-0.8c-0.4-0.7-0.1-1.4,0-1.8
			c0.4-1,1.1-1.6,1.7-2c0.6-0.3,1.5-0.6,2.5-0.5c0.4,0.1,1.3,0.1,1.7,0.8C572.4,306.7,572.2,307.7,572.1,308z M569.8,306.5
			c-0.4,0.2-0.7,0.4-1.1,0.6c-0.4,0.2-0.7,0.4-1.1,0.7c-0.6,0.3-1.3,1-0.9,1.6c0.4,0.6,1.3,0.3,1.9,0c0.4-0.2,0.8-0.4,1.2-0.6
			s0.7-0.4,1.1-0.7c0.5-0.3,1.3-1,0.9-1.6C571.3,305.9,570.4,306.2,569.8,306.5z"/>
	</g>
	<line fill="none" stroke="#000000" stroke-width="0.459" x1="604.2" y1="314.3" x2="604.2" y2="298.3"/>
	<g enable-background="new    ">
		<path d="M602.4,312.7c1.6,0,2.5,1.1,2,2.5c-0.5,1.4-2.2,2.5-3.8,2.5c-1.6,0-2.5-1.2-2-2.5C599.1,313.8,600.8,312.7,602.4,312.7z"
			/>
	</g>
	<line fill="none" stroke="#000000" stroke-width="0.459" x1="619.4" y1="314.3" x2="619.4" y2="298.3"/>
	<g enable-background="new    ">
		<path d="M617.6,312.7c1.6,0,2.5,1.1,2,2.5c-0.5,1.4-2.2,2.5-3.8,2.5c-1.6,0-2.5-1.2-2-2.5C614.3,313.8,616,312.7,617.6,312.7z"/>
	</g>
	<line fill="none" stroke="#000000" stroke-width="0.459" x1="629" y1="299.1" x2="629" y2="315.1"/>
	<g enable-background="new    ">
		<path d="M634.9,298.4c-0.4,1-1.2,1.8-1.8,2.1c-0.6,0.3-1.4,0.4-2.2,0.4c-0.5,0-1.5-0.2-1.8-0.8c-0.4-0.7-0.1-1.4,0-1.8
			c0.4-1,1.1-1.6,1.7-2c0.6-0.3,1.5-0.6,2.5-0.5c0.4,0.1,1.3,0.1,1.7,0.8C635.2,297.1,635,298.1,634.9,298.4z M632.6,296.9
			c-0.4,0.2-0.7,0.4-1.1,0.6c-0.4,0.2-0.7,0.4-1.1,0.7c-0.6,0.3-1.3,1-0.9,1.6c0.4,0.6,1.3,0.3,1.9,0c0.4-0.2,0.8-0.4,1.2-0.6
			s0.7-0.4,1.1-0.7c0.5-0.3,1.3-1,0.9-1.6C634.1,296.3,633.2,296.6,632.6,296.9z"/>
	</g>
	<line fill="none" stroke="#000000" stroke-width="0.459" x1="670.4" y1="314.3" x2="670.4" y2="298.3"/>
	<g enable-background="new    ">
		<path d="M670.7,315.2c-0.4,1-1.2,1.8-1.8,2.1c-0.6,0.3-1.4,0.4-2.2,0.4c-0.5,0-1.5-0.2-1.8-0.8c-0.4-0.7-0.1-1.4,0-1.8
			c0.4-1,1.1-1.6,1.7-2c0.6-0.3,1.5-0.6,2.5-0.5c0.4,0.1,1.3,0.1,1.7,0.8C671,313.9,670.8,314.9,670.7,315.2z M668.4,313.7
			c-0.4,0.2-0.7,0.4-1.1,0.6c-0.4,0.2-0.7,0.4-1.1,0.7c-0.6,0.3-1.3,1-0.9,1.6c0.4,0.6,1.3,0.3,1.9,0c0.4-0.2,0.8-0.4,1.2-0.6
			c0.4-0.2,0.7-0.4,1.1-0.7c0.5-0.3,1.3-1,0.9-1.6C669.9,313.1,669,313.4,668.4,313.7z"/>
	</g>
	<line fill="none" stroke="#000000" stroke-width="0.459" x1="706.2" y1="307.1" x2="706.2" y2="291.1"/>
	<g enable-background="new    ">
		<path d="M706.5,308c-0.4,1-1.2,1.8-1.8,2.1c-0.6,0.3-1.4,0.4-2.2,0.4c-0.5,0-1.5-0.2-1.8-0.8c-0.4-0.7-0.1-1.4,0-1.8
			c0.4-1,1.1-1.6,1.7-2c0.6-0.3,1.5-0.6,2.5-0.5c0.4,0.1,1.3,0.1,1.7,0.8C706.8,306.7,706.6,307.7,706.5,308z M704.2,306.5
			c-0.4,0.2-0.7,0.4-1.1,0.6c-0.4,0.2-0.7,0.4-1.1,0.7c-0.6,0.3-1.3,1-0.9,1.6c0.4,0.6,1.3,0.3,1.9,0c0.4-0.2,0.8-0.4,1.2-0.6
			c0.4-0.2,0.7-0.4,1.1-0.7c0.5-0.3,1.3-1,0.9-1.6C705.7,305.9,704.8,306.2,704.2,306.5z"/>
	</g>
	<line fill="none" stroke="#000000" stroke-width="0.459" x1="736.2" y1="316.7" x2="736.2" y2="300.7"/>
	<g enable-background="new    ">
		<path d="M734.4,315.1c1.6,0,2.5,1.1,2,2.5c-0.5,1.4-2.2,2.5-3.8,2.5c-1.6,0-2.5-1.2-2-2.5C731.1,316.2,732.8,315.1,734.4,315.1z"
			/>
	</g>
	<line fill="none" stroke="#000000" stroke-width="0.459" x1="753" y1="316.7" x2="753" y2="300.7"/>
	<g enable-background="new    ">
		<path d="M751.2,315.1c1.6,0,2.5,1.1,2,2.5c-0.5,1.4-2.2,2.5-3.8,2.5c-1.6,0-2.5-1.2-2-2.5C747.9,316.2,749.6,315.1,751.2,315.1z"
			/>
	</g>
	<line fill="none" stroke="#000000" stroke-width="0.459" x1="764.2" y1="301.5" x2="764.2" y2="317.5"/>
	<g enable-background="new    ">
		<path d="M770.1,300.8c-0.4,1-1.2,1.8-1.8,2.1c-0.6,0.3-1.4,0.4-2.2,0.4c-0.5,0-1.5-0.2-1.8-0.8c-0.4-0.7-0.1-1.4,0-1.8
			c0.4-1,1.1-1.6,1.7-2c0.6-0.3,1.5-0.6,2.5-0.5c0.4,0.1,1.3,0.1,1.7,0.8C770.4,299.5,770.2,300.5,770.1,300.8z M767.8,299.3
			c-0.4,0.2-0.7,0.4-1.1,0.6c-0.4,0.2-0.7,0.4-1.1,0.7c-0.6,0.3-1.3,1-0.9,1.6c0.4,0.6,1.3,0.3,1.9,0c0.4-0.2,0.8-0.4,1.2-0.6
			s0.7-0.4,1.1-0.7c0.5-0.3,1.3-1,0.9-1.6C769.3,298.7,768.4,299,767.8,299.3z"/>
	</g>
	<line fill="none" stroke="#000000" stroke-width="0.459" x1="802.2" y1="316.7" x2="802.2" y2="300.7"/>
	<g enable-background="new    ">
		<path d="M802.5,317.6c-0.4,1-1.2,1.8-1.8,2.1c-0.6,0.3-1.4,0.4-2.2,0.4c-0.5,0-1.5-0.2-1.8-0.8c-0.4-0.7-0.1-1.4,0-1.8
			c0.4-1,1.1-1.6,1.7-2c0.6-0.3,1.5-0.6,2.5-0.5c0.4,0.1,1.3,0.1,1.7,0.8C802.8,316.3,802.6,317.3,802.5,317.6z M800.2,316.1
			c-0.4,0.2-0.7,0.4-1.1,0.6c-0.4,0.2-0.7,0.4-1.1,0.7c-0.6,0.3-1.3,1-0.9,1.6c0.4,0.6,1.3,0.3,1.9,0c0.4-0.2,0.8-0.4,1.2-0.6
			c0.4-0.2,0.7-0.4,1.1-0.7c0.5-0.3,1.3-1,0.9-1.6C801.7,315.5,800.8,315.8,800.2,316.1z"/>
	</g>
	<line fill="none" stroke="#000000" stroke-width="0.459" x1="835.8" y1="307.1" x2="835.8" y2="291.1"/>
	<g enable-background="new    ">
		<path d="M836.1,308c-0.4,1-1.2,1.8-1.8,2.1c-0.6,0.3-1.4,0.4-2.2,0.4c-0.5,0-1.5-0.2-1.8-0.8c-0.4-0.7-0.1-1.4,0-1.8
			c0.4-1,1.1-1.6,1.7-2c0.6-0.3,1.5-0.6,2.5-0.5c0.4,0.1,1.3,0.1,1.7,0.8C836.4,306.7,836.2,307.7,836.1,308z M833.8,306.5
			c-0.4,0.2-0.7,0.4-1.1,0.6c-0.4,0.2-0.7,0.4-1.1,0.7c-0.6,0.3-1.3,1-0.9,1.6c0.4,0.6,1.3,0.3,1.9,0c0.4-0.2,0.8-0.4,1.2-0.6
			s0.7-0.4,1.1-0.7c0.5-0.3,1.3-1,0.9-1.6C835.3,305.9,834.4,306.2,833.8,306.5z"/>
	</g>
	<line fill="none" stroke="#000000" stroke-width="0.459" x1="868.2" y1="314.3" x2="868.2" y2="298.3"/>
	<g enable-background="new    ">
		<path d="M866.4,312.7c1.6,0,2.5,1.1,2,2.5c-0.5,1.4-2.2,2.5-3.8,2.5c-1.6,0-2.5-1.2-2-2.5C863.1,313.8,864.8,312.7,866.4,312.7z"
			/>
	</g>
	<line fill="none" stroke="#000000" stroke-width="0.459" x1="883.4" y1="314.3" x2="883.4" y2="298.3"/>
	<g enable-background="new    ">
		<path d="M881.6,312.7c1.6,0,2.5,1.1,2,2.5c-0.5,1.4-2.2,2.5-3.8,2.5c-1.6,0-2.5-1.2-2-2.5C878.3,313.8,880,312.7,881.6,312.7z"/>
	</g>
	<line fill="none" stroke="#000000" stroke-width="0.459" x1="893" y1="299.1" x2="893" y2="315.1"/>
	<g enable-background="new    ">
		<path d="M898.9,298.4c-0.4,1-1.2,1.8-1.8,2.1c-0.6,0.3-1.4,0.4-2.2,0.4c-0.5,0-1.5-0.2-1.8-0.8c-0.4-0.7-0.1-1.4,0-1.8
			c0.4-1,1.1-1.6,1.7-2c0.6-0.3,1.5-0.6,2.5-0.5c0.4,0.1,1.3,0.1,1.7,0.8C899.2,297.1,899,298.1,898.9,298.4z M896.6,296.9
			c-0.4,0.2-0.7,0.4-1.1,0.6c-0.4,0.2-0.7,0.4-1.1,0.7c-0.6,0.3-1.3,1-0.9,1.6c0.4,0.6,1.3,0.3,1.9,0c0.4-0.2,0.8-0.4,1.2-0.6
			s0.7-0.4,1.1-0.7c0.5-0.3,1.3-1,0.9-1.6C898.1,296.3,897.2,296.6,896.6,296.9z"/>
	</g>
	<line fill="none" stroke="#000000" stroke-width="0.459" x1="934.2" y1="314.3" x2="934.2" y2="298.3"/>
	<g enable-background="new    ">
		<path d="M934.5,315.2c-0.4,1-1.2,1.8-1.8,2.1c-0.6,0.3-1.4,0.4-2.2,0.4c-0.5,0-1.5-0.2-1.8-0.8c-0.4-0.7-0.1-1.4,0-1.8
			c0.4-1,1.1-1.6,1.7-2c0.6-0.3,1.5-0.6,2.5-0.5c0.4,0.1,1.3,0.1,1.7,0.8C934.8,313.9,934.6,314.9,934.5,315.2z M932.2,313.7
			c-0.4,0.2-0.7,0.4-1.1,0.6c-0.4,0.2-0.7,0.4-1.1,0.7c-0.6,0.3-1.3,1-0.9,1.6c0.4,0.6,1.3,0.3,1.9,0c0.4-0.2,0.8-0.4,1.2-0.6
			c0.4-0.2,0.7-0.4,1.1-0.7c0.5-0.3,1.3-1,0.9-1.6C933.7,313.1,932.8,313.4,932.2,313.7z"/>
	</g>
	<line fill="none" stroke="#000000" stroke-width="0.459" x1="974.4" y1="307.1" x2="974.4" y2="291.1"/>
	<g enable-background="new    ">
		<path d="M974.7,308c-0.4,1-1.2,1.8-1.8,2.1c-0.6,0.3-1.4,0.4-2.2,0.4c-0.5,0-1.5-0.2-1.8-0.8c-0.4-0.7-0.1-1.4,0-1.8
			c0.4-1,1.1-1.6,1.7-2c0.6-0.3,1.5-0.6,2.5-0.5c0.4,0.1,1.3,0.1,1.7,0.8C975,306.7,974.8,307.7,974.7,308z M972.4,306.5
			c-0.4,0.2-0.7,0.4-1.1,0.6c-0.4,0.2-0.7,0.4-1.1,0.7c-0.6,0.3-1.3,1-0.9,1.6c0.4,0.6,1.3,0.3,1.9,0c0.4-0.2,0.8-0.4,1.2-0.6
			c0.4-0.2,0.7-0.4,1.1-0.7c0.5-0.3,1.3-1,0.9-1.6C973.9,305.9,973,306.2,972.4,306.5z"/>
	</g>
	<line fill="none" stroke="#000000" stroke-width="0.459" x1="1000.2" y1="316.7" x2="1000.2" y2="300.7"/>
	<g enable-background="new    ">
		<path d="M998.4,315.1c1.6,0,2.5,1.1,2,2.5c-0.5,1.4-2.2,2.5-3.8,2.5c-1.6,0-2.5-1.2-2-2.5C995.1,316.2,996.8,315.1,998.4,315.1z"
			/>
	</g>
	<line fill="none" stroke="#000000" stroke-width="0.459" x1="1017.2" y1="316.7" x2="1017.2" y2="300.7"/>
	<g enable-background="new    ">
		<path d="M1015.4,315.1c1.6,0,2.5,1.1,2,2.5c-0.5,1.4-2.2,2.5-3.8,2.5c-1.6,0-2.5-1.2-2-2.5
			C1012.1,316.2,1013.8,315.1,1015.4,315.1z"/>
	</g>
	<line fill="none" stroke="#000000" stroke-width="0.459" x1="1028.6" y1="301.5" x2="1028.6" y2="317.5"/>
	<g enable-background="new    ">
		<path d="M1034.5,300.8c-0.4,1-1.2,1.8-1.8,2.1c-0.6,0.3-1.4,0.4-2.2,0.4c-0.5,0-1.5-0.2-1.8-0.8c-0.4-0.7-0.1-1.4,0-1.8
			c0.4-1,1.1-1.6,1.7-2c0.6-0.3,1.5-0.6,2.5-0.5c0.4,0.1,1.3,0.1,1.7,0.8C1034.8,299.5,1034.6,300.5,1034.5,300.8z M1032.2,299.3
			c-0.4,0.2-0.7,0.4-1.1,0.6c-0.4,0.2-0.7,0.4-1.1,0.7c-0.6,0.3-1.3,1-0.9,1.6c0.4,0.6,1.3,0.3,1.9,0c0.4-0.2,0.8-0.4,1.2-0.6
			c0.4-0.2,0.7-0.4,1.1-0.7c0.5-0.3,1.3-1,0.9-1.6C1033.7,298.7,1032.8,299,1032.2,299.3z"/>
	</g>
</g>
</svg>
