<?xml version="1.0" encoding="utf-8"?>
<!-- Generator: Adobe Illustrator 16.0.0, SVG Export Plug-In . SVG Version: 6.00 Build 0)  -->
<!DOCTYPE svg PUBLIC "-//W3C//DTD SVG 1.1//EN" "http://www.w3.org/Graphics/SVG/1.1/DTD/svg11.dtd">
<svg version="1.1" id="Layer_1" xmlns="http://www.w3.org/2000/svg" xmlns:xlink="http://www.w3.org/1999/xlink" x="0px" y="0px"
	 width="1152px" height="54px" viewBox="-63 277.5 1152 54" enable-background="new -63 277.5 1152 54" xml:space="preserve">
<g id="Music">
	<rect x="-63" y="215.6" fill="#FFFFFF" width="1152" height="170"/>
	<line fill="none" stroke="#000000" stroke-width="0.459" x1="-34.6" y1="239.2" x2="-34.6" y2="373.2"/>
	<g enable-background="new    ">
		<path d="M-24.8,315.1c-4-1.9-4.6-4.3-4.8-6.8c-0.2-2.7,1.5-5.4,3.1-6.9c0.9-0.9,1.9-1.7,3.1-2.6c0-0.7-0.2-0.9-0.3-1.9
			c0-0.4-0.3-2.3,0.1-4.5c0.2-1.3,1.9-4.3,3-4.3c0.9,0,2.2,3.4,2.2,5.2c0.1,2.7-0.6,3.9-1.4,5.3c-0.4,0.7-0.8,1.2-1.3,1.7
			c-0.5,0.6-1,0.9-1.5,1.3c0,0,0.6,3.5,0.6,3.7c1.2-0.2,2.7,0.3,3.3,0.7c1.4,1,1.9,2.4,2,3.8c0.2,2.2-1,4.5-3.6,5.5
			c0,0,0.4,2.8,0.5,3.3c0.2,1.5,0.2,2.5-0.2,3.1c-0.6,1-1.5,2-3.2,2.1c-1.3,0.1-4-0.6-4.1-2.7c-0.1-1.2,0.5-2.6,2-2.7
			c0.9-0.1,2,0.7,2.1,1.8c0.1,0.9-0.5,1.9-2.1,2.4c0.2,0.3,1,0.7,2.1,0.7c1.1,0,2.3-0.7,2.8-1.7c0.3-0.7,0.3-1.8,0.2-2.9
			c-0.1-0.4-0.5-3.3-0.5-3.3C-22.1,315.6-24,315.5-24.8,315.1z M-24.5,310.5c0,0.9,0.8,2,1.5,2.4c-0.1,0.1-0.2,0.2-0.2,0.2
			c-0.8-0.4-1.5-1-1.6-1.2c-0.6-0.7-0.8-1.2-0.9-2.3c-0.1-1.1,0.5-2.5,1.8-3.5c0.7-0.5,1-0.6,1.6-0.7l-0.6-3.5
			c-0.6,0.3-3.1,2.3-4.1,3.9c-0.9,1.4-1.5,2.6-1.4,4c0.2,3.2,3.7,5.8,7.5,4.9c0,0-1.1-6.8-1.1-6.8C-24,308-24.5,309.6-24.5,310.5z
			 M-22.9,298.4c1.7-1.3,3.9-3.8,3.8-5.7c0-0.6-0.3-1.7-1.2-1.7C-22.2,291.1-23.3,295.2-22.9,298.4z M-20.3,314.6
			c2.2-0.7,2.3-2.6,2.2-3.8c-0.1-0.9-0.5-3.1-3.3-2.9L-20.3,314.6z"/>
	</g>
	<g enable-background="new    ">
		<path d="M-4.4,312.7v1.3c0,0.8,0.9,0.7,0.9,0.7v0.5h-4.2v-0.5c0,0,0.9,0,0.9-0.7v-1.3h-3.6l-0.3-0.4c2.3-3.1,2.3-3.7,2.9-6.5h3.3
			c-0.8,1.5-3.4,4.2-5.3,6.4h3v-2.4l2.3-2.6v4.9H-3v0.5H-4.4z"/>
	</g>
	<g enable-background="new    ">
		<path d="M-4.4,303.1v1.3c0,0.8,0.9,0.7,0.9,0.7v0.5h-4.2v-0.5c0,0,0.9,0,0.9-0.7v-1.3h-3.6l-0.3-0.4c2.3-3.1,2.3-3.7,2.9-6.5h3.3
			c-0.8,1.5-3.4,4.2-5.3,6.4h3v-2.4l2.3-2.6v4.9H-3v0.5H-4.4z"/>
	</g>
	<line fill="none" stroke="#000000" stroke-width="0.459" x1="65.4" y1="296.1" x2="65.4" y2="315.3"/>
	<line fill="none" stroke="#000000" stroke-width="0.459" x1="131.4" y1="296.1" x2="131.4" y2="315.3"/>
	<line fill="none" stroke="#000000" stroke-width="0.459" x1="197.4" y1="296.1" x2="197.4" y2="315.3"/>
	<line fill="none" stroke="#000000" stroke-width="0.459" x1="263.4" y1="296.1" x2="263.4" y2="315.3"/>
	<line fill="none" stroke="#000000" stroke-width="0.459" x1="329.4" y1="296.1" x2="329.4" y2="315.3"/>
	<line fill="none" stroke="#000000" stroke-width="0.459" x1="395.4" y1="296.1" x2="395.4" y2="315.3"/>
	<line fill="none" stroke="#000000" stroke-width="0.459" x1="461.4" y1="296.1" x2="461.4" y2="315.3"/>
	<line fill="none" stroke="#000000" stroke-width="0.459" x1="527.4" y1="296.1" x2="527.4" y2="315.3"/>
	<line fill="none" stroke="#000000" stroke-width="0.459" x1="593.4" y1="296.1" x2="593.4" y2="315.3"/>
	<line fill="none" stroke="#000000" stroke-width="0.459" x1="659.4" y1="296.1" x2="659.4" y2="315.3"/>
	<line fill="none" stroke="#000000" stroke-width="0.459" x1="725.4" y1="296.1" x2="725.4" y2="315.3"/>
	<line fill="none" stroke="#000000" stroke-width="0.459" x1="791.4" y1="296.1" x2="791.4" y2="315.3"/>
	<line fill="none" stroke="#000000" stroke-width="0.459" x1="857.4" y1="296.1" x2="857.4" y2="315.3"/>
	<line fill="none" stroke="#000000" stroke-width="0.459" x1="923.4" y1="296.1" x2="923.4" y2="315.3"/>
	<line fill="none" stroke="#000000" stroke-width="0.459" x1="989.4" y1="296.1" x2="989.4" y2="315.3"/>
	<line fill="none" stroke="#000000" stroke-width="2.419" x1="1059.6" y1="296.1" x2="1059.6" y2="315.3"/>
	<line fill="none" stroke="#000000" stroke-width="0.459" x1="1055.7" y1="296.1" x2="1055.7" y2="315.3"/>
	<line fill="none" stroke="#000000" stroke-width="0.459" x1="-34.8" y1="296.1" x2="1060.8" y2="296.1"/>
	<line fill="none" stroke="#000000" stroke-width="0.459" x1="-34.8" y1="301" x2="1060.8" y2="301"/>
	<line fill="none" stroke="#000000" stroke-width="0.459" x1="-34.8" y1="305.8" x2="1060.8" y2="305.8"/>
	<line fill="none" stroke="#000000" stroke-width="0.459" x1="-34.8" y1="310.5" x2="1060.8" y2="310.5"/>
	<line fill="none" stroke="#000000" stroke-width="0.459" x1="-34.8" y1="315.3" x2="1060.8" y2="315.3"/>
	<g enable-background="new    ">
		<path d="M35.5,300.9v2.8h-6.1v-2.8H35.5z"/>
	</g>
	<line fill="none" stroke="#000000" stroke-width="0.459" x1="28.8" y1="301" x2="36" y2="301"/>
	<g enable-background="new    ">
		<path d="M73.8,309.5c-0.8,0-1.5,0.5-1.5,1.4c0,0.6,1,1.5,1,1.5l-0.2,0.2c0,0-2.2-1.3-2.5-2.7c-0.1-0.9,0.5-1.8,1.6-1.9
			c0.4,0,1.2,0.1,1.5,0.2c-1.8-1.8-2.8-3-2.7-3.4c0.4-0.4,1.7-2.1,1.7-3.4c0-0.9-1.3-2.9-1.3-2.9l0.3-0.2l3.5,4.4c0,0-1.7,2-1.7,3.4
			c0,1,0.6,1.8,1.1,2.3c0.2,0.3,1,1.1,1,1.2l0,0.3C74.7,309.6,74.2,309.5,73.8,309.5z"/>
	</g>
	<line fill="none" stroke="#000000" stroke-width="0.459" x1="91.4" y1="314.5" x2="91.4" y2="298.5"/>
	<g enable-background="new    ">
		<path d="M89.6,312.9c1.6,0,2.5,1.1,2,2.5c-0.5,1.4-2.2,2.5-3.8,2.5c-1.6,0-2.5-1.2-2-2.5C86.3,314,88,312.9,89.6,312.9z"/>
	</g>
	<line fill="none" stroke="#000000" stroke-width="0.459" x1="101" y1="299.4" x2="101" y2="315.3"/>
	<g enable-background="new    ">
		<path d="M106.9,298.7c-0.4,1-1.2,1.8-1.8,2.1c-0.6,0.3-1.4,0.4-2.2,0.4c-0.5,0-1.5-0.2-1.8-0.8c-0.4-0.7-0.1-1.4,0-1.8
			c0.4-1,1.1-1.6,1.7-2c0.6-0.3,1.5-0.6,2.5-0.5c0.4,0.1,1.3,0.1,1.7,0.8C107.2,297.4,107,298.3,106.9,298.7z M104.6,297.1
			c-0.4,0.2-0.7,0.4-1.1,0.6c-0.4,0.2-0.7,0.4-1.1,0.7c-0.6,0.3-1.3,1-0.9,1.6c0.4,0.6,1.3,0.3,1.9,0c0.4-0.2,0.8-0.4,1.2-0.6
			s0.7-0.4,1.1-0.7c0.5-0.3,1.3-1,0.9-1.6C106.1,296.5,105.2,296.8,104.6,297.1z"/>
	</g>
	<g enable-background="new    ">
		<path d="M167.5,300.9v2.8h-6.1v-2.8H167.5z"/>
	</g>
	<line fill="none" stroke="#000000" stroke-width="0.459" x1="160.8" y1="301" x2="168" y2="301"/>
	<g enable-background="new    ">
		<path d="M212,309.5c-0.8,0-1.5,0.5-1.5,1.4c0,0.6,1,1.5,1,1.5l-0.2,0.2c0,0-2.2-1.3-2.5-2.7c-0.1-0.9,0.5-1.8,1.6-1.9
			c0.4,0,1.2,0.1,1.5,0.2c-1.8-1.8-2.8-3-2.7-3.4c0.4-0.4,1.7-2.1,1.7-3.4c0-0.9-1.3-2.9-1.3-2.9l0.3-0.2l3.5,4.4c0,0-1.7,2-1.7,3.4
			c0,1,0.6,1.8,1.1,2.3c0.2,0.3,1,1.1,1,1.2l0,0.3C212.9,309.6,212.4,309.5,212,309.5z"/>
	</g>
	<line fill="none" stroke="#000000" stroke-width="0.459" x1="229.4" y1="317" x2="229.4" y2="301"/>
	<g enable-background="new    ">
		<path d="M227.6,315.3c1.6,0,2.5,1.1,2,2.5c-0.5,1.4-2.2,2.5-3.8,2.5c-1.6,0-2.5-1.2-2-2.5C224.3,316.4,226,315.3,227.6,315.3z"/>
	</g>
	<line fill="none" stroke="#000000" stroke-width="0.459" x1="239" y1="301.8" x2="239" y2="317.8"/>
	<g enable-background="new    ">
		<path d="M244.9,301.1c-0.4,1-1.2,1.8-1.8,2.1c-0.6,0.3-1.4,0.4-2.2,0.4c-0.5,0-1.5-0.2-1.8-0.8c-0.4-0.7-0.1-1.4,0-1.8
			c0.4-1,1.1-1.6,1.7-2c0.6-0.3,1.5-0.6,2.5-0.5c0.4,0.1,1.3,0.1,1.7,0.8C245.2,299.8,245,300.7,244.9,301.1z M242.6,299.5
			c-0.4,0.2-0.7,0.4-1.1,0.6c-0.4,0.2-0.7,0.4-1.1,0.7c-0.6,0.3-1.3,1-0.9,1.6c0.4,0.6,1.3,0.3,1.9,0c0.4-0.2,0.8-0.4,1.2-0.6
			s0.7-0.4,1.1-0.7c0.5-0.3,1.3-1,0.9-1.6C244.1,298.9,243.2,299.2,242.6,299.5z"/>
	</g>
	<g enable-background="new    ">
		<path d="M299.5,300.9v2.8h-6.1v-2.8H299.5z"/>
	</g>
	<line fill="none" stroke="#000000" stroke-width="0.459" x1="292.8" y1="301" x2="300" y2="301"/>
	<g enable-background="new    ">
		<path d="M337.8,309.5c-0.8,0-1.5,0.5-1.5,1.4c0,0.6,1,1.5,1,1.5l-0.2,0.2c0,0-2.2-1.3-2.5-2.7c-0.1-0.9,0.5-1.8,1.6-1.9
			c0.4,0,1.2,0.1,1.5,0.2c-1.8-1.8-2.8-3-2.7-3.4c0.4-0.4,1.7-2.1,1.7-3.4c0-0.9-1.3-2.9-1.3-2.9l0.3-0.2l3.5,4.4c0,0-1.7,2-1.7,3.4
			c0,1,0.6,1.8,1.1,2.3c0.2,0.3,1,1.1,1,1.2l0,0.3C338.7,309.6,338.2,309.5,337.8,309.5z"/>
	</g>
	<line fill="none" stroke="#000000" stroke-width="0.459" x1="355.4" y1="314.5" x2="355.4" y2="298.5"/>
	<g enable-background="new    ">
		<path d="M353.6,312.9c1.6,0,2.5,1.1,2,2.5c-0.5,1.4-2.2,2.5-3.8,2.5c-1.6,0-2.5-1.2-2-2.5C350.3,314,352,312.9,353.6,312.9z"/>
	</g>
	<line fill="none" stroke="#000000" stroke-width="0.459" x1="365" y1="299.4" x2="365" y2="315.3"/>
	<g enable-background="new    ">
		<path d="M370.9,298.7c-0.4,1-1.2,1.8-1.8,2.1c-0.6,0.3-1.4,0.4-2.2,0.4c-0.5,0-1.5-0.2-1.8-0.8c-0.4-0.7-0.1-1.4,0-1.8
			c0.4-1,1.1-1.6,1.7-2c0.6-0.3,1.5-0.6,2.5-0.5c0.4,0.1,1.3,0.1,1.7,0.8C371.2,297.4,371,298.3,370.9,298.7z M368.6,297.1
			c-0.4,0.2-0.7,0.4-1.1,0.6c-0.4,0.2-0.7,0.4-1.1,0.7c-0.6,0.3-1.3,1-0.9,1.6c0.4,0.6,1.3,0.3,1.9,0c0.4-0.2,0.8-0.4,1.2-0.6
			s0.7-0.4,1.1-0.7c0.5-0.3,1.3-1,0.9-1.6C370.1,296.5,369.2,296.8,368.6,297.1z"/>
	</g>
	<g enable-background="new    ">
		<path d="M431.5,300.9v2.8h-6.1v-2.8H431.5z"/>
	</g>
	<line fill="none" stroke="#000000" stroke-width="0.459" x1="424.8" y1="301" x2="432" y2="301"/>
	<g enable-background="new    ">
		<path d="M469.8,309.5c-0.8,0-1.5,0.5-1.5,1.4c0,0.6,1,1.5,1,1.5l-0.2,0.2c0,0-2.2-1.3-2.5-2.7c-0.1-0.9,0.5-1.8,1.6-1.9
			c0.4,0,1.2,0.1,1.5,0.2c-1.8-1.8-2.8-3-2.7-3.4c0.4-0.4,1.7-2.1,1.7-3.4c0-0.9-1.3-2.9-1.3-2.9l0.3-0.2l3.5,4.4c0,0-1.7,2-1.7,3.4
			c0,1,0.6,1.8,1.1,2.3c0.2,0.3,1,1.1,1,1.2l0,0.3C470.7,309.6,470.2,309.5,469.8,309.5z"/>
	</g>
	<line fill="none" stroke="#000000" stroke-width="0.459" x1="489" y1="317" x2="489" y2="301"/>
	<g enable-background="new    ">
		<path d="M487.2,315.3c1.6,0,2.5,1.1,2,2.5c-0.5,1.4-2.2,2.5-3.8,2.5c-1.6,0-2.5-1.2-2-2.5C483.9,316.4,485.6,315.3,487.2,315.3z"
			/>
	</g>
	<line fill="none" stroke="#000000" stroke-width="0.459" x1="500.2" y1="301.8" x2="500.2" y2="317.8"/>
	<g enable-background="new    ">
		<path d="M506.1,301.1c-0.4,1-1.2,1.8-1.8,2.1c-0.6,0.3-1.4,0.4-2.2,0.4c-0.5,0-1.5-0.2-1.8-0.8c-0.4-0.7-0.1-1.4,0-1.8
			c0.4-1,1.1-1.6,1.7-2c0.6-0.3,1.5-0.6,2.5-0.5c0.4,0.1,1.3,0.1,1.7,0.8C506.4,299.8,506.2,300.7,506.1,301.1z M503.8,299.5
			c-0.4,0.2-0.7,0.4-1.1,0.6c-0.4,0.2-0.7,0.4-1.1,0.7c-0.6,0.3-1.3,1-0.9,1.6c0.4,0.6,1.3,0.3,1.9,0c0.4-0.2,0.8-0.4,1.2-0.6
			s0.7-0.4,1.1-0.7c0.5-0.3,1.3-1,0.9-1.6C505.3,298.9,504.4,299.2,503.8,299.5z"/>
	</g>
	<g enable-background="new    ">
		<path d="M563.5,300.9v2.8h-6.1v-2.8H563.5z"/>
	</g>
	<line fill="none" stroke="#000000" stroke-width="0.459" x1="556.8" y1="301" x2="564" y2="301"/>
	<g enable-background="new    ">
		<path d="M601.8,309.5c-0.8,0-1.5,0.5-1.5,1.4c0,0.6,1,1.5,1,1.5l-0.2,0.2c0,0-2.2-1.3-2.5-2.7c-0.1-0.9,0.5-1.8,1.6-1.9
			c0.4,0,1.2,0.1,1.5,0.2c-1.8-1.8-2.8-3-2.7-3.4c0.4-0.4,1.7-2.1,1.7-3.4c0-0.9-1.3-2.9-1.3-2.9l0.3-0.2l3.5,4.4c0,0-1.7,2-1.7,3.4
			c0,1,0.6,1.8,1.1,2.3c0.2,0.3,1,1.1,1,1.2l0,0.3C602.7,309.6,602.2,309.5,601.8,309.5z"/>
	</g>
	<line fill="none" stroke="#000000" stroke-width="0.459" x1="619.4" y1="314.5" x2="619.4" y2="298.5"/>
	<g enable-background="new    ">
		<path d="M617.6,312.9c1.6,0,2.5,1.1,2,2.5c-0.5,1.4-2.2,2.5-3.8,2.5c-1.6,0-2.5-1.2-2-2.5C614.3,314,616,312.9,617.6,312.9z"/>
	</g>
	<line fill="none" stroke="#000000" stroke-width="0.459" x1="629" y1="299.4" x2="629" y2="315.3"/>
	<g enable-background="new    ">
		<path d="M634.9,298.7c-0.4,1-1.2,1.8-1.8,2.1c-0.6,0.3-1.4,0.4-2.2,0.4c-0.5,0-1.5-0.2-1.8-0.8c-0.4-0.7-0.1-1.4,0-1.8
			c0.4-1,1.1-1.6,1.7-2c0.6-0.3,1.5-0.6,2.5-0.5c0.4,0.1,1.3,0.1,1.7,0.8C635.2,297.4,635,298.3,634.9,298.7z M632.6,297.1
			c-0.4,0.2-0.7,0.4-1.1,0.6c-0.4,0.2-0.7,0.4-1.1,0.7c-0.6,0.3-1.3,1-0.9,1.6c0.4,0.6,1.3,0.3,1.9,0c0.4-0.2,0.8-0.4,1.2-0.6
			s0.7-0.4,1.1-0.7c0.5-0.3,1.3-1,0.9-1.6C634.1,296.5,633.2,296.8,632.6,297.1z"/>
	</g>
	<g enable-background="new    ">
		<path d="M695.5,300.9v2.8h-6.1v-2.8H695.5z"/>
	</g>
	<line fill="none" stroke="#000000" stroke-width="0.459" x1="688.8" y1="301" x2="696" y2="301"/>
	<g enable-background="new    ">
		<path d="M733.8,309.5c-0.8,0-1.5,0.5-1.5,1.4c0,0.6,1,1.5,1,1.5l-0.2,0.2c0,0-2.2-1.3-2.5-2.7c-0.1-0.9,0.5-1.8,1.6-1.9
			c0.4,0,1.2,0.1,1.5,0.2c-1.8-1.8-2.8-3-2.7-3.4c0.4-0.4,1.7-2.1,1.7-3.4c0-0.9-1.3-2.9-1.3-2.9l0.3-0.2l3.5,4.4c0,0-1.7,2-1.7,3.4
			c0,1,0.6,1.8,1.1,2.3c0.2,0.3,1,1.1,1,1.2l0,0.3C734.7,309.6,734.2,309.5,733.8,309.5z"/>
	</g>
	<line fill="none" stroke="#000000" stroke-width="0.459" x1="753" y1="317" x2="753" y2="301"/>
	<g enable-background="new    ">
		<path d="M751.2,315.3c1.6,0,2.5,1.1,2,2.5c-0.5,1.4-2.2,2.5-3.8,2.5c-1.6,0-2.5-1.2-2-2.5C747.9,316.4,749.6,315.3,751.2,315.3z"
			/>
	</g>
	<line fill="none" stroke="#000000" stroke-width="0.459" x1="764.2" y1="301.8" x2="764.2" y2="317.8"/>
	<g enable-background="new    ">
		<path d="M770.1,301.1c-0.4,1-1.2,1.8-1.8,2.1c-0.6,0.3-1.4,0.4-2.2,0.4c-0.5,0-1.5-0.2-1.8-0.8c-0.4-0.7-0.1-1.4,0-1.8
			c0.4-1,1.1-1.6,1.7-2c0.6-0.3,1.5-0.6,2.5-0.5c0.4,0.1,1.3,0.1,1.7,0.8C770.4,299.8,770.2,300.7,770.1,301.1z M767.8,299.5
			c-0.4,0.2-0.7,0.4-1.1,0.6c-0.4,0.2-0.7,0.4-1.1,0.7c-0.6,0.3-1.3,1-0.9,1.6c0.4,0.6,1.3,0.3,1.9,0c0.4-0.2,0.8-0.4,1.2-0.6
			s0.7-0.4,1.1-0.7c0.5-0.3,1.3-1,0.9-1.6C769.3,298.9,768.4,299.2,767.8,299.5z"/>
	</g>
	<g enable-background="new    ">
		<path d="M827.5,300.9v2.8h-6.1v-2.8H827.5z"/>
	</g>
	<line fill="none" stroke="#000000" stroke-width="0.459" x1="820.8" y1="301" x2="828" y2="301"/>
	<g enable-background="new    ">
		<path d="M865.8,309.5c-0.8,0-1.5,0.5-1.5,1.4c0,0.6,1,1.5,1,1.5l-0.2,0.2c0,0-2.2-1.3-2.5-2.7c-0.1-0.9,0.5-1.8,1.6-1.9
			c0.4,0,1.2,0.1,1.5,0.2c-1.8-1.8-2.8-3-2.7-3.4c0.4-0.4,1.7-2.1,1.7-3.4c0-0.9-1.3-2.9-1.3-2.9l0.3-0.2l3.5,4.4c0,0-1.7,2-1.7,3.4
			c0,1,0.6,1.8,1.1,2.3c0.2,0.3,1,1.1,1,1.2l0,0.3C866.7,309.6,866.2,309.5,865.8,309.5z"/>
	</g>
	<line fill="none" stroke="#000000" stroke-width="0.459" x1="883.4" y1="314.5" x2="883.4" y2="298.5"/>
	<g enable-background="new    ">
		<path d="M881.6,312.9c1.6,0,2.5,1.1,2,2.5c-0.5,1.4-2.2,2.5-3.8,2.5c-1.6,0-2.5-1.2-2-2.5C878.3,314,880,312.9,881.6,312.9z"/>
	</g>
	<line fill="none" stroke="#000000" stroke-width="0.459" x1="893" y1="299.4" x2="893" y2="315.3"/>
	<g enable-background="new    ">
		<path d="M898.9,298.7c-0.4,1-1.2,1.8-1.8,2.1c-0.6,0.3-1.4,0.4-2.2,0.4c-0.5,0-1.5-0.2-1.8-0.8c-0.4-0.7-0.1-1.4,0-1.8
			c0.4-1,1.1-1.6,1.7-2c0.6-0.3,1.5-0.6,2.5-0.5c0.4,0.1,1.3,0.1,1.7,0.8C899.2,297.4,899,298.3,898.9,298.7z M896.6,297.1
			c-0.4,0.2-0.7,0.4-1.1,0.6c-0.4,0.2-0.7,0.4-1.1,0.7c-0.6,0.3-1.3,1-0.9,1.6c0.4,0.6,1.3,0.3,1.9,0c0.4-0.2,0.8-0.4,1.2-0.6
			s0.7-0.4,1.1-0.7c0.5-0.3,1.3-1,0.9-1.6C898.1,296.5,897.2,296.8,896.6,297.1z"/>
	</g>
	<g enable-background="new    ">
		<path d="M959.5,300.9v2.8h-6.1v-2.8H959.5z"/>
	</g>
	<line fill="none" stroke="#000000" stroke-width="0.459" x1="952.8" y1="301" x2="960" y2="301"/>
	<g enable-background="new    ">
		<path d="M997.8,309.5c-0.8,0-1.5,0.5-1.5,1.4c0,0.6,1,1.5,1,1.5l-0.2,0.2c0,0-2.2-1.3-2.5-2.7c-0.1-0.9,0.5-1.8,1.6-1.9
			c0.4,0,1.2,0.1,1.5,0.2c-1.8-1.8-2.8-3-2.7-3.4c0.4-0.4,1.7-2.1,1.7-3.4c0-0.9-1.3-2.9-1.3-2.9l0.3-0.2l3.5,4.4c0,0-1.7,2-1.7,3.4
			c0,1,0.6,1.8,1.1,2.3c0.2,0.3,1,1.1,1,1.2l0,0.3C998.7,309.6,998.2,309.5,997.8,309.5z"/>
	</g>
	<line fill="none" stroke="#000000" stroke-width="0.459" x1="1017.2" y1="317" x2="1017.2" y2="301"/>
	<g enable-background="new    ">
		<path d="M1015.4,315.3c1.6,0,2.5,1.1,2,2.5c-0.5,1.4-2.2,2.5-3.8,2.5c-1.6,0-2.5-1.2-2-2.5
			C1012.1,316.4,1013.8,315.3,1015.4,315.3z"/>
	</g>
	<line fill="none" stroke="#000000" stroke-width="0.459" x1="1028.6" y1="301.8" x2="1028.6" y2="317.8"/>
	<g enable-background="new    ">
		<path d="M1034.5,301.1c-0.4,1-1.2,1.8-1.8,2.1c-0.6,0.3-1.4,0.4-2.2,0.4c-0.5,0-1.5-0.2-1.8-0.8c-0.4-0.7-0.1-1.4,0-1.8
			c0.4-1,1.1-1.6,1.7-2c0.6-0.3,1.5-0.6,2.5-0.5c0.4,0.1,1.3,0.1,1.7,0.8C1034.8,299.8,1034.6,300.7,1034.5,301.1z M1032.2,299.5
			c-0.4,0.2-0.7,0.4-1.1,0.6c-0.4,0.2-0.7,0.4-1.1,0.7c-0.6,0.3-1.3,1-0.9,1.6c0.4,0.6,1.3,0.3,1.9,0c0.4-0.2,0.8-0.4,1.2-0.6
			c0.4-0.2,0.7-0.4,1.1-0.7c0.5-0.3,1.3-1,0.9-1.6C1033.7,298.9,1032.8,299.2,1032.2,299.5z"/>
	</g>
</g>
</svg>
