<?xml version="1.0" encoding="utf-8"?>
<!-- Generator: Adobe Illustrator 16.0.0, SVG Export Plug-In . SVG Version: 6.00 Build 0)  -->
<!DOCTYPE svg PUBLIC "-//W3C//DTD SVG 1.1//EN" "http://www.w3.org/Graphics/SVG/1.1/DTD/svg11.dtd">
<svg version="1.1" id="Layer_1" xmlns="http://www.w3.org/2000/svg" xmlns:xlink="http://www.w3.org/1999/xlink" x="0px" y="0px"
	 width="2880px" height="68px" viewBox="0 0 2880 68" enable-background="new 0 0 2880 68" xml:space="preserve">
<rect y="-70.3" fill="#FFFFFF" width="2880" height="288"/>
<line fill="none" stroke="#000000" stroke-width="0.459" stroke-miterlimit="10" x1="28.4" y1="-38.1" x2="28.4" y2="173.1"/>
<line fill="none" stroke="#000000" stroke-width="0.459" stroke-miterlimit="10" x1="30.8" y1="-38.1" x2="30.8" y2="173.1"/>
<g>
	<path d="M40.6,44.8c-4-1.9-4.6-4.3-4.8-6.8c-0.2-2.7,1.5-5.4,3.1-6.9c0.9-0.9,1.9-1.7,3.1-2.6c0-0.7-0.2-0.9-0.3-1.9
		c0-0.4-0.3-2.3,0.1-4.5c0.2-1.3,1.9-4.3,3-4.3c0.9,0,2.2,3.4,2.2,5.2c0.1,2.7-0.6,3.9-1.4,5.3c-0.4,0.7-0.8,1.2-1.3,1.7
		c-0.5,0.6-1,0.9-1.5,1.3c0,0,0.6,3.5,0.6,3.7c1.2-0.2,2.7,0.3,3.3,0.7c1.4,1,1.9,2.4,2,3.8c0.2,2.2-1,4.5-3.6,5.5
		c0,0,0.4,2.8,0.5,3.3c0.2,1.5,0.2,2.5-0.2,3.1c-0.6,1-1.5,2-3.2,2.1c-1.3,0.1-4-0.6-4.1-2.7c-0.1-1.2,0.5-2.6,2-2.7
		c0.9-0.1,2,0.7,2.1,1.8c0.1,0.9-0.5,1.9-2.1,2.4c0.2,0.3,1,0.7,2.1,0.7c1.1,0,2.3-0.7,2.8-1.7c0.3-0.7,0.3-1.8,0.2-2.9
		c-0.1-0.4-0.5-3.3-0.5-3.3C43.3,45.3,41.4,45.2,40.6,44.8z M40.9,40.3c0,0.9,0.8,2,1.5,2.4c-0.1,0.1-0.2,0.2-0.2,0.2
		c-0.8-0.4-1.5-1-1.6-1.2c-0.6-0.7-0.8-1.2-0.9-2.3c-0.1-1.1,0.5-2.5,1.8-3.5c0.7-0.5,1-0.6,1.6-0.7l-0.6-3.5
		c-0.6,0.3-3.1,2.3-4.1,3.9c-0.9,1.4-1.5,2.6-1.4,4c0.2,3.2,3.7,5.8,7.5,4.9c0,0-1.1-6.8-1.1-6.8C41.4,37.7,40.9,39.3,40.9,40.3z
		 M42.5,28.1c1.7-1.3,3.9-3.8,3.8-5.7c0-0.6-0.3-1.7-1.2-1.7C43.2,20.8,42.1,24.9,42.5,28.1z M45.1,44.3c2.2-0.7,2.3-2.6,2.2-3.8
		c-0.1-0.9-0.5-3.1-3.3-2.9L45.1,44.3z"/>
</g>
<g>
	<path d="M60.6,42.4v1.3c0,0.8,0.9,0.7,0.9,0.7v0.5h-4.2v-0.5c0,0,0.9,0,0.9-0.7v-1.3h-3.6L54.4,42c2.3-3.1,2.3-3.7,2.9-6.5h3.3
		c-0.8,1.5-3.4,4.2-5.3,6.4h3v-2.4l2.3-2.6v4.9H62v0.5H60.6z"/>
</g>
<g>
	<path d="M60.6,32.8V34c0,0.8,0.9,0.7,0.9,0.7v0.5h-4.2v-0.5c0,0,0.9,0,0.9-0.7v-1.3h-3.6l-0.3-0.4c2.3-3.1,2.3-3.7,2.9-6.5h3.3
		c-0.8,1.5-3.4,4.2-5.3,6.4h3v-2.4l2.3-2.6v4.9H62v0.5H60.6z"/>
</g>
<line fill="none" stroke="#000000" stroke-width="0.459" stroke-miterlimit="10" x1="151.6" y1="-38.1" x2="151.6" y2="173.1"/>
<line fill="none" stroke="#000000" stroke-width="0.459" stroke-miterlimit="10" x1="238.6" y1="-38.1" x2="238.6" y2="173.1"/>
<line fill="none" stroke="#000000" stroke-width="0.459" stroke-miterlimit="10" x1="325.6" y1="-38.1" x2="325.6" y2="173.1"/>
<line fill="none" stroke="#000000" stroke-width="0.459" stroke-miterlimit="10" x1="412.6" y1="-38.1" x2="412.6" y2="173.1"/>
<line fill="none" stroke="#000000" stroke-width="0.459" stroke-miterlimit="10" x1="499.6" y1="-38.1" x2="499.6" y2="173.1"/>
<line fill="none" stroke="#000000" stroke-width="0.459" stroke-miterlimit="10" x1="586.6" y1="-38.1" x2="586.6" y2="173.1"/>
<line fill="none" stroke="#000000" stroke-width="0.459" stroke-miterlimit="10" x1="673.6" y1="-38.1" x2="673.6" y2="173.1"/>
<line fill="none" stroke="#000000" stroke-width="0.459" stroke-miterlimit="10" x1="760.6" y1="-38.1" x2="760.6" y2="173.1"/>
<line fill="none" stroke="#000000" stroke-width="0.459" stroke-miterlimit="10" x1="847.6" y1="-38.1" x2="847.6" y2="173.1"/>
<line fill="none" stroke="#000000" stroke-width="0.459" stroke-miterlimit="10" x1="934.6" y1="-38.1" x2="934.6" y2="173.1"/>
<line fill="none" stroke="#000000" stroke-width="0.459" stroke-miterlimit="10" x1="1021.6" y1="-38.1" x2="1021.6" y2="173.1"/>
<line fill="none" stroke="#000000" stroke-width="0.459" stroke-miterlimit="10" x1="1108.6" y1="-38.1" x2="1108.6" y2="173.1"/>
<line fill="none" stroke="#000000" stroke-width="0.459" stroke-miterlimit="10" x1="1195.6" y1="-38.1" x2="1195.6" y2="173.1"/>
<line fill="none" stroke="#000000" stroke-width="0.459" stroke-miterlimit="10" x1="1282.6" y1="-38.1" x2="1282.6" y2="173.1"/>
<line fill="none" stroke="#000000" stroke-width="0.459" stroke-miterlimit="10" x1="1369.6" y1="-38.1" x2="1369.6" y2="173.1"/>
<line fill="none" stroke="#000000" stroke-width="0.459" stroke-miterlimit="10" x1="1456.6" y1="-38.1" x2="1456.6" y2="173.1"/>
<line fill="none" stroke="#000000" stroke-width="0.459" stroke-miterlimit="10" x1="1543.6" y1="-38.1" x2="1543.6" y2="173.1"/>
<line fill="none" stroke="#000000" stroke-width="0.459" stroke-miterlimit="10" x1="1630.6" y1="-38.1" x2="1630.6" y2="173.1"/>
<line fill="none" stroke="#000000" stroke-width="0.459" stroke-miterlimit="10" x1="1717.6" y1="-38.1" x2="1717.6" y2="173.1"/>
<line fill="none" stroke="#000000" stroke-width="0.459" stroke-miterlimit="10" x1="1804.6" y1="-38.1" x2="1804.6" y2="173.1"/>
<line fill="none" stroke="#000000" stroke-width="0.459" stroke-miterlimit="10" x1="1891.6" y1="-38.1" x2="1891.6" y2="173.1"/>
<line fill="none" stroke="#000000" stroke-width="0.459" stroke-miterlimit="10" x1="1978.6" y1="-38.1" x2="1978.6" y2="173.1"/>
<line fill="none" stroke="#000000" stroke-width="0.459" stroke-miterlimit="10" x1="2065.6" y1="-38.1" x2="2065.6" y2="173.1"/>
<line fill="none" stroke="#000000" stroke-width="0.459" stroke-miterlimit="10" x1="2152.6" y1="-38.1" x2="2152.6" y2="173.1"/>
<line fill="none" stroke="#000000" stroke-width="0.459" stroke-miterlimit="10" x1="2239.6" y1="-38.1" x2="2239.6" y2="173.1"/>
<line fill="none" stroke="#000000" stroke-width="0.459" stroke-miterlimit="10" x1="2326.6" y1="-38.1" x2="2326.6" y2="173.1"/>
<line fill="none" stroke="#000000" stroke-width="0.459" stroke-miterlimit="10" x1="2413.6" y1="-38.1" x2="2413.6" y2="173.1"/>
<line fill="none" stroke="#000000" stroke-width="0.459" stroke-miterlimit="10" x1="2500.6" y1="-38.1" x2="2500.6" y2="173.1"/>
<line fill="none" stroke="#000000" stroke-width="0.459" stroke-miterlimit="10" x1="2587.6" y1="-38.1" x2="2587.6" y2="173.1"/>
<line fill="none" stroke="#000000" stroke-width="0.459" stroke-miterlimit="10" x1="2674.6" y1="-38.1" x2="2674.6" y2="173.1"/>
<line fill="none" stroke="#000000" stroke-width="0.459" stroke-miterlimit="10" x1="2761.6" y1="-38.1" x2="2761.6" y2="173.1"/>
<line fill="none" stroke="#000000" stroke-width="2.4187" stroke-miterlimit="10" x1="2850.6" y1="-38.1" x2="2850.6" y2="173.1"/>
<line fill="none" stroke="#000000" stroke-width="0.459" stroke-miterlimit="10" x1="2846.7" y1="-38.1" x2="2846.7" y2="173.1"/>
<line fill="none" stroke="#000000" stroke-width="0.459" stroke-miterlimit="10" x1="28.2" y1="25.9" x2="2851.8" y2="25.9"/>
<line fill="none" stroke="#000000" stroke-width="0.459" stroke-miterlimit="10" x1="28.2" y1="30.7" x2="2851.8" y2="30.7"/>
<line fill="none" stroke="#000000" stroke-width="0.459" stroke-miterlimit="10" x1="28.2" y1="35.5" x2="2851.8" y2="35.5"/>
<line fill="none" stroke="#000000" stroke-width="0.459" stroke-miterlimit="10" x1="28.2" y1="40.3" x2="2851.8" y2="40.3"/>
<line fill="none" stroke="#000000" stroke-width="0.459" stroke-miterlimit="10" x1="28.2" y1="45.1" x2="2851.8" y2="45.1"/>
<rect x="105" y="30.6" width="6.1" height="2.8"/>
<line fill="none" stroke="#000000" stroke-width="0.459" stroke-miterlimit="10" x1="104.4" y1="30.7" x2="111.6" y2="30.7"/>
<rect x="192" y="30.6" width="6.1" height="2.8"/>
<line fill="none" stroke="#000000" stroke-width="0.459" stroke-miterlimit="10" x1="191.4" y1="30.7" x2="198.6" y2="30.7"/>
<rect x="279" y="30.6" width="6.1" height="2.8"/>
<line fill="none" stroke="#000000" stroke-width="0.459" stroke-miterlimit="10" x1="278.4" y1="30.7" x2="285.6" y2="30.7"/>
<rect x="366" y="30.6" width="6.1" height="2.8"/>
<line fill="none" stroke="#000000" stroke-width="0.459" stroke-miterlimit="10" x1="365.4" y1="30.7" x2="372.6" y2="30.7"/>
<rect x="453" y="30.6" width="6.1" height="2.8"/>
<line fill="none" stroke="#000000" stroke-width="0.459" stroke-miterlimit="10" x1="452.4" y1="30.7" x2="459.6" y2="30.7"/>
<rect x="540" y="30.6" width="6.1" height="2.8"/>
<line fill="none" stroke="#000000" stroke-width="0.459" stroke-miterlimit="10" x1="539.4" y1="30.7" x2="546.6" y2="30.7"/>
<rect x="627" y="30.6" width="6.1" height="2.8"/>
<line fill="none" stroke="#000000" stroke-width="0.459" stroke-miterlimit="10" x1="626.4" y1="30.7" x2="633.6" y2="30.7"/>
<rect x="714" y="30.6" width="6.1" height="2.8"/>
<line fill="none" stroke="#000000" stroke-width="0.459" stroke-miterlimit="10" x1="713.4" y1="30.7" x2="720.6" y2="30.7"/>
<rect x="801" y="30.6" width="6.1" height="2.8"/>
<line fill="none" stroke="#000000" stroke-width="0.459" stroke-miterlimit="10" x1="800.4" y1="30.7" x2="807.6" y2="30.7"/>
<rect x="888" y="30.6" width="6.1" height="2.8"/>
<line fill="none" stroke="#000000" stroke-width="0.459" stroke-miterlimit="10" x1="887.4" y1="30.7" x2="894.6" y2="30.7"/>
<rect x="975" y="30.6" width="6.1" height="2.8"/>
<line fill="none" stroke="#000000" stroke-width="0.459" stroke-miterlimit="10" x1="974.4" y1="30.7" x2="981.6" y2="30.7"/>
<rect x="1062" y="30.6" width="6.1" height="2.8"/>
<line fill="none" stroke="#000000" stroke-width="0.459" stroke-miterlimit="10" x1="1061.4" y1="30.7" x2="1068.6" y2="30.7"/>
<rect x="1149" y="30.6" width="6.1" height="2.8"/>
<line fill="none" stroke="#000000" stroke-width="0.459" stroke-miterlimit="10" x1="1148.4" y1="30.7" x2="1155.6" y2="30.7"/>
<rect x="1236" y="30.6" width="6.1" height="2.8"/>
<line fill="none" stroke="#000000" stroke-width="0.459" stroke-miterlimit="10" x1="1235.4" y1="30.7" x2="1242.6" y2="30.7"/>
<rect x="1323" y="30.6" width="6.1" height="2.8"/>
<line fill="none" stroke="#000000" stroke-width="0.459" stroke-miterlimit="10" x1="1322.4" y1="30.7" x2="1329.6" y2="30.7"/>
<rect x="1410" y="30.6" width="6.1" height="2.8"/>
<line fill="none" stroke="#000000" stroke-width="0.459" stroke-miterlimit="10" x1="1409.4" y1="30.7" x2="1416.6" y2="30.7"/>
<line fill="none" stroke="#000000" stroke-width="0.459" stroke-miterlimit="10" x1="1462" y1="33.9" x2="1462" y2="49.9"/>
<path d="M1462,33.1c0.1-0.3,0.3-0.7,0.6-1c0.3-0.3,0.6-0.6,0.9-0.8c0.3-0.2,0.7-0.4,1.1-0.5c0.4-0.1,0.8-0.2,1.2-0.2
	c0.4,0,0.8,0.1,1.1,0.2c0.3,0.1,0.5,0.3,0.7,0.5c0.2,0.2,0.3,0.5,0.3,0.8c0,0.3,0,0.6-0.1,1c-0.1,0.3-0.3,0.7-0.6,1
	c-0.3,0.3-0.6,0.6-0.9,0.8c-0.3,0.2-0.7,0.4-1.1,0.5s-0.8,0.2-1.2,0.2c-0.4,0-0.8-0.1-1.1-0.2s-0.5-0.3-0.7-0.5
	c-0.2-0.2-0.3-0.5-0.3-0.8C1461.8,33.8,1461.8,33.4,1462,33.1z"/>
<line fill="none" stroke="#000000" stroke-width="0.459" stroke-miterlimit="10" x1="1484.6" y1="33.9" x2="1484.6" y2="49.9"/>
<path d="M1484.6,33.1c0.1-0.3,0.3-0.7,0.6-1c0.3-0.3,0.6-0.6,0.9-0.8s0.7-0.4,1.1-0.5c0.4-0.1,0.8-0.2,1.2-0.2
	c0.4,0,0.8,0.1,1.1,0.2c0.3,0.1,0.5,0.3,0.7,0.5c0.2,0.2,0.3,0.5,0.3,0.8c0,0.3,0,0.6-0.1,1s-0.3,0.7-0.6,1
	c-0.3,0.3-0.6,0.6-0.9,0.8c-0.3,0.2-0.7,0.4-1.1,0.5s-0.8,0.2-1.2,0.2c-0.4,0-0.8-0.1-1.1-0.2s-0.5-0.3-0.7-0.5
	c-0.2-0.2-0.3-0.5-0.3-0.8C1484.4,33.8,1484.4,33.4,1484.6,33.1z"/>
<line fill="none" stroke="#000000" stroke-width="0.459" stroke-miterlimit="10" x1="1507.2" y1="33.9" x2="1507.2" y2="49.9"/>
<path d="M1513.1,31.4c0.1,0.1,0.1,0.3,0.1,0.5c0,0.2,0,0.3,0,0.5c0,0.2,0,0.3-0.1,0.5c0,0.2-0.1,0.3-0.1,0.4
	c-0.2,0.5-0.4,0.9-0.8,1.3s-0.7,0.6-1,0.8c-0.6,0.3-1.4,0.4-2.2,0.4c-0.1,0-0.3,0-0.5-0.1c-0.2,0-0.3-0.1-0.5-0.1
	c-0.2-0.1-0.3-0.1-0.5-0.2c-0.2-0.1-0.3-0.2-0.4-0.4c-0.1-0.2-0.2-0.3-0.2-0.5c0-0.2,0-0.3,0-0.5c0-0.2,0-0.3,0.1-0.4
	c0-0.1,0.1-0.3,0.1-0.4c0.2-0.5,0.4-0.9,0.8-1.2c0.3-0.3,0.6-0.6,0.9-0.7c0.3-0.2,0.7-0.3,1.1-0.4c0.4-0.1,0.9-0.1,1.4-0.1
	c0.1,0,0.2,0,0.4,0c0.2,0,0.3,0.1,0.5,0.1s0.3,0.1,0.5,0.2C1512.9,31.1,1513.1,31.2,1513.1,31.4z M1512.7,31.7
	c-0.1-0.2-0.2-0.3-0.4-0.3s-0.3-0.1-0.5-0.1s-0.3,0.1-0.5,0.1s-0.3,0.1-0.5,0.2c-0.2,0.1-0.4,0.2-0.6,0.3c-0.2,0.1-0.4,0.2-0.5,0.3
	c-0.4,0.2-0.7,0.4-1.1,0.7c-0.1,0.1-0.3,0.2-0.4,0.3c-0.1,0.1-0.3,0.2-0.4,0.4c-0.1,0.1-0.2,0.3-0.2,0.5c0,0.2,0,0.3,0.1,0.5
	c0.1,0.2,0.2,0.3,0.4,0.3c0.2,0.1,0.3,0.1,0.5,0s0.3-0.1,0.5-0.1c0.2-0.1,0.3-0.1,0.5-0.2c0.2-0.1,0.4-0.2,0.6-0.3
	c0.2-0.1,0.4-0.2,0.6-0.3c0.2-0.1,0.4-0.2,0.5-0.3c0.2-0.1,0.4-0.2,0.6-0.4c0.1-0.1,0.3-0.2,0.4-0.3c0.1-0.1,0.3-0.2,0.4-0.4
	c0.1-0.1,0.2-0.3,0.2-0.5C1512.8,32,1512.8,31.8,1512.7,31.7z"/>
<g>
	<path d="M1466.5,17.1l0.8,0.2c-0.2,0.6-0.4,1.1-0.9,1.4c-0.4,0.3-0.9,0.5-1.5,0.5c-0.6,0-1.1-0.1-1.5-0.4s-0.7-0.6-0.9-1.1
		s-0.3-1-0.3-1.5c0-0.6,0.1-1.1,0.3-1.6c0.2-0.4,0.6-0.8,1-1c0.4-0.2,0.9-0.3,1.4-0.3c0.6,0,1.1,0.1,1.4,0.4
		c0.4,0.3,0.7,0.7,0.8,1.2l-0.7,0.2c-0.1-0.4-0.3-0.7-0.6-0.9c-0.3-0.2-0.6-0.3-1-0.3c-0.4,0-0.8,0.1-1.1,0.3
		c-0.3,0.2-0.5,0.5-0.6,0.8c-0.1,0.4-0.2,0.7-0.2,1.1c0,0.5,0.1,0.9,0.2,1.3s0.4,0.6,0.7,0.8c0.3,0.2,0.6,0.3,1,0.3
		c0.4,0,0.8-0.1,1.1-0.4C1466.2,17.9,1466.4,17.5,1466.5,17.1z"/>
</g>
<line fill="none" stroke="#000000" stroke-width="0.459" stroke-miterlimit="10" x1="1549" y1="33.9" x2="1549" y2="49.9"/>
<path d="M1549,33.1c0.1-0.3,0.3-0.7,0.6-1s0.6-0.6,0.9-0.8s0.7-0.4,1.1-0.5c0.4-0.1,0.8-0.2,1.2-0.2c0.4,0,0.8,0.1,1.1,0.2
	c0.3,0.1,0.5,0.3,0.7,0.5c0.2,0.2,0.3,0.5,0.3,0.8c0,0.3,0,0.6-0.1,1s-0.3,0.7-0.6,1c-0.3,0.3-0.6,0.6-0.9,0.8
	c-0.3,0.2-0.7,0.4-1.1,0.5s-0.8,0.2-1.2,0.2c-0.4,0-0.8-0.1-1.1-0.2s-0.5-0.3-0.7-0.5c-0.2-0.2-0.3-0.5-0.3-0.8
	C1548.8,33.8,1548.8,33.4,1549,33.1z"/>
<line fill="none" stroke="#000000" stroke-width="0.459" stroke-miterlimit="10" x1="1571.6" y1="33.9" x2="1571.6" y2="49.9"/>
<path d="M1571.6,33.1c0.1-0.3,0.3-0.7,0.6-1c0.3-0.3,0.6-0.6,0.9-0.8c0.3-0.2,0.7-0.4,1.1-0.5c0.4-0.1,0.8-0.2,1.2-0.2
	c0.4,0,0.8,0.1,1.1,0.2c0.3,0.1,0.6,0.3,0.7,0.5c0.2,0.2,0.3,0.5,0.3,0.8c0,0.3,0,0.6-0.1,1c-0.1,0.3-0.3,0.7-0.6,1
	c-0.3,0.3-0.6,0.6-0.9,0.8c-0.3,0.2-0.7,0.4-1.1,0.5s-0.8,0.2-1.2,0.2c-0.4,0-0.8-0.1-1.1-0.2s-0.5-0.3-0.7-0.5
	c-0.2-0.2-0.3-0.5-0.3-0.8C1571.4,33.8,1571.4,33.4,1571.6,33.1z"/>
<line fill="none" stroke="#000000" stroke-width="0.459" stroke-miterlimit="10" x1="1594.2" y1="33.9" x2="1594.2" y2="49.9"/>
<path d="M1600.1,31.4c0.1,0.1,0.1,0.3,0.1,0.5c0,0.2,0,0.3,0,0.5c0,0.2,0,0.3-0.1,0.5c0,0.2-0.1,0.3-0.1,0.4
	c-0.2,0.5-0.4,0.9-0.8,1.3s-0.7,0.6-1,0.8c-0.6,0.3-1.4,0.4-2.2,0.4c-0.1,0-0.3,0-0.5-0.1c-0.2,0-0.3-0.1-0.5-0.1
	c-0.2-0.1-0.3-0.1-0.5-0.2c-0.2-0.1-0.3-0.2-0.4-0.4c-0.1-0.2-0.2-0.3-0.2-0.5c0-0.2,0-0.3,0-0.5s0-0.3,0.1-0.4
	c0-0.1,0.1-0.3,0.1-0.4c0.2-0.5,0.4-0.9,0.8-1.2c0.3-0.3,0.6-0.6,0.9-0.7c0.3-0.2,0.7-0.3,1.1-0.4c0.4-0.1,0.9-0.1,1.4-0.1
	c0.1,0,0.2,0,0.4,0c0.2,0,0.3,0.1,0.5,0.1s0.3,0.1,0.5,0.2C1599.9,31.1,1600.1,31.2,1600.1,31.4z M1599.7,31.7
	c-0.1-0.2-0.2-0.3-0.4-0.3s-0.3-0.1-0.5-0.1s-0.3,0.1-0.5,0.1c-0.2,0.1-0.3,0.1-0.5,0.2c-0.2,0.1-0.4,0.2-0.6,0.3
	c-0.2,0.1-0.4,0.2-0.5,0.3c-0.4,0.2-0.7,0.4-1.1,0.7c-0.1,0.1-0.3,0.2-0.4,0.3c-0.1,0.1-0.3,0.2-0.4,0.4c-0.1,0.1-0.2,0.3-0.2,0.5
	c0,0.2,0,0.3,0.1,0.5c0.1,0.2,0.2,0.3,0.4,0.3c0.2,0.1,0.3,0.1,0.5,0s0.3-0.1,0.5-0.1c0.2-0.1,0.3-0.1,0.5-0.2
	c0.2-0.1,0.4-0.2,0.6-0.3c0.2-0.1,0.4-0.2,0.6-0.3c0.2-0.1,0.4-0.2,0.5-0.3c0.2-0.1,0.4-0.2,0.6-0.4c0.1-0.1,0.3-0.2,0.4-0.3
	c0.1-0.1,0.3-0.2,0.4-0.4c0.1-0.1,0.2-0.3,0.2-0.5C1599.8,32,1599.8,31.8,1599.7,31.7z"/>
<g>
	<path d="M1549.4,19.1v-5.7h2c0.4,0,0.8,0,1,0.1c0.3,0.1,0.6,0.2,0.8,0.4c0.3,0.3,0.5,0.6,0.7,1c0.1,0.4,0.2,0.9,0.2,1.4
		c0,0.4-0.1,0.8-0.2,1.2s-0.2,0.6-0.4,0.8c-0.2,0.2-0.3,0.4-0.5,0.5c-0.2,0.1-0.4,0.2-0.7,0.3c-0.3,0.1-0.6,0.1-0.9,0.1H1549.4z
		 M1550.2,18.4h1.2c0.4,0,0.7,0,0.9-0.1s0.4-0.2,0.5-0.3c0.2-0.2,0.3-0.4,0.4-0.7c0.1-0.3,0.2-0.7,0.2-1.1c0-0.6-0.1-1.1-0.3-1.4
		c-0.2-0.3-0.4-0.5-0.7-0.6c-0.2-0.1-0.5-0.1-1-0.1h-1.2V18.4z"/>
</g>
<g>
	<path d="M1556.1,19.1v-3.7h0.6v0.5c0.1-0.2,0.3-0.3,0.5-0.4c0.2-0.1,0.4-0.2,0.7-0.2c0.3,0,0.5,0.1,0.7,0.2
		c0.2,0.1,0.3,0.3,0.4,0.5c0.3-0.4,0.7-0.7,1.2-0.7c0.4,0,0.7,0.1,0.9,0.3s0.3,0.5,0.3,0.9v2.6h-0.6v-2.4c0-0.3,0-0.4-0.1-0.5
		s-0.1-0.2-0.2-0.3c-0.1-0.1-0.2-0.1-0.4-0.1c-0.3,0-0.5,0.1-0.7,0.3c-0.2,0.2-0.3,0.5-0.3,0.8v2.2h-0.6v-2.4c0-0.3-0.1-0.5-0.2-0.6
		c-0.1-0.1-0.3-0.2-0.5-0.2c-0.2,0-0.3,0-0.5,0.1s-0.3,0.2-0.3,0.4c-0.1,0.2-0.1,0.4-0.1,0.8v1.9H1556.1z"/>
</g>
<line fill="none" stroke="#000000" stroke-width="0.459" stroke-miterlimit="10" x1="1636" y1="36.3" x2="1636" y2="52.3"/>
<path d="M1636,35.5c0.1-0.3,0.3-0.7,0.6-1c0.3-0.3,0.6-0.6,0.9-0.8s0.7-0.4,1.1-0.5c0.4-0.1,0.8-0.2,1.2-0.2c0.4,0,0.8,0.1,1.1,0.2
	c0.3,0.1,0.5,0.3,0.7,0.5c0.2,0.2,0.3,0.5,0.3,0.8s0,0.6-0.1,1s-0.3,0.7-0.6,1s-0.6,0.6-0.9,0.8c-0.3,0.2-0.7,0.4-1.1,0.5
	c-0.4,0.1-0.8,0.2-1.2,0.2c-0.4,0-0.8-0.1-1.1-0.2c-0.3-0.1-0.5-0.3-0.7-0.5s-0.3-0.5-0.3-0.8C1635.8,36.2,1635.8,35.8,1636,35.5z"
	/>
<line fill="none" stroke="#000000" stroke-width="0.459" stroke-miterlimit="10" x1="1658.6" y1="36.3" x2="1658.6" y2="52.3"/>
<path d="M1658.6,35.5c0.1-0.3,0.3-0.7,0.6-1c0.3-0.3,0.6-0.6,0.9-0.8c0.3-0.2,0.7-0.4,1.1-0.5c0.4-0.1,0.8-0.2,1.2-0.2
	c0.4,0,0.8,0.1,1.1,0.2c0.3,0.1,0.6,0.3,0.7,0.5c0.2,0.2,0.3,0.5,0.3,0.8s0,0.6-0.1,1c-0.1,0.3-0.3,0.7-0.6,1s-0.6,0.6-0.9,0.8
	c-0.3,0.2-0.7,0.4-1.1,0.5c-0.4,0.1-0.8,0.2-1.2,0.2c-0.4,0-0.8-0.1-1.1-0.2c-0.3-0.1-0.5-0.3-0.7-0.5s-0.3-0.5-0.3-0.8
	C1658.4,36.2,1658.4,35.8,1658.6,35.5z"/>
<line fill="none" stroke="#000000" stroke-width="0.459" stroke-miterlimit="10" x1="1681.2" y1="36.3" x2="1681.2" y2="52.3"/>
<path d="M1687.1,33.8c0.1,0.1,0.1,0.3,0.1,0.5c0,0.2,0,0.3,0,0.5c0,0.2,0,0.3-0.1,0.5c0,0.2-0.1,0.3-0.1,0.4
	c-0.2,0.5-0.4,0.9-0.8,1.3c-0.4,0.4-0.7,0.6-1,0.8c-0.6,0.3-1.4,0.4-2.2,0.4c-0.1,0-0.3,0-0.5-0.1c-0.2,0-0.3-0.1-0.5-0.1
	c-0.2-0.1-0.3-0.1-0.5-0.2s-0.3-0.2-0.4-0.4c-0.1-0.2-0.2-0.3-0.2-0.5s0-0.3,0-0.5s0-0.3,0.1-0.4c0-0.1,0.1-0.3,0.1-0.4
	c0.2-0.5,0.4-0.9,0.8-1.2c0.3-0.3,0.6-0.6,0.9-0.7c0.3-0.2,0.7-0.3,1.1-0.4c0.4-0.1,0.9-0.1,1.4-0.1c0.1,0,0.2,0,0.4,0
	c0.2,0,0.3,0.1,0.5,0.1s0.3,0.1,0.5,0.2C1686.9,33.5,1687.1,33.6,1687.1,33.8z M1686.7,34.1c-0.1-0.2-0.2-0.3-0.4-0.3
	s-0.3-0.1-0.5-0.1s-0.3,0.1-0.5,0.1c-0.2,0.1-0.3,0.1-0.5,0.2c-0.2,0.1-0.4,0.2-0.6,0.3c-0.2,0.1-0.4,0.2-0.5,0.3
	c-0.4,0.2-0.7,0.4-1.1,0.7c-0.1,0.1-0.3,0.2-0.4,0.3c-0.1,0.1-0.3,0.2-0.4,0.4c-0.1,0.1-0.2,0.3-0.2,0.5c0,0.2,0,0.3,0.1,0.5
	c0.1,0.2,0.2,0.3,0.4,0.3c0.2,0.1,0.3,0.1,0.5,0c0.2,0,0.3-0.1,0.5-0.1c0.2-0.1,0.3-0.1,0.5-0.2c0.2-0.1,0.4-0.2,0.6-0.3
	s0.4-0.2,0.6-0.3c0.2-0.1,0.4-0.2,0.5-0.3c0.2-0.1,0.4-0.2,0.6-0.4c0.1-0.1,0.3-0.2,0.4-0.3s0.3-0.2,0.4-0.4
	c0.1-0.1,0.2-0.3,0.2-0.5C1686.8,34.4,1686.8,34.2,1686.7,34.1z"/>
<g>
	<path d="M1639.1,16.8v-0.7l2.4,0v2.1c-0.4,0.3-0.8,0.5-1.2,0.7c-0.4,0.1-0.8,0.2-1.2,0.2c-0.6,0-1.1-0.1-1.5-0.4
		c-0.5-0.2-0.8-0.6-1-1s-0.4-1-0.4-1.5c0-0.6,0.1-1.1,0.3-1.6c0.2-0.5,0.6-0.8,1-1.1s0.9-0.4,1.5-0.4c0.4,0,0.8,0.1,1.1,0.2
		c0.3,0.1,0.6,0.3,0.8,0.6c0.2,0.2,0.3,0.6,0.4,0.9l-0.7,0.2c-0.1-0.3-0.2-0.5-0.3-0.7c-0.1-0.2-0.3-0.3-0.5-0.4
		c-0.2-0.1-0.5-0.2-0.8-0.2c-0.3,0-0.6,0.1-0.9,0.2c-0.3,0.1-0.5,0.2-0.6,0.4s-0.3,0.4-0.4,0.6c-0.1,0.4-0.2,0.7-0.2,1.2
		c0,0.5,0.1,0.9,0.3,1.3s0.4,0.6,0.8,0.8s0.7,0.2,1.1,0.2c0.3,0,0.6-0.1,1-0.2s0.5-0.3,0.7-0.4v-1.1H1639.1z"/>
</g>
<line fill="none" stroke="#000000" stroke-width="0.459" stroke-miterlimit="10" x1="1723" y1="36.3" x2="1723" y2="52.3"/>
<path d="M1723,35.5c0.1-0.3,0.3-0.7,0.6-1c0.3-0.3,0.6-0.6,0.9-0.8s0.7-0.4,1.1-0.5c0.4-0.1,0.8-0.2,1.2-0.2c0.4,0,0.8,0.1,1.1,0.2
	c0.3,0.1,0.5,0.3,0.7,0.5c0.2,0.2,0.3,0.5,0.3,0.8s0,0.6-0.1,1s-0.3,0.7-0.6,1s-0.6,0.6-0.9,0.8c-0.3,0.2-0.7,0.4-1.1,0.5
	c-0.4,0.1-0.8,0.2-1.2,0.2c-0.4,0-0.8-0.1-1.1-0.2c-0.3-0.1-0.5-0.3-0.7-0.5s-0.3-0.5-0.3-0.8C1722.8,36.2,1722.8,35.8,1723,35.5z"
	/>
<line fill="none" stroke="#000000" stroke-width="0.459" stroke-miterlimit="10" x1="1745.6" y1="36.3" x2="1745.6" y2="52.3"/>
<path d="M1745.6,35.5c0.1-0.3,0.3-0.7,0.6-1c0.3-0.3,0.6-0.6,0.9-0.8c0.3-0.2,0.7-0.4,1.1-0.5c0.4-0.1,0.8-0.2,1.2-0.2
	c0.4,0,0.8,0.1,1.1,0.2c0.3,0.1,0.6,0.3,0.7,0.5c0.2,0.2,0.3,0.5,0.3,0.8s0,0.6-0.1,1c-0.1,0.3-0.3,0.7-0.6,1s-0.6,0.6-0.9,0.8
	c-0.3,0.2-0.7,0.4-1.1,0.5c-0.4,0.1-0.8,0.2-1.2,0.2c-0.4,0-0.8-0.1-1.1-0.2c-0.3-0.1-0.5-0.3-0.7-0.5s-0.3-0.5-0.3-0.8
	C1745.4,36.2,1745.4,35.8,1745.6,35.5z"/>
<line fill="none" stroke="#000000" stroke-width="0.459" stroke-miterlimit="10" x1="1768.2" y1="36.3" x2="1768.2" y2="52.3"/>
<path d="M1774.1,33.8c0.1,0.1,0.1,0.3,0.1,0.5c0,0.2,0,0.3,0,0.5c0,0.2,0,0.3-0.1,0.5c0,0.2-0.1,0.3-0.1,0.4
	c-0.2,0.5-0.4,0.9-0.8,1.3c-0.4,0.4-0.7,0.6-1,0.8c-0.6,0.3-1.4,0.4-2.2,0.4c-0.1,0-0.3,0-0.5-0.1c-0.2,0-0.3-0.1-0.5-0.1
	c-0.2-0.1-0.3-0.1-0.5-0.2s-0.3-0.2-0.4-0.4c-0.1-0.2-0.2-0.3-0.2-0.5s0-0.3,0-0.5s0-0.3,0.1-0.4c0-0.1,0.1-0.3,0.1-0.4
	c0.2-0.5,0.4-0.9,0.8-1.2c0.3-0.3,0.6-0.6,0.9-0.7c0.3-0.2,0.7-0.3,1.1-0.4c0.4-0.1,0.9-0.1,1.4-0.1c0.1,0,0.2,0,0.4,0
	c0.2,0,0.3,0.1,0.5,0.1s0.3,0.1,0.5,0.2C1773.9,33.5,1774.1,33.6,1774.1,33.8z M1773.7,34.1c-0.1-0.2-0.2-0.3-0.4-0.3
	s-0.3-0.1-0.5-0.1s-0.3,0.1-0.5,0.1c-0.2,0.1-0.3,0.1-0.5,0.2c-0.2,0.1-0.4,0.2-0.6,0.3c-0.2,0.1-0.4,0.2-0.5,0.3
	c-0.4,0.2-0.7,0.4-1.1,0.7c-0.1,0.1-0.3,0.2-0.4,0.3c-0.1,0.1-0.3,0.2-0.4,0.4c-0.1,0.1-0.2,0.3-0.2,0.5c0,0.2,0,0.3,0.1,0.5
	c0.1,0.2,0.2,0.3,0.4,0.3c0.2,0.1,0.3,0.1,0.5,0c0.2,0,0.3-0.1,0.5-0.1c0.2-0.1,0.3-0.1,0.5-0.2c0.2-0.1,0.4-0.2,0.6-0.3
	s0.4-0.2,0.6-0.3c0.2-0.1,0.4-0.2,0.5-0.3c0.2-0.1,0.4-0.2,0.6-0.4c0.1-0.1,0.3-0.2,0.4-0.3s0.3-0.2,0.4-0.4
	c0.1-0.1,0.2-0.3,0.2-0.5C1773.8,34.4,1773.8,34.2,1773.7,34.1z"/>
<g>
	<path d="M1723.4,19.1v-5.7h4.1V14h-3.4v1.8h3.2v0.7h-3.2v1.9h3.5v0.7H1723.4z"/>
</g>
<g>
	<path d="M1729.3,19.1v-3.7h0.6v0.5c0.1-0.2,0.3-0.3,0.5-0.4c0.2-0.1,0.4-0.2,0.7-0.2c0.3,0,0.5,0.1,0.7,0.2
		c0.2,0.1,0.3,0.3,0.4,0.5c0.3-0.4,0.7-0.7,1.2-0.7c0.4,0,0.7,0.1,0.9,0.3s0.3,0.5,0.3,0.9v2.6h-0.6v-2.4c0-0.3,0-0.4-0.1-0.5
		s-0.1-0.2-0.2-0.3c-0.1-0.1-0.2-0.1-0.4-0.1c-0.3,0-0.5,0.1-0.7,0.3c-0.2,0.2-0.3,0.5-0.3,0.8v2.2h-0.6v-2.4c0-0.3-0.1-0.5-0.2-0.6
		c-0.1-0.1-0.3-0.2-0.5-0.2c-0.2,0-0.3,0-0.5,0.1s-0.3,0.2-0.3,0.4c-0.1,0.2-0.1,0.4-0.1,0.8v1.9H1729.3z"/>
</g>
<line fill="none" stroke="#000000" stroke-width="0.459" stroke-miterlimit="10" x1="1810" y1="33.9" x2="1810" y2="49.9"/>
<path d="M1810,33.1c0.1-0.3,0.3-0.7,0.6-1s0.6-0.6,0.9-0.8s0.7-0.4,1.1-0.5c0.4-0.1,0.8-0.2,1.2-0.2c0.4,0,0.8,0.1,1.1,0.2
	c0.3,0.1,0.5,0.3,0.7,0.5c0.2,0.2,0.3,0.5,0.3,0.8c0,0.3,0,0.6-0.1,1s-0.3,0.7-0.6,1c-0.3,0.3-0.6,0.6-0.9,0.8
	c-0.3,0.2-0.7,0.4-1.1,0.5s-0.8,0.2-1.2,0.2c-0.4,0-0.8-0.1-1.1-0.2s-0.5-0.3-0.7-0.5c-0.2-0.2-0.3-0.5-0.3-0.8
	C1809.8,33.8,1809.8,33.4,1810,33.1z"/>
<line fill="none" stroke="#000000" stroke-width="0.459" stroke-miterlimit="10" x1="1832.6" y1="33.9" x2="1832.6" y2="49.9"/>
<path d="M1832.6,33.1c0.1-0.3,0.3-0.7,0.6-1c0.3-0.3,0.6-0.6,0.9-0.8c0.3-0.2,0.7-0.4,1.1-0.5c0.4-0.1,0.8-0.2,1.2-0.2
	c0.4,0,0.8,0.1,1.1,0.2c0.3,0.1,0.6,0.3,0.7,0.5c0.2,0.2,0.3,0.5,0.3,0.8c0,0.3,0,0.6-0.1,1c-0.1,0.3-0.3,0.7-0.6,1
	c-0.3,0.3-0.6,0.6-0.9,0.8c-0.3,0.2-0.7,0.4-1.1,0.5s-0.8,0.2-1.2,0.2c-0.4,0-0.8-0.1-1.1-0.2s-0.5-0.3-0.7-0.5
	c-0.2-0.2-0.3-0.5-0.3-0.8C1832.4,33.8,1832.4,33.4,1832.6,33.1z"/>
<line fill="none" stroke="#000000" stroke-width="0.459" stroke-miterlimit="10" x1="1855.2" y1="33.9" x2="1855.2" y2="49.9"/>
<path d="M1861.1,31.4c0.1,0.1,0.1,0.3,0.1,0.5c0,0.2,0,0.3,0,0.5c0,0.2,0,0.3-0.1,0.5c0,0.2-0.1,0.3-0.1,0.4
	c-0.2,0.5-0.4,0.9-0.8,1.3s-0.7,0.6-1,0.8c-0.6,0.3-1.4,0.4-2.2,0.4c-0.1,0-0.3,0-0.5-0.1c-0.2,0-0.3-0.1-0.5-0.1
	c-0.2-0.1-0.3-0.1-0.5-0.2c-0.2-0.1-0.3-0.2-0.4-0.4c-0.1-0.2-0.2-0.3-0.2-0.5c0-0.2,0-0.3,0-0.5s0-0.3,0.1-0.4
	c0-0.1,0.1-0.3,0.1-0.4c0.2-0.5,0.4-0.9,0.8-1.2c0.3-0.3,0.6-0.6,0.9-0.7c0.3-0.2,0.7-0.3,1.1-0.4c0.4-0.1,0.9-0.1,1.4-0.1
	c0.1,0,0.2,0,0.4,0c0.2,0,0.3,0.1,0.5,0.1s0.3,0.1,0.5,0.2C1860.9,31.1,1861.1,31.2,1861.1,31.4z M1860.7,31.7
	c-0.1-0.2-0.2-0.3-0.4-0.3s-0.3-0.1-0.5-0.1s-0.3,0.1-0.5,0.1c-0.2,0.1-0.3,0.1-0.5,0.2c-0.2,0.1-0.4,0.2-0.6,0.3
	c-0.2,0.1-0.4,0.2-0.5,0.3c-0.4,0.2-0.7,0.4-1.1,0.7c-0.1,0.1-0.3,0.2-0.4,0.3c-0.1,0.1-0.3,0.2-0.4,0.4c-0.1,0.1-0.2,0.3-0.2,0.5
	c0,0.2,0,0.3,0.1,0.5c0.1,0.2,0.2,0.3,0.4,0.3c0.2,0.1,0.3,0.1,0.5,0s0.3-0.1,0.5-0.1c0.2-0.1,0.3-0.1,0.5-0.2
	c0.2-0.1,0.4-0.2,0.6-0.3c0.2-0.1,0.4-0.2,0.6-0.3c0.2-0.1,0.4-0.2,0.5-0.3c0.2-0.1,0.4-0.2,0.6-0.4c0.1-0.1,0.3-0.2,0.4-0.3
	c0.1-0.1,0.3-0.2,0.4-0.4c0.1-0.1,0.2-0.3,0.2-0.5C1860.8,32,1860.8,31.8,1860.7,31.7z"/>
<g>
	<path d="M1809.8,19.1l2.2-5.7h0.8l2.3,5.7h-0.9l-0.7-1.7h-2.4l-0.6,1.7H1809.8z M1811.4,16.7h1.9l-0.6-1.6
		c-0.2-0.5-0.3-0.9-0.4-1.2c-0.1,0.4-0.2,0.7-0.3,1.1L1811.4,16.7z"/>
</g>
<g>
	<path d="M1816.3,19.1v-3.7h0.6v0.5c0.1-0.2,0.3-0.3,0.5-0.4c0.2-0.1,0.4-0.2,0.7-0.2c0.3,0,0.5,0.1,0.7,0.2
		c0.2,0.1,0.3,0.3,0.4,0.5c0.3-0.4,0.7-0.7,1.2-0.7c0.4,0,0.7,0.1,0.9,0.3s0.3,0.5,0.3,0.9v2.6h-0.6v-2.4c0-0.3,0-0.4-0.1-0.5
		s-0.1-0.2-0.2-0.3c-0.1-0.1-0.2-0.1-0.4-0.1c-0.3,0-0.5,0.1-0.7,0.3c-0.2,0.2-0.3,0.5-0.3,0.8v2.2h-0.6v-2.4c0-0.3-0.1-0.5-0.2-0.6
		c-0.1-0.1-0.3-0.2-0.5-0.2c-0.2,0-0.3,0-0.5,0.1s-0.3,0.2-0.3,0.4c-0.1,0.2-0.1,0.4-0.1,0.8v1.9H1816.3z"/>
</g>
<line fill="none" stroke="#000000" stroke-width="0.459" stroke-miterlimit="10" x1="1897" y1="33.9" x2="1897" y2="49.9"/>
<path d="M1897,33.1c0.1-0.3,0.3-0.7,0.6-1s0.6-0.6,0.9-0.8s0.7-0.4,1.1-0.5c0.4-0.1,0.8-0.2,1.2-0.2c0.4,0,0.8,0.1,1.1,0.2
	c0.3,0.1,0.5,0.3,0.7,0.5c0.2,0.2,0.3,0.5,0.3,0.8c0,0.3,0,0.6-0.1,1s-0.3,0.7-0.6,1c-0.3,0.3-0.6,0.6-0.9,0.8
	c-0.3,0.2-0.7,0.4-1.1,0.5s-0.8,0.2-1.2,0.2c-0.4,0-0.8-0.1-1.1-0.2s-0.5-0.3-0.7-0.5c-0.2-0.2-0.3-0.5-0.3-0.8
	C1896.8,33.8,1896.8,33.4,1897,33.1z"/>
<line fill="none" stroke="#000000" stroke-width="0.459" stroke-miterlimit="10" x1="1919.6" y1="33.9" x2="1919.6" y2="49.9"/>
<path d="M1919.6,33.1c0.1-0.3,0.3-0.7,0.6-1c0.3-0.3,0.6-0.6,0.9-0.8c0.3-0.2,0.7-0.4,1.1-0.5c0.4-0.1,0.8-0.2,1.2-0.2
	c0.4,0,0.8,0.1,1.1,0.2c0.3,0.1,0.6,0.3,0.7,0.5c0.2,0.2,0.3,0.5,0.3,0.8c0,0.3,0,0.6-0.1,1c-0.1,0.3-0.3,0.7-0.6,1
	c-0.3,0.3-0.6,0.6-0.9,0.8c-0.3,0.2-0.7,0.4-1.1,0.5s-0.8,0.2-1.2,0.2c-0.4,0-0.8-0.1-1.1-0.2s-0.5-0.3-0.7-0.5
	c-0.2-0.2-0.3-0.5-0.3-0.8C1919.4,33.8,1919.4,33.4,1919.6,33.1z"/>
<line fill="none" stroke="#000000" stroke-width="0.459" stroke-miterlimit="10" x1="1942.2" y1="33.9" x2="1942.2" y2="49.9"/>
<path d="M1948.1,31.4c0.1,0.1,0.1,0.3,0.1,0.5c0,0.2,0,0.3,0,0.5c0,0.2,0,0.3-0.1,0.5c0,0.2-0.1,0.3-0.1,0.4
	c-0.2,0.5-0.4,0.9-0.8,1.3s-0.7,0.6-1,0.8c-0.6,0.3-1.4,0.4-2.2,0.4c-0.1,0-0.3,0-0.5-0.1c-0.2,0-0.3-0.1-0.5-0.1
	c-0.2-0.1-0.3-0.1-0.5-0.2c-0.2-0.1-0.3-0.2-0.4-0.4c-0.1-0.2-0.2-0.3-0.2-0.5c0-0.2,0-0.3,0-0.5s0-0.3,0.1-0.4
	c0-0.1,0.1-0.3,0.1-0.4c0.2-0.5,0.4-0.9,0.8-1.2c0.3-0.3,0.6-0.6,0.9-0.7c0.3-0.2,0.7-0.3,1.1-0.4c0.4-0.1,0.9-0.1,1.4-0.1
	c0.1,0,0.2,0,0.4,0c0.2,0,0.3,0.1,0.5,0.1s0.3,0.1,0.5,0.2C1947.9,31.1,1948.1,31.2,1948.1,31.4z M1947.7,31.7
	c-0.1-0.2-0.2-0.3-0.4-0.3s-0.3-0.1-0.5-0.1s-0.3,0.1-0.5,0.1c-0.2,0.1-0.3,0.1-0.5,0.2c-0.2,0.1-0.4,0.2-0.6,0.3
	c-0.2,0.1-0.4,0.2-0.5,0.3c-0.4,0.2-0.7,0.4-1.1,0.7c-0.1,0.1-0.3,0.2-0.4,0.3c-0.1,0.1-0.3,0.2-0.4,0.4c-0.1,0.1-0.2,0.3-0.2,0.5
	c0,0.2,0,0.3,0.1,0.5c0.1,0.2,0.2,0.3,0.4,0.3c0.2,0.1,0.3,0.1,0.5,0s0.3-0.1,0.5-0.1c0.2-0.1,0.3-0.1,0.5-0.2
	c0.2-0.1,0.4-0.2,0.6-0.3c0.2-0.1,0.4-0.2,0.6-0.3c0.2-0.1,0.4-0.2,0.5-0.3c0.2-0.1,0.4-0.2,0.6-0.4c0.1-0.1,0.3-0.2,0.4-0.3
	c0.1-0.1,0.3-0.2,0.4-0.4c0.1-0.1,0.2-0.3,0.2-0.5C1947.8,32,1947.8,31.8,1947.7,31.7z"/>
<g>
	<path d="M1897.4,19.1v-5.7h2c0.4,0,0.8,0,1,0.1c0.3,0.1,0.6,0.2,0.8,0.4c0.3,0.3,0.5,0.6,0.7,1c0.1,0.4,0.2,0.9,0.2,1.4
		c0,0.4-0.1,0.8-0.2,1.2s-0.2,0.6-0.4,0.8c-0.2,0.2-0.3,0.4-0.5,0.5c-0.2,0.1-0.4,0.2-0.7,0.3c-0.3,0.1-0.6,0.1-0.9,0.1H1897.4z
		 M1898.2,18.4h1.2c0.4,0,0.7,0,0.9-0.1s0.4-0.2,0.5-0.3c0.2-0.2,0.3-0.4,0.4-0.7c0.1-0.3,0.2-0.7,0.2-1.1c0-0.6-0.1-1.1-0.3-1.4
		c-0.2-0.3-0.4-0.5-0.7-0.6c-0.2-0.1-0.5-0.1-1-0.1h-1.2V18.4z"/>
</g>
<g>
	<path d="M1904.1,19.1v-3.7h0.6v0.5c0.1-0.2,0.3-0.3,0.5-0.4c0.2-0.1,0.4-0.2,0.7-0.2c0.3,0,0.5,0.1,0.7,0.2
		c0.2,0.1,0.3,0.3,0.4,0.5c0.3-0.4,0.7-0.7,1.2-0.7c0.4,0,0.7,0.1,0.9,0.3s0.3,0.5,0.3,0.9v2.6h-0.6v-2.4c0-0.3,0-0.4-0.1-0.5
		s-0.1-0.2-0.2-0.3c-0.1-0.1-0.2-0.1-0.4-0.1c-0.3,0-0.5,0.1-0.7,0.3c-0.2,0.2-0.3,0.5-0.3,0.8v2.2h-0.6v-2.4c0-0.3-0.1-0.5-0.2-0.6
		c-0.1-0.1-0.3-0.2-0.5-0.2c-0.2,0-0.3,0-0.5,0.1s-0.3,0.2-0.3,0.4c-0.1,0.2-0.1,0.4-0.1,0.8v1.9H1904.1z"/>
</g>
<g>
	<path d="M1968.9,16.8v-0.7l2.4,0v2.1c-0.4,0.3-0.8,0.5-1.2,0.7c-0.4,0.1-0.8,0.2-1.2,0.2c-0.6,0-1.1-0.1-1.5-0.4
		c-0.5-0.2-0.8-0.6-1-1s-0.4-1-0.4-1.5c0-0.6,0.1-1.1,0.3-1.6c0.2-0.5,0.6-0.8,1-1.1s0.9-0.4,1.5-0.4c0.4,0,0.8,0.1,1.1,0.2
		c0.3,0.1,0.6,0.3,0.8,0.6c0.2,0.2,0.3,0.6,0.4,0.9l-0.7,0.2c-0.1-0.3-0.2-0.5-0.3-0.7c-0.1-0.2-0.3-0.3-0.5-0.4
		c-0.2-0.1-0.5-0.2-0.8-0.2c-0.3,0-0.6,0.1-0.9,0.2c-0.3,0.1-0.5,0.2-0.6,0.4s-0.3,0.4-0.4,0.6c-0.1,0.4-0.2,0.7-0.2,1.2
		c0,0.5,0.1,0.9,0.3,1.3s0.4,0.6,0.8,0.8s0.7,0.2,1.1,0.2c0.3,0,0.6-0.1,1-0.2s0.5-0.3,0.7-0.4v-1.1H1968.9z"/>
</g>
<g>
	<path d="M1972.6,18l0.6-0.1c0,0.3,0.1,0.4,0.3,0.6c0.2,0.1,0.4,0.2,0.7,0.2c0.3,0,0.5-0.1,0.6-0.2c0.1-0.1,0.2-0.3,0.2-0.4
		c0-0.1-0.1-0.3-0.2-0.3c-0.1-0.1-0.3-0.1-0.6-0.2c-0.5-0.1-0.8-0.2-1-0.3c-0.2-0.1-0.3-0.2-0.4-0.4s-0.1-0.3-0.1-0.5
		c0-0.2,0-0.3,0.1-0.5c0.1-0.1,0.2-0.3,0.3-0.4c0.1-0.1,0.2-0.1,0.4-0.2c0.2-0.1,0.4-0.1,0.5-0.1c0.3,0,0.6,0,0.8,0.1
		c0.2,0.1,0.4,0.2,0.5,0.3s0.2,0.3,0.2,0.6l-0.6,0.1c0-0.2-0.1-0.3-0.2-0.4c-0.1-0.1-0.3-0.2-0.6-0.2c-0.3,0-0.5,0-0.6,0.1
		c-0.1,0.1-0.2,0.2-0.2,0.3c0,0.1,0,0.2,0.1,0.2c0.1,0.1,0.1,0.1,0.2,0.2c0.1,0,0.2,0.1,0.6,0.2c0.4,0.1,0.8,0.2,0.9,0.3
		c0.2,0.1,0.3,0.2,0.4,0.3c0.1,0.1,0.2,0.3,0.2,0.5c0,0.2-0.1,0.4-0.2,0.6s-0.3,0.3-0.5,0.4c-0.2,0.1-0.5,0.2-0.8,0.2
		c-0.5,0-0.9-0.1-1.1-0.3C1972.9,18.6,1972.7,18.3,1972.6,18z"/>
</g>
<g>
	<path d="M1978.9,19.1v-0.5c-0.3,0.4-0.7,0.6-1.2,0.6c-0.2,0-0.4,0-0.6-0.1c-0.2-0.1-0.3-0.2-0.4-0.3s-0.2-0.3-0.2-0.5
		c0-0.1,0-0.3,0-0.6v-2.3h0.6v2.1c0,0.3,0,0.6,0,0.7c0,0.2,0.1,0.3,0.3,0.4c0.1,0.1,0.3,0.1,0.5,0.1s0.4,0,0.5-0.1
		c0.2-0.1,0.3-0.2,0.4-0.4c0.1-0.2,0.1-0.4,0.1-0.7v-2h0.6v3.7H1978.9z"/>
</g>
<g>
	<path d="M1980.2,18l0.6-0.1c0,0.3,0.1,0.4,0.3,0.6c0.2,0.1,0.4,0.2,0.7,0.2c0.3,0,0.5-0.1,0.6-0.2c0.1-0.1,0.2-0.3,0.2-0.4
		c0-0.1-0.1-0.3-0.2-0.3c-0.1-0.1-0.3-0.1-0.6-0.2c-0.5-0.1-0.8-0.2-1-0.3c-0.2-0.1-0.3-0.2-0.4-0.4s-0.1-0.3-0.1-0.5
		c0-0.2,0-0.3,0.1-0.5c0.1-0.1,0.2-0.3,0.3-0.4c0.1-0.1,0.2-0.1,0.4-0.2c0.2-0.1,0.4-0.1,0.5-0.1c0.3,0,0.6,0,0.8,0.1
		c0.2,0.1,0.4,0.2,0.5,0.3s0.2,0.3,0.2,0.6l-0.6,0.1c0-0.2-0.1-0.3-0.2-0.4c-0.1-0.1-0.3-0.2-0.6-0.2c-0.3,0-0.5,0-0.6,0.1
		c-0.1,0.1-0.2,0.2-0.2,0.3c0,0.1,0,0.2,0.1,0.2c0.1,0.1,0.1,0.1,0.2,0.2c0.1,0,0.2,0.1,0.6,0.2c0.4,0.1,0.8,0.2,0.9,0.3
		c0.2,0.1,0.3,0.2,0.4,0.3c0.1,0.1,0.2,0.3,0.2,0.5c0,0.2-0.1,0.4-0.2,0.6s-0.3,0.3-0.5,0.4c-0.2,0.1-0.5,0.2-0.8,0.2
		c-0.5,0-0.9-0.1-1.1-0.3C1980.5,18.6,1980.3,18.3,1980.2,18z"/>
</g>
<g>
	<path d="M1985.9,19.1v-1.2h-2.2v-0.6l2.4-3.3h0.5v3.3h0.7v0.6h-0.7v1.2H1985.9z M1985.9,17.3v-2.3l-1.6,2.3H1985.9z"/>
</g>
<line fill="none" stroke="#000000" stroke-width="0.459" stroke-miterlimit="10" x1="1984" y1="33.9" x2="1984" y2="49.9"/>
<path d="M1989.9,31.4c0.1,0.1,0.1,0.3,0.1,0.5c0,0.2,0,0.3,0,0.5c0,0.2,0,0.3-0.1,0.5c0,0.2-0.1,0.3-0.1,0.4
	c-0.2,0.5-0.4,0.9-0.8,1.3s-0.7,0.6-1,0.8c-0.6,0.3-1.4,0.4-2.2,0.4c-0.1,0-0.3,0-0.5-0.1c-0.2,0-0.3-0.1-0.5-0.1s-0.3-0.1-0.5-0.2
	c-0.2-0.1-0.3-0.2-0.4-0.4c-0.1-0.2-0.2-0.3-0.2-0.5c0-0.2,0-0.3,0-0.5s0-0.3,0.1-0.4c0-0.1,0.1-0.3,0.1-0.4
	c0.2-0.5,0.4-0.9,0.8-1.2c0.3-0.3,0.6-0.6,0.9-0.7c0.3-0.2,0.7-0.3,1.1-0.4c0.4-0.1,0.9-0.1,1.4-0.1c0.1,0,0.2,0,0.4,0
	c0.2,0,0.3,0.1,0.5,0.1s0.3,0.1,0.5,0.2C1989.7,31.1,1989.9,31.2,1989.9,31.4z M1989.5,31.7c-0.1-0.2-0.2-0.3-0.4-0.3
	s-0.3-0.1-0.5-0.1s-0.3,0.1-0.5,0.1c-0.2,0.1-0.3,0.1-0.5,0.2c-0.2,0.1-0.4,0.2-0.6,0.3c-0.2,0.1-0.4,0.2-0.5,0.3
	c-0.4,0.2-0.7,0.4-1.1,0.7c-0.1,0.1-0.3,0.2-0.4,0.3c-0.1,0.1-0.3,0.2-0.4,0.4c-0.1,0.1-0.2,0.3-0.2,0.5c0,0.2,0,0.3,0.1,0.5
	c0.1,0.2,0.2,0.3,0.4,0.3c0.2,0.1,0.3,0.1,0.5,0s0.3-0.1,0.5-0.1c0.2-0.1,0.3-0.1,0.5-0.2c0.2-0.1,0.4-0.2,0.6-0.3
	c0.2-0.1,0.4-0.2,0.6-0.3c0.2-0.1,0.4-0.2,0.5-0.3c0.2-0.1,0.4-0.2,0.6-0.4c0.1-0.1,0.3-0.2,0.4-0.3c0.1-0.1,0.3-0.2,0.4-0.4
	c0.1-0.1,0.2-0.3,0.2-0.5C1989.6,32,1989.6,31.8,1989.5,31.7z"/>
<line fill="none" stroke="#000000" stroke-width="0.459" stroke-miterlimit="10" x1="2024.8" y1="36.3" x2="2024.8" y2="52.3"/>
<path d="M2030.7,33.8c0.1,0.1,0.1,0.3,0.1,0.5c0,0.2,0,0.3,0,0.5c0,0.2,0,0.3-0.1,0.5c0,0.2-0.1,0.3-0.1,0.4
	c-0.2,0.5-0.4,0.9-0.8,1.3c-0.4,0.4-0.7,0.6-1,0.8c-0.6,0.3-1.4,0.4-2.2,0.4c-0.1,0-0.3,0-0.5-0.1c-0.2,0-0.3-0.1-0.5-0.1
	c-0.2-0.1-0.3-0.1-0.5-0.2s-0.3-0.2-0.4-0.4c-0.1-0.2-0.2-0.3-0.2-0.5c0-0.2,0-0.3,0-0.5c0-0.2,0-0.3,0.1-0.4c0-0.1,0.1-0.3,0.1-0.4
	c0.2-0.5,0.4-0.9,0.8-1.2c0.3-0.3,0.6-0.6,0.9-0.7c0.3-0.2,0.7-0.3,1.1-0.4c0.4-0.1,0.9-0.1,1.5-0.1c0.1,0,0.2,0,0.4,0
	c0.2,0,0.3,0.1,0.5,0.1c0.2,0.1,0.3,0.1,0.5,0.2C2030.5,33.5,2030.7,33.6,2030.7,33.8z M2030.3,34.1c-0.1-0.2-0.2-0.3-0.4-0.3
	c-0.1-0.1-0.3-0.1-0.5-0.1s-0.3,0.1-0.5,0.1c-0.2,0.1-0.3,0.1-0.5,0.2c-0.2,0.1-0.4,0.2-0.6,0.3c-0.2,0.1-0.4,0.2-0.5,0.3
	c-0.4,0.2-0.7,0.4-1.1,0.7c-0.1,0.1-0.3,0.2-0.4,0.3c-0.1,0.1-0.3,0.2-0.4,0.4c-0.1,0.1-0.2,0.3-0.2,0.5c0,0.2,0,0.3,0.1,0.5
	c0.1,0.2,0.2,0.3,0.4,0.3c0.2,0.1,0.3,0.1,0.5,0c0.2,0,0.3-0.1,0.5-0.1c0.2-0.1,0.3-0.1,0.5-0.2c0.2-0.1,0.4-0.2,0.6-0.3
	c0.2-0.1,0.4-0.2,0.6-0.3c0.2-0.1,0.4-0.2,0.5-0.3c0.2-0.1,0.4-0.2,0.6-0.4c0.1-0.1,0.3-0.2,0.4-0.3c0.1-0.1,0.3-0.2,0.4-0.4
	c0.1-0.1,0.2-0.3,0.2-0.5C2030.4,34.4,2030.4,34.2,2030.3,34.1z"/>
<g>
	<path d="M2027.9,16.8v-0.7l2.4,0v2.1c-0.4,0.3-0.8,0.5-1.2,0.7c-0.4,0.1-0.8,0.2-1.2,0.2c-0.6,0-1.1-0.1-1.5-0.4
		c-0.5-0.2-0.8-0.6-1-1s-0.4-1-0.4-1.5c0-0.6,0.1-1.1,0.3-1.6c0.2-0.5,0.6-0.8,1-1.1s0.9-0.4,1.5-0.4c0.4,0,0.8,0.1,1.1,0.2
		c0.3,0.1,0.6,0.3,0.8,0.6c0.2,0.2,0.3,0.6,0.4,0.9l-0.7,0.2c-0.1-0.3-0.2-0.5-0.3-0.7c-0.1-0.2-0.3-0.3-0.5-0.4
		c-0.2-0.1-0.5-0.2-0.8-0.2c-0.3,0-0.6,0.1-0.9,0.2c-0.3,0.1-0.5,0.2-0.6,0.4s-0.3,0.4-0.4,0.6c-0.1,0.4-0.2,0.7-0.2,1.2
		c0,0.5,0.1,0.9,0.3,1.3s0.4,0.6,0.8,0.8s0.7,0.2,1.1,0.2c0.3,0,0.6-0.1,1-0.2s0.5-0.3,0.7-0.4v-1.1H2027.9z"/>
</g>
<line fill="none" stroke="#000000" stroke-width="0.459" stroke-miterlimit="10" x1="2071" y1="33.9" x2="2071" y2="49.9"/>
<path d="M2076.9,31.4c0.1,0.1,0.1,0.3,0.1,0.5c0,0.2,0,0.3,0,0.5c0,0.2,0,0.3-0.1,0.5c0,0.2-0.1,0.3-0.1,0.4
	c-0.2,0.5-0.4,0.9-0.8,1.3s-0.7,0.6-1,0.8c-0.6,0.3-1.4,0.4-2.2,0.4c-0.1,0-0.3,0-0.5-0.1c-0.2,0-0.3-0.1-0.5-0.1s-0.3-0.1-0.5-0.2
	c-0.2-0.1-0.3-0.2-0.4-0.4c-0.1-0.2-0.2-0.3-0.2-0.5c0-0.2,0-0.3,0-0.5s0-0.3,0.1-0.4c0-0.1,0.1-0.3,0.1-0.4
	c0.2-0.5,0.4-0.9,0.8-1.2c0.3-0.3,0.6-0.6,0.9-0.7c0.3-0.2,0.7-0.3,1.1-0.4c0.4-0.1,0.9-0.1,1.4-0.1c0.1,0,0.2,0,0.4,0
	c0.2,0,0.3,0.1,0.5,0.1s0.3,0.1,0.5,0.2C2076.7,31.1,2076.9,31.2,2076.9,31.4z M2076.5,31.7c-0.1-0.2-0.2-0.3-0.4-0.3
	s-0.3-0.1-0.5-0.1s-0.3,0.1-0.5,0.1c-0.2,0.1-0.3,0.1-0.5,0.2c-0.2,0.1-0.4,0.2-0.6,0.3c-0.2,0.1-0.4,0.2-0.5,0.3
	c-0.4,0.2-0.7,0.4-1.1,0.7c-0.1,0.1-0.3,0.2-0.4,0.3c-0.1,0.1-0.3,0.2-0.4,0.4c-0.1,0.1-0.2,0.3-0.2,0.5c0,0.2,0,0.3,0.1,0.5
	c0.1,0.2,0.2,0.3,0.4,0.3c0.2,0.1,0.3,0.1,0.5,0s0.3-0.1,0.5-0.1c0.2-0.1,0.3-0.1,0.5-0.2c0.2-0.1,0.4-0.2,0.6-0.3
	c0.2-0.1,0.4-0.2,0.6-0.3c0.2-0.1,0.4-0.2,0.5-0.3c0.2-0.1,0.4-0.2,0.6-0.4c0.1-0.1,0.3-0.2,0.4-0.3c0.1-0.1,0.3-0.2,0.4-0.4
	c0.1-0.1,0.2-0.3,0.2-0.5C2076.6,32,2076.6,31.8,2076.5,31.7z"/>
<g>
	<path d="M2113.2,39c-0.7-0.5-1.7-1.6-1.7-3.5c0-1.7,0.9-3.1,1.7-3.5l0.1,0.1c-1.1,1.1-1.1,2.2-1.1,3.4c0,1.1,0.1,2.3,1.1,3.4
		L2113.2,39z M2114.5,33.2c0,0.1,0,1,0,1c0.5-0.5,0.9-0.6,1.3-0.6c0.7,0,1,0.6,1,1.2c0,0.3-0.1,0.6-0.2,0.9
		c-0.1,0.3-0.3,0.5-0.5,0.7c-0.2,0.3-2.2,1.5-2.2,1.5v-8.4h0.5C2114.5,29.5,2114.5,31.4,2114.5,33.2z M2114.7,34.7
		c-0.2,0.3-0.2,0.8-0.2,1.3v1.2c0,0,0.5-0.4,0.7-0.7c0.2-0.2,0.4-0.5,0.5-0.9s0.1-0.8-0.2-1.1C2115.4,34.3,2114.9,34.2,2114.7,34.7z
		 M2117.5,33.2c0,0.1,0,1,0,1c0.5-0.5,0.9-0.6,1.3-0.6c0.7,0,1,0.6,1,1.2c0,0.3-0.1,0.6-0.2,0.8c-0.1,0.3-0.3,0.5-0.5,0.8
		c-0.2,0.2-2.1,1.5-2.1,1.5v-8.4h0.5C2117.5,29.5,2117.5,31.4,2117.5,33.2z M2117.7,34.7c-0.2,0.3-0.2,0.8-0.2,1.3v1.2
		c0,0,0.5-0.4,0.8-0.7c0.2-0.2,0.4-0.5,0.5-0.9c0.1-0.4,0.1-0.8-0.2-1.1C2118.4,34.3,2118,34.2,2117.7,34.7z M2119.8,39l-0.1-0.1
		c1.1-1.1,1.1-2.3,1.1-3.4c0-1.2-0.1-2.3-1.1-3.4l0.1-0.1c0.7,0.4,1.7,1.8,1.7,3.5C2121.4,37.4,2120.5,38.5,2119.8,39z"/>
</g>
<line fill="none" stroke="#000000" stroke-width="0.459" stroke-miterlimit="10" x1="2111" y1="35.5" x2="2118.2" y2="35.5"/>
<g>
	<path d="M2075.5,17.1l0.8,0.2c-0.2,0.6-0.4,1.1-0.9,1.4c-0.4,0.3-0.9,0.5-1.5,0.5c-0.6,0-1.1-0.1-1.5-0.4s-0.7-0.6-0.9-1.1
		s-0.3-1-0.3-1.5c0-0.6,0.1-1.1,0.3-1.6c0.2-0.4,0.6-0.8,1-1c0.4-0.2,0.9-0.3,1.4-0.3c0.6,0,1.1,0.1,1.4,0.4
		c0.4,0.3,0.7,0.7,0.8,1.2l-0.7,0.2c-0.1-0.4-0.3-0.7-0.6-0.9c-0.3-0.2-0.6-0.3-1-0.3c-0.4,0-0.8,0.1-1.1,0.3
		c-0.3,0.2-0.5,0.5-0.6,0.8c-0.1,0.4-0.2,0.7-0.2,1.1c0,0.5,0.1,0.9,0.2,1.3s0.4,0.6,0.7,0.8c0.3,0.2,0.6,0.3,1,0.3
		c0.4,0,0.8-0.1,1.1-0.4C2075.2,17.9,2075.4,17.5,2075.5,17.1z"/>
</g>
<line fill="none" stroke="#000000" stroke-width="0.459" stroke-miterlimit="10" x1="2158" y1="33.9" x2="2158" y2="49.9"/>
<path d="M2158,33.1c0.1-0.3,0.3-0.7,0.6-1c0.3-0.3,0.6-0.6,0.9-0.8s0.7-0.4,1.1-0.5c0.4-0.1,0.8-0.2,1.2-0.2s0.8,0.1,1.1,0.2
	c0.3,0.1,0.5,0.3,0.7,0.5c0.2,0.2,0.3,0.5,0.3,0.8c0,0.3,0,0.6-0.1,1s-0.3,0.7-0.6,1c-0.3,0.3-0.6,0.6-0.9,0.8
	c-0.3,0.2-0.7,0.4-1.1,0.5s-0.8,0.2-1.2,0.2c-0.4,0-0.8-0.1-1.1-0.2s-0.5-0.3-0.7-0.5c-0.2-0.2-0.3-0.5-0.3-0.8
	C2157.8,33.8,2157.8,33.4,2158,33.1z"/>
<line fill="none" stroke="#000000" stroke-width="0.459" stroke-miterlimit="10" x1="2180.6" y1="33.9" x2="2180.6" y2="49.9"/>
<path d="M2180.6,33.1c0.1-0.3,0.3-0.7,0.6-1c0.3-0.3,0.6-0.6,0.9-0.8c0.3-0.2,0.7-0.4,1.1-0.5c0.4-0.1,0.8-0.2,1.2-0.2
	c0.4,0,0.8,0.1,1.1,0.2c0.3,0.1,0.5,0.3,0.7,0.5c0.2,0.2,0.3,0.5,0.3,0.8c0,0.3,0,0.6-0.1,1c-0.1,0.3-0.3,0.7-0.6,1
	c-0.3,0.3-0.6,0.6-0.9,0.8c-0.3,0.2-0.7,0.4-1.1,0.5s-0.8,0.2-1.2,0.2c-0.4,0-0.8-0.1-1.1-0.2c-0.3-0.1-0.5-0.3-0.7-0.5
	c-0.2-0.2-0.3-0.5-0.3-0.8C2180.4,33.8,2180.4,33.4,2180.6,33.1z"/>
<line fill="none" stroke="#000000" stroke-width="0.459" stroke-miterlimit="10" x1="2203.2" y1="33.9" x2="2203.2" y2="49.9"/>
<path d="M2209.1,31.4c0.1,0.1,0.1,0.3,0.1,0.5c0,0.2,0,0.3,0,0.5c0,0.2,0,0.3-0.1,0.5c0,0.2-0.1,0.3-0.1,0.4
	c-0.2,0.5-0.4,0.9-0.8,1.3s-0.7,0.6-1,0.8c-0.6,0.3-1.4,0.4-2.2,0.4c-0.1,0-0.3,0-0.5-0.1c-0.2,0-0.3-0.1-0.5-0.1
	c-0.2-0.1-0.3-0.1-0.5-0.2c-0.2-0.1-0.3-0.2-0.4-0.4c-0.1-0.2-0.2-0.3-0.2-0.5c0-0.2,0-0.3,0-0.5s0-0.3,0.1-0.4
	c0-0.1,0.1-0.3,0.1-0.4c0.2-0.5,0.4-0.9,0.8-1.2c0.3-0.3,0.6-0.6,0.9-0.7c0.3-0.2,0.7-0.3,1.1-0.4c0.4-0.1,0.9-0.1,1.4-0.1
	c0.1,0,0.2,0,0.4,0c0.2,0,0.3,0.1,0.5,0.1s0.3,0.1,0.5,0.2C2208.9,31.1,2209.1,31.2,2209.1,31.4z M2208.7,31.7
	c-0.1-0.2-0.2-0.3-0.4-0.3s-0.3-0.1-0.5-0.1s-0.3,0.1-0.5,0.1c-0.2,0.1-0.3,0.1-0.5,0.2c-0.2,0.1-0.4,0.2-0.6,0.3
	c-0.2,0.1-0.4,0.2-0.5,0.3c-0.4,0.2-0.7,0.4-1.1,0.7c-0.1,0.1-0.3,0.2-0.4,0.3c-0.1,0.1-0.3,0.2-0.4,0.4c-0.1,0.1-0.2,0.3-0.2,0.5
	c0,0.2,0,0.3,0.1,0.5c0.1,0.2,0.2,0.3,0.4,0.3c0.2,0.1,0.3,0.1,0.5,0s0.3-0.1,0.5-0.1c0.2-0.1,0.3-0.1,0.5-0.2
	c0.2-0.1,0.4-0.2,0.6-0.3c0.2-0.1,0.4-0.2,0.6-0.3c0.2-0.1,0.4-0.2,0.5-0.3c0.2-0.1,0.4-0.2,0.6-0.4c0.1-0.1,0.3-0.2,0.4-0.3
	c0.1-0.1,0.3-0.2,0.4-0.4c0.1-0.1,0.2-0.3,0.2-0.5C2208.8,32,2208.8,31.8,2208.7,31.7z"/>
<g>
	<path d="M2162.5,17.1l0.8,0.2c-0.2,0.6-0.4,1.1-0.9,1.4c-0.4,0.3-0.9,0.5-1.5,0.5c-0.6,0-1.1-0.1-1.5-0.4s-0.7-0.6-0.9-1.1
		s-0.3-1-0.3-1.5c0-0.6,0.1-1.1,0.3-1.6c0.2-0.4,0.6-0.8,1-1c0.4-0.2,0.9-0.3,1.4-0.3c0.6,0,1.1,0.1,1.4,0.4
		c0.4,0.3,0.7,0.7,0.8,1.2l-0.7,0.2c-0.1-0.4-0.3-0.7-0.6-0.9c-0.3-0.2-0.6-0.3-1-0.3c-0.4,0-0.8,0.1-1.1,0.3
		c-0.3,0.2-0.5,0.5-0.6,0.8c-0.1,0.4-0.2,0.7-0.2,1.1c0,0.5,0.1,0.9,0.2,1.3s0.4,0.6,0.7,0.8c0.3,0.2,0.6,0.3,1,0.3
		c0.4,0,0.8-0.1,1.1-0.4C2162.2,17.9,2162.4,17.5,2162.5,17.1z"/>
</g>
<line fill="none" stroke="#000000" stroke-width="0.459" stroke-miterlimit="10" x1="2245" y1="33.9" x2="2245" y2="49.9"/>
<path d="M2245,33.1c0.1-0.3,0.3-0.7,0.6-1c0.3-0.3,0.6-0.6,0.9-0.8s0.7-0.4,1.1-0.5c0.4-0.1,0.8-0.2,1.2-0.2s0.8,0.1,1.1,0.2
	c0.3,0.1,0.5,0.3,0.7,0.5c0.2,0.2,0.3,0.5,0.3,0.8c0,0.3,0,0.6-0.1,1s-0.3,0.7-0.6,1c-0.3,0.3-0.6,0.6-0.9,0.8
	c-0.3,0.2-0.7,0.4-1.1,0.5s-0.8,0.2-1.2,0.2c-0.4,0-0.8-0.1-1.1-0.2s-0.5-0.3-0.7-0.5c-0.2-0.2-0.3-0.5-0.3-0.8
	C2244.8,33.8,2244.8,33.4,2245,33.1z"/>
<line fill="none" stroke="#000000" stroke-width="0.459" stroke-miterlimit="10" x1="2267.6" y1="33.9" x2="2267.6" y2="49.9"/>
<path d="M2267.6,33.1c0.1-0.3,0.3-0.7,0.6-1c0.3-0.3,0.6-0.6,0.9-0.8c0.3-0.2,0.7-0.4,1.1-0.5c0.4-0.1,0.8-0.2,1.2-0.2
	c0.4,0,0.8,0.1,1.1,0.2c0.3,0.1,0.5,0.3,0.7,0.5c0.2,0.2,0.3,0.5,0.3,0.8c0,0.3,0,0.6-0.1,1c-0.1,0.3-0.3,0.7-0.6,1
	c-0.3,0.3-0.6,0.6-0.9,0.8c-0.3,0.2-0.7,0.4-1.1,0.5s-0.8,0.2-1.2,0.2c-0.4,0-0.8-0.1-1.1-0.2c-0.3-0.1-0.5-0.3-0.7-0.5
	c-0.2-0.2-0.3-0.5-0.3-0.8C2267.4,33.8,2267.4,33.4,2267.6,33.1z"/>
<line fill="none" stroke="#000000" stroke-width="0.459" stroke-miterlimit="10" x1="2290.2" y1="33.9" x2="2290.2" y2="49.9"/>
<path d="M2296.1,31.4c0.1,0.1,0.1,0.3,0.1,0.5c0,0.2,0,0.3,0,0.5c0,0.2,0,0.3-0.1,0.5c0,0.2-0.1,0.3-0.1,0.4
	c-0.2,0.5-0.4,0.9-0.8,1.3s-0.7,0.6-1,0.8c-0.6,0.3-1.4,0.4-2.2,0.4c-0.1,0-0.3,0-0.5-0.1c-0.2,0-0.3-0.1-0.5-0.1
	c-0.2-0.1-0.3-0.1-0.5-0.2c-0.2-0.1-0.3-0.2-0.4-0.4c-0.1-0.2-0.2-0.3-0.2-0.5c0-0.2,0-0.3,0-0.5s0-0.3,0.1-0.4
	c0-0.1,0.1-0.3,0.1-0.4c0.2-0.5,0.4-0.9,0.8-1.2c0.3-0.3,0.6-0.6,0.9-0.7c0.3-0.2,0.7-0.3,1.1-0.4c0.4-0.1,0.9-0.1,1.4-0.1
	c0.1,0,0.2,0,0.4,0c0.2,0,0.3,0.1,0.5,0.1s0.3,0.1,0.5,0.2C2295.9,31.1,2296.1,31.2,2296.1,31.4z M2295.7,31.7
	c-0.1-0.2-0.2-0.3-0.4-0.3s-0.3-0.1-0.5-0.1s-0.3,0.1-0.5,0.1c-0.2,0.1-0.3,0.1-0.5,0.2c-0.2,0.1-0.4,0.2-0.6,0.3
	c-0.2,0.1-0.4,0.2-0.5,0.3c-0.4,0.2-0.7,0.4-1.1,0.7c-0.1,0.1-0.3,0.2-0.4,0.3c-0.1,0.1-0.3,0.2-0.4,0.4c-0.1,0.1-0.2,0.3-0.2,0.5
	c0,0.2,0,0.3,0.1,0.5c0.1,0.2,0.2,0.3,0.4,0.3c0.2,0.1,0.3,0.1,0.5,0s0.3-0.1,0.5-0.1c0.2-0.1,0.3-0.1,0.5-0.2
	c0.2-0.1,0.4-0.2,0.6-0.3c0.2-0.1,0.4-0.2,0.6-0.3c0.2-0.1,0.4-0.2,0.5-0.3c0.2-0.1,0.4-0.2,0.6-0.4c0.1-0.1,0.3-0.2,0.4-0.3
	c0.1-0.1,0.3-0.2,0.4-0.4c0.1-0.1,0.2-0.3,0.2-0.5C2295.8,32,2295.8,31.8,2295.7,31.7z"/>
<g>
	<path d="M2245.4,19.1v-5.7h2c0.4,0,0.8,0,1,0.1c0.3,0.1,0.6,0.2,0.8,0.4c0.3,0.3,0.5,0.6,0.7,1c0.1,0.4,0.2,0.9,0.2,1.4
		c0,0.4-0.1,0.8-0.2,1.2s-0.2,0.6-0.4,0.8c-0.2,0.2-0.3,0.4-0.5,0.5c-0.2,0.1-0.4,0.2-0.7,0.3c-0.3,0.1-0.6,0.1-0.9,0.1H2245.4z
		 M2246.2,18.4h1.2c0.4,0,0.7,0,0.9-0.1s0.4-0.2,0.5-0.3c0.2-0.2,0.3-0.4,0.4-0.7c0.1-0.3,0.2-0.7,0.2-1.1c0-0.6-0.1-1.1-0.3-1.4
		c-0.2-0.3-0.4-0.5-0.7-0.6c-0.2-0.1-0.5-0.1-1-0.1h-1.2V18.4z"/>
</g>
<g>
	<path d="M2252.1,19.1v-3.7h0.6v0.5c0.1-0.2,0.3-0.3,0.5-0.4c0.2-0.1,0.4-0.2,0.7-0.2c0.3,0,0.5,0.1,0.7,0.2
		c0.2,0.1,0.3,0.3,0.4,0.5c0.3-0.4,0.7-0.7,1.2-0.7c0.4,0,0.7,0.1,0.9,0.3s0.3,0.5,0.3,0.9v2.6h-0.6v-2.4c0-0.3,0-0.4-0.1-0.5
		s-0.1-0.2-0.2-0.3c-0.1-0.1-0.2-0.1-0.4-0.1c-0.3,0-0.5,0.1-0.7,0.3c-0.2,0.2-0.3,0.5-0.3,0.8v2.2h-0.6v-2.4c0-0.3-0.1-0.5-0.2-0.6
		c-0.1-0.1-0.3-0.2-0.5-0.2c-0.2,0-0.3,0-0.5,0.1s-0.3,0.2-0.3,0.4c-0.1,0.2-0.1,0.4-0.1,0.8v1.9H2252.1z"/>
</g>
<line fill="none" stroke="#000000" stroke-width="0.459" stroke-miterlimit="10" x1="2332" y1="36.3" x2="2332" y2="52.3"/>
<path d="M2332,35.5c0.1-0.3,0.3-0.7,0.6-1c0.3-0.3,0.6-0.6,0.9-0.8s0.7-0.4,1.1-0.5c0.4-0.1,0.8-0.2,1.2-0.2c0.4,0,0.8,0.1,1.1,0.2
	c0.3,0.1,0.5,0.3,0.7,0.5c0.2,0.2,0.3,0.5,0.3,0.8s0,0.6-0.1,1s-0.3,0.7-0.6,1s-0.6,0.6-0.9,0.8c-0.3,0.2-0.7,0.4-1.1,0.5
	c-0.4,0.1-0.8,0.2-1.2,0.2c-0.4,0-0.8-0.1-1.1-0.2c-0.3-0.1-0.5-0.3-0.7-0.5s-0.3-0.5-0.3-0.8C2331.8,36.2,2331.8,35.8,2332,35.5z"
	/>
<line fill="none" stroke="#000000" stroke-width="0.459" stroke-miterlimit="10" x1="2354.6" y1="36.3" x2="2354.6" y2="52.3"/>
<path d="M2354.6,35.5c0.1-0.3,0.3-0.7,0.6-1c0.3-0.3,0.6-0.6,0.9-0.8c0.3-0.2,0.7-0.4,1.1-0.5c0.4-0.1,0.8-0.2,1.2-0.2
	c0.4,0,0.8,0.1,1.1,0.2c0.3,0.1,0.5,0.3,0.7,0.5c0.2,0.2,0.3,0.5,0.3,0.8s0,0.6-0.1,1c-0.1,0.3-0.3,0.7-0.6,1s-0.6,0.6-0.9,0.8
	c-0.3,0.2-0.7,0.4-1.1,0.5c-0.4,0.1-0.8,0.2-1.2,0.2c-0.4,0-0.8-0.1-1.1-0.2c-0.3-0.1-0.5-0.3-0.7-0.5s-0.3-0.5-0.3-0.8
	C2354.4,36.2,2354.4,35.8,2354.6,35.5z"/>
<line fill="none" stroke="#000000" stroke-width="0.459" stroke-miterlimit="10" x1="2377.2" y1="36.3" x2="2377.2" y2="52.3"/>
<path d="M2383.1,33.8c0.1,0.1,0.1,0.3,0.1,0.5s0,0.3,0,0.5c0,0.2,0,0.3-0.1,0.5c0,0.2-0.1,0.3-0.1,0.4c-0.2,0.5-0.4,0.9-0.8,1.3
	c-0.4,0.4-0.7,0.6-1,0.8c-0.6,0.3-1.4,0.4-2.2,0.4c-0.1,0-0.3,0-0.5-0.1c-0.2,0-0.3-0.1-0.5-0.1c-0.2-0.1-0.3-0.1-0.5-0.2
	s-0.3-0.2-0.4-0.4c-0.1-0.2-0.2-0.3-0.2-0.5s0-0.3,0-0.5s0-0.3,0.1-0.4c0-0.1,0.1-0.3,0.1-0.4c0.2-0.5,0.4-0.9,0.8-1.2
	c0.3-0.3,0.6-0.6,0.9-0.7c0.3-0.2,0.7-0.3,1.1-0.4c0.4-0.1,0.9-0.1,1.4-0.1c0.1,0,0.2,0,0.4,0c0.2,0,0.3,0.1,0.5,0.1
	s0.3,0.1,0.5,0.2C2382.9,33.5,2383.1,33.6,2383.1,33.8z M2382.7,34.1c-0.1-0.2-0.2-0.3-0.4-0.3s-0.3-0.1-0.5-0.1
	c-0.2,0-0.3,0.1-0.5,0.1c-0.2,0.1-0.3,0.1-0.5,0.2c-0.2,0.1-0.4,0.2-0.6,0.3c-0.2,0.1-0.4,0.2-0.5,0.3c-0.4,0.2-0.7,0.4-1.1,0.7
	c-0.1,0.1-0.3,0.2-0.4,0.3c-0.1,0.1-0.3,0.2-0.4,0.4c-0.1,0.1-0.2,0.3-0.2,0.5c0,0.2,0,0.3,0.1,0.5c0.1,0.2,0.2,0.3,0.4,0.3
	c0.2,0.1,0.3,0.1,0.5,0c0.2,0,0.3-0.1,0.5-0.1c0.2-0.1,0.3-0.1,0.5-0.2c0.2-0.1,0.4-0.2,0.6-0.3s0.4-0.2,0.6-0.3
	c0.2-0.1,0.4-0.2,0.5-0.3c0.2-0.1,0.4-0.2,0.6-0.4c0.1-0.1,0.3-0.2,0.4-0.3s0.3-0.2,0.4-0.4c0.1-0.1,0.2-0.3,0.2-0.5
	C2382.8,34.4,2382.8,34.2,2382.7,34.1z"/>
<g>
	<path d="M2335.1,16.8v-0.7l2.4,0v2.1c-0.4,0.3-0.8,0.5-1.2,0.7c-0.4,0.1-0.8,0.2-1.2,0.2c-0.6,0-1.1-0.1-1.5-0.4
		c-0.5-0.2-0.8-0.6-1-1s-0.4-1-0.4-1.5c0-0.6,0.1-1.1,0.3-1.6c0.2-0.5,0.6-0.8,1-1.1s0.9-0.4,1.5-0.4c0.4,0,0.8,0.1,1.1,0.2
		c0.3,0.1,0.6,0.3,0.8,0.6c0.2,0.2,0.3,0.6,0.4,0.9l-0.7,0.2c-0.1-0.3-0.2-0.5-0.3-0.7c-0.1-0.2-0.3-0.3-0.5-0.4
		c-0.2-0.1-0.5-0.2-0.8-0.2c-0.3,0-0.6,0.1-0.9,0.2c-0.3,0.1-0.5,0.2-0.6,0.4s-0.3,0.4-0.4,0.6c-0.1,0.4-0.2,0.7-0.2,1.2
		c0,0.5,0.1,0.9,0.3,1.3s0.4,0.6,0.8,0.8s0.7,0.2,1.1,0.2c0.3,0,0.6-0.1,1-0.2s0.5-0.3,0.7-0.4v-1.1H2335.1z"/>
</g>
<line fill="none" stroke="#000000" stroke-width="0.459" stroke-miterlimit="10" x1="2419" y1="36.3" x2="2419" y2="52.3"/>
<path d="M2419,35.5c0.1-0.3,0.3-0.7,0.6-1c0.3-0.3,0.6-0.6,0.9-0.8s0.7-0.4,1.1-0.5c0.4-0.1,0.8-0.2,1.2-0.2c0.4,0,0.8,0.1,1.1,0.2
	c0.3,0.1,0.5,0.3,0.7,0.5c0.2,0.2,0.3,0.5,0.3,0.8s0,0.6-0.1,1s-0.3,0.7-0.6,1s-0.6,0.6-0.9,0.8c-0.3,0.2-0.7,0.4-1.1,0.5
	c-0.4,0.1-0.8,0.2-1.2,0.2c-0.4,0-0.8-0.1-1.1-0.2c-0.3-0.1-0.5-0.3-0.7-0.5s-0.3-0.5-0.3-0.8C2418.8,36.2,2418.8,35.8,2419,35.5z"
	/>
<line fill="none" stroke="#000000" stroke-width="0.459" stroke-miterlimit="10" x1="2441.6" y1="36.3" x2="2441.6" y2="52.3"/>
<path d="M2441.6,35.5c0.1-0.3,0.3-0.7,0.6-1c0.3-0.3,0.6-0.6,0.9-0.8c0.3-0.2,0.7-0.4,1.1-0.5c0.4-0.1,0.8-0.2,1.2-0.2
	c0.4,0,0.8,0.1,1.1,0.2c0.3,0.1,0.5,0.3,0.7,0.5c0.2,0.2,0.3,0.5,0.3,0.8s0,0.6-0.1,1c-0.1,0.3-0.3,0.7-0.6,1s-0.6,0.6-0.9,0.8
	c-0.3,0.2-0.7,0.4-1.1,0.5c-0.4,0.1-0.8,0.2-1.2,0.2c-0.4,0-0.8-0.1-1.1-0.2c-0.3-0.1-0.5-0.3-0.7-0.5s-0.3-0.5-0.3-0.8
	C2441.4,36.2,2441.4,35.8,2441.6,35.5z"/>
<line fill="none" stroke="#000000" stroke-width="0.459" stroke-miterlimit="10" x1="2464.2" y1="36.3" x2="2464.2" y2="52.3"/>
<path d="M2470.1,33.8c0.1,0.1,0.1,0.3,0.1,0.5s0,0.3,0,0.5c0,0.2,0,0.3-0.1,0.5c0,0.2-0.1,0.3-0.1,0.4c-0.2,0.5-0.4,0.9-0.8,1.3
	c-0.4,0.4-0.7,0.6-1,0.8c-0.6,0.3-1.4,0.4-2.2,0.4c-0.1,0-0.3,0-0.5-0.1c-0.2,0-0.3-0.1-0.5-0.1c-0.2-0.1-0.3-0.1-0.5-0.2
	s-0.3-0.2-0.4-0.4c-0.1-0.2-0.2-0.3-0.2-0.5s0-0.3,0-0.5s0-0.3,0.1-0.4c0-0.1,0.1-0.3,0.1-0.4c0.2-0.5,0.4-0.9,0.8-1.2
	c0.3-0.3,0.6-0.6,0.9-0.7c0.3-0.2,0.7-0.3,1.1-0.4c0.4-0.1,0.9-0.1,1.4-0.1c0.1,0,0.2,0,0.4,0c0.2,0,0.3,0.1,0.5,0.1
	s0.3,0.1,0.5,0.2C2469.9,33.5,2470.1,33.6,2470.1,33.8z M2469.7,34.1c-0.1-0.2-0.2-0.3-0.4-0.3s-0.3-0.1-0.5-0.1
	c-0.2,0-0.3,0.1-0.5,0.1c-0.2,0.1-0.3,0.1-0.5,0.2c-0.2,0.1-0.4,0.2-0.6,0.3c-0.2,0.1-0.4,0.2-0.5,0.3c-0.4,0.2-0.7,0.4-1.1,0.7
	c-0.1,0.1-0.3,0.2-0.4,0.3c-0.1,0.1-0.3,0.2-0.4,0.4c-0.1,0.1-0.2,0.3-0.2,0.5c0,0.2,0,0.3,0.1,0.5c0.1,0.2,0.2,0.3,0.4,0.3
	c0.2,0.1,0.3,0.1,0.5,0c0.2,0,0.3-0.1,0.5-0.1c0.2-0.1,0.3-0.1,0.5-0.2c0.2-0.1,0.4-0.2,0.6-0.3s0.4-0.2,0.6-0.3
	c0.2-0.1,0.4-0.2,0.5-0.3c0.2-0.1,0.4-0.2,0.6-0.4c0.1-0.1,0.3-0.2,0.4-0.3s0.3-0.2,0.4-0.4c0.1-0.1,0.2-0.3,0.2-0.5
	C2469.8,34.4,2469.8,34.2,2469.7,34.1z"/>
<g>
	<path d="M2419.4,19.1v-5.7h4.1V14h-3.4v1.8h3.2v0.7h-3.2v1.9h3.5v0.7H2419.4z"/>
</g>
<g>
	<path d="M2425.3,19.1v-3.7h0.6v0.5c0.1-0.2,0.3-0.3,0.5-0.4c0.2-0.1,0.4-0.2,0.7-0.2c0.3,0,0.5,0.1,0.7,0.2
		c0.2,0.1,0.3,0.3,0.4,0.5c0.3-0.4,0.7-0.7,1.2-0.7c0.4,0,0.7,0.1,0.9,0.3s0.3,0.5,0.3,0.9v2.6h-0.6v-2.4c0-0.3,0-0.4-0.1-0.5
		s-0.1-0.2-0.2-0.3c-0.1-0.1-0.2-0.1-0.4-0.1c-0.3,0-0.5,0.1-0.7,0.3c-0.2,0.2-0.3,0.5-0.3,0.8v2.2h-0.6v-2.4c0-0.3-0.1-0.5-0.2-0.6
		c-0.1-0.1-0.3-0.2-0.5-0.2c-0.2,0-0.3,0-0.5,0.1s-0.3,0.2-0.3,0.4c-0.1,0.2-0.1,0.4-0.1,0.8v1.9H2425.3z"/>
</g>
<line fill="none" stroke="#000000" stroke-width="0.459" stroke-miterlimit="10" x1="2506" y1="33.9" x2="2506" y2="49.9"/>
<path d="M2506,33.1c0.1-0.3,0.3-0.7,0.6-1s0.6-0.6,0.9-0.8s0.7-0.4,1.1-0.5c0.4-0.1,0.8-0.2,1.2-0.2c0.4,0,0.8,0.1,1.1,0.2
	c0.3,0.1,0.5,0.3,0.7,0.5c0.2,0.2,0.3,0.5,0.3,0.8c0,0.3,0,0.6-0.1,1s-0.3,0.7-0.6,1c-0.3,0.3-0.6,0.6-0.9,0.8
	c-0.3,0.2-0.7,0.4-1.1,0.5s-0.8,0.2-1.2,0.2c-0.4,0-0.8-0.1-1.1-0.2s-0.5-0.3-0.7-0.5c-0.2-0.2-0.3-0.5-0.3-0.8
	C2505.8,33.8,2505.8,33.4,2506,33.1z"/>
<line fill="none" stroke="#000000" stroke-width="0.459" stroke-miterlimit="10" x1="2528.6" y1="33.9" x2="2528.6" y2="49.9"/>
<path d="M2528.6,33.1c0.1-0.3,0.3-0.7,0.6-1c0.3-0.3,0.6-0.6,0.9-0.8c0.3-0.2,0.7-0.4,1.1-0.5c0.4-0.1,0.8-0.2,1.2-0.2
	c0.4,0,0.8,0.1,1.1,0.2c0.3,0.1,0.5,0.3,0.7,0.5c0.2,0.2,0.3,0.5,0.3,0.8c0,0.3,0,0.6-0.1,1c-0.1,0.3-0.3,0.7-0.6,1
	c-0.3,0.3-0.6,0.6-0.9,0.8c-0.3,0.2-0.7,0.4-1.1,0.5s-0.8,0.2-1.2,0.2c-0.4,0-0.8-0.1-1.1-0.2s-0.5-0.3-0.7-0.5
	c-0.2-0.2-0.3-0.5-0.3-0.8C2528.4,33.8,2528.4,33.4,2528.6,33.1z"/>
<line fill="none" stroke="#000000" stroke-width="0.459" stroke-miterlimit="10" x1="2551.2" y1="33.9" x2="2551.2" y2="49.9"/>
<path d="M2557.1,31.4c0.1,0.1,0.1,0.3,0.1,0.5c0,0.2,0,0.3,0,0.5s0,0.3-0.1,0.5c0,0.2-0.1,0.3-0.1,0.4c-0.2,0.5-0.4,0.9-0.8,1.3
	s-0.7,0.6-1,0.8c-0.6,0.3-1.4,0.4-2.2,0.4c-0.1,0-0.3,0-0.5-0.1c-0.2,0-0.3-0.1-0.5-0.1c-0.2-0.1-0.3-0.1-0.5-0.2
	c-0.2-0.1-0.3-0.2-0.4-0.4c-0.1-0.2-0.2-0.3-0.2-0.5c0-0.2,0-0.3,0-0.5s0-0.3,0.1-0.4c0-0.1,0.1-0.3,0.1-0.4
	c0.2-0.5,0.4-0.9,0.8-1.2c0.3-0.3,0.6-0.6,0.9-0.7c0.3-0.2,0.7-0.3,1.1-0.4c0.4-0.1,0.9-0.1,1.4-0.1c0.1,0,0.2,0,0.4,0
	c0.2,0,0.3,0.1,0.5,0.1s0.3,0.1,0.5,0.2C2556.9,31.1,2557.1,31.2,2557.1,31.4z M2556.7,31.7c-0.1-0.2-0.2-0.3-0.4-0.3
	s-0.3-0.1-0.5-0.1c-0.2,0-0.3,0.1-0.5,0.1c-0.2,0.1-0.3,0.1-0.5,0.2c-0.2,0.1-0.4,0.2-0.6,0.3c-0.2,0.1-0.4,0.2-0.5,0.3
	c-0.4,0.2-0.7,0.4-1.1,0.7c-0.1,0.1-0.3,0.2-0.4,0.3c-0.1,0.1-0.3,0.2-0.4,0.4c-0.1,0.1-0.2,0.3-0.2,0.5c0,0.2,0,0.3,0.1,0.5
	c0.1,0.2,0.2,0.3,0.4,0.3c0.2,0.1,0.3,0.1,0.5,0s0.3-0.1,0.5-0.1c0.2-0.1,0.3-0.1,0.5-0.2c0.2-0.1,0.4-0.2,0.6-0.3
	c0.2-0.1,0.4-0.2,0.6-0.3c0.2-0.1,0.4-0.2,0.5-0.3c0.2-0.1,0.4-0.2,0.6-0.4c0.1-0.1,0.3-0.2,0.4-0.3c0.1-0.1,0.3-0.2,0.4-0.4
	c0.1-0.1,0.2-0.3,0.2-0.5C2556.8,32,2556.8,31.8,2556.7,31.7z"/>
<g>
	<path d="M2505.8,19.1l2.2-5.7h0.8l2.3,5.7h-0.9l-0.7-1.7h-2.4l-0.6,1.7H2505.8z M2507.4,16.7h1.9l-0.6-1.6
		c-0.2-0.5-0.3-0.9-0.4-1.2c-0.1,0.4-0.2,0.7-0.3,1.1L2507.4,16.7z"/>
</g>
<g>
	<path d="M2512.3,19.1v-3.7h0.6v0.5c0.1-0.2,0.3-0.3,0.5-0.4c0.2-0.1,0.4-0.2,0.7-0.2c0.3,0,0.5,0.1,0.7,0.2
		c0.2,0.1,0.3,0.3,0.4,0.5c0.3-0.4,0.7-0.7,1.2-0.7c0.4,0,0.7,0.1,0.9,0.3s0.3,0.5,0.3,0.9v2.6h-0.6v-2.4c0-0.3,0-0.4-0.1-0.5
		s-0.1-0.2-0.2-0.3c-0.1-0.1-0.2-0.1-0.4-0.1c-0.3,0-0.5,0.1-0.7,0.3c-0.2,0.2-0.3,0.5-0.3,0.8v2.2h-0.6v-2.4c0-0.3-0.1-0.5-0.2-0.6
		c-0.1-0.1-0.3-0.2-0.5-0.2c-0.2,0-0.3,0-0.5,0.1s-0.3,0.2-0.3,0.4c-0.1,0.2-0.1,0.4-0.1,0.8v1.9H2512.3z"/>
</g>
<line fill="none" stroke="#000000" stroke-width="0.459" stroke-miterlimit="10" x1="2593" y1="33.9" x2="2593" y2="49.9"/>
<path d="M2593,33.1c0.1-0.3,0.3-0.7,0.6-1s0.6-0.6,0.9-0.8s0.7-0.4,1.1-0.5c0.4-0.1,0.8-0.2,1.2-0.2c0.4,0,0.8,0.1,1.1,0.2
	c0.3,0.1,0.5,0.3,0.7,0.5c0.2,0.2,0.3,0.5,0.3,0.8c0,0.3,0,0.6-0.1,1s-0.3,0.7-0.6,1c-0.3,0.3-0.6,0.6-0.9,0.8
	c-0.3,0.2-0.7,0.4-1.1,0.5s-0.8,0.2-1.2,0.2c-0.4,0-0.8-0.1-1.1-0.2s-0.5-0.3-0.7-0.5c-0.2-0.2-0.3-0.5-0.3-0.8
	C2592.8,33.8,2592.8,33.4,2593,33.1z"/>
<line fill="none" stroke="#000000" stroke-width="0.459" stroke-miterlimit="10" x1="2615.6" y1="33.9" x2="2615.6" y2="49.9"/>
<path d="M2615.6,33.1c0.1-0.3,0.3-0.7,0.6-1c0.3-0.3,0.6-0.6,0.9-0.8c0.3-0.2,0.7-0.4,1.1-0.5c0.4-0.1,0.8-0.2,1.2-0.2
	c0.4,0,0.8,0.1,1.1,0.2c0.3,0.1,0.5,0.3,0.7,0.5c0.2,0.2,0.3,0.5,0.3,0.8c0,0.3,0,0.6-0.1,1c-0.1,0.3-0.3,0.7-0.6,1
	c-0.3,0.3-0.6,0.6-0.9,0.8c-0.3,0.2-0.7,0.4-1.1,0.5s-0.8,0.2-1.2,0.2c-0.4,0-0.8-0.1-1.1-0.2s-0.5-0.3-0.7-0.5
	c-0.2-0.2-0.3-0.5-0.3-0.8C2615.4,33.8,2615.4,33.4,2615.6,33.1z"/>
<line fill="none" stroke="#000000" stroke-width="0.459" stroke-miterlimit="10" x1="2638.2" y1="33.9" x2="2638.2" y2="49.9"/>
<path d="M2644.1,31.4c0.1,0.1,0.1,0.3,0.1,0.5c0,0.2,0,0.3,0,0.5s0,0.3-0.1,0.5c0,0.2-0.1,0.3-0.1,0.4c-0.2,0.5-0.4,0.9-0.8,1.3
	s-0.7,0.6-1,0.8c-0.6,0.3-1.4,0.4-2.2,0.4c-0.1,0-0.3,0-0.5-0.1c-0.2,0-0.3-0.1-0.5-0.1c-0.2-0.1-0.3-0.1-0.5-0.2
	c-0.2-0.1-0.3-0.2-0.4-0.4c-0.1-0.2-0.2-0.3-0.2-0.5c0-0.2,0-0.3,0-0.5s0-0.3,0.1-0.4c0-0.1,0.1-0.3,0.1-0.4
	c0.2-0.5,0.4-0.9,0.8-1.2c0.3-0.3,0.6-0.6,0.9-0.7c0.3-0.2,0.7-0.3,1.1-0.4c0.4-0.1,0.9-0.1,1.4-0.1c0.1,0,0.2,0,0.4,0
	c0.2,0,0.3,0.1,0.5,0.1s0.3,0.1,0.5,0.2C2643.9,31.1,2644.1,31.2,2644.1,31.4z M2643.7,31.7c-0.1-0.2-0.2-0.3-0.4-0.3
	s-0.3-0.1-0.5-0.1c-0.2,0-0.3,0.1-0.5,0.1c-0.2,0.1-0.3,0.1-0.5,0.2c-0.2,0.1-0.4,0.2-0.6,0.3c-0.2,0.1-0.4,0.2-0.5,0.3
	c-0.4,0.2-0.7,0.4-1.1,0.7c-0.1,0.1-0.3,0.2-0.4,0.3c-0.1,0.1-0.3,0.2-0.4,0.4c-0.1,0.1-0.2,0.3-0.2,0.5c0,0.2,0,0.3,0.1,0.5
	c0.1,0.2,0.2,0.3,0.4,0.3c0.2,0.1,0.3,0.1,0.5,0s0.3-0.1,0.5-0.1c0.2-0.1,0.3-0.1,0.5-0.2c0.2-0.1,0.4-0.2,0.6-0.3
	c0.2-0.1,0.4-0.2,0.6-0.3c0.2-0.1,0.4-0.2,0.5-0.3c0.2-0.1,0.4-0.2,0.6-0.4c0.1-0.1,0.3-0.2,0.4-0.3c0.1-0.1,0.3-0.2,0.4-0.4
	c0.1-0.1,0.2-0.3,0.2-0.5C2643.8,32,2643.8,31.8,2643.7,31.7z"/>
<g>
	<path d="M2593.4,19.1v-5.7h2c0.4,0,0.8,0,1,0.1c0.3,0.1,0.6,0.2,0.8,0.4c0.3,0.3,0.5,0.6,0.7,1c0.1,0.4,0.2,0.9,0.2,1.4
		c0,0.4-0.1,0.8-0.2,1.2s-0.2,0.6-0.4,0.8c-0.2,0.2-0.3,0.4-0.5,0.5c-0.2,0.1-0.4,0.2-0.7,0.3c-0.3,0.1-0.6,0.1-0.9,0.1H2593.4z
		 M2594.2,18.4h1.2c0.4,0,0.7,0,0.9-0.1s0.4-0.2,0.5-0.3c0.2-0.2,0.3-0.4,0.4-0.7c0.1-0.3,0.2-0.7,0.2-1.1c0-0.6-0.1-1.1-0.3-1.4
		c-0.2-0.3-0.4-0.5-0.7-0.6c-0.2-0.1-0.5-0.1-1-0.1h-1.2V18.4z"/>
</g>
<g>
	<path d="M2600.1,19.1v-3.7h0.6v0.5c0.1-0.2,0.3-0.3,0.5-0.4c0.2-0.1,0.4-0.2,0.7-0.2c0.3,0,0.5,0.1,0.7,0.2
		c0.2,0.1,0.3,0.3,0.4,0.5c0.3-0.4,0.7-0.7,1.2-0.7c0.4,0,0.7,0.1,0.9,0.3s0.3,0.5,0.3,0.9v2.6h-0.6v-2.4c0-0.3,0-0.4-0.1-0.5
		s-0.1-0.2-0.2-0.3c-0.1-0.1-0.2-0.1-0.4-0.1c-0.3,0-0.5,0.1-0.7,0.3c-0.2,0.2-0.3,0.5-0.3,0.8v2.2h-0.6v-2.4c0-0.3-0.1-0.5-0.2-0.6
		c-0.1-0.1-0.3-0.2-0.5-0.2c-0.2,0-0.3,0-0.5,0.1s-0.3,0.2-0.3,0.4c-0.1,0.2-0.1,0.4-0.1,0.8v1.9H2600.1z"/>
</g>
<g>
	<path d="M2664.9,16.8v-0.7l2.4,0v2.1c-0.4,0.3-0.8,0.5-1.2,0.7c-0.4,0.1-0.8,0.2-1.2,0.2c-0.6,0-1.1-0.1-1.5-0.4
		c-0.5-0.2-0.8-0.6-1-1s-0.4-1-0.4-1.5c0-0.6,0.1-1.1,0.3-1.6c0.2-0.5,0.6-0.8,1-1.1s0.9-0.4,1.5-0.4c0.4,0,0.8,0.1,1.1,0.2
		c0.3,0.1,0.6,0.3,0.8,0.6c0.2,0.2,0.3,0.6,0.4,0.9l-0.7,0.2c-0.1-0.3-0.2-0.5-0.3-0.7c-0.1-0.2-0.3-0.3-0.5-0.4
		c-0.2-0.1-0.5-0.2-0.8-0.2c-0.3,0-0.6,0.1-0.9,0.2c-0.3,0.1-0.5,0.2-0.6,0.4s-0.3,0.4-0.4,0.6c-0.1,0.4-0.2,0.7-0.2,1.2
		c0,0.5,0.1,0.9,0.3,1.3s0.4,0.6,0.8,0.8s0.7,0.2,1.1,0.2c0.3,0,0.6-0.1,1-0.2s0.5-0.3,0.7-0.4v-1.1H2664.9z"/>
</g>
<g>
	<path d="M2668.6,18l0.6-0.1c0,0.3,0.1,0.4,0.3,0.6c0.2,0.1,0.4,0.2,0.7,0.2c0.3,0,0.5-0.1,0.6-0.2c0.1-0.1,0.2-0.3,0.2-0.4
		c0-0.1-0.1-0.3-0.2-0.3c-0.1-0.1-0.3-0.1-0.6-0.2c-0.5-0.1-0.8-0.2-1-0.3c-0.2-0.1-0.3-0.2-0.4-0.4s-0.1-0.3-0.1-0.5
		c0-0.2,0-0.3,0.1-0.5c0.1-0.1,0.2-0.3,0.3-0.4c0.1-0.1,0.2-0.1,0.4-0.2c0.2-0.1,0.4-0.1,0.5-0.1c0.3,0,0.6,0,0.8,0.1
		c0.2,0.1,0.4,0.2,0.5,0.3s0.2,0.3,0.2,0.6l-0.6,0.1c0-0.2-0.1-0.3-0.2-0.4c-0.1-0.1-0.3-0.2-0.6-0.2c-0.3,0-0.5,0-0.6,0.1
		c-0.1,0.1-0.2,0.2-0.2,0.3c0,0.1,0,0.2,0.1,0.2c0.1,0.1,0.1,0.1,0.2,0.2c0.1,0,0.2,0.1,0.6,0.2c0.4,0.1,0.8,0.2,0.9,0.3
		c0.2,0.1,0.3,0.2,0.4,0.3c0.1,0.1,0.2,0.3,0.2,0.5c0,0.2-0.1,0.4-0.2,0.6s-0.3,0.3-0.5,0.4c-0.2,0.1-0.5,0.2-0.8,0.2
		c-0.5,0-0.9-0.1-1.1-0.3C2668.9,18.6,2668.7,18.3,2668.6,18z"/>
</g>
<g>
	<path d="M2674.9,19.1v-0.5c-0.3,0.4-0.7,0.6-1.2,0.6c-0.2,0-0.4,0-0.6-0.1c-0.2-0.1-0.3-0.2-0.4-0.3s-0.2-0.3-0.2-0.5
		c0-0.1,0-0.3,0-0.6v-2.3h0.6v2.1c0,0.3,0,0.6,0,0.7c0,0.2,0.1,0.3,0.3,0.4c0.1,0.1,0.3,0.1,0.5,0.1s0.4,0,0.5-0.1
		c0.2-0.1,0.3-0.2,0.4-0.4c0.1-0.2,0.1-0.4,0.1-0.7v-2h0.6v3.7H2674.9z"/>
</g>
<g>
	<path d="M2676.2,18l0.6-0.1c0,0.3,0.1,0.4,0.3,0.6c0.2,0.1,0.4,0.2,0.7,0.2c0.3,0,0.5-0.1,0.6-0.2c0.1-0.1,0.2-0.3,0.2-0.4
		c0-0.1-0.1-0.3-0.2-0.3c-0.1-0.1-0.3-0.1-0.6-0.2c-0.5-0.1-0.8-0.2-1-0.3c-0.2-0.1-0.3-0.2-0.4-0.4s-0.1-0.3-0.1-0.5
		c0-0.2,0-0.3,0.1-0.5c0.1-0.1,0.2-0.3,0.3-0.4c0.1-0.1,0.2-0.1,0.4-0.2c0.2-0.1,0.4-0.1,0.5-0.1c0.3,0,0.6,0,0.8,0.1
		c0.2,0.1,0.4,0.2,0.5,0.3s0.2,0.3,0.2,0.6l-0.6,0.1c0-0.2-0.1-0.3-0.2-0.4c-0.1-0.1-0.3-0.2-0.6-0.2c-0.3,0-0.5,0-0.6,0.1
		c-0.1,0.1-0.2,0.2-0.2,0.3c0,0.1,0,0.2,0.1,0.2c0.1,0.1,0.1,0.1,0.2,0.2c0.1,0,0.2,0.1,0.6,0.2c0.4,0.1,0.8,0.2,0.9,0.3
		c0.2,0.1,0.3,0.2,0.4,0.3c0.1,0.1,0.2,0.3,0.2,0.5c0,0.2-0.1,0.4-0.2,0.6s-0.3,0.3-0.5,0.4c-0.2,0.1-0.5,0.2-0.8,0.2
		c-0.5,0-0.9-0.1-1.1-0.3C2676.5,18.6,2676.3,18.3,2676.2,18z"/>
</g>
<g>
	<path d="M2681.9,19.1v-1.2h-2.2v-0.6l2.4-3.3h0.5v3.3h0.7v0.6h-0.7v1.2H2681.9z M2681.9,17.3v-2.3l-1.6,2.3H2681.9z"/>
</g>
<line fill="none" stroke="#000000" stroke-width="0.459" stroke-miterlimit="10" x1="2680" y1="33.9" x2="2680" y2="49.9"/>
<path d="M2685.9,31.4c0.1,0.1,0.1,0.3,0.1,0.5c0,0.2,0,0.3,0,0.5c0,0.2,0,0.3-0.1,0.5c0,0.2-0.1,0.3-0.1,0.4
	c-0.2,0.5-0.4,0.9-0.8,1.3s-0.7,0.6-1,0.8c-0.6,0.3-1.4,0.4-2.2,0.4c-0.1,0-0.3,0-0.5-0.1c-0.2,0-0.3-0.1-0.5-0.1s-0.3-0.1-0.5-0.2
	c-0.2-0.1-0.3-0.2-0.4-0.4c-0.1-0.2-0.2-0.3-0.2-0.5c0-0.2,0-0.3,0-0.5s0-0.3,0.1-0.4c0-0.1,0.1-0.3,0.1-0.4
	c0.2-0.5,0.4-0.9,0.8-1.2c0.3-0.3,0.6-0.6,0.9-0.7c0.3-0.2,0.7-0.3,1.1-0.4c0.4-0.1,0.9-0.1,1.4-0.1c0.1,0,0.2,0,0.4,0
	c0.2,0,0.3,0.1,0.5,0.1s0.3,0.1,0.5,0.2C2685.7,31.1,2685.9,31.2,2685.9,31.4z M2685.5,31.7c-0.1-0.2-0.2-0.3-0.4-0.3
	s-0.3-0.1-0.5-0.1s-0.3,0.1-0.5,0.1c-0.2,0.1-0.3,0.1-0.5,0.2c-0.2,0.1-0.4,0.2-0.6,0.3c-0.2,0.1-0.4,0.2-0.5,0.3
	c-0.4,0.2-0.7,0.4-1.1,0.7c-0.1,0.1-0.3,0.2-0.4,0.3c-0.1,0.1-0.3,0.2-0.4,0.4c-0.1,0.1-0.2,0.3-0.2,0.5c0,0.2,0,0.3,0.1,0.5
	c0.1,0.2,0.2,0.3,0.4,0.3c0.2,0.1,0.3,0.1,0.5,0s0.3-0.1,0.5-0.1c0.2-0.1,0.3-0.1,0.5-0.2c0.2-0.1,0.4-0.2,0.6-0.3
	c0.2-0.1,0.4-0.2,0.6-0.3c0.2-0.1,0.4-0.2,0.5-0.3c0.2-0.1,0.4-0.2,0.6-0.4c0.1-0.1,0.3-0.2,0.4-0.3c0.1-0.1,0.3-0.2,0.4-0.4
	c0.1-0.1,0.2-0.3,0.2-0.5C2685.6,32,2685.6,31.8,2685.5,31.7z"/>
<line fill="none" stroke="#000000" stroke-width="0.459" stroke-miterlimit="10" x1="2720.8" y1="36.3" x2="2720.8" y2="52.3"/>
<path d="M2726.7,33.8c0.1,0.1,0.1,0.3,0.1,0.5c0,0.2,0,0.3,0,0.5c0,0.2,0,0.3-0.1,0.5c0,0.2-0.1,0.3-0.1,0.4
	c-0.2,0.5-0.4,0.9-0.8,1.3c-0.4,0.4-0.7,0.6-1,0.8c-0.6,0.3-1.4,0.4-2.2,0.4c-0.1,0-0.3,0-0.5-0.1c-0.2,0-0.3-0.1-0.5-0.1
	c-0.2-0.1-0.3-0.1-0.5-0.2s-0.3-0.2-0.4-0.4c-0.1-0.2-0.2-0.3-0.2-0.5c0-0.2,0-0.3,0-0.5c0-0.2,0-0.3,0.1-0.4c0-0.1,0.1-0.3,0.1-0.4
	c0.2-0.5,0.4-0.9,0.8-1.2c0.3-0.3,0.6-0.6,0.9-0.7c0.3-0.2,0.7-0.3,1.1-0.4c0.4-0.1,0.9-0.1,1.4-0.1c0.1,0,0.2,0,0.4,0
	c0.2,0,0.3,0.1,0.5,0.1c0.2,0.1,0.3,0.1,0.5,0.2C2726.5,33.5,2726.7,33.6,2726.7,33.8z M2726.3,34.1c-0.1-0.2-0.2-0.3-0.4-0.3
	c-0.1-0.1-0.3-0.1-0.5-0.1s-0.3,0.1-0.5,0.1s-0.3,0.1-0.5,0.2c-0.2,0.1-0.4,0.2-0.6,0.3c-0.2,0.1-0.4,0.2-0.5,0.3
	c-0.4,0.2-0.7,0.4-1.1,0.7c-0.1,0.1-0.3,0.2-0.4,0.3c-0.1,0.1-0.3,0.2-0.4,0.4c-0.1,0.1-0.2,0.3-0.2,0.5c0,0.2,0,0.3,0.1,0.5
	c0.1,0.2,0.2,0.3,0.4,0.3c0.2,0.1,0.3,0.1,0.5,0c0.2,0,0.3-0.1,0.5-0.1c0.2-0.1,0.3-0.1,0.5-0.2c0.2-0.1,0.4-0.2,0.6-0.3
	s0.4-0.2,0.6-0.3c0.2-0.1,0.4-0.2,0.5-0.3c0.2-0.1,0.4-0.2,0.6-0.4c0.1-0.1,0.3-0.2,0.4-0.3c0.1-0.1,0.3-0.2,0.4-0.4
	c0.1-0.1,0.2-0.3,0.2-0.5C2726.4,34.4,2726.4,34.2,2726.3,34.1z"/>
<g>
	<path d="M2723.9,16.8v-0.7l2.4,0v2.1c-0.4,0.3-0.8,0.5-1.2,0.7c-0.4,0.1-0.8,0.2-1.2,0.2c-0.6,0-1.1-0.1-1.5-0.4
		c-0.5-0.2-0.8-0.6-1-1s-0.4-1-0.4-1.5c0-0.6,0.1-1.1,0.3-1.6c0.2-0.5,0.6-0.8,1-1.1s0.9-0.4,1.5-0.4c0.4,0,0.8,0.1,1.1,0.2
		c0.3,0.1,0.6,0.3,0.8,0.6c0.2,0.2,0.3,0.6,0.4,0.9l-0.7,0.2c-0.1-0.3-0.2-0.5-0.3-0.7c-0.1-0.2-0.3-0.3-0.5-0.4
		c-0.2-0.1-0.5-0.2-0.8-0.2c-0.3,0-0.6,0.1-0.9,0.2c-0.3,0.1-0.5,0.2-0.6,0.4s-0.3,0.4-0.4,0.6c-0.1,0.4-0.2,0.7-0.2,1.2
		c0,0.5,0.1,0.9,0.3,1.3s0.4,0.6,0.8,0.8s0.7,0.2,1.1,0.2c0.3,0,0.6-0.1,1-0.2s0.5-0.3,0.7-0.4v-1.1H2723.9z"/>
</g>
<line fill="none" stroke="#000000" stroke-width="0.459" stroke-miterlimit="10" x1="2767" y1="33.9" x2="2767" y2="49.9"/>
<path d="M2772.9,31.4c0.1,0.1,0.1,0.3,0.1,0.5c0,0.2,0,0.3,0,0.5c0,0.2,0,0.3-0.1,0.5c0,0.2-0.1,0.3-0.1,0.4
	c-0.2,0.5-0.4,0.9-0.8,1.3s-0.7,0.6-1,0.8c-0.6,0.3-1.4,0.4-2.2,0.4c-0.1,0-0.3,0-0.5-0.1c-0.2,0-0.3-0.1-0.5-0.1s-0.3-0.1-0.5-0.2
	c-0.2-0.1-0.3-0.2-0.4-0.4c-0.1-0.2-0.2-0.3-0.2-0.5c0-0.2,0-0.3,0-0.5s0-0.3,0.1-0.4c0-0.1,0.1-0.3,0.1-0.4
	c0.2-0.5,0.4-0.9,0.8-1.2c0.3-0.3,0.6-0.6,0.9-0.7c0.3-0.2,0.7-0.3,1.1-0.4c0.4-0.1,0.9-0.1,1.4-0.1c0.1,0,0.2,0,0.4,0
	c0.2,0,0.3,0.1,0.5,0.1s0.3,0.1,0.5,0.2C2772.7,31.1,2772.9,31.2,2772.9,31.4z M2772.5,31.7c-0.1-0.2-0.2-0.3-0.4-0.3
	s-0.3-0.1-0.5-0.1s-0.3,0.1-0.5,0.1c-0.2,0.1-0.3,0.1-0.5,0.2c-0.2,0.1-0.4,0.2-0.6,0.3c-0.2,0.1-0.4,0.2-0.5,0.3
	c-0.4,0.2-0.7,0.4-1.1,0.7c-0.1,0.1-0.3,0.2-0.4,0.3c-0.1,0.1-0.3,0.2-0.4,0.4c-0.1,0.1-0.2,0.3-0.2,0.5c0,0.2,0,0.3,0.1,0.5
	c0.1,0.2,0.2,0.3,0.4,0.3c0.2,0.1,0.3,0.1,0.5,0s0.3-0.1,0.5-0.1c0.2-0.1,0.3-0.1,0.5-0.2c0.2-0.1,0.4-0.2,0.6-0.3
	c0.2-0.1,0.4-0.2,0.6-0.3c0.2-0.1,0.4-0.2,0.5-0.3c0.2-0.1,0.4-0.2,0.6-0.4c0.1-0.1,0.3-0.2,0.4-0.3c0.1-0.1,0.3-0.2,0.4-0.4
	c0.1-0.1,0.2-0.3,0.2-0.5C2772.6,32,2772.6,31.8,2772.5,31.7z"/>
<g>
	<path d="M2808.6,39c-0.7-0.5-1.7-1.6-1.7-3.5c0-1.7,0.9-3.1,1.7-3.5l0.1,0.1c-1.1,1.1-1.1,2.2-1.1,3.4c0,1.1,0.1,2.3,1.1,3.4
		L2808.6,39z M2809.9,33.2c0,0.1,0,1,0,1c0.5-0.5,0.9-0.6,1.3-0.6c0.7,0,1,0.6,1,1.2c0,0.3-0.1,0.6-0.2,0.9
		c-0.1,0.3-0.3,0.5-0.5,0.7c-0.2,0.3-2.2,1.5-2.2,1.5v-8.4h0.5C2809.9,29.5,2809.9,31.4,2809.9,33.2z M2810.1,34.7
		c-0.2,0.3-0.2,0.8-0.2,1.3v1.2c0,0,0.5-0.4,0.7-0.7c0.2-0.2,0.4-0.5,0.5-0.9s0.1-0.8-0.2-1.1C2810.8,34.3,2810.3,34.2,2810.1,34.7z
		 M2812.9,33.2c0,0.1,0,1,0,1c0.5-0.5,0.9-0.6,1.3-0.6c0.7,0,1,0.6,1,1.2c0,0.3-0.1,0.6-0.2,0.8c-0.1,0.3-0.3,0.5-0.5,0.8
		c-0.2,0.2-2.1,1.5-2.1,1.5v-8.4h0.5C2812.9,29.5,2812.9,31.4,2812.9,33.2z M2813.1,34.7c-0.2,0.3-0.2,0.8-0.2,1.3v1.2
		c0,0,0.5-0.4,0.8-0.7c0.2-0.2,0.4-0.5,0.5-0.9c0.1-0.4,0.1-0.8-0.2-1.1C2813.8,34.3,2813.4,34.2,2813.1,34.7z M2815.2,39l-0.1-0.1
		c1.1-1.1,1.1-2.3,1.1-3.4c0-1.2-0.1-2.3-1.1-3.4l0.1-0.1c0.7,0.4,1.7,1.8,1.7,3.5C2816.8,37.4,2815.9,38.5,2815.2,39z"/>
</g>
<line fill="none" stroke="#000000" stroke-width="0.459" stroke-miterlimit="10" x1="2806.4" y1="35.5" x2="2813.6" y2="35.5"/>
<g>
	<path d="M2771.5,17.1l0.8,0.2c-0.2,0.6-0.4,1.1-0.9,1.4c-0.4,0.3-0.9,0.5-1.5,0.5c-0.6,0-1.1-0.1-1.5-0.4s-0.7-0.6-0.9-1.1
		s-0.3-1-0.3-1.5c0-0.6,0.1-1.1,0.3-1.6c0.2-0.4,0.6-0.8,1-1c0.4-0.2,0.9-0.3,1.4-0.3c0.6,0,1.1,0.1,1.4,0.4
		c0.4,0.3,0.7,0.7,0.8,1.2l-0.7,0.2c-0.1-0.4-0.3-0.7-0.6-0.9c-0.3-0.2-0.6-0.3-1-0.3c-0.4,0-0.8,0.1-1.1,0.3
		c-0.3,0.2-0.5,0.5-0.6,0.8c-0.1,0.4-0.2,0.7-0.2,1.1c0,0.5,0.1,0.9,0.2,1.3s0.4,0.6,0.7,0.8c0.3,0.2,0.6,0.3,1,0.3
		c0.4,0,0.8-0.1,1.1-0.4C2771.2,17.9,2771.4,17.5,2771.5,17.1z"/>
</g>
</svg>
