<?xml version="1.0" encoding="utf-8"?>
<!-- Generator: Adobe Illustrator 16.0.0, SVG Export Plug-In . SVG Version: 6.00 Build 0)  -->
<!DOCTYPE svg PUBLIC "-//W3C//DTD SVG 1.1//EN" "http://www.w3.org/Graphics/SVG/1.1/DTD/svg11.dtd">
<svg version="1.1" id="Layer_1" xmlns="http://www.w3.org/2000/svg" xmlns:xlink="http://www.w3.org/1999/xlink" x="0px" y="0px"
	 width="2880px" height="68px" viewBox="0 0 2880 68" enable-background="new 0 0 2880 68" xml:space="preserve">
<rect y="-134.3" fill="#FFFFFF" width="2880" height="288"/>
<line fill="none" stroke="#000000" stroke-width="0.459" stroke-miterlimit="10" x1="28.4" y1="-102.1" x2="28.4" y2="109.1"/>
<line fill="none" stroke="#000000" stroke-width="0.459" stroke-miterlimit="10" x1="30.8" y1="-102.1" x2="30.8" y2="109.1"/>
<g>
	<path d="M40.6,44.8c-4-1.9-4.6-4.3-4.8-6.8c-0.2-2.7,1.5-5.4,3.1-6.9c0.9-0.9,1.9-1.7,3.1-2.6c0-0.7-0.2-0.9-0.3-1.9
		c0-0.4-0.3-2.3,0.1-4.5c0.2-1.3,1.9-4.3,3-4.3c0.9,0,2.2,3.4,2.2,5.2c0.1,2.7-0.6,3.9-1.4,5.3c-0.4,0.7-0.8,1.2-1.3,1.7
		c-0.5,0.6-1,0.9-1.5,1.3c0,0,0.6,3.5,0.6,3.7c1.2-0.2,2.7,0.3,3.3,0.7c1.4,1,1.9,2.4,2,3.8c0.2,2.2-1,4.5-3.6,5.5
		c0,0,0.4,2.8,0.5,3.3c0.2,1.5,0.2,2.5-0.2,3.1c-0.6,1-1.5,2-3.2,2.1c-1.3,0.1-4-0.6-4.1-2.7c-0.1-1.2,0.5-2.6,2-2.7
		c0.9-0.1,2,0.7,2.1,1.8c0.1,0.9-0.5,1.9-2.1,2.4c0.2,0.3,1,0.7,2.1,0.7c1.1,0,2.3-0.7,2.8-1.7c0.3-0.7,0.3-1.8,0.2-2.9
		c-0.1-0.4-0.5-3.3-0.5-3.3C43.3,45.4,41.4,45.2,40.6,44.8z M40.9,40.3c0,0.9,0.8,2,1.5,2.4c-0.1,0.1-0.2,0.2-0.2,0.2
		c-0.8-0.4-1.5-1-1.6-1.2c-0.6-0.7-0.8-1.2-0.9-2.3c-0.1-1.1,0.5-2.5,1.8-3.5c0.7-0.5,1-0.6,1.6-0.7l-0.6-3.5
		c-0.6,0.3-3.1,2.3-4.1,3.9c-0.9,1.4-1.5,2.6-1.4,4c0.2,3.2,3.7,5.8,7.5,4.9c0,0-1.1-6.8-1.1-6.8C41.4,37.8,40.9,39.4,40.9,40.3z
		 M42.5,28.1c1.7-1.3,3.9-3.8,3.8-5.7c0-0.6-0.3-1.7-1.2-1.7C43.2,20.8,42.1,25,42.5,28.1z M45.1,44.3c2.2-0.7,2.3-2.6,2.2-3.8
		c-0.1-0.9-0.5-3.1-3.3-2.9L45.1,44.3z"/>
</g>
<g>
	<path d="M60.6,42.4v1.3c0,0.8,0.9,0.7,0.9,0.7v0.5h-4.2v-0.5c0,0,0.9,0,0.9-0.7v-1.3h-3.6L54.4,42c2.3-3.1,2.3-3.7,2.9-6.5h3.3
		c-0.8,1.5-3.4,4.2-5.3,6.4h3v-2.4l2.3-2.6v4.9H62v0.5H60.6z"/>
</g>
<g>
	<path d="M60.6,32.8v1.3c0,0.8,0.9,0.7,0.9,0.7v0.5h-4.2v-0.5c0,0,0.9,0,0.9-0.7v-1.3h-3.6l-0.3-0.4c2.3-3.1,2.3-3.7,2.9-6.5h3.3
		c-0.8,1.5-3.4,4.2-5.3,6.4h3v-2.4l2.3-2.6v4.9H62v0.5H60.6z"/>
</g>
<line fill="none" stroke="#000000" stroke-width="0.459" stroke-miterlimit="10" x1="151.6" y1="-102.1" x2="151.6" y2="109.1"/>
<line fill="none" stroke="#000000" stroke-width="0.459" stroke-miterlimit="10" x1="238.6" y1="-102.1" x2="238.6" y2="109.1"/>
<line fill="none" stroke="#000000" stroke-width="0.459" stroke-miterlimit="10" x1="325.6" y1="-102.1" x2="325.6" y2="109.1"/>
<line fill="none" stroke="#000000" stroke-width="0.459" stroke-miterlimit="10" x1="412.6" y1="-102.1" x2="412.6" y2="109.1"/>
<line fill="none" stroke="#000000" stroke-width="0.459" stroke-miterlimit="10" x1="499.6" y1="-102.1" x2="499.6" y2="109.1"/>
<line fill="none" stroke="#000000" stroke-width="0.459" stroke-miterlimit="10" x1="586.6" y1="-102.1" x2="586.6" y2="109.1"/>
<line fill="none" stroke="#000000" stroke-width="0.459" stroke-miterlimit="10" x1="673.6" y1="-102.1" x2="673.6" y2="109.1"/>
<line fill="none" stroke="#000000" stroke-width="0.459" stroke-miterlimit="10" x1="760.6" y1="-102.1" x2="760.6" y2="109.1"/>
<line fill="none" stroke="#000000" stroke-width="0.459" stroke-miterlimit="10" x1="847.6" y1="-102.1" x2="847.6" y2="109.1"/>
<line fill="none" stroke="#000000" stroke-width="0.459" stroke-miterlimit="10" x1="934.6" y1="-102.1" x2="934.6" y2="109.1"/>
<line fill="none" stroke="#000000" stroke-width="0.459" stroke-miterlimit="10" x1="1021.6" y1="-102.1" x2="1021.6" y2="109.1"/>
<line fill="none" stroke="#000000" stroke-width="0.459" stroke-miterlimit="10" x1="1108.6" y1="-102.1" x2="1108.6" y2="109.1"/>
<line fill="none" stroke="#000000" stroke-width="0.459" stroke-miterlimit="10" x1="1195.6" y1="-102.1" x2="1195.6" y2="109.1"/>
<line fill="none" stroke="#000000" stroke-width="0.459" stroke-miterlimit="10" x1="1282.6" y1="-102.1" x2="1282.6" y2="109.1"/>
<line fill="none" stroke="#000000" stroke-width="0.459" stroke-miterlimit="10" x1="1369.6" y1="-102.1" x2="1369.6" y2="109.1"/>
<line fill="none" stroke="#000000" stroke-width="0.459" stroke-miterlimit="10" x1="1456.6" y1="-102.1" x2="1456.6" y2="109.1"/>
<line fill="none" stroke="#000000" stroke-width="0.459" stroke-miterlimit="10" x1="1543.6" y1="-102.1" x2="1543.6" y2="109.1"/>
<line fill="none" stroke="#000000" stroke-width="0.459" stroke-miterlimit="10" x1="1630.6" y1="-102.1" x2="1630.6" y2="109.1"/>
<line fill="none" stroke="#000000" stroke-width="0.459" stroke-miterlimit="10" x1="1717.6" y1="-102.1" x2="1717.6" y2="109.1"/>
<line fill="none" stroke="#000000" stroke-width="0.459" stroke-miterlimit="10" x1="1804.6" y1="-102.1" x2="1804.6" y2="109.1"/>
<line fill="none" stroke="#000000" stroke-width="0.459" stroke-miterlimit="10" x1="1891.6" y1="-102.1" x2="1891.6" y2="109.1"/>
<line fill="none" stroke="#000000" stroke-width="0.459" stroke-miterlimit="10" x1="1978.6" y1="-102.1" x2="1978.6" y2="109.1"/>
<line fill="none" stroke="#000000" stroke-width="0.459" stroke-miterlimit="10" x1="2065.6" y1="-102.1" x2="2065.6" y2="109.1"/>
<line fill="none" stroke="#000000" stroke-width="0.459" stroke-miterlimit="10" x1="2152.6" y1="-102.1" x2="2152.6" y2="109.1"/>
<line fill="none" stroke="#000000" stroke-width="0.459" stroke-miterlimit="10" x1="2239.6" y1="-102.1" x2="2239.6" y2="109.1"/>
<line fill="none" stroke="#000000" stroke-width="0.459" stroke-miterlimit="10" x1="2326.6" y1="-102.1" x2="2326.6" y2="109.1"/>
<line fill="none" stroke="#000000" stroke-width="0.459" stroke-miterlimit="10" x1="2413.6" y1="-102.1" x2="2413.6" y2="109.1"/>
<line fill="none" stroke="#000000" stroke-width="0.459" stroke-miterlimit="10" x1="2500.6" y1="-102.1" x2="2500.6" y2="109.1"/>
<line fill="none" stroke="#000000" stroke-width="0.459" stroke-miterlimit="10" x1="2587.6" y1="-102.1" x2="2587.6" y2="109.1"/>
<line fill="none" stroke="#000000" stroke-width="0.459" stroke-miterlimit="10" x1="2674.6" y1="-102.1" x2="2674.6" y2="109.1"/>
<line fill="none" stroke="#000000" stroke-width="0.459" stroke-miterlimit="10" x1="2761.6" y1="-102.1" x2="2761.6" y2="109.1"/>
<line fill="none" stroke="#000000" stroke-width="2.4187" stroke-miterlimit="10" x1="2850.6" y1="-102.1" x2="2850.6" y2="109.1"/>
<line fill="none" stroke="#000000" stroke-width="0.459" stroke-miterlimit="10" x1="2846.7" y1="-102.1" x2="2846.7" y2="109.1"/>
<line fill="none" stroke="#000000" stroke-width="0.459" stroke-miterlimit="10" x1="28.2" y1="25.9" x2="2851.8" y2="25.9"/>
<line fill="none" stroke="#000000" stroke-width="0.459" stroke-miterlimit="10" x1="28.2" y1="30.7" x2="2851.8" y2="30.7"/>
<line fill="none" stroke="#000000" stroke-width="0.459" stroke-miterlimit="10" x1="28.2" y1="35.5" x2="2851.8" y2="35.5"/>
<line fill="none" stroke="#000000" stroke-width="0.459" stroke-miterlimit="10" x1="28.2" y1="40.3" x2="2851.8" y2="40.3"/>
<line fill="none" stroke="#000000" stroke-width="0.459" stroke-miterlimit="10" x1="28.2" y1="45.1" x2="2851.8" y2="45.1"/>
<rect x="105" y="30.7" width="6.1" height="2.8"/>
<line fill="none" stroke="#000000" stroke-width="0.459" stroke-miterlimit="10" x1="104.4" y1="30.7" x2="111.6" y2="30.7"/>
<rect x="192" y="30.7" width="6.1" height="2.8"/>
<line fill="none" stroke="#000000" stroke-width="0.459" stroke-miterlimit="10" x1="191.4" y1="30.7" x2="198.6" y2="30.7"/>
<rect x="279" y="30.7" width="6.1" height="2.8"/>
<line fill="none" stroke="#000000" stroke-width="0.459" stroke-miterlimit="10" x1="278.4" y1="30.7" x2="285.6" y2="30.7"/>
<rect x="366" y="30.7" width="6.1" height="2.8"/>
<line fill="none" stroke="#000000" stroke-width="0.459" stroke-miterlimit="10" x1="365.4" y1="30.7" x2="372.6" y2="30.7"/>
<rect x="453" y="30.7" width="6.1" height="2.8"/>
<line fill="none" stroke="#000000" stroke-width="0.459" stroke-miterlimit="10" x1="452.4" y1="30.7" x2="459.6" y2="30.7"/>
<rect x="540" y="30.7" width="6.1" height="2.8"/>
<line fill="none" stroke="#000000" stroke-width="0.459" stroke-miterlimit="10" x1="539.4" y1="30.7" x2="546.6" y2="30.7"/>
<rect x="627" y="30.7" width="6.1" height="2.8"/>
<line fill="none" stroke="#000000" stroke-width="0.459" stroke-miterlimit="10" x1="626.4" y1="30.7" x2="633.6" y2="30.7"/>
<rect x="714" y="30.7" width="6.1" height="2.8"/>
<line fill="none" stroke="#000000" stroke-width="0.459" stroke-miterlimit="10" x1="713.4" y1="30.7" x2="720.6" y2="30.7"/>
<rect x="801" y="30.7" width="6.1" height="2.8"/>
<line fill="none" stroke="#000000" stroke-width="0.459" stroke-miterlimit="10" x1="800.4" y1="30.7" x2="807.6" y2="30.7"/>
<rect x="888" y="30.7" width="6.1" height="2.8"/>
<line fill="none" stroke="#000000" stroke-width="0.459" stroke-miterlimit="10" x1="887.4" y1="30.7" x2="894.6" y2="30.7"/>
<rect x="975" y="30.7" width="6.1" height="2.8"/>
<line fill="none" stroke="#000000" stroke-width="0.459" stroke-miterlimit="10" x1="974.4" y1="30.7" x2="981.6" y2="30.7"/>
<rect x="1062" y="30.7" width="6.1" height="2.8"/>
<line fill="none" stroke="#000000" stroke-width="0.459" stroke-miterlimit="10" x1="1061.4" y1="30.7" x2="1068.6" y2="30.7"/>
<rect x="1149" y="30.7" width="6.1" height="2.8"/>
<line fill="none" stroke="#000000" stroke-width="0.459" stroke-miterlimit="10" x1="1148.4" y1="30.7" x2="1155.6" y2="30.7"/>
<rect x="1236" y="30.7" width="6.1" height="2.8"/>
<line fill="none" stroke="#000000" stroke-width="0.459" stroke-miterlimit="10" x1="1235.4" y1="30.7" x2="1242.6" y2="30.7"/>
<rect x="1323" y="30.7" width="6.1" height="2.8"/>
<line fill="none" stroke="#000000" stroke-width="0.459" stroke-miterlimit="10" x1="1322.4" y1="30.7" x2="1329.6" y2="30.7"/>
<rect x="1410" y="30.7" width="6.1" height="2.8"/>
<line fill="none" stroke="#000000" stroke-width="0.459" stroke-miterlimit="10" x1="1409.4" y1="30.7" x2="1416.6" y2="30.7"/>
<line fill="none" stroke="#000000" stroke-width="0.459" stroke-miterlimit="10" x1="1467.6" y1="39.5" x2="1467.6" y2="23.5"/>
<path d="M1462,40.3c0.1-0.3,0.3-0.7,0.6-1c0.3-0.3,0.6-0.6,0.9-0.8c0.3-0.2,0.7-0.4,1.1-0.5c0.4-0.1,0.8-0.2,1.2-0.2
	c0.4,0,0.8,0.1,1.1,0.2c0.3,0.1,0.5,0.3,0.7,0.5s0.3,0.5,0.3,0.8s0,0.6-0.1,1c-0.1,0.3-0.3,0.7-0.6,1c-0.3,0.3-0.6,0.6-0.9,0.8
	c-0.3,0.2-0.7,0.4-1.1,0.5c-0.4,0.1-0.8,0.2-1.2,0.2c-0.4,0-0.8-0.1-1.1-0.2c-0.3-0.1-0.5-0.3-0.7-0.5c-0.2-0.2-0.3-0.5-0.3-0.8
	C1461.8,41,1461.8,40.7,1462,40.3z"/>
<line fill="none" stroke="#000000" stroke-width="0.459" stroke-miterlimit="10" x1="1490.2" y1="39.5" x2="1490.2" y2="23.5"/>
<path d="M1484.6,40.3c0.1-0.3,0.3-0.7,0.6-1c0.3-0.3,0.6-0.6,0.9-0.8c0.3-0.2,0.7-0.4,1.1-0.5c0.4-0.1,0.8-0.2,1.2-0.2
	c0.4,0,0.8,0.1,1.1,0.2c0.3,0.1,0.5,0.3,0.7,0.5c0.2,0.2,0.3,0.5,0.3,0.8s0,0.6-0.1,1s-0.3,0.7-0.6,1c-0.3,0.3-0.6,0.6-0.9,0.8
	c-0.3,0.2-0.7,0.4-1.1,0.5c-0.4,0.1-0.8,0.2-1.2,0.2c-0.4,0-0.8-0.1-1.1-0.2c-0.3-0.1-0.5-0.3-0.7-0.5c-0.2-0.2-0.3-0.5-0.3-0.8
	C1484.4,41,1484.4,40.7,1484.6,40.3z"/>
<line fill="none" stroke="#000000" stroke-width="0.459" stroke-miterlimit="10" x1="1512.8" y1="39.5" x2="1512.8" y2="23.5"/>
<path d="M1513.1,38.6c0.1,0.1,0.1,0.3,0.1,0.5c0,0.2,0,0.3,0,0.5c0,0.2,0,0.3-0.1,0.5c0,0.2-0.1,0.3-0.1,0.4
	c-0.2,0.5-0.4,0.9-0.8,1.3s-0.7,0.6-1,0.8c-0.6,0.3-1.4,0.4-2.2,0.4c-0.1,0-0.3,0-0.5-0.1s-0.3-0.1-0.5-0.1
	c-0.2-0.1-0.3-0.1-0.5-0.2s-0.3-0.2-0.4-0.4c-0.1-0.2-0.2-0.3-0.2-0.5c0-0.2,0-0.3,0-0.5c0-0.2,0-0.3,0.1-0.4c0-0.1,0.1-0.3,0.1-0.4
	c0.2-0.5,0.4-0.9,0.8-1.2s0.6-0.6,0.9-0.7c0.3-0.2,0.7-0.3,1.1-0.4c0.4-0.1,0.9-0.1,1.4-0.1c0.1,0,0.2,0,0.4,0
	c0.2,0,0.3,0.1,0.5,0.1c0.2,0.1,0.3,0.1,0.5,0.2C1512.9,38.3,1513.1,38.4,1513.1,38.6z M1512.7,38.9c-0.1-0.2-0.2-0.3-0.4-0.3
	c-0.1-0.1-0.3-0.1-0.5-0.1s-0.3,0.1-0.5,0.1c-0.2,0.1-0.3,0.1-0.5,0.2c-0.2,0.1-0.4,0.2-0.6,0.3s-0.4,0.2-0.5,0.3
	c-0.4,0.2-0.7,0.4-1.1,0.7c-0.1,0.1-0.3,0.2-0.4,0.3c-0.1,0.1-0.3,0.2-0.4,0.4s-0.2,0.3-0.2,0.5c0,0.2,0,0.3,0.1,0.5
	c0.1,0.2,0.2,0.3,0.4,0.3s0.3,0.1,0.5,0c0.2,0,0.3-0.1,0.5-0.1c0.2-0.1,0.3-0.1,0.5-0.2c0.2-0.1,0.4-0.2,0.6-0.3s0.4-0.2,0.6-0.3
	c0.2-0.1,0.4-0.2,0.5-0.3c0.2-0.1,0.4-0.2,0.6-0.4c0.1-0.1,0.3-0.2,0.4-0.3c0.1-0.1,0.3-0.2,0.4-0.4c0.1-0.1,0.2-0.3,0.2-0.5
	C1512.8,39.2,1512.8,39.1,1512.7,38.9z"/>
<line fill="none" stroke="#000000" stroke-width="0.459" stroke-miterlimit="10" x1="1554.6" y1="37.1" x2="1554.6" y2="21.1"/>
<path d="M1549,37.9c0.1-0.3,0.3-0.7,0.6-1c0.3-0.3,0.6-0.6,0.9-0.8c0.3-0.2,0.7-0.4,1.1-0.5c0.4-0.1,0.8-0.2,1.2-0.2
	c0.4,0,0.8,0.1,1.1,0.2s0.5,0.3,0.7,0.5c0.2,0.2,0.3,0.5,0.3,0.8s0,0.6-0.1,1c-0.1,0.3-0.3,0.7-0.6,1s-0.6,0.6-0.9,0.8
	c-0.3,0.2-0.7,0.4-1.1,0.5s-0.8,0.2-1.2,0.2c-0.4,0-0.8-0.1-1.1-0.2c-0.3-0.1-0.5-0.3-0.7-0.5s-0.3-0.5-0.3-0.8
	C1548.8,38.6,1548.8,38.3,1549,37.9z"/>
<line fill="none" stroke="#000000" stroke-width="0.459" stroke-miterlimit="10" x1="1577.2" y1="37.1" x2="1577.2" y2="21.1"/>
<path d="M1571.6,37.9c0.1-0.3,0.3-0.7,0.6-1c0.3-0.3,0.6-0.6,0.9-0.8c0.3-0.2,0.7-0.4,1.1-0.5c0.4-0.1,0.8-0.2,1.2-0.2
	c0.4,0,0.8,0.1,1.1,0.2c0.3,0.1,0.6,0.3,0.7,0.5c0.2,0.2,0.3,0.5,0.3,0.8s0,0.6-0.1,1c-0.1,0.3-0.3,0.7-0.6,1s-0.6,0.6-0.9,0.8
	c-0.3,0.2-0.7,0.4-1.1,0.5s-0.8,0.2-1.2,0.2c-0.4,0-0.8-0.1-1.1-0.2c-0.3-0.1-0.5-0.3-0.7-0.5s-0.3-0.5-0.3-0.8
	C1571.4,38.6,1571.4,38.3,1571.6,37.9z"/>
<line fill="none" stroke="#000000" stroke-width="0.459" stroke-miterlimit="10" x1="1599.8" y1="37.1" x2="1599.8" y2="21.1"/>
<path d="M1600.1,36.2c0.1,0.1,0.1,0.3,0.1,0.5c0,0.2,0,0.3,0,0.5c0,0.2,0,0.3-0.1,0.5c0,0.2-0.1,0.3-0.1,0.4
	c-0.2,0.5-0.4,0.9-0.8,1.3c-0.4,0.4-0.7,0.6-1,0.8c-0.6,0.3-1.4,0.4-2.2,0.4c-0.1,0-0.3,0-0.5-0.1c-0.2,0-0.3-0.1-0.5-0.1
	c-0.2-0.1-0.3-0.1-0.5-0.2s-0.3-0.2-0.4-0.4c-0.1-0.2-0.2-0.3-0.2-0.5s0-0.3,0-0.5s0-0.3,0.1-0.4c0-0.1,0.1-0.3,0.1-0.4
	c0.2-0.5,0.4-0.9,0.8-1.2c0.3-0.3,0.6-0.6,0.9-0.7c0.3-0.2,0.7-0.3,1.1-0.4s0.9-0.1,1.4-0.1c0.1,0,0.2,0,0.4,0
	c0.2,0,0.3,0.1,0.5,0.1s0.3,0.1,0.5,0.2S1600.1,36,1600.1,36.2z M1599.7,36.5c-0.1-0.2-0.2-0.3-0.4-0.3s-0.3-0.1-0.5-0.1
	s-0.3,0.1-0.5,0.1c-0.2,0.1-0.3,0.1-0.5,0.2c-0.2,0.1-0.4,0.2-0.6,0.3s-0.4,0.2-0.5,0.3c-0.4,0.2-0.7,0.4-1.1,0.7
	c-0.1,0.1-0.3,0.2-0.4,0.3c-0.1,0.1-0.3,0.2-0.4,0.4c-0.1,0.1-0.2,0.3-0.2,0.5c0,0.2,0,0.3,0.1,0.5c0.1,0.2,0.2,0.3,0.4,0.3
	c0.2,0.1,0.3,0.1,0.5,0s0.3-0.1,0.5-0.1c0.2-0.1,0.3-0.1,0.5-0.2c0.2-0.1,0.4-0.2,0.6-0.3s0.4-0.2,0.6-0.3c0.2-0.1,0.4-0.2,0.5-0.3
	s0.4-0.2,0.6-0.4c0.1-0.1,0.3-0.2,0.4-0.3s0.3-0.2,0.4-0.4c0.1-0.1,0.2-0.3,0.2-0.5S1599.8,36.7,1599.7,36.5z"/>
<line fill="none" stroke="#000000" stroke-width="0.459" stroke-miterlimit="10" x1="1641.6" y1="39.5" x2="1641.6" y2="23.5"/>
<path d="M1636,40.3c0.1-0.3,0.3-0.7,0.6-1c0.3-0.3,0.6-0.6,0.9-0.8c0.3-0.2,0.7-0.4,1.1-0.5c0.4-0.1,0.8-0.2,1.2-0.2
	c0.4,0,0.8,0.1,1.1,0.2c0.3,0.1,0.5,0.3,0.7,0.5s0.3,0.5,0.3,0.8s0,0.6-0.1,1s-0.3,0.7-0.6,1c-0.3,0.3-0.6,0.6-0.9,0.8
	c-0.3,0.2-0.7,0.4-1.1,0.5c-0.4,0.1-0.8,0.2-1.2,0.2c-0.4,0-0.8-0.1-1.1-0.2c-0.3-0.1-0.5-0.3-0.7-0.5c-0.2-0.2-0.3-0.5-0.3-0.8
	C1635.8,41,1635.8,40.7,1636,40.3z"/>
<line fill="none" stroke="#000000" stroke-width="0.459" stroke-miterlimit="10" x1="1664.2" y1="39.5" x2="1664.2" y2="23.5"/>
<path d="M1658.6,40.3c0.1-0.3,0.3-0.7,0.6-1c0.3-0.3,0.6-0.6,0.9-0.8c0.3-0.2,0.7-0.4,1.1-0.5c0.4-0.1,0.8-0.2,1.2-0.2
	c0.4,0,0.8,0.1,1.1,0.2c0.3,0.1,0.6,0.3,0.7,0.5c0.2,0.2,0.3,0.5,0.3,0.8s0,0.6-0.1,1c-0.1,0.3-0.3,0.7-0.6,1
	c-0.3,0.3-0.6,0.6-0.9,0.8c-0.3,0.2-0.7,0.4-1.1,0.5c-0.4,0.1-0.8,0.2-1.2,0.2c-0.4,0-0.8-0.1-1.1-0.2c-0.3-0.1-0.5-0.3-0.7-0.5
	c-0.2-0.2-0.3-0.5-0.3-0.8C1658.4,41,1658.4,40.7,1658.6,40.3z"/>
<line fill="none" stroke="#000000" stroke-width="0.459" stroke-miterlimit="10" x1="1686.8" y1="39.5" x2="1686.8" y2="23.5"/>
<path d="M1687.1,38.6c0.1,0.1,0.1,0.3,0.1,0.5c0,0.2,0,0.3,0,0.5c0,0.2,0,0.3-0.1,0.5c0,0.2-0.1,0.3-0.1,0.4
	c-0.2,0.5-0.4,0.9-0.8,1.3s-0.7,0.6-1,0.8c-0.6,0.3-1.4,0.4-2.2,0.4c-0.1,0-0.3,0-0.5-0.1s-0.3-0.1-0.5-0.1
	c-0.2-0.1-0.3-0.1-0.5-0.2s-0.3-0.2-0.4-0.4c-0.1-0.2-0.2-0.3-0.2-0.5s0-0.3,0-0.5s0-0.3,0.1-0.4c0-0.1,0.1-0.3,0.1-0.4
	c0.2-0.5,0.4-0.9,0.8-1.2c0.3-0.3,0.6-0.6,0.9-0.7c0.3-0.2,0.7-0.3,1.1-0.4c0.4-0.1,0.9-0.1,1.4-0.1c0.1,0,0.2,0,0.4,0
	c0.2,0,0.3,0.1,0.5,0.1c0.2,0.1,0.3,0.1,0.5,0.2C1686.9,38.3,1687.1,38.4,1687.1,38.6z M1686.7,38.9c-0.1-0.2-0.2-0.3-0.4-0.3
	c-0.1-0.1-0.3-0.1-0.5-0.1s-0.3,0.1-0.5,0.1c-0.2,0.1-0.3,0.1-0.5,0.2c-0.2,0.1-0.4,0.2-0.6,0.3s-0.4,0.2-0.5,0.3
	c-0.4,0.2-0.7,0.4-1.1,0.7c-0.1,0.1-0.3,0.2-0.4,0.3c-0.1,0.1-0.3,0.2-0.4,0.4s-0.2,0.3-0.2,0.5c0,0.2,0,0.3,0.1,0.5
	c0.1,0.2,0.2,0.3,0.4,0.3s0.3,0.1,0.5,0c0.2,0,0.3-0.1,0.5-0.1c0.2-0.1,0.3-0.1,0.5-0.2c0.2-0.1,0.4-0.2,0.6-0.3s0.4-0.2,0.6-0.3
	c0.2-0.1,0.4-0.2,0.5-0.3c0.2-0.1,0.4-0.2,0.6-0.4c0.1-0.1,0.3-0.2,0.4-0.3c0.1-0.1,0.3-0.2,0.4-0.4c0.1-0.1,0.2-0.3,0.2-0.5
	C1686.8,39.2,1686.8,39.1,1686.7,38.9z"/>
<line fill="none" stroke="#000000" stroke-width="0.459" stroke-miterlimit="10" x1="1728.6" y1="39.5" x2="1728.6" y2="23.5"/>
<path d="M1723,40.3c0.1-0.3,0.3-0.7,0.6-1c0.3-0.3,0.6-0.6,0.9-0.8c0.3-0.2,0.7-0.4,1.1-0.5c0.4-0.1,0.8-0.2,1.2-0.2
	c0.4,0,0.8,0.1,1.1,0.2c0.3,0.1,0.5,0.3,0.7,0.5s0.3,0.5,0.3,0.8s0,0.6-0.1,1s-0.3,0.7-0.6,1c-0.3,0.3-0.6,0.6-0.9,0.8
	c-0.3,0.2-0.7,0.4-1.1,0.5c-0.4,0.1-0.8,0.2-1.2,0.2c-0.4,0-0.8-0.1-1.1-0.2c-0.3-0.1-0.5-0.3-0.7-0.5c-0.2-0.2-0.3-0.5-0.3-0.8
	C1722.8,41,1722.8,40.7,1723,40.3z"/>
<line fill="none" stroke="#000000" stroke-width="0.459" stroke-miterlimit="10" x1="1751.2" y1="39.5" x2="1751.2" y2="23.5"/>
<path d="M1745.6,40.3c0.1-0.3,0.3-0.7,0.6-1c0.3-0.3,0.6-0.6,0.9-0.8c0.3-0.2,0.7-0.4,1.1-0.5c0.4-0.1,0.8-0.2,1.2-0.2
	c0.4,0,0.8,0.1,1.1,0.2c0.3,0.1,0.6,0.3,0.7,0.5c0.2,0.2,0.3,0.5,0.3,0.8s0,0.6-0.1,1c-0.1,0.3-0.3,0.7-0.6,1
	c-0.3,0.3-0.6,0.6-0.9,0.8c-0.3,0.2-0.7,0.4-1.1,0.5c-0.4,0.1-0.8,0.2-1.2,0.2c-0.4,0-0.8-0.1-1.1-0.2c-0.3-0.1-0.5-0.3-0.7-0.5
	c-0.2-0.2-0.3-0.5-0.3-0.8C1745.4,41,1745.4,40.7,1745.6,40.3z"/>
<line fill="none" stroke="#000000" stroke-width="0.459" stroke-miterlimit="10" x1="1773.8" y1="39.5" x2="1773.8" y2="23.5"/>
<path d="M1774.1,38.6c0.1,0.1,0.1,0.3,0.1,0.5c0,0.2,0,0.3,0,0.5c0,0.2,0,0.3-0.1,0.5c0,0.2-0.1,0.3-0.1,0.4
	c-0.2,0.5-0.4,0.9-0.8,1.3s-0.7,0.6-1,0.8c-0.6,0.3-1.4,0.4-2.2,0.4c-0.1,0-0.3,0-0.5-0.1s-0.3-0.1-0.5-0.1
	c-0.2-0.1-0.3-0.1-0.5-0.2s-0.3-0.2-0.4-0.4c-0.1-0.2-0.2-0.3-0.2-0.5s0-0.3,0-0.5s0-0.3,0.1-0.4c0-0.1,0.1-0.3,0.1-0.4
	c0.2-0.5,0.4-0.9,0.8-1.2c0.3-0.3,0.6-0.6,0.9-0.7c0.3-0.2,0.7-0.3,1.1-0.4c0.4-0.1,0.9-0.1,1.4-0.1c0.1,0,0.2,0,0.4,0
	c0.2,0,0.3,0.1,0.5,0.1c0.2,0.1,0.3,0.1,0.5,0.2C1773.9,38.3,1774.1,38.4,1774.1,38.6z M1773.7,38.9c-0.1-0.2-0.2-0.3-0.4-0.3
	c-0.1-0.1-0.3-0.1-0.5-0.1s-0.3,0.1-0.5,0.1c-0.2,0.1-0.3,0.1-0.5,0.2c-0.2,0.1-0.4,0.2-0.6,0.3s-0.4,0.2-0.5,0.3
	c-0.4,0.2-0.7,0.4-1.1,0.7c-0.1,0.1-0.3,0.2-0.4,0.3c-0.1,0.1-0.3,0.2-0.4,0.4s-0.2,0.3-0.2,0.5c0,0.2,0,0.3,0.1,0.5
	c0.1,0.2,0.2,0.3,0.4,0.3s0.3,0.1,0.5,0c0.2,0,0.3-0.1,0.5-0.1c0.2-0.1,0.3-0.1,0.5-0.2c0.2-0.1,0.4-0.2,0.6-0.3s0.4-0.2,0.6-0.3
	c0.2-0.1,0.4-0.2,0.5-0.3c0.2-0.1,0.4-0.2,0.6-0.4c0.1-0.1,0.3-0.2,0.4-0.3c0.1-0.1,0.3-0.2,0.4-0.4c0.1-0.1,0.2-0.3,0.2-0.5
	C1773.8,39.2,1773.8,39.1,1773.7,38.9z"/>
<line fill="none" stroke="#000000" stroke-width="0.459" stroke-miterlimit="10" x1="1815.6" y1="37.1" x2="1815.6" y2="21.1"/>
<path d="M1810,37.9c0.1-0.3,0.3-0.7,0.6-1c0.3-0.3,0.6-0.6,0.9-0.8c0.3-0.2,0.7-0.4,1.1-0.5c0.4-0.1,0.8-0.2,1.2-0.2
	c0.4,0,0.8,0.1,1.1,0.2s0.5,0.3,0.7,0.5c0.2,0.2,0.3,0.5,0.3,0.8s0,0.6-0.1,1c-0.1,0.3-0.3,0.7-0.6,1s-0.6,0.6-0.9,0.8
	c-0.3,0.2-0.7,0.4-1.1,0.5s-0.8,0.2-1.2,0.2c-0.4,0-0.8-0.1-1.1-0.2c-0.3-0.1-0.5-0.3-0.7-0.5s-0.3-0.5-0.3-0.8
	C1809.8,38.6,1809.8,38.3,1810,37.9z"/>
<line fill="none" stroke="#000000" stroke-width="0.459" stroke-miterlimit="10" x1="1838.2" y1="37.1" x2="1838.2" y2="21.1"/>
<path d="M1832.6,37.9c0.1-0.3,0.3-0.7,0.6-1c0.3-0.3,0.6-0.6,0.9-0.8c0.3-0.2,0.7-0.4,1.1-0.5c0.4-0.1,0.8-0.2,1.2-0.2
	c0.4,0,0.8,0.1,1.1,0.2c0.3,0.1,0.6,0.3,0.7,0.5c0.2,0.2,0.3,0.5,0.3,0.8s0,0.6-0.1,1c-0.1,0.3-0.3,0.7-0.6,1s-0.6,0.6-0.9,0.8
	c-0.3,0.2-0.7,0.4-1.1,0.5s-0.8,0.2-1.2,0.2c-0.4,0-0.8-0.1-1.1-0.2c-0.3-0.1-0.5-0.3-0.7-0.5s-0.3-0.5-0.3-0.8
	C1832.4,38.6,1832.4,38.3,1832.6,37.9z"/>
<line fill="none" stroke="#000000" stroke-width="0.459" stroke-miterlimit="10" x1="1860.8" y1="37.1" x2="1860.8" y2="21.1"/>
<path d="M1861.1,36.2c0.1,0.1,0.1,0.3,0.1,0.5c0,0.2,0,0.3,0,0.5c0,0.2,0,0.3-0.1,0.5c0,0.2-0.1,0.3-0.1,0.4
	c-0.2,0.5-0.4,0.9-0.8,1.3c-0.4,0.4-0.7,0.6-1,0.8c-0.6,0.3-1.4,0.4-2.2,0.4c-0.1,0-0.3,0-0.5-0.1c-0.2,0-0.3-0.1-0.5-0.1
	c-0.2-0.1-0.3-0.1-0.5-0.2s-0.3-0.2-0.4-0.4c-0.1-0.2-0.2-0.3-0.2-0.5s0-0.3,0-0.5s0-0.3,0.1-0.4c0-0.1,0.1-0.3,0.1-0.4
	c0.2-0.5,0.4-0.9,0.8-1.2c0.3-0.3,0.6-0.6,0.9-0.7c0.3-0.2,0.7-0.3,1.1-0.4s0.9-0.1,1.4-0.1c0.1,0,0.2,0,0.4,0
	c0.2,0,0.3,0.1,0.5,0.1s0.3,0.1,0.5,0.2S1861.1,36,1861.1,36.2z M1860.7,36.5c-0.1-0.2-0.2-0.3-0.4-0.3s-0.3-0.1-0.5-0.1
	s-0.3,0.1-0.5,0.1c-0.2,0.1-0.3,0.1-0.5,0.2c-0.2,0.1-0.4,0.2-0.6,0.3s-0.4,0.2-0.5,0.3c-0.4,0.2-0.7,0.4-1.1,0.7
	c-0.1,0.1-0.3,0.2-0.4,0.3c-0.1,0.1-0.3,0.2-0.4,0.4c-0.1,0.1-0.2,0.3-0.2,0.5c0,0.2,0,0.3,0.1,0.5c0.1,0.2,0.2,0.3,0.4,0.3
	c0.2,0.1,0.3,0.1,0.5,0s0.3-0.1,0.5-0.1c0.2-0.1,0.3-0.1,0.5-0.2c0.2-0.1,0.4-0.2,0.6-0.3s0.4-0.2,0.6-0.3c0.2-0.1,0.4-0.2,0.5-0.3
	s0.4-0.2,0.6-0.4c0.1-0.1,0.3-0.2,0.4-0.3s0.3-0.2,0.4-0.4c0.1-0.1,0.2-0.3,0.2-0.5S1860.8,36.7,1860.7,36.5z"/>
<line fill="none" stroke="#000000" stroke-width="0.459" stroke-miterlimit="10" x1="1902.6" y1="37.1" x2="1902.6" y2="21.1"/>
<path d="M1897,37.9c0.1-0.3,0.3-0.7,0.6-1c0.3-0.3,0.6-0.6,0.9-0.8c0.3-0.2,0.7-0.4,1.1-0.5c0.4-0.1,0.8-0.2,1.2-0.2
	c0.4,0,0.8,0.1,1.1,0.2s0.5,0.3,0.7,0.5c0.2,0.2,0.3,0.5,0.3,0.8s0,0.6-0.1,1c-0.1,0.3-0.3,0.7-0.6,1s-0.6,0.6-0.9,0.8
	c-0.3,0.2-0.7,0.4-1.1,0.5s-0.8,0.2-1.2,0.2c-0.4,0-0.8-0.1-1.1-0.2c-0.3-0.1-0.5-0.3-0.7-0.5s-0.3-0.5-0.3-0.8
	C1896.8,38.6,1896.8,38.3,1897,37.9z"/>
<line fill="none" stroke="#000000" stroke-width="0.459" stroke-miterlimit="10" x1="1925.2" y1="37.1" x2="1925.2" y2="21.1"/>
<path d="M1919.6,37.9c0.1-0.3,0.3-0.7,0.6-1c0.3-0.3,0.6-0.6,0.9-0.8c0.3-0.2,0.7-0.4,1.1-0.5c0.4-0.1,0.8-0.2,1.2-0.2
	c0.4,0,0.8,0.1,1.1,0.2c0.3,0.1,0.6,0.3,0.7,0.5c0.2,0.2,0.3,0.5,0.3,0.8s0,0.6-0.1,1c-0.1,0.3-0.3,0.7-0.6,1s-0.6,0.6-0.9,0.8
	c-0.3,0.2-0.7,0.4-1.1,0.5s-0.8,0.2-1.2,0.2c-0.4,0-0.8-0.1-1.1-0.2c-0.3-0.1-0.5-0.3-0.7-0.5s-0.3-0.5-0.3-0.8
	C1919.4,38.6,1919.4,38.3,1919.6,37.9z"/>
<line fill="none" stroke="#000000" stroke-width="0.459" stroke-miterlimit="10" x1="1947.8" y1="37.1" x2="1947.8" y2="21.1"/>
<path d="M1948.1,36.2c0.1,0.1,0.1,0.3,0.1,0.5c0,0.2,0,0.3,0,0.5c0,0.2,0,0.3-0.1,0.5c0,0.2-0.1,0.3-0.1,0.4
	c-0.2,0.5-0.4,0.9-0.8,1.3c-0.4,0.4-0.7,0.6-1,0.8c-0.6,0.3-1.4,0.4-2.2,0.4c-0.1,0-0.3,0-0.5-0.1c-0.2,0-0.3-0.1-0.5-0.1
	c-0.2-0.1-0.3-0.1-0.5-0.2s-0.3-0.2-0.4-0.4c-0.1-0.2-0.2-0.3-0.2-0.5s0-0.3,0-0.5s0-0.3,0.1-0.4c0-0.1,0.1-0.3,0.1-0.4
	c0.2-0.5,0.4-0.9,0.8-1.2c0.3-0.3,0.6-0.6,0.9-0.7c0.3-0.2,0.7-0.3,1.1-0.4s0.9-0.1,1.4-0.1c0.1,0,0.2,0,0.4,0
	c0.2,0,0.3,0.1,0.5,0.1s0.3,0.1,0.5,0.2S1948.1,36,1948.1,36.2z M1947.7,36.5c-0.1-0.2-0.2-0.3-0.4-0.3s-0.3-0.1-0.5-0.1
	s-0.3,0.1-0.5,0.1c-0.2,0.1-0.3,0.1-0.5,0.2c-0.2,0.1-0.4,0.2-0.6,0.3s-0.4,0.2-0.5,0.3c-0.4,0.2-0.7,0.4-1.1,0.7
	c-0.1,0.1-0.3,0.2-0.4,0.3c-0.1,0.1-0.3,0.2-0.4,0.4c-0.1,0.1-0.2,0.3-0.2,0.5c0,0.2,0,0.3,0.1,0.5c0.1,0.2,0.2,0.3,0.4,0.3
	c0.2,0.1,0.3,0.1,0.5,0s0.3-0.1,0.5-0.1c0.2-0.1,0.3-0.1,0.5-0.2c0.2-0.1,0.4-0.2,0.6-0.3s0.4-0.2,0.6-0.3c0.2-0.1,0.4-0.2,0.5-0.3
	s0.4-0.2,0.6-0.4c0.1-0.1,0.3-0.2,0.4-0.3s0.3-0.2,0.4-0.4c0.1-0.1,0.2-0.3,0.2-0.5S1947.8,36.7,1947.7,36.5z"/>
<line fill="none" stroke="#000000" stroke-width="0.459" stroke-miterlimit="10" x1="1989.6" y1="39.5" x2="1989.6" y2="23.5"/>
<path d="M1989.9,38.6c0.1,0.1,0.1,0.3,0.1,0.5c0,0.2,0,0.3,0,0.5c0,0.2,0,0.3-0.1,0.5c0,0.2-0.1,0.3-0.1,0.4
	c-0.2,0.5-0.4,0.9-0.8,1.3s-0.7,0.6-1,0.8c-0.6,0.3-1.4,0.4-2.2,0.4c-0.1,0-0.3,0-0.5-0.1s-0.3-0.1-0.5-0.1
	c-0.2-0.1-0.3-0.1-0.5-0.2s-0.3-0.2-0.4-0.4c-0.1-0.2-0.2-0.3-0.2-0.5s0-0.3,0-0.5s0-0.3,0.1-0.4c0-0.1,0.1-0.3,0.1-0.4
	c0.2-0.5,0.4-0.9,0.8-1.2c0.3-0.3,0.6-0.6,0.9-0.7c0.3-0.2,0.7-0.3,1.1-0.4c0.4-0.1,0.9-0.1,1.4-0.1c0.1,0,0.2,0,0.4,0
	c0.2,0,0.3,0.1,0.5,0.1c0.2,0.1,0.3,0.1,0.5,0.2C1989.7,38.3,1989.9,38.4,1989.9,38.6z M1989.5,38.9c-0.1-0.2-0.2-0.3-0.4-0.3
	c-0.1-0.1-0.3-0.1-0.5-0.1s-0.3,0.1-0.5,0.1c-0.2,0.1-0.3,0.1-0.5,0.2c-0.2,0.1-0.4,0.2-0.6,0.3s-0.4,0.2-0.5,0.3
	c-0.4,0.2-0.7,0.4-1.1,0.7c-0.1,0.1-0.3,0.2-0.4,0.3c-0.1,0.1-0.3,0.2-0.4,0.4s-0.2,0.3-0.2,0.5c0,0.2,0,0.3,0.1,0.5
	c0.1,0.2,0.2,0.3,0.4,0.3s0.3,0.1,0.5,0c0.2,0,0.3-0.1,0.5-0.1c0.2-0.1,0.3-0.1,0.5-0.2c0.2-0.1,0.4-0.2,0.6-0.3s0.4-0.2,0.6-0.3
	s0.4-0.2,0.5-0.3c0.2-0.1,0.4-0.2,0.6-0.4c0.1-0.1,0.3-0.2,0.4-0.3c0.1-0.1,0.3-0.2,0.4-0.4c0.1-0.1,0.2-0.3,0.2-0.5
	C1989.6,39.2,1989.6,39.1,1989.5,38.9z"/>
<line fill="none" stroke="#000000" stroke-width="0.459" stroke-miterlimit="10" x1="2030.4" y1="39.5" x2="2030.4" y2="23.5"/>
<path d="M2030.7,38.6c0.1,0.1,0.1,0.3,0.1,0.5c0,0.2,0,0.3,0,0.5c0,0.2,0,0.3-0.1,0.5c0,0.2-0.1,0.3-0.1,0.4
	c-0.2,0.5-0.4,0.9-0.8,1.3s-0.7,0.6-1,0.8c-0.6,0.3-1.4,0.4-2.2,0.4c-0.1,0-0.3,0-0.5-0.1s-0.3-0.1-0.5-0.1
	c-0.2-0.1-0.3-0.1-0.5-0.2s-0.3-0.2-0.4-0.4c-0.1-0.2-0.2-0.3-0.2-0.5c0-0.2,0-0.3,0-0.5c0-0.2,0-0.3,0.1-0.4c0-0.1,0.1-0.3,0.1-0.4
	c0.2-0.5,0.4-0.9,0.8-1.2s0.6-0.6,0.9-0.7c0.3-0.2,0.7-0.3,1.1-0.4c0.4-0.1,0.9-0.1,1.5-0.1c0.1,0,0.2,0,0.4,0
	c0.2,0,0.3,0.1,0.5,0.1c0.2,0.1,0.3,0.1,0.5,0.2C2030.5,38.3,2030.7,38.4,2030.7,38.6z M2030.3,38.9c-0.1-0.2-0.2-0.3-0.4-0.3
	c-0.1-0.1-0.3-0.1-0.5-0.1s-0.3,0.1-0.5,0.1c-0.2,0.1-0.3,0.1-0.5,0.2c-0.2,0.1-0.4,0.2-0.6,0.3c-0.2,0.1-0.4,0.2-0.5,0.3
	c-0.4,0.2-0.7,0.4-1.1,0.7c-0.1,0.1-0.3,0.2-0.4,0.3c-0.1,0.1-0.3,0.2-0.4,0.4c-0.1,0.1-0.2,0.3-0.2,0.5s0,0.3,0.1,0.5
	c0.1,0.2,0.2,0.3,0.4,0.3s0.3,0.1,0.5,0c0.2,0,0.3-0.1,0.5-0.1c0.2-0.1,0.3-0.1,0.5-0.2c0.2-0.1,0.4-0.2,0.6-0.3
	c0.2-0.1,0.4-0.2,0.6-0.3c0.2-0.1,0.4-0.2,0.5-0.3c0.2-0.1,0.4-0.2,0.6-0.4c0.1-0.1,0.3-0.2,0.4-0.3c0.1-0.1,0.3-0.2,0.4-0.4
	c0.1-0.1,0.2-0.3,0.2-0.5C2030.4,39.2,2030.4,39.1,2030.3,38.9z"/>
<line fill="none" stroke="#000000" stroke-width="0.459" stroke-miterlimit="10" x1="2076.6" y1="39.5" x2="2076.6" y2="23.5"/>
<path d="M2076.9,38.6c0.1,0.1,0.1,0.3,0.1,0.5c0,0.2,0,0.3,0,0.5c0,0.2,0,0.3-0.1,0.5c0,0.2-0.1,0.3-0.1,0.4
	c-0.2,0.5-0.4,0.9-0.8,1.3s-0.7,0.6-1,0.8c-0.6,0.3-1.4,0.4-2.2,0.4c-0.1,0-0.3,0-0.5-0.1s-0.3-0.1-0.5-0.1
	c-0.2-0.1-0.3-0.1-0.5-0.2s-0.3-0.2-0.4-0.4c-0.1-0.2-0.2-0.3-0.2-0.5s0-0.3,0-0.5s0-0.3,0.1-0.4c0-0.1,0.1-0.3,0.1-0.4
	c0.2-0.5,0.4-0.9,0.8-1.2s0.6-0.6,0.9-0.7c0.3-0.2,0.7-0.3,1.1-0.4c0.4-0.1,0.9-0.1,1.4-0.1c0.1,0,0.2,0,0.4,0
	c0.2,0,0.3,0.1,0.5,0.1c0.2,0.1,0.3,0.1,0.5,0.2C2076.7,38.3,2076.9,38.4,2076.9,38.6z M2076.5,38.9c-0.1-0.2-0.2-0.3-0.4-0.3
	c-0.1-0.1-0.3-0.1-0.5-0.1s-0.3,0.1-0.5,0.1c-0.2,0.1-0.3,0.1-0.5,0.2c-0.2,0.1-0.4,0.2-0.6,0.3s-0.4,0.2-0.5,0.3
	c-0.4,0.2-0.7,0.4-1.1,0.7c-0.1,0.1-0.3,0.2-0.4,0.3c-0.1,0.1-0.3,0.2-0.4,0.4s-0.2,0.3-0.2,0.5c0,0.2,0,0.3,0.1,0.5
	c0.1,0.2,0.2,0.3,0.4,0.3s0.3,0.1,0.5,0c0.2,0,0.3-0.1,0.5-0.1c0.2-0.1,0.3-0.1,0.5-0.2c0.2-0.1,0.4-0.2,0.6-0.3s0.4-0.2,0.6-0.3
	s0.4-0.2,0.5-0.3c0.2-0.1,0.4-0.2,0.6-0.4c0.1-0.1,0.3-0.2,0.4-0.3c0.1-0.1,0.3-0.2,0.4-0.4c0.1-0.1,0.2-0.3,0.2-0.5
	C2076.6,39.2,2076.6,39.1,2076.5,38.9z"/>
<g>
	<path d="M2113.2,39c-0.7-0.5-1.7-1.6-1.7-3.5c0-1.7,0.9-3.1,1.7-3.5l0.1,0.1c-1.1,1.1-1.1,2.2-1.1,3.4c0,1.1,0.1,2.3,1.1,3.4
		L2113.2,39z M2114.5,33.3c0,0.1,0,1,0,1c0.5-0.5,0.9-0.6,1.3-0.6c0.7,0,1,0.6,1,1.2c0,0.3-0.1,0.6-0.2,0.9
		c-0.1,0.3-0.3,0.5-0.5,0.7c-0.2,0.3-2.2,1.5-2.2,1.5v-8.4h0.5C2114.5,29.6,2114.5,31.4,2114.5,33.3z M2114.7,34.8
		c-0.2,0.3-0.2,0.8-0.2,1.3v1.2c0,0,0.5-0.4,0.7-0.7c0.2-0.2,0.4-0.5,0.5-0.9c0.1-0.4,0.1-0.8-0.2-1.1
		C2115.4,34.4,2114.9,34.2,2114.7,34.8z M2117.5,33.2c0,0.1,0,1,0,1c0.5-0.5,0.9-0.6,1.3-0.6c0.7,0,1,0.6,1,1.2
		c0,0.3-0.1,0.6-0.2,0.8c-0.1,0.3-0.3,0.5-0.5,0.8c-0.2,0.2-2.1,1.5-2.1,1.5v-8.4h0.5C2117.5,29.6,2117.5,31.4,2117.5,33.2z
		 M2117.7,34.8c-0.2,0.3-0.2,0.8-0.2,1.3v1.2c0,0,0.5-0.4,0.8-0.7c0.2-0.2,0.4-0.5,0.5-0.9c0.1-0.4,0.1-0.8-0.2-1.1
		C2118.4,34.4,2118,34.2,2117.7,34.8z M2119.8,39l-0.1-0.1c1.1-1.1,1.1-2.3,1.1-3.4c0-1.2-0.1-2.3-1.1-3.4l0.1-0.1
		c0.7,0.4,1.7,1.8,1.7,3.5C2121.4,37.4,2120.5,38.5,2119.8,39z"/>
</g>
<line fill="none" stroke="#000000" stroke-width="0.459" stroke-miterlimit="10" x1="2111" y1="35.5" x2="2118.2" y2="35.5"/>
<line fill="none" stroke="#000000" stroke-width="0.459" stroke-miterlimit="10" x1="2163.6" y1="39.5" x2="2163.6" y2="23.5"/>
<path d="M2158,40.3c0.1-0.3,0.3-0.7,0.6-1c0.3-0.3,0.6-0.6,0.9-0.8c0.3-0.2,0.7-0.4,1.1-0.5c0.4-0.1,0.8-0.2,1.2-0.2
	s0.8,0.1,1.1,0.2c0.3,0.1,0.5,0.3,0.7,0.5s0.3,0.5,0.3,0.8s0,0.6-0.1,1s-0.3,0.7-0.6,1c-0.3,0.3-0.6,0.6-0.9,0.8
	c-0.3,0.2-0.7,0.4-1.1,0.5c-0.4,0.1-0.8,0.2-1.2,0.2c-0.4,0-0.8-0.1-1.1-0.2c-0.3-0.1-0.5-0.3-0.7-0.5c-0.2-0.2-0.3-0.5-0.3-0.8
	C2157.8,41,2157.8,40.7,2158,40.3z"/>
<line fill="none" stroke="#000000" stroke-width="0.459" stroke-miterlimit="10" x1="2186.2" y1="39.5" x2="2186.2" y2="23.5"/>
<path d="M2180.6,40.3c0.1-0.3,0.3-0.7,0.6-1c0.3-0.3,0.6-0.6,0.9-0.8c0.3-0.2,0.7-0.4,1.1-0.5c0.4-0.1,0.8-0.2,1.2-0.2
	c0.4,0,0.8,0.1,1.1,0.2c0.3,0.1,0.5,0.3,0.7,0.5s0.3,0.5,0.3,0.8s0,0.6-0.1,1c-0.1,0.3-0.3,0.7-0.6,1c-0.3,0.3-0.6,0.6-0.9,0.8
	c-0.3,0.2-0.7,0.4-1.1,0.5c-0.4,0.1-0.8,0.2-1.2,0.2c-0.4,0-0.8-0.1-1.1-0.2c-0.3-0.1-0.5-0.3-0.7-0.5c-0.2-0.2-0.3-0.5-0.3-0.8
	C2180.4,41,2180.4,40.7,2180.6,40.3z"/>
<line fill="none" stroke="#000000" stroke-width="0.459" stroke-miterlimit="10" x1="2208.8" y1="39.5" x2="2208.8" y2="23.5"/>
<path d="M2209.1,38.6c0.1,0.1,0.1,0.3,0.1,0.5c0,0.2,0,0.3,0,0.5c0,0.2,0,0.3-0.1,0.5c0,0.2-0.1,0.3-0.1,0.4
	c-0.2,0.5-0.4,0.9-0.8,1.3s-0.7,0.6-1,0.8c-0.6,0.3-1.4,0.4-2.2,0.4c-0.1,0-0.3,0-0.5-0.1s-0.3-0.1-0.5-0.1
	c-0.2-0.1-0.3-0.1-0.5-0.2s-0.3-0.2-0.4-0.4c-0.1-0.2-0.2-0.3-0.2-0.5s0-0.3,0-0.5s0-0.3,0.1-0.4c0-0.1,0.1-0.3,0.1-0.4
	c0.2-0.5,0.4-0.9,0.8-1.2c0.3-0.3,0.6-0.6,0.9-0.7c0.3-0.2,0.7-0.3,1.1-0.4c0.4-0.1,0.9-0.1,1.4-0.1c0.1,0,0.2,0,0.4,0
	c0.2,0,0.3,0.1,0.5,0.1c0.2,0.1,0.3,0.1,0.5,0.2C2208.9,38.3,2209.1,38.4,2209.1,38.6z M2208.7,38.9c-0.1-0.2-0.2-0.3-0.4-0.3
	c-0.1-0.1-0.3-0.1-0.5-0.1s-0.3,0.1-0.5,0.1c-0.2,0.1-0.3,0.1-0.5,0.2c-0.2,0.1-0.4,0.2-0.6,0.3s-0.4,0.2-0.5,0.3
	c-0.4,0.2-0.7,0.4-1.1,0.7c-0.1,0.1-0.3,0.2-0.4,0.3c-0.1,0.1-0.3,0.2-0.4,0.4s-0.2,0.3-0.2,0.5c0,0.2,0,0.3,0.1,0.5
	c0.1,0.2,0.2,0.3,0.4,0.3s0.3,0.1,0.5,0c0.2,0,0.3-0.1,0.5-0.1c0.2-0.1,0.3-0.1,0.5-0.2c0.2-0.1,0.4-0.2,0.6-0.3s0.4-0.2,0.6-0.3
	c0.2-0.1,0.4-0.2,0.5-0.3c0.2-0.1,0.4-0.2,0.6-0.4c0.1-0.1,0.3-0.2,0.4-0.3c0.1-0.1,0.3-0.2,0.4-0.4c0.1-0.1,0.2-0.3,0.2-0.5
	C2208.8,39.2,2208.8,39.1,2208.7,38.9z"/>
<line fill="none" stroke="#000000" stroke-width="0.459" stroke-miterlimit="10" x1="2250.6" y1="37.1" x2="2250.6" y2="21.1"/>
<path d="M2245,37.9c0.1-0.3,0.3-0.7,0.6-1c0.3-0.3,0.6-0.6,0.9-0.8c0.3-0.2,0.7-0.4,1.1-0.5c0.4-0.1,0.8-0.2,1.2-0.2
	s0.8,0.1,1.1,0.2s0.5,0.3,0.7,0.5c0.2,0.2,0.3,0.5,0.3,0.8s0,0.6-0.1,1c-0.1,0.3-0.3,0.7-0.6,1s-0.6,0.6-0.9,0.8
	c-0.3,0.2-0.7,0.4-1.1,0.5s-0.8,0.2-1.2,0.2c-0.4,0-0.8-0.1-1.1-0.2c-0.3-0.1-0.5-0.3-0.7-0.5s-0.3-0.5-0.3-0.8
	C2244.8,38.6,2244.8,38.3,2245,37.9z"/>
<line fill="none" stroke="#000000" stroke-width="0.459" stroke-miterlimit="10" x1="2273.2" y1="37.1" x2="2273.2" y2="21.1"/>
<path d="M2267.6,37.9c0.1-0.3,0.3-0.7,0.6-1c0.3-0.3,0.6-0.6,0.9-0.8c0.3-0.2,0.7-0.4,1.1-0.5c0.4-0.1,0.8-0.2,1.2-0.2
	c0.4,0,0.8,0.1,1.1,0.2c0.3,0.1,0.5,0.3,0.7,0.5c0.2,0.2,0.3,0.5,0.3,0.8s0,0.6-0.1,1c-0.1,0.3-0.3,0.7-0.6,1s-0.6,0.6-0.9,0.8
	c-0.3,0.2-0.7,0.4-1.1,0.5s-0.8,0.2-1.2,0.2c-0.4,0-0.8-0.1-1.1-0.2c-0.3-0.1-0.5-0.3-0.7-0.5s-0.3-0.5-0.3-0.8
	C2267.4,38.6,2267.4,38.3,2267.6,37.9z"/>
<line fill="none" stroke="#000000" stroke-width="0.459" stroke-miterlimit="10" x1="2295.8" y1="37.1" x2="2295.8" y2="21.1"/>
<path d="M2296.1,36.2c0.1,0.1,0.1,0.3,0.1,0.5c0,0.2,0,0.3,0,0.5c0,0.2,0,0.3-0.1,0.5c0,0.2-0.1,0.3-0.1,0.4
	c-0.2,0.5-0.4,0.9-0.8,1.3c-0.4,0.4-0.7,0.6-1,0.8c-0.6,0.3-1.4,0.4-2.2,0.4c-0.1,0-0.3,0-0.5-0.1c-0.2,0-0.3-0.1-0.5-0.1
	c-0.2-0.1-0.3-0.1-0.5-0.2s-0.3-0.2-0.4-0.4c-0.1-0.2-0.2-0.3-0.2-0.5s0-0.3,0-0.5s0-0.3,0.1-0.4c0-0.1,0.1-0.3,0.1-0.4
	c0.2-0.5,0.4-0.9,0.8-1.2c0.3-0.3,0.6-0.6,0.9-0.7c0.3-0.2,0.7-0.3,1.1-0.4s0.9-0.1,1.4-0.1c0.1,0,0.2,0,0.4,0
	c0.2,0,0.3,0.1,0.5,0.1s0.3,0.1,0.5,0.2S2296.1,36,2296.1,36.2z M2295.7,36.5c-0.1-0.2-0.2-0.3-0.4-0.3s-0.3-0.1-0.5-0.1
	s-0.3,0.1-0.5,0.1c-0.2,0.1-0.3,0.1-0.5,0.2c-0.2,0.1-0.4,0.2-0.6,0.3s-0.4,0.2-0.5,0.3c-0.4,0.2-0.7,0.4-1.1,0.7
	c-0.1,0.1-0.3,0.2-0.4,0.3c-0.1,0.1-0.3,0.2-0.4,0.4c-0.1,0.1-0.2,0.3-0.2,0.5c0,0.2,0,0.3,0.1,0.5c0.1,0.2,0.2,0.3,0.4,0.3
	c0.2,0.1,0.3,0.1,0.5,0s0.3-0.1,0.5-0.1c0.2-0.1,0.3-0.1,0.5-0.2c0.2-0.1,0.4-0.2,0.6-0.3s0.4-0.2,0.6-0.3c0.2-0.1,0.4-0.2,0.5-0.3
	c0.2-0.1,0.4-0.2,0.6-0.4c0.1-0.1,0.3-0.2,0.4-0.3s0.3-0.2,0.4-0.4c0.1-0.1,0.2-0.3,0.2-0.5S2295.8,36.7,2295.7,36.5z"/>
<line fill="none" stroke="#000000" stroke-width="0.459" stroke-miterlimit="10" x1="2337.6" y1="39.5" x2="2337.6" y2="23.5"/>
<path d="M2332,40.3c0.1-0.3,0.3-0.7,0.6-1c0.3-0.3,0.6-0.6,0.9-0.8c0.3-0.2,0.7-0.4,1.1-0.5c0.4-0.1,0.8-0.2,1.2-0.2
	c0.4,0,0.8,0.1,1.1,0.2c0.3,0.1,0.5,0.3,0.7,0.5s0.3,0.5,0.3,0.8s0,0.6-0.1,1s-0.3,0.7-0.6,1c-0.3,0.3-0.6,0.6-0.9,0.8
	c-0.3,0.2-0.7,0.4-1.1,0.5c-0.4,0.1-0.8,0.2-1.2,0.2c-0.4,0-0.8-0.1-1.1-0.2c-0.3-0.1-0.5-0.3-0.7-0.5c-0.2-0.2-0.3-0.5-0.3-0.8
	C2331.8,41,2331.8,40.7,2332,40.3z"/>
<line fill="none" stroke="#000000" stroke-width="0.459" stroke-miterlimit="10" x1="2360.2" y1="39.5" x2="2360.2" y2="23.5"/>
<path d="M2354.6,40.3c0.1-0.3,0.3-0.7,0.6-1c0.3-0.3,0.6-0.6,0.9-0.8c0.3-0.2,0.7-0.4,1.1-0.5c0.4-0.1,0.8-0.2,1.2-0.2
	c0.4,0,0.8,0.1,1.1,0.2c0.3,0.1,0.5,0.3,0.7,0.5s0.3,0.5,0.3,0.8s0,0.6-0.1,1c-0.1,0.3-0.3,0.7-0.6,1c-0.3,0.3-0.6,0.6-0.9,0.8
	c-0.3,0.2-0.7,0.4-1.1,0.5c-0.4,0.1-0.8,0.2-1.2,0.2c-0.4,0-0.8-0.1-1.1-0.2c-0.3-0.1-0.5-0.3-0.7-0.5c-0.2-0.2-0.3-0.5-0.3-0.8
	C2354.4,41,2354.4,40.7,2354.6,40.3z"/>
<line fill="none" stroke="#000000" stroke-width="0.459" stroke-miterlimit="10" x1="2382.8" y1="39.5" x2="2382.8" y2="23.5"/>
<path d="M2383.1,38.6c0.1,0.1,0.1,0.3,0.1,0.5s0,0.3,0,0.5s0,0.3-0.1,0.5c0,0.2-0.1,0.3-0.1,0.4c-0.2,0.5-0.4,0.9-0.8,1.3
	s-0.7,0.6-1,0.8c-0.6,0.3-1.4,0.4-2.2,0.4c-0.1,0-0.3,0-0.5-0.1s-0.3-0.1-0.5-0.1c-0.2-0.1-0.3-0.1-0.5-0.2s-0.3-0.2-0.4-0.4
	c-0.1-0.2-0.2-0.3-0.2-0.5s0-0.3,0-0.5s0-0.3,0.1-0.4c0-0.1,0.1-0.3,0.1-0.4c0.2-0.5,0.4-0.9,0.8-1.2c0.3-0.3,0.6-0.6,0.9-0.7
	c0.3-0.2,0.7-0.3,1.1-0.4c0.4-0.1,0.9-0.1,1.4-0.1c0.1,0,0.2,0,0.4,0c0.2,0,0.3,0.1,0.5,0.1c0.2,0.1,0.3,0.1,0.5,0.2
	C2382.9,38.3,2383.1,38.4,2383.1,38.6z M2382.7,38.9c-0.1-0.2-0.2-0.3-0.4-0.3c-0.1-0.1-0.3-0.1-0.5-0.1c-0.2,0-0.3,0.1-0.5,0.1
	c-0.2,0.1-0.3,0.1-0.5,0.2c-0.2,0.1-0.4,0.2-0.6,0.3s-0.4,0.2-0.5,0.3c-0.4,0.2-0.7,0.4-1.1,0.7c-0.1,0.1-0.3,0.2-0.4,0.3
	c-0.1,0.1-0.3,0.2-0.4,0.4s-0.2,0.3-0.2,0.5c0,0.2,0,0.3,0.1,0.5c0.1,0.2,0.2,0.3,0.4,0.3s0.3,0.1,0.5,0c0.2,0,0.3-0.1,0.5-0.1
	c0.2-0.1,0.3-0.1,0.5-0.2c0.2-0.1,0.4-0.2,0.6-0.3s0.4-0.2,0.6-0.3c0.2-0.1,0.4-0.2,0.5-0.3c0.2-0.1,0.4-0.2,0.6-0.4
	c0.1-0.1,0.3-0.2,0.4-0.3c0.1-0.1,0.3-0.2,0.4-0.4c0.1-0.1,0.2-0.3,0.2-0.5C2382.8,39.2,2382.8,39.1,2382.7,38.9z"/>
<line fill="none" stroke="#000000" stroke-width="0.459" stroke-miterlimit="10" x1="2424.6" y1="39.5" x2="2424.6" y2="23.5"/>
<path d="M2419,40.3c0.1-0.3,0.3-0.7,0.6-1c0.3-0.3,0.6-0.6,0.9-0.8c0.3-0.2,0.7-0.4,1.1-0.5c0.4-0.1,0.8-0.2,1.2-0.2
	c0.4,0,0.8,0.1,1.1,0.2c0.3,0.1,0.5,0.3,0.7,0.5s0.3,0.5,0.3,0.8s0,0.6-0.1,1s-0.3,0.7-0.6,1c-0.3,0.3-0.6,0.6-0.9,0.8
	c-0.3,0.2-0.7,0.4-1.1,0.5c-0.4,0.1-0.8,0.2-1.2,0.2c-0.4,0-0.8-0.1-1.1-0.2c-0.3-0.1-0.5-0.3-0.7-0.5c-0.2-0.2-0.3-0.5-0.3-0.8
	C2418.8,41,2418.8,40.7,2419,40.3z"/>
<line fill="none" stroke="#000000" stroke-width="0.459" stroke-miterlimit="10" x1="2447.2" y1="39.5" x2="2447.2" y2="23.5"/>
<path d="M2441.6,40.3c0.1-0.3,0.3-0.7,0.6-1c0.3-0.3,0.6-0.6,0.9-0.8c0.3-0.2,0.7-0.4,1.1-0.5c0.4-0.1,0.8-0.2,1.2-0.2
	c0.4,0,0.8,0.1,1.1,0.2c0.3,0.1,0.5,0.3,0.7,0.5s0.3,0.5,0.3,0.8s0,0.6-0.1,1c-0.1,0.3-0.3,0.7-0.6,1c-0.3,0.3-0.6,0.6-0.9,0.8
	c-0.3,0.2-0.7,0.4-1.1,0.5c-0.4,0.1-0.8,0.2-1.2,0.2c-0.4,0-0.8-0.1-1.1-0.2c-0.3-0.1-0.5-0.3-0.7-0.5c-0.2-0.2-0.3-0.5-0.3-0.8
	C2441.4,41,2441.4,40.7,2441.6,40.3z"/>
<line fill="none" stroke="#000000" stroke-width="0.459" stroke-miterlimit="10" x1="2469.8" y1="39.5" x2="2469.8" y2="23.5"/>
<path d="M2470.1,38.6c0.1,0.1,0.1,0.3,0.1,0.5s0,0.3,0,0.5s0,0.3-0.1,0.5c0,0.2-0.1,0.3-0.1,0.4c-0.2,0.5-0.4,0.9-0.8,1.3
	s-0.7,0.6-1,0.8c-0.6,0.3-1.4,0.4-2.2,0.4c-0.1,0-0.3,0-0.5-0.1s-0.3-0.1-0.5-0.1c-0.2-0.1-0.3-0.1-0.5-0.2s-0.3-0.2-0.4-0.4
	c-0.1-0.2-0.2-0.3-0.2-0.5s0-0.3,0-0.5s0-0.3,0.1-0.4c0-0.1,0.1-0.3,0.1-0.4c0.2-0.5,0.4-0.9,0.8-1.2c0.3-0.3,0.6-0.6,0.9-0.7
	c0.3-0.2,0.7-0.3,1.1-0.4c0.4-0.1,0.9-0.1,1.4-0.1c0.1,0,0.2,0,0.4,0c0.2,0,0.3,0.1,0.5,0.1c0.2,0.1,0.3,0.1,0.5,0.2
	C2469.9,38.3,2470.1,38.4,2470.1,38.6z M2469.7,38.9c-0.1-0.2-0.2-0.3-0.4-0.3c-0.1-0.1-0.3-0.1-0.5-0.1c-0.2,0-0.3,0.1-0.5,0.1
	c-0.2,0.1-0.3,0.1-0.5,0.2c-0.2,0.1-0.4,0.2-0.6,0.3s-0.4,0.2-0.5,0.3c-0.4,0.2-0.7,0.4-1.1,0.7c-0.1,0.1-0.3,0.2-0.4,0.3
	c-0.1,0.1-0.3,0.2-0.4,0.4s-0.2,0.3-0.2,0.5c0,0.2,0,0.3,0.1,0.5c0.1,0.2,0.2,0.3,0.4,0.3s0.3,0.1,0.5,0c0.2,0,0.3-0.1,0.5-0.1
	c0.2-0.1,0.3-0.1,0.5-0.2c0.2-0.1,0.4-0.2,0.6-0.3s0.4-0.2,0.6-0.3c0.2-0.1,0.4-0.2,0.5-0.3c0.2-0.1,0.4-0.2,0.6-0.4
	c0.1-0.1,0.3-0.2,0.4-0.3c0.1-0.1,0.3-0.2,0.4-0.4c0.1-0.1,0.2-0.3,0.2-0.5C2469.8,39.2,2469.8,39.1,2469.7,38.9z"/>
<line fill="none" stroke="#000000" stroke-width="0.459" stroke-miterlimit="10" x1="2511.6" y1="37.1" x2="2511.6" y2="21.1"/>
<path d="M2506,37.9c0.1-0.3,0.3-0.7,0.6-1c0.3-0.3,0.6-0.6,0.9-0.8c0.3-0.2,0.7-0.4,1.1-0.5c0.4-0.1,0.8-0.2,1.2-0.2
	c0.4,0,0.8,0.1,1.1,0.2s0.5,0.3,0.7,0.5c0.2,0.2,0.3,0.5,0.3,0.8s0,0.6-0.1,1c-0.1,0.3-0.3,0.7-0.6,1s-0.6,0.6-0.9,0.8
	c-0.3,0.2-0.7,0.4-1.1,0.5s-0.8,0.2-1.2,0.2c-0.4,0-0.8-0.1-1.1-0.2c-0.3-0.1-0.5-0.3-0.7-0.5s-0.3-0.5-0.3-0.8
	C2505.8,38.6,2505.8,38.3,2506,37.9z"/>
<line fill="none" stroke="#000000" stroke-width="0.459" stroke-miterlimit="10" x1="2534.2" y1="37.1" x2="2534.2" y2="21.1"/>
<path d="M2528.6,37.9c0.1-0.3,0.3-0.7,0.6-1c0.3-0.3,0.6-0.6,0.9-0.8c0.3-0.2,0.7-0.4,1.1-0.5c0.4-0.1,0.8-0.2,1.2-0.2
	c0.4,0,0.8,0.1,1.1,0.2c0.3,0.1,0.5,0.3,0.7,0.5c0.2,0.2,0.3,0.5,0.3,0.8s0,0.6-0.1,1c-0.1,0.3-0.3,0.7-0.6,1s-0.6,0.6-0.9,0.8
	c-0.3,0.2-0.7,0.4-1.1,0.5s-0.8,0.2-1.2,0.2c-0.4,0-0.8-0.1-1.1-0.2c-0.3-0.1-0.5-0.3-0.7-0.5s-0.3-0.5-0.3-0.8
	C2528.4,38.6,2528.4,38.3,2528.6,37.9z"/>
<line fill="none" stroke="#000000" stroke-width="0.459" stroke-miterlimit="10" x1="2556.8" y1="37.1" x2="2556.8" y2="21.1"/>
<path d="M2557.1,36.2c0.1,0.1,0.1,0.3,0.1,0.5s0,0.3,0,0.5s0,0.3-0.1,0.5c0,0.2-0.1,0.3-0.1,0.4c-0.2,0.5-0.4,0.9-0.8,1.3
	c-0.4,0.4-0.7,0.6-1,0.8c-0.6,0.3-1.4,0.4-2.2,0.4c-0.1,0-0.3,0-0.5-0.1c-0.2,0-0.3-0.1-0.5-0.1c-0.2-0.1-0.3-0.1-0.5-0.2
	s-0.3-0.2-0.4-0.4c-0.1-0.2-0.2-0.3-0.2-0.5s0-0.3,0-0.5s0-0.3,0.1-0.4c0-0.1,0.1-0.3,0.1-0.4c0.2-0.5,0.4-0.9,0.8-1.2
	c0.3-0.3,0.6-0.6,0.9-0.7c0.3-0.2,0.7-0.3,1.1-0.4s0.9-0.1,1.4-0.1c0.1,0,0.2,0,0.4,0c0.2,0,0.3,0.1,0.5,0.1s0.3,0.1,0.5,0.2
	S2557.1,36,2557.1,36.2z M2556.7,36.5c-0.1-0.2-0.2-0.3-0.4-0.3s-0.3-0.1-0.5-0.1c-0.2,0-0.3,0.1-0.5,0.1c-0.2,0.1-0.3,0.1-0.5,0.2
	c-0.2,0.1-0.4,0.2-0.6,0.3s-0.4,0.2-0.5,0.3c-0.4,0.2-0.7,0.4-1.1,0.7c-0.1,0.1-0.3,0.2-0.4,0.3c-0.1,0.1-0.3,0.2-0.4,0.4
	c-0.1,0.1-0.2,0.3-0.2,0.5c0,0.2,0,0.3,0.1,0.5c0.1,0.2,0.2,0.3,0.4,0.3c0.2,0.1,0.3,0.1,0.5,0s0.3-0.1,0.5-0.1
	c0.2-0.1,0.3-0.1,0.5-0.2c0.2-0.1,0.4-0.2,0.6-0.3s0.4-0.2,0.6-0.3c0.2-0.1,0.4-0.2,0.5-0.3c0.2-0.1,0.4-0.2,0.6-0.4
	c0.1-0.1,0.3-0.2,0.4-0.3s0.3-0.2,0.4-0.4c0.1-0.1,0.2-0.3,0.2-0.5S2556.8,36.7,2556.7,36.5z"/>
<line fill="none" stroke="#000000" stroke-width="0.459" stroke-miterlimit="10" x1="2598.6" y1="37.1" x2="2598.6" y2="21.1"/>
<path d="M2593,37.9c0.1-0.3,0.3-0.7,0.6-1c0.3-0.3,0.6-0.6,0.9-0.8c0.3-0.2,0.7-0.4,1.1-0.5c0.4-0.1,0.8-0.2,1.2-0.2
	c0.4,0,0.8,0.1,1.1,0.2s0.5,0.3,0.7,0.5c0.2,0.2,0.3,0.5,0.3,0.8s0,0.6-0.1,1c-0.1,0.3-0.3,0.7-0.6,1s-0.6,0.6-0.9,0.8
	c-0.3,0.2-0.7,0.4-1.1,0.5s-0.8,0.2-1.2,0.2c-0.4,0-0.8-0.1-1.1-0.2c-0.3-0.1-0.5-0.3-0.7-0.5s-0.3-0.5-0.3-0.8
	C2592.8,38.6,2592.8,38.3,2593,37.9z"/>
<line fill="none" stroke="#000000" stroke-width="0.459" stroke-miterlimit="10" x1="2621.2" y1="37.1" x2="2621.2" y2="21.1"/>
<path d="M2615.6,37.9c0.1-0.3,0.3-0.7,0.6-1c0.3-0.3,0.6-0.6,0.9-0.8c0.3-0.2,0.7-0.4,1.1-0.5c0.4-0.1,0.8-0.2,1.2-0.2
	c0.4,0,0.8,0.1,1.1,0.2c0.3,0.1,0.5,0.3,0.7,0.5c0.2,0.2,0.3,0.5,0.3,0.8s0,0.6-0.1,1c-0.1,0.3-0.3,0.7-0.6,1s-0.6,0.6-0.9,0.8
	c-0.3,0.2-0.7,0.4-1.1,0.5s-0.8,0.2-1.2,0.2c-0.4,0-0.8-0.1-1.1-0.2c-0.3-0.1-0.5-0.3-0.7-0.5s-0.3-0.5-0.3-0.8
	C2615.4,38.6,2615.4,38.3,2615.6,37.9z"/>
<line fill="none" stroke="#000000" stroke-width="0.459" stroke-miterlimit="10" x1="2643.8" y1="37.1" x2="2643.8" y2="21.1"/>
<path d="M2644.1,36.2c0.1,0.1,0.1,0.3,0.1,0.5s0,0.3,0,0.5s0,0.3-0.1,0.5c0,0.2-0.1,0.3-0.1,0.4c-0.2,0.5-0.4,0.9-0.8,1.3
	c-0.4,0.4-0.7,0.6-1,0.8c-0.6,0.3-1.4,0.4-2.2,0.4c-0.1,0-0.3,0-0.5-0.1c-0.2,0-0.3-0.1-0.5-0.1c-0.2-0.1-0.3-0.1-0.5-0.2
	s-0.3-0.2-0.4-0.4c-0.1-0.2-0.2-0.3-0.2-0.5s0-0.3,0-0.5s0-0.3,0.1-0.4c0-0.1,0.1-0.3,0.1-0.4c0.2-0.5,0.4-0.9,0.8-1.2
	c0.3-0.3,0.6-0.6,0.9-0.7c0.3-0.2,0.7-0.3,1.1-0.4s0.9-0.1,1.4-0.1c0.1,0,0.2,0,0.4,0c0.2,0,0.3,0.1,0.5,0.1s0.3,0.1,0.5,0.2
	S2644.1,36,2644.1,36.2z M2643.7,36.5c-0.1-0.2-0.2-0.3-0.4-0.3s-0.3-0.1-0.5-0.1c-0.2,0-0.3,0.1-0.5,0.1c-0.2,0.1-0.3,0.1-0.5,0.2
	c-0.2,0.1-0.4,0.2-0.6,0.3s-0.4,0.2-0.5,0.3c-0.4,0.2-0.7,0.4-1.1,0.7c-0.1,0.1-0.3,0.2-0.4,0.3c-0.1,0.1-0.3,0.2-0.4,0.4
	c-0.1,0.1-0.2,0.3-0.2,0.5c0,0.2,0,0.3,0.1,0.5c0.1,0.2,0.2,0.3,0.4,0.3c0.2,0.1,0.3,0.1,0.5,0s0.3-0.1,0.5-0.1
	c0.2-0.1,0.3-0.1,0.5-0.2c0.2-0.1,0.4-0.2,0.6-0.3s0.4-0.2,0.6-0.3c0.2-0.1,0.4-0.2,0.5-0.3c0.2-0.1,0.4-0.2,0.6-0.4
	c0.1-0.1,0.3-0.2,0.4-0.3s0.3-0.2,0.4-0.4c0.1-0.1,0.2-0.3,0.2-0.5S2643.8,36.7,2643.7,36.5z"/>
<line fill="none" stroke="#000000" stroke-width="0.459" stroke-miterlimit="10" x1="2685.6" y1="39.5" x2="2685.6" y2="23.5"/>
<path d="M2685.9,38.6c0.1,0.1,0.1,0.3,0.1,0.5c0,0.2,0,0.3,0,0.5c0,0.2,0,0.3-0.1,0.5c0,0.2-0.1,0.3-0.1,0.4
	c-0.2,0.5-0.4,0.9-0.8,1.3s-0.7,0.6-1,0.8c-0.6,0.3-1.4,0.4-2.2,0.4c-0.1,0-0.3,0-0.5-0.1s-0.3-0.1-0.5-0.1
	c-0.2-0.1-0.3-0.1-0.5-0.2s-0.3-0.2-0.4-0.4c-0.1-0.2-0.2-0.3-0.2-0.5s0-0.3,0-0.5s0-0.3,0.1-0.4c0-0.1,0.1-0.3,0.1-0.4
	c0.2-0.5,0.4-0.9,0.8-1.2c0.3-0.3,0.6-0.6,0.9-0.7c0.3-0.2,0.7-0.3,1.1-0.4c0.4-0.1,0.9-0.1,1.4-0.1c0.1,0,0.2,0,0.4,0
	c0.2,0,0.3,0.1,0.5,0.1c0.2,0.1,0.3,0.1,0.5,0.2C2685.7,38.3,2685.9,38.4,2685.9,38.6z M2685.5,38.9c-0.1-0.2-0.2-0.3-0.4-0.3
	c-0.1-0.1-0.3-0.1-0.5-0.1s-0.3,0.1-0.5,0.1c-0.2,0.1-0.3,0.1-0.5,0.2c-0.2,0.1-0.4,0.2-0.6,0.3s-0.4,0.2-0.5,0.3
	c-0.4,0.2-0.7,0.4-1.1,0.7c-0.1,0.1-0.3,0.2-0.4,0.3c-0.1,0.1-0.3,0.2-0.4,0.4s-0.2,0.3-0.2,0.5c0,0.2,0,0.3,0.1,0.5
	c0.1,0.2,0.2,0.3,0.4,0.3s0.3,0.1,0.5,0c0.2,0,0.3-0.1,0.5-0.1c0.2-0.1,0.3-0.1,0.5-0.2c0.2-0.1,0.4-0.2,0.6-0.3s0.4-0.2,0.6-0.3
	s0.4-0.2,0.5-0.3c0.2-0.1,0.4-0.2,0.6-0.4c0.1-0.1,0.3-0.2,0.4-0.3c0.1-0.1,0.3-0.2,0.4-0.4c0.1-0.1,0.2-0.3,0.2-0.5
	C2685.6,39.2,2685.6,39.1,2685.5,38.9z"/>
<line fill="none" stroke="#000000" stroke-width="0.459" stroke-miterlimit="10" x1="2726.4" y1="39.5" x2="2726.4" y2="23.5"/>
<path d="M2726.7,38.6c0.1,0.1,0.1,0.3,0.1,0.5c0,0.2,0,0.3,0,0.5c0,0.2,0,0.3-0.1,0.5c0,0.2-0.1,0.3-0.1,0.4
	c-0.2,0.5-0.4,0.9-0.8,1.3s-0.7,0.6-1,0.8c-0.6,0.3-1.4,0.4-2.2,0.4c-0.1,0-0.3,0-0.5-0.1s-0.3-0.1-0.5-0.1
	c-0.2-0.1-0.3-0.1-0.5-0.2s-0.3-0.2-0.4-0.4c-0.1-0.2-0.2-0.3-0.2-0.5c0-0.2,0-0.3,0-0.5c0-0.2,0-0.3,0.1-0.4c0-0.1,0.1-0.3,0.1-0.4
	c0.2-0.5,0.4-0.9,0.8-1.2s0.6-0.6,0.9-0.7c0.3-0.2,0.7-0.3,1.1-0.4c0.4-0.1,0.9-0.1,1.4-0.1c0.1,0,0.2,0,0.4,0
	c0.2,0,0.3,0.1,0.5,0.1c0.2,0.1,0.3,0.1,0.5,0.2C2726.5,38.3,2726.7,38.4,2726.7,38.6z M2726.3,38.9c-0.1-0.2-0.2-0.3-0.4-0.3
	c-0.1-0.1-0.3-0.1-0.5-0.1s-0.3,0.1-0.5,0.1c-0.2,0.1-0.3,0.1-0.5,0.2c-0.2,0.1-0.4,0.2-0.6,0.3c-0.2,0.1-0.4,0.2-0.5,0.3
	c-0.4,0.2-0.7,0.4-1.1,0.7c-0.1,0.1-0.3,0.2-0.4,0.3c-0.1,0.1-0.3,0.2-0.4,0.4c-0.1,0.1-0.2,0.3-0.2,0.5c0,0.2,0,0.3,0.1,0.5
	c0.1,0.2,0.2,0.3,0.4,0.3s0.3,0.1,0.5,0c0.2,0,0.3-0.1,0.5-0.1c0.2-0.1,0.3-0.1,0.5-0.2c0.2-0.1,0.4-0.2,0.6-0.3s0.4-0.2,0.6-0.3
	c0.2-0.1,0.4-0.2,0.5-0.3c0.2-0.1,0.4-0.2,0.6-0.4c0.1-0.1,0.3-0.2,0.4-0.3c0.1-0.1,0.3-0.2,0.4-0.4c0.1-0.1,0.2-0.3,0.2-0.5
	C2726.4,39.2,2726.4,39.1,2726.3,38.9z"/>
<line fill="none" stroke="#000000" stroke-width="0.459" stroke-miterlimit="10" x1="2772.6" y1="39.5" x2="2772.6" y2="23.5"/>
<path d="M2772.9,38.6c0.1,0.1,0.1,0.3,0.1,0.5c0,0.2,0,0.3,0,0.5c0,0.2,0,0.3-0.1,0.5c0,0.2-0.1,0.3-0.1,0.4
	c-0.2,0.5-0.4,0.9-0.8,1.3s-0.7,0.6-1,0.8c-0.6,0.3-1.4,0.4-2.2,0.4c-0.1,0-0.3,0-0.5-0.1s-0.3-0.1-0.5-0.1
	c-0.2-0.1-0.3-0.1-0.5-0.2s-0.3-0.2-0.4-0.4c-0.1-0.2-0.2-0.3-0.2-0.5s0-0.3,0-0.5s0-0.3,0.1-0.4c0-0.1,0.1-0.3,0.1-0.4
	c0.2-0.5,0.4-0.9,0.8-1.2c0.3-0.3,0.6-0.6,0.9-0.7c0.3-0.2,0.7-0.3,1.1-0.4c0.4-0.1,0.9-0.1,1.4-0.1c0.1,0,0.2,0,0.4,0
	c0.2,0,0.3,0.1,0.5,0.1c0.2,0.1,0.3,0.1,0.5,0.2C2772.7,38.3,2772.9,38.4,2772.9,38.6z M2772.5,38.9c-0.1-0.2-0.2-0.3-0.4-0.3
	c-0.1-0.1-0.3-0.1-0.5-0.1s-0.3,0.1-0.5,0.1c-0.2,0.1-0.3,0.1-0.5,0.2c-0.2,0.1-0.4,0.2-0.6,0.3s-0.4,0.2-0.5,0.3
	c-0.4,0.2-0.7,0.4-1.1,0.7c-0.1,0.1-0.3,0.2-0.4,0.3c-0.1,0.1-0.3,0.2-0.4,0.4s-0.2,0.3-0.2,0.5c0,0.2,0,0.3,0.1,0.5
	c0.1,0.2,0.2,0.3,0.4,0.3s0.3,0.1,0.5,0c0.2,0,0.3-0.1,0.5-0.1c0.2-0.1,0.3-0.1,0.5-0.2c0.2-0.1,0.4-0.2,0.6-0.3s0.4-0.2,0.6-0.3
	s0.4-0.2,0.5-0.3c0.2-0.1,0.4-0.2,0.6-0.4c0.1-0.1,0.3-0.2,0.4-0.3c0.1-0.1,0.3-0.2,0.4-0.4c0.1-0.1,0.2-0.3,0.2-0.5
	C2772.6,39.2,2772.6,39.1,2772.5,38.9z"/>
<g>
	<path d="M2808.6,39c-0.7-0.5-1.7-1.6-1.7-3.5c0-1.7,0.9-3.1,1.7-3.5l0.1,0.1c-1.1,1.1-1.1,2.2-1.1,3.4c0,1.1,0.1,2.3,1.1,3.4
		L2808.6,39z M2809.9,33.3c0,0.1,0,1,0,1c0.5-0.5,0.9-0.6,1.3-0.6c0.7,0,1,0.6,1,1.2c0,0.3-0.1,0.6-0.2,0.9
		c-0.1,0.3-0.3,0.5-0.5,0.7c-0.2,0.3-2.2,1.5-2.2,1.5v-8.4h0.5C2809.9,29.6,2809.9,31.4,2809.9,33.3z M2810.1,34.8
		c-0.2,0.3-0.2,0.8-0.2,1.3v1.2c0,0,0.5-0.4,0.7-0.7c0.2-0.2,0.4-0.5,0.5-0.9c0.1-0.4,0.1-0.8-0.2-1.1
		C2810.8,34.4,2810.3,34.2,2810.1,34.8z M2812.9,33.2c0,0.1,0,1,0,1c0.5-0.5,0.9-0.6,1.3-0.6c0.7,0,1,0.6,1,1.2
		c0,0.3-0.1,0.6-0.2,0.8c-0.1,0.3-0.3,0.5-0.5,0.8c-0.2,0.2-2.1,1.5-2.1,1.5v-8.4h0.5C2812.9,29.6,2812.9,31.4,2812.9,33.2z
		 M2813.1,34.8c-0.2,0.3-0.2,0.8-0.2,1.3v1.2c0,0,0.5-0.4,0.8-0.7c0.2-0.2,0.4-0.5,0.5-0.9c0.1-0.4,0.1-0.8-0.2-1.1
		C2813.8,34.4,2813.4,34.2,2813.1,34.8z M2815.2,39l-0.1-0.1c1.1-1.1,1.1-2.3,1.1-3.4c0-1.2-0.1-2.3-1.1-3.4l0.1-0.1
		c0.7,0.4,1.7,1.8,1.7,3.5C2816.8,37.4,2815.9,38.5,2815.2,39z"/>
</g>
<line fill="none" stroke="#000000" stroke-width="0.459" stroke-miterlimit="10" x1="2806.4" y1="35.5" x2="2813.6" y2="35.5"/>
</svg>
