<?xml version="1.0" encoding="utf-8"?>
<!-- Generator: Adobe Illustrator 16.0.0, SVG Export Plug-In . SVG Version: 6.00 Build 0)  -->
<!DOCTYPE svg PUBLIC "-//W3C//DTD SVG 1.1//EN" "http://www.w3.org/Graphics/SVG/1.1/DTD/svg11.dtd">
<svg version="1.1" id="Layer_1" xmlns="http://www.w3.org/2000/svg" xmlns:xlink="http://www.w3.org/1999/xlink" x="0px" y="0px"
	 width="3600px" height="55.8px" viewBox="1288 279.5 3600 55.8" enable-background="new 1288 279.5 3600 55.8"
	 xml:space="preserve">
<g id="Music">
	<rect x="1288" y="115.4" fill="#FFFFFF" width="3600" height="283.6"/>
	<line fill="none" stroke="#000000" stroke-width="0.459" x1="1316.4" y1="170.8" x2="1316.4" y2="318"/>
	<g enable-background="new    ">
		<path d="M1326.2,317.8c-4-1.9-4.6-4.3-4.8-6.8c-0.2-2.7,1.5-5.4,3.1-6.9c0.9-0.9,1.9-1.7,3.1-2.6c0-0.7-0.2-0.9-0.3-1.9
			c0-0.4-0.3-2.3,0.1-4.5c0.2-1.3,1.9-4.3,3-4.3c0.9,0,2.2,3.4,2.2,5.2c0.1,2.7-0.6,3.9-1.4,5.3c-0.4,0.7-0.8,1.2-1.3,1.7
			c-0.5,0.6-1,0.9-1.5,1.3c0,0,0.6,3.5,0.6,3.7c1.2-0.2,2.7,0.3,3.3,0.7c1.4,1,1.9,2.4,2,3.8c0.2,2.2-1,4.5-3.6,5.5
			c0,0,0.4,2.8,0.5,3.3c0.2,1.5,0.2,2.5-0.2,3.1c-0.6,1-1.5,2-3.2,2.1c-1.3,0.1-4-0.6-4.1-2.7c-0.1-1.2,0.5-2.6,2-2.7
			c0.9-0.1,2,0.7,2.1,1.8c0.1,0.9-0.5,1.9-2.1,2.4c0.2,0.3,1,0.7,2.1,0.7c1.1,0,2.3-0.7,2.8-1.7c0.3-0.7,0.3-1.8,0.2-2.9
			c-0.1-0.4-0.5-3.3-0.5-3.3C1328.9,318.3,1327,318.1,1326.2,317.8z M1326.5,313.2c0,0.9,0.8,2,1.5,2.4c-0.1,0.1-0.2,0.2-0.2,0.2
			c-0.8-0.4-1.5-1-1.6-1.2c-0.6-0.7-0.8-1.2-0.9-2.3c-0.1-1.1,0.5-2.5,1.8-3.5c0.7-0.5,1-0.6,1.6-0.7l-0.6-3.5
			c-0.6,0.3-3.1,2.3-4.1,3.9c-0.9,1.4-1.5,2.6-1.4,4c0.2,3.2,3.7,5.8,7.5,4.9c0,0-1.1-6.8-1.1-6.8
			C1327,310.7,1326.5,312.3,1326.5,313.2z M1328.1,301c1.7-1.3,3.9-3.8,3.8-5.7c0-0.6-0.3-1.7-1.2-1.7
			C1328.8,293.7,1327.7,297.9,1328.1,301z M1330.7,317.2c2.2-0.7,2.3-2.6,2.2-3.8c-0.1-0.9-0.5-3.1-3.3-2.9L1330.7,317.2z"/>
	</g>
	<g enable-background="new    ">
		<path d="M1340.7,305c0,0.2,0,1.2,0,1.2c0.7-0.7,1.1-0.8,1.9-0.8c1,0,1.6,0.9,1.6,1.7c0,0.4-0.1,0.8-0.2,1.2
			c-0.2,0.4-0.6,0.7-0.9,1.1c-0.3,0.3-2.8,2.1-2.8,2.1v-11.3h0.5C1340.7,300.1,1340.7,302.5,1340.7,305z M1340.9,306.9
			c-0.2,0.5-0.2,1.3-0.2,1.9v1.7c0,0,0.7-0.6,1.1-0.9c0.3-0.3,0.6-0.7,0.7-1.3c0.2-0.6,0.1-1.2-0.3-1.6
			C1342,306.4,1341.3,306.1,1340.9,306.9z"/>
	</g>
	<g enable-background="new    ">
		<path d="M1358.6,315.3v1.3c0,0.8,0.9,0.7,0.9,0.7v0.5h-4.2v-0.5c0,0,0.9,0,0.9-0.7v-1.3h-3.6l-0.3-0.4c2.3-3.1,2.3-3.7,2.9-6.5
			h3.3c-0.8,1.5-3.4,4.2-5.3,6.4h3v-2.4l2.3-2.6v4.9h1.4v0.5H1358.6z"/>
	</g>
	<g enable-background="new    ">
		<path d="M1358.6,305.7v1.3c0,0.8,0.9,0.7,0.9,0.7v0.5h-4.2v-0.5c0,0,0.9,0,0.9-0.7v-1.3h-3.6l-0.3-0.4c2.3-3.1,2.3-3.7,2.9-6.5
			h3.3c-0.8,1.5-3.4,4.2-5.3,6.4h3v-2.4l2.3-2.6v4.9h1.4v0.5H1358.6z"/>
	</g>
	<line fill="none" stroke="#000000" stroke-width="0.459" x1="1389.8" y1="298.8" x2="1389.8" y2="318"/>
	<line fill="none" stroke="#000000" stroke-width="0.459" x1="1498" y1="298.8" x2="1498" y2="318"/>
	<line fill="none" stroke="#000000" stroke-width="0.459" x1="1606.2" y1="298.8" x2="1606.2" y2="318"/>
	<line fill="none" stroke="#000000" stroke-width="0.459" x1="1714.4" y1="298.8" x2="1714.4" y2="318"/>
	<line fill="none" stroke="#000000" stroke-width="0.459" x1="1822.6" y1="298.8" x2="1822.6" y2="318"/>
	<line fill="none" stroke="#000000" stroke-width="0.459" x1="1930.8" y1="298.8" x2="1930.8" y2="318"/>
	<line fill="none" stroke="#000000" stroke-width="0.459" x1="2039" y1="298.8" x2="2039" y2="318"/>
	<line fill="none" stroke="#000000" stroke-width="0.459" x1="2147.2" y1="298.8" x2="2147.2" y2="318"/>
	<line fill="none" stroke="#000000" stroke-width="0.459" x1="2255.4" y1="298.8" x2="2255.4" y2="318"/>
	<line fill="none" stroke="#000000" stroke-width="0.459" x1="2363.6" y1="298.8" x2="2363.6" y2="318"/>
	<line fill="none" stroke="#000000" stroke-width="0.459" x1="2471.8" y1="298.8" x2="2471.8" y2="318"/>
	<line fill="none" stroke="#000000" stroke-width="0.459" x1="2580" y1="298.8" x2="2580" y2="318"/>
	<line fill="none" stroke="#000000" stroke-width="0.459" x1="2688.2" y1="298.8" x2="2688.2" y2="318"/>
	<line fill="none" stroke="#000000" stroke-width="0.459" x1="2796.4" y1="298.8" x2="2796.4" y2="318"/>
	<line fill="none" stroke="#000000" stroke-width="0.459" x1="2904.6" y1="298.8" x2="2904.6" y2="318"/>
	<line fill="none" stroke="#000000" stroke-width="0.459" x1="3012.8" y1="298.8" x2="3012.8" y2="318"/>
	<line fill="none" stroke="#000000" stroke-width="0.459" x1="3121" y1="298.8" x2="3121" y2="318"/>
	<line fill="none" stroke="#000000" stroke-width="0.459" x1="3229.2" y1="298.8" x2="3229.2" y2="318"/>
	<line fill="none" stroke="#000000" stroke-width="0.459" x1="3337.4" y1="298.8" x2="3337.4" y2="318"/>
	<line fill="none" stroke="#000000" stroke-width="0.459" x1="3445.6" y1="298.8" x2="3445.6" y2="318"/>
	<line fill="none" stroke="#000000" stroke-width="0.459" x1="3553.8" y1="298.8" x2="3553.8" y2="318"/>
	<line fill="none" stroke="#000000" stroke-width="0.459" x1="3662" y1="298.8" x2="3662" y2="318"/>
	<line fill="none" stroke="#000000" stroke-width="0.459" x1="3770.2" y1="298.8" x2="3770.2" y2="318"/>
	<line fill="none" stroke="#000000" stroke-width="0.459" x1="3878.4" y1="298.8" x2="3878.4" y2="318"/>
	<line fill="none" stroke="#000000" stroke-width="0.459" x1="3986.6" y1="298.8" x2="3986.6" y2="318"/>
	<line fill="none" stroke="#000000" stroke-width="0.459" x1="4094.8" y1="298.8" x2="4094.8" y2="318"/>
	<line fill="none" stroke="#000000" stroke-width="0.459" x1="4203" y1="298.8" x2="4203" y2="318"/>
	<line fill="none" stroke="#000000" stroke-width="0.459" x1="4311.2" y1="298.8" x2="4311.2" y2="318"/>
	<line fill="none" stroke="#000000" stroke-width="0.459" x1="4419.4" y1="298.8" x2="4419.4" y2="318"/>
	<line fill="none" stroke="#000000" stroke-width="0.459" x1="4527.6" y1="298.8" x2="4527.6" y2="318"/>
	<line fill="none" stroke="#000000" stroke-width="0.459" x1="4635.8" y1="298.8" x2="4635.8" y2="318"/>
	<line fill="none" stroke="#000000" stroke-width="0.459" x1="4744" y1="298.8" x2="4744" y2="318"/>
	<line fill="none" stroke="#000000" stroke-width="2.419" x1="4858.6" y1="298.8" x2="4858.6" y2="318"/>
	<line fill="none" stroke="#000000" stroke-width="0.459" x1="4854.7" y1="298.8" x2="4854.7" y2="318"/>
	<line fill="none" stroke="#000000" stroke-width="0.459" x1="1316.2" y1="298.8" x2="4859.8" y2="298.8"/>
	<line fill="none" stroke="#000000" stroke-width="0.459" x1="1316.2" y1="303.6" x2="4859.8" y2="303.6"/>
	<line fill="none" stroke="#000000" stroke-width="0.459" x1="1316.2" y1="308.4" x2="4859.8" y2="308.4"/>
	<line fill="none" stroke="#000000" stroke-width="0.459" x1="1316.2" y1="313.2" x2="4859.8" y2="313.2"/>
	<line fill="none" stroke="#000000" stroke-width="0.459" x1="1316.2" y1="318" x2="4859.8" y2="318"/>
	<g enable-background="new    ">
		<path d="M1376.4,312.2c-0.8,0-1.5,0.5-1.5,1.4c0,0.6,1,1.5,1,1.5l-0.2,0.2c0,0-2.2-1.3-2.5-2.7c-0.1-0.9,0.5-1.8,1.6-1.9
			c0.4,0,1.2,0.1,1.5,0.2c-1.8-1.8-2.8-3-2.7-3.4c0.4-0.4,1.7-2.1,1.7-3.4c0-0.9-1.3-2.9-1.3-2.9l0.3-0.2l3.5,4.4c0,0-1.7,2-1.7,3.4
			c0,1,0.6,1.8,1.1,2.3c0.2,0.3,1,1.1,1,1.2l0,0.3C1377.3,312.3,1376.8,312.2,1376.4,312.2z"/>
	</g>
	<line fill="none" stroke="#000000" stroke-width="0.459" x1="1400.6" y1="314.8" x2="1400.6" y2="298.8"/>
	<g enable-background="new    ">
		<path d="M1400.9,315.7c-0.4,1-1.2,1.8-1.8,2.1c-0.6,0.3-1.4,0.4-2.2,0.4c-0.5,0-1.5-0.2-1.8-0.8c-0.4-0.7-0.1-1.4,0-1.8
			c0.4-1,1.1-1.6,1.7-2c0.6-0.3,1.5-0.6,2.5-0.5c0.4,0.1,1.3,0.1,1.7,0.8C1401.2,314.4,1401,315.4,1400.9,315.7z M1398.6,314.2
			c-0.4,0.2-0.7,0.4-1.1,0.6c-0.4,0.2-0.7,0.4-1.1,0.7c-0.6,0.3-1.3,1-0.9,1.6c0.4,0.6,1.3,0.3,1.9,0c0.4-0.2,0.8-0.4,1.2-0.6
			s0.7-0.4,1.1-0.7c0.5-0.3,1.3-1,0.9-1.6C1400.1,313.6,1399.2,313.9,1398.6,314.2z"/>
	</g>
	<line fill="none" stroke="#000000" stroke-width="0.459" x1="1448.4" y1="314.8" x2="1448.4" y2="298.8"/>
	<g enable-background="new    ">
		<path d="M1446.6,313.2c1.6,0,2.5,1.1,2,2.5c-0.5,1.4-2.2,2.5-3.8,2.5c-1.6,0-2.5-1.2-2-2.5C1443.3,314.3,1445,313.2,1446.6,313.2z
			"/>
	</g>
	<line fill="none" stroke="#000000" stroke-width="0.459" x1="1476" y1="314.8" x2="1476" y2="298.8"/>
	<g enable-background="new    ">
		<path d="M1474.2,313.2c1.6,0,2.5,1.1,2,2.5c-0.5,1.4-2.2,2.5-3.8,2.5c-1.6,0-2.5-1.2-2-2.5
			C1470.9,314.3,1472.6,313.2,1474.2,313.2z"/>
	</g>
	<line fill="none" stroke="#000000" stroke-width="0.459" x1="1508.8" y1="314.8" x2="1508.8" y2="298.8"/>
	<g enable-background="new    ">
		<path d="M1509.1,315.7c-0.4,1-1.2,1.8-1.8,2.1c-0.6,0.3-1.4,0.4-2.2,0.4c-0.5,0-1.5-0.2-1.8-0.8c-0.4-0.7-0.1-1.4,0-1.8
			c0.4-1,1.1-1.6,1.7-2c0.6-0.3,1.5-0.6,2.5-0.5c0.4,0.1,1.3,0.1,1.7,0.8C1509.4,314.4,1509.2,315.4,1509.1,315.7z M1506.8,314.2
			c-0.4,0.2-0.7,0.4-1.1,0.6c-0.4,0.2-0.7,0.4-1.1,0.7c-0.6,0.3-1.3,1-0.9,1.6c0.4,0.6,1.3,0.3,1.9,0c0.4-0.2,0.8-0.4,1.2-0.6
			s0.7-0.4,1.1-0.7c0.5-0.3,1.3-1,0.9-1.6C1508.3,313.6,1507.4,313.9,1506.8,314.2z"/>
	</g>
	<g enable-background="new    ">
		<path d="M1557.5,305.9v2.5h-6.1v-2.5H1557.5z"/>
	</g>
	<line fill="none" stroke="#000000" stroke-width="0.459" x1="1550.8" y1="308.4" x2="1558" y2="308.4"/>
	<line fill="none" stroke="#000000" stroke-width="0.459" x1="1617.2" y1="310" x2="1617.2" y2="294"/>
	<g enable-background="new    ">
		<path d="M1617.5,310.9c-0.4,1-1.2,1.8-1.8,2.1c-0.6,0.3-1.4,0.4-2.2,0.4c-0.5,0-1.5-0.2-1.8-0.8c-0.4-0.7-0.1-1.4,0-1.8
			c0.4-1,1.1-1.6,1.7-2c0.6-0.3,1.5-0.6,2.5-0.5c0.4,0.1,1.3,0.1,1.7,0.8C1617.8,309.6,1617.6,310.6,1617.5,310.9z M1615.2,309.4
			c-0.4,0.2-0.7,0.4-1.1,0.6c-0.4,0.2-0.7,0.4-1.1,0.7c-0.6,0.3-1.3,1-0.9,1.6c0.4,0.6,1.3,0.3,1.9,0c0.4-0.2,0.8-0.4,1.2-0.6
			s0.7-0.4,1.1-0.7c0.5-0.3,1.3-1,0.9-1.6C1616.7,308.8,1615.8,309.1,1615.2,309.4z"/>
	</g>
	<line fill="none" stroke="#000000" stroke-width="0.459" x1="1662.8" y1="319.6" x2="1662.8" y2="303.6"/>
	<g enable-background="new    ">
		<path d="M1661,318c1.6,0,2.5,1.1,2,2.5c-0.5,1.4-2.2,2.5-3.8,2.5c-1.6,0-2.5-1.2-2-2.5C1657.7,319.1,1659.4,318,1661,318z"/>
	</g>
	<line fill="none" stroke="#000000" stroke-width="0.459" x1="1693" y1="319.6" x2="1693" y2="303.6"/>
	<g enable-background="new    ">
		<path d="M1691.2,318c1.6,0,2.5,1.1,2,2.5c-0.5,1.4-2.2,2.5-3.8,2.5c-1.6,0-2.5-1.2-2-2.5C1687.9,319.1,1689.6,318,1691.2,318z"/>
	</g>
	<line fill="none" stroke="#000000" stroke-width="0.459" x1="1725.2" y1="312.4" x2="1725.2" y2="296.4"/>
	<g enable-background="new    ">
		<path d="M1725.5,313.3c-0.4,1-1.2,1.8-1.8,2.1c-0.6,0.3-1.4,0.4-2.2,0.4c-0.5,0-1.5-0.2-1.8-0.8c-0.4-0.7-0.1-1.4,0-1.8
			c0.4-1,1.1-1.6,1.7-2c0.6-0.3,1.5-0.6,2.5-0.5c0.4,0.1,1.3,0.1,1.7,0.8C1725.8,312,1725.6,313,1725.5,313.3z M1723.2,311.8
			c-0.4,0.2-0.7,0.4-1.1,0.6c-0.4,0.2-0.7,0.4-1.1,0.7c-0.6,0.3-1.3,1-0.9,1.6c0.4,0.6,1.3,0.3,1.9,0c0.4-0.2,0.8-0.4,1.2-0.6
			s0.7-0.4,1.1-0.7c0.5-0.3,1.3-1,0.9-1.6C1724.7,311.2,1723.8,311.5,1723.2,311.8z"/>
	</g>
	<g enable-background="new    ">
		<path d="M1773.9,305.9v2.5h-6.1v-2.5H1773.9z"/>
	</g>
	<line fill="none" stroke="#000000" stroke-width="0.459" x1="1767.2" y1="308.4" x2="1774.4" y2="308.4"/>
	<line fill="none" stroke="#000000" stroke-width="0.459" x1="1833.6" y1="314.8" x2="1833.6" y2="298.8"/>
	<g enable-background="new    ">
		<path d="M1833.9,315.7c-0.4,1-1.2,1.8-1.8,2.1c-0.6,0.3-1.4,0.4-2.2,0.4c-0.5,0-1.5-0.2-1.8-0.8c-0.4-0.7-0.1-1.4,0-1.8
			c0.4-1,1.1-1.6,1.7-2c0.6-0.3,1.5-0.6,2.5-0.5c0.4,0.1,1.3,0.1,1.7,0.8C1834.2,314.4,1834,315.4,1833.9,315.7z M1831.6,314.2
			c-0.4,0.2-0.7,0.4-1.1,0.6c-0.4,0.2-0.7,0.4-1.1,0.7c-0.6,0.3-1.3,1-0.9,1.6c0.4,0.6,1.3,0.3,1.9,0c0.4-0.2,0.8-0.4,1.2-0.6
			s0.7-0.4,1.1-0.7c0.5-0.3,1.3-1,0.9-1.6C1833.1,313.6,1832.2,313.9,1831.6,314.2z"/>
	</g>
	<line fill="none" stroke="#000000" stroke-width="0.459" x1="1877.6" y1="317.2" x2="1877.6" y2="301.2"/>
	<g enable-background="new    ">
		<path d="M1875.8,315.6c1.6,0,2.5,1.1,2,2.5c-0.5,1.4-2.2,2.5-3.8,2.5c-1.6,0-2.5-1.2-2-2.5
			C1872.5,316.7,1874.2,315.6,1875.8,315.6z"/>
	</g>
	<line fill="none" stroke="#000000" stroke-width="0.459" x1="1909.8" y1="317.2" x2="1909.8" y2="301.2"/>
	<g enable-background="new    ">
		<path d="M1908,315.6c1.6,0,2.5,1.1,2,2.5c-0.5,1.4-2.2,2.5-3.8,2.5c-1.6,0-2.5-1.2-2-2.5C1904.7,316.7,1906.4,315.6,1908,315.6z"
			/>
	</g>
	<line fill="none" stroke="#000000" stroke-width="0.459" x1="1941.6" y1="319.6" x2="1941.6" y2="303.6"/>
	<g enable-background="new    ">
		<path d="M1941.9,320.5c-0.4,1-1.2,1.8-1.8,2.1c-0.6,0.3-1.4,0.4-2.2,0.4c-0.5,0-1.5-0.2-1.8-0.8c-0.4-0.7-0.1-1.4,0-1.8
			c0.4-1,1.1-1.6,1.7-2c0.6-0.3,1.5-0.6,2.5-0.5c0.4,0.1,1.3,0.1,1.7,0.8C1942.2,319.2,1942,320.2,1941.9,320.5z M1939.6,319
			c-0.4,0.2-0.7,0.4-1.1,0.6c-0.4,0.2-0.7,0.4-1.1,0.7c-0.6,0.3-1.3,1-0.9,1.6c0.4,0.6,1.3,0.3,1.9,0c0.4-0.2,0.8-0.4,1.2-0.6
			s0.7-0.4,1.1-0.7c0.5-0.3,1.3-1,0.9-1.6C1941.1,318.4,1940.2,318.7,1939.6,319z"/>
	</g>
	<line fill="none" stroke="#000000" stroke-width="0.459" x1="1998" y1="319.6" x2="1998" y2="303.6"/>
	<g enable-background="new    ">
		<path d="M1996.2,318c1.6,0,2.5,1.1,2,2.5c-0.5,1.4-2.2,2.5-3.8,2.5c-1.6,0-2.5-1.2-2-2.5C1992.9,319.1,1994.6,318,1996.2,318z"/>
	</g>
	<line fill="none" stroke="#000000" stroke-width="0.459" x1="2021.6" y1="319.6" x2="2021.6" y2="303.6"/>
	<g enable-background="new    ">
		<path d="M2019.8,318c1.6,0,2.5,1.1,2,2.5c-0.5,1.4-2.2,2.5-3.8,2.5c-1.6,0-2.5-1.2-2-2.5C2016.5,319.1,2018.2,318,2019.8,318z"/>
	</g>
	<line fill="none" stroke="#000000" stroke-width="0.459" x1="2049.8" y1="312.4" x2="2049.8" y2="296.4"/>
	<g enable-background="new    ">
		<path d="M2050.1,313.3c-0.4,1-1.2,1.8-1.8,2.1c-0.6,0.3-1.4,0.4-2.2,0.4c-0.5,0-1.5-0.2-1.8-0.8c-0.4-0.7-0.1-1.4,0-1.8
			c0.4-1,1.1-1.6,1.7-2c0.6-0.3,1.5-0.6,2.5-0.5c0.4,0.1,1.3,0.1,1.7,0.8C2050.4,312,2050.2,313,2050.1,313.3z M2047.8,311.8
			c-0.4,0.2-0.7,0.4-1.1,0.6c-0.4,0.2-0.7,0.4-1.1,0.7c-0.6,0.3-1.3,1-0.9,1.6c0.4,0.6,1.3,0.3,1.9,0c0.4-0.2,0.8-0.4,1.2-0.6
			s0.7-0.4,1.1-0.7c0.5-0.3,1.3-1,0.9-1.6C2049.3,311.2,2048.4,311.5,2047.8,311.8z"/>
	</g>
	<line fill="none" stroke="#000000" stroke-width="0.459" x1="2104.2" y1="322" x2="2104.2" y2="306"/>
	<line fill="none" stroke="#000000" stroke-width="0.459" x1="2097.2" y1="322.8" x2="2105.6" y2="322.8"/>
	<g enable-background="new    ">
		<path d="M2102.4,320.4c1.6,0,2.5,1.1,2,2.5c-0.5,1.4-2.2,2.5-3.8,2.5c-1.6,0-2.5-1.2-2-2.5
			C2099.1,321.5,2100.8,320.4,2102.4,320.4z"/>
	</g>
	<line fill="none" stroke="#000000" stroke-width="0.459" x1="2128.4" y1="322" x2="2128.4" y2="306"/>
	<line fill="none" stroke="#000000" stroke-width="0.459" x1="2121.4" y1="322.8" x2="2129.8" y2="322.8"/>
	<g enable-background="new    ">
		<path d="M2126.6,320.4c1.6,0,2.5,1.1,2,2.5c-0.5,1.4-2.2,2.5-3.8,2.5c-1.6,0-2.5-1.2-2-2.5C2123.3,321.5,2125,320.4,2126.6,320.4z
			"/>
	</g>
	<line fill="none" stroke="#000000" stroke-width="0.459" x1="2158" y1="314.8" x2="2158" y2="298.8"/>
	<g enable-background="new    ">
		<path d="M2158.3,315.7c-0.4,1-1.2,1.8-1.8,2.1c-0.6,0.3-1.4,0.4-2.2,0.4c-0.5,0-1.5-0.2-1.8-0.8c-0.4-0.7-0.1-1.4,0-1.8
			c0.4-1,1.1-1.6,1.7-2c0.6-0.3,1.5-0.6,2.5-0.5c0.4,0.1,1.3,0.1,1.7,0.8C2158.6,314.4,2158.4,315.4,2158.3,315.7z M2156,314.2
			c-0.4,0.2-0.7,0.4-1.1,0.6c-0.4,0.2-0.7,0.4-1.1,0.7c-0.6,0.3-1.3,1-0.9,1.6c0.4,0.6,1.3,0.3,1.9,0c0.4-0.2,0.8-0.4,1.2-0.6
			s0.7-0.4,1.1-0.7c0.5-0.3,1.3-1,0.9-1.6C2157.5,313.6,2156.6,313.9,2156,314.2z"/>
	</g>
	<g enable-background="new    ">
		<path d="M2204.3,305.9v2.5h-6.1v-2.5H2204.3z"/>
	</g>
	<line fill="none" stroke="#000000" stroke-width="0.459" x1="2197.6" y1="308.4" x2="2204.8" y2="308.4"/>
	<line fill="none" stroke="#000000" stroke-width="0.459" x1="2266.2" y1="314.8" x2="2266.2" y2="298.8"/>
	<g enable-background="new    ">
		<path d="M2266.5,315.7c-0.4,1-1.2,1.8-1.8,2.1c-0.6,0.3-1.4,0.4-2.2,0.4c-0.5,0-1.5-0.2-1.8-0.8c-0.4-0.7-0.1-1.4,0-1.8
			c0.4-1,1.1-1.6,1.7-2c0.6-0.3,1.5-0.6,2.5-0.5c0.4,0.1,1.3,0.1,1.7,0.8C2266.8,314.4,2266.6,315.4,2266.5,315.7z M2264.2,314.2
			c-0.4,0.2-0.7,0.4-1.1,0.6c-0.4,0.2-0.7,0.4-1.1,0.7c-0.6,0.3-1.3,1-0.9,1.6c0.4,0.6,1.3,0.3,1.9,0c0.4-0.2,0.8-0.4,1.2-0.6
			s0.7-0.4,1.1-0.7c0.5-0.3,1.3-1,0.9-1.6C2265.7,313.6,2264.8,313.9,2264.2,314.2z"/>
	</g>
	<line fill="none" stroke="#000000" stroke-width="0.459" x1="2314" y1="314.8" x2="2314" y2="298.8"/>
	<g enable-background="new    ">
		<path d="M2312.2,313.2c1.6,0,2.5,1.1,2,2.5c-0.5,1.4-2.2,2.5-3.8,2.5c-1.6,0-2.5-1.2-2-2.5
			C2308.9,314.3,2310.6,313.2,2312.2,313.2z"/>
	</g>
	<line fill="none" stroke="#000000" stroke-width="0.459" x1="2341.6" y1="314.8" x2="2341.6" y2="298.8"/>
	<g enable-background="new    ">
		<path d="M2339.8,313.2c1.6,0,2.5,1.1,2,2.5c-0.5,1.4-2.2,2.5-3.8,2.5c-1.6,0-2.5-1.2-2-2.5
			C2336.5,314.3,2338.2,313.2,2339.8,313.2z"/>
	</g>
	<line fill="none" stroke="#000000" stroke-width="0.459" x1="2374.4" y1="314.8" x2="2374.4" y2="298.8"/>
	<g enable-background="new    ">
		<path d="M2374.7,315.7c-0.4,1-1.2,1.8-1.8,2.1c-0.6,0.3-1.4,0.4-2.2,0.4c-0.5,0-1.5-0.2-1.8-0.8c-0.4-0.7-0.1-1.4,0-1.8
			c0.4-1,1.1-1.6,1.7-2c0.6-0.3,1.5-0.6,2.5-0.5c0.4,0.1,1.3,0.1,1.7,0.8C2375,314.4,2374.8,315.4,2374.7,315.7z M2372.4,314.2
			c-0.4,0.2-0.7,0.4-1.1,0.6c-0.4,0.2-0.7,0.4-1.1,0.7c-0.6,0.3-1.3,1-0.9,1.6c0.4,0.6,1.3,0.3,1.9,0c0.4-0.2,0.8-0.4,1.2-0.6
			s0.7-0.4,1.1-0.7c0.5-0.3,1.3-1,0.9-1.6C2373.9,313.6,2373,313.9,2372.4,314.2z"/>
	</g>
	<g enable-background="new    ">
		<path d="M2423.1,305.9v2.5h-6.1v-2.5H2423.1z"/>
	</g>
	<line fill="none" stroke="#000000" stroke-width="0.459" x1="2416.4" y1="308.4" x2="2423.6" y2="308.4"/>
	<line fill="none" stroke="#000000" stroke-width="0.459" x1="2482.8" y1="310" x2="2482.8" y2="294"/>
	<g enable-background="new    ">
		<path d="M2483.1,310.9c-0.4,1-1.2,1.8-1.8,2.1c-0.6,0.3-1.4,0.4-2.2,0.4c-0.5,0-1.5-0.2-1.8-0.8c-0.4-0.7-0.1-1.4,0-1.8
			c0.4-1,1.1-1.6,1.7-2c0.6-0.3,1.5-0.6,2.5-0.5c0.4,0.1,1.3,0.1,1.7,0.8C2483.4,309.6,2483.2,310.6,2483.1,310.9z M2480.8,309.4
			c-0.4,0.2-0.7,0.4-1.1,0.6c-0.4,0.2-0.7,0.4-1.1,0.7c-0.6,0.3-1.3,1-0.9,1.6c0.4,0.6,1.3,0.3,1.9,0c0.4-0.2,0.8-0.4,1.2-0.6
			s0.7-0.4,1.1-0.7c0.5-0.3,1.3-1,0.9-1.6C2482.3,308.8,2481.4,309.1,2480.8,309.4z"/>
	</g>
	<line fill="none" stroke="#000000" stroke-width="0.459" x1="2529.8" y1="319.6" x2="2529.8" y2="303.6"/>
	<g enable-background="new    ">
		<path d="M2528,318c1.6,0,2.5,1.1,2,2.5c-0.5,1.4-2.2,2.5-3.8,2.5c-1.6,0-2.5-1.2-2-2.5C2524.7,319.1,2526.4,318,2528,318z"/>
	</g>
	<line fill="none" stroke="#000000" stroke-width="0.459" x1="2558.8" y1="319.6" x2="2558.8" y2="303.6"/>
	<g enable-background="new    ">
		<path d="M2557,318c1.6,0,2.5,1.1,2,2.5c-0.5,1.4-2.2,2.5-3.8,2.5c-1.6,0-2.5-1.2-2-2.5C2553.7,319.1,2555.4,318,2557,318z"/>
	</g>
	<line fill="none" stroke="#000000" stroke-width="0.459" x1="2590.8" y1="312.4" x2="2590.8" y2="296.4"/>
	<g enable-background="new    ">
		<path d="M2591.1,313.3c-0.4,1-1.2,1.8-1.8,2.1c-0.6,0.3-1.4,0.4-2.2,0.4c-0.5,0-1.5-0.2-1.8-0.8c-0.4-0.7-0.1-1.4,0-1.8
			c0.4-1,1.1-1.6,1.7-2c0.6-0.3,1.5-0.6,2.5-0.5c0.4,0.1,1.3,0.1,1.7,0.8C2591.4,312,2591.2,313,2591.1,313.3z M2588.8,311.8
			c-0.4,0.2-0.7,0.4-1.1,0.6c-0.4,0.2-0.7,0.4-1.1,0.7c-0.6,0.3-1.3,1-0.9,1.6c0.4,0.6,1.3,0.3,1.9,0c0.4-0.2,0.8-0.4,1.2-0.6
			s0.7-0.4,1.1-0.7c0.5-0.3,1.3-1,0.9-1.6C2590.3,311.2,2589.4,311.5,2588.8,311.8z"/>
	</g>
	<g enable-background="new    ">
		<path d="M2639.5,305.9v2.5h-6.1v-2.5H2639.5z"/>
	</g>
	<line fill="none" stroke="#000000" stroke-width="0.459" x1="2632.8" y1="308.4" x2="2640" y2="308.4"/>
	<line fill="none" stroke="#000000" stroke-width="0.459" x1="2699.2" y1="314.8" x2="2699.2" y2="298.8"/>
	<g enable-background="new    ">
		<path d="M2699.5,315.7c-0.4,1-1.2,1.8-1.8,2.1c-0.6,0.3-1.4,0.4-2.2,0.4c-0.5,0-1.5-0.2-1.8-0.8c-0.4-0.7-0.1-1.4,0-1.8
			c0.4-1,1.1-1.6,1.7-2c0.6-0.3,1.5-0.6,2.5-0.5c0.4,0.1,1.3,0.1,1.7,0.8C2699.8,314.4,2699.6,315.4,2699.5,315.7z M2697.2,314.2
			c-0.4,0.2-0.7,0.4-1.1,0.6c-0.4,0.2-0.7,0.4-1.1,0.7c-0.6,0.3-1.3,1-0.9,1.6c0.4,0.6,1.3,0.3,1.9,0c0.4-0.2,0.8-0.4,1.2-0.6
			s0.7-0.4,1.1-0.7c0.5-0.3,1.3-1,0.9-1.6C2698.7,313.6,2697.8,313.9,2697.2,314.2z"/>
	</g>
	<line fill="none" stroke="#000000" stroke-width="0.459" x1="2744.2" y1="317.2" x2="2744.2" y2="301.2"/>
	<g enable-background="new    ">
		<path d="M2742.4,315.6c1.6,0,2.5,1.1,2,2.5c-0.5,1.4-2.2,2.5-3.8,2.5c-1.6,0-2.5-1.2-2-2.5
			C2739.1,316.7,2740.8,315.6,2742.4,315.6z"/>
	</g>
	<line fill="none" stroke="#000000" stroke-width="0.459" x1="2775.4" y1="317.2" x2="2775.4" y2="301.2"/>
	<g enable-background="new    ">
		<path d="M2773.6,315.6c1.6,0,2.5,1.1,2,2.5c-0.5,1.4-2.2,2.5-3.8,2.5c-1.6,0-2.5-1.2-2-2.5C2770.3,316.7,2772,315.6,2773.6,315.6z
			"/>
	</g>
	<line fill="none" stroke="#000000" stroke-width="0.459" x1="2807.2" y1="319.6" x2="2807.2" y2="303.6"/>
	<g enable-background="new    ">
		<path d="M2807.5,320.5c-0.4,1-1.2,1.8-1.8,2.1c-0.6,0.3-1.4,0.4-2.2,0.4c-0.5,0-1.5-0.2-1.8-0.8c-0.4-0.7-0.1-1.4,0-1.8
			c0.4-1,1.1-1.6,1.7-2c0.6-0.3,1.5-0.6,2.5-0.5c0.4,0.1,1.3,0.1,1.7,0.8C2807.8,319.2,2807.6,320.2,2807.5,320.5z M2805.2,319
			c-0.4,0.2-0.7,0.4-1.1,0.6c-0.4,0.2-0.7,0.4-1.1,0.7c-0.6,0.3-1.3,1-0.9,1.6c0.4,0.6,1.3,0.3,1.9,0c0.4-0.2,0.8-0.4,1.2-0.6
			s0.7-0.4,1.1-0.7c0.5-0.3,1.3-1,0.9-1.6C2806.7,318.4,2805.8,318.7,2805.2,319z"/>
	</g>
	<line fill="none" stroke="#000000" stroke-width="0.459" x1="2861.6" y1="319.6" x2="2861.6" y2="303.6"/>
	<g enable-background="new    ">
		<path d="M2859.8,318c1.6,0,2.5,1.1,2,2.5c-0.5,1.4-2.2,2.5-3.8,2.5c-1.6,0-2.5-1.2-2-2.5C2856.5,319.1,2858.2,318,2859.8,318z"/>
	</g>
	<line fill="none" stroke="#000000" stroke-width="0.459" x1="2885.8" y1="319.6" x2="2885.8" y2="303.6"/>
	<g enable-background="new    ">
		<path d="M2884,318c1.6,0,2.5,1.1,2,2.5c-0.5,1.4-2.2,2.5-3.8,2.5c-1.6,0-2.5-1.2-2-2.5C2880.7,319.1,2882.4,318,2884,318z"/>
	</g>
	<line fill="none" stroke="#000000" stroke-width="0.459" x1="2915.4" y1="312.4" x2="2915.4" y2="296.4"/>
	<g enable-background="new    ">
		<path d="M2915.7,313.3c-0.4,1-1.2,1.8-1.8,2.1c-0.6,0.3-1.4,0.4-2.2,0.4c-0.5,0-1.5-0.2-1.8-0.8c-0.4-0.7-0.1-1.4,0-1.8
			c0.4-1,1.1-1.6,1.7-2c0.6-0.3,1.5-0.6,2.5-0.5c0.4,0.1,1.3,0.1,1.7,0.8C2916,312,2915.8,313,2915.7,313.3z M2913.4,311.8
			c-0.4,0.2-0.7,0.4-1.1,0.6c-0.4,0.2-0.7,0.4-1.1,0.7c-0.6,0.3-1.3,1-0.9,1.6c0.4,0.6,1.3,0.3,1.9,0c0.4-0.2,0.8-0.4,1.2-0.6
			s0.7-0.4,1.1-0.7c0.5-0.3,1.3-1,0.9-1.6C2914.9,311.2,2914,311.5,2913.4,311.8z"/>
	</g>
	<line fill="none" stroke="#000000" stroke-width="0.459" x1="2971.2" y1="322" x2="2971.2" y2="306"/>
	<line fill="none" stroke="#000000" stroke-width="0.459" x1="2964.2" y1="322.8" x2="2972.6" y2="322.8"/>
	<g enable-background="new    ">
		<path d="M2969.4,320.4c1.6,0,2.5,1.1,2,2.5c-0.5,1.4-2.2,2.5-3.8,2.5c-1.6,0-2.5-1.2-2-2.5
			C2966.1,321.5,2967.8,320.4,2969.4,320.4z"/>
	</g>
	<line fill="none" stroke="#000000" stroke-width="0.459" x1="2995" y1="322" x2="2995" y2="306"/>
	<line fill="none" stroke="#000000" stroke-width="0.459" x1="2988" y1="322.8" x2="2996.4" y2="322.8"/>
	<g enable-background="new    ">
		<path d="M2993.2,320.4c1.6,0,2.5,1.1,2,2.5c-0.5,1.4-2.2,2.5-3.8,2.5c-1.6,0-2.5-1.2-2-2.5
			C2989.9,321.5,2991.6,320.4,2993.2,320.4z"/>
	</g>
	<line fill="none" stroke="#000000" stroke-width="0.459" x1="3023.6" y1="314.8" x2="3023.6" y2="298.8"/>
	<g enable-background="new    ">
		<path d="M3023.9,315.7c-0.4,1-1.2,1.8-1.8,2.1c-0.6,0.3-1.4,0.4-2.2,0.4c-0.5,0-1.5-0.2-1.8-0.8c-0.4-0.7-0.1-1.4,0-1.8
			c0.4-1,1.1-1.6,1.7-2c0.6-0.3,1.5-0.6,2.5-0.5c0.4,0.1,1.3,0.1,1.7,0.8C3024.2,314.4,3024,315.4,3023.9,315.7z M3021.6,314.2
			c-0.4,0.2-0.7,0.4-1.1,0.6c-0.4,0.2-0.7,0.4-1.1,0.7c-0.6,0.3-1.3,1-0.9,1.6c0.4,0.6,1.3,0.3,1.9,0c0.4-0.2,0.8-0.4,1.2-0.6
			s0.7-0.4,1.1-0.7c0.5-0.3,1.3-1,0.9-1.6C3023.1,313.6,3022.2,313.9,3021.6,314.2z"/>
	</g>
	<g enable-background="new    ">
		<path d="M3067.2,312.2c-0.8,0-1.5,0.5-1.5,1.4c0,0.6,1,1.5,1,1.5l-0.2,0.2c0,0-2.2-1.3-2.5-2.7c-0.1-0.9,0.5-1.8,1.6-1.9
			c0.4,0,1.2,0.1,1.5,0.2c-1.8-1.8-2.8-3-2.7-3.4c0.4-0.4,1.7-2.1,1.7-3.4c0-0.9-1.3-2.9-1.3-2.9l0.3-0.2l3.5,4.4c0,0-1.7,2-1.7,3.4
			c0,1,0.6,1.8,1.1,2.3c0.2,0.3,1,1.1,1,1.2l0,0.3C3068.1,312.3,3067.6,312.2,3067.2,312.2z"/>
	</g>
	<line fill="none" stroke="#000000" stroke-width="0.459" x1="3131.8" y1="314.8" x2="3131.8" y2="298.8"/>
	<g enable-background="new    ">
		<path d="M3132.1,315.7c-0.4,1-1.2,1.8-1.8,2.1c-0.6,0.3-1.4,0.4-2.2,0.4c-0.5,0-1.5-0.2-1.8-0.8c-0.4-0.7-0.1-1.4,0-1.8
			c0.4-1,1.1-1.6,1.7-2c0.6-0.3,1.5-0.6,2.5-0.5c0.4,0.1,1.3,0.1,1.7,0.8C3132.4,314.4,3132.2,315.4,3132.1,315.7z M3129.8,314.2
			c-0.4,0.2-0.7,0.4-1.1,0.6c-0.4,0.2-0.7,0.4-1.1,0.7c-0.6,0.3-1.3,1-0.9,1.6c0.4,0.6,1.3,0.3,1.9,0c0.4-0.2,0.8-0.4,1.2-0.6
			s0.7-0.4,1.1-0.7c0.5-0.3,1.3-1,0.9-1.6C3131.3,313.6,3130.4,313.9,3129.8,314.2z"/>
	</g>
	<line fill="none" stroke="#000000" stroke-width="0.459" x1="3179.6" y1="314.8" x2="3179.6" y2="298.8"/>
	<g enable-background="new    ">
		<path d="M3177.8,313.2c1.6,0,2.5,1.1,2,2.5c-0.5,1.4-2.2,2.5-3.8,2.5c-1.6,0-2.5-1.2-2-2.5
			C3174.5,314.3,3176.2,313.2,3177.8,313.2z"/>
	</g>
	<line fill="none" stroke="#000000" stroke-width="0.459" x1="3207.2" y1="314.8" x2="3207.2" y2="298.8"/>
	<g enable-background="new    ">
		<path d="M3205.4,313.2c1.6,0,2.5,1.1,2,2.5c-0.5,1.4-2.2,2.5-3.8,2.5c-1.6,0-2.5-1.2-2-2.5
			C3202.1,314.3,3203.8,313.2,3205.4,313.2z"/>
	</g>
	<line fill="none" stroke="#000000" stroke-width="0.459" x1="3240" y1="314.8" x2="3240" y2="298.8"/>
	<g enable-background="new    ">
		<path d="M3240.3,315.7c-0.4,1-1.2,1.8-1.8,2.1c-0.6,0.3-1.4,0.4-2.2,0.4c-0.5,0-1.5-0.2-1.8-0.8c-0.4-0.7-0.1-1.4,0-1.8
			c0.4-1,1.1-1.6,1.7-2c0.6-0.3,1.5-0.6,2.5-0.5c0.4,0.1,1.3,0.1,1.7,0.8C3240.7,314.4,3240.4,315.4,3240.3,315.7z M3238,314.2
			c-0.4,0.2-0.7,0.4-1.1,0.6c-0.4,0.2-0.7,0.4-1.1,0.7c-0.6,0.3-1.3,1-0.9,1.6c0.4,0.6,1.3,0.3,1.9,0c0.4-0.2,0.8-0.4,1.2-0.6
			s0.7-0.4,1.1-0.7c0.5-0.3,1.3-1,0.9-1.6C3239.5,313.6,3238.6,313.9,3238,314.2z"/>
	</g>
	<g enable-background="new    ">
		<path d="M3288.7,305.9v2.5h-6.1v-2.5H3288.7z"/>
	</g>
	<line fill="none" stroke="#000000" stroke-width="0.459" x1="3282" y1="308.4" x2="3289.2" y2="308.4"/>
	<line fill="none" stroke="#000000" stroke-width="0.459" x1="3348.4" y1="310" x2="3348.4" y2="294"/>
	<g enable-background="new    ">
		<path d="M3348.7,310.9c-0.4,1-1.2,1.8-1.8,2.1c-0.6,0.3-1.4,0.4-2.2,0.4c-0.5,0-1.5-0.2-1.8-0.8c-0.4-0.7-0.1-1.4,0-1.8
			c0.4-1,1.1-1.6,1.7-2c0.6-0.3,1.5-0.6,2.5-0.5c0.4,0.1,1.3,0.1,1.7,0.8C3349,309.6,3348.8,310.6,3348.7,310.9z M3346.4,309.4
			c-0.4,0.2-0.7,0.4-1.1,0.6c-0.4,0.2-0.7,0.4-1.1,0.7c-0.6,0.3-1.3,1-0.9,1.6c0.4,0.6,1.3,0.3,1.9,0c0.4-0.2,0.8-0.4,1.2-0.6
			c0.4-0.2,0.7-0.4,1.1-0.7c0.5-0.3,1.3-1,0.9-1.6C3347.9,308.8,3347,309.1,3346.4,309.4z"/>
	</g>
	<line fill="none" stroke="#000000" stroke-width="0.459" x1="3394" y1="319.6" x2="3394" y2="303.6"/>
	<g enable-background="new    ">
		<path d="M3392.2,318c1.6,0,2.5,1.1,2,2.5c-0.5,1.4-2.2,2.5-3.8,2.5c-1.6,0-2.5-1.2-2-2.5C3388.9,319.1,3390.6,318,3392.2,318z"/>
	</g>
	<line fill="none" stroke="#000000" stroke-width="0.459" x1="3424.2" y1="319.6" x2="3424.2" y2="303.6"/>
	<g enable-background="new    ">
		<path d="M3422.4,318c1.6,0,2.5,1.1,2,2.5c-0.5,1.4-2.2,2.5-3.8,2.5c-1.6,0-2.5-1.2-2-2.5C3419.1,319.1,3420.8,318,3422.4,318z"/>
	</g>
	<line fill="none" stroke="#000000" stroke-width="0.459" x1="3456.4" y1="312.4" x2="3456.4" y2="296.4"/>
	<g enable-background="new    ">
		<path d="M3456.7,313.3c-0.4,1-1.2,1.8-1.8,2.1c-0.6,0.3-1.4,0.4-2.2,0.4c-0.5,0-1.5-0.2-1.8-0.8c-0.4-0.7-0.1-1.4,0-1.8
			c0.4-1,1.1-1.6,1.7-2c0.6-0.3,1.5-0.6,2.5-0.5c0.4,0.1,1.3,0.1,1.7,0.8C3457,312,3456.8,313,3456.7,313.3z M3454.4,311.8
			c-0.4,0.2-0.7,0.4-1.1,0.6c-0.4,0.2-0.7,0.4-1.1,0.7c-0.6,0.3-1.3,1-0.9,1.6c0.4,0.6,1.3,0.3,1.9,0c0.4-0.2,0.8-0.4,1.2-0.6
			c0.4-0.2,0.7-0.4,1.1-0.7c0.5-0.3,1.3-1,0.9-1.6C3455.9,311.2,3455,311.5,3454.4,311.8z"/>
	</g>
	<g enable-background="new    ">
		<path d="M3505.1,305.9v2.5h-6.1v-2.5H3505.1z"/>
	</g>
	<line fill="none" stroke="#000000" stroke-width="0.459" x1="3498.4" y1="308.4" x2="3505.6" y2="308.4"/>
	<line fill="none" stroke="#000000" stroke-width="0.459" x1="3564.8" y1="314.8" x2="3564.8" y2="298.8"/>
	<g enable-background="new    ">
		<path d="M3565.1,315.7c-0.4,1-1.2,1.8-1.8,2.1c-0.6,0.3-1.4,0.4-2.2,0.4c-0.5,0-1.5-0.2-1.8-0.8c-0.4-0.7-0.1-1.4,0-1.8
			c0.4-1,1.1-1.6,1.7-2c0.6-0.3,1.5-0.6,2.5-0.5c0.4,0.1,1.3,0.1,1.7,0.8C3565.4,314.4,3565.2,315.4,3565.1,315.7z M3562.8,314.2
			c-0.4,0.2-0.7,0.4-1.1,0.6c-0.4,0.2-0.7,0.4-1.1,0.7c-0.6,0.3-1.3,1-0.9,1.6c0.4,0.6,1.3,0.3,1.9,0c0.4-0.2,0.8-0.4,1.2-0.6
			s0.7-0.4,1.1-0.7c0.5-0.3,1.3-1,0.9-1.6C3564.3,313.6,3563.4,313.9,3562.8,314.2z"/>
	</g>
	<line fill="none" stroke="#000000" stroke-width="0.459" x1="3608.8" y1="317.2" x2="3608.8" y2="301.2"/>
	<g enable-background="new    ">
		<path d="M3607,315.6c1.6,0,2.5,1.1,2,2.5c-0.5,1.4-2.2,2.5-3.8,2.5c-1.6,0-2.5-1.2-2-2.5C3603.7,316.7,3605.4,315.6,3607,315.6z"
			/>
	</g>
	<line fill="none" stroke="#000000" stroke-width="0.459" x1="3641" y1="317.2" x2="3641" y2="301.2"/>
	<g enable-background="new    ">
		<path d="M3639.2,315.6c1.6,0,2.5,1.1,2,2.5c-0.5,1.4-2.2,2.5-3.8,2.5c-1.6,0-2.5-1.2-2-2.5
			C3635.9,316.7,3637.6,315.6,3639.2,315.6z"/>
	</g>
	<line fill="none" stroke="#000000" stroke-width="0.459" x1="3672.8" y1="319.6" x2="3672.8" y2="303.6"/>
	<g enable-background="new    ">
		<path d="M3673.1,320.5c-0.4,1-1.2,1.8-1.8,2.1c-0.6,0.3-1.4,0.4-2.2,0.4c-0.5,0-1.5-0.2-1.8-0.8c-0.4-0.7-0.1-1.4,0-1.8
			c0.4-1,1.1-1.6,1.7-2c0.6-0.3,1.5-0.6,2.5-0.5c0.4,0.1,1.3,0.1,1.7,0.8C3673.4,319.2,3673.2,320.2,3673.1,320.5z M3670.8,319
			c-0.4,0.2-0.7,0.4-1.1,0.6c-0.4,0.2-0.7,0.4-1.1,0.7c-0.6,0.3-1.3,1-0.9,1.6c0.4,0.6,1.3,0.3,1.9,0c0.4-0.2,0.8-0.4,1.2-0.6
			s0.7-0.4,1.1-0.7c0.5-0.3,1.3-1,0.9-1.6C3672.3,318.4,3671.4,318.7,3670.8,319z"/>
	</g>
	<line fill="none" stroke="#000000" stroke-width="0.459" x1="3729.2" y1="319.6" x2="3729.2" y2="303.6"/>
	<g enable-background="new    ">
		<path d="M3727.4,318c1.6,0,2.5,1.1,2,2.5c-0.5,1.4-2.2,2.5-3.8,2.5c-1.6,0-2.5-1.2-2-2.5C3724.1,319.1,3725.8,318,3727.4,318z"/>
	</g>
	<line fill="none" stroke="#000000" stroke-width="0.459" x1="3752.8" y1="319.6" x2="3752.8" y2="303.6"/>
	<g enable-background="new    ">
		<path d="M3751,318c1.6,0,2.5,1.1,2,2.5c-0.5,1.4-2.2,2.5-3.8,2.5c-1.6,0-2.5-1.2-2-2.5C3747.7,319.1,3749.4,318,3751,318z"/>
	</g>
	<line fill="none" stroke="#000000" stroke-width="0.459" x1="3781" y1="312.4" x2="3781" y2="296.4"/>
	<g enable-background="new    ">
		<path d="M3781.3,313.3c-0.4,1-1.2,1.8-1.8,2.1c-0.6,0.3-1.4,0.4-2.2,0.4c-0.5,0-1.5-0.2-1.8-0.8c-0.4-0.7-0.1-1.4,0-1.8
			c0.4-1,1.1-1.6,1.7-2c0.6-0.3,1.5-0.6,2.5-0.5c0.4,0.1,1.3,0.1,1.7,0.8C3781.7,312,3781.4,313,3781.3,313.3z M3779,311.8
			c-0.4,0.2-0.7,0.4-1.1,0.6c-0.4,0.2-0.7,0.4-1.1,0.7c-0.6,0.3-1.3,1-0.9,1.6c0.4,0.6,1.3,0.3,1.9,0c0.4-0.2,0.8-0.4,1.2-0.6
			s0.7-0.4,1.1-0.7c0.5-0.3,1.3-1,0.9-1.6C3780.5,311.2,3779.6,311.5,3779,311.8z"/>
	</g>
	<line fill="none" stroke="#000000" stroke-width="0.459" x1="3835.4" y1="322" x2="3835.4" y2="306"/>
	<line fill="none" stroke="#000000" stroke-width="0.459" x1="3828.4" y1="322.8" x2="3836.8" y2="322.8"/>
	<g enable-background="new    ">
		<path d="M3833.6,320.4c1.6,0,2.5,1.1,2,2.5c-0.5,1.4-2.2,2.5-3.8,2.5c-1.6,0-2.5-1.2-2-2.5C3830.3,321.5,3832,320.4,3833.6,320.4z
			"/>
	</g>
	<line fill="none" stroke="#000000" stroke-width="0.459" x1="3859.6" y1="322" x2="3859.6" y2="306"/>
	<line fill="none" stroke="#000000" stroke-width="0.459" x1="3852.6" y1="322.8" x2="3861" y2="322.8"/>
	<g enable-background="new    ">
		<path d="M3857.8,320.4c1.6,0,2.5,1.1,2,2.5c-0.5,1.4-2.2,2.5-3.8,2.5c-1.6,0-2.5-1.2-2-2.5
			C3854.5,321.5,3856.2,320.4,3857.8,320.4z"/>
	</g>
	<line fill="none" stroke="#000000" stroke-width="0.459" x1="3889.2" y1="314.8" x2="3889.2" y2="298.8"/>
	<g enable-background="new    ">
		<path d="M3889.5,315.7c-0.4,1-1.2,1.8-1.8,2.1c-0.6,0.3-1.4,0.4-2.2,0.4c-0.5,0-1.5-0.2-1.8-0.8c-0.4-0.7-0.1-1.4,0-1.8
			c0.4-1,1.1-1.6,1.7-2c0.6-0.3,1.5-0.6,2.5-0.5c0.4,0.1,1.3,0.1,1.7,0.8C3889.8,314.4,3889.6,315.4,3889.5,315.7z M3887.2,314.2
			c-0.4,0.2-0.7,0.4-1.1,0.6c-0.4,0.2-0.7,0.4-1.1,0.7c-0.6,0.3-1.3,1-0.9,1.6c0.4,0.6,1.3,0.3,1.9,0c0.4-0.2,0.8-0.4,1.2-0.6
			c0.4-0.2,0.7-0.4,1.1-0.7c0.5-0.3,1.3-1,0.9-1.6C3888.7,313.6,3887.8,313.9,3887.2,314.2z"/>
	</g>
	<g enable-background="new    ">
		<path d="M3935.5,305.9v2.5h-6.1v-2.5H3935.5z"/>
	</g>
	<line fill="none" stroke="#000000" stroke-width="0.459" x1="3928.8" y1="308.4" x2="3936" y2="308.4"/>
	<line fill="none" stroke="#000000" stroke-width="0.459" x1="3997.4" y1="314.8" x2="3997.4" y2="298.8"/>
	<g enable-background="new    ">
		<path d="M3997.7,315.7c-0.4,1-1.2,1.8-1.8,2.1c-0.6,0.3-1.4,0.4-2.2,0.4c-0.5,0-1.5-0.2-1.8-0.8c-0.4-0.7-0.1-1.4,0-1.8
			c0.4-1,1.1-1.6,1.7-2c0.6-0.3,1.5-0.6,2.5-0.5c0.4,0.1,1.3,0.1,1.7,0.8C3998,314.4,3997.8,315.4,3997.7,315.7z M3995.4,314.2
			c-0.4,0.2-0.7,0.4-1.1,0.6c-0.4,0.2-0.7,0.4-1.1,0.7c-0.6,0.3-1.3,1-0.9,1.6c0.4,0.6,1.3,0.3,1.9,0c0.4-0.2,0.8-0.4,1.2-0.6
			c0.4-0.2,0.7-0.4,1.1-0.7c0.5-0.3,1.3-1,0.9-1.6C3996.9,313.6,3996,313.9,3995.4,314.2z"/>
	</g>
	<line fill="none" stroke="#000000" stroke-width="0.459" x1="4045.2" y1="314.8" x2="4045.2" y2="298.8"/>
	<g enable-background="new    ">
		<path d="M4043.4,313.2c1.6,0,2.5,1.1,2,2.5c-0.5,1.4-2.2,2.5-3.8,2.5c-1.6,0-2.5-1.2-2-2.5
			C4040.1,314.3,4041.8,313.2,4043.4,313.2z"/>
	</g>
	<line fill="none" stroke="#000000" stroke-width="0.459" x1="4072.8" y1="314.8" x2="4072.8" y2="298.8"/>
	<g enable-background="new    ">
		<path d="M4071,313.2c1.6,0,2.5,1.1,2,2.5c-0.5,1.4-2.2,2.5-3.8,2.5c-1.6,0-2.5-1.2-2-2.5C4067.7,314.3,4069.4,313.2,4071,313.2z"
			/>
	</g>
	<line fill="none" stroke="#000000" stroke-width="0.459" x1="4105.6" y1="314.8" x2="4105.6" y2="298.8"/>
	<g enable-background="new    ">
		<path d="M4105.9,315.7c-0.4,1-1.2,1.8-1.8,2.1c-0.6,0.3-1.4,0.4-2.2,0.4c-0.5,0-1.5-0.2-1.8-0.8c-0.4-0.7-0.1-1.4,0-1.8
			c0.4-1,1.1-1.6,1.7-2c0.6-0.3,1.5-0.6,2.5-0.5c0.4,0.1,1.3,0.1,1.7,0.8C4106.2,314.4,4106,315.4,4105.9,315.7z M4103.6,314.2
			c-0.4,0.2-0.7,0.4-1.1,0.6c-0.4,0.2-0.7,0.4-1.1,0.7c-0.6,0.3-1.3,1-0.9,1.6c0.4,0.6,1.3,0.3,1.9,0c0.4-0.2,0.8-0.4,1.2-0.6
			s0.7-0.4,1.1-0.7c0.5-0.3,1.3-1,0.9-1.6C4105.1,313.6,4104.2,313.9,4103.6,314.2z"/>
	</g>
	<g enable-background="new    ">
		<path d="M4154.3,305.9v2.5h-6.1v-2.5H4154.3z"/>
	</g>
	<line fill="none" stroke="#000000" stroke-width="0.459" x1="4147.6" y1="308.4" x2="4154.8" y2="308.4"/>
	<line fill="none" stroke="#000000" stroke-width="0.459" x1="4214" y1="310" x2="4214" y2="294"/>
	<g enable-background="new    ">
		<path d="M4214.3,310.9c-0.4,1-1.2,1.8-1.8,2.1c-0.6,0.3-1.4,0.4-2.2,0.4c-0.5,0-1.5-0.2-1.8-0.8c-0.4-0.7-0.1-1.4,0-1.8
			c0.4-1,1.1-1.6,1.7-2c0.6-0.3,1.5-0.6,2.5-0.5c0.4,0.1,1.3,0.1,1.7,0.8C4214.7,309.6,4214.4,310.6,4214.3,310.9z M4212,309.4
			c-0.4,0.2-0.7,0.4-1.1,0.6c-0.4,0.2-0.7,0.4-1.1,0.7c-0.6,0.3-1.3,1-0.9,1.6c0.4,0.6,1.3,0.3,1.9,0c0.4-0.2,0.8-0.4,1.2-0.6
			s0.7-0.4,1.1-0.7c0.5-0.3,1.3-1,0.9-1.6C4213.5,308.8,4212.6,309.1,4212,309.4z"/>
	</g>
	<line fill="none" stroke="#000000" stroke-width="0.459" x1="4261" y1="319.6" x2="4261" y2="303.6"/>
	<g enable-background="new    ">
		<path d="M4259.2,318c1.6,0,2.5,1.1,2,2.5c-0.5,1.4-2.2,2.5-3.8,2.5c-1.6,0-2.5-1.2-2-2.5C4255.9,319.1,4257.6,318,4259.2,318z"/>
	</g>
	<line fill="none" stroke="#000000" stroke-width="0.459" x1="4290" y1="319.6" x2="4290" y2="303.6"/>
	<g enable-background="new    ">
		<path d="M4288.2,318c1.6,0,2.5,1.1,2,2.5c-0.5,1.4-2.2,2.5-3.8,2.5c-1.6,0-2.5-1.2-2-2.5C4284.9,319.1,4286.6,318,4288.2,318z"/>
	</g>
	<line fill="none" stroke="#000000" stroke-width="0.459" x1="4322" y1="312.4" x2="4322" y2="296.4"/>
	<g enable-background="new    ">
		<path d="M4322.3,313.3c-0.4,1-1.2,1.8-1.8,2.1c-0.6,0.3-1.4,0.4-2.2,0.4c-0.5,0-1.5-0.2-1.8-0.8c-0.4-0.7-0.1-1.4,0-1.8
			c0.4-1,1.1-1.6,1.7-2c0.6-0.3,1.5-0.6,2.5-0.5c0.4,0.1,1.3,0.1,1.7,0.8C4322.7,312,4322.4,313,4322.3,313.3z M4320,311.8
			c-0.4,0.2-0.7,0.4-1.1,0.6c-0.4,0.2-0.7,0.4-1.1,0.7c-0.6,0.3-1.3,1-0.9,1.6c0.4,0.6,1.3,0.3,1.9,0c0.4-0.2,0.8-0.4,1.2-0.6
			s0.7-0.4,1.1-0.7c0.5-0.3,1.3-1,0.9-1.6C4321.5,311.2,4320.6,311.5,4320,311.8z"/>
	</g>
	<g enable-background="new    ">
		<path d="M4370.7,305.9v2.5h-6.1v-2.5H4370.7z"/>
	</g>
	<line fill="none" stroke="#000000" stroke-width="0.459" x1="4364" y1="308.4" x2="4371.2" y2="308.4"/>
	<line fill="none" stroke="#000000" stroke-width="0.459" x1="4430.4" y1="314.8" x2="4430.4" y2="298.8"/>
	<g enable-background="new    ">
		<path d="M4430.7,315.7c-0.4,1-1.2,1.8-1.8,2.1c-0.6,0.3-1.4,0.4-2.2,0.4c-0.5,0-1.5-0.2-1.8-0.8c-0.4-0.7-0.1-1.4,0-1.8
			c0.4-1,1.1-1.6,1.7-2c0.6-0.3,1.5-0.6,2.5-0.5c0.4,0.1,1.3,0.1,1.7,0.8C4431,314.4,4430.8,315.4,4430.7,315.7z M4428.4,314.2
			c-0.4,0.2-0.7,0.4-1.1,0.6c-0.4,0.2-0.7,0.4-1.1,0.7c-0.6,0.3-1.3,1-0.9,1.6c0.4,0.6,1.3,0.3,1.9,0c0.4-0.2,0.8-0.4,1.2-0.6
			c0.4-0.2,0.7-0.4,1.1-0.7c0.5-0.3,1.3-1,0.9-1.6C4429.9,313.6,4429,313.9,4428.4,314.2z"/>
	</g>
	<line fill="none" stroke="#000000" stroke-width="0.459" x1="4475.4" y1="317.2" x2="4475.4" y2="301.2"/>
	<g enable-background="new    ">
		<path d="M4473.6,315.6c1.6,0,2.5,1.1,2,2.5c-0.5,1.4-2.2,2.5-3.8,2.5c-1.6,0-2.5-1.2-2-2.5C4470.3,316.7,4472,315.6,4473.6,315.6z
			"/>
	</g>
	<line fill="none" stroke="#000000" stroke-width="0.459" x1="4506.6" y1="317.2" x2="4506.6" y2="301.2"/>
	<g enable-background="new    ">
		<path d="M4504.8,315.6c1.6,0,2.5,1.1,2,2.5c-0.5,1.4-2.2,2.5-3.8,2.5c-1.6,0-2.5-1.2-2-2.5
			C4501.5,316.7,4503.2,315.6,4504.8,315.6z"/>
	</g>
	<line fill="none" stroke="#000000" stroke-width="0.459" x1="4538.4" y1="319.6" x2="4538.4" y2="303.6"/>
	<g enable-background="new    ">
		<path d="M4538.7,320.5c-0.4,1-1.2,1.8-1.8,2.1c-0.6,0.3-1.4,0.4-2.2,0.4c-0.5,0-1.5-0.2-1.8-0.8c-0.4-0.7-0.1-1.4,0-1.8
			c0.4-1,1.1-1.6,1.7-2c0.6-0.3,1.5-0.6,2.5-0.5c0.4,0.1,1.3,0.1,1.7,0.8C4539,319.2,4538.8,320.2,4538.7,320.5z M4536.4,319
			c-0.4,0.2-0.7,0.4-1.1,0.6c-0.4,0.2-0.7,0.4-1.1,0.7c-0.6,0.3-1.3,1-0.9,1.6c0.4,0.6,1.3,0.3,1.9,0c0.4-0.2,0.8-0.4,1.2-0.6
			c0.4-0.2,0.7-0.4,1.1-0.7c0.5-0.3,1.3-1,0.9-1.6C4537.9,318.4,4537,318.7,4536.4,319z"/>
	</g>
	<line fill="none" stroke="#000000" stroke-width="0.459" x1="4592.8" y1="319.6" x2="4592.8" y2="303.6"/>
	<g enable-background="new    ">
		<path d="M4591,318c1.6,0,2.5,1.1,2,2.5c-0.5,1.4-2.2,2.5-3.8,2.5c-1.6,0-2.5-1.2-2-2.5C4587.7,319.1,4589.4,318,4591,318z"/>
	</g>
	<line fill="none" stroke="#000000" stroke-width="0.459" x1="4617" y1="319.6" x2="4617" y2="303.6"/>
	<g enable-background="new    ">
		<path d="M4615.2,318c1.6,0,2.5,1.1,2,2.5c-0.5,1.4-2.2,2.5-3.8,2.5c-1.6,0-2.5-1.2-2-2.5C4611.9,319.1,4613.6,318,4615.2,318z"/>
	</g>
	<line fill="none" stroke="#000000" stroke-width="0.459" x1="4646.6" y1="312.4" x2="4646.6" y2="296.4"/>
	<g enable-background="new    ">
		<path d="M4646.9,313.3c-0.4,1-1.2,1.8-1.8,2.1c-0.6,0.3-1.4,0.4-2.2,0.4c-0.5,0-1.5-0.2-1.8-0.8c-0.4-0.7-0.1-1.4,0-1.8
			c0.4-1,1.1-1.6,1.7-2c0.6-0.3,1.5-0.6,2.5-0.5c0.4,0.1,1.3,0.1,1.7,0.8C4647.2,312,4647,313,4646.9,313.3z M4644.6,311.8
			c-0.4,0.2-0.7,0.4-1.1,0.6c-0.4,0.2-0.7,0.4-1.1,0.7c-0.6,0.3-1.3,1-0.9,1.6c0.4,0.6,1.3,0.3,1.9,0c0.4-0.2,0.8-0.4,1.2-0.6
			s0.7-0.4,1.1-0.7c0.5-0.3,1.3-1,0.9-1.6C4646.1,311.2,4645.2,311.5,4644.6,311.8z"/>
	</g>
	<line fill="none" stroke="#000000" stroke-width="0.459" x1="4702.4" y1="322" x2="4702.4" y2="306"/>
	<line fill="none" stroke="#000000" stroke-width="0.459" x1="4695.4" y1="322.8" x2="4703.8" y2="322.8"/>
	<g enable-background="new    ">
		<path d="M4700.6,320.4c1.6,0,2.5,1.1,2,2.5c-0.5,1.4-2.2,2.5-3.8,2.5c-1.6,0-2.5-1.2-2-2.5C4697.3,321.5,4699,320.4,4700.6,320.4z
			"/>
	</g>
	<line fill="none" stroke="#000000" stroke-width="0.459" x1="4726.2" y1="322" x2="4726.2" y2="306"/>
	<line fill="none" stroke="#000000" stroke-width="0.459" x1="4719.2" y1="322.8" x2="4727.6" y2="322.8"/>
	<g enable-background="new    ">
		<path d="M4724.4,320.4c1.6,0,2.5,1.1,2,2.5c-0.5,1.4-2.2,2.5-3.8,2.5c-1.6,0-2.5-1.2-2-2.5
			C4721.1,321.5,4722.8,320.4,4724.4,320.4z"/>
	</g>
	<line fill="none" stroke="#000000" stroke-width="0.459" x1="4754.8" y1="314.8" x2="4754.8" y2="298.8"/>
	<g enable-background="new    ">
		<path d="M4755.1,315.7c-0.4,1-1.2,1.8-1.8,2.1c-0.6,0.3-1.4,0.4-2.2,0.4c-0.5,0-1.5-0.2-1.8-0.8c-0.4-0.7-0.1-1.4,0-1.8
			c0.4-1,1.1-1.6,1.7-2c0.6-0.3,1.5-0.6,2.5-0.5c0.4,0.1,1.3,0.1,1.7,0.8C4755.4,314.4,4755.2,315.4,4755.1,315.7z M4752.8,314.2
			c-0.4,0.2-0.7,0.4-1.1,0.6c-0.4,0.2-0.7,0.4-1.1,0.7c-0.6,0.3-1.3,1-0.9,1.6c0.4,0.6,1.3,0.3,1.9,0c0.4-0.2,0.8-0.4,1.2-0.6
			s0.7-0.4,1.1-0.7c0.5-0.3,1.3-1,0.9-1.6C4754.3,313.6,4753.4,313.9,4752.8,314.2z"/>
	</g>
	<g enable-background="new    ">
		<path d="M4799.8,312.2c-0.8,0-1.5,0.5-1.5,1.4c0,0.6,1,1.5,1,1.5l-0.2,0.2c0,0-2.2-1.3-2.5-2.7c-0.1-0.9,0.5-1.8,1.6-1.9
			c0.4,0,1.2,0.1,1.5,0.2c-1.8-1.8-2.8-3-2.7-3.4c0.4-0.4,1.7-2.1,1.7-3.4c0-0.9-1.3-2.9-1.3-2.9l0.3-0.2l3.5,4.4c0,0-1.7,2-1.7,3.4
			c0,1,0.6,1.8,1.1,2.3c0.2,0.3,1,1.1,1,1.2l0,0.3C4800.7,312.3,4800.2,312.2,4799.8,312.2z"/>
	</g>
</g>
</svg>
