<?xml version="1.0" encoding="utf-8"?>
<!-- Generator: Adobe Illustrator 16.0.0, SVG Export Plug-In . SVG Version: 6.00 Build 0)  -->
<!DOCTYPE svg PUBLIC "-//W3C//DTD SVG 1.1//EN" "http://www.w3.org/Graphics/SVG/1.1/DTD/svg11.dtd">
<svg version="1.1" id="Layer_1" xmlns="http://www.w3.org/2000/svg" xmlns:xlink="http://www.w3.org/1999/xlink" x="0px" y="0px"
	 width="1440px" height="66.3px" viewBox="80 320.7 1440 66.3" enable-background="new 80 320.7 1440 66.3" xml:space="preserve">
<g id="Music">
	<rect x="80" y="310.2" fill="#FFFFFF" width="1440" height="100.8"/>
	<text transform="matrix(1 0 0 1 113 363.2002)" font-family="'Maestro'" font-size="19.2">&amp;</text>
	<text transform="matrix(1 0 0 1 131.7998 363.2002)" font-family="'Maestro'" font-size="19.2">4</text>
	<text transform="matrix(1 0 0 1 131.7998 353.5996)" font-family="'Maestro'" font-size="19.2">4</text>
	<line fill="none" stroke="#000000" stroke-width="0.459" x1="163" y1="348.8" x2="163" y2="368"/>
	<line fill="none" stroke="#000000" stroke-width="0.459" x1="245.8" y1="348.8" x2="245.8" y2="368"/>
	<line fill="none" stroke="#000000" stroke-width="0.459" x1="328.6" y1="348.8" x2="328.6" y2="368"/>
	<line fill="none" stroke="#000000" stroke-width="0.459" x1="411.4" y1="348.8" x2="411.4" y2="368"/>
	<line fill="none" stroke="#000000" stroke-width="0.459" x1="494.2" y1="348.8" x2="494.2" y2="368"/>
	<line fill="none" stroke="#000000" stroke-width="0.459" x1="577" y1="348.8" x2="577" y2="368"/>
	<line fill="none" stroke="#000000" stroke-width="0.459" x1="659.8" y1="348.8" x2="659.8" y2="368"/>
	<line fill="none" stroke="#000000" stroke-width="0.459" x1="742.6" y1="348.8" x2="742.6" y2="368"/>
	<line fill="none" stroke="#000000" stroke-width="0.459" x1="825.4" y1="348.8" x2="825.4" y2="368"/>
	<line fill="none" stroke="#000000" stroke-width="0.459" x1="908.2" y1="348.8" x2="908.2" y2="368"/>
	<line fill="none" stroke="#000000" stroke-width="0.459" x1="991" y1="348.8" x2="991" y2="368"/>
	<line fill="none" stroke="#000000" stroke-width="0.459" x1="1073.8" y1="348.8" x2="1073.8" y2="368"/>
	<line fill="none" stroke="#000000" stroke-width="0.459" x1="1156.6" y1="348.8" x2="1156.6" y2="368"/>
	<line fill="none" stroke="#000000" stroke-width="0.459" x1="1239.4" y1="348.8" x2="1239.4" y2="368"/>
	<line fill="none" stroke="#000000" stroke-width="0.459" x1="1322.2" y1="348.8" x2="1322.2" y2="368"/>
	<line fill="none" stroke="#000000" stroke-width="0.459" x1="1405" y1="348.8" x2="1405" y2="368"/>
	<line fill="none" stroke="#000000" stroke-width="2.419" x1="1490.6" y1="348.8" x2="1490.6" y2="368"/>
	<line fill="none" stroke="#000000" stroke-width="0.459" x1="1486.7" y1="348.8" x2="1486.7" y2="368"/>
	<line fill="none" stroke="#000000" stroke-width="0.459" x1="108.2" y1="348.8" x2="1491.8" y2="348.8"/>
	<line fill="none" stroke="#000000" stroke-width="0.459" x1="108.2" y1="353.6" x2="1491.8" y2="353.6"/>
	<line fill="none" stroke="#000000" stroke-width="0.459" x1="108.2" y1="358.4" x2="1491.8" y2="358.4"/>
	<line fill="none" stroke="#000000" stroke-width="0.459" x1="108.2" y1="363.2" x2="1491.8" y2="363.2"/>
	<line fill="none" stroke="#000000" stroke-width="0.459" x1="108.2" y1="368" x2="1491.8" y2="368"/>
	<line fill="none" stroke="#000000" stroke-width="0.459" x1="151.8" y1="362.4" x2="151.8" y2="346.4"/>
	<text transform="matrix(1 0 0 1 147 363.2002)" font-family="'Maestro'" font-size="16.8">œ</text>
	<line fill="none" stroke="#000000" stroke-width="0.459" x1="174.2" y1="372" x2="174.2" y2="356"/>
	<line fill="none" stroke="#000000" stroke-width="0.459" x1="168.2" y1="372.8" x2="175.6" y2="372.8"/>
	<text transform="matrix(1 0 0 1 169.3999 372.7998)" font-family="'Maestro'" font-size="16.8">œ</text>
	<line fill="none" stroke="#000000" stroke-width="0.459" x1="186.2" y1="372.8" x2="193.6" y2="372.8"/>
	<text transform="matrix(1 0 0 1 187.3999 372.7998)" font-family="'Maestro'" font-size="16.8">œ</text>
	<line fill="none" stroke="#000000" stroke-width="0.459" x1="192.2" y1="372" x2="192.2" y2="358.4"/>
	<text transform="matrix(1 0 0 1 198.6001 370.4004)" font-family="'Maestro'" font-size="16.8">œ</text>
	<line fill="none" stroke="#000000" stroke-width="0.459" x1="203.4" y1="369.6" x2="203.4" y2="357.2"/>
	<path d="M191.9,357.2l11.7-1.2v2.4l-11.7,1.2V357.2z"/>
	<line fill="none" stroke="#000000" stroke-width="0.459" x1="214.4" y1="367.2" x2="214.4" y2="351.2"/>
	<text transform="matrix(1 0 0 1 209.6001 368)" font-family="'Maestro'" font-size="16.8">œ</text>
	<line fill="none" stroke="#000000" stroke-width="0.459" x1="232.4" y1="372" x2="232.4" y2="356"/>
	<line fill="none" stroke="#000000" stroke-width="0.459" x1="226.4" y1="372.8" x2="233.8" y2="372.8"/>
	<text transform="matrix(1 0 0 1 227.6001 372.7998)" font-family="'Maestro'" font-size="16.8">œ</text>
	<text transform="matrix(1 0 0 1 169.3999 345.2002)" font-family="'ArialMT'" font-size="8">C</text>
	<line fill="none" stroke="#000000" stroke-width="0.459" x1="256.6" y1="362.4" x2="256.6" y2="346.4"/>
	<text transform="matrix(1 0 0 1 250.7998 363.2002)" font-family="'Maestro'" font-size="16.8">˙</text>
	<text transform="matrix(1 0 0 1 292.6001 366)" font-family="'Maestro'" font-size="19.2">.</text>
	<line fill="none" stroke="#000000" stroke-width="0.459" x1="290.8" y1="367.2" x2="290.8" y2="351.2"/>
	<text transform="matrix(1 0 0 1 286 368)" font-family="'Maestro'" font-size="16.8">œ</text>
	<text transform="matrix(1 0 0 1 320 356)" font-family="'Maestro'" font-size="19.2">j</text>
	<line fill="none" stroke="#000000" stroke-width="0.459" x1="319.8" y1="367.2" x2="319.8" y2="351.2"/>
	<text transform="matrix(1 0 0 1 315 368)" font-family="'Maestro'" font-size="16.8">œ</text>
	<text transform="matrix(1 0 0 1 250.7998 345.2002)" font-family="'ArialMT'" font-size="8">G</text>
	<text transform="matrix(1 0 0 1 286 345.2002)" font-family="'ArialMT'" font-size="8">C</text>
	<line fill="none" stroke="#000000" stroke-width="0.459" x1="338.4" y1="364.8" x2="338.4" y2="348.8"/>
	<text transform="matrix(1 0 0 1 333.6001 365.5996)" font-family="'Maestro'" font-size="16.8">œ</text>
	<text transform="matrix(1 0 0 1 351 363.2002)" font-family="'Maestro'" font-size="16.8">œ</text>
	<line fill="none" stroke="#000000" stroke-width="0.459" x1="355.8" y1="362.4" x2="355.8" y2="348.8"/>
	<text transform="matrix(1 0 0 1 361.6001 365.5996)" font-family="'Maestro'" font-size="16.8">œ</text>
	<line fill="none" stroke="#000000" stroke-width="0.459" x1="366.4" y1="364.8" x2="366.4" y2="350"/>
	<path d="M355.5,347.6l11.1,1.2v2.4l-11.1-1.2V347.6z"/>
	<text transform="matrix(1 0 0 1 372.3999 368)" font-family="'Maestro'" font-size="16.8">œ</text>
	<line fill="none" stroke="#000000" stroke-width="0.459" x1="377.2" y1="367.2" x2="377.2" y2="353.6"/>
	<text transform="matrix(1 0 0 1 383.2002 365.5996)" font-family="'Maestro'" font-size="16.8">œ</text>
	<line fill="none" stroke="#000000" stroke-width="0.459" x1="388" y1="364.8" x2="388" y2="352.4"/>
	<path d="M376.9,352.4l11.3-1.2v2.4l-11.3,1.2V352.4z"/>
	<line fill="none" stroke="#000000" stroke-width="0.459" x1="398.6" y1="362.4" x2="398.6" y2="346.4"/>
	<text transform="matrix(1 0 0 1 393.7998 363.2002)" font-family="'Maestro'" font-size="16.8">œ</text>
	<text transform="matrix(1 0 0 1 333.6001 345.2002)" font-family="'ArialMT'" font-size="8">F</text>
	<text transform="matrix(1 0 0 1 372.3999 345.2002)" font-family="'ArialMT'" font-size="8">C</text>
	<text transform="matrix(1 0 0 1 416.3999 370.4004)" font-family="'Maestro'" font-size="16.8">œ</text>
	<line fill="none" stroke="#000000" stroke-width="0.459" x1="421.2" y1="369.6" x2="421.2" y2="357.2"/>
	<line fill="none" stroke="#000000" stroke-width="0.459" x1="426" y1="372.8" x2="433.4" y2="372.8"/>
	<text transform="matrix(1 0 0 1 427.2002 372.7998)" font-family="'Maestro'" font-size="16.8">œ</text>
	<line fill="none" stroke="#000000" stroke-width="0.459" x1="432" y1="372" x2="432" y2="358.4"/>
	<path d="M420.9,356l11.3,1.2v2.4l-11.3-1.2V356z"/>
	<text transform="matrix(1 0 0 1 437.7998 370.4004)" font-family="'Maestro'" font-size="16.8">œ</text>
	<line fill="none" stroke="#000000" stroke-width="0.459" x1="442.6" y1="369.6" x2="442.6" y2="354.8"/>
	<text transform="matrix(1 0 0 1 448.6001 368)" font-family="'Maestro'" font-size="16.8">œ</text>
	<line fill="none" stroke="#000000" stroke-width="0.459" x1="453.4" y1="367.2" x2="453.4" y2="353.6"/>
	<path d="M442.3,353.6l11.3-1.2v2.4l-11.3,1.2V353.6z"/>
	<line fill="none" stroke="#000000" stroke-width="0.459" x1="464" y1="369.6" x2="464" y2="353.6"/>
	<text transform="matrix(1 0 0 1 459.2002 370.4004)" font-family="'Maestro'" font-size="16.8">œ</text>
	<line fill="none" stroke="#000000" stroke-width="0.459" x1="481.4" y1="362.4" x2="481.4" y2="346.4"/>
	<text transform="matrix(1 0 0 1 476.6001 363.2002)" font-family="'Maestro'" font-size="16.8">œ</text>
	<text transform="matrix(1 0 0 1 416.3999 345.2002)" font-family="'ArialMT'" font-size="8">G</text>
	<line fill="none" stroke="#000000" stroke-width="0.459" x1="505.4" y1="372" x2="505.4" y2="356"/>
	<line fill="none" stroke="#000000" stroke-width="0.459" x1="499.4" y1="372.8" x2="506.8" y2="372.8"/>
	<text transform="matrix(1 0 0 1 500.6001 372.7998)" font-family="'Maestro'" font-size="16.8">œ</text>
	<line fill="none" stroke="#000000" stroke-width="0.459" x1="517.4" y1="372.8" x2="524.8" y2="372.8"/>
	<text transform="matrix(1 0 0 1 518.6001 372.7998)" font-family="'Maestro'" font-size="16.8">œ</text>
	<line fill="none" stroke="#000000" stroke-width="0.459" x1="523.4" y1="372" x2="523.4" y2="358.4"/>
	<text transform="matrix(1 0 0 1 529.7998 370.4004)" font-family="'Maestro'" font-size="16.8">œ</text>
	<line fill="none" stroke="#000000" stroke-width="0.459" x1="534.6" y1="369.6" x2="534.6" y2="357.2"/>
	<path d="M523.1,357.2l11.7-1.2v2.4l-11.7,1.2V357.2z"/>
	<line fill="none" stroke="#000000" stroke-width="0.459" x1="545.6" y1="367.2" x2="545.6" y2="351.2"/>
	<text transform="matrix(1 0 0 1 540.7998 368)" font-family="'Maestro'" font-size="16.8">œ</text>
	<line fill="none" stroke="#000000" stroke-width="0.459" x1="563.6" y1="372" x2="563.6" y2="356"/>
	<line fill="none" stroke="#000000" stroke-width="0.459" x1="557.6" y1="372.8" x2="565" y2="372.8"/>
	<text transform="matrix(1 0 0 1 558.7998 372.7998)" font-family="'Maestro'" font-size="16.8">œ</text>
	<text transform="matrix(1 0 0 1 500.6001 345.2002)" font-family="'ArialMT'" font-size="8">C</text>
	<line fill="none" stroke="#000000" stroke-width="0.459" x1="587.8" y1="362.4" x2="587.8" y2="346.4"/>
	<text transform="matrix(1 0 0 1 582 363.2002)" font-family="'Maestro'" font-size="16.8">˙</text>
	<text transform="matrix(1 0 0 1 623.7998 366)" font-family="'Maestro'" font-size="19.2">.</text>
	<line fill="none" stroke="#000000" stroke-width="0.459" x1="622" y1="367.2" x2="622" y2="351.2"/>
	<text transform="matrix(1 0 0 1 617.2002 368)" font-family="'Maestro'" font-size="16.8">œ</text>
	<text transform="matrix(1 0 0 1 651.2002 356)" font-family="'Maestro'" font-size="19.2">j</text>
	<line fill="none" stroke="#000000" stroke-width="0.459" x1="651" y1="367.2" x2="651" y2="351.2"/>
	<text transform="matrix(1 0 0 1 646.2002 368)" font-family="'Maestro'" font-size="16.8">œ</text>
	<text transform="matrix(1 0 0 1 582 345.2002)" font-family="'ArialMT'" font-size="8">G</text>
	<text transform="matrix(1 0 0 1 617.2002 345.2002)" font-family="'ArialMT'" font-size="8">C</text>
	<text transform="matrix(1 0 0 1 664.7998 365.5996)" font-family="'Maestro'" font-size="16.8">œ</text>
	<line fill="none" stroke="#000000" stroke-width="0.459" x1="669.6" y1="364.8" x2="669.6" y2="350"/>
	<text transform="matrix(1 0 0 1 675.6001 363.2002)" font-family="'Maestro'" font-size="16.8">œ</text>
	<line fill="none" stroke="#000000" stroke-width="0.459" x1="680.4" y1="362.4" x2="680.4" y2="347.6"/>
	<path d="M669.3,348.8l11.3-2.4v2.4l-11.3,2.4V348.8z"/>
	<text transform="matrix(1 0 0 1 686.3999 368)" font-family="'Maestro'" font-size="16.8">œ</text>
	<line fill="none" stroke="#000000" stroke-width="0.459" x1="691.2" y1="367.2" x2="691.2" y2="353.6"/>
	<text transform="matrix(1 0 0 1 697 365.5996)" font-family="'Maestro'" font-size="16.8">œ</text>
	<line fill="none" stroke="#000000" stroke-width="0.459" x1="701.8" y1="364.8" x2="701.8" y2="352.4"/>
	<path d="M690.9,352.4l11.1-1.2v2.4l-11.1,1.2V352.4z"/>
	<text transform="matrix(1 0 0 1 714.3999 370.7998)" font-family="'Maestro'" font-size="19.2">.</text>
	<line fill="none" stroke="#000000" stroke-width="0.459" x1="712.6" y1="369.6" x2="712.6" y2="353.6"/>
	<text transform="matrix(1 0 0 1 707.7998 370.4004)" font-family="'Maestro'" font-size="16.8">œ</text>
	<text transform="matrix(1 0 0 1 733.7998 360.7998)" font-family="'Maestro'" font-size="19.2">j</text>
	<line fill="none" stroke="#000000" stroke-width="0.459" x1="733.6" y1="372" x2="733.6" y2="356"/>
	<line fill="none" stroke="#000000" stroke-width="0.459" x1="727.6" y1="372.8" x2="735" y2="372.8"/>
	<text transform="matrix(1 0 0 1 728.7998 372.7998)" font-family="'Maestro'" font-size="16.8">œ</text>
	<text transform="matrix(1 0 0 1 664.7998 345.2002)" font-family="'ArialMT'" font-size="8">F</text>
	<text transform="matrix(1 0 0 1 707.7998 345.2002)" font-family="'ArialMT'" font-size="8">G</text>
	<text transform="matrix(1 0 0 1 756.6001 370.7998)" font-family="'Maestro'" font-size="19.2">.</text>
	<line fill="none" stroke="#000000" stroke-width="0.459" x1="754.8" y1="372" x2="754.8" y2="356"/>
	<line fill="none" stroke="#000000" stroke-width="0.459" x1="747.8" y1="372.8" x2="756.2" y2="372.8"/>
	<text transform="matrix(1 0 0 1 749 372.7998)" font-family="'Maestro'" font-size="16.8">˙</text>
	<line fill="none" stroke="#000000" stroke-width="0.459" x1="805.8" y1="362.4" x2="805.8" y2="346.4"/>
	<text transform="matrix(1 0 0 1 801 363.2002)" font-family="'Maestro'" font-size="16.8">œ</text>
	<text transform="matrix(1 0 0 1 749 345.2002)" font-family="'ArialMT'" font-size="8">C</text>
	<line fill="none" stroke="#000000" stroke-width="0.459" x1="836.6" y1="372" x2="836.6" y2="356"/>
	<line fill="none" stroke="#000000" stroke-width="0.459" x1="830.6" y1="372.8" x2="838" y2="372.8"/>
	<text transform="matrix(1 0 0 1 831.7998 372.7998)" font-family="'Maestro'" font-size="16.8">œ</text>
	<line fill="none" stroke="#000000" stroke-width="0.459" x1="848.6" y1="372.8" x2="856" y2="372.8"/>
	<text transform="matrix(1 0 0 1 849.7998 372.7998)" font-family="'Maestro'" font-size="16.8">œ</text>
	<line fill="none" stroke="#000000" stroke-width="0.459" x1="854.6" y1="372" x2="854.6" y2="358.4"/>
	<text transform="matrix(1 0 0 1 861 370.4004)" font-family="'Maestro'" font-size="16.8">œ</text>
	<line fill="none" stroke="#000000" stroke-width="0.459" x1="865.8" y1="369.6" x2="865.8" y2="357.2"/>
	<path d="M854.3,357.2L866,356v2.4l-11.7,1.2V357.2z"/>
	<line fill="none" stroke="#000000" stroke-width="0.459" x1="876.8" y1="367.2" x2="876.8" y2="351.2"/>
	<text transform="matrix(1 0 0 1 872 368)" font-family="'Maestro'" font-size="16.8">œ</text>
	<line fill="none" stroke="#000000" stroke-width="0.459" x1="894.8" y1="372" x2="894.8" y2="356"/>
	<line fill="none" stroke="#000000" stroke-width="0.459" x1="888.8" y1="372.8" x2="896.2" y2="372.8"/>
	<text transform="matrix(1 0 0 1 890 372.7998)" font-family="'Maestro'" font-size="16.8">œ</text>
	<text transform="matrix(1 0 0 1 831.7998 345.2002)" font-family="'ArialMT'" font-size="8">C</text>
	<line fill="none" stroke="#000000" stroke-width="0.459" x1="919" y1="362.4" x2="919" y2="346.4"/>
	<text transform="matrix(1 0 0 1 913.2002 363.2002)" font-family="'Maestro'" font-size="16.8">˙</text>
	<text transform="matrix(1 0 0 1 955 366)" font-family="'Maestro'" font-size="19.2">.</text>
	<line fill="none" stroke="#000000" stroke-width="0.459" x1="953.2" y1="367.2" x2="953.2" y2="351.2"/>
	<text transform="matrix(1 0 0 1 948.4004 368)" font-family="'Maestro'" font-size="16.8">œ</text>
	<text transform="matrix(1 0 0 1 982.4004 356)" font-family="'Maestro'" font-size="19.2">j</text>
	<line fill="none" stroke="#000000" stroke-width="0.459" x1="982.2" y1="367.2" x2="982.2" y2="351.2"/>
	<text transform="matrix(1 0 0 1 977.4004 368)" font-family="'Maestro'" font-size="16.8">œ</text>
	<text transform="matrix(1 0 0 1 913.2002 345.2002)" font-family="'ArialMT'" font-size="8">G</text>
	<text transform="matrix(1 0 0 1 948.4004 345.2002)" font-family="'ArialMT'" font-size="8">C</text>
	<line fill="none" stroke="#000000" stroke-width="0.459" x1="1000.8" y1="364.8" x2="1000.8" y2="348.8"/>
	<text transform="matrix(1 0 0 1 996 365.5996)" font-family="'Maestro'" font-size="16.8">œ</text>
	<text transform="matrix(1 0 0 1 1013.4004 363.2002)" font-family="'Maestro'" font-size="16.8">œ</text>
	<line fill="none" stroke="#000000" stroke-width="0.459" x1="1018.2" y1="362.4" x2="1018.2" y2="348.8"/>
	<text transform="matrix(1 0 0 1 1024 365.5996)" font-family="'Maestro'" font-size="16.8">œ</text>
	<line fill="none" stroke="#000000" stroke-width="0.459" x1="1028.8" y1="364.8" x2="1028.8" y2="350"/>
	<path d="M1017.9,347.6l11.1,1.2v2.4l-11.1-1.2V347.6z"/>
	<text transform="matrix(1 0 0 1 1034.7998 368)" font-family="'Maestro'" font-size="16.8">œ</text>
	<line fill="none" stroke="#000000" stroke-width="0.459" x1="1039.6" y1="367.2" x2="1039.6" y2="353.6"/>
	<text transform="matrix(1 0 0 1 1045.5996 365.5996)" font-family="'Maestro'" font-size="16.8">œ</text>
	<line fill="none" stroke="#000000" stroke-width="0.459" x1="1050.4" y1="364.8" x2="1050.4" y2="352.4"/>
	<path d="M1039.3,352.4l11.3-1.2v2.4l-11.3,1.2V352.4z"/>
	<line fill="none" stroke="#000000" stroke-width="0.459" x1="1061" y1="362.4" x2="1061" y2="346.4"/>
	<text transform="matrix(1 0 0 1 1056.2002 363.2002)" font-family="'Maestro'" font-size="16.8">œ</text>
	<text transform="matrix(1 0 0 1 996 345.2002)" font-family="'ArialMT'" font-size="8">F</text>
	<text transform="matrix(1 0 0 1 1034.7998 345.2002)" font-family="'ArialMT'" font-size="8">C</text>
	<text transform="matrix(1 0 0 1 1078.7998 370.4004)" font-family="'Maestro'" font-size="16.8">œ</text>
	<line fill="none" stroke="#000000" stroke-width="0.459" x1="1083.6" y1="369.6" x2="1083.6" y2="357.2"/>
	<line fill="none" stroke="#000000" stroke-width="0.459" x1="1088.4" y1="372.8" x2="1095.8" y2="372.8"/>
	<text transform="matrix(1 0 0 1 1089.5996 372.7998)" font-family="'Maestro'" font-size="16.8">œ</text>
	<line fill="none" stroke="#000000" stroke-width="0.459" x1="1094.4" y1="372" x2="1094.4" y2="358.4"/>
	<path d="M1083.3,356l11.3,1.2v2.4l-11.3-1.2V356z"/>
	<text transform="matrix(1 0 0 1 1100.2002 370.4004)" font-family="'Maestro'" font-size="16.8">œ</text>
	<line fill="none" stroke="#000000" stroke-width="0.459" x1="1105" y1="369.6" x2="1105" y2="354.8"/>
	<text transform="matrix(1 0 0 1 1111 368)" font-family="'Maestro'" font-size="16.8">œ</text>
	<line fill="none" stroke="#000000" stroke-width="0.459" x1="1115.8" y1="367.2" x2="1115.8" y2="353.6"/>
	<path d="M1104.7,353.6l11.3-1.2v2.4l-11.3,1.2V353.6z"/>
	<line fill="none" stroke="#000000" stroke-width="0.459" x1="1126.4" y1="369.6" x2="1126.4" y2="353.6"/>
	<text transform="matrix(1 0 0 1 1121.5996 370.4004)" font-family="'Maestro'" font-size="16.8">œ</text>
	<line fill="none" stroke="#000000" stroke-width="0.459" x1="1143.8" y1="362.4" x2="1143.8" y2="346.4"/>
	<text transform="matrix(1 0 0 1 1139 363.2002)" font-family="'Maestro'" font-size="16.8">œ</text>
	<text transform="matrix(1 0 0 1 1078.7998 345.2002)" font-family="'ArialMT'" font-size="8">G</text>
	<line fill="none" stroke="#000000" stroke-width="0.459" x1="1167.8" y1="372" x2="1167.8" y2="356"/>
	<line fill="none" stroke="#000000" stroke-width="0.459" x1="1161.8" y1="372.8" x2="1169.2" y2="372.8"/>
	<text transform="matrix(1 0 0 1 1163 372.7998)" font-family="'Maestro'" font-size="16.8">œ</text>
	<line fill="none" stroke="#000000" stroke-width="0.459" x1="1179.8" y1="372.8" x2="1187.2" y2="372.8"/>
	<text transform="matrix(1 0 0 1 1181 372.7998)" font-family="'Maestro'" font-size="16.8">œ</text>
	<line fill="none" stroke="#000000" stroke-width="0.459" x1="1185.8" y1="372" x2="1185.8" y2="358.4"/>
	<text transform="matrix(1 0 0 1 1192.2002 370.4004)" font-family="'Maestro'" font-size="16.8">œ</text>
	<line fill="none" stroke="#000000" stroke-width="0.459" x1="1197" y1="369.6" x2="1197" y2="357.2"/>
	<path d="M1185.5,357.2l11.7-1.2v2.4l-11.7,1.2V357.2z"/>
	<line fill="none" stroke="#000000" stroke-width="0.459" x1="1208" y1="367.2" x2="1208" y2="351.2"/>
	<text transform="matrix(1 0 0 1 1203.2002 368)" font-family="'Maestro'" font-size="16.8">œ</text>
	<line fill="none" stroke="#000000" stroke-width="0.459" x1="1226" y1="372" x2="1226" y2="356"/>
	<line fill="none" stroke="#000000" stroke-width="0.459" x1="1220" y1="372.8" x2="1227.4" y2="372.8"/>
	<text transform="matrix(1 0 0 1 1221.2002 372.7998)" font-family="'Maestro'" font-size="16.8">œ</text>
	<text transform="matrix(1 0 0 1 1163 345.2002)" font-family="'ArialMT'" font-size="8">C</text>
	<line fill="none" stroke="#000000" stroke-width="0.459" x1="1250.2" y1="362.4" x2="1250.2" y2="346.4"/>
	<text transform="matrix(1 0 0 1 1244.4004 363.2002)" font-family="'Maestro'" font-size="16.8">˙</text>
	<text transform="matrix(1 0 0 1 1286.2002 366)" font-family="'Maestro'" font-size="19.2">.</text>
	<line fill="none" stroke="#000000" stroke-width="0.459" x1="1284.4" y1="367.2" x2="1284.4" y2="351.2"/>
	<text transform="matrix(1 0 0 1 1279.5996 368)" font-family="'Maestro'" font-size="16.8">œ</text>
	<text transform="matrix(1 0 0 1 1313.5996 356)" font-family="'Maestro'" font-size="19.2">j</text>
	<line fill="none" stroke="#000000" stroke-width="0.459" x1="1313.4" y1="367.2" x2="1313.4" y2="351.2"/>
	<text transform="matrix(1 0 0 1 1308.5996 368)" font-family="'Maestro'" font-size="16.8">œ</text>
	<text transform="matrix(1 0 0 1 1244.4004 345.2002)" font-family="'ArialMT'" font-size="8">G</text>
	<text transform="matrix(1 0 0 1 1279.5996 345.2002)" font-family="'ArialMT'" font-size="8">C</text>
	<text transform="matrix(1 0 0 1 1327.2002 365.5996)" font-family="'Maestro'" font-size="16.8">œ</text>
	<line fill="none" stroke="#000000" stroke-width="0.459" x1="1332" y1="364.8" x2="1332" y2="350"/>
	<text transform="matrix(1 0 0 1 1338 363.2002)" font-family="'Maestro'" font-size="16.8">œ</text>
	<line fill="none" stroke="#000000" stroke-width="0.459" x1="1342.8" y1="362.4" x2="1342.8" y2="347.6"/>
	<path d="M1331.7,348.8l11.3-2.4v2.4l-11.3,2.4V348.8z"/>
	<text transform="matrix(1 0 0 1 1348.7998 368)" font-family="'Maestro'" font-size="16.8">œ</text>
	<line fill="none" stroke="#000000" stroke-width="0.459" x1="1353.6" y1="367.2" x2="1353.6" y2="353.6"/>
	<text transform="matrix(1 0 0 1 1359.4004 365.5996)" font-family="'Maestro'" font-size="16.8">œ</text>
	<line fill="none" stroke="#000000" stroke-width="0.459" x1="1364.2" y1="364.8" x2="1364.2" y2="352.4"/>
	<path d="M1353.3,352.4l11.1-1.2v2.4l-11.1,1.2V352.4z"/>
	<text transform="matrix(1 0 0 1 1376.7998 370.7998)" font-family="'Maestro'" font-size="19.2">.</text>
	<line fill="none" stroke="#000000" stroke-width="0.459" x1="1375" y1="369.6" x2="1375" y2="353.6"/>
	<text transform="matrix(1 0 0 1 1370.2002 370.4004)" font-family="'Maestro'" font-size="16.8">œ</text>
	<text transform="matrix(1 0 0 1 1396.2002 360.7998)" font-family="'Maestro'" font-size="19.2">j</text>
	<line fill="none" stroke="#000000" stroke-width="0.459" x1="1396" y1="372" x2="1396" y2="356"/>
	<line fill="none" stroke="#000000" stroke-width="0.459" x1="1390" y1="372.8" x2="1397.4" y2="372.8"/>
	<text transform="matrix(1 0 0 1 1391.2002 372.7998)" font-family="'Maestro'" font-size="16.8">œ</text>
	<text transform="matrix(1 0 0 1 1327.2002 345.2002)" font-family="'ArialMT'" font-size="8">F</text>
	<text transform="matrix(1 0 0 1 1370.2002 345.2002)" font-family="'ArialMT'" font-size="8">G</text>
	<text transform="matrix(1 0 0 1 1419 370.7998)" font-family="'Maestro'" font-size="19.2">.</text>
	<line fill="none" stroke="#000000" stroke-width="0.459" x1="1417.2" y1="372" x2="1417.2" y2="356"/>
	<line fill="none" stroke="#000000" stroke-width="0.459" x1="1410.2" y1="372.8" x2="1418.6" y2="372.8"/>
	<text transform="matrix(1 0 0 1 1411.4004 372.7998)" font-family="'Maestro'" font-size="16.8">˙</text>
	<text transform="matrix(1 0 0 1 1411.4004 345.2002)" font-family="'ArialMT'" font-size="8">C</text>
	<text transform="matrix(1 0 0 1 1438 332.4004)" font-family="'ArialMT'" font-size="6.4">M. A. Charpentier</text>
	<text transform="matrix(1 0 0 1 144.7998 327.7998)" font-family="'ArialMT'" font-size="8">A</text>
	<text transform="matrix(1 0 0 1 800.4004 328.7998)" font-family="'ArialMT'" font-size="8">A</text>
</g>
</svg>
