<?xml version="1.0" encoding="utf-8"?>
<!-- Generator: Adobe Illustrator 16.0.0, SVG Export Plug-In . SVG Version: 6.00 Build 0)  -->
<!DOCTYPE svg PUBLIC "-//W3C//DTD SVG 1.1//EN" "http://www.w3.org/Graphics/SVG/1.1/DTD/svg11.dtd">
<svg version="1.1" id="Layer_1" xmlns="http://www.w3.org/2000/svg" xmlns:xlink="http://www.w3.org/1999/xlink" x="0px" y="0px"
	 width="3240px" height="53.3px" viewBox="1108 282.3 3240 53.3" enable-background="new 1108 282.3 3240 53.3"
	 xml:space="preserve">
<g id="Music">
	<rect x="1108" y="269.5" fill="#FFFFFF" width="3240" height="230.5"/>
	<line fill="none" stroke="#000000" stroke-width="0.384" x1="1144.3" y1="300.3" x2="1144.3" y2="443.8"/>
	<g enable-background="new    ">
		<path d="M1154.8,301.5v18.2h-5.2v-18.2H1154.8z M1154,317.9v-14.7h-3.5v14.7H1154z"/>
	</g>
	<g enable-background="new    ">
		<path d="M1166.5,318v1.4c0,0.8,1,0.8,1,0.8v0.5h-4.4v-0.5c0,0,1,0,1-0.8V318h-3.8l-0.4-0.4c2.5-3.3,2.5-4,3.1-7h3.5
			c-0.8,1.6-3.7,4.5-5.7,6.8h3.2v-2.5l2.5-2.7v5.3h1.5v0.6H1166.5z"/>
	</g>
	<g enable-background="new    ">
		<path d="M1166.5,307.7v1.4c0,0.8,1,0.8,1,0.8v0.5h-4.4v-0.5c0,0,1,0,1-0.8v-1.4h-3.8l-0.4-0.4c2.5-3.3,2.5-4,3.1-7h3.5
			c-0.8,1.6-3.7,4.5-5.7,6.8h3.2v-2.5l2.5-2.7v5.3h1.5v0.6H1166.5z"/>
	</g>
	<line fill="none" stroke="#000000" stroke-width="0.384" x1="1301.4" y1="300.3" x2="1301.4" y2="320.8"/>
	<line fill="none" stroke="#000000" stroke-width="0.384" x1="1432.3" y1="300.3" x2="1432.3" y2="320.8"/>
	<line fill="none" stroke="#000000" stroke-width="0.384" x1="1563.2" y1="300.3" x2="1563.2" y2="320.8"/>
	<line fill="none" stroke="#000000" stroke-width="0.384" x1="1694.1" y1="300.3" x2="1694.1" y2="320.8"/>
	<line fill="none" stroke="#000000" stroke-width="0.384" x1="1825.1" y1="300.3" x2="1825.1" y2="320.8"/>
	<line fill="none" stroke="#000000" stroke-width="0.384" x1="1956" y1="300.3" x2="1956" y2="320.8"/>
	<line fill="none" stroke="#000000" stroke-width="0.384" x1="2086.9" y1="300.3" x2="2086.9" y2="320.8"/>
	<line fill="none" stroke="#000000" stroke-width="0.384" x1="2217.8" y1="300.3" x2="2217.8" y2="320.8"/>
	<line fill="none" stroke="#000000" stroke-width="0.384" x1="2348.7" y1="300.3" x2="2348.7" y2="320.8"/>
	<line fill="none" stroke="#000000" stroke-width="0.384" x1="2479.6" y1="300.3" x2="2479.6" y2="320.8"/>
	<line fill="none" stroke="#000000" stroke-width="0.384" x1="2610.5" y1="300.3" x2="2610.5" y2="320.8"/>
	<line fill="none" stroke="#000000" stroke-width="0.384" x1="2741.4" y1="300.3" x2="2741.4" y2="320.8"/>
	<line fill="none" stroke="#000000" stroke-width="0.384" x1="2872.3" y1="300.3" x2="2872.3" y2="320.8"/>
	<line fill="none" stroke="#000000" stroke-width="0.384" x1="3003.2" y1="300.3" x2="3003.2" y2="320.8"/>
	<line fill="none" stroke="#000000" stroke-width="0.384" x1="3134.1" y1="300.3" x2="3134.1" y2="320.8"/>
	<line fill="none" stroke="#000000" stroke-width="0.384" x1="3265" y1="300.3" x2="3265" y2="320.8"/>
	<line fill="none" stroke="#000000" stroke-width="0.384" x1="3395.9" y1="300.3" x2="3395.9" y2="320.8"/>
	<line fill="none" stroke="#000000" stroke-width="0.384" x1="3526.8" y1="300.3" x2="3526.8" y2="320.8"/>
	<line fill="none" stroke="#000000" stroke-width="0.384" x1="3657.7" y1="300.3" x2="3657.7" y2="320.8"/>
	<line fill="none" stroke="#000000" stroke-width="0.384" x1="3788.6" y1="300.3" x2="3788.6" y2="320.8"/>
	<line fill="none" stroke="#000000" stroke-width="0.384" x1="3919.5" y1="300.3" x2="3919.5" y2="320.8"/>
	<line fill="none" stroke="#000000" stroke-width="0.384" x1="4050.4" y1="300.3" x2="4050.4" y2="320.8"/>
	<line fill="none" stroke="#000000" stroke-width="0.384" x1="4181.3" y1="300.3" x2="4181.3" y2="320.8"/>
	<line fill="none" stroke="#000000" stroke-width="2.563" x1="4310.7" y1="300.3" x2="4310.7" y2="320.8"/>
	<line fill="none" stroke="#000000" stroke-width="0.384" x1="4306.7" y1="300.3" x2="4306.7" y2="320.8"/>
	<line fill="none" stroke="#000000" stroke-width="0.384" x1="1144.1" y1="310.6" x2="4312" y2="310.6"/>
	<g enable-background="new    ">
		<path d="M1181.2,314.6c-0.9,0-1.6,0.6-1.6,1.5c0,0.6,1,1.6,1,1.6l-0.2,0.2c0,0-2.4-1.4-2.6-2.9c-0.1-0.9,0.5-1.9,1.7-2
			c0.5,0,1.2,0.1,1.6,0.2c-1.9-1.9-3-3.2-2.8-3.6c0.4-0.5,1.8-2.2,1.8-3.7c0-0.9-1.4-3.1-1.4-3.1l0.3-0.2l3.7,4.7
			c0,0-1.8,2.1-1.8,3.6c0,1,0.7,1.9,1.1,2.5c0.2,0.3,1,1.1,1,1.3l0,0.3C1182.2,314.7,1181.6,314.6,1181.2,314.6z"/>
	</g>
	<g enable-background="new    ">
		<path d="M1217.1,297.5c0.7,0.9,1.5,2,2.3,3.3c0.7,1.1,1.2,2.9,1.3,3.8c0.1,0.8,0.2,1.7,0.2,2.5c0,1.2-0.2,2.4-0.6,3.5l-0.2,0
			c0.4-0.9,0.6-2.4,0.6-3.5c0-1-0.2-2.3-0.5-3.3c-0.6-1.8-1.6-2.9-2.3-3.3c-0.9-0.6-1.9-0.7-1.9-0.7h-0.3v-5.4h0.3
			C1215.9,295.5,1216.5,296.7,1217.1,297.5z"/>
	</g>
	<line fill="none" stroke="#000000" stroke-width="0.384" x1="1215.4" y1="312.3" x2="1215.4" y2="295.2"/>
	<g enable-background="new    ">
		<path d="M1212.8,310.6c1.7,0,2.7,1.2,2.2,2.7c-0.5,1.5-2.4,2.6-4.1,2.6c-1.7,0-2.7-1.2-2.1-2.7
			C1209.3,311.7,1211.1,310.5,1212.8,310.6z"/>
	</g>
	<g enable-background="new    ">
		<path d="M1227.1,308.4c0.4,0,0.8-0.1,1.1-0.5c0.3-0.3,0.5-0.6,0.9-1l0.3,0.2l-2.3,8.6h-0.8c0,0,0.8-2.4,1.1-3.4
			c0.9-2.4,1.1-3.8,1.1-3.8c-0.5,0.4-1.7,1.2-2.7,1.3c-2.2,0.1-2.6-3-0.4-3.6C1226.9,305.9,1227.4,307.6,1227.1,308.4z"/>
	</g>
	<g enable-background="new    ">
		<path d="M1243.1,314.6c-0.9,0-1.6,0.6-1.6,1.5c0,0.6,1,1.6,1,1.6l-0.2,0.2c0,0-2.4-1.4-2.6-2.9c-0.1-0.9,0.5-1.9,1.7-2
			c0.5,0,1.2,0.1,1.6,0.2c-1.9-1.9-3-3.2-2.8-3.6c0.4-0.5,1.8-2.2,1.8-3.7c0-0.9-1.4-3.1-1.4-3.1l0.3-0.2l3.7,4.7
			c0,0-1.8,2.1-1.8,3.6c0,1,0.7,1.9,1.1,2.5c0.2,0.3,1,1.1,1,1.3l0,0.3C1244.1,314.7,1243.6,314.6,1243.1,314.6z"/>
	</g>
	<g enable-background="new    ">
		<path d="M1278.8,297.5c0.7,0.9,1.5,2,2.3,3.3c0.7,1.1,1.2,2.9,1.3,3.8c0.1,0.8,0.2,1.7,0.2,2.5c0,1.2-0.2,2.4-0.6,3.5l-0.2,0
			c0.4-0.9,0.6-2.4,0.6-3.5c0-1-0.2-2.3-0.5-3.3c-0.6-1.8-1.6-2.9-2.3-3.3c-0.9-0.6-1.9-0.7-1.9-0.7h-0.3v-5.4h0.3
			C1277.6,295.5,1278.2,296.7,1278.8,297.5z"/>
	</g>
	<line fill="none" stroke="#000000" stroke-width="0.384" x1="1277.1" y1="312.3" x2="1277.1" y2="295.2"/>
	<g enable-background="new    ">
		<path d="M1274.5,310.6c1.7,0,2.7,1.2,2.2,2.7c-0.5,1.5-2.4,2.6-4.1,2.6c-1.7,0-2.7-1.2-2.1-2.7
			C1271,311.7,1272.8,310.5,1274.5,310.6z"/>
	</g>
	<g enable-background="new    ">
		<path d="M1289,308.4c0.4,0,0.8-0.1,1.1-0.5c0.3-0.3,0.5-0.6,0.9-1l0.3,0.2l-2.3,8.6h-0.8c0,0,0.8-2.4,1.1-3.4
			c0.9-2.4,1.1-3.8,1.1-3.8c-0.5,0.4-1.7,1.2-2.7,1.3c-2.2,0.1-2.6-3-0.4-3.6C1288.9,305.9,1289.3,307.6,1289,308.4z"/>
	</g>
	<g enable-background="new    ">
		<path d="M1176.7,290.9l2.3-6.1h0.9l2.5,6.1h-0.9l-0.7-1.9h-2.6l-0.7,1.9H1176.7z M1178.5,288.4h2.1l-0.6-1.7
			c-0.2-0.5-0.3-0.9-0.4-1.3c-0.1,0.4-0.2,0.8-0.3,1.2L1178.5,288.4z"/>
	</g>
	<g enable-background="new    ">
		<path d="M1315.9,308v2.6h-6.5V308H1315.9z"/>
	</g>
	<line fill="none" stroke="#000000" stroke-width="0.384" x1="1308.7" y1="310.6" x2="1317.1" y2="310.6"/>
	<g enable-background="new    ">
		<path d="M1379.4,314.6c-0.9,0-1.6,0.6-1.6,1.5c0,0.6,1,1.6,1,1.6l-0.2,0.2c0,0-2.4-1.4-2.6-2.9c-0.1-0.9,0.5-1.9,1.7-2
			c0.5,0,1.2,0.1,1.6,0.2c-1.9-1.9-3-3.2-2.8-3.6c0.4-0.5,1.8-2.2,1.8-3.7c0-0.9-1.4-3.1-1.4-3.1l0.3-0.2l3.7,4.7
			c0,0-1.8,2.1-1.8,3.6c0,1,0.7,1.9,1.1,2.5c0.2,0.3,1,1.1,1,1.3l0,0.3C1380.4,314.7,1379.8,314.6,1379.4,314.6z"/>
	</g>
	<line fill="none" stroke="#000000" stroke-width="0.384" x1="1410.8" y1="312.3" x2="1410.8" y2="295.2"/>
	<g enable-background="new    ">
		<path d="M1408.2,310.6c1.7,0,2.7,1.2,2.2,2.7c-0.5,1.5-2.4,2.6-4.1,2.6c-1.7,0-2.7-1.2-2.1-2.7
			C1404.7,311.7,1406.5,310.5,1408.2,310.6z"/>
	</g>
	<g enable-background="new    ">
		<path d="M1443,314.6c-0.9,0-1.6,0.6-1.6,1.5c0,0.6,1,1.6,1,1.6l-0.2,0.2c0,0-2.4-1.4-2.6-2.9c-0.1-0.9,0.5-1.9,1.7-2
			c0.5,0,1.2,0.1,1.6,0.2c-1.9-1.9-3-3.2-2.8-3.6c0.4-0.5,1.8-2.2,1.8-3.7c0-0.9-1.4-3.1-1.4-3.1l0.3-0.2l3.7,4.7
			c0,0-1.8,2.1-1.8,3.6c0,1,0.7,1.9,1.1,2.5c0.2,0.3,1,1.1,1,1.3l0,0.3C1444,314.7,1443.4,314.6,1443,314.6z"/>
	</g>
	<g enable-background="new    ">
		<path d="M1478.9,297.5c0.7,0.9,1.5,2,2.3,3.3c0.7,1.1,1.2,2.9,1.3,3.8c0.1,0.8,0.2,1.7,0.2,2.5c0,1.2-0.2,2.4-0.6,3.5l-0.2,0
			c0.4-0.9,0.6-2.4,0.6-3.5c0-1-0.2-2.3-0.5-3.3c-0.6-1.8-1.6-2.9-2.3-3.3c-0.9-0.6-1.9-0.7-1.9-0.7h-0.3v-5.4h0.3
			C1477.7,295.5,1478.3,296.7,1478.9,297.5z"/>
	</g>
	<line fill="none" stroke="#000000" stroke-width="0.384" x1="1477.2" y1="312.3" x2="1477.2" y2="295.2"/>
	<g enable-background="new    ">
		<path d="M1474.6,310.6c1.7,0,2.7,1.2,2.2,2.7c-0.5,1.5-2.4,2.6-4.1,2.6c-1.7,0-2.7-1.2-2.1-2.7
			C1471.1,311.7,1472.9,310.5,1474.6,310.6z"/>
	</g>
	<g enable-background="new    ">
		<path d="M1488.9,308.4c0.4,0,0.8-0.1,1.1-0.5c0.3-0.3,0.5-0.6,0.9-1l0.3,0.2l-2.3,8.6h-0.8c0,0,0.8-2.4,1.1-3.4
			c0.9-2.4,1.1-3.8,1.1-3.8c-0.5,0.4-1.7,1.2-2.7,1.3c-2.2,0.1-2.6-3-0.4-3.6C1488.7,305.9,1489.2,307.6,1488.9,308.4z"/>
	</g>
	<g enable-background="new    ">
		<path d="M1504.9,314.6c-0.9,0-1.6,0.6-1.6,1.5c0,0.6,1,1.6,1,1.6l-0.2,0.2c0,0-2.4-1.4-2.6-2.9c-0.1-0.9,0.5-1.9,1.7-2
			c0.5,0,1.2,0.1,1.6,0.2c-1.9-1.9-3-3.2-2.8-3.6c0.4-0.5,1.8-2.2,1.8-3.7c0-0.9-1.4-3.1-1.4-3.1l0.3-0.2l3.7,4.7
			c0,0-1.8,2.1-1.8,3.6c0,1,0.7,1.9,1.1,2.5c0.2,0.3,1,1.1,1,1.3l0,0.3C1505.9,314.7,1505.4,314.6,1504.9,314.6z"/>
	</g>
	<g enable-background="new    ">
		<path d="M1540.6,297.5c0.7,0.9,1.5,2,2.3,3.3c0.7,1.1,1.2,2.9,1.3,3.8c0.1,0.8,0.2,1.7,0.2,2.5c0,1.2-0.2,2.4-0.6,3.5l-0.2,0
			c0.4-0.9,0.6-2.4,0.6-3.5c0-1-0.2-2.3-0.5-3.3c-0.6-1.8-1.6-2.9-2.3-3.3c-0.9-0.6-1.9-0.7-1.9-0.7h-0.3v-5.4h0.3
			C1539.4,295.5,1540,296.7,1540.6,297.5z"/>
	</g>
	<line fill="none" stroke="#000000" stroke-width="0.384" x1="1538.9" y1="312.3" x2="1538.9" y2="295.2"/>
	<g enable-background="new    ">
		<path d="M1536.3,310.6c1.7,0,2.7,1.2,2.2,2.7c-0.5,1.5-2.4,2.6-4.1,2.6c-1.7,0-2.7-1.2-2.1-2.7
			C1532.8,311.7,1534.6,310.5,1536.3,310.6z"/>
	</g>
	<g enable-background="new    ">
		<path d="M1550.8,308.4c0.4,0,0.8-0.1,1.1-0.5c0.3-0.3,0.5-0.6,0.9-1l0.3,0.2l-2.3,8.6h-0.8c0,0,0.8-2.4,1.1-3.4
			c0.9-2.4,1.1-3.8,1.1-3.8c-0.5,0.4-1.7,1.2-2.7,1.3c-2.2,0.1-2.6-3-0.4-3.6C1550.7,305.9,1551.1,307.6,1550.8,308.4z"/>
	</g>
	<g enable-background="new    ">
		<path d="M1577.7,308v2.6h-6.5V308H1577.7z"/>
	</g>
	<line fill="none" stroke="#000000" stroke-width="0.384" x1="1570.5" y1="310.6" x2="1578.9" y2="310.6"/>
	<g enable-background="new    ">
		<path d="M1641.2,314.6c-0.9,0-1.6,0.6-1.6,1.5c0,0.6,1,1.6,1,1.6l-0.2,0.2c0,0-2.4-1.4-2.6-2.9c-0.1-0.9,0.5-1.9,1.7-2
			c0.5,0,1.2,0.1,1.6,0.2c-1.9-1.9-3-3.2-2.8-3.6c0.4-0.5,1.8-2.2,1.8-3.7c0-0.9-1.4-3.1-1.4-3.1l0.3-0.2l3.7,4.7
			c0,0-1.8,2.1-1.8,3.6c0,1,0.7,1.9,1.1,2.5c0.2,0.3,1,1.1,1,1.3l0,0.3C1642.2,314.7,1641.6,314.6,1641.2,314.6z"/>
	</g>
	<line fill="none" stroke="#000000" stroke-width="0.384" x1="1672.6" y1="312.3" x2="1672.6" y2="295.2"/>
	<g enable-background="new    ">
		<path d="M1670,310.6c1.7,0,2.7,1.2,2.2,2.7c-0.5,1.5-2.4,2.6-4.1,2.6c-1.7,0-2.7-1.2-2.1-2.7
			C1666.5,311.7,1668.3,310.5,1670,310.6z"/>
	</g>
	<g enable-background="new    ">
		<path d="M1704.8,314.6c-0.9,0-1.6,0.6-1.6,1.5c0,0.6,1,1.6,1,1.6l-0.2,0.2c0,0-2.4-1.4-2.6-2.9c-0.1-0.9,0.5-1.9,1.7-2
			c0.5,0,1.2,0.1,1.6,0.2c-1.9-1.9-3-3.2-2.8-3.6c0.4-0.5,1.8-2.2,1.8-3.7c0-0.9-1.4-3.1-1.4-3.1l0.3-0.2l3.7,4.7
			c0,0-1.8,2.1-1.8,3.6c0,1,0.7,1.9,1.1,2.5c0.2,0.3,1,1.1,1,1.3l0,0.3C1705.8,314.7,1705.2,314.6,1704.8,314.6z"/>
	</g>
	<g enable-background="new    ">
		<path d="M1740.7,297.5c0.7,0.9,1.5,2,2.3,3.3c0.7,1.1,1.2,2.9,1.3,3.8c0.1,0.8,0.2,1.7,0.2,2.5c0,1.2-0.2,2.4-0.6,3.5l-0.2,0
			c0.4-0.9,0.6-2.4,0.6-3.5c0-1-0.2-2.3-0.5-3.3c-0.6-1.8-1.6-2.9-2.3-3.3c-0.9-0.6-1.9-0.7-1.9-0.7h-0.3v-5.4h0.3
			C1739.5,295.5,1740.1,296.7,1740.7,297.5z"/>
	</g>
	<line fill="none" stroke="#000000" stroke-width="0.384" x1="1739" y1="312.3" x2="1739" y2="295.2"/>
	<g enable-background="new    ">
		<path d="M1736.4,310.6c1.7,0,2.7,1.2,2.2,2.7c-0.5,1.5-2.4,2.6-4.1,2.6c-1.7,0-2.7-1.2-2.1-2.7
			C1732.9,311.7,1734.7,310.5,1736.4,310.6z"/>
	</g>
	<g enable-background="new    ">
		<path d="M1750.7,308.4c0.4,0,0.8-0.1,1.1-0.5c0.3-0.3,0.5-0.6,0.9-1l0.3,0.2l-2.3,8.6h-0.8c0,0,0.8-2.4,1.1-3.4
			c0.9-2.4,1.1-3.8,1.1-3.8c-0.5,0.4-1.7,1.2-2.7,1.3c-2.2,0.1-2.6-3-0.4-3.6C1750.5,305.9,1751,307.6,1750.7,308.4z"/>
	</g>
	<g enable-background="new    ">
		<path d="M1766.7,314.6c-0.9,0-1.6,0.6-1.6,1.5c0,0.6,1,1.6,1,1.6l-0.2,0.2c0,0-2.4-1.4-2.6-2.9c-0.1-0.9,0.5-1.9,1.7-2
			c0.5,0,1.2,0.1,1.6,0.2c-1.9-1.9-3-3.2-2.8-3.6c0.4-0.5,1.8-2.2,1.8-3.7c0-0.9-1.4-3.1-1.4-3.1l0.3-0.2l3.7,4.7
			c0,0-1.8,2.1-1.8,3.6c0,1,0.7,1.9,1.1,2.5c0.2,0.3,1,1.1,1,1.3l0,0.3C1767.7,314.7,1767.2,314.6,1766.7,314.6z"/>
	</g>
	<g enable-background="new    ">
		<path d="M1802.4,297.5c0.7,0.9,1.5,2,2.3,3.3c0.7,1.1,1.2,2.9,1.3,3.8c0.1,0.8,0.2,1.7,0.2,2.5c0,1.2-0.2,2.4-0.6,3.5l-0.2,0
			c0.4-0.9,0.6-2.4,0.6-3.5c0-1-0.2-2.3-0.5-3.3c-0.6-1.8-1.6-2.9-2.3-3.3c-0.9-0.6-1.9-0.7-1.9-0.7h-0.3v-5.4h0.3
			C1801.2,295.5,1801.8,296.7,1802.4,297.5z"/>
	</g>
	<line fill="none" stroke="#000000" stroke-width="0.384" x1="1800.7" y1="312.3" x2="1800.7" y2="295.2"/>
	<g enable-background="new    ">
		<path d="M1798.1,310.6c1.7,0,2.7,1.2,2.2,2.7c-0.5,1.5-2.4,2.6-4.1,2.6c-1.7,0-2.7-1.2-2.1-2.7
			C1794.6,311.7,1796.4,310.5,1798.1,310.6z"/>
	</g>
	<g enable-background="new    ">
		<path d="M1812.6,308.4c0.4,0,0.8-0.1,1.1-0.5c0.3-0.3,0.5-0.6,0.9-1l0.3,0.2l-2.3,8.6h-0.8c0,0,0.8-2.4,1.1-3.4
			c0.9-2.4,1.1-3.8,1.1-3.8c-0.5,0.4-1.7,1.2-2.7,1.3c-2.2,0.1-2.6-3-0.4-3.6C1812.5,305.9,1812.9,307.6,1812.6,308.4z"/>
	</g>
	<g enable-background="new    ">
		<path d="M1839.5,308v2.6h-6.5V308H1839.5z"/>
	</g>
	<line fill="none" stroke="#000000" stroke-width="0.384" x1="1832.3" y1="310.6" x2="1840.7" y2="310.6"/>
	<g enable-background="new    ">
		<path d="M1903,314.6c-0.9,0-1.6,0.6-1.6,1.5c0,0.6,1,1.6,1,1.6l-0.2,0.2c0,0-2.4-1.4-2.6-2.9c-0.1-0.9,0.5-1.9,1.7-2
			c0.5,0,1.2,0.1,1.6,0.2c-1.9-1.9-3-3.2-2.8-3.6c0.4-0.5,1.8-2.2,1.8-3.7c0-0.9-1.4-3.1-1.4-3.1l0.3-0.2l3.7,4.7
			c0,0-1.8,2.1-1.8,3.6c0,1,0.7,1.9,1.1,2.5c0.2,0.3,1,1.1,1,1.3l0,0.3C1904,314.7,1903.4,314.6,1903,314.6z"/>
	</g>
	<line fill="none" stroke="#000000" stroke-width="0.384" x1="1934.4" y1="312.3" x2="1934.4" y2="295.2"/>
	<g enable-background="new    ">
		<path d="M1931.8,310.6c1.7,0,2.7,1.2,2.2,2.7c-0.5,1.5-2.4,2.6-4.1,2.6c-1.7,0-2.7-1.2-2.1-2.7
			C1928.3,311.7,1930.1,310.5,1931.8,310.6z"/>
	</g>
	<g enable-background="new    ">
		<path d="M1966.6,314.6c-0.9,0-1.6,0.6-1.6,1.5c0,0.6,1,1.6,1,1.6l-0.2,0.2c0,0-2.4-1.4-2.6-2.9c-0.1-0.9,0.5-1.9,1.7-2
			c0.5,0,1.2,0.1,1.6,0.2c-1.9-1.9-3-3.2-2.8-3.6c0.4-0.5,1.8-2.2,1.8-3.7c0-0.9-1.4-3.1-1.4-3.1l0.3-0.2l3.7,4.7
			c0,0-1.8,2.1-1.8,3.6c0,1,0.7,1.9,1.1,2.5c0.2,0.3,1,1.1,1,1.3l0,0.3C1967.6,314.7,1967,314.6,1966.6,314.6z"/>
	</g>
	<g enable-background="new    ">
		<path d="M2002.5,297.5c0.7,0.9,1.5,2,2.3,3.3c0.7,1.1,1.2,2.9,1.3,3.8c0.1,0.8,0.2,1.7,0.2,2.5c0,1.2-0.2,2.4-0.6,3.5l-0.2,0
			c0.4-0.9,0.6-2.4,0.6-3.5c0-1-0.2-2.3-0.5-3.3c-0.6-1.8-1.6-2.9-2.3-3.3c-0.9-0.6-1.9-0.7-1.9-0.7h-0.3v-5.4h0.3
			C2001.3,295.5,2001.9,296.7,2002.5,297.5z"/>
	</g>
	<line fill="none" stroke="#000000" stroke-width="0.384" x1="2000.8" y1="312.3" x2="2000.8" y2="295.2"/>
	<g enable-background="new    ">
		<path d="M1998.2,310.6c1.7,0,2.7,1.2,2.2,2.7c-0.5,1.5-2.4,2.6-4.1,2.6c-1.7,0-2.7-1.2-2.1-2.7
			C1994.7,311.7,1996.5,310.5,1998.2,310.6z"/>
	</g>
	<g enable-background="new    ">
		<path d="M2012.5,308.4c0.4,0,0.8-0.1,1.1-0.5c0.3-0.3,0.5-0.6,0.9-1l0.3,0.2l-2.3,8.6h-0.8c0,0,0.8-2.4,1.1-3.4
			c0.9-2.4,1.1-3.8,1.1-3.8c-0.5,0.4-1.7,1.2-2.7,1.3c-2.2,0.1-2.6-3-0.4-3.6C2012.3,305.9,2012.8,307.6,2012.5,308.4z"/>
	</g>
	<g enable-background="new    ">
		<path d="M2028.5,314.6c-0.9,0-1.6,0.6-1.6,1.5c0,0.6,1,1.6,1,1.6l-0.2,0.2c0,0-2.4-1.4-2.6-2.9c-0.1-0.9,0.5-1.9,1.7-2
			c0.5,0,1.2,0.1,1.6,0.2c-1.9-1.9-3-3.2-2.8-3.6c0.4-0.5,1.8-2.2,1.8-3.7c0-0.9-1.4-3.1-1.4-3.1l0.3-0.2l3.7,4.7
			c0,0-1.8,2.1-1.8,3.6c0,1,0.7,1.9,1.1,2.5c0.2,0.3,1,1.1,1,1.3l0,0.3C2029.5,314.7,2029,314.6,2028.5,314.6z"/>
	</g>
	<g enable-background="new    ">
		<path d="M2064.2,297.5c0.7,0.9,1.5,2,2.3,3.3c0.7,1.1,1.2,2.9,1.3,3.8c0.1,0.8,0.2,1.7,0.2,2.5c0,1.2-0.2,2.4-0.6,3.5l-0.2,0
			c0.4-0.9,0.6-2.4,0.6-3.5c0-1-0.2-2.3-0.5-3.3c-0.6-1.8-1.6-2.9-2.3-3.3c-0.9-0.6-1.9-0.7-1.9-0.7h-0.3v-5.4h0.3
			C2063,295.5,2063.6,296.7,2064.2,297.5z"/>
	</g>
	<line fill="none" stroke="#000000" stroke-width="0.384" x1="2062.5" y1="312.3" x2="2062.5" y2="295.2"/>
	<g enable-background="new    ">
		<path d="M2059.9,310.6c1.7,0,2.7,1.2,2.2,2.7c-0.5,1.5-2.4,2.6-4.1,2.6c-1.7,0-2.7-1.2-2.1-2.7
			C2056.4,311.7,2058.2,310.5,2059.9,310.6z"/>
	</g>
	<g enable-background="new    ">
		<path d="M2074.4,308.4c0.4,0,0.8-0.1,1.1-0.5c0.3-0.3,0.5-0.6,0.9-1l0.3,0.2l-2.3,8.6h-0.8c0,0,0.8-2.4,1.1-3.4
			c0.9-2.4,1.1-3.8,1.1-3.8c-0.5,0.4-1.7,1.2-2.7,1.3c-2.2,0.1-2.6-3-0.4-3.6C2074.3,305.9,2074.7,307.6,2074.4,308.4z"/>
	</g>
	<g enable-background="new    ">
		<path d="M2101.3,308v2.6h-6.5V308H2101.3z"/>
	</g>
	<line fill="none" stroke="#000000" stroke-width="0.384" x1="2094.1" y1="310.6" x2="2102.5" y2="310.6"/>
	<g enable-background="new    ">
		<path d="M2164.8,314.6c-0.9,0-1.6,0.6-1.6,1.5c0,0.6,1,1.6,1,1.6l-0.2,0.2c0,0-2.4-1.4-2.6-2.9c-0.1-0.9,0.5-1.9,1.7-2
			c0.5,0,1.2,0.1,1.6,0.2c-1.9-1.9-3-3.2-2.8-3.6c0.4-0.5,1.8-2.2,1.8-3.7c0-0.9-1.4-3.1-1.4-3.1l0.3-0.2l3.7,4.7
			c0,0-1.8,2.1-1.8,3.6c0,1,0.7,1.9,1.1,2.5c0.2,0.3,1,1.1,1,1.3l0,0.3C2165.8,314.7,2165.2,314.6,2164.8,314.6z"/>
	</g>
	<line fill="none" stroke="#000000" stroke-width="0.384" x1="2196.2" y1="312.3" x2="2196.2" y2="295.2"/>
	<g enable-background="new    ">
		<path d="M2193.6,310.6c1.7,0,2.7,1.2,2.2,2.7c-0.5,1.5-2.4,2.6-4.1,2.6c-1.7,0-2.7-1.2-2.1-2.7
			C2190.1,311.7,2191.9,310.5,2193.6,310.6z"/>
	</g>
	<line fill="none" stroke="#000000" stroke-width="0.384" x1="2232.5" y1="312.3" x2="2232.5" y2="295.2"/>
	<g enable-background="new    ">
		<path d="M2229.9,310.6c1.7,0,2.7,1.2,2.2,2.7c-0.5,1.5-2.4,2.6-4.1,2.6c-1.7,0-2.7-1.2-2.1-2.7
			C2226.4,311.7,2228.2,310.5,2229.9,310.6z"/>
	</g>
	<line fill="none" stroke="#000000" stroke-width="0.384" x1="2263.2" y1="312.3" x2="2263.2" y2="295.2"/>
	<g enable-background="new    ">
		<path d="M2260.7,310.6c1.7,0,2.7,1.2,2.2,2.7c-0.5,1.5-2.4,2.6-4.1,2.6c-1.7,0-2.7-1.2-2.1-2.7
			C2257.1,311.7,2258.9,310.5,2260.7,310.6z"/>
	</g>
	<line fill="none" stroke="#000000" stroke-width="0.384" x1="2294" y1="312.3" x2="2294" y2="295.2"/>
	<g enable-background="new    ">
		<path d="M2291.4,310.6c1.7,0,2.7,1.2,2.2,2.7c-0.5,1.5-2.4,2.6-4.1,2.6c-1.7,0-2.7-1.2-2.1-2.7
			C2287.9,311.7,2289.7,310.5,2291.4,310.6z"/>
	</g>
	<g enable-background="new    ">
		<path d="M2321.3,314.6c-0.9,0-1.6,0.6-1.6,1.5c0,0.6,1,1.6,1,1.6l-0.2,0.2c0,0-2.4-1.4-2.6-2.9c-0.1-0.9,0.5-1.9,1.7-2
			c0.5,0,1.2,0.1,1.6,0.2c-1.9-1.9-3-3.2-2.8-3.6c0.4-0.5,1.8-2.2,1.8-3.7c0-0.9-1.4-3.1-1.4-3.1l0.3-0.2l3.7,4.7
			c0,0-1.8,2.1-1.8,3.6c0,1,0.7,1.9,1.1,2.5c0.2,0.3,1,1.1,1,1.3l0,0.3C2322.3,314.7,2321.7,314.6,2321.3,314.6z"/>
	</g>
	<g enable-background="new    ">
		<path d="M2225.4,291.8v-6.1h2.3c0.5,0,0.8,0.1,1.1,0.2s0.5,0.3,0.7,0.6c0.2,0.3,0.2,0.5,0.2,0.8c0,0.3-0.1,0.5-0.2,0.7
			c-0.1,0.2-0.4,0.4-0.6,0.6c0.4,0.1,0.7,0.3,0.9,0.6c0.2,0.3,0.3,0.6,0.3,0.9c0,0.3-0.1,0.6-0.2,0.8c-0.1,0.2-0.3,0.4-0.4,0.6
			c-0.2,0.1-0.4,0.2-0.7,0.3c-0.3,0.1-0.6,0.1-1,0.1H2225.4z M2226.3,288.3h1.3c0.4,0,0.6,0,0.8-0.1c0.2-0.1,0.4-0.2,0.5-0.3
			c0.1-0.1,0.2-0.3,0.2-0.5c0-0.2,0-0.4-0.1-0.5s-0.2-0.3-0.4-0.3c-0.2-0.1-0.5-0.1-0.9-0.1h-1.2V288.3z M2226.3,291.1h1.5
			c0.3,0,0.4,0,0.6,0c0.2,0,0.3-0.1,0.5-0.2c0.1-0.1,0.2-0.2,0.3-0.3c0.1-0.1,0.1-0.3,0.1-0.5c0-0.2-0.1-0.4-0.2-0.6
			c-0.1-0.2-0.3-0.3-0.5-0.4c-0.2-0.1-0.5-0.1-0.9-0.1h-1.4V291.1z"/>
	</g>
	<g enable-background="new    ">
		<path d="M2417.1,310.6v3h-6.5v-3H2417.1z"/>
	</g>
	<line fill="none" stroke="#000000" stroke-width="0.384" x1="2410" y1="310.6" x2="2418.3" y2="310.6"/>
	<g enable-background="new    ">
		<path d="M2548,310.6v3h-6.5v-3H2548z"/>
	</g>
	<line fill="none" stroke="#000000" stroke-width="0.384" x1="2540.9" y1="310.6" x2="2549.2" y2="310.6"/>
	<g enable-background="new    ">
		<path d="M2678.9,310.6v3h-6.5v-3H2678.9z"/>
	</g>
	<line fill="none" stroke="#000000" stroke-width="0.384" x1="2671.8" y1="310.6" x2="2680.1" y2="310.6"/>
	<line fill="none" stroke="#000000" stroke-width="0.384" x1="2756.1" y1="312.3" x2="2756.1" y2="295.2"/>
	<g enable-background="new    ">
		<path d="M2753.5,310.6c1.7,0,2.7,1.2,2.2,2.7c-0.5,1.5-2.4,2.6-4.1,2.6c-1.7,0-2.7-1.2-2.1-2.7
			C2750,311.7,2751.8,310.5,2753.5,310.6z"/>
	</g>
	<line fill="none" stroke="#000000" stroke-width="0.384" x1="2786.8" y1="312.3" x2="2786.8" y2="295.2"/>
	<g enable-background="new    ">
		<path d="M2784.3,310.6c1.7,0,2.7,1.2,2.2,2.7c-0.5,1.5-2.4,2.6-4.1,2.6c-1.7,0-2.7-1.2-2.1-2.7
			C2780.7,311.7,2782.6,310.5,2784.3,310.6z"/>
	</g>
	<line fill="none" stroke="#000000" stroke-width="0.384" x1="2817.6" y1="312.3" x2="2817.6" y2="295.2"/>
	<g enable-background="new    ">
		<path d="M2815,310.6c1.7,0,2.7,1.2,2.2,2.7c-0.5,1.5-2.4,2.6-4.1,2.6c-1.7,0-2.7-1.2-2.1-2.7
			C2811.5,311.7,2813.3,310.5,2815,310.6z"/>
	</g>
	<g enable-background="new    ">
		<path d="M2844.9,314.6c-0.9,0-1.6,0.6-1.6,1.5c0,0.6,1,1.6,1,1.6l-0.2,0.2c0,0-2.4-1.4-2.6-2.9c-0.1-0.9,0.5-1.9,1.7-2
			c0.5,0,1.2,0.1,1.6,0.2c-1.9-1.9-3-3.2-2.8-3.6c0.4-0.5,1.8-2.2,1.8-3.7c0-0.9-1.4-3.1-1.4-3.1l0.3-0.2l3.7,4.7
			c0,0-1.8,2.1-1.8,3.6c0,1,0.7,1.9,1.1,2.5c0.2,0.3,1,1.1,1,1.3l0,0.3C2845.9,314.7,2845.3,314.6,2844.9,314.6z"/>
	</g>
	<g enable-background="new    ">
		<path d="M2940.7,310.6v3h-6.5v-3H2940.7z"/>
	</g>
	<line fill="none" stroke="#000000" stroke-width="0.384" x1="2933.6" y1="310.6" x2="2941.9" y2="310.6"/>
	<g enable-background="new    ">
		<path d="M3071.6,310.6v3h-6.5v-3H3071.6z"/>
	</g>
	<line fill="none" stroke="#000000" stroke-width="0.384" x1="3064.5" y1="310.6" x2="3072.8" y2="310.6"/>
	<g enable-background="new    ">
		<path d="M3202.5,310.6v3h-6.5v-3H3202.5z"/>
	</g>
	<line fill="none" stroke="#000000" stroke-width="0.384" x1="3195.4" y1="310.6" x2="3203.7" y2="310.6"/>
	<g enable-background="new    ">
		<path d="M3275.6,314.6c-0.9,0-1.6,0.6-1.6,1.5c0,0.6,1,1.6,1,1.6l-0.2,0.2c0,0-2.4-1.4-2.6-2.9c-0.1-0.9,0.5-1.9,1.7-2
			c0.5,0,1.2,0.1,1.6,0.2c-1.9-1.9-3-3.2-2.8-3.6c0.4-0.5,1.8-2.2,1.8-3.7c0-0.9-1.4-3.1-1.4-3.1l0.3-0.2l3.7,4.7
			c0,0-1.8,2.1-1.8,3.6c0,1,0.7,1.9,1.1,2.5c0.2,0.3,1,1.1,1,1.3l0,0.3C3276.6,314.7,3276,314.6,3275.6,314.6z"/>
	</g>
	<g enable-background="new    ">
		<path d="M3311.5,297.5c0.7,0.9,1.5,2,2.3,3.3c0.7,1.1,1.2,2.9,1.3,3.8c0.1,0.8,0.2,1.7,0.2,2.5c0,1.2-0.2,2.4-0.6,3.5l-0.2,0
			c0.4-0.9,0.6-2.4,0.6-3.5c0-1-0.2-2.3-0.5-3.3c-0.6-1.8-1.6-2.9-2.3-3.3c-0.9-0.6-1.9-0.7-1.9-0.7h-0.3v-5.4h0.3
			C3310.3,295.5,3310.9,296.7,3311.5,297.5z"/>
	</g>
	<line fill="none" stroke="#000000" stroke-width="0.384" x1="3309.8" y1="312.3" x2="3309.8" y2="295.2"/>
	<g enable-background="new    ">
		<path d="M3307.2,310.6c1.7,0,2.7,1.2,2.2,2.7c-0.5,1.5-2.4,2.6-4.1,2.6s-2.7-1.2-2.1-2.7C3303.7,311.7,3305.5,310.5,3307.2,310.6z
			"/>
	</g>
	<g enable-background="new    ">
		<path d="M3321.5,308.4c0.4,0,0.8-0.1,1.1-0.5c0.3-0.3,0.5-0.6,0.9-1l0.3,0.2l-2.3,8.6h-0.8c0,0,0.8-2.4,1.1-3.4
			c0.9-2.4,1.1-3.8,1.1-3.8c-0.5,0.4-1.7,1.2-2.7,1.3c-2.2,0.1-2.6-3-0.4-3.6C3321.3,305.9,3321.8,307.6,3321.5,308.4z"/>
	</g>
	<g enable-background="new    ">
		<path d="M3337.5,314.6c-0.9,0-1.6,0.6-1.6,1.5c0,0.6,1,1.6,1,1.6l-0.2,0.2c0,0-2.4-1.4-2.6-2.9c-0.1-0.9,0.5-1.9,1.7-2
			c0.5,0,1.2,0.1,1.6,0.2c-1.9-1.9-3-3.2-2.8-3.6c0.4-0.5,1.8-2.2,1.8-3.7c0-0.9-1.4-3.1-1.4-3.1l0.3-0.2l3.7,4.7
			c0,0-1.8,2.1-1.8,3.6c0,1,0.7,1.9,1.1,2.5c0.2,0.3,1,1.1,1,1.3l0,0.3C3338.5,314.7,3338,314.6,3337.5,314.6z"/>
	</g>
	<g enable-background="new    ">
		<path d="M3373.2,297.5c0.7,0.9,1.5,2,2.3,3.3c0.7,1.1,1.2,2.9,1.3,3.8c0.1,0.8,0.2,1.7,0.2,2.5c0,1.2-0.2,2.4-0.6,3.5l-0.2,0
			c0.4-0.9,0.6-2.4,0.6-3.5c0-1-0.2-2.3-0.5-3.3c-0.6-1.8-1.6-2.9-2.3-3.3c-0.9-0.6-1.9-0.7-1.9-0.7h-0.3v-5.4h0.3
			C3372,295.5,3372.6,296.7,3373.2,297.5z"/>
	</g>
	<line fill="none" stroke="#000000" stroke-width="0.384" x1="3371.5" y1="312.3" x2="3371.5" y2="295.2"/>
	<g enable-background="new    ">
		<path d="M3369,310.6c1.7,0,2.7,1.2,2.2,2.7c-0.5,1.5-2.4,2.6-4.1,2.6s-2.7-1.2-2.1-2.7C3365.4,311.7,3367.2,310.5,3369,310.6z"/>
	</g>
	<g enable-background="new    ">
		<path d="M3383.4,308.4c0.4,0,0.8-0.1,1.1-0.5c0.3-0.3,0.5-0.6,0.9-1l0.3,0.2l-2.3,8.6h-0.8c0,0,0.8-2.4,1.1-3.4
			c0.9-2.4,1.1-3.8,1.1-3.8c-0.5,0.4-1.7,1.2-2.7,1.3c-2.2,0.1-2.6-3-0.4-3.6C3383.3,305.9,3383.7,307.6,3383.4,308.4z"/>
	</g>
	<g enable-background="new    ">
		<path d="M3271.2,290.9l2.3-6.1h0.9l2.5,6.1h-0.9l-0.7-1.9h-2.6l-0.7,1.9H3271.2z M3272.9,288.4h2.1l-0.6-1.7
			c-0.2-0.5-0.3-0.9-0.4-1.3c-0.1,0.4-0.2,0.8-0.3,1.2L3272.9,288.4z"/>
	</g>
	<g enable-background="new    ">
		<path d="M3410.3,308v2.6h-6.5V308H3410.3z"/>
	</g>
	<line fill="none" stroke="#000000" stroke-width="0.384" x1="3403.1" y1="310.6" x2="3411.5" y2="310.6"/>
	<g enable-background="new    ">
		<path d="M3473.8,314.6c-0.9,0-1.6,0.6-1.6,1.5c0,0.6,1,1.6,1,1.6l-0.2,0.2c0,0-2.4-1.4-2.6-2.9c-0.1-0.9,0.5-1.9,1.7-2
			c0.5,0,1.2,0.1,1.6,0.2c-1.9-1.9-3-3.2-2.8-3.6c0.4-0.5,1.8-2.2,1.8-3.7c0-0.9-1.4-3.1-1.4-3.1l0.3-0.2l3.7,4.7
			c0,0-1.8,2.1-1.8,3.6c0,1,0.7,1.9,1.1,2.5c0.2,0.3,1,1.1,1,1.3l0,0.3C3474.8,314.7,3474.2,314.6,3473.8,314.6z"/>
	</g>
	<line fill="none" stroke="#000000" stroke-width="0.384" x1="3505.2" y1="312.3" x2="3505.2" y2="295.2"/>
	<g enable-background="new    ">
		<path d="M3502.6,310.6c1.7,0,2.7,1.2,2.2,2.7c-0.5,1.5-2.4,2.6-4.1,2.6c-1.7,0-2.7-1.2-2.1-2.7
			C3499.1,311.7,3500.9,310.5,3502.6,310.6z"/>
	</g>
	<g enable-background="new    ">
		<path d="M3537.4,314.6c-0.9,0-1.6,0.6-1.6,1.5c0,0.6,1,1.6,1,1.6l-0.2,0.2c0,0-2.4-1.4-2.6-2.9c-0.1-0.9,0.5-1.9,1.7-2
			c0.5,0,1.2,0.1,1.6,0.2c-1.9-1.9-3-3.2-2.8-3.6c0.4-0.5,1.8-2.2,1.8-3.7c0-0.9-1.4-3.1-1.4-3.1l0.3-0.2l3.7,4.7
			c0,0-1.8,2.1-1.8,3.6c0,1,0.7,1.9,1.1,2.5c0.2,0.3,1,1.1,1,1.3l0,0.3C3538.4,314.7,3537.8,314.6,3537.4,314.6z"/>
	</g>
	<g enable-background="new    ">
		<path d="M3573.3,297.5c0.7,0.9,1.5,2,2.3,3.3c0.7,1.1,1.2,2.9,1.3,3.8c0.1,0.8,0.2,1.7,0.2,2.5c0,1.2-0.2,2.4-0.6,3.5l-0.2,0
			c0.4-0.9,0.6-2.4,0.6-3.5c0-1-0.2-2.3-0.5-3.3c-0.6-1.8-1.6-2.9-2.3-3.3c-0.9-0.6-1.9-0.7-1.9-0.7h-0.3v-5.4h0.3
			C3572.1,295.5,3572.7,296.7,3573.3,297.5z"/>
	</g>
	<line fill="none" stroke="#000000" stroke-width="0.384" x1="3571.6" y1="312.3" x2="3571.6" y2="295.2"/>
	<g enable-background="new    ">
		<path d="M3569,310.6c1.7,0,2.7,1.2,2.2,2.7c-0.5,1.5-2.4,2.6-4.1,2.6c-1.7,0-2.7-1.2-2.1-2.7
			C3565.5,311.7,3567.3,310.5,3569,310.6z"/>
	</g>
	<g enable-background="new    ">
		<path d="M3583.3,308.4c0.4,0,0.8-0.1,1.1-0.5c0.3-0.3,0.5-0.6,0.9-1l0.3,0.2l-2.3,8.6h-0.8c0,0,0.8-2.4,1.1-3.4
			c0.9-2.4,1.1-3.8,1.1-3.8c-0.5,0.4-1.7,1.2-2.7,1.3c-2.2,0.1-2.6-3-0.4-3.6C3583.1,305.9,3583.6,307.6,3583.3,308.4z"/>
	</g>
	<g enable-background="new    ">
		<path d="M3599.3,314.6c-0.9,0-1.6,0.6-1.6,1.5c0,0.6,1,1.6,1,1.6l-0.2,0.2c0,0-2.4-1.4-2.6-2.9c-0.1-0.9,0.5-1.9,1.7-2
			c0.5,0,1.2,0.1,1.6,0.2c-1.9-1.9-3-3.2-2.8-3.6c0.4-0.5,1.8-2.2,1.8-3.7c0-0.9-1.4-3.1-1.4-3.1l0.3-0.2l3.7,4.7
			c0,0-1.8,2.1-1.8,3.6c0,1,0.7,1.9,1.1,2.5c0.2,0.3,1,1.1,1,1.3l0,0.3C3600.3,314.7,3599.8,314.6,3599.3,314.6z"/>
	</g>
	<g enable-background="new    ">
		<path d="M3635,297.5c0.7,0.9,1.5,2,2.3,3.3c0.7,1.1,1.2,2.9,1.3,3.8c0.1,0.8,0.2,1.7,0.2,2.5c0,1.2-0.2,2.4-0.6,3.5l-0.2,0
			c0.4-0.9,0.6-2.4,0.6-3.5c0-1-0.2-2.3-0.5-3.3c-0.6-1.8-1.6-2.9-2.3-3.3c-0.9-0.6-1.9-0.7-1.9-0.7h-0.3v-5.4h0.3
			C3633.8,295.5,3634.4,296.7,3635,297.5z"/>
	</g>
	<line fill="none" stroke="#000000" stroke-width="0.384" x1="3633.3" y1="312.3" x2="3633.3" y2="295.2"/>
	<g enable-background="new    ">
		<path d="M3630.8,310.6c1.7,0,2.7,1.2,2.2,2.7c-0.5,1.5-2.4,2.6-4.1,2.6c-1.7,0-2.7-1.2-2.1-2.7
			C3627.2,311.7,3629,310.5,3630.8,310.6z"/>
	</g>
	<g enable-background="new    ">
		<path d="M3645.2,308.4c0.4,0,0.8-0.1,1.1-0.5c0.3-0.3,0.5-0.6,0.9-1l0.3,0.2l-2.3,8.6h-0.8c0,0,0.8-2.4,1.1-3.4
			c0.9-2.4,1.1-3.8,1.1-3.8c-0.5,0.4-1.7,1.2-2.7,1.3c-2.2,0.1-2.6-3-0.4-3.6C3645.1,305.9,3645.5,307.6,3645.2,308.4z"/>
	</g>
	<g enable-background="new    ">
		<path d="M3672.1,308v2.6h-6.5V308H3672.1z"/>
	</g>
	<line fill="none" stroke="#000000" stroke-width="0.384" x1="3664.9" y1="310.6" x2="3673.3" y2="310.6"/>
	<g enable-background="new    ">
		<path d="M3735.6,314.6c-0.9,0-1.6,0.6-1.6,1.5c0,0.6,1,1.6,1,1.6l-0.2,0.2c0,0-2.4-1.4-2.6-2.9c-0.1-0.9,0.5-1.9,1.7-2
			c0.5,0,1.2,0.1,1.6,0.2c-1.9-1.9-3-3.2-2.8-3.6c0.4-0.5,1.8-2.2,1.8-3.7c0-0.9-1.4-3.1-1.4-3.1l0.3-0.2l3.7,4.7
			c0,0-1.8,2.1-1.8,3.6c0,1,0.7,1.9,1.1,2.5c0.2,0.3,1,1.1,1,1.3l0,0.3C3736.6,314.7,3736,314.6,3735.6,314.6z"/>
	</g>
	<line fill="none" stroke="#000000" stroke-width="0.384" x1="3767" y1="312.3" x2="3767" y2="295.2"/>
	<g enable-background="new    ">
		<path d="M3764.4,310.6c1.7,0,2.7,1.2,2.2,2.7c-0.5,1.5-2.4,2.6-4.1,2.6c-1.7,0-2.7-1.2-2.1-2.7
			C3760.9,311.7,3762.7,310.5,3764.4,310.6z"/>
	</g>
	<g enable-background="new    ">
		<path d="M3799.2,314.6c-0.9,0-1.6,0.6-1.6,1.5c0,0.6,1,1.6,1,1.6l-0.2,0.2c0,0-2.4-1.4-2.6-2.9c-0.1-0.9,0.5-1.9,1.7-2
			c0.5,0,1.2,0.1,1.6,0.2c-1.9-1.9-3-3.2-2.8-3.6c0.4-0.5,1.8-2.2,1.8-3.7c0-0.9-1.4-3.1-1.4-3.1l0.3-0.2l3.7,4.7
			c0,0-1.8,2.1-1.8,3.6c0,1,0.7,1.9,1.1,2.5c0.2,0.3,1,1.1,1,1.3l0,0.3C3800.2,314.7,3799.7,314.6,3799.2,314.6z"/>
	</g>
	<g enable-background="new    ">
		<path d="M3835.1,297.5c0.7,0.9,1.5,2,2.3,3.3c0.7,1.1,1.2,2.9,1.3,3.8c0.1,0.8,0.2,1.7,0.2,2.5c0,1.2-0.2,2.4-0.6,3.5l-0.2,0
			c0.4-0.9,0.6-2.4,0.6-3.5c0-1-0.2-2.3-0.5-3.3c-0.6-1.8-1.6-2.9-2.3-3.3c-0.9-0.6-1.9-0.7-1.9-0.7h-0.3v-5.4h0.3
			C3833.9,295.5,3834.5,296.7,3835.1,297.5z"/>
	</g>
	<line fill="none" stroke="#000000" stroke-width="0.384" x1="3833.4" y1="312.3" x2="3833.4" y2="295.2"/>
	<g enable-background="new    ">
		<path d="M3830.8,310.6c1.7,0,2.7,1.2,2.2,2.7c-0.5,1.5-2.4,2.6-4.1,2.6c-1.7,0-2.7-1.2-2.1-2.7
			C3827.3,311.7,3829.1,310.5,3830.8,310.6z"/>
	</g>
	<g enable-background="new    ">
		<path d="M3845.1,308.4c0.4,0,0.8-0.1,1.1-0.5c0.3-0.3,0.5-0.6,0.9-1l0.3,0.2l-2.3,8.6h-0.8c0,0,0.8-2.4,1.1-3.4
			c0.9-2.4,1.1-3.8,1.1-3.8c-0.5,0.4-1.7,1.2-2.7,1.3c-2.2,0.1-2.6-3-0.4-3.6C3844.9,305.9,3845.4,307.6,3845.1,308.4z"/>
	</g>
	<g enable-background="new    ">
		<path d="M3861.1,314.6c-0.9,0-1.6,0.6-1.6,1.5c0,0.6,1,1.6,1,1.6l-0.2,0.2c0,0-2.4-1.4-2.6-2.9c-0.1-0.9,0.5-1.9,1.7-2
			c0.5,0,1.2,0.1,1.6,0.2c-1.9-1.9-3-3.2-2.8-3.6c0.4-0.5,1.8-2.2,1.8-3.7c0-0.9-1.4-3.1-1.4-3.1l0.3-0.2l3.7,4.7
			c0,0-1.8,2.1-1.8,3.6c0,1,0.7,1.9,1.1,2.5c0.2,0.3,1,1.1,1,1.3l0,0.3C3862.1,314.7,3861.6,314.6,3861.1,314.6z"/>
	</g>
	<g enable-background="new    ">
		<path d="M3896.8,297.5c0.7,0.9,1.5,2,2.3,3.3c0.7,1.1,1.2,2.9,1.3,3.8c0.1,0.8,0.2,1.7,0.2,2.5c0,1.2-0.2,2.4-0.6,3.5l-0.2,0
			c0.4-0.9,0.6-2.4,0.6-3.5c0-1-0.2-2.3-0.5-3.3c-0.6-1.8-1.6-2.9-2.3-3.3c-0.9-0.6-1.9-0.7-1.9-0.7h-0.3v-5.4h0.3
			C3895.6,295.5,3896.2,296.7,3896.8,297.5z"/>
	</g>
	<line fill="none" stroke="#000000" stroke-width="0.384" x1="3895.1" y1="312.3" x2="3895.1" y2="295.2"/>
	<g enable-background="new    ">
		<path d="M3892.6,310.6c1.7,0,2.7,1.2,2.2,2.7c-0.5,1.5-2.4,2.6-4.1,2.6c-1.7,0-2.7-1.2-2.1-2.7
			C3889,311.7,3890.8,310.5,3892.6,310.6z"/>
	</g>
	<g enable-background="new    ">
		<path d="M3907,308.4c0.4,0,0.8-0.1,1.1-0.5c0.3-0.3,0.5-0.6,0.9-1l0.3,0.2l-2.3,8.6h-0.8c0,0,0.8-2.4,1.1-3.4
			c0.9-2.4,1.1-3.8,1.1-3.8c-0.5,0.4-1.7,1.2-2.7,1.3c-2.2,0.1-2.6-3-0.4-3.6C3906.9,305.9,3907.3,307.6,3907,308.4z"/>
	</g>
	<g enable-background="new    ">
		<path d="M3933.9,308v2.6h-6.5V308H3933.9z"/>
	</g>
	<line fill="none" stroke="#000000" stroke-width="0.384" x1="3926.8" y1="310.6" x2="3935.1" y2="310.6"/>
	<g enable-background="new    ">
		<path d="M3997.4,314.6c-0.9,0-1.6,0.6-1.6,1.5c0,0.6,1,1.6,1,1.6l-0.2,0.2c0,0-2.4-1.4-2.6-2.9c-0.1-0.9,0.5-1.9,1.7-2
			c0.5,0,1.2,0.1,1.6,0.2c-1.9-1.9-3-3.2-2.8-3.6c0.4-0.5,1.8-2.2,1.8-3.7c0-0.9-1.4-3.1-1.4-3.1l0.3-0.2l3.7,4.7
			c0,0-1.8,2.1-1.8,3.6c0,1,0.7,1.9,1.1,2.5c0.2,0.3,1,1.1,1,1.3l0,0.3C3998.4,314.7,3997.8,314.6,3997.4,314.6z"/>
	</g>
	<line fill="none" stroke="#000000" stroke-width="0.384" x1="4028.8" y1="312.3" x2="4028.8" y2="295.2"/>
	<g enable-background="new    ">
		<path d="M4026.2,310.6c1.7,0,2.7,1.2,2.2,2.7c-0.5,1.5-2.4,2.6-4.1,2.6c-1.7,0-2.7-1.2-2.1-2.7
			C4022.7,311.7,4024.5,310.5,4026.2,310.6z"/>
	</g>
	<g enable-background="new    ">
		<path d="M4061,314.6c-0.9,0-1.6,0.6-1.6,1.5c0,0.6,1,1.6,1,1.6l-0.2,0.2c0,0-2.4-1.4-2.6-2.9c-0.1-0.9,0.5-1.9,1.7-2
			c0.5,0,1.2,0.1,1.6,0.2c-1.9-1.9-3-3.2-2.8-3.6c0.4-0.5,1.8-2.2,1.8-3.7c0-0.9-1.4-3.1-1.4-3.1l0.3-0.2l3.7,4.7
			c0,0-1.8,2.1-1.8,3.6c0,1,0.7,1.9,1.1,2.5c0.2,0.3,1,1.1,1,1.3l0,0.3C4062,314.7,4061.5,314.6,4061,314.6z"/>
	</g>
	<g enable-background="new    ">
		<path d="M4096.9,297.5c0.7,0.9,1.5,2,2.3,3.3c0.7,1.1,1.2,2.9,1.3,3.8c0.1,0.8,0.2,1.7,0.2,2.5c0,1.2-0.2,2.4-0.6,3.5l-0.2,0
			c0.4-0.9,0.6-2.4,0.6-3.5c0-1-0.2-2.3-0.5-3.3c-0.6-1.8-1.6-2.9-2.3-3.3c-0.9-0.6-1.9-0.7-1.9-0.7h-0.3v-5.4h0.3
			C4095.7,295.5,4096.3,296.7,4096.9,297.5z"/>
	</g>
	<line fill="none" stroke="#000000" stroke-width="0.384" x1="4095.2" y1="312.3" x2="4095.2" y2="295.2"/>
	<g enable-background="new    ">
		<path d="M4092.6,310.6c1.7,0,2.7,1.2,2.2,2.7c-0.5,1.5-2.4,2.6-4.1,2.6c-1.7,0-2.7-1.2-2.1-2.7
			C4089.1,311.7,4090.9,310.5,4092.6,310.6z"/>
	</g>
	<g enable-background="new    ">
		<path d="M4106.9,308.4c0.4,0,0.8-0.1,1.1-0.5c0.3-0.3,0.5-0.6,0.9-1l0.3,0.2l-2.3,8.6h-0.8c0,0,0.8-2.4,1.1-3.4
			c0.9-2.4,1.1-3.8,1.1-3.8c-0.5,0.4-1.7,1.2-2.7,1.3c-2.2,0.1-2.6-3-0.4-3.6C4106.7,305.9,4107.2,307.6,4106.9,308.4z"/>
	</g>
	<g enable-background="new    ">
		<path d="M4123,314.6c-0.9,0-1.6,0.6-1.6,1.5c0,0.6,1,1.6,1,1.6l-0.2,0.2c0,0-2.4-1.4-2.6-2.9c-0.1-0.9,0.5-1.9,1.7-2
			c0.5,0,1.2,0.1,1.6,0.2c-1.9-1.9-3-3.2-2.8-3.6c0.4-0.5,1.8-2.2,1.8-3.7c0-0.9-1.4-3.1-1.4-3.1l0.3-0.2l3.7,4.7
			c0,0-1.8,2.1-1.8,3.6c0,1,0.7,1.9,1.1,2.5c0.2,0.3,1,1.1,1,1.3l0,0.3C4123.9,314.7,4123.4,314.6,4123,314.6z"/>
	</g>
	<g enable-background="new    ">
		<path d="M4158.6,297.5c0.7,0.9,1.5,2,2.3,3.3c0.7,1.1,1.2,2.9,1.3,3.8c0.1,0.8,0.2,1.7,0.2,2.5c0,1.2-0.2,2.4-0.6,3.5l-0.2,0
			c0.4-0.9,0.6-2.4,0.6-3.5c0-1-0.2-2.3-0.5-3.3c-0.6-1.8-1.6-2.9-2.3-3.3c-0.9-0.6-1.9-0.7-1.9-0.7h-0.3v-5.4h0.3
			C4157.4,295.5,4158,296.7,4158.6,297.5z"/>
	</g>
	<line fill="none" stroke="#000000" stroke-width="0.384" x1="4156.9" y1="312.3" x2="4156.9" y2="295.2"/>
	<g enable-background="new    ">
		<path d="M4154.4,310.6c1.7,0,2.7,1.2,2.2,2.7c-0.5,1.5-2.4,2.6-4.1,2.6c-1.7,0-2.7-1.2-2.1-2.7
			C4150.8,311.7,4152.6,310.5,4154.4,310.6z"/>
	</g>
	<g enable-background="new    ">
		<path d="M4168.8,308.4c0.4,0,0.8-0.1,1.1-0.5c0.3-0.3,0.5-0.6,0.9-1l0.3,0.2l-2.3,8.6h-0.8c0,0,0.8-2.4,1.1-3.4
			c0.9-2.4,1.1-3.8,1.1-3.8c-0.5,0.4-1.7,1.2-2.7,1.3c-2.2,0.1-2.6-3-0.4-3.6C4168.7,305.9,4169.1,307.6,4168.8,308.4z"/>
	</g>
	<g enable-background="new    ">
		<path d="M4195.7,308v2.6h-6.5V308H4195.7z"/>
	</g>
	<line fill="none" stroke="#000000" stroke-width="0.384" x1="4188.6" y1="310.6" x2="4196.9" y2="310.6"/>
	<g enable-background="new    ">
		<path d="M4256.4,314.6c-0.9,0-1.6,0.6-1.6,1.5c0,0.6,1,1.6,1,1.6l-0.2,0.2c0,0-2.4-1.4-2.6-2.9c-0.1-0.9,0.5-1.9,1.7-2
			c0.5,0,1.2,0.1,1.6,0.2c-1.9-1.9-3-3.2-2.8-3.6c0.4-0.5,1.8-2.2,1.8-3.7c0-0.9-1.4-3.1-1.4-3.1l0.3-0.2l3.7,4.7
			c0,0-1.8,2.1-1.8,3.6c0,1,0.7,1.9,1.1,2.5c0.2,0.3,1,1.1,1,1.3l0,0.3C4257.4,314.7,4256.8,314.6,4256.4,314.6z"/>
	</g>
	<line fill="none" stroke="#000000" stroke-width="0.384" x1="4286.8" y1="312.3" x2="4286.8" y2="295.2"/>
	<g enable-background="new    ">
		<path d="M4284.2,310.6c1.7,0,2.7,1.2,2.2,2.7c-0.5,1.5-2.4,2.6-4.1,2.6s-2.7-1.2-2.1-2.7C4280.6,311.7,4282.5,310.5,4284.2,310.6z
			"/>
	</g>
</g>
</svg>
