<?xml version="1.0" encoding="utf-8"?>
<!-- Generator: Adobe Illustrator 16.0.0, SVG Export Plug-In . SVG Version: 6.00 Build 0)  -->
<!DOCTYPE svg PUBLIC "-//W3C//DTD SVG 1.1//EN" "http://www.w3.org/Graphics/SVG/1.1/DTD/svg11.dtd">
<svg version="1.1" id="Layer_1" xmlns="http://www.w3.org/2000/svg" xmlns:xlink="http://www.w3.org/1999/xlink" x="0px" y="0px"
	 width="3240px" height="53.3px" viewBox="1108 282.3 3240 53.3" enable-background="new 1108 282.3 3240 53.3"
	 xml:space="preserve">
<g id="Music">
	<rect x="1108" y="146.6" fill="#FFFFFF" width="3240" height="230.5"/>
	<line fill="none" stroke="#000000" stroke-width="0.384" x1="1144.3" y1="177.4" x2="1144.3" y2="320.9"/>
	<g enable-background="new    ">
		<path d="M1154.8,301.6v18.2h-5.2v-18.2H1154.8z M1154,318.1v-14.7h-3.5v14.7H1154z"/>
	</g>
	<g enable-background="new    ">
		<path d="M1166.5,318.1v1.4c0,0.8,1,0.8,1,0.8v0.5h-4.4v-0.5c0,0,1,0,1-0.8v-1.4h-3.8l-0.4-0.4c2.5-3.3,2.5-4,3.1-7h3.5
			c-0.8,1.6-3.7,4.5-5.7,6.8h3.2V315l2.5-2.7v5.3h1.5v0.6H1166.5z"/>
	</g>
	<g enable-background="new    ">
		<path d="M1166.5,307.8v1.4c0,0.8,1,0.8,1,0.8v0.5h-4.4V310c0,0,1,0,1-0.8v-1.4h-3.8l-0.4-0.4c2.5-3.3,2.5-4,3.1-7h3.5
			c-0.8,1.6-3.7,4.5-5.7,6.8h3.2v-2.5l2.5-2.7v5.3h1.5v0.6H1166.5z"/>
	</g>
	<line fill="none" stroke="#000000" stroke-width="0.384" x1="1301.4" y1="300.4" x2="1301.4" y2="320.9"/>
	<line fill="none" stroke="#000000" stroke-width="0.384" x1="1432.3" y1="300.4" x2="1432.3" y2="320.9"/>
	<line fill="none" stroke="#000000" stroke-width="0.384" x1="1563.2" y1="300.4" x2="1563.2" y2="320.9"/>
	<line fill="none" stroke="#000000" stroke-width="0.384" x1="1694.1" y1="300.4" x2="1694.1" y2="320.9"/>
	<line fill="none" stroke="#000000" stroke-width="0.384" x1="1825.1" y1="300.4" x2="1825.1" y2="320.9"/>
	<line fill="none" stroke="#000000" stroke-width="0.384" x1="1956" y1="300.4" x2="1956" y2="320.9"/>
	<line fill="none" stroke="#000000" stroke-width="0.384" x1="2086.9" y1="300.4" x2="2086.9" y2="320.9"/>
	<line fill="none" stroke="#000000" stroke-width="0.384" x1="2217.8" y1="300.4" x2="2217.8" y2="320.9"/>
	<line fill="none" stroke="#000000" stroke-width="0.384" x1="2348.7" y1="300.4" x2="2348.7" y2="320.9"/>
	<line fill="none" stroke="#000000" stroke-width="0.384" x1="2479.6" y1="300.4" x2="2479.6" y2="320.9"/>
	<line fill="none" stroke="#000000" stroke-width="0.384" x1="2610.5" y1="300.4" x2="2610.5" y2="320.9"/>
	<line fill="none" stroke="#000000" stroke-width="0.384" x1="2741.4" y1="300.4" x2="2741.4" y2="320.9"/>
	<line fill="none" stroke="#000000" stroke-width="0.384" x1="2872.3" y1="300.4" x2="2872.3" y2="320.9"/>
	<line fill="none" stroke="#000000" stroke-width="0.384" x1="3003.2" y1="300.4" x2="3003.2" y2="320.9"/>
	<line fill="none" stroke="#000000" stroke-width="0.384" x1="3134.1" y1="300.4" x2="3134.1" y2="320.9"/>
	<line fill="none" stroke="#000000" stroke-width="0.384" x1="3265" y1="300.4" x2="3265" y2="320.9"/>
	<line fill="none" stroke="#000000" stroke-width="0.384" x1="3395.9" y1="300.4" x2="3395.9" y2="320.9"/>
	<line fill="none" stroke="#000000" stroke-width="0.384" x1="3526.8" y1="300.4" x2="3526.8" y2="320.9"/>
	<line fill="none" stroke="#000000" stroke-width="0.384" x1="3657.7" y1="300.4" x2="3657.7" y2="320.9"/>
	<line fill="none" stroke="#000000" stroke-width="0.384" x1="3788.6" y1="300.4" x2="3788.6" y2="320.9"/>
	<line fill="none" stroke="#000000" stroke-width="0.384" x1="3919.5" y1="300.4" x2="3919.5" y2="320.9"/>
	<line fill="none" stroke="#000000" stroke-width="0.384" x1="4050.4" y1="300.4" x2="4050.4" y2="320.9"/>
	<line fill="none" stroke="#000000" stroke-width="0.384" x1="4181.3" y1="300.4" x2="4181.3" y2="320.9"/>
	<line fill="none" stroke="#000000" stroke-width="2.563" x1="4310.7" y1="300.4" x2="4310.7" y2="320.9"/>
	<line fill="none" stroke="#000000" stroke-width="0.384" x1="4306.7" y1="300.4" x2="4306.7" y2="320.9"/>
	<line fill="none" stroke="#000000" stroke-width="0.384" x1="1144.1" y1="310.7" x2="4312" y2="310.7"/>
	<g enable-background="new    ">
		<path d="M1186.1,297.6c0.7,0.9,1.5,2,2.3,3.3c0.7,1.1,1.2,2.9,1.3,3.8c0.1,0.8,0.2,1.7,0.2,2.5c0,1.2-0.2,2.4-0.6,3.5l-0.2,0
			c0.4-0.9,0.6-2.4,0.6-3.5c0-1-0.2-2.3-0.5-3.3c-0.6-1.8-1.6-2.9-2.3-3.3c-0.9-0.6-1.9-0.7-1.9-0.7h-0.3v-5.4h0.3
			C1184.9,295.6,1185.5,296.8,1186.1,297.6z"/>
	</g>
	<line fill="none" stroke="#000000" stroke-width="0.384" x1="1184.4" y1="312.4" x2="1184.4" y2="295.3"/>
	<g enable-background="new    ">
		<path d="M1181.9,310.7c1.7,0,2.7,1.2,2.2,2.7c-0.5,1.5-2.4,2.6-4.1,2.6c-1.7,0-2.7-1.2-2.1-2.7
			C1178.3,311.8,1180.1,310.7,1181.9,310.7z"/>
	</g>
	<g enable-background="new    ">
		<path d="M1196.1,308.5c0.4,0,0.8-0.1,1.1-0.5c0.3-0.3,0.5-0.6,0.9-1l0.3,0.2l-2.3,8.6h-0.8c0,0,0.8-2.4,1.1-3.4
			c0.9-2.4,1.1-3.8,1.1-3.8c-0.5,0.4-1.7,1.2-2.7,1.3c-2.2,0.1-2.6-3-0.4-3.6C1196,306,1196.4,307.7,1196.1,308.5z"/>
	</g>
	<g enable-background="new    ">
		<path d="M1212.2,314.7c-0.9,0-1.6,0.6-1.6,1.5c0,0.6,1,1.6,1,1.6l-0.2,0.2c0,0-2.4-1.4-2.6-2.9c-0.1-0.9,0.5-1.9,1.7-2
			c0.5,0,1.2,0.1,1.6,0.2c-1.9-1.9-3-3.2-2.8-3.6c0.4-0.5,1.8-2.2,1.8-3.7c0-0.9-1.4-3.1-1.4-3.1l0.3-0.2l3.7,4.7
			c0,0-1.8,2.1-1.8,3.6c0,1,0.7,1.9,1.1,2.5c0.2,0.3,1,1.1,1,1.3l0,0.3C1213.1,314.8,1212.6,314.7,1212.2,314.7z"/>
	</g>
	<g enable-background="new    ">
		<path d="M1248,297.6c0.7,0.9,1.5,2,2.3,3.3c0.7,1.1,1.2,2.9,1.3,3.8c0.1,0.8,0.2,1.7,0.2,2.5c0,1.2-0.2,2.4-0.6,3.5l-0.2,0
			c0.4-0.9,0.6-2.4,0.6-3.5c0-1-0.2-2.3-0.5-3.3c-0.6-1.8-1.6-2.9-2.3-3.3c-0.9-0.6-1.9-0.7-1.9-0.7h-0.3v-5.4h0.3
			C1246.8,295.6,1247.4,296.8,1248,297.6z"/>
	</g>
	<line fill="none" stroke="#000000" stroke-width="0.384" x1="1246.4" y1="312.4" x2="1246.4" y2="295.3"/>
	<g enable-background="new    ">
		<path d="M1243.8,310.7c1.7,0,2.7,1.2,2.2,2.7c-0.5,1.5-2.4,2.6-4.1,2.6c-1.7,0-2.7-1.2-2.1-2.7
			C1240.2,311.8,1242.1,310.7,1243.8,310.7z"/>
	</g>
	<g enable-background="new    ">
		<path d="M1258.1,308.5c0.4,0,0.8-0.1,1.1-0.5c0.3-0.3,0.5-0.6,0.9-1l0.3,0.2l-2.3,8.6h-0.8c0,0,0.8-2.4,1.1-3.4
			c0.9-2.4,1.1-3.8,1.1-3.8c-0.5,0.4-1.7,1.2-2.7,1.3c-2.2,0.1-2.6-3-0.4-3.6C1257.9,306,1258.3,307.7,1258.1,308.5z"/>
	</g>
	<g enable-background="new    ">
		<path d="M1273.9,314.7c-0.9,0-1.6,0.6-1.6,1.5c0,0.6,1,1.6,1,1.6l-0.2,0.2c0,0-2.4-1.4-2.6-2.9c-0.1-0.9,0.5-1.9,1.7-2
			c0.5,0,1.2,0.1,1.6,0.2c-1.9-1.9-3-3.2-2.8-3.6c0.4-0.5,1.8-2.2,1.8-3.7c0-0.9-1.4-3.1-1.4-3.1l0.3-0.2l3.7,4.7
			c0,0-1.8,2.1-1.8,3.6c0,1,0.7,1.9,1.1,2.5c0.2,0.3,1,1.1,1,1.3l0,0.3C1274.9,314.8,1274.3,314.7,1273.9,314.7z"/>
	</g>
	<g enable-background="new    ">
		<path d="M1317.9,297.6c0.7,0.9,1.5,2,2.3,3.3c0.7,1.1,1.2,2.9,1.3,3.8c0.1,0.8,0.2,1.7,0.2,2.5c0,1.2-0.2,2.4-0.6,3.5l-0.2,0
			c0.4-0.9,0.6-2.4,0.6-3.5c0-1-0.2-2.3-0.5-3.3c-0.6-1.8-1.6-2.9-2.3-3.3c-0.9-0.6-1.9-0.7-1.9-0.7h-0.3v-5.4h0.3
			C1316.7,295.6,1317.3,296.8,1317.9,297.6z"/>
	</g>
	<line fill="none" stroke="#000000" stroke-width="0.384" x1="1316.2" y1="312.4" x2="1316.2" y2="295.3"/>
	<g enable-background="new    ">
		<path d="M1313.6,310.7c1.7,0,2.7,1.2,2.2,2.7c-0.5,1.5-2.4,2.6-4.1,2.6c-1.7,0-2.7-1.2-2.1-2.7
			C1310.1,311.8,1311.9,310.7,1313.6,310.7z"/>
	</g>
	<g enable-background="new    ">
		<path d="M1330,308.5c0.4,0,0.8-0.1,1.1-0.5c0.3-0.3,0.5-0.6,0.9-1l0.3,0.2l-2.3,8.6h-0.8c0,0,0.8-2.4,1.1-3.4
			c0.9-2.4,1.1-3.8,1.1-3.8c-0.5,0.4-1.7,1.2-2.7,1.3c-2.2,0.1-2.6-3-0.4-3.6C1329.9,306,1330.3,307.7,1330,308.5z"/>
	</g>
	<g enable-background="new    ">
		<path d="M1347.8,314.7c-0.9,0-1.6,0.6-1.6,1.5c0,0.6,1,1.6,1,1.6l-0.2,0.2c0,0-2.4-1.4-2.6-2.9c-0.1-0.9,0.5-1.9,1.7-2
			c0.5,0,1.2,0.1,1.6,0.2c-1.9-1.9-3-3.2-2.8-3.6c0.4-0.5,1.8-2.2,1.8-3.7c0-0.9-1.4-3.1-1.4-3.1l0.3-0.2l3.7,4.7
			c0,0-1.8,2.1-1.8,3.6c0,1,0.7,1.9,1.1,2.5c0.2,0.3,1,1.1,1,1.3l0,0.3C1348.7,314.8,1348.2,314.7,1347.8,314.7z"/>
	</g>
	<g enable-background="new    ">
		<path d="M1382.3,308.1v2.6h-6.5v-2.6H1382.3z"/>
	</g>
	<line fill="none" stroke="#000000" stroke-width="0.384" x1="1375.1" y1="310.7" x2="1383.5" y2="310.7"/>
	<g enable-background="new    ">
		<path d="M1447.9,297.6c0.7,0.9,1.5,2,2.3,3.3c0.7,1.1,1.2,2.9,1.3,3.8c0.1,0.8,0.2,1.7,0.2,2.5c0,1.2-0.2,2.4-0.6,3.5l-0.2,0
			c0.4-0.9,0.6-2.4,0.6-3.5c0-1-0.2-2.3-0.5-3.3c-0.6-1.8-1.6-2.9-2.3-3.3c-0.9-0.6-1.9-0.7-1.9-0.7h-0.3v-5.4h0.3
			C1446.7,295.6,1447.3,296.8,1447.9,297.6z"/>
	</g>
	<line fill="none" stroke="#000000" stroke-width="0.384" x1="1446.2" y1="312.4" x2="1446.2" y2="295.3"/>
	<g enable-background="new    ">
		<path d="M1443.7,310.7c1.7,0,2.7,1.2,2.2,2.7c-0.5,1.5-2.4,2.6-4.1,2.6c-1.7,0-2.7-1.2-2.1-2.7
			C1440.1,311.8,1441.9,310.7,1443.7,310.7z"/>
	</g>
	<g enable-background="new    ">
		<path d="M1457.9,308.5c0.4,0,0.8-0.1,1.1-0.5c0.3-0.3,0.5-0.6,0.9-1l0.3,0.2l-2.3,8.6h-0.8c0,0,0.8-2.4,1.1-3.4
			c0.9-2.4,1.1-3.8,1.1-3.8c-0.5,0.4-1.7,1.2-2.7,1.3c-2.2,0.1-2.6-3-0.4-3.6C1457.8,306,1458.2,307.7,1457.9,308.5z"/>
	</g>
	<g enable-background="new    ">
		<path d="M1474,314.7c-0.9,0-1.6,0.6-1.6,1.5c0,0.6,1,1.6,1,1.6l-0.2,0.2c0,0-2.4-1.4-2.6-2.9c-0.1-0.9,0.5-1.9,1.7-2
			c0.5,0,1.2,0.1,1.6,0.2c-1.9-1.9-3-3.2-2.8-3.6c0.4-0.5,1.8-2.2,1.8-3.7c0-0.9-1.4-3.1-1.4-3.1l0.3-0.2l3.7,4.7
			c0,0-1.8,2.1-1.8,3.6c0,1,0.7,1.9,1.1,2.5c0.2,0.3,1,1.1,1,1.3l0,0.3C1474.9,314.8,1474.4,314.7,1474,314.7z"/>
	</g>
	<g enable-background="new    ">
		<path d="M1509.8,297.6c0.7,0.9,1.5,2,2.3,3.3c0.7,1.1,1.2,2.9,1.3,3.8c0.1,0.8,0.2,1.7,0.2,2.5c0,1.2-0.2,2.4-0.6,3.5l-0.2,0
			c0.4-0.9,0.6-2.4,0.6-3.5c0-1-0.2-2.3-0.5-3.3c-0.6-1.8-1.6-2.9-2.3-3.3c-0.9-0.6-1.9-0.7-1.9-0.7h-0.3v-5.4h0.3
			C1508.7,295.6,1509.2,296.8,1509.8,297.6z"/>
	</g>
	<line fill="none" stroke="#000000" stroke-width="0.384" x1="1508.2" y1="312.4" x2="1508.2" y2="295.3"/>
	<g enable-background="new    ">
		<path d="M1505.6,310.7c1.7,0,2.7,1.2,2.2,2.7c-0.5,1.5-2.4,2.6-4.1,2.6c-1.7,0-2.7-1.2-2.1-2.7
			C1502,311.8,1503.9,310.7,1505.6,310.7z"/>
	</g>
	<g enable-background="new    ">
		<path d="M1519.9,308.5c0.4,0,0.8-0.1,1.1-0.5c0.3-0.3,0.5-0.6,0.9-1l0.3,0.2l-2.3,8.6h-0.8c0,0,0.8-2.4,1.1-3.4
			c0.9-2.4,1.1-3.8,1.1-3.8c-0.5,0.4-1.7,1.2-2.7,1.3c-2.2,0.1-2.6-3-0.4-3.6C1519.7,306,1520.1,307.7,1519.9,308.5z"/>
	</g>
	<g enable-background="new    ">
		<path d="M1535.7,314.7c-0.9,0-1.6,0.6-1.6,1.5c0,0.6,1,1.6,1,1.6l-0.2,0.2c0,0-2.4-1.4-2.6-2.9c-0.1-0.9,0.5-1.9,1.7-2
			c0.5,0,1.2,0.1,1.6,0.2c-1.9-1.9-3-3.2-2.8-3.6c0.4-0.5,1.8-2.2,1.8-3.7c0-0.9-1.4-3.1-1.4-3.1l0.3-0.2l3.7,4.7
			c0,0-1.8,2.1-1.8,3.6c0,1,0.7,1.9,1.1,2.5c0.2,0.3,1,1.1,1,1.3l0,0.3C1536.7,314.8,1536.1,314.7,1535.7,314.7z"/>
	</g>
	<g enable-background="new    ">
		<path d="M1579.7,297.6c0.7,0.9,1.5,2,2.3,3.3c0.7,1.1,1.2,2.9,1.3,3.8c0.1,0.8,0.2,1.7,0.2,2.5c0,1.2-0.2,2.4-0.6,3.5l-0.2,0
			c0.4-0.9,0.6-2.4,0.6-3.5c0-1-0.2-2.3-0.5-3.3c-0.6-1.8-1.6-2.9-2.3-3.3c-0.9-0.6-1.9-0.7-1.9-0.7h-0.3v-5.4h0.3
			C1578.5,295.6,1579.1,296.8,1579.7,297.6z"/>
	</g>
	<line fill="none" stroke="#000000" stroke-width="0.384" x1="1578" y1="312.4" x2="1578" y2="295.3"/>
	<g enable-background="new    ">
		<path d="M1575.4,310.7c1.7,0,2.7,1.2,2.2,2.7c-0.5,1.5-2.4,2.6-4.1,2.6c-1.7,0-2.7-1.2-2.1-2.7
			C1571.9,311.8,1573.7,310.7,1575.4,310.7z"/>
	</g>
	<g enable-background="new    ">
		<path d="M1591.8,308.5c0.4,0,0.8-0.1,1.1-0.5c0.3-0.3,0.5-0.6,0.9-1l0.3,0.2l-2.3,8.6h-0.8c0,0,0.8-2.4,1.1-3.4
			c0.9-2.4,1.1-3.8,1.1-3.8c-0.5,0.4-1.7,1.2-2.7,1.3c-2.2,0.1-2.6-3-0.4-3.6C1591.7,306,1592.1,307.7,1591.8,308.5z"/>
	</g>
	<g enable-background="new    ">
		<path d="M1609.6,314.7c-0.9,0-1.6,0.6-1.6,1.5c0,0.6,1,1.6,1,1.6l-0.2,0.2c0,0-2.4-1.4-2.6-2.9c-0.1-0.9,0.5-1.9,1.7-2
			c0.5,0,1.2,0.1,1.6,0.2c-1.9-1.9-3-3.2-2.8-3.6c0.4-0.5,1.8-2.2,1.8-3.7c0-0.9-1.4-3.1-1.4-3.1l0.3-0.2l3.7,4.7
			c0,0-1.8,2.1-1.8,3.6c0,1,0.7,1.9,1.1,2.5c0.2,0.3,1,1.1,1,1.3l0,0.3C1610.5,314.8,1610,314.7,1609.6,314.7z"/>
	</g>
	<g enable-background="new    ">
		<path d="M1644.1,308.1v2.6h-6.5v-2.6H1644.1z"/>
	</g>
	<line fill="none" stroke="#000000" stroke-width="0.384" x1="1636.9" y1="310.7" x2="1645.3" y2="310.7"/>
	<g enable-background="new    ">
		<path d="M1709.7,297.6c0.7,0.9,1.5,2,2.3,3.3c0.7,1.1,1.2,2.9,1.3,3.8c0.1,0.8,0.2,1.7,0.2,2.5c0,1.2-0.2,2.4-0.6,3.5l-0.2,0
			c0.4-0.9,0.6-2.4,0.6-3.5c0-1-0.2-2.3-0.5-3.3c-0.6-1.8-1.6-2.9-2.3-3.3c-0.9-0.6-1.9-0.7-1.9-0.7h-0.3v-5.4h0.3
			C1708.5,295.6,1709.1,296.8,1709.7,297.6z"/>
	</g>
	<line fill="none" stroke="#000000" stroke-width="0.384" x1="1708" y1="312.4" x2="1708" y2="295.3"/>
	<g enable-background="new    ">
		<path d="M1705.5,310.7c1.7,0,2.7,1.2,2.2,2.7c-0.5,1.5-2.4,2.6-4.1,2.6c-1.7,0-2.7-1.2-2.1-2.7
			C1701.9,311.8,1703.7,310.7,1705.5,310.7z"/>
	</g>
	<g enable-background="new    ">
		<path d="M1719.7,308.5c0.4,0,0.8-0.1,1.1-0.5c0.3-0.3,0.5-0.6,0.9-1l0.3,0.2l-2.3,8.6h-0.8c0,0,0.8-2.4,1.1-3.4
			c0.9-2.4,1.1-3.8,1.1-3.8c-0.5,0.4-1.7,1.2-2.7,1.3c-2.2,0.1-2.6-3-0.4-3.6C1719.6,306,1720,307.7,1719.7,308.5z"/>
	</g>
	<g enable-background="new    ">
		<path d="M1735.8,314.7c-0.9,0-1.6,0.6-1.6,1.5c0,0.6,1,1.6,1,1.6l-0.2,0.2c0,0-2.4-1.4-2.6-2.9c-0.1-0.9,0.5-1.9,1.7-2
			c0.5,0,1.2,0.1,1.6,0.2c-1.9-1.9-3-3.2-2.8-3.6c0.4-0.5,1.8-2.2,1.8-3.7c0-0.9-1.4-3.1-1.4-3.1l0.3-0.2l3.7,4.7
			c0,0-1.8,2.1-1.8,3.6c0,1,0.7,1.9,1.1,2.5c0.2,0.3,1,1.1,1,1.3l0,0.3C1736.8,314.8,1736.2,314.7,1735.8,314.7z"/>
	</g>
	<g enable-background="new    ">
		<path d="M1771.6,297.6c0.7,0.9,1.5,2,2.3,3.3c0.7,1.1,1.2,2.9,1.3,3.8c0.1,0.8,0.2,1.7,0.2,2.5c0,1.2-0.2,2.4-0.6,3.5l-0.2,0
			c0.4-0.9,0.6-2.4,0.6-3.5c0-1-0.2-2.3-0.5-3.3c-0.6-1.8-1.6-2.9-2.3-3.3c-0.9-0.6-1.9-0.7-1.9-0.7h-0.3v-5.4h0.3
			C1770.5,295.6,1771,296.8,1771.6,297.6z"/>
	</g>
	<line fill="none" stroke="#000000" stroke-width="0.384" x1="1770" y1="312.4" x2="1770" y2="295.3"/>
	<g enable-background="new    ">
		<path d="M1767.4,310.7c1.7,0,2.7,1.2,2.2,2.7c-0.5,1.5-2.4,2.6-4.1,2.6c-1.7,0-2.7-1.2-2.1-2.7
			C1763.8,311.8,1765.7,310.7,1767.4,310.7z"/>
	</g>
	<g enable-background="new    ">
		<path d="M1781.7,308.5c0.4,0,0.8-0.1,1.1-0.5c0.3-0.3,0.5-0.6,0.9-1l0.3,0.2l-2.3,8.6h-0.8c0,0,0.8-2.4,1.1-3.4
			c0.9-2.4,1.1-3.8,1.1-3.8c-0.5,0.4-1.7,1.2-2.7,1.3c-2.2,0.1-2.6-3-0.4-3.6C1781.5,306,1781.9,307.7,1781.7,308.5z"/>
	</g>
	<g enable-background="new    ">
		<path d="M1797.5,314.7c-0.9,0-1.6,0.6-1.6,1.5c0,0.6,1,1.6,1,1.6l-0.2,0.2c0,0-2.4-1.4-2.6-2.9c-0.1-0.9,0.5-1.9,1.7-2
			c0.5,0,1.2,0.1,1.6,0.2c-1.9-1.9-3-3.2-2.8-3.6c0.4-0.5,1.8-2.2,1.8-3.7c0-0.9-1.4-3.1-1.4-3.1l0.3-0.2l3.7,4.7
			c0,0-1.8,2.1-1.8,3.6c0,1,0.7,1.9,1.1,2.5c0.2,0.3,1,1.1,1,1.3l0,0.3C1798.5,314.8,1797.9,314.7,1797.5,314.7z"/>
	</g>
	<g enable-background="new    ">
		<path d="M1841.5,297.6c0.7,0.9,1.5,2,2.3,3.3c0.7,1.1,1.2,2.9,1.3,3.8c0.1,0.8,0.2,1.7,0.2,2.5c0,1.2-0.2,2.4-0.6,3.5l-0.2,0
			c0.4-0.9,0.6-2.4,0.6-3.5c0-1-0.2-2.3-0.5-3.3c-0.6-1.8-1.6-2.9-2.3-3.3c-0.9-0.6-1.9-0.7-1.9-0.7h-0.3v-5.4h0.3
			C1840.3,295.6,1840.9,296.8,1841.5,297.6z"/>
	</g>
	<line fill="none" stroke="#000000" stroke-width="0.384" x1="1839.8" y1="312.4" x2="1839.8" y2="295.3"/>
	<g enable-background="new    ">
		<path d="M1837.2,310.7c1.7,0,2.7,1.2,2.2,2.7c-0.5,1.5-2.4,2.6-4.1,2.6c-1.7,0-2.7-1.2-2.1-2.7
			C1833.7,311.8,1835.5,310.7,1837.2,310.7z"/>
	</g>
	<g enable-background="new    ">
		<path d="M1853.6,308.5c0.4,0,0.8-0.1,1.1-0.5c0.3-0.3,0.5-0.6,0.9-1l0.3,0.2l-2.3,8.6h-0.8c0,0,0.8-2.4,1.1-3.4
			c0.9-2.4,1.1-3.8,1.1-3.8c-0.5,0.4-1.7,1.2-2.7,1.3c-2.2,0.1-2.6-3-0.4-3.6C1853.5,306,1853.9,307.7,1853.6,308.5z"/>
	</g>
	<g enable-background="new    ">
		<path d="M1871.4,314.7c-0.9,0-1.6,0.6-1.6,1.5c0,0.6,1,1.6,1,1.6l-0.2,0.2c0,0-2.4-1.4-2.6-2.9c-0.1-0.9,0.5-1.9,1.7-2
			c0.5,0,1.2,0.1,1.6,0.2c-1.9-1.9-3-3.2-2.8-3.6c0.4-0.5,1.8-2.2,1.8-3.7c0-0.9-1.4-3.1-1.4-3.1l0.3-0.2l3.7,4.7
			c0,0-1.8,2.1-1.8,3.6c0,1,0.7,1.9,1.1,2.5c0.2,0.3,1,1.1,1,1.3l0,0.3C1872.4,314.8,1871.8,314.7,1871.4,314.7z"/>
	</g>
	<g enable-background="new    ">
		<path d="M1905.9,308.1v2.6h-6.5v-2.6H1905.9z"/>
	</g>
	<line fill="none" stroke="#000000" stroke-width="0.384" x1="1898.7" y1="310.7" x2="1907.1" y2="310.7"/>
	<g enable-background="new    ">
		<path d="M1971.5,297.6c0.7,0.9,1.5,2,2.3,3.3c0.7,1.1,1.2,2.9,1.3,3.8c0.1,0.8,0.2,1.7,0.2,2.5c0,1.2-0.2,2.4-0.6,3.5l-0.2,0
			c0.4-0.9,0.6-2.4,0.6-3.5c0-1-0.2-2.3-0.5-3.3c-0.6-1.8-1.6-2.9-2.3-3.3c-0.9-0.6-1.9-0.7-1.9-0.7h-0.3v-5.4h0.3
			C1970.3,295.6,1970.9,296.8,1971.5,297.6z"/>
	</g>
	<line fill="none" stroke="#000000" stroke-width="0.384" x1="1969.8" y1="312.4" x2="1969.8" y2="295.3"/>
	<g enable-background="new    ">
		<path d="M1967.3,310.7c1.7,0,2.7,1.2,2.2,2.7c-0.5,1.5-2.4,2.6-4.1,2.6c-1.7,0-2.7-1.2-2.1-2.7
			C1963.7,311.8,1965.5,310.7,1967.3,310.7z"/>
	</g>
	<g enable-background="new    ">
		<path d="M1981.5,308.5c0.4,0,0.8-0.1,1.1-0.5c0.3-0.3,0.5-0.6,0.9-1l0.3,0.2l-2.3,8.6h-0.8c0,0,0.8-2.4,1.1-3.4
			c0.9-2.4,1.1-3.8,1.1-3.8c-0.5,0.4-1.7,1.2-2.7,1.3c-2.2,0.1-2.6-3-0.4-3.6C1981.4,306,1981.8,307.7,1981.5,308.5z"/>
	</g>
	<g enable-background="new    ">
		<path d="M1997.6,314.7c-0.9,0-1.6,0.6-1.6,1.5c0,0.6,1,1.6,1,1.6l-0.2,0.2c0,0-2.4-1.4-2.6-2.9c-0.1-0.9,0.5-1.9,1.7-2
			c0.5,0,1.2,0.1,1.6,0.2c-1.9-1.9-3-3.2-2.8-3.6c0.4-0.5,1.8-2.2,1.8-3.7c0-0.9-1.4-3.1-1.4-3.1l0.3-0.2l3.7,4.7
			c0,0-1.8,2.1-1.8,3.6c0,1,0.7,1.9,1.1,2.5c0.2,0.3,1,1.1,1,1.3l0,0.3C1998.6,314.8,1998,314.7,1997.6,314.7z"/>
	</g>
	<g enable-background="new    ">
		<path d="M2033.4,297.6c0.7,0.9,1.5,2,2.3,3.3c0.7,1.1,1.2,2.9,1.3,3.8c0.1,0.8,0.2,1.7,0.2,2.5c0,1.2-0.2,2.4-0.6,3.5l-0.2,0
			c0.4-0.9,0.6-2.4,0.6-3.5c0-1-0.2-2.3-0.5-3.3c-0.6-1.8-1.6-2.9-2.3-3.3c-0.9-0.6-1.9-0.7-1.9-0.7h-0.3v-5.4h0.3
			C2032.3,295.6,2032.9,296.8,2033.4,297.6z"/>
	</g>
	<line fill="none" stroke="#000000" stroke-width="0.384" x1="2031.8" y1="312.4" x2="2031.8" y2="295.3"/>
	<g enable-background="new    ">
		<path d="M2029.2,310.7c1.7,0,2.7,1.2,2.2,2.7c-0.5,1.5-2.4,2.6-4.1,2.6c-1.7,0-2.7-1.2-2.1-2.7
			C2025.6,311.8,2027.5,310.7,2029.2,310.7z"/>
	</g>
	<g enable-background="new    ">
		<path d="M2043.5,308.5c0.4,0,0.8-0.1,1.1-0.5c0.3-0.3,0.5-0.6,0.9-1l0.3,0.2l-2.3,8.6h-0.8c0,0,0.8-2.4,1.1-3.4
			c0.9-2.4,1.1-3.8,1.1-3.8c-0.5,0.4-1.7,1.2-2.7,1.3c-2.2,0.1-2.6-3-0.4-3.6C2043.3,306,2043.7,307.7,2043.5,308.5z"/>
	</g>
	<g enable-background="new    ">
		<path d="M2059.3,314.7c-0.9,0-1.6,0.6-1.6,1.5c0,0.6,1,1.6,1,1.6l-0.2,0.2c0,0-2.4-1.4-2.6-2.9c-0.1-0.9,0.5-1.9,1.7-2
			c0.5,0,1.2,0.1,1.6,0.2c-1.9-1.9-3-3.2-2.8-3.6c0.4-0.5,1.8-2.2,1.8-3.7c0-0.9-1.4-3.1-1.4-3.1l0.3-0.2l3.7,4.7
			c0,0-1.8,2.1-1.8,3.6c0,1,0.7,1.9,1.1,2.5c0.2,0.3,1,1.1,1,1.3l0,0.3C2060.3,314.8,2059.7,314.7,2059.3,314.7z"/>
	</g>
	<g enable-background="new    ">
		<path d="M2103.3,297.6c0.7,0.9,1.5,2,2.3,3.3c0.7,1.1,1.2,2.9,1.3,3.8c0.1,0.8,0.2,1.7,0.2,2.5c0,1.2-0.2,2.4-0.6,3.5l-0.2,0
			c0.4-0.9,0.6-2.4,0.6-3.5c0-1-0.2-2.3-0.5-3.3c-0.6-1.8-1.6-2.9-2.3-3.3c-0.9-0.6-1.9-0.7-1.9-0.7h-0.3v-5.4h0.3
			C2102.1,295.6,2102.7,296.8,2103.3,297.6z"/>
	</g>
	<line fill="none" stroke="#000000" stroke-width="0.384" x1="2101.6" y1="312.4" x2="2101.6" y2="295.3"/>
	<g enable-background="new    ">
		<path d="M2099,310.7c1.7,0,2.7,1.2,2.2,2.7c-0.5,1.5-2.4,2.6-4.1,2.6c-1.7,0-2.7-1.2-2.1-2.7
			C2095.5,311.8,2097.3,310.7,2099,310.7z"/>
	</g>
	<g enable-background="new    ">
		<path d="M2115.4,308.5c0.4,0,0.8-0.1,1.1-0.5c0.3-0.3,0.5-0.6,0.9-1l0.3,0.2l-2.3,8.6h-0.8c0,0,0.8-2.4,1.1-3.4
			c0.9-2.4,1.1-3.8,1.1-3.8c-0.5,0.4-1.7,1.2-2.7,1.3c-2.2,0.1-2.6-3-0.4-3.6C2115.3,306,2115.7,307.7,2115.4,308.5z"/>
	</g>
	<g enable-background="new    ">
		<path d="M2133.2,314.7c-0.9,0-1.6,0.6-1.6,1.5c0,0.6,1,1.6,1,1.6l-0.2,0.2c0,0-2.4-1.4-2.6-2.9c-0.1-0.9,0.5-1.9,1.7-2
			c0.5,0,1.2,0.1,1.6,0.2c-1.9-1.9-3-3.2-2.8-3.6c0.4-0.5,1.8-2.2,1.8-3.7c0-0.9-1.4-3.1-1.4-3.1l0.3-0.2l3.7,4.7
			c0,0-1.8,2.1-1.8,3.6c0,1,0.7,1.9,1.1,2.5c0.2,0.3,1,1.1,1,1.3l0,0.3C2134.2,314.8,2133.6,314.7,2133.2,314.7z"/>
	</g>
	<g enable-background="new    ">
		<path d="M2167.7,308.1v2.6h-6.5v-2.6H2167.7z"/>
	</g>
	<line fill="none" stroke="#000000" stroke-width="0.384" x1="2160.5" y1="310.7" x2="2168.9" y2="310.7"/>
	<g enable-background="new    ">
		<path d="M2286.2,310.7v3h-6.5v-3H2286.2z"/>
	</g>
	<line fill="none" stroke="#000000" stroke-width="0.384" x1="2279.1" y1="310.7" x2="2287.4" y2="310.7"/>
	<g enable-background="new    ">
		<path d="M2365.1,297.6c0.7,0.9,1.5,2,2.3,3.3c0.7,1.1,1.2,2.9,1.3,3.8c0.1,0.8,0.2,1.7,0.2,2.5c0,1.2-0.2,2.4-0.6,3.5l-0.2,0
			c0.4-0.9,0.6-2.4,0.6-3.5c0-1-0.2-2.3-0.5-3.3c-0.6-1.8-1.6-2.9-2.3-3.3c-0.9-0.6-1.9-0.7-1.9-0.7h-0.3v-5.4h0.3
			C2363.9,295.6,2364.5,296.8,2365.1,297.6z"/>
	</g>
	<line fill="none" stroke="#000000" stroke-width="0.384" x1="2363.4" y1="312.4" x2="2363.4" y2="295.3"/>
	<g enable-background="new    ">
		<path d="M2360.8,310.7c1.7,0,2.7,1.2,2.2,2.7c-0.5,1.5-2.4,2.6-4.1,2.6c-1.7,0-2.7-1.2-2.1-2.7
			C2357.3,311.8,2359.1,310.7,2360.8,310.7z"/>
	</g>
	<line fill="none" stroke="#000000" stroke-width="0.384" x1="2381.3" y1="312.4" x2="2381.3" y2="295.3"/>
	<g enable-background="new    ">
		<path d="M2378.8,310.7c1.7,0,2.7,1.2,2.2,2.7c-0.5,1.5-2.4,2.6-4.1,2.6c-1.7,0-2.7-1.2-2.1-2.7
			C2375.2,311.8,2377,310.7,2378.8,310.7z"/>
	</g>
	<g enable-background="new    ">
		<path d="M2412.1,297.6c0.7,0.9,1.5,2,2.3,3.3c0.7,1.1,1.2,2.9,1.3,3.8c0.1,0.8,0.2,1.7,0.2,2.5c0,1.2-0.2,2.4-0.6,3.5l-0.2,0
			c0.4-0.9,0.6-2.4,0.6-3.5c0-1-0.2-2.3-0.5-3.3c-0.6-1.8-1.6-2.9-2.3-3.3c-0.9-0.6-1.9-0.7-1.9-0.7h-0.3v-5.4h0.3
			C2410.9,295.6,2411.5,296.8,2412.1,297.6z"/>
	</g>
	<line fill="none" stroke="#000000" stroke-width="0.384" x1="2410.4" y1="312.4" x2="2410.4" y2="295.3"/>
	<g enable-background="new    ">
		<path d="M2407.8,310.7c1.7,0,2.7,1.2,2.2,2.7c-0.5,1.5-2.4,2.6-4.1,2.6c-1.7,0-2.7-1.2-2.1-2.7
			C2404.3,311.8,2406.1,310.7,2407.8,310.7z"/>
	</g>
	<line fill="none" stroke="#000000" stroke-width="0.384" x1="2428.3" y1="312.4" x2="2428.3" y2="295.3"/>
	<g enable-background="new    ">
		<path d="M2425.7,310.7c1.7,0,2.7,1.2,2.2,2.7c-0.5,1.5-2.4,2.6-4.1,2.6c-1.7,0-2.7-1.2-2.1-2.7
			C2422.2,311.8,2424,310.7,2425.7,310.7z"/>
	</g>
	<g enable-background="new    ">
		<path d="M2453.9,314.7c-0.9,0-1.6,0.6-1.6,1.5c0,0.6,1,1.6,1,1.6l-0.2,0.2c0,0-2.4-1.4-2.6-2.9c-0.1-0.9,0.5-1.9,1.7-2
			c0.5,0,1.2,0.1,1.6,0.2c-1.9-1.9-3-3.2-2.8-3.6c0.4-0.5,1.8-2.2,1.8-3.7c0-0.9-1.4-3.1-1.4-3.1l0.3-0.2l3.7,4.7
			c0,0-1.8,2.1-1.8,3.6c0,1,0.7,1.9,1.1,2.5c0.2,0.3,1,1.1,1,1.3l0,0.3C2454.9,314.8,2454.3,314.7,2453.9,314.7z"/>
	</g>
	<g enable-background="new    ">
		<path d="M2548,310.7v3h-6.5v-3H2548z"/>
	</g>
	<line fill="none" stroke="#000000" stroke-width="0.384" x1="2540.9" y1="310.7" x2="2549.2" y2="310.7"/>
	<g enable-background="new    ">
		<path d="M2626,297.6c0.7,0.9,1.5,2,2.3,3.3c0.7,1.1,1.2,2.9,1.3,3.8c0.1,0.8,0.2,1.7,0.2,2.5c0,1.2-0.2,2.4-0.6,3.5l-0.2,0
			c0.4-0.9,0.6-2.4,0.6-3.5c0-1-0.2-2.3-0.5-3.3c-0.6-1.8-1.6-2.9-2.3-3.3c-0.9-0.6-1.9-0.7-1.9-0.7h-0.3v-5.4h0.3
			C2624.8,295.6,2625.4,296.8,2626,297.6z"/>
	</g>
	<line fill="none" stroke="#000000" stroke-width="0.384" x1="2624.3" y1="312.4" x2="2624.3" y2="295.3"/>
	<g enable-background="new    ">
		<path d="M2621.8,310.7c1.7,0,2.7,1.2,2.2,2.7c-0.5,1.5-2.4,2.6-4.1,2.6c-1.7,0-2.7-1.2-2.1-2.7
			C2618.2,311.8,2620,310.7,2621.8,310.7z"/>
	</g>
	<line fill="none" stroke="#000000" stroke-width="0.384" x1="2642.5" y1="312.4" x2="2642.5" y2="295.3"/>
	<g enable-background="new    ">
		<path d="M2639.9,310.7c1.7,0,2.7,1.2,2.2,2.7c-0.5,1.5-2.4,2.6-4.1,2.6c-1.7,0-2.7-1.2-2.1-2.7
			C2636.4,311.8,2638.2,310.7,2639.9,310.7z"/>
	</g>
	<g enable-background="new    ">
		<path d="M2673.2,297.6c0.7,0.9,1.5,2,2.3,3.3c0.7,1.1,1.2,2.9,1.3,3.8c0.1,0.8,0.2,1.7,0.2,2.5c0,1.2-0.2,2.4-0.6,3.5l-0.2,0
			c0.4-0.9,0.6-2.4,0.6-3.5c0-1-0.2-2.3-0.5-3.3c-0.6-1.8-1.6-2.9-2.3-3.3c-0.9-0.6-1.9-0.7-1.9-0.7h-0.3v-5.4h0.3
			C2672,295.6,2672.6,296.8,2673.2,297.6z"/>
	</g>
	<line fill="none" stroke="#000000" stroke-width="0.384" x1="2671.5" y1="312.4" x2="2671.5" y2="295.3"/>
	<g enable-background="new    ">
		<path d="M2669,310.7c1.7,0,2.7,1.2,2.2,2.7c-0.5,1.5-2.4,2.6-4.1,2.6c-1.7,0-2.7-1.2-2.1-2.7
			C2665.4,311.8,2667.2,310.7,2669,310.7z"/>
	</g>
	<line fill="none" stroke="#000000" stroke-width="0.384" x1="2689.7" y1="312.4" x2="2689.7" y2="295.3"/>
	<g enable-background="new    ">
		<path d="M2687.1,310.7c1.7,0,2.7,1.2,2.2,2.7c-0.5,1.5-2.4,2.6-4.1,2.6c-1.7,0-2.7-1.2-2.1-2.7
			C2683.6,311.8,2685.4,310.7,2687.1,310.7z"/>
	</g>
	<g enable-background="new    ">
		<path d="M2715.5,314.7c-0.9,0-1.6,0.6-1.6,1.5c0,0.6,1,1.6,1,1.6l-0.2,0.2c0,0-2.4-1.4-2.6-2.9c-0.1-0.9,0.5-1.9,1.7-2
			c0.5,0,1.2,0.1,1.6,0.2c-1.9-1.9-3-3.2-2.8-3.6c0.4-0.5,1.8-2.2,1.8-3.7c0-0.9-1.4-3.1-1.4-3.1l0.3-0.2l3.7,4.7
			c0,0-1.8,2.1-1.8,3.6c0,1,0.7,1.9,1.1,2.5c0.2,0.3,1,1.1,1,1.3l0,0.3C2716.5,314.8,2715.9,314.7,2715.5,314.7z"/>
	</g>
	<g enable-background="new    ">
		<path d="M2809.8,310.7v3h-6.5v-3H2809.8z"/>
	</g>
	<line fill="none" stroke="#000000" stroke-width="0.384" x1="2802.7" y1="310.7" x2="2811" y2="310.7"/>
	<g enable-background="new    ">
		<path d="M2888.7,297.6c0.7,0.9,1.5,2,2.3,3.3c0.7,1.1,1.2,2.9,1.3,3.8c0.1,0.8,0.2,1.7,0.2,2.5c0,1.2-0.2,2.4-0.6,3.5l-0.2,0
			c0.4-0.9,0.6-2.4,0.6-3.5c0-1-0.2-2.3-0.5-3.3c-0.6-1.8-1.6-2.9-2.3-3.3c-0.9-0.6-1.9-0.7-1.9-0.7h-0.3v-5.4h0.3
			C2887.5,295.6,2888.1,296.8,2888.7,297.6z"/>
	</g>
	<line fill="none" stroke="#000000" stroke-width="0.384" x1="2887" y1="312.4" x2="2887" y2="295.3"/>
	<g enable-background="new    ">
		<path d="M2884.4,310.7c1.7,0,2.7,1.2,2.2,2.7c-0.5,1.5-2.4,2.6-4.1,2.6c-1.7,0-2.7-1.2-2.1-2.7
			C2880.9,311.8,2882.7,310.7,2884.4,310.7z"/>
	</g>
	<line fill="none" stroke="#000000" stroke-width="0.384" x1="2904.9" y1="312.4" x2="2904.9" y2="295.3"/>
	<g enable-background="new    ">
		<path d="M2902.4,310.7c1.7,0,2.7,1.2,2.2,2.7c-0.5,1.5-2.4,2.6-4.1,2.6s-2.7-1.2-2.1-2.7C2898.8,311.8,2900.6,310.7,2902.4,310.7z
			"/>
	</g>
	<g enable-background="new    ">
		<path d="M2935.7,297.6c0.7,0.9,1.5,2,2.3,3.3c0.7,1.1,1.2,2.9,1.3,3.8c0.1,0.8,0.2,1.7,0.2,2.5c0,1.2-0.2,2.4-0.6,3.5l-0.2,0
			c0.4-0.9,0.6-2.4,0.6-3.5c0-1-0.2-2.3-0.5-3.3c-0.6-1.8-1.6-2.9-2.3-3.3c-0.9-0.6-1.9-0.7-1.9-0.7h-0.3v-5.4h0.3
			C2934.5,295.6,2935.1,296.8,2935.7,297.6z"/>
	</g>
	<line fill="none" stroke="#000000" stroke-width="0.384" x1="2934" y1="312.4" x2="2934" y2="295.3"/>
	<g enable-background="new    ">
		<path d="M2931.4,310.7c1.7,0,2.7,1.2,2.2,2.7c-0.5,1.5-2.4,2.6-4.1,2.6s-2.7-1.2-2.1-2.7C2927.9,311.8,2929.7,310.7,2931.4,310.7z
			"/>
	</g>
	<line fill="none" stroke="#000000" stroke-width="0.384" x1="2951.9" y1="312.4" x2="2951.9" y2="295.3"/>
	<g enable-background="new    ">
		<path d="M2949.3,310.7c1.7,0,2.7,1.2,2.2,2.7c-0.5,1.5-2.4,2.6-4.1,2.6c-1.7,0-2.7-1.2-2.1-2.7
			C2945.8,311.8,2947.6,310.7,2949.3,310.7z"/>
	</g>
	<g enable-background="new    ">
		<path d="M2977.5,314.7c-0.9,0-1.6,0.6-1.6,1.5c0,0.6,1,1.6,1,1.6l-0.2,0.2c0,0-2.4-1.4-2.6-2.9c-0.1-0.9,0.5-1.9,1.7-2
			c0.5,0,1.2,0.1,1.6,0.2c-1.9-1.9-3-3.2-2.8-3.6c0.4-0.5,1.8-2.2,1.8-3.7c0-0.9-1.4-3.1-1.4-3.1l0.3-0.2l3.7,4.7
			c0,0-1.8,2.1-1.8,3.6c0,1,0.7,1.9,1.1,2.5c0.2,0.3,1,1.1,1,1.3l0,0.3C2978.5,314.8,2977.9,314.7,2977.5,314.7z"/>
	</g>
	<g enable-background="new    ">
		<path d="M3071.6,310.7v3h-6.5v-3H3071.6z"/>
	</g>
	<line fill="none" stroke="#000000" stroke-width="0.384" x1="3064.5" y1="310.7" x2="3072.8" y2="310.7"/>
	<g enable-background="new    ">
		<path d="M3149.6,297.6c0.7,0.9,1.5,2,2.3,3.3c0.7,1.1,1.2,2.9,1.3,3.8c0.1,0.8,0.2,1.7,0.2,2.5c0,1.2-0.2,2.4-0.6,3.5l-0.2,0
			c0.4-0.9,0.6-2.4,0.6-3.5c0-1-0.2-2.3-0.5-3.3c-0.6-1.8-1.6-2.9-2.3-3.3c-0.9-0.6-1.9-0.7-1.9-0.7h-0.3v-5.4h0.3
			C3148.4,295.6,3149,296.8,3149.6,297.6z"/>
	</g>
	<line fill="none" stroke="#000000" stroke-width="0.384" x1="3147.9" y1="312.4" x2="3147.9" y2="295.3"/>
	<g enable-background="new    ">
		<path d="M3145.4,310.7c1.7,0,2.7,1.2,2.2,2.7c-0.5,1.5-2.4,2.6-4.1,2.6s-2.7-1.2-2.1-2.7C3141.8,311.8,3143.7,310.7,3145.4,310.7z
			"/>
	</g>
	<line fill="none" stroke="#000000" stroke-width="0.384" x1="3166.1" y1="312.4" x2="3166.1" y2="295.3"/>
	<g enable-background="new    ">
		<path d="M3163.5,310.7c1.7,0,2.7,1.2,2.2,2.7c-0.5,1.5-2.4,2.6-4.1,2.6c-1.7,0-2.7-1.2-2.1-2.7
			C3160,311.8,3161.8,310.7,3163.5,310.7z"/>
	</g>
	<g enable-background="new    ">
		<path d="M3196.8,297.6c0.7,0.9,1.5,2,2.3,3.3c0.7,1.1,1.2,2.9,1.3,3.8c0.1,0.8,0.2,1.7,0.2,2.5c0,1.2-0.2,2.4-0.6,3.5l-0.2,0
			c0.4-0.9,0.6-2.4,0.6-3.5c0-1-0.2-2.3-0.5-3.3c-0.6-1.8-1.6-2.9-2.3-3.3c-0.9-0.6-1.9-0.7-1.9-0.7h-0.3v-5.4h0.3
			C3195.6,295.6,3196.2,296.8,3196.8,297.6z"/>
	</g>
	<line fill="none" stroke="#000000" stroke-width="0.384" x1="3195.1" y1="312.4" x2="3195.1" y2="295.3"/>
	<g enable-background="new    ">
		<path d="M3192.6,310.7c1.7,0,2.7,1.2,2.2,2.7c-0.5,1.5-2.4,2.6-4.1,2.6s-2.7-1.2-2.1-2.7C3189,311.8,3190.8,310.7,3192.6,310.7z"
			/>
	</g>
	<line fill="none" stroke="#000000" stroke-width="0.384" x1="3213.3" y1="312.4" x2="3213.3" y2="295.3"/>
	<g enable-background="new    ">
		<path d="M3210.7,310.7c1.7,0,2.7,1.2,2.2,2.7c-0.5,1.5-2.4,2.6-4.1,2.6c-1.7,0-2.7-1.2-2.1-2.7
			C3207.2,311.8,3209,310.7,3210.7,310.7z"/>
	</g>
	<g enable-background="new    ">
		<path d="M3239.1,314.7c-0.9,0-1.6,0.6-1.6,1.5c0,0.6,1,1.6,1,1.6l-0.2,0.2c0,0-2.4-1.4-2.6-2.9c-0.1-0.9,0.5-1.9,1.7-2
			c0.5,0,1.2,0.1,1.6,0.2c-1.9-1.9-3-3.2-2.8-3.6c0.4-0.5,1.8-2.2,1.8-3.7c0-0.9-1.4-3.1-1.4-3.1l0.3-0.2l3.7,4.7
			c0,0-1.8,2.1-1.8,3.6c0,1,0.7,1.9,1.1,2.5c0.2,0.3,1,1.1,1,1.3l0,0.3C3240.1,314.8,3239.5,314.7,3239.1,314.7z"/>
	</g>
	<g enable-background="new    ">
		<path d="M3280.5,297.6c0.7,0.9,1.5,2,2.3,3.3c0.7,1.1,1.2,2.9,1.3,3.8c0.1,0.8,0.2,1.7,0.2,2.5c0,1.2-0.2,2.4-0.6,3.5l-0.2,0
			c0.4-0.9,0.6-2.4,0.6-3.5c0-1-0.2-2.3-0.5-3.3c-0.6-1.8-1.6-2.9-2.3-3.3c-0.9-0.6-1.9-0.7-1.9-0.7h-0.3v-5.4h0.3
			C3279.3,295.6,3279.9,296.8,3280.5,297.6z"/>
	</g>
	<line fill="none" stroke="#000000" stroke-width="0.384" x1="3278.8" y1="312.4" x2="3278.8" y2="295.3"/>
	<g enable-background="new    ">
		<path d="M3276.3,310.7c1.7,0,2.7,1.2,2.2,2.7c-0.5,1.5-2.4,2.6-4.1,2.6c-1.7,0-2.7-1.2-2.1-2.7
			C3272.7,311.8,3274.6,310.7,3276.3,310.7z"/>
	</g>
	<g enable-background="new    ">
		<path d="M3290.5,308.5c0.4,0,0.8-0.1,1.1-0.5c0.3-0.3,0.5-0.6,0.9-1l0.3,0.2l-2.3,8.6h-0.8c0,0,0.8-2.4,1.1-3.4
			c0.9-2.4,1.1-3.8,1.1-3.8c-0.5,0.4-1.7,1.2-2.7,1.3c-2.2,0.1-2.6-3-0.4-3.6C3290.4,306,3290.8,307.7,3290.5,308.5z"/>
	</g>
	<g enable-background="new    ">
		<path d="M3306.6,314.7c-0.9,0-1.6,0.6-1.6,1.5c0,0.6,1,1.6,1,1.6l-0.2,0.2c0,0-2.4-1.4-2.6-2.9c-0.1-0.9,0.5-1.9,1.7-2
			c0.5,0,1.2,0.1,1.6,0.2c-1.9-1.9-3-3.2-2.8-3.6c0.4-0.5,1.8-2.2,1.8-3.7c0-0.9-1.4-3.1-1.4-3.1l0.3-0.2l3.7,4.7
			c0,0-1.8,2.1-1.8,3.6c0,1,0.7,1.9,1.1,2.5c0.2,0.3,1,1.1,1,1.3l0,0.3C3307.6,314.8,3307,314.7,3306.6,314.7z"/>
	</g>
	<g enable-background="new    ">
		<path d="M3342.5,297.6c0.7,0.9,1.5,2,2.3,3.3c0.7,1.1,1.2,2.9,1.3,3.8c0.1,0.8,0.2,1.7,0.2,2.5c0,1.2-0.2,2.4-0.6,3.5l-0.2,0
			c0.4-0.9,0.6-2.4,0.6-3.5c0-1-0.2-2.3-0.5-3.3c-0.6-1.8-1.6-2.9-2.3-3.3c-0.9-0.6-1.9-0.7-1.9-0.7h-0.3v-5.4h0.3
			C3341.3,295.6,3341.9,296.8,3342.5,297.6z"/>
	</g>
	<line fill="none" stroke="#000000" stroke-width="0.384" x1="3340.8" y1="312.4" x2="3340.8" y2="295.3"/>
	<g enable-background="new    ">
		<path d="M3338.2,310.7c1.7,0,2.7,1.2,2.2,2.7c-0.5,1.5-2.4,2.6-4.1,2.6s-2.7-1.2-2.1-2.7C3334.7,311.8,3336.5,310.7,3338.2,310.7z
			"/>
	</g>
	<g enable-background="new    ">
		<path d="M3352.5,308.5c0.4,0,0.8-0.1,1.1-0.5c0.3-0.3,0.5-0.6,0.9-1l0.3,0.2l-2.3,8.6h-0.8c0,0,0.8-2.4,1.1-3.4
			c0.9-2.4,1.1-3.8,1.1-3.8c-0.5,0.4-1.7,1.2-2.7,1.3c-2.2,0.1-2.6-3-0.4-3.6C3352.3,306,3352.7,307.7,3352.5,308.5z"/>
	</g>
	<g enable-background="new    ">
		<path d="M3368.3,314.7c-0.9,0-1.6,0.6-1.6,1.5c0,0.6,1,1.6,1,1.6l-0.2,0.2c0,0-2.4-1.4-2.6-2.9c-0.1-0.9,0.5-1.9,1.7-2
			c0.5,0,1.2,0.1,1.6,0.2c-1.9-1.9-3-3.2-2.8-3.6c0.4-0.5,1.8-2.2,1.8-3.7c0-0.9-1.4-3.1-1.4-3.1l0.3-0.2l3.7,4.7
			c0,0-1.8,2.1-1.8,3.6c0,1,0.7,1.9,1.1,2.5c0.2,0.3,1,1.1,1,1.3l0,0.3C3369.3,314.8,3368.7,314.7,3368.3,314.7z"/>
	</g>
	<g enable-background="new    ">
		<path d="M3412.3,297.6c0.7,0.9,1.5,2,2.3,3.3c0.7,1.1,1.2,2.9,1.3,3.8c0.1,0.8,0.2,1.7,0.2,2.5c0,1.2-0.2,2.4-0.6,3.5l-0.2,0
			c0.4-0.9,0.6-2.4,0.6-3.5c0-1-0.2-2.3-0.5-3.3c-0.6-1.8-1.6-2.9-2.3-3.3c-0.9-0.6-1.9-0.7-1.9-0.7h-0.3v-5.4h0.3
			C3411.1,295.6,3411.7,296.8,3412.3,297.6z"/>
	</g>
	<line fill="none" stroke="#000000" stroke-width="0.384" x1="3410.6" y1="312.4" x2="3410.6" y2="295.3"/>
	<g enable-background="new    ">
		<path d="M3408,310.7c1.7,0,2.7,1.2,2.2,2.7c-0.5,1.5-2.4,2.6-4.1,2.6s-2.7-1.2-2.1-2.7C3404.5,311.8,3406.3,310.7,3408,310.7z"/>
	</g>
	<g enable-background="new    ">
		<path d="M3424.4,308.5c0.4,0,0.8-0.1,1.1-0.5c0.3-0.3,0.5-0.6,0.9-1l0.3,0.2l-2.3,8.6h-0.8c0,0,0.8-2.4,1.1-3.4
			c0.9-2.4,1.1-3.8,1.1-3.8c-0.5,0.4-1.7,1.2-2.7,1.3c-2.2,0.1-2.6-3-0.4-3.6C3424.3,306,3424.7,307.7,3424.4,308.5z"/>
	</g>
	<g enable-background="new    ">
		<path d="M3442.2,314.7c-0.9,0-1.6,0.6-1.6,1.5c0,0.6,1,1.6,1,1.6l-0.2,0.2c0,0-2.4-1.4-2.6-2.9c-0.1-0.9,0.5-1.9,1.7-2
			c0.5,0,1.2,0.1,1.6,0.2c-1.9-1.9-3-3.2-2.8-3.6c0.4-0.5,1.8-2.2,1.8-3.7c0-0.9-1.4-3.1-1.4-3.1l0.3-0.2l3.7,4.7
			c0,0-1.8,2.1-1.8,3.6c0,1,0.7,1.9,1.1,2.5c0.2,0.3,1,1.1,1,1.3l0,0.3C3443.2,314.8,3442.6,314.7,3442.2,314.7z"/>
	</g>
	<g enable-background="new    ">
		<path d="M3476.7,308.1v2.6h-6.5v-2.6H3476.7z"/>
	</g>
	<line fill="none" stroke="#000000" stroke-width="0.384" x1="3469.6" y1="310.7" x2="3477.9" y2="310.7"/>
	<g enable-background="new    ">
		<path d="M3542.3,297.6c0.7,0.9,1.5,2,2.3,3.3c0.7,1.1,1.2,2.9,1.3,3.8c0.1,0.8,0.2,1.7,0.2,2.5c0,1.2-0.2,2.4-0.6,3.5l-0.2,0
			c0.4-0.9,0.6-2.4,0.6-3.5c0-1-0.2-2.3-0.5-3.3c-0.6-1.8-1.6-2.9-2.3-3.3c-0.9-0.6-1.9-0.7-1.9-0.7h-0.3v-5.4h0.3
			C3541.1,295.6,3541.7,296.8,3542.3,297.6z"/>
	</g>
	<line fill="none" stroke="#000000" stroke-width="0.384" x1="3540.6" y1="312.4" x2="3540.6" y2="295.3"/>
	<g enable-background="new    ">
		<path d="M3538.1,310.7c1.7,0,2.7,1.2,2.2,2.7c-0.5,1.5-2.4,2.6-4.1,2.6s-2.7-1.2-2.1-2.7C3534.5,311.8,3536.4,310.7,3538.1,310.7z
			"/>
	</g>
	<g enable-background="new    ">
		<path d="M3552.3,308.5c0.4,0,0.8-0.1,1.1-0.5c0.3-0.3,0.5-0.6,0.9-1l0.3,0.2l-2.3,8.6h-0.8c0,0,0.8-2.4,1.1-3.4
			c0.9-2.4,1.1-3.8,1.1-3.8c-0.5,0.4-1.7,1.2-2.7,1.3c-2.2,0.1-2.6-3-0.4-3.6C3552.2,306,3552.6,307.7,3552.3,308.5z"/>
	</g>
	<g enable-background="new    ">
		<path d="M3568.4,314.7c-0.9,0-1.6,0.6-1.6,1.5c0,0.6,1,1.6,1,1.6l-0.2,0.2c0,0-2.4-1.4-2.6-2.9c-0.1-0.9,0.5-1.9,1.7-2
			c0.5,0,1.2,0.1,1.6,0.2c-1.9-1.9-3-3.2-2.8-3.6c0.4-0.5,1.8-2.2,1.8-3.7c0-0.9-1.4-3.1-1.4-3.1l0.3-0.2l3.7,4.7
			c0,0-1.8,2.1-1.8,3.6c0,1,0.7,1.9,1.1,2.5c0.2,0.3,1,1.1,1,1.3l0,0.3C3569.4,314.8,3568.8,314.7,3568.4,314.7z"/>
	</g>
	<g enable-background="new    ">
		<path d="M3604.3,297.6c0.7,0.9,1.5,2,2.3,3.3c0.7,1.1,1.2,2.9,1.3,3.8c0.1,0.8,0.2,1.7,0.2,2.5c0,1.2-0.2,2.4-0.6,3.5l-0.2,0
			c0.4-0.9,0.6-2.4,0.6-3.5c0-1-0.2-2.3-0.5-3.3c-0.6-1.8-1.6-2.9-2.3-3.3c-0.9-0.6-1.9-0.7-1.9-0.7h-0.3v-5.4h0.3
			C3603.1,295.6,3603.7,296.8,3604.3,297.6z"/>
	</g>
	<line fill="none" stroke="#000000" stroke-width="0.384" x1="3602.6" y1="312.4" x2="3602.6" y2="295.3"/>
	<g enable-background="new    ">
		<path d="M3600,310.7c1.7,0,2.7,1.2,2.2,2.7c-0.5,1.5-2.4,2.6-4.1,2.6c-1.7,0-2.7-1.2-2.1-2.7
			C3596.5,311.8,3598.3,310.7,3600,310.7z"/>
	</g>
	<g enable-background="new    ">
		<path d="M3614.3,308.5c0.4,0,0.8-0.1,1.1-0.5c0.3-0.3,0.5-0.6,0.9-1l0.3,0.2l-2.3,8.6h-0.8c0,0,0.8-2.4,1.1-3.4
			c0.9-2.4,1.1-3.8,1.1-3.8c-0.5,0.4-1.7,1.2-2.7,1.3c-2.2,0.1-2.6-3-0.4-3.6C3614.1,306,3614.5,307.7,3614.3,308.5z"/>
	</g>
	<g enable-background="new    ">
		<path d="M3630.1,314.7c-0.9,0-1.6,0.6-1.6,1.5c0,0.6,1,1.6,1,1.6l-0.2,0.2c0,0-2.4-1.4-2.6-2.9c-0.1-0.9,0.5-1.9,1.7-2
			c0.5,0,1.2,0.1,1.6,0.2c-1.9-1.9-3-3.2-2.8-3.6c0.4-0.5,1.8-2.2,1.8-3.7c0-0.9-1.4-3.1-1.4-3.1l0.3-0.2l3.7,4.7
			c0,0-1.8,2.1-1.8,3.6c0,1,0.7,1.9,1.1,2.5c0.2,0.3,1,1.1,1,1.3l0,0.3C3631.1,314.8,3630.5,314.7,3630.1,314.7z"/>
	</g>
	<g enable-background="new    ">
		<path d="M3674.1,297.6c0.7,0.9,1.5,2,2.3,3.3c0.7,1.1,1.2,2.9,1.3,3.8c0.1,0.8,0.2,1.7,0.2,2.5c0,1.2-0.2,2.4-0.6,3.5l-0.2,0
			c0.4-0.9,0.6-2.4,0.6-3.5c0-1-0.2-2.3-0.5-3.3c-0.6-1.8-1.6-2.9-2.3-3.3c-0.9-0.6-1.9-0.7-1.9-0.7h-0.3v-5.4h0.3
			C3672.9,295.6,3673.5,296.8,3674.1,297.6z"/>
	</g>
	<line fill="none" stroke="#000000" stroke-width="0.384" x1="3672.4" y1="312.4" x2="3672.4" y2="295.3"/>
	<g enable-background="new    ">
		<path d="M3669.8,310.7c1.7,0,2.7,1.2,2.2,2.7c-0.5,1.5-2.4,2.6-4.1,2.6s-2.7-1.2-2.1-2.7C3666.3,311.8,3668.1,310.7,3669.8,310.7z
			"/>
	</g>
	<g enable-background="new    ">
		<path d="M3686.2,308.5c0.4,0,0.8-0.1,1.1-0.5c0.3-0.3,0.5-0.6,0.9-1l0.3,0.2l-2.3,8.6h-0.8c0,0,0.8-2.4,1.1-3.4
			c0.9-2.4,1.1-3.8,1.1-3.8c-0.5,0.4-1.7,1.2-2.7,1.3c-2.2,0.1-2.6-3-0.4-3.6C3686.1,306,3686.5,307.7,3686.2,308.5z"/>
	</g>
	<g enable-background="new    ">
		<path d="M3704,314.7c-0.9,0-1.6,0.6-1.6,1.5c0,0.6,1,1.6,1,1.6l-0.2,0.2c0,0-2.4-1.4-2.6-2.9c-0.1-0.9,0.5-1.9,1.7-2
			c0.5,0,1.2,0.1,1.6,0.2c-1.9-1.9-3-3.2-2.8-3.6c0.4-0.5,1.8-2.2,1.8-3.7c0-0.9-1.4-3.1-1.4-3.1l0.3-0.2l3.7,4.7
			c0,0-1.8,2.1-1.8,3.6c0,1,0.7,1.9,1.1,2.5c0.2,0.3,1,1.1,1,1.3l0,0.3C3705,314.8,3704.4,314.7,3704,314.7z"/>
	</g>
	<g enable-background="new    ">
		<path d="M3738.5,308.1v2.6h-6.5v-2.6H3738.5z"/>
	</g>
	<line fill="none" stroke="#000000" stroke-width="0.384" x1="3731.4" y1="310.7" x2="3739.7" y2="310.7"/>
	<g enable-background="new    ">
		<path d="M3804.1,297.6c0.7,0.9,1.5,2,2.3,3.3c0.7,1.1,1.2,2.9,1.3,3.8c0.1,0.8,0.2,1.7,0.2,2.5c0,1.2-0.2,2.4-0.6,3.5l-0.2,0
			c0.4-0.9,0.6-2.4,0.6-3.5c0-1-0.2-2.3-0.5-3.3c-0.6-1.8-1.6-2.9-2.3-3.3c-0.9-0.6-1.9-0.7-1.9-0.7h-0.3v-5.4h0.3
			C3802.9,295.6,3803.5,296.8,3804.1,297.6z"/>
	</g>
	<line fill="none" stroke="#000000" stroke-width="0.384" x1="3802.4" y1="312.4" x2="3802.4" y2="295.3"/>
	<g enable-background="new    ">
		<path d="M3799.9,310.7c1.7,0,2.7,1.2,2.2,2.7c-0.5,1.5-2.4,2.6-4.1,2.6c-1.7,0-2.7-1.2-2.1-2.7
			C3796.3,311.8,3798.2,310.7,3799.9,310.7z"/>
	</g>
	<g enable-background="new    ">
		<path d="M3814.1,308.5c0.4,0,0.8-0.1,1.1-0.5c0.3-0.3,0.5-0.6,0.9-1l0.3,0.2l-2.3,8.6h-0.8c0,0,0.8-2.4,1.1-3.4
			c0.9-2.4,1.1-3.8,1.1-3.8c-0.5,0.4-1.7,1.2-2.7,1.3c-2.2,0.1-2.6-3-0.4-3.6C3814,306,3814.4,307.7,3814.1,308.5z"/>
	</g>
	<g enable-background="new    ">
		<path d="M3830.2,314.7c-0.9,0-1.6,0.6-1.6,1.5c0,0.6,1,1.6,1,1.6l-0.2,0.2c0,0-2.4-1.4-2.6-2.9c-0.1-0.9,0.5-1.9,1.7-2
			c0.5,0,1.2,0.1,1.6,0.2c-1.9-1.9-3-3.2-2.8-3.6c0.4-0.5,1.8-2.2,1.8-3.7c0-0.9-1.4-3.1-1.4-3.1l0.3-0.2l3.7,4.7
			c0,0-1.8,2.1-1.8,3.6c0,1,0.7,1.9,1.1,2.5c0.2,0.3,1,1.1,1,1.3l0,0.3C3831.2,314.8,3830.6,314.7,3830.2,314.7z"/>
	</g>
	<g enable-background="new    ">
		<path d="M3866.1,297.6c0.7,0.9,1.5,2,2.3,3.3c0.7,1.1,1.2,2.9,1.3,3.8c0.1,0.8,0.2,1.7,0.2,2.5c0,1.2-0.2,2.4-0.6,3.5l-0.2,0
			c0.4-0.9,0.6-2.4,0.6-3.5c0-1-0.2-2.3-0.5-3.3c-0.6-1.8-1.6-2.9-2.3-3.3c-0.9-0.6-1.9-0.7-1.9-0.7h-0.3v-5.4h0.3
			C3864.9,295.6,3865.5,296.8,3866.1,297.6z"/>
	</g>
	<line fill="none" stroke="#000000" stroke-width="0.384" x1="3864.4" y1="312.4" x2="3864.4" y2="295.3"/>
	<g enable-background="new    ">
		<path d="M3861.8,310.7c1.7,0,2.7,1.2,2.2,2.7c-0.5,1.5-2.4,2.6-4.1,2.6c-1.7,0-2.7-1.2-2.1-2.7
			C3858.3,311.8,3860.1,310.7,3861.8,310.7z"/>
	</g>
	<g enable-background="new    ">
		<path d="M3876.1,308.5c0.4,0,0.8-0.1,1.1-0.5c0.3-0.3,0.5-0.6,0.9-1l0.3,0.2l-2.3,8.6h-0.8c0,0,0.8-2.4,1.1-3.4
			c0.9-2.4,1.1-3.8,1.1-3.8c-0.5,0.4-1.7,1.2-2.7,1.3c-2.2,0.1-2.6-3-0.4-3.6C3875.9,306,3876.3,307.7,3876.1,308.5z"/>
	</g>
	<g enable-background="new    ">
		<path d="M3891.9,314.7c-0.9,0-1.6,0.6-1.6,1.5c0,0.6,1,1.6,1,1.6l-0.2,0.2c0,0-2.4-1.4-2.6-2.9c-0.1-0.9,0.5-1.9,1.7-2
			c0.5,0,1.2,0.1,1.6,0.2c-1.9-1.9-3-3.2-2.8-3.6c0.4-0.5,1.8-2.2,1.8-3.7c0-0.9-1.4-3.1-1.4-3.1l0.3-0.2l3.7,4.7
			c0,0-1.8,2.1-1.8,3.6c0,1,0.7,1.9,1.1,2.5c0.2,0.3,1,1.1,1,1.3l0,0.3C3892.9,314.8,3892.3,314.7,3891.9,314.7z"/>
	</g>
	<g enable-background="new    ">
		<path d="M3935.9,297.6c0.7,0.9,1.5,2,2.3,3.3c0.7,1.1,1.2,2.9,1.3,3.8c0.1,0.8,0.2,1.7,0.2,2.5c0,1.2-0.2,2.4-0.6,3.5l-0.2,0
			c0.4-0.9,0.6-2.4,0.6-3.5c0-1-0.2-2.3-0.5-3.3c-0.6-1.8-1.6-2.9-2.3-3.3c-0.9-0.6-1.9-0.7-1.9-0.7h-0.3v-5.4h0.3
			C3934.7,295.6,3935.3,296.8,3935.9,297.6z"/>
	</g>
	<line fill="none" stroke="#000000" stroke-width="0.384" x1="3934.2" y1="312.4" x2="3934.2" y2="295.3"/>
	<g enable-background="new    ">
		<path d="M3931.6,310.7c1.7,0,2.7,1.2,2.2,2.7c-0.5,1.5-2.4,2.6-4.1,2.6c-1.7,0-2.7-1.2-2.1-2.7
			C3928.1,311.8,3929.9,310.7,3931.6,310.7z"/>
	</g>
	<g enable-background="new    ">
		<path d="M3948,308.5c0.4,0,0.8-0.1,1.1-0.5c0.3-0.3,0.5-0.6,0.9-1l0.3,0.2l-2.3,8.6h-0.8c0,0,0.8-2.4,1.1-3.4
			c0.9-2.4,1.1-3.8,1.1-3.8c-0.5,0.4-1.7,1.2-2.7,1.3c-2.2,0.1-2.6-3-0.4-3.6C3947.9,306,3948.3,307.7,3948,308.5z"/>
	</g>
	<g enable-background="new    ">
		<path d="M3965.8,314.7c-0.9,0-1.6,0.6-1.6,1.5c0,0.6,1,1.6,1,1.6l-0.2,0.2c0,0-2.4-1.4-2.6-2.9c-0.1-0.9,0.5-1.9,1.7-2
			c0.5,0,1.2,0.1,1.6,0.2c-1.9-1.9-3-3.2-2.8-3.6c0.4-0.5,1.8-2.2,1.8-3.7c0-0.9-1.4-3.1-1.4-3.1l0.3-0.2l3.7,4.7
			c0,0-1.8,2.1-1.8,3.6c0,1,0.7,1.9,1.1,2.5c0.2,0.3,1,1.1,1,1.3l0,0.3C3966.8,314.8,3966.2,314.7,3965.8,314.7z"/>
	</g>
	<g enable-background="new    ">
		<path d="M4000.3,308.1v2.6h-6.5v-2.6H4000.3z"/>
	</g>
	<line fill="none" stroke="#000000" stroke-width="0.384" x1="3993.2" y1="310.7" x2="4001.5" y2="310.7"/>
	<g enable-background="new    ">
		<path d="M4065.9,297.6c0.7,0.9,1.5,2,2.3,3.3c0.7,1.1,1.2,2.9,1.3,3.8c0.1,0.8,0.2,1.7,0.2,2.5c0,1.2-0.2,2.4-0.6,3.5l-0.2,0
			c0.4-0.9,0.6-2.4,0.6-3.5c0-1-0.2-2.3-0.5-3.3c-0.6-1.8-1.6-2.9-2.3-3.3c-0.9-0.6-1.9-0.7-1.9-0.7h-0.3v-5.4h0.3
			C4064.7,295.6,4065.3,296.8,4065.9,297.6z"/>
	</g>
	<line fill="none" stroke="#000000" stroke-width="0.384" x1="4064.2" y1="312.4" x2="4064.2" y2="295.3"/>
	<g enable-background="new    ">
		<path d="M4061.7,310.7c1.7,0,2.7,1.2,2.2,2.7c-0.5,1.5-2.4,2.6-4.1,2.6c-1.7,0-2.7-1.2-2.1-2.7
			C4058.1,311.8,4060,310.7,4061.7,310.7z"/>
	</g>
	<g enable-background="new    ">
		<path d="M4075.9,308.5c0.4,0,0.8-0.1,1.1-0.5c0.3-0.3,0.5-0.6,0.9-1l0.3,0.2l-2.3,8.6h-0.8c0,0,0.8-2.4,1.1-3.4
			c0.9-2.4,1.1-3.8,1.1-3.8c-0.5,0.4-1.7,1.2-2.7,1.3c-2.2,0.1-2.6-3-0.4-3.6C4075.8,306,4076.2,307.7,4075.9,308.5z"/>
	</g>
	<g enable-background="new    ">
		<path d="M4092,314.7c-0.9,0-1.6,0.6-1.6,1.5c0,0.6,1,1.6,1,1.6l-0.2,0.2c0,0-2.4-1.4-2.6-2.9c-0.1-0.9,0.5-1.9,1.7-2
			c0.5,0,1.2,0.1,1.6,0.2c-1.9-1.9-3-3.2-2.8-3.6c0.4-0.5,1.8-2.2,1.8-3.7c0-0.9-1.4-3.1-1.4-3.1l0.3-0.2l3.7,4.7
			c0,0-1.8,2.1-1.8,3.6c0,1,0.7,1.9,1.1,2.5c0.2,0.3,1,1.1,1,1.3l0,0.3C4093,314.8,4092.4,314.7,4092,314.7z"/>
	</g>
	<g enable-background="new    ">
		<path d="M4127.9,297.6c0.7,0.9,1.5,2,2.3,3.3c0.7,1.1,1.2,2.9,1.3,3.8c0.1,0.8,0.2,1.7,0.2,2.5c0,1.2-0.2,2.4-0.6,3.5l-0.2,0
			c0.4-0.9,0.6-2.4,0.6-3.5c0-1-0.2-2.3-0.5-3.3c-0.6-1.8-1.6-2.9-2.3-3.3c-0.9-0.6-1.9-0.7-1.9-0.7h-0.3v-5.4h0.3
			C4126.7,295.6,4127.3,296.8,4127.9,297.6z"/>
	</g>
	<line fill="none" stroke="#000000" stroke-width="0.384" x1="4126.2" y1="312.4" x2="4126.2" y2="295.3"/>
	<g enable-background="new    ">
		<path d="M4123.6,310.7c1.7,0,2.7,1.2,2.2,2.7c-0.5,1.5-2.4,2.6-4.1,2.6c-1.7,0-2.7-1.2-2.1-2.7
			C4120.1,311.8,4121.9,310.7,4123.6,310.7z"/>
	</g>
	<g enable-background="new    ">
		<path d="M4137.9,308.5c0.4,0,0.8-0.1,1.1-0.5c0.3-0.3,0.5-0.6,0.9-1l0.3,0.2l-2.3,8.6h-0.8c0,0,0.8-2.4,1.1-3.4
			c0.9-2.4,1.1-3.8,1.1-3.8c-0.5,0.4-1.7,1.2-2.7,1.3c-2.2,0.1-2.6-3-0.4-3.6C4137.7,306,4138.1,307.7,4137.9,308.5z"/>
	</g>
	<g enable-background="new    ">
		<path d="M4153.7,314.7c-0.9,0-1.6,0.6-1.6,1.5c0,0.6,1,1.6,1,1.6l-0.2,0.2c0,0-2.4-1.4-2.6-2.9c-0.1-0.9,0.5-1.9,1.7-2
			c0.5,0,1.2,0.1,1.6,0.2c-1.9-1.9-3-3.2-2.8-3.6c0.4-0.5,1.8-2.2,1.8-3.7c0-0.9-1.4-3.1-1.4-3.1l0.3-0.2l3.7,4.7
			c0,0-1.8,2.1-1.8,3.6c0,1,0.7,1.9,1.1,2.5c0.2,0.3,1,1.1,1,1.3l0,0.3C4154.7,314.8,4154.1,314.7,4153.7,314.7z"/>
	</g>
	<g enable-background="new    ">
		<path d="M4197.7,297.6c0.7,0.9,1.5,2,2.3,3.3c0.7,1.1,1.2,2.9,1.3,3.8c0.1,0.8,0.2,1.7,0.2,2.5c0,1.2-0.2,2.4-0.6,3.5l-0.2,0
			c0.4-0.9,0.6-2.4,0.6-3.5c0-1-0.2-2.3-0.5-3.3c-0.6-1.8-1.6-2.9-2.3-3.3c-0.9-0.6-1.9-0.7-1.9-0.7h-0.3v-5.4h0.3
			C4196.5,295.6,4197.1,296.8,4197.7,297.6z"/>
	</g>
	<line fill="none" stroke="#000000" stroke-width="0.384" x1="4196" y1="312.4" x2="4196" y2="295.3"/>
	<g enable-background="new    ">
		<path d="M4193.4,310.7c1.7,0,2.7,1.2,2.2,2.7c-0.5,1.5-2.4,2.6-4.1,2.6c-1.7,0-2.7-1.2-2.1-2.7
			C4189.9,311.8,4191.7,310.7,4193.4,310.7z"/>
	</g>
	<g enable-background="new    ">
		<path d="M4209,308.5c0.4,0,0.8-0.1,1.1-0.5c0.3-0.3,0.5-0.6,0.9-1l0.3,0.2l-2.3,8.6h-0.8c0,0,0.8-2.4,1.1-3.4
			c0.9-2.4,1.1-3.8,1.1-3.8c-0.5,0.4-1.7,1.2-2.7,1.3c-2.2,0.1-2.6-3-0.4-3.6C4208.8,306,4209.3,307.7,4209,308.5z"/>
	</g>
	<g enable-background="new    ">
		<path d="M4226.3,314.7c-0.9,0-1.6,0.6-1.6,1.5c0,0.6,1,1.6,1,1.6l-0.2,0.2c0,0-2.4-1.4-2.6-2.9c-0.1-0.9,0.5-1.9,1.7-2
			c0.5,0,1.2,0.1,1.6,0.2c-1.9-1.9-3-3.2-2.8-3.6c0.4-0.5,1.8-2.2,1.8-3.7c0-0.9-1.4-3.1-1.4-3.1l0.3-0.2l3.7,4.7
			c0,0-1.8,2.1-1.8,3.6c0,1,0.7,1.9,1.1,2.5c0.2,0.3,1,1.1,1,1.3l0,0.3C4227.3,314.8,4226.7,314.7,4226.3,314.7z"/>
	</g>
	<g enable-background="new    ">
		<path d="M4259.3,308.1v2.6h-6.5v-2.6H4259.3z"/>
	</g>
	<line fill="none" stroke="#000000" stroke-width="0.384" x1="4252.2" y1="310.7" x2="4260.5" y2="310.7"/>
</g>
</svg>
