<?xml version="1.0" encoding="utf-8"?>
<!-- Generator: Adobe Illustrator 16.0.0, SVG Export Plug-In . SVG Version: 6.00 Build 0)  -->
<!DOCTYPE svg PUBLIC "-//W3C//DTD SVG 1.1//EN" "http://www.w3.org/Graphics/SVG/1.1/DTD/svg11.dtd">
<svg version="1.1" id="Layer_1" xmlns="http://www.w3.org/2000/svg" xmlns:xlink="http://www.w3.org/1999/xlink" x="0px" y="0px"
	 width="3240px" height="53.3px" viewBox="1108 282.3 3240 53.3" enable-background="new 1108 282.3 3240 53.3"
	 xml:space="preserve">
<g id="Music">
	<rect x="1108" y="208.1" fill="#FFFFFF" width="3240" height="230.5"/>
	<line fill="none" stroke="#000000" stroke-width="0.384" x1="1144.3" y1="238.9" x2="1144.3" y2="382.4"/>
	<g enable-background="new    ">
		<path d="M1154.8,301.6v18.2h-5.2v-18.2H1154.8z M1154,318.1v-14.7h-3.5v14.7H1154z"/>
	</g>
	<g enable-background="new    ">
		<path d="M1166.5,318.1v1.4c0,0.8,1,0.8,1,0.8v0.5h-4.4v-0.5c0,0,1,0,1-0.8v-1.4h-3.8l-0.4-0.4c2.5-3.3,2.5-4,3.1-7h3.5
			c-0.8,1.6-3.7,4.5-5.7,6.8h3.2V315l2.5-2.7v5.3h1.5v0.6H1166.5z"/>
	</g>
	<g enable-background="new    ">
		<path d="M1166.5,307.8v1.4c0,0.8,1,0.8,1,0.8v0.5h-4.4V310c0,0,1,0,1-0.8v-1.4h-3.8l-0.4-0.4c2.5-3.3,2.5-4,3.1-7h3.5
			c-0.8,1.6-3.7,4.5-5.7,6.8h3.2v-2.5l2.5-2.7v5.3h1.5v0.6H1166.5z"/>
	</g>
	<line fill="none" stroke="#000000" stroke-width="0.384" x1="1301.4" y1="300.4" x2="1301.4" y2="320.9"/>
	<line fill="none" stroke="#000000" stroke-width="0.384" x1="1432.3" y1="300.4" x2="1432.3" y2="320.9"/>
	<line fill="none" stroke="#000000" stroke-width="0.384" x1="1563.2" y1="300.4" x2="1563.2" y2="320.9"/>
	<line fill="none" stroke="#000000" stroke-width="0.384" x1="1694.1" y1="300.4" x2="1694.1" y2="320.9"/>
	<line fill="none" stroke="#000000" stroke-width="0.384" x1="1825.1" y1="300.4" x2="1825.1" y2="320.9"/>
	<line fill="none" stroke="#000000" stroke-width="0.384" x1="1956" y1="300.4" x2="1956" y2="320.9"/>
	<line fill="none" stroke="#000000" stroke-width="0.384" x1="2086.9" y1="300.4" x2="2086.9" y2="320.9"/>
	<line fill="none" stroke="#000000" stroke-width="0.384" x1="2217.8" y1="300.4" x2="2217.8" y2="320.9"/>
	<line fill="none" stroke="#000000" stroke-width="0.384" x1="2348.7" y1="300.4" x2="2348.7" y2="320.9"/>
	<line fill="none" stroke="#000000" stroke-width="0.384" x1="2479.6" y1="300.4" x2="2479.6" y2="320.9"/>
	<line fill="none" stroke="#000000" stroke-width="0.384" x1="2610.5" y1="300.4" x2="2610.5" y2="320.9"/>
	<line fill="none" stroke="#000000" stroke-width="0.384" x1="2741.4" y1="300.4" x2="2741.4" y2="320.9"/>
	<line fill="none" stroke="#000000" stroke-width="0.384" x1="2872.3" y1="300.4" x2="2872.3" y2="320.9"/>
	<line fill="none" stroke="#000000" stroke-width="0.384" x1="3003.2" y1="300.4" x2="3003.2" y2="320.9"/>
	<line fill="none" stroke="#000000" stroke-width="0.384" x1="3134.1" y1="300.4" x2="3134.1" y2="320.9"/>
	<line fill="none" stroke="#000000" stroke-width="0.384" x1="3265" y1="300.4" x2="3265" y2="320.9"/>
	<line fill="none" stroke="#000000" stroke-width="0.384" x1="3395.9" y1="300.4" x2="3395.9" y2="320.9"/>
	<line fill="none" stroke="#000000" stroke-width="0.384" x1="3526.8" y1="300.4" x2="3526.8" y2="320.9"/>
	<line fill="none" stroke="#000000" stroke-width="0.384" x1="3657.7" y1="300.4" x2="3657.7" y2="320.9"/>
	<line fill="none" stroke="#000000" stroke-width="0.384" x1="3788.6" y1="300.4" x2="3788.6" y2="320.9"/>
	<line fill="none" stroke="#000000" stroke-width="0.384" x1="3919.5" y1="300.4" x2="3919.5" y2="320.9"/>
	<line fill="none" stroke="#000000" stroke-width="0.384" x1="4050.4" y1="300.4" x2="4050.4" y2="320.9"/>
	<line fill="none" stroke="#000000" stroke-width="0.384" x1="4181.3" y1="300.4" x2="4181.3" y2="320.9"/>
	<line fill="none" stroke="#000000" stroke-width="2.563" x1="4310.7" y1="300.4" x2="4310.7" y2="320.9"/>
	<line fill="none" stroke="#000000" stroke-width="0.384" x1="4306.7" y1="300.4" x2="4306.7" y2="320.9"/>
	<line fill="none" stroke="#000000" stroke-width="0.384" x1="1144.1" y1="310.7" x2="4312" y2="310.7"/>
	<g enable-background="new    ">
		<path d="M1180.8,308.5c0.4,0,0.8-0.1,1.1-0.5c0.3-0.3,0.5-0.6,0.9-1l0.3,0.2l-2.3,8.6h-0.8c0,0,0.8-2.4,1.1-3.4
			c0.9-2.4,1.1-3.8,1.1-3.8c-0.5,0.4-1.7,1.2-2.7,1.3c-2.2,0.1-2.6-3-0.4-3.6C1180.6,306,1181,307.7,1180.8,308.5z"/>
	</g>
	<g enable-background="new    ">
		<path d="M1197.2,310.7c1.7,0,2.7,1.2,2.2,2.7c-0.5,1.5-2.4,2.6-4.1,2.6c-1.7,0-2.7-1.2-2.1-2.7
			C1193.7,311.8,1195.5,310.7,1197.2,310.7z"/>
	</g>
	<line fill="none" stroke="#000000" stroke-width="0.384" x1="1199.8" y1="312.4" x2="1199.8" y2="296.6"/>
	<g enable-background="new    ">
		<path d="M1211.7,308.5c0.4,0,0.8-0.1,1.1-0.5c0.3-0.3,0.5-0.6,0.9-1l0.3,0.2l-2.3,8.6h-0.8c0,0,0.8-2.4,1.1-3.4
			c0.9-2.4,1.1-3.8,1.1-3.8c-0.5,0.4-1.7,1.2-2.7,1.3c-2.2,0.1-2.6-3-0.4-3.6C1211.5,306,1212,307.7,1211.7,308.5z"/>
	</g>
	<g enable-background="new    ">
		<path d="M1228.2,310.7c1.7,0,2.7,1.2,2.2,2.7c-0.5,1.5-2.4,2.6-4.1,2.6c-1.7,0-2.7-1.2-2.1-2.7
			C1224.6,311.8,1226.5,310.7,1228.2,310.7z"/>
	</g>
	<line fill="none" stroke="#000000" stroke-width="0.384" x1="1230.8" y1="312.4" x2="1230.8" y2="296.6"/>
	<path d="M1199.6,295.3h31.3v2.6h-31.3V295.3z"/>
	<g enable-background="new    ">
		<path d="M1242.7,308.5c0.4,0,0.8-0.1,1.1-0.5c0.3-0.3,0.5-0.6,0.9-1l0.3,0.2l-2.3,8.6h-0.8c0,0,0.8-2.4,1.1-3.4
			c0.9-2.4,1.1-3.8,1.1-3.8c-0.5,0.4-1.7,1.2-2.7,1.3c-2.2,0.1-2.6-3-0.4-3.6C1242.5,306,1242.9,307.7,1242.7,308.5z"/>
	</g>
	<g enable-background="new    ">
		<path d="M1259.2,310.7c1.7,0,2.7,1.2,2.2,2.7c-0.5,1.5-2.4,2.6-4.1,2.6c-1.7,0-2.7-1.2-2.1-2.7
			C1255.6,311.8,1257.4,310.7,1259.2,310.7z"/>
	</g>
	<line fill="none" stroke="#000000" stroke-width="0.384" x1="1261.7" y1="312.4" x2="1261.7" y2="296.6"/>
	<g enable-background="new    ">
		<path d="M1273.4,308.5c0.4,0,0.8-0.1,1.1-0.5c0.3-0.3,0.5-0.6,0.9-1l0.3,0.2l-2.3,8.6h-0.8c0,0,0.8-2.4,1.1-3.4
			c0.9-2.4,1.1-3.8,1.1-3.8c-0.5,0.4-1.7,1.2-2.7,1.3c-2.2,0.1-2.6-3-0.4-3.6C1273.3,306,1273.7,307.7,1273.4,308.5z"/>
	</g>
	<g enable-background="new    ">
		<path d="M1290.1,310.7c1.7,0,2.7,1.2,2.2,2.7c-0.5,1.5-2.4,2.6-4.1,2.6c-1.7,0-2.7-1.2-2.1-2.7
			C1286.6,311.8,1288.4,310.7,1290.1,310.7z"/>
	</g>
	<line fill="none" stroke="#000000" stroke-width="0.384" x1="1292.7" y1="312.4" x2="1292.7" y2="296.6"/>
	<path d="M1261.5,295.3h31.3v2.6h-31.3V295.3z"/>
	<g enable-background="new    ">
		<path d="M1312.5,308.5c0.4,0,0.8-0.1,1.1-0.5c0.3-0.3,0.5-0.6,0.9-1l0.3,0.2l-2.3,8.6h-0.8c0,0,0.8-2.4,1.1-3.4
			c0.9-2.4,1.1-3.8,1.1-3.8c-0.5,0.4-1.7,1.2-2.7,1.3c-2.2,0.1-2.6-3-0.4-3.6C1312.3,306,1312.8,307.7,1312.5,308.5z"/>
	</g>
	<line fill="none" stroke="#000000" stroke-width="0.384" x1="1333.7" y1="312.4" x2="1333.7" y2="295.3"/>
	<g enable-background="new    ">
		<path d="M1331.1,310.7c1.7,0,2.7,1.2,2.2,2.7c-0.5,1.5-2.4,2.6-4.1,2.6c-1.7,0-2.7-1.2-2.1-2.7
			C1327.6,311.8,1329.4,310.7,1331.1,310.7z"/>
	</g>
	<g enable-background="new    ">
		<path d="M1366.8,297.6c0.7,0.9,1.5,2,2.3,3.3c0.7,1.1,1.2,2.9,1.3,3.8c0.1,0.8,0.2,1.7,0.2,2.5c0,1.2-0.2,2.4-0.6,3.5l-0.2,0
			c0.4-0.9,0.6-2.4,0.6-3.5c0-1-0.2-2.3-0.5-3.3c-0.6-1.8-1.6-2.9-2.3-3.3c-0.9-0.6-1.9-0.7-1.9-0.7h-0.3v-5.4h0.3
			C1365.6,295.6,1366.2,296.8,1366.8,297.6z"/>
	</g>
	<line fill="none" stroke="#000000" stroke-width="0.384" x1="1365.1" y1="312.4" x2="1365.1" y2="295.3"/>
	<g enable-background="new    ">
		<path d="M1362.5,310.7c1.7,0,2.7,1.2,2.2,2.7c-0.5,1.5-2.4,2.6-4.1,2.6c-1.7,0-2.7-1.2-2.1-2.7
			C1359,311.8,1360.8,310.7,1362.5,310.7z"/>
	</g>
	<line fill="none" stroke="#000000" stroke-width="0.384" x1="1382.6" y1="312.4" x2="1382.6" y2="295.3"/>
	<g enable-background="new    ">
		<path d="M1380,310.7c1.7,0,2.7,1.2,2.2,2.7c-0.5,1.5-2.4,2.6-4.1,2.6c-1.7,0-2.7-1.2-2.1-2.7
			C1376.5,311.8,1378.3,310.7,1380,310.7z"/>
	</g>
	<g enable-background="new    ">
		<path d="M1407.6,314.7c-0.9,0-1.6,0.6-1.6,1.5c0,0.6,1,1.6,1,1.6l-0.2,0.2c0,0-2.4-1.4-2.6-2.9c-0.1-0.9,0.5-1.9,1.7-2
			c0.5,0,1.2,0.1,1.6,0.2c-1.9-1.9-3-3.2-2.8-3.6c0.4-0.5,1.8-2.2,1.8-3.7c0-0.9-1.4-3.1-1.4-3.1l0.3-0.2l3.7,4.7
			c0,0-1.8,2.1-1.8,3.6c0,1,0.7,1.9,1.1,2.5c0.2,0.3,1,1.1,1,1.3l0,0.3C1408.5,314.8,1408,314.7,1407.6,314.7z"/>
	</g>
	<g enable-background="new    ">
		<path d="M1442.6,308.5c0.4,0,0.8-0.1,1.1-0.5c0.3-0.3,0.5-0.6,0.9-1l0.3,0.2l-2.3,8.6h-0.8c0,0,0.8-2.4,1.1-3.4
			c0.9-2.4,1.1-3.8,1.1-3.8c-0.5,0.4-1.7,1.2-2.7,1.3c-2.2,0.1-2.6-3-0.4-3.6C1442.4,306,1442.8,307.7,1442.6,308.5z"/>
	</g>
	<g enable-background="new    ">
		<path d="M1459,310.7c1.7,0,2.7,1.2,2.2,2.7c-0.5,1.5-2.4,2.6-4.1,2.6c-1.7,0-2.7-1.2-2.1-2.7
			C1455.5,311.8,1457.3,310.7,1459,310.7z"/>
	</g>
	<line fill="none" stroke="#000000" stroke-width="0.384" x1="1461.6" y1="312.4" x2="1461.6" y2="296.6"/>
	<g enable-background="new    ">
		<path d="M1473.5,308.5c0.4,0,0.8-0.1,1.1-0.5c0.3-0.3,0.5-0.6,0.9-1l0.3,0.2l-2.3,8.6h-0.8c0,0,0.8-2.4,1.1-3.4
			c0.9-2.4,1.1-3.8,1.1-3.8c-0.5,0.4-1.7,1.2-2.7,1.3c-2.2,0.1-2.6-3-0.4-3.6C1473.4,306,1473.8,307.7,1473.5,308.5z"/>
	</g>
	<g enable-background="new    ">
		<path d="M1490,310.7c1.7,0,2.7,1.2,2.2,2.7c-0.5,1.5-2.4,2.6-4.1,2.6c-1.7,0-2.7-1.2-2.1-2.7
			C1486.5,311.8,1488.3,310.7,1490,310.7z"/>
	</g>
	<line fill="none" stroke="#000000" stroke-width="0.384" x1="1492.6" y1="312.4" x2="1492.6" y2="296.6"/>
	<path d="M1461.4,295.3h31.3v2.6h-31.3V295.3z"/>
	<g enable-background="new    ">
		<path d="M1504.5,308.5c0.4,0,0.8-0.1,1.1-0.5c0.3-0.3,0.5-0.6,0.9-1l0.3,0.2l-2.3,8.6h-0.8c0,0,0.8-2.4,1.1-3.4
			c0.9-2.4,1.1-3.8,1.1-3.8c-0.5,0.4-1.7,1.2-2.7,1.3c-2.2,0.1-2.6-3-0.4-3.6C1504.3,306,1504.7,307.7,1504.5,308.5z"/>
	</g>
	<g enable-background="new    ">
		<path d="M1521,310.7c1.7,0,2.7,1.2,2.2,2.7c-0.5,1.5-2.4,2.6-4.1,2.6c-1.7,0-2.7-1.2-2.1-2.7
			C1517.4,311.8,1519.2,310.7,1521,310.7z"/>
	</g>
	<line fill="none" stroke="#000000" stroke-width="0.384" x1="1523.5" y1="312.4" x2="1523.5" y2="296.6"/>
	<g enable-background="new    ">
		<path d="M1535.2,308.5c0.4,0,0.8-0.1,1.1-0.5c0.3-0.3,0.5-0.6,0.9-1l0.3,0.2l-2.3,8.6h-0.8c0,0,0.8-2.4,1.1-3.4
			c0.9-2.4,1.1-3.8,1.1-3.8c-0.5,0.4-1.7,1.2-2.7,1.3c-2.2,0.1-2.6-3-0.4-3.6C1535.1,306,1535.5,307.7,1535.2,308.5z"/>
	</g>
	<g enable-background="new    ">
		<path d="M1551.9,310.7c1.7,0,2.7,1.2,2.2,2.7c-0.5,1.5-2.4,2.6-4.1,2.6c-1.7,0-2.7-1.2-2.1-2.7
			C1548.4,311.8,1550.2,310.7,1551.9,310.7z"/>
	</g>
	<line fill="none" stroke="#000000" stroke-width="0.384" x1="1554.5" y1="312.4" x2="1554.5" y2="296.6"/>
	<path d="M1523.3,295.3h31.3v2.6h-31.3V295.3z"/>
	<g enable-background="new    ">
		<path d="M1574.3,308.5c0.4,0,0.8-0.1,1.1-0.5c0.3-0.3,0.5-0.6,0.9-1l0.3,0.2l-2.3,8.6h-0.8c0,0,0.8-2.4,1.1-3.4
			c0.9-2.4,1.1-3.8,1.1-3.8c-0.5,0.4-1.7,1.2-2.7,1.3c-2.2,0.1-2.6-3-0.4-3.6C1574.1,306,1574.6,307.7,1574.3,308.5z"/>
	</g>
	<line fill="none" stroke="#000000" stroke-width="0.384" x1="1595.5" y1="312.4" x2="1595.5" y2="295.3"/>
	<g enable-background="new    ">
		<path d="M1592.9,310.7c1.7,0,2.7,1.2,2.2,2.7c-0.5,1.5-2.4,2.6-4.1,2.6c-1.7,0-2.7-1.2-2.1-2.7
			C1589.4,311.8,1591.2,310.7,1592.9,310.7z"/>
	</g>
	<g enable-background="new    ">
		<path d="M1628.6,297.6c0.7,0.9,1.5,2,2.3,3.3c0.7,1.1,1.2,2.9,1.3,3.8c0.1,0.8,0.2,1.7,0.2,2.5c0,1.2-0.2,2.4-0.6,3.5l-0.2,0
			c0.4-0.9,0.6-2.4,0.6-3.5c0-1-0.2-2.3-0.5-3.3c-0.6-1.8-1.6-2.9-2.3-3.3c-0.9-0.6-1.9-0.7-1.9-0.7h-0.3v-5.4h0.3
			C1627.4,295.6,1628,296.8,1628.6,297.6z"/>
	</g>
	<line fill="none" stroke="#000000" stroke-width="0.384" x1="1626.9" y1="312.4" x2="1626.9" y2="295.3"/>
	<g enable-background="new    ">
		<path d="M1624.3,310.7c1.7,0,2.7,1.2,2.2,2.7c-0.5,1.5-2.4,2.6-4.1,2.6c-1.7,0-2.7-1.2-2.1-2.7
			C1620.8,311.8,1622.6,310.7,1624.3,310.7z"/>
	</g>
	<line fill="none" stroke="#000000" stroke-width="0.384" x1="1644.4" y1="312.4" x2="1644.4" y2="295.3"/>
	<g enable-background="new    ">
		<path d="M1641.8,310.7c1.7,0,2.7,1.2,2.2,2.7c-0.5,1.5-2.4,2.6-4.1,2.6c-1.7,0-2.7-1.2-2.1-2.7
			C1638.3,311.8,1640.1,310.7,1641.8,310.7z"/>
	</g>
	<g enable-background="new    ">
		<path d="M1669.4,314.7c-0.9,0-1.6,0.6-1.6,1.5c0,0.6,1,1.6,1,1.6l-0.2,0.2c0,0-2.4-1.4-2.6-2.9c-0.1-0.9,0.5-1.9,1.7-2
			c0.5,0,1.2,0.1,1.6,0.2c-1.9-1.9-3-3.2-2.8-3.6c0.4-0.5,1.8-2.2,1.8-3.7c0-0.9-1.4-3.1-1.4-3.1l0.3-0.2l3.7,4.7
			c0,0-1.8,2.1-1.8,3.6c0,1,0.7,1.9,1.1,2.5c0.2,0.3,1,1.1,1,1.3l0,0.3C1670.3,314.8,1669.8,314.7,1669.4,314.7z"/>
	</g>
	<g enable-background="new    ">
		<path d="M1704.4,308.5c0.4,0,0.8-0.1,1.1-0.5c0.3-0.3,0.5-0.6,0.9-1l0.3,0.2l-2.3,8.6h-0.8c0,0,0.8-2.4,1.1-3.4
			c0.9-2.4,1.1-3.8,1.1-3.8c-0.5,0.4-1.7,1.2-2.7,1.3c-2.2,0.1-2.6-3-0.4-3.6C1704.2,306,1704.6,307.7,1704.4,308.5z"/>
	</g>
	<g enable-background="new    ">
		<path d="M1720.8,310.7c1.7,0,2.7,1.2,2.2,2.7c-0.5,1.5-2.4,2.6-4.1,2.6c-1.7,0-2.7-1.2-2.1-2.7
			C1717.3,311.8,1719.1,310.7,1720.8,310.7z"/>
	</g>
	<line fill="none" stroke="#000000" stroke-width="0.384" x1="1723.4" y1="312.4" x2="1723.4" y2="296.6"/>
	<g enable-background="new    ">
		<path d="M1735.3,308.5c0.4,0,0.8-0.1,1.1-0.5c0.3-0.3,0.5-0.6,0.9-1l0.3,0.2l-2.3,8.6h-0.8c0,0,0.8-2.4,1.1-3.4
			c0.9-2.4,1.1-3.8,1.1-3.8c-0.5,0.4-1.7,1.2-2.7,1.3c-2.2,0.1-2.6-3-0.4-3.6C1735.2,306,1735.6,307.7,1735.3,308.5z"/>
	</g>
	<g enable-background="new    ">
		<path d="M1751.8,310.7c1.7,0,2.7,1.2,2.2,2.7c-0.5,1.5-2.4,2.6-4.1,2.6c-1.7,0-2.7-1.2-2.1-2.7
			C1748.3,311.8,1750.1,310.7,1751.8,310.7z"/>
	</g>
	<line fill="none" stroke="#000000" stroke-width="0.384" x1="1754.4" y1="312.4" x2="1754.4" y2="296.6"/>
	<path d="M1723.2,295.3h31.3v2.6h-31.3V295.3z"/>
	<g enable-background="new    ">
		<path d="M1766.3,308.5c0.4,0,0.8-0.1,1.1-0.5c0.3-0.3,0.5-0.6,0.9-1l0.3,0.2l-2.3,8.6h-0.8c0,0,0.8-2.4,1.1-3.4
			c0.9-2.4,1.1-3.8,1.1-3.8c-0.5,0.4-1.7,1.2-2.7,1.3c-2.2,0.1-2.6-3-0.4-3.6C1766.1,306,1766.5,307.7,1766.3,308.5z"/>
	</g>
	<g enable-background="new    ">
		<path d="M1782.8,310.7c1.7,0,2.7,1.2,2.2,2.7c-0.5,1.5-2.4,2.6-4.1,2.6c-1.7,0-2.7-1.2-2.1-2.7
			C1779.2,311.8,1781,310.7,1782.8,310.7z"/>
	</g>
	<line fill="none" stroke="#000000" stroke-width="0.384" x1="1785.3" y1="312.4" x2="1785.3" y2="296.6"/>
	<g enable-background="new    ">
		<path d="M1797,308.5c0.4,0,0.8-0.1,1.1-0.5c0.3-0.3,0.5-0.6,0.9-1l0.3,0.2l-2.3,8.6h-0.8c0,0,0.8-2.4,1.1-3.4
			c0.9-2.4,1.1-3.8,1.1-3.8c-0.5,0.4-1.7,1.2-2.7,1.3c-2.2,0.1-2.6-3-0.4-3.6C1796.9,306,1797.3,307.7,1797,308.5z"/>
	</g>
	<g enable-background="new    ">
		<path d="M1813.7,310.7c1.7,0,2.7,1.2,2.2,2.7c-0.5,1.5-2.4,2.6-4.1,2.6c-1.7,0-2.7-1.2-2.1-2.7
			C1810.2,311.8,1812,310.7,1813.7,310.7z"/>
	</g>
	<line fill="none" stroke="#000000" stroke-width="0.384" x1="1816.3" y1="312.4" x2="1816.3" y2="296.6"/>
	<path d="M1785.1,295.3h31.3v2.6h-31.3V295.3z"/>
	<g enable-background="new    ">
		<path d="M1836.1,308.5c0.4,0,0.8-0.1,1.1-0.5c0.3-0.3,0.5-0.6,0.9-1l0.3,0.2l-2.3,8.6h-0.8c0,0,0.8-2.4,1.1-3.4
			c0.9-2.4,1.1-3.8,1.1-3.8c-0.5,0.4-1.7,1.2-2.7,1.3c-2.2,0.1-2.6-3-0.4-3.6C1835.9,306,1836.4,307.7,1836.1,308.5z"/>
	</g>
	<line fill="none" stroke="#000000" stroke-width="0.384" x1="1857.3" y1="312.4" x2="1857.3" y2="295.3"/>
	<g enable-background="new    ">
		<path d="M1854.7,310.7c1.7,0,2.7,1.2,2.2,2.7c-0.5,1.5-2.4,2.6-4.1,2.6c-1.7,0-2.7-1.2-2.1-2.7
			C1851.2,311.8,1853,310.7,1854.7,310.7z"/>
	</g>
	<g enable-background="new    ">
		<path d="M1890.4,297.6c0.7,0.9,1.5,2,2.3,3.3c0.7,1.1,1.2,2.9,1.3,3.8c0.1,0.8,0.2,1.7,0.2,2.5c0,1.2-0.2,2.4-0.6,3.5l-0.2,0
			c0.4-0.9,0.6-2.4,0.6-3.5c0-1-0.2-2.3-0.5-3.3c-0.6-1.8-1.6-2.9-2.3-3.3c-0.9-0.6-1.9-0.7-1.9-0.7h-0.3v-5.4h0.3
			C1889.2,295.6,1889.8,296.8,1890.4,297.6z"/>
	</g>
	<line fill="none" stroke="#000000" stroke-width="0.384" x1="1888.7" y1="312.4" x2="1888.7" y2="295.3"/>
	<g enable-background="new    ">
		<path d="M1886.1,310.7c1.7,0,2.7,1.2,2.2,2.7c-0.5,1.5-2.4,2.6-4.1,2.6c-1.7,0-2.7-1.2-2.1-2.7
			C1882.6,311.8,1884.4,310.7,1886.1,310.7z"/>
	</g>
	<line fill="none" stroke="#000000" stroke-width="0.384" x1="1906.2" y1="312.4" x2="1906.2" y2="295.3"/>
	<g enable-background="new    ">
		<path d="M1903.6,310.7c1.7,0,2.7,1.2,2.2,2.7c-0.5,1.5-2.4,2.6-4.1,2.6c-1.7,0-2.7-1.2-2.1-2.7
			C1900.1,311.8,1901.9,310.7,1903.6,310.7z"/>
	</g>
	<g enable-background="new    ">
		<path d="M1931.2,314.7c-0.9,0-1.6,0.6-1.6,1.5c0,0.6,1,1.6,1,1.6l-0.2,0.2c0,0-2.4-1.4-2.6-2.9c-0.1-0.9,0.5-1.9,1.7-2
			c0.5,0,1.2,0.1,1.6,0.2c-1.9-1.9-3-3.2-2.8-3.6c0.4-0.5,1.8-2.2,1.8-3.7c0-0.9-1.4-3.1-1.4-3.1l0.3-0.2l3.7,4.7
			c0,0-1.8,2.1-1.8,3.6c0,1,0.7,1.9,1.1,2.5c0.2,0.3,1,1.1,1,1.3l0,0.3C1932.1,314.8,1931.6,314.7,1931.2,314.7z"/>
	</g>
	<g enable-background="new    ">
		<path d="M1966.2,308.5c0.4,0,0.8-0.1,1.1-0.5c0.3-0.3,0.5-0.6,0.9-1l0.3,0.2l-2.3,8.6h-0.8c0,0,0.8-2.4,1.1-3.4
			c0.9-2.4,1.1-3.8,1.1-3.8c-0.5,0.4-1.7,1.2-2.7,1.3c-2.2,0.1-2.6-3-0.4-3.6C1966,306,1966.4,307.7,1966.2,308.5z"/>
	</g>
	<g enable-background="new    ">
		<path d="M1982.6,310.7c1.7,0,2.7,1.2,2.2,2.7c-0.5,1.5-2.4,2.6-4.1,2.6c-1.7,0-2.7-1.2-2.1-2.7
			C1979.1,311.8,1980.9,310.7,1982.6,310.7z"/>
	</g>
	<line fill="none" stroke="#000000" stroke-width="0.384" x1="1985.2" y1="312.4" x2="1985.2" y2="296.6"/>
	<g enable-background="new    ">
		<path d="M1997.1,308.5c0.4,0,0.8-0.1,1.1-0.5c0.3-0.3,0.5-0.6,0.9-1l0.3,0.2l-2.3,8.6h-0.8c0,0,0.8-2.4,1.1-3.4
			c0.9-2.4,1.1-3.8,1.1-3.8c-0.5,0.4-1.7,1.2-2.7,1.3c-2.2,0.1-2.6-3-0.4-3.6C1997,306,1997.4,307.7,1997.1,308.5z"/>
	</g>
	<g enable-background="new    ">
		<path d="M2013.6,310.7c1.7,0,2.7,1.2,2.2,2.7c-0.5,1.5-2.4,2.6-4.1,2.6c-1.7,0-2.7-1.2-2.1-2.7
			C2010.1,311.8,2011.9,310.7,2013.6,310.7z"/>
	</g>
	<line fill="none" stroke="#000000" stroke-width="0.384" x1="2016.2" y1="312.4" x2="2016.2" y2="296.6"/>
	<path d="M1985,295.3h31.3v2.6H1985V295.3z"/>
	<g enable-background="new    ">
		<path d="M2028.1,308.5c0.4,0,0.8-0.1,1.1-0.5c0.3-0.3,0.5-0.6,0.9-1l0.3,0.2l-2.3,8.6h-0.8c0,0,0.8-2.4,1.1-3.4
			c0.9-2.4,1.1-3.8,1.1-3.8c-0.5,0.4-1.7,1.2-2.7,1.3c-2.2,0.1-2.6-3-0.4-3.6C2027.9,306,2028.4,307.7,2028.1,308.5z"/>
	</g>
	<g enable-background="new    ">
		<path d="M2044.6,310.7c1.7,0,2.7,1.2,2.2,2.7c-0.5,1.5-2.4,2.6-4.1,2.6c-1.7,0-2.7-1.2-2.1-2.7
			C2041,311.8,2042.8,310.7,2044.6,310.7z"/>
	</g>
	<line fill="none" stroke="#000000" stroke-width="0.384" x1="2047.1" y1="312.4" x2="2047.1" y2="296.6"/>
	<g enable-background="new    ">
		<path d="M2058.8,308.5c0.4,0,0.8-0.1,1.1-0.5c0.3-0.3,0.5-0.6,0.9-1l0.3,0.2l-2.3,8.6h-0.8c0,0,0.8-2.4,1.1-3.4
			c0.9-2.4,1.1-3.8,1.1-3.8c-0.5,0.4-1.7,1.2-2.7,1.3c-2.2,0.1-2.6-3-0.4-3.6C2058.7,306,2059.1,307.7,2058.8,308.5z"/>
	</g>
	<g enable-background="new    ">
		<path d="M2075.5,310.7c1.7,0,2.7,1.2,2.2,2.7c-0.5,1.5-2.4,2.6-4.1,2.6c-1.7,0-2.7-1.2-2.1-2.7
			C2072,311.8,2073.8,310.7,2075.5,310.7z"/>
	</g>
	<line fill="none" stroke="#000000" stroke-width="0.384" x1="2078.1" y1="312.4" x2="2078.1" y2="296.6"/>
	<path d="M2046.9,295.3h31.3v2.6h-31.3V295.3z"/>
	<g enable-background="new    ">
		<path d="M2097.9,308.5c0.4,0,0.8-0.1,1.1-0.5c0.3-0.3,0.5-0.6,0.9-1l0.3,0.2l-2.3,8.6h-0.8c0,0,0.8-2.4,1.1-3.4
			c0.9-2.4,1.1-3.8,1.1-3.8c-0.5,0.4-1.7,1.2-2.7,1.3c-2.2,0.1-2.6-3-0.4-3.6C2097.7,306,2098.2,307.7,2097.9,308.5z"/>
	</g>
	<line fill="none" stroke="#000000" stroke-width="0.384" x1="2119.1" y1="312.4" x2="2119.1" y2="295.3"/>
	<g enable-background="new    ">
		<path d="M2116.5,310.7c1.7,0,2.7,1.2,2.2,2.7c-0.5,1.5-2.4,2.6-4.1,2.6c-1.7,0-2.7-1.2-2.1-2.7
			C2113,311.8,2114.8,310.7,2116.5,310.7z"/>
	</g>
	<g enable-background="new    ">
		<path d="M2152.2,297.6c0.7,0.9,1.5,2,2.3,3.3c0.7,1.1,1.2,2.9,1.3,3.8c0.1,0.8,0.2,1.7,0.2,2.5c0,1.2-0.2,2.4-0.6,3.5l-0.2,0
			c0.4-0.9,0.6-2.4,0.6-3.5c0-1-0.2-2.3-0.5-3.3c-0.6-1.8-1.6-2.9-2.3-3.3c-0.9-0.6-1.9-0.7-1.9-0.7h-0.3v-5.4h0.3
			C2151,295.6,2151.6,296.8,2152.2,297.6z"/>
	</g>
	<line fill="none" stroke="#000000" stroke-width="0.384" x1="2150.5" y1="312.4" x2="2150.5" y2="295.3"/>
	<g enable-background="new    ">
		<path d="M2147.9,310.7c1.7,0,2.7,1.2,2.2,2.7c-0.5,1.5-2.4,2.6-4.1,2.6c-1.7,0-2.7-1.2-2.1-2.7
			C2144.4,311.8,2146.2,310.7,2147.9,310.7z"/>
	</g>
	<line fill="none" stroke="#000000" stroke-width="0.384" x1="2168" y1="312.4" x2="2168" y2="295.3"/>
	<g enable-background="new    ">
		<path d="M2165.4,310.7c1.7,0,2.7,1.2,2.2,2.7c-0.5,1.5-2.4,2.6-4.1,2.6c-1.7,0-2.7-1.2-2.1-2.7
			C2161.9,311.8,2163.7,310.7,2165.4,310.7z"/>
	</g>
	<g enable-background="new    ">
		<path d="M2193,314.7c-0.9,0-1.6,0.6-1.6,1.5c0,0.6,1,1.6,1,1.6l-0.2,0.2c0,0-2.4-1.4-2.6-2.9c-0.1-0.9,0.5-1.9,1.7-2
			c0.5,0,1.2,0.1,1.6,0.2c-1.9-1.9-3-3.2-2.8-3.6c0.4-0.5,1.8-2.2,1.8-3.7c0-0.9-1.4-3.1-1.4-3.1l0.3-0.2l3.7,4.7
			c0,0-1.8,2.1-1.8,3.6c0,1,0.7,1.9,1.1,2.5c0.2,0.3,1,1.1,1,1.3l0,0.3C2193.9,314.8,2193.4,314.7,2193,314.7z"/>
	</g>
	<g enable-background="new    ">
		<path d="M2232.2,308.1v2.6h-6.5v-2.6H2232.2z"/>
	</g>
	<line fill="none" stroke="#000000" stroke-width="0.384" x1="2225" y1="310.7" x2="2233.4" y2="310.7"/>
	<g enable-background="new    ">
		<path d="M2290.8,314.7c-0.9,0-1.6,0.6-1.6,1.5c0,0.6,1,1.6,1,1.6l-0.2,0.2c0,0-2.4-1.4-2.6-2.9c-0.1-0.9,0.5-1.9,1.7-2
			c0.5,0,1.2,0.1,1.6,0.2c-1.9-1.9-3-3.2-2.8-3.6c0.4-0.5,1.8-2.2,1.8-3.7c0-0.9-1.4-3.1-1.4-3.1l0.3-0.2l3.7,4.7
			c0,0-1.8,2.1-1.8,3.6c0,1,0.7,1.9,1.1,2.5c0.2,0.3,1,1.1,1,1.3l0,0.3C2291.7,314.8,2291.2,314.7,2290.8,314.7z"/>
	</g>
	<line fill="none" stroke="#000000" stroke-width="0.384" x1="2324.5" y1="312.4" x2="2324.5" y2="295.3"/>
	<g enable-background="new    ">
		<path d="M2322,310.7c1.7,0,2.7,1.2,2.2,2.7c-0.5,1.5-2.4,2.6-4.1,2.6c-1.7,0-2.7-1.2-2.1-2.7
			C2318.4,311.8,2320.2,310.7,2322,310.7z"/>
	</g>
	<g enable-background="new    ">
		<path d="M2417.1,310.7v3h-6.5v-3H2417.1z"/>
	</g>
	<line fill="none" stroke="#000000" stroke-width="0.384" x1="2410" y1="310.7" x2="2418.3" y2="310.7"/>
	<g enable-background="new    ">
		<path d="M2495.1,297.6c0.7,0.9,1.5,2,2.3,3.3c0.7,1.1,1.2,2.9,1.3,3.8c0.1,0.8,0.2,1.7,0.2,2.5c0,1.2-0.2,2.4-0.6,3.5l-0.2,0
			c0.4-0.9,0.6-2.4,0.6-3.5c0-1-0.2-2.3-0.5-3.3c-0.6-1.8-1.6-2.9-2.3-3.3c-0.9-0.6-1.9-0.7-1.9-0.7h-0.3v-5.4h0.3
			C2493.9,295.6,2494.5,296.8,2495.1,297.6z"/>
	</g>
	<line fill="none" stroke="#000000" stroke-width="0.384" x1="2493.4" y1="312.4" x2="2493.4" y2="295.3"/>
	<g enable-background="new    ">
		<path d="M2490.9,310.7c1.7,0,2.7,1.2,2.2,2.7c-0.5,1.5-2.4,2.6-4.1,2.6c-1.7,0-2.7-1.2-2.1-2.7
			C2487.3,311.8,2489.1,310.7,2490.9,310.7z"/>
	</g>
	<line fill="none" stroke="#000000" stroke-width="0.384" x1="2511.6" y1="312.4" x2="2511.6" y2="295.3"/>
	<g enable-background="new    ">
		<path d="M2509,310.7c1.7,0,2.7,1.2,2.2,2.7c-0.5,1.5-2.4,2.6-4.1,2.6c-1.7,0-2.7-1.2-2.1-2.7
			C2505.5,311.8,2507.3,310.7,2509,310.7z"/>
	</g>
	<g enable-background="new    ">
		<path d="M2542.3,297.6c0.7,0.9,1.5,2,2.3,3.3c0.7,1.1,1.2,2.9,1.3,3.8c0.1,0.8,0.2,1.7,0.2,2.5c0,1.2-0.2,2.4-0.6,3.5l-0.2,0
			c0.4-0.9,0.6-2.4,0.6-3.5c0-1-0.2-2.3-0.5-3.3c-0.6-1.8-1.6-2.9-2.3-3.3c-0.9-0.6-1.9-0.7-1.9-0.7h-0.3v-5.4h0.3
			C2541.1,295.6,2541.7,296.8,2542.3,297.6z"/>
	</g>
	<line fill="none" stroke="#000000" stroke-width="0.384" x1="2540.6" y1="312.4" x2="2540.6" y2="295.3"/>
	<g enable-background="new    ">
		<path d="M2538.1,310.7c1.7,0,2.7,1.2,2.2,2.7c-0.5,1.5-2.4,2.6-4.1,2.6c-1.7,0-2.7-1.2-2.1-2.7
			C2534.5,311.8,2536.3,310.7,2538.1,310.7z"/>
	</g>
	<line fill="none" stroke="#000000" stroke-width="0.384" x1="2558.8" y1="312.4" x2="2558.8" y2="295.3"/>
	<g enable-background="new    ">
		<path d="M2556.2,310.7c1.7,0,2.7,1.2,2.2,2.7c-0.5,1.5-2.4,2.6-4.1,2.6c-1.7,0-2.7-1.2-2.1-2.7
			C2552.7,311.8,2554.5,310.7,2556.2,310.7z"/>
	</g>
	<g enable-background="new    ">
		<path d="M2584.6,314.7c-0.9,0-1.6,0.6-1.6,1.5c0,0.6,1,1.6,1,1.6l-0.2,0.2c0,0-2.4-1.4-2.6-2.9c-0.1-0.9,0.5-1.9,1.7-2
			c0.5,0,1.2,0.1,1.6,0.2c-1.9-1.9-3-3.2-2.8-3.6c0.4-0.5,1.8-2.2,1.8-3.7c0-0.9-1.4-3.1-1.4-3.1l0.3-0.2l3.7,4.7
			c0,0-1.8,2.1-1.8,3.6c0,1,0.7,1.9,1.1,2.5c0.2,0.3,1,1.1,1,1.3l0,0.3C2585.6,314.8,2585,314.7,2584.6,314.7z"/>
	</g>
	<g enable-background="new    ">
		<path d="M2678.9,310.7v3h-6.5v-3H2678.9z"/>
	</g>
	<line fill="none" stroke="#000000" stroke-width="0.384" x1="2671.8" y1="310.7" x2="2680.1" y2="310.7"/>
	<g enable-background="new    ">
		<path d="M2755.8,308.1v2.6h-6.5v-2.6H2755.8z"/>
	</g>
	<line fill="none" stroke="#000000" stroke-width="0.384" x1="2748.6" y1="310.7" x2="2757" y2="310.7"/>
	<g enable-background="new    ">
		<path d="M2814.4,314.7c-0.9,0-1.6,0.6-1.6,1.5c0,0.6,1,1.6,1,1.6l-0.2,0.2c0,0-2.4-1.4-2.6-2.9c-0.1-0.9,0.5-1.9,1.7-2
			c0.5,0,1.2,0.1,1.6,0.2c-1.9-1.9-3-3.2-2.8-3.6c0.4-0.5,1.8-2.2,1.8-3.7c0-0.9-1.4-3.1-1.4-3.1l0.3-0.2l3.7,4.7
			c0,0-1.8,2.1-1.8,3.6c0,1,0.7,1.9,1.1,2.5c0.2,0.3,1,1.1,1,1.3l0,0.3C2815.4,314.8,2814.8,314.7,2814.4,314.7z"/>
	</g>
	<line fill="none" stroke="#000000" stroke-width="0.384" x1="2848.1" y1="312.4" x2="2848.1" y2="295.3"/>
	<g enable-background="new    ">
		<path d="M2845.6,310.7c1.7,0,2.7,1.2,2.2,2.7c-0.5,1.5-2.4,2.6-4.1,2.6c-1.7,0-2.7-1.2-2.1-2.7
			C2842,311.8,2843.8,310.7,2845.6,310.7z"/>
	</g>
	<g enable-background="new    ">
		<path d="M2940.7,310.7v3h-6.5v-3H2940.7z"/>
	</g>
	<line fill="none" stroke="#000000" stroke-width="0.384" x1="2933.6" y1="310.7" x2="2941.9" y2="310.7"/>
	<g enable-background="new    ">
		<path d="M3018.7,297.6c0.7,0.9,1.5,2,2.3,3.3c0.7,1.1,1.2,2.9,1.3,3.8c0.1,0.8,0.2,1.7,0.2,2.5c0,1.2-0.2,2.4-0.6,3.5l-0.2,0
			c0.4-0.9,0.6-2.4,0.6-3.5c0-1-0.2-2.3-0.5-3.3c-0.6-1.8-1.6-2.9-2.3-3.3c-0.9-0.6-1.9-0.7-1.9-0.7h-0.3v-5.4h0.3
			C3017.5,295.6,3018.1,296.8,3018.7,297.6z"/>
	</g>
	<line fill="none" stroke="#000000" stroke-width="0.384" x1="3017" y1="312.4" x2="3017" y2="295.3"/>
	<g enable-background="new    ">
		<path d="M3014.5,310.7c1.7,0,2.7,1.2,2.2,2.7c-0.5,1.5-2.4,2.6-4.1,2.6c-1.7,0-2.7-1.2-2.1-2.7
			C3010.9,311.8,3012.8,310.7,3014.5,310.7z"/>
	</g>
	<line fill="none" stroke="#000000" stroke-width="0.384" x1="3035.2" y1="312.4" x2="3035.2" y2="295.3"/>
	<g enable-background="new    ">
		<path d="M3032.6,310.7c1.7,0,2.7,1.2,2.2,2.7c-0.5,1.5-2.4,2.6-4.1,2.6s-2.7-1.2-2.1-2.7C3029.1,311.8,3030.9,310.7,3032.6,310.7z
			"/>
	</g>
	<g enable-background="new    ">
		<path d="M3065.9,297.6c0.7,0.9,1.5,2,2.3,3.3c0.7,1.1,1.2,2.9,1.3,3.8c0.1,0.8,0.2,1.7,0.2,2.5c0,1.2-0.2,2.4-0.6,3.5l-0.2,0
			c0.4-0.9,0.6-2.4,0.6-3.5c0-1-0.2-2.3-0.5-3.3c-0.6-1.8-1.6-2.9-2.3-3.3c-0.9-0.6-1.9-0.7-1.9-0.7h-0.3v-5.4h0.3
			C3064.7,295.6,3065.3,296.8,3065.9,297.6z"/>
	</g>
	<line fill="none" stroke="#000000" stroke-width="0.384" x1="3064.2" y1="312.4" x2="3064.2" y2="295.3"/>
	<g enable-background="new    ">
		<path d="M3061.7,310.7c1.7,0,2.7,1.2,2.2,2.7c-0.5,1.5-2.4,2.6-4.1,2.6c-1.7,0-2.7-1.2-2.1-2.7
			C3058.1,311.8,3059.9,310.7,3061.7,310.7z"/>
	</g>
	<line fill="none" stroke="#000000" stroke-width="0.384" x1="3082.4" y1="312.4" x2="3082.4" y2="295.3"/>
	<g enable-background="new    ">
		<path d="M3079.8,310.7c1.7,0,2.7,1.2,2.2,2.7c-0.5,1.5-2.4,2.6-4.1,2.6s-2.7-1.2-2.1-2.7C3076.3,311.8,3078.1,310.7,3079.8,310.7z
			"/>
	</g>
	<g enable-background="new    ">
		<path d="M3108.2,314.7c-0.9,0-1.6,0.6-1.6,1.5c0,0.6,1,1.6,1,1.6l-0.2,0.2c0,0-2.4-1.4-2.6-2.9c-0.1-0.9,0.5-1.9,1.7-2
			c0.5,0,1.2,0.1,1.6,0.2c-1.9-1.9-3-3.2-2.8-3.6c0.4-0.5,1.8-2.2,1.8-3.7c0-0.9-1.4-3.1-1.4-3.1l0.3-0.2l3.7,4.7
			c0,0-1.8,2.1-1.8,3.6c0,1,0.7,1.9,1.1,2.5c0.2,0.3,1,1.1,1,1.3l0,0.3C3109.2,314.8,3108.6,314.7,3108.2,314.7z"/>
	</g>
	<g enable-background="new    ">
		<path d="M3202.5,310.7v3h-6.5v-3H3202.5z"/>
	</g>
	<line fill="none" stroke="#000000" stroke-width="0.384" x1="3195.4" y1="310.7" x2="3203.7" y2="310.7"/>
	<g enable-background="new    ">
		<path d="M3275.2,308.5c0.4,0,0.8-0.1,1.1-0.5c0.3-0.3,0.5-0.6,0.9-1l0.3,0.2l-2.3,8.6h-0.8c0,0,0.8-2.4,1.1-3.4
			c0.9-2.4,1.1-3.8,1.1-3.8c-0.5,0.4-1.7,1.2-2.7,1.3c-2.2,0.1-2.6-3-0.4-3.6C3275,306,3275.4,307.7,3275.2,308.5z"/>
	</g>
	<g enable-background="new    ">
		<path d="M3291.6,310.7c1.7,0,2.7,1.2,2.2,2.7c-0.5,1.5-2.4,2.6-4.1,2.6c-1.7,0-2.7-1.2-2.1-2.7
			C3288.1,311.8,3289.9,310.7,3291.6,310.7z"/>
	</g>
	<line fill="none" stroke="#000000" stroke-width="0.384" x1="3294.2" y1="312.4" x2="3294.2" y2="296.6"/>
	<g enable-background="new    ">
		<path d="M3306.1,308.5c0.4,0,0.8-0.1,1.1-0.5c0.3-0.3,0.5-0.6,0.9-1l0.3,0.2l-2.3,8.6h-0.8c0,0,0.8-2.4,1.1-3.4
			c0.9-2.4,1.1-3.8,1.1-3.8c-0.5,0.4-1.7,1.2-2.7,1.3c-2.2,0.1-2.6-3-0.4-3.6C3306,306,3306.4,307.7,3306.1,308.5z"/>
	</g>
	<g enable-background="new    ">
		<path d="M3322.6,310.7c1.7,0,2.7,1.2,2.2,2.7c-0.5,1.5-2.4,2.6-4.1,2.6s-2.7-1.2-2.1-2.7C3319.1,311.8,3320.9,310.7,3322.6,310.7z
			"/>
	</g>
	<line fill="none" stroke="#000000" stroke-width="0.384" x1="3325.2" y1="312.4" x2="3325.2" y2="296.6"/>
	<path d="M3294,295.3h31.3v2.6H3294V295.3z"/>
	<g enable-background="new    ">
		<path d="M3337.1,308.5c0.4,0,0.8-0.1,1.1-0.5c0.3-0.3,0.5-0.6,0.9-1l0.3,0.2l-2.3,8.6h-0.8c0,0,0.8-2.4,1.1-3.4
			c0.9-2.4,1.1-3.8,1.1-3.8c-0.5,0.4-1.7,1.2-2.7,1.3c-2.2,0.1-2.6-3-0.4-3.6C3336.9,306,3337.4,307.7,3337.1,308.5z"/>
	</g>
	<g enable-background="new    ">
		<path d="M3353.6,310.7c1.7,0,2.7,1.2,2.2,2.7c-0.5,1.5-2.4,2.6-4.1,2.6s-2.7-1.2-2.1-2.7C3350,311.8,3351.9,310.7,3353.6,310.7z"
			/>
	</g>
	<line fill="none" stroke="#000000" stroke-width="0.384" x1="3356.1" y1="312.4" x2="3356.1" y2="296.6"/>
	<g enable-background="new    ">
		<path d="M3367.8,308.5c0.4,0,0.8-0.1,1.1-0.5c0.3-0.3,0.5-0.6,0.9-1l0.3,0.2l-2.3,8.6h-0.8c0,0,0.8-2.4,1.1-3.4
			c0.9-2.4,1.1-3.8,1.1-3.8c-0.5,0.4-1.7,1.2-2.7,1.3c-2.2,0.1-2.6-3-0.4-3.6C3367.7,306,3368.1,307.7,3367.8,308.5z"/>
	</g>
	<g enable-background="new    ">
		<path d="M3384.5,310.7c1.7,0,2.7,1.2,2.2,2.7c-0.5,1.5-2.4,2.6-4.1,2.6c-1.7,0-2.7-1.2-2.1-2.7
			C3381,311.8,3382.8,310.7,3384.5,310.7z"/>
	</g>
	<line fill="none" stroke="#000000" stroke-width="0.384" x1="3387.1" y1="312.4" x2="3387.1" y2="296.6"/>
	<path d="M3356,295.3h31.3v2.6H3356V295.3z"/>
	<g enable-background="new    ">
		<path d="M3406.9,308.5c0.4,0,0.8-0.1,1.1-0.5c0.3-0.3,0.5-0.6,0.9-1l0.3,0.2l-2.3,8.6h-0.8c0,0,0.8-2.4,1.1-3.4
			c0.9-2.4,1.1-3.8,1.1-3.8c-0.5,0.4-1.7,1.2-2.7,1.3c-2.2,0.1-2.6-3-0.4-3.6C3406.8,306,3407.2,307.7,3406.9,308.5z"/>
	</g>
	<line fill="none" stroke="#000000" stroke-width="0.384" x1="3428.1" y1="312.4" x2="3428.1" y2="295.3"/>
	<g enable-background="new    ">
		<path d="M3425.5,310.7c1.7,0,2.7,1.2,2.2,2.7c-0.5,1.5-2.4,2.6-4.1,2.6c-1.7,0-2.7-1.2-2.1-2.7
			C3422,311.8,3423.8,310.7,3425.5,310.7z"/>
	</g>
	<g enable-background="new    ">
		<path d="M3461.2,297.6c0.7,0.9,1.5,2,2.3,3.3c0.7,1.1,1.2,2.9,1.3,3.8c0.1,0.8,0.2,1.7,0.2,2.5c0,1.2-0.2,2.4-0.6,3.5l-0.2,0
			c0.4-0.9,0.6-2.4,0.6-3.5c0-1-0.2-2.3-0.5-3.3c-0.6-1.8-1.6-2.9-2.3-3.3c-0.9-0.6-1.9-0.7-1.9-0.7h-0.3v-5.4h0.3
			C3460,295.6,3460.6,296.8,3461.2,297.6z"/>
	</g>
	<line fill="none" stroke="#000000" stroke-width="0.384" x1="3459.5" y1="312.4" x2="3459.5" y2="295.3"/>
	<g enable-background="new    ">
		<path d="M3456.9,310.7c1.7,0,2.7,1.2,2.2,2.7c-0.5,1.5-2.4,2.6-4.1,2.6c-1.7,0-2.7-1.2-2.1-2.7
			C3453.4,311.8,3455.2,310.7,3456.9,310.7z"/>
	</g>
	<line fill="none" stroke="#000000" stroke-width="0.384" x1="3477" y1="312.4" x2="3477" y2="295.3"/>
	<g enable-background="new    ">
		<path d="M3474.4,310.7c1.7,0,2.7,1.2,2.2,2.7c-0.5,1.5-2.4,2.6-4.1,2.6s-2.7-1.2-2.1-2.7C3470.9,311.8,3472.7,310.7,3474.4,310.7z
			"/>
	</g>
	<g enable-background="new    ">
		<path d="M3502,314.7c-0.9,0-1.6,0.6-1.6,1.5c0,0.6,1,1.6,1,1.6l-0.2,0.2c0,0-2.4-1.4-2.6-2.9c-0.1-0.9,0.5-1.9,1.7-2
			c0.5,0,1.2,0.1,1.6,0.2c-1.9-1.9-3-3.2-2.8-3.6c0.4-0.5,1.8-2.2,1.8-3.7c0-0.9-1.4-3.1-1.4-3.1l0.3-0.2l3.7,4.7
			c0,0-1.8,2.1-1.8,3.6c0,1,0.7,1.9,1.1,2.5c0.2,0.3,1,1.1,1,1.3l0,0.3C3503,314.8,3502.4,314.7,3502,314.7z"/>
	</g>
	<g enable-background="new    ">
		<path d="M3537,308.5c0.4,0,0.8-0.1,1.1-0.5c0.3-0.3,0.5-0.6,0.9-1l0.3,0.2l-2.3,8.6h-0.8c0,0,0.8-2.4,1.1-3.4
			c0.9-2.4,1.1-3.8,1.1-3.8c-0.5,0.4-1.7,1.2-2.7,1.3c-2.2,0.1-2.6-3-0.4-3.6C3536.8,306,3537.2,307.7,3537,308.5z"/>
	</g>
	<g enable-background="new    ">
		<path d="M3553.5,310.7c1.7,0,2.7,1.2,2.2,2.7c-0.5,1.5-2.4,2.6-4.1,2.6s-2.7-1.2-2.1-2.7C3549.9,311.8,3551.7,310.7,3553.5,310.7z
			"/>
	</g>
	<line fill="none" stroke="#000000" stroke-width="0.384" x1="3556" y1="312.4" x2="3556" y2="296.6"/>
	<g enable-background="new    ">
		<path d="M3567.9,308.5c0.4,0,0.8-0.1,1.1-0.5c0.3-0.3,0.5-0.6,0.9-1l0.3,0.2l-2.3,8.6h-0.8c0,0,0.8-2.4,1.1-3.4
			c0.9-2.4,1.1-3.8,1.1-3.8c-0.5,0.4-1.7,1.2-2.7,1.3c-2.2,0.1-2.6-3-0.4-3.6C3567.8,306,3568.2,307.7,3567.9,308.5z"/>
	</g>
	<g enable-background="new    ">
		<path d="M3584.4,310.7c1.7,0,2.7,1.2,2.2,2.7c-0.5,1.5-2.4,2.6-4.1,2.6c-1.7,0-2.7-1.2-2.1-2.7
			C3580.9,311.8,3582.7,310.7,3584.4,310.7z"/>
	</g>
	<line fill="none" stroke="#000000" stroke-width="0.384" x1="3587" y1="312.4" x2="3587" y2="296.6"/>
	<path d="M3555.8,295.3h31.3v2.6h-31.3V295.3z"/>
	<g enable-background="new    ">
		<path d="M3598.9,308.5c0.4,0,0.8-0.1,1.1-0.5c0.3-0.3,0.5-0.6,0.9-1l0.3,0.2l-2.3,8.6h-0.8c0,0,0.8-2.4,1.1-3.4
			c0.9-2.4,1.1-3.8,1.1-3.8c-0.5,0.4-1.7,1.2-2.7,1.3c-2.2,0.1-2.6-3-0.4-3.6C3598.7,306,3599.2,307.7,3598.9,308.5z"/>
	</g>
	<g enable-background="new    ">
		<path d="M3615.4,310.7c1.7,0,2.7,1.2,2.2,2.7c-0.5,1.5-2.4,2.6-4.1,2.6c-1.7,0-2.7-1.2-2.1-2.7
			C3611.8,311.8,3613.7,310.7,3615.4,310.7z"/>
	</g>
	<line fill="none" stroke="#000000" stroke-width="0.384" x1="3617.9" y1="312.4" x2="3617.9" y2="296.6"/>
	<g enable-background="new    ">
		<path d="M3629.6,308.5c0.4,0,0.8-0.1,1.1-0.5c0.3-0.3,0.5-0.6,0.9-1l0.3,0.2l-2.3,8.6h-0.8c0,0,0.8-2.4,1.1-3.4
			c0.9-2.4,1.1-3.8,1.1-3.8c-0.5,0.4-1.7,1.2-2.7,1.3c-2.2,0.1-2.6-3-0.4-3.6C3629.5,306,3629.9,307.7,3629.6,308.5z"/>
	</g>
	<g enable-background="new    ">
		<path d="M3646.3,310.7c1.7,0,2.7,1.2,2.2,2.7c-0.5,1.5-2.4,2.6-4.1,2.6c-1.7,0-2.7-1.2-2.1-2.7
			C3642.8,311.8,3644.6,310.7,3646.3,310.7z"/>
	</g>
	<line fill="none" stroke="#000000" stroke-width="0.384" x1="3648.9" y1="312.4" x2="3648.9" y2="296.6"/>
	<path d="M3617.8,295.3h31.3v2.6h-31.3V295.3z"/>
	<g enable-background="new    ">
		<path d="M3668.7,308.5c0.4,0,0.8-0.1,1.1-0.5c0.3-0.3,0.5-0.6,0.9-1l0.3,0.2l-2.3,8.6h-0.8c0,0,0.8-2.4,1.1-3.4
			c0.9-2.4,1.1-3.8,1.1-3.8c-0.5,0.4-1.7,1.2-2.7,1.3c-2.2,0.1-2.6-3-0.4-3.6C3668.6,306,3669,307.7,3668.7,308.5z"/>
	</g>
	<line fill="none" stroke="#000000" stroke-width="0.384" x1="3689.9" y1="312.4" x2="3689.9" y2="295.3"/>
	<g enable-background="new    ">
		<path d="M3687.3,310.7c1.7,0,2.7,1.2,2.2,2.7c-0.5,1.5-2.4,2.6-4.1,2.6c-1.7,0-2.7-1.2-2.1-2.7
			C3683.8,311.8,3685.6,310.7,3687.3,310.7z"/>
	</g>
	<g enable-background="new    ">
		<path d="M3723,297.6c0.7,0.9,1.5,2,2.3,3.3c0.7,1.1,1.2,2.9,1.3,3.8c0.1,0.8,0.2,1.7,0.2,2.5c0,1.2-0.2,2.4-0.6,3.5l-0.2,0
			c0.4-0.9,0.6-2.4,0.6-3.5c0-1-0.2-2.3-0.5-3.3c-0.6-1.8-1.6-2.9-2.3-3.3c-0.9-0.6-1.9-0.7-1.9-0.7h-0.3v-5.4h0.3
			C3721.8,295.6,3722.4,296.8,3723,297.6z"/>
	</g>
	<line fill="none" stroke="#000000" stroke-width="0.384" x1="3721.3" y1="312.4" x2="3721.3" y2="295.3"/>
	<g enable-background="new    ">
		<path d="M3718.7,310.7c1.7,0,2.7,1.2,2.2,2.7c-0.5,1.5-2.4,2.6-4.1,2.6c-1.7,0-2.7-1.2-2.1-2.7
			C3715.2,311.8,3717,310.7,3718.7,310.7z"/>
	</g>
	<line fill="none" stroke="#000000" stroke-width="0.384" x1="3738.8" y1="312.4" x2="3738.8" y2="295.3"/>
	<g enable-background="new    ">
		<path d="M3736.2,310.7c1.7,0,2.7,1.2,2.2,2.7c-0.5,1.5-2.4,2.6-4.1,2.6c-1.7,0-2.7-1.2-2.1-2.7
			C3732.7,311.8,3734.5,310.7,3736.2,310.7z"/>
	</g>
	<g enable-background="new    ">
		<path d="M3763.8,314.7c-0.9,0-1.6,0.6-1.6,1.5c0,0.6,1,1.6,1,1.6l-0.2,0.2c0,0-2.4-1.4-2.6-2.9c-0.1-0.9,0.5-1.9,1.7-2
			c0.5,0,1.2,0.1,1.6,0.2c-1.9-1.9-3-3.2-2.8-3.6c0.4-0.5,1.8-2.2,1.8-3.7c0-0.9-1.4-3.1-1.4-3.1l0.3-0.2l3.7,4.7
			c0,0-1.8,2.1-1.8,3.6c0,1,0.7,1.9,1.1,2.5c0.2,0.3,1,1.1,1,1.3l0,0.3C3764.8,314.8,3764.2,314.7,3763.8,314.7z"/>
	</g>
	<g enable-background="new    ">
		<path d="M3798.8,308.5c0.4,0,0.8-0.1,1.1-0.5c0.3-0.3,0.5-0.6,0.9-1l0.3,0.2l-2.3,8.6h-0.8c0,0,0.8-2.4,1.1-3.4
			c0.9-2.4,1.1-3.8,1.1-3.8c-0.5,0.4-1.7,1.2-2.7,1.3c-2.2,0.1-2.6-3-0.4-3.6C3798.6,306,3799,307.7,3798.8,308.5z"/>
	</g>
	<g enable-background="new    ">
		<path d="M3815.3,310.7c1.7,0,2.7,1.2,2.2,2.7c-0.5,1.5-2.4,2.6-4.1,2.6c-1.7,0-2.7-1.2-2.1-2.7
			C3811.7,311.8,3813.5,310.7,3815.3,310.7z"/>
	</g>
	<line fill="none" stroke="#000000" stroke-width="0.384" x1="3817.8" y1="312.4" x2="3817.8" y2="296.6"/>
	<g enable-background="new    ">
		<path d="M3829.7,308.5c0.4,0,0.8-0.1,1.1-0.5c0.3-0.3,0.5-0.6,0.9-1l0.3,0.2l-2.3,8.6h-0.8c0,0,0.8-2.4,1.1-3.4
			c0.9-2.4,1.1-3.8,1.1-3.8c-0.5,0.4-1.7,1.2-2.7,1.3c-2.2,0.1-2.6-3-0.4-3.6C3829.6,306,3830,307.7,3829.7,308.5z"/>
	</g>
	<g enable-background="new    ">
		<path d="M3846.2,310.7c1.7,0,2.7,1.2,2.2,2.7c-0.5,1.5-2.4,2.6-4.1,2.6c-1.7,0-2.7-1.2-2.1-2.7
			C3842.7,311.8,3844.5,310.7,3846.2,310.7z"/>
	</g>
	<line fill="none" stroke="#000000" stroke-width="0.384" x1="3848.8" y1="312.4" x2="3848.8" y2="296.6"/>
	<path d="M3817.6,295.3h31.3v2.6h-31.3V295.3z"/>
	<g enable-background="new    ">
		<path d="M3860.7,308.5c0.4,0,0.8-0.1,1.1-0.5c0.3-0.3,0.5-0.6,0.9-1l0.3,0.2l-2.3,8.6h-0.8c0,0,0.8-2.4,1.1-3.4
			c0.9-2.4,1.1-3.8,1.1-3.8c-0.5,0.4-1.7,1.2-2.7,1.3c-2.2,0.1-2.6-3-0.4-3.6C3860.5,306,3861,307.7,3860.7,308.5z"/>
	</g>
	<g enable-background="new    ">
		<path d="M3877.2,310.7c1.7,0,2.7,1.2,2.2,2.7c-0.5,1.5-2.4,2.6-4.1,2.6c-1.7,0-2.7-1.2-2.1-2.7
			C3873.6,311.8,3875.5,310.7,3877.2,310.7z"/>
	</g>
	<line fill="none" stroke="#000000" stroke-width="0.384" x1="3879.7" y1="312.4" x2="3879.7" y2="296.6"/>
	<g enable-background="new    ">
		<path d="M3891.4,308.5c0.4,0,0.8-0.1,1.1-0.5c0.3-0.3,0.5-0.6,0.9-1l0.3,0.2l-2.3,8.6h-0.8c0,0,0.8-2.4,1.1-3.4
			c0.9-2.4,1.1-3.8,1.1-3.8c-0.5,0.4-1.7,1.2-2.7,1.3c-2.2,0.1-2.6-3-0.4-3.6C3891.3,306,3891.7,307.7,3891.4,308.5z"/>
	</g>
	<g enable-background="new    ">
		<path d="M3908.1,310.7c1.7,0,2.7,1.2,2.2,2.7c-0.5,1.5-2.4,2.6-4.1,2.6c-1.7,0-2.7-1.2-2.1-2.7
			C3904.6,311.8,3906.4,310.7,3908.1,310.7z"/>
	</g>
	<line fill="none" stroke="#000000" stroke-width="0.384" x1="3910.7" y1="312.4" x2="3910.7" y2="296.6"/>
	<path d="M3879.6,295.3h31.3v2.6h-31.3V295.3z"/>
	<g enable-background="new    ">
		<path d="M3930.5,308.5c0.4,0,0.8-0.1,1.1-0.5c0.3-0.3,0.5-0.6,0.9-1l0.3,0.2l-2.3,8.6h-0.8c0,0,0.8-2.4,1.1-3.4
			c0.9-2.4,1.1-3.8,1.1-3.8c-0.5,0.4-1.7,1.2-2.7,1.3c-2.2,0.1-2.6-3-0.4-3.6C3930.4,306,3930.8,307.7,3930.5,308.5z"/>
	</g>
	<line fill="none" stroke="#000000" stroke-width="0.384" x1="3951.7" y1="312.4" x2="3951.7" y2="295.3"/>
	<g enable-background="new    ">
		<path d="M3949.1,310.7c1.7,0,2.7,1.2,2.2,2.7c-0.5,1.5-2.4,2.6-4.1,2.6c-1.7,0-2.7-1.2-2.1-2.7
			C3945.6,311.8,3947.4,310.7,3949.1,310.7z"/>
	</g>
	<g enable-background="new    ">
		<path d="M3984.8,297.6c0.7,0.9,1.5,2,2.3,3.3c0.7,1.1,1.2,2.9,1.3,3.8c0.1,0.8,0.2,1.7,0.2,2.5c0,1.2-0.2,2.4-0.6,3.5l-0.2,0
			c0.4-0.9,0.6-2.4,0.6-3.5c0-1-0.2-2.3-0.5-3.3c-0.6-1.8-1.6-2.9-2.3-3.3c-0.9-0.6-1.9-0.7-1.9-0.7h-0.3v-5.4h0.3
			C3983.6,295.6,3984.2,296.8,3984.8,297.6z"/>
	</g>
	<line fill="none" stroke="#000000" stroke-width="0.384" x1="3983.1" y1="312.4" x2="3983.1" y2="295.3"/>
	<g enable-background="new    ">
		<path d="M3980.5,310.7c1.7,0,2.7,1.2,2.2,2.7c-0.5,1.5-2.4,2.6-4.1,2.6s-2.7-1.2-2.1-2.7C3977,311.8,3978.8,310.7,3980.5,310.7z"
			/>
	</g>
	<line fill="none" stroke="#000000" stroke-width="0.384" x1="4000.6" y1="312.4" x2="4000.6" y2="295.3"/>
	<g enable-background="new    ">
		<path d="M3998,310.7c1.7,0,2.7,1.2,2.2,2.7c-0.5,1.5-2.4,2.6-4.1,2.6s-2.7-1.2-2.1-2.7C3994.5,311.8,3996.3,310.7,3998,310.7z"/>
	</g>
	<g enable-background="new    ">
		<path d="M4025.6,314.7c-0.9,0-1.6,0.6-1.6,1.5c0,0.6,1,1.6,1,1.6l-0.2,0.2c0,0-2.4-1.4-2.6-2.9c-0.1-0.9,0.5-1.9,1.7-2
			c0.5,0,1.2,0.1,1.6,0.2c-1.9-1.9-3-3.2-2.8-3.6c0.4-0.5,1.8-2.2,1.8-3.7c0-0.9-1.4-3.1-1.4-3.1l0.3-0.2l3.7,4.7
			c0,0-1.8,2.1-1.8,3.6c0,1,0.7,1.9,1.1,2.5c0.2,0.3,1,1.1,1,1.3l0,0.3C4026.6,314.8,4026,314.7,4025.6,314.7z"/>
	</g>
	<g enable-background="new    ">
		<path d="M4060.6,308.5c0.4,0,0.8-0.1,1.1-0.5c0.3-0.3,0.5-0.6,0.9-1l0.3,0.2l-2.3,8.6h-0.8c0,0,0.8-2.4,1.1-3.4
			c0.9-2.4,1.1-3.8,1.1-3.8c-0.5,0.4-1.7,1.2-2.7,1.3c-2.2,0.1-2.6-3-0.4-3.6C4060.4,306,4060.8,307.7,4060.6,308.5z"/>
	</g>
	<g enable-background="new    ">
		<path d="M4077.1,310.7c1.7,0,2.7,1.2,2.2,2.7c-0.5,1.5-2.4,2.6-4.1,2.6c-1.7,0-2.7-1.2-2.1-2.7
			C4073.5,311.8,4075.3,310.7,4077.1,310.7z"/>
	</g>
	<line fill="none" stroke="#000000" stroke-width="0.384" x1="4079.6" y1="312.4" x2="4079.6" y2="296.6"/>
	<g enable-background="new    ">
		<path d="M4091.5,308.5c0.4,0,0.8-0.1,1.1-0.5c0.3-0.3,0.5-0.6,0.9-1l0.3,0.2l-2.3,8.6h-0.8c0,0,0.8-2.4,1.1-3.4
			c0.9-2.4,1.1-3.8,1.1-3.8c-0.5,0.4-1.7,1.2-2.7,1.3c-2.2,0.1-2.6-3-0.4-3.6C4091.4,306,4091.8,307.7,4091.5,308.5z"/>
	</g>
	<g enable-background="new    ">
		<path d="M4108,310.7c1.7,0,2.7,1.2,2.2,2.7c-0.5,1.5-2.4,2.6-4.1,2.6c-1.7,0-2.7-1.2-2.1-2.7
			C4104.5,311.8,4106.3,310.7,4108,310.7z"/>
	</g>
	<line fill="none" stroke="#000000" stroke-width="0.384" x1="4110.6" y1="312.4" x2="4110.6" y2="296.6"/>
	<path d="M4079.4,295.3h31.3v2.6h-31.3V295.3z"/>
	<g enable-background="new    ">
		<path d="M4122.5,308.5c0.4,0,0.8-0.1,1.1-0.5c0.3-0.3,0.5-0.6,0.9-1l0.3,0.2l-2.3,8.6h-0.8c0,0,0.8-2.4,1.1-3.4
			c0.9-2.4,1.1-3.8,1.1-3.8c-0.5,0.4-1.7,1.2-2.7,1.3c-2.2,0.1-2.6-3-0.4-3.6C4122.3,306,4122.8,307.7,4122.5,308.5z"/>
	</g>
	<g enable-background="new    ">
		<path d="M4139,310.7c1.7,0,2.7,1.2,2.2,2.7c-0.5,1.5-2.4,2.6-4.1,2.6c-1.7,0-2.7-1.2-2.1-2.7
			C4135.4,311.8,4137.3,310.7,4139,310.7z"/>
	</g>
	<line fill="none" stroke="#000000" stroke-width="0.384" x1="4141.5" y1="312.4" x2="4141.5" y2="296.6"/>
	<g enable-background="new    ">
		<path d="M4153.2,308.5c0.4,0,0.8-0.1,1.1-0.5c0.3-0.3,0.5-0.6,0.9-1l0.3,0.2l-2.3,8.6h-0.8c0,0,0.8-2.4,1.1-3.4
			c0.9-2.4,1.1-3.8,1.1-3.8c-0.5,0.4-1.7,1.2-2.7,1.3c-2.2,0.1-2.6-3-0.4-3.6C4153.1,306,4153.5,307.7,4153.2,308.5z"/>
	</g>
	<g enable-background="new    ">
		<path d="M4169.9,310.7c1.7,0,2.7,1.2,2.2,2.7c-0.5,1.5-2.4,2.6-4.1,2.6c-1.7,0-2.7-1.2-2.1-2.7
			C4166.4,311.8,4168.2,310.7,4169.9,310.7z"/>
	</g>
	<line fill="none" stroke="#000000" stroke-width="0.384" x1="4172.5" y1="312.4" x2="4172.5" y2="296.6"/>
	<path d="M4141.4,295.3h31.3v2.6h-31.3V295.3z"/>
	<g enable-background="new    ">
		<path d="M4192.3,308.5c0.4,0,0.8-0.1,1.1-0.5c0.3-0.3,0.5-0.6,0.9-1l0.3,0.2l-2.3,8.6h-0.8c0,0,0.8-2.4,1.1-3.4
			c0.9-2.4,1.1-3.8,1.1-3.8c-0.5,0.4-1.7,1.2-2.7,1.3c-2.2,0.1-2.6-3-0.4-3.6C4192.2,306,4192.6,307.7,4192.3,308.5z"/>
	</g>
	<line fill="none" stroke="#000000" stroke-width="0.384" x1="4212.7" y1="312.4" x2="4212.7" y2="295.3"/>
	<g enable-background="new    ">
		<path d="M4210.1,310.7c1.7,0,2.7,1.2,2.2,2.7c-0.5,1.5-2.4,2.6-4.1,2.6c-1.7,0-2.7-1.2-2.1-2.7
			C4206.5,311.8,4208.4,310.7,4210.1,310.7z"/>
	</g>
	<g enable-background="new    ">
		<path d="M4244.7,297.6c0.7,0.9,1.5,2,2.3,3.3c0.7,1.1,1.2,2.9,1.3,3.8c0.1,0.8,0.2,1.7,0.2,2.5c0,1.2-0.2,2.4-0.6,3.5l-0.2,0
			c0.4-0.9,0.6-2.4,0.6-3.5c0-1-0.2-2.3-0.5-3.3c-0.6-1.8-1.6-2.9-2.3-3.3c-0.9-0.6-1.9-0.7-1.9-0.7h-0.3v-5.4h0.3
			C4243.5,295.6,4244.1,296.8,4244.7,297.6z"/>
	</g>
	<line fill="none" stroke="#000000" stroke-width="0.384" x1="4243" y1="312.4" x2="4243" y2="295.3"/>
	<g enable-background="new    ">
		<path d="M4240.4,310.7c1.7,0,2.7,1.2,2.2,2.7c-0.5,1.5-2.4,2.6-4.1,2.6c-1.7,0-2.7-1.2-2.1-2.7
			C4236.9,311.8,4238.7,310.7,4240.4,310.7z"/>
	</g>
	<line fill="none" stroke="#000000" stroke-width="0.384" x1="4259.6" y1="312.4" x2="4259.6" y2="295.3"/>
	<g enable-background="new    ">
		<path d="M4257.1,310.7c1.7,0,2.7,1.2,2.2,2.7c-0.5,1.5-2.4,2.6-4.1,2.6c-1.7,0-2.7-1.2-2.1-2.7
			C4253.5,311.8,4255.3,310.7,4257.1,310.7z"/>
	</g>
	<g enable-background="new    ">
		<path d="M4283.5,314.7c-0.9,0-1.6,0.6-1.6,1.5c0,0.6,1,1.6,1,1.6l-0.2,0.2c0,0-2.4-1.4-2.6-2.9c-0.1-0.9,0.5-1.9,1.7-2
			c0.5,0,1.2,0.1,1.6,0.2c-1.9-1.9-3-3.2-2.8-3.6c0.4-0.5,1.8-2.2,1.8-3.7c0-0.9-1.4-3.1-1.4-3.1l0.3-0.2l3.7,4.7
			c0,0-1.8,2.1-1.8,3.6c0,1,0.7,1.9,1.1,2.5c0.2,0.3,1,1.1,1,1.3l0,0.3C4284.5,314.8,4284,314.7,4283.5,314.7z"/>
	</g>
</g>
</svg>
